<?xml version="1.0" encoding="UTF-8" standalone="no"?>
<svg
   width="136.53334"
   height="136.53334"
   id="svg5048"
   version="1.1"
   inkscape:version="1.1 (c68e22c387, 2021-05-23)"
   sodipodi:docname="shutdown_primary.svg"
   viewBox="0 0 128 128"
   xmlns:inkscape="http://www.inkscape.org/namespaces/inkscape"
   xmlns:sodipodi="http://sodipodi.sourceforge.net/DTD/sodipodi-0.dtd"
   xmlns:xlink="http://www.w3.org/1999/xlink"
   xmlns="http://www.w3.org/2000/svg"
   xmlns:svg="http://www.w3.org/2000/svg"
   xmlns:rdf="http://www.w3.org/1999/02/22-rdf-syntax-ns#"
   xmlns:cc="http://creativecommons.org/ns#"
   xmlns:dc="http://purl.org/dc/elements/1.1/">
  <defs
     id="defs5050">
    <filter
       id="filter4004-4"
       inkscape:label="Colorize"
       inkscape:menu="Color"
       inkscape:menu-tooltip="Blend image or object with a flood color and set lightness and contrast"
       x="0"
       y="0"
       width="1"
       height="1"
       color-interpolation-filters="sRGB">
      <feColorMatrix
         id="feColorMatrix4006-0"
         values="1"
         in="SourceGraphic"
         type="saturate"
         result="result2" />
      <feFlood
         id="feFlood4008-2"
         flood-color="rgb(250,247,247)"
         flood-opacity="1"
         result="result1" />
      <feBlend
         id="feBlend4010-1"
         in2="result2"
         mode="multiply"
         in="result1"
         result="result3" />
      <feComposite
         id="feComposite4012-3"
         in2="SourceGraphic"
         operator="in"
         result="result4" />
    </filter>
    <style
       id="current-color-scheme"
       type="text/css">      .ColorScheme-Text {
        color:#31363b;
      }
      .ColorScheme-Background{
        color:#eff0f1;
      }
      .ColorScheme-ViewText {
        color:#31363b;
      }
      .ColorScheme-ViewBackground{
        color:#fcfcfc;
      }
      .ColorScheme-ViewHover {
        color:#3daee9;
      }
      .ColorScheme-ViewFocus{
        color:#3daee9;
      }
      .ColorScheme-ButtonText {
        color:#31363b;
      }
      .ColorScheme-ButtonBackground{
        color:#eff0f1;
      }
      .ColorScheme-ButtonHover {
        color:#3daee9;
      }
      .ColorScheme-ButtonFocus{
        color:#3daee9;
      }</style>
    <linearGradient
       inkscape:collect="always"
       xlink:href="#linearGradient2141"
       id="linearGradient2143"
       x1="3.3535533"
       y1="27.893074"
       x2="23.613525"
       y2="8.9416494"
       gradientUnits="userSpaceOnUse"
       gradientTransform="matrix(4.6153198,0,0,4.6153198,-3.4974965,904.12575)" />
    <linearGradient
       inkscape:collect="always"
       id="linearGradient2141">
      <stop
         style="stop-color:#ff2a2a;stop-opacity:1;"
         offset="0"
         id="stop2137" />
      <stop
         style="stop-color:#ffccaa;stop-opacity:1"
         offset="1"
         id="stop2139" />
    </linearGradient>
  </defs>
  <sodipodi:namedview
     id="base"
     pagecolor="#ffffff"
     bordercolor="#000000"
     borderopacity="1"
     inkscape:pageopacity="0.12941176"
     inkscape:pageshadow="2"
     inkscape:zoom="2"
     inkscape:cx="-118.25"
     inkscape:cy="21.5"
     inkscape:document-units="px"
     inkscape:current-layer="layer1"
     showgrid="true"
     inkscape:window-width="1920"
     inkscape:window-height="1015"
     inkscape:window-x="0"
     inkscape:window-y="0"
     inkscape:window-maximized="1"
     fit-margin-top="0"
     fit-margin-left="0"
     fit-margin-right="0"
     fit-margin-bottom="0"
     inkscape:snap-bbox="true"
     inkscape:document-rotation="0"
     inkscape:pagecheckerboard="0">
    <inkscape:grid
       type="xygrid"
       id="grid3001"
       empspacing="4"
       visible="true"
       enabled="true"
       snapvisiblegridlinesonly="true"
       color="#0101ff"
       opacity="0.01960784"
       empcolor="#0000ff"
       empopacity="0.03921569"
       originx="0"
       originy="0"
       spacingx="1"
       spacingy="1" />
  </sodipodi:namedview>
  <metadata
     id="metadata5053">
    <rdf:RDF>
      <cc:Work
         rdf:about="">
        <dc:format>image/svg+xml</dc:format>
        <dc:type
           rdf:resource="http://purl.org/dc/dcmitype/StillImage" />
      </cc:Work>
    </rdf:RDF>
  </metadata>
  <g
     inkscape:label="Layer 1"
     inkscape:groupmode="layer"
     id="layer1"
     transform="translate(-6.129729,-913.75296)">
    <path
       d="m 70.345329,1037.9707 c -33.13387,0 -59.99685,-26.865 -59.99685,-60.002 0,-10.52681 2.73724,-20.39966 7.5004,-28.99272 2.43507,-4.99494 7.54697,-8.44838 13.4754,-8.44838 8.28198,0 15.00144,6.71617 15.00144,14.9979 0,2.74472 -0.75233,5.31015 -2.0395,7.5257 l 0.0394,0.0295 c -2.51738,4.38906 -3.98035,9.46463 -3.98035,14.89195 0,16.56824 13.43233,30.00225 29.99752,30.00225 11.60348,0 21.64956,-6.6027 26.63677,-16.23924 h 0.004 c 0.01,-0.0197 0.0148,-0.0443 0.0246,-0.0586 0.48344,-0.93748 0.9082,-1.90052 1.289041,-2.88936 0.0807,-0.1979 0.14622,-0.40664 0.22351,-0.61148 0.29981,-0.82402 0.56039,-1.65886 0.78699,-2.51222 0.0729,-0.28947 0.1536,-0.58214 0.22695,-0.87511 0.18314,-0.79477 0.32591,-1.60027 0.45046,-2.42064 0.0492,-0.33329 0.11372,-0.659 0.15064,-0.99228 0.12455,-1.12053 0.2048,-2.24859 0.2048,-3.40308 0,-1.23587 -0.0921,-2.44989 -0.23828,-3.64918 -0.004,-0.0197 0,-0.0443 -0.004,-0.066 l -0.01,0.004 c -0.51283,-4.13833 -1.87478,-8.01082 -3.892481,-11.44959 -0.81284,-2.09828 -2.84151,-3.59049 -5.22907,-3.59049 -3.10519,0 -5.62631,2.51944 -5.62631,5.62675 v 5.62493 c 0,1.97924 -0.39187,3.86338 -1.09123,5.59559 -0.26338,0.66096 -0.5822,1.29445 -0.93749,1.90432 -0.0345,0.064 -0.0699,0.12258 -0.10634,0.1851 -0.72137,1.20752 -1.60377,2.30249 -2.62189,3.2547 -0.0394,0.0394 -0.0842,0.0773 -0.12455,0.11372 -0.49083,0.4544 -1.01808,0.87516 -1.56744,1.26349 -0.0295,0.0148 -0.0581,0.0394 -0.0876,0.0625 -0.54562,0.36972 -1.11324,0.69587 -1.70292,0.99987 -0.12849,0.0625 -0.25649,0.12455 -0.38449,0.18707 -0.57865,0.27077 -1.17561,0.51633 -1.79409,0.71763 -0.0246,0.01 -0.0551,0.0246 -0.0773,0.0295 -0.62246,0.1979 -1.27452,0.33673 -1.92982,0.45045 -0.1723,0.0295 -0.34412,0.0586 -0.52001,0.0842 -0.67362,0.0916 -1.35935,0.1536 -2.05689,0.1536 -8.28202,0 -14.99765,-6.7171 -14.99765,-15.00075 v -37.50445 c 1.5e-4,-8.28385 6.71587,-14.99814 14.9979,-14.99814 8.28596,0 15.00164,6.71429 15.00164,14.99814 v 3.74995 c 0,2.07279 -1.67717,3.74991 -3.74971,3.74991 -2.07279,0 -3.74976,-1.67737 -3.74976,-3.74991 v -3.74995 c 0,-4.14182 -3.35779,-7.50178 -7.50217,-7.50178 -4.14163,0 -7.49661,3.35996 -7.49661,7.50178 v 37.49968 c 0,4.14183 3.35498,7.49991 7.49661,7.49991 4.14438,0 7.50217,-3.35808 7.50217,-7.49991 v -5.62493 c 0,-0.80008 0.0921,-1.56911 0.23089,-2.32543 0.0443,-0.26141 0.11372,-0.50525 0.17231,-0.76169 0.12455,-0.51632 0.28208,-1.01807 0.46473,-1.5089 0.095,-0.24861 0.17181,-0.49264 0.27815,-0.73239 0.27815,-0.61331 0.59696,-1.20112 0.95954,-1.76155 0.21957,-0.34068 0.47606,-0.64827 0.72516,-0.96299 0.18314,-0.22695 0.36283,-0.46129 0.56039,-0.67569 0.30424,-0.34067 0.62625,-0.6647 0.96279,-0.97244 0.13538,-0.12652 0.28553,-0.23433 0.4283,-0.35347 2.27413,-1.88783 5.15784,-3.06886 8.34361,-3.06886 5.38282,0 9.996661,3.24653 12.021641,7.88263 l 0.0197,-0.01 c 3.06137,5.43623 4.82991,11.69677 4.82991,18.37636 0,20.71445 -16.785691,37.50212 -37.497811,37.50212 -20.70677,0 -37.49969,-16.78767 -37.49969,-37.50212 0,-1.17724 0.0714,-2.33267 0.18117,-3.47712 0.0295,-0.25058 0.0443,-0.49993 0.0763,-0.74722 0.12996,-1.15168 0.30227,-2.28698 0.53833,-3.40563 0.82027,-3.91493 2.24828,-7.61546 4.18377,-10.98264 l -0.064,-0.0345 c 0.66071,-1.11328 1.06361,-2.40045 1.06361,-3.79214 0,-4.14178 -3.35783,-7.49612 -7.50035,-7.49612 -3.15279,0 -5.8443,1.95001 -6.9501,4.70379 -4.12519,7.49828 -6.52535,16.07466 -6.52535,25.23554 0,28.99516 23.50229,52.49836 52.49649,52.49836 27.58529,0 50.158561,-21.2915 52.293471,-48.32631 0.12406,-1.37692 0.20874,-2.76112 0.20874,-4.17205 0,-1.30731 -0.0586,-2.60201 -0.15754,-3.88352 -0.0246,-0.37513 -0.0729,-0.73973 -0.10633,-1.11516 -0.0842,-0.88614 -0.18708,-1.76504 -0.31114,-2.63671 -0.0729,-0.47064 -0.1536,-0.93203 -0.23089,-1.39543 -0.13932,-0.78187 -0.29292,-1.55995 -0.46522,-2.32917 -0.1024,-0.4667 -0.2048,-0.93375 -0.32197,-1.39169 -0.1979,-0.77458 -0.41008,-1.53795 -0.64082,-2.29619 -0.12849,-0.43765 -0.25649,-0.8697 -0.39532,-1.30351 -0.33329,-1.01626 -0.69937,-2.02149 -1.09473,-3.01382 -0.0512,-0.12652 -0.095,-0.25993 -0.14277,-0.38252 -0.46522,-1.13155 -0.97406,-2.23755 -1.50516,-3.33071 -0.15754,-0.31507 -0.32935,-0.62246 -0.49082,-0.93202 -0.29292,-0.57304 -0.5822,-1.15735 -0.89722,-1.71562 l 0.099,-0.0551 c -0.51608,-0.64265 -0.83834,-1.45031 -0.83834,-2.34182 0,-2.07283 1.67692,-3.74996 3.74971,-3.74996 1.62213,0 2.99176,1.03453 3.51537,2.47539 l 0.0246,-0.0197 c 4.89948,8.69054 7.70795,18.72259 7.70795,29.41409 0,33.13703 -26.86111,60.00213 -60.001471,60.00213 z m 33.748101,-89.9999 c -2.06879,0 -3.74971,-1.68283 -3.74971,-3.75188 0,-2.07273 1.68092,-3.74995 3.74971,-3.74995 2.07254,0 3.74971,1.67722 3.74971,3.74995 0,2.06905 -1.67717,3.75188 -3.74971,3.75188 z"
       id="path2-3"
       style="fill:url(#linearGradient2143);fill-opacity:1;stroke-width:0.234372" />
  </g>
</svg>
