<?xml version="1.0" encoding="UTF-8" standalone="no"?>
<svg
   width="136.53334"
   height="136.53334"
   id="svg5048"
   version="1.1"
   inkscape:version="1.1 (c68e22c387, 2021-05-23)"
   sodipodi:docname="suspend_primary.svg"
   viewBox="0 0 128 128"
   xmlns:inkscape="http://www.inkscape.org/namespaces/inkscape"
   xmlns:sodipodi="http://sodipodi.sourceforge.net/DTD/sodipodi-0.dtd"
   xmlns:xlink="http://www.w3.org/1999/xlink"
   xmlns="http://www.w3.org/2000/svg"
   xmlns:svg="http://www.w3.org/2000/svg"
   xmlns:rdf="http://www.w3.org/1999/02/22-rdf-syntax-ns#"
   xmlns:cc="http://creativecommons.org/ns#"
   xmlns:dc="http://purl.org/dc/elements/1.1/">
  <defs
     id="defs5050">
    <filter
       id="filter4004-4"
       inkscape:label="Colorize"
       inkscape:menu="Color"
       inkscape:menu-tooltip="Blend image or object with a flood color and set lightness and contrast"
       x="0"
       y="0"
       width="1"
       height="1"
       color-interpolation-filters="sRGB">
      <feColorMatrix
         id="feColorMatrix4006-0"
         values="1"
         in="SourceGraphic"
         type="saturate"
         result="result2" />
      <feFlood
         id="feFlood4008-2"
         flood-color="rgb(250,247,247)"
         flood-opacity="1"
         result="result1" />
      <feBlend
         id="feBlend4010-1"
         in2="result2"
         mode="multiply"
         in="result1"
         result="result3" />
      <feComposite
         id="feComposite4012-3"
         in2="SourceGraphic"
         operator="in"
         result="result4" />
    </filter>
    <style
       id="current-color-scheme"
       type="text/css">      .ColorScheme-Text {
        color:#31363b;
      }
      .ColorScheme-Background{
        color:#eff0f1;
      }
      .ColorScheme-ViewText {
        color:#31363b;
      }
      .ColorScheme-ViewBackground{
        color:#fcfcfc;
      }
      .ColorScheme-ViewHover {
        color:#3daee9;
      }
      .ColorScheme-ViewFocus{
        color:#3daee9;
      }
      .ColorScheme-ButtonText {
        color:#31363b;
      }
      .ColorScheme-ButtonBackground{
        color:#eff0f1;
      }
      .ColorScheme-ButtonHover {
        color:#3daee9;
      }
      .ColorScheme-ButtonFocus{
        color:#3daee9;
      }</style>
    <linearGradient
       inkscape:collect="always"
       xlink:href="#linearGradient2533"
       id="linearGradient941"
       x1="7.9980001"
       y1="12.95"
       x2="16.6304"
       y2="12.95"
       gradientUnits="userSpaceOnUse"
       gradientTransform="matrix(3.2634484,0,0,3.2634483,10.020429,914.94137)" />
    <linearGradient
       inkscape:collect="always"
       id="linearGradient2533">
      <stop
         style="stop-color:#2a7fff;stop-opacity:1"
         offset="0"
         id="stop2529" />
      <stop
         style="stop-color:#aaccff;stop-opacity:1"
         offset="1"
         id="stop2531" />
    </linearGradient>
    <linearGradient
       inkscape:collect="always"
       xlink:href="#linearGradient2533"
       id="linearGradient949"
       x1="19.014999"
       y1="20.35"
       x2="23.985168"
       y2="20.35"
       gradientUnits="userSpaceOnUse"
       gradientTransform="matrix(4.048639,0,0,4.0486388,14.600489,897.42891)" />
    <linearGradient
       inkscape:collect="always"
       xlink:href="#linearGradient2533"
       id="linearGradient2535"
       x1="2.0961306"
       y1="30.168873"
       x2="22.827999"
       y2="9.4567547"
       gradientUnits="userSpaceOnUse"
       gradientTransform="matrix(4.6154485,0,0,4.6154483,-4.4852235,904.12537)" />
  </defs>
  <sodipodi:namedview
     id="base"
     pagecolor="#ffffff"
     bordercolor="#000000"
     borderopacity="1"
     inkscape:pageopacity="0.12941176"
     inkscape:pageshadow="2"
     inkscape:zoom="1.4142136"
     inkscape:cx="56.214988"
     inkscape:cy="143.54267"
     inkscape:document-units="px"
     inkscape:current-layer="layer1"
     showgrid="true"
     inkscape:window-width="1920"
     inkscape:window-height="1015"
     inkscape:window-x="0"
     inkscape:window-y="0"
     inkscape:window-maximized="1"
     fit-margin-top="0"
     fit-margin-left="0"
     fit-margin-right="0"
     fit-margin-bottom="0"
     inkscape:snap-bbox="true"
     inkscape:document-rotation="0"
     inkscape:pagecheckerboard="0">
    <inkscape:grid
       type="xygrid"
       id="grid3001"
       empspacing="4"
       visible="true"
       enabled="true"
       snapvisiblegridlinesonly="true"
       color="#0101ff"
       opacity="0.01960784"
       empcolor="#0000ff"
       empopacity="0.03921569"
       originx="0"
       originy="0"
       spacingx="1"
       spacingy="1" />
  </sodipodi:namedview>
  <metadata
     id="metadata5053">
    <rdf:RDF>
      <cc:Work
         rdf:about="">
        <dc:format>image/svg+xml</dc:format>
        <dc:type
           rdf:resource="http://purl.org/dc/dcmitype/StillImage" />
      </cc:Work>
    </rdf:RDF>
  </metadata>
  <g
     inkscape:label="Layer 1"
     inkscape:groupmode="layer"
     id="layer1"
     transform="translate(-6.129729,-913.75296)">
    <path
       d="m 59.740251,964.25161 h -9.45209 l 12.9649,-15.76115 c 1.10919,-1.36352 1.34033,-3.23545 0.60077,-4.83005 -0.76259,-1.59456 -2.3573,-2.61144 -4.11358,-2.61144 H 40.67429 c -2.51893,0 -4.55273,2.03371 -4.55273,4.55268 0,2.51908 2.0338,4.55283 4.55273,4.55283 h 9.45199 l -12.9649,15.7612 c -1.10929,1.36347 -1.34018,3.23539 -0.60087,4.82995 0.76274,1.59456 2.3573,2.61148 4.11378,2.61148 h 19.065961 c 2.51903,0 4.55268,-2.0337 4.55268,-4.55272 0,-2.51903 -2.05684,-4.55278 -4.55268,-4.55278 z"
       id="path4-3"
       style="fill:url(#linearGradient941);fill-opacity:1;stroke-width:0.231109" />
    <path
       d="m 108.45584,984.8534 h -6.75145 l 9.26063,-11.25801 c 0.79229,-0.97389 0.95736,-2.31107 0.4293,-3.44994 -0.54479,-1.13897 -1.68386,-1.86533 -2.93838,-1.86533 H 94.837502 c -1.79931,0 -3.25203,1.45262 -3.25203,3.25198 0,1.79927 1.45272,3.25199 3.25203,3.25199 h 6.751338 l -9.260618,11.258 c -0.79233,0.9739 -0.95725,2.31097 -0.4293,3.44994 0.54485,1.13892 1.68382,1.86533 2.93848,1.86533 h 13.618438 c 1.79932,0 3.25199,-1.45272 3.25199,-3.25193 0,-1.79931 -1.46917,-3.25203 -3.25199,-3.25203 z"
       id="path4-3-6"
       style="fill:url(#linearGradient949);fill-opacity:1;stroke-width:0.165077" />
    <path
       d="m 94.132212,997.96476 c 0,2.20714 -1.79301,4.00114 -4.00207,4.00114 -2.20503,0 -3.99804,-1.794 -3.99804,-4.00114 0,-2.21103 1.79301,-4.0001 3.99804,-4.0001 2.20906,0 4.00207,1.78907 4.00207,4.0001 z m 11.998088,16.00164 h -4.25001 c -1.10155,0 -2.10154,0.4456 -2.82805,1.1681 0.14474,-0.1447 -0.71676,0.7735 -1.26751,1.3242 l -17.103688,17.098 c -2.65234,2.6523 -6.062601,4.1603 -9.535391,4.3906 -0.12652,0.034 -1.92332,0.03 -2.05482,-0.01 -3.44148,-0.2461 -6.82033,-1.746 -9.45313,-4.379 l -8.54707,-8.5471 0.0148,-0.015 c -0.79307,-0.793 -1.287111,-1.8905 -1.287111,-3.1056 0,-2.4258 1.966801,-4.3905 4.388841,-4.3905 1.21473,0 2.30851,0.496 3.10557,1.289 h 0.005 l 9.98838,9.9884 c 1.57624,1.5742 4.13283,1.5742 5.70907,0 0,0 18.318481,-18.262 18.111471,-18.055 2.90057,-2.9336 6.929798,-4.7501 11.380918,-4.7501 h 3.62102 c 11.04518,0 20.00427,-8.95484 20.00427,-20.00174 0,-0.93751 -0.0881,-1.8478 -0.21121,-2.75007 -0.0345,-0.21858 -0.062,-0.42979 -0.0994,-0.64449 -0.1541,-0.89049 -0.34955,-1.76549 -0.61727,-2.61729 0,-0.004 0,-0.0148 -0.005,-0.0197 -0.27766,-0.88272 -0.63277,-1.73723 -1.02928,-2.56151 -0.0492,-0.10339 -0.0935,-0.20136 -0.14425,-0.29884 -2.1328,-4.28126 -5.73837,-7.70132 -10.17013,-9.5606 -2.17776,-0.8965 -3.72456,-3.03906 -3.72456,-5.54883 0,-6.34184 -4.92383,-11.47289 -11.1584,-11.91617 -0.24222,-0.0507 -0.51374,-0.0822 -0.84373,-0.0822 -2.896578,0 -5.429828,-2.31826 -6.832088,-5.21307 0.0345,0.0625 0.01,0.10733 0.01,0.16 -4.99207,-11.15826 -16.160181,-18.94741 -29.177911,-18.94741 -17.675961,0 -32.002361,14.32621 -32.002361,31.99641 0,4.42984 -2.39654,8.5449 -5.961091,10.6269 -0.0921,0.0507 -0.14868,0.11323 -0.20136,0.17576 -2.22452,1.31832 -4.17207,3.0488 -5.73256,5.09954 -0.0566,0.0724 -0.11323,0.14474 -0.16985,0.22056 -0.44308,0.60352 -0.86125,1.22655 -1.23625,1.87502 -0.0295,0.0492 -0.0684,0.10339 -0.0935,0.15065 -0.40222,0.711 -0.76757,1.44731 -1.08206,2.20503 -0.0148,0.0394 -0.0295,0.0724 -0.0394,0.10733 -0.27373,0.67476 -0.50398,1.37006 -0.705,2.07732 -0.0566,0.21071 -0.11323,0.42191 -0.16591,0.63272 -0.14277,0.56651 -0.25206,1.1368 -0.34363,1.72655 -0.0345,0.2304 -0.0783,0.46474 -0.10929,0.69524 -0.0921,0.79302 -0.15853,1.58978 -0.15853,2.41028 0,11.04714 8.95717,20.00171 20.002301,20.00171 h 2.00002 c 1.10151,0 2.14251,-1.027 2.25003,-2.1247 0,0 0.005,-0.01 0.005,-0.015 0.0197,-0.1487 0.01,-0.2929 0.0345,-0.4416 1.18549,-5.38461 5.97079,-9.41986 11.71113,-9.41986 2.209061,0 3.996061,-1.79301 3.996061,-4.00405 v -5.99609 c 0,-5.52633 4.47657,-10.00314 10.00009,-10.00314 h 12.002191 c 5.52357,0 10.00014,4.47656 10.00014,10.00314 v 2.00003 c 0,2.21103 -1.79301,3.99606 -4.00208,3.99606 -2.20502,0 -3.99803,-1.78533 -3.99803,-3.99606 0,-2.21079 -1.79277,-4.00405 -3.997801,-4.00405 h -8.00016 c -2.21103,0 -4.00207,1.79301 -4.00207,4.00405 v 5.99604 c 0,5.52736 -4.47853,10.00513 -10.00009,10.00513 H 50.13206 c -1.14453,0 -2.17583,0.4848 -2.90057,1.2585 -0.32985,0.3555 -0.60948,0.746 -0.78327,1.1798 -0.005,0.01 -0.0148,0.029 -0.0148,0.039 -0.17575,0.4376 -0.24222,0.8905 -0.25797,1.3555 -0.01,0.062 -0.0492,0.098 -0.0492,0.1718 0,4.4181 -3.58002,8.0001 -8.00011,8.0001 H 34.1281 c -15.464931,2e-4 -27.998371,-12.536 -27.998371,-28.0017 0,-10.34889 5.6368,-19.34894 13.9807,-24.19656 0.005,-0.005 -0.01,-0.0148 0,-0.0246 1.20701,-0.68348 2.01553,-2.29699 2.01553,-3.78526 0,-0.34954 0.0148,-0.65049 0.0443,-0.91201 0.48444,-21.66804 18.175961,-39.08426 39.957482,-39.08426 16.412481,0 30.502381,9.89065 36.668459,24.03159 10.29715,0.3397 18.60777,8.45309 19.26579,18.66424 9.48459,4.48228 16.06866,14.11515 16.06866,25.30378 0,15.46568 -12.53916,28.00188 -28.00438,28.00188 z"
       id="path2-75"
       style="fill:url(#linearGradient2535);fill-opacity:1;stroke-width:0.250003" />
  </g>
</svg>
