<?xml version="1.0" encoding="UTF-8" standalone="no"?>
<svg
   width="32"
   height="32"
   version="1.1"
   id="svg12"
   sodipodi:docname="choqok.svg"
   inkscape:version="1.1 (c68e22c387, 2021-05-23)"
   xmlns:inkscape="http://www.inkscape.org/namespaces/inkscape"
   xmlns:sodipodi="http://sodipodi.sourceforge.net/DTD/sodipodi-0.dtd"
   xmlns="http://www.w3.org/2000/svg"
   xmlns:svg="http://www.w3.org/2000/svg"
   xmlns:rdf="http://www.w3.org/1999/02/22-rdf-syntax-ns#"
   xmlns:cc="http://creativecommons.org/ns#"
   xmlns:dc="http://purl.org/dc/elements/1.1/">
  <g
     id="22-22-choqok"
     transform="translate(32,10)">
    <rect
       style="opacity:0.00100002"
       width="22"
       height="22"
       x="0"
       y="0"
       id="rect2" />
    <path
       inkscape:connector-curvature="0"
       style="fill:#eff0f1;fill-opacity:1;fill-rule:evenodd;stroke-width:0.298135"
       id="path4411-1-6-3"
       d="m 8.506679,12.024607 c 2.364749,2.22666 4.554574,2.144766 5.620686,0.874266 1.066105,-1.270493 0.268393,-2.355746 0.268393,-2.355746 z" />
    <path
       inkscape:connector-curvature="0"
       style="color:#000000;fill:#eff0f1;fill-opacity:1;stroke:#eff0f1;stroke-width:0.8944;stroke-linecap:round;stroke-linejoin:round;stroke-opacity:1"
       id="path4170-2-6"
       d="m 6.256789,6.394973 c -0.507117,0 -0.973668,0.01673 -1.349936,0.2963 v 3.7011 c 0.376268,0.279594 0.842819,0.447047 1.349936,0.447047 1.242575,0 2.559254,-0.55048 2.559254,-1.77778 0,-1.2273 -1.316679,-2.666667 -2.559254,-2.666667 z" />
    <path
       inkscape:connector-curvature="0"
       style="color:#000000;fill:#eff0f1;fill-opacity:1;stroke:#eff0f1;stroke-width:0.8944;stroke-linecap:round;stroke-linejoin:round;stroke-opacity:1"
       id="path4170-8-9-7"
       d="m 14.20641,5.506087 c -0.639713,0.77232 -1.04753,1.708206 -0.744537,2.61974 0.423845,1.275113 1.886029,1.434366 3.086412,1.045106 0.126373,-0.041 0.244844,-0.09463 0.357996,-0.155673 V 5.506087 Z" />
    <ellipse
       cx="6.8567648"
       cy="8.6171942"
       style="color:#000000;fill:#1f252f;fill-opacity:1;stroke-width:0.8944;stroke-linecap:round;stroke-linejoin:round"
       id="path4267-1-5"
       rx="1.0499498"
       ry="1.037037" />
    <ellipse
       cx="14.656382"
       cy="7.4319959"
       style="color:#000000;fill:#1f252f;fill-opacity:1;stroke-width:0.8944;stroke-linecap:round;stroke-linejoin:round"
       id="path4267-9-2-3"
       rx="1.0499498"
       ry="1.037037" />
    <path
       inkscape:connector-curvature="0"
       style="fill:#1f252f;fill-opacity:1;fill-rule:evenodd;stroke-width:0.298135"
       id="path4411-7-5"
       d="m 8.806668,12.02658 c 1.79696,1.82876 4.164618,1.736433 4.974749,0.692967 0.810129,-1.043454 0.203954,-1.93478 0.203954,-1.93478 z" />
    <path
       inkscape:connector-curvature="0"
       style="fill:#eff0f1;fill-opacity:1;fill-rule:evenodd;stroke-width:0.298135"
       id="path4284-9-6"
       d="m 8.506679,12.024607 c 0,0 0.429489,-1.27968 2.679129,-1.8568 2.249647,-0.577107 3.319923,0.37532 3.319923,0.37532 0.299571,0.861666 -2.599037,2.200486 -2.599037,2.200486 0,0 -3.209451,0.170627 -3.400015,-0.719006 z" />
    <path
       d="m 19.199711,13.000022 z m 0,-7.429159 z m 0,0 z m -1.166416,10.000022 h -5.250036 c -0.39364,0 -0.75651,0.127215 -1.048758,0.341787 l -3.682328,2.705363 c -0.0075,0.0056 -0.01183,0.0081 -0.02048,0.01479 C 7.734181,18.862464 7.358626,19 6.949598,19 5.983161,19.000036 5.2,18.232177 5.2,17.285461 v -1.143146 c 0,-0.315 -0.261188,-0.57143 -0.583479,-0.57143 H 4.033042 C 2.744349,15.570885 1.7,14.54774 1.7,13.285451 V 5.856863 c 0,-0.315572 0.261187,-0.571429 0.583479,-0.571429 0.321708,0 0.58275,0.255857 0.58275,0.571429 v 7.143159 c 0,0.788502 0.653406,1.428575 1.458917,1.428575 h 0.582786 c 0.805511,0 1.458917,0.639216 1.458917,1.428289 v 1.428575 c 0,0.315857 0.261042,0.571429 0.582749,0.571429 0.123777,0 0.238295,-0.03739 0.332282,-0.101857 0.0013,-5.72e-4 0.0013,-5.72e-4 0.0024,-0.0011 l 3.712772,-2.727971 c 5.82e-4,-5.71e-4 5.82e-4,0 0.0013,-5.71e-4 0.492955,-0.373858 1.112453,-0.596788 1.784927,-0.596788 h 4.958371 c 0.80551,0 1.458078,-0.640072 1.458078,-1.428574 V 5.570896 c 0,-0.788502 -0.652568,-1.428575 -1.458078,-1.428575 H 6.949598 c -0.321707,0 -0.582749,-0.255572 -0.582749,-0.571429 0,-0.315001 0.261042,-0.570859 0.582749,-0.570859 h 11.083697 c 1.288912,0 2.333372,1.022895 2.333372,2.285434 v 8.000018 c 0,1.262288 -1.04446,2.285434 -2.333372,2.285434 z M 4.616557,4.142288 C 4.294265,4.142288 4.033078,3.886716 4.033078,3.570859 4.033078,3.255858 4.294265,3 4.616557,3 4.938812,3 5.2,3.255858 5.2,3.570859 5.2,3.886716 4.938812,4.142288 4.616557,4.142288 Z"
       id="path2-2"
       sodipodi:nodetypes="cccccccccccccccccccssccccssssssssssssssccccsssssssssssssssss"
       style="fill:#eff0f1;fill-opacity:1;stroke-width:0.0360844" />
  </g>
  <metadata
     id="metadata18">
    <rdf:RDF>
      <cc:Work
         rdf:about="">
        <dc:format>image/svg+xml</dc:format>
        <dc:type
           rdf:resource="http://purl.org/dc/dcmitype/StillImage" />
      </cc:Work>
    </rdf:RDF>
  </metadata>
  <defs
     id="defs16" />
  <sodipodi:namedview
     pagecolor="#ffffff"
     bordercolor="#000000"
     borderopacity="1"
     objecttolerance="10"
     gridtolerance="10"
     guidetolerance="10"
     inkscape:pageopacity="0"
     inkscape:pageshadow="2"
     inkscape:window-width="1920"
     inkscape:window-height="1007"
     id="namedview14"
     showgrid="false"
     inkscape:zoom="9.8125003"
     inkscape:cx="8.2038214"
     inkscape:cy="17.630573"
     inkscape:window-x="0"
     inkscape:window-y="0"
     inkscape:window-maximized="1"
     inkscape:current-layer="svg12"
     inkscape:document-rotation="0"
     inkscape:lockguides="true"
     inkscape:showpageshadow="false"
     inkscape:pagecheckerboard="0">
    <inkscape:grid
       type="xygrid"
       id="grid941"
       originx="0"
       originy="0" />
  </sodipodi:namedview>
  <g
     id="choqok">
    <rect
       style="opacity:0.00100002"
       width="32"
       height="32"
       x="0"
       y="0"
       id="rect7" />
    <path
       inkscape:connector-curvature="0"
       style="fill:#eff0f1;fill-opacity:1;fill-rule:evenodd;stroke-width:0.447202"
       id="path4411-1-6"
       d="m 12.210019,17.53691 c 3.547123,3.33999 6.83186,3.21715 8.431028,1.3114 1.599158,-1.90574 0.40259,-3.53362 0.40259,-3.53362 z" />
    <path
       inkscape:connector-curvature="0"
       style="color:#000000;fill:#eff0f1;fill-opacity:1;stroke:#eff0f1;stroke-width:1.3416;stroke-linecap:round;stroke-linejoin:round;stroke-opacity:1"
       id="path4170-2"
       d="m 8.835183,9.0924596 c -0.760675,0 -1.460502,0.0251 -2.024903,0.44445 V 15.08856 c 0.564401,0.41939 1.264228,0.67057 2.024903,0.67057 1.863863,0 3.838882,-0.82572 3.838882,-2.66667 0,-1.84095 -1.975019,-4.0000004 -3.838882,-4.0000004 z" />
    <path
       inkscape:connector-curvature="0"
       style="color:#000000;fill:#eff0f1;fill-opacity:1;stroke:#eff0f1;stroke-width:1.3416;stroke-linecap:round;stroke-linejoin:round;stroke-opacity:1"
       id="path4170-8-9"
       d="m 20.759615,7.7591296 c -0.95957,1.15848 -1.571295,2.5623104 -1.116805,3.9296104 0.635767,1.91267 2.829043,2.15155 4.629618,1.56766 0.189559,-0.0615 0.367265,-0.14194 0.536994,-0.23351 V 7.7591296 Z" />
    <ellipse
       cx="9.7351456"
       cy="12.425794"
       style="color:#000000;fill:#1f252f;fill-opacity:1;stroke-width:1.3416;stroke-linecap:round;stroke-linejoin:round"
       id="path4267-1"
       rx="1.5749246"
       ry="1.5555556" />
    <ellipse
       cx="21.434572"
       cy="10.647992"
       style="color:#000000;fill:#1f252f;fill-opacity:1;stroke-width:1.3416;stroke-linecap:round;stroke-linejoin:round"
       id="path4267-9-2"
       rx="1.5749246"
       ry="1.5555556" />
    <path
       inkscape:connector-curvature="0"
       style="fill:#1f252f;fill-opacity:1;fill-rule:evenodd;stroke-width:0.447202"
       id="path4411-7"
       d="m 12.660002,17.53987 c 2.69544,2.74314 6.246927,2.60465 7.462123,1.03945 1.215194,-1.56518 0.305932,-2.90217 0.305932,-2.90217 z" />
    <path
       inkscape:connector-curvature="0"
       style="fill:#eff0f1;fill-opacity:1;fill-rule:evenodd;stroke-width:0.447202"
       id="path4284-9"
       d="m 12.210019,17.53691 c 0,0 0.644233,-1.91952 4.018693,-2.7852 3.374471,-0.86566 4.979884,0.56298 4.979884,0.56298 0.449357,1.2925 -3.898555,3.30073 -3.898555,3.30073 0,0 -4.814176,0.25594 -5.100022,-1.07851 z" />
    <path
       d="m 28.249567,19.000033 z m 0,-11.143739 z m 0,0 z m -1.749624,15.000034 h -7.875055 c -0.59046,0 -1.134765,0.190822 -1.573136,0.51268 l -5.523492,4.058044 c -0.01131,0.0084 -0.01775,0.01216 -0.03072,0.02218 C 11.051272,27.793696 10.487939,28 9.874397,28 8.424743,28.000054 7.25,26.848265 7.25,25.428191 v -1.714718 c 0,-0.472501 -0.391781,-0.857145 -0.875219,-0.857145 H 5.499563 C 3.566524,22.856328 2,21.32161 2,19.428177 V 8.285295 C 2,7.811937 2.391782,7.428151 2.875219,7.428151 c 0.482562,0 0.874124,0.383786 0.874124,0.857144 v 10.714738 c 0,1.182753 0.98011,2.142862 2.188376,2.142862 h 0.874179 c 1.208266,0 2.188376,0.958824 2.188376,2.142434 v 2.142862 c 0,0.473786 0.391562,0.857144 0.874123,0.857144 0.185665,0 0.357442,-0.05609 0.498423,-0.152786 0.002,-8.57e-4 0.002,-8.57e-4 0.0036,-0.0017 l 5.569158,-4.091956 c 8.73e-4,-8.57e-4 8.73e-4,0 0.002,-8.57e-4 0.739432,-0.560787 1.668679,-0.895181 2.67739,-0.895181 h 7.437556 c 1.208265,0 2.187117,-0.960109 2.187117,-2.142862 V 7.856294 c 0,-1.182752 -0.978852,-2.142862 -2.187117,-2.142862 H 9.874397 C 9.391836,5.713432 9.000274,5.330074 9.000274,4.856288 9.000274,4.383787 9.391836,4 9.874397,4 H 26.499943 C 28.43331,4 30,5.534343 30,7.428151 v 12.000026 c 0,1.893433 -1.56669,3.428151 -3.500057,3.428151 z M 6.374836,5.713432 C 5.891398,5.713432 5.499617,5.330074 5.499617,4.856288 5.499617,4.383787 5.891398,4 6.374836,4 6.858219,4 7.25,4.383787 7.25,4.856288 7.25,5.330074 6.858219,5.713432 6.374836,5.713432 Z"
       id="path2"
       sodipodi:nodetypes="cccccccccccccccccccssccccssssssssssssssccccsssssssssssssssss"
       style="fill:#eff0f1;fill-opacity:1;stroke-width:0.0541266" />
  </g>
</svg>
