<?xml version="1.0" encoding="UTF-8" standalone="no"?>
<svg
   width="32"
   height="32"
   version="1.1"
   id="svg58"
   sodipodi:docname="disk.svg"
   inkscape:version="1.1 (c68e22c387, 2021-05-23)"
   xmlns:inkscape="http://www.inkscape.org/namespaces/inkscape"
   xmlns:sodipodi="http://sodipodi.sourceforge.net/DTD/sodipodi-0.dtd"
   xmlns="http://www.w3.org/2000/svg"
   xmlns:svg="http://www.w3.org/2000/svg"
   xmlns:rdf="http://www.w3.org/1999/02/22-rdf-syntax-ns#"
   xmlns:cc="http://creativecommons.org/ns#"
   xmlns:dc="http://purl.org/dc/elements/1.1/">
  <metadata
     id="metadata64">
    <rdf:RDF>
      <cc:Work
         rdf:about="">
        <dc:format>image/svg+xml</dc:format>
        <dc:type
           rdf:resource="http://purl.org/dc/dcmitype/StillImage" />
      </cc:Work>
    </rdf:RDF>
  </metadata>
  <defs
     id="defs62" />
  <sodipodi:namedview
     pagecolor="#ffffff"
     bordercolor="#000000"
     borderopacity="1"
     objecttolerance="10"
     gridtolerance="10"
     guidetolerance="10"
     inkscape:pageopacity="0"
     inkscape:pageshadow="2"
     inkscape:window-width="1920"
     inkscape:window-height="1007"
     id="namedview60"
     showgrid="false"
     inkscape:zoom="4.9062501"
     inkscape:cx="66.54777"
     inkscape:cy="-0.81528661"
     inkscape:window-x="0"
     inkscape:window-y="0"
     inkscape:window-maximized="1"
     inkscape:current-layer="svg58"
     inkscape:document-rotation="0"
     inkscape:lockguides="false"
     inkscape:showpageshadow="false"
     inkscape:pagecheckerboard="0">
    <inkscape:grid
       type="xygrid"
       id="grid879"
       originx="0"
       originy="0" />
  </sodipodi:namedview>
  <g
     id="disk-quota">
    <rect
       style="opacity:0.00100002"
       width="32"
       height="32"
       x="0"
       y="0"
       id="rect35" />
    <path
       d="M 26.3,28 H 5.728571 C 3.835143,28 2.3,26.464857 2.3,24.571429 V 22 c 0,-0.473357 0.383786,-0.857143 0.857143,-0.857143 0.473357,0 0.857143,0.383786 0.857143,0.857143 v 2.571429 c 0,0.946714 0.767571,1.714285 1.714285,1.714285 H 26.3 c 0.946714,0 1.714286,-0.767571 1.714286,-1.714285 V 17.714286 C 28.014286,16.767571 27.246714,16 26.3,16 h -4.473643 c -0.562071,0 -1.051768,0.309696 -1.307893,0.766714 0.01929,-0.03514 0.03471,-0.06739 0.04645,-0.09836 -0.859232,1.64025 -2.571429,2.760214 -4.550625,2.760214 -1.979197,0 -3.691393,-1.119964 -4.550625,-2.76016 0.01173,0.03096 0.02721,0.06321 0.04687,0.09836 C 11.253977,16.309696 10.764281,16 10.201352,16 H 5.728566 5.326352 c -1.183607,0 -2.142857,-0.95925 -2.142857,-2.142857 0,-0.204643 0.02887,-0.401357 0.08245,-0.589286 0.02764,-0.09541 0,-0.142286 -0.05609,-0.162803 L 4.563391,6.784857 C 5.222159,4.678857 6.660605,4 7.844212,4 h 16.285715 c 1.18441,0 2.62875,0.678857 3.294214,2.784857 l 1.053857,4.864929 -0.005,0.0012 c 0.08122,0.425625 -0.174053,0.847071 -0.598928,0.961339 -0.444911,0.118875 -0.902786,-0.145232 -1.022893,-0.590518 0,-8.57e-4 -8.04e-4,-0.0029 -8.04e-4,-0.0038 l -0.003,8.57e-4 -1.208625,-5.578875 C 25.520694,6.034857 25.044391,5.714286 24.571087,5.714286 H 7.41773 c -0.473786,0 -0.947946,0.320571 -1.061786,0.725732 l -1.441875,6.836625 c -0.154821,0.551196 0.179197,1.009071 0.751286,1.009071 h 4.536 c 1.224214,0 2.288947,0.684697 2.832161,1.691679 -8.57e-4,-0.0017 -0.0017,-0.0037 -0.0025,-0.0055 0.588054,1.039232 1.703411,1.742357 2.983286,1.742357 1.279875,0 2.394803,-0.703125 2.983285,-1.742304 -8.57e-4,0.0017 -0.0017,0.0038 -0.0025,0.0055 0.543214,-1.007035 1.607946,-1.691732 2.831303,-1.691732 h 4.473608 c 1.893429,0 3.428571,1.535143 3.428571,3.428572 v 6.857143 C 29.728569,26.464857 28.193427,28 26.299998,28 Z M 4.014286,18.571429 c 0,0.473357 -0.383786,0.857142 -0.857143,0.857142 C 2.683786,19.428571 2.3,19.044786 2.3,18.571429 c 0,-0.473358 0.383786,-0.857143 0.857143,-0.857143 0.473357,0 0.857143,0.383785 0.857143,0.857143 z"
       id="path2"
       style="fill:#eff0f1;fill-opacity:1;stroke-width:0.0535714" />
  </g>
  <g
     id="disk-quota-high"
     transform="translate(96,-22)">
    <rect
       style="opacity:0.00100002"
       width="32"
       height="32"
       x="-32"
       y="22"
       id="rect49" />
    <path
       d="M -5.6,50 H -26.171429 C -28.064857,50 -29.6,48.464857 -29.6,46.571429 V 44 c 0,-0.473357 0.383786,-0.857143 0.857143,-0.857143 0.473357,0 0.857143,0.383786 0.857143,0.857143 v 2.571429 c 0,0.946714 0.767571,1.714285 1.714285,1.714285 H -5.6 c 0.946714,0 1.714286,-0.767571 1.714286,-1.714285 V 39.714286 C -3.885714,38.767571 -4.653286,38 -5.6,38 h -4.473643 c -0.562071,0 -1.051768,0.309696 -1.307893,0.766714 0.01929,-0.03514 0.03471,-0.06739 0.04645,-0.09836 -0.859232,1.64025 -2.571429,2.760214 -4.550625,2.760214 -1.979197,0 -3.691393,-1.119964 -4.550625,-2.76016 0.01173,0.03096 0.02721,0.06321 0.04687,0.09836 C -20.646023,38.309696 -21.135719,38 -21.698648,38 h -4.472786 -0.402214 c -1.183607,0 -2.142857,-0.95925 -2.142857,-2.142857 0,-0.204643 0.02887,-0.401357 0.08245,-0.589286 0.02764,-0.09541 0,-0.142286 -0.05609,-0.162803 l 1.353536,-6.320197 C -26.677841,26.678857 -25.239395,26 -24.055788,26 h 16.285715 c 1.18441,0 2.62875,0.678857 3.294214,2.784857 l 1.053857,4.864929 -0.005,0.0012 c 0.08122,0.425625 -0.174053,0.847071 -0.598928,0.961339 -0.444911,0.118875 -0.902786,-0.145232 -1.022893,-0.590518 0,-8.57e-4 -8.04e-4,-0.0029 -8.04e-4,-0.0038 l -0.003,8.57e-4 -1.208625,-5.578875 C -6.379306,28.034857 -6.855609,27.714286 -7.328913,27.714286 H -24.48227 c -0.473786,0 -0.947946,0.320571 -1.061786,0.725732 l -1.441875,6.836625 c -0.154821,0.551196 0.179197,1.009071 0.751286,1.009071 h 4.536 c 1.224214,0 2.288947,0.684697 2.832161,1.691679 -8.57e-4,-0.0017 -0.0017,-0.0037 -0.0025,-0.0055 0.588054,1.039232 1.703411,1.742357 2.983286,1.742357 1.279875,0 2.394803,-0.703125 2.983285,-1.742304 -8.57e-4,0.0017 -0.0017,0.0038 -0.0025,0.0055 0.543214,-1.007035 1.607946,-1.691732 2.831303,-1.691732 h 4.473608 c 1.893429,0 3.428571,1.535143 3.428571,3.428572 v 6.857143 C -2.171431,48.464857 -3.706573,50 -5.600002,50 Z m -22.285714,-9.428571 c 0,0.473357 -0.383786,0.857142 -0.857143,0.857142 -0.473357,0 -0.857143,-0.383785 -0.857143,-0.857142 0,-0.473358 0.383786,-0.857143 0.857143,-0.857143 0.473357,0 0.857143,0.383785 0.857143,0.857143 z"
       id="path2-3-6"
       style="fill:#ff9955;fill-opacity:1;stroke-width:0.0535714" />
  </g>
  <g
     id="disk-quota-critical"
     transform="translate(96,-22)">
    <rect
       style="opacity:0.00100002"
       width="32"
       height="32"
       x="0"
       y="22"
       id="rect35-2" />
    <path
       d="M 26.4,50 H 5.82857 C 3.935143,50 2.4,48.464857 2.4,46.571429 V 44 c 0,-0.473357 0.383786,-0.857143 0.857143,-0.857143 0.473357,0 0.857147,0.383786 0.857147,0.857143 v 2.571429 c 0,0.946714 0.76757,1.714285 1.71428,1.714285 H 26.4 c 0.94671,0 1.71429,-0.767571 1.71429,-1.714285 V 39.714286 C 28.11429,38.767571 27.34671,38 26.4,38 h -4.47364 c -0.56207,0 -1.05177,0.309696 -1.3079,0.766714 0.0193,-0.03514 0.0347,-0.06739 0.0465,-0.09836 -0.85923,1.64025 -2.57142,2.760214 -4.55062,2.760214 -1.9792,0 -3.69139,-1.119964 -4.55063,-2.76016 0.0117,0.03096 0.0272,0.06321 0.0469,0.09836 C 11.35398,38.309696 10.86428,38 10.30135,38 H 5.82857 5.42635 c -1.1836,0 -2.142855,-0.95925 -2.142855,-2.142857 0,-0.204643 0.02887,-0.401357 0.08245,-0.589286 0.02764,-0.09541 0,-0.142286 -0.05609,-0.162803 L 4.66339,28.784857 C 5.32216,26.678857 6.7606,26 7.94421,26 h 16.28572 c 1.18441,0 2.62875,0.678857 3.29421,2.784857 l 1.05386,4.864929 -0.005,0.0012 c 0.0812,0.425625 -0.17406,0.847071 -0.59893,0.961339 -0.44491,0.118875 -0.90279,-0.145232 -1.02289,-0.590518 0,-8.57e-4 -8.1e-4,-0.0029 -8.1e-4,-0.0038 l -0.003,8.57e-4 -1.20862,-5.578875 C 25.62069,28.034857 25.14439,27.714286 24.67109,27.714286 H 7.51773 c -0.47379,0 -0.94795,0.320571 -1.06179,0.725732 l -1.44187,6.836625 c -0.15482,0.551196 0.1792,1.009071 0.75129,1.009071 h 4.536 c 1.22421,0 2.28894,0.684697 2.83216,1.691679 -8.6e-4,-0.0017 -0.002,-0.0037 -0.002,-0.0055 0.58805,1.039232 1.70341,1.742357 2.98328,1.742357 1.27988,0 2.39481,-0.703125 2.98329,-1.742304 -8.6e-4,0.0017 -0.002,0.0038 -0.002,0.0055 0.54321,-1.007035 1.60794,-1.691732 2.8313,-1.691732 H 26.4 c 1.89343,0 3.42857,1.535143 3.42857,3.428572 v 6.857143 C 29.82857,48.464857 28.29343,50 26.4,50 Z M 4.11429,40.571429 c 0,0.473357 -0.38379,0.857142 -0.857147,0.857142 C 2.783786,41.428571 2.4,41.044786 2.4,40.571429 c 0,-0.473358 0.383786,-0.857143 0.857143,-0.857143 0.473357,0 0.857147,0.383785 0.857147,0.857143 z"
       id="path2-3-6-7"
       style="fill:#d35f5f;fill-opacity:1;stroke-width:0.0535714" />
  </g>
  <g
     id="g3359"
     transform="translate(96,-22)">
    <rect
       style="opacity:0.00100002"
       width="22"
       height="22"
       x="-96"
       y="0"
       id="rect12" />
    <path
       d="M -78.2,19 H -91.914286 C -93.176571,19 -94.2,17.976571 -94.2,16.714286 V 15 c 0,-0.315571 0.255857,-0.571429 0.571429,-0.571429 0.315571,0 0.571428,0.255858 0.571428,0.571429 v 1.714286 c 0,0.631143 0.511714,1.142857 1.142857,1.142857 H -78.2 c 0.631143,0 1.142857,-0.511714 1.142857,-1.142857 V 12.142857 C -77.057143,11.511714 -77.568857,11 -78.2,11 h -2.982429 c -0.374714,0 -0.701178,0.206464 -0.871928,0.511143 0.01286,-0.02343 0.02314,-0.04493 0.03097,-0.06557 -0.572821,1.0935 -1.714286,1.840143 -3.03375,1.840143 -1.319464,0 -2.460928,-0.746643 -3.03375,-1.840107 0.0078,0.02064 0.01814,0.04214 0.03125,0.06557 C -88.230682,11.206464 -88.557146,11 -88.932432,11 h -2.981857 -0.268143 c -0.789071,0 -1.428571,-0.6395 -1.428571,-1.428571 0,-0.136429 0.01925,-0.267572 0.05497,-0.392858 0.01843,-0.06361 0,-0.09486 -0.03739,-0.108535 l 0.902357,-4.213465 C -92.251894,3.452571 -91.29293,3 -90.503859,3 h 10.857144 c 0.789606,0 1.7525,0.452571 2.196142,1.856571 l 0.702572,3.243286 -0.0033,8e-4 c 0.05415,0.28375 -0.116035,0.564714 -0.399285,0.640893 -0.296607,0.07925 -0.601857,-0.09682 -0.681929,-0.393679 0,-5.71e-4 -5.36e-4,-0.0019 -5.36e-4,-0.0025 l -0.002,5.71e-4 -0.80575,-3.71925 C -78.719501,4.356604 -79.037039,4.14289 -79.352575,4.14289 H -90.78818 c -0.315857,0 -0.631964,0.213714 -0.707857,0.483822 l -0.96125,4.55775 c -0.103214,0.367464 0.119464,0.672714 0.500857,0.672714 h 3.024 c 0.816143,0 1.525965,0.456464 1.888107,1.127786 -5.71e-4,-0.0011 -0.0011,-0.0025 -0.0017,-0.0037 0.392036,0.692821 1.135607,1.161571 1.988857,1.161571 0.85325,0 1.596535,-0.46875 1.988857,-1.161536 -5.72e-4,0.0011 -0.0011,0.0025 -0.0017,0.0037 0.362143,-0.671357 1.071964,-1.127821 1.887535,-1.127821 h 2.982406 c 1.262286,0 2.285714,1.023428 2.285714,2.285714 v 4.571429 c 0,1.262285 -1.023428,2.285714 -2.285714,2.285714 z m -14.857143,-6.285714 c 0,0.315571 -0.255857,0.571428 -0.571428,0.571428 -0.315572,0 -0.571429,-0.255857 -0.571429,-0.571428 0,-0.315572 0.255857,-0.571429 0.571429,-0.571429 0.315571,0 0.571428,0.255857 0.571428,0.571429 z"
       id="path2-5"
       style="fill:#eff0f1;fill-opacity:1;stroke-width:0.0357143" />
  </g>
  <g
     id="22-22-disk-quota-low"
     transform="translate(96,-22)">
    <rect
       style="opacity:0.00100002"
       width="22"
       height="22"
       x="-64"
       y="0"
       id="rect17" />
    <path
       d="M -46.2,19 H -59.914286 C -61.176571,19 -62.2,17.976571 -62.2,16.714286 V 15 c 0,-0.315571 0.255857,-0.571429 0.571429,-0.571429 0.315571,0 0.571428,0.255858 0.571428,0.571429 v 1.714286 c 0,0.631143 0.511714,1.142857 1.142857,1.142857 H -46.2 c 0.631143,0 1.142857,-0.511714 1.142857,-1.142857 V 12.142857 C -45.057143,11.511714 -45.568857,11 -46.2,11 h -2.982429 c -0.374714,0 -0.701178,0.206464 -0.871928,0.511143 0.01286,-0.02343 0.02314,-0.04493 0.03097,-0.06557 -0.572821,1.0935 -1.714286,1.840143 -3.03375,1.840143 -1.319464,0 -2.460928,-0.746643 -3.03375,-1.840107 0.0078,0.02064 0.01814,0.04214 0.03125,0.06557 C -56.230682,11.206464 -56.557146,11 -56.932432,11 h -2.981857 -0.268143 c -0.789071,0 -1.428571,-0.6395 -1.428571,-1.428571 0,-0.136429 0.01925,-0.267572 0.05497,-0.392858 0.01843,-0.06361 0,-0.09486 -0.03739,-0.108535 l 0.902357,-4.213465 C -60.251894,3.452571 -59.29293,3 -58.503859,3 h 10.857144 c 0.789606,0 1.7525,0.452571 2.196142,1.856571 l 0.702572,3.243286 -0.0033,8e-4 c 0.05415,0.28375 -0.116035,0.564714 -0.399285,0.640893 -0.296607,0.07925 -0.601857,-0.09682 -0.681929,-0.393679 0,-5.71e-4 -5.36e-4,-0.0019 -5.36e-4,-0.0025 l -0.002,5.71e-4 -0.80575,-3.71925 C -46.719501,4.356604 -47.037039,4.14289 -47.352575,4.14289 H -58.78818 c -0.315857,0 -0.631964,0.213714 -0.707857,0.483822 l -0.96125,4.55775 c -0.103214,0.367464 0.119464,0.672714 0.500857,0.672714 h 3.024 c 0.816143,0 1.525965,0.456464 1.888107,1.127786 -5.71e-4,-0.0011 -0.0011,-0.0025 -0.0017,-0.0037 0.392036,0.692821 1.135607,1.161571 1.988857,1.161571 0.85325,0 1.596535,-0.46875 1.988857,-1.161536 -5.72e-4,0.0011 -0.0011,0.0025 -0.0017,0.0037 0.362143,-0.671357 1.071964,-1.127821 1.887535,-1.127821 h 2.982406 c 1.262286,0 2.285714,1.023428 2.285714,2.285714 v 4.571429 c 0,1.262285 -1.023428,2.285714 -2.285714,2.285714 z m -14.857143,-6.285714 c 0,0.315571 -0.255857,0.571428 -0.571428,0.571428 -0.315572,0 -0.571429,-0.255857 -0.571429,-0.571428 0,-0.315572 0.255857,-0.571429 0.571429,-0.571429 0.315571,0 0.571428,0.255857 0.571428,0.571429 z"
       id="path2-5-3"
       style="fill:#1a89a2;fill-opacity:1;stroke-width:0.0357143" />
  </g>
  <g
     id="disk-quota-low"
     transform="translate(96,-22)">
    <rect
       style="opacity:0.00100002"
       width="32"
       height="32"
       x="-64"
       y="22"
       id="rect35-6" />
    <path
       d="M -37.6,50 H -58.171429 C -60.064857,50 -61.6,48.464857 -61.6,46.571429 V 44 c 0,-0.473357 0.383786,-0.857143 0.857143,-0.857143 0.473357,0 0.857143,0.383786 0.857143,0.857143 v 2.571429 c 0,0.946714 0.767571,1.714285 1.714285,1.714285 H -37.6 c 0.946714,0 1.714286,-0.767571 1.714286,-1.714285 V 39.714286 C -35.885714,38.767571 -36.653286,38 -37.6,38 h -4.473643 c -0.562071,0 -1.051768,0.309696 -1.307893,0.766714 0.01929,-0.03514 0.03471,-0.06739 0.04645,-0.09836 -0.859232,1.64025 -2.571429,2.760214 -4.550625,2.760214 -1.979197,0 -3.691393,-1.119964 -4.550625,-2.76016 0.01173,0.03096 0.02721,0.06321 0.04687,0.09836 C -52.646023,38.309696 -53.135719,38 -53.698648,38 h -4.472786 -0.402214 c -1.183607,0 -2.142857,-0.95925 -2.142857,-2.142857 0,-0.204643 0.02887,-0.401357 0.08245,-0.589286 0.02764,-0.09541 0,-0.142286 -0.05609,-0.162803 l 1.353536,-6.320197 C -58.677841,26.678857 -57.239395,26 -56.055788,26 h 16.285715 c 1.18441,0 2.62875,0.678857 3.294214,2.784857 l 1.053857,4.864929 -0.005,0.0012 c 0.08122,0.425625 -0.174053,0.847071 -0.598928,0.961339 -0.444911,0.118875 -0.902786,-0.145232 -1.022893,-0.590518 0,-8.57e-4 -8.04e-4,-0.0029 -8.04e-4,-0.0038 l -0.003,8.57e-4 -1.208625,-5.578875 c -0.118054,-0.405132 -0.594357,-0.725703 -1.067661,-0.725703 H -56.48227 c -0.473786,0 -0.947946,0.320571 -1.061786,0.725732 l -1.441875,6.836625 c -0.154821,0.551196 0.179197,1.009071 0.751286,1.009071 h 4.536 c 1.224214,0 2.288947,0.684697 2.832161,1.691679 -8.57e-4,-0.0017 -0.0017,-0.0037 -0.0025,-0.0055 0.588054,1.039232 1.703411,1.742357 2.983286,1.742357 1.279875,0 2.394803,-0.703125 2.983285,-1.742304 -8.57e-4,0.0017 -0.0017,0.0038 -0.0025,0.0055 0.543214,-1.007035 1.607946,-1.691732 2.831303,-1.691732 h 4.473608 c 1.893429,0 3.428571,1.535143 3.428571,3.428572 v 6.857143 c 0,1.893428 -1.535142,3.428571 -3.428571,3.428571 z m -22.285714,-9.428571 c 0,0.473357 -0.383786,0.857142 -0.857143,0.857142 -0.473357,0 -0.857143,-0.383785 -0.857143,-0.857142 0,-0.473358 0.383786,-0.857143 0.857143,-0.857143 0.473357,0 0.857143,0.383785 0.857143,0.857143 z"
       id="path2-3"
       style="fill:#1a89a2;fill-opacity:1;stroke-width:0.0535714" />
  </g>
  <g
     id="22-22-disk-quota-high"
     transform="translate(96,-22)">
    <rect
       style="opacity:0.00100002"
       width="22"
       height="22"
       x="-32"
       y="0"
       id="rect26" />
    <path
       d="M -14.2,19 H -27.914286 C -29.176571,19 -30.2,17.976571 -30.2,16.714286 V 15 c 0,-0.315571 0.255857,-0.571429 0.571429,-0.571429 0.315571,0 0.571428,0.255858 0.571428,0.571429 v 1.714286 c 0,0.631143 0.511714,1.142857 1.142857,1.142857 H -14.2 c 0.631143,0 1.142857,-0.511714 1.142857,-1.142857 V 12.142857 C -13.057143,11.511714 -13.568857,11 -14.2,11 h -2.982429 c -0.374714,0 -0.701178,0.206464 -0.871928,0.511143 0.01286,-0.02343 0.02314,-0.04493 0.03097,-0.06557 -0.572821,1.0935 -1.714286,1.840143 -3.03375,1.840143 -1.319464,0 -2.460928,-0.746643 -3.03375,-1.840107 0.0078,0.02064 0.01814,0.04214 0.03125,0.06557 C -24.230682,11.206464 -24.557146,11 -24.932432,11 h -2.981857 -0.268143 c -0.789071,0 -1.428571,-0.6395 -1.428571,-1.428571 0,-0.136429 0.01925,-0.267572 0.05497,-0.392858 0.01843,-0.06361 0,-0.09486 -0.03739,-0.108535 l 0.902357,-4.213465 C -28.251894,3.452571 -27.29293,3 -26.503859,3 h 10.857144 c 0.789606,0 1.7525,0.452571 2.196142,1.856571 l 0.702572,3.243286 -0.0033,8e-4 c 0.05415,0.28375 -0.116035,0.564714 -0.399285,0.640893 -0.296607,0.07925 -0.601857,-0.09682 -0.681929,-0.393679 0,-5.71e-4 -5.36e-4,-0.0019 -5.36e-4,-0.0025 l -0.002,5.71e-4 -0.80575,-3.71925 C -14.719501,4.356604 -15.037039,4.14289 -15.352575,4.14289 H -26.78818 c -0.315857,0 -0.631964,0.213714 -0.707857,0.483822 l -0.96125,4.55775 c -0.103214,0.367464 0.119464,0.672714 0.500857,0.672714 h 3.024 c 0.816143,0 1.525965,0.456464 1.888107,1.127786 -5.71e-4,-0.0011 -0.0011,-0.0025 -0.0017,-0.0037 0.392036,0.692821 1.135607,1.161571 1.988857,1.161571 0.85325,0 1.596535,-0.46875 1.988857,-1.161536 -5.72e-4,0.0011 -0.0011,0.0025 -0.0017,0.0037 0.362143,-0.671357 1.071964,-1.127821 1.887535,-1.127821 h 2.982406 c 1.262286,0 2.285714,1.023428 2.285714,2.285714 v 4.571429 c 0,1.262285 -1.023428,2.285714 -2.285714,2.285714 z m -14.857143,-6.285714 c 0,0.315571 -0.255857,0.571428 -0.571428,0.571428 -0.315572,0 -0.571429,-0.255857 -0.571429,-0.571428 0,-0.315572 0.255857,-0.571429 0.571429,-0.571429 0.315571,0 0.571428,0.255857 0.571428,0.571429 z"
       id="path2-5-3-5"
       style="fill:#ff9955;fill-opacity:1;stroke-width:0.0357143" />
  </g>
  <g
     id="22-22-disk-quota-critical"
     transform="translate(96,-22)">
    <rect
       style="opacity:0.00100002"
       width="22"
       height="22"
       x="0"
       y="0"
       id="rect7" />
    <path
       d="M 17.8,19 H 4.085714 C 2.823429,19 1.8,17.976571 1.8,16.714286 V 15 c 0,-0.315571 0.255857,-0.571429 0.571429,-0.571429 0.315571,0 0.571428,0.255858 0.571428,0.571429 v 1.714286 c 0,0.631143 0.511714,1.142857 1.142857,1.142857 H 17.8 c 0.631143,0 1.142857,-0.511714 1.142857,-1.142857 V 12.142857 C 18.942857,11.511714 18.431143,11 17.8,11 h -2.982429 c -0.374714,0 -0.701178,0.206464 -0.871928,0.511143 0.01286,-0.02343 0.02314,-0.04493 0.03097,-0.06557 -0.572821,1.0935 -1.714286,1.840143 -3.03375,1.840143 -1.319464,0 -2.460928,-0.746643 -3.03375,-1.840107 0.0078,0.02064 0.01814,0.04214 0.03125,0.06557 C 7.769318,11.206464 7.442854,11 7.067568,11 H 4.085711 3.817568 C 3.028497,11 2.388997,10.3605 2.388997,9.571429 c 0,-0.136429 0.01925,-0.267572 0.05497,-0.392858 0.01843,-0.06361 0,-0.09486 -0.03739,-0.108535 L 3.308934,4.856571 C 3.748106,3.452571 4.70707,3 5.496141,3 h 10.857144 c 0.789606,0 1.7525,0.452571 2.196142,1.856571 l 0.702572,3.243286 -0.0033,8e-4 c 0.05415,0.28375 -0.116035,0.564714 -0.399285,0.640893 -0.296607,0.07925 -0.601857,-0.09682 -0.681929,-0.393679 0,-5.71e-4 -5.36e-4,-0.0019 -5.36e-4,-0.0025 l -0.002,5.71e-4 -0.80575,-3.71925 C 17.280499,4.356604 16.962961,4.14289 16.647425,4.14289 H 5.21182 c -0.315857,0 -0.631964,0.213714 -0.707857,0.483822 l -0.96125,4.55775 C 3.439499,9.551926 3.662177,9.857176 4.04357,9.857176 h 3.024 c 0.816143,0 1.525965,0.456464 1.888107,1.127786 -5.71e-4,-0.0011 -0.0011,-0.0025 -0.0017,-0.0037 0.392036,0.692821 1.135607,1.161571 1.988857,1.161571 0.85325,0 1.596535,-0.46875 1.988857,-1.161536 -5.72e-4,0.0011 -0.0011,0.0025 -0.0017,0.0037 0.362143,-0.671357 1.071964,-1.127821 1.887535,-1.127821 h 2.982406 c 1.262286,0 2.285714,1.023428 2.285714,2.285714 v 4.571429 c 0,1.262285 -1.023428,2.285714 -2.285714,2.285714 z M 2.942857,12.714286 c 0,0.315571 -0.255857,0.571428 -0.571428,0.571428 C 2.055857,13.285714 1.8,13.029857 1.8,12.714286 c 0,-0.315572 0.255857,-0.571429 0.571429,-0.571429 0.315571,0 0.571428,0.255857 0.571428,0.571429 z"
       id="path2-5-3-5-6"
       style="fill:#d35f5f;fill-opacity:1;stroke-width:0.0357143" />
  </g>
</svg>
