<?xml version="1.0" encoding="UTF-8" standalone="no"?>
<svg
   width="32"
   height="32"
   version="1.1"
   id="svg16"
   sodipodi:docname="dropbox.svg"
   inkscape:version="1.1 (c68e22c387, 2021-05-23)"
   xmlns:inkscape="http://www.inkscape.org/namespaces/inkscape"
   xmlns:sodipodi="http://sodipodi.sourceforge.net/DTD/sodipodi-0.dtd"
   xmlns="http://www.w3.org/2000/svg"
   xmlns:svg="http://www.w3.org/2000/svg"
   xmlns:rdf="http://www.w3.org/1999/02/22-rdf-syntax-ns#"
   xmlns:cc="http://creativecommons.org/ns#"
   xmlns:dc="http://purl.org/dc/elements/1.1/">
  <metadata
     id="metadata22">
    <rdf:RDF>
      <cc:Work
         rdf:about="">
        <dc:format>image/svg+xml</dc:format>
        <dc:type
           rdf:resource="http://purl.org/dc/dcmitype/StillImage" />
      </cc:Work>
    </rdf:RDF>
  </metadata>
  <defs
     id="defs20">
    <linearGradient
       id="oomox"
       x1="131.53468"
       x2="131.53468"
       y1="146.39674"
       y2="160.8511"
       gradientTransform="scale(1.0377491,0.96362406)"
       gradientUnits="userSpaceOnUse">
      <stop
         offset="0%"
         style="stop-color:#303b3d; stop-opacity:1"
         id="stop18" />
      <stop
         offset="100%"
         style="stop-color:#bc985d; stop-opacity:1"
         id="stop20" />
    </linearGradient>
  </defs>
  <sodipodi:namedview
     pagecolor="#ffffff"
     bordercolor="#666666"
     borderopacity="1"
     objecttolerance="10"
     gridtolerance="10"
     guidetolerance="10"
     inkscape:pageopacity="0"
     inkscape:pageshadow="2"
     inkscape:window-width="1920"
     inkscape:window-height="1007"
     id="namedview18"
     showgrid="false"
     inkscape:zoom="9.8125003"
     inkscape:cx="23.592356"
     inkscape:cy="15.490445"
     inkscape:window-x="0"
     inkscape:window-y="0"
     inkscape:window-maximized="1"
     inkscape:current-layer="svg16"
     inkscape:document-rotation="0"
     inkscape:pagecheckerboard="0"
     inkscape:lockguides="true">
    <inkscape:grid
       type="xygrid"
       id="grid876"
       originx="0"
       originy="0" />
  </sodipodi:namedview>
  <g
     id="dropbox">
    <rect
       style="opacity:0.00100002"
       width="32"
       height="32"
       x="0"
       y="0"
       id="rect9" />
    <path
       d="m 27.453679,9.9498079 c -0.0022,0.0022 -0.0022,0.00403 -0.0051,0.00661 L 25.99836,11.127965 c -0.870844,0.701297 -1.974563,1.122469 -3.177938,1.122469 -0.911859,0 -1.762218,-0.247922 -2.501953,-0.669469 l -2.031703,-1.230141 0.0015,-0.0018 c -0.24464,-0.12525 -0.413062,-0.3757499 -0.413062,-0.6683436 0,-0.4156875 0.336937,-0.7525782 0.753656,-0.7525782 0.126703,0 0.243891,0.034406 0.348656,0.089719 l 0.0029,-0.00511 2.175984,1.3063128 c 0.508312,0.279797 1.089844,0.443156 1.710937,0.443156 0.7815,0 1.50075,-0.257438 2.087344,-0.684469 l 1.164563,-0.9060466 c 0.07472,-0.068109 0.123046,-0.1648125 0.123046,-0.2731875 0,-0.12525 -0.06445,-0.2329218 -0.158203,-0.3010312 l -4.36083,-2.9071221 c -0.212437,-0.1194375 -0.454828,-0.190125 -0.715594,-0.190125 -0.359625,0 -0.686297,0.1303594 -0.941906,0.3449532 L 17.500148,8.1249174 16.00071,8.9657611 v 0 l -4.317234,2.6144529 c -0.738281,0.423 -1.591875,0.670172 -2.503406,0.670172 -1.198969,0 -2.300532,-0.418969 -3.167719,-1.115859 L 4.550835,9.9545423 c -0.0026,-0.00145 -0.0015,-0.00328 -0.004,-0.00478 -0.332156,-0.2581419 -0.54675,-0.6621106 -0.54675,-1.1162356 0,-0.4647188 0.229594,-0.8745469 0.577875,-1.1316094 L 9.304601,4.5282454 c 0.0077,-0.00511 0.015,-0.00844 0.02269,-0.013547 0.479391,-0.3255937 1.057969,-0.5145468 1.680891,-0.5145468 0.754359,0 1.441406,0.2790469 1.96875,0.7372032 l 1.049578,0.9140625 -0.0011,0.00108 c 0.160781,0.141 0.264047,0.3464531 0.264047,0.5767969 0,0.4255781 -0.344625,0.7701562 -0.770157,0.7701562 -0.223031,0 -0.42225,-0.095578 -0.5625,-0.2464687 L 11.935088,5.8440735 c -0.255609,-0.2142187 -0.582984,-0.343875 -0.941859,-0.343875 -0.260719,0 -0.503532,0.070688 -0.715594,0.1900783 L 5.916432,8.5973235 c -0.09412,0.068109 -0.157828,0.1757813 -0.157828,0.3010313 0,0.108375 0.04795,0.2050781 0.122672,0.2724375 l 1.1715,0.9107807 c 0.585187,0.42375 1.301531,0.680438 2.080406,0.680438 0.624,0 1.207406,-0.164813 1.716047,-0.445688 l 3.6225,-2.1738745 1.528922,-0.7705311 v 0 l 3.025078,-2.6360625 c 0.525843,-0.4585313 1.213593,-0.7357501 1.9665,-0.7357501 0.623297,0 1.201921,0.1889531 1.68089,0.5145469 0.0088,0.00586 0.01612,0.00914 0.02419,0.014297 l 4.722607,3.1710937 c 0.350203,0.2574844 0.580172,0.6669375 0.580172,1.1334844 0,0.454125 -0.213844,0.8580937 -0.546375,1.1162812 z M 4.546804,15.300308 c 0.0015,-0.0015 0.0026,-0.0022 0.004,-0.004 l 1.472532,-1.189906 c 0.864609,-0.692157 1.96289,-1.105969 3.156703,-1.105969 0.908953,0 1.760015,0.245719 2.496797,0.666141 l 2.068359,1.252125 v 7.5e-4 c 0.227062,0.129656 0.380109,0.370218 0.380109,0.650015 0,0.415688 -0.336937,0.752578 -0.753281,0.752578 -0.133687,0 -0.256359,-0.03773 -0.365859,-0.09923 l -0.0026,0.0044 -2.147436,-1.28906 c -0.510516,-0.284203 -1.096781,-0.450094 -1.723031,-0.450094 -0.781453,0 -1.500328,0.257438 -2.086266,0.683719 l -1.16564,0.90675 c -0.07472,0.06886 -0.122672,0.164812 -0.122672,0.273187 0,0.126 0.0637,0.233625 0.157828,0.301032 l 4.354219,2.902687 c 0.213843,0.121969 0.459234,0.195234 0.722531,0.195234 0.360703,0 0.691031,-0.132234 0.94589,-0.348328 l 2.561297,-2.27714 1.497985,-0.8385 0.0024,-0.0024 0.437438,-0.26475 0.05419,-0.03112 -0.0015,-7.5e-4 3.834938,-2.322937 c 0.736828,-0.419719 1.586437,-0.664313 2.49464,-0.664313 1.198219,0 2.297578,0.418219 3.165469,1.112578 l 1.462641,1.181438 c 0.0029,0.0018 0.0029,0.0044 0.0051,0.0059 0.332574,0.258151 0.546418,0.662072 0.546418,1.116197 0,0.464766 -0.228516,0.874172 -0.575672,1.131657 l -4.727016,3.172922 c -0.0081,0.0051 -0.01537,0.0084 -0.02419,0.0143 -0.479016,0.325547 -1.057594,0.514547 -1.680891,0.514547 -0.752906,0 -1.441406,-0.277593 -1.968703,-0.736453 l -0.979265,-0.854437 c -0.204329,-0.138797 -0.339094,-0.372797 -0.339094,-0.638297 0,-0.425531 0.344953,-0.770531 0.770531,-0.770531 0.216797,0 0.412359,0.08939 0.552234,0.234046 l 1.031954,0.916641 c 0.255609,0.217547 0.585937,0.349781 0.947765,0.349781 0.262922,0 0.508313,-0.07326 0.722156,-0.195234 l 4.354219,-2.902688 c 0.09375,-0.06741 0.158203,-0.175031 0.158203,-0.301031 0,-0.1095 -0.04833,-0.204328 -0.123047,-0.273187 l -1.163809,-0.904926 c -0.586641,-0.427406 -1.305844,-0.685547 -2.088094,-0.685547 -0.62475,0 -1.208484,0.165891 -1.71975,0.448266 l -3.647437,2.188828 -1.499438,0.752578 v 0 l -3.023765,2.634609 c -0.527344,0.459235 -1.215094,0.737531 -1.96875,0.737531 -0.622922,0 -1.201547,-0.188953 -1.680891,-0.514546 -0.0077,-0.0051 -0.015,-0.0084 -0.02269,-0.01355 L 4.574641,17.545574 C 4.228891,17.287433 4,16.879855 4,16.416542 4,15.962417 4.214594,15.558496 4.54675,15.300308 Z m 4.703953,6.699656 c 0.413813,0 0.74925,0.336563 0.74925,0.750422 v 0.175781 c 0,0.12525 0.06628,0.231094 0.160781,0.299204 l 4.744969,2.966765 c 0.01097,0.0059 0.02198,0.0077 0.03295,0.0143 0.310172,0.18675 0.673453,0.294422 1.062,0.294422 0.399375,0 0.772875,-0.114281 1.089282,-0.311297 0.01027,-0.0066 0.01978,-0.0084 0.03075,-0.0143 l 2.83589,-1.772484 c 0.136969,-0.0952 0.302484,-0.152391 0.482672,-0.152391 0.467297,0 0.846656,0.379453 0.846656,0.846703 0,0.308719 -0.165515,0.576047 -0.413062,0.724407 l 0.0022,0.004 -2.544375,1.52639 c -0.0073,0.004 -0.01392,0.0073 -0.02198,0.01172 -0.675282,0.404297 -1.464844,0.636469 -2.308032,0.636469 -0.851812,0 -1.647187,-0.236203 -2.325797,-0.646734 -0.01027,-0.0059 -0.01866,-0.0099 -0.02855,-0.01575 L 9.248176,24.698605 C 8.799207,24.395746 8.500754,23.88448 8.500754,23.301121 v -0.550782 c 0,-0.413812 0.335438,-0.750375 0.75,-0.750375 z m 13.500094,0 c 0.413812,0 0.74925,0.336563 0.74925,0.750422 0,0.414563 -0.335438,0.75 -0.74925,0.75 -0.414563,0 -0.75,-0.335437 -0.75,-0.75 0,-0.413859 0.335437,-0.750422 0.75,-0.750422 z"
       fill="#eff0f1"
       id="path2"
       style="fill:#eff0f1;fill-opacity:1;stroke-width:0.046875" />
  </g>
  <g
     id="22-22-dropbox"
     transform="translate(32,10)">
    <rect
       style="opacity:0.00100002"
       width="22"
       height="22"
       x="0"
       y="0"
       id="rect2" />
    <path
       d="m 18.635804,6.966554 c -0.0015,0.0015 -0.0015,0.0027 -0.0034,0.0044 L 17.66559,7.751986 c -0.580563,0.467532 -1.316376,0.748313 -2.118627,0.748313 -0.607907,0 -1.174814,-0.165281 -1.667971,-0.446313 l -1.35447,-0.820095 0.001,-0.0012 c -0.163094,-0.0835 -0.275375,-0.2505 -0.275375,-0.445563 0,-0.277125 0.224625,-0.501719 0.502438,-0.501719 0.08447,0 0.162594,0.02294 0.232437,0.05981 l 0.0019,-0.0034 1.450658,0.870877 c 0.338875,0.186531 0.726564,0.295437 1.140626,0.295437 0.521001,0 1.000502,-0.171625 1.391565,-0.456313 l 0.776376,-0.604032 c 0.04981,-0.04541 0.08203,-0.109875 0.08203,-0.182125 0,-0.0835 -0.04297,-0.155281 -0.105469,-0.200687 L 14.815514,4.126892 c -0.141625,-0.07963 -0.303219,-0.12675 -0.477063,-0.12675 -0.23975,0 -0.457532,0.08691 -0.627938,0.229969 l -1.710408,1.519845 -0.999627,0.560563 v 0 L 8.1223189,8.05349 C 7.630131,8.33549 7.0610677,8.500272 6.4533796,8.500272 5.654066,8.500272 4.9196898,8.220959 4.3415645,7.756365 L 3.3672194,6.969707 c -0.00173,-9.33e-4 -0.001,-0.0022 -0.00267,-0.0032 C 3.1431118,6.794412 3.000049,6.5251 3.000049,6.22235 c 0,-0.309813 0.1530628,-0.583032 0.3852504,-0.754408 L 6.5363971,3.352158 c 0.00513,-0.0034 0.01,-0.0056 0.015127,-0.009 0.3195943,-0.217062 0.7053135,-0.343031 1.1205953,-0.343031 0.5029066,0 0.9609384,0.186032 1.3125015,0.491469 L 9.68434,4.100972 9.683607,4.101705 c 0.107188,0.094 0.176032,0.230969 0.176032,0.384532 0,0.283719 -0.229751,0.513438 -0.513439,0.513438 -0.1486875,0 -0.2815003,-0.06372 -0.3750004,-0.164313 L 8.2900574,4.229423 C 8.1196512,4.08661 7.901401,4.000173 7.6621507,4.000173 c -0.1738129,0 -0.3356884,0.04713 -0.4770632,0.126719 L 4.2776154,6.064925 c -0.062747,0.04541 -0.1052188,0.117188 -0.1052188,0.200688 0,0.07225 0.031967,0.136719 0.081781,0.181625 l 0.7810009,0.607188 c 0.3901252,0.2825 0.8676884,0.453626 1.386939,0.453626 0.4160005,0 0.8049383,-0.109876 1.1440327,-0.297126 L 9.981153,5.761675 11.000436,5.247986 v 0 L 13.017157,3.49061 c 0.350562,-0.305688 0.809063,-0.490501 1.311002,-0.490501 0.415531,0 0.801281,0.125969 1.120595,0.343032 0.0059,0.0039 0.01075,0.0061 0.01613,0.0095 l 3.148409,2.114065 c 0.233468,0.171656 0.386781,0.444625 0.386781,0.755657 0,0.30275 -0.142562,0.572063 -0.36425,0.744188 z M 3.3645364,10.533558 c 10e-4,-10e-4 0.00173,-0.0015 0.00267,-0.0027 L 4.3488955,9.737587 C 4.9253022,9.276148 5.6574904,9.000273 6.4533667,9.000273 c 0.6059693,0 1.1733447,0.163813 1.6645332,0.444095 l 1.3789076,0.83475 v 5e-4 c 0.1513745,0.08644 0.2534065,0.246813 0.2534065,0.433344 0,0.277126 -0.224625,0.50172 -0.5021881,0.50172 -0.089125,0 -0.1709062,-0.02515 -0.2439063,-0.06615 l -0.00173,0.0029 -1.4316257,-0.859375 C 7.2304195,10.102588 6.8395757,9.991994 6.4220753,9.991994 c -0.5209693,0 -1.0002199,0.171626 -1.3908457,0.455813 l -0.7770942,0.604501 c -0.049813,0.04591 -0.081781,0.109875 -0.081781,0.182125 0,0.084 0.042467,0.15575 0.1052188,0.200688 l 2.902816,1.935127 c 0.1425622,0.08131 0.3061564,0.130156 0.4816879,0.130156 0.240469,0 0.4606879,-0.08816 0.6305941,-0.232219 l 1.7075328,-1.518095 0.998658,-0.559 0.0016,-0.0016 0.291626,-0.176501 0.03613,-0.02075 -10e-4,-5e-4 2.556628,-1.548627 c 0.491219,-0.279813 1.057626,-0.442876 1.663095,-0.442876 0.798814,0 1.531721,0.278813 2.110315,0.74172 l 0.975096,0.787626 c 0.0019,0.0012 0.0019,0.0029 0.0034,0.0039 0.221716,0.172101 0.364279,0.441382 0.364279,0.744133 0,0.309844 -0.152345,0.582782 -0.383782,0.754439 l -3.151348,2.115283 c -0.0054,0.0034 -0.01025,0.0056 -0.01613,0.0095 -0.319345,0.217031 -0.705064,0.343031 -1.120596,0.343031 -0.501938,0 -0.960938,-0.185062 -1.31247,-0.490969 l -0.652847,-0.569491 c -0.13622,-0.09253 -0.226063,-0.248532 -0.226063,-0.425532 0,-0.283688 0.229969,-0.513688 0.513688,-0.513688 0.144531,0 0.274906,0.05959 0.368156,0.156031 l 0.687971,0.611095 c 0.170406,0.145031 0.390625,0.233187 0.631844,0.233187 0.175281,0 0.338875,-0.04884 0.481438,-0.130156 l 2.902816,-1.935127 c 0.0625,-0.04494 0.105468,-0.116688 0.105468,-0.200688 0,-0.073 -0.03222,-0.136219 -0.08203,-0.182125 L 16.970269,10.44912 c -0.391094,-0.284937 -0.870563,-0.457032 -1.392064,-0.457032 -0.4165,0 -0.805657,0.110595 -1.146501,0.298845 l -2.431628,1.45922 -0.999626,0.501719 v 0 l -2.015846,1.756409 c -0.3515631,0.306157 -0.8100636,0.491687 -1.3125015,0.491687 -0.4152819,0 -0.8010323,-0.125968 -1.1205954,-0.343031 -0.00513,-0.0034 -0.01,-0.0056 -0.015127,-0.009 L 3.383095,12.030437 C 3.1525942,11.858309 3,11.58659 3,11.277715 3,10.974964 3.1430628,10.705683 3.3645004,10.533558 Z M 6.5005088,15 c 0.2758756,0 0.4995005,0.224376 0.4995005,0.500282 v 0.117188 c 0,0.0835 0.044187,0.154063 0.1071875,0.199469 l 3.1633162,1.977846 c 0.0073,0.0039 0.01465,0.0051 0.02197,0.0095 0.206782,0.1245 0.448969,0.196282 0.708001,0.196282 0.26625,0 0.515251,-0.07619 0.726189,-0.207532 0.0069,-0.0044 0.01319,-0.0056 0.0205,-0.0095 l 1.890595,-1.181657 c 0.09131,-0.06347 0.201657,-0.101595 0.321782,-0.101595 0.311532,0 0.564438,0.252969 0.564438,0.56447 0,0.205813 -0.110343,0.384032 -0.275375,0.482938 l 0.0015,0.0027 -1.696252,1.017594 c -0.0049,0.0027 -0.0093,0.0049 -0.01465,0.0078 -0.450188,0.269531 -0.976564,0.424313 -1.53869,0.424313 -0.567875,0 -1.098126,-0.157469 -1.5505328,-0.431157 -0.00685,-0.0039 -0.01244,-0.0066 -0.019033,-0.0105 L 6.4987881,16.799096 C 6.1994751,16.59719 6.0005062,16.256346 6.0005062,15.867439 V 15.500251 C 6.0005062,15.224376 6.2241318,15 6.5005068,15 Z m 9.0000732,0 c 0.275875,0 0.499501,0.224376 0.499501,0.500282 0,0.276376 -0.223626,0.500001 -0.499501,0.500001 -0.276376,0 -0.500001,-0.223625 -0.500001,-0.500001 C 15.000581,15.224376 15.224206,15 15.500582,15 Z"
       fill="#eff0f1"
       id="path2-3"
       style="fill:#eff0f1;fill-opacity:1;stroke-width:0.03125" />
  </g>
</svg>
