<?xml version="1.0" encoding="UTF-8" standalone="no"?>
<svg
   width="32"
   height="32"
   version="1.1"
   id="svg986"
   sodipodi:docname="jami.svg"
   inkscape:version="1.2.1 (9c6d41e410, 2022-07-14)"
   xmlns:inkscape="http://www.inkscape.org/namespaces/inkscape"
   xmlns:sodipodi="http://sodipodi.sourceforge.net/DTD/sodipodi-0.dtd"
   xmlns="http://www.w3.org/2000/svg"
   xmlns:svg="http://www.w3.org/2000/svg">
  <sodipodi:namedview
     id="namedview988"
     pagecolor="#ffffff"
     bordercolor="#000000"
     borderopacity="1"
     inkscape:showpageshadow="2"
     inkscape:pageopacity="0.0"
     inkscape:pagecheckerboard="0"
     inkscape:deskcolor="#cccccc"
     showgrid="false"
     inkscape:zoom="7.375"
     inkscape:cx="36"
     inkscape:cy="20.813559"
     inkscape:window-width="1920"
     inkscape:window-height="1002"
     inkscape:window-x="0"
     inkscape:window-y="0"
     inkscape:window-maximized="1"
     inkscape:current-layer="svg986">
    <inkscape:grid
       type="xygrid"
       id="grid1519"
       originx="32"
       originy="10" />
  </sodipodi:namedview>
  <defs
     id="Dexy" />
  <g
     id="jami">
    <rect
       style="opacity:0.00100002"
       width="32"
       height="32"
       x="0"
       y="0"
       id="rect976" />
    <path
       style="fill:#eff0f1;fill-opacity:1;stroke-width:0.667115"
       d="m 14.594833,7.000001 c -0.621425,-0.00162 -1.024052,2.0525509 -1.221006,4.757205 -2.099934,-0.963905 -3.873223,-1.60574 -4.621726,-1.53803 -0.171211,0.01544 -0.28908,0.06757 -0.346155,0.160712 l -1.369747,2.233585 c -0.307984,0.502293 1.388712,1.863645 3.784722,3.384915 -2.398835,1.5226 -4.092945,2.884773 -3.784722,3.387415 l 1.369747,2.233588 c 0.307328,0.501227 2.397946,-0.19898 4.986808,-1.388615 0.209166,2.705285 0.621256,4.7609 1.242648,4.762222 l 2.769244,0.007 c 0.621611,0.002 1.024125,-2.053831 1.221009,-4.759717 2.58013,1.184333 4.66129,1.879844 4.96788,1.379828 l 1.369749,-2.233585 c 0.308222,-0.502682 -1.385896,-1.864847 -3.784728,-3.387455 2.39601,-1.521258 4.092711,-2.882614 3.784728,-3.384908 l -1.369749,-2.234235 c -0.05707,-0.09308 -0.174944,-0.145219 -0.346159,-0.160706 -0.750925,-0.06792 -2.533096,0.577637 -4.642,1.546815 -0.209231,-2.704019 -0.6201,-4.7583899 -1.241298,-4.7597142 z m 0.208234,0.6428326 2.354123,0.00653 c 0.03994,0.063989 0.09504,0.1567472 0.15686,0.3314607 0.148937,0.4210333 0.294169,1.0993856 0.408353,1.9209609 0.0892,0.6418008 0.157739,1.3905728 0.213639,2.1770858 -0.629176,0.299775 -1.279044,0.625374 -1.936302,0.965483 -0.663332,-0.343246 -1.319315,-0.672187 -1.953893,-0.974295 0.05254,-0.78807 0.11767,-1.538063 0.204185,-2.1808518 0.110509,-0.8210236 0.252035,-1.4986025 0.39889,-1.9184525 0.06059,-0.1733923 0.115021,-0.2642459 0.154145,-0.3276935 z M 8.903542,10.868287 c 0.07705,4.71e-4 0.182582,0.0026 0.369146,0.03885 0.457857,0.09072 1.15254,0.313828 1.96335,0.634041 0.629325,0.24854 1.345854,0.567265 2.090462,0.914025 -0.03862,0.672665 -0.06669,1.371091 -0.08117,2.08795 -0.624227,0.356933 -1.229634,0.714239 -1.805148,1.068452 C 10.74012,15.172504 10.081328,14.743234 9.532283,14.349833 8.832379,13.84833 8.2799,13.3936 7.966471,13.064175 7.835085,12.926074 7.776544,12.832663 7.737956,12.769119 Z m 14.192393,0 1.165575,1.900874 c -0.03865,0.06358 -0.09713,0.156953 -0.22852,0.29505 -0.313426,0.329431 -0.865908,0.784158 -1.56581,1.28566 -0.549044,0.393404 -1.207842,0.822668 -1.907916,1.261808 -0.57789,-0.35567 -1.18633,-0.71384 -1.813266,-1.072218 -0.01769,-0.713465 -0.0477,-1.407047 -0.0892,-2.076652 0.750656,-0.349891 1.472771,-0.671205 2.106682,-0.921557 0.810818,-0.320217 1.505497,-0.543359 1.963352,-0.63404 0.186571,-0.03695 0.292088,-0.03852 0.369148,-0.03885 z m -9.096054,1.900874 c 0.421818,0.203424 0.855566,0.41947 1.291315,0.641576 -0.450302,0.239203 -0.899223,0.484071 -1.344047,0.731973 0.0127,-0.466422 0.0297,-0.927675 0.05276,-1.373549 z m 3.984849,0.0086 c 0.02475,0.441856 0.04348,0.898904 0.05816,1.360999 -0.4418,-0.246133 -0.887444,-0.489425 -1.334591,-0.726958 0.43071,-0.219537 0.859282,-0.432726 1.276447,-0.634041 z m -1.98499,1.003149 c 0.340252,0.17823 0.680105,0.355262 1.019536,0.539876 0.350688,0.190742 0.694959,0.386472 1.039826,0.581313 0.0083,0.368019 0.01677,0.735641 0.01751,1.10612 0.0012,0.364173 -0.0057,0.725519 -0.01083,1.087287 -0.347046,0.196126 -0.693605,0.393097 -1.046571,0.58508 -0.339422,0.184617 -0.679285,0.361646 -1.019542,0.539877 -0.340248,-0.178231 -0.680103,-0.35526 -1.019539,-0.539877 -0.350685,-0.190743 -0.694953,-0.386473 -1.039815,-0.581314 -0.0083,-0.368019 -0.01678,-0.735639 -0.01751,-1.106116 -0.0012,-0.364173 0.0057,-0.725524 0.01083,-1.087292 0.347053,-0.196122 0.69361,-0.393095 1.046578,-0.585078 0.33943,-0.184614 0.679281,-0.361646 1.019535,-0.539876 z m 2.758429,1.51919 c 0.403373,0.233943 0.80192,0.468534 1.183151,0.700585 -0.379912,0.231247 -0.777187,0.464948 -1.1791,0.698075 0.0046,-0.467413 0.003,-0.931277 -0.0046,-1.39866 z m -5.520913,0.0035 c -0.0047,0.467413 -0.003,0.931278 0.0046,1.398663 -0.40339,-0.233944 -0.801934,-0.468535 -1.183167,-0.700589 0.379905,-0.231241 0.77718,-0.464946 1.179091,-0.698074 z m -1.797038,1.087237 c 0.579352,0.356565 1.184666,0.715469 1.813256,1.074731 0.01771,0.712176 0.0478,1.404455 0.08922,2.072883 -0.750654,0.34989 -1.472772,0.671203 -2.106688,0.92156 -0.810809,0.319854 -1.505497,0.543002 -1.963351,0.633683 -0.186563,0.03692 -0.292085,0.03854 -0.369145,0.03884 L 7.737966,19.230785 c 0.03861,-0.06358 0.09713,-0.156957 0.228513,-0.295051 0.313426,-0.329431 0.86591,-0.784157 1.565812,-1.285663 0.54888,-0.393286 1.208088,-0.82155 1.907921,-1.260548 z m 9.119046,0 c 0.699828,0.438999 1.359039,0.867264 1.907916,1.260549 0.699901,0.50151 1.25239,0.956239 1.56581,1.285665 0.131387,0.13809 0.189927,0.231509 0.22852,0.295048 l -1.165575,1.900514 c -0.07701,-4.69e-4 -0.182577,-0.0031 -0.369147,-0.03883 -0.457852,-0.09071 -1.152537,-0.313829 -1.963353,-0.634043 -0.629313,-0.248538 -1.345853,-0.567264 -2.090457,-0.914028 0.0386,-0.671879 0.06667,-1.369436 0.08116,-2.085432 0.625712,-0.357723 1.228332,-0.714706 1.805159,-1.069709 z m -2.506932,1.462677 c -0.01271,0.468185 -0.02961,0.931077 -0.05276,1.378575 -0.423564,-0.204264 -0.859149,-0.420998 -1.29673,-0.644085 0.453609,-0.24092 0.901407,-0.484734 1.349465,-0.73449 z m -4.095725,0.0054 c 0.445023,0.247974 0.889548,0.490221 1.339999,0.729467 -0.432544,0.220517 -0.862944,0.434395 -1.281854,0.636551 -0.02483,-0.443483 -0.04346,-0.902177 -0.05816,-1.366018 z m 2.043133,1.100676 c 0.664812,0.344047 1.317952,0.667798 1.953893,0.970527 -0.05257,0.788545 -0.117622,1.538981 -0.204186,2.18211 -0.110506,0.821016 -0.252032,1.498601 -0.398891,1.918446 -0.06062,0.173393 -0.115018,0.264252 -0.154142,0.327696 l -2.354131,-0.0071 c -0.03995,-0.06386 -0.09503,-0.156585 -0.156852,-0.331298 -0.148934,-0.42103 -0.294171,-1.099386 -0.408354,-1.920956 -0.08921,-0.642067 -0.157726,-1.391276 -0.213641,-2.17827 0.630284,-0.300305 1.277839,-0.620975 1.936304,-0.961733 z"
       id="path978" />
    <path
       d="m 15.999688,27.999949 h -0.75 c -0.414563,0 -0.749954,-0.336187 -0.749954,-0.75 0,-0.414562 0.335391,-0.75 0.749954,-0.75 h 0.75 c 5.798859,0 10.499812,-4.701374 10.499812,-10.500094 0,-5.79853 -4.700953,-10.499905 -10.499812,-10.499905 -5.798484,0 -10.499859,4.701375 -10.499859,10.499905 0,3.435141 1.657125,6.476203 4.206983,8.391469 l -0.0076,0.01095 c 0.181274,0.13704 0.300665,0.352331 0.300665,0.597675 0,0.413766 -0.335439,0.75 -0.75,0.75 -0.168845,0 -0.322266,-0.05859 -0.447891,-0.152343 l -0.0018,0.0029 C 5.885922,23.411406 4,19.925829 4,15.999906 4,9.37225 9.372203,4 15.999813,4 22.626672,4 28,9.37225 28,15.999906 28,22.627046 22.626672,28 15.999813,28 Z m -3.749579,-1.5 c 0.413438,0 0.74925,0.335438 0.74925,0.75 0,0.413813 -0.335812,0.75 -0.74925,0.75 -0.414562,0 -0.75,-0.336187 -0.75,-0.75 0,-0.414562 0.335438,-0.75 0.75,-0.75 z M 26.4995,15.999856 v 0 0 0 0 0 l 0.0662,-0.01523 -0.06322,0.01455 0.0114,-0.01275 0.0012,0.0075 0.05654,-0.02776 -0.0822,0.02895 0.02914,0.0048 0.0098,0.0013 -0.02889,-0.0013 v 0 l 0.0191,-4.6e-5 0.0098,0.0013 0.0373,-0.01652 z"
       id="path2"
       sodipodi:nodetypes="ssssssssccssccssssssssscccccccccccccccccccc"
       style="fill:#eff0f1;fill-opacity:1;stroke-width:0.046875;enable-background:new" />
  </g>
  <g
     id="22-22-jami">
    <rect
       style="opacity:0.00100002"
       width="22"
       height="22"
       x="32"
       y="10"
       id="rect981" />
    <path
       style="fill:#eff0f1;fill-opacity:1;stroke-width:0.774566"
       d="m 42.189098,15.00002 c -0.380529,-0.0012 -0.616426,1.549989 -0.721835,3.514026 -1.550136,-0.739013 -2.897264,-1.280664 -3.420149,-1.26411 -0.111147,0.0036 -0.186633,0.03196 -0.220294,0.08643 l -0.807774,1.30513 c -0.191905,0.310252 1.125983,1.282136 2.893604,2.355378 -1.777655,1.078209 -3.086223,2.049833 -2.893604,2.361238 l 0.807774,1.305128 c 0.192731,0.311586 1.762444,-0.276121 3.651379,-1.177692 0.112787,1.960772 0.352756,3.5087 0.732776,3.509632 l 1.599923,0.0048 c 0.380126,0.0012 0.616247,-1.547158 0.721836,-3.508169 1.883493,0.898253 3.448125,1.48276 3.640446,1.171836 l 0.807774,-1.305131 c 0.19262,-0.311405 -1.115949,-1.28303 -2.893608,-2.361238 1.76762,-1.073243 3.085513,-2.045128 2.893608,-2.35538 L 48.17318,17.336743 c -0.03369,-0.05446 -0.10915,-0.08293 -0.220302,-0.08643 -0.523937,-0.01654 -1.875319,0.52709 -3.42952,1.268505 -0.112656,-1.96309 -0.354004,-3.513089 -0.734335,-3.514026 z m 0.414047,0.751439 0.771834,0.002 c 0.07619,0.255269 0.158161,0.682506 0.221865,1.211379 0.06657,0.55287 0.11735,1.213465 0.151555,1.923269 -0.248139,0.124112 -0.495986,0.256916 -0.748401,0.388132 -0.25529,-0.132709 -0.505321,-0.267096 -0.756213,-0.392562 0.03145,-0.711683 0.07913,-1.375186 0.143743,-1.929124 0.06126,-0.525268 0.140954,-0.947546 0.215617,-1.202593 z m -4.290415,2.293855 c 0.275633,0.0662 0.716426,0.21459 1.24056,0.429183 0.552089,0.226042 1.1978,0.522263 1.881158,0.855437 -0.0086,0.261144 -0.01293,0.527183 -0.01716,0.79538 -0.260558,0.145931 -0.502153,0.290511 -0.753088,0.436506 -0.649311,-0.386554 -1.246297,-0.760456 -1.731163,-1.094197 -0.458996,-0.315931 -0.814806,-0.595295 -1.014009,-0.785127 z m 9.374536,0 0.393732,0.637182 c -0.199204,0.189832 -0.555017,0.469196 -1.014012,0.785127 -0.484867,0.333741 -1.081853,0.707643 -1.731167,1.094197 -0.252528,-0.146923 -0.495511,-0.292584 -0.757774,-0.439436 -0.0055,-0.265507 -0.0108,-0.529483 -0.02029,-0.788054 0.68624,-0.334739 1.334793,-0.632938 1.88897,-0.859833 0.524132,-0.214593 0.964931,-0.363023 1.240564,-0.429183 z m -4.687268,2.088788 c 0.137987,0.073 0.271746,0.135169 0.409356,0.209464 0.130987,0.0707 0.249564,0.143741 0.379669,0.215325 0.002,0.151804 0.01061,0.294608 0.01096,0.44676 2.89e-4,0.147765 -0.0082,0.286142 -0.0093,0.433578 -0.130722,0.07191 -0.249605,0.145725 -0.381229,0.216787 -0.137609,0.07426 -0.271366,0.13643 -0.409352,0.209465 -0.138012,-0.07299 -0.271772,-0.135168 -0.40938,-0.209465 -0.130989,-0.0707 -0.249564,-0.14374 -0.379667,-0.215322 -0.0016,-0.151805 -0.01065,-0.29461 -0.01093,-0.446759 -2.87e-4,-0.147766 0.0083,-0.286145 0.0094,-0.43358 0.13072,-0.07191 0.249605,-0.145726 0.381229,-0.216789 0.137607,-0.07426 0.271363,-0.136428 0.40935,-0.209464 z m -2.338948,1.30366 c 0.247974,0.144202 0.503539,0.28651 0.7609,0.430648 0.005,0.268525 0.01071,0.535391 0.02032,0.796845 -0.68624,0.334736 -1.334792,0.632937 -1.888973,0.859831 -0.524133,0.214594 -0.964927,0.363024 -1.24056,0.429184 l -0.393728,-0.637183 c 0.199203,-0.189833 0.555014,-0.469193 1.014009,-0.785126 0.484323,-0.333369 1.079574,-0.708097 1.728041,-1.094199 z m 4.677895,0 c 0.648467,0.386102 1.243716,0.76083 1.728041,1.094199 0.458995,0.315933 0.81481,0.595293 1.014012,0.785126 l -0.393732,0.637183 c -0.275633,-0.06621 -0.716429,-0.214592 -1.240563,-0.429184 -0.552085,-0.226041 -1.197796,-0.522262 -1.881155,-0.855437 0.0086,-0.264027 0.01291,-0.532951 0.01717,-0.804168 0.255685,-0.143235 0.509814,-0.284429 0.756213,-0.427719 z m -2.338947,1.281691 c 0.254211,0.132084 0.506388,0.263281 0.756212,0.388169 -0.03147,0.714894 -0.07888,1.381788 -0.143743,1.937915 -0.06128,0.525265 -0.140953,0.947543 -0.215615,1.202591 l -0.771836,-0.002 c -0.07619,-0.255197 -0.158161,-0.682434 -0.221865,-1.211307 -0.06683,-0.554689 -0.117347,-1.218117 -0.151555,-1.930592 0.247466,-0.123757 0.496652,-0.254435 0.748402,-0.385238 z"
       id="path983" />
    <path
       d="m 42.999826,29 h -0.5 c -0.276375,0 -0.499969,-0.224125 -0.499969,-0.5 0,-0.276375 0.223594,-0.5 0.499969,-0.5 h 0.5 c 3.865906,0 6.999875,-3.13425 6.999875,-7.000063 C 49.999701,17.13425 46.865732,14 42.999826,14 c -3.865656,0 -6.999906,3.13425 -6.999906,6.999937 0,2.290094 1.10475,4.317469 2.804655,5.594313 l -0.0051,0.0073 c 0.120849,0.09136 0.200443,0.234887 0.200443,0.39845 0,0.275844 -0.223626,0.5 -0.5,0.5 -0.112563,0 -0.214844,-0.03906 -0.298594,-0.101563 l -0.0012,0.0019 C 36.257281,25.940938 35,23.617219 35,20.999937 35,16.5815 38.581469,13 42.999875,13 47.417781,13 51,16.5815 51,20.999937 51,25.418031 47.417781,29 42.999875,29 Z m -2.499719,-1 c 0.275625,0 0.4995,0.223625 0.4995,0.5 0,0.275875 -0.223875,0.5 -0.4995,0.5 -0.276375,0 -0.5,-0.224125 -0.5,-0.5 0,-0.276375 0.223625,-0.5 0.5,-0.5 z m 9.499594,-7.000063 v 0 0 0 0 0 l 0.04413,-0.01015 -0.04215,0.0097 0.0076,-0.0085 8e-4,0.005 0.03769,-0.01851 -0.0548,0.0193 0.01943,0.0032 0.0065,8.67e-4 -0.01926,-8.67e-4 v 0 l 0.01273,-3.1e-5 0.0065,8.67e-4 0.02487,-0.01101 z"
       id="path2-3"
       sodipodi:nodetypes="ssssssssccssccssssssssscccccccccccccccccccc"
       style="fill:#eff0f1;fill-opacity:1;stroke-width:0.03125;enable-background:new" />
  </g>
</svg>
