<?xml version="1.0" encoding="UTF-8" standalone="no"?>
<svg
   width="32"
   height="32"
   version="1.1"
   id="svg12"
   sodipodi:docname="kmail.svg"
   inkscape:version="1.1 (c68e22c387, 2021-05-23)"
   xmlns:inkscape="http://www.inkscape.org/namespaces/inkscape"
   xmlns:sodipodi="http://sodipodi.sourceforge.net/DTD/sodipodi-0.dtd"
   xmlns="http://www.w3.org/2000/svg"
   xmlns:svg="http://www.w3.org/2000/svg"
   xmlns:rdf="http://www.w3.org/1999/02/22-rdf-syntax-ns#"
   xmlns:cc="http://creativecommons.org/ns#"
   xmlns:dc="http://purl.org/dc/elements/1.1/">
  <metadata
     id="metadata18">
    <rdf:RDF>
      <cc:Work
         rdf:about="">
        <dc:format>image/svg+xml</dc:format>
        <dc:type
           rdf:resource="http://purl.org/dc/dcmitype/StillImage" />
      </cc:Work>
    </rdf:RDF>
  </metadata>
  <defs
     id="defs16" />
  <sodipodi:namedview
     pagecolor="#ffffff"
     bordercolor="#000000"
     borderopacity="1"
     objecttolerance="10"
     gridtolerance="10"
     guidetolerance="10"
     inkscape:pageopacity="0"
     inkscape:pageshadow="2"
     inkscape:window-width="1920"
     inkscape:window-height="1007"
     id="namedview14"
     showgrid="false"
     inkscape:zoom="9.8125003"
     inkscape:cx="36.738852"
     inkscape:cy="10.191082"
     inkscape:window-x="0"
     inkscape:window-y="0"
     inkscape:window-maximized="1"
     inkscape:current-layer="svg12"
     inkscape:document-rotation="0"
     showguides="false"
     inkscape:lockguides="true"
     inkscape:showpageshadow="false"
     inkscape:pagecheckerboard="0">
    <inkscape:grid
       type="xygrid"
       id="grid859"
       originx="-32"
       originy="-10" />
  </sodipodi:namedview>
  <g
     id="kmail">
    <rect
       style="opacity:0.00100002"
       width="32"
       height="32"
       x="0"
       y="0"
       id="rect7" />
    <path
       d="m 5.927425,23.272114 c -0.360165,-0.360165 -0.360165,-0.944747 0,-1.304854 l 2.610918,-2.610918 c 0.360337,-0.361433 0.944689,-0.361433 1.305026,0 0.360338,0.360107 0.360338,0.944689 0,1.304796 l -2.610918,2.610976 c -0.360395,0.360453 -0.944689,0.360453 -1.305026,0 z m 18.777645,0 -2.610918,-2.610976 c -0.360049,-0.360107 -0.360049,-0.944689 0,-1.304796 0.360568,-0.361433 0.944631,-0.361433 1.305257,0 l 2.610975,2.610918 c 0.359992,0.360107 0.359992,0.944689 0,1.304854 -0.360626,0.360453 -0.944804,0.360453 -1.305314,0 z M 29.675431,9.380486 18.579621,19.553299 c -1.44187,1.441869 -3.779679,1.441869 -5.221663,0 L 6.84771,13.042879 6.431528,12.626927 4.653782,10.848893 l -0.0068,0.0023 C 4.47864,10.640687 4.238588,10.461325 3.969518,10.461325 c -0.510161,0 -0.923286,0.413356 -0.923286,0.923055 v 2.600534 1.092493 9.229566 c 0,1.02038 0.826365,1.846398 1.846341,1.846398 h 22.152506 c 1.019975,0 1.845994,-0.826018 1.845994,-1.846398 v -11.07608 c 0,-0.510218 0.413355,-0.923054 0.923574,-0.923054 0.509814,0 0.923054,0.412894 0.923054,0.923054 v 11.07608 C 30.737701,26.346347 29.084049,28 27.045079,28 H 4.892623 C 2.853422,27.999942 1.2,26.34629 1.2,24.306916 V 11.38438 c 0,-1.528809 1.240355,-2.768299 2.769568,-2.768299 0.712598,0 1.355737,0.325896 1.846283,0.798731 v -0.01581 l 8.847998,8.848229 c 0.720502,0.721656 1.889378,0.721656 2.610053,0 L 28.369193,8.074421 C 28.730742,7.714315 28.904161,7.24148 28.901969,6.769626 h -0.01085 c 0,-1.0199179 -0.826019,-0.923055 -1.845994,-0.923055 H 7.661268 C 7.152203,5.846571 6.73804,5.433273 6.73804,4.923055 6.73804,4.413355 7.152203,4 7.661268,4 h 19.383861 c 1.693286,0 3.117906,0.507046 3.552434,1.846513 v 0 c 0.314992,1.224663 0.03646,2.575785 -0.922132,3.533973 z M 3.969568,5.846571 C 3.459407,5.846571 3.046282,5.433273 3.046282,4.923055 3.046282,4.413355 3.459407,4 3.969568,4 c 0.509988,0 0.923055,0.413298 0.923055,0.923055 0,0.510218 -0.413067,0.923516 -0.923055,0.923516 z"
       id="path2"
       style="fill:#eff0f1;fill-opacity:1;stroke-width:0.0576909" />
  </g>
  <g
     id="g1243"
     transform="translate(32,10)">
    <g
       id="22-22-kmail">
      <rect
         style="opacity:0.00100002"
         width="22"
         height="22"
         x="0"
         y="0"
         id="rect2" />
      <path
         d="m 4.2009431,15.848076 c -0.2438679,-0.24011 -0.2438679,-0.629831 0,-0.869903 l 1.7678545,-1.740612 c 0.2439844,-0.240955 0.6396494,-0.240955 0.8836342,0 0.243985,0.240072 0.243985,0.629793 0,0.869864 l -1.7678547,1.740651 c -0.2440235,0.240302 -0.6396498,0.240302 -0.883634,0 z m 12.7143599,0 -1.767857,-1.740651 c -0.24379,-0.240071 -0.24379,-0.629792 0,-0.869864 0.244141,-0.240955 0.63961,-0.240955 0.88379,0 l 1.767895,1.740612 c 0.243749,0.240072 0.243749,0.629793 0,0.869903 -0.244181,0.240302 -0.639728,0.240302 -0.883828,0 z m 3.365435,-9.261085 -7.512983,6.781875 c -0.976293,0.961246 -2.559223,0.961246 -3.5355925,0 L 4.8240686,9.028586 4.5422717,8.751285 3.3385584,7.565929 l -0.0046,0.0015 C 3.2199694,7.427125 3.0574303,7.30755 2.8752427,7.30755 2.5298125,7.30755 2.250085,7.583121 2.250085,7.92292 v 1.733689 0.728329 6.153044 c 0,0.680253 0.5595325,1.230932 1.2501589,1.230932 H 18.499724 c 0.690625,0 1.249922,-0.550679 1.249922,-1.230932 V 9.153929 c 0,-0.340146 0.279884,-0.61537 0.625353,-0.61537 C 20.720194,8.538559 21,8.813822 21,9.153929 v 7.384053 C 21,17.897565 19.880312,19 18.499724,19 H 3.5002779 C 2.1195333,18.999961 1,17.897527 1,16.537944 V 7.92292 C 1,6.903714 1.8398452,6.077387 2.8752766,6.077387 c 0.4825006,0 0.9179704,0.217264 1.2501197,0.532488 v -0.01054 l 5.9909867,5.898819 c 0.487852,0.481104 1.279298,0.481104 1.767268,0 L 19.396279,5.716281 C 19.641085,5.47621 19.75851,5.160987 19.757024,4.846417 h -0.0072 c 0,-0.679945 -0.559299,-0.61537 -1.249926,-0.61537 H 5.3749293 c -0.3446882,0 -0.625118,-0.275532 -0.625118,-0.615677 C 4.7498113,3.27557 5.0302411,3 5.3749293,3 H 18.499757 c 1.146523,0 2.111135,0.338031 2.405356,1.231009 v 0 c 0.21328,0.816442 0.02468,1.71719 -0.624375,2.355982 z M 2.8752766,4.231047 C 2.5298461,4.231047 2.250119,3.955515 2.250119,3.61537 2.250119,3.27557 2.5298461,3 2.8752766,3 c 0.3453131,0 0.6250013,0.275532 0.6250013,0.61537 0,0.340145 -0.2796882,0.615677 -0.6250013,0.615677 z"
         id="path2-3"
         style="fill:#eff0f1;fill-opacity:1;stroke-width:0.0387604" />
    </g>
  </g>
</svg>
