<?xml version="1.0" encoding="UTF-8" standalone="no"?>
<svg
   width="32"
   height="32"
   version="1.1"
   id="svg12"
   sodipodi:docname="kruler.svg"
   inkscape:version="1.1.2 (0a00cf5339, 2022-02-04)"
   xmlns:inkscape="http://www.inkscape.org/namespaces/inkscape"
   xmlns:sodipodi="http://sodipodi.sourceforge.net/DTD/sodipodi-0.dtd"
   xmlns="http://www.w3.org/2000/svg"
   xmlns:svg="http://www.w3.org/2000/svg"
   xmlns:rdf="http://www.w3.org/1999/02/22-rdf-syntax-ns#"
   xmlns:cc="http://creativecommons.org/ns#"
   xmlns:dc="http://purl.org/dc/elements/1.1/">
  <style
     id="current-color-scheme"
     type="text/css">.ColorScheme-Text { color:#eceff4; }
</style>
  <metadata
     id="metadata18">
    <rdf:RDF>
      <cc:Work
         rdf:about="">
        <dc:format>image/svg+xml</dc:format>
        <dc:type
           rdf:resource="http://purl.org/dc/dcmitype/StillImage" />
      </cc:Work>
    </rdf:RDF>
  </metadata>
  <defs
     id="defs16" />
  <sodipodi:namedview
     pagecolor="#ffffff"
     bordercolor="#666666"
     borderopacity="1"
     objecttolerance="10"
     gridtolerance="10"
     guidetolerance="10"
     inkscape:pageopacity="0"
     inkscape:pageshadow="2"
     inkscape:window-width="1920"
     inkscape:window-height="1013"
     id="namedview14"
     showgrid="false"
     inkscape:zoom="16.000001"
     inkscape:cx="16.031249"
     inkscape:cy="20.218749"
     inkscape:window-x="0"
     inkscape:window-y="0"
     inkscape:window-maximized="1"
     inkscape:current-layer="svg12"
     inkscape:document-rotation="0"
     inkscape:pagecheckerboard="0"
     inkscape:lockguides="false">
    <inkscape:grid
       type="xygrid"
       id="grid843"
       originx="-1e-06"
       originy="0" />
  </sodipodi:namedview>
  <g
     id="kruler">
    <rect
       style="opacity:0.00100002;fill:#d6dbf1;fill-opacity:1"
       width="32"
       height="32"
       x="0"
       y="0"
       id="rect7" />
    <path
       d="m 6.2000008,23.291078 c 2.717e-4,0.198887 0.079646,0.389537 0.2204839,0.529971 0.1408393,0.14043 0.3317287,0.219237 0.5306019,0.21895 0.1988728,-2.85e-4 0.3895296,-0.0796 0.5299645,-0.220485 0.140431,-0.140834 0.2192372,-0.331727 0.2189481,-0.530603 -2.711e-4,-0.198874 -0.079644,-0.38953 -0.220485,-0.529962 -0.1408384,-0.140429 -0.331729,-0.219236 -0.5306019,-0.218948 -0.1988733,2.85e-4 -0.3895288,0.07962 -0.5299649,0.220484 -0.1404307,0.140834 -0.2192351,0.331729 -0.2189466,0.530593 z m 0.3750016,-5.6e-4 v 0 l 7e-7,3.6e-5 -7e-7,-3.6e-5 7e-7,3.6e-5 v 0 0 0 0 z"
       id="path75-3"
       style="fill:currentColor;fill-opacity:1;stroke-width:0.02232"
       sodipodi:nodetypes="cssscsssccccccccccc"
       class="ColorScheme-Text" />
    <path
       d="m 31.989218,12.110423 0.01078,8.721964 c 10e-7,1.024009 -0.0067,1.834876 -0.505855,2.420071 -0.499356,0.584907 -1.236156,0.698238 -1.943217,0.699434 l -19.406332,0.03259 C 9.8500533,23.984936 9.6109518,23.706355 9.610525,23.362172 L 9.606125,18.024 c -4.259e-4,-0.344168 0.2379827,-0.622497 0.532524,-0.623 0.294296,-5.05e-4 0.533399,0.277832 0.533823,0.622 l 0.0036,4.714515 1.066371,-0.0014 -7.42e-4,-0.622879 c -4.22e-4,-0.344174 0.237984,-0.62357 0.532278,-0.624069 0.294544,-4.99e-4 0.533648,0.27809 0.534072,0.622265 l 7.39e-4,0.622875 1.066371,-0.0014 -7.45e-4,-0.622872 h -2.5e-4 c -4.24e-4,-0.344185 0.237986,-0.623574 0.532531,-0.624073 0.294291,-5.07e-4 0.533392,0.278086 0.533823,0.622265 l 7.39e-4,0.622873 1.066371,-0.0014 -7.44e-4,-0.622872 c -4.2e-4,-0.344186 0.237986,-0.623579 0.532281,-0.624075 0.294541,-4.97e-4 0.533641,0.278084 0.534071,0.62227 l 7.39e-4,0.622868 1.06637,-0.0014 -0.0036,-4.715491 c -4.19e-4,-0.344167 0.237744,-0.610499 0.532281,-0.611 0.294542,-4.96e-4 0.533394,0.265833 0.533824,0.61 l 0.0036,4.714683 1.066369,-0.0015 -7.41e-4,-0.622875 c -4.25e-4,-0.344178 0.237984,-0.623573 0.532526,-0.624072 0.29429,-5.08e-4 0.533396,0.278089 0.533828,0.622266 l 7.38e-4,0.622876 1.066366,-0.0014 -7.39e-4,-0.622879 c -4.22e-4,-0.344182 0.237986,-0.623577 0.532278,-0.624077 0.294541,-4.88e-4 0.533643,0.278091 0.53407,0.622274 l 7.41e-4,0.622876 1.066373,-0.0015 -7.44e-4,-0.622874 h -2.51e-4 c -4.26e-4,-0.344179 0.237982,-0.623579 0.532525,-0.624072 0.294295,-5.06e-4 0.533396,0.278089 0.533824,0.622268 l 7.37e-4,0.622871 1.066372,-0.0015 -0.0036,-4.715365 c -4.28e-4,-0.344167 0.237981,-0.622512 0.532277,-0.623 0.29454,-4.94e-4 0.533644,0.277833 0.534072,0.622 l 0.0036,4.089707 1.279512,-0.002 c 0.423966,-0.0015 0.830015,-0.07533 1.129608,-0.42617 0.299316,-0.350771 0.253488,-0.950544 0.253867,-1.445982 l -0.01064,-8.096858 c -0.0015,-0.495491 0.04314,-0.595425 -0.257063,-0.945202 -0.300443,-0.349528 -0.494423,-0.295532 -0.918409,-0.295961 l -26.3371142,0.04406 c -0.4239623,0.0015 -0.6166778,-0.04957 -0.9162676,0.301197 -0.2993198,0.350772 -0.360159,0.450261 -0.3605344,0.945701 l 0.010664,8.472538 c 0.00158,0.495407 -0.043114,0.84375 0.2570668,1.193529 0.3004346,0.349759 0.6000173,0.293256 1.0240017,0.293697 H 4 c 0.4454653,0.02564 0.6995735,0.647187 0.7,0.991066 4.234e-4,0.344184 -0.284237,0.883586 -0.7,0.874415 l -1.5327695,0.0093 C 1.7600776,23.998226 1.1402158,23.860895 0.6394052,23.277669 0.13884908,22.694204 0.01183827,21.712591 0.01081348,20.886601 L 2.6327789e-6,12.164639 C -9.9029103e-4,11.338646 0.17247449,10.477211 0.6715923,9.8920029 1.1709482,9.3070919 1.8486749,9.0463296 2.5557374,9.0451459 L 29.532839,9.0000069 c 0.707128,-0.00125 1.396891,0.1681321 1.8977,0.7513576 0.500556,0.5835005 0.557618,1.5331225 0.558642,2.3591025 z"
       id="path73"
       style="fill:currentColor;fill-opacity:1;stroke-width:0.06861"
       sodipodi:nodetypes="ccccccccccccscccccccccccccccsccccsccccscccccsccccscccccccccccccccsccccccccccc"
       class="ColorScheme-Text " />
    <path
       d="m 3.204241,16.503621 c 9.071e-4,0.662927 0.2654844,1.298439 0.7349476,1.76656 0.4694641,0.468105 1.1057622,0.730785 1.7686729,0.729817 C 6.3707722,18.99907 7.0062942,18.734517 7.4744122,18.265055 7.9425167,17.795586 8.2051964,17.159287 8.2042355,16.496373 8.2033294,15.833469 7.938752,15.197949 7.4692891,14.729835 6.9998243,14.261719 6.3635248,13.999055 5.7006143,14.000003 5.0377037,14.000929 4.4021839,14.265488 3.9340638,14.734959 3.4659593,15.20443 3.2032799,15.840715 3.204241,16.503621 Z m 1.2500055,-0.0015 c -5.176e-4,-0.331642 0.1307093,-0.649791 0.3649127,-0.884374 0.233904,-0.234869 0.5516632,-0.366999 0.8832751,-0.36748 0.3316127,-4.79e-4 0.6497464,0.130711 0.8843365,0.364915 0.2348727,0.233913 0.3669947,0.551662 0.3674744,0.883275 5.164e-4,0.33157 -0.1307115,0.649708 -0.3649121,0.884303 -0.2339036,0.234667 -0.5516626,0.366797 -0.8832753,0.367274 -0.3316115,3.49e-4 -0.6497472,-0.130847 -0.8843379,-0.365042 -0.234872,-0.233915 -0.366992,-0.551665 -0.3674734,-0.883284 z"
       id="path75"
       style="fill:currentColor;fill-opacity:1;stroke-width:0.0744008"
       class="ColorScheme-Text" />
  </g>
</svg>
