<?xml version="1.0" encoding="UTF-8" standalone="no"?>
<svg
   width="32"
   height="32"
   version="1.1"
   id="svg22"
   sodipodi:docname="mail.svg"
   inkscape:version="1.1 (c68e22c387, 2021-05-23)"
   xmlns:inkscape="http://www.inkscape.org/namespaces/inkscape"
   xmlns:sodipodi="http://sodipodi.sourceforge.net/DTD/sodipodi-0.dtd"
   xmlns="http://www.w3.org/2000/svg"
   xmlns:svg="http://www.w3.org/2000/svg"
   xmlns:rdf="http://www.w3.org/1999/02/22-rdf-syntax-ns#"
   xmlns:cc="http://creativecommons.org/ns#"
   xmlns:dc="http://purl.org/dc/elements/1.1/">
  <g
     id="22-22-mail-unread"
     transform="translate(32,42)">
    <rect
       style="opacity:0.00100002"
       width="22"
       height="22"
       x="0"
       y="0"
       id="rect2-6" />
    <path
       d="m 4.2009381,15.848076 c -0.2438675,-0.24011 -0.2438675,-0.629831 0,-0.869903 l 1.7678514,-1.740612 c 0.2439835,-0.240955 0.639648,-0.240955 0.8836324,0 0.2439842,0.240072 0.2439842,0.629793 0,0.869864 l -1.7678514,1.740651 c -0.2440233,0.240302 -0.6396491,0.240302 -0.8836324,0 z m 12.7143349,0 -1.76785,-1.740651 c -0.24379,-0.240071 -0.24379,-0.629792 0,-0.869864 0.24414,-0.240955 0.639609,-0.240955 0.883788,0 l 1.767892,1.740612 c 0.243749,0.240072 0.243749,0.629793 0,0.869903 -0.24418,0.240302 -0.639727,0.240302 -0.88383,0 z m 3.365433,-9.261085 -7.512971,6.781875 c -0.976291,0.961246 -2.559218,0.961246 -3.5355867,0 L 4.8240623,9.028586 4.5422652,8.751285 3.3385543,7.565929 l -0.00456,0.0015 C 3.2199994,7.427092 3.05746,7.307517 2.8752728,7.307517 c -0.3454296,0 -0.6251565,0.275571 -0.6251565,0.61537 v 1.733689 0.728329 6.153044 c 0,0.680253 0.5595312,1.230932 1.2501567,1.230932 h 14.999455 c 0.690624,0 1.24992,-0.550679 1.24992,-1.230932 V 9.153896 c 0,-0.340146 0.279884,-0.61537 0.625352,-0.61537 0.345195,0 0.625,0.275263 0.625,0.61537 v 7.384053 C 20.999967,17.897565 19.880278,19 18.499692,19 H 3.500274 C 2.1195312,18.999961 1,17.897527 1,16.537944 V 7.92292 C 1,6.903714 1.8398435,6.077387 2.8752738,6.077387 c 0.4824995,0 0.9179683,0.217264 1.2501173,0.532488 v -0.01054 l 5.9909759,5.898819 c 0.487852,0.481104 1.279297,0.481104 1.767266,0 L 19.396249,5.716281 C 19.641054,5.47621 19.758476,5.160987 19.756993,4.846417 h -0.0072 c 0,-0.679945 -0.559298,-0.61537 -1.249924,-0.61537 H 5.3749221 C 5.0302341,4.231047 4.749805,3.955515 4.749805,3.61537 4.749805,3.27557 5.0302341,3 5.3749221,3 H 18.499728 c 1.146521,0 2.111131,0.338031 2.40535,1.231009 v 0 c 0.213283,0.816442 0.02468,1.71719 -0.624372,2.355982 z M 2.8752738,4.231047 C 2.5298432,4.231047 2.2501173,3.955515 2.2501173,3.61537 2.2501173,3.27557 2.5298432,3 2.8752738,3 3.2205864,3 3.500274,3.275532 3.500274,3.61537 c 0,0.340145 -0.2796876,0.615677 -0.6250002,0.615677 z"
       id="path2-3"
       style="fill:#eff0f1;fill-opacity:1;stroke-width:0.0387604" />
  </g>
  <metadata
     id="metadata28">
    <rdf:RDF>
      <cc:Work
         rdf:about="">
        <dc:format>image/svg+xml</dc:format>
        <dc:type
           rdf:resource="http://purl.org/dc/dcmitype/StillImage" />
      </cc:Work>
    </rdf:RDF>
  </metadata>
  <defs
     id="defs26" />
  <sodipodi:namedview
     pagecolor="#ffffff"
     bordercolor="#000000"
     borderopacity="1"
     objecttolerance="10"
     gridtolerance="10"
     guidetolerance="10"
     inkscape:pageopacity="0"
     inkscape:pageshadow="2"
     inkscape:window-width="1920"
     inkscape:window-height="1007"
     id="namedview24"
     showgrid="false"
     inkscape:zoom="6.9384853"
     inkscape:cx="31.058652"
     inkscape:cy="34.877929"
     inkscape:window-x="0"
     inkscape:window-y="0"
     inkscape:window-maximized="1"
     inkscape:current-layer="svg22"
     inkscape:document-rotation="0"
     showguides="false"
     inkscape:showpageshadow="false"
     inkscape:lockguides="true"
     inkscape:pagecheckerboard="0">
    <inkscape:grid
       type="xygrid"
       id="grid884"
       originx="0"
       originy="32" />
  </sodipodi:namedview>
  <g
     id="mail-unread"
     transform="translate(0,32)">
    <rect
       style="opacity:0.00100002"
       width="32"
       height="32"
       x="0"
       y="0"
       id="rect7-3" />
    <path
       d="m 5.8014146,23.272114 c -0.3658018,-0.360165 -0.3658018,-0.944747 0,-1.304854 l 2.651782,-2.610918 c 0.3659765,-0.361433 0.9594743,-0.361433 1.3254513,0 0.3659771,0.360107 0.3659771,0.944689 0,1.304796 l -2.651782,2.610976 c -0.3660356,0.360453 -0.9594748,0.360453 -1.3254513,0 z m 19.0715384,0 -2.651784,-2.610976 c -0.365685,-0.360107 -0.365685,-0.944689 0,-1.304796 0.366212,-0.361433 0.959415,-0.361433 1.325686,0 l 2.651842,2.610918 c 0.365623,0.360107 0.365623,0.944689 0,1.304854 -0.366271,0.360453 -0.959593,0.360453 -1.325744,0 z M 29.921106,9.380486 18.651633,19.553299 c -1.464439,1.441869 -3.838835,1.441869 -5.303388,0 l -6.612142,-6.51042 -0.4226954,-0.415952 -1.8055699,-1.778034 -0.00689,0.0023 C 4.3299543,10.640687 4.0861456,10.461325 3.812864,10.461325 c -0.5181453,0 -0.9377365,0.413356 -0.9377365,0.923055 v 2.600534 1.092493 9.229566 c 0,1.02038 0.8392987,1.846398 1.8752384,1.846398 H 27.249586 c 1.035938,0 1.874884,-0.826018 1.874884,-1.846398 v -11.07608 c 0,-0.510218 0.419826,-0.923054 0.93803,-0.923054 0.517793,0 0.9375,0.412894 0.9375,0.923054 v 11.07608 C 31,26.346347 29.320468,28 27.249586,28 H 4.7504169 C 2.6793001,27.999942 1,26.34629 1,24.306916 V 11.38438 C 1,9.855571 2.2597679,8.616081 3.812915,8.616081 c 0.7237509,0 1.3769556,0.325896 1.8751794,0.798731 v -0.01581 l 8.9864796,8.848229 c 0.731778,0.721656 1.918947,0.721656 2.650902,0 L 28.59442,8.074421 C 28.961628,7.714315 29.137765,7.24148 29.135537,6.769626 h -0.01104 c 0,-1.0199179 -0.838946,-0.923055 -1.874885,-0.923055 H 7.5623941 C 7.0453618,5.846571 6.6247169,5.433273 6.6247169,4.923055 6.6247169,4.413355 7.0453618,4 7.5623941,4 H 27.249635 c 1.719786,0 3.166703,0.507046 3.608035,1.846513 v 0 c 0.319921,1.224663 0.03701,2.575785 -0.936564,3.533973 z M 3.812915,5.846571 C 3.2947692,5.846571 2.8751785,5.433273 2.8751785,4.923055 2.8751785,4.413355 3.2947692,4 3.812915,4 c 0.5179696,0 0.9375019,0.413298 0.9375019,0.923055 0,0.510218 -0.4195323,0.923516 -0.9375019,0.923516 z"
       id="path2"
       style="fill:#eff0f1;fill-opacity:1;stroke-width:0.0581406" />
  </g>
  <g
     id="mail-unread-new"
     transform="translate(32,10)">
    <rect
       style="opacity:0.00100002"
       width="32"
       height="32"
       x="-32"
       y="-10"
       id="rect7-5" />
    <path
       d="m -26.198585,13.272114 c -0.365802,-0.360165 -0.365802,-0.944747 0,-1.304854 l 2.651782,-2.6109185 c 0.365976,-0.361433 0.959474,-0.361433 1.325451,0 0.365977,0.360107 0.365977,0.9446895 0,1.3047965 l -2.651782,2.610976 c -0.366036,0.360453 -0.959475,0.360453 -1.325451,0 z m 19.071538,0 -2.651784,-2.610976 c -0.365685,-0.360107 -0.365685,-0.9446895 0,-1.3047965 0.366212,-0.361433 0.959415,-0.361433 1.325686,0 l 2.651842,2.6109185 c 0.365623,0.360107 0.365623,0.944689 0,1.304854 -0.366271,0.360453 -0.959593,0.360453 -1.325744,0 z M -2.078894,-0.61951448 -13.348367,9.5532985 c -1.464439,1.4418695 -3.838835,1.4418695 -5.303388,0 l -6.612142,-6.51042 -0.422695,-0.415952 -1.80557,-1.77803398 -0.0069,0.0023 c -0.170994,-0.210506 -0.414802,-0.389868 -0.688084,-0.389868 -0.518145,0 -0.937736,0.413356 -0.937736,0.92305498 v 2.600534 1.092493 9.2295665 c 0,1.02038 0.839298,1.846398 1.875238,1.846398 h 22.49922 c 1.035938,0 1.874884,-0.826018 1.874884,-1.846398 V 3.2308925 c 0,-0.510218 0.419826,-0.923054 0.93803,-0.923054 0.517793,0 0.9375,0.412894 0.9375,0.923054 V 14.306973 C -1,16.346347 -2.679532,18 -4.750414,18 H -27.249583 C -29.3207,17.999942 -31,16.34629 -31,14.306916 V 1.3843795 c 0,-1.52880898 1.259768,-2.768299 2.812915,-2.768299 0.723751,0 1.376956,0.325896 1.875179,0.79873102 v -0.01581 l 8.98648,8.84822898 c 0.731778,0.721656 1.918947,0.721656 2.650902,0 l 11.268944,-10.17281 c 0.367208,-0.360106 0.543345,-0.832941 0.541117,-1.304795 h -0.01104 c 0,-1.019918 -0.838946,-0.923055 -1.874885,-0.923055 h -19.687218 c -0.517032,0 -0.937677,-0.413298 -0.937677,-0.923516 0,-0.5097 0.420645,-0.923055 0.937677,-0.923055 h 19.687241 c 1.719786,0 3.166703,0.507046 3.608035,1.846513 v 0 c 0.319921,1.224663 0.03701,2.575785 -0.936564,3.53397302 z M -28.187085,-4.1534295 c -0.518146,0 -0.937736,-0.413298 -0.937736,-0.923516 0,-0.5097 0.41959,-0.923055 0.937736,-0.923055 0.51797,0 0.937502,0.413298 0.937502,0.923055 0,0.510218 -0.419532,0.923516 -0.937502,0.923516 z"
       id="path2-6"
       style="fill:#23badc;fill-opacity:1;stroke-width:0.0581406" />
  </g>
  <g
     id="22-22-mail-unread-new"
     transform="translate(32,10)">
    <rect
       style="opacity:0.00100002"
       width="22"
       height="22"
       x="0"
       y="4.7683716e-07"
       id="rect2" />
    <path
       d="m 4.2009381,15.848076 c -0.2438675,-0.24011 -0.2438675,-0.629831 0,-0.869903 l 1.7678514,-1.740612 c 0.2439835,-0.240955 0.639648,-0.240955 0.8836324,0 0.2439842,0.240072 0.2439842,0.629793 0,0.869864 l -1.7678514,1.740651 c -0.2440233,0.240302 -0.6396491,0.240302 -0.8836324,0 z m 12.7143349,0 -1.76785,-1.740651 c -0.24379,-0.240071 -0.24379,-0.629792 0,-0.869864 0.24414,-0.240955 0.639609,-0.240955 0.883788,0 l 1.767892,1.740612 c 0.243749,0.240072 0.243749,0.629793 0,0.869903 -0.24418,0.240302 -0.639727,0.240302 -0.88383,0 z m 3.365433,-9.261085 -7.512971,6.781875 c -0.976291,0.961246 -2.559218,0.961246 -3.535587,0 L 4.8240623,9.028586 4.5422652,8.751285 3.3385543,7.565929 l -0.00456,0.0015 C 3.2199994,7.427092 3.05746,7.307517 2.8752728,7.307517 c -0.3454296,0 -0.6251565,0.275571 -0.6251565,0.61537 v 1.733689 0.728329 6.153044 c 0,0.680253 0.5595312,1.230932 1.2501567,1.230932 h 14.999455 c 0.690624,0 1.24992,-0.550679 1.24992,-1.230932 V 9.153896 c 0,-0.340146 0.279884,-0.61537 0.625352,-0.61537 0.345195,0 0.625,0.275263 0.625,0.61537 v 7.384053 C 20.999967,17.897565 19.880278,19 18.499692,19 H 3.500274 C 2.1195312,18.999961 1,17.897527 1,16.537944 V 7.92292 C 1,6.903714 1.8398435,6.077387 2.8752738,6.077387 c 0.4824995,0 0.9179683,0.217264 1.2501173,0.532488 v -0.01054 l 5.9909759,5.898819 c 0.487852,0.481104 1.279297,0.481104 1.767266,0 L 19.396249,5.716281 C 19.641054,5.47621 19.758476,5.160987 19.756993,4.846417 h -0.0072 c 0,-0.679945 -0.559298,-0.61537 -1.249924,-0.61537 H 5.3749221 C 5.0302341,4.231047 4.749805,3.955515 4.749805,3.61537 4.749805,3.27557 5.0302341,3 5.3749221,3 H 18.499728 c 1.146521,0 2.111131,0.338031 2.40535,1.231009 v 0 c 0.213283,0.816442 0.02468,1.71719 -0.624372,2.355982 z M 2.8752738,4.231047 C 2.5298432,4.231047 2.2501173,3.955515 2.2501173,3.61537 2.2501173,3.27557 2.5298432,3 2.8752738,3 3.2205864,3 3.500274,3.275532 3.500274,3.61537 c 0,0.340145 -0.2796876,0.615677 -0.6250002,0.615677 z"
       id="path2-3-7"
       style="fill:#23badc;fill-opacity:1;stroke-width:0.0387604" />
  </g>
</svg>
