<?xml version="1.0" encoding="UTF-8" standalone="no"?>
<svg
   version="1.1"
   viewBox="0 0 32 16"
   id="svg11"
   sodipodi:docname="mobile.svg"
   inkscape:version="1.1.2 (0a00cf5339, 2022-02-04)"
   xmlns:inkscape="http://www.inkscape.org/namespaces/inkscape"
   xmlns:sodipodi="http://sodipodi.sourceforge.net/DTD/sodipodi-0.dtd"
   xmlns="http://www.w3.org/2000/svg"
   xmlns:svg="http://www.w3.org/2000/svg">
  <sodipodi:namedview
     id="namedview13"
     pagecolor="#ffffff"
     bordercolor="#666666"
     borderopacity="1.0"
     inkscape:pageshadow="2"
     inkscape:pageopacity="0.0"
     inkscape:pagecheckerboard="0"
     showgrid="false"
     inkscape:zoom="13.600757"
     inkscape:cx="15.403554"
     inkscape:cy="7.0584306"
     inkscape:window-width="1920"
     inkscape:window-height="1013"
     inkscape:window-x="0"
     inkscape:window-y="0"
     inkscape:window-maximized="1"
     inkscape:current-layer="svg11"
     inkscape:lockguides="true">
    <inkscape:grid
       type="xygrid"
       id="grid827" />
  </sodipodi:namedview>
  <defs
     id="defs3">
    <style
       id="current-color-scheme"
       type="text/css">.ColorScheme-Text { color:#eff0f1; }
</style>
  </defs>
  <g
     id="mobile-close-app">
    <path
       fill-rule="evenodd"
       clip-rule="evenodd"
       d="m 28.249283,7.4587757 c -0.0033,0.0038 -0.004,0.0071 -0.0081,0.01099 -0.292499,0.293038 -0.292499,0.7678801 0,1.0603801 0.0044,0.0044 0.0053,0.008 0.0088,0.01242 l 1.311348,1.3111371 c 0.584834,0.5848331 0.584834,1.5335331 0,2.1183681 l -1.588847,1.589197 c -0.585208,0.585022 -1.533557,0.585022 -2.118743,0 l -1.311722,-1.311511 c -0.004,-0.0037 -0.0075,-0.004 -0.01189,-0.0084 -0.292686,-0.293039 -0.767341,-0.293039 -1.060426,0 -0.146436,0.146249 -0.383648,0.146249 -0.530085,0 -0.146249,-0.14625 -0.146249,-0.383648 0,-0.53046 l -0.0011,-0.0011 0.118805,-0.118968 c 0.0047,-0.0044 0.0095,-0.0071 0.01481,-0.01226 0.512343,-0.512506 1.343387,-0.512506 1.855541,0 0.0055,0.0055 0.01083,0.0088 0.01631,0.01355 l 1.306917,1.307293 c 0.365718,0.365365 0.958637,0.365365 1.324355,0 l 1.32398,-1.32452 c 0.365366,-0.365342 0.365366,-0.95805 0,-1.323956 L 27.59192,8.9442058 c -0.0047,-0.0057 -0.0079,-0.01081 -0.01336,-0.01648 -0.512155,-0.512342 -0.512155,-1.3430111 0,-1.8555171 0.0051,-0.0051 0.0079,-0.0099 0.01226,-0.01465 l 1.308433,-1.308628 c 0.365365,-0.365343 0.365365,-0.958052 0,-1.323957 l -1.32398,-1.3239571 c -0.365718,-0.3657179 -0.958614,-0.3657179 -1.324356,0 l -1.306167,1.306027 c -0.0055,0.0053 -0.01118,0.0084 -0.01706,0.01446 -0.512177,0.51253 -1.343198,0.51253 -1.855541,0 -0.0057,-0.0057 -0.01081,-0.0084 -0.01591,-0.01317 L 21.748923,3.1010408 c -0.365366,-0.365717 -0.958239,-0.365717 -1.323981,0 l -1.323956,1.3239569 c -0.365905,0.365905 -0.365905,0.958615 0,1.323957 l 1.307129,1.307316 c 0.0047,0.0051 0.0077,0.01043 0.01317,0.01591 0.512529,0.5125291 0.512529,1.3431752 0,1.8555171 -0.0061,0.0061 -0.0092,0.01153 -0.01427,0.01721 l -1.306027,1.3060032 c -0.365904,0.365905 -0.365904,0.958615 0,1.323957 l 1.191982,1.192543 -0.04467,0.04446 c 0.06279,0.01594 0.12375,0.04285 0.172991,0.09227 0.146789,0.146248 0.146789,0.383669 0,0.529919 -0.146249,0.146413 -0.383669,0.146413 -0.52992,0 -0.0494,-0.04927 -0.07596,-0.110015 -0.09187,-0.172991 l -0.03589,0.03588 -1.324707,-1.324893 c -0.585185,-0.584835 -0.585185,-1.533534 0,-2.1183679 l 1.311159,-1.3111292 c 0.0037,-0.0044 0.0044,-0.0081 0.0088,-0.01242 0.292687,-0.2924989 0.292687,-0.767341 0,-1.060379 -0.0038,-0.0038 -0.0044,-0.0071 -0.0079,-0.01099 L 18.438889,6.1461277 c -0.585185,-0.5848329 -0.585185,-1.533556 0,-2.118368 l 1.58887,-1.5888459 c 0.584811,-0.5851851 1.53337,-0.5851851 2.118743,0 l 1.310785,1.3109729 c 0.0044,0.0035 0.0081,0.0044 0.01244,0.0088 0.293062,0.293061 0.767716,0.293061 1.060426,0 0.0047,-0.0047 0.0088,-0.0053 0.01298,-0.0092 l 1.31062,-1.3105979 c 0.58521,-0.5851851 1.533558,-0.5851851 2.118743,0 l 1.588847,1.5888459 c 0.584834,0.584812 0.584834,1.533535 0,2.118368 z m -6.123449,5.0397723 c 0.206648,0 0.374507,0.167835 0.374507,0.375069 0,0.206647 -0.167836,0.374858 -0.374507,0.374858 -0.20721,0 -0.374881,-0.168211 -0.374881,-0.374858 0,-0.207234 0.167671,-0.375069 0.374881,-0.375069 z"
       id="path2-3-3"
       style="stroke-width:0.0234374;fill-opacity:1;fill:currentColor;"
       class="ColorScheme-Text" />
  </g>
  <g
     id="mobile-task-switcher">
    <path
       fill-rule="evenodd"
       clip-rule="evenodd"
       d="m 12.286143,14 h -6.429 C 5.620785,14 5.429,13.807679 5.429,13.571428 c 0,-0.236892 0.191785,-0.428785 0.428143,-0.428785 h 6.429 c 0.473357,0 0.857143,-0.383786 0.857143,-0.857143 V 3.714071 c 0,-0.473356 -0.383786,-0.856928 -0.857143,-0.856928 H 3.7145 c -0.47325,0 -0.85725,0.383572 -0.85725,0.856928 v 8.142857 c 0,0.236893 -0.191678,0.428572 -0.428571,0.428572 C 2.192215,12.2855 2,12.093822 2,11.856928 V 3.714071 C 2,2.767357 2.767893,2 3.7145,2 h 8.571643 C 13.232643,2 14,2.767357 14,3.714071 V 12.2855 C 14,13.232214 13.232643,14 12.286143,14 Z M 4.143178,13.142643 c 0.236358,0 0.428572,0.191893 0.428572,0.428785 C 4.57175,13.807678 4.379536,14 4.143178,14 3.906286,14 3.7145,13.807679 3.7145,13.571428 c 0,-0.236892 0.191786,-0.428785 0.428678,-0.428785 z"
       id="path2"
       style="stroke-width:0.0267857;fill-opacity:1;fill:currentColor;"
       class="ColorScheme-Text" />
  </g>
</svg>
