<?xml version="1.0" encoding="UTF-8" standalone="no"?>
<svg
   width="22"
   height="22"
   version="1.1"
   id="svg9"
   sodipodi:docname="notifications.svg"
   inkscape:version="1.1.2 (0a00cf5339, 2022-02-04)"
   xmlns:inkscape="http://www.inkscape.org/namespaces/inkscape"
   xmlns:sodipodi="http://sodipodi.sourceforge.net/DTD/sodipodi-0.dtd"
   xmlns="http://www.w3.org/2000/svg"
   xmlns:svg="http://www.w3.org/2000/svg"
   xmlns:rdf="http://www.w3.org/1999/02/22-rdf-syntax-ns#"
   xmlns:cc="http://creativecommons.org/ns#"
   xmlns:dc="http://purl.org/dc/elements/1.1/">
  <metadata
     id="metadata15">
    <rdf:RDF>
      <cc:Work
         rdf:about="">
        <dc:format>image/svg+xml</dc:format>
        <dc:type
           rdf:resource="http://purl.org/dc/dcmitype/StillImage" />
      </cc:Work>
    </rdf:RDF>
  </metadata>
  <defs
     id="defs13" />
  <sodipodi:namedview
     pagecolor="#ffffff"
     bordercolor="#000000"
     borderopacity="1"
     objecttolerance="10"
     gridtolerance="10"
     guidetolerance="10"
     inkscape:pageopacity="0"
     inkscape:pageshadow="2"
     inkscape:window-width="1920"
     inkscape:window-height="1013"
     id="namedview11"
     showgrid="false"
     inkscape:zoom="7.1363635"
     inkscape:cx="10.579618"
     inkscape:cy="13.101911"
     inkscape:window-x="0"
     inkscape:window-y="0"
     inkscape:window-maximized="1"
     inkscape:current-layer="svg9"
     inkscape:document-rotation="0"
     inkscape:showpageshadow="true"
     inkscape:lockguides="false"
     inkscape:pagecheckerboard="0">
    <inkscape:grid
       type="xygrid"
       id="grid855" />
  </sodipodi:namedview>
  <g
     id="notifications-disabled">
    <path
       style="opacity:0.00100002"
       d="M 0,0 H 22 V 22 H 0 Z"
       id="path2" />
    <path
       d="M 17.34322,16.31296 H 16.81223 12.82759 10.96875 9.10911 5.125 4.59348 C 3.7136,16.31296 3,15.59909 3,14.71918 c 0,-0.88042 0.7136,-1.59375 1.59348,-1.59375 0.29339,0 0.53152,-0.2376 0.53152,-0.53125 V 9.40654 c 0,-1.6132 0.6542,-3.07391 1.71202,-4.13173 l 5.3e-4,7.7e-4 c 0.0965,-0.0994 0.22983,-0.16084 0.37898,-0.16084 0.29365,0 0.53099,0.23813 0.53099,0.53152 0,0.14915 -0.0615,0.28275 -0.16004,0.37898 L 7.58824,6.026 C 6.72263,6.89088 6.1875,8.08619 6.1875,9.40654 v 3.45326 c 0,0.73359 -0.59507,1.32813 -1.32866,1.32813 H 4.59348 c -0.29364,0 -0.53098,0.23813 -0.53098,0.53125 0,0.29311 0.23734,0.53125 0.53098,0.53125 h 1.59402 4.78125 4.78098 1.59349 c 0.29365,0 0.53178,-0.23814 0.53178,-0.53125 0,-0.29312 -0.23813,-0.53125 -0.53178,-0.53125 h -0.26536 c -0.73359,0 -1.32813,-0.59454 -1.32813,-1.32813 V 9.40654 c 0,-2.42618 -1.80827,-4.42511 -4.14962,-4.73456 0.003,-0.004 0.003,-0.007 -0.001,-0.008 -0.65474,-0.082 -1.16185,-0.64049 -1.16185,-1.31777 V 3.03079 C 10.43726,2.7374 10.67539,2.5 10.96904,2.5 c 0.29338,0 0.53098,0.2374 0.53098,0.53079 V 3.23 c 0,0.19766 0.14371,0.36135 0.33177,0.39326 -0.0296,-0.005 -0.0568,-0.005 -0.0815,0 2.8565,0.38313 5.06218,2.82177 5.06218,5.78282 v 3.18764 c 0,0.29365 0.23814,0.53125 0.53099,0.53125 0.88064,0 1.59428,0.71333 1.59428,1.59375 0,0.87991 -0.7136,1.59378 -1.59428,1.59378 z M 8.84348,5.15654 c -0.29338,0 -0.53151,-0.2376 -0.53151,-0.53101 0,-0.29365 0.23813,-0.53152 0.53151,-0.53152 0.29365,0 0.53099,0.23787 0.53099,0.53152 0,0.29338 -0.23734,0.53101 -0.53099,0.53101 z m 1.06277,12.21892 c 0.29338,0 0.53072,0.23813 0.53072,0.53072 0,0.29365 0.23813,0.53178 0.53178,0.53178 0.29338,0 0.53098,-0.23813 0.53098,-0.53178 0,-0.29259 0.23814,-0.53072 0.53152,-0.53072 0.29365,0 0.53098,0.23813 0.53098,0.53072 0,0.88094 -0.7136,1.59428 -1.59348,1.59428 -0.88065,0 -1.59428,-0.71334 -1.59428,-1.59428 0,-0.29259 0.23813,-0.53072 0.53178,-0.53072 z"
       id="path2-7"
       style="fill:#d35f5f;stroke-width:0.0332031;fill-opacity:1" />
  </g>
</svg>
