<?xml version="1.0" encoding="UTF-8" standalone="no"?>
<svg
   inkscape:version="1.1.2 (0a00cf5339, 2022-02-04)"
   sodipodi:docname="view.svg"
   id="svg873"
   version="1.1"
   height="32"
   width="32"
   xmlns:inkscape="http://www.inkscape.org/namespaces/inkscape"
   xmlns:sodipodi="http://sodipodi.sourceforge.net/DTD/sodipodi-0.dtd"
   xmlns:xlink="http://www.w3.org/1999/xlink"
   xmlns="http://www.w3.org/2000/svg"
   xmlns:svg="http://www.w3.org/2000/svg"
   xmlns:rdf="http://www.w3.org/1999/02/22-rdf-syntax-ns#"
   xmlns:cc="http://creativecommons.org/ns#"
   xmlns:dc="http://purl.org/dc/elements/1.1/">
  <g
     id="view-history">
    <rect
       ry="0.91472864"
       y="0"
       x="0"
       height="32"
       width="32"
       id="rect817-5"
       style="clip-rule:evenodd;fill:#ffff96;fill-opacity:0;fill-rule:evenodd;stroke-width:1.04154;stroke-linejoin:round;stroke-miterlimit:1.41421;stroke-dasharray:none" />
    <path
       d="M 29.128354,24.254571 18.695572,28.492707 C 17.863962,28.818434 16.962325,29 16.016906,29 15.063577,29 14.153846,28.816533 13.317943,28.485042 L 2.910609,24.257944 C 1.95679,23.770702 1.3,22.784812 1.3,21.640842 V 10.359219 8.396516 c 0,-0.542307 0.440272,-0.981107 0.981107,-0.981107 0.542306,0 0.981536,0.4388 0.981536,0.981107 v 0.797639 1.165064 11.144145 c 0,0.353996 0.193523,0.65679 0.475223,0.829219 l 10.017467,4.238688 c 0.02201,0.0086 0.04072,0.01294 0.06273,0.02201 0.675431,0.285993 1.418925,0.444012 2.198844,0.444012 0.77489,0 1.513602,-0.156118 2.186151,-0.438738 0.02201,-0.0096 0.04121,-0.01435 0.06322,-0.023 l 10.028442,-4.24298 c 0.281701,-0.172429 0.476205,-0.475223 0.476205,-0.829219 v -7.22027 -1.165064 -0.79764 c 0,-0.541325 0.439781,-0.980125 0.981107,-0.980125 0.542306,0 0.981106,0.4388 0.981106,0.980125 v 1.962643 7.357748 c 6.2e-5,1.14213 -0.654336,2.124218 -1.604783,2.61379 z M 29.752092,9.378113 c -0.541326,0 -0.981107,-0.440272 -0.981107,-0.981597 0,-0.542307 0.439781,-0.981107 0.981107,-0.981107 0.542307,0 0.981107,0.4388 0.981107,0.981107 0,0.541325 -0.4388,0.981597 -0.981107,0.981597 z m -4.74641,12.034192 -4.627696,1.928181 v -0.0014 c -0.12552,0.05654 -0.264408,0.08818 -0.410102,0.08818 -0.555675,0 -1.007903,-0.450818 -1.007903,-1.007474 0,-0.431135 0.271153,-0.795248 0.651516,-0.94039 l 4.713849,-2.062777 c 0.305615,-0.164826 0.521213,-0.482889 0.521213,-0.857058 V 5.713802 c 0,-0.270663 -0.2194,-0.490553 -0.490553,-0.490553 -0.07089,0 -0.13895,0.01533 -0.201189,0.04262 V 5.264888 L 17.519961,8.168902 C 17.211465,8.333728 16.998748,8.65179 16.998748,9.024488 v 11.635189 1.962213 c 0,1.083632 -0.879316,1.962704 -1.962949,1.962704 -0.271644,0 -0.528877,-0.05506 -0.764588,-0.155199 L 7.022243,21.408994 C 5.964978,20.961058 5.224856,19.91624 5.224856,18.698564 V 4.962642 C 5.224856,3.87901 6.103927,3 7.187069,3 7.454359,3 7.707301,3.05414 7.94062,3.151826 l 4.502605,1.875508 c 0.369816,0.155199 0.630422,0.521213 0.630422,0.947075 0,0.567693 -0.459893,1.027525 -1.026605,1.027525 -0.17151,0 -0.331001,-0.04648 -0.472832,-0.120247 L 7.879301,5.264885 c -0.0014,0 0,9.81e-4 -0.0014,9.81e-4 -0.06132,-0.02729 -0.128402,-0.04262 -0.199778,-0.04262 -0.272134,0 -0.491044,0.21989 -0.491044,0.490553 v 12.845813 c 0,0.37417 0.214617,0.692232 0.521704,0.857058 l 6.635346,2.903033 c 9.81e-4,0 0,-9.81e-4 9.81e-4,-9.81e-4 0.06034,0.02729 0.128893,0.04262 0.200269,0.04262 0.270662,0 0.490553,-0.218909 0.490553,-0.490553 V 9.378113 8.887069 c 0,-1.2197 0.741594,-2.266847 1.800024,-2.712392 L 24.09265,3.151826 C 24.326398,3.054146 24.579401,3 24.846692,3 c 1.083632,0 1.963194,0.87901 1.963194,1.962642 v 13.735861 c -6.1e-5,1.219638 -0.745518,2.266847 -1.804194,2.713802 z"
       id="path2"
       style="fill:url(#linearGradient891);fill-opacity:1;stroke-width:0.0613192" />
  </g>
  <metadata
     id="metadata879">
    <rdf:RDF>
      <cc:Work
         rdf:about="">
        <dc:format>image/svg+xml</dc:format>
        <dc:type
           rdf:resource="http://purl.org/dc/dcmitype/StillImage" />
      </cc:Work>
    </rdf:RDF>
  </metadata>
  <defs
     id="defs877">
    <linearGradient
       inkscape:collect="always"
       id="linearGradient889">
      <stop
         style="stop-color:#00b9b9;stop-opacity:1"
         offset="0"
         id="stop885" />
      <stop
         style="stop-color:#5fffdf;stop-opacity:0.7215687"
         offset="1"
         id="stop887" />
    </linearGradient>
    <linearGradient
       id="_lgradient_0"
       x1="0"
       y1="0.5"
       x2="1"
       y2="0.5"
       gradientTransform="matrix(27.999994,0,0,27.999998,1.9766191,1.9139856)"
       gradientUnits="userSpaceOnUse">
      <stop
         offset="0%"
         stop-opacity="1"
         style="stop-color:rgb(105,227,255)"
         id="stop33" />
      <stop
         offset="100%"
         stop-opacity="1"
         style="stop-color:rgb(0,255,194)"
         id="stop35" />
    </linearGradient>
    <linearGradient
       inkscape:collect="always"
       xlink:href="#linearGradient889"
       id="linearGradient891"
       x1="1.8315344"
       y1="28.852245"
       x2="19.61972"
       y2="12.146039"
       gradientUnits="userSpaceOnUse" />
  </defs>
  <sodipodi:namedview
     inkscape:current-layer="svg873"
     inkscape:window-maximized="1"
     inkscape:window-y="0"
     inkscape:window-x="0"
     inkscape:cy="15.444977"
     inkscape:cx="18.841591"
     inkscape:zoom="7.801889"
     showgrid="false"
     id="namedview875"
     inkscape:window-height="1015"
     inkscape:window-width="1920"
     inkscape:pageshadow="2"
     inkscape:pageopacity="0"
     guidetolerance="10"
     gridtolerance="10"
     objecttolerance="10"
     borderopacity="1"
     inkscape:document-rotation="0"
     bordercolor="#666666"
     pagecolor="#ffffff"
     inkscape:pagecheckerboard="0"
     inkscape:lockguides="false">
    <inkscape:grid
       type="xygrid"
       id="grid1359"
       originx="32"
       originy="16" />
  </sodipodi:namedview>
  <g
     id="view-refresh"
     transform="translate(32,16)">
    <path
       id="path836"
       style="opacity:0.00100002"
       d="M 0,0 H 16 V 16 H 0 Z" />
    <path
       fill-rule="evenodd"
       clip-rule="evenodd"
       d="m 14.160047,12.818702 c -0.0058,0.0096 -0.01229,0.01847 -0.01804,0.02794 -0.0086,0.01216 -0.01751,0.0248 -0.02641,0.03697 -0.02834,0.04192 -0.05572,0.08476 -0.08943,0.123051 -0.396324,0.450708 -1.032498,0.458818 -1.420317,0.01803 l -0.357451,-0.405621 c 4.07e-4,0 4.07e-4,4.63e-4 5.84e-4,8.56e-4 -0.110884,-0.13205 -0.267392,-0.213626 -0.440177,-0.213626 -0.151152,0 -0.288821,0.06355 -0.394951,0.166756 C 10.49285,13.460939 9.3024494,14 7.9999755,14 5.6365433,14 3.6374197,12.235013 2.9634703,9.8025409 2.9408503,9.7452959 2.9281571,9.682198 2.9281571,9.6150482 c 0,-0.2546468 0.1817985,-0.4610647 0.4062531,-0.4610647 0.1796161,0 0.3303857,0.1334102 0.3840376,0.3164044 l 0.0045,-0.00178 c 0.5545356,2.0876831 2.258593,3.6083771 4.2770635,3.6083771 1.0983584,0 2.1024907,-0.452525 2.8804667,-1.198436 1.99e-4,0 7.52e-4,0.0013 0.0013,8.56e-4 0.100163,-0.09869 0.211452,-0.173071 0.326498,-0.23483 l 0.0024,-8.57e-4 c 0.527268,-0.282136 1.173745,-0.182996 1.609934,0.312801 l 0.340592,0.386698 c 0.07913,0.09014 0.2079,0.09014 0.287043,0 l 0.0017,0.0017 c 0.147145,-0.167215 0.238197,-0.397977 0.238197,-0.652624 V 9.8457232 c 0,-0.5092942 -0.364205,-0.9225905 -0.812711,-0.9225905 H 11.25058 c -0.224556,0 -0.427684,0.1032124 -0.574673,0.2699623 l 0.0017,0.00176 h -2.03e-4 c -0.07913,0.090141 -0.07913,0.236617 0,0.3262972 l 0.328099,0.3727372 -0.0011,8.585e-4 c 0.07342,0.083837 0.118829,0.1987751 0.118829,0.3262971 0,0.254649 -0.181696,0.461067 -0.406252,0.461067 -0.111873,0 -0.213639,-0.05139 -0.287044,-0.134767 l -0.0024,0.0021 -0.349824,-0.397085 C 9.6896213,9.711609 9.6967564,8.9891193 10.093489,8.538411 c 0.02898,-0.032911 0.0613,-0.057694 0.09245,-0.08565 0.285648,-0.2817035 0.65658,-0.4529582 1.064234,-0.4529582 h 1.218554 0.406254 C 13.7724,7.9998028 14.5,8.8259622 14.5,9.8454442 v 1.8465608 c 5.4e-5,0.424636 -0.127892,0.814476 -0.339959,1.126382 z M 12.462443,6.3847201 c -0.22456,0 -0.406461,-0.2068791 -0.406461,-0.461525 0,-0.2548774 0.181901,-0.4615255 0.406461,-0.4615255 0.224353,0 0.40625,0.2066481 0.40625,0.4615255 0,0.2546459 -0.181897,0.461525 -0.40625,0.461525 z M 11.447012,4.545831 c -0.113679,0 -0.215624,-0.053187 -0.289407,-0.1380257 C 10.348854,3.4903785 9.2328492,2.9232794 7.9999965,2.9232794 c -1.0981547,0 -2.1027689,0.4518339 -2.8803636,1.1984386 -3.058e-4,0 -0.001,-0.00146 -0.0013,-0.00116 C 5.0181657,4.219615 4.9068778,4.2936316 4.7918315,4.3553887 l -0.0022,0.00116 C 4.2624381,4.6386835 3.6157829,4.5393122 3.1795689,4.0437494 L 2.839077,3.6569341 c -0.07914,-0.090373 -0.2079003,-0.090373 -0.2870435,0 l -0.0016,-0.00176 C 2.403267,3.8223688 2.312316,4.0531307 2.312316,4.3077783 v 1.8461884 c 0,0.5097543 0.3640036,0.9231653 0.8126094,0.9231653 h 1.624913 c 0.2244552,0 0.4275821,-0.1035493 0.5744685,-0.2705405 l -0.0016,-0.00176 h 3.046e-4 c 0.07914,-0.089676 0.07914,-0.2361864 0,-0.3258662 L 4.995218,6.1064562 l 10e-4,-0.00116 C 4.9224648,6.0218908 4.8770485,5.9063051 4.8770485,5.778982 c 0,-0.2546472 0.1818993,-0.4615263 0.4063549,-0.4615263 0.1121763,0 0.2136386,0.051373 0.2870435,0.1352276 l 0.0022,-0.00252 0.349632,0.3972865 c 0.3878984,0.4405548 0.3809667,1.1633904 -0.015867,1.6136375 -0.02956,0.033812 -0.062589,0.059939 -0.094432,0.088782 -0.01962,0.019379 -0.04007,0.037838 -0.06071,0.056343 -0.0016,0.00136 -0.0032,0.00272 -0.005,0.00399 C 5.4709456,7.8535837 5.1257059,8.0000605 4.7498961,8.0000605 H 3.5311667 3.1249134 C 2.2273968,8.0001048 1.5,7.1735127 1.5,6.1538873 V 4.3076707 c 0,-0.4251225 0.1278433,-0.8158911 0.3404909,-1.1279972 0.0045,-0.00747 0.010205,-0.014769 0.01499,-0.022292 0.0101,-0.014536 0.020344,-0.028955 0.03115,-0.043391 0.02767,-0.041132 0.05406,-0.083052 0.08709,-0.1206891 C 2.3701488,2.5425949 3.0063162,2.5346042 3.394213,2.9752744 l 0.3573506,0.4059697 c -3.049e-4,-3.461e-4 -3.049e-4,-6.635e-4 -6.856e-4,-0.00116 0.110984,0.1318223 0.2673913,0.2138585 0.4403787,0.2138585 0.1510503,0 0.2886184,-0.063883 0.3948537,-0.1668695 C 5.506835,2.5389458 6.6974126,2 7.9999895,2 9.4583888,2 10.778305,2.6717792 11.734221,3.7575456 l -2e-4,3.462e-4 c 0.07339,0.083507 0.11883,0.1989755 0.11883,0.3262121 -2.8e-5,0.2549355 -0.181722,0.4615836 -0.405875,0.4615836 z"
       id="path2-0"
       style="fill:#eff0f1;fill-opacity:1;stroke-width:0.0270631" />
  </g>
</svg>
