<?xml version="1.0" encoding="UTF-8" standalone="no"?>
<svg
   id="SVGRoot"
   version="1.1"
   viewBox="0 0 32.000001 32"
   height="32"
   width="32"
   inkscape:version="1.1 (c68e22c387, 2021-05-23)"
   sodipodi:docname="window.svg"
   xmlns:inkscape="http://www.inkscape.org/namespaces/inkscape"
   xmlns:sodipodi="http://sodipodi.sourceforge.net/DTD/sodipodi-0.dtd"
   xmlns="http://www.w3.org/2000/svg"
   xmlns:svg="http://www.w3.org/2000/svg"
   xmlns:rdf="http://www.w3.org/1999/02/22-rdf-syntax-ns#"
   xmlns:cc="http://creativecommons.org/ns#"
   xmlns:dc="http://purl.org/dc/elements/1.1/">
  <defs
     id="defs858" />
  <sodipodi:namedview
     inkscape:lockguides="true"
     showguides="false"
     id="base"
     pagecolor="#ffffff"
     bordercolor="#666666"
     borderopacity="1.0"
     inkscape:pageopacity="0.0"
     inkscape:pageshadow="2"
     inkscape:zoom="7.0055876"
     inkscape:cx="54.028302"
     inkscape:cy="15.701752"
     inkscape:document-units="px"
     inkscape:current-layer="layer1"
     inkscape:document-rotation="0"
     showgrid="false"
     inkscape:window-width="1920"
     inkscape:window-height="1007"
     inkscape:window-x="0"
     inkscape:window-y="0"
     inkscape:window-maximized="1"
     inkscape:pagecheckerboard="0">
    <inkscape:grid
       id="grid1428"
       type="xygrid"
       originx="4.4953633"
       originy="30.361" />
  </sodipodi:namedview>
  <metadata
     id="metadata861">
    <rdf:RDF>
      <cc:Work
         rdf:about="">
        <dc:format>image/svg+xml</dc:format>
        <dc:type
           rdf:resource="http://purl.org/dc/dcmitype/StillImage" />
      </cc:Work>
    </rdf:RDF>
  </metadata>
  <g
     inkscape:label="Layer 1"
     inkscape:groupmode="layer"
     id="layer1"
     transform="translate(4.4953642,4.787)">
    <g
       id="22-22-window-close"
       transform="translate(27.504636,5.213)">
      <rect
         style="opacity:0.00100002"
         width="22"
         height="22"
         x="0"
         y="0"
         id="rect18" />
      <g
         style="fill:#ffffff"
         transform="matrix(1.7493122,0,0,1.7499488,-107.95048,-909.47286)"
         id="g24">
        <g
           style="fill:#ffffff"
           transform="translate(19,-242)"
           id="g22">
          <path
             style="fill:#eff0f1;fill-opacity:1;stroke-width:0.875003"
             d="m 46.142495,765.0285 h 0.75 c 0.0073,-9e-5 0.01557,-2.6e-4 0.0235,0 0.191219,0.011 0.382408,0.0965 0.515634,0.2344 l 1.710939,1.71101 1.734381,-1.71101 c 0.199225,-0.17282 0.335012,-0.22915 0.515632,-0.2344 h 0.750009 v 0.75004 c 0,0.21481 -0.02571,0.41305 -0.187508,0.56246 l -1.71094,1.71102 1.687507,1.68754 c 0.141135,0.141 0.210931,0.34012 0.210941,0.53894 v 0.75004 h -0.75001 c -0.198976,-10e-6 -0.397946,-0.0692 -0.539069,-0.21087 l -1.710947,-1.71104 -1.710938,1.71104 c -0.141126,0.14107 -0.340101,0.21087 -0.539069,0.21087 h -0.750011 v -0.75004 c -3e-6,-0.19882 0.06977,-0.39794 0.210933,-0.53894 l 1.71094,-1.68754 -1.71094,-1.71102 c -0.158059,-0.14598 -0.227374,-0.35193 -0.210933,-0.56246 z"
             id="path20"
             inkscape:connector-curvature="0" />
        </g>
      </g>
    </g>
    <g
       id="16-16-window-close"
       transform="translate(49.504636,27.213)">
      <rect
         style="opacity:0.00100002"
         width="16"
         height="16"
         x="0"
         y="-16"
         id="rect27" />
      <g
         style="fill:#ffffff"
         transform="matrix(1.2495087,0,0,1.2499635,-76.964626,-665.48065)"
         id="g33">
        <g
           style="fill:#ffffff"
           transform="translate(19,-242)"
           id="g31">
          <path
             style="fill:#eff0f1;fill-opacity:1;stroke-width:0.937498"
             d="m 45.799511,764.95996 h 0.749996 c 0.0078,-10e-5 0.01558,-3.3e-4 0.02345,0 0.191218,0.009 0.382401,0.0964 0.515626,0.23442 l 1.710934,1.71089 1.73437,-1.71089 c 0.199211,-0.17292 0.334999,-0.22917 0.515618,-0.23442 h 0.749996 v 0.75 c 0,0.21492 -0.02577,0.41299 -0.187499,0.5625 l -1.710934,1.71107 1.687493,1.6875 c 0.141138,0.14112 0.210933,0.33994 0.21094,0.53894 v 0.75 h -0.749999 c -0.198974,-10e-6 -0.397938,-0.07 -0.539063,-0.21096 l -1.710929,-1.71086 -1.710933,1.71086 c -0.141118,0.14116 -0.340088,0.21096 -0.539054,0.21096 h -0.750001 v -0.75 c -3e-6,-0.19899 0.0698,-0.39782 0.210936,-0.53894 l 1.710935,-1.6875 -1.710935,-1.71107 c -0.158053,-0.14583 -0.227363,-0.35195 -0.21093,-0.5625 z"
             id="path29"
             inkscape:connector-curvature="0" />
        </g>
      </g>
    </g>
    <g
       id="window-close"
       transform="translate(-4.4953642,-4.787)">
      <rect
         width="32"
         height="32"
         x="0"
         y="0"
         style="opacity:0.00100002"
         id="rect36" />
      <g
         style="opacity:0.2"
         transform="matrix(1.7493122,0,0,1.7499488,-102.95048,-903.47286)"
         id="g46">
        <g
           transform="translate(19,-242)"
           id="g44" />
      </g>
      <g
         transform="matrix(1.7493122,0,0,1.7499488,-102.95048,-904.47286)"
         style="fill:#ffffff"
         id="g52">
        <g
           transform="translate(19,-242)"
           style="fill:#ffffff"
           id="g50">
          <path
             d="m 45.402578,764.64907 h 0.857152 c 0.0093,-1.2e-4 0.01782,-2.6e-4 0.02675,0 0.218531,0.0138 0.437035,0.11014 0.589294,0.26779 l 1.955356,1.95556 1.982142,-1.95556 c 0.227684,-0.19738 0.382862,-0.26179 0.589288,-0.26779 h 0.857145 v 0.85708 c 0,0.24559 -0.02946,0.47218 -0.21429,0.64292 l -1.955352,1.95552 1.928573,1.92854 c 0.161295,0.16115 0.241061,0.38868 0.241069,0.61594 v 0.8572 h -0.85713 c -0.227402,-10e-6 -0.4548,-0.0779 -0.616082,-0.24103 l -1.955353,-1.95546 -1.955357,1.95546 c -0.161281,0.16115 -0.388679,0.24103 -0.616078,0.24103 h -0.85714 v -0.8572 c 0,-0.22725 0.07983,-0.45479 0.241085,-0.61594 l 1.955357,-1.92854 -1.955357,-1.95552 c -0.180641,-0.16683 -0.259856,-0.40225 -0.241085,-0.64292 z"
             style="fill:#eff0f1;fill-opacity:1;stroke-width:1"
             id="path48"
             inkscape:connector-curvature="0" />
        </g>
      </g>
    </g>
    <g
       id="path39-3"
       transform="translate(92.8,13)">
      <rect
         y="0"
         x="0"
         height="22"
         width="22"
         id="rect930-7"
         style="fill:#00ffff;fill-opacity:0" />
    </g>
    <g
       id="path39-3-7"
       transform="translate(70.8,13)">
      <rect
         y="0"
         x="0"
         height="22"
         width="22"
         id="rect930-7-5"
         style="fill:#00ffff;fill-opacity:0" />
    </g>
    <g
       id="window-unpin">
      <path
         d="m 84.263931,23.444006 c -0.06104,0.06093 -0.159912,0.06093 -0.220948,0 -0.06103,-0.06101 -0.06103,-0.159912 0,-0.220928 0.06104,-0.06102 0.159913,-0.06101 0.220948,0 0.06103,0.06101 0.06103,0.159922 0,0.220928 z m -1.546328,1.365449 -0.01791,0.03446 c -0.02707,0.05625 -0.0477,0.110117 -0.0477,0.174941 0,0.0098 -0.0011,0.01952 4e-4,0.0289 -0.0027,0.0698 0.0011,0.107753 -0.0031,0.140997 -0.0079,0.268662 -0.113682,0.534873 -0.31877,0.739941 -0.183105,0.182939 -0.479892,0.182939 -0.662959,0 l -0.88376,-0.883301 -0.739522,0.739101 c -0.06111,0.06108 -0.160136,0.06108 -0.22125,0 -0.06111,-0.06108 -0.06111,-0.160068 0,-0.221152 l 0.739444,-0.73917 -0.883721,-0.883301 c -0.183037,-0.1829 -0.183037,-0.479551 0,-0.662568 0.219648,-0.219551 0.509336,-0.323799 0.797197,-0.317383 0.01663,-0.0013 0.03602,-6.06e-4 0.05737,0.0012 0.0064,4.59e-4 0.01274,0.0011 0.01907,0.0017 0.0063,7.62e-4 0.01083,4.59e-4 0.01739,0.0015 0.0095,0.0015 0.01923,0.0013 0.02899,0.0013 0.0647,0 0.124736,-0.01968 0.174561,-0.0533 l 1.255615,-0.858672 0.0017,0.0024 c 0.06378,-0.04697 0.152744,-0.04446 0.21042,0.01327 0.06378,0.06368 0.06378,0.166855 0,0.230449 -0.0059,0.006 -0.01373,0.0087 -0.02029,0.01357 l 0.0015,0.0021 -1.258203,0.856611 c -0.09949,0.06688 -0.219278,0.105928 -0.348213,0.105928 -0.02228,0 -0.0444,-9.18e-4 -0.06607,-0.0034 -0.02548,-0.003 -0.04654,-0.0033 -0.06569,-0.0024 -0.21042,-0.0087 -0.423662,0.06543 -0.584414,0.226103 -0.06096,0.06093 -0.06096,0.159844 0,0.22085 l 1.98873,1.987793 c 0.06104,0.06093 0.160069,0.06093 0.220948,0 0.145107,-0.144971 0.218383,-0.332637 0.225405,-0.522451 0.0021,-0.02722 0.0024,-0.06528 0.0043,-0.117588 -0.0026,-0.02166 3.9e-4,-0.04377 3.9e-4,-0.06604 0,-0.12918 0.03887,-0.261222 0.09771,-0.348809 0.01207,-0.02577 0.03347,-0.05257 0.04832,-0.08205 l 1.01549,-1.490025 c 0.04059,-0.05971 0.03525,-0.14085 -0.01602,-0.194766 l -0.712588,-0.712177 v 0 l -0.276181,-0.276133 -0.09675,-0.09662 -0.234825,-0.234658 c -0.06088,-0.06101 -0.06088,-0.159913 0,-0.22084 0.06103,-0.06102 0.160069,-0.06102 0.221104,0 l 0.276191,0.276054 1.051338,1.05084 c 0.159756,0.159688 0.179287,0.405694 0.06012,0.587422 z m -3.095391,1.334375 c 0,0.08624 -0.06996,0.156172 -0.15625,0.156172 -0.08629,0 -0.15625,-0.06993 -0.15625,-0.156172 0,-0.08625 0.06996,-0.156182 0.15625,-0.156182 0.08629,0 0.15625,0.06993 0.15625,0.156182 z"
         id="path2"
         sodipodi:nodetypes="ccsscccsccccccsccccccccsccccccccsccscccccscccccccccccccccsssss"
         style="fill:#eff0f1;fill-opacity:1;stroke-width:0.00976562" />
    </g>
    <g
       id="window-pin">
      <path
         d="m 106.21996,23.444006 c -0.061,0.06093 -0.15991,0.06093 -0.22095,0 -0.061,-0.06101 -0.061,-0.159912 0,-0.220928 0.061,-0.06102 0.15992,-0.06101 0.22095,0 0.061,0.06101 0.061,0.159922 0,0.220928 z m -1.54633,1.365449 -0.0179,0.03446 c -0.0271,0.05625 -0.0477,0.110117 -0.0477,0.174941 0,0.0098 -0.001,0.01952 4e-4,0.0289 -0.003,0.0698 0.001,0.107753 -0.003,0.140997 -0.008,0.268662 -0.11368,0.534873 -0.31877,0.739941 -0.1831,0.182939 -0.47989,0.182939 -0.66296,0 l -0.88376,-0.883301 -0.73952,0.739101 c -0.0611,0.06108 -0.16013,0.06108 -0.22125,0 -0.0611,-0.06108 -0.0611,-0.160068 0,-0.221152 l 0.73945,-0.73917 -0.88372,-0.883301 c -0.18304,-0.1829 -0.18304,-0.479551 0,-0.662568 0.21964,-0.219551 0.50933,-0.323799 0.79719,-0.317383 0.0166,-0.0013 0.036,-6.06e-4 0.0574,0.0012 0.006,4.59e-4 0.0127,0.0011 0.0191,0.0017 0.006,7.62e-4 0.0108,4.59e-4 0.0174,0.0015 0.01,0.0015 0.0192,0.0013 0.029,0.0013 0.0647,0 0.12474,-0.01968 0.17456,-0.0533 l 1.25562,-0.858672 0.002,0.0024 c 0.0638,-0.04697 0.15274,-0.04446 0.21042,0.01327 0.0638,0.06368 0.0638,0.166855 0,0.230449 -0.006,0.006 -0.0137,0.0087 -0.0203,0.01357 l 0.001,0.0021 -1.2582,0.856611 c -0.0995,0.06688 -0.21928,0.105928 -0.34822,0.105928 -0.0223,0 -0.0444,-9.18e-4 -0.0661,-0.0034 -0.0255,-0.003 -0.0465,-0.0033 -0.0657,-0.0024 -0.21042,-0.0087 -0.42366,0.06543 -0.58441,0.226103 -0.061,0.06093 -0.061,0.159844 0,0.22085 l 1.98873,1.987793 c 0.061,0.06093 0.16007,0.06093 0.22095,0 0.1451,-0.144971 0.21838,-0.332637 0.2254,-0.522451 0.002,-0.02722 0.002,-0.06528 0.004,-0.117588 -0.003,-0.02166 3.9e-4,-0.04377 3.9e-4,-0.06604 0,-0.12918 0.0389,-0.261222 0.0977,-0.348809 0.0121,-0.02577 0.0335,-0.05257 0.0483,-0.08205 l 1.01549,-1.490025 c 0.0406,-0.05971 0.0353,-0.14085 -0.016,-0.194766 l -0.71259,-0.712177 v 0 l -0.27618,-0.276133 -0.0968,-0.09662 -0.23482,-0.234658 c -0.0609,-0.06101 -0.0609,-0.159913 0,-0.22084 0.061,-0.06102 0.16007,-0.06102 0.2211,0 l 0.27619,0.276054 1.05134,1.05084 c 0.15976,0.159688 0.17929,0.405694 0.0601,0.587422 z m -3.09539,1.334375 c 0,0.08624 -0.07,0.156172 -0.15625,0.156172 -0.0863,0 -0.15625,-0.06993 -0.15625,-0.156172 0,-0.08625 0.07,-0.156182 0.15625,-0.156182 0.0863,0 0.15625,0.06993 0.15625,0.156182 z"
         id="path2-3"
         sodipodi:nodetypes="ccsscccsccccccsccccccccsccccccccsccscccccscccccccccccccccsssss"
         style="fill:#eff0f1;fill-opacity:1;stroke-width:0.00976562" />
    </g>
  </g>
</svg>
