<?xml version="1.0" encoding="UTF-8" standalone="no"?>
<svg
   inkscape:version="1.1.2 (0a00cf5339, 2022-02-04)"
   sodipodi:docname="window.svg"
   viewBox="0 0 22 22"
   version="1.1"
   height="22"
   width="22"
   id="svg"
   xmlns:inkscape="http://www.inkscape.org/namespaces/inkscape"
   xmlns:sodipodi="http://sodipodi.sourceforge.net/DTD/sodipodi-0.dtd"
   xmlns="http://www.w3.org/2000/svg"
   xmlns:svg="http://www.w3.org/2000/svg"
   xmlns:rdf="http://www.w3.org/1999/02/22-rdf-syntax-ns#"
   xmlns:cc="http://creativecommons.org/ns#"
   xmlns:dc="http://purl.org/dc/elements/1.1/">
  <g
     id="16-16-window-close"
     transform="translate(76,5.999998)">
    <rect
       id="rect27"
       y="0"
       x="0"
       height="16"
       width="16"
       style="opacity:0.00100002" />
    <path
       d="m 3.003951,3.0002144 h 1.249521 c 0.01356,-1.75e-4 0.02598,-3.79e-4 0.03899,0 0.318567,0.02012 0.637093,0.160617 0.859049,0.390516 l 2.850439,2.851773 2.889487,-2.851773 c 0.331907,-0.287837 0.55812,-0.381766 0.859039,-0.390516 h 1.249512 v 1.249872 c 0,0.358142 -0.04294,0.688574 -0.312384,0.937564 l -2.850433,2.851715 2.811396,2.8123696 c 0.235129,0.235003 0.351409,0.566808 0.351421,0.898219 V 13 h -1.24949 c -0.331497,-1.5e-5 -0.662989,-0.113601 -0.898099,-0.351492 L 8.001965,9.7968804 5.151525,12.648508 C 4.916416,12.883511 4.584924,13 4.253431,13 H 3.003927 v -1.250046 c 0,-0.331397 0.116373,-0.663216 0.351444,-0.898219 L 6.205812,8.0393654 3.355371,5.1876504 C 3.09204,4.9443634 2.976564,4.6010534 3.003927,4.2500864 Z"
       style="fill:#eff0f1;fill-opacity:1;stroke-width:1.45802"
       id="path48-7"
       inkscape:connector-curvature="0" />
  </g>
  <g
     id="22-22-window-close"
     transform="translate(54)">
    <rect
       id="rect18"
       y="0"
       x="0"
       height="22"
       width="22"
       style="opacity:0.00100002" />
    <path
       d="m 5.0047425,5.0002573 h 1.499425 c 0.01627,-2.1e-4 0.03117,-4.55e-4 0.04679,0 0.382279,0.02415 0.76451,0.19274 1.030858,0.468619 l 3.4205255,3.422128 3.467385,-3.422128 c 0.398289,-0.345405 0.669745,-0.458119 1.030847,-0.468619 h 1.499414 v 1.499846 c 0,0.42977 -0.05153,0.82629 -0.37486,1.125077 l -3.42052,3.4220577 3.373676,3.374844 c 0.282154,0.282004 0.42169,0.68017 0.421704,1.077862 V 17 H 15.5006 c -0.397797,-1.8e-5 -0.795587,-0.136322 -1.077719,-0.42179 L 11.002359,13.156256 7.5818315,16.57821 C 7.2996985,16.860214 6.9019085,17 6.5041165,17 h -1.499404 v -1.500056 c 0,-0.397676 0.139647,-0.795858 0.421732,-1.077862 l 3.420529,-3.374844 -3.420529,-3.4220577 c -0.315997,-0.291944 -0.454568,-0.703917 -0.421732,-1.125077 z"
       style="fill:#eff0f1;fill-opacity:1;stroke-width:1.74963"
       id="path48-8"
       inkscape:connector-curvature="0" />
  </g>
  <g
     id="window-close"
     transform="translate(22,-10)">
    <rect
       id="rect36"
       style="opacity:0.00100002"
       y="0"
       x="0"
       height="32"
       width="32" />
    <path
       d="m 7.0071137,7.0003862 h 2.249138 c 0.02441,-3.15e-4 0.04676,-6.83e-4 0.07018,0 0.5734193,0.03622 1.1467663,0.28911 1.5462883,0.702928 l 5.130789,5.1331918 5.201077,-5.1331918 c 0.597434,-0.518107 1.004617,-0.687178 1.546271,-0.702928 h 2.249121 v 2.249769 c 0,0.644655 -0.07729,1.2394338 -0.562291,1.6876148 l -5.130779,5.133087 5.060513,5.062266 c 0.423232,0.423006 0.632536,1.020255 0.632557,1.616794 V 25 h -2.249081 c -0.596696,-2.6e-5 -1.193381,-0.204482 -1.616579,-0.632685 l -5.130782,-5.13293 -5.130792,5.13293 C 10.449548,24.790321 9.8528627,25 9.2561757,25 h -2.249107 v -2.250083 c 0,-0.596514 0.209471,-1.193788 0.632599,-1.616794 L 12.770461,16.070857 7.6396677,10.93777 C 7.1656717,10.499854 6.9578147,9.8818952 7.0070687,9.2501552 Z"
       style="fill:#eff0f1;fill-opacity:1;stroke-width:2.62444"
       id="path48"
       inkscape:connector-curvature="0" />
  </g>
  <g
     id="window-unpin"
     transform="translate(-22)">
    <path
       id="rect838-6"
       d="M 0,0 H 22 V 22 H 0 Z"
       fill="none" />
    <path
       d="m 18.853058,9.857141 c -0.195924,0.194961 -0.51168,0.194961 -0.707043,0 -0.195923,-0.19524 -0.195923,-0.511925 0,-0.707254 0.195923,-0.19528 0.511719,-0.19524 0.707043,0 0.195923,0.195241 0.195923,0.51195 0,0.707254 z m -4.948098,4.371195 -0.05678,0.11024 c -0.08756,0.180161 -0.15274,0.352481 -0.15274,0.560038 0,0.0312 -0.0032,0.06248 0.0012,0.0924 -0.01199,0.223481 0.0032,0.344961 -0.01199,0.451369 -0.03199,0.86007 -0.363458,1.71228 -1.020001,2.368766 -0.585969,0.585637 -1.535597,0.585637 -2.121447,0 L 7.715312,14.98345 5.348881,17.349524 c -0.196323,0.19552 -0.512399,0.19552 -0.707962,0 -0.196323,-0.195521 -0.196323,-0.512425 0,-0.70797 L 7.00707,14.27526 4.17926,11.447561 c -0.58573,-0.585513 -0.58573,-1.535184 0,-2.121073 0.702804,-0.702838 1.62976,-1.036571 2.550919,-1.016027 0.05438,-0.0052 0.115955,-0.0019 0.183928,0.0048 0.02399,0.0015 0.03998,0.0044 0.06038,0.0068 0.02399,0.0024 0.03998,0.0015 0.05598,0.006 0.03998,0.006 0.06078,0.0052 0.09196,0.0052 0.206719,0 0.399043,-0.06312 0.558661,-0.17068 l 4.017823,-2.748863 0.008,0.008 c 0.20312,-0.15028 0.488728,-0.14224 0.673295,0.04248 0.203121,0.203921 0.203121,0.534149 0,0.737734 -0.02399,0.02 -0.04278,0.0268 -0.06517,0.04348 l 0.0032,0.008 -4.026219,2.742251 C 7.974141,9.209744 7.590452,9.334824 7.177774,9.334824 c -0.07077,0 -0.141544,-0.0029 -0.212316,-0.0096 -0.08197,-0.008 -0.149941,-0.0092 -0.210718,-0.008 -0.673295,-0.0268 -1.355708,0.20932 -1.870106,0.723826 -0.195923,0.19496 -0.195923,0.511709 0,0.707001 l 6.363783,6.3635 c 0.195922,0.194961 0.512199,0.194961 0.707042,0 0.464258,-0.464097 0.698766,-1.064866 0.721237,-1.67252 0.008,-0.08724 0.008,-0.20904 0.01599,-0.376401 -0.01199,-0.06944 0.0012,-0.1402 0.0012,-0.21136 0,-0.413549 0.123552,-0.836254 0.312677,-1.116643 0.03998,-0.08256 0.105959,-0.168281 0.15314,-0.262601 L 16.409228,8.70203 C 16.539577,8.51079 16.522384,8.251125 16.357248,8.078533 L 14.076864,5.797899 v 0 L 13.19313,4.913929 12.882053,4.604648 12.130627,3.853434 c -0.195523,-0.19524 -0.195523,-0.511929 0,-0.706974 0.195923,-0.19528 0.512239,-0.19528 0.707523,0 l 0.883733,0.883727 3.364239,3.36404 c 0.5112,0.511205 0.573695,1.298743 0.192325,1.880513 z M 3.999967,18.500051 C 3.999967,18.776131 3.776055,19 3.499924,19 3.222833,19 3,18.776279 3,18.500051 3,18.22393 3.223912,18.000062 3.499924,18.000062 c 0.277091,0 0.500043,0.2238 0.500043,0.499989 z"
       id="path2-3-0-5"
       sodipodi:nodetypes="ccsscccsccccccsccccccccsccccccccsccscccccscccccccccccccccsssss"
       style="fill:#0094b2;fill-opacity:1;stroke-width:0.0312558" />
  </g>
  <metadata
     id="metadata60">
    <rdf:RDF>
      <cc:Work
         rdf:about="">
        <dc:format>image/svg+xml</dc:format>
        <dc:type
           rdf:resource="http://purl.org/dc/dcmitype/StillImage" />
      </cc:Work>
    </rdf:RDF>
  </metadata>
  <sodipodi:namedview
     inkscape:document-rotation="0"
     inkscape:lockguides="true"
     inkscape:current-layer="svg"
     inkscape:window-maximized="1"
     inkscape:window-y="0"
     inkscape:window-x="0"
     inkscape:cy="10.375"
     inkscape:cx="30.624999"
     inkscape:zoom="4.0000002"
     showgrid="false"
     id="namedview58"
     inkscape:window-height="1015"
     inkscape:window-width="1920"
     inkscape:pageshadow="2"
     inkscape:pageopacity="0"
     guidetolerance="10"
     gridtolerance="10"
     objecttolerance="10"
     borderopacity="1"
     bordercolor="#000000"
     pagecolor="#ffffff"
     inkscape:showpageshadow="false"
     inkscape:pagecheckerboard="0"
     showguides="false">
    <inkscape:grid
       id="grid863"
       type="xygrid"
       originx="21.999999"
       originy="-10.000002" />
  </sodipodi:namedview>
  <defs
     id="defs4">
    <linearGradient
       id="linearGradient5606"
       inkscape:swatch="solid">
      <stop
         style="stop-color:#000000"
         offset="0"
         id="stop5608" />
    </linearGradient>
  </defs>
  <g
     id="g22"
     transform="matrix(1.7493122,0,0,1.7499488,-20.713548,-1332.9605)"
     style="fill:#ffffff" />
  <g
     id="g46"
     transform="matrix(1.7493122,0,0,1.7499488,-80.95048,-913.47286)"
     style="opacity:0.2">
    <g
       id="g44"
       transform="translate(19,-242)" />
  </g>
  <g
     id="window-pin"
     transform="translate(-22)">
    <path
       id="rect838"
       d="M 22,0 H 44 V 22 H 22 Z"
       fill="none" />
    <path
       d="m 40.853058,9.857141 c -0.195924,0.194961 -0.51168,0.194961 -0.707043,0 -0.195923,-0.19524 -0.195923,-0.511925 0,-0.707254 0.195923,-0.19528 0.511719,-0.19524 0.707043,0 0.195923,0.195241 0.195923,0.51195 0,0.707254 z m -4.948098,4.371195 -0.05678,0.11024 c -0.08756,0.180161 -0.15274,0.352481 -0.15274,0.560038 0,0.0312 -0.0032,0.06248 0.0012,0.0924 -0.01199,0.223481 0.0032,0.344961 -0.01199,0.451369 -0.03199,0.86007 -0.363458,1.71228 -1.020001,2.368766 -0.585969,0.585637 -1.535597,0.585637 -2.121447,0 l -2.82789,-2.827699 -2.366431,2.366074 c -0.196323,0.19552 -0.512399,0.19552 -0.707962,0 -0.196323,-0.195521 -0.196323,-0.512425 0,-0.70797 L 29.00707,14.27526 26.17926,11.447561 c -0.58573,-0.585513 -0.58573,-1.535184 0,-2.121073 0.702804,-0.702838 1.62976,-1.036571 2.550919,-1.016027 0.05438,-0.0052 0.115955,-0.0019 0.183928,0.0048 0.02399,0.0015 0.03998,0.0044 0.06038,0.0068 0.02399,0.0024 0.03998,0.0015 0.05598,0.006 0.03998,0.006 0.06078,0.0052 0.09196,0.0052 0.206719,0 0.399043,-0.06312 0.558661,-0.17068 l 4.017823,-2.748863 0.008,0.008 c 0.20312,-0.15028 0.488728,-0.14224 0.673295,0.04248 0.203121,0.203921 0.203121,0.534149 0,0.737734 -0.02399,0.02 -0.04278,0.0268 -0.06517,0.04348 l 0.0032,0.008 -4.026219,2.742251 c -0.317876,0.214081 -0.701565,0.339161 -1.114243,0.339161 -0.07077,0 -0.141544,-0.0029 -0.212316,-0.0096 -0.08197,-0.008 -0.149941,-0.0092 -0.210718,-0.008 -0.673296,-0.0268 -1.355708,0.20932 -1.870106,0.723826 -0.195923,0.19496 -0.195923,0.511709 0,0.707001 l 6.363783,6.3635 c 0.195922,0.194961 0.512199,0.194961 0.707042,0 0.464258,-0.464097 0.698766,-1.064866 0.721237,-1.67252 0.008,-0.08724 0.008,-0.20904 0.01599,-0.376401 -0.01199,-0.06944 0.0012,-0.1402 0.0012,-0.21136 0,-0.413549 0.123552,-0.836254 0.312677,-1.116643 0.03998,-0.08256 0.105959,-0.168281 0.15314,-0.262601 L 38.409228,8.70203 C 38.539577,8.51079 38.522384,8.251125 38.357248,8.078533 L 36.076864,5.797899 v 0 L 35.19313,4.913929 34.882053,4.604648 34.130627,3.853434 c -0.195523,-0.19524 -0.195523,-0.511929 0,-0.706974 0.195923,-0.19528 0.512239,-0.19528 0.707523,0 l 0.883733,0.883727 3.364239,3.36404 c 0.5112,0.511205 0.573695,1.298743 0.192325,1.880513 z m -9.904993,4.271715 C 25.999967,18.776131 25.776055,19 25.499924,19 25.222833,19 25,18.776279 25,18.500051 c 0,-0.276121 0.223912,-0.499989 0.499924,-0.499989 0.277091,0 0.500043,0.2238 0.500043,0.499989 z"
       id="path2-3-0"
       sodipodi:nodetypes="ccsscccsccccccsccccccccsccccccccsccscccccscccccccccccccccsssss"
       style="fill:#eff0f1;fill-opacity:1;stroke-width:0.0312558" />
  </g>
</svg>
