<?xml version="1.0" encoding="UTF-8" standalone="no"?>
<svg
   width="16"
   height="16"
   viewBox="0 0 16 16"
   id="svg8694"
   version="1.1"
   inkscape:version="1.1.2 (0a00cf5339, 2022-02-04)"
   sodipodi:docname="system-file-manager.svg"
   xmlns:inkscape="http://www.inkscape.org/namespaces/inkscape"
   xmlns:sodipodi="http://sodipodi.sourceforge.net/DTD/sodipodi-0.dtd"
   xmlns:xlink="http://www.w3.org/1999/xlink"
   xmlns="http://www.w3.org/2000/svg"
   xmlns:svg="http://www.w3.org/2000/svg"
   xmlns:rdf="http://www.w3.org/1999/02/22-rdf-syntax-ns#"
   xmlns:cc="http://creativecommons.org/ns#"
   xmlns:dc="http://purl.org/dc/elements/1.1/">
  <defs
     id="defs8696">
    <linearGradient
       inkscape:collect="always"
       id="linearGradient1016">
      <stop
         style="stop-color:#00bdbd;stop-opacity:1"
         offset="0"
         id="stop1012" />
      <stop
         style="stop-color:#80b3ff;stop-opacity:1"
         offset="1"
         id="stop1014" />
    </linearGradient>
    <linearGradient
       inkscape:collect="always"
       xlink:href="#linearGradient1016"
       id="linearGradient854"
       gradientUnits="userSpaceOnUse"
       gradientTransform="matrix(0.159091,0,0,0.17122701,0.04545238,1035.8085)"
       x1="6"
       y1="50.000134"
       x2="94.005508"
       y2="50.000134" />
    <linearGradient
       xlink:href="#linearGradient1016"
       id="linearGradient4225-3"
       gradientUnits="userSpaceOnUse"
       x1="396.57101"
       y1="498.798"
       x2="426.57101"
       y2="511.798"
       gradientTransform="matrix(0.25503833,0,0,0.09730019,-98.205303,993.77608)" />
    <linearGradient
       id="linearGradient4227">
      <stop
         offset="0"
         style="stop-color:#f5f5f5;stop-opacity:1"
         id="stop21" />
      <stop
         offset="1"
         style="stop-color:#f9f9f9;stop-opacity:1"
         id="stop23" />
    </linearGradient>
  </defs>
  <sodipodi:namedview
     id="base"
     pagecolor="#ffffff"
     bordercolor="#666666"
     borderopacity="1.0"
     inkscape:pageopacity="0.0"
     inkscape:pageshadow="2"
     inkscape:zoom="32"
     inkscape:cx="8.515625"
     inkscape:cy="7.765625"
     inkscape:document-units="px"
     inkscape:current-layer="layer1"
     showgrid="true"
     units="px"
     inkscape:snap-bbox="true"
     inkscape:bbox-nodes="true"
     inkscape:object-nodes="true"
     inkscape:snap-global="true"
     inkscape:showpageshadow="true"
     showborder="true"
     inkscape:document-rotation="0"
     inkscape:window-width="1920"
     inkscape:window-height="1011"
     inkscape:window-x="0"
     inkscape:window-y="0"
     inkscape:window-maximized="1"
     inkscape:lockguides="true"
     inkscape:pagecheckerboard="0">
    <inkscape:grid
       type="xygrid"
       id="grid9302" />
  </sodipodi:namedview>
  <metadata
     id="metadata8699">
    <rdf:RDF>
      <cc:Work
         rdf:about="">
        <dc:format>image/svg+xml</dc:format>
        <dc:type
           rdf:resource="http://purl.org/dc/dcmitype/StillImage" />
      </cc:Work>
    </rdf:RDF>
  </metadata>
  <g
     inkscape:label="Livello 1"
     inkscape:groupmode="layer"
     id="layer1"
     transform="translate(0,-1036.3622)">
    <path
       style="color:#000000;font-style:normal;font-variant:normal;font-weight:normal;font-stretch:normal;font-size:medium;line-height:normal;font-family:Sans;-inkscape-font-specification:Sans;text-indent:0;text-align:start;text-decoration:none;text-decoration-line:none;letter-spacing:normal;word-spacing:normal;text-transform:none;writing-mode:lr-tb;direction:ltr;baseline-shift:baseline;text-anchor:start;display:inline;overflow:visible;visibility:visible;opacity:1;fill:url(#linearGradient854);fill-opacity:1;fill-rule:nonzero;stroke:none;stroke-width:0.660176;marker:none;enable-background:accumulate"
       d="M 2.2031262,1038.3769 C 1.5543439,1038.3769 1,1038.8658 1,1039.5164 v 9.5915 c 0,0.4053 0.1360498,0.6642 0.4002031,0.9003 0.2641421,0.2374 0.5382742,0.3537 0.8880731,0.3537 H 13.409024 c 0.266998,0.013 0.259416,-0.3802 6.7e-5,-0.385 l -11.1361997,-0.014 c -0.3441757,0 -0.6301523,-0.2559 -0.6301523,-0.2559 0,0 -0.2635171,-0.2069 -0.2635171,-0.606 v -9.5925 c 0,-0.4471 0.2893815,-0.7345 0.7948789,-0.7285 l 3.9145042,-0.01 1.8666504,1.7513 c 0.056423,0.061 0.1286161,0.1293 0.2038292,0.1316 l 5.4277984,-0.01 c 0.276733,-0.01 0.267996,-0.4007 -0.0083,-0.4047 H 8.273159 l -1.9787043,-1.804 c -0.057138,-0.061 -0.1292484,-0.071 -0.2038304,-0.072 z m 6.3139252,0.4963 c -0.2525484,0 -0.253072,0.4573 0.00544,0.4624 l 4.8409936,-0.014 c 0.490526,0 0.70302,0.1664 0.866388,0.3274 0.163294,0.1595 0.411498,0.5527 0.411498,0.9577 v 9.4065 c 0.0034,0.318 0.357567,0.3295 0.358629,0.018 l -0.0019,-9.4189 c -3.7e-5,-0.5497 -0.170769,-1.009 -0.477265,-1.3096 -0.306489,-0.3015 -0.723775,-0.4301 -1.158372,-0.4301 H 8.5455368 c -0.00975,0 -0.019932,0 -0.029889,0 z"
       id="path2-3-3"
       sodipodi:nodetypes="sssssccscsssccccccccsccsssccssscc" />
    <rect
       ry="1.7382812e-05"
       rx="0"
       y="1042.3622"
       x="1"
       height="1.2650131"
       width="14"
       style="color:#000000;clip-rule:nonzero;display:inline;overflow:visible;visibility:visible;opacity:1;isolation:auto;mix-blend-mode:normal;color-interpolation:sRGB;color-interpolation-filters:linearRGB;solid-color:#000000;solid-opacity:1;fill:url(#linearGradient4225-3);fill-opacity:1;fill-rule:nonzero;stroke:none;stroke-width:0.227563;stroke-linecap:butt;stroke-linejoin:miter;stroke-miterlimit:4;stroke-dasharray:none;stroke-dashoffset:0;stroke-opacity:1;marker:none;color-rendering:auto;image-rendering:auto;shape-rendering:auto;text-rendering:auto;enable-background:accumulate"
       id="rect36-5" />
  </g>
</svg>
