<?xml version="1.0" encoding="UTF-8" standalone="no"?>
<svg
   width="64"
   version="1.1"
   height="64"
   id="svg40"
   sodipodi:docname="desktop.svg"
   inkscape:version="1.1 (c68e22c387, 2021-05-23)"
   xmlns:inkscape="http://www.inkscape.org/namespaces/inkscape"
   xmlns:sodipodi="http://sodipodi.sourceforge.net/DTD/sodipodi-0.dtd"
   xmlns:xlink="http://www.w3.org/1999/xlink"
   xmlns="http://www.w3.org/2000/svg"
   xmlns:svg="http://www.w3.org/2000/svg"
   xmlns:rdf="http://www.w3.org/1999/02/22-rdf-syntax-ns#"
   xmlns:cc="http://creativecommons.org/ns#"
   xmlns:dc="http://purl.org/dc/elements/1.1/"
   xmlns:serif="http://www.serif.com/">
  <metadata
     id="metadata44">
    <rdf:RDF>
      <cc:Work
         rdf:about="">
        <dc:format>image/svg+xml</dc:format>
        <dc:type
           rdf:resource="http://purl.org/dc/dcmitype/StillImage" />
      </cc:Work>
    </rdf:RDF>
  </metadata>
  <sodipodi:namedview
     pagecolor="#ffffff"
     bordercolor="#666666"
     borderopacity="1"
     objecttolerance="10"
     gridtolerance="10"
     guidetolerance="10"
     inkscape:pageopacity="0"
     inkscape:pageshadow="2"
     inkscape:window-width="1920"
     inkscape:window-height="1007"
     id="namedview42"
     showgrid="true"
     inkscape:zoom="8"
     inkscape:cx="14.3125"
     inkscape:cy="27.5"
     inkscape:window-x="0"
     inkscape:window-y="0"
     inkscape:window-maximized="1"
     inkscape:current-layer="layer1"
     inkscape:document-rotation="0"
     inkscape:pagecheckerboard="0">
    <inkscape:grid
       type="xygrid"
       id="grid854" />
  </sodipodi:namedview>
  <defs
     id="defs5455">
    <linearGradient
       inkscape:collect="always"
       xlink:href="#linearGradient842"
       id="linearGradient854"
       gradientUnits="userSpaceOnUse"
       gradientTransform="matrix(0.72722795,0,0,0.74285133,380.20804,478.65555)"
       x1="6"
       y1="50.000134"
       x2="94.005508"
       y2="50.000134" />
    <linearGradient
       inkscape:collect="always"
       xlink:href="#linearGradient842"
       id="linearGradient844"
       gradientUnits="userSpaceOnUse"
       x1="0"
       y1="213.3335"
       x2="512.00098"
       y2="213.3335"
       gradientTransform="matrix(0,-0.10937479,0.12420296,0,376.86539,542.87135)" />
    <linearGradient
       inkscape:collect="always"
       xlink:href="#linearGradient842"
       id="linearGradient1212"
       gradientUnits="userSpaceOnUse"
       gradientTransform="matrix(0,-0.10937479,0.12420296,0,382.92413,548.87135)"
       x1="0"
       y1="213.3335"
       x2="512.00098"
       y2="213.3335" />
    <linearGradient
       inkscape:collect="always"
       xlink:href="#linearGradient842"
       id="linearGradient858"
       x1="320"
       y1="187.5"
       x2="439"
       y2="187.5"
       gradientUnits="userSpaceOnUse"
       gradientTransform="matrix(0.11428571,0,0,0.11428571,355.457,511.32657)" />
    <linearGradient
       inkscape:collect="always"
       id="linearGradient842">
      <stop
         style="stop-color:#00aa88;stop-opacity:1"
         offset="0"
         id="stop838" />
      <stop
         style="stop-color:#008fb2;stop-opacity:1"
         offset="1"
         id="stop840" />
    </linearGradient>
    <linearGradient
       inkscape:collect="always"
       xlink:href="#linearGradient842"
       id="linearGradient866"
       x1="320"
       y1="227.5"
       x2="439"
       y2="227.5"
       gradientUnits="userSpaceOnUse"
       gradientTransform="matrix(0.11428571,0,0,0.11428571,391.74052,506.70662)" />
    <linearGradient
       inkscape:collect="always"
       xlink:href="#linearGradient842"
       id="linearGradient1267"
       x1="12.000006"
       y1="22.000011"
       x2="32.000015"
       y2="22.000011"
       gradientUnits="userSpaceOnUse" />
  </defs>
  <g
     inkscape:label="Capa 1"
     inkscape:groupmode="layer"
     id="layer1"
     transform="translate(-384.57143,-483.798)">
    <g
       id="g4578"
       transform="matrix(1.2083328,0,0,1.5888879,-77.11883,-310.68057)" />
    <g
       id="g4255"
       transform="translate(0,-1.2)">
      <g
         id="text4213"
         transform="matrix(0.64829823,0,0,0.64829823,155.63174,190.06072)" />
    </g>
    <path
       style="color:#000000;font-style:normal;font-variant:normal;font-weight:normal;font-stretch:normal;font-size:medium;line-height:normal;font-family:Sans;-inkscape-font-specification:Sans;text-indent:0;text-align:start;text-decoration:none;text-decoration-line:none;letter-spacing:normal;word-spacing:normal;text-transform:none;writing-mode:lr-tb;direction:ltr;baseline-shift:baseline;text-anchor:start;display:inline;overflow:visible;visibility:visible;fill:url(#linearGradient854);fill-opacity:1;fill-rule:nonzero;stroke:none;stroke-width:2.94001;marker:none;enable-background:accumulate"
       d="m 390.07109,489.79832 c -2.96566,0 -5.49966,2.1245 -5.49966,4.94461 v 41.61193 c 0,1.75677 0.62193,2.88553 1.82936,3.9097 1.20744,1.02417 2.46055,1.53332 4.05952,1.53332 h 50.83461 c 1.22044,0.0215 1.18573,-1.65277 2.9e-4,-1.67053 l -50.90522,-0.0296 c -1.57325,0 -2.88048,-1.10901 -2.88048,-1.10901 0,0 -1.20462,-0.90368 -1.20462,-2.63392 v -41.61194 c 0,-1.94341 1.32283,-3.19027 3.63351,-3.1649 l 17.89379,-0.009 8.53275,7.60003 c 0.25783,0.23243 0.58794,0.56382 0.93173,0.57124 l 24.81118,-0.009 c 1.26509,-0.007 1.22512,-1.74154 -0.04,-1.76182 h -24.24851 l -9.0449,-7.82312 c -0.26103,-0.22402 -0.59081,-0.34727 -0.93176,-0.34821 z m 28.86185,2.15891 c -1.15449,-0.003 -1.15679,1.98409 0.0288,2.00103 l 22.12887,-0.0304 c 2.24229,-0.003 3.2137,0.72292 3.9603,1.41879 0.7466,0.69589 1.88114,2.39954 1.88114,4.15505 v 40.8104 c 0.007,1.38102 1.63452,1.4265 1.63938,0.0475 l -0.005,-40.85816 c -2.3e-4,-2.38486 -0.78064,-4.38158 -2.18169,-5.68744 -1.40102,-1.30587 -3.30849,-1.85713 -5.29511,-1.85713 h -22.02139 c -0.0455,-0.002 -0.091,-0.002 -0.13636,0 z"
       id="path2-3-3"
       sodipodi:nodetypes="sssssccscsssccccccccsccsssccssscc" />
    <path
       style="fill:url(#linearGradient1212);fill-opacity:1;stroke-width:0.116553"
       id="path6"
       d="m 399.57143,503.798 c 0.20667,-0.182 0.3105,-0.42098 0.3105,-0.65986 0,-0.23898 -0.10383,-0.47786 -0.3105,-0.65986 -0.41447,-0.36487 -1.0843,-0.36487 -1.49864,0 l -2.11977,1.86659 c -0.41446,0.36488 -0.41446,0.95484 0,1.31972 0.41447,0.36498 1.08429,0.36498 1.49863,0 z" />
    <path
       style="fill:url(#linearGradient844);fill-opacity:1;stroke-width:0.116553"
       id="path8"
       d="m 399.87188,497.798 c 0.20667,-0.182 0.3105,-0.42098 0.3105,-0.65986 0,-0.23898 -0.10383,-0.47786 -0.3105,-0.65986 -0.41447,-0.36487 -1.08429,-0.36487 -1.49864,0 l -8.47896,7.46658 c -0.41447,0.36499 -0.41447,0.95484 0,1.31972 0.41447,0.36498 1.08429,0.36498 1.49863,0 z" />
    <path
       d="m 404.77129,531.898 h -11.88572 c -0.47337,0 -0.85714,0.38366 -0.85714,0.85714 0,0.47349 0.38377,0.85715 0.85714,0.85715 h 11.88572 c 0.47337,0 0.85714,-0.38366 0.85714,-0.85715 0,-0.47348 -0.38377,-0.85714 -0.85714,-0.85714 z"
       id="path4-3"
       style="fill:url(#linearGradient858);fill-opacity:1;stroke-width:0.114286" />
    <path
       d="m 441.05481,531.84948 h -11.88572 c -0.47337,0 -0.85714,0.38366 -0.85714,0.85714 0,0.47349 0.38377,0.85715 0.85714,0.85715 h 11.88572 c 0.47337,0 0.85714,-0.38366 0.85714,-0.85715 0,-0.47348 -0.38377,-0.85714 -0.85714,-0.85714 z"
       id="path6-6"
       style="fill:url(#linearGradient866);fill-opacity:1;stroke-width:0.114286" />
    <g
       serif:id="new"
       id="g8"
       transform="matrix(0.24999988,0,0,0.24999988,411.57143,525.798)"
       style="fill-opacity:1.0;fill:url(#linearGradient1267)">
      <g
         transform="matrix(0.666667,0,0,0.666667,6.66667,6.66667)"
         id="g6"
         style="fill-opacity:1.0;fill:url(#linearGradient1267)">
        <circle
           cx="23"
           cy="23"
           r="15"
           id="circle4"
           style="fill-opacity:1.0;fill:url(#linearGradient1267)" />
      </g>
    </g>
  </g>
</svg>
