<?xml version="1.0" encoding="UTF-8" standalone="no"?>
<svg
   width="64"
   version="1.1"
   height="64"
   id="svg16"
   sodipodi:docname="folder-podcast.svg"
   inkscape:version="1.2 (dc2aedaf03, 2022-05-15)"
   xmlns:inkscape="http://www.inkscape.org/namespaces/inkscape"
   xmlns:sodipodi="http://sodipodi.sourceforge.net/DTD/sodipodi-0.dtd"
   xmlns:xlink="http://www.w3.org/1999/xlink"
   xmlns="http://www.w3.org/2000/svg"
   xmlns:svg="http://www.w3.org/2000/svg"
   xmlns:rdf="http://www.w3.org/1999/02/22-rdf-syntax-ns#"
   xmlns:cc="http://creativecommons.org/ns#"
   xmlns:dc="http://purl.org/dc/elements/1.1/">
  <sodipodi:namedview
     pagecolor="#ffffff"
     bordercolor="#666666"
     borderopacity="1"
     objecttolerance="10"
     gridtolerance="10"
     guidetolerance="10"
     inkscape:pageopacity="0"
     inkscape:pageshadow="2"
     inkscape:window-width="1920"
     inkscape:window-height="1011"
     id="namedview18"
     showgrid="true"
     inkscape:zoom="9.8125"
     inkscape:cx="18.700637"
     inkscape:cy="40.764331"
     inkscape:window-x="0"
     inkscape:window-y="0"
     inkscape:window-maximized="1"
     inkscape:current-layer="layer1-2"
     inkscape:pagecheckerboard="0"
     inkscape:showpageshadow="2"
     inkscape:deskcolor="#d1d1d1">
    <inkscape:grid
       type="xygrid"
       id="grid6369" />
  </sodipodi:namedview>
  <defs
     id="defs5455">
    <linearGradient
       id="linearGradient4172-0">
      <stop
         style="stop-color:#f89406"
         id="stop4174-4" />
      <stop
         offset="1"
         style="stop-color:#faa938"
         id="stop4176-5" />
    </linearGradient>
    <linearGradient
       inkscape:collect="always"
       xlink:href="#linearGradient4172-0"
       id="linearGradient854"
       gradientUnits="userSpaceOnUse"
       gradientTransform="matrix(0.72722795,0,0,0.74284988,380.20804,478.65558)"
       x1="6"
       y1="50.000134"
       x2="94.005508"
       y2="50.000134" />
  </defs>
  <metadata
     id="metadata5458">
    <rdf:RDF>
      <cc:Work
         rdf:about="">
        <dc:format>image/svg+xml</dc:format>
        <dc:type
           rdf:resource="http://purl.org/dc/dcmitype/StillImage" />
      </cc:Work>
    </rdf:RDF>
  </metadata>
  <g
     inkscape:label="Capa 1"
     inkscape:groupmode="layer"
     id="layer1-2"
     transform="translate(-384.57143,-483.79801)">
    <path
       style="color:#000000;font-style:normal;font-variant:normal;font-weight:normal;font-stretch:normal;font-size:medium;line-height:normal;font-family:Sans;-inkscape-font-specification:Sans;text-indent:0;text-align:start;text-decoration:none;text-decoration-line:none;letter-spacing:normal;word-spacing:normal;text-transform:none;writing-mode:lr-tb;direction:ltr;baseline-shift:baseline;text-anchor:start;display:inline;overflow:visible;visibility:visible;opacity:1;fill:url(#linearGradient854);fill-opacity:1;fill-rule:nonzero;stroke:none;stroke-width:2.94001;marker:none;enable-background:accumulate"
       d="m 390.07109,489.79833 c -2.96566,0 -5.49966,2.12449 -5.49966,4.9446 v 41.61184 c 0,1.75677 0.62193,2.88553 1.82936,3.9097 1.20744,1.02417 2.46056,1.53331 4.05952,1.53331 h 50.83461 c 1.22044,0.0216 1.18574,-1.65276 2.9e-4,-1.67052 l -50.90522,-0.0297 c -1.57325,0 -2.88048,-1.10901 -2.88048,-1.10901 0,0 -1.20462,-0.90367 -1.20462,-2.63392 v -41.61185 c 0,-1.94341 1.32283,-3.19027 3.63351,-3.16489 l 17.89379,-0.009 8.53275,7.60001 c 0.25783,0.23243 0.58794,0.56382 0.93173,0.57124 l 24.81118,-0.009 c 1.26509,-0.007 1.22512,-1.74154 -0.04,-1.76182 h -24.24851 l -9.0449,-7.8231 c -0.26103,-0.22402 -0.59081,-0.34727 -0.93175,-0.34821 z m 28.86186,2.15891 c -1.15449,-0.003 -1.1568,1.98408 0.0288,2.00102 l 22.12886,-0.0304 c 2.24229,-0.003 3.21371,0.72293 3.9603,1.4188 0.74661,0.69588 1.88115,2.39953 1.88115,4.15503 v 40.81032 c 0.007,1.38103 1.63451,1.42649 1.63937,0.0475 l -0.004,-40.85808 c -2.3e-4,-2.38485 -0.78064,-4.38157 -2.18169,-5.68742 -1.40102,-1.30588 -3.30849,-1.85713 -5.29512,-1.85713 h -22.02138 c -0.0455,-0.002 -0.091,-0.002 -0.13636,0 z"
       id="path2-3"
       sodipodi:nodetypes="sssssccscsssccccccccsccsssccssscc" />
    <path
       d="m 429.09607,529.79774 c 0,1.65634 -1.34318,2.9992 -2.99985,2.9992 h -1.49999 c -1.65738,0 -3.00023,-1.34286 -3.00023,-2.9992 0,-0.36839 -0.0193,-0.73165 -0.048,-1.09244 -0.004,-0.0604 -0.008,-0.1212 -0.0135,-0.18086 -0.0323,-0.34204 -0.0784,-0.68111 -0.13558,-1.01589 -0.0107,-0.0656 -0.0233,-0.12933 -0.0351,-0.19409 -0.0633,-0.33726 -0.13619,-0.67086 -0.2241,-0.99972 -0.012,-0.048 -0.0267,-0.0935 -0.0404,-0.14054 -0.094,-0.33879 -0.19774,-0.67346 -0.31713,-1.00158 -0.001,-0.004 -0.004,-0.0107 -0.007,-0.0157 -0.12013,-0.32956 -0.25705,-0.65185 -0.40281,-0.96899 -0.0205,-0.0461 -0.0396,-0.0923 -0.0612,-0.13769 -0.14324,-0.30285 -0.29779,-0.59801 -0.46186,-0.88801 -0.0285,-0.0513 -0.0579,-0.10187 -0.0872,-0.15312 -0.16845,-0.28819 -0.34642,-0.57094 -0.53499,-0.84518 -0.026,-0.0376 -0.0531,-0.0755 -0.0788,-0.1124 -0.19631,-0.27941 -0.40063,-0.55263 -0.61666,-0.81591 -0.007,-0.008 -0.0135,-0.0157 -0.0191,-0.0233 -0.21717,-0.26221 -0.4453,-0.51378 -0.68041,-0.75912 -0.0388,-0.0413 -0.0769,-0.0824 -0.1172,-0.12293 -0.22925,-0.23363 -0.46891,-0.45811 -0.71538,-0.67419 -0.0445,-0.0396 -0.0899,-0.0792 -0.13453,-0.1168 -0.25232,-0.21534 -0.50956,-0.42292 -0.77689,-0.61887 -0.038,-0.0279 -0.0773,-0.0539 -0.11533,-0.0817 -0.27828,-0.20028 -0.56154,-0.39292 -0.85595,-0.57199 -0.004,-0.003 -0.009,-0.007 -0.0149,-0.009 -0.29004,-0.17651 -0.59031,-0.33873 -0.89367,-0.49436 -0.0548,-0.0279 -0.10773,-0.0564 -0.16241,-0.0831 -0.29168,-0.14384 -0.58938,-0.27504 -0.89298,-0.39808 -0.0639,-0.026 -0.12773,-0.0519 -0.1926,-0.0765 -0.30852,-0.11933 -0.62145,-0.22849 -0.94098,-0.3252 -0.0496,-0.0149 -0.10093,-0.0285 -0.1505,-0.0429 -1.19818,-0.34827 -2.46378,-0.53904 -3.77477,-0.53904 -0.82815,0 -1.49994,0.67088 -1.49994,1.49923 v 1.50036 c 0,0.828 0.67183,1.49997 1.49994,1.49997 0.82337,0 1.61785,0.12013 2.37551,0.32703 0.23216,0.064 0.45991,0.1362 0.68445,0.21786 0.0135,0.004 0.0252,0.0107 0.038,0.0151 1.11084,0.40799 2.11733,1.02831 2.97332,1.81132 0.0371,0.0344 0.0757,0.0665 0.11187,0.10187 0.13455,0.12706 0.26404,0.25888 0.39019,0.3944 0.0555,0.0597 0.11107,0.11933 0.1648,0.18087 0.11267,0.126 0.22025,0.25377 0.32535,0.3867 0.0623,0.0792 0.122,0.16149 0.18163,0.24317 0.0944,0.12853 0.19005,0.25565 0.27758,0.3882 0.0639,0.0979 0.12027,0.19847 0.1807,0.29775 0.11773,0.19518 0.22868,0.39364 0.33137,0.59801 0.0756,0.1497 0.15127,0.29922 0.21863,0.45409 0.0471,0.10653 0.0865,0.21678 0.12947,0.32628 0.0564,0.14535 0.11187,0.29076 0.16059,0.43981 0.0371,0.11107 0.0697,0.22265 0.10186,0.33473 0.0455,0.15894 0.0865,0.32009 0.12361,0.48156 0.0244,0.10627 0.0488,0.21201 0.0688,0.32043 0.0347,0.18019 0.0599,0.36327 0.0832,0.54564 0.012,0.0971 0.0268,0.19191 0.0361,0.28931 0.0167,0.17689 0.0201,0.35671 0.0268,0.5358 0.0107,0.10267 0.0159,0.20615 0.0159,0.31129 0,1.65634 -1.34281,2.9992 -3.00024,2.9992 h -1.12514 -0.37498 c -1.65649,0 -2.9995,-1.34286 -2.9995,-2.9992 0,-0.8284 -0.67182,-1.50036 -1.50011,-1.50036 -0.82816,0 -1.49995,0.67196 -1.49995,1.50036 0,0.828 0.67184,1.49922 1.49995,1.49922 0.41471,0 0.75014,0.33617 0.75014,0.75002 0,0.41454 -0.33543,0.74996 -0.75014,0.74996 -1.65659,-8e-5 -2.9994,-1.34293 -2.9994,-2.99928 0,-1.65743 1.34281,-3.00033 2.99935,-3.00033 1.65668,0 3.00042,1.34286 3.00042,3.00033 0,0.82801 0.67086,1.49923 1.49918,1.49923 h 0.37499 1.12514 c 0.82815,0 1.50013,-0.67122 1.50013,-1.49923 0,-1.13635 -0.25981,-2.2093 -0.7123,-3.17465 -0.0385,-0.0824 -0.0765,-0.16551 -0.11866,-0.24716 -0.0555,-0.10827 -0.1152,-0.21534 -0.17561,-0.32118 -0.0455,-0.0797 -0.0944,-0.15824 -0.14294,-0.23548 -0.0613,-0.0981 -0.1236,-0.19739 -0.18912,-0.29259 -0.10094,-0.14535 -0.20785,-0.28672 -0.31785,-0.42476 -0.0657,-0.0805 -0.13454,-0.15781 -0.20269,-0.23619 -0.0807,-0.0923 -0.16311,-0.18491 -0.24808,-0.27319 -0.0697,-0.0713 -0.1395,-0.14144 -0.21187,-0.21021 -0.0916,-0.0881 -0.18749,-0.1725 -0.28346,-0.25635 -0.0613,-0.0531 -0.122,-0.10773 -0.1849,-0.15896 -0.15983,-0.1288 -0.32375,-0.25414 -0.49366,-0.3702 -0.0496,-0.0337 -0.10187,-0.0623 -0.15215,-0.0948 -0.132,-0.0849 -0.26661,-0.16916 -0.40447,-0.24646 -0.0707,-0.0396 -0.14205,-0.0765 -0.2137,-0.1136 -0.1304,-0.0681 -0.26403,-0.13107 -0.39859,-0.19193 -0.0663,-0.0292 -0.13107,-0.0604 -0.19828,-0.0881 -0.19941,-0.0813 -0.40207,-0.15712 -0.60973,-0.22265 -0.0252,-0.008 -0.0513,-0.0135 -0.0772,-0.0212 -0.18672,-0.0561 -0.37775,-0.10587 -0.57015,-0.14684 -0.0716,-0.0153 -0.14565,-0.0285 -0.21867,-0.0421 -0.15637,-0.0297 -0.31531,-0.0531 -0.47513,-0.0724 -0.0691,-0.009 -0.1362,-0.0168 -0.20602,-0.0233 -0.22959,-0.0208 -0.45992,-0.0351 -0.69466,-0.0351 -1.65645,-5e-5 -2.99927,-1.34329 -2.99927,-3.00039 v -1.50035 c 0,-1.65672 1.34282,-2.99958 2.99935,-2.99958 0.24389,0 0.48523,0.008 0.72654,0.0185 0.0875,0.004 0.17502,0.012 0.26328,0.0176 0.16059,0.0107 0.32118,0.0208 0.48007,0.0363 0.0833,0.009 0.1648,0.0183 0.24722,0.0285 0.15895,0.0183 0.31784,0.0371 0.47515,0.0604 0.094,0.0135 0.18749,0.0297 0.28085,0.0455 0.13364,0.022 0.26569,0.0455 0.39861,0.0707 0.1068,0.0213 0.21186,0.0429 0.31696,0.0656 0.13784,0.0297 0.275,0.0615 0.41032,0.0952 0.0909,0.0227 0.18089,0.0455 0.27174,0.0688 0.13364,0.0363 0.2666,0.0747 0.39933,0.1136 0.096,0.0285 0.19336,0.0564 0.28931,0.0868 0.12267,0.0384 0.24224,0.0805 0.3642,0.12347 0.1052,0.0363 0.21094,0.0713 0.31438,0.11093 0.10346,0.0388 0.2069,0.0816 0.30945,0.122 0.11187,0.0447 0.22542,0.0876 0.33636,0.13544 0.096,0.0411 0.18843,0.0849 0.28345,0.12787 0.23801,0.10773 0.47256,0.22119 0.70455,0.34057 0.0723,0.0371 0.14549,0.0732 0.21696,0.11174 0.122,0.0656 0.24132,0.13469 0.36069,0.20361 0.0776,0.0436 0.15656,0.0864 0.2331,0.13294 0.1236,0.074 0.24535,0.15194 0.36731,0.22957 0.0664,0.0429 0.13379,0.0839 0.20013,0.12774 0.11867,0.078 0.23544,0.15894 0.35062,0.24021 0.0741,0.0524 0.14879,0.1052 0.22283,0.15895 0.106,0.0777 0.21112,0.15637 0.31457,0.23544 0.0731,0.0556 0.1449,0.1128 0.21584,0.16992 0.11054,0.0889 0.22044,0.17833 0.32886,0.26988 0.0572,0.0488 0.1136,0.0979 0.16992,0.1473 0.1164,0.10186 0.23291,0.20361 0.34644,0.30945 0.0381,0.0344 0.0732,0.0699 0.11027,0.1052 1.0605,1.00487 1.9764,2.16282 2.70771,3.4394 0.009,0.0149 0.018,0.0312 0.0267,0.0468 0.0979,0.17174 0.19191,0.34569 0.2827,0.52147 0.012,0.0227 0.0227,0.0447 0.0344,0.0673 0.0915,0.17909 0.18017,0.35891 0.26441,0.54236 0.003,0.009 0.008,0.0183 0.012,0.0279 0.0881,0.19225 0.1732,0.38595 0.25302,0.58262 0,7.4e-4 0,10e-4 7.5e-4,0.003 0.41271,1.01332 0.71808,2.08192 0.9023,3.19224 0.13293,0.80273 0.20615,1.62593 0.20615,2.46716 0,0.828 0.67159,1.49922 1.49993,1.49922 h 1.49988 c 0.82834,0 1.49956,-0.67122 1.49956,-1.49922 0,-1.21434 -0.11613,-2.40088 -0.32885,-3.55364 -0.003,-0.0135 -0.004,-0.0253 -0.008,-0.0388 -0.0527,-0.28167 -0.11174,-0.56176 -0.17653,-0.83899 -0.003,-0.0107 -0.004,-0.0212 -0.007,-0.0311 -0.0629,-0.2666 -0.13107,-0.53172 -0.20431,-0.79392 -0.009,-0.0344 -0.0191,-0.0688 -0.0292,-0.1036 -0.0747,-0.26146 -0.15379,-0.51852 -0.23878,-0.77599 -0.001,-0.004 -0.003,-0.012 -0.004,-0.0176 -0.6416,-1.93061 -1.57614,-3.72617 -2.75236,-5.33636 -0.003,-0.007 -0.007,-0.0107 -0.0107,-0.016 -0.14729,-0.2011 -0.29925,-0.39773 -0.45416,-0.59292 -0.0308,-0.0384 -0.0604,-0.0788 -0.0915,-0.1176 -0.14353,-0.17909 -0.29257,-0.35487 -0.44308,-0.5288 -0.0432,-0.0499 -0.0864,-0.0992 -0.1296,-0.1491 -0.15013,-0.17065 -0.30612,-0.33873 -0.46212,-0.50463 -0.0432,-0.0455 -0.0868,-0.0915 -0.1304,-0.13694 -0.15234,-0.15821 -0.30795,-0.31347 -0.46507,-0.46583 -0.0589,-0.0564 -0.1172,-0.1128 -0.17654,-0.16916 -0.1549,-0.1461 -0.31272,-0.29075 -0.47275,-0.43283 -0.0581,-0.052 -0.1176,-0.10254 -0.17685,-0.15383 -0.15856,-0.138 -0.3193,-0.2743 -0.48335,-0.40611 -0.0755,-0.0608 -0.15125,-0.11934 -0.22781,-0.17943 -0.15379,-0.12013 -0.30833,-0.24209 -0.46651,-0.35816 -0.0784,-0.0572 -0.15821,-0.11227 -0.23803,-0.16991 -0.16404,-0.1168 -0.32811,-0.23436 -0.49507,-0.34644 -0.0367,-0.0241 -0.0724,-0.0468 -0.1088,-0.0707 -0.4237,-0.27904 -0.85765,-0.54231 -1.3033,-0.78846 -0.0235,-0.0135 -0.0468,-0.0279 -0.0707,-0.0407 -0.13294,-0.0721 -0.26895,-0.14024 -0.40351,-0.21016 -0.13875,-0.0721 -0.27666,-0.14461 -0.41708,-0.21277 -0.132,-0.0645 -0.26751,-0.1252 -0.40119,-0.18641 -0.13619,-0.0623 -0.2706,-0.12453 -0.40868,-0.1842 -0.14535,-0.0629 -0.29169,-0.1212 -0.43893,-0.1809 -0.13949,-0.0564 -0.2774,-0.11173 -0.41875,-0.1648 -0.13454,-0.0505 -0.27078,-0.0985 -0.40611,-0.14534 -0.15894,-0.0556 -0.31878,-0.11027 -0.47937,-0.16223 -0.12854,-0.0413 -0.25888,-0.0816 -0.38928,-0.1204 -0.16149,-0.0488 -0.3237,-0.094 -0.48687,-0.1377 -0.14039,-0.0381 -0.28086,-0.0752 -0.42223,-0.10946 -0.15712,-0.0384 -0.31533,-0.074 -0.47426,-0.10907 -0.14459,-0.0323 -0.28836,-0.0635 -0.43466,-0.092 -0.16569,-0.032 -0.33377,-0.0623 -0.50111,-0.0897 -0.1362,-0.0239 -0.27173,-0.0472 -0.40957,-0.0673 -0.19846,-0.0285 -0.39936,-0.0519 -0.59947,-0.0757 -0.10934,-0.012 -0.21622,-0.0267 -0.32552,-0.0376 -0.22523,-0.022 -0.45318,-0.0376 -0.68023,-0.0519 -0.094,-0.007 -0.18655,-0.0153 -0.28162,-0.0193 -0.074,-0.003 -0.14879,-0.003 -0.22371,-0.007 v -0.009 c -0.18914,-10e-4 -0.37757,-0.074 -0.52223,-0.21861 -0.29257,-0.29261 -0.29257,-0.76792 0,-1.06055 0.15984,-0.15965 0.37337,-0.22371 0.5819,-0.20947 11.22484,0.42143 20.19814,9.64945 20.19814,20.97801 z m -23.2497,-19.49975 c -0.4138,0 -0.74923,-0.33617 -0.74923,-0.75 0,-0.41456 0.33543,-0.74998 0.74923,-0.74998 0.41454,0 0.75015,0.33542 0.75015,0.74998 0,0.41383 -0.33561,0.75 -0.75015,0.75 z"
       id="path2-36-3"
       style="fill:#ff9955;fill-opacity:1;stroke-width:0.046873" />
  </g>
</svg>
