<?xml version="1.0" encoding="UTF-8" standalone="no"?>
<svg
   width="64"
   version="1.1"
   height="64"
   id="svg15"
   sodipodi:docname="folder-mac.svg"
   inkscape:version="1.1.1 (3bf5ae0d25, 2021-09-20)"
   xmlns:inkscape="http://www.inkscape.org/namespaces/inkscape"
   xmlns:sodipodi="http://sodipodi.sourceforge.net/DTD/sodipodi-0.dtd"
   xmlns:xlink="http://www.w3.org/1999/xlink"
   xmlns="http://www.w3.org/2000/svg"
   xmlns:svg="http://www.w3.org/2000/svg"
   xmlns:rdf="http://www.w3.org/1999/02/22-rdf-syntax-ns#"
   xmlns:cc="http://creativecommons.org/ns#"
   xmlns:dc="http://purl.org/dc/elements/1.1/">
  <sodipodi:namedview
     pagecolor="#ffffff"
     bordercolor="#666666"
     borderopacity="1"
     objecttolerance="10"
     gridtolerance="10"
     guidetolerance="10"
     inkscape:pageopacity="0"
     inkscape:pageshadow="2"
     inkscape:window-width="1920"
     inkscape:window-height="1015"
     id="namedview17"
     showgrid="true"
     inkscape:zoom="9.8125"
     inkscape:cx="32"
     inkscape:cy="32"
     inkscape:window-x="0"
     inkscape:window-y="0"
     inkscape:window-maximized="1"
     inkscape:current-layer="layer1"
     inkscape:document-rotation="0"
     inkscape:pagecheckerboard="0">
    <inkscape:grid
       type="xygrid"
       id="grid850" />
  </sodipodi:namedview>
  <defs
     id="defs5455">
    <linearGradient
       inkscape:collect="always"
       xlink:href="#linearGradient836"
       id="linearGradient838"
       x1="6"
       y1="50.000134"
       x2="94.005508"
       y2="50.000134"
       gradientUnits="userSpaceOnUse"
       gradientTransform="matrix(0.9780981,0,0,1,64.171715,974.03282)" />
    <linearGradient
       inkscape:collect="always"
       id="linearGradient836">
      <stop
         style="stop-color:#ffb380;stop-opacity:1"
         offset="0"
         id="stop832" />
      <stop
         style="stop-color:#20ffff;stop-opacity:1"
         offset="0.48615947"
         id="stop1390" />
      <stop
         style="stop-color:#ffaeff;stop-opacity:1"
         offset="1"
         id="stop834" />
    </linearGradient>
    <linearGradient
       inkscape:collect="always"
       xlink:href="#linearGradient836"
       id="linearGradient1025"
       x1="402.88544"
       y1="520.79797"
       x2="430.314"
       y2="520.79797"
       gradientUnits="userSpaceOnUse" />
    <linearGradient
       inkscape:collect="always"
       xlink:href="#linearGradient836"
       id="linearGradient1033"
       x1="54"
       y1="423"
       x2="793"
       y2="423"
       gradientUnits="userSpaceOnUse" />
  </defs>
  <metadata
     id="metadata5458">
    <rdf:RDF>
      <cc:Work
         rdf:about="">
        <dc:format>image/svg+xml</dc:format>
        <dc:type
           rdf:resource="http://purl.org/dc/dcmitype/StillImage" />
      </cc:Work>
    </rdf:RDF>
  </metadata>
  <g
     inkscape:label="Capa 1"
     inkscape:groupmode="layer"
     id="layer1"
     transform="translate(-384.57143,-483.798)">
    <g
       transform="matrix(0.74351172,0,0,0.74285356,332.49565,-244.90835)"
       id="g4">
      <path
         style="color:#000000;font-style:normal;font-variant:normal;font-weight:normal;font-stretch:normal;font-size:medium;line-height:normal;font-family:Sans;-inkscape-font-specification:Sans;text-indent:0;text-align:start;text-decoration:none;text-decoration-line:none;letter-spacing:normal;word-spacing:normal;text-transform:none;writing-mode:lr-tb;direction:ltr;baseline-shift:baseline;text-anchor:start;display:inline;overflow:visible;visibility:visible;opacity:1;fill:url(#linearGradient838);fill-opacity:1;fill-rule:nonzero;stroke:none;stroke-width:3.95596;marker:none;enable-background:accumulate"
         d="m 77.437168,989.03282 c -3.988712,0 -7.396866,2.85993 -7.396866,6.65625 v 56.01633 c 0,2.3649 0.836461,3.8844 2.460429,5.2631 1.623967,1.3787 3.30936,2.0641 5.459931,2.0641 h 68.370898 c 1.64145,0.029 1.59477,-2.2249 3.9e-4,-2.2488 l -68.465871,-0.04 c -2.115981,0 -3.874159,-1.4929 -3.874159,-1.4929 0,0 -1.620163,-1.2165 -1.620163,-3.5457 v -56.01633 c 0,-2.61614 1.77916,-4.29462 4.886948,-4.26047 l 24.066555,-0.0121 11.47627,10.2307 c 0.34679,0.3129 0.79077,0.759 1.25317,0.769 l 33.37023,-0.012 c 1.7015,-0.01 1.64773,-2.3444 -0.0538,-2.3717 h -32.61346 l -12.1651,-10.53101 c -0.35109,-0.30157 -0.79464,-0.46748 -1.25318,-0.46875 z m 38.818272,2.90625 c -1.55276,-0.004 -1.55586,2.67092 0.0388,2.69371 l 29.7626,-0.0408 c 3.0158,-0.004 4.32232,0.97316 5.32647,1.90993 1.00416,0.93677 2.53008,3.23008 2.53008,5.59319 v 54.9375 c 0.009,1.8591 2.19838,1.9203 2.20491,0.064 l -0.006,-55.0018 c -3.1e-4,-3.21023 -1.04994,-5.89814 -2.9343,-7.65605 -1.88434,-1.75791 -4.44981,-2.5 -7.12177,-2.5 h -29.61804 c -0.0611,-0.003 -0.12228,-0.003 -0.18339,0 z"
         id="path2-3"
         sodipodi:nodetypes="sssssccscsssccccccccsccsssccssscc" />
    </g>
    <path
       fill-rule="evenodd"
       clip-rule="evenodd"
       d="m 406.314,513.08371 c 0,-0.47335 0.38379,-0.85714 0.85714,-0.85714 0.47336,0 0.85715,0.38379 0.85715,0.85714 0,0.47336 -0.38379,0.85715 -0.85715,0.85715 -0.47335,0 -0.85714,-0.38379 -0.85714,-0.85715 z m 3.42857,0 c 0,-0.47335 0.38379,-0.85714 0.85715,-0.85714 0.47335,0 0.85714,0.38379 0.85714,0.85714 0,0.47336 -0.38379,0.85715 -0.85714,0.85715 -0.47336,0 -0.85715,-0.38379 -0.85715,-0.85715 z m 3.42857,0 c 0,-0.47335 0.38379,-0.85714 0.85715,-0.85714 0.47335,0 0.85714,0.38379 0.85714,0.85714 0,0.47336 -0.38379,0.85715 -0.85714,0.85715 -0.47336,0 -0.85715,-0.38379 -0.85715,-0.85715 z M 430.314,517.798 v 11.57143 c 0,1.89343 -1.53514,3.42857 -3.42857,3.42857 H 406.314 c -1.89343,0 -3.42857,-1.53514 -3.42857,-3.42857 v -9.42857 c 0,-0.47336 0.38379,-0.85715 0.85714,-0.85715 0.47336,0 0.85715,0.38379 0.85715,0.85715 v 9.42857 c 0,0.94671 0.76757,1.71428 1.71428,1.71428 h 20.57143 c 0.94671,0 1.71429,-0.76757 1.71429,-1.71428 v -11.14286 c 0,-0.47336 -0.38379,-0.85714 -0.85715,-0.85714 h -22.71428 c -1.18361,0 -2.14286,-0.95925 -2.14286,-2.14286 v -3 c 0,-1.89343 1.53514,-3.42857 3.42857,-3.42857 h 20.57143 c 1.89343,0 3.42857,1.53514 3.42857,3.42857 v 0.85714 c 0,0.47336 -0.38378,0.85715 -0.85714,0.85715 -0.47336,0 -0.85714,-0.38379 -0.85714,-0.85715 v -0.85714 c 0,-0.94671 -0.76758,-1.71428 -1.71429,-1.71428 H 406.314 c -0.94671,0 -1.71428,0.76757 -1.71428,1.71428 v 2.57143 c 0,0.47336 0.38378,0.85714 0.85714,0.85714 h 22.71428 c 1.18361,0 2.14286,0.95925 2.14286,2.14286 z"
       id="path2"
       style="stroke-width:0.0535714;fill:url(#linearGradient1025);fill-opacity:1.0" />
    <g
       id="g8"
       transform="matrix(0.00995025,0,0,0.00995025,412.38712,520.08904)"
       style="image-rendering:optimizeQuality;shape-rendering:geometricPrecision;text-rendering:geometricPrecision;fill-opacity:1.0;fill:url(#linearGradient1033)">
      <polygon
         class="fil0"
         points="793,21 511,423 793,825 617,825 423,549 230,825 54,825 335,423 54,21 230,21 423,298 617,21 "
         id="polygon6"
         style="fill-opacity:1.0;fill:url(#linearGradient1033)" />
    </g>
  </g>
</svg>
