<?xml version="1.0" encoding="UTF-8" standalone="no"?>
<svg
   width="64"
   version="1.1"
   height="64"
   id="svg19"
   sodipodi:docname="folder-image-people.svg"
   inkscape:version="1.1 (c68e22c387, 2021-05-23)"
   xmlns:inkscape="http://www.inkscape.org/namespaces/inkscape"
   xmlns:sodipodi="http://sodipodi.sourceforge.net/DTD/sodipodi-0.dtd"
   xmlns:xlink="http://www.w3.org/1999/xlink"
   xmlns="http://www.w3.org/2000/svg"
   xmlns:svg="http://www.w3.org/2000/svg"
   xmlns:rdf="http://www.w3.org/1999/02/22-rdf-syntax-ns#"
   xmlns:cc="http://creativecommons.org/ns#"
   xmlns:dc="http://purl.org/dc/elements/1.1/">
  <sodipodi:namedview
     pagecolor="#ffffff"
     bordercolor="#666666"
     borderopacity="1"
     objecttolerance="10"
     gridtolerance="10"
     guidetolerance="10"
     inkscape:pageopacity="0"
     inkscape:pageshadow="2"
     inkscape:window-width="1920"
     inkscape:window-height="1007"
     id="namedview21"
     showgrid="true"
     inkscape:zoom="9.8124999"
     inkscape:cx="27.261147"
     inkscape:cy="27.821656"
     inkscape:window-x="0"
     inkscape:window-y="0"
     inkscape:window-maximized="1"
     inkscape:current-layer="layer1"
     inkscape:document-rotation="0"
     inkscape:pagecheckerboard="0">
    <inkscape:grid
       type="xygrid"
       id="grid874" />
  </sodipodi:namedview>
  <defs
     id="defs5455">
    <linearGradient
       inkscape:collect="always"
       xlink:href="#linearGradient853"
       id="linearGradient854"
       gradientUnits="userSpaceOnUse"
       gradientTransform="matrix(0.72722795,0,0,0.74285133,380.20804,478.65555)"
       x1="6"
       y1="50.000134"
       x2="94.005508"
       y2="50.000134" />
    <linearGradient
       inkscape:collect="always"
       id="linearGradient853">
      <stop
         style="stop-color:#00d4aa;stop-opacity:1"
         offset="0"
         id="stop849" />
      <stop
         style="stop-color:#00e5e5;stop-opacity:1"
         offset="1"
         id="stop851" />
    </linearGradient>
    <linearGradient
       inkscape:collect="always"
       xlink:href="#linearGradient853"
       id="linearGradient1623"
       x1="402.04343"
       y1="520.79852"
       x2="431.58115"
       y2="520.79852"
       gradientUnits="userSpaceOnUse" />
  </defs>
  <metadata
     id="metadata5458">
    <rdf:RDF>
      <cc:Work
         rdf:about="">
        <dc:format>image/svg+xml</dc:format>
        <dc:type
           rdf:resource="http://purl.org/dc/dcmitype/StillImage" />
      </cc:Work>
    </rdf:RDF>
  </metadata>
  <g
     inkscape:label="Capa 1"
     inkscape:groupmode="layer"
     id="layer1"
     transform="translate(-384.57143,-483.798)">
    <path
       style="color:#000000;font-style:normal;font-variant:normal;font-weight:normal;font-stretch:normal;font-size:medium;line-height:normal;font-family:Sans;-inkscape-font-specification:Sans;text-indent:0;text-align:start;text-decoration:none;text-decoration-line:none;letter-spacing:normal;word-spacing:normal;text-transform:none;writing-mode:lr-tb;direction:ltr;baseline-shift:baseline;text-anchor:start;display:inline;overflow:visible;visibility:visible;opacity:1;fill:url(#linearGradient854);fill-opacity:1;fill-rule:nonzero;stroke:none;stroke-width:2.94001;marker:none;enable-background:accumulate"
       d="m 390.07109,489.79832 c -2.96566,0 -5.49966,2.1245 -5.49966,4.94461 v 41.61193 c 0,1.75677 0.62193,2.88553 1.82936,3.9097 1.20744,1.02417 2.46056,1.53332 4.05952,1.53332 h 50.83461 c 1.22044,0.0215 1.18574,-1.65277 2.9e-4,-1.67053 l -50.90522,-0.0296 c -1.57325,0 -2.88048,-1.10901 -2.88048,-1.10901 0,0 -1.20462,-0.90367 -1.20462,-2.63392 v -41.61194 c 0,-1.94341 1.32283,-3.19027 3.63351,-3.1649 l 17.89379,-0.009 8.53275,7.60003 c 0.25783,0.23244 0.58794,0.56382 0.93173,0.57124 l 24.81118,-0.009 c 1.26509,-0.007 1.22512,-1.74154 -0.04,-1.76182 h -24.24851 l -9.0449,-7.82312 c -0.26103,-0.22402 -0.59081,-0.34727 -0.93175,-0.34821 z m 28.86186,2.15891 c -1.15449,-0.003 -1.1568,1.98409 0.0288,2.00103 l 22.12886,-0.0304 c 2.24229,-0.003 3.21371,0.72293 3.9603,1.4188 0.74661,0.69588 1.88115,2.39954 1.88115,4.15504 v 40.8104 c 0.007,1.38103 1.63451,1.4265 1.63937,0.0475 l -0.004,-40.85816 c -2.3e-4,-2.38486 -0.78064,-4.38158 -2.18169,-5.68743 -1.40102,-1.30588 -3.30849,-1.85714 -5.29512,-1.85714 h -22.02138 c -0.0455,-0.002 -0.091,-0.002 -0.13636,0 z"
       id="path2-3-3"
       sodipodi:nodetypes="sssssccscsssccccccccsccsssccssscc" />
    <path
       d="m 427.88938,528.18269 h -0.92354 c -0.51017,0 -0.92256,-0.41377 -0.92256,-0.92216 0,-0.51023 0.41239,-0.924 0.92256,-0.924 h 0.92354 c 1.01856,0 1.8461,-0.82569 1.8461,-1.84615 v -2.76836 c 0,-0.0739 -0.0144,-0.14781 -0.0356,-0.21906 -0.007,-0.0271 -0.0203,-0.0532 -0.0311,-0.0811 -0.0131,-0.0316 -0.0248,-0.064 -0.0415,-0.0947 -0.21046,-0.42704 -0.72611,-0.8381 -1.36967,-0.9562 -0.82344,-0.30646 -1.9245,-0.4958 -3.13823,-0.4958 -1.17911,0 -2.2504,0.19067 -3.06577,0.48905 -0.41238,0.0604 -0.77521,0.24474 -1.0474,0.47643 l -0.005,-0.006 c -0.15012,0.13298 -0.34615,0.21658 -0.5625,0.21658 -0.46967,0 -0.85096,-0.38199 -0.85096,-0.8512 0,-0.33306 0.19246,-0.6184 0.46967,-0.75767 0.50031,-0.36467 1.10786,-0.67881 1.81408,-0.91275 -0.75623,-0.75271 -1.25654,-1.76319 -1.3485,-2.89275 -0.0126,-0.12485 -0.0189,-0.25062 -0.0189,-0.37771 v -2.76883 c 0,-2.03908 1.65271,-3.69231 3.69265,-3.69231 h 1.8461 c 2.03855,0 3.69219,1.65329 3.69219,3.69231 v 2.76883 c 0,0.50977 -0.41377,0.92354 -0.92348,0.92354 -0.51023,0 -0.92262,-0.41377 -0.92262,-0.92354 v -2.76883 c 0,-1.02 -0.82754,-1.84615 -1.84609,-1.84615 h -1.8461 c -1.01994,0 -1.84656,0.82615 -1.84656,1.84615 v 2.76883 c 0,1.52977 1.24033,2.76969 2.76871,2.76969 3.41095,0 6.1972,1.50992 6.43835,3.42531 0.0144,0.0865 0.0239,0.17579 0.0239,0.26775 v 2.76836 c -6e-5,2.03994 -1.65369,3.69231 -3.69225,3.69231 z m -9.70419,-7.93523 c -0.0104,0.032 -0.0226,0.0654 -0.0378,0.0965 -10e-4,9.2e-4 -10e-4,0.004 -0.002,0.005 h -0.001 c -0.14966,0.30784 -0.46102,0.52194 -0.8261,0.52194 -0.51023,0 -0.92354,-0.41377 -0.92354,-0.92354 0,-0.13206 0.0284,-0.25829 0.0784,-0.37096 l -0.003,-0.001 c 0.21768,-0.4706 0.34258,-0.99254 0.34258,-1.54558 0,-0.2055 -0.0216,-0.40656 -0.0537,-0.60398 0.0347,-0.16633 0.0537,-0.33986 0.0537,-0.51698 v -3.75773 c 0,-1.38369 -1.10198,-2.50604 -2.46173,-2.50604 h -2.46085 c -1.36021,0 -2.46219,1.12229 -2.46219,2.50604 v 3.75773 c 0,0.17712 0.0194,0.35065 0.0537,0.51698 -0.032,0.19742 -0.0537,0.39842 -0.0537,0.60398 0,2.03908 1.65363,3.693 3.69265,3.693 5.88537,0 10.68716,2.10485 11.04231,4.7606 0.0203,0.10275 0.0347,0.20821 0.0347,0.31552 v 2.30861 c 0,2.03914 -1.65363,3.69145 -3.69265,3.69145 h -14.76923 c -2.03868,-3e-5 -3.69231,-1.6524 -3.69231,-3.69147 v -2.30862 c 0,-0.10725 0.0104,-0.20821 0.0261,-0.30831 0.11989,-0.93028 0.78918,-1.78753 1.84835,-2.5114 0.15012,-0.12715 0.34119,-0.20827 0.55298,-0.20827 0.47192,0 0.85454,0.38135 0.85454,0.85373 0,0.30196 -0.15681,0.56429 -0.39346,0.71666 l 0.006,0.009 c -0.66658,0.44526 -1.04833,0.93928 -1.04833,1.44859 v 2.30862 c 0,1.01867 0.82748,1.84529 1.8461,1.84529 h 14.76923 c 1.01994,0 1.8461,-0.82662 1.8461,-1.84529 v -2.30862 c 0,-1.78488 -4.13302,-3.2299 -9.23048,-3.2299 -1.48235,0 -2.82594,-0.58685 -3.81975,-1.53514 -0.26279,-0.25061 -0.50389,-0.52915 -0.71302,-0.82754 -0.20464,-0.29094 -0.38175,-0.60374 -0.52777,-0.93184 -0.006,-0.0117 -0.0108,-0.0226 -0.0167,-0.0343 -0.0609,-0.13927 -0.11446,-0.28442 -0.16408,-0.42952 -0.0109,-0.0329 -0.0253,-0.064 -0.0356,-0.0974 -0.0419,-0.12935 -0.0739,-0.26366 -0.10592,-0.39797 -0.0122,-0.05 -0.0275,-0.0987 -0.0383,-0.15011 -0.032,-0.15323 -0.0532,-0.3101 -0.0734,-0.46696 -0.004,-0.0298 -0.0109,-0.0586 -0.0131,-0.0883 -0.0203,-0.19021 -0.0311,-0.384 -0.0311,-0.5801 0,-0.10229 0.009,-0.20059 0.0158,-0.30196 -0.007,-0.10454 -0.0158,-0.20781 -0.0158,-0.31373 V 513.107 c 0,-2.3798 1.86052,-4.308 4.15373,-4.308 h 2.76958 c 2.29454,0 4.15373,1.9282 4.15373,4.308 v 4.30714 c 0,0.10592 -0.008,0.20913 -0.0154,0.31373 0.006,0.10142 0.0154,0.19967 0.0154,0.30196 0,0.79056 -0.17354,1.53831 -0.47325,2.21844 z m -10.14133,2.85825 c 0,0.5093 -0.41377,0.92313 -0.92354,0.92313 -0.51017,0 -0.92256,-0.41383 -0.92256,-0.92313 0,-0.50931 0.41239,-0.92308 0.92256,-0.92308 0.50977,0 0.92354,0.41377 0.92354,0.92308 z"
       id="path2"
       style="stroke-width:0.0576923;fill-opacity:1.0;fill:url(#linearGradient1623)" />
  </g>
</svg>
