<?xml version="1.0" encoding="UTF-8" standalone="no"?>
<svg
   width="64"
   version="1.1"
   height="64"
   id="svg15"
   sodipodi:docname="folder-library.svg"
   inkscape:version="1.2 (dc2aedaf03, 2022-05-15)"
   xmlns:inkscape="http://www.inkscape.org/namespaces/inkscape"
   xmlns:sodipodi="http://sodipodi.sourceforge.net/DTD/sodipodi-0.dtd"
   xmlns:xlink="http://www.w3.org/1999/xlink"
   xmlns="http://www.w3.org/2000/svg"
   xmlns:svg="http://www.w3.org/2000/svg"
   xmlns:rdf="http://www.w3.org/1999/02/22-rdf-syntax-ns#"
   xmlns:cc="http://creativecommons.org/ns#"
   xmlns:dc="http://purl.org/dc/elements/1.1/">
  <sodipodi:namedview
     pagecolor="#ffffff"
     bordercolor="#666666"
     borderopacity="1"
     objecttolerance="10"
     gridtolerance="10"
     guidetolerance="10"
     inkscape:pageopacity="0"
     inkscape:pageshadow="2"
     inkscape:window-width="1920"
     inkscape:window-height="1011"
     id="namedview17"
     showgrid="true"
     inkscape:zoom="9.8125"
     inkscape:cx="29.808917"
     inkscape:cy="32"
     inkscape:window-x="0"
     inkscape:window-y="0"
     inkscape:window-maximized="1"
     inkscape:current-layer="layer1"
     inkscape:document-rotation="0"
     inkscape:pagecheckerboard="0"
     inkscape:showpageshadow="2"
     inkscape:deskcolor="#d1d1d1">
    <inkscape:grid
       type="xygrid"
       id="grid850" />
  </sodipodi:namedview>
  <defs
     id="defs5455">
    <linearGradient
       inkscape:collect="always"
       xlink:href="#linearGradient836"
       id="linearGradient838"
       x1="6"
       y1="50.000134"
       x2="94.005508"
       y2="50.000134"
       gradientUnits="userSpaceOnUse"
       gradientTransform="matrix(0.9780981,0,0,1,64.171715,974.03282)" />
    <linearGradient
       inkscape:collect="always"
       id="linearGradient836">
      <stop
         style="stop-color:#ffb380;stop-opacity:1"
         offset="0"
         id="stop832" />
      <stop
         style="stop-color:#20ffff;stop-opacity:1"
         offset="0.48615947"
         id="stop1390" />
      <stop
         style="stop-color:#ffaeff;stop-opacity:1"
         offset="1"
         id="stop834" />
    </linearGradient>
    <linearGradient
       inkscape:collect="always"
       xlink:href="#linearGradient836"
       id="linearGradient5304"
       x1="404.57144"
       y1="520.79803"
       x2="428.37677"
       y2="520.79803"
       gradientUnits="userSpaceOnUse" />
    <linearGradient
       inkscape:collect="always"
       xlink:href="#linearGradient836"
       id="linearGradient5306"
       x1="405.86282"
       y1="520.87128"
       x2="422.79965"
       y2="520.87128"
       gradientUnits="userSpaceOnUse" />
  </defs>
  <metadata
     id="metadata5458">
    <rdf:RDF>
      <cc:Work
         rdf:about="">
        <dc:format>image/svg+xml</dc:format>
        <dc:type
           rdf:resource="http://purl.org/dc/dcmitype/StillImage" />
      </cc:Work>
    </rdf:RDF>
  </metadata>
  <g
     inkscape:label="Capa 1"
     inkscape:groupmode="layer"
     id="layer1"
     transform="translate(-384.57143,-483.798)">
    <g
       transform="matrix(0.74351172,0,0,0.74285356,332.49565,-244.90835)"
       id="g4">
      <path
         style="color:#000000;font-style:normal;font-variant:normal;font-weight:normal;font-stretch:normal;font-size:medium;line-height:normal;font-family:Sans;-inkscape-font-specification:Sans;text-indent:0;text-align:start;text-decoration:none;text-decoration-line:none;letter-spacing:normal;word-spacing:normal;text-transform:none;writing-mode:lr-tb;direction:ltr;baseline-shift:baseline;text-anchor:start;display:inline;overflow:visible;visibility:visible;opacity:1;fill:url(#linearGradient838);fill-opacity:1;fill-rule:nonzero;stroke:none;stroke-width:3.95596;marker:none;enable-background:accumulate"
         d="m 77.437168,989.03282 c -3.988712,0 -7.396866,2.85993 -7.396866,6.65625 v 56.01633 c 0,2.3649 0.836461,3.8844 2.460429,5.2631 1.623967,1.3787 3.30936,2.0641 5.459931,2.0641 h 68.370898 c 1.64145,0.029 1.59477,-2.2249 3.9e-4,-2.2488 l -68.465871,-0.04 c -2.115981,0 -3.874159,-1.4929 -3.874159,-1.4929 0,0 -1.620163,-1.2165 -1.620163,-3.5457 v -56.01633 c 0,-2.61614 1.77916,-4.29462 4.886948,-4.26047 l 24.066555,-0.0121 11.47627,10.2307 c 0.34679,0.3129 0.79077,0.759 1.25317,0.769 l 33.37023,-0.012 c 1.7015,-0.01 1.64773,-2.3444 -0.0538,-2.3717 h -32.61346 l -12.1651,-10.53101 c -0.35109,-0.30157 -0.79464,-0.46748 -1.25318,-0.46875 z m 38.818272,2.90625 c -1.55276,-0.004 -1.55586,2.67092 0.0388,2.69371 l 29.7626,-0.0408 c 3.0158,-0.004 4.32232,0.97316 5.32647,1.90993 1.00416,0.93677 2.53008,3.23008 2.53008,5.59319 v 54.9375 c 0.009,1.8591 2.19838,1.9203 2.20491,0.064 l -0.006,-55.0018 c -3.1e-4,-3.21023 -1.04994,-5.89814 -2.9343,-7.65605 -1.88434,-1.75791 -4.44981,-2.5 -7.12177,-2.5 h -29.61804 c -0.0611,-0.003 -0.12228,-0.003 -0.18339,0 z"
         id="path2-3"
         sodipodi:nodetypes="sssssccscsssccccccccsccsssccssscc" />
    </g>
    <path
       d="m 428.37677,520.05068 c 0,0.41445 -0.33299,0.74979 -0.74377,0.74979 -0.41111,0 -0.7441,-0.33534 -0.7441,-0.74979 0,-0.19814 -1.24057,-1.13798 -1.53544,-1.43562 l -0.8069,-0.81354 h 0.0232 c -0.40818,-0.51366 -0.65517,-1.16502 -0.65517,-1.8753 v -3.37355 c 0,-0.41447 -0.33415,-0.75018 -0.74416,-0.75018 h -1.48786 c -0.41073,0 -0.74371,0.33577 -0.74371,0.75018 v 0.25738 c 0,0.3105 -0.24912,0.56235 -0.5578,0.56235 -0.15036,0 -0.28618,-0.0611 -0.38646,-0.15888 l -2.46658,-2.48679 c -0.58029,-0.58616 -1.52259,-0.58616 -2.10309,0 l -8.94043,9.01341 c -0.29127,0.29295 -0.43636,0.67624 -0.43636,1.06033 h 0.0157 c 0,0.82762 0.62313,1.49984 1.2423,1.49984 0.70924,0 1.73239,1.00684 1.73239,2.24949 v 5.24889 c 0,0.82817 0.66657,1.49971 1.48768,1.49971 h 2.23163 c 0.41018,0 0.74391,-0.33539 0.74391,-0.74991 v -4.87393 c 0,-1.03542 0.83215,-1.8753 1.85922,-1.8753 h 2.2309 c 1.02702,0 1.85935,0.83988 1.85935,1.8753 v 4.87393 c 0,0.41452 0.33337,0.74991 0.74374,0.74991 h 2.23164 c 0.82107,0 1.48786,-0.67154 1.48786,-1.49971 v -5.24889 c 0,-0.4137 0.33262,-0.75054 0.74299,-0.75054 0.41114,0 0.74376,0.33685 0.74376,0.75054 v 5.24889 c 0,1.65638 -1.33136,2.99934 -2.97465,2.99934 h -2.23164 c -1.23221,0 -2.23085,-1.00756 -2.23085,-2.24954 v -4.49897 c 0,-0.41449 -0.333,-0.7498 -0.74378,-0.7498 h -1.48782 c -0.41092,0 -0.74377,0.33531 -0.74377,0.7498 v 4.49897 c 0,1.24198 -0.9987,2.24954 -2.23089,2.24954 h -2.23164 c -1.64311,0 -2.97467,-1.34296 -2.97467,-2.99934 v -5.24889 c 0,-0.4137 -0.34699,-0.72344 -0.74378,-0.84354 -0.008,-0.001 -0.012,-0.007 -0.0181,-0.0107 -1.27396,-0.33828 -2.21347,-1.50484 -2.21347,-2.89551 v 0.16623 c -0.0451,-0.82233 0.23262,-1.65893 0.85579,-2.28719 l 8.94072,-9.01383 c 0.58094,-0.58579 1.34002,-0.86726 2.10145,-0.86726 0.76144,0 1.52531,0.28147 2.10636,0.86726 l 1.30772,1.31881 c 0.34175,-0.413 0.84797,-0.68173 1.4232,-0.68173 h 2.23057 c 1.02701,0 1.85936,0.83915 1.85936,1.87458 v 3.74882 c 0,0.40382 0.16013,0.7685 0.41797,1.038 l 1.70142,1.7153 c 0.58393,0.58837 0.85597,0.88127 0.85597,1.37122 z m -2.23165,2.24963 c 0.41111,0 0.74377,0.33533 0.74377,0.74985 0,0.41376 -0.33266,0.7491 -0.74377,0.7491 -0.41109,0 -0.74372,-0.33534 -0.74372,-0.7491 0,-0.41452 0.33263,-0.74985 0.74372,-0.74985 z"
       id="path2"
       style="fill:url(#linearGradient5304);fill-opacity:1.0;stroke-width:0.0466839" />
    <path
       d="M 421.91419,519.87071 H 407.1514 c -1.71812,0 -1.71812,2.00109 0,2.00109 h 14.76279 c 1.26071,0 1.09768,-2.00109 -3e-5,-2.00109 z"
       id="path12"
       style="fill:url(#linearGradient5306);fill-opacity:1.0;stroke-width:0.366054"
       sodipodi:nodetypes="ssssss" />
  </g>
</svg>
