<?xml version="1.0" encoding="UTF-8" standalone="no"?>
<svg
   width="64"
   version="1.1"
   height="64"
   id="svg17"
   sodipodi:docname="folder-activities.svg"
   inkscape:version="1.1 (c68e22c387, 2021-05-23)"
   xmlns:inkscape="http://www.inkscape.org/namespaces/inkscape"
   xmlns:sodipodi="http://sodipodi.sourceforge.net/DTD/sodipodi-0.dtd"
   xmlns:xlink="http://www.w3.org/1999/xlink"
   xmlns="http://www.w3.org/2000/svg"
   xmlns:svg="http://www.w3.org/2000/svg"
   xmlns:rdf="http://www.w3.org/1999/02/22-rdf-syntax-ns#"
   xmlns:cc="http://creativecommons.org/ns#"
   xmlns:dc="http://purl.org/dc/elements/1.1/">
  <sodipodi:namedview
     pagecolor="#ffffff"
     bordercolor="#666666"
     borderopacity="1"
     objecttolerance="10"
     gridtolerance="10"
     guidetolerance="10"
     inkscape:pageopacity="0"
     inkscape:pageshadow="2"
     inkscape:window-width="1920"
     inkscape:window-height="1007"
     id="namedview19"
     showgrid="true"
     inkscape:zoom="9.8125003"
     inkscape:cx="35.312101"
     inkscape:cy="27.719744"
     inkscape:window-x="0"
     inkscape:window-y="0"
     inkscape:window-maximized="1"
     inkscape:current-layer="layer1"
     inkscape:document-rotation="0"
     inkscape:pagecheckerboard="0">
    <inkscape:grid
       type="xygrid"
       id="grid941" />
  </sodipodi:namedview>
  <defs
     id="defs5455">
    <linearGradient
       inkscape:collect="always"
       id="linearGradient1110">
      <stop
         style="stop-color:#d38d5f;stop-opacity:1"
         offset="0"
         id="stop1106" />
      <stop
         style="stop-color:#ffdd55;stop-opacity:1"
         offset="1"
         id="stop1108" />
    </linearGradient>
    <linearGradient
       inkscape:collect="always"
       xlink:href="#linearGradient1110"
       id="linearGradient845"
       gradientUnits="userSpaceOnUse"
       gradientTransform="matrix(0.9793576,0,0,1.0003999,64.171913,973.96087)"
       x1="6"
       y1="50.000134"
       x2="94.005508"
       y2="50.000134" />
    <linearGradient
       inkscape:collect="always"
       xlink:href="#linearGradient1110"
       id="linearGradient1112"
       x1="403.87143"
       y1="520.798"
       x2="429.47143"
       y2="520.798"
       gradientUnits="userSpaceOnUse" />
  </defs>
  <metadata
     id="metadata5458">
    <rdf:RDF>
      <cc:Work
         rdf:about="">
        <dc:format>image/svg+xml</dc:format>
        <dc:type
           rdf:resource="http://purl.org/dc/dcmitype/StillImage" />
      </cc:Work>
    </rdf:RDF>
  </metadata>
  <g
     inkscape:label="Capa 1"
     inkscape:groupmode="layer"
     id="layer1"
     transform="translate(-384.57143,-483.798)">
    <g
       inkscape:label="Capa 1"
       id="layer1-9" />
    <g
       transform="matrix(0.74255505,0,0,0.74255505,332.55689,-244.56411)"
       id="g4">
      <path
         style="color:#000000;font-style:normal;font-variant:normal;font-weight:normal;font-stretch:normal;font-size:medium;line-height:normal;font-family:Sans;-inkscape-font-specification:Sans;text-indent:0;text-align:start;text-decoration:none;text-decoration-line:none;letter-spacing:normal;word-spacing:normal;text-transform:none;writing-mode:lr-tb;direction:ltr;baseline-shift:baseline;text-anchor:start;display:inline;overflow:visible;visibility:visible;opacity:1;fill:url(#linearGradient845);fill-opacity:1;fill-rule:nonzero;stroke:none;stroke-width:3.9593;marker:none;enable-background:accumulate"
         d="m 77.45445,988.96684 c -3.993848,0 -7.406391,2.86107 -7.406391,6.65891 v 56.03895 c 0,2.3658 0.837538,3.8859 2.463598,5.2652 1.626057,1.3792 3.313621,2.0649 5.466961,2.0649 h 68.458952 c 1.64356,0.029 1.59682,-2.2257 3.8e-4,-2.2497 l -68.554036,-0.04 c -2.118706,0 -3.879148,-1.4936 -3.879148,-1.4936 0,0 -1.622249,-1.2169 -1.622249,-3.5471 v -56.03895 c 0,-2.6172 1.78145,-4.29635 4.89324,-4.26218 l 24.097543,-0.0121 11.49105,10.23493 c 0.34724,0.3131 0.79179,0.7594 1.25479,0.7694 l 33.41321,-0.012 c 1.70369,-0.01 1.64984,-2.34547 -0.0539,-2.37275 H 114.82299 L 102.64222,989.4354 c -0.35154,-0.30169 -0.79566,-0.46767 -1.25479,-0.46894 z m 38.86826,2.90741 c -1.55476,-0.004 -1.55786,2.67198 0.0389,2.69478 l 29.80092,-0.0408 c 3.01968,-0.004 4.32789,0.97355 5.33333,1.9107 1.00546,0.93713 2.53334,3.23147 2.53334,5.59567 v 54.9594 c 0.009,1.8599 2.20122,1.9211 2.20776,0.064 l -0.006,-55.0237 c -3.1e-4,-3.21176 -1.0513,-5.90075 -2.93809,-7.65936 -1.88676,-1.75862 -4.45554,-2.501 -7.13094,-2.501 h -29.65618 c -0.0612,-0.003 -0.12244,-0.003 -0.18363,0 z"
         id="path2-3"
         sodipodi:nodetypes="sssssccscsssccccccccsccsssccssscc" />
    </g>
    <path
       d="m 428.67143,527.998 c -0.4418,0 -0.8,-0.3582 -0.8,-0.8 v -12.8 c 0,-0.4418 -0.3582,-0.8 -0.8,-0.8 h -1.6 c -0.4418,0 -0.8,0.3582 -0.8,0.8 v 16.4 c 0,1.1047 -0.8953,2 -2,2 h -0.8 c -1.1047,0 -2,-0.8953 -2,-2 v -8.4 c 0,-0.4418 -0.3582,-0.8 -0.8,-0.8 h -1.6 c -0.4418,0 -0.8,0.3582 -0.8,0.8 v 8.4 c 0,1.1047 -0.8953,2 -2,2 h -0.8 c -1.1047,0 -2,-0.8953 -2,-2 v -5.2 c 0,-0.4418 -0.3582,-0.8 -0.8,-0.8 h -1.6 c -0.4418,0 -0.8,0.3582 -0.8,0.8 v 5.6 c 0,0.8836 -0.71645,1.6 -1.6,1.6 -1.7672,0 -3.2,-1.4328 -3.2,-3.2 v -14.4 -5.6 c 0,-0.4418 0.3582,-0.8 0.8,-0.8 0.4418,0 0.8,0.3582 0.8,0.8 v 2.83165 2.76835 14.4 c 0,0.8836 0.6164,1.6 1.2,1.6 0.2211,0 0.4,-0.1789 0.4,-0.4 v -5.6 c 0,-1.1047 0.8953,-2 2,-2 h 2.4 c 1.1047,0 2,0.8953 2,2 v 5.2 c 0,0.4418 0.3582,0.8 0.8,0.8 0.4418,0 0.8,-0.3582 0.8,-0.8 v -8.4 c 0,-1.1047 0.8953,-2 2,-2 h 2.4 c 1.1047,0 2,0.8953 2,2 v 8.4 c 0,0.4418 0.3582,0.8 0.8,0.8 0.4418,0 0.8,-0.3582 0.8,-0.8 v -16.4 c 0,-1.1047 0.8953,-2 2,-2 h 2.4 c 1.1047,0 2,0.8953 2,2 v 13.2 c 0,0.4418 -0.3582,0.8 -0.8,0.8 z m 0,1.6 c 0.4418,0 0.8,0.3582 0.8,0.8 0,0.4418 -0.3582,0.8 -0.8,0.8 -0.4418,0 -0.8,-0.3582 -0.8,-0.8 0,-0.4418 0.3582,-0.8 0.8,-0.8 z"
       id="path2"
       style="stroke-width:0.05;fill-opacity:1;fill:url(#linearGradient1112)" />
  </g>
</svg>
