<?xml version="1.0" encoding="UTF-8" standalone="no"?>
<svg
   width="64"
   version="1.1"
   height="64"
   id="svg15"
   sodipodi:docname="folder-table.svg"
   inkscape:version="1.1.1 (3bf5ae0d25, 2021-09-20)"
   xmlns:inkscape="http://www.inkscape.org/namespaces/inkscape"
   xmlns:sodipodi="http://sodipodi.sourceforge.net/DTD/sodipodi-0.dtd"
   xmlns:xlink="http://www.w3.org/1999/xlink"
   xmlns="http://www.w3.org/2000/svg"
   xmlns:svg="http://www.w3.org/2000/svg"
   xmlns:rdf="http://www.w3.org/1999/02/22-rdf-syntax-ns#"
   xmlns:cc="http://creativecommons.org/ns#"
   xmlns:dc="http://purl.org/dc/elements/1.1/">
  <sodipodi:namedview
     pagecolor="#ffffff"
     bordercolor="#666666"
     borderopacity="1"
     objecttolerance="10"
     gridtolerance="10"
     guidetolerance="10"
     inkscape:pageopacity="0"
     inkscape:pageshadow="2"
     inkscape:window-width="1920"
     inkscape:window-height="1015"
     id="namedview17"
     showgrid="true"
     inkscape:zoom="9.8125"
     inkscape:cx="32"
     inkscape:cy="32"
     inkscape:window-x="0"
     inkscape:window-y="0"
     inkscape:window-maximized="1"
     inkscape:current-layer="layer1"
     inkscape:document-rotation="0"
     inkscape:pagecheckerboard="0">
    <inkscape:grid
       type="xygrid"
       id="grid850" />
  </sodipodi:namedview>
  <defs
     id="defs5455">
    <linearGradient
       inkscape:collect="always"
       xlink:href="#linearGradient836"
       id="linearGradient838"
       x1="6"
       y1="50.000134"
       x2="94.005508"
       y2="50.000134"
       gradientUnits="userSpaceOnUse"
       gradientTransform="matrix(0.9780981,0,0,1,64.171715,974.03282)" />
    <linearGradient
       inkscape:collect="always"
       id="linearGradient836">
      <stop
         style="stop-color:#ffb380;stop-opacity:1"
         offset="0"
         id="stop832" />
      <stop
         style="stop-color:#20ffff;stop-opacity:1"
         offset="0.48615947"
         id="stop1390" />
      <stop
         style="stop-color:#ffaeff;stop-opacity:1"
         offset="1"
         id="stop834" />
    </linearGradient>
    <linearGradient
       inkscape:collect="always"
       xlink:href="#linearGradient836"
       id="linearGradient847"
       x1="408.76718"
       y1="520.82721"
       x2="424.86771"
       y2="520.82721"
       gradientUnits="userSpaceOnUse" />
    <linearGradient
       inkscape:collect="always"
       xlink:href="#linearGradient836"
       id="linearGradient855"
       x1="404.74942"
       y1="520.80121"
       x2="428.74942"
       y2="520.80121"
       gradientUnits="userSpaceOnUse" />
  </defs>
  <metadata
     id="metadata5458">
    <rdf:RDF>
      <cc:Work
         rdf:about="">
        <dc:format>image/svg+xml</dc:format>
        <dc:type
           rdf:resource="http://purl.org/dc/dcmitype/StillImage" />
      </cc:Work>
    </rdf:RDF>
  </metadata>
  <g
     inkscape:label="Capa 1"
     inkscape:groupmode="layer"
     id="layer1"
     transform="translate(-384.57143,-483.798)">
    <g
       transform="matrix(0.74351172,0,0,0.74285356,332.49565,-244.90835)"
       id="g4">
      <path
         style="color:#000000;font-style:normal;font-variant:normal;font-weight:normal;font-stretch:normal;font-size:medium;line-height:normal;font-family:Sans;-inkscape-font-specification:Sans;text-indent:0;text-align:start;text-decoration:none;text-decoration-line:none;letter-spacing:normal;word-spacing:normal;text-transform:none;writing-mode:lr-tb;direction:ltr;baseline-shift:baseline;text-anchor:start;display:inline;overflow:visible;visibility:visible;opacity:1;fill:url(#linearGradient838);fill-opacity:1;fill-rule:nonzero;stroke:none;stroke-width:3.95596;marker:none;enable-background:accumulate"
         d="m 77.437168,989.03282 c -3.988712,0 -7.396866,2.85993 -7.396866,6.65625 v 56.01633 c 0,2.3649 0.836461,3.8844 2.460429,5.2631 1.623967,1.3787 3.30936,2.0641 5.459931,2.0641 h 68.370898 c 1.64145,0.029 1.59477,-2.2249 3.9e-4,-2.2488 l -68.465871,-0.04 c -2.115981,0 -3.874159,-1.4929 -3.874159,-1.4929 0,0 -1.620163,-1.2165 -1.620163,-3.5457 v -56.01633 c 0,-2.61614 1.77916,-4.29462 4.886948,-4.26047 l 24.066555,-0.0121 11.47627,10.2307 c 0.34679,0.3129 0.79077,0.759 1.25317,0.769 l 33.37023,-0.012 c 1.7015,-0.01 1.64773,-2.3444 -0.0538,-2.3717 h -32.61346 l -12.1651,-10.53101 c -0.35109,-0.30157 -0.79464,-0.46748 -1.25318,-0.46875 z m 38.818272,2.90625 c -1.55276,-0.004 -1.55586,2.67092 0.0388,2.69371 l 29.7626,-0.0408 c 3.0158,-0.004 4.32232,0.97316 5.32647,1.90993 1.00416,0.93677 2.53008,3.23008 2.53008,5.59319 v 54.9375 c 0.009,1.8591 2.19838,1.9203 2.20491,0.064 l -0.006,-55.0018 c -3.1e-4,-3.21023 -1.04994,-5.89814 -2.9343,-7.65605 -1.88434,-1.75791 -4.44981,-2.5 -7.12177,-2.5 h -29.61804 c -0.0611,-0.003 -0.12228,-0.003 -0.18339,0 z"
         id="path2-3"
         sodipodi:nodetypes="sssssccscsssccccccccsccsssccssscc" />
    </g>
    <path
       fill-rule="evenodd"
       clip-rule="evenodd"
       d="m 425.32171,532.80123 h -12.858 c -0.47271,0 -0.85628,-0.38465 -0.85628,-0.85715 0,-0.47378 0.38357,-0.85757 0.85628,-0.85757 h 12.858 c 0.94672,0 1.71429,-0.76757 1.71429,-1.71428 v -17.14286 c 0,-0.94672 -0.76757,-1.71386 -1.71429,-1.71386 h -17.14328 c -0.9465,0 -1.7145,0.76714 -1.7145,1.71386 v 16.28571 c 0,0.47379 -0.38336,0.85715 -0.85715,0.85715 -0.47292,0 -0.85735,-0.38336 -0.85735,-0.85715 v -16.28571 c 0,-1.89343 1.53578,-3.42814 3.429,-3.42814 h 17.14328 c 1.893,0 3.42772,1.53471 3.42772,3.42814 v 17.14286 c 0,1.89342 -1.53472,3.429 -3.42772,3.429 z m -16.28593,-1.71472 c 0.47272,0 0.85715,0.38379 0.85715,0.85757 0,0.4725 -0.38443,0.85715 -0.85715,0.85715 -0.47378,0 -0.85735,-0.38465 -0.85735,-0.85715 0,-0.47378 0.38357,-0.85757 0.85735,-0.85757 z"
       id="path2"
       style="stroke-width:0.0535714;fill-opacity:1.0;fill:url(#linearGradient855)" />
    <path
       fill-rule="evenodd"
       clip-rule="evenodd"
       d="m 422.85497,528.87673 h -3.52181 c -0.27759,0 -0.50337,-0.22552 -0.50337,-0.50312 0,-0.27809 0.22578,-0.50312 0.50337,-0.50312 h 3.27025 c 0.69475,0 1.25781,-0.56305 1.25781,-1.2578 v -3.27026 c 0,-0.2781 0.22502,-0.50362 0.50312,-0.50362 0.2781,0 0.50312,0.22552 0.50312,0.50362 v 3.52182 c 0,1.1114 -0.90109,2.01248 -2.01249,2.01248 z m -13.58426,-11.06844 c 0.27809,0 0.50324,0.22503 0.50324,0.50309 0,0.27734 -0.22515,0.50262 -0.50324,0.50262 -0.27798,0 -0.50313,-0.22528 -0.50313,-0.50262 0,-0.27806 0.22515,-0.50309 0.50313,-0.50309 z m 15.57807,2.27458 c -0.006,0.0541 -0.0151,0.10786 -0.0266,0.16018 -0.005,0.0256 -0.0129,0.0496 -0.0192,0.0746 -0.0114,0.0437 -0.0226,0.088 -0.0369,0.13068 -0.006,0.0187 -0.0133,0.0373 -0.0202,0.056 -0.0182,0.0491 -0.0364,0.0978 -0.0584,0.14472 -0.005,0.0126 -0.0118,0.0241 -0.0175,0.0364 -0.0245,0.0511 -0.0509,0.1019 -0.0793,0.15033 -0.006,0.0104 -0.0122,0.0199 -0.0181,0.03 -0.0309,0.0501 -0.0636,0.0992 -0.0987,0.14679 -0.005,0.006 -0.0106,0.0138 -0.015,0.0202 -0.0381,0.0497 -0.0779,0.0983 -0.12016,0.14395 -0.003,0.004 -0.007,0.009 -0.0111,0.0122 -0.0457,0.0496 -0.0944,0.0967 -0.14493,0.14151 -0.35474,0.312 -0.81855,0.50312 -1.32806,0.50312 v 0.0256 c -0.0813,-0.0162 -0.16559,-0.0256 -0.25156,-0.0256 h -3.52176 c -0.69472,0 -1.25778,0.56305 -1.25778,1.25776 v 3.52182 c 0,0.0859 0.01,0.1705 0.0258,0.25156 h -0.0258 c 0,0.50951 -0.19087,0.97332 -0.50312,1.32805 -0.0448,0.0506 -0.0919,0.0993 -0.1415,0.14493 -0.003,0.003 -0.007,0.006 -0.0118,0.011 -0.046,0.0422 -0.0946,0.0821 -0.14421,0.11985 -0.006,0.005 -0.0138,0.0106 -0.0201,0.0151 -0.0477,0.0349 -0.0965,0.0678 -0.14679,0.0988 -0.0104,0.006 -0.0198,0.0126 -0.0299,0.0182 -0.0485,0.0285 -0.0993,0.0546 -0.15047,0.0791 -0.0126,0.006 -0.0241,0.0126 -0.0364,0.0177 -0.0469,0.0221 -0.0954,0.0403 -0.14458,0.0584 -0.0187,0.006 -0.0373,0.0143 -0.056,0.0202 -0.0428,0.0143 -0.087,0.0256 -0.13069,0.0369 -0.0252,0.006 -0.0491,0.0138 -0.0747,0.0192 -0.0521,0.0114 -0.10615,0.0196 -0.16005,0.0265 -0.015,0.002 -0.0288,0.005 -0.0442,0.006 -0.0716,0.009 -0.14468,0.0126 -0.21826,0.0126 h -5.03087 c -1.11148,-1.1e-4 -2.0127,-0.9012 -2.0127,-2.01259 v -5.03116 c 0,-1.11152 0.90122,-2.01261 2.0127,-2.01261 h 0.50325 3.26988 c 0.69488,0 1.25781,-0.56306 1.25781,-1.2578 v -3.52182 c 0,-0.69471 -0.56293,-1.25777 -1.25781,-1.25777 h -3.52169 c -0.69471,0 -1.25767,0.56306 -1.25767,1.25777 v 1.25781 c 0,0.27785 -0.22515,0.50312 -0.50325,0.50312 -0.27798,0 -0.50312,-0.22527 -0.50312,-0.50312 v -1.50915 c 3e-5,-1.1116 0.90125,-2.0127 2.01273,-2.0127 h 4.02507 c 0.0736,0 0.14569,0.003 0.21716,0.0118 0.0166,10e-4 0.0325,0.006 0.0491,0.009 0.0529,0.006 0.10514,0.015 0.15684,0.026 0.024,0.005 0.0465,0.0126 0.0704,0.0182 0.0454,0.0114 0.0902,0.0226 0.13402,0.0373 0.018,0.006 0.0362,0.0135 0.0545,0.0199 0.049,0.0182 0.0987,0.0369 0.14615,0.0587 0.0129,0.006 0.0257,0.0118 0.0385,0.0181 0.0501,0.0239 0.0998,0.0501 0.14776,0.0784 0.0105,0.006 0.0203,0.0126 0.0305,0.0187 0.0501,0.0309 0.0993,0.0634 0.14676,0.0987 0.006,0.005 0.0139,0.0104 0.0203,0.015 0.0497,0.0378 0.0982,0.0779 0.14408,0.11983 0.003,0.003 0.007,0.007 0.012,0.011 0.0497,0.046 0.0965,0.0944 0.14137,0.14518 0.31225,0.35473 0.50325,0.81855 0.50325,1.32802 h 0.0257 c -0.0166,0.081 -0.0257,0.16534 -0.0257,0.25131 v 3.77313 c 0,1.11164 -0.90122,2.01273 -2.01223,2.01273 h -3.77367 c -0.69472,0 -1.25768,0.56318 -1.25768,1.25793 v 4.52803 c 0,0.69474 0.56293,1.2578 1.25768,1.2578 h 4.52831 c 0.69471,0 1.25768,-0.56306 1.25768,-1.2578 v -3.77422 c 0,-1.11136 0.90112,-2.01207 2.01223,-2.01207 h 3.77359 c 0.69476,0 1.25781,-0.56281 1.25781,-1.25755 v -4.52835 c 0,-0.69472 -0.56305,-1.25777 -1.25781,-1.25777 h -4.27625 c -0.27785,0 -0.50337,-0.22502 -0.50337,-0.50312 0,-0.2781 0.22552,-0.50312 0.50337,-0.50312 h 4.52777 c 1.1114,0 2.01249,0.90109 2.01249,2.0127 v 5.03093 c 0,0.0735 -0.004,0.14666 -0.0126,0.21817 -10e-4,0.0155 -0.004,0.0294 -0.006,0.0442 z"
       id="path2-3-3"
       style="stroke-width:0.0314446;fill-opacity:1.0;fill:url(#linearGradient847)" />
  </g>
</svg>
