<?xml version="1.0" encoding="UTF-8" standalone="no"?>
<svg
   width="64"
   version="1.1"
   height="64"
   id="svg17"
   sodipodi:docname="folder-mail.svg"
   inkscape:version="1.1 (c68e22c387, 2021-05-23)"
   xmlns:inkscape="http://www.inkscape.org/namespaces/inkscape"
   xmlns:sodipodi="http://sodipodi.sourceforge.net/DTD/sodipodi-0.dtd"
   xmlns:xlink="http://www.w3.org/1999/xlink"
   xmlns="http://www.w3.org/2000/svg"
   xmlns:svg="http://www.w3.org/2000/svg"
   xmlns:rdf="http://www.w3.org/1999/02/22-rdf-syntax-ns#"
   xmlns:cc="http://creativecommons.org/ns#"
   xmlns:dc="http://purl.org/dc/elements/1.1/">
  <sodipodi:namedview
     pagecolor="#ffffff"
     bordercolor="#666666"
     borderopacity="1"
     objecttolerance="10"
     gridtolerance="10"
     guidetolerance="10"
     inkscape:pageopacity="0"
     inkscape:pageshadow="2"
     inkscape:window-width="1920"
     inkscape:window-height="1007"
     id="namedview19"
     showgrid="true"
     inkscape:zoom="9.8125"
     inkscape:cx="27.261146"
     inkscape:cy="37.095541"
     inkscape:window-x="0"
     inkscape:window-y="0"
     inkscape:window-maximized="1"
     inkscape:current-layer="layer1"
     inkscape:document-rotation="0"
     inkscape:pagecheckerboard="0">
    <inkscape:grid
       type="xygrid"
       id="grid969" />
  </sodipodi:namedview>
  <defs
     id="defs5455">
    <linearGradient
       inkscape:collect="always"
       xlink:href="#linearGradient853"
       id="linearGradient854"
       gradientUnits="userSpaceOnUse"
       gradientTransform="matrix(0.72722795,0,0,0.74285133,380.20804,478.65555)"
       x1="6"
       y1="50.000134"
       x2="94.005508"
       y2="50.000134" />
    <linearGradient
       inkscape:collect="always"
       id="linearGradient853">
      <stop
         style="stop-color:#5fbcd3;stop-opacity:1"
         offset="0"
         id="stop849" />
      <stop
         style="stop-color:#aa87de;stop-opacity:1"
         offset="1"
         id="stop851" />
    </linearGradient>
    <linearGradient
       inkscape:collect="always"
       xlink:href="#linearGradient853"
       id="linearGradient1336"
       x1="401.97144"
       y1="520.79797"
       x2="431.50919"
       y2="520.79797"
       gradientUnits="userSpaceOnUse" />
  </defs>
  <metadata
     id="metadata5458">
    <rdf:RDF>
      <cc:Work
         rdf:about="">
        <dc:format>image/svg+xml</dc:format>
        <dc:type
           rdf:resource="http://purl.org/dc/dcmitype/StillImage" />
      </cc:Work>
    </rdf:RDF>
  </metadata>
  <g
     inkscape:label="Capa 1"
     inkscape:groupmode="layer"
     id="layer1"
     transform="translate(-384.57143,-483.798)">
    <path
       style="color:#000000;font-style:normal;font-variant:normal;font-weight:normal;font-stretch:normal;font-size:medium;line-height:normal;font-family:Sans;-inkscape-font-specification:Sans;text-indent:0;text-align:start;text-decoration:none;text-decoration-line:none;letter-spacing:normal;word-spacing:normal;text-transform:none;writing-mode:lr-tb;direction:ltr;baseline-shift:baseline;text-anchor:start;display:inline;overflow:visible;visibility:visible;opacity:1;fill:url(#linearGradient854);fill-opacity:1;fill-rule:nonzero;stroke:none;stroke-width:2.94001;marker:none;enable-background:accumulate"
       d="m 390.07109,489.79832 c -2.96566,0 -5.49966,2.1245 -5.49966,4.94461 v 41.61193 c 0,1.75677 0.62193,2.88553 1.82936,3.9097 1.20744,1.02417 2.46056,1.53332 4.05952,1.53332 h 50.83461 c 1.22044,0.0215 1.18574,-1.65277 2.9e-4,-1.67053 l -50.90522,-0.0296 c -1.57325,0 -2.88048,-1.10901 -2.88048,-1.10901 0,0 -1.20462,-0.90367 -1.20462,-2.63392 v -41.61194 c 0,-1.94341 1.32283,-3.19027 3.63351,-3.1649 l 17.89379,-0.009 8.53275,7.60003 c 0.25783,0.23244 0.58794,0.56382 0.93173,0.57124 l 24.81118,-0.009 c 1.26509,-0.007 1.22512,-1.74154 -0.04,-1.76182 h -24.24851 l -9.0449,-7.82312 c -0.26103,-0.22402 -0.59081,-0.34727 -0.93175,-0.34821 z m 28.86186,2.15891 c -1.15449,-0.003 -1.1568,1.98409 0.0288,2.00103 l 22.12886,-0.0304 c 2.24229,-0.003 3.21371,0.72293 3.9603,1.4188 0.74661,0.69588 1.88115,2.39954 1.88115,4.15504 v 40.8104 c 0.007,1.38103 1.63451,1.4265 1.63937,0.0475 l -0.004,-40.85816 c -2.3e-4,-2.38486 -0.78064,-4.38158 -2.18169,-5.68743 -1.40102,-1.30588 -3.30849,-1.85714 -5.29512,-1.85714 h -22.02138 c -0.0455,-0.002 -0.091,-0.002 -0.13636,0 z"
       id="path2-3-3"
       sodipodi:nodetypes="sssssccscsssccccccccsccsssccssscc" />
    <path
       fill-rule="evenodd"
       clip-rule="evenodd"
       d="m 406.6991,528.0704 c -0.36016,-0.36016 -0.36016,-0.94474 0,-1.30485 l 2.61092,-2.61092 c 0.36034,-0.36143 0.94469,-0.36143 1.30503,0 0.36034,0.36011 0.36034,0.94469 0,1.3048 l -2.61092,2.61097 c -0.36039,0.36046 -0.94469,0.36046 -1.30503,0 z m 18.77765,0 -2.61092,-2.61097 c -0.36005,-0.36011 -0.36005,-0.94469 0,-1.3048 0.36057,-0.36143 0.94463,-0.36143 1.30526,0 l 2.61097,2.61092 c 0.36,0.36011 0.36,0.94469 0,1.30485 -0.36062,0.36046 -0.9448,0.36046 -1.30531,0 z m 4.97036,-13.89162 -11.09581,10.17281 c -1.44187,1.44187 -3.77968,1.44187 -5.22166,0 l -6.51025,-6.51042 -0.41618,-0.41595 -1.77775,-1.77804 -0.007,0.002 c -0.16834,-0.2105 -0.40839,-0.38986 -0.67746,-0.38986 -0.51016,0 -0.92329,0.41335 -0.92329,0.92305 v 2.60053 1.0925 9.22956 c 0,1.02038 0.82637,1.8464 1.84634,1.8464 h 22.15251 c 1.01997,0 1.84599,-0.82602 1.84599,-1.8464 v -11.07608 c 0,-0.51021 0.41336,-0.92305 0.92358,-0.92305 0.50981,0 0.92305,0.41289 0.92305,0.92305 v 11.07608 c 0,2.03938 -1.65365,3.69303 -3.69262,3.69303 h -22.15251 c -2.0392,-6e-5 -3.69262,-1.65371 -3.69262,-3.69308 v -12.92254 c 0,-1.52881 1.24035,-2.7683 2.76957,-2.7683 0.7126,0 1.35573,0.3259 1.84628,0.79873 v -0.0158 l 8.848,8.84823 c 0.7205,0.72166 1.88938,0.72166 2.61005,0 l 11.09529,-10.17281 c 0.36155,-0.36011 0.53497,-0.83294 0.53278,-1.30479 h -0.0109 c 0,-1.01992 -0.82602,-0.92306 -1.846,-0.92306 h -19.38385 c -0.50907,0 -0.92323,-0.4133 -0.92323,-0.92351 0,-0.50971 0.41416,-0.92306 0.92323,-0.92306 h 19.38386 c 1.69328,0 3.1179,0.50705 3.55243,1.84651 v 0 c 0.31499,1.22467 0.0365,2.57579 -0.92213,3.53398 z m -25.70586,-3.53392 c -0.51016,0 -0.92329,-0.4133 -0.92329,-0.92351 0,-0.50971 0.41313,-0.92306 0.92329,-0.92306 0.50999,0 0.92305,0.4133 0.92305,0.92306 0,0.51021 -0.41306,0.92351 -0.92305,0.92351 z"
       id="path2"
       style="stroke-width:0.0576909;fill:url(#linearGradient1336);fill-opacity:1.0" />
  </g>
</svg>
