<?xml version="1.0" encoding="UTF-8" standalone="no"?>
<svg
   width="64"
   version="1.1"
   height="64"
   id="svg15"
   sodipodi:docname="folder-comic.svg"
   inkscape:version="1.2 (dc2aedaf03, 2022-05-15)"
   xmlns:inkscape="http://www.inkscape.org/namespaces/inkscape"
   xmlns:sodipodi="http://sodipodi.sourceforge.net/DTD/sodipodi-0.dtd"
   xmlns:xlink="http://www.w3.org/1999/xlink"
   xmlns="http://www.w3.org/2000/svg"
   xmlns:svg="http://www.w3.org/2000/svg"
   xmlns:rdf="http://www.w3.org/1999/02/22-rdf-syntax-ns#"
   xmlns:cc="http://creativecommons.org/ns#"
   xmlns:dc="http://purl.org/dc/elements/1.1/">
  <sodipodi:namedview
     pagecolor="#ffffff"
     bordercolor="#666666"
     borderopacity="1"
     objecttolerance="10"
     gridtolerance="10"
     guidetolerance="10"
     inkscape:pageopacity="0"
     inkscape:pageshadow="2"
     inkscape:window-width="1920"
     inkscape:window-height="1011"
     id="namedview17"
     showgrid="true"
     inkscape:zoom="9.8125"
     inkscape:cx="29.808917"
     inkscape:cy="32"
     inkscape:window-x="0"
     inkscape:window-y="0"
     inkscape:window-maximized="1"
     inkscape:current-layer="layer1"
     inkscape:document-rotation="0"
     inkscape:pagecheckerboard="0"
     inkscape:showpageshadow="2"
     inkscape:deskcolor="#d1d1d1">
    <inkscape:grid
       type="xygrid"
       id="grid850" />
  </sodipodi:namedview>
  <defs
     id="defs5455">
    <linearGradient
       inkscape:collect="always"
       xlink:href="#linearGradient836"
       id="linearGradient838"
       x1="6"
       y1="50.000134"
       x2="94.005508"
       y2="50.000134"
       gradientUnits="userSpaceOnUse"
       gradientTransform="matrix(0.9780981,0,0,1,64.171715,974.03282)" />
    <linearGradient
       inkscape:collect="always"
       id="linearGradient836">
      <stop
         style="stop-color:#ffb380;stop-opacity:1"
         offset="0"
         id="stop832" />
      <stop
         style="stop-color:#20ffff;stop-opacity:1"
         offset="0.48615947"
         id="stop1390" />
      <stop
         style="stop-color:#ffaeff;stop-opacity:1"
         offset="1"
         id="stop834" />
    </linearGradient>
    <linearGradient
       inkscape:collect="always"
       xlink:href="#linearGradient836"
       id="linearGradient3007"
       x1="403.34244"
       y1="520.79803"
       x2="430.77097"
       y2="520.79803"
       gradientUnits="userSpaceOnUse" />
  </defs>
  <metadata
     id="metadata5458">
    <rdf:RDF>
      <cc:Work
         rdf:about="">
        <dc:format>image/svg+xml</dc:format>
        <dc:type
           rdf:resource="http://purl.org/dc/dcmitype/StillImage" />
      </cc:Work>
    </rdf:RDF>
  </metadata>
  <g
     inkscape:label="Capa 1"
     inkscape:groupmode="layer"
     id="layer1"
     transform="translate(-384.57143,-483.798)">
    <g
       transform="matrix(0.74351172,0,0,0.74285356,332.49565,-244.90835)"
       id="g4">
      <path
         style="color:#000000;font-style:normal;font-variant:normal;font-weight:normal;font-stretch:normal;font-size:medium;line-height:normal;font-family:Sans;-inkscape-font-specification:Sans;text-indent:0;text-align:start;text-decoration:none;text-decoration-line:none;letter-spacing:normal;word-spacing:normal;text-transform:none;writing-mode:lr-tb;direction:ltr;baseline-shift:baseline;text-anchor:start;display:inline;overflow:visible;visibility:visible;opacity:1;fill:url(#linearGradient838);fill-opacity:1;fill-rule:nonzero;stroke:none;stroke-width:3.95596;marker:none;enable-background:accumulate"
         d="m 77.437168,989.03282 c -3.988712,0 -7.396866,2.85993 -7.396866,6.65625 v 56.01633 c 0,2.3649 0.836461,3.8844 2.460429,5.2631 1.623967,1.3787 3.30936,2.0641 5.459931,2.0641 h 68.370898 c 1.64145,0.029 1.59477,-2.2249 3.9e-4,-2.2488 l -68.465871,-0.04 c -2.115981,0 -3.874159,-1.4929 -3.874159,-1.4929 0,0 -1.620163,-1.2165 -1.620163,-3.5457 v -56.01633 c 0,-2.61614 1.77916,-4.29462 4.886948,-4.26047 l 24.066555,-0.0121 11.47627,10.2307 c 0.34679,0.3129 0.79077,0.759 1.25317,0.769 l 33.37023,-0.012 c 1.7015,-0.01 1.64773,-2.3444 -0.0538,-2.3717 h -32.61346 l -12.1651,-10.53101 c -0.35109,-0.30157 -0.79464,-0.46748 -1.25318,-0.46875 z m 38.818272,2.90625 c -1.55276,-0.004 -1.55586,2.67092 0.0388,2.69371 l 29.7626,-0.0408 c 3.0158,-0.004 4.32232,0.97316 5.32647,1.90993 1.00416,0.93677 2.53008,3.23008 2.53008,5.59319 v 54.9375 c 0.009,1.8591 2.19838,1.9203 2.20491,0.064 l -0.006,-55.0018 c -3.1e-4,-3.21023 -1.04994,-5.89814 -2.9343,-7.65605 -1.88434,-1.75791 -4.44981,-2.5 -7.12177,-2.5 h -29.61804 c -0.0611,-0.003 -0.12228,-0.003 -0.18339,0 z"
         id="path2-3"
         sodipodi:nodetypes="sssssccscsssccccccccsccsssccssscc" />
    </g>
    <path
       fill-rule="evenodd"
       clip-rule="evenodd"
       d="m 428.19992,522.51288 c -0.47336,0 -0.85757,0.38377 -0.85757,0.85628 v 0.42899 c 0,1.1836 -0.95973,2.14285 -2.14248,2.14285 -0.46832,0 -0.90107,-0.14983 -1.25346,-0.40473 -8.5e-4,0 0,0 -8.5e-4,0 l -2.03904,-1.52886 c -0.0239,-0.0184 -0.0427,-0.0327 -0.0665,-0.0511 -0.82366,-0.62529 -1.35482,-1.6155 -1.35482,-2.73005 v -1.71342 c 0,-1.18361 -0.95925,-2.14372 -2.14286,-2.14372 h -11.14256 c -1.18361,0 -2.14371,0.96011 -2.14371,2.14372 v 5.99999 c 0,0.93834 0.60728,1.72644 1.44814,2.01728 0.0337,0.0791 0.11653,0.1256 0.26641,0.1256 0.63471,0 1.71471,0.95882 1.71471,2.14242 v 0.85757 c 0,0.23604 0.19168,0.42815 0.42814,0.42815 0.0908,0 0.17454,-0.0284 0.24439,-0.0767 10e-4,0 0,8.5e-4 0,8.5e-4 l 3.60461,-2.70326 c 0.53822,-0.40763 1.2091,-0.64912 1.93735,-0.64912 h 3.21391 c 0.47335,0 0.85714,0.38336 0.85714,0.85715 0,0.47249 -0.38379,0.85628 -0.85714,0.85628 h -3.00021 c -0.49007,0 -0.94275,0.16446 -1.30285,0.44282 l -3.44261,2.58186 h -8.5e-4 c -0.35283,0.25447 -0.78558,0.40431 -1.25368,0.40431 -1.18361,0 -2.14285,-0.95883 -2.14285,-2.14242 v -0.42943 c 0,-0.4725 -0.38358,-0.85714 -0.85715,-0.85714 -0.0945,0 -0.11453,-0.0552 -0.09,-0.13646 -1.43206,-0.41098 -2.4811,-1.72723 -2.4811,-3.29169 v -6.85712 c 0,-1.89386 1.53456,-3.42814 3.42819,-3.42814 h 12.00025 c 1.89348,0 3.42905,1.53433 3.42905,3.42814 v 2.14243 c 0,0.56206 0.26994,1.06097 0.68721,1.37362 l 2.06796,1.55105 c 0.001,0 -8.6e-4,-8.7e-4 0,-8.7e-4 0.0695,0.0481 0.15402,0.0761 0.24482,0.0761 0.23647,0 0.42815,-0.19168 0.42815,-0.42813 v -0.85715 c 0,-1.1836 1.07978,-2.14285 1.71433,-2.14285 0.82661,0 1.71385,-0.95883 1.71385,-2.14242 v -5.99999 c 0,-1.18404 -0.95881,-2.14285 -2.14248,-2.14285 h -11.1431 c -1.18361,0 -2.14269,0.95881 -2.14269,2.14285 v 0.42814 c 0,0.47335 -0.38357,0.85713 -0.85736,0.85713 -0.47357,0 -0.85714,-0.38378 -0.85714,-0.85713 v -0.85757 c 0,-1.89342 1.53541,-3.42814 3.42905,-3.42814 h 11.99987 c 1.89385,0 3.42857,1.53472 3.42857,3.42814 v 6.85756 c 0,1.89343 -1.35643,3.429 -2.571,3.429 z m -6.85761,3.42812 c 0.47293,0 0.85757,0.38379 0.85757,0.85715 0,0.47379 -0.38464,0.85757 -0.85757,0.85757 -0.47336,0 -0.8572,-0.38378 -0.8572,-0.85757 0,-0.47336 0.38384,-0.85715 0.8572,-0.85715 z"
       id="path1947"
       style="fill:url(#linearGradient3007);fill-opacity:1.0;stroke-width:0.0535714" />
  </g>
</svg>
