<?xml version="1.0" encoding="UTF-8" standalone="no"?>
<svg
   width="64"
   version="1.1"
   height="64"
   id="svg15"
   sodipodi:docname="folder-rpm.svg"
   inkscape:version="1.2 (dc2aedaf03, 2022-05-15)"
   xmlns:inkscape="http://www.inkscape.org/namespaces/inkscape"
   xmlns:sodipodi="http://sodipodi.sourceforge.net/DTD/sodipodi-0.dtd"
   xmlns:xlink="http://www.w3.org/1999/xlink"
   xmlns="http://www.w3.org/2000/svg"
   xmlns:svg="http://www.w3.org/2000/svg"
   xmlns:rdf="http://www.w3.org/1999/02/22-rdf-syntax-ns#"
   xmlns:cc="http://creativecommons.org/ns#"
   xmlns:dc="http://purl.org/dc/elements/1.1/">
  <sodipodi:namedview
     pagecolor="#ffffff"
     bordercolor="#666666"
     borderopacity="1"
     objecttolerance="10"
     gridtolerance="10"
     guidetolerance="10"
     inkscape:pageopacity="0"
     inkscape:pageshadow="2"
     inkscape:window-width="1920"
     inkscape:window-height="1011"
     id="namedview17"
     showgrid="true"
     inkscape:zoom="9.8125"
     inkscape:cx="11.261147"
     inkscape:cy="32.713376"
     inkscape:window-x="0"
     inkscape:window-y="0"
     inkscape:window-maximized="1"
     inkscape:current-layer="layer1"
     inkscape:pagecheckerboard="0"
     inkscape:showpageshadow="2"
     inkscape:deskcolor="#d1d1d1">
    <inkscape:grid
       type="xygrid"
       id="grid7408" />
  </sodipodi:namedview>
  <defs
     id="defs5455">
    <linearGradient
       inkscape:collect="always"
       id="linearGradient4209">
      <stop
         style="stop-color:#eb0a42"
         id="stop4211" />
      <stop
         offset="1"
         style="stop-color:#f62459"
         id="stop4213" />
    </linearGradient>
    <linearGradient
       inkscape:collect="always"
       xlink:href="#linearGradient4209"
       id="linearGradient854"
       gradientUnits="userSpaceOnUse"
       gradientTransform="matrix(0.72722795,0,0,0.74285133,380.20804,478.65555)"
       x1="6"
       y1="50.000134"
       x2="94.005508"
       y2="50.000134" />
    <linearGradient
       inkscape:collect="always"
       xlink:href="#linearGradient4209"
       id="linearGradient7439"
       x1="404.57144"
       y1="520.79797"
       x2="428.57144"
       y2="520.79797"
       gradientUnits="userSpaceOnUse" />
  </defs>
  <metadata
     id="metadata5458">
    <rdf:RDF>
      <cc:Work
         rdf:about="">
        <dc:format>image/svg+xml</dc:format>
        <dc:type
           rdf:resource="http://purl.org/dc/dcmitype/StillImage" />
      </cc:Work>
    </rdf:RDF>
  </metadata>
  <g
     inkscape:label="Capa 1"
     inkscape:groupmode="layer"
     id="layer1"
     transform="translate(-384.57143,-483.798)">
    <path
       style="color:#000000;font-style:normal;font-variant:normal;font-weight:normal;font-stretch:normal;font-size:medium;line-height:normal;font-family:Sans;-inkscape-font-specification:Sans;text-indent:0;text-align:start;text-decoration:none;text-decoration-line:none;letter-spacing:normal;word-spacing:normal;text-transform:none;writing-mode:lr-tb;direction:ltr;baseline-shift:baseline;text-anchor:start;display:inline;overflow:visible;visibility:visible;opacity:1;fill:url(#linearGradient854);fill-opacity:1;fill-rule:nonzero;stroke:none;stroke-width:2.94001;marker:none;enable-background:accumulate"
       d="m 390.07109,489.79832 c -2.96566,0 -5.49966,2.1245 -5.49966,4.94461 v 41.61193 c 0,1.75677 0.62193,2.88553 1.82936,3.9097 1.20744,1.02417 2.46056,1.53332 4.05952,1.53332 h 50.83461 c 1.22044,0.0215 1.18574,-1.65277 2.9e-4,-1.67053 l -50.90522,-0.0296 c -1.57325,0 -2.88048,-1.10901 -2.88048,-1.10901 0,0 -1.20462,-0.90367 -1.20462,-2.63392 v -41.61194 c 0,-1.94341 1.32283,-3.19027 3.63351,-3.1649 l 17.89379,-0.009 8.53275,7.60003 c 0.25783,0.23244 0.58794,0.56382 0.93173,0.57124 l 24.81118,-0.009 c 1.26509,-0.007 1.22512,-1.74154 -0.04,-1.76182 h -24.24851 l -9.0449,-7.82312 c -0.26103,-0.22402 -0.59081,-0.34727 -0.93175,-0.34821 z m 28.86186,2.15891 c -1.15449,-0.003 -1.1568,1.98409 0.0288,2.00103 l 22.12886,-0.0304 c 2.24229,-0.003 3.21371,0.72293 3.9603,1.4188 0.74661,0.69588 1.88115,2.39954 1.88115,4.15504 v 40.8104 c 0.007,1.38103 1.63451,1.4265 1.63937,0.0475 l -0.004,-40.85816 c -2.3e-4,-2.38486 -0.78064,-4.38158 -2.18169,-5.68743 -1.40102,-1.30588 -3.30849,-1.85714 -5.29512,-1.85714 h -22.02138 c -0.0455,-0.002 -0.091,-0.002 -0.13636,0 z"
       id="path2-3"
       sodipodi:nodetypes="sssssccscsssccccccccsccsssccssscc" />
    <path
       fill-rule="evenodd"
       clip-rule="evenodd"
       d="m 407.57165,520.04765 c 0,-0.41418 0.33581,-0.75 0.75,-0.75 0.41419,0 0.75,0.33582 0.75,0.75 0,0.4142 -0.33581,0.75 -0.75,0.75 -0.41419,0 -0.75,-0.3358 -0.75,-0.75 z m 2.625,-5.25 c 0,-0.41418 0.33581,-0.75 0.75,-0.75 0.41419,0 0.75,0.33582 0.75,0.75 0,0.4142 -0.33581,0.75 -0.75,0.75 -0.41419,0 -0.75,-0.3358 -0.75,-0.75 z m 5.625,-2.25 c 0,-0.41418 0.33581,-0.75 0.75,-0.75 0.41419,0 0.75,0.33582 0.75,0.75 0,0.4142 -0.33581,0.75 -0.75,0.75 -0.41419,0 -0.75,-0.3358 -0.75,-0.75 z m 6.89944,2.46352 c 0.29808,0.29775 0.29808,0.78075 0,1.0785 l -4.85307,4.85338 c -0.29808,0.29776 -0.78074,0.29776 -1.07849,0 -0.29789,-0.29774 -0.29789,-0.78074 0,-1.07849 l 4.85305,-4.85339 c 0.29808,-0.29774 0.78076,-0.29774 1.07851,0 z m 2.10056,4.28648 c 0.41419,0 0.75,0.33582 0.75,0.75 0,0.4142 -0.33581,0.75 -0.75,0.75 -0.41419,0 -0.75,-0.3358 -0.75,-0.75 0,-0.41418 0.33581,-0.75 0.75,-0.75 z m -10.5,7.50002 h 4.5 c 0.41419,0 0.75,0.33581 0.75,0.75 0,0.41418 -0.33581,0.75 -0.75,0.75 h -4.5 c -0.41419,0 -0.75,-0.33582 -0.75,-0.75 0,-0.41419 0.33581,-0.75 0.75,-0.75 z m 2.25,6 c -3.30689,0 -6.30121,-1.33815 -8.47172,-3.50171 -0.15071,-0.13735 -0.24703,-0.33323 -0.24703,-0.55299 0,-0.41418 0.33582,-0.75 0.75,-0.75 0.21314,0 0.40448,0.0897 0.5409,0.23255 l 0.003,-0.003 c 1.90012,1.90032 4.52512,3.07548 7.42458,3.07548 5.79896,0 10.5,-4.70105 10.5,-10.50001 0,-5.79893 -4.70104,-10.5 -10.5,-10.5 -5.79895,0 -10.5,4.70107 -10.5,10.5 0,0.69399 0.0799,1.36744 0.21333,2.02149 0.2122,0.57095 0.75932,0.97851 1.40385,0.97851 h 5.97656 c 0.18826,0 0.35486,-0.0923 0.45704,-0.23437 0.004,-0.005 0.0107,-0.009 0.0176,-0.0107 0.54418,-0.75767 1.42748,-1.25496 2.43164,-1.25496 1.00416,0 1.88747,0.49729 2.43164,1.25499 0.008,10e-4 0.0139,0.005 0.0176,0.0107 0.10214,0.14206 0.26879,0.23435 0.45704,0.23435 h 3.84375 c 0.41419,0 0.75,0.33581 0.75,0.75 0,0.41419 -0.33581,0.75 -0.75,0.75 h -3.94921 c -0.63943,0 -1.203,-0.32119 -1.5414,-0.81004 -0.26695,-0.4142 -0.72984,-0.68996 -1.25939,-0.68996 -0.52955,0 -0.99244,0.27576 -1.25939,0.68996 -0.3384,0.48885 -0.90178,0.81004 -1.5414,0.81004 h -6.08202 c -1.4048,0 -2.57536,-0.96937 -2.90166,-2.27307 -0.1366,-0.72214 -0.21553,-1.46484 -0.21553,-2.22693 0,-6.62771 5.37248,-12 12,-12 6.62733,0 12,5.37229 12,12 0,6.62733 -5.37267,12 -12,12 z"
       id="path5690"
       style="fill:url(#linearGradient7439);fill-opacity:1.0;stroke-width:0.0468749" />
  </g>
</svg>
