<?xml version="1.0" encoding="UTF-8" standalone="no"?>
<svg
   width="64"
   version="1.1"
   height="64"
   viewBox="0 0 64 64"
   id="svg17"
   sodipodi:docname="folder-important.svg"
   inkscape:version="1.1 (c68e22c387, 2021-05-23)"
   xmlns:inkscape="http://www.inkscape.org/namespaces/inkscape"
   xmlns:sodipodi="http://sodipodi.sourceforge.net/DTD/sodipodi-0.dtd"
   xmlns:xlink="http://www.w3.org/1999/xlink"
   xmlns="http://www.w3.org/2000/svg"
   xmlns:svg="http://www.w3.org/2000/svg"
   xmlns:rdf="http://www.w3.org/1999/02/22-rdf-syntax-ns#"
   xmlns:cc="http://creativecommons.org/ns#"
   xmlns:dc="http://purl.org/dc/elements/1.1/">
  <sodipodi:namedview
     pagecolor="#ffffff"
     bordercolor="#666666"
     borderopacity="1"
     objecttolerance="10"
     gridtolerance="10"
     guidetolerance="10"
     inkscape:pageopacity="0"
     inkscape:pageshadow="2"
     inkscape:window-width="1920"
     inkscape:window-height="1007"
     id="namedview19"
     showgrid="true"
     inkscape:zoom="9.8125"
     inkscape:cx="31.949045"
     inkscape:cy="32"
     inkscape:window-x="0"
     inkscape:window-y="0"
     inkscape:window-maximized="1"
     inkscape:current-layer="layer1"
     inkscape:document-rotation="0"
     inkscape:pagecheckerboard="0">
    <inkscape:grid
       type="xygrid"
       id="grid945" />
  </sodipodi:namedview>
  <defs
     id="defs5455">
    <linearGradient
       inkscape:collect="always"
       id="linearGradient847">
      <stop
         style="stop-color:#ff99ff;stop-opacity:1"
         offset="0"
         id="stop843" />
      <stop
         style="stop-color:#ffccaa;stop-opacity:1"
         offset="1"
         id="stop845" />
    </linearGradient>
    <linearGradient
       inkscape:collect="always"
       id="linearGradient934">
      <stop
         style="stop-color:#ffcc00;stop-opacity:1"
         offset="0"
         id="stop930" />
      <stop
         style="stop-color:#00ffff;stop-opacity:1"
         offset="1"
         id="stop932" />
    </linearGradient>
    <linearGradient
       inkscape:collect="always"
       xlink:href="#linearGradient934"
       id="linearGradient896"
       x1="18.999359"
       y1="275"
       x2="531.00024"
       y2="275"
       gradientUnits="userSpaceOnUse" />
    <linearGradient
       inkscape:collect="always"
       xlink:href="#linearGradient847"
       id="linearGradient838"
       x1="94.01519"
       y1="52.535267"
       x2="5.8963237"
       y2="52.535267"
       gradientUnits="userSpaceOnUse"
       gradientTransform="matrix(0.9780981,0,0,1,64.250683,974.47294)" />
    <linearGradient
       inkscape:collect="always"
       xlink:href="#linearGradient847"
       id="linearGradient1405"
       x1="403.76944"
       y1="520.79797"
       x2="429.47806"
       y2="520.79797"
       gradientUnits="userSpaceOnUse" />
  </defs>
  <metadata
     id="metadata5458">
    <rdf:RDF>
      <cc:Work
         rdf:about="">
        <dc:format>image/svg+xml</dc:format>
        <dc:type
           rdf:resource="http://purl.org/dc/dcmitype/StillImage" />
      </cc:Work>
    </rdf:RDF>
  </metadata>
  <g
     inkscape:label="Capa 1"
     inkscape:groupmode="layer"
     id="layer1"
     transform="translate(-384.57143,-483.798)">
    <g
       id="g8"
       transform="matrix(0.04382217,0,0,0.04382217,404.90002,505.94467)"
       style="fill:url(#linearGradient896);fill-opacity:1" />
    <g
       transform="matrix(0.7435117,0,0,0.74285165,332.43693,-245.2334)"
       id="g4">
      <path
         style="color:#000000;font-style:normal;font-variant:normal;font-weight:normal;font-stretch:normal;font-size:medium;line-height:normal;font-family:Sans;-inkscape-font-specification:Sans;text-indent:0;text-align:start;text-decoration:none;text-decoration-line:none;letter-spacing:normal;word-spacing:normal;text-transform:none;writing-mode:lr-tb;direction:ltr;baseline-shift:baseline;text-anchor:start;display:inline;overflow:visible;visibility:visible;opacity:1;fill:url(#linearGradient838);fill-opacity:1;fill-rule:nonzero;stroke:none;stroke-width:3.95596;marker:none;enable-background:accumulate"
         d="m 77.516136,989.47294 c -3.988712,0 -7.396866,2.85993 -7.396866,6.65625 v 56.01651 c 0,2.3649 0.836461,3.8844 2.460429,5.2631 1.623967,1.3787 3.30936,2.0641 5.459931,2.0641 h 68.3709 c 1.64145,0.029 1.59477,-2.2249 3.9e-4,-2.2488 l -68.465873,-0.04 c -2.115981,0 -3.874159,-1.4929 -3.874159,-1.4929 0,0 -1.620163,-1.2165 -1.620163,-3.5457 v -56.01651 c 0,-2.61614 1.77916,-4.29462 4.886948,-4.26047 l 24.066557,-0.0121 11.47627,10.23088 c 0.34679,0.3129 0.79077,0.759 1.25317,0.769 l 33.37023,-0.012 c 1.7015,-0.01 1.64773,-2.3444 -0.0538,-2.3717 h -32.61346 l -12.1651,-10.53119 c -0.35109,-0.30157 -0.79464,-0.46748 -1.25318,-0.46875 z m 38.818274,2.90625 c -1.55276,-0.004 -1.55586,2.67092 0.0388,2.69371 l 29.7626,-0.0408 c 3.0158,-0.004 4.32232,0.97316 5.32647,1.90993 1.00416,0.93677 2.53008,3.23017 2.53008,5.59337 v 54.9375 c 0.009,1.8591 2.19838,1.9203 2.20491,0.064 l -0.006,-55.0018 c -3.1e-4,-3.21041 -1.04994,-5.89832 -2.9343,-7.65623 -1.88434,-1.75791 -4.44981,-2.5 -7.12177,-2.5 h -29.61804 c -0.0611,-0.003 -0.12228,-0.003 -0.18339,0 z"
         id="path2-3"
         sodipodi:nodetypes="sssssccscsssccccccccsccsssccssscc" />
    </g>
    <path
       d="m 414.91637,522.50787 c -0.47325,0 -0.85698,-0.38373 -0.85698,-0.85704 v -5.14195 c 0,-1.41981 1.15115,-2.57101 2.57101,-2.57101 1.41964,0 2.57084,1.1512 2.57084,2.57101 v 6.85597 c 0,0.16945 -0.0192,0.33392 -0.0506,0.49458 -0.0272,0.13269 -0.0661,0.25901 -0.11298,0.38373 -0.007,0.0184 -0.0117,0.0402 -0.0184,0.0594 -0.0557,0.14014 -0.12386,0.27364 -0.2025,0.40045 -0.002,0.004 -0.004,0.008 -0.006,0.0104 -0.082,0.12975 -0.17454,0.25237 -0.27659,0.3653 -0.47036,0.52184 -1.14536,0.85698 -1.90383,0.85698 -0.0389,0 -0.0703,0.003 -0.0962,0.01 -0.42766,0.049 -0.76077,0.4072 -0.76077,0.8474 0,0.47325 0.38374,0.85698 0.85704,0.85698 0.47309,0 0.85677,-0.38373 0.85677,-0.85698 0,-0.47331 0.38379,-0.85704 0.85704,-0.85704 0.4733,0 0.85703,0.38373 0.85703,0.85704 0,1.4198 -1.15119,2.57095 -2.57084,2.57095 -1.41981,0 -2.571,-1.15115 -2.571,-2.57095 0,-0.1695 0.0192,-0.33391 0.0506,-0.49463 0.0272,-0.13264 0.0661,-0.25901 0.11298,-0.38373 0.007,-0.0184 0.0117,-0.0401 0.0184,-0.0594 0.0557,-0.1402 0.12386,-0.27364 0.20255,-0.4005 0.002,-0.004 0.004,-0.008 0.006,-0.0104 0.082,-0.12975 0.17449,-0.25232 0.27659,-0.3653 0.47036,-0.52179 1.14531,-0.85699 1.90399,-0.85699 0.0682,0 0.1343,-0.01 0.19752,-0.0251 0.0215,-0.006 0.0408,-0.0108 0.0604,-0.0189 0.3465,-0.11009 0.59882,-0.43012 0.59882,-0.81305 v -6.85587 c 0,-0.47325 -0.38373,-0.85704 -0.85677,-0.85704 -0.47325,0 -0.85704,0.38373 -0.85704,0.85704 v 5.14195 c -1e-4,0.47331 -0.38384,0.85704 -0.85709,0.85704 z m 9.43057,10.2898 c -2.57266,-0.0155 -5.1449,-0.006 -7.71654,-0.006 -1.71403,0 -3.42799,-0.002 -5.14201,0 -0.47325,0 -0.85699,-0.38368 -0.85699,-0.85698 0,-0.47325 0.38374,-0.85698 0.85699,-0.85698 v -0.0117 c 1.66125,-8.1e-4 3.39954,0.006 5.14201,0.006 2.49466,0 4.98991,-0.0138 7.24833,0 4.51597,0.0264 4.75029,-1.16749 2.46975,-5.18594 -2.27979,-4.01888 -4.26161,-8.29716 -6.49656,-12.34277 -2.23501,-4.04524 -4.20826,-4.04524 -6.44321,0 -2.235,4.04567 -4.22727,8.32394 -6.50824,12.34277 -0.87836,1.54747 -1.41102,2.31402 -1.41102,3.90627 0,0.47325 -0.38373,0.85699 -0.85704,0.85699 -0.4733,0 -0.85698,-0.38374 -0.85698,-0.85699 v 0.12263 c -8.6e-4,-0.0406 -0.006,-0.0808 -0.006,-0.12263 0.007,-1.011 0.44314,-2.2777 1.30891,-3.79918 2.60026,-4.5674 4.77285,-9.14905 7.32125,-13.74667 2.54882,-4.59799 5.90052,-4.59799 8.44801,0 2.54882,4.59762 4.72147,9.17927 7.32178,13.74667 2.60031,4.5667 1.3253,6.8347 -3.8226,6.80454 z m -16.28659,-1.7198 c 0.47325,0 0.85703,0.38373 0.85703,0.85698 0,0.4733 -0.38373,0.85698 -0.85703,0.85698 -0.47331,0 -0.85699,-0.38368 -0.85699,-0.85698 0,-0.47325 0.38368,-0.85698 0.85699,-0.85698 z m 3.41716,1.71396"
       id="path2"
       style="stroke-width:0.0535715;fill-opacity:1.0;fill:url(#linearGradient1405)" />
  </g>
</svg>
