<?xml version="1.0" encoding="UTF-8" standalone="no"?>
<svg
   width="64"
   version="1.1"
   height="64"
   id="svg15"
   sodipodi:docname="folder-Neon.svg"
   inkscape:version="1.1 (c68e22c387, 2021-05-23)"
   xmlns:inkscape="http://www.inkscape.org/namespaces/inkscape"
   xmlns:sodipodi="http://sodipodi.sourceforge.net/DTD/sodipodi-0.dtd"
   xmlns:xlink="http://www.w3.org/1999/xlink"
   xmlns="http://www.w3.org/2000/svg"
   xmlns:svg="http://www.w3.org/2000/svg"
   xmlns:rdf="http://www.w3.org/1999/02/22-rdf-syntax-ns#"
   xmlns:cc="http://creativecommons.org/ns#"
   xmlns:dc="http://purl.org/dc/elements/1.1/">
  <sodipodi:namedview
     pagecolor="#ffffff"
     bordercolor="#666666"
     borderopacity="1"
     objecttolerance="10"
     gridtolerance="10"
     guidetolerance="10"
     inkscape:pageopacity="0"
     inkscape:pageshadow="2"
     inkscape:window-width="1920"
     inkscape:window-height="1007"
     id="namedview17"
     showgrid="true"
     inkscape:zoom="9.8125"
     inkscape:cx="31.949045"
     inkscape:cy="32"
     inkscape:window-x="0"
     inkscape:window-y="0"
     inkscape:window-maximized="1"
     inkscape:current-layer="layer1"
     inkscape:document-rotation="0"
     inkscape:pagecheckerboard="0">
    <inkscape:grid
       type="xygrid"
       id="grid933" />
  </sodipodi:namedview>
  <defs
     id="defs5455">
    <linearGradient
       inkscape:collect="always"
       id="linearGradient1017">
      <stop
         style="stop-color:#55ddff;stop-opacity:1"
         offset="0"
         id="stop1013" />
      <stop
         style="stop-color:#2a7fff;stop-opacity:1"
         offset="1"
         id="stop1015" />
    </linearGradient>
    <linearGradient
       inkscape:collect="always"
       xlink:href="#linearGradient1017"
       id="linearGradient848"
       gradientUnits="userSpaceOnUse"
       x1="5"
       y1="50"
       x2="95"
       y2="50"
       gradientTransform="matrix(0.26664918,0,0,0.26664829,403.63876,507.46627)" />
    <linearGradient
       inkscape:collect="always"
       xlink:href="#linearGradient1017"
       id="linearGradient871"
       gradientUnits="userSpaceOnUse"
       x1="5"
       y1="50"
       x2="95"
       y2="50"
       gradientTransform="matrix(0.26664918,0,0,0.26664829,403.63876,507.46627)" />
    <linearGradient
       inkscape:collect="always"
       xlink:href="#linearGradient1017"
       id="linearGradient874"
       gradientUnits="userSpaceOnUse"
       x1="5"
       y1="50"
       x2="95"
       y2="50"
       gradientTransform="matrix(0.26664918,0,0,0.26664829,403.63876,507.46627)" />
    <linearGradient
       inkscape:collect="always"
       xlink:href="#linearGradient1017"
       id="linearGradient838"
       x1="6"
       y1="50.000134"
       x2="94.005508"
       y2="50.000134"
       gradientUnits="userSpaceOnUse"
       gradientTransform="matrix(0.9780981,0,0,1,64.250683,974.47294)" />
  </defs>
  <metadata
     id="metadata5458">
    <rdf:RDF>
      <cc:Work
         rdf:about="">
        <dc:format>image/svg+xml</dc:format>
        <dc:type
           rdf:resource="http://purl.org/dc/dcmitype/StillImage" />
      </cc:Work>
    </rdf:RDF>
  </metadata>
  <g
     inkscape:label="Capa 1"
     inkscape:groupmode="layer"
     id="layer1"
     transform="translate(-384.57143,-483.798)">
    <path
       d="m 416.97123,517.68198 c -1.72121,0 -3.11659,1.39538 -3.11659,3.11662 0,1.72115 1.39538,3.11654 3.11659,3.11654 1.72119,0 3.11659,-1.39539 3.11659,-3.11654 0,-1.72124 -1.3954,-3.11662 -3.11659,-3.11662 z m -0.54078,1.00237 c -0.58422,0.14902 -1.08578,0.53908 -1.37566,1.07187 -0.0276,0.0509 -0.0804,0.0798 -0.13705,0.0798 -0.0251,0 -0.0502,-0.005 -0.074,-0.0198 -0.0749,-0.0424 -0.10271,-0.13597 -0.064,-0.21145 0.33142,-0.60793 0.9048,-1.05432 1.57271,-1.22445 0.0847,-0.0227 0.16828,0.0282 0.18935,0.11297 0.0218,0.0833 -0.0284,0.16798 -0.11296,0.18909 z"
       id="path2-6"
       style="fill:url(#linearGradient871);fill-opacity:1;stroke-width:0.266644" />
    <path
       d="m 418.05863,513.75184 c -0.0193,-0.58634 -0.49628,-1.05674 -1.0874,-1.05674 -0.59119,0 -1.06901,0.4704 -1.08742,1.05674 -3.41706,0.52555 -6.042,3.48504 -6.042,7.04676 0,3.56159 2.62518,6.52106 6.042,7.04661 0.0193,0.58641 0.49623,1.05684 1.08742,1.05684 0.59112,0 1.06895,-0.47043 1.0874,-1.05684 3.41715,-0.52555 6.04208,-3.48502 6.04208,-7.04661 0,-3.56172 -2.62493,-6.52121 -6.04208,-7.04676 z m -0.0178,13.85907 c -0.0947,-0.50662 -0.53684,-0.89058 -1.07094,-0.89058 -0.53411,0 -0.97651,0.38362 -1.07087,0.89058 -3.29546,-0.51656 -5.82461,-3.37389 -5.82461,-6.81231 0,-3.43845 2.52915,-6.29584 5.8249,-6.81235 0.0947,0.50665 0.53679,0.89062 1.0708,0.89062 0.53412,0 0.9765,-0.38371 1.07096,-0.89062 3.29521,0.51651 5.8244,3.3739 5.8244,6.81235 0,3.43842 -2.52919,6.29575 -5.82464,6.81231 z"
       id="path4"
       style="fill:url(#linearGradient874);fill-opacity:1;stroke-width:0.266644" />
    <path
       d="m 428.97045,520.7986 c 0,-0.58104 -0.45493,-1.05116 -1.02767,-1.08446 -0.2184,-2.22762 -1.10268,-4.2624 -2.45,-5.90311 0.38469,-0.42822 0.3751,-1.08496 -0.0381,-1.49717 -0.41194,-0.412 -1.06894,-0.42187 -1.49696,-0.0382 -1.64042,-1.34757 -3.67547,-2.23136 -5.90278,-2.44998 -0.032,-0.57212 -0.50371,-1.02768 -1.0848,-1.02768 -0.58096,0 -1.05114,0.45556 -1.0844,1.02768 -2.22736,0.2184 -4.26217,1.10241 -5.90279,2.44998 -0.42807,-0.38504 -1.08526,-0.37514 -1.49755,0.0382 -0.41191,0.41221 -0.42177,1.06947 -0.0373,1.49747 -1.34757,1.64041 -2.23137,3.67545 -2.44999,5.90281 -0.57278,0.0318 -1.02768,0.50342 -1.02768,1.08446 0,0.58098 0.4549,1.05113 1.02768,1.08446 0.2184,2.22728 1.10242,4.26185 2.44974,5.90238 -0.38508,0.42839 -0.37519,1.08564 0.0378,1.4979 0.41227,0.41185 1.06926,0.42173 1.49782,0.037 1.6404,1.34787 3.67545,2.23136 5.90285,2.44999 0.0318,0.57211 0.50338,1.02767 1.08441,1.02767 0.58101,0 1.05119,-0.45556 1.08442,-1.02767 2.22739,-0.2184 4.2622,-1.10212 5.90279,-2.44999 0.42862,0.38504 1.08536,0.37514 1.49756,-0.037 0.41191,-0.41226 0.42178,-1.06951 0.0377,-1.49756 1.348,-1.64038 2.23137,-3.67544 2.45,-5.90272 0.57289,-0.0318 1.02767,-0.50348 1.02767,-1.08446 z m -1.2613,1.07374 c -0.2154,2.17133 -1.07725,4.15523 -2.38993,5.75664 -0.4264,-0.30667 -1.02202,-0.27187 -1.40544,0.11229 -0.38356,0.3837 -0.4188,0.97934 -0.11229,1.40546 -1.60119,1.31268 -3.58533,2.1745 -5.75719,2.3899 -0.0804,-0.52102 -0.52901,-0.92012 -1.07324,-0.92012 -0.54425,0 -0.99145,0.3991 -1.07333,0.92012 -2.17182,-0.2154 -4.15596,-1.07722 -5.75719,-2.3899 0.30692,-0.42668 0.27197,-1.02271 -0.11218,-1.40569 -0.38346,-0.38354 -0.97939,-0.41909 -1.40578,-0.11249 -1.31271,-1.60096 -2.17477,-3.58485 -2.39022,-5.75617 0.52104,-0.081 0.92018,-0.52952 0.92018,-1.07376 0,-0.5443 -0.39914,-0.99147 -0.92018,-1.0738 0.21545,-2.17136 1.07722,-4.15496 2.38972,-5.75647 0.42662,0.30718 1.02282,0.27205 1.406,-0.11214 0.38347,-0.38341 0.41842,-0.97966 0.11224,-1.40606 1.60146,-1.31235 3.58509,-2.17422 5.75692,-2.38968 0.0804,0.52099 0.52905,0.92016 1.07329,0.92016 0.5442,0 0.99142,-0.39917 1.07329,-0.92016 2.17182,0.21546 4.15567,1.07733 5.757,2.38968 -0.30675,0.42666 -0.27213,1.02233 0.11211,1.4058 0.38339,0.3834 0.97945,0.4184 1.40582,0.11215 1.3126,1.60126 2.17445,3.58536 2.39,5.75672 -0.52105,0.0809 -0.92014,0.5295 -0.92014,1.0738 0,0.54424 0.39933,0.99138 0.92059,1.07376 z"
       id="path6"
       style="fill:url(#linearGradient848);fill-opacity:1;stroke-width:0.266644" />
    <g
       transform="matrix(0.7435117,0,0,0.74285165,332.43693,-245.2334)"
       id="g4">
      <path
         style="color:#000000;font-style:normal;font-variant:normal;font-weight:normal;font-stretch:normal;font-size:medium;line-height:normal;font-family:Sans;-inkscape-font-specification:Sans;text-indent:0;text-align:start;text-decoration:none;text-decoration-line:none;letter-spacing:normal;word-spacing:normal;text-transform:none;writing-mode:lr-tb;direction:ltr;baseline-shift:baseline;text-anchor:start;display:inline;overflow:visible;visibility:visible;opacity:1;fill:url(#linearGradient838);fill-opacity:1;fill-rule:nonzero;stroke:none;stroke-width:3.95596;marker:none;enable-background:accumulate"
         d="m 77.516136,989.47294 c -3.988712,0 -7.396866,2.85993 -7.396866,6.65625 v 56.01651 c 0,2.3649 0.836461,3.8844 2.460429,5.2631 1.623967,1.3787 3.30936,2.0641 5.459931,2.0641 h 68.3709 c 1.64145,0.029 1.59477,-2.2249 3.9e-4,-2.2488 l -68.465873,-0.04 c -2.115981,0 -3.874159,-1.4929 -3.874159,-1.4929 0,0 -1.620163,-1.2165 -1.620163,-3.5457 v -56.01651 c 0,-2.61614 1.77916,-4.29462 4.886948,-4.26047 l 24.066557,-0.0121 11.47627,10.23088 c 0.34679,0.3129 0.79077,0.759 1.25317,0.769 l 33.37023,-0.012 c 1.7015,-0.01 1.64773,-2.3444 -0.0538,-2.3717 h -32.61346 l -12.1651,-10.53119 c -0.35109,-0.30157 -0.79464,-0.46748 -1.25318,-0.46875 z m 38.818274,2.90625 c -1.55276,-0.004 -1.55586,2.67092 0.0388,2.69371 l 29.7626,-0.0408 c 3.0158,-0.004 4.32232,0.97316 5.32647,1.90993 1.00416,0.93677 2.53008,3.23017 2.53008,5.59337 v 54.9375 c 0.009,1.8591 2.19838,1.9203 2.20491,0.064 l -0.006,-55.0018 c -3.1e-4,-3.21041 -1.04994,-5.89832 -2.9343,-7.65623 -1.88434,-1.75791 -4.44981,-2.5 -7.12177,-2.5 h -29.61804 c -0.0611,-0.003 -0.12228,-0.003 -0.18339,0 z"
         id="path2-3"
         sodipodi:nodetypes="sssssccscsssccccccccsccsssccssscc" />
    </g>
  </g>
</svg>
