<?xml version="1.0" encoding="UTF-8" standalone="no"?>
<svg
   width="64"
   version="1.1"
   height="64"
   id="svg15"
   sodipodi:docname="folder-Pop_OS.svg"
   inkscape:version="1.1 (c68e22c387, 2021-05-23)"
   xmlns:inkscape="http://www.inkscape.org/namespaces/inkscape"
   xmlns:sodipodi="http://sodipodi.sourceforge.net/DTD/sodipodi-0.dtd"
   xmlns:xlink="http://www.w3.org/1999/xlink"
   xmlns="http://www.w3.org/2000/svg"
   xmlns:svg="http://www.w3.org/2000/svg"
   xmlns:rdf="http://www.w3.org/1999/02/22-rdf-syntax-ns#"
   xmlns:cc="http://creativecommons.org/ns#"
   xmlns:dc="http://purl.org/dc/elements/1.1/">
  <sodipodi:namedview
     pagecolor="#ffffff"
     bordercolor="#666666"
     borderopacity="1"
     objecttolerance="10"
     gridtolerance="10"
     guidetolerance="10"
     inkscape:pageopacity="0"
     inkscape:pageshadow="2"
     inkscape:window-width="1920"
     inkscape:window-height="1007"
     id="namedview17"
     showgrid="true"
     inkscape:zoom="9.8125"
     inkscape:cx="47.541401"
     inkscape:cy="32"
     inkscape:window-x="0"
     inkscape:window-y="0"
     inkscape:window-maximized="1"
     inkscape:current-layer="layer1"
     inkscape:document-rotation="0"
     inkscape:pagecheckerboard="0">
    <inkscape:grid
       type="xygrid"
       id="grid850" />
  </sodipodi:namedview>
  <defs
     id="defs5455">
    <linearGradient
       inkscape:collect="always"
       id="linearGradient1022">
      <stop
         style="stop-color:#55ddff;stop-opacity:1"
         offset="0"
         id="stop1018" />
      <stop
         style="stop-color:#ffd42a;stop-opacity:1"
         offset="1"
         id="stop1020" />
    </linearGradient>
    <linearGradient
       inkscape:collect="always"
       xlink:href="#linearGradient1022"
       id="linearGradient838"
       x1="6"
       y1="50.000134"
       x2="94.005508"
       y2="50.000134"
       gradientUnits="userSpaceOnUse"
       gradientTransform="matrix(0.9780981,0,0,1,64.250683,974.47294)" />
    <linearGradient
       inkscape:collect="always"
       xlink:href="#linearGradient1022"
       id="linearGradient926"
       x1="423.31808"
       y1="517.20392"
       x2="426.5556"
       y2="517.20392"
       gradientUnits="userSpaceOnUse"
       gradientTransform="matrix(1.5714297,0,0,1.5714477,-237.6279,-294.90115)" />
    <linearGradient
       inkscape:collect="always"
       xlink:href="#linearGradient1022"
       id="linearGradient928"
       x1="413.9173"
       y1="518.79504"
       x2="417.81851"
       y2="518.79504"
       gradientUnits="userSpaceOnUse"
       gradientTransform="matrix(1.5714297,0,0,1.5714477,-237.6279,-294.90115)" />
    <linearGradient
       inkscape:collect="always"
       xlink:href="#linearGradient1022"
       id="linearGradient930"
       x1="418.5582"
       y1="518.65289"
       x2="422.60925"
       y2="518.65289"
       gradientUnits="userSpaceOnUse"
       gradientTransform="matrix(1.5714297,0,0,1.5714477,-237.6279,-294.90115)" />
    <linearGradient
       inkscape:collect="always"
       xlink:href="#linearGradient1022"
       id="linearGradient932"
       x1="406.31744"
       y1="517.87299"
       x2="413.16266"
       y2="517.87299"
       gradientUnits="userSpaceOnUse"
       gradientTransform="matrix(1.5714297,0,0,1.5714477,-237.6279,-294.90115)" />
    <linearGradient
       inkscape:collect="always"
       xlink:href="#linearGradient1022"
       id="linearGradient934"
       x1="420.06085"
       y1="524.62439"
       x2="426.59094"
       y2="524.62439"
       gradientUnits="userSpaceOnUse"
       gradientTransform="matrix(1.5714297,0,0,1.5714477,-237.6279,-294.90115)" />
    <linearGradient
       inkscape:collect="always"
       xlink:href="#linearGradient1022"
       id="linearGradient936"
       x1="415.65665"
       y1="526.09137"
       x2="419.34311"
       y2="526.09137"
       gradientUnits="userSpaceOnUse"
       gradientTransform="matrix(1.5714297,0,0,1.5714477,-237.6279,-294.90115)" />
  </defs>
  <metadata
     id="metadata5458">
    <rdf:RDF>
      <cc:Work
         rdf:about="">
        <dc:format>image/svg+xml</dc:format>
        <dc:type
           rdf:resource="http://purl.org/dc/dcmitype/StillImage" />
      </cc:Work>
    </rdf:RDF>
  </metadata>
  <g
     inkscape:label="Capa 1"
     inkscape:groupmode="layer"
     id="layer1"
     transform="translate(-384.57143,-483.798)">
    <g
       transform="matrix(0.7435117,0,0,0.74285165,332.43693,-245.2334)"
       id="g4">
      <path
         style="color:#000000;font-style:normal;font-variant:normal;font-weight:normal;font-stretch:normal;font-size:medium;line-height:normal;font-family:Sans;-inkscape-font-specification:Sans;text-indent:0;text-align:start;text-decoration:none;text-decoration-line:none;letter-spacing:normal;word-spacing:normal;text-transform:none;writing-mode:lr-tb;direction:ltr;baseline-shift:baseline;text-anchor:start;display:inline;overflow:visible;visibility:visible;opacity:1;fill:url(#linearGradient838);fill-opacity:1;fill-rule:nonzero;stroke:none;stroke-width:3.95596;marker:none;enable-background:accumulate"
         d="m 77.516136,989.47294 c -3.988712,0 -7.396866,2.85993 -7.396866,6.65625 v 56.01651 c 0,2.3649 0.836461,3.8844 2.460429,5.2631 1.623967,1.3787 3.30936,2.0641 5.459931,2.0641 h 68.3709 c 1.64145,0.029 1.59477,-2.2249 3.9e-4,-2.2488 l -68.465873,-0.04 c -2.115981,0 -3.874159,-1.4929 -3.874159,-1.4929 0,0 -1.620163,-1.2165 -1.620163,-3.5457 v -56.01651 c 0,-2.61614 1.77916,-4.29462 4.886948,-4.26047 l 24.066557,-0.0121 11.47627,10.23088 c 0.34679,0.3129 0.79077,0.759 1.25317,0.769 l 33.37023,-0.012 c 1.7015,-0.01 1.64773,-2.3444 -0.0538,-2.3717 h -32.61346 l -12.1651,-10.53119 c -0.35109,-0.30157 -0.79464,-0.46748 -1.25318,-0.46875 z m 38.818274,2.90625 c -1.55276,-0.004 -1.55586,2.67092 0.0388,2.69371 l 29.7626,-0.0408 c 3.0158,-0.004 4.32232,0.97316 5.32647,1.90993 1.00416,0.93677 2.53008,3.23017 2.53008,5.59337 v 54.9375 c 0.009,1.8591 2.19838,1.9203 2.20491,0.064 l -0.006,-55.0018 c -3.1e-4,-3.21041 -1.04994,-5.89832 -2.9343,-7.65623 -1.88434,-1.75791 -4.44981,-2.5 -7.12177,-2.5 h -29.61804 c -0.0611,-0.003 -0.12228,-0.003 -0.18339,0 z"
         id="path2-3"
         sodipodi:nodetypes="sssssccscsssccccccccsccsssccssscc" />
    </g>
    <path
       style="fill:url(#linearGradient926);fill-opacity:1;stroke-width:0.0310638"
       id="path2-3-3"
       d="m 429.33889,522.76311 c -0.0608,0.24807 -0.18432,0.4677 -0.39939,0.60586 -0.33819,0.21682 -0.74995,0.15382 -1.04192,-0.1099 -0.27348,-0.24488 -0.36573,-0.65907 -0.27972,-1.01722 0.0887,-0.37377 0.37188,-0.70343 0.73455,-0.8071 0.80823,-0.22906 1.14332,0.66878 0.98648,1.32839 z m -0.49475,-2.54966 c -0.50085,-0.20424 -0.32888,-2.88865 0.12944,-6.14752 0.12949,-0.91065 0.35045,-1.34116 0.59939,-1.56102 0.35648,-0.31062 1.00493,-0.32342 1.44426,-0.25745 0.50408,0.0723 0.98665,0.31421 1.35232,0.67519 0.32272,0.32057 0.35954,0.64681 0.24882,1.07092 -0.18115,0.67519 -0.49158,1.322 -0.78981,1.95273 -0.069,0.15369 -0.68846,1.35011 -0.77128,1.49763 -1.49051,2.68158 -1.78863,2.94212 -2.21264,2.76952 z" />
    <path
       style="fill:url(#linearGradient928);fill-opacity:1;stroke-width:0.0310638"
       id="path4"
       d="m 418.7333,519.00451 c 0.29497,1.28766 0.26422,2.70044 0.008,3.71765 -0.23653,0.96079 -0.87882,1.82107 -1.89915,2.10992 -0.89451,0.25442 -1.93612,0.068 -2.57552,-0.55885 -1.05098,-1.0299 -1.6656,-3.44763 -1.39213,-5.20279 0.22135,-1.40948 0.96505,-3.21517 2.59701,-3.29388 0.10629,-0.004 0.20897,-0.002 0.31325,0.004 1.66276,0.15389 2.56932,1.58583 2.94436,3.22178 z m -3.00547,2.9295 c 0.0907,0.0179 0.18426,0.0179 0.27641,-0.008 0.31042,-0.0899 0.4887,-0.42083 0.5716,-0.74098 0.12695,-0.48672 0.1085,-1.01107 -0.0586,-1.48837 -0.0845,-0.24182 -0.20562,-0.47729 -0.39343,-0.65315 -0.66056,-0.61848 -1.3211,0.024 -1.43499,0.75672 -0.0887,0.57155 0.0414,1.23401 0.39018,1.69565 0.16294,0.2135 0.39672,0.39866 0.64565,0.44263 z" />
    <path
       style="fill:url(#linearGradient930);fill-opacity:1;stroke-width:0.0310638"
       id="path6"
       d="m 422.33206,521.73332 c -0.002,2.37658 0.23038,4.19461 -0.793,4.41134 -0.82969,0.17258 -0.80197,-0.57148 -0.86668,-1.19634 -0.2457,-2.42068 -0.47004,-6.44268 -0.56547,-8.87646 0.067,-1.04564 0.75308,-1.6861 1.46606,-1.8428 1.10021,-0.24185 2.27406,-0.17304 3.24836,0.44253 1.92695,1.21846 2.08062,3.45391 0.91279,5.27802 -0.6393,0.99537 -2.5723,1.71775 -3.40206,1.65467 z m 0.24575,-5.32838 c -0.1192,0.02 -0.31647,0.0722 -0.37187,0.19433 -0.13213,0.27942 -0.12427,2.05389 0.10847,2.79786 0.0392,0.12388 0.11776,0.2385 0.23968,0.28246 0.43642,0.16336 0.82984,-0.38315 1.00808,-0.71275 0.24891,-0.45837 0.32868,-0.99833 0.17201,-1.50093 -0.14788,-0.46769 -0.60538,-1.14607 -1.15547,-1.06097 z" />
    <path
       style="fill:url(#linearGradient932);fill-opacity:1;stroke-width:0.0310638"
       id="path8"
       d="m 411.31136,517.5853 c -0.72221,1.56079 -1.9208,2.80075 -3.5802,3.41326 0.47661,1.27163 0.96177,2.52767 1.43509,3.79592 0.26447,0.68441 0.51637,1.43489 0.28573,2.10995 -0.2397,0.69079 -1.17354,0.88227 -1.85292,0.14786 -1.30632,-1.41933 -5.72227,-10.41173 -6.04797,-11.08693 -0.27682,-0.58084 -0.69126,-1.20263 -0.67941,-1.87446 0.0217,-1.01115 1.55239,-2.03477 2.28627,-2.55885 1.02676,-0.73193 2.21285,-1.23122 3.48214,-1.23405 0.98973,0 1.83474,0.2766 2.58473,0.76593 1.14924,0.75394 1.94847,1.95605 2.24365,3.31564 0.25787,1.19643 0.20267,2.42129 -0.15703,3.2061 m -3.36495,-1.70825 c -0.25826,-0.95741 -0.84225,-1.83968 -1.57683,-2.45815 -0.15938,-0.13493 -0.33201,-0.261 -0.5312,-0.32976 -1.37691,-0.46172 -0.7807,1.89006 -0.55634,2.48367 0.31032,0.83193 0.78071,1.88369 1.41046,2.51155 0.13788,0.13778 0.30125,0.26079 0.48855,0.29837 0.28587,0.0616 0.55006,-0.145 0.69478,-0.38296 0.11772,-0.19788 0.16557,-0.43334 0.19361,-0.66239 0.0496,-0.48655 0.004,-0.98301 -0.12468,-1.46033 z" />
    <path
       style="fill:url(#linearGradient934);fill-opacity:1;stroke-width:0.0310638"
       id="path10"
       d="m 427.77581,529.53787 c -0.004,1.37853 -0.82975,2.75684 -2.64615,2.75684 -1.81617,0 -2.6613,-1.35632 -2.6613,-2.74111 0,-1.72691 1.17701,-2.79445 2.69827,-2.79445 1.76407,0.0177 2.62457,1.35325 2.60918,2.77872 z m -2.60918,-1.90892 c -1.14013,0 -1.77952,0.81016 -1.78556,1.9153 0,0.96081 0.52545,1.86192 1.76393,1.86192 1.23852,0 1.7118,-0.9764 1.7118,-1.87133 0.0179,-0.92949 -0.46701,-1.88391 -1.69017,-1.90589 z m 3.37125,3.95928 c 0,0.20418 0.004,-0.97021 0,-1.1491 h 0.83593 l 0.0609,0.71909 c 0.27363,0.16009 0.69763,0.27946 1.04491,0.27946 0.64547,0 1.31849,-0.16656 1.31849,-0.8102 -0.0217,-0.58402 -0.77141,-0.70328 -1.37679,-0.7662 -1.02954,-0.10784 -1.85929,-0.36402 -1.85929,-1.54472 0,-1.05191 1.16469,-1.57605 2.03133,-1.57605 0.69764,-0.0178 1.19241,0.0942 1.82237,0.61205 0,0.42408 -0.004,0.6752 -0.004,1.09898 h -0.80808 l -0.0496,-0.69688 c -0.32576,-0.16027 -0.66078,-0.20421 -0.91885,-0.19782 -0.55629,0.004 -1.14943,0.27304 -1.14943,0.75034 0,0.46776 0.38417,0.59652 1.06638,0.69712 1.1126,0.15079 2.18506,0.40805 2.18506,1.6201 -0.004,1.32491 -1.22315,1.67358 -2.26801,1.67358 -0.79593,0.002 -1.29383,-0.14797 -1.9238,-0.70975 z"
       inkscape:connector-curvature="0" />
    <path
       style="fill:url(#linearGradient936);fill-opacity:1;stroke-width:0.0310638"
       id="path12"
       d="m 421.34045,531.84268 c 0,0.24178 -0.19063,0.43633 -0.42709,0.43633 h -4.93877 c -0.23667,0 -0.42704,-0.19455 -0.42704,-0.43633 v -0.0396 c 0,-0.24185 0.19037,-0.43623 0.42704,-0.43623 h 4.93877 c 0.23646,0 0.42709,0.19438 0.42709,0.43623 z"
       inkscape:connector-curvature="0" />
  </g>
</svg>
