<?xml version="1.0" encoding="UTF-8" standalone="no"?>
<svg
   width="64"
   version="1.1"
   height="64"
   id="svg17"
   sodipodi:docname="folder-network.svg"
   inkscape:version="1.1 (c68e22c387, 2021-05-23)"
   xmlns:inkscape="http://www.inkscape.org/namespaces/inkscape"
   xmlns:sodipodi="http://sodipodi.sourceforge.net/DTD/sodipodi-0.dtd"
   xmlns:xlink="http://www.w3.org/1999/xlink"
   xmlns="http://www.w3.org/2000/svg"
   xmlns:svg="http://www.w3.org/2000/svg"
   xmlns:rdf="http://www.w3.org/1999/02/22-rdf-syntax-ns#"
   xmlns:cc="http://creativecommons.org/ns#"
   xmlns:dc="http://purl.org/dc/elements/1.1/">
  <sodipodi:namedview
     pagecolor="#ffffff"
     bordercolor="#666666"
     borderopacity="1"
     objecttolerance="10"
     gridtolerance="10"
     guidetolerance="10"
     inkscape:pageopacity="0"
     inkscape:pageshadow="2"
     inkscape:window-width="1920"
     inkscape:window-height="1007"
     id="namedview19"
     showgrid="true"
     inkscape:zoom="8"
     inkscape:cx="28.5625"
     inkscape:cy="30.75"
     inkscape:window-x="0"
     inkscape:window-y="0"
     inkscape:window-maximized="1"
     inkscape:current-layer="layer1"
     inkscape:document-rotation="0"
     inkscape:lockguides="false"
     inkscape:pagecheckerboard="0">
    <inkscape:grid
       type="xygrid"
       id="grid896" />
  </sodipodi:namedview>
  <defs
     id="defs5455">
    <linearGradient
       inkscape:collect="always"
       id="linearGradient2187">
      <stop
         style="stop-color:#37c837;stop-opacity:1"
         offset="0"
         id="stop2183" />
      <stop
         style="stop-color:#00ffff;stop-opacity:1"
         offset="1"
         id="stop2185" />
    </linearGradient>
    <linearGradient
       inkscape:collect="always"
       xlink:href="#linearGradient2187"
       id="linearGradient1771"
       x1="384.57143"
       y1="515.78767"
       x2="448.48907"
       y2="515.78767"
       gradientUnits="userSpaceOnUse"
       gradientTransform="matrix(1.0012891,0,0,1.000399,-0.49577362,-0.19542669)" />
    <linearGradient
       inkscape:collect="always"
       xlink:href="#linearGradient2187"
       id="linearGradient1306"
       x1="401.87143"
       y1="520.79797"
       x2="431.39539"
       y2="520.79797"
       gradientUnits="userSpaceOnUse" />
  </defs>
  <metadata
     id="metadata5458">
    <rdf:RDF>
      <cc:Work
         rdf:about="">
        <dc:format>image/svg+xml</dc:format>
        <dc:type
           rdf:resource="http://purl.org/dc/dcmitype/StillImage" />
      </cc:Work>
    </rdf:RDF>
  </metadata>
  <g
     inkscape:label="Capa 1"
     inkscape:groupmode="layer"
     id="layer1"
     transform="translate(-384.57143,-483.798)">
    <path
       style="color:#000000;font-style:normal;font-variant:normal;font-weight:normal;font-stretch:normal;font-size:medium;line-height:normal;font-family:Sans;-inkscape-font-specification:Sans;text-indent:0;text-align:start;text-decoration:none;text-decoration-line:none;letter-spacing:normal;word-spacing:normal;text-transform:none;writing-mode:lr-tb;direction:ltr;baseline-shift:baseline;text-anchor:start;display:inline;overflow:visible;visibility:visible;opacity:1;fill:url(#linearGradient1771);fill-opacity:1;fill-rule:nonzero;stroke:none;stroke-width:2.94001;marker:none;enable-background:accumulate"
       d="m 390.07109,489.79832 c -2.96566,0 -5.49966,2.1245 -5.49966,4.94461 v 41.61193 c 0,1.75677 0.62193,2.88553 1.82936,3.9097 1.20744,1.02417 2.46056,1.53332 4.05952,1.53332 h 50.83461 c 1.22044,0.0215 1.18574,-1.65277 2.9e-4,-1.67053 l -50.90522,-0.0296 c -1.57325,0 -2.88048,-1.10901 -2.88048,-1.10901 0,0 -1.20462,-0.90367 -1.20462,-2.63392 v -41.61194 c 0,-1.94341 1.32283,-3.19027 3.63351,-3.1649 l 17.89379,-0.009 8.53275,7.60003 c 0.25783,0.23244 0.58794,0.56382 0.93173,0.57124 l 24.81118,-0.009 c 1.26509,-0.007 1.22512,-1.74154 -0.04,-1.76182 h -24.24851 l -9.0449,-7.82312 c -0.26103,-0.22402 -0.59081,-0.34727 -0.93175,-0.34821 z m 28.86186,2.15891 c -1.15449,-0.003 -1.1568,1.98409 0.0288,2.00103 l 22.12886,-0.0304 c 2.24229,-0.003 3.21371,0.72293 3.9603,1.4188 0.74661,0.69588 1.88115,2.39954 1.88115,4.15504 v 40.8104 c 0.007,1.38103 1.63451,1.4265 1.63937,0.0475 l -0.004,-40.85816 c -2.3e-4,-2.38486 -0.78064,-4.38158 -2.18169,-5.68743 -1.40102,-1.30588 -3.30849,-1.85714 -5.29512,-1.85714 h -22.02138 c -0.0455,-0.002 -0.091,-0.002 -0.13636,0 z"
       id="path2-3"
       sodipodi:nodetypes="sssssccscsssccccccccsccsssccssscc" />
    <path
       d="m 430.31385,519.69007 -0.65296,0.65302 c -1.08061,1.08153 -2.83363,1.08153 -3.91516,0 l -0.6521,-0.65302 c -4.68574,-4.68574 -12.28286,-4.68574 -16.96866,0 -0.7201,0.72149 -0.7201,1.89047 0,2.61057 l 0.65296,0.65296 c 0.36051,0.36005 0.94454,0.36005 1.30505,0 0.0586,-0.0577 0.45292,-0.45332 0.6525,-0.65296 3.24415,-3.24375 8.50383,-3.24375 11.74752,0 1.44205,1.44205 1.44205,3.31764 0,4.75923 l -0.65296,0.65296 c -1.0775,1.0775 -2.82284,1.07975 -3.90346,0.01 h -0.0216 c -0.31136,-0.28391 -0.7359,-0.46238 -1.26698,-0.46238 -1.01982,0 -1.84583,0.82739 -1.84583,1.84628 0,0.12621 0.0126,0.24965 0.037,0.36905 0.004,0.0144 0.009,0.0275 0.0126,0.0419 0.0167,0.0716 0.0405,0.14104 0.0649,0.20956 0.0901,0.21631 0.22127,0.41999 0.39749,0.5962 0.0419,0.0419 0.0626,0.0951 0.0947,0.14288 0.3281,0.29966 0.76071,0.48672 1.23924,0.48672 0.51037,0 0.92361,0.41278 0.92361,0.92292 0,0.50875 -0.41324,0.92198 -0.92361,0.92198 -1.78814,0 -3.27974,-1.27258 -3.61862,-2.95977 -0.2722,-1.19644 0.0478,-2.49925 0.97967,-3.43116 1.44113,-1.44072 3.77886,-1.44072 5.22045,0 0.36052,0.36143 0.94455,0.36143 1.30598,0 l 0.65163,-0.65163 c 0.72149,-0.72149 0.72149,-1.4281 0,-2.14958 -2.52226,-2.52267 -6.61295,-2.52267 -9.13654,0 l -0.65209,0.6525 c -1.08154,1.082 -2.83455,1.082 -3.91517,0 l -0.65296,-0.65249 c -1.35195,-1.35102 -1.43576,-3.48976 -0.25368,-4.9404 0.0874,-0.0919 0.16358,-0.18972 0.25368,-0.27988 5.4059,-5.40636 14.17195,-5.40636 19.57785,0 0.0901,0.0901 0.56598,0.56062 0.65296,0.65297 0.36052,0.36005 0.94455,0.36005 1.30506,0 l 0.65296,-0.65297 c 0.7201,-0.72148 0.7201,-1.89041 0,-2.61057 -6.51714,-6.51714 -16.88837,-6.82764 -23.77641,-0.93866 l -0.01,-0.0108 c -0.16266,0.14467 -0.37585,0.23569 -0.61195,0.23569 -0.50875,0 -0.92291,-0.41277 -0.92291,-0.92291 0,-0.33888 0.18522,-0.63133 0.45603,-0.7918 7.61443,-6.41528 18.99965,-6.04756 26.16981,1.12347 1.44205,1.44119 1.44205,3.77864 0,5.22022 z m -27.51951,-1.6579 c -0.51014,0 -0.92291,-0.41323 -0.92291,-0.92337 0,-0.50968 0.41277,-0.92291 0.92291,-0.92291 0.51014,0 0.92291,0.41323 0.92291,0.92291 0,0.51014 -0.41277,0.92337 -0.92291,0.92337 z"
       id="path2"
       style="stroke-width:0.057682;fill-opacity:1.0;fill:url(#linearGradient1306)" />
  </g>
</svg>
