<?xml version="1.0" encoding="UTF-8" standalone="no"?>
<svg
   width="64"
   version="1.1"
   height="64"
   id="svg15"
   sodipodi:docname="folder-notes.svg"
   inkscape:version="1.1.1 (3bf5ae0d25, 2021-09-20)"
   xmlns:inkscape="http://www.inkscape.org/namespaces/inkscape"
   xmlns:sodipodi="http://sodipodi.sourceforge.net/DTD/sodipodi-0.dtd"
   xmlns:xlink="http://www.w3.org/1999/xlink"
   xmlns="http://www.w3.org/2000/svg"
   xmlns:svg="http://www.w3.org/2000/svg"
   xmlns:rdf="http://www.w3.org/1999/02/22-rdf-syntax-ns#"
   xmlns:cc="http://creativecommons.org/ns#"
   xmlns:dc="http://purl.org/dc/elements/1.1/">
  <sodipodi:namedview
     pagecolor="#ffffff"
     bordercolor="#666666"
     borderopacity="1"
     objecttolerance="10"
     gridtolerance="10"
     guidetolerance="10"
     inkscape:pageopacity="0"
     inkscape:pageshadow="2"
     inkscape:window-width="1920"
     inkscape:window-height="1015"
     id="namedview17"
     showgrid="true"
     inkscape:zoom="9.8125"
     inkscape:cx="32"
     inkscape:cy="32"
     inkscape:window-x="0"
     inkscape:window-y="0"
     inkscape:window-maximized="1"
     inkscape:current-layer="layer1"
     inkscape:document-rotation="0"
     inkscape:pagecheckerboard="0">
    <inkscape:grid
       type="xygrid"
       id="grid850" />
  </sodipodi:namedview>
  <defs
     id="defs5455">
    <linearGradient
       inkscape:collect="always"
       xlink:href="#linearGradient836"
       id="linearGradient838"
       x1="6"
       y1="50.000134"
       x2="94.005508"
       y2="50.000134"
       gradientUnits="userSpaceOnUse"
       gradientTransform="matrix(0.9780981,0,0,1,64.171715,974.03282)" />
    <linearGradient
       inkscape:collect="always"
       id="linearGradient836">
      <stop
         style="stop-color:#ffb380;stop-opacity:1"
         offset="0"
         id="stop832" />
      <stop
         style="stop-color:#20ffff;stop-opacity:1"
         offset="0.48615947"
         id="stop1390" />
      <stop
         style="stop-color:#ffaeff;stop-opacity:1"
         offset="1"
         id="stop834" />
    </linearGradient>
    <linearGradient
       inkscape:collect="always"
       xlink:href="#linearGradient836"
       id="linearGradient844"
       x1="404.61743"
       y1="519.79797"
       x2="428.61743"
       y2="519.79797"
       gradientUnits="userSpaceOnUse" />
  </defs>
  <metadata
     id="metadata5458">
    <rdf:RDF>
      <cc:Work
         rdf:about="">
        <dc:format>image/svg+xml</dc:format>
        <dc:type
           rdf:resource="http://purl.org/dc/dcmitype/StillImage" />
      </cc:Work>
    </rdf:RDF>
  </metadata>
  <g
     inkscape:label="Capa 1"
     inkscape:groupmode="layer"
     id="layer1"
     transform="translate(-384.57143,-483.798)">
    <g
       transform="matrix(0.74351172,0,0,0.74285356,332.49565,-244.90835)"
       id="g4">
      <path
         style="color:#000000;font-style:normal;font-variant:normal;font-weight:normal;font-stretch:normal;font-size:medium;line-height:normal;font-family:Sans;-inkscape-font-specification:Sans;text-indent:0;text-align:start;text-decoration:none;text-decoration-line:none;letter-spacing:normal;word-spacing:normal;text-transform:none;writing-mode:lr-tb;direction:ltr;baseline-shift:baseline;text-anchor:start;display:inline;overflow:visible;visibility:visible;opacity:1;fill:url(#linearGradient838);fill-opacity:1;fill-rule:nonzero;stroke:none;stroke-width:3.95596;marker:none;enable-background:accumulate"
         d="m 77.437168,989.03282 c -3.988712,0 -7.396866,2.85993 -7.396866,6.65625 v 56.01633 c 0,2.3649 0.836461,3.8844 2.460429,5.2631 1.623967,1.3787 3.30936,2.0641 5.459931,2.0641 h 68.370898 c 1.64145,0.029 1.59477,-2.2249 3.9e-4,-2.2488 l -68.465871,-0.04 c -2.115981,0 -3.874159,-1.4929 -3.874159,-1.4929 0,0 -1.620163,-1.2165 -1.620163,-3.5457 v -56.01633 c 0,-2.61614 1.77916,-4.29462 4.886948,-4.26047 l 24.066555,-0.0121 11.47627,10.2307 c 0.34679,0.3129 0.79077,0.759 1.25317,0.769 l 33.37023,-0.012 c 1.7015,-0.01 1.64773,-2.3444 -0.0538,-2.3717 h -32.61346 l -12.1651,-10.53101 c -0.35109,-0.30157 -0.79464,-0.46748 -1.25318,-0.46875 z m 38.818272,2.90625 c -1.55276,-0.004 -1.55586,2.67092 0.0388,2.69371 l 29.7626,-0.0408 c 3.0158,-0.004 4.32232,0.97316 5.32647,1.90993 1.00416,0.93677 2.53008,3.23008 2.53008,5.59319 v 54.9375 c 0.009,1.8591 2.19838,1.9203 2.20491,0.064 l -0.006,-55.0018 c -3.1e-4,-3.21023 -1.04994,-5.89814 -2.9343,-7.65605 -1.88434,-1.75791 -4.44981,-2.5 -7.12177,-2.5 h -29.61804 c -0.0611,-0.003 -0.12228,-0.003 -0.18339,0 z"
         id="path2-3"
         sodipodi:nodetypes="sssssccscsssccccccccsccsssccssscc" />
    </g>
    <path
       fill-rule="evenodd"
       clip-rule="evenodd"
       d="m 416.99307,514.17263 c 0,-0.41456 0.33582,-0.75 0.75038,-0.75 0.41419,0 0.75,0.33544 0.75,0.75 0,0.41344 -0.33581,0.74925 -0.75,0.74925 -0.41456,0 -0.75038,-0.33581 -0.75038,-0.74925 z m 10.7604,0.059 -0.31604,0.31566 c -0.003,0.003 -0.005,0.003 -0.009,0.006 -0.57568,0.57605 -1.50184,0.58228 -2.0896,0.0256 l -1.93285,-1.93397 c -0.29259,-0.29259 -0.29259,-0.76758 0,-1.06017 0.2926,-0.29259 0.76758,-0.29259 1.06018,0 l 1.63331,1.63219 c 10e-4,0.002 0.002,0 0.004,0.002 0.14611,0.14611 0.38344,0.14611 0.52955,0 0.005,-0.005 0.009,-10e-4 0.0135,-0.003 l 0.0454,-0.0454 c 0.58631,-0.58556 0.58631,-1.53515 0,-2.12146 l -1.32527,-1.3253 c -0.58631,-0.58632 -1.53591,-0.58632 -2.12147,0 l -2.57334,2.57334 h -2.12218 -6.4311 -4.12538 c -1.03566,0 -1.875,0.84009 -1.875,1.87575 v 14.24963 c 0,1.03565 0.83934,1.875 1.875,1.875 h 14.24962 c 1.03604,0 1.875,-0.83935 1.875,-1.875 v -9.64491 c 0,-0.20653 -0.16771,-0.37463 -0.37462,-0.37463 -0.10327,0 -0.19739,0.0421 -0.26475,0.10988 -0.002,10e-4 -10e-4,-0.005 -0.003,-0.004 l -4.16747,4.16676 c -0.45155,0.45193 -1.01147,0.72549 -1.59633,0.82875 -0.11057,0.0263 -0.22523,0.0428 -0.3435,0.0428 h -0.10584 c -0.0494,10e-4 -0.10036,10e-4 -0.14977,0 h -2.74507 c -0.828,0 -1.49925,-0.67125 -1.49925,-1.49925 v -2.74509 c -7.5e-4,-0.0495 -7.5e-4,-0.10036 0,-0.14944 v -0.10584 c 0,-0.11864 0.0168,-0.2333 0.0429,-0.34388 0.10364,-0.58448 0.3772,-1.14553 0.82912,-1.59703 l 1.593,-1.59337 0.004,0.004 c 0.13514,-0.13622 0.32372,-0.21975 0.53063,-0.21975 0.41456,0 0.75,0.33581 0.75,0.75037 0,0.22744 -0.10402,0.42957 -0.26405,0.56691 l -1.55273,1.55273 c -0.32705,0.3263 -0.46435,0.76463 -0.42699,1.19166 -7.5e-4,0.0216 -0.007,0.0421 -0.007,0.0637 v 1.12462 c -2e-5,0.82794 0.67236,1.50031 1.50036,1.50031 h 1.12462 c 0.0216,0 0.0421,-0.005 0.0637,-0.006 0.42735,0.0374 0.86536,-0.10036 1.19165,-0.42736 l 4.81641,-4.81644 c 0.27061,-0.26588 0.6427,-0.37537 1.05323,-0.37537 0.82876,0 1.50038,0.67125 1.50038,1.5 v 10.87462 c 0,1.65713 -1.34287,3.00075 -2.99962,3.00075 h -15 c -1.65713,0 -3.00038,-1.34362 -3.00038,-3.00075 v -14.99962 c 0,-1.65708 1.34325,-2.99963 3.00038,-2.99963 h 12.43068 l 2.13502,-2.13502 c 0.5857,-0.58593 1.35347,-0.86498 2.12128,-0.86498 0.76781,0 1.53567,0.27905 2.12161,0.86498 l 1.32605,1.32605 c 0.58654,0.58655 0.86578,1.36533 0.86498,2.13417 -8e-4,0.76674 -0.28003,1.52358 -0.86498,2.10877 z"
       id="path2"
       style="stroke-width:0.046875;fill-opacity:1.0;fill:url(#linearGradient844)" />
  </g>
</svg>
