<?xml version="1.0" encoding="UTF-8" standalone="no"?>
<svg
   width="64"
   version="1.1"
   height="64"
   id="svg15"
   sodipodi:docname="folder-database.svg"
   inkscape:version="1.1.1 (3bf5ae0d25, 2021-09-20)"
   xmlns:inkscape="http://www.inkscape.org/namespaces/inkscape"
   xmlns:sodipodi="http://sodipodi.sourceforge.net/DTD/sodipodi-0.dtd"
   xmlns:xlink="http://www.w3.org/1999/xlink"
   xmlns="http://www.w3.org/2000/svg"
   xmlns:svg="http://www.w3.org/2000/svg"
   xmlns:rdf="http://www.w3.org/1999/02/22-rdf-syntax-ns#"
   xmlns:cc="http://creativecommons.org/ns#"
   xmlns:dc="http://purl.org/dc/elements/1.1/">
  <sodipodi:namedview
     pagecolor="#ffffff"
     bordercolor="#666666"
     borderopacity="1"
     objecttolerance="10"
     gridtolerance="10"
     guidetolerance="10"
     inkscape:pageopacity="0"
     inkscape:pageshadow="2"
     inkscape:window-width="1920"
     inkscape:window-height="1015"
     id="namedview17"
     showgrid="true"
     inkscape:zoom="9.8125"
     inkscape:cx="32"
     inkscape:cy="32"
     inkscape:window-x="0"
     inkscape:window-y="0"
     inkscape:window-maximized="1"
     inkscape:current-layer="layer1"
     inkscape:document-rotation="0"
     inkscape:pagecheckerboard="0">
    <inkscape:grid
       type="xygrid"
       id="grid850" />
  </sodipodi:namedview>
  <defs
     id="defs5455">
    <linearGradient
       inkscape:collect="always"
       xlink:href="#linearGradient836"
       id="linearGradient838"
       x1="6"
       y1="50.000134"
       x2="94.005508"
       y2="50.000134"
       gradientUnits="userSpaceOnUse"
       gradientTransform="matrix(0.9780981,0,0,1,64.171715,974.03282)" />
    <linearGradient
       inkscape:collect="always"
       id="linearGradient836">
      <stop
         style="stop-color:#ffb380;stop-opacity:1"
         offset="0"
         id="stop832" />
      <stop
         style="stop-color:#20ffff;stop-opacity:1"
         offset="0.48615947"
         id="stop1390" />
      <stop
         style="stop-color:#ffaeff;stop-opacity:1"
         offset="1"
         id="stop834" />
    </linearGradient>
    <linearGradient
       inkscape:collect="always"
       xlink:href="#linearGradient836"
       id="linearGradient844"
       x1="404.57144"
       y1="520.79901"
       x2="428.5723"
       y2="520.79901"
       gradientUnits="userSpaceOnUse" />
  </defs>
  <metadata
     id="metadata5458">
    <rdf:RDF>
      <cc:Work
         rdf:about="">
        <dc:format>image/svg+xml</dc:format>
        <dc:type
           rdf:resource="http://purl.org/dc/dcmitype/StillImage" />
      </cc:Work>
    </rdf:RDF>
  </metadata>
  <g
     inkscape:label="Capa 1"
     inkscape:groupmode="layer"
     id="layer1"
     transform="translate(-384.57143,-483.798)">
    <g
       transform="matrix(0.74351172,0,0,0.74285356,332.49565,-244.90835)"
       id="g4">
      <path
         style="color:#000000;font-style:normal;font-variant:normal;font-weight:normal;font-stretch:normal;font-size:medium;line-height:normal;font-family:Sans;-inkscape-font-specification:Sans;text-indent:0;text-align:start;text-decoration:none;text-decoration-line:none;letter-spacing:normal;word-spacing:normal;text-transform:none;writing-mode:lr-tb;direction:ltr;baseline-shift:baseline;text-anchor:start;display:inline;overflow:visible;visibility:visible;opacity:1;fill:url(#linearGradient838);fill-opacity:1;fill-rule:nonzero;stroke:none;stroke-width:3.95596;marker:none;enable-background:accumulate"
         d="m 77.437168,989.03282 c -3.988712,0 -7.396866,2.85993 -7.396866,6.65625 v 56.01633 c 0,2.3649 0.836461,3.8844 2.460429,5.2631 1.623967,1.3787 3.30936,2.0641 5.459931,2.0641 h 68.370898 c 1.64145,0.029 1.59477,-2.2249 3.9e-4,-2.2488 l -68.465871,-0.04 c -2.115981,0 -3.874159,-1.4929 -3.874159,-1.4929 0,0 -1.620163,-1.2165 -1.620163,-3.5457 v -56.01633 c 0,-2.61614 1.77916,-4.29462 4.886948,-4.26047 l 24.066555,-0.0121 11.47627,10.2307 c 0.34679,0.3129 0.79077,0.759 1.25317,0.769 l 33.37023,-0.012 c 1.7015,-0.01 1.64773,-2.3444 -0.0538,-2.3717 h -32.61346 l -12.1651,-10.53101 c -0.35109,-0.30157 -0.79464,-0.46748 -1.25318,-0.46875 z m 38.818272,2.90625 c -1.55276,-0.004 -1.55586,2.67092 0.0388,2.69371 l 29.7626,-0.0408 c 3.0158,-0.004 4.32232,0.97316 5.32647,1.90993 1.00416,0.93677 2.53008,3.23008 2.53008,5.59319 v 54.9375 c 0.009,1.8591 2.19838,1.9203 2.20491,0.064 l -0.006,-55.0018 c -3.1e-4,-3.21023 -1.04994,-5.89814 -2.9343,-7.65605 -1.88434,-1.75791 -4.44981,-2.5 -7.12177,-2.5 h -29.61804 c -0.0611,-0.003 -0.12228,-0.003 -0.18339,0 z"
         id="path2-3"
         sodipodi:nodetypes="sssssccscsssccccccccsccsssccssscc" />
    </g>
    <path
       fill-rule="evenodd"
       clip-rule="evenodd"
       d="m 427.82143,528.29907 c -0.41381,0 -0.75038,-0.33618 -0.75038,-0.75 0,-0.41456 0.33657,-0.75075 0.75038,-0.75075 0.41419,0 0.75,0.33619 0.75,0.75075 0,0.41382 -0.33581,0.75 -0.75,0.75 z m 0.72216,-5.60892 c -0.0103,0.0806 -0.0234,0.16041 -0.0399,0.23878 -0.008,0.0381 -0.019,0.074 -0.0285,0.11133 -0.0168,0.0652 -0.0341,0.13111 -0.0549,0.19481 -0.009,0.0278 -0.0202,0.0557 -0.0304,0.0835 -0.0271,0.0732 -0.0549,0.14574 -0.0864,0.21535 -0.009,0.019 -0.0183,0.0381 -0.0271,0.0564 -0.0352,0.0725 -0.0725,0.14353 -0.11208,0.21239 -0.0128,0.022 -0.0256,0.044 -0.0392,0.0652 -0.0443,0.0711 -0.0905,0.14142 -0.13988,0.20803 -0.008,0.01 -0.015,0.0205 -0.0231,0.03 -0.0571,0.0762 -0.11864,0.14943 -0.18384,0.22045 -0.002,0.002 -0.005,0.004 -0.007,0.008 -0.0696,0.0747 -0.14208,0.14724 -0.21938,0.2146 -0.52809,0.46509 -1.2202,0.75 -1.98009,0.75 v 0.0381 c -0.12164,-0.0242 -0.24614,-0.0381 -0.37505,-0.0381 H 407.947 c -1.03566,0 -1.87575,0.83934 -1.87575,1.875 v 2.24924 c 0,1.03571 0.84009,1.87505 1.87575,1.87505 h 17.24976 c 0.88444,0 1.63993,-0.70387 2.0618,-1.24144 l 0.002,7.5e-4 c 0.13767,-0.15753 0.33619,-0.25859 0.56175,-0.25859 0.41419,0 0.75,0.33544 0.75,0.75 0,0.77784 -1.34287,2.25 -3,2.25 H 407.5711 c -1.65694,0 -2.99967,-1.34325 -2.99967,-3 v -3.0008 c 0,-1.65675 1.34273,-2.99929 2.99967,-2.99929 h 1.12481 16.50047 c 1.03571,0 1.87467,-0.83935 1.87467,-1.875 v -2.25019 c 0,-1.03566 -0.83896,-1.875 -1.87467,-1.875 h -16.50047 -1.12481 c -1.65694,0 -2.99967,-1.34363 -2.99967,-2.99967 v -3.00038 c 0,-1.65712 1.34273,-2.99967 2.99967,-2.99967 h 18.00033 c 1.65713,0 3,1.34255 3,2.99967 v 2.25038 c 0,0.41343 -0.33581,0.75 -0.75,0.75 -0.41381,0 -0.75038,-0.33657 -0.75038,-0.75 v -1.87493 c 0,-1.03566 -0.83896,-1.87575 -1.87467,-1.87575 h -17.24976 c -1.03566,0 -1.87575,0.84009 -1.87575,1.87575 v 2.24967 c 0,1.03566 0.84009,1.87463 1.87575,1.87463 h 17.24976 c 0.12891,0 0.25341,-0.0136 0.37505,-0.0381 v 0.0381 c 0.75989,0 1.45205,0.28495 1.98009,0.75037 0.0772,0.0674 0.14977,0.13988 0.21938,0.2146 0.003,0.003 0.005,0.005 0.007,0.008 0.0652,0.0707 0.1267,0.1439 0.18384,0.22045 0.008,0.01 0.015,0.0205 0.0231,0.0301 0.0495,0.067 0.0956,0.13696 0.13988,0.20765 0.0136,0.0216 0.0263,0.0436 0.0392,0.0652 0.0396,0.0692 0.0769,0.13987 0.11208,0.21239 0.009,0.0183 0.0183,0.0374 0.0271,0.0564 0.0315,0.0699 0.0593,0.14245 0.0864,0.21572 0.0103,0.0278 0.0216,0.0557 0.0304,0.0835 0.0209,0.0637 0.0381,0.12966 0.0549,0.19481 0.01,0.0374 0.0209,0.0732 0.0285,0.11133 0.0165,0.078 0.0297,0.15858 0.0399,0.23878 0.003,0.0224 0.007,0.0428 0.01,0.0659 0.0117,0.10655 0.0183,0.21572 0.0183,0.32559 v 2.99982 c 0,0.10912 -0.007,0.21825 -0.0183,0.32522 -0.002,0.0227 -0.007,0.0439 -0.009,0.0659 z m -23.22197,-3.39094 c 0.41362,0 0.74925,0.33544 0.74925,0.75 v 1.49907 c 0,0.41456 -0.33563,0.75075 -0.74925,0.75075 -0.41456,0 -0.75019,-0.33619 -0.75019,-0.75075 v -1.49907 c 0,-0.41456 0.33563,-0.75 0.75019,-0.75 z"
       id="path2"
       style="stroke-width:0.046875;fill-opacity:1.0;fill:url(#linearGradient844)" />
  </g>
</svg>
