<?xml version="1.0" encoding="UTF-8" standalone="no"?>
<svg
   width="64"
   version="1.1"
   height="64"
   id="svg15"
   sodipodi:docname="folder-Reddit.svg"
   inkscape:version="1.1 (c68e22c387, 2021-05-23)"
   xmlns:inkscape="http://www.inkscape.org/namespaces/inkscape"
   xmlns:sodipodi="http://sodipodi.sourceforge.net/DTD/sodipodi-0.dtd"
   xmlns:xlink="http://www.w3.org/1999/xlink"
   xmlns="http://www.w3.org/2000/svg"
   xmlns:svg="http://www.w3.org/2000/svg"
   xmlns:rdf="http://www.w3.org/1999/02/22-rdf-syntax-ns#"
   xmlns:cc="http://creativecommons.org/ns#"
   xmlns:dc="http://purl.org/dc/elements/1.1/">
  <sodipodi:namedview
     pagecolor="#ffffff"
     bordercolor="#666666"
     borderopacity="1"
     objecttolerance="10"
     gridtolerance="10"
     guidetolerance="10"
     inkscape:pageopacity="0"
     inkscape:pageshadow="2"
     inkscape:window-width="1920"
     inkscape:window-height="1007"
     id="namedview17"
     showgrid="true"
     inkscape:zoom="9.8125"
     inkscape:cx="31.949045"
     inkscape:cy="32"
     inkscape:window-x="0"
     inkscape:window-y="0"
     inkscape:window-maximized="1"
     inkscape:current-layer="layer1"
     inkscape:document-rotation="0"
     inkscape:pagecheckerboard="0">
    <inkscape:grid
       type="xygrid"
       id="grid940" />
  </sodipodi:namedview>
  <defs
     id="defs5455">
    <linearGradient
       inkscape:collect="always"
       id="linearGradient842">
      <stop
         style="stop-color:#b380ff;stop-opacity:1"
         offset="0"
         id="stop838" />
      <stop
         style="stop-color:#ffccaa;stop-opacity:1"
         offset="1"
         id="stop840" />
    </linearGradient>
    <linearGradient
       inkscape:collect="always"
       xlink:href="#linearGradient842"
       id="linearGradient838"
       x1="6"
       y1="50.000134"
       x2="94.005508"
       y2="50.000134"
       gradientUnits="userSpaceOnUse"
       gradientTransform="matrix(0.9780981,0,0,1,64.250683,974.47294)" />
    <linearGradient
       inkscape:collect="always"
       xlink:href="#linearGradient842"
       id="linearGradient1502"
       x1="402.91245"
       y1="520.79797"
       x2="430.34097"
       y2="520.79797"
       gradientUnits="userSpaceOnUse" />
  </defs>
  <metadata
     id="metadata5458">
    <rdf:RDF>
      <cc:Work
         rdf:about="">
        <dc:format>image/svg+xml</dc:format>
        <dc:type
           rdf:resource="http://purl.org/dc/dcmitype/StillImage" />
      </cc:Work>
    </rdf:RDF>
  </metadata>
  <g
     inkscape:label="Capa 1"
     inkscape:groupmode="layer"
     id="layer1"
     transform="translate(-384.57143,-483.798)">
    <g
       transform="matrix(0.7435117,0,0,0.74285165,332.43693,-245.2334)"
       id="g4">
      <path
         style="color:#000000;font-style:normal;font-variant:normal;font-weight:normal;font-stretch:normal;font-size:medium;line-height:normal;font-family:Sans;-inkscape-font-specification:Sans;text-indent:0;text-align:start;text-decoration:none;text-decoration-line:none;letter-spacing:normal;word-spacing:normal;text-transform:none;writing-mode:lr-tb;direction:ltr;baseline-shift:baseline;text-anchor:start;display:inline;overflow:visible;visibility:visible;opacity:1;fill:url(#linearGradient838);fill-opacity:1;fill-rule:nonzero;stroke:none;stroke-width:3.95596;marker:none;enable-background:accumulate"
         d="m 77.516136,989.47294 c -3.988712,0 -7.396866,2.85993 -7.396866,6.65625 v 56.01651 c 0,2.3649 0.836461,3.8844 2.460429,5.2631 1.623967,1.3787 3.30936,2.0641 5.459931,2.0641 h 68.3709 c 1.64145,0.029 1.59477,-2.2249 3.9e-4,-2.2488 l -68.465873,-0.04 c -2.115981,0 -3.874159,-1.4929 -3.874159,-1.4929 0,0 -1.620163,-1.2165 -1.620163,-3.5457 v -56.01651 c 0,-2.61614 1.77916,-4.29462 4.886948,-4.26047 l 24.066557,-0.0121 11.47627,10.23088 c 0.34679,0.3129 0.79077,0.759 1.25317,0.769 l 33.37023,-0.012 c 1.7015,-0.01 1.64773,-2.3444 -0.0538,-2.3717 h -32.61346 l -12.1651,-10.53119 c -0.35109,-0.30157 -0.79464,-0.46748 -1.25318,-0.46875 z m 38.818274,2.90625 c -1.55276,-0.004 -1.55586,2.67092 0.0388,2.69371 l 29.7626,-0.0408 c 3.0158,-0.004 4.32232,0.97316 5.32647,1.90993 1.00416,0.93677 2.53008,3.23017 2.53008,5.59337 v 54.9375 c 0.009,1.8591 2.19838,1.9203 2.20491,0.064 l -0.006,-55.0018 c -3.1e-4,-3.21041 -1.04994,-5.89832 -2.9343,-7.65623 -1.88434,-1.75791 -4.44981,-2.5 -7.12177,-2.5 h -29.61804 c -0.0611,-0.003 -0.12228,-0.003 -0.18339,0 z"
         id="path2-3-3"
         sodipodi:nodetypes="sssssccscsssccccccccsccsssccssscc" />
    </g>
    <path
       clip-rule="evenodd"
       d="m 419.62625,515.93682 c 0.0925,0 0.1808,0.0186 0.26368,0.0456 1.90473,0.38443 3.61355,1.09613 5.00807,2.04472 0.5663,-0.4125 1.26021,-0.65775 2.01439,-0.65775 1.893,0 3.42857,1.53455 3.42857,3.42857 0,1.28196 -0.70436,2.39775 -1.74525,2.98575 0.0104,0.14775 0.031,0.29341 0.031,0.44282 0,4.73352 -5.37348,8.57143 -12,8.57143 -6.62737,0 -12,-3.83791 -12,-8.57143 0,-0.14941 0.0209,-0.29507 0.0314,-0.44282 -1.04132,-0.588 -1.74568,-1.70379 -1.74568,-2.98575 0,-1.89402 1.53471,-3.42857 3.42857,-3.42857 0.75332,0 1.44852,0.24525 2.01477,0.6577 1.75361,-1.19492 4.0103,-2.0062 6.52355,-2.26822 0.009,-0.007 0.0176,-0.0166 0.0331,-0.0176 0.65877,-0.0624 1.2397,-0.50807 1.45982,-1.16266 l 0.92786,-3.46291 c 0.43441,-1.20305 1.68916,-1.9043 2.94852,-1.63414 l 1.41712,0.38025 c 10e-4,0.001 -0.001,0.004 10e-4,0.004 1.0439,0.26914 1.81693,1.21773 1.81693,2.34691 0,0.002 10e-4,0.003 10e-4,0.005 0,0.003 -10e-4,0.005 -10e-4,0.008 0,0.9465 0.76672,1.71428 1.71429,1.71428 0.94671,0 1.71428,-0.76778 1.71428,-1.71428 0,-0.31474 -0.0904,-0.60584 -0.23898,-0.85923 l 0.006,-0.003 c -0.0716,-0.12579 -0.11635,-0.26909 -0.11635,-0.42397 0,-0.47271 0.38464,-0.85693 0.85714,-0.85693 0.31387,0 0.58382,0.16929 0.73366,0.42065 l 0.004,-0.002 c 0.29593,0.50705 0.46837,1.09505 0.46837,1.72473 0,1.89402 -1.53557,3.42857 -3.42857,3.42857 -1.89386,0 -3.42857,-1.53455 -3.42857,-3.42857 0,-0.31789 -0.20132,-0.58597 -0.48214,-0.69204 l -1.37529,-0.36873 c -0.43152,-0.0988 -0.86469,0.14545 -1.0028,0.56523 l -0.89357,3.33815 c -0.41143,1.31523 -1.54479,2.21507 -2.84347,2.37701 -4.98921,0.47277 -8.8313,3.32379 -8.8313,6.78038 0,3.78685 4.60462,6.85714 10.28571,6.85714 5.68022,-7e-5 10.2857,-3.07035 10.2857,-6.85721 0,-3.12637 -3.14063,-5.75786 -7.43052,-6.58382 l 8.6e-4,-0.006 c -0.40511,-0.0676 -0.71357,-0.41871 -0.71357,-0.84268 -6e-5,-0.47362 0.3833,-0.85698 0.85709,-0.85698 z m -12.69809,3.25698 c -0.18418,-0.0674 -0.38047,-0.11009 -0.5872,-0.11009 -0.94757,0 -1.71428,0.76779 -1.71428,1.71429 0,0.44073 0.17035,0.83829 0.44491,1.143 0.38839,-1.0028 1.02203,-1.92857 1.85657,-2.7472 z m 21.25403,2.7472 c 0.27413,-0.30471 0.44449,-0.70227 0.44449,-1.143 0,-0.9465 -0.76758,-1.71429 -1.71429,-1.71429 -0.20759,0 -0.40388,0.0427 -0.58805,0.11009 0.83459,0.81863 1.46903,1.7444 1.85785,2.7472 z m -8.92382,0.57129 c 0,-0.91324 0.73993,-1.65402 1.65402,-1.65402 0.91323,0 1.65316,0.74078 1.65316,1.65402 0,0.91323 -0.73993,1.65401 -1.65316,1.65401 -0.91404,0 -1.65402,-0.74078 -1.65402,-1.65401 z m -8.57143,0 c 0,-0.91324 0.73993,-1.65402 1.65402,-1.65402 0.91323,0 1.65316,0.74078 1.65316,1.65402 0,0.91323 -0.73993,1.65401 -1.65316,1.65401 -0.91403,0 -1.65402,-0.74078 -1.65402,-1.65401 z m 9.10757,4.20658 0.002,10e-4 c 0.1561,-0.21097 0.4043,-0.35031 0.68678,-0.35031 0.47379,0 0.85714,0.38336 0.85714,0.85714 0,10e-4 0,0.002 0,0.003 0,0.009 -0.003,0.0184 -0.003,0.028 -0.002,0.0506 -0.006,0.10168 -0.0167,0.14941 -0.20384,1.09956 -2.2253,1.96174 -4.69419,1.96174 -2.4082,0 -4.38659,-0.822 -4.66993,-1.8817 -0.0272,-0.0829 -0.0448,-0.16907 -0.0448,-0.26073 0,-0.47379 0.38336,-0.85715 0.85715,-0.85715 0.31178,0 0.57964,0.16827 0.73034,0.41561 l 0.008,-0.003 c 0.44153,0.50684 1.6695,0.87263 3.11887,0.87263 1.50879,0 2.77736,-0.39675 3.16784,-0.93627 z m 5.40359,-16.20658 c -0.47378,0 -0.85714,-0.38336 -0.85714,-0.85715 0,-0.47378 0.38336,-0.85714 0.85714,-0.85714 0.47293,0 0.85715,0.38336 0.85715,0.85714 0,0.47379 -0.38422,0.85715 -0.85715,0.85715 z"
       fill-rule="evenodd"
       id="path2"
       style="stroke-width:0.0535714;fill-opacity:1.0;fill:url(#linearGradient1502)" />
  </g>
</svg>
