<?xml version="1.0" encoding="UTF-8" standalone="no"?>
<svg
   width="64"
   version="1.1"
   height="64"
   id="svg15"
   sodipodi:docname="folder-build.svg"
   inkscape:version="1.1.1 (3bf5ae0d25, 2021-09-20)"
   xmlns:inkscape="http://www.inkscape.org/namespaces/inkscape"
   xmlns:sodipodi="http://sodipodi.sourceforge.net/DTD/sodipodi-0.dtd"
   xmlns:xlink="http://www.w3.org/1999/xlink"
   xmlns="http://www.w3.org/2000/svg"
   xmlns:svg="http://www.w3.org/2000/svg"
   xmlns:rdf="http://www.w3.org/1999/02/22-rdf-syntax-ns#"
   xmlns:cc="http://creativecommons.org/ns#"
   xmlns:dc="http://purl.org/dc/elements/1.1/">
  <sodipodi:namedview
     pagecolor="#ffffff"
     bordercolor="#666666"
     borderopacity="1"
     objecttolerance="10"
     gridtolerance="10"
     guidetolerance="10"
     inkscape:pageopacity="0"
     inkscape:pageshadow="2"
     inkscape:window-width="1920"
     inkscape:window-height="1015"
     id="namedview17"
     showgrid="true"
     inkscape:zoom="9.8125"
     inkscape:cx="32"
     inkscape:cy="32"
     inkscape:window-x="0"
     inkscape:window-y="0"
     inkscape:window-maximized="1"
     inkscape:current-layer="layer1"
     inkscape:document-rotation="0"
     inkscape:pagecheckerboard="0">
    <inkscape:grid
       type="xygrid"
       id="grid850" />
  </sodipodi:namedview>
  <defs
     id="defs5455">
    <linearGradient
       inkscape:collect="always"
       id="linearGradient1484">
      <stop
         style="stop-color:#ffb380;stop-opacity:1;"
         offset="0"
         id="stop1480" />
      <stop
         style="stop-color:#ffa6ff;stop-opacity:1"
         offset="1"
         id="stop1482" />
    </linearGradient>
    <linearGradient
       inkscape:collect="always"
       xlink:href="#linearGradient836"
       id="linearGradient838"
       x1="6"
       y1="50.000134"
       x2="94.005508"
       y2="50.000134"
       gradientUnits="userSpaceOnUse"
       gradientTransform="matrix(0.9780981,0,0,1,64.171715,974.03282)" />
    <linearGradient
       inkscape:collect="always"
       id="linearGradient836">
      <stop
         style="stop-color:#ffb380;stop-opacity:1"
         offset="0"
         id="stop832" />
      <stop
         style="stop-color:#20ffff;stop-opacity:1"
         offset="0.48615947"
         id="stop1390" />
      <stop
         style="stop-color:#ffaeff;stop-opacity:1"
         offset="1"
         id="stop834" />
    </linearGradient>
    <linearGradient
       inkscape:collect="always"
       xlink:href="#linearGradient1484"
       id="linearGradient914"
       x1="399.72343"
       y1="521.52009"
       x2="411.72384"
       y2="521.52009"
       gradientUnits="userSpaceOnUse" />
    <linearGradient
       inkscape:collect="always"
       xlink:href="#linearGradient1484"
       id="linearGradient916"
       x1="416.12143"
       y1="517.82312"
       x2="428.12183"
       y2="517.82312"
       gradientUnits="userSpaceOnUse" />
    <linearGradient
       inkscape:collect="always"
       xlink:href="#linearGradient1484"
       id="linearGradient918"
       x1="409.74146"
       y1="527.7981"
       x2="421.74188"
       y2="527.7981"
       gradientUnits="userSpaceOnUse" />
  </defs>
  <metadata
     id="metadata5458">
    <rdf:RDF>
      <cc:Work
         rdf:about="">
        <dc:format>image/svg+xml</dc:format>
        <dc:type
           rdf:resource="http://purl.org/dc/dcmitype/StillImage" />
      </cc:Work>
    </rdf:RDF>
  </metadata>
  <g
     inkscape:label="Capa 1"
     inkscape:groupmode="layer"
     id="layer1"
     transform="translate(-384.57143,-483.798)">
    <g
       transform="matrix(0.74351172,0,0,0.74285356,332.49565,-244.90835)"
       id="g4">
      <path
         style="color:#000000;font-style:normal;font-variant:normal;font-weight:normal;font-stretch:normal;font-size:medium;line-height:normal;font-family:Sans;-inkscape-font-specification:Sans;text-indent:0;text-align:start;text-decoration:none;text-decoration-line:none;letter-spacing:normal;word-spacing:normal;text-transform:none;writing-mode:lr-tb;direction:ltr;baseline-shift:baseline;text-anchor:start;display:inline;overflow:visible;visibility:visible;opacity:1;fill:url(#linearGradient838);fill-opacity:1;fill-rule:nonzero;stroke:none;stroke-width:3.95596;marker:none;enable-background:accumulate"
         d="m 77.437168,989.03282 c -3.988712,0 -7.396866,2.85993 -7.396866,6.65625 v 56.01633 c 0,2.3649 0.836461,3.8844 2.460429,5.2631 1.623967,1.3787 3.30936,2.0641 5.459931,2.0641 h 68.370898 c 1.64145,0.029 1.59477,-2.2249 3.9e-4,-2.2488 l -68.465871,-0.04 c -2.115981,0 -3.874159,-1.4929 -3.874159,-1.4929 0,0 -1.620163,-1.2165 -1.620163,-3.5457 v -56.01633 c 0,-2.61614 1.77916,-4.29462 4.886948,-4.26047 l 24.066555,-0.0121 11.47627,10.2307 c 0.34679,0.3129 0.79077,0.759 1.25317,0.769 l 33.37023,-0.012 c 1.7015,-0.01 1.64773,-2.3444 -0.0538,-2.3717 h -32.61346 l -12.1651,-10.53101 c -0.35109,-0.30157 -0.79464,-0.46748 -1.25318,-0.46875 z m 38.818272,2.90625 c -1.55276,-0.004 -1.55586,2.67092 0.0388,2.69371 l 29.7626,-0.0408 c 3.0158,-0.004 4.32232,0.97316 5.32647,1.90993 1.00416,0.93677 2.53008,3.23008 2.53008,5.59319 v 54.9375 c 0.009,1.8591 2.19838,1.9203 2.20491,0.064 l -0.006,-55.0018 c -3.1e-4,-3.21023 -1.04994,-5.89814 -2.9343,-7.65605 -1.88434,-1.75791 -4.44981,-2.5 -7.12177,-2.5 h -29.61804 c -0.0611,-0.003 -0.12228,-0.003 -0.18339,0 z"
         id="path2-3"
         sodipodi:nodetypes="sssssccscsssccccccccsccsssccssscc" />
    </g>
    <path
       fill-rule="evenodd"
       clip-rule="evenodd"
       d="m 410.3581,520.03256 c 0.006,0 0.0103,-0.003 0.0159,-0.004 0.75713,0.0749 1.34984,0.71374 1.34984,1.49119 0,0.77902 -0.59344,1.41917 -1.35352,1.49277 -10e-4,0.004 -0.004,0.007 -0.005,0.0103 -0.006,-3.7e-4 -0.01,-0.003 -0.0159,-0.003 -0.19111,0 -0.40407,0.0341 -0.48317,0.22519 -0.0791,0.19153 0.033,0.35853 0.17944,0.50464 0.005,0.005 0.0119,0.007 0.0174,0.0117 0.47897,0.58887 0.45185,1.45241 -0.0971,2.00137 -0.54839,0.54855 -1.41265,0.57639 -2.00171,0.0978 -0.009,0.005 -0.0183,0.007 -0.0271,0.0106 -0.004,-0.005 -0.005,-0.0103 -0.01,-0.015 -0.13568,-0.13514 -0.30945,-0.26184 -0.5008,-0.18201 -0.19167,0.0791 -0.22975,0.27612 -0.22975,0.48337 0,0.0187 0.005,0.0355 0.0112,0.0524 -0.0943,0.73828 -0.72029,1.3103 -1.4844,1.3103 -0.77782,0 -1.41704,-0.59217 -1.49267,-1.35022 -0.008,-0.003 -0.0154,-0.008 -0.0238,-0.0106 3.7e-4,-0.004 0.002,-0.007 0.002,-0.0106 0,-0.19113 -0.0339,-0.40354 -0.22505,-0.48265 -0.19135,-0.0795 -0.35853,0.0329 -0.5048,0.17944 -0.009,0.009 -0.0132,0.0198 -0.0194,0.03 -0.58833,0.46068 -1.43757,0.42882 -1.97881,-0.11277 -0.54968,-0.54968 -0.57661,-1.41505 -0.0954,-2.00429 -0.005,-0.0103 -0.008,-0.0212 -0.0123,-0.0322 0.13514,-0.13514 0.26128,-0.30909 0.18202,-0.50025 -0.0795,-0.19113 -0.27685,-0.22997 -0.48394,-0.22997 -0.0136,0 -0.0255,0.005 -0.0383,0.008 -0.73772,-0.0937 -1.30955,-0.721 -1.30955,-1.48427 0,-0.78076 0.59621,-1.42107 1.35826,-1.49267 0.002,-0.007 0.006,-0.0128 0.009,-0.0194 0.18841,-0.002 0.39441,-0.037 0.47206,-0.22486 0.0791,-0.19081 -0.0322,-0.35705 -0.17834,-0.50316 -0.47993,-0.58849 -0.453,-1.45313 0.0963,-2.00244 0.5513,-0.55169 1.42199,-0.57715 2.01104,-0.0899 0.006,-0.003 0.0126,-0.004 0.019,-0.007 0.13404,0.13202 0.30469,0.25176 0.49201,0.17433 0.19134,-0.0793 0.2298,-0.27685 0.2298,-0.48378 0,-7.3e-4 -3.7e-4,-10e-4 -3.7e-4,-0.002 0.076,-0.7575 0.71353,-1.34892 1.49098,-1.34892 0.78204,0 1.42311,0.59803 1.49304,1.36156 0.002,5.4e-4 0.003,0.002 0.004,0.002 0,0.0449 0.002,0.091 0.008,0.13622 h -0.005 c 0,0.20691 -0.16771,0.37519 -0.375,0.37519 -0.20672,0 -0.37462,-0.16828 -0.37462,-0.37519 0,-0.41438 -0.336,-0.75 -0.75019,-0.75 -0.41438,0 -0.75001,0.33562 -0.75001,0.75 v 0.37519 l -0.002,0.003 c 0.007,0.24792 -0.15086,0.47937 -0.3997,0.55334 -0.006,0.002 -0.0125,0.002 -0.0183,0.004 l -0.004,0.006 c -0.1754,0.059 -0.34569,0.12927 -0.50903,0.21203 l -0.0108,-0.002 c -0.006,0.003 -0.0115,0.009 -0.018,0.0123 -0.24262,0.1313 -0.5385,0.0656 -0.70512,-0.14245 l -0.23384,-0.23365 c -0.29315,-0.29297 -0.76812,-0.29297 -1.06073,0 -0.29276,0.29297 -0.29276,0.76795 0,1.06055 l 0.26512,0.26531 0.002,0.0112 c 0.17541,0.17138 0.22596,0.44239 0.10346,0.6687 -0.002,0.003 -0.005,0.006 -0.007,0.01 l 0.002,0.0126 c -0.0817,0.16352 -0.15308,0.3338 -0.21168,0.50958 l -0.0113,0.009 c -0.002,0.007 -0.002,0.013 -0.004,0.0198 -0.0796,0.2677 -0.34092,0.42956 -0.60863,0.39623 h -0.31725 c -0.41438,0 -0.75017,0.336 -0.75017,0.75001 0,0.4139 0.33579,0.75009 0.75017,0.75009 h 0.37463 l 0.0112,0.008 c 0.24262,-3.7e-4 0.46727,0.15528 0.54014,0.39954 7.3e-4,0.002 7.3e-4,0.004 0.001,0.007 l 0.0139,0.0103 c 0.059,0.17541 0.12963,0.3457 0.21204,0.50902 l -0.003,0.0227 c 0.003,0.004 0.006,0.008 0.008,0.0121 0.1313,0.24244 0.0656,0.53834 -0.14245,0.70496 l -0.22779,0.22814 c -0.29276,0.29259 -0.29276,0.76758 0,1.06055 0.29259,0.2926 0.76758,0.2926 1.06074,0 l 0.26531,-0.26513 0.011,-0.002 c 0.171,-0.17064 0.43906,-0.21862 0.66263,-0.0978 0.002,7.3e-4 0.002,0.002 0.004,0.003 l 0.0242,-0.004 c 0.16353,0.0817 0.3338,0.15308 0.50958,0.21167 l 0.015,0.0198 c 0.002,7.3e-4 0.005,7.3e-4 0.008,0.002 0.24499,0.0725 0.40043,0.29811 0.3997,0.54162 l 0.002,0.003 v 0.37533 c 0,0.41419 0.33563,0.75001 0.75,0.75001 0.41419,0 0.75019,-0.33582 0.75019,-0.75001 v -0.37535 l 0.002,-0.003 c -7.2e-4,-0.24354 0.15474,-0.46875 0.39973,-0.54162 0.003,-0.001 0.005,-0.001 0.008,-0.002 l 0.0148,-0.0194 c 0.17541,-0.059 0.34552,-0.12929 0.50899,-0.21204 l 0.0247,0.004 c 10e-4,-7.3e-4 0.002,-0.002 0.004,-0.003 0.22357,-0.12085 0.49165,-0.0729 0.66265,0.0978 l 0.0112,0.002 0.26531,0.26512 c 0.2926,0.2926 0.76759,0.2926 1.06074,0 0.29279,-0.29297 0.29279,-0.76795 0,-1.06055 l -0.22797,-0.22815 c -0.20801,-0.16661 -0.27356,-0.46251 -0.14226,-0.70495 0.002,-0.004 0.005,-0.008 0.008,-0.0121 l -0.004,-0.0249 c 0.0817,-0.16331 0.15364,-0.3314 0.21167,-0.50644 l 0.0147,-0.011 c 5.4e-4,-0.002 9.1e-4,-0.004 10e-4,-0.006 0.0727,-0.24427 0.29719,-0.39954 0.53979,-0.39954 l 0.011,-0.008 h 0.37514 c 0.41438,0 0.75001,-0.33619 0.75001,-0.7501 0,-0.414 -0.33563,-0.75 -0.75001,-0.75 h -0.31746 c -0.26808,0.0333 -0.52898,-0.12854 -0.60846,-0.39624 -0.002,-0.007 -0.002,-0.0136 -0.004,-0.0203 l -0.0112,-0.008 c -0.0588,-0.17541 -0.12964,-0.34571 -0.21186,-0.50867 l 0.002,-0.0132 c -0.002,-0.004 -0.005,-0.006 -0.007,-0.01 -0.12251,-0.22631 -0.072,-0.49732 0.10326,-0.6687 l 0.002,-0.0112 0.26532,-0.26531 c 0.29278,-0.2926 0.29278,-0.76758 0,-1.06055 -0.13918,-0.13878 -0.34278,-0.21807 -0.52496,-0.22522 -0.20728,0 -0.37519,-0.16771 -0.37519,-0.375 0,-0.20728 0.16791,-0.375 0.37519,-0.375 0.0269,0 0.0529,0.003 0.0784,0.008 0.35266,0.0231 0.70826,0.16791 0.97669,0.43671 0.55092,0.55079 0.5771,1.41943 0.0923,2.00849 0.002,0.003 0.002,0.008 0.004,0.0115 -0.002,0.002 -0.004,0.002 -0.006,0.004 -0.13531,0.13549 -0.26185,0.30945 -0.18256,0.50117 0.079,0.19132 0.27659,0.22978 0.48347,0.22978 z m -2.57169,-1.88745 c -0.20728,0 -0.375,-0.1681 -0.375,-0.37519 0,-0.20672 0.16772,-0.37463 0.375,-0.37463 0.20672,0 0.37462,0.16791 0.37462,0.37463 0,0.20709 -0.1679,0.37519 -0.37462,0.37519 z m -3.77521,6.72262 0.0282,-7.2e-4 v 0 z m 0.53777,0.21094 v 0 l 0.0227,0.0216 -0.0227,-0.0216 v 0 0 0 0 0 l 0.0227,0.0216 z"
       id="path2"
       sodipodi:nodetypes="scsccsccccccccscsccscccccccscsccccccccscsccccsssscccccccccccccccccccccsssccccccccccccccccccccccsssccccccccccccccccccccccsssccccccccccccssccccccsssssscccccccccccccccc"
       style="stroke-width:0.0234376;fill-opacity:1;fill:url(#linearGradient914)" />
    <path
       fill-rule="evenodd"
       clip-rule="evenodd"
       d="m 426.7561,516.33557 c 0.006,0 0.0103,-0.003 0.0159,-0.004 0.75713,0.0749 1.34984,0.71374 1.34984,1.49119 0,0.77902 -0.59344,1.41917 -1.35352,1.49277 -0.001,0.004 -0.004,0.007 -0.005,0.0103 -0.006,-3.7e-4 -0.01,-0.003 -0.0159,-0.003 -0.19111,0 -0.40407,0.0341 -0.48317,0.22519 -0.0791,0.19153 0.033,0.35853 0.17944,0.50464 0.005,0.005 0.0119,0.007 0.0174,0.0117 0.47897,0.58887 0.45185,1.45241 -0.0971,2.00137 -0.54839,0.54855 -1.41265,0.57639 -2.00171,0.0978 -0.009,0.005 -0.0183,0.007 -0.0271,0.0106 -0.004,-0.005 -0.005,-0.0103 -0.01,-0.015 -0.13568,-0.13515 -0.30945,-0.26185 -0.5008,-0.18202 -0.19167,0.0791 -0.22975,0.27612 -0.22975,0.48337 0,0.0187 0.005,0.0355 0.0112,0.0524 -0.0943,0.73828 -0.72029,1.3103 -1.4844,1.3103 -0.77782,0 -1.41704,-0.59217 -1.49267,-1.35022 -0.008,-0.003 -0.0154,-0.008 -0.0238,-0.0106 3.7e-4,-0.004 0.002,-0.007 0.002,-0.0106 0,-0.19113 -0.0339,-0.40354 -0.22505,-0.48265 -0.19135,-0.0795 -0.35853,0.033 -0.5048,0.17944 -0.009,0.009 -0.0132,0.0198 -0.0194,0.03 -0.58833,0.46068 -1.43757,0.42882 -1.97881,-0.11277 -0.54968,-0.54968 -0.57661,-1.41505 -0.0954,-2.00429 -0.005,-0.0103 -0.008,-0.0212 -0.0123,-0.0322 0.13514,-0.13514 0.26128,-0.30909 0.18202,-0.50025 -0.0795,-0.19113 -0.27685,-0.22997 -0.48394,-0.22997 -0.0136,0 -0.0255,0.005 -0.0383,0.008 -0.73772,-0.0937 -1.30955,-0.721 -1.30955,-1.48427 0,-0.78076 0.59621,-1.42107 1.35826,-1.49267 0.002,-0.007 0.006,-0.0128 0.009,-0.0194 0.18841,-0.002 0.39441,-0.037 0.47206,-0.22486 0.0791,-0.19081 -0.0322,-0.35705 -0.17834,-0.50316 -0.47993,-0.58849 -0.453,-1.45313 0.0963,-2.00244 0.5513,-0.55169 1.42199,-0.57715 2.01104,-0.0899 0.006,-0.003 0.0126,-0.004 0.019,-0.007 0.13404,0.13202 0.30469,0.25176 0.49201,0.17433 0.19134,-0.0793 0.2298,-0.27685 0.2298,-0.48378 0,-7.3e-4 -3.7e-4,-10e-4 -3.7e-4,-0.002 0.076,-0.7575 0.71353,-1.34892 1.49098,-1.34892 0.78204,0 1.42311,0.59803 1.49304,1.36156 0.002,5.4e-4 0.003,0.002 0.004,0.002 0,0.0449 0.002,0.091 0.008,0.13622 h -0.005 c 0,0.20691 -0.16771,0.37519 -0.375,0.37519 -0.20672,0 -0.37462,-0.16828 -0.37462,-0.37519 0,-0.41438 -0.336,-0.75 -0.75019,-0.75 -0.41438,0 -0.75001,0.33562 -0.75001,0.75 v 0.37519 l -0.002,0.003 c 0.007,0.24792 -0.15086,0.47937 -0.3997,0.55334 -0.006,0.002 -0.0125,0.002 -0.0183,0.004 l -0.004,0.006 c -0.1754,0.059 -0.34569,0.12927 -0.50903,0.21203 l -0.0108,-0.002 c -0.006,0.003 -0.0115,0.009 -0.018,0.0123 -0.24262,0.1313 -0.5385,0.0655 -0.70512,-0.14245 l -0.23384,-0.23365 c -0.29315,-0.29297 -0.76812,-0.29297 -1.06073,0 -0.29276,0.29297 -0.29276,0.76795 0,1.06055 l 0.26512,0.26531 0.002,0.0112 c 0.17541,0.17138 0.22596,0.44239 0.10346,0.6687 -0.002,0.003 -0.005,0.006 -0.007,0.01 l 0.002,0.0126 c -0.0817,0.16352 -0.15308,0.3338 -0.21168,0.50958 l -0.0113,0.009 c -0.002,0.007 -0.002,0.013 -0.004,0.0198 -0.0796,0.2677 -0.34092,0.42956 -0.60863,0.39623 h -0.31725 c -0.41438,0 -0.75017,0.336 -0.75017,0.75001 0,0.4139 0.33579,0.75009 0.75017,0.75009 h 0.37463 l 0.0112,0.008 c 0.24262,-3.7e-4 0.46727,0.15528 0.54014,0.39954 7.3e-4,0.002 7.3e-4,0.004 10e-4,0.007 l 0.0139,0.0103 c 0.059,0.17541 0.12963,0.3457 0.21204,0.50902 l -0.003,0.0227 c 0.003,0.004 0.006,0.008 0.008,0.0121 0.1313,0.24244 0.0656,0.53834 -0.14245,0.70496 l -0.22779,0.22814 c -0.29276,0.29259 -0.29276,0.76758 0,1.06055 0.29259,0.2926 0.76758,0.2926 1.06074,0 l 0.26531,-0.26513 0.011,-0.002 c 0.171,-0.17064 0.43906,-0.21862 0.66263,-0.0978 0.002,7.3e-4 0.002,0.002 0.004,0.003 l 0.0242,-0.004 c 0.16353,0.0817 0.3338,0.15308 0.50958,0.21167 l 0.015,0.0198 c 0.002,7.3e-4 0.005,7.3e-4 0.008,0.002 0.24499,0.0725 0.40043,0.29811 0.3997,0.54162 l 0.002,0.003 v 0.37533 c 0,0.41419 0.33563,0.75001 0.75,0.75001 0.41419,0 0.75019,-0.33582 0.75019,-0.75001 v -0.37535 l 0.002,-0.003 c -7.2e-4,-0.24354 0.15474,-0.46875 0.39973,-0.54162 0.003,-0.001 0.005,-0.001 0.008,-0.002 l 0.0148,-0.0194 c 0.17541,-0.059 0.34552,-0.12929 0.50899,-0.21204 l 0.0247,0.004 c 0.001,-7.3e-4 0.002,-0.002 0.004,-0.003 0.22357,-0.12085 0.49165,-0.0729 0.66265,0.0978 l 0.0112,0.002 0.26531,0.26512 c 0.2926,0.2926 0.76759,0.2926 1.06074,0 0.29279,-0.29297 0.29279,-0.76795 0,-1.06055 l -0.22797,-0.22815 c -0.20801,-0.16661 -0.27356,-0.46251 -0.14226,-0.70495 0.002,-0.004 0.005,-0.008 0.008,-0.0121 l -0.004,-0.0249 c 0.0817,-0.16331 0.15364,-0.3314 0.21167,-0.50644 l 0.0147,-0.011 c 5.4e-4,-0.002 9.1e-4,-0.004 0.001,-0.006 0.0727,-0.24427 0.29719,-0.39954 0.53979,-0.39954 l 0.011,-0.008 h 0.37514 c 0.41438,0 0.75001,-0.33619 0.75001,-0.7501 0,-0.414 -0.33563,-0.75 -0.75001,-0.75 h -0.31746 c -0.26808,0.0333 -0.52898,-0.12854 -0.60846,-0.39624 -0.002,-0.007 -0.002,-0.0136 -0.004,-0.0203 l -0.0112,-0.008 c -0.0588,-0.17541 -0.12964,-0.34571 -0.21186,-0.50867 l 0.002,-0.0132 c -0.002,-0.004 -0.005,-0.006 -0.007,-0.01 -0.12251,-0.22631 -0.072,-0.49732 0.10326,-0.6687 l 0.002,-0.0112 0.26532,-0.26531 c 0.29278,-0.2926 0.29278,-0.76758 0,-1.06055 -0.13918,-0.13878 -0.34278,-0.21807 -0.52496,-0.22522 -0.20728,0 -0.37519,-0.16771 -0.37519,-0.375 0,-0.20728 0.16791,-0.375 0.37519,-0.375 0.0269,0 0.0529,0.003 0.0784,0.008 0.35266,0.0231 0.70826,0.16791 0.97669,0.43671 0.55092,0.55079 0.5771,1.41943 0.0923,2.00849 0.002,0.003 0.002,0.008 0.004,0.0115 -0.002,0.002 -0.004,0.002 -0.006,0.004 -0.13531,0.13549 -0.26185,0.30945 -0.18256,0.50117 0.079,0.19132 0.27659,0.22978 0.48347,0.22978 z m -2.57169,-1.88745 c -0.20728,0 -0.375,-0.1681 -0.375,-0.37519 0,-0.20672 0.16772,-0.37463 0.375,-0.37463 0.20672,0 0.37462,0.16791 0.37462,0.37463 0,0.20709 -0.1679,0.37519 -0.37462,0.37519 z m -3.77521,6.72262 0.0282,-7.2e-4 v 0 z m 0.53777,0.21094 v 0 l 0.0227,0.0216 -0.0227,-0.0216 v 0 0 0 0 0 l 0.0227,0.0216 z"
       id="path2-36"
       sodipodi:nodetypes="scsccsccccccccscsccscccccccscsccccccccscsccccsssscccccccccccccccccccccsssccccccccccccccccccccccsssccccccccccccccccccccccsssccccccccccccssccccccsssssscccccccccccccccc"
       style="stroke-width:0.0234376;fill-opacity:1.0;fill:url(#linearGradient916)" />
    <path
       fill-rule="evenodd"
       clip-rule="evenodd"
       d="m 420.37614,526.31057 c 0.006,0 0.0103,-0.003 0.0159,-0.004 0.75713,0.0749 1.34984,0.71374 1.34984,1.49119 0,0.77902 -0.59344,1.41917 -1.35352,1.49277 -10e-4,0.004 -0.004,0.007 -0.005,0.0103 -0.006,-3.7e-4 -0.01,-0.003 -0.0159,-0.003 -0.19111,0 -0.40407,0.0341 -0.48317,0.22519 -0.0791,0.19153 0.033,0.35853 0.17944,0.50464 0.005,0.005 0.0119,0.007 0.0174,0.0117 0.47897,0.58887 0.45185,1.45241 -0.0971,2.00137 -0.54839,0.54855 -1.41265,0.57639 -2.00171,0.0978 -0.009,0.005 -0.0183,0.007 -0.0271,0.0106 -0.004,-0.005 -0.005,-0.0103 -0.01,-0.015 -0.13568,-0.13515 -0.30945,-0.26185 -0.5008,-0.18202 -0.19167,0.0791 -0.22975,0.27612 -0.22975,0.48337 0,0.0187 0.005,0.0355 0.0112,0.0524 -0.0943,0.73828 -0.72029,1.3103 -1.4844,1.3103 -0.77782,0 -1.41704,-0.59217 -1.49267,-1.35022 -0.008,-0.003 -0.0154,-0.008 -0.0238,-0.0106 3.7e-4,-0.004 0.002,-0.007 0.002,-0.0106 0,-0.19113 -0.0339,-0.40354 -0.22505,-0.48265 -0.19135,-0.0795 -0.35853,0.033 -0.5048,0.17944 -0.009,0.009 -0.0132,0.0198 -0.0194,0.03 -0.58833,0.46068 -1.43757,0.42882 -1.97881,-0.11277 -0.54968,-0.54968 -0.57661,-1.41505 -0.0954,-2.00429 -0.005,-0.0103 -0.008,-0.0212 -0.0123,-0.0322 0.13514,-0.13514 0.26128,-0.30909 0.18202,-0.50025 -0.0795,-0.19113 -0.27685,-0.22997 -0.48394,-0.22997 -0.0136,0 -0.0255,0.005 -0.0383,0.008 -0.73772,-0.0937 -1.30955,-0.721 -1.30955,-1.48427 0,-0.78076 0.59621,-1.42107 1.35826,-1.49267 0.002,-0.007 0.006,-0.0128 0.009,-0.0194 0.18841,-0.002 0.39441,-0.037 0.47206,-0.22486 0.0791,-0.19081 -0.0322,-0.35705 -0.17834,-0.50316 -0.47993,-0.58849 -0.453,-1.45313 0.0963,-2.00244 0.5513,-0.55169 1.42199,-0.57715 2.01104,-0.0899 0.006,-0.003 0.0126,-0.004 0.019,-0.007 0.13404,0.13202 0.30469,0.25176 0.49201,0.17433 0.19134,-0.0793 0.2298,-0.27685 0.2298,-0.48378 0,-7.3e-4 -3.7e-4,-10e-4 -3.7e-4,-0.002 0.076,-0.7575 0.71353,-1.34892 1.49098,-1.34892 0.78204,0 1.42311,0.59803 1.49304,1.36156 0.002,5.4e-4 0.003,0.002 0.004,0.002 0,0.0449 0.002,0.091 0.008,0.13622 h -0.005 c 0,0.20691 -0.16771,0.37519 -0.375,0.37519 -0.20672,0 -0.37462,-0.16828 -0.37462,-0.37519 0,-0.41438 -0.336,-0.75 -0.75019,-0.75 -0.41438,0 -0.75001,0.33562 -0.75001,0.75 v 0.37519 l -0.002,0.003 c 0.007,0.24792 -0.15086,0.47937 -0.3997,0.55334 -0.006,0.002 -0.0125,0.002 -0.0183,0.004 l -0.004,0.006 c -0.1754,0.059 -0.34569,0.12927 -0.50903,0.21203 l -0.0108,-0.002 c -0.006,0.003 -0.0115,0.009 -0.018,0.0123 -0.24262,0.1313 -0.5385,0.0655 -0.70512,-0.14245 l -0.23384,-0.23365 c -0.29315,-0.29297 -0.76812,-0.29297 -1.06073,0 -0.29276,0.29297 -0.29276,0.76795 0,1.06055 l 0.26512,0.26531 0.002,0.0112 c 0.17541,0.17138 0.22596,0.44239 0.10346,0.6687 -0.002,0.003 -0.005,0.006 -0.007,0.01 l 0.002,0.0126 c -0.0817,0.16352 -0.15308,0.3338 -0.21168,0.50958 l -0.0113,0.009 c -0.002,0.007 -0.002,0.013 -0.004,0.0198 -0.0796,0.2677 -0.34092,0.42956 -0.60863,0.39623 h -0.31725 c -0.41438,0 -0.75017,0.336 -0.75017,0.75001 0,0.4139 0.33579,0.75009 0.75017,0.75009 h 0.37463 l 0.0112,0.008 c 0.24262,-3.7e-4 0.46727,0.15528 0.54014,0.39954 7.3e-4,0.002 7.3e-4,0.004 10e-4,0.007 l 0.0139,0.0103 c 0.059,0.17541 0.12963,0.3457 0.21204,0.50902 l -0.003,0.0227 c 0.003,0.004 0.006,0.008 0.008,0.0121 0.1313,0.24244 0.0656,0.53834 -0.14245,0.70496 l -0.22779,0.22814 c -0.29276,0.29259 -0.29276,0.76758 0,1.06055 0.29259,0.2926 0.76758,0.2926 1.06074,0 l 0.26531,-0.26513 0.011,-0.002 c 0.171,-0.17064 0.43906,-0.21862 0.66263,-0.0978 0.002,7.3e-4 0.002,0.002 0.004,0.003 l 0.0242,-0.004 c 0.16353,0.0817 0.3338,0.15308 0.50958,0.21167 l 0.015,0.0198 c 0.002,7.3e-4 0.005,7.3e-4 0.008,0.002 0.24499,0.0725 0.40043,0.29811 0.3997,0.54162 l 0.002,0.003 v 0.37533 c 0,0.41419 0.33563,0.75001 0.75,0.75001 0.41419,0 0.75019,-0.33582 0.75019,-0.75001 v -0.37535 l 0.002,-0.003 c -7.2e-4,-0.24354 0.15474,-0.46875 0.39973,-0.54162 0.003,-10e-4 0.005,-10e-4 0.008,-0.002 l 0.0148,-0.0194 c 0.17541,-0.059 0.34552,-0.12929 0.50899,-0.21204 l 0.0247,0.004 c 10e-4,-7.3e-4 0.002,-0.002 0.004,-0.003 0.22357,-0.12085 0.49165,-0.0729 0.66265,0.0978 l 0.0112,0.002 0.26531,0.26512 c 0.2926,0.2926 0.76759,0.2926 1.06074,0 0.29279,-0.29297 0.29279,-0.76795 0,-1.06055 l -0.22797,-0.22815 c -0.20801,-0.16661 -0.27356,-0.46251 -0.14226,-0.70495 0.002,-0.004 0.005,-0.008 0.008,-0.0121 l -0.004,-0.0249 c 0.0817,-0.16331 0.15364,-0.3314 0.21167,-0.50644 l 0.0147,-0.011 c 5.4e-4,-0.002 9.1e-4,-0.004 10e-4,-0.006 0.0727,-0.24427 0.29719,-0.39954 0.53979,-0.39954 l 0.011,-0.008 h 0.37514 c 0.41438,0 0.75001,-0.33619 0.75001,-0.7501 0,-0.414 -0.33563,-0.75 -0.75001,-0.75 h -0.31746 c -0.26808,0.0333 -0.52898,-0.12854 -0.60846,-0.39624 -0.002,-0.007 -0.002,-0.0136 -0.004,-0.0203 l -0.0112,-0.008 c -0.0588,-0.17541 -0.12964,-0.34571 -0.21186,-0.50867 l 0.002,-0.0132 c -0.002,-0.004 -0.005,-0.006 -0.007,-0.01 -0.12251,-0.22631 -0.072,-0.49732 0.10326,-0.6687 l 0.002,-0.0112 0.26532,-0.26531 c 0.29278,-0.2926 0.29278,-0.76758 0,-1.06055 -0.13918,-0.13878 -0.34278,-0.21807 -0.52496,-0.22522 -0.20728,0 -0.37519,-0.16771 -0.37519,-0.375 0,-0.20728 0.16791,-0.375 0.37519,-0.375 0.0269,0 0.0529,0.003 0.0784,0.008 0.35266,0.0231 0.70826,0.16791 0.97669,0.43671 0.55092,0.55079 0.5771,1.41943 0.0923,2.00849 0.002,0.003 0.002,0.008 0.004,0.0115 -0.002,0.002 -0.004,0.002 -0.006,0.004 -0.13531,0.13549 -0.26185,0.30945 -0.18256,0.50117 0.079,0.19132 0.27659,0.22978 0.48347,0.22978 z m -2.57169,-1.88745 c -0.20728,0 -0.375,-0.1681 -0.375,-0.37519 0,-0.20672 0.16772,-0.37463 0.375,-0.37463 0.20672,0 0.37462,0.16791 0.37462,0.37463 0,0.20709 -0.1679,0.37519 -0.37462,0.37519 z m -3.77521,6.72262 0.0282,-7.2e-4 v 0 z m 0.53777,0.21094 v 0 l 0.0227,0.0216 -0.0227,-0.0216 v 0 0 0 0 0 l 0.0227,0.0216 z"
       id="path2-7"
       sodipodi:nodetypes="scsccsccccccccscsccscccccccscsccccccccscsccccsssscccccccccccccccccccccsssccccccccccccccccccccccsssccccccccccccccccccccccsssccccccccccccssccccccsssssscccccccccccccccc"
       style="stroke-width:0.0234376;fill-opacity:1.0;fill:url(#linearGradient918)" />
  </g>
</svg>
