<?xml version="1.0" encoding="UTF-8" standalone="no"?>
<svg
   width="64"
   version="1.1"
   height="64"
   id="svg17"
   sodipodi:docname="folder-print.svg"
   inkscape:version="1.1 (c68e22c387, 2021-05-23)"
   xmlns:inkscape="http://www.inkscape.org/namespaces/inkscape"
   xmlns:sodipodi="http://sodipodi.sourceforge.net/DTD/sodipodi-0.dtd"
   xmlns:xlink="http://www.w3.org/1999/xlink"
   xmlns="http://www.w3.org/2000/svg"
   xmlns:svg="http://www.w3.org/2000/svg"
   xmlns:rdf="http://www.w3.org/1999/02/22-rdf-syntax-ns#"
   xmlns:cc="http://creativecommons.org/ns#"
   xmlns:dc="http://purl.org/dc/elements/1.1/">
  <sodipodi:namedview
     pagecolor="#ffffff"
     bordercolor="#666666"
     borderopacity="1"
     objecttolerance="10"
     gridtolerance="10"
     guidetolerance="10"
     inkscape:pageopacity="0"
     inkscape:pageshadow="2"
     inkscape:window-width="1920"
     inkscape:window-height="1007"
     id="namedview19"
     showgrid="true"
     inkscape:zoom="9.8125"
     inkscape:cx="21.452229"
     inkscape:cy="43.719745"
     inkscape:window-x="0"
     inkscape:window-y="0"
     inkscape:window-maximized="1"
     inkscape:current-layer="layer1"
     inkscape:document-rotation="0"
     inkscape:pagecheckerboard="0">
    <inkscape:grid
       type="xygrid"
       id="grid1098" />
  </sodipodi:namedview>
  <defs
     id="defs5455">
    <linearGradient
       inkscape:collect="always"
       xlink:href="#linearGradient853"
       id="linearGradient854"
       gradientUnits="userSpaceOnUse"
       gradientTransform="matrix(0.72722795,0,0,0.74285133,380.20804,478.65555)"
       x1="6"
       y1="50.000134"
       x2="94.005508"
       y2="50.000134" />
    <linearGradient
       inkscape:collect="always"
       id="linearGradient853">
      <stop
         style="stop-color:#ffccaa;stop-opacity:1"
         offset="0"
         id="stop849" />
      <stop
         style="stop-color:#00e5e5;stop-opacity:1"
         offset="1"
         id="stop851" />
    </linearGradient>
    <linearGradient
       inkscape:collect="always"
       xlink:href="#linearGradient853"
       id="linearGradient1454"
       x1="403.87143"
       y1="520.79803"
       x2="427.87137"
       y2="520.79803"
       gradientUnits="userSpaceOnUse" />
  </defs>
  <metadata
     id="metadata5458">
    <rdf:RDF>
      <cc:Work
         rdf:about="">
        <dc:format>image/svg+xml</dc:format>
        <dc:type
           rdf:resource="http://purl.org/dc/dcmitype/StillImage" />
      </cc:Work>
    </rdf:RDF>
  </metadata>
  <g
     inkscape:label="Capa 1"
     inkscape:groupmode="layer"
     id="layer1"
     transform="translate(-384.57143,-483.798)">
    <path
       style="color:#000000;font-style:normal;font-variant:normal;font-weight:normal;font-stretch:normal;font-size:medium;line-height:normal;font-family:Sans;-inkscape-font-specification:Sans;text-indent:0;text-align:start;text-decoration:none;text-decoration-line:none;letter-spacing:normal;word-spacing:normal;text-transform:none;writing-mode:lr-tb;direction:ltr;baseline-shift:baseline;text-anchor:start;display:inline;overflow:visible;visibility:visible;opacity:1;fill:url(#linearGradient854);fill-opacity:1;fill-rule:nonzero;stroke:none;stroke-width:2.94001;marker:none;enable-background:accumulate"
       d="m 390.07109,489.79832 c -2.96566,0 -5.49966,2.1245 -5.49966,4.94461 v 41.61193 c 0,1.75677 0.62193,2.88553 1.82936,3.9097 1.20744,1.02417 2.46056,1.53332 4.05952,1.53332 h 50.83461 c 1.22044,0.0215 1.18574,-1.65277 2.9e-4,-1.67053 l -50.90522,-0.0296 c -1.57325,0 -2.88048,-1.10901 -2.88048,-1.10901 0,0 -1.20462,-0.90367 -1.20462,-2.63392 v -41.61194 c 0,-1.94341 1.32283,-3.19027 3.63351,-3.1649 l 17.89379,-0.009 8.53275,7.60003 c 0.25783,0.23244 0.58794,0.56382 0.93173,0.57124 l 24.81118,-0.009 c 1.26509,-0.007 1.22512,-1.74154 -0.04,-1.76182 h -24.24851 l -9.0449,-7.82312 c -0.26103,-0.22402 -0.59081,-0.34727 -0.93175,-0.34821 z m 28.86186,2.15891 c -1.15449,-0.003 -1.1568,1.98409 0.0288,2.00103 l 22.12886,-0.0304 c 2.24229,-0.003 3.21371,0.72293 3.9603,1.4188 0.74661,0.69588 1.88115,2.39954 1.88115,4.15504 v 40.8104 c 0.007,1.38103 1.63451,1.4265 1.63937,0.0475 l -0.004,-40.85816 c -2.3e-4,-2.38486 -0.78064,-4.38158 -2.18169,-5.68743 -1.40102,-1.30588 -3.30849,-1.85714 -5.29512,-1.85714 h -22.02138 c -0.0455,-0.002 -0.091,-0.002 -0.13636,0 z"
       id="path2-3-3"
       sodipodi:nodetypes="sssssccscsssccccccccsccsssccssscc" />
    <path
       d="m 416.62211,525.29797 h 2.99929 c 0.41457,0 0.75,0.33619 0.75,0.75075 0,0.41307 -0.33543,0.75 -0.75,0.75 h -2.99929 c -0.41457,0 -0.75019,-0.33693 -0.75019,-0.75 -5e-5,-0.41456 0.33562,-0.75075 0.75019,-0.75075 z m -3.75099,0.75075 c 0,-0.41456 0.33581,-0.75075 0.75038,-0.75075 0.41418,0 0.75,0.33619 0.75,0.75075 0,0.41307 -0.33586,0.75 -0.75,0.75 -0.41457,0 -0.75038,-0.33693 -0.75038,-0.75 z m 6.00024,2.99925 c 0,0.41457 -0.33544,0.75 -0.75,0.75 h -6.00024 c -0.41344,0 -0.74925,-0.33543 -0.74925,-0.75 0,-0.41456 0.33581,-0.75 0.74925,-0.75 h 6.00024 c 0.41456,0 0.75,0.33544 0.75,0.75 z m 6.66412,-0.75 h -1.78833 c -1.03636,0 -1.875,-0.83934 -1.875,-1.875 v -1.5 c 0,-0.62114 -0.50465,-1.12504 -1.12575,-1.12504 h -9.7499 c -0.62147,0 -1.125,0.5039 -1.125,1.12504 v 5.25 c 0,0.62185 0.50353,1.1258 1.125,1.1258 h 9.7499 c 0.48928,0 1.12575,-0.43823 1.12575,-0.7508 v 0 c 0,-0.41381 0.33544,-0.75 0.74925,-0.75 0.41457,0 0.75,0.33619 0.75,0.75 0,0.052 -0.0117,0.10036 -0.0154,0.1516 -0.0791,1.17047 -1.04371,2.09845 -2.23387,2.09845 h -10.50032 c -1.24257,0 -2.25038,-1.00706 -2.25038,-2.25005 v -2.25 -1.49925 -2.25075 c 0,-1.24223 1.00781,-2.25004 2.25038,-2.25004 h 10.50028 c 1.24218,0 2.24925,1.00781 2.24925,2.25004 v 1.50075 c 0,0.41307 0.33543,0.75 0.75,0.75 h 0.37575 c 1.0349,0 1.87504,-0.84009 1.87504,-1.87575 v -4.87486 c 0,-0.41418 0.33544,-0.75 0.75,-0.75 0.41307,0 0.74925,0.33582 0.74925,0.75 v 5.71074 c 5e-5,0.96014 -1.34367,2.53912 -2.33592,2.53912 z m 0.0859,-10.50028 c -0.41381,0 -0.75,-0.33544 -0.75,-0.75 0,-0.41344 0.33619,-0.74925 0.75,-0.74925 0.41456,0 0.7508,0.33581 0.7508,0.74925 0,0.41456 -0.33624,0.75 -0.7508,0.75 z m -4.49925,0 h -0.75075 -9.74957 -3.37538 c -1.03566,0 -1.87462,0.8401 -1.87462,1.87505 v 4.12519 0.13771 2.11308 c 0,0.41307 0.33543,0.75 0.75,0.75 0.41343,0 0.74924,0.33544 0.74924,0.74925 0,0.41457 -0.33581,0.75 -0.74924,0.75 -0.0517,0 -0.10036,-0.0117 -0.15127,-0.0154 -1.1715,-0.0791 -2.09911,-1.04371 -2.09911,-2.23387 0,-0.11353 0.0168,-0.22045 0.0326,-0.32887 -0.019,-0.13842 -0.0326,-0.27835 -0.0326,-0.42188 v -5.99986 c 0,-1.65717 1.34362,-2.99967 2.99962,-2.99967 h 1.12576 0.37462 2.625 0.75 8.99991 c 0.62109,0 1.12575,-0.50428 1.12575,-1.12575 V 511.423 c 0,-0.62109 -0.50466,-1.12463 -1.12575,-1.12463 h -9.74986 c -0.62147,0 -1.125,0.50354 -1.125,1.12463 v 2.62505 c 0,0.41456 -0.33544,0.75 -0.75,0.75 -0.41457,0 -0.75,-0.33544 -0.75,-0.75 v -2.99968 c -5e-5,-1.24331 1.00776,-2.25037 2.25033,-2.25037 h 10.50028 c 1.24218,0 2.24925,1.00706 2.24925,2.25037 v 4.50005 c 4e-5,1.24219 -1.00702,2.24925 -2.24921,2.24925 z m -13.50103,1.50042 c 0.41456,0 0.75038,0.33582 0.75038,0.75 0,0.41457 -0.33582,0.75038 -0.75038,0.75038 -0.41348,0 -0.75,-0.33581 -0.75,-0.75038 -5e-5,-0.41418 0.33652,-0.75 0.75,-0.75 z"
       id="path2"
       style="stroke-width:0.046875;fill-opacity:1.0;fill:url(#linearGradient1454)" />
  </g>
</svg>
