<?xml version="1.0" encoding="UTF-8" standalone="no"?>
<svg
   width="64"
   version="1.1"
   height="64"
   id="svg17"
   sodipodi:docname="folder-pictures.svg"
   inkscape:version="1.1 (c68e22c387, 2021-05-23)"
   xmlns:inkscape="http://www.inkscape.org/namespaces/inkscape"
   xmlns:sodipodi="http://sodipodi.sourceforge.net/DTD/sodipodi-0.dtd"
   xmlns:xlink="http://www.w3.org/1999/xlink"
   xmlns="http://www.w3.org/2000/svg"
   xmlns:svg="http://www.w3.org/2000/svg"
   xmlns:rdf="http://www.w3.org/1999/02/22-rdf-syntax-ns#"
   xmlns:cc="http://creativecommons.org/ns#"
   xmlns:dc="http://purl.org/dc/elements/1.1/">
  <sodipodi:namedview
     pagecolor="#ffffff"
     bordercolor="#666666"
     borderopacity="1"
     objecttolerance="10"
     gridtolerance="10"
     guidetolerance="10"
     inkscape:pageopacity="0"
     inkscape:pageshadow="2"
     inkscape:window-width="1920"
     inkscape:window-height="1007"
     id="namedview19"
     showgrid="true"
     inkscape:zoom="9.8125003"
     inkscape:cx="30.420381"
     inkscape:cy="35.159235"
     inkscape:window-x="0"
     inkscape:window-y="0"
     inkscape:window-maximized="1"
     inkscape:current-layer="layer1"
     inkscape:document-rotation="0"
     inkscape:lockguides="false"
     inkscape:pagecheckerboard="0">
    <inkscape:grid
       type="xygrid"
       id="grid1568" />
  </sodipodi:namedview>
  <defs
     id="defs5455">
    <linearGradient
       inkscape:collect="always"
       id="linearGradient851">
      <stop
         style="stop-color:#ccff00;stop-opacity:1"
         offset="0"
         id="stop847" />
      <stop
         style="stop-color:#ffccaa;stop-opacity:1"
         offset="1"
         id="stop849" />
    </linearGradient>
    <linearGradient
       inkscape:collect="always"
       xlink:href="#linearGradient851"
       id="linearGradient854"
       gradientUnits="userSpaceOnUse"
       gradientTransform="matrix(0.9780981,0,0,1,64.250683,974.47294)"
       x1="6"
       y1="50.000134"
       x2="94.005508"
       y2="50.000134" />
    <linearGradient
       inkscape:collect="always"
       xlink:href="#linearGradient851"
       id="linearGradient1889"
       x1="401.86566"
       y1="520.7981"
       x2="431.46234"
       y2="520.7981"
       gradientUnits="userSpaceOnUse" />
    <linearGradient
       inkscape:collect="always"
       xlink:href="#linearGradient851"
       id="linearGradient1897"
       x1="401.86566"
       y1="520.7981"
       x2="431.46234"
       y2="520.7981"
       gradientUnits="userSpaceOnUse" />
  </defs>
  <metadata
     id="metadata5458">
    <rdf:RDF>
      <cc:Work
         rdf:about="">
        <dc:format>image/svg+xml</dc:format>
        <dc:type
           rdf:resource="http://purl.org/dc/dcmitype/StillImage" />
      </cc:Work>
    </rdf:RDF>
  </metadata>
  <g
     inkscape:label="Capa 1"
     inkscape:groupmode="layer"
     id="layer1"
     transform="translate(-384.57143,-483.798)">
    <g
       transform="matrix(0.7435117,0,0,0.74285165,332.43693,-245.2334)"
       id="g4">
      <path
         style="color:#000000;font-style:normal;font-variant:normal;font-weight:normal;font-stretch:normal;font-size:medium;line-height:normal;font-family:Sans;-inkscape-font-specification:Sans;text-indent:0;text-align:start;text-decoration:none;text-decoration-line:none;letter-spacing:normal;word-spacing:normal;text-transform:none;writing-mode:lr-tb;direction:ltr;baseline-shift:baseline;text-anchor:start;display:inline;overflow:visible;visibility:visible;opacity:1;fill:url(#linearGradient854);fill-opacity:1;fill-rule:nonzero;stroke:none;stroke-width:3.95596;marker:none;enable-background:accumulate"
         d="m 77.516136,989.47294 c -3.988712,0 -7.396866,2.85993 -7.396866,6.65625 v 56.01651 c 0,2.3649 0.836461,3.8844 2.460429,5.2631 1.623967,1.3787 3.30936,2.0641 5.459931,2.0641 h 68.3709 c 1.64145,0.029 1.59477,-2.2249 3.9e-4,-2.2488 l -68.465873,-0.04 c -2.115981,0 -3.874159,-1.4929 -3.874159,-1.4929 0,0 -1.620163,-1.2165 -1.620163,-3.5457 v -56.01651 c 0,-2.61614 1.77916,-4.29462 4.886948,-4.26047 l 24.066557,-0.0121 11.47627,10.23088 c 0.34679,0.3129 0.79077,0.759 1.25317,0.769 l 33.37023,-0.012 c 1.7015,-0.01 1.64773,-2.3444 -0.0538,-2.3717 h -32.61346 l -12.1651,-10.53119 c -0.35109,-0.30157 -0.79464,-0.46748 -1.25318,-0.46875 z m 38.818274,2.90625 c -1.55276,-0.004 -1.55586,2.67092 0.0388,2.69371 l 29.7626,-0.0408 c 3.0158,-0.004 4.32232,0.97316 5.32647,1.90993 1.00416,0.93677 2.53008,3.23017 2.53008,5.59337 v 54.9375 c 0.009,1.8591 2.19838,1.9203 2.20491,0.064 l -0.006,-55.0018 c -3.1e-4,-3.21041 -1.04994,-5.89832 -2.9343,-7.65623 -1.88434,-1.75791 -4.44981,-2.5 -7.12177,-2.5 h -29.61804 c -0.0611,-0.003 -0.12228,-0.003 -0.18339,0 z"
         id="path2-3"
         sodipodi:nodetypes="sssssccscsssccccccccsccsssccssscc" />
    </g>
    <path
       d="m 426.8176,516.18287 c -1.52977,0 -2.76969,-1.23992 -2.76969,-2.76877 0,-0.50982 0.41376,-0.92359 0.92353,-0.92359 0.51023,0 0.92262,0.41377 0.92262,0.92354 0,0.50884 0.41377,0.92261 0.92354,0.92261 0.51023,0 0.92261,0.41377 0.92261,0.92262 0,0.50982 -0.41238,0.92359 -0.92261,0.92359 z m -1.84616,11.99989 c 0,0.51023 -0.41377,0.924 -0.92353,0.924 -0.50885,0 -0.92262,-0.41377 -0.92262,-0.924 0,-0.51023 0.41377,-0.92216 0.92262,-0.92216 0.50976,0 0.92353,0.41193 0.92353,0.92216 z m -3.15144,-7.7662 -0.57421,0.57289 c -0.36012,0.36035 -0.94379,0.36035 -1.30529,0 -0.36012,-0.36012 -0.36012,-0.94517 0,-1.30529 l 0.57421,-0.57335 c 1.44231,-1.44184 3.77931,-1.44184 5.22116,0 l 1.95796,1.95866 c 0.3615,0.35965 0.3615,0.94471 0,1.30529 -0.36012,0.35965 -0.94471,0.35965 -1.30529,0 l -1.95796,-1.95814 c -0.72023,-0.72167 -1.89035,-0.72167 -2.61058,-6e-5 z m 5.92021,12.38164 h -22.15338 c -2.03908,0 -3.69231,-1.65237 -3.69231,-3.69144 v -2.77016 c 0,-0.51023 0.41377,-0.92215 0.92354,-0.92215 0.50884,0 0.92261,0.41198 0.92261,0.92215 v 2.77016 c 0,1.01867 0.82616,1.84529 1.84616,1.84529 h 22.15338 c 1.02,0 1.84616,-0.82662 1.84616,-1.84529 v -16.61625 c 0,-1.02 -0.82616,-1.84616 -1.84616,-1.84616 h -22.15338 c -1.02,0 -1.84616,0.82616 -1.84616,1.84616 v 8.91334 c 0,0.25512 0.20689,0.46154 0.46108,0.46154 0.11896,0 0.22223,-0.0451 0.3056,-0.11896 l 4.4689,-4.46873 c 1.44185,-1.4419 3.77931,-1.4419 5.22115,0 l 7.77225,7.77254 c 0.18572,0.16857 0.30468,0.41013 0.30468,0.68146 0,0.50838 -0.41285,0.92215 -0.92262,0.92215 -0.28079,0 -0.52915,-0.12709 -0.69773,-0.32452 l -0.008,0.007 -7.75333,-7.75355 c -0.72023,-0.72023 -1.89034,-0.72023 -2.61057,0 l -4.47479,4.47502 c -0.41602,0.40292 -0.98077,0.65353 -1.605,0.65353 -1.27423,2e-5 -2.30727,-1.03302 -2.30727,-2.30768 v -8.91334 c 0,-2.03908 1.65323,-3.69231 3.69231,-3.69231 h 22.15338 c 2.04,0 3.69277,1.65329 3.69277,3.69231 v 16.61619 c 0,2.03913 -1.65277,3.6915 -3.69277,3.6915 z"
       id="path2-36"
       style="stroke-width:0.0576923;stroke:url(#linearGradient1889);fill-opacity:1.0;fill:url(#linearGradient1897)" />
  </g>
</svg>
