<?xml version="1.0" encoding="UTF-8" standalone="no"?>
<svg
   width="64"
   version="1.1"
   height="64"
   id="svg16"
   sodipodi:docname="folder-java.svg"
   inkscape:version="1.2 (dc2aedaf03, 2022-05-15)"
   xmlns:inkscape="http://www.inkscape.org/namespaces/inkscape"
   xmlns:sodipodi="http://sodipodi.sourceforge.net/DTD/sodipodi-0.dtd"
   xmlns:xlink="http://www.w3.org/1999/xlink"
   xmlns="http://www.w3.org/2000/svg"
   xmlns:svg="http://www.w3.org/2000/svg"
   xmlns:rdf="http://www.w3.org/1999/02/22-rdf-syntax-ns#"
   xmlns:cc="http://creativecommons.org/ns#"
   xmlns:dc="http://purl.org/dc/elements/1.1/">
  <sodipodi:namedview
     pagecolor="#ffffff"
     bordercolor="#666666"
     borderopacity="1"
     objecttolerance="10"
     gridtolerance="10"
     guidetolerance="10"
     inkscape:pageopacity="0"
     inkscape:pageshadow="2"
     inkscape:window-width="1920"
     inkscape:window-height="1011"
     id="namedview18"
     showgrid="true"
     inkscape:zoom="9.8125"
     inkscape:cx="4.7388535"
     inkscape:cy="38.624204"
     inkscape:window-x="0"
     inkscape:window-y="0"
     inkscape:window-maximized="1"
     inkscape:current-layer="layer1-2"
     inkscape:pagecheckerboard="0"
     inkscape:showpageshadow="2"
     inkscape:deskcolor="#d1d1d1">
    <inkscape:grid
       type="xygrid"
       id="grid4138" />
  </sodipodi:namedview>
  <defs
     id="defs5455">
    <linearGradient
       id="linearGradient4172-0">
      <stop
         style="stop-color:#f89406"
         id="stop4174-4" />
      <stop
         offset="1"
         style="stop-color:#faa938"
         id="stop4176-5" />
    </linearGradient>
    <linearGradient
       inkscape:collect="always"
       xlink:href="#linearGradient4172-0"
       id="linearGradient854"
       gradientUnits="userSpaceOnUse"
       gradientTransform="matrix(0.72722795,0,0,0.74284988,380.20804,478.65558)"
       x1="6"
       y1="50.000134"
       x2="94.005508"
       y2="50.000134" />
    <linearGradient
       inkscape:collect="always"
       xlink:href="#linearGradient4172-0"
       id="linearGradient4198"
       x1="403.07544"
       y1="532.01965"
       x2="428.06711"
       y2="532.01965"
       gradientUnits="userSpaceOnUse" />
    <linearGradient
       inkscape:collect="always"
       xlink:href="#linearGradient4172-0"
       id="linearGradient4200"
       x1="423.30621"
       y1="524.29138"
       x2="431.0452"
       y2="524.29138"
       gradientUnits="userSpaceOnUse" />
    <linearGradient
       inkscape:collect="always"
       xlink:href="#linearGradient4172-0"
       id="linearGradient4202"
       x1="403.67047"
       y1="516.59814"
       x2="427.47211"
       y2="516.59814"
       gradientUnits="userSpaceOnUse" />
    <linearGradient
       inkscape:collect="always"
       xlink:href="#linearGradient4172-0"
       id="linearGradient4204"
       x1="409.62091"
       y1="512.38324"
       x2="424.49695"
       y2="512.38324"
       gradientUnits="userSpaceOnUse" />
    <linearGradient
       inkscape:collect="always"
       xlink:href="#linearGradient4172-0"
       id="linearGradient4206"
       x1="403.67145"
       y1="525.17749"
       x2="427.47302"
       y2="525.17749"
       gradientUnits="userSpaceOnUse" />
    <linearGradient
       inkscape:collect="always"
       xlink:href="#linearGradient4172-0"
       id="linearGradient4208"
       x1="411.70352"
       y1="521.3089"
       x2="425.98447"
       y2="521.3089"
       gradientUnits="userSpaceOnUse" />
  </defs>
  <metadata
     id="metadata5458">
    <rdf:RDF>
      <cc:Work
         rdf:about="">
        <dc:format>image/svg+xml</dc:format>
        <dc:type
           rdf:resource="http://purl.org/dc/dcmitype/StillImage" />
      </cc:Work>
    </rdf:RDF>
  </metadata>
  <g
     inkscape:label="Capa 1"
     inkscape:groupmode="layer"
     id="layer1-2"
     transform="translate(-384.57143,-483.79801)">
    <path
       style="color:#000000;font-style:normal;font-variant:normal;font-weight:normal;font-stretch:normal;font-size:medium;line-height:normal;font-family:Sans;-inkscape-font-specification:Sans;text-indent:0;text-align:start;text-decoration:none;text-decoration-line:none;letter-spacing:normal;word-spacing:normal;text-transform:none;writing-mode:lr-tb;direction:ltr;baseline-shift:baseline;text-anchor:start;display:inline;overflow:visible;visibility:visible;opacity:1;fill:url(#linearGradient854);fill-opacity:1;fill-rule:nonzero;stroke:none;stroke-width:2.94001;marker:none;enable-background:accumulate"
       d="m 390.07109,489.79833 c -2.96566,0 -5.49966,2.12449 -5.49966,4.9446 v 41.61184 c 0,1.75677 0.62193,2.88553 1.82936,3.9097 1.20744,1.02417 2.46056,1.53331 4.05952,1.53331 h 50.83461 c 1.22044,0.0216 1.18574,-1.65276 2.9e-4,-1.67052 l -50.90522,-0.0297 c -1.57325,0 -2.88048,-1.10901 -2.88048,-1.10901 0,0 -1.20462,-0.90367 -1.20462,-2.63392 v -41.61185 c 0,-1.94341 1.32283,-3.19027 3.63351,-3.16489 l 17.89379,-0.009 8.53275,7.60001 c 0.25783,0.23243 0.58794,0.56382 0.93173,0.57124 l 24.81118,-0.009 c 1.26509,-0.007 1.22512,-1.74154 -0.04,-1.76182 h -24.24851 l -9.0449,-7.8231 c -0.26103,-0.22402 -0.59081,-0.34727 -0.93175,-0.34821 z m 28.86186,2.15891 c -1.15449,-0.003 -1.1568,1.98408 0.0288,2.00102 l 22.12886,-0.0304 c 2.24229,-0.003 3.21371,0.72293 3.9603,1.4188 0.74661,0.69588 1.88115,2.39953 1.88115,4.15503 v 40.81032 c 0.007,1.38103 1.63451,1.42649 1.63937,0.0475 l -0.004,-40.85808 c -2.3e-4,-2.38485 -0.78064,-4.38157 -2.18169,-5.68742 -1.40102,-1.30588 -3.30849,-1.85713 -5.29512,-1.85713 h -22.02138 c -0.0455,-0.002 -0.091,-0.002 -0.13636,0 z"
       id="path2-3"
       sodipodi:nodetypes="sssssccscsssccccccccsccsssccssscc" />
    <path
       d="m 427.47212,532.81301 h -23.80164 c -0.32788,0 -0.59505,-0.46553 -0.59505,-0.79343 0,-0.32777 0.26717,-0.7933 0.59505,-0.7933 h 23.80164 c 0.3279,0 0.59499,0.46553 0.59499,0.7933 0,0.3279 -0.26709,0.79343 -0.59499,0.79343 z"
       id="path2-3-3"
       style="color:#eff0f1;fill:url(#linearGradient4198);fill-opacity:1.0;stroke-width:0.0595041"
       sodipodi:nodetypes="sssssss"
       class="ColorScheme-Text" />
    <path
       d="m 423.90363,528.44942 h -0.003 c -0.31417,0 -0.57473,-0.24584 -0.5933,-0.55993 -0.0201,-0.32736 0.23085,-0.60936 0.55885,-0.62905 h 5.3e-4 c 0.003,-6e-4 0.009,-10e-4 0.0201,-10e-4 0.028,-0.003 0.0579,-0.005 0.0908,-0.009 0.0763,-0.008 0.20228,-0.0271 0.36476,-0.0588 0.29101,-0.0575 0.74802,-0.17208 1.274,-0.38679 1.35198,-0.55342 2.45336,-1.45665 3.2721,-2.6842 0.91164,-1.35493 0.96822,-2.01902 0.96399,-2.19037 -0.001,-0.1572 -0.0325,-0.23207 -0.0637,-0.28508 -0.0384,-0.0621 -0.0893,-0.108 -0.17135,-0.15467 -0.17675,-0.10346 -0.51715,-0.1678 -0.8896,-0.1678 -0.008,0 -0.0181,0 -0.0265,0 h -0.012 c -0.73191,0 -1.58283,0.20999 -1.71963,0.25103 -0.005,10e-4 -0.005,10e-4 -0.005,10e-4 -0.0531,0.0156 -0.10854,0.0233 -0.16367,0.0233 -0.2642,0 -0.49923,-0.17734 -0.57184,-0.43146 -0.0445,-0.15293 -0.0253,-0.3136 0.0513,-0.45282 0.0768,-0.13899 0.20411,-0.2392 0.35699,-0.28326 0.001,0 0.009,-0.003 0.0223,-0.005 0.32304,-0.0876 1.16865,-0.29039 2.0439,-0.29337 0.44572,10e-4 0.8046,0.0513 1.13,0.1589 0.30358,0.0996 0.71944,0.30942 0.9783,0.74142 0.15353,0.25406 0.23434,0.56468 0.23322,0.89736 -0.008,0.76698 -0.36777,1.64578 -1.16394,2.85017 -0.52306,0.78543 -1.15967,1.4674 -1.89163,2.02733 -0.58728,0.44924 -1.23347,0.81878 -1.92076,1.09904 -1.11093,0.45279 -1.96605,0.53192 -2.12605,0.54324 h -0.003 c -0.0107,5.2e-4 -0.0233,10e-4 -0.0336,10e-4 z"
       id="path6-6"
       style="color:#eff0f1;fill:url(#linearGradient4200);fill-opacity:1.0;stroke-width:0.0595041"
       class="ColorScheme-Text" />
    <path
       d="m 426.87707,518.92874 h -12.49579 c -0.32797,0 -0.59505,-0.26716 -0.59505,-0.59505 0,-0.32789 0.26708,-0.59507 0.59505,-0.59507 h 11.40495 v -1.78517 h -20.42984 v 1.78517 h 3.07439 c 0.32789,0 0.59505,0.26718 0.59505,0.59507 0,0.32789 -0.26716,0.59505 -0.59505,0.59505 h -4.16523 c -0.15652,0 -0.31005,-0.0637 -0.42069,-0.17444 -0.11094,-0.11093 -0.17438,-0.26417 -0.17438,-0.42061 v -2.97521 c 0,-0.15654 0.0637,-0.80567 0.17438,-0.91642 0.11093,-0.11093 0.26417,-0.17452 0.42069,-0.17452 h 22.61152 c 0.15655,0 0.31008,0.064 0.42067,0.17452 0.11093,0.11094 0.17438,0.75988 0.17438,0.91642 v 2.97521 c 0,0.15644 -0.0637,0.30996 -0.17438,0.42061 -0.1108,0.11094 -0.26412,0.17444 -0.42067,0.17444 z m -15.47108,0 c -0.32851,0 -0.59505,-0.26716 -0.59505,-0.59505 0,-0.32789 0.26654,-0.59507 0.59505,-0.59507 0.32789,0 0.59505,0.26718 0.59505,0.59507 0,0.32789 -0.26716,0.59505 -0.59505,0.59505 z"
       id="path10-7"
       style="color:#eff0f1;fill:url(#linearGradient4202);fill-opacity:1.0;stroke-width:0.0595041"
       sodipodi:nodetypes="ssssccccsssssssssscsscssssss"
       class="ColorScheme-Text" />
    <path
       d="m 414.38128,515.95345 c -0.32797,0 -0.59505,-0.26708 -0.59505,-0.59497 v -1.19012 c 0,-0.47655 0.18555,-0.92523 0.52305,-1.26202 0.33671,-0.33689 0.78486,-0.52306 1.26204,-0.52306 h 7.14052 c 0.32718,-6.3e-4 0.59446,-0.2678 0.59506,-0.59506 -6e-4,-0.32728 -0.26788,-0.59445 -0.59506,-0.59497 h -11.30585 c -0.47665,0 -0.92523,-0.18575 -1.26212,-0.52307 -0.33732,-0.33689 -0.52297,-0.78485 -0.52297,-1.26212 0,-0.32788 0.26718,-0.59505 0.59497,-0.59505 0.32797,0 0.59507,0.26717 0.59507,0.59505 6e-4,0.32727 0.2678,0.59446 0.59505,0.59507 h 11.30585 c 0.47719,0 0.92523,0.18556 1.26204,0.52305 0.33739,0.33671 0.52306,0.78539 0.52306,1.26204 0,0.47727 -0.18567,0.92523 -0.52306,1.26212 -0.33681,0.33731 -0.78485,0.52295 -1.26204,0.52295 h -7.14052 c -0.32736,6.4e-4 -0.59445,0.26781 -0.59506,0.59507 v 1.19012 c 0,0.32789 -0.26719,0.59497 -0.59498,0.59497 z"
       id="path14-5"
       style="color:#eff0f1;fill:url(#linearGradient4204);fill-opacity:1.0;stroke-width:0.0595041"
       class="ColorScheme-Text" />
    <path
       d="m 417.4029,532.61465 h -3.61615 c -0.0435,0 -0.0768,-0.003 -0.1196,-0.0107 -1.35132,-0.27725 -2.64845,-0.8384 -3.85517,-1.66725 -1.17054,-0.80457 -2.10039,-1.65955 -2.99828,-2.88757 -0.26511,-0.39196 -0.0661,-0.86192 0.21385,-1.08708 0.10173,-0.0747 0.31793,-0.17226 0.54255,-0.23411 0.22666,-0.0627 0.56734,0.0916 0.67932,0.244 1.64348,2.24748 3.24768,3.46109 5.59872,3.95799 h 3.4934 c 2.34921,-0.4974 4.04809,-1.51839 5.6827,-3.77414 1.66254,-2.29328 2.63887,-5.21496 2.75012,-8.22586 h -20.41792 c 0.0395,1.04009 0.19246,2.0749 0.43342,3.0757 0.009,0.0467 0.0168,0.0943 0.0168,0.14172 -0.0927,0.31611 -0.38083,0.48696 -0.64854,0.55124 -0.0461,0.009 -0.1976,0.0417 -0.24404,0.0417 -0.2761,0 -0.71225,-0.18747 -0.7771,-0.45579 -0.2677,-1.11332 -0.42123,-2.26363 -0.45754,-3.41857 -0.005,-0.20171 -0.008,-0.37066 -0.008,-0.53074 0,-0.15649 0.0639,-0.31002 0.17438,-0.42068 0.11093,-0.11093 0.26417,-0.17438 0.42061,-0.17438 h 22.61156 c 0.15659,0 0.31011,0.0637 0.42071,0.17437 0.11093,0.11093 0.17432,0.2642 0.17432,0.42069 0,0.16122 -0.003,0.33026 -0.008,0.53074 -0.0513,1.66972 -0.34335,3.30485 -0.86692,4.8585 -0.50758,1.5055 -1.21811,2.89487 -2.11243,4.13015 -0.89377,1.23353 -1.93932,2.26833 -3.10733,3.07579 -1.20498,0.83304 -2.5016,1.39598 -3.85407,1.67384 -0.0425,0.008 -0.0763,0.0107 -0.1196,0.0107 z m -11.72303,-7.06615 c -0.2332,0 -0.44557,-0.13696 -0.54204,-0.34861 v -6e-4 c -0.0667,-0.14457 -0.0715,-0.30645 -0.0156,-0.45469 0.0559,-0.14878 0.166,-0.2671 0.31119,-0.33324 0.0779,-0.0347 0.16064,-0.0524 0.24578,-0.0524 0.23264,0 0.44568,0.13696 0.54204,0.34868 v 6.5e-4 c 0.13598,0.29867 0.003,0.65147 -0.2957,0.78719 -0.0773,0.0357 -0.16066,0.0531 -0.2458,0.0531 z"
       id="path22-3"
       style="color:#eff0f1;fill:url(#linearGradient4206);fill-opacity:1.0;stroke-width:0.0595041"
       sodipodi:nodetypes="ssccccscccccccccsccsssscscccccssccccscccs"
       class="ColorScheme-Text" />
    <path
       d="m 425.38952,521.90396 h -13.09094 c -0.3279,0 -0.59506,-0.26727 -0.59506,-0.59506 0,-0.32789 0.26716,-0.59506 0.59506,-0.59506 h 13.09094 c 0.32779,0 0.59496,0.26717 0.59496,0.59506 0,0.32779 -0.26717,0.59506 -0.59496,0.59506 z"
       id="path26-5"
       style="color:#eff0f1;fill:url(#linearGradient4208);fill-opacity:1.0;stroke-width:0.0595041"
       class="ColorScheme-Text" />
  </g>
</svg>
