<?xml version="1.0" encoding="UTF-8" standalone="no"?>
<svg
   width="64"
   version="1.1"
   height="64"
   id="svg15"
   sodipodi:docname="folder-docker.svg"
   inkscape:version="1.1.1 (3bf5ae0d25, 2021-09-20)"
   xmlns:inkscape="http://www.inkscape.org/namespaces/inkscape"
   xmlns:sodipodi="http://sodipodi.sourceforge.net/DTD/sodipodi-0.dtd"
   xmlns:xlink="http://www.w3.org/1999/xlink"
   xmlns="http://www.w3.org/2000/svg"
   xmlns:svg="http://www.w3.org/2000/svg"
   xmlns:rdf="http://www.w3.org/1999/02/22-rdf-syntax-ns#"
   xmlns:cc="http://creativecommons.org/ns#"
   xmlns:dc="http://purl.org/dc/elements/1.1/">
  <sodipodi:namedview
     pagecolor="#ffffff"
     bordercolor="#666666"
     borderopacity="1"
     objecttolerance="10"
     gridtolerance="10"
     guidetolerance="10"
     inkscape:pageopacity="0"
     inkscape:pageshadow="2"
     inkscape:window-width="1920"
     inkscape:window-height="1015"
     id="namedview17"
     showgrid="true"
     inkscape:zoom="9.8125"
     inkscape:cx="32"
     inkscape:cy="32"
     inkscape:window-x="0"
     inkscape:window-y="0"
     inkscape:window-maximized="1"
     inkscape:current-layer="g20"
     inkscape:document-rotation="0"
     inkscape:pagecheckerboard="0">
    <inkscape:grid
       type="xygrid"
       id="grid850" />
  </sodipodi:namedview>
  <defs
     id="defs5455">
    <linearGradient
       inkscape:collect="always"
       xlink:href="#linearGradient836"
       id="linearGradient838"
       x1="6"
       y1="50.000134"
       x2="94.005508"
       y2="50.000134"
       gradientUnits="userSpaceOnUse"
       gradientTransform="matrix(0.9780981,0,0,1,64.171715,974.03282)" />
    <linearGradient
       inkscape:collect="always"
       id="linearGradient836">
      <stop
         style="stop-color:#ffb380;stop-opacity:1"
         offset="0"
         id="stop832" />
      <stop
         style="stop-color:#20ffff;stop-opacity:1"
         offset="0.48615947"
         id="stop1390" />
      <stop
         style="stop-color:#ffaeff;stop-opacity:1"
         offset="1"
         id="stop834" />
    </linearGradient>
    <linearGradient
       inkscape:collect="always"
       xlink:href="#linearGradient836"
       id="linearGradient970"
       x1="11.1"
       y1="25.999975"
       x2="39.099949"
       y2="25.999975"
       gradientUnits="userSpaceOnUse" />
    <linearGradient
       inkscape:collect="always"
       xlink:href="#linearGradient836"
       id="linearGradient972"
       x1="22.1"
       y1="19.5"
       x2="27.1"
       y2="19.5"
       gradientUnits="userSpaceOnUse" />
    <linearGradient
       inkscape:collect="always"
       xlink:href="#linearGradient836"
       id="linearGradient974"
       x1="13.1"
       y1="19.5"
       x2="18.1"
       y2="19.5"
       gradientUnits="userSpaceOnUse" />
    <linearGradient
       inkscape:collect="always"
       xlink:href="#linearGradient836"
       id="linearGradient976"
       x1="16.1"
       y1="16.5"
       x2="21.1"
       y2="16.5"
       gradientUnits="userSpaceOnUse" />
    <linearGradient
       inkscape:collect="always"
       xlink:href="#linearGradient836"
       id="linearGradient978"
       x1="16.1"
       y1="19.5"
       x2="21.1"
       y2="19.5"
       gradientUnits="userSpaceOnUse" />
    <linearGradient
       inkscape:collect="always"
       xlink:href="#linearGradient836"
       id="linearGradient980"
       x1="19.1"
       y1="13.5"
       x2="24.1"
       y2="13.5"
       gradientUnits="userSpaceOnUse" />
    <linearGradient
       inkscape:collect="always"
       xlink:href="#linearGradient836"
       id="linearGradient982"
       x1="19.1"
       y1="16.5"
       x2="24.1"
       y2="16.5"
       gradientUnits="userSpaceOnUse" />
    <linearGradient
       inkscape:collect="always"
       xlink:href="#linearGradient836"
       id="linearGradient984"
       x1="19.1"
       y1="19.5"
       x2="24.1"
       y2="19.5"
       gradientUnits="userSpaceOnUse" />
    <linearGradient
       inkscape:collect="always"
       xlink:href="#linearGradient836"
       id="linearGradient986"
       x1="15.099997"
       y1="27.499996"
       x2="18.099997"
       y2="27.499996"
       gradientUnits="userSpaceOnUse" />
  </defs>
  <metadata
     id="metadata5458">
    <rdf:RDF>
      <cc:Work
         rdf:about="">
        <dc:format>image/svg+xml</dc:format>
        <dc:type
           rdf:resource="http://purl.org/dc/dcmitype/StillImage" />
      </cc:Work>
    </rdf:RDF>
  </metadata>
  <g
     inkscape:label="Capa 1"
     inkscape:groupmode="layer"
     id="layer1"
     transform="translate(-384.57143,-483.798)">
    <g
       transform="matrix(0.74351172,0,0,0.74285356,332.49565,-244.90835)"
       id="g4">
      <path
         style="color:#000000;font-style:normal;font-variant:normal;font-weight:normal;font-stretch:normal;font-size:medium;line-height:normal;font-family:Sans;-inkscape-font-specification:Sans;text-indent:0;text-align:start;text-decoration:none;text-decoration-line:none;letter-spacing:normal;word-spacing:normal;text-transform:none;writing-mode:lr-tb;direction:ltr;baseline-shift:baseline;text-anchor:start;display:inline;overflow:visible;visibility:visible;opacity:1;fill:url(#linearGradient838);fill-opacity:1;fill-rule:nonzero;stroke:none;stroke-width:3.95596;marker:none;enable-background:accumulate"
         d="m 77.437168,989.03282 c -3.988712,0 -7.396866,2.85993 -7.396866,6.65625 v 56.01633 c 0,2.3649 0.836461,3.8844 2.460429,5.2631 1.623967,1.3787 3.30936,2.0641 5.459931,2.0641 h 68.370898 c 1.64145,0.029 1.59477,-2.2249 3.9e-4,-2.2488 l -68.465871,-0.04 c -2.115981,0 -3.874159,-1.4929 -3.874159,-1.4929 0,0 -1.620163,-1.2165 -1.620163,-3.5457 v -56.01633 c 0,-2.61614 1.77916,-4.29462 4.886948,-4.26047 l 24.066555,-0.0121 11.47627,10.2307 c 0.34679,0.3129 0.79077,0.759 1.25317,0.769 l 33.37023,-0.012 c 1.7015,-0.01 1.64773,-2.3444 -0.0538,-2.3717 h -32.61346 l -12.1651,-10.53101 c -0.35109,-0.30157 -0.79464,-0.46748 -1.25318,-0.46875 z m 38.818272,2.90625 c -1.55276,-0.004 -1.55586,2.67092 0.0388,2.69371 l 29.7626,-0.0408 c 3.0158,-0.004 4.32232,0.97316 5.32647,1.90993 1.00416,0.93677 2.53008,3.23008 2.53008,5.59319 v 54.9375 c 0.009,1.8591 2.19838,1.9203 2.20491,0.064 l -0.006,-55.0018 c -3.1e-4,-3.21023 -1.04994,-5.89814 -2.9343,-7.65605 -1.88434,-1.75791 -4.44981,-2.5 -7.12177,-2.5 h -29.61804 c -0.0611,-0.003 -0.12228,-0.003 -0.18339,0 z"
         id="path2-3"
         sodipodi:nodetypes="sssssccscsssccccccccsccsssccssscc" />
    </g>
    <g
       id="g20"
       transform="translate(391.57143,497.798)">
      <path
         d="m 20.1,35 c -5.5513,0 -9,-4.2148 -9,-11 0,-0.5522 0.4478,-1 1,-1 H 28.2416 C 28.1469,22.6157 28.1,22.2339 28.1,21.8569 c 0,-2.5474 2.1689,-4.519 2.2617,-4.6021 0.3789,-0.3398 0.9551,-0.3398 1.334,0 0.0928,0.083 2.2617,2.0547 2.2617,4.6021 0,0.0981 -0.0029,0.1968 -0.0098,0.2954 2.6543,-0.1616 4.8115,2.1563 4.8975,2.252 0.3398,0.3799 0.3398,0.9541 0,1.334 C 38.7621,25.8306 36.7914,28 34.2426,28 33.5932,28 32.935,27.8618 32.2748,27.5879 30.3305,31.7637 25.1386,35 20.1,35 Z M 13.1347,25 c 0.187,2.7349 1.2866,8 6.9653,8 4.5854,0 9.4834,-3.2573 10.6953,-7.1128 0.0938,-0.2964 0.3193,-0.5327 0.6104,-0.6396 0.2949,-0.1069 0.6162,-0.0713 0.8799,0.0952 0.6874,0.436 1.3457,0.6572 1.957,0.6572 0.9141,0 1.7725,-0.4917 2.3555,-0.9297 -0.5811,-0.437 -1.4385,-0.9277 -2.3555,-0.9277 -0.3926,0 -0.8066,0.0967 -1.2656,0.2954 -0.376,0.1636 -0.8145,0.0791 -1.1045,-0.2104 -0.29,-0.29 -0.374,-0.7275 -0.2109,-1.1045 0.1992,-0.4595 0.2959,-0.8735 0.2959,-1.2661 0,-0.9136 -0.4922,-1.772 -0.9297,-2.355 -0.4376,0.5815 -0.9278,1.4384 -0.9278,2.3549 0,0.5186 0.1621,1.0781 0.4824,1.6626 0.1699,0.3101 0.1631,0.686 -0.0166,0.9902 C 30.3861,24.8135 30.059,25 29.7055,25 Z"
         id="path2"
         style="fill-opacity:1.0;fill:url(#linearGradient970)" />
      <path
         d="m 26.1,22 h -3 c -0.5522,0 -1,-0.4478 -1,-1 v -3 c 0,-0.5522 0.4478,-1 1,-1 h 3 c 0.5527,0 1,0.4478 1,1 v 3 c 0,0.5522 -0.4473,1 -1,1 z m -2,-2 h 1 v -1 h -1 z"
         id="path4"
         style="fill-opacity:1.0;fill:url(#linearGradient972)" />
      <path
         d="m 17.1,22 h -3 c -0.5522,0 -1,-0.4478 -1,-1 v -3 c 0,-0.5522 0.4478,-1 1,-1 h 3 c 0.5522,0 1,0.4478 1,1 v 3 c 0,0.5522 -0.4478,1 -1,1 z m -2,-2 h 1 v -1 h -1 z"
         id="path6"
         style="fill-opacity:1.0;fill:url(#linearGradient974)" />
      <path
         d="m 20.1,19 h -3 c -0.5522,0 -1,-0.4478 -1,-1 v -3 c 0,-0.5522 0.4478,-1 1,-1 h 3 c 0.5522,0 1,0.4478 1,1 v 3 c 0,0.5522 -0.4478,1 -1,1 z m -2,-2 h 1 v -1 h -1 z"
         id="path8"
         style="fill-opacity:1.0;fill:url(#linearGradient976)" />
      <path
         d="m 20.1,22 h -3 c -0.5522,0 -1,-0.4478 -1,-1 v -3 c 0,-0.5522 0.4478,-1 1,-1 h 3 c 0.5522,0 1,0.4478 1,1 v 3 c 0,0.5522 -0.4478,1 -1,1 z m -2,-2 h 1 v -1 h -1 z"
         id="path10"
         style="fill-opacity:1.0;fill:url(#linearGradient978)" />
      <path
         d="m 23.1,16 h -3 c -0.5522,0 -1,-0.4478 -1,-1 v -3 c 0,-0.5522 0.4478,-1 1,-1 h 3 c 0.5522,0 1,0.4478 1,1 v 3 c 0,0.5522 -0.4478,1 -1,1 z m -2,-2 h 1 v -1 h -1 z"
         id="path12"
         style="fill-opacity:1.0;fill:url(#linearGradient980)" />
      <path
         d="m 23.1,19 h -3 c -0.5522,0 -1,-0.4478 -1,-1 v -3 c 0,-0.5522 0.4478,-1 1,-1 h 3 c 0.5522,0 1,0.4478 1,1 v 3 c 0,0.5522 -0.4478,1 -1,1 z m -2,-2 h 1 v -1 h -1 z"
         id="path14"
         style="fill-opacity:1.0;fill:url(#linearGradient982)" />
      <path
         d="m 23.1,22 h -3 c -0.5522,0 -1,-0.4478 -1,-1 v -3 c 0,-0.5522 0.4478,-1 1,-1 h 3 c 0.5522,0 1,0.4478 1,1 v 3 c 0,0.5522 -0.4478,1 -1,1 z m -2,-2 h 1 v -1 h -1 z"
         id="path16"
         style="fill-opacity:1.0;fill:url(#linearGradient984)" />
      <circle
         cx="16.599997"
         cy="27.499996"
         r="1.5"
         id="circle18"
         style="fill-opacity:1.0;fill:url(#linearGradient986)" />
    </g>
  </g>
</svg>
