<?xml version="1.0" encoding="UTF-8" standalone="no"?>
<svg
   width="64"
   version="1.1"
   height="64"
   id="svg15"
   sodipodi:docname="folder-book.svg"
   inkscape:version="1.2 (dc2aedaf03, 2022-05-15)"
   xmlns:inkscape="http://www.inkscape.org/namespaces/inkscape"
   xmlns:sodipodi="http://sodipodi.sourceforge.net/DTD/sodipodi-0.dtd"
   xmlns:xlink="http://www.w3.org/1999/xlink"
   xmlns="http://www.w3.org/2000/svg"
   xmlns:svg="http://www.w3.org/2000/svg"
   xmlns:rdf="http://www.w3.org/1999/02/22-rdf-syntax-ns#"
   xmlns:cc="http://creativecommons.org/ns#"
   xmlns:dc="http://purl.org/dc/elements/1.1/">
  <sodipodi:namedview
     pagecolor="#ffffff"
     bordercolor="#666666"
     borderopacity="1"
     objecttolerance="10"
     gridtolerance="10"
     guidetolerance="10"
     inkscape:pageopacity="0"
     inkscape:pageshadow="2"
     inkscape:window-width="1920"
     inkscape:window-height="1011"
     id="namedview17"
     showgrid="true"
     inkscape:zoom="9.8125"
     inkscape:cx="29.808917"
     inkscape:cy="32"
     inkscape:window-x="0"
     inkscape:window-y="0"
     inkscape:window-maximized="1"
     inkscape:current-layer="layer1"
     inkscape:document-rotation="0"
     inkscape:pagecheckerboard="0"
     inkscape:showpageshadow="2"
     inkscape:deskcolor="#d1d1d1">
    <inkscape:grid
       type="xygrid"
       id="grid850" />
  </sodipodi:namedview>
  <defs
     id="defs5455">
    <linearGradient
       inkscape:collect="always"
       xlink:href="#linearGradient836"
       id="linearGradient838"
       x1="6"
       y1="50.000134"
       x2="94.005508"
       y2="50.000134"
       gradientUnits="userSpaceOnUse"
       gradientTransform="matrix(0.9780981,0,0,1,64.171715,974.03282)" />
    <linearGradient
       inkscape:collect="always"
       id="linearGradient836">
      <stop
         style="stop-color:#ffb380;stop-opacity:1"
         offset="0"
         id="stop832" />
      <stop
         style="stop-color:#20ffff;stop-opacity:1"
         offset="0.48615947"
         id="stop1390" />
      <stop
         style="stop-color:#ffaeff;stop-opacity:1"
         offset="1"
         id="stop834" />
    </linearGradient>
    <linearGradient
       inkscape:collect="always"
       xlink:href="#linearGradient836"
       id="linearGradient1933"
       x1="403.57144"
       y1="520.79791"
       x2="430.74054"
       y2="520.79791"
       gradientUnits="userSpaceOnUse" />
  </defs>
  <metadata
     id="metadata5458">
    <rdf:RDF>
      <cc:Work
         rdf:about="">
        <dc:format>image/svg+xml</dc:format>
        <dc:type
           rdf:resource="http://purl.org/dc/dcmitype/StillImage" />
      </cc:Work>
    </rdf:RDF>
  </metadata>
  <g
     inkscape:label="Capa 1"
     inkscape:groupmode="layer"
     id="layer1"
     transform="translate(-384.57143,-483.798)">
    <g
       transform="matrix(0.74351172,0,0,0.74285356,332.49565,-244.90835)"
       id="g4">
      <path
         style="color:#000000;font-style:normal;font-variant:normal;font-weight:normal;font-stretch:normal;font-size:medium;line-height:normal;font-family:Sans;-inkscape-font-specification:Sans;text-indent:0;text-align:start;text-decoration:none;text-decoration-line:none;letter-spacing:normal;word-spacing:normal;text-transform:none;writing-mode:lr-tb;direction:ltr;baseline-shift:baseline;text-anchor:start;display:inline;overflow:visible;visibility:visible;opacity:1;fill:url(#linearGradient838);fill-opacity:1;fill-rule:nonzero;stroke:none;stroke-width:3.95596;marker:none;enable-background:accumulate"
         d="m 77.437168,989.03282 c -3.988712,0 -7.396866,2.85993 -7.396866,6.65625 v 56.01633 c 0,2.3649 0.836461,3.8844 2.460429,5.2631 1.623967,1.3787 3.30936,2.0641 5.459931,2.0641 h 68.370898 c 1.64145,0.029 1.59477,-2.2249 3.9e-4,-2.2488 l -68.465871,-0.04 c -2.115981,0 -3.874159,-1.4929 -3.874159,-1.4929 0,0 -1.620163,-1.2165 -1.620163,-3.5457 v -56.01633 c 0,-2.61614 1.77916,-4.29462 4.886948,-4.26047 l 24.066555,-0.0121 11.47627,10.2307 c 0.34679,0.3129 0.79077,0.759 1.25317,0.769 l 33.37023,-0.012 c 1.7015,-0.01 1.64773,-2.3444 -0.0538,-2.3717 h -32.61346 l -12.1651,-10.53101 c -0.35109,-0.30157 -0.79464,-0.46748 -1.25318,-0.46875 z m 38.818272,2.90625 c -1.55276,-0.004 -1.55586,2.67092 0.0388,2.69371 l 29.7626,-0.0408 c 3.0158,-0.004 4.32232,0.97316 5.32647,1.90993 1.00416,0.93677 2.53008,3.23008 2.53008,5.59319 v 54.9375 c 0.009,1.8591 2.19838,1.9203 2.20491,0.064 l -0.006,-55.0018 c -3.1e-4,-3.21023 -1.04994,-5.89814 -2.9343,-7.65605 -1.88434,-1.75791 -4.44981,-2.5 -7.12177,-2.5 h -29.61804 c -0.0611,-0.003 -0.12228,-0.003 -0.18339,0 z"
         id="path2-3"
         sodipodi:nodetypes="sssssccscsssccccccccsccsssccssscc" />
    </g>
    <path
       fill-rule="evenodd"
       clip-rule="evenodd"
       d="m 429.25914,528.41747 -9.63026,3.91211 c -0.76763,0.30068 -1.59992,0.46828 -2.4726,0.46828 -0.88001,0 -1.71976,-0.16936 -2.49137,-0.47534 l -9.60677,-3.90194 c -0.88045,-0.44976 -1.48671,-1.35981 -1.48671,-2.41578 v -10.4138 -1.81172 c 0,-0.5006 0.4064,-0.90564 0.90564,-0.90564 0.50059,0 0.90603,0.40504 0.90603,0.90564 v 0.73627 1.07545 10.28689 c 0,0.32676 0.17864,0.60627 0.43867,0.76544 l 9.2469,3.91263 c 0.0203,0.008 0.0376,0.012 0.0579,0.0203 0.62347,0.26399 1.30976,0.40985 2.0297,0.40985 0.71529,0 1.39717,-0.14412 2.01798,-0.405 0.0203,-0.008 0.038,-0.0133 0.0583,-0.0212 l 9.25704,-3.91659 c 0.26002,-0.15916 0.43957,-0.43865 0.43957,-0.76542 v -6.66486 -1.07545 -0.73628 c 0,-0.49967 0.40594,-0.90473 0.90563,-0.90473 0.50059,0 0.90564,0.40506 0.90564,0.90473 v 1.81167 6.79177 c 5e-5,1.05426 -0.60401,1.96082 -1.48134,2.41272 z m 0.57577,-13.73212 c -0.4997,0 -0.90565,-0.4064 -0.90565,-0.90607 0,-0.5006 0.40595,-0.90564 0.90565,-0.90564 0.50057,0 0.90562,0.40504 0.90562,0.90564 0,0.49967 -0.40505,0.90607 -0.90562,0.90607 z m -4.38131,11.10849 -4.27172,1.77986 v -10e-4 c -0.11574,0.0523 -0.24407,0.0813 -0.37855,0.0813 -0.51293,0 -0.93037,-0.41614 -0.93037,-0.92998 0,-0.39797 0.25029,-0.73406 0.6014,-0.86805 l 4.35124,-1.9041 c 0.2821,-0.15214 0.48112,-0.44574 0.48112,-0.79114 v -11.85758 c 0,-0.24984 -0.20252,-0.45282 -0.45284,-0.45282 -0.0653,0 -0.12826,0.0141 -0.18569,0.0393 v -8.9e-4 l -6.12449,2.68061 c -0.28476,0.15215 -0.48112,0.44574 -0.48112,0.78977 v 10.74016 1.8113 c 0,1.00024 -0.81169,1.81171 -1.81195,1.81171 -0.25074,0 -0.48819,-0.0509 -0.70578,-0.14326 l -6.69134,-2.78806 c -0.97594,-0.41347 -1.65912,-1.37794 -1.65912,-2.50192 v -12.67931 c 0,-1.00028 0.81144,-1.81169 1.81127,-1.81169 0.24671,0 0.48021,0.05 0.69557,0.14016 l 4.15626,1.73125 c 0.34137,0.14325 0.58191,0.4811 0.58191,0.87422 0,0.52401 -0.4245,0.94847 -0.94761,0.94847 -0.15833,0 -0.30554,-0.0428 -0.43647,-0.11106 l -3.41068,-1.49242 c -10e-4,0 0,8.9e-4 -10e-4,8.9e-4 -0.0567,-0.0252 -0.11853,-0.0393 -0.18441,-0.0393 -0.2512,0 -0.45328,0.20299 -0.45328,0.45282 v 11.85768 c 0,0.34538 0.19811,0.63897 0.48157,0.79111 l 6.12493,2.67974 c 9.1e-4,0 0,-9.1e-4 9.1e-4,-9.1e-4 0.0557,0.0252 0.11906,0.0393 0.18486,0.0393 0.24984,0 0.45281,-0.20208 0.45281,-0.45282 v -11.53169 -0.45326 c 0,-1.12589 0.68456,-2.09249 1.66157,-2.50376 l 6.69847,-2.79032 c 0.21577,-0.0901 0.44931,-0.14015 0.69604,-0.14015 1.00029,0 1.81218,0.81138 1.81218,1.81167 v 12.67924 c -6e-5,1.12584 -0.68816,2.09249 -1.66541,2.50506 z"
       id="path806"
       style="fill:url(#linearGradient1933);fill-opacity:1.0;stroke-width:0.0566023" />
  </g>
</svg>
