<?xml version="1.0" encoding="UTF-8" standalone="no"?>
<svg
   width="64"
   version="1.1"
   height="64"
   id="svg2"
   inkscape:version="1.1 (c68e22c387, 2021-05-23)"
   sodipodi:docname="folder-gdrive.svg"
   xmlns:inkscape="http://www.inkscape.org/namespaces/inkscape"
   xmlns:sodipodi="http://sodipodi.sourceforge.net/DTD/sodipodi-0.dtd"
   xmlns:xlink="http://www.w3.org/1999/xlink"
   xmlns="http://www.w3.org/2000/svg"
   xmlns:svg="http://www.w3.org/2000/svg"
   xmlns:rdf="http://www.w3.org/1999/02/22-rdf-syntax-ns#"
   xmlns:cc="http://creativecommons.org/ns#"
   xmlns:dc="http://purl.org/dc/elements/1.1/">
  <sodipodi:namedview
     pagecolor="#ffffff"
     bordercolor="#666666"
     borderopacity="1"
     objecttolerance="10"
     gridtolerance="10"
     guidetolerance="10"
     inkscape:pageopacity="0"
     inkscape:pageshadow="2"
     inkscape:window-width="1920"
     inkscape:window-height="1007"
     id="namedview45"
     showgrid="true"
     inkscape:zoom="10.429825"
     inkscape:cx="26.989906"
     inkscape:cy="32.311185"
     inkscape:window-x="0"
     inkscape:window-y="0"
     inkscape:window-maximized="1"
     inkscape:current-layer="layer1"
     inkscape:document-rotation="0"
     inkscape:pagecheckerboard="0">
    <inkscape:grid
       type="xygrid"
       id="grid868" />
  </sodipodi:namedview>
  <defs
     id="defs5455">
    <linearGradient
       inkscape:collect="always"
       xlink:href="#linearGradient853"
       id="linearGradient854"
       gradientUnits="userSpaceOnUse"
       gradientTransform="matrix(0.72722795,0,0,0.74285133,380.20804,478.65555)"
       x1="6"
       y1="50.000134"
       x2="94.005508"
       y2="50.000134" />
    <linearGradient
       inkscape:collect="always"
       id="linearGradient853">
      <stop
         style="stop-color:#b380ff;stop-opacity:1"
         offset="0"
         id="stop849" />
      <stop
         style="stop-color:#de87cd;stop-opacity:1"
         offset="1"
         id="stop851" />
    </linearGradient>
    <linearGradient
       inkscape:collect="always"
       xlink:href="#linearGradient853"
       id="linearGradient1354"
       x1="403.31842"
       y1="520.79797"
       x2="430.7471"
       y2="520.79797"
       gradientUnits="userSpaceOnUse" />
  </defs>
  <metadata
     id="metadata5458">
    <rdf:RDF>
      <cc:Work
         rdf:about="">
        <dc:format>image/svg+xml</dc:format>
        <dc:type
           rdf:resource="http://purl.org/dc/dcmitype/StillImage" />
      </cc:Work>
    </rdf:RDF>
  </metadata>
  <g
     inkscape:label="Capa 1"
     inkscape:groupmode="layer"
     id="layer1"
     transform="translate(-384.57143,-483.798)">
    <path
       style="color:#000000;font-style:normal;font-variant:normal;font-weight:normal;font-stretch:normal;font-size:medium;line-height:normal;font-family:Sans;-inkscape-font-specification:Sans;text-indent:0;text-align:start;text-decoration:none;text-decoration-line:none;letter-spacing:normal;word-spacing:normal;text-transform:none;writing-mode:lr-tb;direction:ltr;baseline-shift:baseline;text-anchor:start;display:inline;overflow:visible;visibility:visible;opacity:1;fill:url(#linearGradient854);fill-opacity:1;fill-rule:nonzero;stroke:none;stroke-width:2.94001;marker:none;enable-background:accumulate"
       d="m 390.07109,489.79832 c -2.96566,0 -5.49966,2.1245 -5.49966,4.94461 v 41.61193 c 0,1.75677 0.62193,2.88553 1.82936,3.9097 1.20744,1.02417 2.46056,1.53332 4.05952,1.53332 h 50.83461 c 1.22044,0.0215 1.18574,-1.65277 2.9e-4,-1.67053 l -50.90522,-0.0296 c -1.57325,0 -2.88048,-1.10901 -2.88048,-1.10901 0,0 -1.20462,-0.90367 -1.20462,-2.63392 v -41.61194 c 0,-1.94341 1.32283,-3.19027 3.63351,-3.1649 l 17.89379,-0.009 8.53275,7.60003 c 0.25783,0.23244 0.58794,0.56382 0.93173,0.57124 l 24.81118,-0.009 c 1.26509,-0.007 1.22512,-1.74154 -0.04,-1.76182 h -24.24851 l -9.0449,-7.82312 c -0.26103,-0.22402 -0.59081,-0.34727 -0.93175,-0.34821 z m 28.86186,2.15891 c -1.15449,-0.003 -1.1568,1.98409 0.0288,2.00103 l 22.12886,-0.0304 c 2.24229,-0.003 3.21371,0.72293 3.9603,1.4188 0.74661,0.69588 1.88115,2.39954 1.88115,4.15504 v 40.8104 c 0.007,1.38103 1.63451,1.4265 1.63937,0.0475 l -0.004,-40.85816 c -2.3e-4,-2.38486 -0.78064,-4.38158 -2.18169,-5.68743 -1.40102,-1.30588 -3.30849,-1.85714 -5.29512,-1.85714 h -22.02138 c -0.0455,-0.002 -0.091,-0.002 -0.13636,0 z"
       id="path2-3"
       sodipodi:nodetypes="sssssccscsssccccccccsccsssccssscc" />
    <path
       fill-rule="evenodd"
       clip-rule="evenodd"
       d="m 429.76968,522.29382 -10.89879,4.58914 c -0.57209,0.2189 -1.18977,0.34404 -1.83761,0.34404 -0.64655,0 -1.26342,-0.126 -1.83278,-0.34237 l -10.90532,-4.59167 c -0.18161,-0.0787 -0.34988,-0.1921 -0.498,-0.33942 -0.6382,-0.63783 -0.6382,-1.67202 0,-2.31027 0.15107,-0.15065 0.32598,-0.26534 0.5093,-0.34404 l 1.36784,-0.57546 c 0.1268,-0.0762 0.27284,-0.1222 0.43023,-0.1222 0.46618,0 0.84407,0.37752 0.84407,0.84375 0,0.37795 -0.249,0.69311 -0.59132,0.80148 l -0.42771,0.17786 c -0.13431,0.072 -0.22639,0.21134 -0.22639,0.37377 0,0.15862 0.0875,0.29587 0.21717,0.36996 l 9.72343,4.05761 c 0.028,0.0104 0.0527,0.0163 0.0808,0.028 0.40345,0.16698 0.8445,0.25821 1.30865,0.25821 0.45948,0 0.89769,-0.0904 1.29857,-0.25446 0.0335,-0.0134 0.0632,-0.0222 0.0958,-0.0347 l 9.71817,-4.05472 c 0.12975,-0.0741 0.21724,-0.21133 0.21724,-0.36996 0,-0.16323 -0.0925,-0.30177 -0.22682,-0.37377 l -0.42852,-0.17871 c -0.34147,-0.10757 -0.59047,-0.42397 -0.59047,-0.80063 0,-0.46623 0.3779,-0.84375 0.84413,-0.84375 0.15943,0 0.30755,0.0469 0.43436,0.12386 l 1.36719,0.57589 c 0.18289,0.0787 0.35572,0.19211 0.50556,0.34195 0.63819,0.63825 0.63819,1.67245 0,2.31027 -0.14899,0.14823 -0.31715,0.26164 -0.49881,0.34034 z m 0.002,-5.57309 -10.91556,4.59584 c -0.56662,0.21514 -1.18012,0.339 -1.82293,0.339 -0.64071,0 -1.25212,-0.12262 -1.8181,-0.33605 l -10.9221,-4.59879 c -0.18081,-0.0795 -0.34779,-0.19125 -0.49591,-0.33814 -0.6382,-0.63825 -0.6382,-1.67325 0,-2.3115 0.14898,-0.14775 0.31805,-0.25907 0.50175,-0.33986 l 10.91785,-4.59669 c 0.56561,-0.21349 1.17579,-0.33654 1.8165,-0.33654 0.64195,0 1.25422,0.12305 1.82127,0.33814 l 1.01657,0.42772 c 0.34902,0.1088 0.60349,0.43066 0.60349,0.81487 0,0.47293 -0.38336,0.85757 -0.85709,0.85757 -0.14524,0 -0.27874,-0.0406 -0.39879,-0.10382 l -0.80646,-0.33648 c -0.0276,-0.0104 -0.0527,-0.0171 -0.0804,-0.0289 -0.40088,-0.16446 -0.83909,-0.25489 -1.29857,-0.25489 -0.46415,0 -0.9052,0.0925 -1.30865,0.25864 -0.023,0.01 -0.0431,0.0146 -0.0665,0.023 l -9.73312,4.06141 c -0.13056,0.0732 -0.22179,0.21054 -0.22179,0.37205 0,0.15863 0.0875,0.29507 0.21595,0.36997 l 9.73725,4.06135 c 0.023,0.01 0.0439,0.0143 0.0682,0.0238 0.40345,0.16618 0.8445,0.25865 1.30864,0.25865 0.45948,0 0.8977,-0.0904 1.29857,-0.2549 0.0285,-0.0113 0.0544,-0.0189 0.0824,-0.0297 l 9.73243,-4.05926 c 0.1289,-0.0749 0.21638,-0.21134 0.21638,-0.36997 0,-0.16157 -0.0912,-0.29796 -0.22222,-0.37205 l -1.32069,-0.55163 c -0.32561,-0.11721 -0.55999,-0.42482 -0.55999,-0.79103 0,-0.46581 0.37752,-0.84375 0.8437,-0.84375 0.15948,0 0.30847,0.0473 0.43564,0.12386 l 2.23141,0.94001 c 0.18167,0.0778 0.3494,0.19125 0.49758,0.33815 0.63819,0.63825 0.63819,1.67325 0,2.3115 -0.14818,0.14705 -0.31597,0.2588 -0.49677,0.33835 z m -7.16711,-4.06516 c -0.47373,0 -0.85746,-0.38336 -0.85746,-0.85714 0,-0.47379 0.38373,-0.85714 0.85746,-0.85714 0.47245,0 0.85709,0.38335 0.85709,0.85714 0,0.47378 -0.38464,0.85714 -0.85709,0.85714 z m -18.29819,12.21472 1.37373,-0.57756 c 0.12472,-0.0737 0.26866,-0.11887 0.42434,-0.11887 0.46618,0 0.84407,0.37751 0.84407,0.84375 0,0.38126 -0.25569,0.7006 -0.60385,0.80443 l -0.41518,0.17367 c -0.13431,0.0724 -0.22639,0.21054 -0.22639,0.37377 0,0.15986 0.0875,0.29631 0.21717,0.37039 l 9.73768,4.06308 c 0.0235,0.009 0.0435,0.0134 0.0665,0.023 0.40345,0.16617 0.8445,0.25864 1.30865,0.25864 0.45948,0 0.89769,-0.0912 1.29857,-0.25489 0.0276,-0.0113 0.0527,-0.018 0.0804,-0.0289 l 9.73366,-4.06099 c 0.12975,-0.0741 0.21723,-0.21053 0.21723,-0.37039 0,-0.16237 -0.0925,-0.30134 -0.22682,-0.37377 l -0.41807,-0.17368 c -0.34774,-0.10591 -0.60097,-0.42396 -0.60097,-0.80442 0,-0.46624 0.3779,-0.84375 0.84413,-0.84375 0.15353,0 0.29502,0.0439 0.41887,0.11507 l 1.38273,0.58259 c 0.18456,0.0795 0.35486,0.1921 0.50556,0.34275 0.63819,0.63825 0.63819,1.67244 0,2.31069 -0.14689,0.1469 -0.31511,0.25822 -0.49216,0.33734 l -10.91637,4.59669 c -0.56871,0.2168 -1.18264,0.339 -1.82668,0.339 -0.6428,0 -1.25587,-0.12386 -1.82314,-0.33814 L 404.28715,527.861 c -0.17866,-0.0795 -0.34398,-0.19002 -0.49002,-0.33605 -0.6382,-0.63825 -0.6382,-1.67245 0,-2.3107 0.15102,-0.1507 0.32598,-0.26411 0.50925,-0.34403 z"
       id="path2"
       style="stroke-width:0.0535714;fill-opacity:1.0;fill:url(#linearGradient1354)" />
  </g>
</svg>
