<?xml version="1.0" encoding="UTF-8" standalone="no"?>
<svg
   width="64"
   version="1.1"
   height="64"
   id="svg17"
   sodipodi:docname="network-workgroup.svg"
   inkscape:version="1.1 (c68e22c387, 2021-05-23)"
   xmlns:inkscape="http://www.inkscape.org/namespaces/inkscape"
   xmlns:sodipodi="http://sodipodi.sourceforge.net/DTD/sodipodi-0.dtd"
   xmlns:xlink="http://www.w3.org/1999/xlink"
   xmlns="http://www.w3.org/2000/svg"
   xmlns:svg="http://www.w3.org/2000/svg"
   xmlns:rdf="http://www.w3.org/1999/02/22-rdf-syntax-ns#"
   xmlns:cc="http://creativecommons.org/ns#"
   xmlns:dc="http://purl.org/dc/elements/1.1/">
  <sodipodi:namedview
     pagecolor="#ffffff"
     bordercolor="#666666"
     borderopacity="1"
     objecttolerance="10"
     gridtolerance="10"
     guidetolerance="10"
     inkscape:pageopacity="0"
     inkscape:pageshadow="2"
     inkscape:window-width="1920"
     inkscape:window-height="1007"
     id="namedview19"
     showgrid="true"
     inkscape:zoom="9.8124999"
     inkscape:cx="8.4076434"
     inkscape:cy="26.394905"
     inkscape:window-x="0"
     inkscape:window-y="0"
     inkscape:window-maximized="1"
     inkscape:current-layer="layer1"
     inkscape:document-rotation="0"
     inkscape:pagecheckerboard="0">
    <inkscape:grid
       type="xygrid"
       id="grid876" />
  </sodipodi:namedview>
  <defs
     id="defs5455">
    <linearGradient
       inkscape:collect="always"
       id="linearGradient934">
      <stop
         style="stop-color:#ffcc00;stop-opacity:1"
         offset="0"
         id="stop930" />
      <stop
         style="stop-color:#00ffff;stop-opacity:1"
         offset="1"
         id="stop932" />
    </linearGradient>
    <linearGradient
       inkscape:collect="always"
       xlink:href="#linearGradient934"
       id="linearGradient902"
       x1="2.9999995"
       y1="1035.3622"
       x2="29"
       y2="1035.3622"
       gradientUnits="userSpaceOnUse" />
    <linearGradient
       inkscape:collect="always"
       xlink:href="#linearGradient853"
       id="linearGradient854"
       gradientUnits="userSpaceOnUse"
       gradientTransform="matrix(0.72722795,0,0,0.74285133,380.20804,478.65555)"
       x1="6"
       y1="50.000134"
       x2="94.005508"
       y2="50.000134" />
    <linearGradient
       inkscape:collect="always"
       id="linearGradient853">
      <stop
         style="stop-color:#ffe680;stop-opacity:1"
         offset="0"
         id="stop849" />
      <stop
         style="stop-color:#aa87de;stop-opacity:1"
         offset="1"
         id="stop851" />
    </linearGradient>
    <linearGradient
       inkscape:collect="always"
       xlink:href="#linearGradient853"
       id="linearGradient1326"
       x1="406.17142"
       y1="520.79797"
       x2="427.17151"
       y2="520.79797"
       gradientUnits="userSpaceOnUse" />
  </defs>
  <metadata
     id="metadata5458">
    <rdf:RDF>
      <cc:Work
         rdf:about="">
        <dc:format>image/svg+xml</dc:format>
        <dc:type
           rdf:resource="http://purl.org/dc/dcmitype/StillImage" />
      </cc:Work>
    </rdf:RDF>
  </metadata>
  <g
     inkscape:label="Capa 1"
     inkscape:groupmode="layer"
     id="layer1"
     transform="translate(-384.57143,-483.798)">
    <g
       transform="matrix(0.66666667,0,0,0.66666667,405.9691,-171.96902)"
       id="g4"
       style="fill:url(#linearGradient902);fill-opacity:1" />
    <path
       style="color:#000000;font-style:normal;font-variant:normal;font-weight:normal;font-stretch:normal;font-size:medium;line-height:normal;font-family:Sans;-inkscape-font-specification:Sans;text-indent:0;text-align:start;text-decoration:none;text-decoration-line:none;letter-spacing:normal;word-spacing:normal;text-transform:none;writing-mode:lr-tb;direction:ltr;baseline-shift:baseline;text-anchor:start;display:inline;overflow:visible;visibility:visible;opacity:1;fill:url(#linearGradient854);fill-opacity:1;fill-rule:nonzero;stroke:none;stroke-width:2.94001;marker:none;enable-background:accumulate"
       d="m 390.07109,489.79832 c -2.96566,0 -5.49966,2.1245 -5.49966,4.94461 v 41.61193 c 0,1.75677 0.62193,2.88553 1.82936,3.9097 1.20744,1.02417 2.46056,1.53332 4.05952,1.53332 h 50.83461 c 1.22044,0.0215 1.18574,-1.65277 2.9e-4,-1.67053 l -50.90522,-0.0296 c -1.57325,0 -2.88048,-1.10901 -2.88048,-1.10901 0,0 -1.20462,-0.90367 -1.20462,-2.63392 v -41.61194 c 0,-1.94341 1.32283,-3.19027 3.63351,-3.1649 l 17.89379,-0.009 8.53275,7.60003 c 0.25783,0.23244 0.58794,0.56382 0.93173,0.57124 l 24.81118,-0.009 c 1.26509,-0.007 1.22512,-1.74154 -0.04,-1.76182 h -24.24851 l -9.0449,-7.82312 c -0.26103,-0.22402 -0.59081,-0.34727 -0.93175,-0.34821 z m 28.86186,2.15891 c -1.15449,-0.003 -1.1568,1.98409 0.0288,2.00103 l 22.12886,-0.0304 c 2.24229,-0.003 3.21371,0.72293 3.9603,1.4188 0.74661,0.69588 1.88115,2.39954 1.88115,4.15504 v 40.8104 c 0.007,1.38103 1.63451,1.4265 1.63937,0.0475 l -0.004,-40.85816 c -2.3e-4,-2.38486 -0.78064,-4.38158 -2.18169,-5.68743 -1.40102,-1.30588 -3.30849,-1.85714 -5.29512,-1.85714 h -22.02138 c -0.0455,-0.002 -0.091,-0.002 -0.13636,0 z"
       id="path2-3-3"
       sodipodi:nodetypes="sssssccscsssccccccccsccsssccssscc" />
    <path
       fill-rule="evenodd"
       clip-rule="evenodd"
       d="m 413.67148,528.29795 c 0,0.41457 -0.33544,0.75 -0.75,0.75 -0.41381,0 -0.75019,-0.33543 -0.75019,-0.75 0,-0.41456 0.33638,-0.75 0.75019,-0.75 0.41456,0 0.75,0.33544 0.75,0.75 z m -3.00038,0 c 0,0.41457 -0.33543,0.75 -0.74925,0.75 -0.41456,0 -0.75,-0.33543 -0.75,-0.75 0,-0.41456 0.33544,-0.75 0.75,-0.75 0.41382,0 0.74926,0.33544 0.74925,0.75 z m 3.00038,-15.00009 c 0,0.41456 -0.33544,0.75 -0.75,0.75 -0.41381,0 -0.75019,-0.33544 -0.75019,-0.75 0,-0.41386 0.33638,-0.75019 0.75019,-0.75019 0.41456,0 0.75,0.33633 0.75,0.75019 z m -3.00038,0 c 0,0.41456 -0.33543,0.75 -0.74925,0.75 -0.41456,0 -0.75,-0.33544 -0.75,-0.75 0,-0.41386 0.33544,-0.75019 0.75,-0.75019 0.41382,0 0.74926,0.33633 0.74925,0.75019 z m -1.49925,7.50005 c 0,-0.41457 0.33544,-0.75019 0.75,-0.75019 0.41382,0 0.74926,0.33562 0.74926,0.75019 0,0.41456 -0.33544,0.75 -0.74926,0.75 -0.41456,0 -0.75,-0.33544 -0.75,-0.75 z m 2.99944,0 c 0,-0.41457 0.33638,-0.75019 0.75019,-0.75019 0.41456,0 0.75,0.33562 0.75,0.75019 0,0.41456 -0.33544,0.75 -0.75,0.75 -0.41381,0 -0.75019,-0.33544 -0.75019,-0.75 z M 424.1711,532.798 h -14.99925 c -1.6575,0 -3.00037,-1.34325 -3.00037,-3 v -2.25005 c 0,-0.41381 0.33544,-0.75 0.75,-0.75 0.41456,0 0.75019,0.33619 0.75019,0.75 v 2.25005 c 0,0.82837 0.67106,1.50038 1.50018,1.50038 h 14.99925 c 0.82913,0 1.5,-0.67201 1.5,-1.50038 v -3.00005 c 0,-0.82837 -0.67087,-1.50037 -1.5,-1.50037 h -2.99962 -11.99963 c -0.7619,0 -1.45476,-0.28603 -1.98375,-0.75328 -0.0749,-0.0659 -0.14629,-0.13622 -0.2144,-0.20949 -0.003,-0.004 -0.007,-0.007 -0.009,-0.0103 -0.0648,-0.0703 -0.12614,-0.14353 -0.18422,-0.22045 -0.007,-0.01 -0.0136,-0.0183 -0.0211,-0.0285 -0.0513,-0.0689 -0.0983,-0.141 -0.14372,-0.21427 -0.0119,-0.0194 -0.0245,-0.0384 -0.0353,-0.0582 -0.0379,-0.0645 -0.0732,-0.13111 -0.10603,-0.19814 -0.0127,-0.026 -0.0253,-0.0531 -0.0379,-0.0802 -0.0319,-0.0689 -0.0597,-0.14025 -0.0857,-0.21239 -0.009,-0.0245 -0.0185,-0.048 -0.0269,-0.0732 -0.0244,-0.0747 -0.0454,-0.15234 -0.0639,-0.22851 -0.006,-0.0256 -0.0143,-0.0491 -0.0194,-0.0751 -0.0192,-0.0875 -0.0335,-0.17653 -0.0445,-0.26733 -0.002,-0.0143 -0.004,-0.0289 -0.006,-0.0428 -0.012,-0.10767 -0.0186,-0.21717 -0.0186,-0.32742 v -3.00019 c 0,-0.111 0.007,-0.22031 0.0185,-0.32799 7.5e-4,-0.011 0.003,-0.0211 0.005,-0.0321 0.011,-0.0932 0.0262,-0.18656 0.0454,-0.2774 0.005,-0.0262 0.0136,-0.0496 0.0194,-0.0749 0.0185,-0.0765 0.0396,-0.1538 0.0639,-0.2287 0.008,-0.0244 0.0185,-0.0471 0.0269,-0.0714 0.0269,-0.0742 0.0546,-0.14813 0.0875,-0.21863 0.0101,-0.0236 0.0218,-0.0447 0.0328,-0.0674 0.0335,-0.0707 0.0697,-0.14044 0.10931,-0.20766 0.0108,-0.0185 0.0227,-0.037 0.0344,-0.0564 0.0471,-0.0765 0.0958,-0.15141 0.14958,-0.22284 0.004,-0.005 0.007,-0.007 0.0103,-0.0127 0.12361,-0.16388 0.26405,-0.31622 0.41785,-0.45155 0.52809,-0.46509 1.2202,-0.75 1.97953,-0.75 h 14.99925 c 0.82912,0 1.5,-0.672 1.5,-1.50037 v -3.00029 c 0,-0.82818 -0.67088,-1.49929 -1.5,-1.49929 h -14.99916 c -0.82912,0 -1.50018,0.67111 -1.50018,1.49929 v 2.25038 c 0,0.41456 -0.33563,0.75 -0.75019,0.75 -0.41456,0 -0.75,-0.33544 -0.75,-0.75 v -2.25038 c 0,-1.65661 1.34287,-2.99948 3.00037,-2.99948 h 14.99925 c 1.6575,0 3.00038,1.34287 3.00038,2.99948 v 3.00038 c 0,1.65675 -1.34288,2.99967 -3.00038,2.99967 h -0.40537 -14.59388 c -0.82912,0 -1.50018,0.67181 -1.50018,1.50019 v 3.00019 c 0,0.82837 0.67106,1.50037 1.50018,1.50037 h 14.59388 0.40537 c 1.65746,0 3.00038,1.34292 3.00038,2.99967 v 3.00005 c 0,1.65675 -1.34288,3 -3.00038,3 z m 2.25038,-10.50009 c -0.41381,0 -0.75038,-0.33619 -0.75038,-0.75 v -1.50019 c 0,-0.41363 0.33657,-0.75 0.75038,-0.75 0.41456,0 0.75,0.33637 0.75,0.75 v 1.50019 c 0,0.41381 -0.33544,0.75 -0.75,0.75 z"
       id="path2"
       style="stroke-width:0.046875;fill-opacity:1.0;fill:url(#linearGradient1326)" />
  </g>
</svg>
