<?xml version="1.0" encoding="UTF-8" standalone="no"?>
<svg
   width="64"
   version="1.1"
   height="64"
   viewBox="0 0 64 64"
   id="svg17"
   sodipodi:docname="user-home.svg"
   inkscape:version="1.1 (c68e22c387, 2021-05-23)"
   xmlns:inkscape="http://www.inkscape.org/namespaces/inkscape"
   xmlns:sodipodi="http://sodipodi.sourceforge.net/DTD/sodipodi-0.dtd"
   xmlns:xlink="http://www.w3.org/1999/xlink"
   xmlns="http://www.w3.org/2000/svg"
   xmlns:svg="http://www.w3.org/2000/svg"
   xmlns:rdf="http://www.w3.org/1999/02/22-rdf-syntax-ns#"
   xmlns:cc="http://creativecommons.org/ns#"
   xmlns:dc="http://purl.org/dc/elements/1.1/">
  <sodipodi:namedview
     pagecolor="#ffffff"
     bordercolor="#666666"
     borderopacity="1"
     objecttolerance="10"
     gridtolerance="10"
     guidetolerance="10"
     inkscape:pageopacity="0"
     inkscape:pageshadow="2"
     inkscape:window-width="1920"
     inkscape:window-height="1007"
     id="namedview19"
     showgrid="true"
     inkscape:zoom="9.8125"
     inkscape:cx="14.11465"
     inkscape:cy="30.77707"
     inkscape:window-x="0"
     inkscape:window-y="0"
     inkscape:window-maximized="1"
     inkscape:current-layer="layer1"
     inkscape:document-rotation="0"
     inkscape:pagecheckerboard="0">
    <inkscape:grid
       type="xygrid"
       id="grid954" />
  </sodipodi:namedview>
  <defs
     id="defs5455">
    <linearGradient
       inkscape:collect="always"
       xlink:href="#linearGradient853"
       id="linearGradient854"
       gradientUnits="userSpaceOnUse"
       gradientTransform="matrix(0.72722795,0,0,0.74285133,380.20804,478.65555)"
       x1="6"
       y1="50.000134"
       x2="94.005508"
       y2="50.000134" />
    <linearGradient
       inkscape:collect="always"
       id="linearGradient853">
      <stop
         style="stop-color:#2a7fff;stop-opacity:1"
         offset="0"
         id="stop849" />
      <stop
         style="stop-color:#aaccff;stop-opacity:1"
         offset="1"
         id="stop851" />
    </linearGradient>
    <linearGradient
       inkscape:collect="always"
       xlink:href="#linearGradient853"
       id="linearGradient1381"
       x1="404.08643"
       y1="520.79803"
       x2="428.08652"
       y2="520.79803"
       gradientUnits="userSpaceOnUse" />
  </defs>
  <metadata
     id="metadata5458">
    <rdf:RDF>
      <cc:Work
         rdf:about="">
        <dc:format>image/svg+xml</dc:format>
        <dc:type
           rdf:resource="http://purl.org/dc/dcmitype/StillImage" />
      </cc:Work>
    </rdf:RDF>
  </metadata>
  <g
     inkscape:label="Capa 1"
     inkscape:groupmode="layer"
     id="layer1"
     transform="translate(-384.57143,-483.798)">
    <path
       style="color:#000000;font-style:normal;font-variant:normal;font-weight:normal;font-stretch:normal;font-size:medium;line-height:normal;font-family:Sans;-inkscape-font-specification:Sans;text-indent:0;text-align:start;text-decoration:none;text-decoration-line:none;letter-spacing:normal;word-spacing:normal;text-transform:none;writing-mode:lr-tb;direction:ltr;baseline-shift:baseline;text-anchor:start;display:inline;overflow:visible;visibility:visible;opacity:1;fill:url(#linearGradient854);fill-opacity:1;fill-rule:nonzero;stroke:none;stroke-width:2.94001;marker:none;enable-background:accumulate"
       d="m 390.07109,489.79832 c -2.96566,0 -5.49966,2.1245 -5.49966,4.94461 v 41.61193 c 0,1.75677 0.62193,2.88553 1.82936,3.9097 1.20744,1.02417 2.46056,1.53332 4.05952,1.53332 h 50.83461 c 1.22044,0.0215 1.18574,-1.65277 2.9e-4,-1.67053 l -50.90522,-0.0296 c -1.57325,0 -2.88048,-1.10901 -2.88048,-1.10901 0,0 -1.20462,-0.90367 -1.20462,-2.63392 v -41.61194 c 0,-1.94341 1.32283,-3.19027 3.63351,-3.1649 l 17.89379,-0.009 8.53275,7.60003 c 0.25783,0.23244 0.58794,0.56382 0.93173,0.57124 l 24.81118,-0.009 c 1.26509,-0.007 1.22512,-1.74154 -0.04,-1.76182 h -24.24851 l -9.0449,-7.82312 c -0.26103,-0.22402 -0.59081,-0.34727 -0.93175,-0.34821 z m 28.86186,2.15891 c -1.15449,-0.003 -1.1568,1.98409 0.0288,2.00103 l 22.12886,-0.0304 c 2.24229,-0.003 3.21371,0.72293 3.9603,1.4188 0.74661,0.69588 1.88115,2.39954 1.88115,4.15504 v 40.8104 c 0.007,1.38103 1.63451,1.4265 1.63937,0.0475 l -0.004,-40.85816 c -2.3e-4,-2.38486 -0.78064,-4.38158 -2.18169,-5.68743 -1.40102,-1.30588 -3.30849,-1.85714 -5.29512,-1.85714 h -22.02138 c -0.0455,-0.002 -0.091,-0.002 -0.13636,0 z"
       id="path2-3"
       sodipodi:nodetypes="sssssccscsssccccccccsccsssccssscc" />
    <path
       d="m 428.0865,520.05047 c 0,0.41447 -0.33572,0.74981 -0.74986,0.74981 -0.41447,0 -0.75019,-0.33534 -0.75019,-0.74981 0,-0.19814 -1.25072,-1.13799 -1.548,-1.43564 l -0.81352,-0.81357 h 0.0235 c -0.41152,-0.51365 -0.66052,-1.16503 -0.66052,-1.87532 v -3.3736 c 0,-0.41447 -0.33689,-0.75019 -0.75024,-0.75019 h -1.50004 c -0.4141,0 -0.74982,0.33577 -0.74982,0.75019 v 0.25739 c 0,0.3105 -0.25115,0.56236 -0.56236,0.56236 -0.15159,0 -0.28851,-0.0611 -0.38962,-0.1589 l -2.48677,-2.48682 c -0.58504,-0.58617 -1.53506,-0.58617 -2.12029,0 l -9.01364,9.01355 c -0.29363,0.29297 -0.43993,0.67627 -0.43993,1.06036 h 0.0159 c 0,0.82763 0.62822,1.49986 1.25245,1.49986 0.71504,0 1.74657,1.00687 1.74657,2.24953 v 5.24897 c 0,0.82819 0.67204,1.49972 1.49986,1.49972 h 2.2499 c 0.41353,0 0.75,-0.33539 0.75,-0.74991 v -4.87401 c 0,-1.03543 0.83897,-1.87533 1.87444,-1.87533 h 2.24915 c 1.03543,0 1.87458,0.8399 1.87458,1.87533 v 4.87401 c 0,0.41452 0.3361,0.74991 0.74982,0.74991 h 2.2499 c 0.82781,0 1.50005,-0.67153 1.50005,-1.49972 v -5.24897 c 0,-0.41372 0.33534,-0.75056 0.74906,-0.75056 0.41452,0 0.74986,0.33684 0.74986,0.75056 v 5.24897 c 0,1.65642 -1.34226,2.99939 -2.99901,2.99939 h -2.24991 c -1.24228,0 -2.24911,-1.00758 -2.24911,-2.24958 v -4.49906 c 0,-0.41447 -0.33572,-0.74981 -0.74986,-0.74981 h -1.5 c -0.41428,0 -0.74986,0.33534 -0.74986,0.74981 v 4.49906 c 0,1.242 -1.00687,2.24958 -2.24915,2.24958 h -2.24991 c -1.65656,0 -2.99902,-1.34297 -2.99902,-2.99939 v -5.24897 c 0,-0.41372 -0.34982,-0.72347 -0.74986,-0.84356 -0.008,-0.002 -0.0121,-0.007 -0.0183,-0.0103 -1.28438,-0.33829 -2.23158,-1.50487 -2.23158,-2.89556 v 0.16622 c -0.0454,-0.82233 0.23451,-1.65895 0.86278,-2.28722 l 9.01392,-9.01397 c 0.5857,-0.5858 1.35099,-0.86728 2.11866,-0.86728 0.76767,0 1.53778,0.28148 2.12358,0.86728 l 1.31845,1.31883 c 0.34453,-0.41302 0.8549,-0.68175 1.43484,-0.68175 h 2.24883 c 1.03542,0 1.87458,0.83916 1.87458,1.87462 v 3.74888 c 0,0.40383 0.16144,0.76851 0.4214,1.038 l 1.71535,1.71534 c 0.5887,0.58838 0.86297,0.8813 0.86297,1.37124 z m -2.24991,2.24967 c 0.41447,0 0.74986,0.33534 0.74986,0.74986 0,0.41376 -0.33539,0.74911 -0.74986,0.74911 -0.41447,0 -0.74981,-0.33535 -0.74981,-0.74911 0,-0.41452 0.33534,-0.74986 0.74981,-0.74986 z"
       id="path2"
       style="stroke-width:0.046875;fill-opacity:1.0;fill:url(#linearGradient1381)" />
  </g>
</svg>
