<?xml version="1.0" encoding="UTF-8" standalone="no"?>
<svg
   width="32"
   height="32"
   version="1.1"
   id="svg14"
   sodipodi:docname="face.svg"
   inkscape:version="1.2.1 (9c6d41e410, 2022-07-14)"
   xmlns:inkscape="http://www.inkscape.org/namespaces/inkscape"
   xmlns:sodipodi="http://sodipodi.sourceforge.net/DTD/sodipodi-0.dtd"
   xmlns="http://www.w3.org/2000/svg"
   xmlns:svg="http://www.w3.org/2000/svg">
  <sodipodi:namedview
     id="namedview16"
     pagecolor="#ffffff"
     bordercolor="#000000"
     borderopacity="1"
     inkscape:showpageshadow="2"
     inkscape:pageopacity="0"
     inkscape:pagecheckerboard="0"
     inkscape:deskcolor="#cccccc"
     showgrid="false"
     inkscape:zoom="11.313709"
     inkscape:cx="21.213202"
     inkscape:cy="21.964503"
     inkscape:window-width="1920"
     inkscape:window-height="1008"
     inkscape:window-x="0"
     inkscape:window-y="0"
     inkscape:window-maximized="1"
     inkscape:current-layer="svg14">
    <inkscape:grid
       type="xygrid"
       id="grid191"
       originx="0"
       originy="0" />
  </sodipodi:namedview>
  <defs
     id="defs5">
    <style
       id="current-color-scheme"
       type="text/css">.ColorScheme-Background { color:#181818; }
.ColorScheme-ButtonBackground { color:#343434; }
.ColorScheme-Highlight { color:#4285f4; }
.ColorScheme-Text { color:#eceff4; }
.ColorScheme-ViewBackground { color:#242424; }
.ColorScheme-NegativeText { color:#f44336; }
.ColorScheme-PositiveText { color:#4caf50; }
.ColorScheme-NeutralText { color:#ff9800; }
</style>
  </defs>
  <g
     id="face"
     style="fill:#eceff4;fill-opacity:1">
    <rect
       style="opacity:0.00100002;fill:#eceff4;fill-opacity:1"
       width="32"
       height="32"
       x="0"
       y="0"
       id="rect9" />
    <path
       d="m 15.999688,27.99995 h -0.749999 c -0.414563,0 -0.749955,-0.336187 -0.749955,-0.75 0,-0.414562 0.335392,-0.75 0.749955,-0.75 h 0.749999 c 5.798859,0 10.499812,-4.701375 10.499812,-10.500094 0,-5.798531 -4.700953,-10.499906 -10.499812,-10.499906 -5.798484,0 -10.4998585,4.701375 -10.4998585,10.499906 0,3.435141 1.657125,6.476203 4.206983,8.391469 l -0.0076,0.01095 c 0.181275,0.13704 0.300666,0.352331 0.300666,0.597675 0,0.413766 -0.33544,0.75 -0.750001,0.75 -0.168845,0 -0.322266,-0.05859 -0.447891,-0.152344 l -0.0018,0.0029 C 5.8859225,23.411407 4.0000005,19.925829 4.0000005,15.999906 4.0000005,9.37225 9.3722035,4 15.999813,4 22.626672,4 27.999999,9.37225 27.999999,15.999906 27.999999,22.627047 22.626671,28 15.999813,28 Z m -3.749578,-1.5 c 0.413438,0 0.749249,0.335438 0.749249,0.75 0,0.413813 -0.335811,0.75 -0.74925,0.75 -0.414562,0 -0.75,-0.336187 -0.75,-0.75 0,-0.414562 0.335438,-0.75 0.750001,-0.75 z M 26.4995,15.999856 v 0 0 0 0 0 l 0.0662,-0.01523 -0.06322,0.01455 0.0114,-0.01275 0.0012,0.0075 0.05654,-0.02776 -0.0822,0.02895 0.02914,0.0048 0.0098,0.0013 -0.02889,-0.0013 v 0 l 0.0191,-4.6e-5 0.0098,0.0013 0.0373,-0.01652 z"
       id="path2"
       sodipodi:nodetypes="ssssssssccssccssssssssscccccccccccccccccccc"
       style="enable-background:new;stroke-width:0.046875;fill-opacity:1;fill:currentColor;"
       class="ColorScheme-Text" />
    <path
       d="m 11.526814,9.5 c -1.082468,0 -1.9600677,0.83931 -1.9600677,1.9991 0,1.159792 0.8775997,1.998885 1.9600677,1.998885 1.082462,0 1.960071,-0.839093 1.960071,-1.998885 0,-1.15979 -0.877609,-1.9991 -1.960071,-1.9991 z m 8.960538,0 c -1.082466,0 -1.960062,0.83931 -1.960062,1.9991 0,1.159792 0.877596,1.998885 1.960062,1.998885 1.082473,0 1.960073,-0.839093 1.960073,-1.998885 0,-1.15979 -0.8776,-1.9991 -1.960073,-1.9991 z M 9.7591987,18.09959 C 9.4892722,18.11633 9.2429674,18.279779 9.0941109,18.568372 8.9523144,18.85864 8.9714852,19.227988 9.1466509,19.496505 10.648351,21.903199 13.163948,23.5 16.007118,23.5 c 2.843178,0 5.358835,-1.596801 6.86042,-4.003495 0.245127,-0.392604 0.139067,-0.984226 -0.22755,-1.246851 -0.36662,-0.262626 -0.927411,-0.149003 -1.172525,0.243809 -1.212768,1.943753 -3.200994,3.206568 -5.460331,3.206568 -2.259336,0 -4.247502,-1.262548 -5.460332,-3.206568 -0.227356,-0.285871 -0.517633,-0.410603 -0.7875475,-0.393862 z"
       id="path1089"
       sodipodi:nodetypes="ccccccccsccssssssscsc"
       style="fill:currentColor;fill-opacity:1;stroke-width:0.0517584"
       class="ColorScheme-Text" />
  </g>
  <g
     id="22-22-face"
     style="fill:#eceff4;fill-opacity:1"
     transform="translate(32.000001,10.000001)">
    <rect
       style="opacity:0.00100002;fill:#eceff4;fill-opacity:1"
       width="22"
       height="22"
       x="0"
       y="0"
       id="rect4" />
    <path
       d="m 10.999999,18.999999 h -0.5 c -0.276375,0 -0.499969,-0.224125 -0.499969,-0.5 0,-0.276375 0.223594,-0.5 0.499969,-0.5 h 0.5 c 3.865906,0 6.999875,-3.13425 6.999875,-7.000063 0,-3.865687 -3.133969,-6.999937 -6.999875,-6.999937 -3.865656,0 -6.999906,3.13425 -6.999906,6.999937 0,2.290094 1.10475,4.317469 2.804655,5.594313 l -0.0051,0.0073 c 0.120849,0.09136 0.200443,0.234887 0.200443,0.39845 0,0.275844 -0.223626,0.5 -0.5,0.5 -0.112563,0 -0.214844,-0.03906 -0.298594,-0.101563 l -0.0012,0.0019 c -1.942843,-1.459399 -3.200124,-3.783118 -3.200124,-6.4004 0,-4.418437 3.581469,-7.999937 7.999875,-7.999937 4.417906,0 8.000125,3.5815 8.000125,7.999937 0,4.418094 -3.582219,8.000063 -8.000125,8.000063 z m -2.499719,-1 c 0.275625,0 0.4995,0.223625 0.4995,0.5 0,0.275875 -0.223875,0.5 -0.4995,0.5 -0.276375,0 -0.5,-0.224125 -0.5,-0.5 0,-0.276375 0.223625,-0.5 0.5,-0.5 z m 9.499594,-7.000063 v 0 0 0 0 0 l 0.04413,-0.01015 -0.04215,0.0097 0.0076,-0.0085 8e-4,0.005 0.03769,-0.01851 -0.0548,0.0193 0.01943,0.0032 0.0065,8.67e-4 -0.01926,-8.67e-4 v 0 l 0.01273,-3.1e-5 0.0065,8.67e-4 0.02487,-0.01101 z"
       id="path2-3"
       sodipodi:nodetypes="ssssssssccssccssssssssscccccccccccccccccccc"
       style="enable-background:new;stroke-width:0.03125;fill-opacity:1;fill:currentColor;"
       class="ColorScheme-Text" />
    <path
       d="M 8.4438974,7.803 C 7.825339,7.803 7.324,8.162813 7.324,8.853461 7.324,9.54412 7.825339,9.904 8.4438974,9.904 9.0624471,9.904 9.5639375,9.54412 9.5639375,8.853461 9.5639375,8.162813 9.0624471,7.803 8.4438974,7.803 Z m 5.1203196,0 c -0.618555,0 -1.120046,0.359813 -1.120046,1.050461 0,0.690659 0.501491,1.050539 1.120046,1.050539 0.618547,0 1.120037,-0.35988 1.120037,-1.050539 0,-0.690648 -0.50149,-1.050461 -1.120037,-1.050461 z m -6.1303909,4.98106 c -0.1542402,0.01 -0.2949901,0.107296 -0.380049,0.279152 -0.081022,0.172858 -0.070071,0.392808 0.030005,0.552704 C 7.9419001,15.049101 9.3793822,16 11.004052,16 c 1.624678,0 3.062201,-0.950899 3.920255,-2.384084 0.140072,-0.233791 0.07947,-0.586099 -0.130032,-0.742495 -0.209493,-0.156399 -0.529951,-0.08873 -0.670012,0.145188 -0.693012,1.157501 -1.829154,1.909507 -3.120202,1.909507 -1.2910476,0 -2.4271445,-0.751846 -3.1201914,-1.909507 C 7.7539514,12.848374 7.5880751,12.774097 7.433838,12.78406 Z"
       id="path1089-3"
       sodipodi:nodetypes="ccccccccsccssssssscsc"
       style="stroke-width:0.0301924;fill-opacity:1;fill:currentColor;"
       class="ColorScheme-Text" />
  </g>
</svg>
