<?xml version="1.0" encoding="UTF-8" standalone="no"?>
<!-- Created with Inkscape (http://www.inkscape.org/) -->

<svg
   id="svg4153"
   version="1.1"
   inkscape:version="1.2.1 (9c6d41e410, 2022-07-14)"
   width="22"
   height="22"
   sodipodi:docname="software.svg"
   viewBox="0 0 22 22"
   xmlns:inkscape="http://www.inkscape.org/namespaces/inkscape"
   xmlns:sodipodi="http://sodipodi.sourceforge.net/DTD/sodipodi-0.dtd"
   xmlns="http://www.w3.org/2000/svg"
   xmlns:svg="http://www.w3.org/2000/svg"
   xmlns:rdf="http://www.w3.org/1999/02/22-rdf-syntax-ns#"
   xmlns:cc="http://creativecommons.org/ns#"
   xmlns:dc="http://purl.org/dc/elements/1.1/">
  <style
     id="current-color-scheme"
     type="text/css">.ColorScheme-Text { color:#eceff4; }
</style>
  <g
     id="software-updates-additional"
     transform="translate(-22)">
    <rect
       style="fill:none;fill-opacity:0.599057;stroke:none"
       id="rect4192"
       width="22"
       height="22"
       x="0"
       y="-2.6645353e-15" />
    <path
       fill-rule="evenodd"
       clip-rule="evenodd"
       d="m 5.999969,15.666661 c 0,-0.257717 0.223872,-0.466667 0.499997,-0.466667 0.276125,0 0.499996,0.20895 0.499996,0.466667 0,0.257716 -0.223871,0.466666 -0.499996,0.466666 -0.276125,0 -0.499997,-0.20895 -0.499997,-0.466666 z m 1.999984,0 c 0,-0.257717 0.223872,-0.466667 0.499993,-0.466667 0.276124,0 0.499996,0.20895 0.499996,0.466667 0,0.257716 -0.223872,0.466666 -0.499996,0.466666 -0.276121,0 -0.499993,-0.20895 -0.499993,-0.466666 z m 8.999911,2.333332 H 4.999978 C 3.895364,17.999993 3,17.164194 3,16.133327 v -1.866666 c 0,-1.030867 0.895364,-1.866667 1.999978,-1.866667 h 11.999886 0.03663 c 0.33375,0 0.52881,-0.249286 0.438466,-0.549149 L 16.383909,8.1284503 c -0.0664,-0.220354 -0.343029,-0.395121 -0.619369,-0.395121 h -0.725586 c -0.549057,0 -1.046148,-0.206908 -1.407458,-0.540954 l -2.270727,-2.119483 c -0.197246,-0.184013 -0.516588,-0.184013 -0.713868,0 l -0.248527,0.232196 -5e-4,-4.67e-4 c -0.09936,0.09275 -0.236563,0.150063 -0.388184,0.150063 -0.303218,0 -0.548808,-0.229338 -0.548808,-0.512225 0,-0.1414 0.0615,-0.269441 0.160655,-0.362191 l -0.0018,-0.0018 0.06884,-0.06414 c 0.362217,-0.338188 0.836712,-0.513479 1.311489,-0.514325 0.477212,-8.75e-4 0.954768,0.174387 1.318828,0.514266 l 2.164543,2.033704 c 0.178467,0.1554 0.416995,0.252029 0.680652,0.252029 h 0.351559 c 0.690428,0 1.530013,0.3696 1.913789,1.515762 l 1.007089,3.5255197 c 4.99e-4,0.002 -4.99e-4,0.0027 0,0.0048 0.03125,0.10185 0.04785,0.209416 0.04785,0.3206 0,0.644407 -0.55956,1.166666 -1.249991,1.166666 H 17.000016 5.00013 c -0.552244,0 -0.99999,0.4179 -0.99999,0.933333 v 1.866666 c 0,0.515434 0.447746,0.933334 0.99999,0.933334 h 11.999886 c 0.552243,0 0.999988,-0.4179 0.999988,-0.933334 V 14.73335 c 0,-0.257717 0.223873,-0.466667 0.499991,-0.466667 0.276126,0 0.499999,0.20895 0.499999,0.466667 v 1.399999 c 0,1.030867 -0.895491,1.866666 -1.999978,1.866666 z M 8.749946,6.5666633 c -0.276124,0 -0.499997,-0.20895 -0.499997,-0.466667 0,-0.257717 0.223873,-0.466667 0.499997,-0.466667 0.276118,0 0.499991,0.20895 0.499991,0.466667 0,0.257717 -0.223873,0.466667 -0.499991,0.466667 z m 0,1.633333 c 0.690428,0 1.249986,0.522258 1.249986,1.166666 v 0.6999997 c 0,0.257716 0.223873,0.466666 0.499996,0.466666 h 0.99999 c 0.27612,0 0.499993,-0.208979 0.499993,-0.466666 V 9.3666623 c 0,-0.644408 0.559558,-1.166666 1.24999,-1.166666 h 0.249996 c 0.276124,0 0.499997,0.20895 0.499997,0.466666 0,0.257717 -0.223873,0.466667 -0.499997,0.466667 -0.276124,0 -0.499996,0.20895 -0.499996,0.466667 v 0.6999987 c 0,0.644408 -0.559553,1.166667 -1.249985,1.166667 h -1.499988 c -0.690428,0 -1.249986,-0.522259 -1.249986,-1.166667 V 9.5999963 c 0,-0.257717 -0.223872,-0.466667 -0.499996,-0.466667 -0.717399,0 -1.315298,-0.470779 -1.463236,-1.098767 -0.006,-0.03532 -0.0047,-0.07111 -0.0092,-0.106633 -0.0019,4.67e-4 -0.0072,0.0023 -0.0073,0.0016 C 7.00117,7.8183463 6.897899,7.7333253 6.773402,7.7333253 H 6.258626 c -0.276248,0 -0.554435,0.174766 -0.622681,0.395121 L 4.736672,11.132612 c -0.0024,0.01482 0.0012,0.02917 -0.0027,0.04375 -0.06623,0.230591 -0.320432,0.367558 -0.567617,0.305783 -0.247187,-0.06198 -0.393904,-0.298958 -0.327623,-0.529783 2.51e-4,-0.0012 8.76e-4,-0.002 0.0012,-0.003 l -0.0038,-9.34e-4 0.758771,-2.6327567 c 0.388029,-1.146162 1.230804,-1.515733 1.921109,-1.515733 h 0.484369 c 0.552246,0 0.999992,0.4179 0.999992,0.933333 0,0.0091 0.0043,0.01278 0.0055,0.0205 0.0018,0.05355 0.01078,0.106633 0.0322,0.157237 4.99e-4,0.0016 9.37e-4,0.0032 0.0016,0.0048 0.02199,0.0499 0.05658,0.09546 0.09789,0.137404 0.09104,0.08998 0.219217,0.146737 0.362278,0.146737 z"
       id="path2-3-56"
       style="fill:#3daee9;fill-opacity:1;stroke-width:0.0301904" />
    <path
       inkscape:connector-curvature="0"
       id="path4180-3-6-2"
       d="m 15.3749,13.450059 a 1.75,1.75 0 0 0 -1.75,1.75 1.75,1.75 0 0 0 1.75,1.75 1.75,1.75 0 0 0 1.75,-1.75 1.75,1.75 0 0 0 -1.75,-1.75 z"
       style="fill:#3daee9;fill-opacity:1;stroke:none;stroke-width:0.583335" />
  </g>
  <g
     id="software-updates-release">
    <rect
       y="-2.6645353e-15"
       x="0"
       height="22"
       width="22"
       id="rect4170"
       style="fill:none;fill-opacity:0.599057;stroke:none" />
    <path
       fill-rule="evenodd"
       clip-rule="evenodd"
       d="m 5.999969,15.666661 c 0,-0.257717 0.223872,-0.466667 0.499997,-0.466667 0.276125,0 0.499996,0.20895 0.499996,0.466667 0,0.257716 -0.223871,0.466666 -0.499996,0.466666 -0.276125,0 -0.499997,-0.20895 -0.499997,-0.466666 z m 1.999984,0 c 0,-0.257717 0.223872,-0.466667 0.499993,-0.466667 0.276124,0 0.499996,0.20895 0.499996,0.466667 0,0.257716 -0.223872,0.466666 -0.499996,0.466666 -0.276121,0 -0.499993,-0.20895 -0.499993,-0.466666 z m 8.999911,2.333332 H 4.999978 C 3.895364,17.999993 3,17.164194 3,16.133327 v -1.866666 c 0,-1.030867 0.895364,-1.866667 1.999978,-1.866667 h 11.999886 0.03663 c 0.33375,0 0.52881,-0.249286 0.438466,-0.549149 L 16.383909,8.1284503 c -0.0664,-0.220354 -0.343029,-0.395121 -0.619369,-0.395121 h -0.725586 c -0.549057,0 -1.046148,-0.206908 -1.407458,-0.540954 l -2.270727,-2.119483 c -0.197246,-0.184013 -0.516588,-0.184013 -0.713868,0 l -0.248527,0.232196 -5e-4,-4.67e-4 c -0.09936,0.09275 -0.236563,0.150063 -0.388184,0.150063 -0.303218,0 -0.548808,-0.229338 -0.548808,-0.512225 0,-0.1414 0.0615,-0.269441 0.160655,-0.362191 l -0.0018,-0.0018 0.06884,-0.06414 c 0.362217,-0.338188 0.836712,-0.513479 1.311489,-0.514325 0.477212,-8.75e-4 0.954768,0.174387 1.318828,0.514266 l 2.164543,2.033704 c 0.178467,0.1554 0.416995,0.252029 0.680652,0.252029 h 0.351559 c 0.690428,0 1.530013,0.3696 1.913789,1.515762 l 1.007089,3.5255197 c 4.99e-4,0.002 -4.99e-4,0.0027 0,0.0048 0.03125,0.10185 0.04785,0.209416 0.04785,0.3206 0,0.644407 -0.55956,1.166666 -1.249991,1.166666 H 17.000016 5.00013 c -0.552244,0 -0.99999,0.4179 -0.99999,0.933333 v 1.866666 c 0,0.515434 0.447746,0.933334 0.99999,0.933334 h 11.999886 c 0.552243,0 0.999988,-0.4179 0.999988,-0.933334 V 14.73335 c 0,-0.257717 0.223873,-0.466667 0.499991,-0.466667 0.276126,0 0.499999,0.20895 0.499999,0.466667 v 1.399999 c 0,1.030867 -0.895491,1.866666 -1.999978,1.866666 z M 8.749946,6.5666633 c -0.276124,0 -0.499997,-0.20895 -0.499997,-0.466667 0,-0.257717 0.223873,-0.466667 0.499997,-0.466667 0.276118,0 0.499991,0.20895 0.499991,0.466667 0,0.257717 -0.223873,0.466667 -0.499991,0.466667 z m 0,1.633333 c 0.690428,0 1.249986,0.522258 1.249986,1.166666 v 0.6999997 c 0,0.257716 0.223873,0.466666 0.499996,0.466666 h 0.99999 c 0.27612,0 0.499993,-0.208979 0.499993,-0.466666 V 9.3666623 c 0,-0.644408 0.559558,-1.166666 1.24999,-1.166666 h 0.249996 c 0.276124,0 0.499997,0.20895 0.499997,0.466666 0,0.257717 -0.223873,0.466667 -0.499997,0.466667 -0.276124,0 -0.499996,0.20895 -0.499996,0.466667 v 0.6999987 c 0,0.644408 -0.559553,1.166667 -1.249985,1.166667 h -1.499988 c -0.690428,0 -1.249986,-0.522259 -1.249986,-1.166667 V 9.5999963 c 0,-0.257717 -0.223872,-0.466667 -0.499996,-0.466667 -0.717399,0 -1.315298,-0.470779 -1.463236,-1.098767 -0.006,-0.03532 -0.0047,-0.07111 -0.0092,-0.106633 -0.0019,4.67e-4 -0.0072,0.0023 -0.0073,0.0016 C 7.00117,7.8183463 6.897899,7.7333253 6.773402,7.7333253 H 6.258626 c -0.276248,0 -0.554435,0.174766 -0.622681,0.395121 L 4.736672,11.132612 c -0.0024,0.01482 0.0012,0.02917 -0.0027,0.04375 -0.06623,0.230591 -0.320432,0.367558 -0.567617,0.305783 -0.247187,-0.06198 -0.393904,-0.298958 -0.327623,-0.529783 2.51e-4,-0.0012 8.76e-4,-0.002 0.0012,-0.003 l -0.0038,-9.34e-4 0.758771,-2.6327567 c 0.388029,-1.146162 1.230804,-1.515733 1.921109,-1.515733 h 0.484369 c 0.552246,0 0.999992,0.4179 0.999992,0.933333 0,0.0091 0.0043,0.01278 0.0055,0.0205 0.0018,0.05355 0.01078,0.106633 0.0322,0.157237 4.99e-4,0.0016 9.37e-4,0.0032 0.0016,0.0048 0.02199,0.0499 0.05658,0.09546 0.09789,0.137404 0.09104,0.08998 0.219217,0.146737 0.362278,0.146737 z"
       id="path2-3-5"
       style="fill:#26a65c;fill-opacity:1;stroke-width:0.0301904" />
    <path
       inkscape:connector-curvature="0"
       id="path4180-3-6-3"
       d="m 15.3749,13.450059 a 1.75,1.75 0 0 0 -1.75,1.75 1.75,1.75 0 0 0 1.75,1.75 1.75,1.75 0 0 0 1.75,-1.75 1.75,1.75 0 0 0 -1.75,-1.75 z"
       style="fill:#26a65c;fill-opacity:1;stroke:none;stroke-width:0.583335" />
  </g>
  <g
     id="software-updates-important"
     transform="translate(44,-22)">
    <rect
       y="-2.6645353e-15"
       x="0"
       height="22"
       width="22"
       id="rect4206"
       style="fill:none;fill-opacity:0.599057;stroke:none" />
    <path
       fill-rule="evenodd"
       clip-rule="evenodd"
       d="m 5.999996,15.666661 c 0,-0.257717 0.223872,-0.466667 0.499997,-0.466667 0.276129,0 0.5,0.20895 0.5,0.466667 0,0.257716 -0.223871,0.466666 -0.5,0.466666 -0.276125,0 -0.499997,-0.20895 -0.499997,-0.466666 z m 1.999996,0 c 0,-0.257717 0.223872,-0.466667 0.499998,-0.466667 0.276127,0 0.499999,0.20895 0.499999,0.466667 0,0.257716 -0.223872,0.466666 -0.499999,0.466666 -0.276126,0 -0.499998,-0.20895 -0.499998,-0.466666 z m 8.999983,2.333332 H 4.999996 C 3.895372,17.999993 3,17.164194 3,16.133327 v -1.866666 c 0,-1.030867 0.895372,-1.866667 1.999996,-1.866667 h 11.999979 0.03663 c 0.333751,0 0.528813,-0.249286 0.438466,-0.549149 l -1.09106,-3.7223947 c -0.0664,-0.220354 -0.343031,-0.395121 -0.619373,-0.395121 h -0.725593 c -0.549063,0 -1.04615,-0.206908 -1.407469,-0.540954 l -2.270744,-2.119483 c -0.19725,-0.184013 -0.516588,-0.184013 -0.713869,0 l -0.248535,0.232196 -4.99e-4,-4.67e-4 c -0.09936,0.09275 -0.236559,0.150063 -0.388186,0.150063 -0.303217,0 -0.54881,-0.229338 -0.54881,-0.512225 0,-0.1414 0.06148,-0.269441 0.160655,-0.362191 l -0.0018,-0.0018 0.06884,-0.06414 c 0.362218,-0.338188 0.836716,-0.513479 1.311498,-0.514325 0.477215,-8.75e-4 0.954779,0.174387 1.318839,0.514266 l 2.16456,2.033704 c 0.178468,0.1554 0.416999,0.252029 0.680656,0.252029 h 0.35156 c 0.690436,0 1.53003,0.3696 1.913809,1.515762 l 1.007094,3.5255197 c 5e-4,0.002 -5.01e-4,0.0027 0,0.0048 0.03124,0.10185 0.04785,0.209416 0.04785,0.3206 0,0.644407 -0.559563,1.166666 -1.249999,1.166666 H 17.000004 5.000025 c -0.552245,0 -0.999999,0.4179 -0.999999,0.933333 v 1.866666 c 0,0.515434 0.447754,0.933334 0.999999,0.933334 h 11.999979 c 0.552252,0 0.999997,-0.4179 0.999997,-0.933334 V 14.73335 c 0,-0.257717 0.223874,-0.466667 0.499999,-0.466667 0.276127,0 0.5,0.20895 0.5,0.466667 v 1.399999 c 0,1.030867 -0.8955,1.866666 -1.999996,1.866666 z M 8.749987,6.5666633 c -0.276119,0 -0.5,-0.20895 -0.5,-0.466667 0,-0.257717 0.223881,-0.466667 0.5,-0.466667 0.276124,0 0.499997,0.20895 0.499997,0.466667 0,0.257717 -0.223873,0.466667 -0.499997,0.466667 z m 0,1.633333 c 0.690441,0 1.250001,0.522258 1.250001,1.166666 v 0.6999997 c 0,0.257716 0.223873,0.466666 0.499999,0.466666 h 0.999998 c 0.276126,0 0.5,-0.208979 0.5,-0.466666 V 9.3666623 c 0,-0.644408 0.559557,-1.166666 1.249992,-1.166666 h 0.250004 c 0.276128,0 0.500001,0.20895 0.500001,0.466666 0,0.257717 -0.223873,0.466667 -0.500001,0.466667 -0.276126,0 -0.499998,0.20895 -0.499998,0.466667 v 0.6999987 c 0,0.644408 -0.55956,1.166667 -1.250002,1.166667 h -1.499998 c -0.690434,0 -1.249994,-0.522259 -1.249994,-1.166667 V 9.5999963 c 0,-0.257717 -0.223872,-0.466667 -0.499999,-0.466667 -0.717407,0 -1.315312,-0.470779 -1.463245,-1.098767 -0.006,-0.03532 -0.0047,-0.07111 -0.0092,-0.106633 -0.0019,4.67e-4 -0.0072,0.0023 -0.0073,0.0016 C 7.001205,7.8183463 6.897928,7.7333253 6.773431,7.7333253 H 6.258653 c -0.276252,0 -0.554443,0.174766 -0.622688,0.395121 L 4.736681,11.132612 c -0.0024,0.01482 0.0012,0.02917 -0.0027,0.04375 -0.06625,0.230591 -0.320436,0.367558 -0.567624,0.305783 -0.247186,-0.06198 -0.393904,-0.298958 -0.327625,-0.529783 2.53e-4,-0.0012 8.76e-4,-0.002 0.0012,-0.003 l -0.0038,-9.34e-4 0.75878,-2.6327567 c 0.388032,-1.146162 1.230813,-1.515733 1.921122,-1.515733 h 0.484374 c 0.552251,0 1,0.4179 1,0.933333 0,0.0091 0.0043,0.01278 0.0055,0.0205 0.0018,0.05355 0.01078,0.106633 0.0322,0.157237 5.07e-4,0.0016 9.39e-4,0.0032 0.0016,0.0048 0.02199,0.0499 0.05658,0.09546 0.09789,0.137404 0.09104,0.08998 0.219219,0.146737 0.362282,0.146737 z"
       id="path2-5"
       style="fill:currentColor;fill-opacity:1;stroke-width:0.0301905"
       class="ColorScheme-Text" />
    <path
       style="fill:#c83737;fill-opacity:1;fill-rule:evenodd;stroke:none;stroke-width:0.603808px;stroke-linecap:butt;stroke-linejoin:miter;stroke-opacity:1"
       d="m 15.499982,13.741725 1.874999,2.916667 h -3.749999 z"
       id="path4202-6"
       inkscape:connector-curvature="0" />
  </g>
  <g
     id="software-updates-updates"
     transform="translate(0,-22)">
    <rect
       style="fill:none;fill-opacity:0.599057;stroke:none"
       id="rect4212"
       width="22"
       height="22"
       x="0"
       y="-2.6645353e-15" />
    <path
       fill-rule="evenodd"
       clip-rule="evenodd"
       d="m 5.999969,15.666661 c 0,-0.257717 0.223872,-0.466667 0.499997,-0.466667 0.276125,0 0.499996,0.20895 0.499996,0.466667 0,0.257716 -0.223871,0.466666 -0.499996,0.466666 -0.276125,0 -0.499997,-0.20895 -0.499997,-0.466666 z m 1.999984,0 c 0,-0.257717 0.223872,-0.466667 0.499993,-0.466667 0.276124,0 0.499996,0.20895 0.499996,0.466667 0,0.257716 -0.223872,0.466666 -0.499996,0.466666 -0.276121,0 -0.499993,-0.20895 -0.499993,-0.466666 z m 8.999911,2.333332 H 4.999978 C 3.895364,17.999993 3,17.164194 3,16.133327 v -1.866666 c 0,-1.030867 0.895364,-1.866667 1.999978,-1.866667 h 11.999886 0.03663 c 0.33375,0 0.52881,-0.249286 0.438466,-0.549149 L 16.383909,8.1284503 c -0.0664,-0.220354 -0.343029,-0.395121 -0.619369,-0.395121 h -0.725586 c -0.549057,0 -1.046148,-0.206908 -1.407458,-0.540954 l -2.270727,-2.119483 c -0.197246,-0.184013 -0.516588,-0.184013 -0.713868,0 l -0.248527,0.232196 -5e-4,-4.67e-4 c -0.09936,0.09275 -0.236563,0.150063 -0.388184,0.150063 -0.303218,0 -0.548808,-0.229338 -0.548808,-0.512225 0,-0.1414 0.0615,-0.269441 0.160655,-0.362191 l -0.0018,-0.0018 0.06884,-0.06414 c 0.362217,-0.338188 0.836712,-0.513479 1.311489,-0.514325 0.477212,-8.75e-4 0.954768,0.174387 1.318828,0.514266 l 2.164543,2.033704 c 0.178467,0.1554 0.416995,0.252029 0.680652,0.252029 h 0.351559 c 0.690428,0 1.530013,0.3696 1.913789,1.515762 l 1.007089,3.5255197 c 4.99e-4,0.002 -4.99e-4,0.0027 0,0.0048 0.03125,0.10185 0.04785,0.209416 0.04785,0.3206 0,0.644407 -0.55956,1.166666 -1.249991,1.166666 H 17.000016 5.00013 c -0.552244,0 -0.99999,0.4179 -0.99999,0.933333 v 1.866666 c 0,0.515434 0.447746,0.933334 0.99999,0.933334 h 11.999886 c 0.552243,0 0.999988,-0.4179 0.999988,-0.933334 V 14.73335 c 0,-0.257717 0.223873,-0.466667 0.499991,-0.466667 0.276126,0 0.499999,0.20895 0.499999,0.466667 v 1.399999 c 0,1.030867 -0.895491,1.866666 -1.999978,1.866666 z M 8.749946,6.5666633 c -0.276124,0 -0.499997,-0.20895 -0.499997,-0.466667 0,-0.257717 0.223873,-0.466667 0.499997,-0.466667 0.276118,0 0.499991,0.20895 0.499991,0.466667 0,0.257717 -0.223873,0.466667 -0.499991,0.466667 z m 0,1.633333 c 0.690428,0 1.249986,0.522258 1.249986,1.166666 v 0.6999997 c 0,0.257716 0.223873,0.466666 0.499996,0.466666 h 0.99999 c 0.27612,0 0.499993,-0.208979 0.499993,-0.466666 V 9.3666623 c 0,-0.644408 0.559558,-1.166666 1.24999,-1.166666 h 0.249996 c 0.276124,0 0.499997,0.20895 0.499997,0.466666 0,0.257717 -0.223873,0.466667 -0.499997,0.466667 -0.276124,0 -0.499996,0.20895 -0.499996,0.4666667 v 0.699999 c 0,0.644408 -0.559553,1.166667 -1.249985,1.166667 h -1.499988 c -0.690428,0 -1.249986,-0.522259 -1.249986,-1.166667 V 9.599996 c 0,-0.2577167 -0.223872,-0.4666667 -0.499996,-0.4666667 -0.717399,0 -1.315298,-0.470779 -1.463236,-1.098767 -0.006,-0.03532 -0.0047,-0.07111 -0.0092,-0.106633 -0.0019,4.67e-4 -0.0072,0.0023 -0.0073,0.0016 C 7.00117,7.8183463 6.897899,7.7333253 6.773402,7.7333253 H 6.258626 c -0.276248,0 -0.554435,0.174766 -0.622681,0.395121 L 4.736672,11.132612 c -0.0024,0.01482 0.0012,0.02917 -0.0027,0.04375 -0.06623,0.230591 -0.320432,0.367558 -0.567617,0.305783 -0.247187,-0.06198 -0.393904,-0.298958 -0.327623,-0.529783 2.51e-4,-0.0012 8.76e-4,-0.002 0.0012,-0.003 l -0.0038,-9.34e-4 0.758771,-2.6327567 c 0.388029,-1.146162 1.230804,-1.515733 1.921109,-1.515733 h 0.484369 c 0.552246,0 0.999992,0.4179 0.999992,0.933333 0,0.0091 0.0043,0.01278 0.0055,0.0205 0.0018,0.05355 0.01078,0.106633 0.0322,0.157237 4.99e-4,0.0016 9.37e-4,0.0032 0.0016,0.0048 0.02199,0.0499 0.05658,0.09546 0.09789,0.137404 0.09104,0.08998 0.219217,0.146737 0.362278,0.146737 z"
       id="path2-3"
       style="fill:currentColor;fill-opacity:1;stroke-width:0.0301904"
       class="ColorScheme-Text" />
    <path
       inkscape:connector-curvature="0"
       id="path4180-3-6"
       d="m 15.3749,13.450059 a 1.75,1.75 0 0 0 -1.75,1.75 1.75,1.75 0 0 0 1.75,1.75 1.75,1.75 0 0 0 1.75,-1.75 1.75,1.75 0 0 0 -1.75,-1.75 z"
       style="fill:#26a65c;fill-opacity:1;stroke:none;stroke-width:0.583335" />
  </g>
  <metadata
     id="metadata4159">
    <rdf:RDF>
      <cc:Work
         rdf:about="">
        <dc:format>image/svg+xml</dc:format>
        <dc:type
           rdf:resource="http://purl.org/dc/dcmitype/StillImage" />
      </cc:Work>
    </rdf:RDF>
  </metadata>
  <defs
     id="defs4157">
    <style
       type="text/css"
       id="style20" />
  </defs>
  <sodipodi:namedview
     pagecolor="#ffffff"
     bordercolor="#666666"
     borderopacity="1"
     objecttolerance="10"
     gridtolerance="10000"
     guidetolerance="10"
     inkscape:pageopacity="0"
     inkscape:pageshadow="2"
     inkscape:window-width="1920"
     inkscape:window-height="1002"
     id="namedview4155"
     inkscape:document-units="px"
     showgrid="false"
     inkscape:showpageshadow="true"
     borderlayer="true"
     inkscape:zoom="8.340909"
     inkscape:cx="13.847412"
     inkscape:cy="7.4332426"
     inkscape:window-x="0"
     inkscape:window-y="0"
     inkscape:window-maximized="1"
     inkscape:current-layer="svg4153"
     inkscape:pagecheckerboard="0"
     showguides="false"
     inkscape:lockguides="false"
     inkscape:deskcolor="#d1d1d1">
    <inkscape:grid
       type="xygrid"
       id="grid4140"
       originx="0"
       originy="-22" />
    <sodipodi:guide
       position="22,44"
       orientation="22,0"
       id="guide4146"
       inkscape:locked="false" />
    <sodipodi:guide
       position="22,22"
       orientation="0,22"
       id="guide4148"
       inkscape:locked="false" />
    <sodipodi:guide
       position="44,22"
       orientation="-22,0"
       id="guide4150"
       inkscape:locked="false" />
    <sodipodi:guide
       position="44,44"
       orientation="0,-22"
       id="guide4152"
       inkscape:locked="false" />
    <sodipodi:guide
       position="25,41"
       orientation="16,0"
       id="guide4154"
       inkscape:locked="false" />
    <sodipodi:guide
       position="40,25"
       orientation="0,16"
       id="guide4156"
       inkscape:locked="false" />
    <sodipodi:guide
       position="41,25"
       orientation="-16,0"
       id="guide4158"
       inkscape:locked="false" />
    <sodipodi:guide
       position="41,41"
       orientation="0,-16"
       id="guide4160"
       inkscape:locked="false" />
  </sodipodi:namedview>
  <inkscape:clipboard
     style="opacity:0.01000001;fill:#00000f;fill-opacity:0;stroke-width:1;stroke-linecap:butt;stroke-linejoin:miter;stroke-miterlimit:4;stroke-dasharray:none;stroke-dashoffset:0;stroke-opacity:1;stroke:none"
     min="0,0"
     max="22,22" />
  <g
     id="software-updates-security"
     transform="translate(22,-22)">
    <rect
       style="fill:none;fill-opacity:0.599057;stroke:none"
       id="rect4208"
       width="22"
       height="22"
       x="0"
       y="-2.6645353e-15" />
    <path
       fill-rule="evenodd"
       clip-rule="evenodd"
       d="m 5.999996,15.666661 c 0,-0.257717 0.223872,-0.466667 0.499997,-0.466667 0.276129,0 0.5,0.20895 0.5,0.466667 0,0.257716 -0.223871,0.466666 -0.5,0.466666 -0.276125,0 -0.499997,-0.20895 -0.499997,-0.466666 z m 1.999996,0 c 0,-0.257717 0.223872,-0.466667 0.499998,-0.466667 0.276127,0 0.499999,0.20895 0.499999,0.466667 0,0.257716 -0.223872,0.466666 -0.499999,0.466666 -0.276126,0 -0.499998,-0.20895 -0.499998,-0.466666 z m 8.999983,2.333332 H 4.999996 C 3.895372,17.999993 3,17.164194 3,16.133327 v -1.866666 c 0,-1.030867 0.895372,-1.866667 1.999996,-1.866667 h 11.999979 0.03663 c 0.333751,0 0.528813,-0.249286 0.438466,-0.549149 l -1.09106,-3.7223947 c -0.0664,-0.220354 -0.343031,-0.395121 -0.619373,-0.395121 h -0.725593 c -0.549063,0 -1.04615,-0.206908 -1.407469,-0.540954 l -2.270744,-2.119483 c -0.19725,-0.184013 -0.516588,-0.184013 -0.713869,0 l -0.248535,0.232196 -4.99e-4,-4.67e-4 c -0.09936,0.09275 -0.236559,0.150063 -0.388186,0.150063 -0.303217,0 -0.54881,-0.229338 -0.54881,-0.512225 0,-0.1414 0.06148,-0.269441 0.160655,-0.362191 l -0.0018,-0.0018 0.06884,-0.06414 c 0.362218,-0.338188 0.836716,-0.513479 1.311498,-0.514325 0.477215,-8.75e-4 0.954779,0.174387 1.318839,0.514266 l 2.16456,2.033704 c 0.178468,0.1554 0.416999,0.252029 0.680656,0.252029 h 0.35156 c 0.690436,0 1.53003,0.3696 1.913809,1.515762 l 1.007094,3.5255197 c 5e-4,0.002 -5.01e-4,0.0027 0,0.0048 0.03129,0.10185 0.04785,0.209416 0.04785,0.3206 0,0.644407 -0.559563,1.166666 -1.249999,1.166666 H 17.000004 5.000025 c -0.552245,0 -0.999999,0.4179 -0.999999,0.933333 v 1.866666 c 0,0.515434 0.447754,0.933334 0.999999,0.933334 h 11.999979 c 0.552252,0 0.999997,-0.4179 0.999997,-0.933334 V 14.73335 c 0,-0.257717 0.223874,-0.466667 0.499999,-0.466667 0.276127,0 0.5,0.20895 0.5,0.466667 v 1.399999 c 0,1.030867 -0.8955,1.866666 -1.999996,1.866666 z M 8.749987,6.5666633 c -0.276119,0 -0.5,-0.20895 -0.5,-0.466667 0,-0.257717 0.223881,-0.466667 0.5,-0.466667 0.276124,0 0.499997,0.20895 0.499997,0.466667 0,0.257717 -0.223873,0.466667 -0.499997,0.466667 z m 0,1.633333 c 0.690441,0 1.250001,0.522258 1.250001,1.166666 v 0.6999997 c 0,0.257716 0.223873,0.466666 0.499999,0.466666 h 0.999998 c 0.276126,0 0.5,-0.208979 0.5,-0.466666 V 9.3666623 c 0,-0.644408 0.559557,-1.166666 1.249992,-1.166666 h 0.250004 c 0.276128,0 0.500001,0.20895 0.500001,0.466666 0,0.257717 -0.223873,0.466667 -0.500001,0.466667 -0.276126,0 -0.499998,0.20895 -0.499998,0.466667 v 0.6999987 c 0,0.644408 -0.55956,1.166667 -1.250002,1.166667 h -1.499998 c -0.690434,0 -1.249994,-0.522259 -1.249994,-1.166667 V 9.5999963 c 0,-0.257717 -0.223872,-0.466667 -0.499999,-0.466667 -0.717407,0 -1.315312,-0.470779 -1.463245,-1.098767 -0.006,-0.03532 -0.0047,-0.07111 -0.0092,-0.106633 -0.0019,4.67e-4 -0.0072,0.0023 -0.0073,0.0016 C 7.001205,7.8183463 6.897928,7.7333253 6.773431,7.7333253 H 6.258653 c -0.276252,0 -0.554443,0.174766 -0.622688,0.395121 L 4.736681,11.132612 c -0.0024,0.01482 0.0012,0.02917 -0.0027,0.04375 -0.06623,0.230591 -0.320436,0.367558 -0.567624,0.305783 -0.247186,-0.06198 -0.393904,-0.298958 -0.327625,-0.529783 2.53e-4,-0.0012 8.76e-4,-0.002 0.0012,-0.003 l -0.0038,-9.34e-4 0.75878,-2.6327567 c 0.388032,-1.146162 1.230813,-1.515733 1.921122,-1.515733 h 0.484374 c 0.552251,0 1,0.4179 1,0.933333 0,0.0091 0.0043,0.01278 0.0055,0.0205 0.0018,0.05355 0.01078,0.106633 0.0322,0.157237 5.07e-4,0.0016 9.39e-4,0.0032 0.0016,0.0048 0.02199,0.0499 0.05658,0.09546 0.09789,0.137404 0.09104,0.08998 0.219219,0.146737 0.362282,0.146737 z"
       id="path2-6"
       style="fill:currentColor;fill-opacity:1;stroke-width:0.0301905"
       class="ColorScheme-Text" />
    <path
       inkscape:connector-curvature="0"
       style="fill:#fdbc4b;fill-opacity:1;fill-rule:evenodd;stroke:none;stroke-width:0.603808px;stroke-linecap:butt;stroke-linejoin:miter;stroke-opacity:1"
       d="m 15.99998,13.333392 c 0,0.583333 -1.250002,0.583333 -1.250002,0.583333 v 1.75 c 0,0.583334 0.625006,0.583334 1.250002,1.166667 0.624997,-0.583333 1.249993,-0.583333 1.249993,-1.166667 v -1.75 c 0,0 -1.249993,0 -1.249993,-0.583333 z"
       id="path4191-5" />
  </g>
  <g
     id="software-updates-inactive"
     transform="translate(-22,-22)">
    <rect
       y="-2.6645353e-15"
       x="0"
       height="22"
       width="22"
       id="rect4214"
       style="fill:none;fill-opacity:0.599057;stroke:none" />
    <path
       fill-rule="evenodd"
       clip-rule="evenodd"
       d="m 6.000016,15.666661 c 0,-0.257717 0.223872,-0.466667 0.499997,-0.466667 0.276125,0 0.499996,0.20895 0.499996,0.466667 0,0.257716 -0.223871,0.466666 -0.499996,0.466666 -0.276125,0 -0.499997,-0.20895 -0.499997,-0.466666 z m 1.999984,0 c 0,-0.257717 0.223872,-0.466667 0.499993,-0.466667 0.276124,0 0.499996,0.20895 0.499996,0.466667 0,0.257716 -0.223872,0.466666 -0.499996,0.466666 C 8.223872,16.133327 8,15.924377 8,15.666661 Z m 8.999911,2.333332 H 5.000025 c -1.104614,0 -1.999978,-0.835799 -1.999978,-1.866666 v -1.866666 c 0,-1.030867 0.895364,-1.866667 1.999978,-1.866667 h 11.999886 0.03663 c 0.33375,0 0.52881,-0.249286 0.438466,-0.549149 L 16.383956,8.1284503 c -0.0664,-0.220354 -0.343029,-0.395121 -0.619369,-0.395121 h -0.725586 c -0.549057,0 -1.046148,-0.206908 -1.407458,-0.540954 l -2.270727,-2.119483 c -0.197246,-0.184013 -0.516588,-0.184013 -0.713868,0 l -0.248527,0.232196 -5e-4,-4.67e-4 c -0.09936,0.09275 -0.236563,0.150063 -0.388184,0.150063 -0.303218,0 -0.548808,-0.229338 -0.548808,-0.512225 0,-0.1414 0.0615,-0.269441 0.160655,-0.362191 l -0.0018,-0.0018 0.06884,-0.06414 c 0.362217,-0.338188 0.836712,-0.513479 1.311489,-0.514325 0.477212,-8.75e-4 0.954768,0.174387 1.318828,0.514266 l 2.164543,2.033704 c 0.178467,0.1554 0.416995,0.252029 0.680652,0.252029 h 0.351559 c 0.690428,0 1.530013,0.3696 1.913789,1.515762 l 1.007089,3.5255197 c 4.99e-4,0.002 -4.99e-4,0.0027 0,0.0048 0.03125,0.10185 0.04785,0.209416 0.04785,0.3206 0,0.644407 -0.55956,1.166666 -1.249991,1.166666 H 17.000063 5.000177 c -0.552244,0 -0.99999,0.4179 -0.99999,0.933333 v 1.866666 c 0,0.515434 0.447746,0.933334 0.99999,0.933334 h 11.999886 c 0.552243,0 0.999988,-0.4179 0.999988,-0.933334 V 14.73335 c 0,-0.257717 0.223873,-0.466667 0.499991,-0.466667 0.276126,0 0.499999,0.20895 0.499999,0.466667 v 1.399999 c 0,1.030867 -0.895491,1.866666 -1.999978,1.866666 z M 8.749993,6.5666633 c -0.276124,0 -0.499997,-0.20895 -0.499997,-0.466667 0,-0.257717 0.223873,-0.466667 0.499997,-0.466667 0.276118,0 0.499991,0.20895 0.499991,0.466667 0,0.257717 -0.223873,0.466667 -0.499991,0.466667 z m 0,1.633333 c 0.690428,0 1.249986,0.522258 1.249986,1.166666 v 0.6999997 c 0,0.257716 0.223873,0.466666 0.499996,0.466666 h 0.99999 c 0.27612,0 0.499993,-0.208979 0.499993,-0.466666 V 9.3666623 c 0,-0.644408 0.559558,-1.166666 1.24999,-1.166666 h 0.249996 c 0.276124,0 0.499997,0.20895 0.499997,0.466666 0,0.257717 -0.223873,0.466667 -0.499997,0.466667 -0.276124,0 -0.499996,0.20895 -0.499996,0.466667 v 0.6999987 c 0,0.644408 -0.559553,1.166667 -1.249985,1.166667 h -1.499988 c -0.690428,0 -1.249986,-0.522259 -1.249986,-1.166667 V 9.5999963 c 0,-0.257717 -0.223872,-0.466667 -0.499996,-0.466667 -0.717399,0 -1.315298,-0.470779 -1.463236,-1.098767 -0.006,-0.03532 -0.0047,-0.07111 -0.0092,-0.106633 -0.0019,4.67e-4 -0.0072,0.0023 -0.0073,0.0016 C 7.001217,7.8183463 6.897946,7.7333253 6.773449,7.7333253 H 6.258673 c -0.276248,0 -0.554435,0.174766 -0.622681,0.395121 L 4.736719,11.132612 c -0.0024,0.01482 0.0012,0.02917 -0.0027,0.04375 -0.06623,0.230591 -0.320432,0.367558 -0.567617,0.305783 -0.247187,-0.06198 -0.393904,-0.298958 -0.327623,-0.529783 2.51e-4,-0.0012 8.76e-4,-0.002 0.0012,-0.003 l -0.0038,-9.34e-4 0.758771,-2.6327567 c 0.388029,-1.146162 1.230804,-1.515733 1.921109,-1.515733 h 0.484369 c 0.552246,0 0.999992,0.4179 0.999992,0.933333 0,0.0091 0.0043,0.01278 0.0055,0.0205 0.0018,0.05355 0.01078,0.106633 0.0322,0.157237 4.99e-4,0.0016 9.37e-4,0.0032 0.0016,0.0048 0.02199,0.0499 0.05658,0.09546 0.09789,0.137404 0.09104,0.08998 0.219217,0.146737 0.362278,0.146737 z"
       id="path2-3-7"
       style="fill:currentColor;fill-opacity:1;stroke-width:0.0301904"
       class="ColorScheme-Text" />
  </g>
</svg>
