<?xml version="1.0" encoding="UTF-8" standalone="no"?>
<svg
   width="32"
   version="1.1"
   height="32"
   viewBox="0 0 32 32"
   id="svg36"
   sodipodi:docname="desktop.svg"
   inkscape:version="1.1 (c68e22c387, 2021-05-23)"
   xmlns:inkscape="http://www.inkscape.org/namespaces/inkscape"
   xmlns:sodipodi="http://sodipodi.sourceforge.net/DTD/sodipodi-0.dtd"
   xmlns:xlink="http://www.w3.org/1999/xlink"
   xmlns="http://www.w3.org/2000/svg"
   xmlns:svg="http://www.w3.org/2000/svg"
   xmlns:rdf="http://www.w3.org/1999/02/22-rdf-syntax-ns#"
   xmlns:cc="http://creativecommons.org/ns#"
   xmlns:dc="http://purl.org/dc/elements/1.1/"
   xmlns:serif="http://www.serif.com/">
  <sodipodi:namedview
     pagecolor="#ffffff"
     bordercolor="#666666"
     borderopacity="1"
     objecttolerance="10"
     gridtolerance="10"
     guidetolerance="10"
     inkscape:pageopacity="0"
     inkscape:pageshadow="2"
     inkscape:window-width="1920"
     inkscape:window-height="1007"
     id="namedview38"
     showgrid="false"
     inkscape:zoom="6.9384853"
     inkscape:cx="20.249376"
     inkscape:cy="20.465562"
     inkscape:window-x="0"
     inkscape:window-y="0"
     inkscape:window-maximized="1"
     inkscape:current-layer="layer1"
     inkscape:document-rotation="0"
     inkscape:pagecheckerboard="0"
     inkscape:lockguides="true" />
  <defs
     id="defs5455">
    <linearGradient
       inkscape:collect="always"
       xlink:href="#linearGradient842"
       id="linearGradient854"
       gradientUnits="userSpaceOnUse"
       gradientTransform="matrix(0.36361408,0,0,0.37142577,382.38973,513.22673)"
       x1="6"
       y1="50.000134"
       x2="94.005508"
       y2="50.000134" />
    <linearGradient
       inkscape:collect="always"
       id="linearGradient842">
      <stop
         style="stop-color:#00aa88;stop-opacity:1"
         offset="0"
         id="stop838" />
      <stop
         style="stop-color:#008fb2;stop-opacity:1"
         offset="1"
         id="stop840" />
    </linearGradient>
    <linearGradient
       inkscape:collect="always"
       xlink:href="#linearGradient842"
       id="linearGradient1212"
       gradientUnits="userSpaceOnUse"
       gradientTransform="matrix(0,-0.05468741,0.0621015,0,383.74778,548.33463)"
       x1="0"
       y1="213.3335"
       x2="512.00098"
       y2="213.3335" />
    <linearGradient
       inkscape:collect="always"
       id="linearGradient858"
       gradientTransform="matrix(1.4083073,0,0,0.17751817,192.28566,273.89888)"
       x1="139.1843"
       y1="1498.1513"
       x2="144.01279"
       y2="1498.1513"
       gradientUnits="userSpaceOnUse">
      <stop
         style="stop-color:#00aa88;stop-opacity:1"
         offset="0"
         id="stop854" />
      <stop
         style="stop-color:#008fb2;stop-opacity:1"
         offset="1"
         id="stop856" />
    </linearGradient>
    <linearGradient
       inkscape:collect="always"
       xlink:href="#linearGradient842"
       id="linearGradient844"
       gradientUnits="userSpaceOnUse"
       x1="0"
       y1="213.3335"
       x2="512.00098"
       y2="213.3335"
       gradientTransform="matrix(0,-0.05468741,0.0621015,0,380.71841,545.33463)" />
    <linearGradient
       inkscape:collect="always"
       xlink:href="#linearGradient842"
       id="linearGradient867-3"
       x1="320"
       y1="187.5"
       x2="439"
       y2="187.5"
       gradientUnits="userSpaceOnUse"
       gradientTransform="matrix(0.11428571,0,0,0.11428571,355.457,511.32657)" />
    <linearGradient
       inkscape:collect="always"
       xlink:href="#linearGradient842"
       id="linearGradient866"
       x1="320"
       y1="227.5"
       x2="439"
       y2="227.5"
       gradientUnits="userSpaceOnUse"
       gradientTransform="matrix(0.05714287,0,0,0.05714287,388.15597,527.25226)" />
    <linearGradient
       inkscape:collect="always"
       xlink:href="#linearGradient842"
       id="linearGradient1267"
       x1="12.000006"
       y1="22.000011"
       x2="32.000015"
       y2="22.000011"
       gradientUnits="userSpaceOnUse" />
    <linearGradient
       inkscape:collect="always"
       xlink:href="#linearGradient842"
       id="linearGradient909"
       gradientUnits="userSpaceOnUse"
       x1="12.000006"
       y1="22.000011"
       x2="32.000015"
       y2="22.000011" />
    <linearGradient
       inkscape:collect="always"
       xlink:href="#linearGradient842"
       id="linearGradient911"
       gradientUnits="userSpaceOnUse"
       x1="12.000006"
       y1="22.000011"
       x2="32.000015"
       y2="22.000011" />
  </defs>
  <metadata
     id="metadata5458">
    <rdf:RDF>
      <cc:Work
         rdf:about="">
        <dc:format>image/svg+xml</dc:format>
        <dc:type
           rdf:resource="http://purl.org/dc/dcmitype/StillImage" />
      </cc:Work>
    </rdf:RDF>
  </metadata>
  <g
     inkscape:label="Capa 1"
     inkscape:groupmode="layer"
     id="layer1"
     transform="translate(-384.57143,-515.798)">
    <path
       style="color:#000000;font-style:normal;font-variant:normal;font-weight:normal;font-stretch:normal;font-size:medium;line-height:normal;font-family:Sans;-inkscape-font-specification:Sans;text-indent:0;text-align:start;text-decoration:none;text-decoration-line:none;letter-spacing:normal;word-spacing:normal;text-transform:none;writing-mode:lr-tb;direction:ltr;baseline-shift:baseline;text-anchor:start;display:inline;overflow:visible;visibility:visible;fill:url(#linearGradient854);fill-opacity:1;fill-rule:nonzero;stroke:none;stroke-width:1.47001;marker:none;enable-background:accumulate"
       d="m 387.32126,518.79811 c -1.48283,0 -2.74983,1.06225 -2.74983,2.47231 v 20.80597 c 0,0.87838 0.31097,1.44276 0.91468,1.95485 0.60372,0.51208 1.23028,0.76666 2.02976,0.76666 h 25.41731 c 0.61022,0.0108 0.59287,-0.82639 1.5e-4,-0.83527 l -25.45262,-0.0148 c -0.78662,0 -1.44024,-0.5545 -1.44024,-0.5545 0,0 -0.60231,-0.45184 -0.60231,-1.31696 v -20.80598 c 0,-0.9717 0.66142,-1.59513 1.81676,-1.58245 l 8.94689,-0.004 4.26638,3.80002 c 0.12891,0.11621 0.29397,0.28191 0.46586,0.28562 l 12.4056,-0.005 c 0.63254,-0.003 0.61256,-0.87077 -0.02,-0.88091 h -12.12426 l -4.52245,-3.91156 c -0.13052,-0.11201 -0.29541,-0.17364 -0.46588,-0.17411 z m 14.43093,1.07946 c -0.57725,-0.002 -0.5784,0.99204 0.0144,1.00051 l 11.06444,-0.0152 c 1.12114,-0.002 1.60685,0.36146 1.98015,0.7094 0.3733,0.34794 0.94057,1.19977 0.94057,2.07752 v 20.40521 c 0.003,0.69051 0.81726,0.71325 0.81969,0.0238 l -0.002,-20.42909 c -1.2e-4,-1.19243 -0.39032,-2.19079 -1.09085,-2.84372 -0.70051,-0.65293 -1.65424,-0.92856 -2.64755,-0.92856 h -11.0107 c -0.0227,-10e-4 -0.0455,-10e-4 -0.0682,0 z"
       id="path2-3-3"
       sodipodi:nodetypes="sssssccscsssccccccccsccsssccssscc" />
    <path
       style="fill:url(#linearGradient1212);fill-opacity:1;stroke-width:0.0582765"
       id="path6"
       d="m 392.07143,525.79795 c 0.10334,-0.091 0.15525,-0.21049 0.15525,-0.32993 0,-0.11949 -0.0519,-0.23893 -0.15525,-0.32993 -0.20723,-0.18243 -0.54215,-0.18243 -0.74932,0 l -1.05988,0.9333 c -0.20723,0.18244 -0.20723,0.47742 0,0.65986 0.20723,0.18249 0.54214,0.18249 0.74931,0 z" />
    <path
       style="fill:url(#linearGradient844);fill-opacity:1;stroke-width:0.0582765"
       id="path8"
       d="m 392.22166,522.79795 c 0.10333,-0.091 0.15525,-0.21049 0.15525,-0.32993 0,-0.11949 -0.0519,-0.23893 -0.15525,-0.32993 -0.20724,-0.18243 -0.54215,-0.18243 -0.74932,0 l -4.23948,3.73329 c -0.20724,0.1825 -0.20724,0.47742 0,0.65986 0.20723,0.18249 0.54214,0.18249 0.74931,0 z" />
    <path
       d="m 394.67136,539.84796 h -5.94286 c -0.23668,0 -0.42857,0.19183 -0.42857,0.42857 0,0.23674 0.19189,0.42857 0.42857,0.42857 h 5.94286 c 0.23669,0 0.42857,-0.19183 0.42857,-0.42857 0,-0.23674 -0.19188,-0.42857 -0.42857,-0.42857 z"
       id="path4-3"
       style="fill:url(#linearGradient858);fill-opacity:1;stroke-width:0.057143" />
    <path
       d="m 412.81313,539.8237 h -5.94286 c -0.23669,0 -0.42857,0.19183 -0.42857,0.42857 0,0.23674 0.19188,0.42857 0.42857,0.42857 h 5.94286 c 0.23668,0 0.42857,-0.19183 0.42857,-0.42857 0,-0.23674 -0.19189,-0.42857 -0.42857,-0.42857 z"
       id="path6-6"
       style="fill:url(#linearGradient866);fill-opacity:1;stroke-width:0.057143" />
    <g
       serif:id="new"
       id="g8"
       transform="matrix(0.12499998,0,0,0.12499998,398.07143,536.79796)"
       style="fill:url(#linearGradient1267);fill-opacity:1">
      <g
         transform="matrix(0.666667,0,0,0.666667,6.66667,6.66667)"
         id="g6"
         style="fill:url(#linearGradient911);fill-opacity:1">
        <circle
           cx="23"
           cy="23"
           r="15"
           id="circle4"
           style="fill:url(#linearGradient909);fill-opacity:1" />
      </g>
    </g>
  </g>
</svg>
