<?xml version="1.0" encoding="UTF-8" standalone="no"?>
<svg
   width="32"
   version="1.1"
   height="32"
   viewBox="0 0 32 32"
   id="svg2"
   inkscape:version="1.1 (c68e22c387, 2021-05-23)"
   sodipodi:docname="favorites.svg"
   xmlns:inkscape="http://www.inkscape.org/namespaces/inkscape"
   xmlns:sodipodi="http://sodipodi.sourceforge.net/DTD/sodipodi-0.dtd"
   xmlns:xlink="http://www.w3.org/1999/xlink"
   xmlns="http://www.w3.org/2000/svg"
   xmlns:svg="http://www.w3.org/2000/svg"
   xmlns:rdf="http://www.w3.org/1999/02/22-rdf-syntax-ns#"
   xmlns:cc="http://creativecommons.org/ns#"
   xmlns:dc="http://purl.org/dc/elements/1.1/">
  <sodipodi:namedview
     pagecolor="#ffffff"
     bordercolor="#666666"
     borderopacity="1"
     objecttolerance="10"
     gridtolerance="10"
     guidetolerance="10"
     inkscape:pageopacity="0"
     inkscape:pageshadow="2"
     inkscape:window-width="1920"
     inkscape:window-height="1007"
     id="namedview19"
     showgrid="false"
     inkscape:zoom="10.429825"
     inkscape:cx="21.716568"
     inkscape:cy="18.600504"
     inkscape:window-x="0"
     inkscape:window-y="0"
     inkscape:window-maximized="1"
     inkscape:current-layer="layer1"
     inkscape:document-rotation="0"
     inkscape:pagecheckerboard="0"
     inkscape:lockguides="true">
    <inkscape:grid
       type="xygrid"
       id="grid838" />
  </sodipodi:namedview>
  <defs
     id="defs5455">
    <linearGradient
       inkscape:collect="always"
       xlink:href="#linearGradient847-6"
       id="linearGradient838-3"
       x1="6"
       y1="50.000134"
       x2="94.005508"
       y2="50.000134"
       gradientUnits="userSpaceOnUse"
       gradientTransform="matrix(0.97513452,0,0,1.0004055,0.08009305,951.68271)" />
    <linearGradient
       inkscape:collect="always"
       id="linearGradient847-6">
      <stop
         style="stop-color:#b380ff;stop-opacity:1"
         offset="0"
         id="stop842-7" />
      <stop
         style="stop-color:#008080;stop-opacity:1"
         offset="0.50421834"
         id="stop2381" />
      <stop
         style="stop-color:#55ddff;stop-opacity:1"
         offset="1"
         id="stop844-5" />
    </linearGradient>
    <linearGradient
       inkscape:collect="always"
       xlink:href="#linearGradient847-6"
       id="linearGradient2577"
       x1="403.27142"
       y1="520.79797"
       x2="430.27142"
       y2="520.79797"
       gradientUnits="userSpaceOnUse"
       gradientTransform="matrix(0.49999964,0,0,0.49999964,192.28585,274.89917)" />
  </defs>
  <metadata
     id="metadata5458">
    <rdf:RDF>
      <cc:Work
         rdf:about="">
        <dc:format>image/svg+xml</dc:format>
        <dc:type
           rdf:resource="http://purl.org/dc/dcmitype/StillImage" />
      </cc:Work>
    </rdf:RDF>
  </metadata>
  <g
     inkscape:label="Capa 1"
     inkscape:groupmode="layer"
     id="layer1"
     transform="translate(-384.57143,-515.798)">
    <g
       transform="matrix(0.37288532,0,0,0.37127726,382.35988,160.88842)"
       id="g4-3-3">
      <path
         style="color:#000000;font-style:normal;font-variant:normal;font-weight:normal;font-stretch:normal;font-size:medium;line-height:normal;font-family:Sans;-inkscape-font-specification:Sans;text-indent:0;text-align:start;text-decoration:none;text-decoration-line:none;letter-spacing:normal;word-spacing:normal;text-transform:none;writing-mode:lr-tb;direction:ltr;baseline-shift:baseline;text-anchor:start;display:inline;overflow:visible;visibility:visible;opacity:1;fill:url(#linearGradient838-3);fill-opacity:1;fill-rule:nonzero;stroke:none;stroke-width:3.95076;marker:none;enable-background:accumulate"
         d="m 13.305356,966.68883 c -3.9766276,0 -7.3744557,2.86108 -7.3744557,6.65895 v 56.03912 c 0,2.3659 0.8339265,3.886 2.4529744,5.2653 1.6190473,1.3792 3.2993333,2.0649 5.4433883,2.0649 h 68.163745 c 1.636471,0.028 1.589936,-2.2259 3.87e-4,-2.2497 l -68.258428,-0.04 c -2.10957,0 -3.8624221,-1.4934 -3.8624221,-1.4934 0,0 -1.6152538,-1.2171 -1.6152538,-3.5471 v -56.03912 c 0,-2.61722 1.7737699,-4.29637 4.8721409,-4.2622 l 23.993641,-0.0121 11.441491,10.23504 c 0.345737,0.31301 0.788387,0.7593 1.249389,0.76929 l 33.269108,-0.0119 c 1.696335,-0.007 1.642749,-2.34539 -0.05357,-2.37262 H 50.512832 L 38.384597,967.15777 c -0.350026,-0.3017 -0.792228,-0.46767 -1.249392,-0.46894 z m 38.700651,2.90742 c -1.548048,-0.004 -1.55113,2.672 0.03871,2.69481 l 29.672415,-0.0408 c 3.006671,-0.004 4.309228,0.97356 5.31034,1.9107 1.001112,0.93716 2.522398,3.23144 2.522398,5.59566 l 2e-6,54.95968 c 0.0085,1.8599 2.191735,1.921 2.198235,0.064 l -0.0053,-55.02398 c -3.11e-4,-3.21173 -1.046758,-5.90072 -2.925402,-7.65935 -1.878644,-1.75862 -4.436327,-2.50101 -7.100199,-2.50101 H 52.188888 c -0.06091,-0.003 -0.121925,-0.003 -0.182837,0 z"
         id="path2-6-5"
         sodipodi:nodetypes="sssssccscsssccccccccsccsssccssscc" />
    </g>
    <path
       d="m 397.0454,534.84522 c -0.14687,0.14664 -0.37189,0.15518 -0.53591,0.0406 l -0.0106,0.0106 -0.29881,-0.2991 c -0.82486,-0.8254 -0.82486,-2.16385 0,-2.98936 0.16486,-0.16486 0.43238,-0.16486 0.59726,0 0.16534,0.16511 0.16534,0.43285 0,0.59769 -0.49461,0.49554 -0.49461,1.29853 0,1.79361 l 0.29886,0.29906 -0.0106,0.0106 c 0.11474,0.16546 0.10624,0.38908 -0.0401,0.53621 z m 1.09232,-2.95943 c -0.16534,-0.1649 -0.16534,-0.43261 0,-0.5976 0.165,-0.16545 0.43243,-0.16545 0.59726,0 0.16499,0.16499 0.16499,0.4327 0,0.5976 -0.16483,0.1651 -0.43226,0.1651 -0.59726,0 z m 8.21894,3.90781 -2.70981,2.71133 c -0.16478,0.16501 -0.4323,0.16501 -0.59716,0 -0.16545,-0.16505 -0.16545,-0.43259 0,-0.59778 l 2.41094,-2.41261 0.2985,-0.29922 c 1.04929,-1.05007 1.15489,-3.02917 0,-4.18509 -1.15472,-1.15548 -3.02699,-1.15548 -4.18173,0 l -0.29566,0.29581 v 0 c -0.15328,0.15472 -0.36573,0.25122 -0.60086,0.25122 -0.23477,0 -0.44713,-0.0965 -0.60039,-0.25122 v 0 l -0.29559,-0.29581 c -1.15463,-1.15548 -3.02715,-1.15548 -4.18177,0 -1.15512,1.15592 -1.07581,3.10909 0,4.18509 l 0.89613,0.897 4.4805,4.48424 c 0.16489,0.16484 0.16489,0.43257 0,0.59777 -0.16492,0.16486 -0.43226,0.16486 -0.59725,0 l -2.3899,-2.3913 -2.98713,-2.98943 c -1.4055,-1.40655 -1.48479,-3.89516 0,-5.38108 1.48473,-1.48605 3.89219,-1.48605 5.37699,0 l 0.29877,0.29908 0.2985,-0.29908 c 1.48474,-1.48605 3.89217,-1.48605 5.37689,0 1.48508,1.48592 1.35277,4.02688 3e-5,5.38108 z m -3.7595,3.16433 c 0.16478,0.16486 0.16478,0.43258 0,0.59797 -0.16472,0.1652 -0.43238,0.1652 -0.59782,0 -0.16478,-0.16539 -0.16478,-0.43311 0,-0.59797 0.16542,-0.1652 0.43306,-0.1652 0.59782,0 z"
       id="path2-62"
       style="fill:url(#linearGradient2577);fill-opacity:1;stroke-width:0.026413" />
  </g>
</svg>
