<?xml version="1.0" encoding="UTF-8" standalone="no"?>
<svg
   width="32"
   version="1.1"
   height="32"
   viewBox="0 0 32 32"
   id="svg17"
   sodipodi:docname="folder-print.svg"
   inkscape:version="1.1 (c68e22c387, 2021-05-23)"
   xmlns:inkscape="http://www.inkscape.org/namespaces/inkscape"
   xmlns:sodipodi="http://sodipodi.sourceforge.net/DTD/sodipodi-0.dtd"
   xmlns:xlink="http://www.w3.org/1999/xlink"
   xmlns="http://www.w3.org/2000/svg"
   xmlns:svg="http://www.w3.org/2000/svg"
   xmlns:rdf="http://www.w3.org/1999/02/22-rdf-syntax-ns#"
   xmlns:cc="http://creativecommons.org/ns#"
   xmlns:dc="http://purl.org/dc/elements/1.1/">
  <sodipodi:namedview
     pagecolor="#ffffff"
     bordercolor="#666666"
     borderopacity="1"
     objecttolerance="10"
     gridtolerance="10"
     guidetolerance="10"
     inkscape:pageopacity="0"
     inkscape:pageshadow="2"
     inkscape:window-width="1920"
     inkscape:window-height="1007"
     id="namedview19"
     showgrid="false"
     inkscape:zoom="9.8125"
     inkscape:cx="-10.343949"
     inkscape:cy="9.1719745"
     inkscape:window-x="0"
     inkscape:window-y="0"
     inkscape:window-maximized="1"
     inkscape:current-layer="layer1"
     inkscape:pagecheckerboard="0" />
  <defs
     id="defs5455">
    <linearGradient
       inkscape:collect="always"
       xlink:href="#linearGradient853-6"
       id="linearGradient854-3"
       gradientUnits="userSpaceOnUse"
       gradientTransform="matrix(0.36361408,0,0,0.37142577,382.38974,513.22772)"
       x1="6"
       y1="50.000134"
       x2="94.005508"
       y2="50.000134" />
    <linearGradient
       inkscape:collect="always"
       id="linearGradient853-6">
      <stop
         style="stop-color:#ffccaa;stop-opacity:1"
         offset="0"
         id="stop849-7" />
      <stop
         style="stop-color:#00e5e5;stop-opacity:1"
         offset="1"
         id="stop851-5" />
    </linearGradient>
    <linearGradient
       inkscape:collect="always"
       xlink:href="#linearGradient853-6"
       id="linearGradient1454"
       x1="403.87143"
       y1="520.79803"
       x2="427.87137"
       y2="520.79803"
       gradientUnits="userSpaceOnUse"
       gradientTransform="matrix(0.50000014,0,0,0.50000014,192.28566,273.89988)" />
  </defs>
  <metadata
     id="metadata5458">
    <rdf:RDF>
      <cc:Work
         rdf:about="">
        <dc:format>image/svg+xml</dc:format>
        <dc:type
           rdf:resource="http://purl.org/dc/dcmitype/StillImage" />
      </cc:Work>
    </rdf:RDF>
  </metadata>
  <g
     inkscape:label="Capa 1"
     inkscape:groupmode="layer"
     id="layer1"
     transform="translate(-384.57143,-515.798)">
    <path
       style="color:#000000;font-style:normal;font-variant:normal;font-weight:normal;font-stretch:normal;font-size:medium;line-height:normal;font-family:Sans;-inkscape-font-specification:Sans;text-indent:0;text-align:start;text-decoration:none;text-decoration-line:none;letter-spacing:normal;word-spacing:normal;text-transform:none;writing-mode:lr-tb;direction:ltr;baseline-shift:baseline;text-anchor:start;display:inline;overflow:visible;visibility:visible;fill:url(#linearGradient854-3);fill-opacity:1;fill-rule:nonzero;stroke:none;stroke-width:1.47001;marker:none;enable-background:accumulate"
       d="m 387.32126,518.79911 c -1.48283,0 -2.74983,1.06225 -2.74983,2.47231 v 20.80597 c 0,0.87838 0.31097,1.44276 0.91468,1.95485 0.60372,0.51208 1.23028,0.76666 2.02976,0.76666 h 25.41731 c 0.61022,0.0108 0.59287,-0.82639 1.5e-4,-0.83527 l -25.45262,-0.0148 c -0.78662,0 -1.44024,-0.5545 -1.44024,-0.5545 0,0 -0.60231,-0.45184 -0.60231,-1.31696 v -20.80598 c 0,-0.9717 0.66142,-1.59513 1.81676,-1.58245 l 8.94689,-0.005 4.26638,3.80002 c 0.12891,0.11622 0.29397,0.28191 0.46586,0.28562 l 12.4056,-0.005 c 0.63254,-0.004 0.61256,-0.87077 -0.02,-0.88091 h -12.12426 l -4.52245,-3.91156 c -0.13052,-0.11201 -0.29541,-0.17364 -0.46588,-0.17411 z m 14.43093,1.07946 c -0.57724,-10e-4 -0.5784,0.99204 0.0144,1.00051 l 11.06444,-0.0152 c 1.12114,-0.002 1.60685,0.36147 1.98015,0.7094 0.3733,0.34794 0.94057,1.19977 0.94057,2.07752 v 20.40521 c 0.003,0.69051 0.81726,0.71325 0.81969,0.0237 l -0.002,-20.42909 c -1.2e-4,-1.19243 -0.39032,-2.19079 -1.09085,-2.84371 -0.70051,-0.65294 -1.65424,-0.92857 -2.64756,-0.92857 h -11.01069 c -0.0228,-10e-4 -0.0455,-10e-4 -0.0682,0 z"
       id="path2-3-3-3"
       sodipodi:nodetypes="sssssccscsssccccccccsccsssccssscc" />
    <path
       d="m 400.59677,536.54894 h 1.49965 c 0.20729,0 0.375,0.1681 0.375,0.37538 0,0.20653 -0.16771,0.375 -0.375,0.375 h -1.49965 c -0.20728,0 -0.37509,-0.16847 -0.37509,-0.375 -3e-5,-0.20728 0.16781,-0.37538 0.37509,-0.37538 z m -1.87549,0.37538 c 0,-0.20728 0.1679,-0.37538 0.37519,-0.37538 0.20709,0 0.375,0.1681 0.375,0.37538 0,0.20653 -0.16793,0.375 -0.375,0.375 -0.20729,0 -0.37519,-0.16847 -0.37519,-0.375 z m 3.00012,1.49962 c 0,0.20729 -0.16772,0.375 -0.375,0.375 h -3.00012 c -0.20672,0 -0.37463,-0.16771 -0.37463,-0.375 0,-0.20728 0.16791,-0.375 0.37463,-0.375 h 3.00012 c 0.20728,0 0.375,0.16772 0.375,0.375 z m 3.33206,-0.375 h -0.89416 c -0.51818,0 -0.9375,-0.41967 -0.9375,-0.9375 v -0.75 c 0,-0.31057 -0.25233,-0.56252 -0.56288,-0.56252 h -4.87495 c -0.31074,0 -0.5625,0.25195 -0.5625,0.56252 v 2.625 c 0,0.31093 0.25176,0.5629 0.5625,0.5629 h 4.87495 c 0.24464,0 0.56288,-0.21911 0.56288,-0.3754 v 0 c 0,-0.2069 0.16772,-0.375 0.37462,-0.375 0.20729,0 0.375,0.1681 0.375,0.375 0,0.026 -0.006,0.0502 -0.008,0.0758 -0.0396,0.58524 -0.52185,1.04923 -1.11693,1.04923 h -5.25017 c -0.62128,0 -1.12519,-0.50353 -1.12519,-1.12503 v -1.125 -0.74962 -1.12538 c 0,-0.62112 0.50391,-1.12502 1.12519,-1.12502 h 5.25015 c 0.62109,0 1.12462,0.5039 1.12462,1.12502 v 0.75038 c 0,0.20653 0.16772,0.375 0.375,0.375 h 0.18788 c 0.51745,0 0.93752,-0.42005 0.93752,-0.93788 v -2.43743 c 0,-0.20709 0.16772,-0.375 0.375,-0.375 0.20653,0 0.37462,0.16791 0.37462,0.375 v 2.85537 c 3e-5,0.48007 -0.67183,1.26956 -1.16796,1.26956 z m 0.0429,-5.25014 c -0.2069,0 -0.375,-0.16772 -0.375,-0.375 0,-0.20672 0.1681,-0.37463 0.375,-0.37463 0.20728,0 0.3754,0.16791 0.3754,0.37463 0,0.20728 -0.16812,0.375 -0.3754,0.375 z m -2.24962,0 h -0.37538 -4.87479 -1.68769 c -0.51783,0 -0.93731,0.42005 -0.93731,0.93752 v 2.0626 0.0688 1.05655 c 0,0.20653 0.16772,0.375 0.375,0.375 0.20672,0 0.37462,0.16772 0.37462,0.37462 0,0.20729 -0.1679,0.375 -0.37462,0.375 -0.0258,0 -0.0502,-0.006 -0.0756,-0.008 -0.58575,-0.0396 -1.04956,-0.52185 -1.04956,-1.11693 0,-0.0568 0.008,-0.11023 0.0163,-0.16444 -0.01,-0.0692 -0.0163,-0.13917 -0.0163,-0.21094 v -2.99993 c 0,-0.82859 0.67181,-1.49984 1.49981,-1.49984 h 0.56288 0.18731 1.3125 0.375 4.49996 c 0.31055,0 0.56288,-0.25214 0.56288,-0.56287 v -1.87484 c 0,-0.31054 -0.25233,-0.56231 -0.56288,-0.56231 h -4.87493 c -0.31074,0 -0.5625,0.25177 -0.5625,0.56231 v 1.31253 c 0,0.20728 -0.16772,0.375 -0.375,0.375 -0.20729,0 -0.375,-0.16772 -0.375,-0.375 v -1.49949 c -3e-5,-0.62166 0.50388,-1.12519 1.12516,-1.12519 h 5.25015 c 0.62109,0 1.12462,0.50353 1.12462,1.12519 v 2.25002 c 2e-5,0.6211 -0.50351,1.12463 -1.1246,1.12463 z m -6.75052,0.75021 c 0.20728,0 0.37519,0.16791 0.37519,0.375 0,0.20728 -0.16791,0.37519 -0.37519,0.37519 -0.20674,0 -0.375,-0.16791 -0.375,-0.37519 -3e-5,-0.20709 0.16826,-0.375 0.375,-0.375 z"
       id="path2"
       style="fill:url(#linearGradient1454);fill-opacity:1;stroke-width:0.0234375" />
  </g>
</svg>
