<?xml version="1.0" encoding="UTF-8" standalone="no"?>
<svg
   width="32"
   version="1.1"
   height="32"
   viewBox="0 0 32 32"
   id="svg15"
   sodipodi:docname="folder-java.svg"
   inkscape:version="1.2 (dc2aedaf03, 2022-05-15)"
   xmlns:inkscape="http://www.inkscape.org/namespaces/inkscape"
   xmlns:sodipodi="http://sodipodi.sourceforge.net/DTD/sodipodi-0.dtd"
   xmlns:xlink="http://www.w3.org/1999/xlink"
   xmlns="http://www.w3.org/2000/svg"
   xmlns:svg="http://www.w3.org/2000/svg"
   xmlns:rdf="http://www.w3.org/1999/02/22-rdf-syntax-ns#"
   xmlns:cc="http://creativecommons.org/ns#"
   xmlns:dc="http://purl.org/dc/elements/1.1/">
  <sodipodi:namedview
     pagecolor="#ffffff"
     bordercolor="#666666"
     borderopacity="1"
     objecttolerance="10"
     gridtolerance="10"
     guidetolerance="10"
     inkscape:pageopacity="0"
     inkscape:pageshadow="2"
     inkscape:window-width="1920"
     inkscape:window-height="1011"
     id="namedview17"
     showgrid="true"
     inkscape:zoom="9.8125"
     inkscape:cx="-13.808917"
     inkscape:cy="3.9745223"
     inkscape:window-x="0"
     inkscape:window-y="0"
     inkscape:window-maximized="1"
     inkscape:current-layer="layer1"
     inkscape:pagecheckerboard="0"
     inkscape:showpageshadow="2"
     inkscape:deskcolor="#d1d1d1">
    <inkscape:grid
       type="xygrid"
       id="grid15949" />
  </sodipodi:namedview>
  <defs
     id="defs5455">
    <linearGradient
       id="linearGradient4172-0">
      <stop
         style="stop-color:#f89406"
         id="stop4174-4" />
      <stop
         offset="1"
         style="stop-color:#faa938"
         id="stop4176-5" />
    </linearGradient>
    <linearGradient
       inkscape:collect="always"
       xlink:href="#linearGradient4172-0"
       id="linearGradient854"
       gradientUnits="userSpaceOnUse"
       gradientTransform="matrix(0.36362134,0,0,0.37138443,382.38964,513.23029)"
       x1="6"
       y1="50.000134"
       x2="94.005508"
       y2="50.000134" />
    <linearGradient
       inkscape:collect="always"
       xlink:href="#linearGradient4172-0"
       id="linearGradient15980"
       x1="393.82343"
       y1="539.40131"
       x2="406.31927"
       y2="539.40131"
       gradientUnits="userSpaceOnUse" />
    <linearGradient
       inkscape:collect="always"
       xlink:href="#linearGradient4172-0"
       id="linearGradient15982"
       x1="403.93927"
       y1="535.53668"
       x2="407.80728"
       y2="535.53668"
       gradientUnits="userSpaceOnUse" />
    <linearGradient
       inkscape:collect="always"
       xlink:href="#linearGradient4172-0"
       id="linearGradient15984"
       x1="394.12094"
       y1="531.69061"
       x2="406.02179"
       y2="531.69061"
       gradientUnits="userSpaceOnUse" />
    <linearGradient
       inkscape:collect="always"
       xlink:href="#linearGradient4172-0"
       id="linearGradient15986"
       x1="397.09616"
       y1="529.58313"
       x2="404.53418"
       y2="529.58313"
       gradientUnits="userSpaceOnUse" />
    <linearGradient
       inkscape:collect="always"
       xlink:href="#linearGradient4172-0"
       id="linearGradient15988"
       x1="394.12097"
       y1="535.98041"
       x2="406.02179"
       y2="535.98041"
       gradientUnits="userSpaceOnUse" />
    <linearGradient
       inkscape:collect="always"
       xlink:href="#linearGradient4172-0"
       id="linearGradient15990"
       x1="398.13748"
       y1="534.04596"
       x2="405.27795"
       y2="534.04596"
       gradientUnits="userSpaceOnUse" />
  </defs>
  <metadata
     id="metadata5458">
    <rdf:RDF>
      <cc:Work
         rdf:about="">
        <dc:format>image/svg+xml</dc:format>
        <dc:type
           rdf:resource="http://purl.org/dc/dcmitype/StillImage" />
      </cc:Work>
    </rdf:RDF>
  </metadata>
  <g
     inkscape:label="Capa 1"
     inkscape:groupmode="layer"
     id="layer1"
     transform="translate(-384.57143,-515.798)">
    <path
       style="color:#000000;font-style:normal;font-variant:normal;font-weight:normal;font-stretch:normal;font-size:medium;line-height:normal;font-family:Sans;-inkscape-font-specification:Sans;text-indent:0;text-align:start;text-decoration:none;text-decoration-line:none;letter-spacing:normal;word-spacing:normal;text-transform:none;writing-mode:lr-tb;direction:ltr;baseline-shift:baseline;text-anchor:start;display:inline;overflow:visible;visibility:visible;opacity:1;fill:url(#linearGradient854);fill-opacity:1;fill-rule:nonzero;stroke:none;stroke-width:1.46995;marker:none;enable-background:accumulate"
       d="m 387.32131,518.80106 c -1.48284,0 -2.74988,1.06211 -2.74988,2.47203 v 20.80368 c 0,0.87829 0.31098,1.44262 0.91475,1.95463 0.60372,0.51203 1.23021,0.76649 2.02978,0.76649 h 25.41779 c 0.61028,0.0109 0.59288,-0.82622 1.4e-4,-0.83512 l -25.45312,-0.0148 c -0.78665,0 -1.4403,-0.55445 -1.4403,-0.55445 0,0 -0.60223,-0.45177 -0.60223,-1.31681 v -20.80363 c 0,-0.97158 0.66138,-1.59493 1.8167,-1.58227 l 8.94708,-0.006 4.26649,3.79964 c 0.12891,0.11612 0.29398,0.28182 0.46587,0.28556 l 12.40584,-0.006 c 0.63257,-0.004 0.61257,-0.87067 -0.02,-0.8808 h -12.1245 l -4.52261,-3.91116 c -0.13045,-0.11195 -0.29541,-0.1736 -0.46585,-0.17405 z m 14.43128,1.07935 c -0.57731,-0.002 -0.57848,0.99192 0.0137,1.0004 l 11.06464,-0.0151 c 1.12121,-0.002 1.60689,0.3614 1.9802,0.70931 0.37331,0.34789 0.94059,1.19965 0.94059,2.0773 v 20.40295 c 0.004,0.69038 0.81726,0.71313 0.81971,0.0234 l -0.002,-20.42682 c -9e-5,-1.19233 -0.39032,-2.19056 -1.09087,-2.84342 -0.70054,-0.65286 -1.65428,-0.92847 -2.64765,-0.92847 h -11.01074 c -0.0227,-0.002 -0.0451,-0.002 -0.0681,0 z"
       id="path2-3"
       sodipodi:nodetypes="sssssccscsssccccccccsccsssccssscc" />
    <path
       d="m 406.02178,539.798 h -11.90082 c -0.16394,0 -0.29753,-0.23277 -0.29753,-0.39671 0,-0.16389 0.13359,-0.39665 0.29753,-0.39665 h 11.90082 c 0.16394,0 0.29749,0.23276 0.29749,0.39665 0,0.16394 -0.13355,0.39671 -0.29749,0.39671 z"
       id="path2-3-6"
       style="color:#eff0f1;fill:url(#linearGradient15980);fill-opacity:1.0;stroke-width:0.029752"
       sodipodi:nodetypes="sssssss"
       class="ColorScheme-Text" />
    <path
       d="m 404.23754,537.6162 h -0.001 c -0.15708,0 -0.28736,-0.12293 -0.29664,-0.27996 -0.0107,-0.16368 0.11547,-0.30468 0.27943,-0.31453 h 2.7e-4 c 10e-4,-3e-4 0.005,-5.6e-4 0.0107,-6.7e-4 0.014,-10e-4 0.0289,-0.003 0.0453,-0.005 0.0381,-0.004 0.1012,-0.0135 0.18238,-0.0293 0.14551,-0.0288 0.37402,-0.086 0.637,-0.1934 0.67599,-0.2767 1.22668,-0.72832 1.63606,-1.34209 0.45581,-0.67747 0.4841,-1.00952 0.48198,-1.0952 -6.6e-4,-0.0785 -0.0163,-0.116 -0.0319,-0.14253 -0.0192,-0.0311 -0.0447,-0.054 -0.0857,-0.0773 -0.0884,-0.0517 -0.25857,-0.0839 -0.44481,-0.0839 -0.004,0 -0.009,0 -0.0133,0 h -0.007 c -0.36595,0 -0.7914,0.10493 -0.85981,0.12546 -0.003,6.7e-4 -0.003,6.7e-4 -0.003,6.7e-4 -0.0265,0.008 -0.0543,0.012 -0.0819,0.012 -0.13213,0 -0.24961,-0.0887 -0.28592,-0.21572 -0.0223,-0.0764 -0.0133,-0.1568 0.0256,-0.22641 0.0384,-0.0695 0.102,-0.1196 0.1785,-0.14163 6.6e-4,0 0.004,-10e-4 0.0107,-0.003 0.16152,-0.0439 0.58434,-0.1452 1.02196,-0.14668 0.22286,6e-4 0.4023,0.0256 0.565,0.0795 0.15179,0.0497 0.35972,0.15469 0.48915,0.37071 0.0768,0.12706 0.1172,0.28233 0.11667,0.44866 -0.004,0.3835 -0.1839,0.8229 -0.58198,1.4251 -0.26153,0.3927 -0.57984,0.73369 -0.94581,1.01366 -0.29364,0.22462 -0.61673,0.4094 -0.96039,0.54954 -0.55546,0.22637 -0.98302,0.26596 -1.06302,0.27161 h -10e-4 c -0.005,2.5e-4 -0.012,6e-4 -0.0168,6e-4 z"
       id="path6-6"
       style="color:#eff0f1;fill:url(#linearGradient15982);fill-opacity:1.0;stroke-width:0.029752"
       class="ColorScheme-Text" />
    <path
       d="m 405.72424,532.85588 h -6.24789 c -0.16399,0 -0.29752,-0.1336 -0.29752,-0.29753 0,-0.16394 0.13353,-0.29754 0.29752,-0.29754 h 5.70248 v -0.89257 h -10.21492 v 0.89257 h 1.53719 c 0.16394,0 0.29753,0.1336 0.29753,0.29754 0,0.16393 -0.13359,0.29753 -0.29753,0.29753 h -2.08262 c -0.0783,0 -0.15501,-0.0319 -0.21034,-0.0872 -0.0555,-0.0555 -0.0872,-0.13213 -0.0872,-0.21031 v -1.48761 c 0,-0.0783 0.0319,-0.40283 0.0872,-0.4582 0.0555,-0.0555 0.13213,-0.0872 0.21034,-0.0872 h 11.30576 c 0.0783,0 0.15504,0.032 0.21034,0.0872 0.0555,0.0555 0.0872,0.37993 0.0872,0.4582 v 1.48761 c 0,0.0783 -0.0319,0.15498 -0.0872,0.21031 -0.0553,0.0555 -0.132,0.0872 -0.21034,0.0872 z m -7.73553,0 c -0.16427,0 -0.29753,-0.1336 -0.29753,-0.29753 0,-0.16394 0.13333,-0.29754 0.29753,-0.29754 0.16395,0 0.29752,0.1336 0.29752,0.29754 0,0.16393 -0.13359,0.29753 -0.29752,0.29753 z"
       id="path10-7"
       style="color:#eff0f1;fill:url(#linearGradient15984);fill-opacity:1.0;stroke-width:0.029752"
       sodipodi:nodetypes="ssssccccsssssssssscsscssssss"
       class="ColorScheme-Text" />
    <path
       d="m 399.47635,531.36821 c -0.16399,0 -0.29752,-0.13353 -0.29752,-0.29748 v -0.59506 c 0,-0.23827 0.0928,-0.46262 0.26152,-0.631 0.16836,-0.16846 0.39243,-0.26154 0.63103,-0.26154 h 3.57025 c 0.1636,-3.2e-4 0.29723,-0.1339 0.29753,-0.29753 -3e-4,-0.16363 -0.13394,-0.29723 -0.29753,-0.29748 h -5.65292 c -0.23833,0 -0.46261,-0.0929 -0.63107,-0.26153 -0.16865,-0.16846 -0.26148,-0.39243 -0.26148,-0.63107 0,-0.16393 0.13359,-0.29752 0.29748,-0.29752 0.16399,0 0.29754,0.13359 0.29754,0.29752 3e-4,0.16364 0.1339,0.29723 0.29753,0.29753 h 5.65292 c 0.23859,0 0.46261,0.0928 0.63103,0.26154 0.16868,0.16834 0.26152,0.39269 0.26152,0.63101 0,0.23864 -0.0928,0.46261 -0.26152,0.63107 -0.16842,0.16865 -0.39244,0.26146 -0.63103,0.26146 h -3.57025 c -0.16368,3.2e-4 -0.29723,0.13391 -0.29755,0.29754 v 0.59506 c 0,0.16395 -0.13359,0.29748 -0.29748,0.29748 z"
       id="path14-5"
       style="color:#eff0f1;fill:url(#linearGradient15986);fill-opacity:1.0;stroke-width:0.029752"
       class="ColorScheme-Text" />
    <path
       d="m 400.98715,539.69881 h -1.80807 c -0.0217,0 -0.0384,-10e-4 -0.0599,-0.005 -0.67567,-0.13863 -1.32423,-0.4192 -1.92759,-0.83363 -0.58527,-0.40226 -1.05019,-0.82977 -1.49915,-1.44377 -0.13253,-0.19599 -0.0331,-0.43096 0.10694,-0.54353 0.0509,-0.0373 0.15897,-0.0861 0.27126,-0.11707 0.11334,-0.0313 0.28368,0.0459 0.33967,0.122 0.82175,1.12373 1.62384,1.73055 2.79936,1.97899 h 1.74669 c 1.17462,-0.2487 2.02406,-0.7592 2.84136,-1.88708 0.83127,-1.14663 1.31943,-2.60747 1.37507,-4.11292 h -10.20897 c 0.0197,0.52005 0.0963,1.03746 0.21672,1.53785 0.005,0.0233 0.008,0.0471 0.008,0.0708 -0.0463,0.15804 -0.19043,0.24347 -0.32427,0.2756 -0.0231,0.005 -0.0988,0.0209 -0.122,0.0209 -0.13805,0 -0.35612,-0.0937 -0.38855,-0.22789 -0.13384,-0.55665 -0.21061,-1.13181 -0.22876,-1.70928 -0.003,-0.1008 -0.004,-0.18535 -0.004,-0.26537 0,-0.0783 0.032,-0.15502 0.0872,-0.21035 0.0555,-0.0555 0.13214,-0.0872 0.21031,-0.0872 h 11.30577 c 0.0783,0 0.15506,0.0319 0.21036,0.0872 0.0555,0.0555 0.0872,0.13213 0.0872,0.21036 0,0.0807 -10e-4,0.16512 -0.004,0.26537 -0.0256,0.83484 -0.17168,1.65242 -0.43346,2.42926 -0.25379,0.75274 -0.60906,1.44742 -1.05622,2.06506 -0.44688,0.61678 -0.96965,1.13418 -1.55366,1.53788 -0.60248,0.41654 -1.2508,0.698 -1.92703,0.83694 -0.0212,0.004 -0.0381,0.005 -0.0597,0.005 z m -5.86151,-3.53306 c -0.11653,0 -0.22278,-0.0685 -0.27101,-0.17431 v -3.1e-4 c -0.0333,-0.0723 -0.0357,-0.15321 -0.008,-0.22734 0.028,-0.0744 0.0831,-0.13354 0.15559,-0.16662 0.0389,-0.0173 0.0803,-0.0261 0.12293,-0.0261 0.11627,0 0.22283,0.0685 0.27101,0.17435 v 3e-4 c 0.068,0.14934 10e-4,0.32574 -0.14785,0.39359 -0.0387,0.0179 -0.0803,0.0265 -0.12293,0.0265 z"
       id="path22-3"
       style="color:#eff0f1;fill:url(#linearGradient15988);fill-opacity:1.0;stroke-width:0.029752"
       sodipodi:nodetypes="ssccccscccccccccsccsssscscccccssccccscccs"
       class="ColorScheme-Text" />
    <path
       d="M 404.98047,534.34347 H 398.435 c -0.16394,0 -0.29753,-0.13363 -0.29753,-0.29751 0,-0.16396 0.13359,-0.29755 0.29753,-0.29755 h 6.54547 c 0.16389,0 0.29748,0.13359 0.29748,0.29755 0,0.16389 -0.13359,0.29751 -0.29748,0.29751 z"
       id="path26-5"
       style="color:#eff0f1;fill:url(#linearGradient15990);fill-opacity:1.0;stroke-width:0.029752"
       class="ColorScheme-Text" />
  </g>
</svg>
