<?xml version="1.0" encoding="UTF-8" standalone="no"?>
<svg
   width="32"
   version="1.1"
   height="32"
   viewBox="0 0 32 32"
   id="svg17"
   sodipodi:docname="folder-development.svg"
   inkscape:version="1.1 (c68e22c387, 2021-05-23)"
   xmlns:inkscape="http://www.inkscape.org/namespaces/inkscape"
   xmlns:sodipodi="http://sodipodi.sourceforge.net/DTD/sodipodi-0.dtd"
   xmlns:xlink="http://www.w3.org/1999/xlink"
   xmlns="http://www.w3.org/2000/svg"
   xmlns:svg="http://www.w3.org/2000/svg"
   xmlns:rdf="http://www.w3.org/1999/02/22-rdf-syntax-ns#"
   xmlns:cc="http://creativecommons.org/ns#"
   xmlns:dc="http://purl.org/dc/elements/1.1/">
  <sodipodi:namedview
     pagecolor="#ffffff"
     bordercolor="#666666"
     borderopacity="1"
     objecttolerance="10"
     gridtolerance="10"
     guidetolerance="10"
     inkscape:pageopacity="0"
     inkscape:pageshadow="2"
     inkscape:window-width="1920"
     inkscape:window-height="1007"
     id="namedview19"
     showgrid="false"
     inkscape:zoom="9.8125"
     inkscape:cx="-22.471338"
     inkscape:cy="8.5605096"
     inkscape:window-x="0"
     inkscape:window-y="0"
     inkscape:window-maximized="1"
     inkscape:current-layer="layer1"
     inkscape:pagecheckerboard="0" />
  <defs
     id="defs5455">
    <linearGradient
       inkscape:collect="always"
       xlink:href="#linearGradient844"
       id="linearGradient838"
       x1="6"
       y1="50.000134"
       x2="94.005508"
       y2="50.000134"
       gradientUnits="userSpaceOnUse"
       gradientTransform="matrix(0.97935768,0,0,1.0004044,63.874144,973.90253)" />
    <linearGradient
       inkscape:collect="always"
       id="linearGradient844">
      <stop
         style="stop-color:#ffe680;stop-opacity:1"
         offset="0"
         id="stop840" />
      <stop
         style="stop-color:#ffccaa;stop-opacity:1"
         offset="1"
         id="stop842" />
    </linearGradient>
    <linearGradient
       inkscape:collect="always"
       xlink:href="#linearGradient844"
       id="linearGradient1785"
       x1="402.57144"
       y1="520.79797"
       x2="430"
       y2="520.79797"
       gradientUnits="userSpaceOnUse"
       gradientTransform="matrix(0.49999972,0,0,0.49999972,192.28582,273.8991)" />
    <linearGradient
       inkscape:collect="always"
       xlink:href="#linearGradient844"
       id="linearGradient1793"
       x1="410.89111"
       y1="524.22662"
       x2="421.53799"
       y2="524.22662"
       gradientUnits="userSpaceOnUse"
       gradientTransform="matrix(0.49999972,0,0,0.49999972,192.28582,273.8991)" />
  </defs>
  <metadata
     id="metadata5458">
    <rdf:RDF>
      <cc:Work
         rdf:about="">
        <dc:format>image/svg+xml</dc:format>
        <dc:type
           rdf:resource="http://purl.org/dc/dcmitype/StillImage" />
      </cc:Work>
    </rdf:RDF>
  </metadata>
  <g
     inkscape:label="Capa 1"
     inkscape:groupmode="layer"
     id="layer1"
     transform="translate(-384.57143,-515.798)">
    <g
       transform="matrix(0.37127732,0,0,0.37127732,358.67473,151.63872)"
       id="g4">
      <path
         style="color:#000000;font-style:normal;font-variant:normal;font-weight:normal;font-stretch:normal;font-size:medium;line-height:normal;font-family:Sans;-inkscape-font-specification:Sans;text-indent:0;text-align:start;text-decoration:none;text-decoration-line:none;letter-spacing:normal;word-spacing:normal;text-transform:none;writing-mode:lr-tb;direction:ltr;baseline-shift:baseline;text-anchor:start;display:inline;overflow:visible;visibility:visible;opacity:1;fill:url(#linearGradient838);fill-opacity:1;fill-rule:nonzero;stroke:none;stroke-width:3.9593;marker:none;enable-background:accumulate"
         d="m 77.156682,988.90862 c -3.993849,0 -7.406392,2.86109 -7.406392,6.65894 v 56.03894 c 0,2.3659 0.837538,3.886 2.463598,5.2653 1.626057,1.3792 3.313621,2.0649 5.466961,2.0649 H 146.1398 c 1.64356,0.029 1.59683,-2.2258 3.9e-4,-2.2497 l -68.554045,-0.04 c -2.118706,0 -3.879148,-1.4934 -3.879148,-1.4934 0,0 -1.622249,-1.2171 -1.622249,-3.5472 v -56.03894 c 0,-2.6172 1.78145,-4.29635 4.89324,-4.2622 l 24.097552,-0.0121 11.49104,10.23484 c 0.34724,0.313 0.79179,0.7593 1.25479,0.7693 l 33.41321,-0.012 c 1.70369,-0.01 1.64985,-2.3453 -0.0539,-2.3726 h -32.65546 l -12.18077,-10.5353 c -0.35154,-0.30169 -0.79566,-0.46767 -1.25479,-0.46894 z m 38.868258,2.90743 c -1.55475,-0.004 -1.55786,2.672 0.0389,2.69479 l 29.80092,-0.0408 c 3.01969,-0.004 4.32789,0.97356 5.33333,1.9107 1.00546,0.93716 2.53335,3.2314 2.53335,5.59546 v 54.9597 c 0.009,1.8599 2.20121,1.9211 2.20775,0.064 l -0.006,-55.024 c -3.1e-4,-3.21153 -1.0513,-5.90052 -2.93808,-7.65914 -1.88677,-1.75863 -4.45555,-2.50101 -7.13095,-2.50101 h -29.65618 c -0.0612,-0.003 -0.12244,-0.003 -0.18363,0 z"
         id="path2-3-3-6"
         sodipodi:nodetypes="sssssccscsssccccccccsccsssccssscc" />
    </g>
    <path
       fill-rule="evenodd"
       clip-rule="evenodd"
       d="m 395.28571,530.4408 c 0,-0.23667 0.19189,-0.42857 0.42857,-0.42857 0.23668,0 0.42857,0.1919 0.42857,0.42857 0,0.23668 -0.19189,0.42858 -0.42857,0.42858 -0.23668,0 -0.42857,-0.1919 -0.42857,-0.42858 z m 1.71428,0 c 0,-0.23667 0.1919,-0.42857 0.42858,-0.42857 0.23667,0 0.42857,0.1919 0.42857,0.42857 0,0.23668 -0.1919,0.42858 -0.42857,0.42858 -0.23668,0 -0.42858,-0.1919 -0.42858,-0.42858 z m 1.71429,0 c 0,-0.23667 0.19189,-0.42857 0.42857,-0.42857 0.23668,0 0.42857,0.1919 0.42857,0.42857 0,0.23668 -0.19189,0.42858 -0.42857,0.42858 -0.23668,0 -0.42857,-0.1919 -0.42857,-0.42858 z m 8.57142,2.35715 v 5.78571 c 0,0.94671 -0.76757,1.71428 -1.71428,1.71428 h -10.28571 c -0.94672,0 -1.71429,-0.76757 -1.71429,-1.71428 v -4.71428 c 0,-0.23668 0.1919,-0.42858 0.42857,-0.42858 0.23668,0 0.42858,0.1919 0.42858,0.42858 v 4.71428 c 0,0.47335 0.38378,0.85714 0.85714,0.85714 h 10.28571 c 0.47335,0 0.85714,-0.38379 0.85714,-0.85714 v -5.57143 c 0,-0.23668 -0.19189,-0.42857 -0.42857,-0.42857 h -11.35714 c -0.5918,0 -1.07143,-0.47962 -1.07143,-1.07143 v -1.5 c 0,-0.94671 0.76757,-1.71428 1.71429,-1.71428 h 10.28571 c 0.94671,0 1.71428,0.76757 1.71428,1.71428 v 0.42857 c 0,0.23668 -0.19189,0.42858 -0.42857,0.42858 -0.23668,0 -0.42857,-0.1919 -0.42857,-0.42858 v -0.42857 c 0,-0.47335 -0.38379,-0.85714 -0.85714,-0.85714 h -10.28571 c -0.47336,0 -0.85714,0.38379 -0.85714,0.85714 v 1.28572 c 0,0.23668 0.19189,0.42857 0.42857,0.42857 h 11.35713 c 0.59181,0 1.07143,0.47962 1.07143,1.07143 z"
       id="path2"
       style="fill:url(#linearGradient1785);fill-opacity:1;stroke-width:0.0267857" />
    <path
       fill-rule="evenodd"
       clip-rule="evenodd"
       d="m 402.46738,536.66948 c -5e-4,3.5e-4 -0.002,10e-4 -0.002,10e-4 -0.07,0.0237 -0.12061,0.0899 -0.12061,0.1681 v 1.83551 c 0,0.0981 -0.0794,0.17747 -0.17743,0.17747 -0.0979,0 -0.17727,-0.0794 -0.17727,-0.17747 v -1.83551 c 0,-0.23075 0.14686,-0.42736 0.35237,-0.50118 0.002,-10e-4 0.005,-0.002 0.007,-0.004 0.20378,-0.0748 0.35004,-0.26879 0.35004,-0.49842 0,-0.14687 -0.0593,-0.2798 -0.15544,-0.37589 -0.0324,-0.0322 -0.0526,-0.0768 -0.0526,-0.12591 0,-0.0981 0.0794,-0.17754 0.17763,-0.17754 0.0519,0 0.0982,0.0227 0.13065,0.0583 0.15698,0.16021 0.25462,0.37883 0.25462,0.62102 0,0.38482 -0.24484,0.71165 -0.58752,0.83471 z m -0.4747,-1.33728 c -0.002,0.001 -0.005,0.002 -0.007,0.004 -0.20379,0.0746 -0.34995,0.26863 -0.34995,0.49842 0,0.14704 0.0596,0.28013 0.15596,0.37641 0.032,0.0321 0.0519,0.0766 0.0519,0.12555 0,0.0979 -0.0794,0.17728 -0.17744,0.17728 -0.0511,0 -0.0969,-0.0219 -0.12936,-0.0565 -0.15794,-0.16039 -0.25602,-0.37979 -0.25602,-0.62276 0,-0.38465 0.24468,-0.71071 0.58691,-0.83411 10e-4,-5e-4 0.002,-10e-4 0.002,-10e-4 0.07,-0.0238 0.12053,-0.0899 0.12053,-0.16819 v -0.77074 c 0,-0.0979 0.0794,-0.17754 0.17726,-0.17754 0.0981,0 0.17744,0.0796 0.17744,0.17754 v 0.77076 c -1e-5,0.23101 -0.14678,0.42744 -0.35229,0.50128 z m 0.17484,-1.80451 c -0.0979,0 -0.17727,-0.0794 -0.17727,-0.17729 0,-0.0981 0.0794,-0.17745 0.17727,-0.17745 0.0981,0 0.17743,0.0794 0.17743,0.17745 0,0.0979 -0.0794,0.17729 -0.17743,0.17729 z m -1.47431,4.56121 c -0.001,4.3e-4 -0.001,10e-4 -0.002,10e-4 -0.07,0.0237 -0.12061,0.0901 -0.12061,0.16809 v 0.41584 c 0,0.0981 -0.0794,0.17746 -0.17744,0.17746 -0.0979,0 -0.17727,-0.0794 -0.17727,-0.17746 v -0.41584 c 0,-0.23082 0.14686,-0.42735 0.35237,-0.50117 0.002,-10e-4 0.005,-0.002 0.007,-0.004 0.2037,-0.0749 0.34996,-0.26888 0.34996,-0.49842 0,-0.14686 -0.0593,-0.27979 -0.15535,-0.37589 -0.0325,-0.0322 -0.0526,-0.0768 -0.0526,-0.12598 0,-0.0981 0.0795,-0.17746 0.17753,-0.17746 0.0519,0 0.0983,0.0227 0.13066,0.0583 0.15708,0.16013 0.25473,0.37883 0.25473,0.62101 -1e-5,0.38457 -0.24477,0.71148 -0.58719,0.83445 z m -0.47506,-1.3371 c -0.003,10e-4 -0.006,0.003 -0.008,0.005 -0.20322,0.0748 -0.34939,0.26862 -0.34939,0.49806 0,0.14697 0.0597,0.28014 0.15596,0.37641 0.0321,0.032 0.0519,0.0766 0.0519,0.12555 0,0.0979 -0.0794,0.17728 -0.17749,0.17728 -0.0499,0 -0.0949,-0.0209 -0.1271,-0.0542 -0.1596,-0.16029 -0.25827,-0.381 -0.25827,-0.62509 0,-0.38464 0.24476,-0.7108 0.58695,-0.83409 10e-4,-5e-4 0.002,-0.002 0.002,-0.002 0.07,-0.0237 0.12052,-0.0899 0.12052,-0.1681 v -2.90021 c 0,-0.0981 0.0794,-0.17745 0.17726,-0.17745 0.0981,0 0.17745,0.0794 0.17745,0.17745 v 2.90021 c -10e-6,0.231 -0.14678,0.42762 -0.3523,0.50119 z m -1.29947,-0.7925 c -10e-4,4.3e-4 -0.002,10e-4 -0.002,10e-4 -0.0701,0.0239 -0.12061,0.0901 -0.12061,0.16809 v 2.54545 c 0,0.0981 -0.0794,0.17746 -0.17726,0.17746 -0.0981,0 -0.17749,-0.0794 -0.17749,-0.17746 v -2.54545 c 0,-0.23075 0.14685,-0.42736 0.35241,-0.50118 0.002,-10e-4 0.005,-0.002 0.007,-0.004 0.2037,-0.0746 0.34996,-0.26862 0.34996,-0.49824 0,-0.14704 -0.0597,-0.28014 -0.15604,-0.3764 -0.0323,-0.0323 -0.0519,-0.0764 -0.0519,-0.12556 0,-0.0979 0.0794,-0.17755 0.17745,-0.17755 0.0511,0 0.0969,0.0221 0.12936,0.0568 0.15799,0.16038 0.25607,0.3798 0.25607,0.62275 0,0.38464 -0.24499,0.71131 -0.58715,0.83428 z m -0.4751,-1.33686 c -0.003,10e-4 -0.005,0.002 -0.007,0.004 -0.20378,0.0748 -0.35004,0.26878 -0.35004,0.49841 0,0.14705 0.0597,0.27997 0.15604,0.37624 0.032,0.032 0.0519,0.0766 0.0519,0.12556 0,0.0979 -0.0794,0.17746 -0.17745,0.17746 -0.0509,0 -0.0965,-0.0217 -0.12893,-0.0561 -0.15842,-0.15995 -0.2565,-0.38022 -0.2565,-0.62319 0,-0.38464 0.24472,-0.71148 0.58713,-0.83445 10e-4,-4.3e-4 0.002,-0.001 0.002,-0.001 0.07,-0.0236 0.12052,-0.0901 0.12052,-0.1681 v -0.77085 c 0,-0.0981 0.0794,-0.17745 0.17749,-0.17745 0.0979,0 0.17726,0.0794 0.17726,0.17745 v 0.77085 c 1e-5,0.23076 -0.14675,0.42737 -0.35231,0.50119 z"
       id="path2-3-7"
       style="fill:url(#linearGradient1793);fill-opacity:1;stroke-width:0.0110909" />
  </g>
</svg>
