<?xml version="1.0" encoding="UTF-8" standalone="no"?>
<svg
   width="32"
   version="1.1"
   height="32"
   viewBox="0 0 32 32"
   id="svg15"
   sodipodi:docname="folder-blue.svg"
   inkscape:version="1.1 (c68e22c387, 2021-05-23)"
   xmlns:inkscape="http://www.inkscape.org/namespaces/inkscape"
   xmlns:sodipodi="http://sodipodi.sourceforge.net/DTD/sodipodi-0.dtd"
   xmlns:xlink="http://www.w3.org/1999/xlink"
   xmlns="http://www.w3.org/2000/svg"
   xmlns:svg="http://www.w3.org/2000/svg"
   xmlns:rdf="http://www.w3.org/1999/02/22-rdf-syntax-ns#"
   xmlns:cc="http://creativecommons.org/ns#"
   xmlns:dc="http://purl.org/dc/elements/1.1/">
  <sodipodi:namedview
     pagecolor="#ffffff"
     bordercolor="#666666"
     borderopacity="1"
     objecttolerance="10"
     gridtolerance="10"
     guidetolerance="10"
     inkscape:pageopacity="0"
     inkscape:pageshadow="2"
     inkscape:window-width="1920"
     inkscape:window-height="1007"
     id="namedview17"
     showgrid="false"
     inkscape:zoom="9.8125"
     inkscape:cx="-10.343949"
     inkscape:cy="4.4840764"
     inkscape:window-x="0"
     inkscape:window-y="0"
     inkscape:window-maximized="1"
     inkscape:current-layer="layer1"
     inkscape:document-rotation="0"
     inkscape:pagecheckerboard="0" />
  <defs
     id="defs5455">
    <linearGradient
       id="linearGradient4172-7-9">
      <stop
         style="stop-color:#4183d7"
         id="stop4174-9-8" />
      <stop
         offset="1"
         style="stop-color:#5b94df"
         id="stop4176-4-6" />
    </linearGradient>
    <linearGradient
       inkscape:collect="always"
       xlink:href="#linearGradient4172-7-9"
       id="linearGradient862"
       x1="276.58713"
       y1="497.65787"
       x2="340.50476"
       y2="497.65787"
       gradientUnits="userSpaceOnUse"
       gradientTransform="matrix(0.50065296,0,0,0.50010432,246.0972,282.91959)" />
  </defs>
  <metadata
     id="metadata5458">
    <rdf:RDF>
      <cc:Work
         rdf:about="">
        <dc:format>image/svg+xml</dc:format>
        <dc:type
           rdf:resource="http://purl.org/dc/dcmitype/StillImage" />
      </cc:Work>
    </rdf:RDF>
  </metadata>
  <g
     inkscape:label="Capa 1"
     inkscape:groupmode="layer"
     id="layer1"
     transform="translate(-384.57143,-515.798)">
    <path
       style="color:#000000;font-style:normal;font-variant:normal;font-weight:normal;font-stretch:normal;font-size:medium;line-height:normal;font-family:Sans;-inkscape-font-specification:Sans;text-indent:0;text-align:start;text-decoration:none;text-decoration-line:none;letter-spacing:normal;word-spacing:normal;text-transform:none;writing-mode:lr-tb;direction:ltr;baseline-shift:baseline;text-anchor:start;display:inline;overflow:visible;visibility:visible;opacity:1;fill:url(#linearGradient862);fill-opacity:1;fill-rule:nonzero;stroke:none;stroke-width:1.47002;marker:none;enable-background:accumulate"
       d="m 387.32124,518.80307 c -1.48277,0 -2.74981,1.06206 -2.74981,2.47181 v 20.80199 c 0,0.87824 0.31098,1.44248 0.9147,1.95449 0.60374,0.51205 1.23026,0.76653 2.02976,0.76653 h 25.41773 c 0.61027,0.0109 0.59291,-0.82623 1.6e-4,-0.83506 l -25.45303,-0.0147 c -0.7866,0 -1.44026,-0.55438 -1.44026,-0.55438 0,0 -0.6023,-0.45178 -0.6023,-1.31677 v -20.80203 c 0,-0.97154 0.66141,-1.59486 1.81686,-1.58219 l 8.94696,-0.007 4.26643,3.79929 c 0.12891,0.11617 0.29397,0.28188 0.46586,0.2856 l 12.40588,-0.007 c 0.63252,-0.005 0.61252,-0.87063 -0.0197,-0.88083 h -12.12447 l -4.52251,-3.9108 c -0.13052,-0.11191 -0.29544,-0.17359 -0.4659,-0.17402 z m 14.43127,1.07921 c -0.5773,-0.003 -0.57847,0.9919 0.0138,1.0004 l 11.06456,-0.0151 c 1.12123,-0.003 1.60697,0.36137 1.98027,0.70926 0.37333,0.34788 0.94063,1.19952 0.94063,2.07713 v 20.40122 c 0.005,0.69044 0.81724,0.71313 0.81966,0.0236 l -0.004,-20.42518 c -1.4e-4,-1.19225 -0.39032,-2.19042 -1.09091,-2.84322 -0.70052,-0.65278 -1.65418,-0.92836 -2.64761,-0.92836 h -11.01044 c -0.0229,-0.002 -0.0457,-0.002 -0.0679,0 z"
       id="path2-3"
       sodipodi:nodetypes="sssssccscsssccccccccsccsssccssscc" />
  </g>
</svg>
