<?xml version="1.0" encoding="UTF-8" standalone="no"?>
<svg
   width="32"
   version="1.1"
   height="32"
   viewBox="0 0 32 32"
   id="svg17"
   sodipodi:docname="folder-text.svg"
   inkscape:version="1.1 (c68e22c387, 2021-05-23)"
   xmlns:inkscape="http://www.inkscape.org/namespaces/inkscape"
   xmlns:sodipodi="http://sodipodi.sourceforge.net/DTD/sodipodi-0.dtd"
   xmlns:xlink="http://www.w3.org/1999/xlink"
   xmlns="http://www.w3.org/2000/svg"
   xmlns:svg="http://www.w3.org/2000/svg"
   xmlns:rdf="http://www.w3.org/1999/02/22-rdf-syntax-ns#"
   xmlns:cc="http://creativecommons.org/ns#"
   xmlns:dc="http://purl.org/dc/elements/1.1/">
  <sodipodi:namedview
     pagecolor="#ffffff"
     bordercolor="#666666"
     borderopacity="1"
     objecttolerance="10"
     gridtolerance="10"
     guidetolerance="10"
     inkscape:pageopacity="0"
     inkscape:pageshadow="2"
     inkscape:window-width="1920"
     inkscape:window-height="1007"
     id="namedview19"
     showgrid="false"
     inkscape:zoom="9.8125"
     inkscape:cx="-25.324841"
     inkscape:cy="-0.61146497"
     inkscape:window-x="0"
     inkscape:window-y="0"
     inkscape:window-maximized="1"
     inkscape:current-layer="layer1"
     inkscape:pagecheckerboard="0" />
  <defs
     id="defs5455">
    <linearGradient
       inkscape:collect="always"
       xlink:href="#linearGradient853-6"
       id="linearGradient854-3"
       gradientUnits="userSpaceOnUse"
       gradientTransform="matrix(0.36361408,0,0,0.37142577,382.38973,513.22773)"
       x1="6"
       y1="50.000134"
       x2="94.005508"
       y2="50.000134" />
    <linearGradient
       inkscape:collect="always"
       id="linearGradient853-6">
      <stop
         style="stop-color:#ffaaaa;stop-opacity:1"
         offset="0"
         id="stop849-7" />
      <stop
         style="stop-color:#aa87de;stop-opacity:1"
         offset="1"
         id="stop851-5" />
    </linearGradient>
    <linearGradient
       inkscape:collect="always"
       xlink:href="#linearGradient853-6"
       id="linearGradient1302"
       x1="407.60944"
       y1="520.79803"
       x2="425.60953"
       y2="520.79803"
       gradientUnits="userSpaceOnUse"
       gradientTransform="matrix(0.55556331,0,0,0.50000014,169.63764,273.89988)" />
    <linearGradient
       inkscape:collect="always"
       xlink:href="#linearGradient853-6"
       id="linearGradient858"
       x1="320"
       y1="187.5"
       x2="439"
       y2="187.5"
       gradientUnits="userSpaceOnUse"
       gradientTransform="matrix(0.05462185,0,0,0.03999991,380.21744,527.49897)" />
    <linearGradient
       inkscape:collect="always"
       xlink:href="#linearGradient853-6"
       id="linearGradient858-3"
       x1="320"
       y1="187.5"
       x2="439"
       y2="187.5"
       gradientUnits="userSpaceOnUse"
       gradientTransform="matrix(0.05462185,0,0,0.03999991,380.21744,529.99899)" />
  </defs>
  <metadata
     id="metadata5458">
    <rdf:RDF>
      <cc:Work
         rdf:about="">
        <dc:format>image/svg+xml</dc:format>
        <dc:type
           rdf:resource="http://purl.org/dc/dcmitype/StillImage" />
      </cc:Work>
    </rdf:RDF>
  </metadata>
  <g
     inkscape:label="Capa 1"
     inkscape:groupmode="layer"
     id="layer1"
     transform="translate(-384.57143,-515.798)">
    <path
       style="color:#000000;font-style:normal;font-variant:normal;font-weight:normal;font-stretch:normal;font-size:medium;line-height:normal;font-family:Sans;-inkscape-font-specification:Sans;text-indent:0;text-align:start;text-decoration:none;text-decoration-line:none;letter-spacing:normal;word-spacing:normal;text-transform:none;writing-mode:lr-tb;direction:ltr;baseline-shift:baseline;text-anchor:start;display:inline;overflow:visible;visibility:visible;fill:url(#linearGradient854-3);fill-opacity:1;fill-rule:nonzero;stroke:none;stroke-width:1.47001;marker:none;enable-background:accumulate"
       d="m 387.32126,518.79911 c -1.48283,0 -2.74983,1.06225 -2.74983,2.47231 v 20.80597 c 0,0.87838 0.31097,1.44276 0.91468,1.95485 0.60372,0.51208 1.23028,0.76666 2.02976,0.76666 h 25.41731 c 0.61022,0.0108 0.59287,-0.82639 1.5e-4,-0.83527 l -25.45262,-0.0148 c -0.78662,0 -1.44024,-0.5545 -1.44024,-0.5545 0,0 -0.60231,-0.45184 -0.60231,-1.31696 v -20.80598 c 0,-0.9717 0.66142,-1.59513 1.81676,-1.58245 l 8.94689,-0.005 4.26638,3.80002 c 0.12891,0.11622 0.29397,0.28191 0.46586,0.28562 l 12.4056,-0.005 c 0.63254,-0.004 0.61256,-0.87077 -0.02,-0.88091 h -12.12426 l -4.52245,-3.91156 c -0.13052,-0.11201 -0.29541,-0.17364 -0.46588,-0.17411 z m 14.43093,1.07946 c -0.57724,-10e-4 -0.5784,0.99204 0.0144,1.00051 l 11.06444,-0.0152 c 1.12114,-0.002 1.60685,0.36147 1.98015,0.7094 0.3733,0.34794 0.94057,1.19977 0.94057,2.07752 v 20.40521 c 0.004,0.69051 0.81726,0.71325 0.81969,0.0238 l -0.002,-20.42909 c -1.2e-4,-1.19243 -0.39032,-2.19079 -1.09085,-2.84371 -0.70051,-0.65294 -1.65424,-0.92857 -2.64756,-0.92857 h -11.01069 c -0.0228,-10e-4 -0.0455,-10e-4 -0.0682,0 z"
       id="path2-3-3"
       sodipodi:nodetypes="sssssccscsssccccccccsccsssccssscc" />
    <path
       d="m 404.42349,532.42413 c 0,0.20707 -0.18638,0.375 -0.4167,0.375 -0.22948,0 -0.41622,-0.16791 -0.41622,-0.375 0,-0.20726 0.18676,-0.37517 0.41622,-0.37517 0.23032,0 0.4167,0.16791 0.4167,0.37517 z m 0,7.87477 h -6.66619 c -0.92064,0 -1.66687,-0.67179 -1.66687,-1.49977 v -8.99991 c 0,-0.82854 0.74623,-1.49977 1.66687,-1.49977 h 3.33296 v -5e-4 l 3.8e-4,5e-4 c 0.46054,0 0.83329,0.33563 0.83329,0.7496 v 2.24993 c 0,0.41435 0.37269,0.74998 0.83332,0.74998 0.23029,0 0.41669,0.16791 0.41669,0.37516 0,0.20707 -0.1864,0.375 -0.41669,0.375 -0.92044,0 -1.66697,-0.67179 -1.66697,-1.50014 v -1.49976 -0.75014 h -0.83292 -2.50004 c -0.46044,0 -0.93339,0.33616 -0.93339,0.75016 v 8.99991 c 0,0.41398 0.47297,0.7496 0.93337,0.7496 h 6.66621 c 0.46061,0 0.94243,-0.33571 0.93393,-0.7496 v -4.87524 -1.12476 -0.5947 l -2.65554,-2.29993 c -0.1632,-0.1463 -0.1632,-0.38379 0,-0.53008 0.16275,-0.1463 0.42646,-0.1463 0.58921,0 l 2.67252,2.40501 c 4.2e-4,3.8e-4 10e-4,10e-4 0.002,0.002 0.0769,0.0681 0.1253,0.16312 0.1253,0.26805 v 0.75017 1.12479 4.87524 c 0,0.82797 -0.74623,1.49976 -1.66708,1.49976 z"
       id="path2"
       style="fill:url(#linearGradient1302);fill-opacity:1;stroke-width:0.0247055"
       sodipodi:nodetypes="ssssscsssscccsssssscccssssssccccccccsccscc" />
    <path
       d="m 403.78677,534.69895 h -5.68067 c -0.22624,0 -0.40967,0.13428 -0.40967,0.3 0,0.16572 0.18343,0.3 0.40967,0.3 h 5.68067 c 0.22624,0 0.40967,-0.13428 0.40967,-0.3 0,-0.16572 -0.18343,-0.3 -0.40967,-0.3 z"
       id="path4-3"
       style="fill:url(#linearGradient858);fill-opacity:1;stroke-width:0.0467423" />
    <path
       d="m 403.78677,537.19896 h -5.68067 c -0.22624,0 -0.40967,0.13428 -0.40967,0.3 0,0.16572 0.18343,0.3 0.40967,0.3 h 5.68067 c 0.22624,0 0.40967,-0.13428 0.40967,-0.3 0,-0.16572 -0.18343,-0.3 -0.40967,-0.3 z"
       id="path4-3-5"
       style="fill:url(#linearGradient858-3);fill-opacity:1;stroke-width:0.0467423" />
  </g>
</svg>
