<?xml version="1.0" encoding="UTF-8" standalone="no"?>
<svg
   width="32"
   version="1.1"
   height="32"
   viewBox="0 0 32 32"
   id="svg17"
   sodipodi:docname="folder-documents.svg"
   inkscape:version="1.1 (c68e22c387, 2021-05-23)"
   xmlns:inkscape="http://www.inkscape.org/namespaces/inkscape"
   xmlns:sodipodi="http://sodipodi.sourceforge.net/DTD/sodipodi-0.dtd"
   xmlns:xlink="http://www.w3.org/1999/xlink"
   xmlns="http://www.w3.org/2000/svg"
   xmlns:svg="http://www.w3.org/2000/svg"
   xmlns:rdf="http://www.w3.org/1999/02/22-rdf-syntax-ns#"
   xmlns:cc="http://creativecommons.org/ns#"
   xmlns:dc="http://purl.org/dc/elements/1.1/">
  <sodipodi:namedview
     pagecolor="#ffffff"
     bordercolor="#666666"
     borderopacity="1"
     objecttolerance="10"
     gridtolerance="10"
     guidetolerance="10"
     inkscape:pageopacity="0"
     inkscape:pageshadow="2"
     inkscape:window-width="1920"
     inkscape:window-height="1007"
     id="namedview19"
     showgrid="true"
     inkscape:zoom="9.8125"
     inkscape:cx="-23.490446"
     inkscape:cy="1.9363057"
     inkscape:window-x="0"
     inkscape:window-y="0"
     inkscape:window-maximized="1"
     inkscape:current-layer="layer1"
     inkscape:pagecheckerboard="0">
    <inkscape:grid
       type="xygrid"
       id="grid887" />
  </sodipodi:namedview>
  <defs
     id="defs5455">
    <linearGradient
       inkscape:collect="always"
       xlink:href="#linearGradient851-6"
       id="linearGradient838-3"
       x1="6"
       y1="50.000134"
       x2="94.005508"
       y2="50.000134"
       gradientUnits="userSpaceOnUse"
       gradientTransform="matrix(0.9793575,0,0,1.000401,64.111153,974.12164)" />
    <linearGradient
       inkscape:collect="always"
       id="linearGradient851-6">
      <stop
         style="stop-color:#5fd35f;stop-opacity:1"
         offset="0"
         id="stop847-7" />
      <stop
         style="stop-color:#00e5e5;stop-opacity:1"
         offset="1"
         id="stop849-5" />
    </linearGradient>
    <linearGradient
       inkscape:collect="always"
       xlink:href="#linearGradient851-6"
       id="linearGradient1531"
       x1="402.77142"
       y1="519.79797"
       x2="430.20001"
       y2="519.79797"
       gradientUnits="userSpaceOnUse"
       gradientTransform="matrix(0.49999922,0,0,0.49999922,192.28601,273.89938)" />
  </defs>
  <metadata
     id="metadata5458">
    <rdf:RDF>
      <cc:Work
         rdf:about="">
        <dc:format>image/svg+xml</dc:format>
        <dc:type
           rdf:resource="http://purl.org/dc/dcmitype/StillImage" />
      </cc:Work>
    </rdf:RDF>
  </metadata>
  <g
     inkscape:label="Capa 1"
     inkscape:groupmode="layer"
     id="layer1"
     transform="translate(-384.57143,-515.798)">
    <g
       transform="matrix(0.37127695,0,0,0.37127695,358.58676,151.5578)"
       id="g4-3-3">
      <path
         style="color:#000000;font-style:normal;font-variant:normal;font-weight:normal;font-stretch:normal;font-size:medium;line-height:normal;font-family:Sans;-inkscape-font-specification:Sans;text-indent:0;text-align:start;text-decoration:none;text-decoration-line:none;letter-spacing:normal;word-spacing:normal;text-transform:none;writing-mode:lr-tb;direction:ltr;baseline-shift:baseline;text-anchor:start;display:inline;overflow:visible;visibility:visible;opacity:1;fill:url(#linearGradient838-3);fill-opacity:1;fill-rule:nonzero;stroke:none;stroke-width:3.9593;marker:none;enable-background:accumulate"
         d="m 77.393686,989.12767 c -3.993848,0 -7.40639,2.86108 -7.40639,6.65892 v 56.03891 c 0,2.3659 0.837538,3.886 2.463597,5.2652 1.626058,1.3794 3.313622,2.065 5.466961,2.065 h 68.458936 c 1.64357,0.029 1.59682,-2.2258 3.9e-4,-2.2497 l -68.55403,-0.04 c -2.118705,0 -3.879148,-1.4935 -3.879148,-1.4935 0,0 -1.622249,-1.217 -1.622249,-3.5472 v -56.03891 c 0,-2.61718 1.781451,-4.29635 4.89324,-4.26218 l 24.097547,-0.0121 11.49105,10.23489 c 0.34723,0.3131 0.79179,0.7594 1.25479,0.7694 l 33.41319,-0.012 c 1.70369,-0.01 1.64985,-2.3453 -0.0539,-2.3727 h -32.65545 l -12.18077,-10.53537 c -0.35154,-0.30169 -0.79566,-0.46767 -1.25479,-0.46894 z m 38.868264,2.90742 c -1.55477,-0.004 -1.55787,2.67199 0.0389,2.69479 l 29.80093,-0.0408 c 3.01968,-0.004 4.32788,0.97355 5.33333,1.9107 1.00545,0.93715 2.53333,3.23144 2.53333,5.59562 v 54.9594 c 0.009,1.8599 2.20121,1.9211 2.20775,0.064 l -0.006,-55.0239 c -3.1e-4,-3.21171 -1.05129,-5.9007 -2.93807,-7.65931 -1.88677,-1.75862 -4.45554,-2.501 -7.13094,-2.501 H 116.445 c -0.0612,-0.003 -0.12243,-0.003 -0.18362,0 z"
         id="path2-3-6-5"
         sodipodi:nodetypes="sssssccscsssccccccccsccsssccssscc" />
    </g>
    <path
       d="m 405.2428,532.08348 h -1.7145 c -0.23625,0 -0.42814,-0.1919 -0.42814,-0.42815 0,-0.23689 0.19189,-0.42857 0.42814,-0.42857 h 1.7145 c 0.23689,0 0.42857,0.19168 0.42857,0.42857 0,0.23625 -0.19168,0.42815 -0.42857,0.42815 z m 0,1.7145 h -1.7145 c -0.23625,0 -0.42814,-0.19168 -0.42814,-0.42857 0,-0.2369 0.19189,-0.42858 0.42814,-0.42858 h 1.7145 c 0.23689,0 0.42857,0.19168 0.42857,0.42858 0,0.23689 -0.19168,0.42857 -0.42857,0.42857 z m -4.28574,2.57142 h 4.28574 c 0.23689,0 0.42857,0.19189 0.42857,0.42857 0,0.2369 -0.19168,0.42879 -0.42857,0.42879 h -4.28574 c -0.23646,0 -0.42878,-0.19189 -0.42878,-0.42879 0,-0.23668 0.19232,-0.42857 0.42878,-0.42857 z m 0,-1.71407 h 4.28574 c 0.23689,0 0.42857,0.19189 0.42857,0.42814 0,0.2369 -0.19168,0.42857 -0.42857,0.42857 h -4.28574 c -0.23646,0 -0.42878,-0.19167 -0.42878,-0.42857 0,-0.23625 0.19232,-0.42814 0.42878,-0.42814 z m -3.85697,-3.2145 c 0,-0.59179 0.47954,-1.07142 1.07134,-1.07142 h 2.99992 c 0.5918,0 1.07143,0.47963 1.07143,1.07142 v 0.64265 1.28593 c 0,0.23689 -0.19168,0.42857 -0.42857,0.42857 -0.2369,0 -0.42858,-0.19168 -0.42858,-0.42857 v -1.28593 -0.42815 c 0,-0.23689 -0.19189,-0.42857 -0.42857,-0.42857 h -2.57155 c -0.23679,0 -0.42858,0.19168 -0.42858,0.42857 v 0.85672 c 0,0.23689 0.19179,0.42878 0.42858,0.42878 h 1.7146 c 0.23636,0 0.42815,0.19168 0.42815,0.42858 0,0.23689 -0.19179,0.42857 -0.42815,0.42857 h -1.92868 c -0.5918,0 -1.07134,-0.47941 -1.07134,-1.07122 z m 0.42817,4.92857 h 1.7146 c 0.23679,0 0.42857,0.19189 0.42857,0.42857 0,0.2369 -0.19181,0.42879 -0.42857,0.42879 h -1.7146 c -0.23636,0 -0.42814,-0.19189 -0.42814,-0.42879 -3e-5,-0.23668 0.19178,-0.42857 0.42814,-0.42857 z m 0,-1.71407 h 1.7146 c 0.23679,0 0.42857,0.19189 0.42857,0.42814 0,0.2369 -0.19181,0.42857 -0.42857,0.42857 h -1.7146 c -0.23636,0 -0.42814,-0.19167 -0.42814,-0.42857 -3e-5,-0.23625 0.19178,-0.42814 0.42814,-0.42814 z m 8.14311,5.14264 h -7.71444 -0.85684 -0.85725 c -1.42007,0 -2.57142,-1.15136 -2.57142,-2.57121 v -3 c 0,-0.23689 0.19178,-0.42878 0.42868,-0.42878 0.23635,0 0.42813,0.19189 0.42813,0.42878 v 0.42857 0.42814 2.14329 c 0,0.94671 0.76779,1.71406 1.71461,1.71406 h 1.07132 1.5 6.6429 c 0.5918,0 1.07124,-0.47962 1.07124,-1.07142 v -8.14263 c 0,-0.59202 -0.47944,-1.07143 -1.07124,-1.07143 h -8.14287 c -0.5918,0 -1.07132,0.47941 -1.07132,1.07143 v 2.78528 0.42878 3.85714 c 0,0.2369 -0.1919,0.42879 -0.42868,0.42879 -0.23679,0 -0.42868,-0.19189 -0.42868,-0.42879 v -2.57121 -1.26415 -0.87911 -0.21409 -2.35736 c -3e-5,-0.94671 0.76779,-1.71406 1.71458,-1.71406 h 8.57128 c 0.94696,0 1.71431,0.76735 1.71431,1.71406 v 8.57142 c 0,0.94693 -0.76735,1.7145 -1.71431,1.7145 z m -11.57127,-6.85714 c -0.2369,0 -0.42868,-0.19189 -0.42868,-0.42878 0,-0.23625 0.19178,-0.42857 0.42868,-0.42857 0.23635,0 0.42813,0.19232 0.42813,0.42857 0,0.23689 -0.19178,0.42878 -0.42813,0.42878 z"
       id="path2-3"
       style="fill:url(#linearGradient1531);fill-opacity:1;stroke-width:0.0267857" />
  </g>
</svg>
