<?xml version="1.0" encoding="UTF-8" standalone="no"?>
<svg
   width="32"
   version="1.1"
   height="32"
   viewBox="0 0 32 32"
   id="svg15"
   sodipodi:docname="folder-deb.svg"
   inkscape:version="1.1.1 (3bf5ae0d25, 2021-09-20)"
   xmlns:inkscape="http://www.inkscape.org/namespaces/inkscape"
   xmlns:sodipodi="http://sodipodi.sourceforge.net/DTD/sodipodi-0.dtd"
   xmlns:xlink="http://www.w3.org/1999/xlink"
   xmlns="http://www.w3.org/2000/svg"
   xmlns:svg="http://www.w3.org/2000/svg"
   xmlns:rdf="http://www.w3.org/1999/02/22-rdf-syntax-ns#"
   xmlns:cc="http://creativecommons.org/ns#"
   xmlns:dc="http://purl.org/dc/elements/1.1/">
  <sodipodi:namedview
     pagecolor="#ffffff"
     bordercolor="#666666"
     borderopacity="1"
     objecttolerance="10"
     gridtolerance="10"
     guidetolerance="10"
     inkscape:pageopacity="0"
     inkscape:pageshadow="2"
     inkscape:window-width="1920"
     inkscape:window-height="1015"
     id="namedview17"
     showgrid="true"
     inkscape:zoom="9.8125"
     inkscape:cx="1.4267516"
     inkscape:cy="18.038217"
     inkscape:window-x="0"
     inkscape:window-y="0"
     inkscape:window-maximized="1"
     inkscape:current-layer="g4"
     inkscape:pagecheckerboard="0">
    <inkscape:grid
       type="xygrid"
       id="grid862" />
  </sodipodi:namedview>
  <defs
     id="defs5455">
    <linearGradient
       inkscape:collect="always"
       xlink:href="#linearGradient4194"
       id="linearGradient854"
       gradientUnits="userSpaceOnUse"
       gradientTransform="matrix(1.0096513,0,0,1.0000004,62.672983,974.47281)"
       x1="6"
       y1="50.000134"
       x2="94.005508"
       y2="50.000134" />
    <linearGradient
       id="linearGradient4194">
      <stop
         style="stop-color:#b5006a"
         id="stop4196" />
      <stop
         offset="1"
         style="stop-color:#c70073"
         id="stop4198" />
    </linearGradient>
    <linearGradient
       inkscape:collect="always"
       xlink:href="#linearGradient4194"
       id="linearGradient843"
       x1="406.83743"
       y1="520.80609"
       x2="426.45447"
       y2="520.80609"
       gradientUnits="userSpaceOnUse"
       gradientTransform="matrix(1.388356,0,0,1.3461649,-465.19113,330.1235)" />
  </defs>
  <metadata
     id="metadata5458">
    <rdf:RDF>
      <cc:Work
         rdf:about="">
        <dc:format>image/svg+xml</dc:format>
        <dc:type
           rdf:resource="http://purl.org/dc/dcmitype/StillImage" />
      </cc:Work>
    </rdf:RDF>
  </metadata>
  <g
     inkscape:label="Capa 1"
     inkscape:groupmode="layer"
     id="layer1"
     transform="translate(-384.57143,-515.798)">
    <g
       transform="matrix(0.36013848,0,0,0.37142583,359.81878,151.2823)"
       id="g4">
      <path
         style="color:#000000;font-style:normal;font-variant:normal;font-weight:normal;font-stretch:normal;font-size:medium;line-height:normal;font-family:Sans;-inkscape-font-specification:Sans;text-indent:0;text-align:start;text-decoration:none;text-decoration-line:none;letter-spacing:normal;word-spacing:normal;text-transform:none;writing-mode:lr-tb;direction:ltr;baseline-shift:baseline;text-anchor:start;display:inline;overflow:visible;visibility:visible;fill:url(#linearGradient854);fill-opacity:1;fill-rule:nonzero;stroke:none;stroke-width:4.01928;marker:none;enable-background:accumulate"
         d="m 76.366409,989.47282 c -4.117392,0 -7.635486,2.85993 -7.635486,6.65626 v 56.01642 c 0,2.3649 0.86346,3.8844 2.539803,5.2631 1.676357,1.3787 3.416134,2.0641 5.636059,2.0641 h 70.576545 c 1.6944,0.029 1.64622,-2.2249 4e-4,-2.2488 l -70.674574,-0.04 c -2.184232,0 -3.999132,-1.4929 -3.999132,-1.4929 0,0 -1.672441,-1.2165 -1.672441,-3.5457 v -56.01629 c 0,-2.61615 1.836559,-4.29463 5.044605,-4.26048 l 24.842952,-0.0121 11.8465,10.23087 c 0.35796,0.3129 0.81627,0.759 1.29357,0.769 l 34.44675,-0.012 c 1.7564,-0.01 1.7009,-2.3444 -0.0555,-2.3717 H 114.8909 l -12.55754,-10.5312 c -0.36241,-0.30157 -0.82026,-0.46748 -1.2936,-0.46875 z m 40.070541,2.90625 c -1.60284,-0.004 -1.60605,2.67091 0.04,2.69371 l 30.72274,-0.041 c 3.11309,-0.004 4.46177,0.97319 5.4983,1.90994 1.03656,0.93677 2.61171,3.23018 2.61171,5.59328 v 54.9376 c 0.01,1.8591 2.26928,1.9203 2.27603,0.064 l -0.006,-55.0019 c -3.2e-4,-3.21032 -1.08381,-5.89824 -3.02897,-7.65613 -1.94511,-1.75793 -4.59336,-2.50001 -7.35151,-2.50001 h -30.57351 c -0.0632,-0.003 -0.12634,-0.003 -0.18932,0 z"
         id="path2-3"
         sodipodi:nodetypes="sssssccscsssccccccccsccsssccssscc" />
      <path
         style="color:#232629;fill:url(#linearGradient843);fill-opacity:1;stroke:none;stroke-width:1.49129"
         d="m 115.54696,1047.2087 c -1.81733,-0.2937 -4.39193,-1.3216 -5.90636,-2.276 -3.48326,-2.2027 -5.76312,-4.6528 -7.17222,-7.7108 -0.45434,-1.0279 -0.72394,-1.7621 -1.51445,-4.4053 -0.15144,-0.6608 -0.40838,-1.4013 -0.50316,-1.632 -0.1599,-0.3892 -0.16693,-0.5205 -0.0975,-1.8187 0.0662,-1.1748 0.30285,-2.9369 0.45428,-3.0779 0.0233,-0.034 0.0744,-0.041 0.11759,-0.018 0.14185,0.082 0.27401,-0.2968 0.40332,-1.161 0.0705,-0.4734 0.18228,-0.9699 0.24748,-1.1032 0.0654,-0.133 0.17573,-0.4278 0.24555,-0.6542 0.16071,-0.5211 0.37982,-0.9216 1.05721,-1.9325 0.29787,-0.4445 0.60756,-0.9288 0.68814,-1.0761 0.0952,-0.1732 0.19841,-0.2581 0.29351,-0.2405 0.0923,0.017 0.2428,-0.096 0.40122,-0.2981 0.6887,-0.8814 3.93252,-3.4817 4.23268,-3.393 0.0815,0.025 0.42423,-0.086 0.76067,-0.2427 0.60856,-0.2851 0.87665,-0.3511 0.87665,-0.2157 0,0.038 -0.089,0.1279 -0.19544,0.1972 -0.18866,0.1223 -0.18486,0.1242 0.10787,0.058 0.16719,-0.037 0.44883,-0.092 0.62582,-0.1201 0.21869,-0.034 0.30758,-0.086 0.27742,-0.1585 -0.0271,-0.064 0.0362,-0.1279 0.15597,-0.1576 0.29905,-0.074 0.76501,-0.062 0.76501,0.021 0,0.099 -0.26644,0.1986 -0.47777,0.1792 -0.14366,-0.012 -0.15153,0 -0.0426,0.067 0.1069,0.068 0.10815,0.084 0.007,0.086 -0.0676,5e-4 -0.10066,0.023 -0.073,0.046 0.0278,0.026 0.2084,-0.03 0.40254,-0.1223 0.19413,-0.093 0.54977,-0.2068 0.79023,-0.2548 0.29602,-0.06 0.43722,-0.1278 0.43722,-0.2122 0,-0.1078 0.13717,-0.119 1.06417,-0.071 0.58524,0.03 1.46845,0.1155 1.96265,0.1897 0.89844,0.1359 0.89854,0.1359 1.23338,-0.042 0.40157,-0.2151 1.04752,-0.2431 1.21727,-0.054 0.0625,0.069 0.23302,0.1843 0.37981,0.2549 0.23952,0.1161 0.25536,0.1165 0.15414,0 -0.19227,-0.2157 -0.001,-0.2102 0.74116,0.022 2.39372,0.746 4.3451,2.0745 5.79314,3.944 0.34338,0.4434 0.36415,0.6428 0.0385,0.3729 l -0.18611,-0.1544 0.14162,0.2587 c 0.0772,0.1419 0.14166,0.3022 0.14166,0.3553 0,0.054 0.2302,0.446 0.51148,0.873 0.63409,0.9623 0.81148,1.2865 0.76894,1.4053 -0.0193,0.052 -0.29916,-0.288 -0.62423,-0.7532 -0.3251,-0.4652 -0.80614,-1.0919 -1.06903,-1.3927 -0.39259,-0.4493 -0.49541,-0.5261 -0.57551,-0.4301 -0.0547,0.064 -0.18458,0.1285 -0.29106,0.1425 l -0.19357,0.027 0.19144,0.3493 c 0.10482,0.1922 0.20551,0.3104 0.22258,0.2627 0.0922,-0.2552 0.51708,0.08 0.71063,0.5601 0.063,0.1556 0.22965,0.476 0.37089,0.7121 0.14061,0.236 0.23889,0.4457 0.21721,0.4659 -0.0226,0.021 -0.1506,-0.043 -0.28606,-0.1436 l -0.24657,-0.1805 0.16815,0.2686 c 0.0932,0.1477 0.24737,0.3285 0.34415,0.4016 0.12176,0.092 0.17845,0.2355 0.18385,0.4597 0.01,0.4139 0.26471,0.9028 0.4033,0.7739 0.21586,-0.2009 0.26026,-0.074 0.20592,0.5825 -0.0394,0.4846 -0.0196,0.804 0.0754,1.1431 0.14368,0.5148 0.11204,0.6418 -0.0979,0.4012 -0.13397,-0.153 -0.13522,-0.1529 -0.0747,0.01 0.12912,0.3404 0.22483,0.8497 0.19811,1.0495 -0.05,0.373 -0.2004,0.218 -0.25221,-0.2598 l -0.0501,-0.4664 -0.0146,0.4963 c -0.007,0.273 -0.0761,0.8004 -0.15308,1.1721 -0.0761,0.3754 -0.11565,0.8304 -0.0889,1.0235 0.054,0.3634 0.0147,0.3775 -0.3109,0.1182 -0.13286,-0.1053 -0.15576,-0.086 -0.24696,0.2307 -0.0759,0.2654 -0.0754,0.4164 0.003,0.6387 0.0576,0.16 0.0907,0.3772 0.0727,0.4824 -0.0376,0.243 -0.24719,0.3187 -0.24719,0.09 0,-0.2881 -0.11829,-0.1856 -0.47777,0.416 -0.97211,1.6243 -2.51023,2.8813 -4.25113,3.4742 -1.0263,0.3496 -1.71471,0.4793 -2.87206,0.5409 l -1.04246,0.056 0.51505,0.1478 c 0.4153,0.1201 0.65918,0.1365 1.25959,0.092 0.7866,-0.06 1.7101,-0.2179 2.12891,-0.3661 0.16711,-0.06 0.28002,-0.062 0.33774,-0.01 0.13592,0.1269 -1.07358,0.625 -1.79172,0.7379 -1.22195,0.1921 -2.85762,-0.015 -4.30153,-0.546 -0.97964,-0.3599 -2.43343,-1.2972 -2.21064,-1.4253 0.0415,-0.025 0.31877,0.098 0.61461,0.2723 0.37815,0.2225 0.53784,0.281 0.53784,0.1972 0,-0.1583 0.0568,-0.1507 0.35638,0.049 0.27131,0.1798 1.10575,0.5136 1.70677,0.6827 0.65515,0.1844 0.40111,-0.038 -0.47777,-0.4203 -2.77892,-1.2056 -3.93263,-2.4114 -4.50761,-4.7113 -0.21079,-0.8433 0.0142,-2.6923 0.39961,-3.2713 0.0977,-0.1467 0.17723,-0.3272 0.17723,-0.401 0,-0.3203 0.57406,-1.1667 1.16307,-1.7148 1.03796,-0.9659 2.11711,-1.3668 3.51803,-1.3071 0.67719,0.029 0.96641,0.085 1.53001,0.2931 0.63923,0.2369 1.44413,0.7328 1.19761,0.7378 -0.0587,10e-4 -0.31201,-0.077 -0.56461,-0.1758 -0.38398,-0.149 -0.6302,-0.1788 -1.5017,-0.1819 -1.22384,0 -1.82198,0.1571 -2.69296,0.7274 -1.23477,0.8084 -1.9214,1.7395 -2.16458,2.9354 -0.16319,0.8024 -0.16817,1.0248 -0.0403,1.8208 0.0727,0.4586 0.12606,0.5932 0.21716,0.5604 0.0762,-0.028 0.12176,0.012 0.12176,0.111 0,0.2842 0.66469,1.4373 1.12574,1.9528 1.10957,1.2408 2.90441,2.0325 4.60749,2.0325 0.8839,0 1.59843,-0.1579 2.25616,-0.4985 0.2641,-0.1363 0.59748,-0.304 0.7408,-0.3716 0.50573,-0.2385 0.81948,-0.511 1.18627,-1.0302 0.20392,-0.2885 0.42566,-0.5247 0.49267,-0.5247 0.0991,0 0.0952,0.041 -0.0237,0.2223 -0.38771,0.5955 0.52221,-0.4872 0.99347,-1.182 l 0.52788,-0.7782 -0.0583,-0.5112 c -0.0562,-0.4912 -0.0461,-0.5212 0.20538,-0.7679 0.24325,-0.2376 0.26502,-0.3079 0.29312,-0.943 0.0258,-0.5684 0.007,-0.6864 -0.1,-0.6871 -0.10024,0 -0.14272,-0.1503 -0.18644,-0.6474 -0.0579,-0.658 -0.63291,-2.872 -0.7669,-2.9491 -0.0398,-0.024 -0.15279,-0.2362 -0.24953,-0.4732 -0.32644,-0.7996 -0.8992,-1.5684 -1.79216,-2.4061 -1.28491,-1.2052 -2.90345,-2.1359 -4.43232,-2.5486 -1.30048,-0.351 -3.50882,-0.2236 -5.08178,0.2932 -0.76772,0.2522 -1.52409,0.5862 -1.65175,0.7293 -0.0586,0.065 -0.14135,0.097 -0.1866,0.071 -0.046,-0.027 -0.034,-0.099 0.0311,-0.1723 0.2898,-0.325 -0.67179,0.2696 -1.29085,0.7982 -0.37423,0.3195 -0.69408,0.5907 -0.71075,0.6025 -0.016,0.011 0.0571,5e-4 0.16181,-0.026 0.17596,-0.042 0.18336,-0.032 0.089,0.1341 -0.0616,0.1055 -0.3796,0.2975 -0.76993,0.4623 -0.65591,0.2768 -1.08011,0.581 -1.41713,1.0164 -0.1344,0.1738 -0.14182,0.2112 -0.0357,0.1732 0.074,-0.027 0.13564,-0.01 0.13564,0.037 0,0.2309 -0.22539,0.4886 -0.5593,0.6395 -0.73976,0.3344 -2.03933,2.1209 -2.73538,3.7602 -0.31024,0.7306 -0.30533,0.7052 -0.13634,0.7052 0.17778,0 0.16537,0.1879 -0.0777,1.1972 -0.35569,1.47 -0.35612,1.4229 0.0314,3.4911 0.47199,2.5199 0.74773,3.3617 1.27202,3.8832 0.12384,0.1229 0.24256,0.3827 0.29585,0.6442 0.0639,0.3121 0.17045,0.5182 0.3704,0.7143 0.18231,0.1788 0.24308,0.2884 0.17305,0.3122 -0.13703,0.046 0.29275,0.6434 0.68508,0.9506 0.19747,0.1545 0.3437,0.2065 0.50223,0.1783 0.34734,-0.062 0.70096,0.1248 1.24434,0.655 0.56474,0.5514 0.62132,0.6996 0.24757,0.6486 -0.24102,-0.033 -0.24656,-0.027 -0.12842,0.1413 0.0682,0.097 0.31992,0.3298 0.55928,0.5176 0.33623,0.2639 0.42284,0.378 0.38061,0.5017 -0.0612,0.1779 0.11134,0.344 0.50404,0.4834 0.24286,0.087 0.3211,0.2726 0.13786,0.3293 -0.0562,0.018 0.28673,0.3447 0.76007,0.728 0.53334,0.4318 0.89209,0.6684 0.94324,0.6222 0.13495,-0.1226 0.30817,-0.086 0.31124,0.067 0.003,0.1656 0.15672,0.3394 0.7083,0.8033 0.34854,0.2932 0.43554,0.33 0.64916,0.2753 0.19568,-0.051 0.31872,-0.018 0.59425,0.1553 0.54969,0.3458 0.88301,0.4838 1.16837,0.4838 0.28084,0 0.32082,0.074 0.17504,0.3287 -0.0764,0.1338 -0.0612,0.1563 0.1169,0.1563 0.11246,0 0.43386,0.072 0.7116,0.1617 0.6315,0.2022 0.89491,0.2159 0.73667,0.038 -0.23383,-0.2621 0.0125,-0.1905 0.84943,0.2454 1.16726,0.609 1.75779,0.6786 4.0821,0.481 0.34411,-0.03 0.45602,-0.011 0.45602,0.069 0,0.07 -0.29855,0.1756 -0.84698,0.299 -0.7208,0.1623 -1.10561,0.1937 -2.58431,0.2109 -1.16518,0.012 -1.96112,-0.015 -2.41678,-0.09 z m -1.18824,-12.1176 c 0,-0.017 -0.1069,-0.092 -0.23892,-0.1664 l -0.23891,-0.1349 0.20514,0.1664 c 0.20011,0.1624 0.27269,0.1985 0.27269,0.1349 z m 11.96034,-8.4714 c -0.0282,-0.065 -0.0473,-0.044 -0.0534,0.049 -0.004,0.086 0.016,0.1326 0.0446,0.1052 0.0293,-0.027 0.0321,-0.097 0.006,-0.1549 z m -19.71327,-8.4777 c 0.10746,-0.1283 0.10455,-0.131 -0.0329,-0.031 -0.084,0.061 -0.15201,0.125 -0.15201,0.1409 0,0.066 0.0709,0.024 0.18482,-0.1103 z m 0.9879,-0.7477 c 0.0876,-0.09 0.13731,-0.1617 0.1126,-0.1617 -0.0247,0 -0.11302,0.072 -0.20065,0.1617 -0.0876,0.09 -0.13731,0.1616 -0.11259,0.1616 0.0247,0 0.11315,-0.072 0.20064,-0.1616 z m 1.09346,-0.5682 c 0.28635,-0.091 0.44907,-0.1055 0.50947,-0.051 0.0609,0.057 0.28443,0.024 0.70148,-0.1038 0.33702,-0.1023 0.59727,-0.2014 0.57837,-0.219 -0.02,-0.017 -0.29645,0.05 -0.61665,0.1488 -0.4398,0.1362 -0.59813,0.157 -0.64713,0.084 -0.0828,-0.1252 -0.87334,0.1218 -1.2131,0.3775 l -0.23217,0.1752 0.24951,-0.1388 c 0.13689,-0.076 0.43883,-0.1991 0.67022,-0.272 z m 2.50438,-0.2053 c 0.25229,-0.069 0.44361,-0.1403 0.42528,-0.1578 -0.04,-0.037 -0.93926,0.2017 -0.93926,0.2503 0,0.049 0.007,0.048 0.51398,-0.093 z m 1.44053,-0.4406 0.34751,-0.059 -0.30407,-0.01 c -0.16722,0 -0.40173,0.049 -0.5212,0.1178 -0.14003,0.081 -0.15594,0.1031 -0.0426,0.066 0.0959,-0.032 0.33011,-0.085 0.52123,-0.1178 z m 0.69,-0.1525 c 0.0273,-0.04 -0.0298,-0.055 -0.12592,-0.031 -0.20283,0.05 -0.22851,0.1036 -0.0478,0.1036 0.0687,0 0.14662,-0.033 0.1739,-0.073 z m 2.80468,0.025 c -0.0293,-0.027 -0.10344,-0.03 -0.1665,0 -0.0691,0.026 -0.048,0.044 0.0536,0.049 0.0923,0 0.14223,-0.014 0.11288,-0.042 z m -0.51943,-0.088 c -0.084,-0.021 -0.22042,-0.021 -0.30402,0 -0.084,0.021 -0.0144,0.037 0.15202,0.037 0.16723,0 0.23562,-0.015 0.152,-0.037 z m -0.86636,-0.085 c -0.17791,-0.018 -0.49066,-0.018 -0.69493,-5e-4 -0.20434,0.018 -0.0594,0.031 0.32345,0.032 0.3822,3e-4 0.54937,-0.012 0.37148,-0.031 z m -1.1334,-0.07 c -0.0293,-0.027 -0.10343,-0.03 -0.16651,0 -0.0691,0.026 -0.048,0.044 0.0536,0.05 0.0923,0 0.14226,-0.014 0.11288,-0.042 z m -0.58801,19.4287 c -0.88487,-0.59 -1.21269,-0.8951 -1.21269,-1.1288 0,-0.1244 0.0304,-0.2253 0.0669,-0.2253 0.12593,0 1.60451,1.4367 1.57219,1.5271 -0.02,0.053 -0.19722,-0.021 -0.42646,-0.173 z m -0.45534,-1.4979 c -0.45955,-0.4322 -0.60677,-0.6646 -0.42106,-0.6646 0.11065,0 0.9667,0.9111 0.9667,1.03 0,0.057 -0.01,0.1013 -0.0251,0.1013 -0.0125,0 -0.24798,-0.2102 -0.52123,-0.4671 z m 5.08456,-1.7689 c -0.24265,-0.091 -0.0919,-0.2599 0.30404,-0.3388 0.22694,-0.044 0.58758,-0.1553 0.80144,-0.2444 0.21385,-0.09 0.40423,-0.1477 0.42309,-0.1301 0.0201,0.018 -0.077,0.1973 -0.21506,0.3993 -0.24785,0.365 -0.2523,0.3672 -0.72716,0.3611 -0.26276,0 -0.52662,-0.025 -0.58635,-0.047 z m 2.60604,-1.8082 c -0.23448,-0.088 -0.24418,-0.237 -0.0478,-0.7452 0.16816,-0.4366 0.34255,-0.5227 0.24551,-0.122 -0.0348,0.1443 -0.0804,0.3537 -0.1033,0.4648 l -0.0396,0.2021 0.17364,-0.184 c 0.10247,-0.1078 0.19782,-0.3644 0.23286,-0.6255 0.0326,-0.2429 0.0944,-0.4217 0.13606,-0.3973 0.1069,0.062 0.0964,0.7009 -0.0212,1.1306 -0.10149,0.3753 -0.19291,0.419 -0.57603,0.2757 z m -20.556871,-1.0145 c -0.0293,-0.07 -0.0539,-0.3461 -0.0539,-0.613 0,-0.352 0.0301,-0.4759 0.10788,-0.4517 0.129391,0.039 0.204781,1.1925 0.0773,1.1925 -0.0439,0 -0.104691,-0.058 -0.134121,-0.128 z m 20.898171,-1.8907 c -0.13481,-0.1699 -0.17657,-0.304 -0.13786,-0.446 0.0776,-0.2915 0.28427,-0.25 0.43594,0.089 0.23608,0.5256 0.0314,0.772 -0.29763,0.358 z m -20.915981,-1.2833 c -0.006,-0.4584 -7e-5,-0.4725 0.217941,-0.4648 0.1849,0 0.22958,0.053 0.25081,0.2548 0.0249,0.2288 -0.24339,0.6827 -0.402181,0.6827 -0.0329,0 -0.0632,-0.2128 -0.0666,-0.4727 z m 22.517291,-9.937 c 0.0111,-0.7233 0.14255,-0.9684 0.24515,-0.462 0.0708,0.3529 -0.0206,0.9761 -0.15716,1.0826 -0.0743,0.058 -0.0976,-0.1 -0.089,-0.6206 z m -11.41439,-0.4335 c 0.0348,-0.097 1.23327,-0.5542 1.45433,-0.5542 0.2597,0 -0.20617,0.2962 -0.74348,0.4725 -0.5991,0.1968 -0.75861,0.2152 -0.71085,0.082 z"
         class="ColorScheme-Text"
         id="path12" />
    </g>
  </g>
</svg>
