<?xml version="1.0" encoding="UTF-8" standalone="no"?>
<svg
   width="32"
   version="1.1"
   height="32"
   viewBox="0 0 32 32"
   id="svg17"
   sodipodi:docname="folder-tar.svg"
   inkscape:version="1.1 (c68e22c387, 2021-05-23)"
   xmlns:inkscape="http://www.inkscape.org/namespaces/inkscape"
   xmlns:sodipodi="http://sodipodi.sourceforge.net/DTD/sodipodi-0.dtd"
   xmlns:xlink="http://www.w3.org/1999/xlink"
   xmlns="http://www.w3.org/2000/svg"
   xmlns:svg="http://www.w3.org/2000/svg"
   xmlns:rdf="http://www.w3.org/1999/02/22-rdf-syntax-ns#"
   xmlns:cc="http://creativecommons.org/ns#"
   xmlns:dc="http://purl.org/dc/elements/1.1/">
  <sodipodi:namedview
     pagecolor="#ffffff"
     bordercolor="#666666"
     borderopacity="1"
     objecttolerance="10"
     gridtolerance="10"
     guidetolerance="10"
     inkscape:pageopacity="0"
     inkscape:pageshadow="2"
     inkscape:window-width="1920"
     inkscape:window-height="1007"
     id="namedview19"
     showgrid="false"
     inkscape:zoom="9.8125"
     inkscape:cx="-10.751592"
     inkscape:cy="3.3630573"
     inkscape:window-x="0"
     inkscape:window-y="0"
     inkscape:window-maximized="1"
     inkscape:current-layer="layer1"
     inkscape:pagecheckerboard="0" />
  <defs
     id="defs5455">
    <linearGradient
       inkscape:collect="always"
       xlink:href="#linearGradient853-6"
       id="linearGradient854-3"
       gradientUnits="userSpaceOnUse"
       gradientTransform="matrix(0.36361408,0,0,0.37142577,382.38973,513.22773)"
       x1="6"
       y1="50.000134"
       x2="94.005508"
       y2="50.000134" />
    <linearGradient
       inkscape:collect="always"
       id="linearGradient853-6">
      <stop
         style="stop-color:#ffccaa;stop-opacity:1"
         offset="0"
         id="stop849-7" />
      <stop
         style="stop-color:#80e5ff;stop-opacity:1"
         offset="1"
         id="stop851-5" />
    </linearGradient>
    <linearGradient
       inkscape:collect="always"
       xlink:href="#linearGradient853-6"
       id="linearGradient1538"
       x1="404.58542"
       y1="520.79797"
       x2="428.58542"
       y2="520.79797"
       gradientUnits="userSpaceOnUse"
       gradientTransform="matrix(0.50000014,0,0,0.50000014,192.28566,273.89988)" />
    <linearGradient
       inkscape:collect="always"
       xlink:href="#linearGradient853-6"
       id="linearGradient1584"
       x1="0.00057409279"
       y1="14.955942"
       x2="21.97434"
       y2="14.955942"
       gradientUnits="userSpaceOnUse" />
    <linearGradient
       inkscape:collect="always"
       xlink:href="#linearGradient853-6"
       id="linearGradient886"
       gradientUnits="userSpaceOnUse"
       x1="0.00057409279"
       y1="14.955942"
       x2="21.97434"
       y2="14.955942" />
    <linearGradient
       inkscape:collect="always"
       xlink:href="#linearGradient853-6"
       id="linearGradient888"
       gradientUnits="userSpaceOnUse"
       x1="0.00057409279"
       y1="14.955942"
       x2="21.97434"
       y2="14.955942" />
    <linearGradient
       inkscape:collect="always"
       xlink:href="#linearGradient853-6"
       id="linearGradient890"
       gradientUnits="userSpaceOnUse"
       x1="0.00057409279"
       y1="14.955942"
       x2="21.97434"
       y2="14.955942" />
    <linearGradient
       inkscape:collect="always"
       xlink:href="#linearGradient853-6"
       id="linearGradient892"
       gradientUnits="userSpaceOnUse"
       x1="0.00057409279"
       y1="14.955942"
       x2="21.97434"
       y2="14.955942" />
  </defs>
  <metadata
     id="metadata5458">
    <rdf:RDF>
      <cc:Work
         rdf:about="">
        <dc:format>image/svg+xml</dc:format>
        <dc:type
           rdf:resource="http://purl.org/dc/dcmitype/StillImage" />
      </cc:Work>
    </rdf:RDF>
  </metadata>
  <g
     inkscape:label="Capa 1"
     inkscape:groupmode="layer"
     id="layer1"
     transform="translate(-384.57143,-515.798)">
    <path
       style="color:#000000;font-style:normal;font-variant:normal;font-weight:normal;font-stretch:normal;font-size:medium;line-height:normal;font-family:Sans;-inkscape-font-specification:Sans;text-indent:0;text-align:start;text-decoration:none;text-decoration-line:none;letter-spacing:normal;word-spacing:normal;text-transform:none;writing-mode:lr-tb;direction:ltr;baseline-shift:baseline;text-anchor:start;display:inline;overflow:visible;visibility:visible;fill:url(#linearGradient854-3);fill-opacity:1;fill-rule:nonzero;stroke:none;stroke-width:1.47001;marker:none;enable-background:accumulate"
       d="m 387.32126,518.79911 c -1.48283,0 -2.74983,1.06225 -2.74983,2.47231 v 20.80597 c 0,0.87838 0.31097,1.44276 0.91468,1.95485 0.60372,0.51208 1.23028,0.76666 2.02976,0.76666 h 25.41731 c 0.61022,0.0107 0.59287,-0.82639 1.5e-4,-0.83527 l -25.45262,-0.0148 c -0.78662,0 -1.44024,-0.5545 -1.44024,-0.5545 0,0 -0.60231,-0.45184 -0.60231,-1.31696 v -20.80598 c 0,-0.9717 0.66142,-1.59513 1.81676,-1.58245 l 8.94689,-0.005 4.26638,3.80002 c 0.12891,0.11622 0.29397,0.28191 0.46586,0.28562 l 12.4056,-0.005 c 0.63254,-0.004 0.61256,-0.87077 -0.02,-0.88091 h -12.12426 l -4.52245,-3.91156 c -0.13052,-0.11201 -0.29541,-0.17364 -0.46588,-0.17411 z m 14.43093,1.07946 c -0.57724,-0.002 -0.5784,0.99204 0.0144,1.00051 l 11.06444,-0.0152 c 1.12114,-0.002 1.60685,0.36147 1.98015,0.7094 0.3733,0.34794 0.94057,1.19977 0.94057,2.07752 v 20.40521 c 0.003,0.69051 0.81726,0.71325 0.81969,0.0238 l -0.002,-20.42909 c -1.2e-4,-1.19243 -0.39032,-2.19079 -1.09085,-2.84371 -0.70051,-0.65294 -1.65424,-0.92857 -2.64756,-0.92857 h -11.01069 c -0.0227,-10e-4 -0.0455,-10e-4 -0.0682,0 z"
       id="path2-3-3-3"
       sodipodi:nodetypes="sssssccscsssccccccccsccsssccssscc" />
    <path
       fill-rule="evenodd"
       clip-rule="evenodd"
       d="m 404.86458,540.29896 h -6.429 c -0.23636,0 -0.42815,-0.19232 -0.42815,-0.42857 0,-0.2369 0.19179,-0.42879 0.42815,-0.42879 h 6.429 c 0.47336,0 0.85714,-0.38379 0.85714,-0.85714 v -8.57144 c 0,-0.47335 -0.38378,-0.85692 -0.85714,-0.85692 h -8.57165 c -0.47325,0 -0.85725,0.38357 -0.85725,0.85692 v 8.14287 c 0,0.23689 -0.19168,0.42857 -0.42857,0.42857 -0.23646,0 -0.42868,-0.19168 -0.42868,-0.42857 v -8.14287 c 0,-0.94671 0.7679,-1.71407 1.7145,-1.71407 h 8.57165 c 0.9465,0 1.71386,0.76736 1.71386,1.71407 v 8.57144 c 0,0.94671 -0.76736,1.7145 -1.71386,1.7145 z m -8.14297,-0.85736 c 0.23636,0 0.42857,0.19189 0.42857,0.42879 0,0.23625 -0.19221,0.42857 -0.42857,0.42857 -0.23689,0 -0.42868,-0.19232 -0.42868,-0.42857 0,-0.2369 0.19179,-0.42879 0.42868,-0.42879 z"
       id="path2"
       style="fill:url(#linearGradient1538);fill-opacity:1;stroke-width:0.0267857" />
    <g
       id="g10"
       transform="matrix(0.30100227,0,0,0.30100227,397.29626,529.80968)"
       style="fill:url(#linearGradient1584);fill-opacity:1">
      <path
         d="M 2.56,0.383 C 1.928,-0.162 0.956,-0.107 0.391,0.504 -0.174,1.117 -0.119,2.057 0.512,2.606 0.574,2.66 5.356,6.906 7.918,14.217 8.792,13.709 9.809,13.41 10.894,13.395 8.116,5.279 2.846,0.629 2.56,0.383 Z"
         id="path2-3-5"
         style="fill:url(#linearGradient886);fill-opacity:1" />
      <path
         d="m 21.585,0.504 c -0.563,-0.611 -1.539,-0.67 -2.173,-0.121 -0.286,0.246 -5.555,4.896 -8.332,13.012 1.085,0.016 2.1,0.316 2.973,0.822 C 16.615,6.906 21.399,2.66 21.46,2.605 22.093,2.059 22.15,1.119 21.585,0.504 Z"
         id="path4"
         style="fill:url(#linearGradient888);fill-opacity:1" />
      <path
         d="m 10.399,17.904 h 1.175 c 1.336,0 2.445,1.225 2.584,2.51 l 0.637,5.732 C 15.48,25.91 16,25.41 16,24.664 V 19.182 C 16,16.532 13.74,14.381 10.998,14.381 8.262,14.381 6,16.531 6,19.182 v 5.482 c 0,0.746 0.508,1.375 1.194,1.613 l 0.613,-5.863 c 0.142,-1.285 1.258,-2.51 2.592,-2.51 z"
         id="path6"
         style="fill:url(#linearGradient890);fill-opacity:1" />
      <path
         d="m 13.805,26.908 -0.668,-6.391 c -0.082,-0.773 -0.758,-1.613 -1.563,-1.613 h -1.175 c -0.805,0 -1.479,0.84 -1.563,1.613 l -0.668,6.266 c -0.084,0.771 0.175,1.606 0.711,2.183 0.538,0.578 1.302,0.94 2.104,0.94 0.808,0 1.567,-0.314 2.106,-0.893 0.541,-0.575 0.799,-1.333 0.716,-2.105 z m -2.821,1.262 c -0.974,0 -1.764,-0.766 -1.764,-1.709 0,-0.943 0.79,-1.707 1.764,-1.707 0.977,0 1.766,0.764 1.766,1.707 0,0.943 -0.789,1.709 -1.766,1.709 z"
         id="path8"
         style="fill:url(#linearGradient892);fill-opacity:1" />
    </g>
  </g>
</svg>
