<?xml version="1.0" encoding="UTF-8" standalone="no"?>
<svg
   width="32"
   version="1.1"
   height="32"
   viewBox="0 0 32 32"
   id="svg15"
   sodipodi:docname="folder-black.svg"
   inkscape:version="1.1 (c68e22c387, 2021-05-23)"
   xmlns:inkscape="http://www.inkscape.org/namespaces/inkscape"
   xmlns:sodipodi="http://sodipodi.sourceforge.net/DTD/sodipodi-0.dtd"
   xmlns:xlink="http://www.w3.org/1999/xlink"
   xmlns="http://www.w3.org/2000/svg"
   xmlns:svg="http://www.w3.org/2000/svg"
   xmlns:rdf="http://www.w3.org/1999/02/22-rdf-syntax-ns#"
   xmlns:cc="http://creativecommons.org/ns#"
   xmlns:dc="http://purl.org/dc/elements/1.1/">
  <sodipodi:namedview
     pagecolor="#ffffff"
     bordercolor="#666666"
     borderopacity="1"
     objecttolerance="10"
     gridtolerance="10"
     guidetolerance="10"
     inkscape:pageopacity="0"
     inkscape:pageshadow="2"
     inkscape:window-width="1920"
     inkscape:window-height="1007"
     id="namedview17"
     showgrid="true"
     inkscape:zoom="9.8125"
     inkscape:cx="-15.43949"
     inkscape:cy="5.5031847"
     inkscape:window-x="0"
     inkscape:window-y="0"
     inkscape:window-maximized="1"
     inkscape:current-layer="layer1"
     inkscape:pagecheckerboard="0">
    <inkscape:grid
       type="xygrid"
       id="grid907" />
  </sodipodi:namedview>
  <defs
     id="defs5455">
    <linearGradient
       inkscape:collect="always"
       xlink:href="#linearGradient853"
       id="linearGradient854"
       gradientUnits="userSpaceOnUse"
       gradientTransform="matrix(0.36362317,0,0,0.37138134,382.38965,513.23044)"
       x1="6"
       y1="50.000134"
       x2="94.005508"
       y2="50.000134" />
    <linearGradient
       inkscape:collect="always"
       id="linearGradient853">
      <stop
         style="stop-color:#2d2d2d;stop-opacity:1"
         offset="0"
         id="stop849" />
      <stop
         style="stop-color:#404040;stop-opacity:1"
         offset="1"
         id="stop851" />
    </linearGradient>
  </defs>
  <metadata
     id="metadata5458">
    <rdf:RDF>
      <cc:Work
         rdf:about="">
        <dc:format>image/svg+xml</dc:format>
        <dc:type
           rdf:resource="http://purl.org/dc/dcmitype/StillImage" />
      </cc:Work>
    </rdf:RDF>
  </metadata>
  <g
     inkscape:label="Capa 1"
     inkscape:groupmode="layer"
     id="layer1"
     transform="translate(-384.57143,-515.798)">
    <path
       style="color:#000000;font-style:normal;font-variant:normal;font-weight:normal;font-stretch:normal;font-size:medium;line-height:normal;font-family:Sans;-inkscape-font-specification:Sans;text-indent:0;text-align:start;text-decoration:none;text-decoration-line:none;letter-spacing:normal;word-spacing:normal;text-transform:none;writing-mode:lr-tb;direction:ltr;baseline-shift:baseline;text-anchor:start;display:inline;overflow:visible;visibility:visible;opacity:1;fill:url(#linearGradient854);fill-opacity:1;fill-rule:nonzero;stroke:none;stroke-width:1.46997;marker:none;enable-background:accumulate"
       d="m 387.32135,518.80133 c -1.4829,0 -2.74992,1.06198 -2.74992,2.47193 v 20.80347 c 0,0.87826 0.31095,1.44256 0.91473,1.95459 0.60372,0.51205 1.23026,0.76657 2.02997,0.76657 h 25.41782 c 0.61023,0.0112 0.59274,-0.82631 1.3e-4,-0.83506 l -25.45324,-0.0152 c -0.78663,0 -1.4404,-0.55444 -1.4404,-0.55444 0,0 -0.60211,-0.45175 -0.60211,-1.31684 v -20.80338 c 0,-0.97158 0.66127,-1.59491 1.81661,-1.58219 l 8.94709,-0.006 4.26656,3.7997 c 0.12891,0.11603 0.294,0.28177 0.46596,0.28551 l 12.40584,-0.006 c 0.63252,-0.006 0.61253,-0.87071 -0.0207,-0.88085 h -12.12454 l -4.52257,-3.91109 c -0.1305,-0.11173 -0.29539,-0.17366 -0.46582,-0.17405 z m 14.43128,1.07931 c -0.57733,-0.003 -0.57838,0.99181 0.0136,1.00033 l 11.06467,-0.0149 c 1.1212,-0.003 1.60694,0.36141 1.98018,0.70929 0.37328,0.34786 0.94065,1.19961 0.94065,2.07729 v 20.40263 c 0.006,0.69051 0.8172,0.71323 0.8197,0.0239 l -0.004,-20.42662 c -1.2e-4,-1.19228 -0.39037,-2.19051 -1.09093,-2.84335 -0.70051,-0.65283 -1.65438,-0.92841 -2.64757,-0.92841 h -11.01062 c -0.0234,-0.002 -0.0446,-0.002 -0.0681,0 z"
       id="path2-3"
       sodipodi:nodetypes="sssssccscsssccccccccsccsssccssscc" />
  </g>
</svg>
