<?xml version="1.0" encoding="UTF-8" standalone="no"?>
<svg
   width="32"
   version="1.1"
   height="32"
   viewBox="0 0 32 32"
   id="svg18"
   sodipodi:docname="folder-image-people.svg"
   inkscape:version="1.1 (c68e22c387, 2021-05-23)"
   xmlns:inkscape="http://www.inkscape.org/namespaces/inkscape"
   xmlns:sodipodi="http://sodipodi.sourceforge.net/DTD/sodipodi-0.dtd"
   xmlns:xlink="http://www.w3.org/1999/xlink"
   xmlns="http://www.w3.org/2000/svg"
   xmlns:svg="http://www.w3.org/2000/svg"
   xmlns:rdf="http://www.w3.org/1999/02/22-rdf-syntax-ns#"
   xmlns:cc="http://creativecommons.org/ns#"
   xmlns:dc="http://purl.org/dc/elements/1.1/">
  <sodipodi:namedview
     pagecolor="#ffffff"
     bordercolor="#666666"
     borderopacity="1"
     objecttolerance="10"
     gridtolerance="10"
     guidetolerance="10"
     inkscape:pageopacity="0"
     inkscape:pageshadow="2"
     inkscape:window-width="1920"
     inkscape:window-height="1007"
     id="namedview20"
     showgrid="false"
     inkscape:zoom="9.8125"
     inkscape:cx="-20.33121"
     inkscape:cy="6.1146497"
     inkscape:window-x="0"
     inkscape:window-y="0"
     inkscape:window-maximized="1"
     inkscape:current-layer="layer1"
     inkscape:pagecheckerboard="0" />
  <defs
     id="defs5455">
    <linearGradient
       inkscape:collect="always"
       xlink:href="#linearGradient853-6"
       id="linearGradient854-3"
       gradientUnits="userSpaceOnUse"
       gradientTransform="matrix(0.36361408,0,0,0.37142577,382.38973,513.22772)"
       x1="6"
       y1="50.000134"
       x2="94.005508"
       y2="50.000134" />
    <linearGradient
       inkscape:collect="always"
       id="linearGradient853-6">
      <stop
         style="stop-color:#00d4aa;stop-opacity:1"
         offset="0"
         id="stop849-7" />
      <stop
         style="stop-color:#00e5e5;stop-opacity:1"
         offset="1"
         id="stop851-5" />
    </linearGradient>
    <linearGradient
       inkscape:collect="always"
       xlink:href="#linearGradient853-6"
       id="linearGradient1623"
       x1="402.04343"
       y1="520.79852"
       x2="431.58115"
       y2="520.79852"
       gradientUnits="userSpaceOnUse"
       gradientTransform="matrix(0.50000014,0,0,0.50000014,192.28566,273.89988)" />
  </defs>
  <metadata
     id="metadata5458">
    <rdf:RDF>
      <cc:Work
         rdf:about="">
        <dc:format>image/svg+xml</dc:format>
        <dc:type
           rdf:resource="http://purl.org/dc/dcmitype/StillImage" />
      </cc:Work>
    </rdf:RDF>
  </metadata>
  <g
     inkscape:label="Capa 1"
     inkscape:groupmode="layer"
     id="layer1"
     transform="translate(-384.57143,-515.798)">
    <path
       style="color:#000000;font-style:normal;font-variant:normal;font-weight:normal;font-stretch:normal;font-size:medium;line-height:normal;font-family:Sans;-inkscape-font-specification:Sans;text-indent:0;text-align:start;text-decoration:none;text-decoration-line:none;letter-spacing:normal;word-spacing:normal;text-transform:none;writing-mode:lr-tb;direction:ltr;baseline-shift:baseline;text-anchor:start;display:inline;overflow:visible;visibility:visible;fill:url(#linearGradient854-3);fill-opacity:1;fill-rule:nonzero;stroke:none;stroke-width:1.47001;marker:none;enable-background:accumulate"
       d="m 387.32126,518.79911 c -1.48283,0 -2.74983,1.06225 -2.74983,2.47231 v 20.80597 c 0,0.87838 0.31097,1.44276 0.91468,1.95485 0.60372,0.51208 1.23028,0.76666 2.02976,0.76666 h 25.41731 c 0.61022,0.0107 0.59287,-0.82639 1.5e-4,-0.83527 l -25.45262,-0.0148 c -0.78662,0 -1.44024,-0.5545 -1.44024,-0.5545 0,0 -0.60231,-0.45184 -0.60231,-1.31696 v -20.80598 c 0,-0.9717 0.66142,-1.59513 1.81676,-1.58245 l 8.94689,-0.005 4.26638,3.80002 c 0.12891,0.11622 0.29397,0.28191 0.46586,0.28562 l 12.4056,-0.005 c 0.63254,-0.003 0.61256,-0.87077 -0.02,-0.88091 h -12.12426 l -4.52245,-3.91156 c -0.13052,-0.11201 -0.29541,-0.17364 -0.46588,-0.17411 z m 14.43093,1.07946 c -0.57724,-0.002 -0.5784,0.99204 0.0144,1.00051 l 11.06444,-0.0152 c 1.12114,-10e-4 1.60685,0.36147 1.98015,0.7094 0.3733,0.34794 0.94057,1.19977 0.94057,2.07752 v 20.40521 c 0.003,0.69051 0.81726,0.71325 0.81969,0.0238 l -0.002,-20.42909 c -1.2e-4,-1.19243 -0.39032,-2.19079 -1.09085,-2.84371 -0.70051,-0.65294 -1.65424,-0.92857 -2.64756,-0.92857 h -11.01069 c -0.0227,-10e-4 -0.0455,-10e-4 -0.0682,0 z"
       id="path2-3-3-3"
       sodipodi:nodetypes="sssssccscsssccccccccsccsssccssscc" />
    <path
       d="m 406.23041,537.9913 h -0.46177 c -0.25508,0 -0.46128,-0.20688 -0.46128,-0.46108 0,-0.25511 0.2062,-0.462 0.46128,-0.462 h 0.46177 c 0.50928,0 0.92305,-0.41284 0.92305,-0.92308 v -1.38418 c 0,-0.0369 -0.007,-0.0739 -0.0178,-0.10953 -0.004,-0.0136 -0.0102,-0.0266 -0.0156,-0.0405 -0.007,-0.0158 -0.0124,-0.032 -0.0208,-0.0473 -0.10523,-0.21352 -0.36305,-0.41905 -0.68483,-0.4781 -0.41172,-0.15323 -0.96225,-0.2479 -1.56912,-0.2479 -0.58955,0 -1.1252,0.0953 -1.53288,0.24453 -0.20619,0.0302 -0.38761,0.12237 -0.5237,0.23821 l -0.002,-0.003 c -0.0751,0.0665 -0.17308,0.10829 -0.28125,0.10829 -0.23484,0 -0.42549,-0.19099 -0.42549,-0.4256 0,-0.16653 0.0962,-0.3092 0.23484,-0.37883 0.25016,-0.18234 0.55393,-0.33941 0.90704,-0.45638 -0.37811,-0.37635 -0.62827,-0.88159 -0.67425,-1.44637 -0.006,-0.0624 -0.009,-0.12531 -0.009,-0.18886 v -1.38441 c 0,-1.01954 0.82636,-1.84616 1.84633,-1.84616 h 0.92305 c 1.01927,0 1.84609,0.82665 1.84609,1.84616 v 1.38441 c 0,0.25489 -0.20688,0.46177 -0.46174,0.46177 -0.25511,0 -0.46131,-0.20688 -0.46131,-0.46177 v -1.38441 c 0,-0.51 -0.41377,-0.92308 -0.92304,-0.92308 h -0.92305 c -0.50997,0 -0.92328,0.41308 -0.92328,0.92308 v 1.38441 c 0,0.76489 0.62016,1.38485 1.38435,1.38485 1.70548,0 3.0986,0.75496 3.21918,1.71265 0.007,0.0433 0.012,0.0879 0.012,0.13388 v 1.38418 c -3e-5,1.01997 -0.82685,1.84616 -1.84613,1.84616 z m -4.8521,-3.96762 c -0.005,0.016 -0.0113,0.0327 -0.0189,0.0482 -5e-4,4.6e-4 -5e-4,0.002 -0.001,0.002 h -5e-4 c -0.0748,0.15392 -0.23051,0.26097 -0.41305,0.26097 -0.25511,0 -0.46177,-0.20688 -0.46177,-0.46177 0,-0.066 0.0142,-0.12914 0.0392,-0.18548 l -10e-4,-5e-4 c 0.10884,-0.2353 0.17129,-0.49627 0.17129,-0.77279 0,-0.10275 -0.0108,-0.20328 -0.0269,-0.30199 0.0174,-0.0832 0.0269,-0.16993 0.0269,-0.25849 v -1.87886 c 0,-0.69185 -0.55099,-1.25302 -1.23086,-1.25302 h -1.23043 c -0.6801,0 -1.23109,0.56114 -1.23109,1.25302 v 1.87886 c 0,0.0886 0.01,0.17533 0.0268,0.25849 -0.016,0.0987 -0.0268,0.19921 -0.0268,0.30199 0,1.01954 0.82681,1.8465 1.84632,1.8465 2.94269,0 5.34359,1.05243 5.52116,2.38031 0.0102,0.0514 0.0173,0.1041 0.0173,0.15776 v 1.1543 c 0,1.01957 -0.82681,1.84573 -1.84632,1.84573 h -7.38462 c -1.01934,-2e-5 -1.84616,-0.8262 -1.84616,-1.84574 v -1.15431 c 0,-0.0536 0.005,-0.1041 0.0131,-0.15415 0.0599,-0.46514 0.39459,-0.89377 0.92418,-1.25571 0.0751,-0.0636 0.17059,-0.10413 0.27649,-0.10413 0.23596,0 0.42727,0.19067 0.42727,0.42686 0,0.15098 -0.0784,0.28215 -0.19673,0.35834 l 0.003,0.005 c -0.33329,0.22263 -0.52417,0.46964 -0.52417,0.72429 v 1.15431 c 0,0.50934 0.41374,0.92265 0.92305,0.92265 h 7.38462 c 0.50997,0 0.92305,-0.41331 0.92305,-0.92265 v -1.15431 c 0,-0.89244 -2.06651,-1.61495 -4.61524,-1.61495 -0.74118,0 -1.41297,-0.29343 -1.90988,-0.76757 -0.13139,-0.12531 -0.25194,-0.26458 -0.35651,-0.41377 -0.10232,-0.14547 -0.19087,-0.30187 -0.26388,-0.46592 -0.003,-0.006 -0.005,-0.0113 -0.008,-0.0172 -0.0305,-0.0696 -0.0572,-0.14221 -0.082,-0.21476 -0.005,-0.0165 -0.0127,-0.032 -0.0178,-0.0487 -0.0209,-0.0647 -0.0369,-0.13183 -0.053,-0.19899 -0.006,-0.025 -0.0138,-0.0494 -0.0192,-0.0751 -0.016,-0.0766 -0.0266,-0.15505 -0.0367,-0.23348 -0.002,-0.0149 -0.005,-0.0293 -0.007,-0.0442 -0.0101,-0.0951 -0.0155,-0.192 -0.0155,-0.29005 0,-0.0512 0.005,-0.1003 0.008,-0.15098 -0.004,-0.0523 -0.008,-0.10391 -0.008,-0.15687 v -2.15357 c 0,-1.1899 0.93026,-2.154 2.07686,-2.154 h 1.38479 c 1.14727,0 2.07687,0.9641 2.07687,2.154 v 2.15357 c 0,0.053 -0.004,0.10457 -0.008,0.15687 0.003,0.0507 0.008,0.0998 0.008,0.15098 0,0.39528 -0.0868,0.76915 -0.23663,1.10922 z m -5.07066,1.42913 c 0,0.25465 -0.20689,0.46156 -0.46177,0.46156 -0.25509,0 -0.46128,-0.20691 -0.46128,-0.46156 0,-0.25466 0.20619,-0.46154 0.46128,-0.46154 0.25488,0 0.46177,0.20688 0.46177,0.46154 z"
       id="path2"
       style="fill:url(#linearGradient1623);fill-opacity:1;stroke-width:0.0288462" />
  </g>
</svg>
