<?xml version="1.0" encoding="UTF-8" standalone="no"?>
<svg
   width="32"
   version="1.1"
   height="32"
   viewBox="0 0 32 32"
   id="svg17"
   sodipodi:docname="folder-script.svg"
   inkscape:version="1.1 (c68e22c387, 2021-05-23)"
   xmlns:inkscape="http://www.inkscape.org/namespaces/inkscape"
   xmlns:sodipodi="http://sodipodi.sourceforge.net/DTD/sodipodi-0.dtd"
   xmlns:xlink="http://www.w3.org/1999/xlink"
   xmlns="http://www.w3.org/2000/svg"
   xmlns:svg="http://www.w3.org/2000/svg"
   xmlns:rdf="http://www.w3.org/1999/02/22-rdf-syntax-ns#"
   xmlns:cc="http://creativecommons.org/ns#"
   xmlns:dc="http://purl.org/dc/elements/1.1/">
  <sodipodi:namedview
     pagecolor="#ffffff"
     bordercolor="#666666"
     borderopacity="1"
     objecttolerance="10"
     gridtolerance="10"
     guidetolerance="10"
     inkscape:pageopacity="0"
     inkscape:pageshadow="2"
     inkscape:window-width="1920"
     inkscape:window-height="1007"
     id="namedview19"
     showgrid="false"
     inkscape:zoom="8.9988849"
     inkscape:cx="-17.057669"
     inkscape:cy="2.8892469"
     inkscape:window-x="0"
     inkscape:window-y="0"
     inkscape:window-maximized="1"
     inkscape:current-layer="layer1"
     inkscape:pagecheckerboard="0" />
  <defs
     id="defs5455">
    <linearGradient
       inkscape:collect="always"
       xlink:href="#linearGradient853-6"
       id="linearGradient854-3"
       gradientUnits="userSpaceOnUse"
       gradientTransform="matrix(0.36361408,0,0,0.37142577,382.38974,513.22673)"
       x1="6"
       y1="50.000134"
       x2="94.005508"
       y2="50.000134" />
    <linearGradient
       inkscape:collect="always"
       id="linearGradient853-6">
      <stop
         style="stop-color:#8dd35f;stop-opacity:1"
         offset="0"
         id="stop849-7" />
      <stop
         style="stop-color:#ffb380;stop-opacity:1"
         offset="1"
         id="stop851-5" />
    </linearGradient>
    <linearGradient
       inkscape:collect="always"
       xlink:href="#linearGradient853-6"
       id="linearGradient1276"
       x1="406.06042"
       y1="520.79797"
       x2="426.1261"
       y2="520.79797"
       gradientUnits="userSpaceOnUse"
       gradientTransform="matrix(0.50000014,0,0,0.50000014,192.28566,273.89888)" />
  </defs>
  <metadata
     id="metadata5458">
    <rdf:RDF>
      <cc:Work
         rdf:about="">
        <dc:format>image/svg+xml</dc:format>
        <dc:type
           rdf:resource="http://purl.org/dc/dcmitype/StillImage" />
      </cc:Work>
    </rdf:RDF>
  </metadata>
  <g
     inkscape:label="Capa 1"
     inkscape:groupmode="layer"
     id="layer1"
     transform="translate(-384.57143,-515.798)">
    <path
       style="color:#000000;font-style:normal;font-variant:normal;font-weight:normal;font-stretch:normal;font-size:medium;line-height:normal;font-family:Sans;-inkscape-font-specification:Sans;text-indent:0;text-align:start;text-decoration:none;text-decoration-line:none;letter-spacing:normal;word-spacing:normal;text-transform:none;writing-mode:lr-tb;direction:ltr;baseline-shift:baseline;text-anchor:start;display:inline;overflow:visible;visibility:visible;fill:url(#linearGradient854-3);fill-opacity:1;fill-rule:nonzero;stroke:none;stroke-width:1.47001;marker:none;enable-background:accumulate"
       d="m 387.32126,518.79811 c -1.48283,0 -2.74983,1.06225 -2.74983,2.47231 v 20.80597 c 0,0.87838 0.31097,1.44276 0.91468,1.95485 0.60372,0.51208 1.23028,0.76666 2.02976,0.76666 h 25.41731 c 0.61022,0.0108 0.59287,-0.82639 1.5e-4,-0.83527 l -25.45262,-0.0148 c -0.78662,0 -1.44024,-0.5545 -1.44024,-0.5545 0,0 -0.60231,-0.45184 -0.60231,-1.31696 v -20.80598 c 0,-0.9717 0.66142,-1.59513 1.81676,-1.58245 l 8.94689,-0.005 4.26638,3.80002 c 0.12891,0.11622 0.29397,0.28191 0.46586,0.28562 l 12.4056,-0.005 c 0.63254,-0.003 0.61256,-0.87077 -0.02,-0.88091 h -12.12426 l -4.52245,-3.91056 c -0.13052,-0.11201 -0.29541,-0.17364 -0.46588,-0.17411 z m 14.43093,1.07946 c -0.57724,-0.002 -0.5784,0.99204 0.0144,1.00051 l 11.06444,-0.0152 c 1.12114,-10e-4 1.60685,0.36147 1.98015,0.7094 0.3733,0.34794 0.94057,1.19977 0.94057,2.07752 v 20.40521 c 0.003,0.69051 0.81726,0.71325 0.81969,0.0238 l -0.002,-20.42909 c -1.2e-4,-1.19243 -0.39032,-2.19079 -1.09085,-2.84371 -0.70051,-0.65294 -1.65424,-0.92857 -2.64756,-0.92857 h -11.01069 c -0.0228,-10e-4 -0.0455,-10e-4 -0.0682,0 z"
       id="path2-3-3"
       sodipodi:nodetypes="sssssccscsssccccccccsccsssccssscc" />
    <path
       d="m 405.34877,536.12693 c 0,0.3914 -0.17398,0.75722 -0.47734,1.00369 l -3.40605,2.76713 c -0.63818,0.53361 -1.63103,0.53361 -2.26916,0 l -3.40605,-2.76713 c -0.63236,-0.4953 -0.63227,-1.51215 0,-2.00738 l 1.01585,-0.8253 -1.01585,-0.82529 c -0.63236,-0.4953 -0.63227,-1.51214 0,-2.00737 l 3.40603,-2.76711 c 0.63817,-0.53362 1.63103,-0.53362 2.26915,-2e-5 l 3.40606,2.76713 c 0.63236,0.4953 0.63226,1.51214 0,2.00737 -0.49863,0.37309 -1.05851,-0.31688 -0.59144,-0.72798 0.17549,-0.14505 0.17575,-0.4061 0,-0.55144 l -3.40601,-2.76708 c -0.3147,-0.25568 -0.77155,-0.25568 -1.08635,0 l -3.406,2.76711 c -0.17549,0.14505 -0.17575,0.4061 0,0.55144 l 3.40603,2.7671 c 0.3147,0.25566 0.77155,0.25571 1.08634,0 0.002,-0.002 0.003,-0.003 0.006,-0.005 l 0.5446,-0.42887 c 0.2035,-0.16024 0.49835,-0.12514 0.65859,0.0783 0.16025,0.20348 0.12519,0.49835 -0.0783,0.65859 l -0.5419,0.42677 c -0.63824,0.53139 -1.62912,0.53038 -2.26627,-0.002 l -1.64645,-1.33759 -1.16816,0.94902 c -0.17549,0.14506 -0.17575,0.40611 0,0.55144 l 3.40601,2.76709 c 0.3147,0.25566 0.77155,0.25571 1.08634,0 l 3.40601,-2.76711 c 0.17549,-0.14505 0.17575,-0.40611 0,-0.55144 l -3.40603,-2.76708 c -0.3147,-0.25568 -0.77155,-0.25568 -1.08635,0 -0.002,0.002 -0.004,0.003 -0.006,0.005 l -0.54459,0.42888 c -0.20348,0.16027 -0.49833,0.12516 -0.6586,-0.0783 -0.16024,-0.20348 -0.12519,-0.49835 0.0783,-0.6586 l 0.54189,-0.42676 c 0.63825,-0.53139 1.62913,-0.53038 2.26627,0.002 l 3.40606,2.76713 c 0.30338,0.24647 0.47737,0.61229 0.47737,1.00369 z"
       id="path2"
       style="fill:url(#linearGradient1276);fill-opacity:1;stroke-width:0.0234485" />
  </g>
</svg>
