<?xml version="1.0" encoding="UTF-8" standalone="no"?>
<svg
   width="32"
   version="1.1"
   height="32"
   viewBox="0 0 32 32"
   id="svg15"
   sodipodi:docname="folder-violet.svg"
   inkscape:version="1.1 (c68e22c387, 2021-05-23)"
   xmlns:inkscape="http://www.inkscape.org/namespaces/inkscape"
   xmlns:sodipodi="http://sodipodi.sourceforge.net/DTD/sodipodi-0.dtd"
   xmlns:xlink="http://www.w3.org/1999/xlink"
   xmlns="http://www.w3.org/2000/svg"
   xmlns:svg="http://www.w3.org/2000/svg"
   xmlns:rdf="http://www.w3.org/1999/02/22-rdf-syntax-ns#"
   xmlns:cc="http://creativecommons.org/ns#"
   xmlns:dc="http://purl.org/dc/elements/1.1/">
  <sodipodi:namedview
     pagecolor="#ffffff"
     bordercolor="#666666"
     borderopacity="1"
     objecttolerance="10"
     gridtolerance="10"
     guidetolerance="10"
     inkscape:pageopacity="0"
     inkscape:pageshadow="2"
     inkscape:window-width="1920"
     inkscape:window-height="1007"
     id="namedview17"
     showgrid="false"
     inkscape:zoom="9.8125"
     inkscape:cx="-24.101911"
     inkscape:cy="3.8726115"
     inkscape:window-x="0"
     inkscape:window-y="0"
     inkscape:window-maximized="1"
     inkscape:current-layer="layer1"
     inkscape:pagecheckerboard="0" />
  <defs
     id="defs5455">
    <linearGradient
       id="linearGradient4194">
      <stop
         style="stop-color:#8e44ad"
         id="stop4196" />
      <stop
         offset="1"
         style="stop-color:#9d52bd"
         id="stop4198" />
    </linearGradient>
    <linearGradient
       inkscape:collect="always"
       xlink:href="#linearGradient4194"
       id="linearGradient854"
       gradientUnits="userSpaceOnUse"
       gradientTransform="matrix(0.36362096,0,0,0.37138582,382.3897,513.23021)"
       x1="6"
       y1="50.000134"
       x2="94.005508"
       y2="50.000134" />
  </defs>
  <metadata
     id="metadata5458">
    <rdf:RDF>
      <cc:Work
         rdf:about="">
        <dc:format>image/svg+xml</dc:format>
        <dc:type
           rdf:resource="http://purl.org/dc/dcmitype/StillImage" />
      </cc:Work>
    </rdf:RDF>
  </metadata>
  <g
     inkscape:label="Capa 1"
     inkscape:groupmode="layer"
     id="layer1"
     transform="translate(-384.57143,-515.798)">
    <path
       style="color:#000000;font-style:normal;font-variant:normal;font-weight:normal;font-stretch:normal;font-size:medium;line-height:normal;font-family:Sans;-inkscape-font-specification:Sans;text-indent:0;text-align:start;text-decoration:none;text-decoration-line:none;letter-spacing:normal;word-spacing:normal;text-transform:none;writing-mode:lr-tb;direction:ltr;baseline-shift:baseline;text-anchor:start;display:inline;overflow:visible;visibility:visible;opacity:1;fill:url(#linearGradient854);fill-opacity:1;fill-rule:nonzero;stroke:none;stroke-width:1.46996;marker:none;enable-background:accumulate"
       d="m 387.32134,518.80097 c -1.48289,0 -2.74991,1.06211 -2.74991,2.47203 v 20.80376 c 0,0.87829 0.311,1.44262 0.91475,1.95463 0.60371,0.51204 1.23025,0.7665 2.02984,0.7665 h 25.41774 c 0.61018,0.0109 0.59288,-0.82623 1.3e-4,-0.83512 l -25.45307,-0.0147 c -0.78668,0 -1.44034,-0.55444 -1.44034,-0.55444 0,0 -0.60223,-0.45178 -0.60223,-1.31682 v -20.80377 c 0,-0.97158 0.66133,-1.59493 1.81666,-1.58226 l 8.94706,-0.006 4.26648,3.79964 c 0.12897,0.11614 0.294,0.28183 0.46594,0.2856 l 12.40583,-0.006 c 0.63249,-0.004 0.61252,-0.87067 -0.0202,-0.8808 h -12.12457 l -4.52261,-3.91117 c -0.13045,-0.11195 -0.29539,-0.17361 -0.46584,-0.17405 z m 14.43121,1.07936 c -0.57731,-0.002 -0.57844,0.99192 0.0138,1.00039 l 11.06465,-0.0152 c 1.12115,-0.002 1.60684,0.3614 1.98013,0.70931 0.37323,0.3479 0.9406,1.19965 0.9406,2.0773 v 20.40305 c 0.004,0.69038 0.81723,0.71315 0.8197,0.0234 l -0.003,-20.4269 c -1.3e-4,-1.1923 -0.39034,-2.19057 -1.09084,-2.84341 -0.70056,-0.65285 -1.65424,-0.92846 -2.64769,-0.92846 H 401.819 c -0.0231,-0.002 -0.0455,-0.002 -0.0683,0 z"
       id="path2-3"
       sodipodi:nodetypes="sssssccscsssccccccccsccsssccssscc" />
  </g>
</svg>
