<?xml version="1.0" encoding="UTF-8" standalone="no"?>
<svg
   id="svg2"
   viewBox="0 0 32 32"
   height="32"
   version="1.1"
   width="32"
   sodipodi:docname="folder-unlocked.svg"
   inkscape:version="1.1 (c68e22c387, 2021-05-23)"
   xmlns:inkscape="http://www.inkscape.org/namespaces/inkscape"
   xmlns:sodipodi="http://sodipodi.sourceforge.net/DTD/sodipodi-0.dtd"
   xmlns:xlink="http://www.w3.org/1999/xlink"
   xmlns="http://www.w3.org/2000/svg"
   xmlns:svg="http://www.w3.org/2000/svg"
   xmlns:rdf="http://www.w3.org/1999/02/22-rdf-syntax-ns#"
   xmlns:cc="http://creativecommons.org/ns#"
   xmlns:dc="http://purl.org/dc/elements/1.1/">
  <sodipodi:namedview
     pagecolor="#ffffff"
     bordercolor="#666666"
     borderopacity="1"
     objecttolerance="10"
     gridtolerance="10"
     guidetolerance="10"
     inkscape:pageopacity="0"
     inkscape:pageshadow="2"
     inkscape:window-width="1920"
     inkscape:window-height="1007"
     id="namedview18"
     showgrid="false"
     inkscape:zoom="9.8125"
     inkscape:cx="-8"
     inkscape:cy="2.8535032"
     inkscape:window-x="0"
     inkscape:window-y="0"
     inkscape:window-maximized="1"
     inkscape:current-layer="svg2"
     inkscape:pagecheckerboard="0" />
  <defs
     id="defs5455">
    <linearGradient
       id="linearGradient4172-5">
      <stop
         id="stop4174-6"
         style="stop-color:#3daee9" />
      <stop
         id="stop4176-6"
         style="stop-color:#6cc1ef"
         offset="1" />
    </linearGradient>
    <linearGradient
       x2="0"
       gradientUnits="userSpaceOnUse"
       y2="8"
       y1="29"
       xlink:href="#linearGradient4172-5"
       id="linearGradient4342" />
    <linearGradient
       inkscape:collect="always"
       xlink:href="#linearGradient2317"
       id="linearGradient854-3"
       gradientUnits="userSpaceOnUse"
       gradientTransform="matrix(0.36361376,0,0,0.37142584,-2.181682,-2.571234)"
       x1="6"
       y1="50.000134"
       x2="94.005508"
       y2="50.000134" />
    <linearGradient
       inkscape:collect="always"
       id="linearGradient2317">
      <stop
         style="stop-color:#55ddff;stop-opacity:1"
         offset="0"
         id="stop2313" />
      <stop
         style="stop-color:#5fd3bc;stop-opacity:1"
         offset="1"
         id="stop2315" />
    </linearGradient>
    <linearGradient
       inkscape:collect="always"
       xlink:href="#linearGradient2317"
       id="linearGradient1468"
       x1="404.72144"
       y1="520.79797"
       x2="428.72144"
       y2="520.79797"
       gradientUnits="userSpaceOnUse"
       gradientTransform="matrix(0.50000011,0,0,0.50000011,-192.36075,-241.89901)" />
  </defs>
  <metadata
     id="metadata5458">
    <rdf:RDF>
      <cc:Work
         rdf:about="">
        <dc:format>image/svg+xml</dc:format>
        <dc:type
           rdf:resource="http://purl.org/dc/dcmitype/StillImage" />
      </cc:Work>
    </rdf:RDF>
  </metadata>
  <path
     style="color:#000000;font-style:normal;font-variant:normal;font-weight:normal;font-stretch:normal;font-size:medium;line-height:normal;font-family:Sans;-inkscape-font-specification:Sans;text-indent:0;text-align:start;text-decoration:none;text-decoration-line:none;letter-spacing:normal;word-spacing:normal;text-transform:none;writing-mode:lr-tb;direction:ltr;baseline-shift:baseline;text-anchor:start;display:inline;overflow:visible;visibility:visible;fill:url(#linearGradient854-3);fill-opacity:1;fill-rule:nonzero;stroke:none;stroke-width:1.47001;marker:none;enable-background:accumulate"
     d="M 2.749829,3.000153 C 1.267,3.000153 0,4.062405 0,5.472457 v 20.805977 c 0,0.878385 0.31096,1.442767 0.91467697,1.954852 0.60372203,0.512085 1.23027303,0.76666 2.02976203,0.76666 h 25.417289 c 0.610218,0.01077 0.592865,-0.826384 1.45e-4,-0.835262 L 2.909279,28.149829 c -0.786628,0 -1.440244,-0.554502 -1.440244,-0.554502 0,0 -0.60230503,-0.45184 -0.60230503,-1.316965 V 5.472383 c 0,-0.971702 0.66141603,-1.595133 1.81675303,-1.582449 l 8.946886,-0.0045 4.266371,3.800013 c 0.128921,0.116219 0.293974,0.281912 0.465873,0.285627 l 12.405581,-0.0045 c 0.632543,-0.0037 0.612554,-0.870771 -0.02,-0.880911 H 16.623946 L 12.101498,3.174106 C 11.970979,3.062095 11.806087,3.000472 11.635621,3 Z m 14.430922,1.079456 c -0.577247,-0.0015 -0.5784,0.992048 0.01443,1.000513 l 11.064424,-0.01516 c 1.121141,-0.0015 1.606847,0.361458 1.980146,0.709398 0.373303,0.347941 0.940573,1.199768 0.940573,2.077523 v 20.405212 c 0.0034,0.690517 0.81726,0.713248 0.819688,0.02377 L 31.997712,7.851774 C 31.997599,6.659345 31.607393,5.660986 30.906871,5.008053 30.20635,4.35512 29.252622,4.079489 28.259305,4.079489 H 17.248622 c -0.02271,-0.0011 -0.04545,-0.0011 -0.06818,0 z"
     id="path2-3-3-6"
     sodipodi:nodetypes="sssssccscsssccccccccsccsssccssscc" />
  <path
     d="m 15.625214,22.250023 c 0.20672,0 0.375,0.16772 0.375,0.375 0,0.206911 -0.16828,0.375 -0.375,0.375 -0.20728,0 -0.375185,-0.168089 -0.375185,-0.375 0,-0.20728 0.16793,-0.375 0.375185,-0.375 z m -0.375185,-2.625021 c 0,-0.207284 0.167905,-0.375 0.375185,-0.375 0.20672,0 0.375,0.167716 0.375,0.375 v 1.499646 c 0,0.207285 -0.16828,0.375375 -0.375,0.375375 -0.20728,0 -0.375185,-0.168089 -0.375185,-0.375374 z m 5.249951,4.875047 h -9.000167 c -0.828371,0 -1.499811,-0.672 -1.499811,-1.500026 v -3.375021 c 0,-0.207284 0.167905,-0.375 0.37519,-0.375 0.206715,0 0.375,0.167716 0.375,0.375 v 3.187521 c 0,0.51783 0.419671,0.93715 0.937501,0.93715 h 8.624787 c 0.51783,0 0.9379,-0.419345 0.9379,-0.93715 v -3.375395 c 0,-0.517456 -0.42007,-0.93741 -0.9379,-0.93741 h -6.749952 -0.187335 -3.8e-4 c -0.62163,0 -1.12481,-0.50353 -1.12481,-1.124645 v -0.187875 -0.937316 c 0,-2.071125 1.678735,-3.749836 3.750211,-3.749836 2.071055,0 3.749766,1.678711 3.749766,3.749836 v 0.375001 c 0,0.20728 -0.167716,0.375 -0.375001,0.375 -0.206905,0 -0.375,-0.16772 -0.375,-0.375 v -0.375001 c 0,-1.656915 -1.34327,-3.000211 -2.999765,-3.000211 -1.656936,0 -3.000021,1.343276 -3.000021,3.000211 v 0.562316 0.14318 0.23182 c 0,0.310735 0.251765,0.562895 0.562335,0.562895 h 0.23182 0.14318 4.874951 0.1875 0.750001 0.187875 0.562125 c 0.82875,0 1.500025,0.671275 1.500025,1.49991 v 3.750021 c 0,0.828025 -0.671275,1.500025 -1.500025,1.500025 z m -9.375167,-6.000331 c -0.206715,0 -0.374621,-0.167715 -0.374621,-0.375 0,-0.206715 0.167906,-0.374625 0.374621,-0.374625 0.207285,0 0.375,0.16791 0.375,0.374625 0,0.207285 -0.167715,0.375 -0.375,0.375 z"
     id="path2"
     style="fill:url(#linearGradient1468);fill-opacity:1;stroke-width:0.0234375" />
</svg>
