<?xml version="1.0" encoding="UTF-8" standalone="no"?>
<svg
   width="32"
   version="1.1"
   height="32"
   viewBox="0 0 32 32"
   id="svg17"
   sodipodi:docname="folder-music.svg"
   inkscape:version="1.1 (c68e22c387, 2021-05-23)"
   xmlns:inkscape="http://www.inkscape.org/namespaces/inkscape"
   xmlns:sodipodi="http://sodipodi.sourceforge.net/DTD/sodipodi-0.dtd"
   xmlns:xlink="http://www.w3.org/1999/xlink"
   xmlns="http://www.w3.org/2000/svg"
   xmlns:svg="http://www.w3.org/2000/svg"
   xmlns:rdf="http://www.w3.org/1999/02/22-rdf-syntax-ns#"
   xmlns:cc="http://creativecommons.org/ns#"
   xmlns:dc="http://purl.org/dc/elements/1.1/">
  <sodipodi:namedview
     pagecolor="#ffffff"
     bordercolor="#666666"
     borderopacity="1"
     objecttolerance="10"
     gridtolerance="10"
     guidetolerance="10"
     inkscape:pageopacity="0"
     inkscape:pageshadow="2"
     inkscape:window-width="1920"
     inkscape:window-height="1007"
     id="namedview19"
     showgrid="false"
     inkscape:zoom="9.8125"
     inkscape:cx="-14.318471"
     inkscape:cy="-5.5031847"
     inkscape:window-x="0"
     inkscape:window-y="0"
     inkscape:window-maximized="1"
     inkscape:current-layer="layer1"
     inkscape:pagecheckerboard="0" />
  <defs
     id="defs5455">
    <linearGradient
       inkscape:collect="always"
       xlink:href="#linearGradient847-6"
       id="linearGradient838-3"
       x1="92.605705"
       y1="49.466377"
       x2="8.6174068"
       y2="49.466377"
       gradientUnits="userSpaceOnUse"
       gradientTransform="matrix(0.9780981,0,0,1,64.250683,974.47294)" />
    <linearGradient
       inkscape:collect="always"
       id="linearGradient847-6">
      <stop
         style="stop-color:#9955ff;stop-opacity:1"
         offset="0"
         id="stop843-7" />
      <stop
         style="stop-color:#00e5e5;stop-opacity:1"
         offset="1"
         id="stop845-5" />
    </linearGradient>
    <linearGradient
       inkscape:collect="always"
       xlink:href="#linearGradient847-6"
       id="linearGradient1194"
       x1="404.57144"
       y1="520.79803"
       x2="428.5715"
       y2="520.79803"
       gradientUnits="userSpaceOnUse"
       gradientTransform="matrix(0.5,0,0,0.5,192.28571,273.899)" />
  </defs>
  <metadata
     id="metadata5458">
    <rdf:RDF>
      <cc:Work
         rdf:about="">
        <dc:format>image/svg+xml</dc:format>
        <dc:type
           rdf:resource="http://purl.org/dc/dcmitype/StillImage" />
      </cc:Work>
    </rdf:RDF>
  </metadata>
  <g
     inkscape:label="Capa 1"
     inkscape:groupmode="layer"
     id="layer1"
     transform="translate(-384.57143,-515.798)">
    <g
       transform="matrix(0.37175585,0,0,0.37142583,358.50418,151.2823)"
       id="g4-3-3">
      <path
         style="color:#000000;font-style:normal;font-variant:normal;font-weight:normal;font-stretch:normal;font-size:medium;line-height:normal;font-family:Sans;-inkscape-font-specification:Sans;text-indent:0;text-align:start;text-decoration:none;text-decoration-line:none;letter-spacing:normal;word-spacing:normal;text-transform:none;writing-mode:lr-tb;direction:ltr;baseline-shift:baseline;text-anchor:start;display:inline;overflow:visible;visibility:visible;opacity:1;fill:url(#linearGradient838-3);fill-opacity:1;fill-rule:nonzero;stroke:none;stroke-width:3.95596;marker:none;enable-background:accumulate"
         d="m 77.516136,989.47294 c -3.988712,0 -7.396866,2.85993 -7.396866,6.65625 v 56.01651 c 0,2.3649 0.836461,3.8844 2.460429,5.2631 1.623967,1.3787 3.30936,2.0641 5.459931,2.0641 h 68.3709 c 1.64145,0.029 1.59477,-2.2249 3.9e-4,-2.2488 l -68.465873,-0.04 c -2.115981,0 -3.874159,-1.4929 -3.874159,-1.4929 0,0 -1.620163,-1.2165 -1.620163,-3.5457 v -56.01651 c 0,-2.61614 1.77916,-4.29462 4.886948,-4.26047 l 24.066557,-0.0121 11.47627,10.23088 c 0.34679,0.3129 0.79077,0.759 1.25317,0.769 l 33.37023,-0.012 c 1.7015,-0.01 1.64773,-2.3444 -0.0538,-2.3717 h -32.61346 l -12.1651,-10.53119 c -0.35109,-0.30157 -0.79464,-0.46748 -1.25318,-0.46875 z m 38.818274,2.90625 c -1.55276,-0.004 -1.55586,2.67092 0.0388,2.69371 l 29.7626,-0.0408 c 3.0158,-0.004 4.32232,0.97316 5.32647,1.90993 1.00416,0.93677 2.53008,3.23017 2.53008,5.59337 v 54.9375 c 0.009,1.8591 2.19838,1.9203 2.20491,0.064 l -0.006,-55.0018 c -3.1e-4,-3.21041 -1.04994,-5.89832 -2.9343,-7.65623 -1.88434,-1.75791 -4.44981,-2.5 -7.12177,-2.5 h -29.61804 c -0.0611,-0.003 -0.12228,-0.003 -0.18339,0 z"
         id="path2-3-6-5"
         sodipodi:nodetypes="sssssccscsssccccccccsccsssccssscc" />
    </g>
    <path
       d="m 404.32125,539.54802 c -1.24257,0 -2.24963,-1.0069 -2.24963,-2.24963 0,-1.24259 1.00709,-2.25002 2.24963,-2.25002 0.20728,0 0.37537,0.16753 0.37537,0.37462 0,0.20728 -0.16809,0.37538 -0.37537,0.37538 -0.82819,0 -1.50001,0.67127 -1.50001,1.50002 0,0.82819 0.67182,1.49963 1.50001,1.49963 0.82875,0 1.50018,-0.67144 1.50018,-1.49963 v -1.67342 -0.7641 -1.68797 c 0,-0.20672 0.16791,-0.37484 0.37519,-0.37484 0.2071,0 0.37481,0.16809 0.37481,0.37484 v 4.12549 c 0,1.24273 -1.00743,2.24963 -2.25018,2.24963 z m 1.21912,-7.26373 -6.09596,1.22718 c -0.21349,0.0448 -0.37279,0.23236 -0.37279,0.45832 v 4.07862 c 0,1.24271 -1.00746,2.24961 -2.25019,2.24961 -1.24256,0 -2.25,-1.0069 -2.25,-2.24963 0,-0.62109 0.25214,-1.18362 0.65918,-1.59084 l 10e-4,0.002 c 0.0676,-0.0681 0.16186,-0.11004 0.26512,-0.11004 0.20728,0 0.37538,0.16809 0.37538,0.37518 0,0.10822 -0.0469,0.20527 -0.12085,0.27375 -0.26568,0.2701 -0.43029,0.64107 -0.43029,1.0505 0,0.82835 0.67182,1.49962 1.50001,1.49962 0.82837,0 1.50018,-0.67127 1.50018,-1.49962 v -1.67342 -0.57661 -1.78758 c 0,-0.59069 0.42005,-1.08325 0.97833,-1.19477 l 5e-4,-5e-4 0.12507,-0.0265 c 0.007,-0.001 0.0135,-0.001 0.0209,-0.002 l 6.00019,-1.28907 c 0.20709,-0.0454 0.37481,-0.25012 0.37481,-0.4574 v -1.68732 c 0,-0.20728 -0.16772,-0.3382 -0.37481,-0.29315 l -6.00019,1.28944 c -0.20729,0.0448 -0.37482,0.24975 -0.37482,0.45684 v 0.86738 c 0,0.20672 -0.16809,0.37481 -0.37537,0.37481 -0.2071,0 -0.37463,-0.16809 -0.37463,-0.37481 v -0.91036 c 0,-0.54731 0.4616,-1.08382 1.03107,-1.1988 l 6.18769,-1.24547 c 0.56927,-0.11445 1.03106,0.2362 1.03106,0.78386 v 1.98195 c 0,0.54766 -0.46179,1.08436 -1.03106,1.19881 z m -8.71894,4.26408 c -0.2071,0 -0.37519,-0.1681 -0.37519,-0.37519 0,-0.20728 0.16809,-0.37481 0.37519,-0.37481 0.20728,0 0.37481,0.16753 0.37481,0.37481 0,0.20709 -0.16753,0.37519 -0.37481,0.37519 z"
       id="path2"
       style="fill:url(#linearGradient1194);fill-opacity:1;stroke-width:0.0234375" />
  </g>
</svg>
