<?xml version="1.0" encoding="UTF-8" standalone="no"?>
<svg
   width="32"
   version="1.1"
   height="32"
   viewBox="0 0 32 32"
   id="svg15"
   sodipodi:docname="folder-cyan.svg"
   inkscape:version="1.1 (c68e22c387, 2021-05-23)"
   xmlns:inkscape="http://www.inkscape.org/namespaces/inkscape"
   xmlns:sodipodi="http://sodipodi.sourceforge.net/DTD/sodipodi-0.dtd"
   xmlns:xlink="http://www.w3.org/1999/xlink"
   xmlns="http://www.w3.org/2000/svg"
   xmlns:svg="http://www.w3.org/2000/svg"
   xmlns:rdf="http://www.w3.org/1999/02/22-rdf-syntax-ns#"
   xmlns:cc="http://creativecommons.org/ns#"
   xmlns:dc="http://purl.org/dc/elements/1.1/">
  <sodipodi:namedview
     pagecolor="#ffffff"
     bordercolor="#666666"
     borderopacity="1"
     objecttolerance="10"
     gridtolerance="10"
     guidetolerance="10"
     inkscape:pageopacity="0"
     inkscape:pageshadow="2"
     inkscape:window-width="1920"
     inkscape:window-height="1007"
     id="namedview17"
     showgrid="false"
     inkscape:zoom="9.8125"
     inkscape:cx="-20.942675"
     inkscape:cy="5.5031847"
     inkscape:window-x="0"
     inkscape:window-y="0"
     inkscape:window-maximized="1"
     inkscape:current-layer="layer1"
     inkscape:pagecheckerboard="0" />
  <defs
     id="defs5455">
    <linearGradient
       inkscape:collect="always"
       id="linearGradient4172-5-0">
      <stop
         style="stop-color:#21bbd7"
         id="stop4174-6-9" />
      <stop
         offset="1"
         style="stop-color:#3dc8e1"
         id="stop4176-6-4" />
    </linearGradient>
    <linearGradient
       inkscape:collect="always"
       xlink:href="#linearGradient4172-5-0"
       id="linearGradient854"
       gradientUnits="userSpaceOnUse"
       gradientTransform="matrix(0.36361054,0,0,0.37139693,382.38972,513.22917)"
       x1="6"
       y1="50.000134"
       x2="94.005508"
       y2="50.000134" />
  </defs>
  <metadata
     id="metadata5458">
    <rdf:RDF>
      <cc:Work
         rdf:about="">
        <dc:format>image/svg+xml</dc:format>
        <dc:type
           rdf:resource="http://purl.org/dc/dcmitype/StillImage" />
      </cc:Work>
    </rdf:RDF>
  </metadata>
  <g
     inkscape:label="Capa 1"
     inkscape:groupmode="layer"
     id="layer1"
     transform="translate(-384.57143,-515.798)">
    <path
       style="color:#000000;font-style:normal;font-variant:normal;font-weight:normal;font-stretch:normal;font-size:medium;line-height:normal;font-family:Sans;-inkscape-font-specification:Sans;text-indent:0;text-align:start;text-decoration:none;text-decoration-line:none;letter-spacing:normal;word-spacing:normal;text-transform:none;writing-mode:lr-tb;direction:ltr;baseline-shift:baseline;text-anchor:start;display:inline;overflow:visible;visibility:visible;opacity:1;fill:url(#linearGradient854);fill-opacity:1;fill-rule:nonzero;stroke:none;stroke-width:1.47001;marker:none;enable-background:accumulate"
       d="m 387.32119,518.80013 c -1.48285,0 -2.74976,1.06222 -2.74976,2.47208 v 20.80445 c 0,0.87834 0.31099,1.44269 0.91475,1.95475 0.60373,0.512 1.23026,0.76647 2.02982,0.76647 h 25.41688 c 0.61028,0.0116 0.59287,-0.82622 1.9e-4,-0.8352 l -25.45244,-0.0137 c -0.78661,0 -1.44012,-0.55453 -1.44012,-0.55453 0,0 -0.60231,-0.45171 -0.60231,-1.31684 v -20.8046 c 0,-0.97163 0.6614,-1.59494 1.81668,-1.58231 l 8.94682,-0.006 4.26636,3.79984 c 0.12881,0.11612 0.29395,0.28174 0.46594,0.28564 l 12.40539,-0.006 c 0.63252,-0.005 0.61259,-0.87063 -0.0192,-0.8808 h -12.1242 l -4.52247,-3.91133 c -0.1305,-0.11203 -0.29556,-0.17354 -0.46584,-0.17405 z m 14.43082,1.07938 c -0.57727,-0.003 -0.57835,0.99201 0.0147,1.00045 l 11.06432,-0.0145 c 1.12115,-0.003 1.60689,0.36141 1.98009,0.70929 0.37333,0.34791 0.94067,1.19973 0.94067,2.07736 v 20.40368 c 0.005,0.69035 0.81719,0.71305 0.81964,0.0229 l -0.003,-20.42756 c -1.4e-4,-1.19236 -0.39031,-2.19066 -1.09084,-2.84358 -0.70053,-0.65287 -1.65412,-0.92845 -2.64756,-0.92845 h -11.01038 c -0.0221,-0.002 -0.0449,-0.002 -0.0672,0 z"
       id="path2-3"
       sodipodi:nodetypes="sssssccscsssccccccccsccsssccssscc" />
  </g>
</svg>
