<?xml version="1.0" encoding="UTF-8" standalone="no"?>
<svg
   width="32"
   version="1.1"
   height="32"
   viewBox="0 0 32 32"
   id="svg15"
   sodipodi:docname="folder-green.svg"
   inkscape:version="1.1 (c68e22c387, 2021-05-23)"
   xmlns:inkscape="http://www.inkscape.org/namespaces/inkscape"
   xmlns:sodipodi="http://sodipodi.sourceforge.net/DTD/sodipodi-0.dtd"
   xmlns:xlink="http://www.w3.org/1999/xlink"
   xmlns="http://www.w3.org/2000/svg"
   xmlns:svg="http://www.w3.org/2000/svg"
   xmlns:rdf="http://www.w3.org/1999/02/22-rdf-syntax-ns#"
   xmlns:cc="http://creativecommons.org/ns#"
   xmlns:dc="http://purl.org/dc/elements/1.1/">
  <sodipodi:namedview
     pagecolor="#ffffff"
     bordercolor="#666666"
     borderopacity="1"
     objecttolerance="10"
     gridtolerance="10"
     guidetolerance="10"
     inkscape:pageopacity="0"
     inkscape:pageshadow="2"
     inkscape:window-width="1920"
     inkscape:window-height="1007"
     id="namedview17"
     showgrid="false"
     inkscape:zoom="9.8125"
     inkscape:cx="-21.452229"
     inkscape:cy="1.6305732"
     inkscape:window-x="0"
     inkscape:window-y="0"
     inkscape:window-maximized="1"
     inkscape:current-layer="layer1"
     inkscape:pagecheckerboard="0" />
  <defs
     id="defs5455">
    <linearGradient
       id="linearGradient4172">
      <stop
         style="stop-color:#3bad7e"
         id="stop4174" />
      <stop
         offset="1"
         style="stop-color:#45cc87"
         id="stop4176" />
    </linearGradient>
    <linearGradient
       inkscape:collect="always"
       xlink:href="#linearGradient4172"
       id="linearGradient854"
       gradientUnits="userSpaceOnUse"
       gradientTransform="matrix(0.36362815,0,0,0.37138662,382.38966,513.23011)"
       x1="6"
       y1="50.000134"
       x2="94.005508"
       y2="50.000134" />
  </defs>
  <metadata
     id="metadata5458">
    <rdf:RDF>
      <cc:Work
         rdf:about="">
        <dc:format>image/svg+xml</dc:format>
        <dc:type
           rdf:resource="http://purl.org/dc/dcmitype/StillImage" />
      </cc:Work>
    </rdf:RDF>
  </metadata>
  <g
     inkscape:label="Capa 1"
     inkscape:groupmode="layer"
     id="layer1"
     transform="translate(-384.57143,-515.798)">
    <path
       style="color:#000000;font-style:normal;font-variant:normal;font-weight:normal;font-stretch:normal;font-size:medium;line-height:normal;font-family:Sans;-inkscape-font-specification:Sans;text-indent:0;text-align:start;text-decoration:none;text-decoration-line:none;letter-spacing:normal;word-spacing:normal;text-transform:none;writing-mode:lr-tb;direction:ltr;baseline-shift:baseline;text-anchor:start;display:inline;overflow:visible;visibility:visible;opacity:1;fill:url(#linearGradient854);fill-opacity:1;fill-rule:nonzero;stroke:none;stroke-width:1.46998;marker:none;enable-background:accumulate"
       d="m 387.32138,518.80089 c -1.48292,0 -2.74995,1.0621 -2.74995,2.47203 v 20.80382 c 0,0.87828 0.31099,1.4426 0.91475,1.95462 0.60379,0.51206 1.23029,0.76653 2.02991,0.76653 h 25.41821 c 0.61028,0.011 0.59283,-0.82627 1.3e-4,-0.83513 l -25.45353,-0.0146 c -0.78672,0 -1.44041,-0.55444 -1.44041,-0.55444 0,0 -0.60225,-0.45176 -0.60225,-1.31684 v -20.80382 c 0,-0.97158 0.66143,-1.59495 1.81674,-1.58227 l 8.94725,-0.006 4.26654,3.79965 c 0.12897,0.11614 0.29402,0.28182 0.46592,0.2856 l 12.40611,-0.006 c 0.63254,-0.005 0.61246,-0.87066 -0.0205,-0.8808 h -12.12462 l -4.5227,-3.91119 c -0.13045,-0.11195 -0.29543,-0.1736 -0.46586,-0.17405 z m 14.43148,1.07936 c -0.57726,-0.003 -0.57852,0.99192 0.0131,1.0004 l 11.06498,-0.0149 c 1.12114,-0.003 1.6068,0.36139 1.98017,0.70932 0.37326,0.34787 0.94061,1.19964 0.94061,2.0773 v 20.40301 c 0.005,0.69043 0.81723,0.71317 0.81971,0.0233 l -0.003,-20.42693 c -1.2e-4,-1.19229 -0.39033,-2.19056 -1.09084,-2.84344 -0.70058,-0.65284 -1.65428,-0.92845 -2.64772,-0.92845 h -11.01065 c -0.0232,-0.002 -0.0446,-0.002 -0.0679,0 z"
       id="path2-3"
       sodipodi:nodetypes="sssssccscsssccccccccsccsssccssscc" />
  </g>
</svg>
