<?xml version="1.0" encoding="UTF-8" standalone="no"?>
<svg
   width="32"
   version="1.1"
   height="32"
   viewBox="0 0 32 32"
   id="svg17"
   sodipodi:docname="folder-bookmark.svg"
   inkscape:version="1.1 (c68e22c387, 2021-05-23)"
   xmlns:inkscape="http://www.inkscape.org/namespaces/inkscape"
   xmlns:sodipodi="http://sodipodi.sourceforge.net/DTD/sodipodi-0.dtd"
   xmlns:xlink="http://www.w3.org/1999/xlink"
   xmlns="http://www.w3.org/2000/svg"
   xmlns:svg="http://www.w3.org/2000/svg"
   xmlns:rdf="http://www.w3.org/1999/02/22-rdf-syntax-ns#"
   xmlns:cc="http://creativecommons.org/ns#"
   xmlns:dc="http://purl.org/dc/elements/1.1/">
  <sodipodi:namedview
     pagecolor="#ffffff"
     bordercolor="#666666"
     borderopacity="1"
     objecttolerance="10"
     gridtolerance="10"
     guidetolerance="10"
     inkscape:pageopacity="0"
     inkscape:pageshadow="2"
     inkscape:window-width="1920"
     inkscape:window-height="1007"
     id="namedview19"
     showgrid="false"
     inkscape:zoom="9.8125"
     inkscape:cx="-6.8789809"
     inkscape:cy="3.8726115"
     inkscape:window-x="0"
     inkscape:window-y="0"
     inkscape:window-maximized="1"
     inkscape:current-layer="layer1"
     inkscape:pagecheckerboard="0" />
  <defs
     id="defs5455">
    <linearGradient
       inkscape:collect="always"
       xlink:href="#linearGradient907"
       id="linearGradient909"
       x1="70.11927"
       y1="1024.4729"
       x2="156.19727"
       y2="1024.4729"
       gradientUnits="userSpaceOnUse"
       gradientTransform="matrix(1.0012876,0,0,1.0004015,-0.21273258,-0.79692693)" />
    <linearGradient
       inkscape:collect="always"
       id="linearGradient907">
      <stop
         style="stop-color:#ff8080;stop-opacity:1;"
         offset="0"
         id="stop903" />
      <stop
         style="stop-color:#ffdd55;stop-opacity:1"
         offset="1"
         id="stop905" />
    </linearGradient>
    <linearGradient
       inkscape:collect="always"
       xlink:href="#linearGradient907"
       id="linearGradient1203"
       x1="408.65643"
       y1="520.43433"
       x2="424.54642"
       y2="520.43433"
       gradientUnits="userSpaceOnUse"
       gradientTransform="matrix(0.49999901,0,0,0.49999901,192.2861,273.89952)" />
  </defs>
  <metadata
     id="metadata5458">
    <rdf:RDF>
      <cc:Work
         rdf:about="">
        <dc:format>image/svg+xml</dc:format>
        <dc:type
           rdf:resource="http://purl.org/dc/dcmitype/StillImage" />
      </cc:Work>
    </rdf:RDF>
  </metadata>
  <g
     inkscape:label="Capa 1"
     inkscape:groupmode="layer"
     id="layer1"
     transform="translate(-384.57143,-515.798)">
    <g
       transform="matrix(0.37127679,0,0,0.37127679,358.58323,151.5782)"
       id="g4-3-3">
      <path
         style="color:#000000;font-style:normal;font-variant:normal;font-weight:normal;font-stretch:normal;font-size:medium;line-height:normal;font-family:Sans;-inkscape-font-specification:Sans;text-indent:0;text-align:start;text-decoration:none;text-decoration-line:none;letter-spacing:normal;word-spacing:normal;text-transform:none;writing-mode:lr-tb;direction:ltr;baseline-shift:baseline;text-anchor:start;display:inline;overflow:visible;visibility:visible;opacity:1;fill:url(#linearGradient909);fill-opacity:1;fill-rule:nonzero;stroke:none;stroke-width:3.9593;marker:none;enable-background:accumulate"
         d="m 77.403222,989.07324 c -3.993848,0 -7.406391,2.86108 -7.406391,6.65893 v 56.03893 c 0,2.3658 0.837538,3.8859 2.463598,5.2652 1.626057,1.3792 3.31362,2.0649 5.466962,2.0649 h 68.458939 c 1.64356,0.029 1.59683,-2.2257 3.9e-4,-2.2497 l -68.554035,-0.04 c -2.118706,0 -3.879148,-1.4936 -3.879148,-1.4936 0,0 -1.622249,-1.217 -1.622249,-3.5471 v -56.03894 c 0,-2.61719 1.78145,-4.29634 4.893241,-4.26218 l 24.097551,-0.0121 11.49104,10.23482 c 0.34724,0.3131 0.79178,0.7594 1.25478,0.7694 l 33.41321,-0.012 c 1.70369,-0.01 1.64985,-2.3453 -0.0539,-2.3727 h -32.65544 l -12.18075,-10.5353 c -0.35155,-0.30169 -0.79567,-0.46767 -1.2548,-0.46894 z m 38.868258,2.90742 c -1.55476,-0.004 -1.55787,2.67199 0.0389,2.69479 l 29.80093,-0.0408 c 3.01968,-0.004 4.32789,0.97355 5.33332,1.9107 1.00546,0.93713 2.53335,3.23135 2.53335,5.59555 v 54.9595 c 0.009,1.8599 2.20121,1.9211 2.20775,0.064 l -0.006,-55.0238 c -3.1e-4,-3.21165 -1.0513,-5.90063 -2.93808,-7.65925 -1.88677,-1.75861 -4.45554,-2.501 -7.13094,-2.501 h -29.65619 c -0.0612,-0.003 -0.12243,-0.003 -0.18363,0 z"
         id="path2-3-6-6"
         sodipodi:nodetypes="sssssccscsssccccccccsccsssccssscc" />
    </g>
    <path
       fill-rule="evenodd"
       clip-rule="evenodd"
       d="m 401.59697,533.39061 0.75572,-0.23885 c 0.20871,-0.066 0.43276,0.0451 0.50063,0.24807 0.0677,0.20279 -0.0466,0.42089 -0.25506,0.48691 l -0.75571,0.23885 c -0.20871,0.0659 -0.43276,-0.0453 -0.50044,-0.24826 -0.0679,-0.20299 0.0464,-0.42087 0.25486,-0.48672 z m 0.09,1.54168 0.38834,0.51957 c 0.12897,0.1728 0.0896,0.41427 -0.0879,0.53991 -0.17747,0.12528 -0.42596,0.087 -0.55496,-0.0856 l -0.36174,-0.48408 c -0.10805,-0.14716 -0.28436,-0.24337 -0.48436,-0.24337 -0.19261,0 -0.3633,0.0892 -0.47229,0.22714 l -0.3738,0.50031 c -0.12897,0.17261 -0.37746,0.21091 -0.55495,0.0856 -0.17747,-0.12564 -0.21684,-0.36711 -0.0879,-0.53991 l 0.36971,-0.49465 c 0.45235,-0.59992 1.31843,-0.73235 1.93797,-0.29467 0.11015,0.0777 0.20269,0.16995 0.28182,0.26975 z m -1.10059,-3.1343 c 0.21938,0 0.39726,0.173 0.39726,0.38637 v 0.60369 c 0,0.74689 -0.62244,1.35227 -1.39037,1.35227 -0.14393,0 -0.28222,-0.0226 -0.41297,-0.0622 l -0.60575,-0.1913 c -0.20852,-0.066 -0.32276,-0.28412 -0.25506,-0.48692 0.0679,-0.20298 0.29192,-0.31411 0.50063,-0.24807 l 0.60286,0.19055 c 0.0541,0.0156 0.11094,0.0253 0.17029,0.0253 0.32916,0 0.59587,-0.25958 0.59587,-0.57954 v -0.60369 c 0,-0.21339 0.17787,-0.38639 0.39725,-0.38639 z m 3.11127,8.5 c -0.23607,0 -0.44962,-0.0924 -0.6052,-0.24223 l -1.94433,-1.89069 c -0.15517,-0.15092 -0.35844,-0.18526 -0.56174,-0.18526 -0.20329,0 -0.40675,0.0344 -0.56173,0.18526 l -1.94432,1.89069 c -0.15558,0.14979 -0.36916,0.24223 -0.6052,0.24223 -0.47562,0 -0.86123,-0.37504 -0.86123,-0.83764 v -9.98054 c 0,-0.85348 0.71146,-1.54545 1.589,-1.54545 h 4.36974 c 0.21938,0 0.39725,0.17299 0.39725,0.38636 0,0.21337 -0.17787,0.38636 -0.39725,0.38636 h -4.36974 c -0.43876,0 -0.79451,0.34599 -0.79451,0.77273 v 9.71946 c 0,0.10678 0.0888,0.19318 0.19863,0.19318 0.052,0 0.0983,-0.0204 0.13384,-0.0521 l 1.72189,-1.67486 c 0.31031,-0.30186 0.71688,-0.45844 1.12363,-0.45844 0.40657,0 0.81334,0.15658 1.12367,0.45842 l 1.72206,1.67486 c 0.0353,0.0317 0.0817,0.0521 0.13364,0.0521 0.1098,0 0.19863,-0.0864 0.19863,-0.19318 v -7.78761 c 0,-0.21337 0.17787,-0.38637 0.39725,-0.38637 0.21938,0 0.39726,0.173 0.39726,0.38637 v 8.04872 c 0,0.4626 -0.38561,0.83764 -0.86124,0.83764 z m 0.26535,-11.01136 c -0.21937,0 -0.39725,-0.17299 -0.39725,-0.38636 0,-0.21337 0.17788,-0.38637 0.39725,-0.38637 0.21938,0 0.39726,0.173 0.39726,0.38637 0,0.21337 -0.17788,0.38636 -0.39726,0.38636 z"
       id="path2"
       style="fill:url(#linearGradient1203);fill-opacity:1;stroke-width:0.0244855" />
  </g>
</svg>
