<?xml version="1.0" encoding="UTF-8" standalone="no"?>
<svg
   width="32"
   version="1.1"
   height="32"
   viewBox="0 0 32 32"
   id="svg15"
   sodipodi:docname="folder-yellow.svg"
   inkscape:version="1.1 (c68e22c387, 2021-05-23)"
   xmlns:inkscape="http://www.inkscape.org/namespaces/inkscape"
   xmlns:sodipodi="http://sodipodi.sourceforge.net/DTD/sodipodi-0.dtd"
   xmlns:xlink="http://www.w3.org/1999/xlink"
   xmlns="http://www.w3.org/2000/svg"
   xmlns:svg="http://www.w3.org/2000/svg"
   xmlns:rdf="http://www.w3.org/1999/02/22-rdf-syntax-ns#"
   xmlns:cc="http://creativecommons.org/ns#"
   xmlns:dc="http://purl.org/dc/elements/1.1/">
  <sodipodi:namedview
     pagecolor="#ffffff"
     bordercolor="#666666"
     borderopacity="1"
     objecttolerance="10"
     gridtolerance="10"
     guidetolerance="10"
     inkscape:pageopacity="0"
     inkscape:pageshadow="2"
     inkscape:window-width="1920"
     inkscape:window-height="1007"
     id="namedview17"
     showgrid="false"
     inkscape:zoom="9.8125"
     inkscape:cx="-15.745223"
     inkscape:cy="9.0700637"
     inkscape:window-x="0"
     inkscape:window-y="0"
     inkscape:window-maximized="1"
     inkscape:current-layer="layer1"
     inkscape:pagecheckerboard="0" />
  <defs
     id="defs5455">
    <linearGradient
       id="linearGradient4172-8">
      <stop
         style="stop-color:#f2cb40"
         id="stop4174-3" />
      <stop
         offset="1"
         style="stop-color:#f5d76e"
         id="stop4176-9" />
    </linearGradient>
    <linearGradient
       inkscape:collect="always"
       xlink:href="#linearGradient4172-8"
       id="linearGradient854"
       gradientUnits="userSpaceOnUse"
       gradientTransform="matrix(0.36361877,0,0,0.37135798,382.38964,513.23251)"
       x1="6"
       y1="50.000134"
       x2="94.005508"
       y2="50.000134" />
  </defs>
  <metadata
     id="metadata5458">
    <rdf:RDF>
      <cc:Work
         rdf:about="">
        <dc:format>image/svg+xml</dc:format>
        <dc:type
           rdf:resource="http://purl.org/dc/dcmitype/StillImage" />
      </cc:Work>
    </rdf:RDF>
  </metadata>
  <g
     inkscape:label="Capa 1"
     inkscape:groupmode="layer"
     id="layer1"
     transform="translate(-384.57143,-515.798)">
    <path
       style="color:#000000;font-style:normal;font-variant:normal;font-weight:normal;font-stretch:normal;font-size:medium;line-height:normal;font-family:Sans;-inkscape-font-specification:Sans;text-indent:0;text-align:start;text-decoration:none;text-decoration-line:none;letter-spacing:normal;word-spacing:normal;text-transform:none;writing-mode:lr-tb;direction:ltr;baseline-shift:baseline;text-anchor:start;display:inline;overflow:visible;visibility:visible;opacity:1;fill:url(#linearGradient854);fill-opacity:1;fill-rule:nonzero;stroke:none;stroke-width:1.46999;marker:none;enable-background:accumulate"
       d="m 387.32133,518.80292 c -1.4829,0 -2.7499,1.06203 -2.7499,2.47181 v 20.80218 c 0,0.87822 0.31102,1.44249 0.91471,1.95448 0.60376,0.51206 1.23031,0.7665 2.02986,0.7665 h 25.41761 c 0.61013,0.0111 0.59284,-0.82619 2e-4,-0.83507 l -25.45298,-0.0147 c -0.78665,0 -1.44032,-0.55441 -1.44032,-0.55441 0,0 -0.60233,-0.45172 -0.60233,-1.3167 v -20.8022 c 0,-0.97155 0.66139,-1.59485 1.81684,-1.58218 l 8.94696,-0.007 4.26641,3.79933 c 0.12895,0.11622 0.29396,0.28193 0.46589,0.28557 l 12.40585,-0.007 c 0.63239,-0.005 0.61246,-0.87061 -0.0202,-0.8808 h -12.12446 l -4.5225,-3.91071 c -0.13051,-0.11193 -0.29551,-0.17357 -0.46591,-0.17402 z m 14.43107,1.07921 c -0.57727,-0.003 -0.57836,0.99189 0.014,1.00037 l 11.0646,-0.0153 c 1.12113,-0.003 1.60686,0.3614 1.98014,0.70929 0.37325,0.34787 0.94059,1.19953 0.94059,2.07712 v 20.4015 c 0.005,0.69037 0.81725,0.71307 0.8197,0.0233 l -0.003,-20.42538 c -1.1e-4,-1.19221 -0.39031,-2.1904 -1.09082,-2.84323 -0.70051,-0.65278 -1.65426,-0.92836 -2.64773,-0.92836 h -11.01062 c -0.0231,-0.002 -0.0448,-0.002 -0.0681,0 z"
       id="path2-3"
       sodipodi:nodetypes="sssssccscsssccccccccsccsssccssscc" />
  </g>
</svg>
