<?xml version="1.0" encoding="UTF-8" standalone="no"?>
<svg
   width="32"
   version="1.1"
   height="32"
   viewBox="0 0 32 32"
   id="svg15"
   sodipodi:docname="folder-brown.svg"
   inkscape:version="1.1 (c68e22c387, 2021-05-23)"
   xmlns:inkscape="http://www.inkscape.org/namespaces/inkscape"
   xmlns:sodipodi="http://sodipodi.sourceforge.net/DTD/sodipodi-0.dtd"
   xmlns:xlink="http://www.w3.org/1999/xlink"
   xmlns="http://www.w3.org/2000/svg"
   xmlns:svg="http://www.w3.org/2000/svg"
   xmlns:rdf="http://www.w3.org/1999/02/22-rdf-syntax-ns#"
   xmlns:cc="http://creativecommons.org/ns#"
   xmlns:dc="http://purl.org/dc/elements/1.1/">
  <sodipodi:namedview
     pagecolor="#ffffff"
     bordercolor="#666666"
     borderopacity="1"
     objecttolerance="10"
     gridtolerance="10"
     guidetolerance="10"
     inkscape:pageopacity="0"
     inkscape:pageshadow="2"
     inkscape:window-width="1920"
     inkscape:window-height="1007"
     id="namedview17"
     showgrid="true"
     inkscape:zoom="9.8125"
     inkscape:cx="-18.700637"
     inkscape:cy="13.859873"
     inkscape:window-x="0"
     inkscape:window-y="0"
     inkscape:window-maximized="1"
     inkscape:current-layer="layer1"
     inkscape:pagecheckerboard="0">
    <inkscape:grid
       type="xygrid"
       id="grid871" />
  </sodipodi:namedview>
  <defs
     id="defs5455">
    <linearGradient
       inkscape:collect="always"
       id="linearGradient4172-5">
      <stop
         style="stop-color:#8b6039"
         id="stop4174-6" />
      <stop
         offset="1"
         style="stop-color:#996e45"
         id="stop4176-6" />
    </linearGradient>
    <linearGradient
       inkscape:collect="always"
       xlink:href="#linearGradient4172-5"
       id="linearGradient854"
       gradientUnits="userSpaceOnUse"
       gradientTransform="matrix(0.36361835,0,0,0.37136458,382.38963,513.23192)"
       x1="6"
       y1="50.000134"
       x2="94.005508"
       y2="50.000134" />
  </defs>
  <metadata
     id="metadata5458">
    <rdf:RDF>
      <cc:Work
         rdf:about="">
        <dc:format>image/svg+xml</dc:format>
        <dc:type
           rdf:resource="http://purl.org/dc/dcmitype/StillImage" />
      </cc:Work>
    </rdf:RDF>
  </metadata>
  <g
     inkscape:label="Capa 1"
     inkscape:groupmode="layer"
     id="layer1"
     transform="translate(-384.57143,-515.798)">
    <path
       style="color:#000000;font-style:normal;font-variant:normal;font-weight:normal;font-stretch:normal;font-size:medium;line-height:normal;font-family:Sans;-inkscape-font-specification:Sans;text-indent:0;text-align:start;text-decoration:none;text-decoration-line:none;letter-spacing:normal;word-spacing:normal;text-transform:none;writing-mode:lr-tb;direction:ltr;baseline-shift:baseline;text-anchor:start;display:inline;overflow:visible;visibility:visible;opacity:1;fill:url(#linearGradient854);fill-opacity:1;fill-rule:nonzero;stroke:none;stroke-width:1.46999;marker:none;enable-background:accumulate"
       d="m 387.32123,518.80239 c -1.48283,0 -2.7498,1.06206 -2.7498,2.47192 v 20.8026 c 0,0.87824 0.31102,1.44252 0.91482,1.95456 0.60372,0.51198 1.23025,0.76641 2.0297,0.76641 h 25.41759 c 0.61022,0.0118 0.59288,-0.82613 1.9e-4,-0.83513 l -25.45307,-0.0138 c -0.78664,0 -1.44003,-0.55451 -1.44003,-0.55451 0,0 -0.60244,-0.45166 -0.60244,-1.31674 v -20.80264 c 0,-0.9716 0.66148,-1.59481 1.81683,-1.58222 l 8.94686,-0.007 4.26646,3.79938 c 0.12898,0.11631 0.29397,0.28193 0.46589,0.28559 l 12.40579,-0.007 c 0.63253,-0.005 0.61253,-0.87061 -0.019,-0.88077 h -12.12451 l -4.52253,-3.91102 c -0.1306,-0.11204 -0.29536,-0.1735 -0.4659,-0.17402 z m 14.43121,1.07923 c -0.57725,-0.003 -0.57844,0.99195 0.014,1.00046 l 11.06449,-0.0152 c 1.12124,-0.003 1.60695,0.36139 1.98027,0.70939 0.37325,0.34787 0.94053,1.19954 0.94053,2.07716 v 20.40183 c 0.005,0.69028 0.81725,0.71299 0.8197,0.023 l -0.003,-20.42581 c -10e-5,-1.19224 -0.39035,-2.19047 -1.09081,-2.84323 -0.70052,-0.65278 -1.65432,-0.92837 -2.64761,-0.92837 H 401.8195 c -0.0218,-0.002 -0.0449,-0.002 -0.0671,0 z"
       id="path2-3"
       sodipodi:nodetypes="sssssccscsssccccccccsccsssccssscc" />
  </g>
</svg>
