<?xml version="1.0" encoding="UTF-8" standalone="no"?>
<svg
   width="32"
   version="1.1"
   height="32"
   viewBox="0 0 32 32"
   id="svg17"
   sodipodi:docname="folder-network.svg"
   inkscape:version="1.1 (c68e22c387, 2021-05-23)"
   xmlns:inkscape="http://www.inkscape.org/namespaces/inkscape"
   xmlns:sodipodi="http://sodipodi.sourceforge.net/DTD/sodipodi-0.dtd"
   xmlns:xlink="http://www.w3.org/1999/xlink"
   xmlns="http://www.w3.org/2000/svg"
   xmlns:svg="http://www.w3.org/2000/svg"
   xmlns:rdf="http://www.w3.org/1999/02/22-rdf-syntax-ns#"
   xmlns:cc="http://creativecommons.org/ns#"
   xmlns:dc="http://purl.org/dc/elements/1.1/">
  <sodipodi:namedview
     pagecolor="#ffffff"
     bordercolor="#666666"
     borderopacity="1"
     objecttolerance="10"
     gridtolerance="10"
     guidetolerance="10"
     inkscape:pageopacity="0"
     inkscape:pageshadow="2"
     inkscape:window-width="1920"
     inkscape:window-height="1007"
     id="namedview19"
     showgrid="false"
     inkscape:zoom="9.8125"
     inkscape:cx="-21.044586"
     inkscape:cy="5.6050955"
     inkscape:window-x="0"
     inkscape:window-y="0"
     inkscape:window-maximized="1"
     inkscape:current-layer="layer1"
     inkscape:pagecheckerboard="0" />
  <defs
     id="defs5455">
    <linearGradient
       inkscape:collect="always"
       xlink:href="#linearGradient2187"
       id="linearGradient1771"
       x1="384.57144"
       y1="515.78766"
       x2="448.48907"
       y2="515.78766"
       gradientUnits="userSpaceOnUse"
       gradientTransform="matrix(0.50064469,0,0,0.50019964,192.03777,273.80217)" />
    <linearGradient
       inkscape:collect="always"
       id="linearGradient2187">
      <stop
         style="stop-color:#37c837;stop-opacity:1"
         offset="0"
         id="stop2183" />
      <stop
         style="stop-color:#00ffff;stop-opacity:1"
         offset="1"
         id="stop2185" />
    </linearGradient>
    <linearGradient
       inkscape:collect="always"
       xlink:href="#linearGradient2187"
       id="linearGradient1306"
       x1="401.87143"
       y1="520.79797"
       x2="431.39539"
       y2="520.79797"
       gradientUnits="userSpaceOnUse"
       gradientTransform="matrix(0.50000014,0,0,0.50000014,192.28565,273.89988)" />
  </defs>
  <metadata
     id="metadata5458">
    <rdf:RDF>
      <cc:Work
         rdf:about="">
        <dc:format>image/svg+xml</dc:format>
        <dc:type
           rdf:resource="http://purl.org/dc/dcmitype/StillImage" />
      </cc:Work>
    </rdf:RDF>
  </metadata>
  <g
     inkscape:label="Capa 1"
     inkscape:groupmode="layer"
     id="layer1"
     transform="translate(-384.57143,-515.798)">
    <path
       style="color:#000000;font-style:normal;font-variant:normal;font-weight:normal;font-stretch:normal;font-size:medium;line-height:normal;font-family:Sans;-inkscape-font-specification:Sans;text-indent:0;text-align:start;text-decoration:none;text-decoration-line:none;letter-spacing:normal;word-spacing:normal;text-transform:none;writing-mode:lr-tb;direction:ltr;baseline-shift:baseline;text-anchor:start;display:inline;overflow:visible;visibility:visible;fill:url(#linearGradient1771);fill-opacity:1;fill-rule:nonzero;stroke:none;stroke-width:1.47001;marker:none;enable-background:accumulate"
       d="m 387.32126,518.79911 c -1.48283,0 -2.74983,1.06225 -2.74983,2.47231 v 20.80597 c 0,0.87838 0.31097,1.44276 0.91468,1.95485 0.60372,0.51208 1.23028,0.76666 2.02976,0.76666 h 25.41731 c 0.61022,0.0108 0.59287,-0.82639 1.5e-4,-0.83527 l -25.45262,-0.0148 c -0.78662,0 -1.44024,-0.5545 -1.44024,-0.5545 0,0 -0.60231,-0.45184 -0.60231,-1.31696 v -20.80598 c 0,-0.9717 0.66142,-1.59513 1.81676,-1.58245 l 8.94689,-0.005 4.26638,3.80002 c 0.12891,0.11622 0.29397,0.28191 0.46586,0.28562 l 12.4056,-0.005 c 0.63254,-0.003 0.61256,-0.87077 -0.02,-0.88091 h -12.12426 l -4.52245,-3.91156 c -0.13052,-0.11201 -0.29541,-0.17364 -0.46588,-0.17411 z m 14.43093,1.07946 c -0.57724,-0.002 -0.5784,0.99204 0.0144,1.00051 l 11.06444,-0.0152 c 1.12114,-10e-4 1.60685,0.36147 1.98015,0.7094 0.3733,0.34794 0.94057,1.19977 0.94057,2.07752 v 20.40521 c 0.004,0.69051 0.81726,0.71325 0.81969,0.0238 l -0.002,-20.42909 c -1.2e-4,-1.19243 -0.39032,-2.19079 -1.09085,-2.84371 -0.70051,-0.65294 -1.65424,-0.92857 -2.64756,-0.92857 h -11.01069 c -0.0228,-10e-4 -0.0455,-10e-4 -0.0682,0 z"
       id="path2-3-3"
       sodipodi:nodetypes="sssssccscsssccccccccsccsssccssscc" />
    <path
       d="m 407.44265,533.74499 -0.32648,0.32651 c -0.54031,0.54076 -1.41682,0.54076 -1.95758,0 l -0.32605,-0.32651 c -2.34287,-2.34287 -6.14144,-2.34287 -8.48434,0 -0.36005,0.36074 -0.36005,0.94523 0,1.30528 l 0.32648,0.32648 c 0.18026,0.18003 0.47227,0.18003 0.65253,0 0.0293,-0.0288 0.22646,-0.22666 0.32625,-0.32648 1.62207,-1.62187 4.25191,-1.62187 5.87376,0 0.72103,0.72103 0.72103,1.65883 0,2.37962 l -0.32648,0.32648 c -0.53875,0.53875 -1.41142,0.53988 -1.95173,0.005 h -0.0108 c -0.15568,-0.14195 -0.36795,-0.23119 -0.63349,-0.23119 -0.50991,0 -0.92292,0.4137 -0.92292,0.92314 0,0.0631 0.006,0.12483 0.0185,0.18453 0.002,0.007 0.005,0.0138 0.006,0.021 0.008,0.0358 0.0202,0.0705 0.0324,0.10478 0.0451,0.10815 0.11064,0.20999 0.19875,0.2981 0.0209,0.0209 0.0313,0.0476 0.0473,0.0714 0.16405,0.14983 0.38035,0.24336 0.61962,0.24336 0.25518,0 0.4618,0.20639 0.4618,0.46146 0,0.25437 -0.20662,0.46099 -0.4618,0.46099 -0.89407,0 -1.63987,-0.63629 -1.80931,-1.47989 -0.1361,-0.59822 0.0239,-1.24962 0.48983,-1.71558 0.72057,-0.72036 1.88943,-0.72036 2.61023,0 0.18026,0.18072 0.47228,0.18072 0.65299,0 l 0.32582,-0.32581 c 0.36074,-0.36075 0.36074,-0.71406 0,-1.0748 -1.26114,-1.26133 -3.30648,-1.26133 -4.56828,0 l -0.32604,0.32625 c -0.54077,0.54101 -1.41728,0.54101 -1.95759,0 l -0.32648,-0.32624 c -0.67597,-0.67551 -0.71788,-1.74488 -0.12684,-2.4702 0.0437,-0.046 0.0818,-0.0949 0.12684,-0.13994 2.70295,-2.70318 7.08598,-2.70318 9.78893,0 0.0451,0.045 0.28299,0.28031 0.32648,0.32648 0.18026,0.18003 0.47228,0.18003 0.65253,0 l 0.32648,-0.32648 c 0.36005,-0.36074 0.36005,-0.94521 0,-1.30529 -3.25857,-3.25857 -8.44419,-3.41382 -11.88821,-0.46933 l -0.005,-0.005 c -0.0813,0.0723 -0.18792,0.11785 -0.30597,0.11785 -0.25438,0 -0.46146,-0.20639 -0.46146,-0.46146 0,-0.16944 0.0926,-0.31566 0.22802,-0.3959 3.80721,-3.20764 9.49983,-3.02378 13.08491,0.56174 0.72102,0.72059 0.72102,1.88932 0,2.61011 z m -13.75976,-0.82895 c -0.25507,0 -0.46146,-0.20662 -0.46146,-0.46169 0,-0.25484 0.20639,-0.46145 0.46146,-0.46145 0.25507,0 0.46145,0.20661 0.46145,0.46145 0,0.25507 -0.20638,0.46169 -0.46145,0.46169 z"
       id="path2"
       style="fill:url(#linearGradient1306);fill-opacity:1;stroke-width:0.028841" />
  </g>
</svg>
