<?xml version="1.0" encoding="UTF-8" standalone="no"?>
<svg
   width="32"
   version="1.1"
   height="32"
   viewBox="0 0 32 32"
   id="svg2"
   inkscape:version="1.1 (c68e22c387, 2021-05-23)"
   sodipodi:docname="folder-gdrive.svg"
   xmlns:inkscape="http://www.inkscape.org/namespaces/inkscape"
   xmlns:sodipodi="http://sodipodi.sourceforge.net/DTD/sodipodi-0.dtd"
   xmlns:xlink="http://www.w3.org/1999/xlink"
   xmlns="http://www.w3.org/2000/svg"
   xmlns:svg="http://www.w3.org/2000/svg"
   xmlns:rdf="http://www.w3.org/1999/02/22-rdf-syntax-ns#"
   xmlns:cc="http://creativecommons.org/ns#"
   xmlns:dc="http://purl.org/dc/elements/1.1/">
  <sodipodi:namedview
     pagecolor="#ffffff"
     bordercolor="#666666"
     borderopacity="1"
     objecttolerance="10"
     gridtolerance="10"
     guidetolerance="10"
     inkscape:pageopacity="0"
     inkscape:pageshadow="2"
     inkscape:window-width="1920"
     inkscape:window-height="1007"
     id="namedview46"
     showgrid="false"
     inkscape:zoom="10.429825"
     inkscape:cx="-17.977291"
     inkscape:cy="6.3280065"
     inkscape:window-x="0"
     inkscape:window-y="0"
     inkscape:window-maximized="1"
     inkscape:current-layer="layer1"
     inkscape:document-rotation="0"
     inkscape:pagecheckerboard="0" />
  <defs
     id="defs5455">
    <linearGradient
       inkscape:collect="always"
       xlink:href="#linearGradient853-6"
       id="linearGradient854-3"
       gradientUnits="userSpaceOnUse"
       gradientTransform="matrix(0.36361408,0,0,0.37142577,382.38973,513.22772)"
       x1="6"
       y1="50.000134"
       x2="94.005508"
       y2="50.000134" />
    <linearGradient
       inkscape:collect="always"
       id="linearGradient853-6">
      <stop
         style="stop-color:#b380ff;stop-opacity:1"
         offset="0"
         id="stop849-7" />
      <stop
         style="stop-color:#de87cd;stop-opacity:1"
         offset="1"
         id="stop851-5" />
    </linearGradient>
    <linearGradient
       inkscape:collect="always"
       xlink:href="#linearGradient853-6"
       id="linearGradient1354"
       x1="403.31842"
       y1="520.79797"
       x2="430.7471"
       y2="520.79797"
       gradientUnits="userSpaceOnUse"
       gradientTransform="matrix(0.50000014,0,0,0.50000014,192.28565,273.89988)" />
  </defs>
  <metadata
     id="metadata5458">
    <rdf:RDF>
      <cc:Work
         rdf:about="">
        <dc:format>image/svg+xml</dc:format>
        <dc:type
           rdf:resource="http://purl.org/dc/dcmitype/StillImage" />
      </cc:Work>
    </rdf:RDF>
  </metadata>
  <g
     inkscape:label="Capa 1"
     inkscape:groupmode="layer"
     id="layer1"
     transform="translate(-384.57143,-515.798)">
    <path
       style="color:#000000;font-style:normal;font-variant:normal;font-weight:normal;font-stretch:normal;font-size:medium;line-height:normal;font-family:Sans;-inkscape-font-specification:Sans;text-indent:0;text-align:start;text-decoration:none;text-decoration-line:none;letter-spacing:normal;word-spacing:normal;text-transform:none;writing-mode:lr-tb;direction:ltr;baseline-shift:baseline;text-anchor:start;display:inline;overflow:visible;visibility:visible;fill:url(#linearGradient854-3);fill-opacity:1;fill-rule:nonzero;stroke:none;stroke-width:1.47001;marker:none;enable-background:accumulate"
       d="m 387.32126,518.79911 c -1.48283,0 -2.74983,1.06225 -2.74983,2.47231 v 20.80597 c 0,0.87838 0.31097,1.44276 0.91468,1.95485 0.60372,0.51208 1.23028,0.76666 2.02976,0.76666 h 25.41731 c 0.61022,0.0108 0.59287,-0.82639 1.5e-4,-0.83527 l -25.45262,-0.0148 c -0.78662,0 -1.44024,-0.5545 -1.44024,-0.5545 0,0 -0.60231,-0.45184 -0.60231,-1.31696 v -20.80598 c 0,-0.9717 0.66142,-1.59513 1.81676,-1.58245 l 8.94689,-0.005 4.26638,3.80002 c 0.12891,0.11622 0.29397,0.28191 0.46586,0.28562 l 12.4056,-0.005 c 0.63254,-0.003 0.61256,-0.87077 -0.02,-0.88091 h -12.12426 l -4.52245,-3.91156 c -0.13052,-0.11201 -0.29541,-0.17364 -0.46588,-0.17411 z m 14.43093,1.07946 c -0.57724,-0.002 -0.5784,0.99204 0.0144,1.00051 l 11.06444,-0.0152 c 1.12114,-10e-4 1.60685,0.36147 1.98015,0.7094 0.3733,0.34794 0.94057,1.19977 0.94057,2.07752 v 20.40521 c 0.003,0.69051 0.81726,0.71325 0.81969,0.0237 l -0.002,-20.42909 c -1.2e-4,-1.19243 -0.39032,-2.19079 -1.09085,-2.84371 -0.70051,-0.65294 -1.65424,-0.92857 -2.64756,-0.92857 h -11.01069 c -0.0227,-10e-4 -0.0455,-10e-4 -0.0682,0 z"
       id="path2-3-3"
       sodipodi:nodetypes="sssssccscsssccccccccsccsssccssscc" />
    <path
       fill-rule="evenodd"
       clip-rule="evenodd"
       d="m 407.17056,535.04686 -5.4494,2.29458 c -0.28604,0.10945 -0.59488,0.17202 -0.9188,0.17202 -0.32328,0 -0.63171,-0.063 -0.91639,-0.17119 l -5.45266,-2.29584 c -0.0908,-0.0394 -0.17494,-0.096 -0.249,-0.16971 -0.3191,-0.31891 -0.3191,-0.83601 0,-1.15513 0.0755,-0.0753 0.16299,-0.13267 0.25465,-0.17202 l 0.68392,-0.28773 c 0.0634,-0.0381 0.13642,-0.0611 0.21511,-0.0611 0.23309,0 0.42204,0.18876 0.42204,0.42187 0,0.18898 -0.1245,0.34656 -0.29566,0.40074 l -0.21386,0.0889 c -0.0672,0.036 -0.11319,0.10567 -0.11319,0.18689 0,0.0793 0.0437,0.14793 0.10858,0.18498 l 4.86172,2.02881 c 0.014,0.005 0.0263,0.008 0.0404,0.014 0.20172,0.0835 0.42225,0.1291 0.65432,0.1291 0.22974,0 0.44885,-0.0452 0.64929,-0.12723 0.0168,-0.007 0.0316,-0.0111 0.0479,-0.0173 l 4.85909,-2.02736 c 0.0649,-0.037 0.10862,-0.10567 0.10862,-0.18498 0,-0.0816 -0.0462,-0.15089 -0.11341,-0.18689 l -0.21426,-0.0893 c -0.17074,-0.0538 -0.29524,-0.21199 -0.29524,-0.40032 0,-0.23311 0.18895,-0.42187 0.42207,-0.42187 0.0797,0 0.15377,0.0235 0.21718,0.0619 l 0.68359,0.28794 c 0.0915,0.0394 0.17786,0.0961 0.25278,0.17098 0.3191,0.31912 0.3191,0.83622 0,1.15513 -0.0745,0.0741 -0.15857,0.13082 -0.2494,0.17017 z m 10e-4,-2.78654 -5.45778,2.29792 c -0.28331,0.10757 -0.59006,0.1695 -0.91147,0.1695 -0.32035,0 -0.62606,-0.0613 -0.90905,-0.16803 l -5.46105,-2.29939 c -0.0904,-0.0398 -0.17389,-0.0956 -0.24795,-0.16907 -0.3191,-0.31913 -0.3191,-0.83663 0,-1.15575 0.0745,-0.0739 0.15902,-0.12954 0.25087,-0.16993 l 5.45893,-2.29835 c 0.2828,-0.10674 0.58789,-0.16827 0.90825,-0.16827 0.32097,0 0.62711,0.0615 0.91063,0.16907 l 0.50829,0.21386 c 0.17451,0.0544 0.30175,0.21533 0.30175,0.40744 0,0.23646 -0.19168,0.42878 -0.42855,0.42878 -0.0726,0 -0.13937,-0.0203 -0.1994,-0.0519 l -0.40323,-0.16824 c -0.0138,-0.005 -0.0264,-0.009 -0.0402,-0.0145 -0.20044,-0.0822 -0.41954,-0.12744 -0.64928,-0.12744 -0.23208,0 -0.4526,0.0462 -0.65433,0.12932 -0.0115,0.005 -0.0215,0.007 -0.0333,0.0115 l -4.86656,2.0307 c -0.0653,0.0366 -0.11089,0.10527 -0.11089,0.18603 0,0.0793 0.0437,0.14753 0.10797,0.18498 l 4.86863,2.03068 c 0.0115,0.005 0.022,0.007 0.0341,0.0119 0.20172,0.0831 0.42225,0.12932 0.65432,0.12932 0.22974,0 0.44885,-0.0452 0.64928,-0.12745 0.0143,-0.006 0.0272,-0.009 0.0412,-0.0148 l 4.86622,-2.02963 c 0.0644,-0.0375 0.10819,-0.10567 0.10819,-0.18498 0,-0.0808 -0.0456,-0.14898 -0.11111,-0.18603 l -0.66034,-0.27581 c -0.16281,-0.0586 -0.28,-0.21241 -0.28,-0.39552 0,-0.2329 0.18876,-0.42187 0.42185,-0.42187 0.0797,0 0.15424,0.0236 0.21782,0.0619 l 1.11571,0.47 c 0.0908,0.0389 0.1747,0.0956 0.24879,0.16908 0.31909,0.31912 0.31909,0.83662 0,1.15575 -0.0741,0.0735 -0.15799,0.1294 -0.24839,0.16917 z m -3.58355,-2.03258 c -0.23687,0 -0.42873,-0.19168 -0.42873,-0.42857 0,-0.2369 0.19186,-0.42857 0.42873,-0.42857 0.23622,0 0.42854,0.19167 0.42854,0.42857 0,0.23689 -0.19232,0.42857 -0.42854,0.42857 z m -9.1491,6.10736 0.68686,-0.28878 c 0.0624,-0.0369 0.13433,-0.0594 0.21217,-0.0594 0.23309,0 0.42204,0.18876 0.42204,0.42188 0,0.19063 -0.12785,0.3503 -0.30193,0.40222 l -0.20759,0.0868 c -0.0671,0.0362 -0.11319,0.10527 -0.11319,0.18689 0,0.0799 0.0437,0.14815 0.10858,0.18519 l 4.86884,2.03154 c 0.0118,0.005 0.0217,0.007 0.0333,0.0115 0.20173,0.0831 0.42225,0.12932 0.65433,0.12932 0.22974,0 0.44884,-0.0456 0.64928,-0.12744 0.0138,-0.006 0.0263,-0.009 0.0402,-0.0145 l 4.86684,-2.0305 c 0.0649,-0.0371 0.10861,-0.10526 0.10861,-0.18519 0,-0.0812 -0.0462,-0.15067 -0.11341,-0.18689 l -0.20903,-0.0868 c -0.17387,-0.0529 -0.30049,-0.21198 -0.30049,-0.40221 0,-0.23312 0.18895,-0.42188 0.42207,-0.42188 0.0768,0 0.14751,0.0219 0.20943,0.0575 l 0.69137,0.29129 c 0.0923,0.0398 0.17743,0.096 0.25278,0.17138 0.31909,0.31913 0.31909,0.83622 0,1.15535 -0.0734,0.0734 -0.15756,0.12911 -0.24608,0.16867 l -5.45819,2.29834 c -0.28436,0.1084 -0.59132,0.1695 -0.91334,0.1695 -0.3214,0 -0.62794,-0.0619 -0.91157,-0.16907 l -5.46145,-2.29939 c -0.0893,-0.0398 -0.17199,-0.095 -0.24501,-0.16803 -0.3191,-0.31912 -0.3191,-0.83622 0,-1.15535 0.0755,-0.0753 0.16299,-0.13206 0.25463,-0.17202 z"
       id="path2"
       style="fill:url(#linearGradient1354);fill-opacity:1;stroke-width:0.0267857" />
  </g>
</svg>
