<?xml version="1.0" encoding="UTF-8" standalone="no"?>
<svg
   width="32"
   version="1.1"
   height="32"
   viewBox="0 0 32 32"
   id="svg17"
   sodipodi:docname="folder-templates.svg"
   inkscape:version="1.1 (c68e22c387, 2021-05-23)"
   xmlns:inkscape="http://www.inkscape.org/namespaces/inkscape"
   xmlns:sodipodi="http://sodipodi.sourceforge.net/DTD/sodipodi-0.dtd"
   xmlns:xlink="http://www.w3.org/1999/xlink"
   xmlns="http://www.w3.org/2000/svg"
   xmlns:svg="http://www.w3.org/2000/svg"
   xmlns:rdf="http://www.w3.org/1999/02/22-rdf-syntax-ns#"
   xmlns:cc="http://creativecommons.org/ns#"
   xmlns:dc="http://purl.org/dc/elements/1.1/">
  <sodipodi:namedview
     pagecolor="#ffffff"
     bordercolor="#666666"
     borderopacity="1"
     objecttolerance="10"
     gridtolerance="10"
     guidetolerance="10"
     inkscape:pageopacity="0"
     inkscape:pageshadow="2"
     inkscape:window-width="1920"
     inkscape:window-height="1007"
     id="namedview19"
     showgrid="true"
     inkscape:zoom="9.8125"
     inkscape:cx="-11.159236"
     inkscape:cy="3.0573248"
     inkscape:window-x="0"
     inkscape:window-y="0"
     inkscape:window-maximized="1"
     inkscape:current-layer="layer1"
     inkscape:pagecheckerboard="0">
    <inkscape:grid
       type="xygrid"
       id="grid838" />
  </sodipodi:namedview>
  <defs
     id="defs5455">
    <linearGradient
       inkscape:collect="always"
       id="linearGradient934">
      <stop
         style="stop-color:#ffcc00;stop-opacity:1"
         offset="0"
         id="stop930" />
      <stop
         style="stop-color:#00ffff;stop-opacity:1"
         offset="1"
         id="stop932" />
    </linearGradient>
    <linearGradient
       inkscape:collect="always"
       xlink:href="#linearGradient1416"
       id="linearGradient854-3"
       gradientUnits="userSpaceOnUse"
       gradientTransform="matrix(0.36361408,0,0,0.37142577,382.38973,513.22772)"
       x1="6"
       y1="50.000134"
       x2="94.005508"
       y2="50.000134" />
    <linearGradient
       inkscape:collect="always"
       id="linearGradient1416">
      <stop
         style="stop-color:#ffdb4b;stop-opacity:1"
         offset="0"
         id="stop1412" />
      <stop
         style="stop-color:#00ffff;stop-opacity:1"
         offset="1"
         id="stop1414" />
    </linearGradient>
    <linearGradient
       inkscape:collect="always"
       xlink:href="#linearGradient934"
       id="linearGradient1340"
       x1="403.07144"
       y1="520.79797"
       x2="430.5"
       y2="520.79797"
       gradientUnits="userSpaceOnUse"
       gradientTransform="matrix(0.50000014,0,0,0.50000014,192.28566,273.89988)" />
    <linearGradient
       inkscape:collect="always"
       xlink:href="#linearGradient934"
       id="linearGradient1342"
       x1="411.08597"
       y1="520.91626"
       x2="423.2088"
       y2="520.91626"
       gradientUnits="userSpaceOnUse"
       gradientTransform="matrix(0.50000014,0,0,0.50000014,192.28566,273.89988)" />
    <linearGradient
       inkscape:collect="always"
       xlink:href="#linearGradient934"
       id="linearGradient1344"
       x1="411.08276"
       y1="526.46552"
       x2="416.70187"
       y2="526.46552"
       gradientUnits="userSpaceOnUse"
       gradientTransform="matrix(0.50000014,0,0,0.50000014,192.28566,273.89988)" />
    <linearGradient
       inkscape:collect="always"
       xlink:href="#linearGradient934"
       id="linearGradient1346"
       x1="417.58969"
       y1="526.46552"
       x2="423.2088"
       y2="526.46552"
       gradientUnits="userSpaceOnUse"
       gradientTransform="matrix(0.50000014,0,0,0.50000014,192.28566,273.89988)" />
  </defs>
  <metadata
     id="metadata5458">
    <rdf:RDF>
      <cc:Work
         rdf:about="">
        <dc:format>image/svg+xml</dc:format>
        <dc:type
           rdf:resource="http://purl.org/dc/dcmitype/StillImage" />
      </cc:Work>
    </rdf:RDF>
  </metadata>
  <g
     inkscape:label="Capa 1"
     inkscape:groupmode="layer"
     id="layer1"
     transform="translate(-384.57143,-515.798)">
    <path
       style="color:#000000;font-style:normal;font-variant:normal;font-weight:normal;font-stretch:normal;font-size:medium;line-height:normal;font-family:Sans;-inkscape-font-specification:Sans;text-indent:0;text-align:start;text-decoration:none;text-decoration-line:none;letter-spacing:normal;word-spacing:normal;text-transform:none;writing-mode:lr-tb;direction:ltr;baseline-shift:baseline;text-anchor:start;display:inline;overflow:visible;visibility:visible;fill:url(#linearGradient854-3);fill-opacity:1;fill-rule:nonzero;stroke:none;stroke-width:1.47001;marker:none;enable-background:accumulate"
       d="m 387.32126,518.79911 c -1.48283,0 -2.74983,1.06225 -2.74983,2.47231 v 20.80597 c 0,0.87838 0.31097,1.44276 0.91468,1.95485 0.60372,0.51208 1.23028,0.76666 2.02976,0.76666 h 25.41731 c 0.61022,0.0108 0.59287,-0.82639 1.5e-4,-0.83527 l -25.45262,-0.0148 c -0.78662,0 -1.44024,-0.5545 -1.44024,-0.5545 0,0 -0.60231,-0.45184 -0.60231,-1.31696 v -20.80598 c 0,-0.9717 0.66142,-1.59513 1.81676,-1.58245 l 8.94689,-0.005 4.26638,3.80002 c 0.12891,0.11622 0.29397,0.28191 0.46586,0.28562 l 12.4056,-0.005 c 0.63254,-0.003 0.61256,-0.87077 -0.02,-0.88091 h -12.12426 l -4.52245,-3.91156 c -0.13052,-0.11201 -0.29541,-0.17364 -0.46588,-0.17411 z m 14.43093,1.07946 c -0.57724,-0.002 -0.5784,0.99204 0.0144,1.00051 l 11.06444,-0.0152 c 1.12114,-10e-4 1.60685,0.36147 1.98015,0.7094 0.3733,0.34794 0.94057,1.19977 0.94057,2.07752 v 20.40521 c 0.003,0.69051 0.81726,0.71325 0.81969,0.0238 l -0.002,-20.42909 c -1.2e-4,-1.19243 -0.39032,-2.19079 -1.09085,-2.84371 -0.70051,-0.65294 -1.65424,-0.92857 -2.64756,-0.92857 h -11.01069 c -0.0227,-10e-4 -0.0455,-10e-4 -0.0682,0 z"
       id="path2-3-5"
       sodipodi:nodetypes="sssssccscsssccccccccsccsssccssscc" />
    <path
       fill-rule="evenodd"
       clip-rule="evenodd"
       d="m 395.53572,530.44181 c 0,-0.23668 0.19189,-0.42857 0.42857,-0.42857 0.23668,0 0.42857,0.19189 0.42857,0.42857 0,0.23668 -0.19189,0.42857 -0.42857,0.42857 -0.23668,0 -0.42857,-0.19189 -0.42857,-0.42857 z m 1.71428,0 c 0,-0.23668 0.1919,-0.42857 0.42858,-0.42857 0.23667,0 0.42857,0.19189 0.42857,0.42857 0,0.23668 -0.1919,0.42857 -0.42857,0.42857 -0.23668,0 -0.42858,-0.19189 -0.42858,-0.42857 z m 1.71429,0 c 0,-0.23668 0.19189,-0.42857 0.42857,-0.42857 0.23668,0 0.42857,0.19189 0.42857,0.42857 0,0.23668 -0.19189,0.42857 -0.42857,0.42857 -0.23668,0 -0.42857,-0.19189 -0.42857,-0.42857 z m 8.57143,2.35714 v 5.78572 c 0,0.94672 -0.76757,1.71429 -1.71428,1.71429 h -10.28572 c -0.94672,0 -1.71429,-0.76757 -1.71429,-1.71429 v -4.71429 c 0,-0.23668 0.1919,-0.42857 0.42857,-0.42857 0.23668,0 0.42858,0.19189 0.42858,0.42857 v 4.71429 c 0,0.47336 0.38378,0.85714 0.85714,0.85714 h 10.28572 c 0.47335,0 0.85714,-0.38378 0.85714,-0.85714 v -5.57143 c 0,-0.23668 -0.19189,-0.42857 -0.42857,-0.42857 h -11.35715 c -0.5918,0 -1.07143,-0.47963 -1.07143,-1.07143 v -1.5 c 0,-0.94672 0.76757,-1.71429 1.71429,-1.71429 h 10.28572 c 0.94671,0 1.71428,0.76757 1.71428,1.71429 v 0.42857 c 0,0.23668 -0.19189,0.42857 -0.42857,0.42857 -0.23668,0 -0.42857,-0.19189 -0.42857,-0.42857 v -0.42857 c 0,-0.47336 -0.38379,-0.85714 -0.85714,-0.85714 h -10.28572 c -0.47336,0 -0.85714,0.38378 -0.85714,0.85714 v 1.28571 c 0,0.23668 0.19189,0.42857 0.42857,0.42857 h 11.35714 c 0.59181,0 1.07143,0.47963 1.07143,1.07143 z"
       id="path2"
       style="fill:url(#linearGradient1340);fill-opacity:1;stroke-width:0.0267857" />
    <path
       d="m 403.24794,533.47829 h -4.77705 a 0.64218343,0.64218343 0 0 0 -0.64218,0.64219 v 0.47521 a 0.64218343,0.64218343 0 0 0 0.64218,0.64218 h 4.77705 a 0.64218343,0.64218343 0 0 0 0.64218,-0.64218 v -0.47521 a 0.64218343,0.64218343 0 0 0 -0.64218,-0.64219 z m 0.32109,1.1174 a 0.32109175,0.32109175 0 0 1 -0.32109,0.32109 h -4.77705 a 0.32109175,0.32109175 0 0 1 -0.32109,-0.32109 v -0.47521 a 0.32109175,0.32109175 0 0 1 0.32109,-0.3211 h 4.77705 a 0.32109175,0.32109175 0 0 1 0.32109,0.3211 z"
       id="path6"
       style="fill:url(#linearGradient1342);fill-opacity:1;stroke-width:0.0802725" />
    <path
       d="m 399.99447,535.68178 h -1.52518 a 0.64218343,0.64218343 0 0 0 -0.64219,0.64219 v 1.6175 a 0.64218343,0.64218343 0 0 0 0.64219,0.64218 h 1.52518 a 0.64218343,0.64218343 0 0 0 0.64218,-0.64218 v -1.6175 a 0.64218343,0.64218343 0 0 0 -0.64218,-0.64219 z m 0.32109,2.25889 a 0.32109175,0.32109175 0 0 1 -0.32109,0.32109 h -1.52518 a 0.32109175,0.32109175 0 0 1 -0.3211,-0.32109 v -1.6167 a 0.32109175,0.32109175 0 0 1 0.3211,-0.3211 h 1.52518 a 0.32109175,0.32109175 0 0 1 0.32109,0.3211 z"
       id="path8"
       style="fill:url(#linearGradient1344);fill-opacity:1;stroke-width:0.0802725" />
    <path
       d="m 403.24794,535.68178 h -1.52519 a 0.64218343,0.64218343 0 0 0 -0.64219,0.64219 v 1.6175 a 0.64218343,0.64218343 0 0 0 0.64219,0.64218 h 1.52519 a 0.64218343,0.64218343 0 0 0 0.64218,-0.64218 v -1.6175 a 0.64218343,0.64218343 0 0 0 -0.64218,-0.64219 z m 0.32109,2.25889 a 0.32109175,0.32109175 0 0 1 -0.32109,0.32109 h -1.52519 a 0.32109175,0.32109175 0 0 1 -0.3211,-0.32109 v -1.6167 a 0.32109175,0.32109175 0 0 1 0.3211,-0.3211 h 1.52519 a 0.32109175,0.32109175 0 0 1 0.32109,0.3211 z"
       id="path10"
       style="fill:url(#linearGradient1346);fill-opacity:1;stroke-width:0.0802725" />
  </g>
</svg>
