<?xml version="1.0" encoding="UTF-8" standalone="no"?>
<svg
   width="32"
   version="1.1"
   height="32"
   viewBox="0 0 32 32"
   id="svg17"
   sodipodi:docname="certificate-server.svg"
   inkscape:version="1.1 (c68e22c387, 2021-05-23)"
   xmlns:inkscape="http://www.inkscape.org/namespaces/inkscape"
   xmlns:sodipodi="http://sodipodi.sourceforge.net/DTD/sodipodi-0.dtd"
   xmlns:xlink="http://www.w3.org/1999/xlink"
   xmlns="http://www.w3.org/2000/svg"
   xmlns:svg="http://www.w3.org/2000/svg"
   xmlns:rdf="http://www.w3.org/1999/02/22-rdf-syntax-ns#"
   xmlns:cc="http://creativecommons.org/ns#"
   xmlns:dc="http://purl.org/dc/elements/1.1/">
  <sodipodi:namedview
     pagecolor="#ffffff"
     bordercolor="#666666"
     borderopacity="1"
     objecttolerance="10"
     gridtolerance="10"
     guidetolerance="10"
     inkscape:pageopacity="0"
     inkscape:pageshadow="2"
     inkscape:window-width="1920"
     inkscape:window-height="1007"
     id="namedview19"
     showgrid="true"
     inkscape:zoom="9.8125"
     inkscape:cx="-0.3566879"
     inkscape:cy="8.7643312"
     inkscape:window-x="0"
     inkscape:window-y="0"
     inkscape:window-maximized="1"
     inkscape:current-layer="layer1"
     inkscape:document-rotation="0"
     inkscape:pagecheckerboard="0">
    <inkscape:grid
       type="xygrid"
       id="grid904" />
  </sodipodi:namedview>
  <defs
     id="defs5455">
    <linearGradient
       inkscape:collect="always"
       xlink:href="#linearGradient849-6"
       id="linearGradient838-3"
       x1="6"
       y1="50.000134"
       x2="94.005508"
       y2="50.000134"
       gradientUnits="userSpaceOnUse"
       gradientTransform="matrix(0.97935763,0,0,1.0004014,63.999374,973.8259)" />
    <linearGradient
       inkscape:collect="always"
       id="linearGradient849-6">
      <stop
         style="stop-color:#ff91ff;stop-opacity:1"
         offset="0"
         id="stop845-7" />
      <stop
         style="stop-color:#ffb380;stop-opacity:1"
         offset="1"
         id="stop847-5" />
    </linearGradient>
    <linearGradient
       inkscape:collect="always"
       xlink:href="#linearGradient849-6"
       id="linearGradient1468"
       x1="404.72144"
       y1="520.79797"
       x2="428.72144"
       y2="520.79797"
       gradientUnits="userSpaceOnUse"
       gradientTransform="matrix(0.49999915,0,0,0.49999915,192.28604,273.89942)" />
  </defs>
  <metadata
     id="metadata5458">
    <rdf:RDF>
      <cc:Work
         rdf:about="">
        <dc:format>image/svg+xml</dc:format>
        <dc:type
           rdf:resource="http://purl.org/dc/dcmitype/StillImage" />
      </cc:Work>
    </rdf:RDF>
  </metadata>
  <g
     inkscape:label="Capa 1"
     inkscape:groupmode="layer"
     id="layer1"
     transform="translate(-384.57143,-515.798)">
    <g
       transform="matrix(0.37127689,0,0,0.37127689,358.62826,151.66769)"
       id="g4-3-3">
      <path
         style="color:#000000;font-style:normal;font-variant:normal;font-weight:normal;font-stretch:normal;font-size:medium;line-height:normal;font-family:Sans;-inkscape-font-specification:Sans;text-indent:0;text-align:start;text-decoration:none;text-decoration-line:none;letter-spacing:normal;word-spacing:normal;text-transform:none;writing-mode:lr-tb;direction:ltr;baseline-shift:baseline;text-anchor:start;display:inline;overflow:visible;visibility:visible;opacity:1;fill:url(#linearGradient838-3);fill-opacity:1;fill-rule:nonzero;stroke:none;stroke-width:3.9593;marker:none;enable-background:accumulate"
         d="m 77.281912,988.83186 c -3.993849,0 -7.406392,2.86108 -7.406392,6.65892 v 56.03892 c 0,2.3658 0.837538,3.886 2.463598,5.2652 1.626057,1.3793 3.313621,2.065 5.466961,2.065 h 68.458951 c 1.64356,0.029 1.59683,-2.2258 3.9e-4,-2.2497 l -68.554045,-0.04 c -2.118706,0 -3.879148,-1.4936 -3.879148,-1.4936 0,0 -1.622249,-1.2169 -1.622249,-3.5471 v -56.03892 c 0,-2.61719 1.78145,-4.29635 4.89324,-4.26218 l 24.097552,-0.0121 11.49104,10.2349 c 0.34724,0.3131 0.79179,0.7594 1.25479,0.7694 l 33.41321,-0.012 c 1.70369,-0.01 1.64985,-2.34536 -0.0539,-2.37266 h -32.65545 l -12.18077,-10.53542 c -0.35154,-0.30169 -0.79566,-0.46767 -1.25479,-0.46894 z m 38.868258,2.90742 c -1.55475,-0.004 -1.55786,2.67199 0.0389,2.69479 l 29.80092,-0.0408 c 3.01969,-0.004 4.32789,0.97355 5.33333,1.9107 1.00546,0.93715 2.53335,3.23146 2.53335,5.59563 v 54.9594 c 0.009,1.8599 2.20121,1.9211 2.20775,0.064 l -0.006,-55.0238 c -3.1e-4,-3.21172 -1.0513,-5.90071 -2.93808,-7.65932 -1.88677,-1.75862 -4.45555,-2.501 -7.13095,-2.501 h -29.65618 c -0.0612,-0.003 -0.12244,-0.003 -0.18363,0 z"
         id="path2-3-6-5"
         sodipodi:nodetypes="sssssccscsssccccccccsccsssccssscc" />
    </g>
    <path
       d="m 400.27161,538.04794 c 0.20672,0 0.375,0.16772 0.375,0.375 0,0.20691 -0.16828,0.375 -0.375,0.375 -0.20728,0 -0.37518,-0.16809 -0.37518,-0.375 0,-0.20728 0.16793,-0.375 0.37518,-0.375 z m -0.37518,-2.62501 c 0,-0.20729 0.1679,-0.375 0.37518,-0.375 0.20672,0 0.375,0.16771 0.375,0.375 v 1.49964 c 0,0.20729 -0.16828,0.37538 -0.375,0.37538 -0.20728,0 -0.37518,-0.16809 -0.37518,-0.37538 z m 5.24994,4.87504 h -9.00015 c -0.82837,0 -1.49981,-0.672 -1.49981,-1.50003 v -3.37501 c 0,-0.20729 0.16791,-0.375 0.37519,-0.375 0.20672,0 0.375,0.16771 0.375,0.375 v 3.18751 c 0,0.51783 0.41967,0.93715 0.9375,0.93715 h 8.62477 c 0.51783,0 0.9379,-0.41934 0.9379,-0.93715 v -3.37539 c 0,-0.51745 -0.42007,-0.9374 -0.9379,-0.9374 h -6.74994 -0.18733 -3.8e-4 c -0.62163,0 -1.12481,-0.50353 -1.12481,-1.12465 v -0.18787 -0.93732 c 0,-2.07112 1.67873,-3.74982 3.7502,-3.74982 2.07105,0 3.74976,1.6787 3.74976,3.74982 v 0.375 c 0,0.20728 -0.16771,0.375 -0.375,0.375 -0.2069,0 -0.375,-0.16772 -0.375,-0.375 v -0.375 c 0,-1.65691 -1.34327,-3.0002 -2.99976,-3.0002 -1.65693,0 -3.00001,1.34327 -3.00001,3.0002 v 0.56232 0.14318 0.23182 c 0,0.31073 0.25176,0.56289 0.56233,0.56289 h 0.23182 0.14318 4.87494 0.1875 0.75 0.18788 0.56212 c 0.82875,0 1.50002,0.67128 1.50002,1.49991 v 3.75001 c 0,0.82803 -0.67127,1.50003 -1.50002,1.50003 z m -9.37515,-6.00032 c -0.20671,0 -0.37462,-0.16772 -0.37462,-0.375 0,-0.20672 0.16791,-0.37463 0.37462,-0.37463 0.20729,0 0.375,0.16791 0.375,0.37463 0,0.20728 -0.16771,0.375 -0.375,0.375 z"
       id="path2"
       style="fill:url(#linearGradient1468);fill-opacity:1;stroke-width:0.0234375" />
  </g>
</svg>
