<?xml version="1.0" encoding="UTF-8" standalone="no"?>
<svg
   width="32"
   version="1.1"
   height="32"
   viewBox="0 0 32 32"
   id="svg17"
   sodipodi:docname="folder-mail.svg"
   inkscape:version="1.1 (c68e22c387, 2021-05-23)"
   xmlns:inkscape="http://www.inkscape.org/namespaces/inkscape"
   xmlns:sodipodi="http://sodipodi.sourceforge.net/DTD/sodipodi-0.dtd"
   xmlns:xlink="http://www.w3.org/1999/xlink"
   xmlns="http://www.w3.org/2000/svg"
   xmlns:svg="http://www.w3.org/2000/svg"
   xmlns:rdf="http://www.w3.org/1999/02/22-rdf-syntax-ns#"
   xmlns:cc="http://creativecommons.org/ns#"
   xmlns:dc="http://purl.org/dc/elements/1.1/">
  <sodipodi:namedview
     pagecolor="#ffffff"
     bordercolor="#666666"
     borderopacity="1"
     objecttolerance="10"
     gridtolerance="10"
     guidetolerance="10"
     inkscape:pageopacity="0"
     inkscape:pageshadow="2"
     inkscape:window-width="1920"
     inkscape:window-height="1007"
     id="namedview19"
     showgrid="false"
     inkscape:zoom="9.8125"
     inkscape:cx="-19.821656"
     inkscape:cy="1.1210191"
     inkscape:window-x="0"
     inkscape:window-y="0"
     inkscape:window-maximized="1"
     inkscape:current-layer="layer1"
     inkscape:pagecheckerboard="0" />
  <defs
     id="defs5455">
    <linearGradient
       inkscape:collect="always"
       xlink:href="#linearGradient853-6"
       id="linearGradient854-3"
       gradientUnits="userSpaceOnUse"
       gradientTransform="matrix(0.36361408,0,0,0.37142577,382.38974,513.22773)"
       x1="6"
       y1="50.000134"
       x2="94.005508"
       y2="50.000134" />
    <linearGradient
       inkscape:collect="always"
       id="linearGradient853-6">
      <stop
         style="stop-color:#5fbcd3;stop-opacity:1"
         offset="0"
         id="stop849-7" />
      <stop
         style="stop-color:#aa87de;stop-opacity:1"
         offset="1"
         id="stop851-5" />
    </linearGradient>
    <linearGradient
       inkscape:collect="always"
       xlink:href="#linearGradient853-6"
       id="linearGradient1336"
       x1="401.97144"
       y1="520.79797"
       x2="431.50919"
       y2="520.79797"
       gradientUnits="userSpaceOnUse"
       gradientTransform="matrix(0.50000014,0,0,0.50000014,192.28566,273.89988)" />
  </defs>
  <metadata
     id="metadata5458">
    <rdf:RDF>
      <cc:Work
         rdf:about="">
        <dc:format>image/svg+xml</dc:format>
        <dc:type
           rdf:resource="http://purl.org/dc/dcmitype/StillImage" />
      </cc:Work>
    </rdf:RDF>
  </metadata>
  <g
     inkscape:label="Capa 1"
     inkscape:groupmode="layer"
     id="layer1"
     transform="translate(-384.57143,-515.798)">
    <path
       style="color:#000000;font-style:normal;font-variant:normal;font-weight:normal;font-stretch:normal;font-size:medium;line-height:normal;font-family:Sans;-inkscape-font-specification:Sans;text-indent:0;text-align:start;text-decoration:none;text-decoration-line:none;letter-spacing:normal;word-spacing:normal;text-transform:none;writing-mode:lr-tb;direction:ltr;baseline-shift:baseline;text-anchor:start;display:inline;overflow:visible;visibility:visible;fill:url(#linearGradient854-3);fill-opacity:1;fill-rule:nonzero;stroke:none;stroke-width:1.47001;marker:none;enable-background:accumulate"
       d="m 387.32126,518.79911 c -1.48283,0 -2.74983,1.06225 -2.74983,2.47231 v 20.80596 c 0,0.87839 0.31097,1.44277 0.91468,1.95486 0.60372,0.51208 1.23028,0.76666 2.02976,0.76666 h 25.41731 c 0.61022,0.0107 0.59287,-0.82639 1.5e-4,-0.83527 l -25.45262,-0.0148 c -0.78662,0 -1.44024,-0.5545 -1.44024,-0.5545 0,0 -0.60231,-0.45184 -0.60231,-1.31696 v -20.80598 c 0,-0.9717 0.66142,-1.59513 1.81676,-1.58245 l 8.94689,-0.005 4.26638,3.80002 c 0.12891,0.11622 0.29397,0.28191 0.46586,0.28562 l 12.4056,-0.005 c 0.63254,-0.003 0.61256,-0.87077 -0.02,-0.88091 h -12.12426 l -4.52245,-3.91156 c -0.13052,-0.11201 -0.29541,-0.17364 -0.46588,-0.17411 z m 14.43093,1.07945 c -0.57724,-10e-4 -0.5784,0.99205 0.0144,1.00052 l 11.06444,-0.0152 c 1.12114,-0.002 1.60685,0.36146 1.98015,0.70939 0.3733,0.34794 0.94057,1.19977 0.94057,2.07752 V 544.056 c 0.003,0.69051 0.81726,0.71325 0.81969,0.0238 l -0.002,-20.42908 c -1.2e-4,-1.19244 -0.39032,-2.19079 -1.09085,-2.84372 -0.70051,-0.65294 -1.65424,-0.92857 -2.64756,-0.92857 h -11.01069 c -0.0228,-10e-4 -0.0455,-10e-4 -0.0682,0 z"
       id="path2-3-3-3"
       sodipodi:nodetypes="sssssccscsssccccccccsccsssccssscc" />
    <path
       fill-rule="evenodd"
       clip-rule="evenodd"
       d="m 395.63527,537.93515 c -0.18008,-0.18008 -0.18008,-0.47237 0,-0.65242 l 1.30546,-1.30547 c 0.18017,-0.18071 0.47234,-0.18071 0.65251,0 0.18017,0.18006 0.18017,0.47235 0,0.65241 l -1.30546,1.30548 c -0.18019,0.18023 -0.47234,0.18023 -0.65251,0 z m 9.38883,0 -1.30546,-1.30548 c -0.18003,-0.18006 -0.18003,-0.47235 0,-0.65241 0.18028,-0.18071 0.47231,-0.18071 0.65263,0 l 1.30548,1.30547 c 0.18,0.18005 0.18,0.47234 0,0.65242 -0.18031,0.18023 -0.4724,0.18023 -0.65265,0 z m 2.48518,-6.94581 -5.54791,5.0864 c -0.72094,0.72094 -1.88984,0.72094 -2.61083,0 l -3.25513,-3.2552 -0.20809,-0.20798 -0.88887,-0.88902 -0.003,0.001 c -0.0842,-0.10525 -0.2042,-0.19493 -0.33873,-0.19493 -0.25508,0 -0.46165,0.20668 -0.46165,0.46152 v 1.30027 0.54625 4.61478 c 0,0.51019 0.41319,0.9232 0.92317,0.9232 h 11.07626 c 0.50999,0 0.923,-0.41301 0.923,-0.9232 v -5.53804 c 0,-0.25511 0.20668,-0.46153 0.46179,-0.46153 0.2549,0 0.46152,0.20645 0.46152,0.46153 v 5.53804 c 0,1.0197 -0.82682,1.84652 -1.84631,1.84652 h -11.07626 c -1.0196,-3e-5 -1.84631,-0.82686 -1.84631,-1.84654 v -6.46128 c 0,-0.7644 0.62018,-1.38414 1.38479,-1.38414 0.3563,0 0.67786,0.16295 0.92314,0.39936 v -0.008 l 4.424,4.42411 c 0.36025,0.36083 0.94469,0.36083 1.30502,0 l 5.54765,-5.0864 c 0.18078,-0.18006 0.26749,-0.41647 0.26639,-0.6524 h -0.005 c 0,-0.50996 -0.41301,-0.46153 -0.923,-0.46153 h -9.69193 c -0.25453,0 -0.46161,-0.20665 -0.46161,-0.46175 0,-0.25486 0.20708,-0.46153 0.46161,-0.46153 h 9.69194 c 0.84664,0 1.55895,0.25352 1.77621,0.92325 v 0 c 0.1575,0.61234 0.0183,1.2879 -0.46106,1.76699 z m -12.85294,-1.76696 c -0.25508,0 -0.46164,-0.20665 -0.46164,-0.46176 0,-0.25485 0.20656,-0.46153 0.46164,-0.46153 0.255,0 0.46153,0.20665 0.46153,0.46153 0,0.25511 -0.20653,0.46176 -0.46153,0.46176 z"
       id="path2"
       style="fill:url(#linearGradient1336);fill-opacity:1;stroke-width:0.0288455" />
  </g>
</svg>
