<?xml version="1.0" encoding="UTF-8" standalone="no"?>
<svg
   width="32"
   version="1.1"
   height="32"
   viewBox="0 0 32 32"
   id="svg17"
   sodipodi:docname="network-workgroup.svg"
   inkscape:version="1.1 (c68e22c387, 2021-05-23)"
   xmlns:inkscape="http://www.inkscape.org/namespaces/inkscape"
   xmlns:sodipodi="http://sodipodi.sourceforge.net/DTD/sodipodi-0.dtd"
   xmlns:xlink="http://www.w3.org/1999/xlink"
   xmlns="http://www.w3.org/2000/svg"
   xmlns:svg="http://www.w3.org/2000/svg"
   xmlns:rdf="http://www.w3.org/1999/02/22-rdf-syntax-ns#"
   xmlns:cc="http://creativecommons.org/ns#"
   xmlns:dc="http://purl.org/dc/elements/1.1/">
  <sodipodi:namedview
     pagecolor="#ffffff"
     bordercolor="#666666"
     borderopacity="1"
     objecttolerance="10"
     gridtolerance="10"
     guidetolerance="10"
     inkscape:pageopacity="0"
     inkscape:pageshadow="2"
     inkscape:window-width="1920"
     inkscape:window-height="1007"
     id="namedview19"
     showgrid="false"
     inkscape:zoom="9.8125"
     inkscape:cx="-24.407643"
     inkscape:cy="-0.61146497"
     inkscape:window-x="0"
     inkscape:window-y="0"
     inkscape:window-maximized="1"
     inkscape:current-layer="layer1"
     inkscape:pagecheckerboard="0" />
  <defs
     id="defs5455">
    <linearGradient
       inkscape:collect="always"
       xlink:href="#linearGradient853-6"
       id="linearGradient854-3"
       gradientUnits="userSpaceOnUse"
       gradientTransform="matrix(0.36361408,0,0,0.37142577,382.38973,513.22772)"
       x1="6"
       y1="50.000134"
       x2="94.005508"
       y2="50.000134" />
    <linearGradient
       inkscape:collect="always"
       id="linearGradient853-6">
      <stop
         style="stop-color:#ffe680;stop-opacity:1"
         offset="0"
         id="stop849-7" />
      <stop
         style="stop-color:#aa87de;stop-opacity:1"
         offset="1"
         id="stop851-5" />
    </linearGradient>
    <linearGradient
       inkscape:collect="always"
       xlink:href="#linearGradient853-6"
       id="linearGradient1326"
       x1="406.17142"
       y1="520.79797"
       x2="427.17151"
       y2="520.79797"
       gradientUnits="userSpaceOnUse"
       gradientTransform="matrix(0.50000014,0,0,0.50000014,192.28566,273.89988)" />
  </defs>
  <metadata
     id="metadata5458">
    <rdf:RDF>
      <cc:Work
         rdf:about="">
        <dc:format>image/svg+xml</dc:format>
        <dc:type
           rdf:resource="http://purl.org/dc/dcmitype/StillImage" />
      </cc:Work>
    </rdf:RDF>
  </metadata>
  <g
     inkscape:label="Capa 1"
     inkscape:groupmode="layer"
     id="layer1"
     transform="translate(-384.57143,-515.798)">
    <path
       style="color:#000000;font-style:normal;font-variant:normal;font-weight:normal;font-stretch:normal;font-size:medium;line-height:normal;font-family:Sans;-inkscape-font-specification:Sans;text-indent:0;text-align:start;text-decoration:none;text-decoration-line:none;letter-spacing:normal;word-spacing:normal;text-transform:none;writing-mode:lr-tb;direction:ltr;baseline-shift:baseline;text-anchor:start;display:inline;overflow:visible;visibility:visible;fill:url(#linearGradient854-3);fill-opacity:1;fill-rule:nonzero;stroke:none;stroke-width:1.47001;marker:none;enable-background:accumulate"
       d="m 387.32126,518.79911 c -1.48283,0 -2.74983,1.06225 -2.74983,2.47231 v 20.80597 c 0,0.87838 0.31097,1.44276 0.91468,1.95485 0.60372,0.51208 1.23028,0.76666 2.02976,0.76666 h 25.41731 c 0.61022,0.0108 0.59287,-0.82639 1.5e-4,-0.83527 l -25.45262,-0.0148 c -0.78662,0 -1.44024,-0.5545 -1.44024,-0.5545 0,0 -0.60231,-0.45184 -0.60231,-1.31696 v -20.80598 c 0,-0.9717 0.66142,-1.59513 1.81676,-1.58245 l 8.94689,-0.005 4.26638,3.80002 c 0.12891,0.11622 0.29397,0.28191 0.46586,0.28562 l 12.4056,-0.005 c 0.63254,-0.003 0.61256,-0.87077 -0.02,-0.88091 h -12.12426 l -4.52245,-3.91156 c -0.13052,-0.11201 -0.29541,-0.17364 -0.46588,-0.17411 z m 14.43093,1.07946 c -0.57724,-0.002 -0.5784,0.99204 0.0144,1.00051 l 11.06444,-0.0152 c 1.12114,-10e-4 1.60685,0.36147 1.98015,0.7094 0.3733,0.34794 0.94057,1.19977 0.94057,2.07752 v 20.40521 c 0.003,0.69051 0.81726,0.71325 0.81969,0.0237 l -0.002,-20.42909 c -1.2e-4,-1.19243 -0.39032,-2.19079 -1.09085,-2.84371 -0.70051,-0.65294 -1.65424,-0.92857 -2.64756,-0.92857 h -11.01069 c -0.0227,-10e-4 -0.0455,-10e-4 -0.0682,0 z"
       id="path2-3-3-3"
       sodipodi:nodetypes="sssssccscsssccccccccsccsssccssscc" />
    <path
       fill-rule="evenodd"
       clip-rule="evenodd"
       d="m 399.12146,538.04893 c 0,0.20729 -0.16772,0.375 -0.375,0.375 -0.20691,0 -0.3751,-0.16771 -0.3751,-0.375 0,-0.20728 0.16819,-0.375 0.3751,-0.375 0.20728,0 0.375,0.16772 0.375,0.375 z m -1.50019,0 c 0,0.20729 -0.16772,0.375 -0.37463,0.375 -0.20728,0 -0.375,-0.16771 -0.375,-0.375 0,-0.20728 0.16772,-0.375 0.375,-0.375 0.20691,0 0.37463,0.16772 0.37463,0.375 z m 1.50019,-7.50005 c 0,0.20728 -0.16772,0.375 -0.375,0.375 -0.20691,0 -0.3751,-0.16772 -0.3751,-0.375 0,-0.20693 0.16819,-0.37509 0.3751,-0.37509 0.20728,0 0.375,0.16816 0.375,0.37509 z m -1.50019,0 c 0,0.20728 -0.16772,0.375 -0.37463,0.375 -0.20728,0 -0.375,-0.16772 -0.375,-0.375 0,-0.20693 0.16772,-0.37509 0.375,-0.37509 0.20691,0 0.37463,0.16816 0.37463,0.37509 z m -0.74963,3.75003 c 0,-0.20729 0.16772,-0.3751 0.375,-0.3751 0.20691,0 0.37463,0.16781 0.37463,0.3751 0,0.20728 -0.16772,0.375 -0.37463,0.375 -0.20728,0 -0.375,-0.16772 -0.375,-0.375 z m 1.49972,0 c 0,-0.20729 0.16819,-0.3751 0.3751,-0.3751 0.20728,0 0.375,0.16781 0.375,0.3751 0,0.20728 -0.16772,0.375 -0.375,0.375 -0.20691,0 -0.3751,-0.16772 -0.3751,-0.375 z m 5.99991,6.00005 h -7.49963 c -0.82875,0 -1.50018,-0.67163 -1.50018,-1.5 v -1.12503 c 0,-0.2069 0.16772,-0.375 0.375,-0.375 0.20728,0 0.37509,0.1681 0.37509,0.375 v 1.12503 c 0,0.41418 0.33553,0.75019 0.75009,0.75019 h 7.49963 c 0.41457,0 0.75,-0.33601 0.75,-0.75019 v -1.50003 c 0,-0.41418 -0.33543,-0.75018 -0.75,-0.75018 h -1.49981 -5.99982 c -0.38095,0 -0.72738,-0.14302 -0.99187,-0.37665 -0.0374,-0.0329 -0.0731,-0.0681 -0.1072,-0.10474 -0.002,-0.002 -0.004,-0.003 -0.005,-0.005 -0.0324,-0.0351 -0.0631,-0.0718 -0.0921,-0.11023 -0.004,-0.005 -0.007,-0.009 -0.0106,-0.0142 -0.0256,-0.0345 -0.0491,-0.0705 -0.0719,-0.10713 -0.006,-0.01 -0.0122,-0.0192 -0.0177,-0.0291 -0.0189,-0.0323 -0.0366,-0.0656 -0.053,-0.0991 -0.006,-0.013 -0.0127,-0.0265 -0.0189,-0.0401 -0.016,-0.0344 -0.0299,-0.0701 -0.0429,-0.1062 -0.004,-0.0122 -0.009,-0.024 -0.0134,-0.0366 -0.0122,-0.0374 -0.0227,-0.0762 -0.0319,-0.11425 -0.003,-0.0128 -0.007,-0.0245 -0.01,-0.0376 -0.01,-0.0437 -0.0168,-0.0883 -0.0222,-0.13367 -10e-4,-0.007 -0.002,-0.0145 -0.003,-0.0214 -0.006,-0.0538 -0.009,-0.10858 -0.009,-0.16371 v -1.50009 c 0,-0.0555 0.003,-0.11016 0.009,-0.164 3.8e-4,-0.005 0.002,-0.0105 0.002,-0.0161 0.006,-0.0466 0.0131,-0.0933 0.0227,-0.1387 0.002,-0.0131 0.007,-0.0248 0.01,-0.0375 0.009,-0.0382 0.0198,-0.0769 0.0319,-0.11435 0.004,-0.0122 0.009,-0.0236 0.0134,-0.0357 0.0134,-0.0371 0.0273,-0.0741 0.0437,-0.10931 0.005,-0.0118 0.0109,-0.0224 0.0164,-0.0337 0.0168,-0.0353 0.0349,-0.0702 0.0547,-0.10383 0.005,-0.009 0.0114,-0.0185 0.0172,-0.0282 0.0236,-0.0383 0.0479,-0.0757 0.0748,-0.11142 0.002,-0.002 0.004,-0.004 0.005,-0.006 0.0618,-0.0819 0.13202,-0.15811 0.20892,-0.22578 0.26405,-0.23254 0.6101,-0.375 0.98977,-0.375 h 7.49963 c 0.41456,0 0.75,-0.336 0.75,-0.75018 v -1.50015 c 0,-0.41409 -0.33544,-0.74964 -0.75,-0.74964 h -7.49959 c -0.41456,0 -0.75009,0.33555 -0.75009,0.74964 v 1.12519 c 0,0.20728 -0.16781,0.375 -0.37509,0.375 -0.20728,0 -0.375,-0.16772 -0.375,-0.375 v -1.12519 c 0,-0.8283 0.67143,-1.49974 1.50018,-1.49974 h 7.49963 c 0.82875,0 1.50019,0.67144 1.50019,1.49974 v 1.50019 c 0,0.82838 -0.67144,1.49984 -1.50019,1.49984 h -0.20268 -7.29695 c -0.41456,0 -0.75009,0.3359 -0.75009,0.75009 v 1.5001 c 0,0.41418 0.33553,0.75018 0.75009,0.75018 h 7.29695 0.20268 c 0.82873,0 1.50019,0.67146 1.50019,1.49984 v 1.50003 c 0,0.82837 -0.67144,1.5 -1.50019,1.5 z m 1.12519,-5.25005 c -0.2069,0 -0.37519,-0.1681 -0.37519,-0.375 v -0.7501 c 0,-0.20681 0.16829,-0.375 0.37519,-0.375 0.20728,0 0.375,0.16819 0.375,0.375 v 0.7501 c 0,0.2069 -0.16772,0.375 -0.375,0.375 z"
       id="path2"
       style="fill:url(#linearGradient1326);fill-opacity:1;stroke-width:0.0234375" />
  </g>
</svg>
