<?xml version="1.0" encoding="UTF-8" standalone="no"?>
<svg
   width="32"
   version="1.1"
   height="32"
   viewBox="0 0 32 32"
   id="svg17"
   sodipodi:docname="user-home.svg"
   inkscape:version="1.1 (c68e22c387, 2021-05-23)"
   xmlns:inkscape="http://www.inkscape.org/namespaces/inkscape"
   xmlns:sodipodi="http://sodipodi.sourceforge.net/DTD/sodipodi-0.dtd"
   xmlns:xlink="http://www.w3.org/1999/xlink"
   xmlns="http://www.w3.org/2000/svg"
   xmlns:svg="http://www.w3.org/2000/svg"
   xmlns:rdf="http://www.w3.org/1999/02/22-rdf-syntax-ns#"
   xmlns:cc="http://creativecommons.org/ns#"
   xmlns:dc="http://purl.org/dc/elements/1.1/">
  <sodipodi:namedview
     pagecolor="#ffffff"
     bordercolor="#666666"
     borderopacity="1"
     objecttolerance="10"
     gridtolerance="10"
     guidetolerance="10"
     inkscape:pageopacity="0"
     inkscape:pageshadow="2"
     inkscape:window-width="1920"
     inkscape:window-height="1007"
     id="namedview19"
     showgrid="false"
     inkscape:zoom="9.8125"
     inkscape:cx="-8.7133758"
     inkscape:cy="1.0191083"
     inkscape:window-x="0"
     inkscape:window-y="0"
     inkscape:window-maximized="1"
     inkscape:current-layer="layer1"
     inkscape:pagecheckerboard="0" />
  <defs
     id="defs5455">
    <linearGradient
       inkscape:collect="always"
       xlink:href="#linearGradient853-6"
       id="linearGradient854-3"
       gradientUnits="userSpaceOnUse"
       gradientTransform="matrix(0.36361408,0,0,0.37142577,382.38973,513.22772)"
       x1="6"
       y1="50.000134"
       x2="94.005508"
       y2="50.000134" />
    <linearGradient
       inkscape:collect="always"
       id="linearGradient853-6">
      <stop
         style="stop-color:#2a7fff;stop-opacity:1"
         offset="0"
         id="stop849-7" />
      <stop
         style="stop-color:#aaccff;stop-opacity:1"
         offset="1"
         id="stop851-5" />
    </linearGradient>
    <linearGradient
       inkscape:collect="always"
       xlink:href="#linearGradient853-6"
       id="linearGradient1381"
       x1="404.08643"
       y1="520.79803"
       x2="428.08652"
       y2="520.79803"
       gradientUnits="userSpaceOnUse"
       gradientTransform="matrix(0.50000014,0,0,0.50000014,192.28566,273.89988)" />
  </defs>
  <metadata
     id="metadata5458">
    <rdf:RDF>
      <cc:Work
         rdf:about="">
        <dc:format>image/svg+xml</dc:format>
        <dc:type
           rdf:resource="http://purl.org/dc/dcmitype/StillImage" />
      </cc:Work>
    </rdf:RDF>
  </metadata>
  <g
     inkscape:label="Capa 1"
     inkscape:groupmode="layer"
     id="layer1"
     transform="translate(-384.57143,-515.798)">
    <path
       style="color:#000000;font-style:normal;font-variant:normal;font-weight:normal;font-stretch:normal;font-size:medium;line-height:normal;font-family:Sans;-inkscape-font-specification:Sans;text-indent:0;text-align:start;text-decoration:none;text-decoration-line:none;letter-spacing:normal;word-spacing:normal;text-transform:none;writing-mode:lr-tb;direction:ltr;baseline-shift:baseline;text-anchor:start;display:inline;overflow:visible;visibility:visible;fill:url(#linearGradient854-3);fill-opacity:1;fill-rule:nonzero;stroke:none;stroke-width:1.47001;marker:none;enable-background:accumulate"
       d="m 387.32126,518.79911 c -1.48283,0 -2.74983,1.06225 -2.74983,2.47231 v 20.80597 c 0,0.87838 0.31097,1.44276 0.91468,1.95485 0.60372,0.51208 1.23028,0.76666 2.02976,0.76666 h 25.41731 c 0.61022,0.0108 0.59287,-0.82639 1.5e-4,-0.83527 l -25.45262,-0.0148 c -0.78662,0 -1.44024,-0.5545 -1.44024,-0.5545 0,0 -0.60231,-0.45184 -0.60231,-1.31696 v -20.80598 c 0,-0.9717 0.66142,-1.59513 1.81676,-1.58245 l 8.94689,-0.005 4.26638,3.80002 c 0.12891,0.11622 0.29397,0.28191 0.46586,0.28562 l 12.4056,-0.005 c 0.63254,-0.004 0.61256,-0.87077 -0.02,-0.88091 h -12.12426 l -4.52245,-3.91156 c -0.13052,-0.11201 -0.29541,-0.17364 -0.46588,-0.17411 z m 14.43093,1.07946 c -0.57724,-10e-4 -0.5784,0.99204 0.0144,1.00051 l 11.06444,-0.0152 c 1.12114,-0.002 1.60685,0.36147 1.98015,0.7094 0.3733,0.34794 0.94057,1.19977 0.94057,2.07752 v 20.40521 c 0.004,0.69051 0.81726,0.71325 0.81969,0.0238 l -0.002,-20.42909 c -1.2e-4,-1.19243 -0.39032,-2.19079 -1.09085,-2.84371 -0.70051,-0.65294 -1.65424,-0.92857 -2.64756,-0.92857 h -11.01069 c -0.0228,-10e-4 -0.0455,-10e-4 -0.0682,0 z"
       id="path2-3-3"
       sodipodi:nodetypes="sssssccscsssccccccccsccsssccssscc" />
    <path
       d="m 406.32897,533.92519 c 0,0.20723 -0.16786,0.3749 -0.37493,0.3749 -0.20723,0 -0.37509,-0.16767 -0.37509,-0.3749 0,-0.0991 -0.62536,-0.569 -0.774,-0.71782 l -0.40676,-0.40679 h 0.0118 c -0.20576,-0.25682 -0.33026,-0.58251 -0.33026,-0.93766 v -1.6868 c 0,-0.20723 -0.16845,-0.37509 -0.37512,-0.37509 h -0.75002 c -0.20705,0 -0.37491,0.16788 -0.37491,0.37509 v 0.1287 c 0,0.15525 -0.12558,0.28118 -0.28118,0.28118 -0.0758,0 -0.14426,-0.0306 -0.19482,-0.0795 l -1.24338,-1.24341 c -0.29252,-0.29309 -0.76753,-0.29309 -1.06015,0 l -4.50682,4.50677 c -0.14681,0.14649 -0.21996,0.33814 -0.21996,0.53018 h 0.008 c 0,0.41382 0.31411,0.74993 0.62622,0.74993 0.35752,0 0.87329,0.50344 0.87329,1.12477 v 2.62449 c 0,0.41409 0.33602,0.74986 0.74993,0.74986 h 1.12495 c 0.20676,0 0.375,-0.1677 0.375,-0.37496 v -2.437 c 0,-0.51772 0.41948,-0.93767 0.93722,-0.93767 h 1.12457 c 0.51772,0 0.93729,0.41995 0.93729,0.93767 v 2.437 c 0,0.20726 0.16805,0.37496 0.37491,0.37496 h 1.12496 c 0.4139,0 0.75002,-0.33577 0.75002,-0.74986 v -2.62449 c 0,-0.20686 0.16767,-0.37528 0.37453,-0.37528 0.20726,0 0.37493,0.16842 0.37493,0.37528 v 2.62449 c 0,0.82821 -0.67113,1.49969 -1.4995,1.49969 h -1.12496 c -0.62114,0 -1.12456,-0.50379 -1.12456,-1.12479 v -2.24953 c 0,-0.20723 -0.16786,-0.3749 -0.37493,-0.3749 h -0.75 c -0.20714,0 -0.37493,0.16767 -0.37493,0.3749 v 2.24953 c 0,0.621 -0.50343,1.12479 -1.12457,1.12479 h -1.12496 c -0.82828,0 -1.49951,-0.67148 -1.49951,-1.49969 v -2.62449 c 0,-0.20686 -0.17491,-0.36174 -0.37493,-0.42178 -0.004,-10e-4 -0.006,-0.004 -0.009,-0.005 -0.64219,-0.16915 -1.11579,-0.75244 -1.11579,-1.44778 v 0.0831 c -0.0227,-0.41117 0.11726,-0.82948 0.43139,-1.14361 l 4.50696,-4.50699 c 0.29285,-0.2929 0.6755,-0.43364 1.05933,-0.43364 0.38384,0 0.76889,0.14074 1.06179,0.43364 l 0.65923,0.65942 c 0.17226,-0.20651 0.42745,-0.34088 0.71742,-0.34088 h 1.12442 c 0.51771,0 0.93729,0.41958 0.93729,0.93731 v 1.87444 c 0,0.20192 0.0807,0.38426 0.2107,0.519 l 0.85767,0.85767 c 0.29435,0.29419 0.43149,0.44065 0.43149,0.68562 z m -1.12495,1.12483 c 0.20723,0 0.37493,0.16767 0.37493,0.37493 0,0.20688 -0.1677,0.37456 -0.37493,0.37456 -0.20724,0 -0.37491,-0.16768 -0.37491,-0.37456 0,-0.20726 0.16767,-0.37493 0.37491,-0.37493 z"
       id="path2"
       style="fill:url(#linearGradient1381);fill-opacity:1;stroke-width:0.0234375" />
  </g>
</svg>
