<?xml version="1.0" encoding="UTF-8" standalone="no"?>
<svg
   inkscape:version="1.1 (c68e22c387, 2021-05-23)"
   sodipodi:docname="system-reboot.svg"
   id="svg6"
   version="1.1"
   viewBox="0 0 32 32"
   xmlns:inkscape="http://www.inkscape.org/namespaces/inkscape"
   xmlns:sodipodi="http://sodipodi.sourceforge.net/DTD/sodipodi-0.dtd"
   xmlns:xlink="http://www.w3.org/1999/xlink"
   xmlns="http://www.w3.org/2000/svg"
   xmlns:svg="http://www.w3.org/2000/svg"
   xmlns:rdf="http://www.w3.org/1999/02/22-rdf-syntax-ns#"
   xmlns:cc="http://creativecommons.org/ns#"
   xmlns:dc="http://purl.org/dc/elements/1.1/">
  <metadata
     id="metadata10">
    <rdf:RDF>
      <cc:Work
         rdf:about="">
        <dc:format>image/svg+xml</dc:format>
        <dc:type
           rdf:resource="http://purl.org/dc/dcmitype/StillImage" />
      </cc:Work>
    </rdf:RDF>
  </metadata>
  <sodipodi:namedview
     inkscape:document-rotation="0"
     inkscape:current-layer="svg6"
     inkscape:window-maximized="1"
     inkscape:window-y="0"
     inkscape:window-x="0"
     inkscape:cy="15.455887"
     inkscape:cx="25.975862"
     inkscape:zoom="10.028541"
     showgrid="false"
     id="namedview8"
     inkscape:window-height="1007"
     inkscape:window-width="1920"
     inkscape:pageshadow="2"
     inkscape:pageopacity="0"
     guidetolerance="10"
     gridtolerance="10"
     objecttolerance="10"
     borderopacity="1"
     bordercolor="#666666"
     pagecolor="#ffffff"
     inkscape:pagecheckerboard="0" />
  <defs
     id="defs3051">
    <style
       id="current-color-scheme"
       type="text/css">
      .ColorScheme-Text {
        color:#eff0f1;
      }
      </style>
    <linearGradient
       inkscape:collect="always"
       xlink:href="#linearGradient1598"
       id="linearGradient1600"
       x1="2.8813136"
       y1="28.333443"
       x2="17.655964"
       y2="14.031005"
       gradientUnits="userSpaceOnUse"
       gradientTransform="matrix(0.92308184,0,0,0.92308184,1.231073,1.230755)" />
    <linearGradient
       inkscape:collect="always"
       id="linearGradient1598">
      <stop
         style="stop-color:#00ccff;stop-opacity:1"
         offset="0"
         id="stop1594" />
      <stop
         style="stop-color:#aa87de;stop-opacity:1"
         offset="1"
         id="stop1596" />
    </linearGradient>
  </defs>
  <g
     id="g887" />
  <path
     style="color:#000000;overflow:visible;opacity:0;fill:#0000ff;fill-opacity:1;stroke-width:1.06667"
     id="path940"
     overflow="visible"
     d="m 60.626965,-17.595446 c -8.82859,0 -16,7.171413 -16,15.9999996 0,8.828587 7.17141,16.0000004 16,16.0000004 8.82752,0 16,-7.1714134 16,-16.0000004 0,-8.8275196 -7.17141,-15.9999996 -16,-15.9999996 z"
     inkscape:connector-curvature="0" />
  <path
     d="m 12.625071,23.500103 c 0.414189,0 0.750007,0.335815 0.750007,0.750004 0,0.414191 -0.335818,0.750003 -0.750007,0.750003 -0.414183,0 -0.75,-0.335812 -0.75,-0.750003 0,-0.414189 0.335817,-0.750004 0.75,-0.750004 z M 4.000027,17.500072 c 0,-5.798984 4.70107,-10.5000561 10.500058,-10.5000561 h 2.250009 c 0.414186,0 0.750006,-0.3358143 0.750006,-0.7500037 C 17.5001,5.007443 18.507541,4 19.750111,4 c 0.005,0 0.009,0.00121 0.0129,0.00121 V 4.00003 c 0.871982,0.0016 1.742827,0.3347364 2.407853,1.0001305 l 4.828897,4.8329313 c 1.333742,1.3346802 1.333742,3.4984412 0,4.8329332 l -4.828884,4.832751 c -0.665082,0.665796 -1.535927,0.998705 -2.407853,1.000532 v -7.49e-4 c -0.005,3.74e-4 -0.009,0.0014 -0.0129,0.0014 -1.242573,0 -2.250009,-1.007443 -2.250009,-2.250012 0,-0.41419 -0.335819,-0.750004 -0.750002,-0.750004 h -1.500004 v 0 c -2.070954,0 -3.750021,1.679071 -3.750021,3.75002 0,0.41419 -0.33582,0.750004 -0.750001,0.750004 -0.414199,0 -0.750006,-0.335814 -0.750006,-0.750004 0,-2.899656 2.350365,-5.250028 5.250028,-5.250028 h 1.500009 c 1.242564,0 2.250005,1.007443 2.250005,2.250012 0,0.414189 0.33581,0.750004 0.750006,0.750004 0.06,0 0.117564,-0.0087 0.173578,-0.02236 0.36914,-0.03919 0.728764,-0.19261 1.011841,-0.475361 l 5.066562,-5.061463 c 0.658458,-0.657707 0.658458,-1.724119 0,-2.381825 L 20.935511,5.997552 C 20.652437,5.7148473 20.292809,5.5615645 19.923659,5.5220024 c -0.0561,-0.01317 -0.11353,-0.02213 -0.173573,-0.02213 -0.41419,0 -0.750007,0.3358145 -0.750007,0.7500043 0,1.2425685 -1.007437,2.2500115 -2.250011,2.2500115 h -2.250007 c -4.970601,0 -9.000054,4.0294438 -9.000054,9.0000478 0,4.970605 4.029453,9.000052 9.000054,9.000052 h 3.750013 c 0.414191,0 0.750004,0.335817 0.750004,0.750007 0,0.414183 -0.335813,0.75 -0.750004,0.75 H 14.500061 C 8.70107,27.999995 4,23.298923 4,17.499936 Z"
     id="path2-367"
     style="fill:url(#linearGradient1600);fill-opacity:1;stroke-width:0.0468752" />
</svg>
