<?xml version="1.0" encoding="UTF-8" standalone="no"?>
<svg
   inkscape:version="1.1 (c68e22c387, 2021-05-23)"
   sodipodi:docname="system-switch-user.svg"
   id="svg5"
   version="1.1"
   viewBox="0 0 32 32"
   xmlns:inkscape="http://www.inkscape.org/namespaces/inkscape"
   xmlns:sodipodi="http://sodipodi.sourceforge.net/DTD/sodipodi-0.dtd"
   xmlns:xlink="http://www.w3.org/1999/xlink"
   xmlns="http://www.w3.org/2000/svg"
   xmlns:svg="http://www.w3.org/2000/svg"
   xmlns:rdf="http://www.w3.org/1999/02/22-rdf-syntax-ns#"
   xmlns:cc="http://creativecommons.org/ns#"
   xmlns:dc="http://purl.org/dc/elements/1.1/">
  <metadata
     id="metadata9">
    <rdf:RDF>
      <cc:Work
         rdf:about="">
        <dc:format>image/svg+xml</dc:format>
        <dc:type
           rdf:resource="http://purl.org/dc/dcmitype/StillImage" />
      </cc:Work>
    </rdf:RDF>
  </metadata>
  <sodipodi:namedview
     inkscape:document-rotation="0"
     inkscape:current-layer="svg5"
     inkscape:window-maximized="1"
     inkscape:window-y="0"
     inkscape:window-x="0"
     inkscape:cy="9.8008115"
     inkscape:cx="-1.3044246"
     inkscape:zoom="14.182499"
     showgrid="true"
     id="namedview7"
     inkscape:window-height="1007"
     inkscape:window-width="1920"
     inkscape:pageshadow="2"
     inkscape:pageopacity="0"
     guidetolerance="10"
     gridtolerance="10"
     objecttolerance="10"
     borderopacity="1"
     bordercolor="#666666"
     pagecolor="#ffffff"
     inkscape:pagecheckerboard="0">
    <inkscape:grid
       type="xygrid"
       id="grid1064" />
  </sodipodi:namedview>
  <defs
     id="defs3051">
    <style
       id="current-color-scheme"
       type="text/css">
      .ColorScheme-Text {
        color:#eff0f1;
      }
      </style>
    <linearGradient
       inkscape:collect="always"
       xlink:href="#linearGradient3457"
       id="linearGradient3459"
       x1="2.1175535"
       y1="22.949059"
       x2="21.811041"
       y2="13.595905"
       gradientUnits="userSpaceOnUse"
       gradientTransform="translate(-0.064002,-0.50999996)" />
    <linearGradient
       inkscape:collect="always"
       id="linearGradient3457">
      <stop
         style="stop-color:#1fd2ff;stop-opacity:1"
         offset="0"
         id="stop3453" />
      <stop
         style="stop-color:#44ffda;stop-opacity:1"
         offset="1"
         id="stop3455" />
    </linearGradient>
  </defs>
  <path
     fill-rule="evenodd"
     clip-rule="evenodd"
     d="m 29.170568,18.557384 -4.435364,4.435339 c -0.691554,0.691566 -1.596811,1.038463 -2.502073,1.046262 -0.01125,6.06e-4 -0.02002,0.0083 -0.03236,0.0083 -1.477158,0 -2.674452,-1.197282 -2.674452,-2.674446 v -0.223085 c 0,-0.368626 -0.298528,-0.667617 -0.66849,-0.667617 h -0.06887 c -0.798637,0 -1.498065,-0.421704 -1.891023,-1.051044 L 13.614107,13.740386 C 13.454182,13.507527 13.188459,13.349537 12.88361,13.349537 h -0.04186 c -1.230146,0 -2.228555,-0.997298 -2.228555,-2.227452 v -0.446358 c 0,-0.492911 -0.398645,-0.891561 -0.890443,-0.891561 -0.08095,0 -0.157767,0.01391 -0.232871,0.03392 -0.37865,0.05002 -0.743603,0.211957 -1.034285,0.502643 L 4.020261,14.75606 c -0.699425,0.699413 -0.699425,1.834693 0,2.534507 l 4.435333,4.434886 c 0.290735,0.290744 0.655697,0.452635 1.034277,0.502664 0.07519,0.02001 0.15193,0.03446 0.232869,0.03446 0.491798,0 0.890442,-0.399094 0.890442,-0.891786 v -0.44568 c 0,-1.230385 0.998407,-2.227896 2.228555,-2.227896 h 0.445661 c 0.49291,0 0.89156,0.399094 0.89156,0.891779 0,0.491345 -0.39865,0.89133 -0.89156,0.89133 h -0.222606 c -0.368835,0 -0.668733,0.298994 -0.668733,0.667616 v 0.222827 c 0,1.477169 -1.197269,2.674462 -2.673321,2.674462 -0.01212,0 -0.021,-0.0069 -0.03212,-0.0083 C 8.78425,24.028529 7.879876,23.682336 7.18831,22.990768 L 2.75289,18.556299 C 2.052869,17.856248 1.7,16.93912 1.7,16.021989 1.7,15.104807 2.052869,14.187564 2.75289,13.487474 L 7.188233,9.0524702 C 7.87981,8.3609056 8.784166,8.0140096 9.69055,8.00621 9.70153,8.00479 9.71057,8 9.72263,8 c 1.476047,0 2.673345,1.1972853 2.673345,2.674452 v 0.222924 c 0,0.368622 0.299868,0.668501 0.668724,0.668501 h 0.06986 c 0.794532,0 1.491937,0.416701 1.885847,1.043259 l 3.291796,5.701488 c 0.161062,0.231085 0.423888,0.385613 0.727665,0.385613 h 0.04109 c 1.231259,0 2.228784,0.997523 2.228784,2.227901 v 0.445654 c 0,0.492691 0.398644,0.891801 0.891328,0.891801 0.08105,0 0.157995,-0.01445 0.23285,-0.03446 0.37866,-0.04994 0.743826,-0.211976 1.034512,-0.502644 l 4.435312,-4.434854 c 0.699413,-0.699803 0.699413,-1.835093 0,-2.534516 l -4.435511,-4.434346 c -0.29072,-0.290742 -0.655839,-0.452631 -1.034501,-0.502657 -0.07494,-0.02001 -0.151923,-0.03392 -0.232846,-0.03392 -0.492705,0 -0.891338,0.398649 -0.891338,0.891561 v 0.445663 1.336109 c 0,0.492677 -0.39866,0.891339 -0.891335,0.891339 -0.491803,0 -0.89179,-0.398662 -0.89179,-0.891339 v -1.336084 -0.445663 c 0,-1.4771671 1.197286,-2.6744529 2.674463,-2.6744529 0.01235,0 0.02111,0.00487 0.03236,0.00622 0.905264,0.00777 1.810517,0.3546956 2.502086,1.04626 l 4.435329,4.4351249 c 0.699685,0.699866 1.052342,1.617047 1.052342,2.534226 0,0.917184 -0.352657,1.834361 -1.052289,2.534399 z m -11.87153,-5.20875 c -0.492681,0 -0.89134,-0.398639 -0.89134,-0.891323 0,-0.491795 0.398659,-0.890443 0.89134,-0.890443 0.49179,0 0.891337,0.398648 0.891337,0.890443 0,0.492684 -0.399547,0.891323 -0.891337,0.891323 z"
     id="path2-36"
     style="fill:url(#linearGradient3459);fill-opacity:1;stroke-width:0.0557107" />
</svg>
