<?xml version="1.0" encoding="UTF-8" standalone="no"?>
<svg
   inkscape:version="1.1 (c68e22c387, 2021-05-23)"
   sodipodi:docname="system-suspend.svg"
   id="svg5"
   version="1.1"
   viewBox="0 0 32 32"
   xmlns:inkscape="http://www.inkscape.org/namespaces/inkscape"
   xmlns:sodipodi="http://sodipodi.sourceforge.net/DTD/sodipodi-0.dtd"
   xmlns:xlink="http://www.w3.org/1999/xlink"
   xmlns="http://www.w3.org/2000/svg"
   xmlns:svg="http://www.w3.org/2000/svg"
   xmlns:rdf="http://www.w3.org/1999/02/22-rdf-syntax-ns#"
   xmlns:cc="http://creativecommons.org/ns#"
   xmlns:dc="http://purl.org/dc/elements/1.1/">
  <metadata
     id="metadata9">
    <rdf:RDF>
      <cc:Work
         rdf:about="">
        <dc:format>image/svg+xml</dc:format>
        <dc:type
           rdf:resource="http://purl.org/dc/dcmitype/StillImage" />
      </cc:Work>
    </rdf:RDF>
  </metadata>
  <sodipodi:namedview
     inkscape:document-rotation="0"
     inkscape:current-layer="svg5"
     inkscape:window-maximized="1"
     inkscape:window-y="0"
     inkscape:window-x="0"
     inkscape:cy="15.230038"
     inkscape:cx="-7.2272171"
     inkscape:zoom="14.182499"
     showgrid="true"
     id="namedview7"
     inkscape:window-height="1007"
     inkscape:window-width="1920"
     inkscape:pageshadow="2"
     inkscape:pageopacity="0"
     guidetolerance="10"
     gridtolerance="10"
     objecttolerance="10"
     borderopacity="1"
     bordercolor="#666666"
     pagecolor="#ffffff"
     inkscape:pagecheckerboard="0">
    <inkscape:grid
       type="xygrid"
       id="grid1065" />
  </sodipodi:namedview>
  <defs
     id="defs3051">
    <style
       id="current-color-scheme"
       type="text/css">
      .ColorScheme-Text {
        color:#eff0f1;
      }
      </style>
    <linearGradient
       inkscape:collect="always"
       xlink:href="#linearGradient2533"
       id="linearGradient941"
       x1="7.9980001"
       y1="12.95"
       x2="16.6304"
       y2="12.95"
       gradientUnits="userSpaceOnUse"
       gradientTransform="matrix(0.65270498,0,0,0.65270498,3.978515,3.393974)" />
    <linearGradient
       inkscape:collect="always"
       id="linearGradient2533">
      <stop
         style="stop-color:#2a7fff;stop-opacity:1"
         offset="0"
         id="stop2529" />
      <stop
         style="stop-color:#aaccff;stop-opacity:1"
         offset="1"
         id="stop2531" />
    </linearGradient>
    <linearGradient
       inkscape:collect="always"
       xlink:href="#linearGradient2533"
       id="linearGradient949"
       x1="19.014999"
       y1="20.35"
       x2="23.985168"
       y2="20.35"
       gradientUnits="userSpaceOnUse"
       gradientTransform="matrix(0.80974676,0,0,0.80974676,4.894544,-0.10860597)" />
    <linearGradient
       inkscape:collect="always"
       xlink:href="#linearGradient2533"
       id="linearGradient2535"
       x1="2.0961306"
       y1="30.168873"
       x2="22.827999"
       y2="9.4567547"
       gradientUnits="userSpaceOnUse"
       gradientTransform="matrix(0.92311133,0,0,0.92311133,1.077315,1.230721)" />
  </defs>
  <path
     d="M 13.922692,13.256248 H 12.032236 L 14.625272,10.10394 C 14.847115,9.8312325 14.893345,9.4568372 14.745435,9.1379122 14.592908,8.818991 14.273963,8.6156096 13.922692,8.6156096 h -3.813279 c -0.503798,0 -0.910567,0.4067503 -0.910567,0.9105623 0,0.5038211 0.406769,0.9105801 0.910567,0.9105801 h 1.89045 l -2.593049,3.152314 c -0.221861,0.272701 -0.268034,0.647097 -0.12017,0.966016 0.152552,0.318923 0.471469,0.522308 0.822769,0.522308 h 3.813279 c 0.503828,0 0.910567,-0.406745 0.910567,-0.910562 0,-0.503825 -0.411384,-0.91058 -0.910567,-0.91058 z"
     id="path4-3"
     style="fill:url(#linearGradient941);fill-opacity:1;stroke-width:0.0462234" />
  <path
     d="m 23.666051,17.376704 h -1.35033 l 1.852171,-2.251655 c 0.158459,-0.194789 0.191481,-0.462222 0.08581,-0.690011 -0.108963,-0.227796 -0.336783,-0.373071 -0.587692,-0.373071 h -2.72376 c -0.359864,0 -0.650414,0.290535 -0.650414,0.650414 0,0.359861 0.29055,0.650406 0.650414,0.650406 h 1.35031 l -1.852162,2.251655 c -0.158471,0.194788 -0.191458,0.462206 -0.08581,0.690007 0.108975,0.227792 0.336772,0.373075 0.58771,0.373075 h 2.723761 c 0.359862,0 0.650402,-0.290554 0.650402,-0.650402 0,-0.359873 -0.293833,-0.650418 -0.650402,-0.650418 z"
     id="path4-3-6"
     style="fill:url(#linearGradient949);fill-opacity:1;stroke-width:0.033016" />
  <path
     d="m 20.80125,19.999032 c 0,0.441413 -0.358613,0.800033 -0.800433,0.800033 -0.441017,0 -0.799625,-0.35862 -0.799625,-0.800033 0,-0.442217 0.358608,-0.800033 0.799625,-0.800033 0.44182,0 0.800433,0.357816 0.800433,0.800033 z m 2.399679,3.200067 h -0.850025 c -0.220311,0 -0.420315,0.08909 -0.565618,0.233612 0.0289,-0.0289 -0.143363,0.154704 -0.253518,0.264859 l -3.420819,3.419677 c -0.530474,0.530464 -1.212543,0.832072 -1.907118,0.878125 -0.02528,0.007 -0.384671,0.006 -0.410969,-0.002 -0.688318,-0.04916 -1.364102,-0.349212 -1.890671,-0.875829 l -1.709454,-1.709463 0.003,-0.0029 c -0.15861,-0.158609 -0.257421,-0.378116 -0.257421,-0.621124 0,-0.485169 0.393365,-0.878137 0.877786,-0.878137 0.242953,0 0.461713,0.09921 0.621124,0.257816 l 9.21e-4,-8.04e-4 1.997727,1.997725 c 0.315259,0.314864 0.826581,0.314864 1.141843,0 0,0 3.663781,-3.652485 3.622382,-3.611083 0.580118,-0.58672 1.385997,-0.950039 2.276236,-0.950039 h 0.724217 c 2.209089,0 4.000948,-1.790661 4.000948,-4.00009 0,-0.187512 -0.0177,-0.369568 -0.04215,-0.550027 -0.007,-0.04376 -0.0125,-0.08594 -0.02,-0.128904 -0.0308,-0.178105 -0.0699,-0.353108 -0.123456,-0.523468 0,-7.94e-4 0,-0.0028 -9.26e-4,-0.0037 -0.0555,-0.176554 -0.126545,-0.347459 -0.205854,-0.512318 -0.01,-0.02068 -0.0187,-0.04025 -0.0289,-0.05973 -0.426573,-0.856278 -1.147693,-1.540304 -2.034077,-1.91217 -0.435558,-0.179305 -0.74492,-0.607823 -0.74492,-1.109792 0,-1.268392 -0.984796,-2.294634 -2.231735,-2.383289 -0.0485,-0.01016 -0.102751,-0.01643 -0.168753,-0.01643 -0.579326,0 -1.085996,-0.4636698 -1.366458,-1.042636 0.007,0.012461 0.002,0.021502 0.002,0.032032 C 19.237836,7.1573074 17.004154,5.59945 14.400557,5.59945 c -3.535277,0 -6.400632,2.8653058 -6.400632,6.399429 0,0.885984 -0.479318,1.709021 -1.192246,2.125427 -0.0183,0.01016 -0.0298,0.02262 -0.0402,0.03517 -0.444922,0.263668 -0.834436,0.609779 -1.146542,1.019937 -0.0113,0.01449 -0.02267,0.02889 -0.034,0.04412 -0.08861,0.120706 -0.172252,0.245316 -0.247258,0.375014 -0.006,0.0094 -0.0136,0.02068 -0.0187,0.03009 -0.0805,0.142206 -0.153515,0.289469 -0.216415,0.441017 -0.003,0.0074 -0.006,0.01449 -0.009,0.02151 -0.0547,0.134959 -0.100804,0.274017 -0.141008,0.415475 -0.0113,0.04219 -0.02266,0.08437 -0.0332,0.126549 -0.0285,0.113303 -0.0504,0.227362 -0.06871,0.345318 -0.008,0.04606 -0.0156,0.09295 -0.0219,0.139048 -0.0183,0.158609 -0.0317,0.317965 -0.0317,0.482067 0,2.209486 1.791475,4.0001 4.000553,4.0001 h 0.400012 c 0.220308,0 0.428521,-0.205411 0.450014,-0.424963 0,-8.04e-4 9.24e-4,-0.0018 9.24e-4,-0.0028 0.004,-0.02972 0.002,-0.05862 0.008,-0.08835 0.23711,-1.076597 1.194191,-1.883674 2.342283,-1.883674 0.441821,0 0.799231,-0.35861 0.799231,-0.800827 v -1.198989 c 0,-1.105296 0.895333,-2.000677 2.000069,-2.000677 h 2.400496 c 1.104733,0 2.000067,0.895335 2.000067,2.000677 v 0.400012 c 0,0.442217 -0.35861,0.79923 -0.80043,0.79923 -0.441017,0 -0.799626,-0.357069 -0.799626,-0.79923 0,-0.44217 -0.358564,-0.800826 -0.799581,-0.800826 h -1.600066 c -0.442216,0 -0.80043,0.35861 -0.80043,0.800826 v 1.199242 c 0,1.105491 -0.89573,2.000872 -2.000067,2.000872 h -0.399616 c -0.228912,0 -0.435172,0.09691 -0.580128,0.251566 -0.06602,0.07108 -0.121898,0.149202 -0.156651,0.235956 -9.24e-4,0.0018 -0.003,0.0056 -0.003,0.0074 -0.03511,0.08751 -0.0485,0.178106 -0.05161,0.271109 -0.002,0.01246 -0.01,0.01948 -0.01,0.03434 0,0.88363 -0.71602,1.600056 -1.600058,1.600056 H 8.799801 C 5.70674,23.200699 3.2,20.693602 3.2,17.600542 c 0,-2.069828 1.127391,-3.869885 2.796206,-4.839429 9.2e-4,-9.24e-4 -0.002,-0.0028 0,-0.0046 0.241401,-0.136704 0.403109,-0.459415 0.403109,-0.757072 0,-0.06988 0.003,-0.130103 0.01,-0.182406 C 6.506235,7.4833218 10.04459,4 14.401003,4 c 3.282577,0 6.100624,1.978169 7.333871,4.8064265 2.059471,0.067944 3.721634,1.6906605 3.853244,3.7329335 1.896963,0.896479 3.21381,2.823105 3.21381,5.060884 0,3.09306 -2.507887,5.600157 -5.601004,5.600157 z"
     id="path2-75"
     style="fill:url(#linearGradient2535);fill-opacity:1;stroke-width:0.0500015" />
</svg>
