<?xml version="1.0" encoding="UTF-8" standalone="no"?>
<svg
   inkscape:version="1.1 (c68e22c387, 2021-05-23)"
   sodipodi:docname="system-suspend-hibernate.svg"
   id="svg5"
   version="1.1"
   viewBox="0 0 32 32"
   xmlns:inkscape="http://www.inkscape.org/namespaces/inkscape"
   xmlns:sodipodi="http://sodipodi.sourceforge.net/DTD/sodipodi-0.dtd"
   xmlns:xlink="http://www.w3.org/1999/xlink"
   xmlns="http://www.w3.org/2000/svg"
   xmlns:svg="http://www.w3.org/2000/svg"
   xmlns:rdf="http://www.w3.org/1999/02/22-rdf-syntax-ns#"
   xmlns:cc="http://creativecommons.org/ns#"
   xmlns:dc="http://purl.org/dc/elements/1.1/">
  <metadata
     id="metadata9">
    <rdf:RDF>
      <cc:Work
         rdf:about="">
        <dc:format>image/svg+xml</dc:format>
        <dc:type
           rdf:resource="http://purl.org/dc/dcmitype/StillImage" />
      </cc:Work>
    </rdf:RDF>
  </metadata>
  <sodipodi:namedview
     inkscape:document-rotation="0"
     inkscape:current-layer="svg5"
     inkscape:window-maximized="1"
     inkscape:window-y="0"
     inkscape:window-x="0"
     inkscape:cy="4.9597607"
     inkscape:cx="-6.5286645"
     inkscape:zoom="9.879509"
     showgrid="false"
     id="namedview7"
     inkscape:window-height="1007"
     inkscape:window-width="1920"
     inkscape:pageshadow="2"
     inkscape:pageopacity="0"
     guidetolerance="10"
     gridtolerance="10"
     objecttolerance="10"
     borderopacity="1"
     bordercolor="#666666"
     pagecolor="#ffffff"
     inkscape:pagecheckerboard="0" />
  <defs
     id="defs3051">
    <style
       id="current-color-scheme"
       type="text/css">
      .ColorScheme-Text {
        color:#eff0f1;
      }
      </style>
    <linearGradient
       inkscape:collect="always"
       xlink:href="#linearGradient1270"
       id="linearGradient1369"
       gradientUnits="userSpaceOnUse"
       x1="-89.977715"
       y1="28.674768"
       x2="-72.243958"
       y2="9.5330477"
       gradientTransform="matrix(0.92306331,0,0,0.92306332,87.998901,1.231102)" />
    <linearGradient
       inkscape:collect="always"
       id="linearGradient1270">
      <stop
         style="stop-color:#00b5b5;stop-opacity:1;"
         offset="0"
         id="stop1266" />
      <stop
         style="stop-color:#55ff55;stop-opacity:1"
         offset="1"
         id="stop1268" />
    </linearGradient>
    <linearGradient
       inkscape:collect="always"
       xlink:href="#linearGradient1270"
       id="linearGradient1207"
       x1="18.568888"
       y1="14.344183"
       x2="20.342918"
       y2="14.344183"
       gradientUnits="userSpaceOnUse"
       gradientTransform="matrix(0.92306331,0,0,0.92306332,1.230951,1.231102)" />
    <linearGradient
       inkscape:collect="always"
       xlink:href="#linearGradient1270"
       id="linearGradient1199"
       x1="18.568888"
       y1="15.695535"
       x2="20.342918"
       y2="15.695535"
       gradientUnits="userSpaceOnUse"
       gradientTransform="matrix(0.92306331,0,0,0.92306332,1.230951,1.231102)" />
    <linearGradient
       inkscape:collect="always"
       xlink:href="#linearGradient1270"
       id="linearGradient3859"
       x1="-784.59998"
       y1="582.5"
       x2="-776.90002"
       y2="582.5"
       gradientUnits="userSpaceOnUse" />
  </defs>
  <path
     d="m 25.268661,13.025053 c 0.0109,0 0.02044,-0.0062 0.0319,-0.0073 1.514236,0.149764 2.699641,1.42747 2.699641,2.982343 0,1.558014 -1.186862,2.838297 -2.707,2.985483 -0.002,0.0073 -0.007,0.01317 -0.01004,0.02053 -0.01093,-7.51e-4 -0.0198,-0.0066 -0.0319,-0.0066 -0.382212,0 -0.808111,0.06811 -0.966318,0.45037 -0.158205,0.383058 0.06591,0.717039 0.358871,1.009254 0.0103,0.01026 0.0238,0.01462 0.03482,0.02343 0.957928,1.177722 0.903698,2.904764 -0.194103,4.002659 -1.096773,1.097097 -2.825266,1.152785 -4.00336,0.195561 -0.0176,0.0095 -0.0367,0.01317 -0.05414,0.02123 -0.008,-0.0095 -0.01093,-0.02052 -0.0198,-0.03005 -0.271359,-0.270279 -0.618884,-0.523683 -1.001577,-0.364028 -0.383331,0.158201 -0.459511,0.552228 -0.459511,0.96674 0,0.03735 0.0103,0.07106 0.0224,0.104717 -0.188582,1.47659 -1.440652,2.620606 -2.968847,2.620606 -1.555619,0 -2.83403,-1.184328 -2.985296,-2.700391 -0.0165,-0.0059 -0.0307,-0.01538 -0.0476,-0.02123 7.58e-4,-0.0073 0.004,-0.01392 0.004,-0.02123 0,-0.382262 -0.0678,-0.807085 -0.45009,-0.965287 -0.382682,-0.158951 -0.717032,0.0659 -1.009578,0.358871 -0.0176,0.01758 -0.0263,0.03956 -0.0388,0.06005 -1.176643,0.921318 -2.8750861,0.857615 -3.957564,-0.225559 -1.099346,-1.099349 -1.153201,-2.830048 -0.19078,-4.00852 -0.0103,-0.02052 -0.01573,-0.04247 -0.0246,-0.06444 C 7.569678,20.141983 7.82195,19.794081 7.663419,19.411773 7.504473,19.029511 7.109745,18.95184 6.695567,18.95184 c -0.0272,0 -0.0509,0.01026 -0.0765,0.01683 C 5.143647,18.781303 4,17.526661 4,16.000146 c 0,-1.561483 1.192397,-2.842095 2.716475,-2.985295 0.005,-0.01355 0.0125,-0.02564 0.0183,-0.03881 0.376827,-0.0034 0.788807,-0.07397 0.944104,-0.449714 C 7.83707,12.144721 7.614479,11.812241 7.322203,11.520025 6.362355,10.343034 6.416222,8.6137866 7.514809,7.515193 8.6173939,6.411812 10.358733,6.360909 11.536826,7.335382 c 0.0125,-0.0067 0.0252,-0.0095 0.038,-0.01429 0.268078,0.264042 0.609368,0.503524 0.983992,0.348652 0.382686,-0.158575 0.459606,-0.553682 0.459606,-0.967537 0,-0.0016 -7.48e-4,-0.0024 -7.48e-4,-0.0044 C 13.169595,5.182838 14.444722,4 15.999593,4 c 1.564057,0 2.846173,1.196056 2.986047,2.723081 0.004,0.0012 0.006,0.004 0.009,0.0048 0,0.08979 0.005,0.182013 0.0161,0.272438 h -0.01067 c 0,0.413804 -0.33543,0.750366 -0.749997,0.750366 -0.413429,0 -0.749241,-0.336562 -0.749241,-0.750366 0,-0.828743 -0.67199,-1.499985 -1.500356,-1.499985 -0.828735,0 -1.499987,0.671242 -1.499987,1.499985 v 0.750366 l -0.005,0.0067 c 0.0135,0.495837 -0.301731,0.958722 -0.799396,1.1066576 -0.0121,0.00362 -0.02499,0.00362 -0.0367,0.0073 l -0.01004,0.01172 c -0.3508,0.1179453 -0.691394,0.2585687 -1.018064,0.4240831 l -0.0216,-0.0034 c -0.0128,0.0069 -0.02299,0.0172 -0.0359,0.02452 C 12.088555,9.5908514 11.496806,9.4593683 11.16358,9.0433576 L 10.695963,8.5760391 c -0.586314,-0.5859301 -1.5362171,-0.5859301 -2.1214501,0 -0.5855069,0.5859312 -0.5855069,1.5358889 0,2.1210699 l 0.530245,0.53062 0.004,0.02236 c 0.350811,0.342746 0.451918,0.884756 0.2069,1.337376 -0.004,0.0069 -0.01004,0.01172 -0.0135,0.01904 l 0.004,0.02527 c -0.163305,0.327043 -0.306134,0.667586 -0.423318,1.019145 l -0.02276,0.01758 c -0.004,0.01317 -0.005,0.02602 -0.009,0.03956 -0.159283,0.5354 -0.681841,0.859115 -1.2172459,0.792461 H 6.999342 c -0.828746,0 -1.500312,0.671992 -1.500312,1.499983 0,0.827804 0.671566,1.500171 1.500312,1.500171 h 0.749239 l 0.0224,0.01683 c 0.4852459,-7.49e-4 0.9345369,0.310544 1.0802689,0.79907 0.002,0.0044 0.002,0.0088 0.002,0.01317 l 0.02781,0.02053 c 0.117951,0.350784 0.259273,0.691374 0.424085,1.017995 l -0.007,0.04543 c 0.005,0.0087 0.0113,0.01538 0.0161,0.02418 0.262597,0.48487 0.131116,1.07666 -0.284904,1.409891 l -0.455566,0.456277 c -0.5855179,0.585181 -0.5855179,1.535139 0,2.12107 0.585175,0.585182 1.5351351,0.585182 2.1214381,0 l 0.530626,-0.530244 0.022,-0.0036 c 0.341997,-0.341293 0.878102,-0.437245 1.325232,-0.19556 0.004,0.0014 0.005,0.0044 0.009,0.0059 l 0.0484,-0.0073 c 0.327045,0.16331 0.667587,0.306137 1.019146,0.423323 l 0.03008,0.03956 c 0.005,0.0014 0.01066,0.0014 0.01546,0.0036 0.489981,0.145029 0.800852,0.596197 0.799402,1.083222 l 0.005,0.0059 v 0.750505 c 0,0.828366 0.671243,1.499983 1.499987,1.499983 0.828366,0 1.500358,-0.671617 1.500358,-1.499983 v -0.751133 l 0.005,-0.0059 c -0.002,-0.487073 0.309464,-0.93749 0.799445,-1.083223 0.006,-0.0022 0.0103,-0.0022 0.01572,-0.0036 l 0.0297,-0.03881 c 0.3508,-0.117936 0.691022,-0.25856 1.017974,-0.424073 l 0.0494,0.0073 c 0.003,-0.0014 0.005,-0.0044 0.008,-0.0059 0.447128,-0.241685 0.983285,-0.145733 1.325278,0.195559 l 0.0224,0.0036 0.530619,0.530245 c 0.585179,0.585181 1.535141,0.585181 2.121443,0 0.58556,-0.585931 0.58556,-1.53589 0,-2.12107 L 22.968895,20.84715 c -0.416007,-0.33323 -0.547116,-0.92502 -0.284527,-1.40989 0.005,-0.0087 0.01094,-0.01613 0.01577,-0.02418 l -0.008,-0.04978 c 0.163309,-0.326621 0.307258,-0.662805 0.423325,-1.012863 l 0.0293,-0.02199 c 9.26e-4,-0.0044 0.002,-0.008 0.003,-0.01247 0.145486,-0.488527 0.594455,-0.799071 1.079653,-0.799071 l 0.022,-0.01683 h 0.750281 c 0.828733,0 1.499978,-0.672367 1.499978,-1.500171 0,-0.827991 -0.671245,-1.499983 -1.499978,-1.499983 H 24.36475 c -0.536156,0.06665 -1.057962,-0.257061 -1.216915,-0.792461 -0.004,-0.01355 -0.005,-0.02709 -0.009,-0.04065 l -0.0224,-0.01649 c -0.117578,-0.350775 -0.259289,-0.691364 -0.423722,-1.017283 l 0.004,-0.02634 c -0.004,-0.0073 -0.01004,-0.0128 -0.0135,-0.01979 -0.24501,-0.45262 -0.143904,-0.994629 0.206525,-1.337376 l 0.004,-0.02236 0.530623,-0.530619 c 0.585549,-0.585182 0.585549,-1.5351405 0,-2.1210714 C 23.146019,8.297942 22.738817,8.139366 22.374469,8.12507 c -0.41456,0 -0.750368,-0.335435 -0.750368,-0.749993 0,-0.414559 0.335808,-0.749992 0.750368,-0.749992 0.05383,0 0.105839,0.0055 0.156745,0.01647 0.705317,0.04617 1.416497,0.33581 1.953354,0.873413 1.101829,1.1015503 1.154187,2.838813 0.184587,4.016909 0.004,0.0069 0.005,0.01571 0.01004,0.02307 -0.004,0.0033 -0.009,0.004 -0.0117,0.0081 -0.270601,0.270981 -0.52368,0.618884 -0.365094,1.002317 0.158053,0.382637 0.55316,0.459558 0.966923,0.459558 z M 20.125358,9.2502035 c -0.41456,0 -0.749999,-0.3361835 -0.749999,-0.7503664 0,-0.4134341 0.335439,-0.7492401 0.749999,-0.7492401 0.413431,0 0.749239,0.335806 0.749239,0.7492401 0,0.4141829 -0.335808,0.7503664 -0.749239,0.7503664 z m -4.125235,2.2499755 z"
     id="path2-36753-6"
     sodipodi:nodetypes="scsccsccccccccscsccscccccccscsccccccccscsccccsssscccccccccccccccccccccsssccccccccccccccccccccccsssccccccccccccccccccccccsssccccccccccccssccccccssssssccccccccccc"
     style="fill:url(#linearGradient1369);fill-opacity:1;stroke-width:0.0468753" />
  <rect
     x="18.371214"
     y="14.237759"
     width="1.6375433"
     height="0.46786913"
     id="rect12"
     style="fill:url(#linearGradient1207);fill-opacity:1;stroke-width:0.779831" />
  <rect
     x="18.371214"
     y="15.485142"
     width="1.6375433"
     height="0.46786913"
     id="rect14"
     style="fill:url(#linearGradient1199);fill-opacity:1;stroke-width:0.779831" />
  <polygon
     points="-778.9,581 -778.9,577.4 -780.1,577.4 -780.1,581 -782.7,578.4 -783.6,579.3 -781,581.9 -784.6,581.9 -784.6,583.1 -781,583.1 -783.6,585.7 -782.7,586.5 -780.1,584 -780.1,587.6 -778.9,587.6 -778.9,584 -776.9,586 -776.9,584.3 -778,583.1 -776.9,583.1 -776.9,581.9 -778,581.9 -776.9,580.7 -776.9,579 "
     id="polygon16"
     transform="matrix(0.77978175,0,0,0.77978176,622.4731,-437.98979)"
     style="fill:url(#linearGradient3859);fill-opacity:1" />
</svg>
