<?xml version="1.0" encoding="UTF-8" standalone="no"?>
<svg
   inkscape:version="1.1 (c68e22c387, 2021-05-23)"
   sodipodi:docname="system-lock-screen.svg"
   id="svg6"
   version="1.1"
   viewBox="0 0 32 32"
   xmlns:inkscape="http://www.inkscape.org/namespaces/inkscape"
   xmlns:sodipodi="http://sodipodi.sourceforge.net/DTD/sodipodi-0.dtd"
   xmlns:xlink="http://www.w3.org/1999/xlink"
   xmlns="http://www.w3.org/2000/svg"
   xmlns:svg="http://www.w3.org/2000/svg"
   xmlns:rdf="http://www.w3.org/1999/02/22-rdf-syntax-ns#"
   xmlns:cc="http://creativecommons.org/ns#"
   xmlns:dc="http://purl.org/dc/elements/1.1/">
  <metadata
     id="metadata10">
    <rdf:RDF>
      <cc:Work
         rdf:about="">
        <dc:format>image/svg+xml</dc:format>
        <dc:type
           rdf:resource="http://purl.org/dc/dcmitype/StillImage" />
      </cc:Work>
    </rdf:RDF>
  </metadata>
  <sodipodi:namedview
     inkscape:document-rotation="0"
     inkscape:current-layer="svg6"
     inkscape:window-maximized="1"
     inkscape:window-y="0"
     inkscape:window-x="0"
     inkscape:cy="16.992774"
     inkscape:cx="8.1438398"
     inkscape:zoom="14.182499"
     showgrid="true"
     id="namedview8"
     inkscape:window-height="1007"
     inkscape:window-width="1920"
     inkscape:pageshadow="2"
     inkscape:pageopacity="0"
     guidetolerance="10"
     gridtolerance="10"
     objecttolerance="10"
     borderopacity="1"
     bordercolor="#666666"
     pagecolor="#ffffff"
     inkscape:pagecheckerboard="0">
    <inkscape:grid
       type="xygrid"
       id="grid862" />
  </sodipodi:namedview>
  <defs
     id="defs3051">
    <style
       id="current-color-scheme"
       type="text/css">
      .ColorScheme-Text {
        color:#eff0f1;
      }
      </style>
    <linearGradient
       inkscape:collect="always"
       xlink:href="#linearGradient3125"
       id="linearGradient3127"
       x1="3.6783416"
       y1="28.659496"
       x2="23.417896"
       y2="9.121129"
       gradientUnits="userSpaceOnUse"
       gradientTransform="matrix(0.92307695,0,0,0.92307695,1.230766,1.41538)" />
    <linearGradient
       inkscape:collect="always"
       id="linearGradient3125">
      <stop
         style="stop-color:#ffb380;stop-opacity:1"
         offset="0"
         id="stop3121" />
      <stop
         style="stop-color:#ff87ff;stop-opacity:1"
         offset="1"
         id="stop3123" />
    </linearGradient>
  </defs>
  <path
     d="m 15.25042,23.499954 c 0.41345,0 0.75,0.335436 0.75,0.75 0,0.413816 -0.33655,0.75 -0.75,0.75 -0.41455,0 -0.75037,-0.336184 -0.75037,-0.75 0,-0.414564 0.33585,-0.75 0.75037,-0.75 z m -0.75037,-5.250046 c 0,-0.414564 0.33582,-0.75 0.75037,-0.75 0.41345,0 0.75,0.335436 0.75,0.75 v 2.999298 c 0,0.414563 -0.33655,0.750748 -0.75,0.750748 -0.41455,0 -0.75037,-0.336185 -0.75037,-0.750748 z M 24.99995,28 H 6.99963 C 5.34288,28 4,26.656 4,24.999954 v -6.750046 c 0,-0.414564 0.33582,-0.75 0.75037,-0.75 0.41345,0 0.75,0.335436 0.75,0.75 v 6.375046 c 0,1.035656 0.83935,1.874298 1.87501,1.874298 h 17.24958 c 1.03564,0 1.87579,-0.838688 1.87579,-1.874298 V 17.87416 c 0,-1.034908 -0.84015,-1.874816 -1.87579,-1.874816 H 11.12504 10.75037 10.74963 C 9.50636,15.999344 8.5,14.992276 8.5,13.750046 V 13.374298 11.49966 C 8.5,7.35743 11.85748,4 16.00042,4 c 4.1421,0 7.49953,3.35743 7.49953,7.49966 v 0.750004 c 0,0.414566 -0.33543,0.750004 -0.75,0.750004 -0.41382,0 -0.75,-0.335438 -0.75,-0.750004 V 11.49966 c 0,-3.31382 -2.68655,-6.00041 -5.99953,-6.00041 -3.31387,0 -6.00005,2.68654 -6.00005,6.00041 v 1.124638 0.286358 0.463642 c 0,0.621472 0.50353,1.125794 1.12467,1.125794 h 0.46364 0.28636 9.74992 0.37499 1.5 0.37576 1.12424 c 1.6575,0 3.00005,1.342552 3.00005,2.999816 v 7.500046 C 28,26.656 26.65745,28 24.99995,28 Z M 6.24963,15.999344 c -0.41345,0 -0.74926,-0.335436 -0.74926,-0.75 0,-0.413436 0.33581,-0.749252 0.74926,-0.749252 0.41455,0 0.75,0.335816 0.75,0.749252 0,0.414564 -0.33545,0.75 -0.75,0.75 z"
     id="path2-6"
     style="fill:url(#linearGradient3127);fill-opacity:1;stroke-width:0.0468752" />
</svg>
