<?xml version="1.0" encoding="UTF-8" standalone="no"?>
<svg
   inkscape:version="1.1 (c68e22c387, 2021-05-23)"
   sodipodi:docname="system-shutdown.svg"
   id="svg6"
   version="1.1"
   viewBox="0 0 32 32"
   xmlns:inkscape="http://www.inkscape.org/namespaces/inkscape"
   xmlns:sodipodi="http://sodipodi.sourceforge.net/DTD/sodipodi-0.dtd"
   xmlns:xlink="http://www.w3.org/1999/xlink"
   xmlns="http://www.w3.org/2000/svg"
   xmlns:svg="http://www.w3.org/2000/svg"
   xmlns:rdf="http://www.w3.org/1999/02/22-rdf-syntax-ns#"
   xmlns:cc="http://creativecommons.org/ns#"
   xmlns:dc="http://purl.org/dc/elements/1.1/">
  <metadata
     id="metadata10">
    <rdf:RDF>
      <cc:Work
         rdf:about="">
        <dc:format>image/svg+xml</dc:format>
        <dc:type
           rdf:resource="http://purl.org/dc/dcmitype/StillImage" />
      </cc:Work>
    </rdf:RDF>
  </metadata>
  <sodipodi:namedview
     inkscape:document-rotation="0"
     inkscape:lockguides="true"
     inkscape:current-layer="svg6"
     inkscape:window-maximized="1"
     inkscape:window-y="0"
     inkscape:window-x="0"
     inkscape:cy="21.646397"
     inkscape:cx="35.289973"
     inkscape:zoom="14.182499"
     showgrid="false"
     id="namedview8"
     inkscape:window-height="1007"
     inkscape:window-width="1920"
     inkscape:pageshadow="2"
     inkscape:pageopacity="0"
     guidetolerance="10"
     gridtolerance="10"
     objecttolerance="10"
     borderopacity="1"
     bordercolor="#666666"
     pagecolor="#ffffff"
     inkscape:pagecheckerboard="0" />
  <defs
     id="defs3051">
    <style
       id="current-color-scheme"
       type="text/css">
      .ColorScheme-Text {
        color:#eff0f1;
      }
      </style>
    <linearGradient
       inkscape:collect="always"
       xlink:href="#linearGradient2141"
       id="linearGradient2143"
       x1="3.3535533"
       y1="27.893074"
       x2="23.613525"
       y2="8.9416494"
       gradientUnits="userSpaceOnUse"
       gradientTransform="matrix(0.9230827,0,0,0.92308268,1.23075,1.2307518)" />
    <linearGradient
       inkscape:collect="always"
       id="linearGradient2141">
      <stop
         style="stop-color:#ff2a2a;stop-opacity:1;"
         offset="0"
         id="stop2137" />
      <stop
         style="stop-color:#ffccaa;stop-opacity:1"
         offset="1"
         id="stop2139" />
    </linearGradient>
  </defs>
  <path
     d="M 15.999617,28 C 9.3727141,28 4,22.626875 4,15.999646 4,13.894236 4.547462,11.919628 5.500116,10.200986 5.987137,9.2019769 7.0095321,8.5112717 8.1952451,8.5112717 c 1.656433,0 3.0003459,1.3432591 3.0003459,2.9996433 0,0.548949 -0.150471,1.062046 -0.407906,1.505164 l 0.009,0.006 c -0.503485,0.877823 -0.796086,1.892957 -0.796086,2.978444 0,3.313711 2.686522,6.000278 5.999623,6.000278 2.320751,0 4.330006,-1.320571 5.327472,-3.247616 h 7.46e-4 c 0.002,-0.004 0.003,-0.01 0.005,-0.0117 0.09668,-0.187497 0.181643,-0.380107 0.257817,-0.577881 0.0161,-0.03958 0.0293,-0.0813 0.0446,-0.122296 0.06,-0.164808 0.11208,-0.331787 0.157402,-0.502455 0.0146,-0.0579 0.0307,-0.116437 0.0454,-0.175033 0.0367,-0.158955 0.0652,-0.320061 0.09005,-0.484131 0.01,-0.0666 0.02275,-0.131806 0.03007,-0.198461 0.025,-0.224116 0.041,-0.449727 0.041,-0.680635 0,-0.247175 -0.0183,-0.489983 -0.0476,-0.729846 -7.47e-4,-0.004 0,-0.01 -7.47e-4,-0.01317 l -0.002,7.46e-4 c -0.102645,-0.827731 -0.375037,-1.602244 -0.778592,-2.290005 -0.162563,-0.419671 -0.568315,-0.718122 -1.045833,-0.718122 -0.621049,0 -1.125284,0.503904 -1.125284,1.125377 v 1.125007 c 0,0.395864 -0.0783,0.772695 -0.218254,1.119146 -0.0527,0.132193 -0.116437,0.258897 -0.187496,0.380865 -0.008,0.0129 -0.0139,0.0246 -0.0212,0.03705 -0.144278,0.241506 -0.320763,0.460507 -0.524386,0.650958 -0.009,0.008 -0.0168,0.01547 -0.02499,0.02273 -0.09815,0.0908 -0.203622,0.175035 -0.313501,0.252703 -0.006,0.003 -0.0116,0.009 -0.0176,0.0125 -0.109124,0.0739 -0.222654,0.139173 -0.340598,0.199976 -0.0256,0.0125 -0.0514,0.025 -0.0769,0.03734 -0.115738,0.05412 -0.23513,0.103264 -0.358832,0.14353 -0.005,0.002 -0.01091,0.005 -0.01545,0.006 -0.124498,0.03962 -0.254911,0.0674 -0.38597,0.09004 -0.0345,0.006 -0.0688,0.0117 -0.104012,0.0168 -0.134724,0.0182 -0.271876,0.0307 -0.411382,0.0307 -1.656434,0 -2.999593,-1.343445 -2.999593,-3.00021 V 6.9996863 C 12.999596,5.3428827 14.342762,4 15.9992,4 c 1.657229,0 3.000386,1.3428827 3.000386,2.9996863 V 7.749691 c 0,0.4145652 -0.335438,0.7500049 -0.749958,0.7500049 -0.414564,0 -0.749958,-0.3354859 -0.749958,-0.7500049 V 6.9996863 c 0,-0.828374 -0.671581,-1.5003784 -1.50047,-1.5003784 -0.828339,0 -1.499356,0.6720044 -1.499356,1.5003784 V 14.49978 c 0,0.828379 0.671017,1.500011 1.499356,1.500011 0.828889,0 1.50047,-0.671632 1.50047,-1.500011 v -1.125011 c 0,-0.160024 0.0183,-0.31383 0.0462,-0.465098 0.01,-0.0523 0.02273,-0.10106 0.0345,-0.152339 0.02499,-0.103269 0.05639,-0.203617 0.09295,-0.301779 0.019,-0.0497 0.0344,-0.09854 0.0557,-0.146488 0.0557,-0.122671 0.119391,-0.240232 0.191907,-0.352311 0.044,-0.0682 0.09517,-0.129659 0.145035,-0.192617 0.0367,-0.0454 0.0726,-0.09233 0.112082,-0.135129 0.0609,-0.0682 0.12525,-0.132955 0.192565,-0.194489 0.0271,-0.02533 0.0571,-0.04694 0.0856,-0.07075 0.45483,-0.377581 1.031582,-0.613789 1.668759,-0.613789 1.076582,0 1.999367,0.649319 2.40437,1.576562 l 0.004,-0.002 c 0.61229,1.087277 0.966006,2.339409 0.966006,3.675347 0,4.142844 -3.357205,7.500279 -7.499713,7.500279 -4.141438,0 -7.5000949,-3.357435 -7.5000949,-7.500279 0,-0.235451 0.0143,-0.466543 0.0362,-0.695438 0.006,-0.0501 0.01,-0.09999 0.0153,-0.149439 0.026,-0.230348 0.0605,-0.457407 0.10767,-0.68114 0.164057,-0.783011 0.449668,-1.523124 0.836772,-2.196581 l -0.0129,-0.008 c 0.132148,-0.222657 0.212725,-0.480096 0.212725,-0.758441 0,-0.828375 -0.671582,-1.499254 -1.500101,-1.499254 -0.630569,0 -1.168882,0.390003 -1.3900441,0.940779 -0.825051,1.499686 -1.305101,3.214995 -1.305101,5.047204 0,5.798851 4.700559,10.499603 10.499512,10.499603 5.517173,0 10.031914,-4.258391 10.458906,-9.665174 0.0249,-0.275391 0.0418,-0.552234 0.0418,-0.834429 0,-0.261463 -0.0117,-0.520407 -0.0315,-0.776718 -0.005,-0.0751 -0.0146,-0.147943 -0.0212,-0.223036 -0.0168,-0.177233 -0.03735,-0.353015 -0.0622,-0.527349 -0.0146,-0.09416 -0.0307,-0.186415 -0.0462,-0.279093 -0.02781,-0.156379 -0.05866,-0.312002 -0.09295,-0.465842 -0.02045,-0.09336 -0.041,-0.18676 -0.0644,-0.278349 -0.03959,-0.154919 -0.0821,-0.307598 -0.128163,-0.459243 -0.0256,-0.08752 -0.0514,-0.173944 -0.0791,-0.260714 -0.0666,-0.203253 -0.139876,-0.404301 -0.218947,-0.602772 -0.0103,-0.02527 -0.019,-0.0519 -0.0285,-0.0765 -0.09295,-0.226311 -0.194816,-0.447519 -0.301039,-0.66615 -0.0315,-0.0631 -0.06597,-0.124497 -0.09816,-0.186417 -0.05872,-0.114575 -0.116506,-0.23144 -0.179505,-0.343096 l 0.0198,-0.01093 c -0.103219,-0.128541 -0.167671,-0.290071 -0.167671,-0.468381 0,-0.414568 0.335396,-0.7500053 0.749959,-0.7500053 0.324429,0 0.598361,0.2069076 0.703087,0.4950953 l 0.005,-0.004 c 0.979908,1.738138 1.541612,3.744587 1.541612,5.882936 0,6.627233 -5.37232,12.000358 -12.000535,12.000358 z M 22.749373,9.999936 c -0.413763,0 -0.749957,-0.3365659 -0.749957,-0.7503832 0,-0.4145565 0.336194,-0.7500048 0.749957,-0.7500048 0.414521,0 0.749957,0.3354483 0.749957,0.7500048 0,0.4138173 -0.335436,0.7503832 -0.749957,0.7503832 z"
     id="path2-3"
     style="fill:url(#linearGradient2143);fill-opacity:1;stroke-width:0.0468755" />
</svg>
