<?xml version="1.0" encoding="UTF-8" standalone="no"?>
<svg
   viewBox="0 0 32 32"
   version="1.1"
   id="svg6"
   sodipodi:docname="system-log-out-rtl.svg"
   inkscape:version="1.1.1 (3bf5ae0d25, 2021-09-20)"
   xmlns:inkscape="http://www.inkscape.org/namespaces/inkscape"
   xmlns:sodipodi="http://sodipodi.sourceforge.net/DTD/sodipodi-0.dtd"
   xmlns:xlink="http://www.w3.org/1999/xlink"
   xmlns="http://www.w3.org/2000/svg"
   xmlns:svg="http://www.w3.org/2000/svg">
  <sodipodi:namedview
     id="namedview8"
     pagecolor="#ffffff"
     bordercolor="#666666"
     borderopacity="1.0"
     inkscape:pageshadow="2"
     inkscape:pageopacity="0.0"
     inkscape:pagecheckerboard="0"
     showgrid="true"
     inkscape:zoom="9.71875"
     inkscape:cx="-7.9228296"
     inkscape:cy="13.170418"
     inkscape:window-width="1920"
     inkscape:window-height="1006"
     inkscape:window-x="0"
     inkscape:window-y="0"
     inkscape:window-maximized="1"
     inkscape:current-layer="svg6">
    <inkscape:grid
       type="xygrid"
       id="grid1149" />
  </sodipodi:namedview>
  <defs
     id="defs3051">
    <style
       type="text/css"
       id="current-color-scheme">
      .ColorScheme-Text {
        color:#eff0f1;
      }
      </style>
    <linearGradient
       inkscape:collect="always"
       xlink:href="#linearGradient2925"
       id="linearGradient2927"
       x1="3.4442399"
       y1="29.553753"
       x2="23.984911"
       y2="8.1365833"
       gradientUnits="userSpaceOnUse"
       gradientTransform="matrix(-0.92307348,0,0,-0.92307348,30.768905,30.769221)" />
    <linearGradient
       inkscape:collect="always"
       id="linearGradient2925">
      <stop
         style="stop-color:#ff9955;stop-opacity:1"
         offset="0"
         id="stop2921" />
      <stop
         style="stop-color:#ffeeaa;stop-opacity:1"
         offset="1"
         id="stop2923" />
    </linearGradient>
  </defs>
  <path
     d="m 4.86219,13.879337 9.015333,-9.0119192 c 0.627712,-0.62747 1.463389,-0.907454 2.284777,-0.862823 h -0.16331 c 1.65674,0 2.999991,1.342777 2.999991,2.99886 v 0.749715 c 0,0.414041 -0.335818,0.749719 -0.749999,0.749719 -0.414186,0 -0.749997,-0.335678 -0.749997,-0.749719 v -0.749715 c 0,-0.828041 -0.671623,-1.499383 -1.499995,-1.499383 0,0 -0.003,-0.007 -0.006,-0.015 -0.381931,0.002 -0.763173,0.147188 -1.054687,0.438517 L 5.92268,14.939888 c -0.585927,0.58533 -0.585927,1.534914 0,2.120244 l 9.015843,9.012213 c 0.291504,0.291378 0.673067,0.437481 1.05543,0.438561 0.003,-0.0092 0.006,-0.01496 0.006,-0.01496 0.828359,0 1.499994,-0.671388 1.499994,-1.499431 v -1.499431 c 0,-1.656088 1.343235,-2.998818 2.999988,-2.998818 h 4.500011 c 0.828367,0 1.499994,-0.671388 1.499994,-1.499431 v -5.997672 c 0,-0.828043 -0.671627,-1.499382 -1.499994,-1.499382 h -0.749997 c -0.414178,0 -0.749997,-0.335724 -0.749997,-0.749722 0,-0.414041 0.335819,-0.749707 0.749997,-0.749707 h 0.749997 c 1.656743,0 2.999988,1.342773 2.999988,2.998857 v 5.997697 c 0,1.656086 -1.343245,2.998863 -2.999988,2.998863 h -4.499981 c -0.828375,0 -1.499994,0.671342 -1.499994,1.499385 v 1.499385 c 0,1.656133 -1.343245,2.998864 -2.999988,2.998864 h 0.162989 c -0.821395,0.04468 -1.656742,-0.235735 -2.284399,-0.862825 L 4.863158,18.120657 C 4.277415,17.534957 4,16.767523 4,16.000043 4,15.232563 4.277415,14.465129 4.863158,13.879429 Z m 14.886788,-2.377633 c -0.414187,0 -0.749997,-0.33572 -0.749997,-0.749718 0,-0.414045 0.33581,-0.749716 0.749997,-0.749716 0.414179,0 0.749997,0.335671 0.749997,0.749716 0,0.413998 -0.335818,0.749718 -0.749997,0.749718 z"
     id="path2"
     style="fill:url(#linearGradient2927);fill-opacity:1;stroke-width:0.046875" />
</svg>
