<?xml version="1.0" encoding="UTF-8" standalone="no"?>
<svg
   viewBox="0 0 22 22"
   version="1.1"
   id="svg6"
   sodipodi:docname="bookmarks.svg"
   inkscape:version="1.1.2 (0a00cf5339, 2022-02-04)"
   xmlns:inkscape="http://www.inkscape.org/namespaces/inkscape"
   xmlns:sodipodi="http://sodipodi.sourceforge.net/DTD/sodipodi-0.dtd"
   xmlns:xlink="http://www.w3.org/1999/xlink"
   xmlns="http://www.w3.org/2000/svg"
   xmlns:svg="http://www.w3.org/2000/svg">
  <sodipodi:namedview
     id="namedview8"
     pagecolor="#ffffff"
     bordercolor="#666666"
     borderopacity="1.0"
     inkscape:pageshadow="2"
     inkscape:pageopacity="0.0"
     inkscape:pagecheckerboard="0"
     showgrid="true"
     inkscape:zoom="14.136364"
     inkscape:cx="6.0836013"
     inkscape:cy="2.7942122"
     inkscape:window-width="1920"
     inkscape:window-height="1015"
     inkscape:window-x="0"
     inkscape:window-y="0"
     inkscape:window-maximized="1"
     inkscape:current-layer="svg6">
    <inkscape:grid
       type="xygrid"
       id="grid859" />
  </sodipodi:namedview>
  <defs
     id="defs3051">
    <style
       type="text/css"
       id="current-color-scheme">
      .ColorScheme-Text {
        color:#eff0f1;
      }
      </style>
    <linearGradient
       inkscape:collect="always"
       xlink:href="#linearGradient1249"
       id="linearGradient1251"
       x1="4.25"
       y1="8"
       x2="11.75"
       y2="8"
       gradientUnits="userSpaceOnUse"
       gradientTransform="matrix(1.3333333,0,0,1.3333333,0.333334,0.333334)" />
    <linearGradient
       inkscape:collect="always"
       id="linearGradient1249">
      <stop
         style="stop-color:#00ccff;stop-opacity:1"
         offset="0"
         id="stop1245" />
      <stop
         style="stop-color:#afdde9;stop-opacity:1"
         offset="1"
         id="stop1247" />
    </linearGradient>
  </defs>
  <path
     fill-rule="evenodd"
     clip-rule="evenodd"
     d="M 12.271973,10.061031 13.22316,9.7519375 c 0.26268,-0.085437 0.54468,0.058344 0.63012,0.3210315 0.0852,0.262437 -0.05853,0.544687 -0.321027,0.630125 l -0.951186,0.309094 c -0.262694,0.08522 -0.544694,-0.05859 -0.62988,-0.321282 -0.08547,-0.262687 0.0584,-0.544656 0.320786,-0.629875 z m 0.113334,1.995125 0.488773,0.672375 c 0.162347,0.223625 0.1128,0.536125 -0.110533,0.69872 -0.223374,0.162124 -0.536134,0.11256 -0.698507,-0.110844 l -0.455413,-0.62647 C 11.473627,12.4995 11.251719,12.375 11,12.375 c -0.242437,0 -0.457281,0.115469 -0.594469,0.293937 l -0.470468,0.647469 c -0.162344,0.223375 -0.475094,0.272938 -0.6985,0.110844 -0.223375,-0.162594 -0.272938,-0.475094 -0.1106,-0.698719 l 0.465342,-0.640125 c 0.569344,-0.776375 1.659438,-0.94775 2.439215,-0.381344 0.138653,0.100563 0.25512,0.219938 0.35472,0.349094 z M 11,8 c 0.276125,0 0.5,0.2238749 0.5,0.5 v 0.78125 c 0,0.966563 -0.783437,1.75 -1.75,1.75 -0.181156,0 -0.355219,-0.02931 -0.519781,-0.08056 L 8.467781,10.703125 C 8.205344,10.617688 8.061531,10.335437 8.146749,10.073 8.232189,9.8103122 8.514188,9.6664997 8.776875,9.7519685 l 0.758781,0.2465937 c 0.06812,0.020249 0.139656,0.032719 0.214344,0.032719 0.414312,0 0.75,-0.3359373 0.75,-0.7499998 v -0.78125 C 10.5,8.2238749 10.723875,8 11,8 Z m 3.916,11 c -0.29712,0 -0.565907,-0.119627 -0.76172,-0.313469 l -2.447253,-2.44678 C 11.51172,16.044437 11.255875,16 11,16 c -0.255875,0 -0.511969,0.04444 -0.707031,0.239751 l -2.44725,2.44678 C 7.649907,18.880375 7.381093,19 7.084,19 6.485344,19 6,18.514656 6,17.916 V 5 C 6,3.8955 6.8955,3 8,3 h 5.5 C 13.77612,3 14,3.2238751 14,3.5 14,3.7761249 13.77612,4 13.5,4 H 8 C 7.447751,4 7,4.44775 7,5 v 12.578125 c 0,0.138187 0.111813,0.25 0.25,0.25 0.06544,0 0.123787,-0.02637 0.168469,-0.06737 l 2.16725,-2.16747 C 9.976312,15.202625 10.488031,15 11,15 c 0.51172,0 1.023693,0.202625 1.414307,0.593251 l 2.16748,2.167468 c 0.0444,0.041 0.1028,0.06737 0.168213,0.06737 0.138187,0 0.25,-0.111814 0.25,-0.25 V 7.5 C 15,7.2238749 15.22388,7 15.5,7 15.77612,7 16,7.2238749 16,7.5 V 17.916 C 16,18.514656 15.514653,19 14.916,19 Z M 15.25,4.75 c -0.27612,0 -0.5,-0.2238751 -0.5,-0.5 0,-0.2761249 0.22388,-0.5 0.5,-0.5 0.27612,0 0.5,0.2238751 0.5,0.5 0,0.2761249 -0.22388,0.5 -0.5,0.5 z"
     id="path2"
     style="fill:url(#linearGradient1251);fill-opacity:1;stroke-width:0.03125" />
</svg>
