<?xml version="1.0" encoding="UTF-8" standalone="no"?>
<svg
   width="47.285591"
   height="47.28569"
   version="1.1"
   viewBox="0 0 12.510734 12.51076"
   id="svg12"
   sodipodi:docname="xorg.svg"
   inkscape:version="1.4.2 (unknown)"
   xmlns:inkscape="http://www.inkscape.org/namespaces/inkscape"
   xmlns:sodipodi="http://sodipodi.sourceforge.net/DTD/sodipodi-0.dtd"
   xmlns:xlink="http://www.w3.org/1999/xlink"
   xmlns="http://www.w3.org/2000/svg"
   xmlns:svg="http://www.w3.org/2000/svg"
   xmlns:rdf="http://www.w3.org/1999/02/22-rdf-syntax-ns#"
   xmlns:cc="http://creativecommons.org/ns#"
   xmlns:dc="http://purl.org/dc/elements/1.1/">
  <style
     id="style875" />
  <metadata
     id="metadata50">
    <rdf:RDF>
      <cc:Work
         rdf:about="">
        <dc:format>image/svg+xml</dc:format>
        <dc:type
           rdf:resource="http://purl.org/dc/dcmitype/StillImage" />
      </cc:Work>
    </rdf:RDF>
  </metadata>
  <defs
     id="defs16">
    <linearGradient
       id="c"
       y1="523.79999"
       x1="403.57001"
       y2="536.79999"
       x2="416.57001"
       gradientUnits="userSpaceOnUse"
       gradientTransform="matrix(0.34526714,0,0,0.34526706,-134.80427,-174.63325)">
      <stop
         stop-color="#292c2f"
         id="stop1568" />
      <stop
         offset="1"
         stop-opacity="0"
         id="stop1570" />
    </linearGradient>
    <linearGradient
       xlink:href="#b-2"
       id="linearGradient4189"
       x1="14.369"
       y1="22.521999"
       x2="26.521999"
       y2="22.521999"
       gradientUnits="userSpaceOnUse" />
    <linearGradient
       x1="36"
       gradientUnits="userSpaceOnUse"
       x2="14"
       y2="12"
       y1="44"
       id="b-2">
      <stop
         style="stop-color:#bfc9c9;stop-opacity:1"
         stop-color="#536161"
         id="stop1579" />
      <stop
         style="stop-color:#fbfbfb;stop-opacity:1"
         stop-color="#f4f5f5"
         offset="1"
         id="stop1581" />
    </linearGradient>
    <linearGradient
       xlink:href="#b-2"
       id="linearGradient4428"
       gradientUnits="userSpaceOnUse"
       x1="31.586"
       y1="36.345001"
       x2="1.2029999"
       y2="6.723" />
    <linearGradient
       xlink:href="#b-2"
       id="linearGradient4189-3"
       x1="14.369"
       y1="22.521999"
       x2="26.521999"
       y2="22.521999"
       gradientUnits="userSpaceOnUse"
       gradientTransform="translate(20.841982,61.553822)" />
    <linearGradient
       xlink:href="#b-2"
       id="linearGradient4428-5"
       gradientUnits="userSpaceOnUse"
       x1="31.586"
       y1="36.345001"
       x2="1.2029999"
       y2="6.723"
       gradientTransform="translate(20.841982,61.553822)" />
    <linearGradient
       xlink:href="#b-2"
       id="linearGradient4189-3-3"
       x1="14.369"
       y1="22.521999"
       x2="26.521999"
       y2="22.521999"
       gradientUnits="userSpaceOnUse"
       gradientTransform="translate(4.376802,4.4211693)" />
    <linearGradient
       xlink:href="#b-2"
       id="linearGradient4428-5-5"
       gradientUnits="userSpaceOnUse"
       x1="31.586"
       y1="36.345001"
       x2="1.2029999"
       y2="6.723"
       gradientTransform="translate(4.376802,4.4211693)" />
    <linearGradient
       inkscape:collect="always"
       xlink:href="#linearGradient14"
       id="linearGradient15"
       x1="-9.6850061"
       y1="45.161198"
       x2="11.98815"
       y2="21.735205"
       gradientUnits="userSpaceOnUse"
       gradientTransform="scale(0.26457813)" />
    <linearGradient
       id="linearGradient14"
       inkscape:collect="always">
      <stop
         style="stop-color:#ff9900;stop-opacity:0.34509805;"
         offset="0"
         id="stop12" />
      <stop
         style="stop-color:#ffb685;stop-opacity:0.81568629;"
         offset="1"
         id="stop13" />
    </linearGradient>
    <filter
       id="filter2917-3"
       x="-0.96181148"
       y="-0.66745996"
       width="2.9236228"
       height="2.3349199"
       color-interpolation-filters="sRGB">
      <feGaussianBlur
         stdDeviation="0.2871969"
         id="feGaussianBlur732-5" />
    </filter>
    <filter
       id="filter1"
       x="-0.96181148"
       y="-0.66745996"
       width="2.9236228"
       height="2.3349199"
       color-interpolation-filters="sRGB">
      <feGaussianBlur
         stdDeviation="0.2871969"
         id="feGaussianBlur1" />
    </filter>
    <filter
       id="filter2"
       x="-0.96181148"
       y="-0.66745996"
       width="2.9236228"
       height="2.3349199"
       color-interpolation-filters="sRGB">
      <feGaussianBlur
         stdDeviation="0.2871969"
         id="feGaussianBlur2" />
    </filter>
    <linearGradient
       id="_lgradient_20"
       x1="-0.29991642"
       y1="-0.26140401"
       x2="0.96725708"
       y2="0.86616999"
       gradientTransform="matrix(15.137397,0,0,16.82717,0.89780187,0.05291536)"
       gradientUnits="userSpaceOnUse">
      <stop
         offset="34.94098066785295%"
         stop-opacity="1"
         style="stop-color:rgb(178,229,107)"
         id="stop1" />
      <stop
         offset="53.84922244785295%"
         stop-opacity="1"
         style="stop-color:rgb(194,233,100)"
         id="stop2" />
      <stop
         offset="90.40515655585295%"
         stop-opacity="1"
         style="stop-color:rgb(236,244,81)"
         id="stop3" />
      <stop
         offset="100%"
         stop-opacity="1"
         style="stop-color:rgb(250,247,75)"
         id="stop4" />
    </linearGradient>
    <linearGradient
       id="b-2-5"
       y1="35.825909"
       y2="-4.1468086"
       gradientUnits="userSpaceOnUse"
       x2="1.525889"
       gradientTransform="matrix(0.18808708,0,0,0.18779368,2.9505234,2.8105876)"
       x1="0.19073613">
      <stop
         stop-color="#d35400"
         id="stop7-9-6"
         offset="0"
         style="stop-color:#ff9e5e;stop-opacity:1;" />
      <stop
         offset="1"
         stop-color="#f67400"
         stop-opacity=".941"
         id="stop9-1-2" />
    </linearGradient>
    <filter
       color-interpolation-filters="sRGB"
       height="1.1311257"
       width="1.1361635"
       y="-0.065562852"
       x="-0.068081726"
       id="c-9">
      <feGaussianBlur
         id="feGaussianBlur1093"
         stdDeviation="1.1062912" />
    </filter>
    <linearGradient
       gradientUnits="userSpaceOnUse"
       gradientTransform="matrix(0.02225666,0,0,0.02192966,-3.4177075,2.0981296)"
       y2="269.48999"
       y1="235.14999"
       x2="657.65002"
       x1="319.20999"
       id="a-12">
      <stop
         id="stop1076"
         offset="0"
         stop-color="#e54c18" />
      <stop
         id="stop1078"
         offset="1"
         stop-color="#fec350" />
    </linearGradient>
    <linearGradient
       inkscape:collect="always"
       xlink:href="#linearGradient14"
       id="linearGradient883"
       x1="-12.025727"
       y1="6.1170783"
       x2="-0.085100174"
       y2="6.1170783"
       gradientUnits="userSpaceOnUse" />
  </defs>
  <sodipodi:namedview
     id="namedview14"
     pagecolor="#000000"
     bordercolor="#666666"
     borderopacity="1.0"
     inkscape:showpageshadow="2"
     inkscape:pageopacity="0.0"
     inkscape:pagecheckerboard="0"
     inkscape:deskcolor="#d1d1d1"
     showgrid="false"
     inkscape:zoom="8.8545525"
     inkscape:cx="13.891159"
     inkscape:cy="39.584157"
     inkscape:window-width="1920"
     inkscape:window-height="988"
     inkscape:window-x="0"
     inkscape:window-y="0"
     inkscape:window-maximized="1"
     inkscape:current-layer="svg12"
     inkscape:document-rotation="0">
    <inkscape:grid
       type="xygrid"
       id="grid244"
       originx="9.9594769"
       originy="-31.57929"
       spacingy="1"
       spacingx="1"
       units="px"
       visible="false" />
  </sodipodi:namedview>
  <rect
     x="-12.194976"
     y="0.32004508"
     width="11.940627"
     height="11.936014"
     rx="1.6121091"
     shape-rendering="crispEdges"
     id="rect5-6-7-3"
     ry="1.7735944"
     transform="matrix(0.00523883,-0.99998628,0.999988,0.00489859,0,0)"
     style="fill:#ffe0cc;fill-opacity:0.0980392;stroke:url(#linearGradient883);stroke-width:0.5291563;stroke-miterlimit:4;stroke-dasharray:none;stroke-opacity:1" />
  <rect
     x="-3.7202365"
     y="4.8851409"
     width="7.912631"
     height="7.912384"
     rx="1.612043"
     shape-rendering="crispEdges"
     id="rect5-6-6-6-6"
     style="fill:#ffc299;fill-opacity:0.101961;stroke:url(#linearGradient15);stroke-width:0.42332506;stroke-opacity:1;stroke-miterlimit:4;stroke-dasharray:none"
     ry="1.7735215"
     transform="matrix(0.72612649,-0.68756114,0.6879775,0.72573202,0,0)" />
  <g
     id="g1"
     transform="translate(0.53396529,0.55739987)">
    <path
       style="opacity:0.1;stroke-width:0.264575"
       d="M 5.7213465,4.6769571 A 1.2420277,1.2084786 0 0 0 4.4793187,5.8854359 1.2420277,1.2084786 0 0 0 5.7213465,7.0939151 1.2420277,1.2084786 0 0 0 6.9633744,5.8854359 1.2420277,1.2084786 0 0 0 5.7213465,4.6769571 Z m 0,0.2788796 A 0.95540612,0.9295989 0 0 1 6.6767525,5.8854359 0.95540612,0.9295989 0 0 1 5.7213465,6.8150356 0.95540612,0.9295989 0 0 1 4.7659403,5.8854359 0.95540612,0.9295989 0 0 1 5.7213465,4.9558367 Z m 0,-1.208479 A 2.1974343,2.1380775 0 0 0 3.5239122,5.8854359 2.1974343,2.1380775 0 0 0 5.7213465,8.0235141 2.1974343,2.1380775 0 0 0 7.9187805,5.8854359 2.1974343,2.1380775 0 0 0 5.7213465,3.7473577 Z m 0.00433,0.4726085 A 1.7162342,1.669876 0 0 1 7.4420352,5.8897125 1.7162342,1.669876 0 0 1 5.7257436,7.5596437 1.7162342,1.669876 0 0 1 4.0096431,5.8897125 1.7162342,1.669876 0 0 1 5.7257436,4.2199662 Z M 5.7213465,2.5388794 A 3.4394621,3.3465565 0 0 0 2.2818845,5.8854359 3.4394621,3.3465565 0 0 0 5.7213465,9.2319914 3.4394621,3.3465565 0 0 0 9.1608073,5.8854359 3.4394621,3.3465565 0 0 0 5.7213465,2.5388794 Z m 0,0.7436789 A 2.6751375,2.6028771 0 0 1 8.3964836,5.8854359 2.6751375,2.6028771 0 0 1 5.7213465,8.4883135 2.6751375,2.6028771 0 0 1 3.0462096,5.8854359 2.6751375,2.6028771 0 0 1 5.7213465,3.2825583 Z"
       id="path3-3" />
    <path
       style="fill:#f7866e;fill-opacity:1;stroke-width:0.264575"
       d="M 5.7213465,4.4910369 A 1.2420277,1.2084786 0 0 0 4.4793187,5.6995164 1.2420277,1.2084786 0 0 0 5.7213465,6.9079953 1.2420277,1.2084786 0 0 0 6.9633744,5.6995164 1.2420277,1.2084786 0 0 0 5.7213465,4.4910369 Z m 0,0.2788805 a 0.95540612,0.9295989 0 0 1 0.955406,0.929599 0.95540612,0.9295989 0 0 1 -0.955406,0.9295992 0.95540612,0.9295989 0 0 1 -0.9554062,-0.9295992 0.95540612,0.9295989 0 0 1 0.9554062,-0.929599 z m 0,-1.2084793 A 2.1974343,2.1380775 0 0 0 3.5239122,5.6995164 2.1974343,2.1380775 0 0 0 5.7213465,7.8375942 2.1974343,2.1380775 0 0 0 7.9187805,5.6995164 2.1974343,2.1380775 0 0 0 5.7213465,3.5614381 Z m 0.00434,0.4726085 A 1.7162342,1.669876 0 0 1 7.4420285,5.703793 1.7162342,1.669876 0 0 1 5.7257369,7.3737246 1.7162342,1.669876 0 0 1 4.0096364,5.703793 1.7162342,1.669876 0 0 1 5.7257369,4.0340466 Z M 5.7213465,2.3529597 A 3.4394621,3.3465565 0 0 0 2.2818845,5.6995164 3.4394621,3.3465565 0 0 0 5.7213465,9.0460723 3.4394621,3.3465565 0 0 0 9.1608073,5.6995164 3.4394621,3.3465565 0 0 0 5.7213465,2.3529597 Z m 0,0.7436791 A 2.6751375,2.6028771 0 0 1 8.3964836,5.6995164 2.6751375,2.6028771 0 0 1 5.7213465,8.3023935 2.6751375,2.6028771 0 0 1 3.0462096,5.6995164 2.6751375,2.6028771 0 0 1 5.7213465,3.0966388 Z"
       id="path4-6" />
    <path
       style="opacity:0.2;fill:#ffffff;stroke-width:0.264575"
       d="m 5.7213465,2.3529597 a 3.4394621,3.3465565 0 0 0 -3.439462,3.3465567 3.4394621,3.3465565 0 0 0 0.0067,0.092961 3.4394621,3.3465565 0 0 1 3.4327341,-3.2535969 3.4394621,3.3465565 0 0 1 3.4360202,3.20786 3.4394621,3.3465565 0 0 0 0.00358,-0.047223 3.4394621,3.3465565 0 0 0 -3.4395014,-3.3465567 z m 0,1.2084784 a 2.1974343,2.1380775 0 0 0 -2.1974343,2.1380783 2.1974343,2.1380775 0 0 0 0.00824,0.092961 2.1974343,2.1380775 0 0 1 2.1892157,-2.0451182 2.1974343,2.1380775 0 0 1 2.1930393,2.0032863 2.1974343,2.1380775 0 0 0 0.00435,-0.05112 2.1974343,2.1380775 0 0 0 -2.1974324,-2.1380787 z m 0,0.9295988 a 1.2420277,1.2084786 0 0 0 -1.2420278,1.2084795 1.2420277,1.2084786 0 0 0 0.010891,0.092959 1.2420277,1.2084786 0 0 1 1.231137,-1.115519 1.2420277,1.2084786 0 0 1 1.2349579,1.0846561 1.2420277,1.2084786 0 0 0 0.00707,-0.062096 A 1.2420277,1.2084786 0 0 0 5.7213428,4.491037 Z M 8.392662,5.7474841 A 2.6751375,2.6028771 0 0 1 5.7213465,8.3023935 2.6751375,2.6028771 0 0 1 3.0536618,5.7924763 2.6751375,2.6028771 0 0 0 3.0462118,5.8854363 2.6751375,2.6028771 0 0 0 5.7213488,8.4883139 2.6751375,2.6028771 0 0 0 8.396486,5.8854363 2.6751375,2.6028771 0 0 0 8.392656,5.7474845 Z M 6.6677718,5.7658925 A 0.95540612,0.9295989 0 0 1 5.7213465,6.6291183 0.95540612,0.9295989 0 0 1 4.7785519,5.792479 0.95540612,0.9295989 0 0 0 4.7659395,5.8854389 0.95540612,0.9295989 0 0 0 5.7213457,6.8150386 0.95540612,0.9295989 0 0 0 6.6767517,5.8854389 0.95540612,0.9295989 0 0 0 6.6677718,5.7658925 Z M 4.0191945,5.7967551 A 1.7162342,1.669876 0 0 0 4.0098401,5.8897141 1.7162342,1.669876 0 0 0 5.7257437,7.5598308 1.7162342,1.669876 0 0 0 7.4422264,5.8897136 1.7162342,1.669876 0 0 0 7.436683,5.8335623 1.7162342,1.669876 0 0 1 5.7257415,7.3739072 1.7162342,1.669876 0 0 1 4.0191948,5.7967496 Z"
       id="path5-7" />
  </g>
</svg>
