<?xml version="1.0" encoding="UTF-8" standalone="no"?>
<svg
   xmlns:dc="http://purl.org/dc/elements/1.1/"
   xmlns:cc="http://creativecommons.org/ns#"
   xmlns:rdf="http://www.w3.org/1999/02/22-rdf-syntax-ns#"
   xmlns:svg="http://www.w3.org/2000/svg"
   xmlns="http://www.w3.org/2000/svg"
   xmlns:xlink="http://www.w3.org/1999/xlink"
   xmlns:sodipodi="http://sodipodi.sourceforge.net/DTD/sodipodi-0.dtd"
   xmlns:inkscape="http://www.inkscape.org/namespaces/inkscape"
   width="47.285591"
   height="47.28569"
   version="1.1"
   viewBox="0 0 12.510734 12.51076"
   id="svg12"
   sodipodi:docname="flock-browser.svg"
   inkscape:version="1.0.1 (3bc2e813f5, 2020-09-07)">
  <style
     id="style860"></style>
  <metadata
     id="metadata35">
    <rdf:RDF>
      <cc:Work
         rdf:about="">
        <dc:format>image/svg+xml</dc:format>
        <dc:type
           rdf:resource="http://purl.org/dc/dcmitype/StillImage" />
      </cc:Work>
    </rdf:RDF>
  </metadata>
  <defs
     id="defs16">
    <linearGradient
       id="linearGradient861"
       inkscape:collect="always">
      <stop
         style="stop-color:#00aad4;stop-opacity:1"
         offset="0"
         id="stop857" />
      <stop
         style="stop-color:#2a7fff;stop-opacity:1"
         offset="1"
         id="stop859" />
    </linearGradient>
    <linearGradient
       id="c"
       y1="523.79999"
       x1="403.57001"
       y2="536.79999"
       x2="416.57001"
       gradientUnits="userSpaceOnUse"
       gradientTransform="matrix(0.34526714,0,0,0.34526706,-134.80427,-174.63325)">
      <stop
         stop-color="#292c2f"
         id="stop1568" />
      <stop
         offset="1"
         stop-opacity="0"
         id="stop1570" />
    </linearGradient>
    <linearGradient
       xlink:href="#b-2"
       id="linearGradient4189"
       x1="14.369"
       y1="22.521999"
       x2="26.521999"
       y2="22.521999"
       gradientUnits="userSpaceOnUse" />
    <linearGradient
       x1="36"
       gradientUnits="userSpaceOnUse"
       x2="14"
       y2="12"
       y1="44"
       id="b-2">
      <stop
         style="stop-color:#bfc9c9;stop-opacity:1"
         stop-color="#536161"
         id="stop1579" />
      <stop
         style="stop-color:#fbfbfb;stop-opacity:1"
         stop-color="#f4f5f5"
         offset="1"
         id="stop1581" />
    </linearGradient>
    <linearGradient
       xlink:href="#b-2"
       id="linearGradient4428"
       gradientUnits="userSpaceOnUse"
       x1="31.586"
       y1="36.345001"
       x2="1.2029999"
       y2="6.723" />
    <linearGradient
       xlink:href="#b-2"
       id="linearGradient4189-3"
       x1="14.369"
       y1="22.521999"
       x2="26.521999"
       y2="22.521999"
       gradientUnits="userSpaceOnUse"
       gradientTransform="translate(20.841982,61.553822)" />
    <linearGradient
       xlink:href="#b-2"
       id="linearGradient4428-5"
       gradientUnits="userSpaceOnUse"
       x1="31.586"
       y1="36.345001"
       x2="1.2029999"
       y2="6.723"
       gradientTransform="translate(20.841982,61.553822)" />
    <linearGradient
       xlink:href="#b-2"
       id="linearGradient4189-3-3"
       x1="14.369"
       y1="22.521999"
       x2="26.521999"
       y2="22.521999"
       gradientUnits="userSpaceOnUse"
       gradientTransform="translate(4.376802,4.4211693)" />
    <linearGradient
       xlink:href="#b-2"
       id="linearGradient4428-5-5"
       gradientUnits="userSpaceOnUse"
       x1="31.586"
       y1="36.345001"
       x2="1.2029999"
       y2="6.723"
       gradientTransform="translate(4.376802,4.4211693)" />
    <linearGradient
       id="linearGradient4220">
      <stop
         offset="0"
         style="stop-color:#ffd5d3;stop-opacity:1"
         id="stop2" />
      <stop
         offset="1"
         style="stop-color:#ffffff;stop-opacity:1"
         id="stop4" />
    </linearGradient>
    <linearGradient
       inkscape:collect="always"
       xlink:href="#linearGradient861"
       id="linearGradient868"
       x1="-12.025727"
       y1="6.1170783"
       x2="-0.085100174"
       y2="6.1170783"
       gradientUnits="userSpaceOnUse" />
    <linearGradient
       inkscape:collect="always"
       xlink:href="#linearGradient861"
       id="linearGradient15-3"
       x1="-13.123444"
       y1="32.508564"
       x2="14.859644"
       y2="32.508564"
       gradientUnits="userSpaceOnUse"
       gradientTransform="scale(0.26457814)" />
    <filter
       id="filter1305-3-7"
       x="-0.060002353"
       y="-0.060002353"
       width="1.1200047"
       height="1.1200047"
       color-interpolation-filters="sRGB">
      <feGaussianBlur
         stdDeviation="0.61852427"
         id="feGaussianBlur324-5" />
    </filter>
    <linearGradient
       inkscape:collect="always"
       xlink:href="#linearGradient853"
       id="linearGradient855"
       x1="196.36201"
       y1="164.37646"
       x2="211.62383"
       y2="197.53592"
       gradientUnits="userSpaceOnUse"
       gradientTransform="matrix(0.18959585,0,0,0.18959585,-30.632486,-27.569746)" />
    <linearGradient
       inkscape:collect="always"
       id="linearGradient853">
      <stop
         style="stop-color:#77ede2;stop-opacity:1;"
         offset="0"
         id="stop849" />
      <stop
         style="stop-color:#2b29e5;stop-opacity:1"
         offset="1"
         id="stop851" />
    </linearGradient>
    <linearGradient
       inkscape:collect="always"
       xlink:href="#linearGradient861-3"
       id="linearGradient863"
       x1="182.04121"
       y1="191.82124"
       x2="211.62364"
       y2="168.27869"
       gradientUnits="userSpaceOnUse"
       gradientTransform="matrix(0.18959585,0,0,0.18959585,-30.632486,-27.569746)" />
    <linearGradient
       inkscape:collect="always"
       id="linearGradient861-3">
      <stop
         style="stop-color:#bdbdef;stop-opacity:1"
         offset="0"
         id="stop857-6" />
      <stop
         style="stop-color:#9996e6;stop-opacity:1"
         offset="0.05650956"
         id="stop871" />
      <stop
         style="stop-color:#766eed;stop-opacity:1"
         offset="0.17447889"
         id="stop873" />
      <stop
         style="stop-color:#7786ef;stop-opacity:1"
         offset="0.27897188"
         id="stop869" />
      <stop
         style="stop-color:#5773f4;stop-opacity:1"
         offset="0.54486555"
         id="stop865" />
      <stop
         style="stop-color:#6aa6e5;stop-opacity:1"
         offset="0.77966058"
         id="stop867" />
      <stop
         style="stop-color:#8ee0f2;stop-opacity:1"
         offset="1"
         id="stop859-7" />
    </linearGradient>
  </defs>
  <sodipodi:namedview
     id="namedview14"
     pagecolor="#000000"
     bordercolor="#666666"
     borderopacity="1.0"
     inkscape:showpageshadow="2"
     inkscape:pageopacity="0.0"
     inkscape:pagecheckerboard="0"
     inkscape:deskcolor="#d1d1d1"
     showgrid="false"
     inkscape:zoom="9.1993043"
     inkscape:cx="-1.9565497"
     inkscape:cy="28.197081"
     inkscape:window-width="1920"
     inkscape:window-height="988"
     inkscape:window-x="0"
     inkscape:window-y="0"
     inkscape:window-maximized="1"
     inkscape:current-layer="svg12"
     inkscape:document-rotation="0">
    <inkscape:grid
       type="xygrid"
       id="grid244"
       originx="9.9594769"
       originy="-31.57929"
       spacingy="1"
       spacingx="1"
       units="px"
       visible="false" />
  </sodipodi:namedview>
  <rect
     x="-12.194976"
     y="0.32004508"
     width="11.940627"
     height="11.936014"
     rx="1.6121091"
     shape-rendering="crispEdges"
     id="rect5-6-7-3"
     ry="1.7735944"
     transform="matrix(0.00523883,-0.99998628,0.999988,0.00489859,0,0)"
     style="fill:#80b3ff;fill-opacity:0.12156863;stroke:url(#linearGradient868);stroke-width:0.529156;stroke-miterlimit:4;stroke-dasharray:none;stroke-opacity:1" />
  <rect
     x="-3.7077141"
     y="4.887754"
     width="7.9126315"
     height="7.9123845"
     rx="1.612043"
     shape-rendering="crispEdges"
     id="rect5-6-6-6"
     style="fill:#80b3ff;fill-opacity:0.1;stroke:url(#linearGradient15-3);stroke-width:0.39686725;stroke-opacity:1;stroke-miterlimit:4;stroke-dasharray:none"
     ry="1.7735217"
     transform="matrix(0.72612648,-0.68756115,0.68797749,0.72573202,0,0)" />
  <circle
     style="fill:url(#linearGradient855);fill-opacity:1;stroke-width:0.166676;stroke-linecap:round;stroke-linejoin:round;stroke-opacity:0.992157"
     id="path837"
     cx="6.1531658"
     cy="6.1955061"
     r="2.805984" />
  <path
     id="path875"
     style="fill:#ffffff;fill-opacity:0.16683;stroke:none;stroke-width:0.189595px;stroke-linecap:butt;stroke-linejoin:miter;stroke-opacity:1"
     d="m 6.0736284,3.3906911 a 2.8059832,2.8059832 0 0 0 -2.725634,2.7444196 c 0.01851,-0.00227 0.03705,-0.00538 0.0555,-0.010166 0.132831,0.1639227 0.400589,-0.5192752 0.57682,-0.1069174 0.15278,0.25768 0.06261,0.5383533 0.176687,0.7991313 0.207794,0.1924477 0.623063,0.075898 0.728658,0.4248472 0.136136,0.3505181 0.52508,-0.1941664 0.546309,0.1946282 0.01975,0.3236612 -0.215465,0.7090979 0.144499,0.92568 0.223226,0.1771367 0.484131,0.3297464 0.77582,0.3457548 0.216966,0.033429 0.697892,0.1329042 0.681621,-0.195054 C 7.1119984,8.1719563 7.0123584,7.8119053 6.7693744,7.5573914 6.5638954,7.3529922 6.3146934,7.1982244 6.0343564,7.1222341 5.8738574,7.0022395 5.7074344,6.7010583 5.5085254,6.9454028 5.2293304,6.9008658 5.1232474,6.2042184 5.4930054,6.2817193 c 0.224319,-0.081539 0.438726,-0.2703634 0.656341,-0.025843 0.293965,0.00504 0.517206,-0.3388992 0.526963,-0.6061991 0.05803,-0.2310608 0.168855,-0.3792918 0.43403,-0.3923639 0.144266,-0.068148 -0.17522,-0.035595 -0.15875,-0.168922 -0.225444,-0.1376792 -0.549913,0.3746604 -0.703378,-0.036299 -0.152624,-0.2547645 0.34594,-0.3021856 0.09802,-0.588262 C 6.3012914,4.1286621 6.6040124,4.0549543 6.8513074,4.0228813 6.9237974,3.8235218 6.5444684,3.81369 6.5969364,3.5953501 6.4454584,3.4711818 6.2637764,3.4161982 6.0736384,3.3906944 Z m 2.48299,1.6999553 c -0.277391,0.055305 -0.12277,0.3612828 -0.201693,0.5203254 0.106073,0.3096245 -0.310106,0.3191717 -0.410861,0.533037 -0.191674,0.1660908 -0.293429,0.5901975 0.0071,0.7348678 0.178235,0.2026814 0.556267,0.2267039 0.58402,0.5321895 0.01945,0.038676 0.04057,0.097739 0.064,0.1598825 A 2.8059832,2.8059832 0 0 0 8.9592914,6.195561 2.8059832,2.8059832 0 0 0 8.7629724,5.1645142 c -0.02863,-0.019364 -0.05723,-0.038668 -0.08731,-0.056073 l -0.06045,-0.016526 z" />
  <path
     id="path839"
     style="fill:url(#linearGradient863);fill-opacity:1;stroke-width:0.16958;stroke-linecap:round;stroke-linejoin:round;stroke-opacity:0.992157"
     d="m 8.1290884,4.2041221 c 0.158056,0.1568465 0.296623,0.3329462 0.413972,0.5235745 0.123231,0.024495 0.209464,0.074185 0.25564,0.1473123 0.246487,0.3909705 -0.413233,1.4009053 -1.97694,2.2919746 -1.665241,0.9489288 -2.814356,0.9696802 -3.060925,0.5787131 -0.02705,-0.042952 -0.04015,-0.093719 -0.03917,-0.1516907 -0.08001,-0.1387811 -0.148888,-0.2845499 -0.204512,-0.4369947 -0.166043,0.449718 -0.146177,0.847624 0.0569,1.1402237 0.449721,0.6228523 2.174438,0.352809 3.750153,-0.6394668 1.575672,-0.9922445 2.50533,-2.1624567 1.956054,-2.9538004 C 9.0672444,4.3971314 8.6636984,4.2219194 8.1290324,4.2041221 Z"
     sodipodi:nodetypes="cccsccccscc" />
</svg>
