<?xml version="1.0" encoding="UTF-8" standalone="no"?>
<svg
   xmlns:dc="http://purl.org/dc/elements/1.1/"
   xmlns:cc="http://creativecommons.org/ns#"
   xmlns:rdf="http://www.w3.org/1999/02/22-rdf-syntax-ns#"
   xmlns:svg="http://www.w3.org/2000/svg"
   xmlns="http://www.w3.org/2000/svg"
   xmlns:xlink="http://www.w3.org/1999/xlink"
   xmlns:sodipodi="http://sodipodi.sourceforge.net/DTD/sodipodi-0.dtd"
   xmlns:inkscape="http://www.inkscape.org/namespaces/inkscape"
   width="47.285591"
   height="47.28569"
   version="1.1"
   viewBox="0 0 12.510734 12.51076"
   id="svg12"
   sodipodi:docname="xmind.svg"
   inkscape:version="1.0.1 (3bc2e813f5, 2020-09-07)">
  <style
     id="style858"></style>
  <metadata
     id="metadata33">
    <rdf:RDF>
      <cc:Work
         rdf:about="">
        <dc:format>image/svg+xml</dc:format>
        <dc:type
           rdf:resource="http://purl.org/dc/dcmitype/StillImage" />
      </cc:Work>
    </rdf:RDF>
  </metadata>
  <defs
     id="defs16">
    <linearGradient
       id="c"
       y1="523.79999"
       x1="403.57001"
       y2="536.79999"
       x2="416.57001"
       gradientUnits="userSpaceOnUse"
       gradientTransform="matrix(0.34526714,0,0,0.34526706,-134.80427,-174.63325)">
      <stop
         stop-color="#292c2f"
         id="stop1568" />
      <stop
         offset="1"
         stop-opacity="0"
         id="stop1570" />
    </linearGradient>
    <linearGradient
       xlink:href="#b-2"
       id="linearGradient4189"
       x1="14.369"
       y1="22.521999"
       x2="26.521999"
       y2="22.521999"
       gradientUnits="userSpaceOnUse" />
    <linearGradient
       x1="36"
       gradientUnits="userSpaceOnUse"
       x2="14"
       y2="12"
       y1="44"
       id="b-2">
      <stop
         style="stop-color:#bfc9c9;stop-opacity:1"
         stop-color="#536161"
         id="stop1579" />
      <stop
         style="stop-color:#fbfbfb;stop-opacity:1"
         stop-color="#f4f5f5"
         offset="1"
         id="stop1581" />
    </linearGradient>
    <linearGradient
       xlink:href="#b-2"
       id="linearGradient4428"
       gradientUnits="userSpaceOnUse"
       x1="31.586"
       y1="36.345001"
       x2="1.2029999"
       y2="6.723" />
    <linearGradient
       xlink:href="#b-2"
       id="linearGradient4189-3"
       x1="14.369"
       y1="22.521999"
       x2="26.521999"
       y2="22.521999"
       gradientUnits="userSpaceOnUse"
       gradientTransform="translate(20.841982,61.553822)" />
    <linearGradient
       xlink:href="#b-2"
       id="linearGradient4428-5"
       gradientUnits="userSpaceOnUse"
       x1="31.586"
       y1="36.345001"
       x2="1.2029999"
       y2="6.723"
       gradientTransform="translate(20.841982,61.553822)" />
    <linearGradient
       xlink:href="#b-2"
       id="linearGradient4189-3-3"
       x1="14.369"
       y1="22.521999"
       x2="26.521999"
       y2="22.521999"
       gradientUnits="userSpaceOnUse"
       gradientTransform="translate(4.376802,4.4211693)" />
    <linearGradient
       xlink:href="#b-2"
       id="linearGradient4428-5-5"
       gradientUnits="userSpaceOnUse"
       x1="31.586"
       y1="36.345001"
       x2="1.2029999"
       y2="6.723"
       gradientTransform="translate(4.376802,4.4211693)" />
    <linearGradient
       inkscape:collect="always"
       xlink:href="#linearGradient14"
       id="linearGradient15"
       x1="-9.6850061"
       y1="45.161198"
       x2="11.98815"
       y2="21.735205"
       gradientUnits="userSpaceOnUse"
       gradientTransform="scale(0.26457813)" />
    <linearGradient
       id="linearGradient14"
       inkscape:collect="always">
      <stop
         style="stop-color:#a02c5a;stop-opacity:1"
         offset="0"
         id="stop12" />
      <stop
         style="stop-color:#c83771;stop-opacity:1"
         offset="1"
         id="stop13" />
    </linearGradient>
    <linearGradient
       inkscape:collect="always"
       xlink:href="#linearGradient4168"
       id="linearGradient802"
       gradientUnits="userSpaceOnUse"
       gradientTransform="matrix(0.27780667,0,0,0.27780669,0.74082676,0.74082762)"
       x1="17.197001"
       y1="11.627"
       x2="25.299107"
       y2="26.339453" />
    <linearGradient
       id="linearGradient4168">
      <stop
         style="stop-color:#fcfcfc;stop-opacity:1;"
         offset="0"
         id="stop7" />
      <stop
         style="stop-color:#fbc2bb;stop-opacity:1"
         offset="1"
         id="stop9" />
    </linearGradient>
    <linearGradient
       inkscape:collect="always"
       xlink:href="#linearGradient14"
       id="linearGradient866"
       x1="-12.025727"
       y1="6.1170783"
       x2="-0.085100174"
       y2="6.1170783"
       gradientUnits="userSpaceOnUse" />
  </defs>
  <sodipodi:namedview
     id="namedview14"
     pagecolor="#000000"
     bordercolor="#666666"
     borderopacity="1.0"
     inkscape:showpageshadow="2"
     inkscape:pageopacity="0.0"
     inkscape:pagecheckerboard="0"
     inkscape:deskcolor="#d1d1d1"
     showgrid="false"
     inkscape:zoom="6.2611141"
     inkscape:cx="23.845543"
     inkscape:cy="37.732451"
     inkscape:window-width="1920"
     inkscape:window-height="988"
     inkscape:window-x="0"
     inkscape:window-y="0"
     inkscape:window-maximized="1"
     inkscape:current-layer="svg12"
     inkscape:document-rotation="0">
    <inkscape:grid
       type="xygrid"
       id="grid244"
       originx="9.9594769"
       originy="-31.57929"
       spacingy="1"
       spacingx="1"
       units="px"
       visible="false" />
  </sodipodi:namedview>
  <rect
     x="-12.194976"
     y="0.32004508"
     width="11.940627"
     height="11.936014"
     rx="1.6121091"
     shape-rendering="crispEdges"
     id="rect5-6-7-3"
     ry="1.7735944"
     transform="matrix(0.00523883,-0.99998628,0.999988,0.00489859,0,0)"
     style="fill:#de87aa;fill-opacity:0.15;stroke:url(#linearGradient866);stroke-width:0.5291563;stroke-miterlimit:4;stroke-dasharray:none;stroke-opacity:1" />
  <rect
     x="-3.7202365"
     y="4.8851409"
     width="7.912631"
     height="7.912384"
     rx="1.612043"
     shape-rendering="crispEdges"
     id="rect5-6-6-6-6"
     style="fill:#de87aa;fill-opacity:0.122146;stroke:url(#linearGradient15);stroke-width:0.42332506;stroke-opacity:1;stroke-miterlimit:4;stroke-dasharray:none"
     ry="1.7735215"
     transform="matrix(0.72612649,-0.68756114,0.6879775,0.72573202,0,0)" />
  <path
     style="fill:url(#linearGradient802);fill-opacity:1;stroke-width:0.283953;enable-background:new"
     d="m 5.0066551,4.0066564 c -0.01558,2.237e-4 -0.033168,0.00141 -0.053369,0.00278 -0.076531,0.00481 -1.5207314,0.2733339 -1.6126433,0.2998204 -0.097174,0.027979 -0.180159,0.087105 -0.2004055,0.1431925 -0.034527,0.095315 0.065533,0.4050901 0.1976208,0.6130825 0.5269431,0.6212908 1.1119874,0.7791564 1.6853445,1.1139473 0.065805,0.076588 0.091789,0.1135629 -0.4129844,0.3354722 -0.7889194,0.3468587 -1.0442714,0.6418714 -1.1953694,1.078312 -0.044621,0.1289614 -0.065354,0.4699902 -0.033895,0.5558072 0.040833,0.1112433 0.065445,0.1336386 0.8277028,-0.00994 0.765719,-0.1442213 0.7023989,-0.1526627 0.7662577,-0.212732 0.052011,-0.048928 0.054986,-0.06073 0.077704,-0.2922258 C 5.0657113,7.5015181 5.0927323,7.2424895 5.1125613,7.1738699 5.1585373,7.0145117 5.2741734,6.8480943 5.4001118,6.7600801 5.8777274,6.4263243 6.7766717,6.5927579 7.2631266,7.1049072 7.446425,7.2978814 7.5615262,7.5733292 7.6533837,7.8726174 7.7063857,8.0453063 7.7602118,8.1202827 7.8438002,8.1367922 7.9206982,8.1519442 7.9225882,8.1280622 8.8968804,7.9444014 9.4388412,7.8422303 9.6643879,7.7925407 9.6962741,7.7679024 9.7647861,7.7149224 9.7650491,7.585282 9.6967247,7.3710629 9.5796059,7.0029952 9.3764156,6.758315 9.0000485,6.4752203 8.8138559,6.3351702 8.5787478,6.2027666 8.1806745,6.0135062 7.8020462,5.8334899 7.62172,5.7847863 7.62172,5.7288828 c 0,-0.046223 0.1487049,-0.066824 0.4490441,-0.1560466 0.6580982,-0.1955482 0.975219,-0.469859 0.975219,-0.9777778 0,-0.2228971 -0.042364,-0.4027672 -0.1082523,-0.4611286 -0.087619,-0.077625 -0.2414796,-0.080081 -0.6093944,-0.014016 -1.1793417,0.2117397 -1.0981276,0.203485 -1.1529901,0.291637 -0.029029,0.046625 -0.027763,0.057555 0.025598,0.2694308 0.030557,0.1214663 0.055171,0.2734211 0.054989,0.3086735 -4.507e-4,0.074973 -0.098575,0.2002226 -0.146558,0.2448823 C 6.9919662,5.3437512 6.725828,5.418054 6.4532153,5.418054 6.1234881,5.418054 5.8750561,5.3055154 5.6282911,5.0445936 5.4499813,4.8560587 5.3589521,4.6736131 5.2374751,4.3379121 5.1308018,4.0430704 5.1161714,4.0046394 5.0065396,4.0065309 Z"
     id="path31-7" />
</svg>
