<?xml version="1.0" encoding="UTF-8" standalone="no"?>
<svg
   xmlns:dc="http://purl.org/dc/elements/1.1/"
   xmlns:cc="http://creativecommons.org/ns#"
   xmlns:rdf="http://www.w3.org/1999/02/22-rdf-syntax-ns#"
   xmlns:svg="http://www.w3.org/2000/svg"
   xmlns="http://www.w3.org/2000/svg"
   xmlns:xlink="http://www.w3.org/1999/xlink"
   xmlns:sodipodi="http://sodipodi.sourceforge.net/DTD/sodipodi-0.dtd"
   xmlns:inkscape="http://www.inkscape.org/namespaces/inkscape"
   width="47.285591"
   height="47.28569"
   version="1.1"
   viewBox="0 0 12.510734 12.51076"
   id="svg12"
   sodipodi:docname="preferences-system-services.svg"
   inkscape:version="1.0.1 (3bc2e813f5, 2020-09-07)">
  <style
     id="style860"></style>
  <metadata
     id="metadata35">
    <rdf:RDF>
      <cc:Work
         rdf:about="">
        <dc:format>image/svg+xml</dc:format>
        <dc:type
           rdf:resource="http://purl.org/dc/dcmitype/StillImage" />
      </cc:Work>
    </rdf:RDF>
  </metadata>
  <defs
     id="defs16">
    <linearGradient
       id="c"
       y1="523.79999"
       x1="403.57001"
       y2="536.79999"
       x2="416.57001"
       gradientUnits="userSpaceOnUse"
       gradientTransform="matrix(0.34526714,0,0,0.34526706,-134.80427,-174.63325)">
      <stop
         stop-color="#292c2f"
         id="stop1568" />
      <stop
         offset="1"
         stop-opacity="0"
         id="stop1570" />
    </linearGradient>
    <linearGradient
       xlink:href="#b-2"
       id="linearGradient4189"
       x1="14.369"
       y1="22.521999"
       x2="26.521999"
       y2="22.521999"
       gradientUnits="userSpaceOnUse" />
    <linearGradient
       x1="36"
       gradientUnits="userSpaceOnUse"
       x2="14"
       y2="12"
       y1="44"
       id="b-2">
      <stop
         style="stop-color:#bfc9c9;stop-opacity:1"
         stop-color="#536161"
         id="stop1579" />
      <stop
         style="stop-color:#fbfbfb;stop-opacity:1"
         stop-color="#f4f5f5"
         offset="1"
         id="stop1581" />
    </linearGradient>
    <linearGradient
       xlink:href="#b-2"
       id="linearGradient4428"
       gradientUnits="userSpaceOnUse"
       x1="31.586"
       y1="36.345001"
       x2="1.2029999"
       y2="6.723" />
    <linearGradient
       xlink:href="#b-2"
       id="linearGradient4189-3"
       x1="14.369"
       y1="22.521999"
       x2="26.521999"
       y2="22.521999"
       gradientUnits="userSpaceOnUse"
       gradientTransform="translate(20.841982,61.553822)" />
    <linearGradient
       xlink:href="#b-2"
       id="linearGradient4428-5"
       gradientUnits="userSpaceOnUse"
       x1="31.586"
       y1="36.345001"
       x2="1.2029999"
       y2="6.723"
       gradientTransform="translate(20.841982,61.553822)" />
    <linearGradient
       xlink:href="#b-2"
       id="linearGradient4189-3-3"
       x1="14.369"
       y1="22.521999"
       x2="26.521999"
       y2="22.521999"
       gradientUnits="userSpaceOnUse"
       gradientTransform="translate(4.376802,4.4211693)" />
    <linearGradient
       xlink:href="#b-2"
       id="linearGradient4428-5-5"
       gradientUnits="userSpaceOnUse"
       x1="31.586"
       y1="36.345001"
       x2="1.2029999"
       y2="6.723"
       gradientTransform="translate(4.376802,4.4211693)" />
    <linearGradient
       inkscape:collect="always"
       xlink:href="#linearGradient14"
       id="linearGradient15"
       x1="-9.6850061"
       y1="45.161198"
       x2="11.98815"
       y2="21.735205"
       gradientUnits="userSpaceOnUse"
       gradientTransform="scale(0.26457813)" />
    <linearGradient
       id="linearGradient14"
       inkscape:collect="always">
      <stop
         style="stop-color:#9955ff;stop-opacity:0.45197046;"
         offset="0"
         id="stop12" />
      <stop
         style="stop-color:#00ccff;stop-opacity:1"
         offset="1"
         id="stop13" />
    </linearGradient>
    <linearGradient
       inkscape:collect="always"
       xlink:href="#linearGradient14"
       id="linearGradient868"
       x1="-12.025727"
       y1="6.1170783"
       x2="-0.085100174"
       y2="6.1170783"
       gradientUnits="userSpaceOnUse" />
  </defs>
  <sodipodi:namedview
     id="namedview14"
     pagecolor="#000000"
     bordercolor="#666666"
     borderopacity="1.0"
     inkscape:showpageshadow="2"
     inkscape:pageopacity="0.0"
     inkscape:pagecheckerboard="0"
     inkscape:deskcolor="#d1d1d1"
     showgrid="false"
     inkscape:zoom="6.2611141"
     inkscape:cx="23.845543"
     inkscape:cy="56.898369"
     inkscape:window-width="1920"
     inkscape:window-height="988"
     inkscape:window-x="0"
     inkscape:window-y="0"
     inkscape:window-maximized="1"
     inkscape:current-layer="svg12"
     inkscape:document-rotation="0">
    <inkscape:grid
       type="xygrid"
       id="grid244"
       originx="9.9594769"
       originy="-31.57929"
       spacingy="1"
       spacingx="1"
       units="px"
       visible="false" />
  </sodipodi:namedview>
  <rect
     x="-12.194976"
     y="0.32004508"
     width="11.940627"
     height="11.936014"
     rx="1.6121091"
     shape-rendering="crispEdges"
     id="rect5-6-7-3"
     ry="1.7735944"
     transform="matrix(0.00523883,-0.99998628,0.999988,0.00489859,0,0)"
     style="fill:#80b3ff;fill-opacity:0.15;stroke:url(#linearGradient868);stroke-width:0.529156;stroke-miterlimit:4;stroke-dasharray:none;stroke-opacity:1" />
  <rect
     x="-3.7202365"
     y="4.8851409"
     width="7.912631"
     height="7.912384"
     rx="1.612043"
     shape-rendering="crispEdges"
     id="rect5-6-6-6-6"
     style="fill:#80b3ff;fill-opacity:0.122146;stroke:url(#linearGradient15);stroke-width:0.396867;stroke-miterlimit:4;stroke-dasharray:none;stroke-opacity:1"
     ry="1.7735215"
     transform="matrix(0.72612649,-0.68756114,0.6879775,0.72573202,0,0)" />
  <path
     id="rect1045-9"
     d="M 4.4033351,5.6270152 V 5.9908096 H 5.4857002 V 5.6270152 Z m 1.4431538,0 V 5.9908096 H 6.5680654 V 5.6270152 Z m 1.0823649,0 V 5.9908096 H 8.3720071 V 5.6270152 Z M 4.4033351,6.3546024 V 6.7183953 H 4.7641237 V 6.3546024 Z m 0.721577,0 V 6.7183953 H 6.2072775 V 6.3546024 Z m 1.4431533,0 V 6.7183953 H 8.0112188 V 6.3546024 Z M 4.4033351,7.0821886 v 0.363793 h 2.1647303 v -0.363793 z m 2.5255187,0 v 0.363793 h 0.3607881 v -0.363793 z m 0.7215769,0 v 0.363793 H 8.3720071 V 7.0821886 Z M 4.4033351,7.8097742 v 0.363793 h 1.0823651 v -0.363793 z m 1.4431538,0 v 0.363793 h 1.0823649 v -0.363793 z m 1.443153,0 v 0.363793 H 8.3720071 V 7.8097742 Z M 4.4033351,8.5373617 v 0.363793 h 0.3607886 v -0.363793 z m 0.721577,0 v 0.363793 h 2.5255186 v -0.363793 z m 2.8863067,0 v 0.363793 h 0.3607883 v -0.363793 z"
     style="fill:#80b3ff;fill-opacity:1;stroke:none;stroke-width:2.11663;stroke-linecap:round;stroke-linejoin:round;stroke-miterlimit:4;stroke-dasharray:none;stroke-dashoffset:0;stroke-opacity:1"
     inkscape:connector-curvature="0"
     sodipodi:nodetypes="ccccccccccccccccccccccccccccccccccccccccccccccccccccccccccccccccccccccccccc" />
  <g
     transform="matrix(0.36078836,0,0,0.36379319,13.783845,-101.56467)"
     inkscape:label="Capa 1"
     id="layer1-62"
     style="fill:#80b3ff;stroke-width:0.730297">
    <path
       id="rect1017"
       d="m -25,287.64999 v 1 h -1 v 1 h 1 v 1 h -1 v 1 h 1 v 1 h 1 v -1 h 1 v 1 h 1 v -1 h 1 v -1 h -1 v -1 h 1 v -1 h -1 v -1 h -1 v 1 h -1 v -1 z m 1,2 h 1 v 1 h -1 z"
       style="opacity:1;fill:#80b3ff;fill-opacity:1;stroke:none;stroke-width:4.38182;stroke-linecap:round;stroke-linejoin:round;stroke-miterlimit:4;stroke-dasharray:none;stroke-dashoffset:0;stroke-opacity:1;paint-order:stroke markers fill"
       inkscape:connector-curvature="0" />
  </g>
  <path
     id="rect1584-0"
     d="m 10.409255,9.9594736 c 0.307809,0 0.555613,0.2478034 0.555613,0.5556134 0,0.307809 -0.247804,0.555613 -0.555613,0.555613 -0.307809,0 -0.5556128,-0.247804 -0.5556128,-0.555613 0,-0.30781 0.2478038,-0.5556134 0.5556128,-0.5556134 z"
     style="fill:#80b3ff;fill-opacity:1;stroke:none;stroke-width:0.529157;stroke-linecap:round;stroke-linejoin:round;stroke-miterlimit:4;stroke-dasharray:none;stroke-opacity:1;paint-order:stroke markers fill"
     inkscape:connector-curvature="0" />
  <path
     id="rect1586-9"
     d="m 10.409255,10.329882 c 0.102575,0 0.185204,0.08262 0.185204,0.185205 0,0.102575 -0.08262,0.185203 -0.185204,0.185203 -0.102574,0 -0.185206,-0.08262 -0.185206,-0.185203 0,-0.102574 0.08262,-0.185205 0.185206,-0.185205 z"
     style="fill:#000000;fill-opacity:1;stroke:none;stroke-width:0.529157;stroke-linecap:round;stroke-linejoin:round;stroke-miterlimit:4;stroke-dasharray:none;stroke-opacity:1;paint-order:stroke markers fill"
     inkscape:connector-curvature="0" />
  <path
     id="rect1584-6-3"
     d="m 8.9276208,9.9594736 c 0.3078098,0 0.5556135,0.2478034 0.5556135,0.5556134 0,0.307809 -0.2478037,0.555613 -0.5556135,0.555613 -0.3078098,0 -0.5556137,-0.247804 -0.5556137,-0.555613 0,-0.30781 0.2478039,-0.5556134 0.5556137,-0.5556134 z"
     style="fill:#80b3ff;fill-opacity:1;stroke:none;stroke-width:0.529157;stroke-linecap:round;stroke-linejoin:round;stroke-miterlimit:4;stroke-dasharray:none;stroke-opacity:1;paint-order:stroke markers fill"
     inkscape:connector-curvature="0" />
  <path
     id="rect1586-7-6"
     d="m 8.9276208,10.329882 c 0.1026039,0 0.1852043,0.08262 0.1852043,0.185205 0,0.102575 -0.082605,0.185203 -0.1852043,0.185203 -0.1026039,0 -0.1852047,-0.08262 -0.1852047,-0.185203 0,-0.102574 0.082604,-0.185205 0.1852047,-0.185205 z"
     style="fill:#000000;fill-opacity:1;stroke:none;stroke-width:0.529157;stroke-linecap:round;stroke-linejoin:round;stroke-miterlimit:4;stroke-dasharray:none;stroke-opacity:1;paint-order:stroke markers fill"
     inkscape:connector-curvature="0" />
</svg>
