<?xml version="1.0" encoding="UTF-8" standalone="no"?>
<svg
   xmlns:dc="http://purl.org/dc/elements/1.1/"
   xmlns:cc="http://creativecommons.org/ns#"
   xmlns:rdf="http://www.w3.org/1999/02/22-rdf-syntax-ns#"
   xmlns:svg="http://www.w3.org/2000/svg"
   xmlns="http://www.w3.org/2000/svg"
   xmlns:xlink="http://www.w3.org/1999/xlink"
   xmlns:sodipodi="http://sodipodi.sourceforge.net/DTD/sodipodi-0.dtd"
   xmlns:inkscape="http://www.inkscape.org/namespaces/inkscape"
   width="47.285591"
   height="47.28569"
   version="1.1"
   viewBox="0 0 12.510734 12.51076"
   id="svg12"
   sodipodi:docname="preferences-system-network-proxy.svg"
   inkscape:version="1.0.1 (3bc2e813f5, 2020-09-07)">
  <style
     id="style882"></style>
  <metadata
     id="metadata57">
    <rdf:RDF>
      <cc:Work
         rdf:about="">
        <dc:format>image/svg+xml</dc:format>
        <dc:type
           rdf:resource="http://purl.org/dc/dcmitype/StillImage" />
      </cc:Work>
    </rdf:RDF>
  </metadata>
  <defs
     id="defs16">
    <linearGradient
       id="linearGradient896"
       inkscape:collect="always">
      <stop
         style="stop-color:#5599ff;stop-opacity:0.45877379"
         offset="0"
         id="stop892" />
      <stop
         style="stop-color:#2a7fff;stop-opacity:1"
         offset="1"
         id="stop894" />
    </linearGradient>
    <linearGradient
       id="linearGradient3"
       inkscape:collect="always">
      <stop
         style="stop-color:#5599ff;stop-opacity:0.03538813"
         offset="0"
         id="stop2" />
      <stop
         style="stop-color:#2a7fff;stop-opacity:1"
         offset="1"
         id="stop3" />
    </linearGradient>
    <linearGradient
       id="c"
       y1="523.79999"
       x1="403.57001"
       y2="536.79999"
       x2="416.57001"
       gradientUnits="userSpaceOnUse"
       gradientTransform="matrix(0.34526714,0,0,0.34526706,-134.80427,-174.63325)">
      <stop
         stop-color="#292c2f"
         id="stop1568" />
      <stop
         offset="1"
         stop-opacity="0"
         id="stop1570" />
    </linearGradient>
    <linearGradient
       xlink:href="#b-2"
       id="linearGradient4189"
       x1="14.369"
       y1="22.521999"
       x2="26.521999"
       y2="22.521999"
       gradientUnits="userSpaceOnUse" />
    <linearGradient
       x1="36"
       gradientUnits="userSpaceOnUse"
       x2="14"
       y2="12"
       y1="44"
       id="b-2">
      <stop
         style="stop-color:#bfc9c9;stop-opacity:1"
         stop-color="#536161"
         id="stop1579" />
      <stop
         style="stop-color:#fbfbfb;stop-opacity:1"
         stop-color="#f4f5f5"
         offset="1"
         id="stop1581" />
    </linearGradient>
    <linearGradient
       xlink:href="#b-2"
       id="linearGradient4428"
       gradientUnits="userSpaceOnUse"
       x1="31.586"
       y1="36.345001"
       x2="1.2029999"
       y2="6.723" />
    <linearGradient
       xlink:href="#b-2"
       id="linearGradient4189-3"
       x1="14.369"
       y1="22.521999"
       x2="26.521999"
       y2="22.521999"
       gradientUnits="userSpaceOnUse"
       gradientTransform="translate(20.841982,61.553822)" />
    <linearGradient
       xlink:href="#b-2"
       id="linearGradient4428-5"
       gradientUnits="userSpaceOnUse"
       x1="31.586"
       y1="36.345001"
       x2="1.2029999"
       y2="6.723"
       gradientTransform="translate(20.841982,61.553822)" />
    <linearGradient
       xlink:href="#b-2"
       id="linearGradient4189-3-3"
       x1="14.369"
       y1="22.521999"
       x2="26.521999"
       y2="22.521999"
       gradientUnits="userSpaceOnUse"
       gradientTransform="translate(4.376802,4.4211693)" />
    <linearGradient
       xlink:href="#b-2"
       id="linearGradient4428-5-5"
       gradientUnits="userSpaceOnUse"
       x1="31.586"
       y1="36.345001"
       x2="1.2029999"
       y2="6.723"
       gradientTransform="translate(4.376802,4.4211693)" />
    <filter
       id="d-7"
       x="-0.035999998"
       y="-0.036000062"
       width="1.072"
       height="1.0720001"
       color-interpolation-filters="sRGB">
      <feGaussianBlur
         stdDeviation="9"
         id="feGaussianBlur238-5" />
    </filter>
    <linearGradient
       id="paint1_linear_41_121"
       x1="11.9599"
       y1="21"
       x2="11.9599"
       y2="3"
       gradientUnits="userSpaceOnUse"
       gradientTransform="scale(0.26457819)">
      <stop
         stop-color="#FD4C00"
         id="stop5" />
      <stop
         offset="1"
         stop-color="#FFB800"
         id="stop6" />
    </linearGradient>
    <linearGradient
       inkscape:collect="always"
       xlink:href="#linearGradient3"
       id="linearGradient2"
       x1="-3.273953"
       y1="11.98641"
       x2="3.6839044"
       y2="5.2674623"
       gradientUnits="userSpaceOnUse" />
    <linearGradient
       id="a-1-2-2"
       y1="510.79999"
       y2="527.14001"
       gradientUnits="userSpaceOnUse"
       x2="0"
       gradientTransform="matrix(1.2378066,0,0,1.231,-93.270747,-117.26405)">
      <stop
         stop-color="#7cbaf8"
         id="stop2-2-7-7" />
      <stop
         offset="1"
         stop-color="#f4fcff"
         id="stop4-70-0-0" />
    </linearGradient>
    <linearGradient
       id="c-93"
       y1="503.79999"
       x1="400.57001"
       y2="519.79999"
       x2="416.57001"
       gradientUnits="userSpaceOnUse"
       gradientTransform="matrix(1.2378066,0,0,1.231,-89.070362,-114.83858)">
      <stop
         stop-color="#292c2f"
         id="stop12-6" />
      <stop
         offset="1"
         stop-opacity="0"
         id="stop14-0" />
    </linearGradient>
    <linearGradient
       id="b-6"
       y1="542.79999"
       x1="408.57001"
       y2="521.79999"
       x2="387.57001"
       gradientUnits="userSpaceOnUse"
       gradientTransform="matrix(1.2378066,0,0,1.231,-473.64035,-614.6386)">
      <stop
         stop-color="#197cf1"
         id="stop7-2" />
      <stop
         offset="1"
         stop-color="#20bcfa"
         id="stop9-6" />
    </linearGradient>
    <linearGradient
       id="linearGradient1"
       inkscape:collect="always">
      <stop
         style="stop-color:#ffcc00;stop-opacity:1"
         offset="0"
         id="stop1" />
      <stop
         style="stop-color:#ff00ff;stop-opacity:1"
         offset="1"
         id="stop5-3" />
    </linearGradient>
    <linearGradient
       inkscape:collect="always"
       xlink:href="#linearGradient1"
       id="linearGradient9"
       gradientUnits="userSpaceOnUse"
       x1="10"
       y1="187.5005"
       x2="365"
       y2="187.5005" />
    <linearGradient
       inkscape:collect="always"
       xlink:href="#linearGradient896"
       id="linearGradient890"
       x1="-12.025727"
       y1="6.1170783"
       x2="-0.085100174"
       y2="6.1170783"
       gradientUnits="userSpaceOnUse" />
  </defs>
  <sodipodi:namedview
     id="namedview14"
     pagecolor="#000000"
     bordercolor="#666666"
     borderopacity="1.0"
     inkscape:showpageshadow="2"
     inkscape:pageopacity="0.0"
     inkscape:pagecheckerboard="0"
     inkscape:deskcolor="#d1d1d1"
     showgrid="false"
     inkscape:zoom="8.8545525"
     inkscape:cx="9.0792616"
     inkscape:cy="31.072548"
     inkscape:window-width="1920"
     inkscape:window-height="988"
     inkscape:window-x="0"
     inkscape:window-y="0"
     inkscape:window-maximized="1"
     inkscape:current-layer="svg12"
     inkscape:document-rotation="0">
    <inkscape:grid
       type="xygrid"
       id="grid244"
       originx="9.9594769"
       originy="-31.57929"
       spacingy="1"
       spacingx="1"
       units="px"
       visible="false" />
  </sodipodi:namedview>
  <rect
     x="-12.194976"
     y="0.32004508"
     width="11.940627"
     height="11.936014"
     rx="1.6121091"
     shape-rendering="crispEdges"
     id="rect5-6-7-3"
     ry="1.7735944"
     transform="matrix(0.00523883,-0.99998628,0.999988,0.00489859,0,0)"
     style="fill:#80b3ff;fill-opacity:0.13;stroke:url(#linearGradient890);stroke-width:0.529156;stroke-miterlimit:4;stroke-dasharray:none;stroke-opacity:1" />
  <rect
     x="-3.7202365"
     y="4.8851409"
     width="7.912631"
     height="7.912384"
     rx="1.612043"
     shape-rendering="crispEdges"
     id="rect5-6-6-6-6"
     style="fill:#5599ff;fill-opacity:0.1;stroke:url(#linearGradient2);stroke-width:0.396867;stroke-miterlimit:4;stroke-dasharray:none;stroke-opacity:1"
     ry="1.7735215"
     transform="matrix(0.72612649,-0.68756114,0.6879775,0.72573202,0,0)" />
  <g
     id="g5"
     transform="matrix(0.10882391,0,0,0.10882391,3.5602726,3.5423341)"
     style="fill:#aaccff;stroke-width:40">
    <g
       id="g4"
       style="fill:#aaccff;stroke-width:40">
      <polygon
         points="34.578,10.259 34.93,10.5 35.432,10.815 35.479,11.176 34.938,11.288 34.866,12.057 35.514,12.057 36.376,11.974 36.821,11.445 36.348,11.261 36.089,10.963 35.7,10.333 35.514,9.442 34.783,9.591 34.578,9.905 "
         id="polygon1"
         style="fill:#aaccff;stroke-width:40" />
      <polygon
         points="33.893,11.76 34.809,11.111 34.848,10.629 34.419,10.444 33.819,10.583 33.374,11.297 33.374,11.76 "
         id="polygon2"
         style="fill:#aaccff;stroke-width:40" />
      <path
         d="m 22.459,13.158 -0.132,0.34 h -0.639 v 0.33 h 0.152 c 0,0 0.009,0.07 0.022,0.162 l 0.392,-0.033 0.245,-0.152 0.064,-0.307 0.317,-0.027 0.125,-0.258 -0.291,-0.06 z"
         id="path2"
         style="fill:#aaccff;stroke-width:40" />
      <polygon
         points="21.298,13.717 21.02,13.498 20.812,13.757 20.787,14.08 21.25,14.041 "
         id="polygon3"
         style="fill:#aaccff;stroke-width:40" />
      <path
         d="m 51.048648,22.091795 c -0.0076,-0.7821 -0.0473,-1.5587 -0.121,-2.3232 -0.2475,-2.548699 -0.8569,-4.9918 -1.769901,-7.282001 -0.0682,-0.1705 -0.1309,-0.3432 -0.2035,-0.5115 -1.216599,-2.874302 -2.924899,-5.491202 -5.015999,-7.7495008 -0.1375,-0.1474 -0.2772,-0.2926 -0.4169,-0.4356 -0.3949,-0.4102999 -0.800799,-0.8106998 -1.220999,-1.1945998 -4.754202,-4.3285 -11.068204,-6.9707002 -17.989401,-6.9707002 -6.979499,0 -13.338602,2.6895002 -18.1060009,7.0840002 -1.1109998,1.0240999 -2.1317999,2.1417 -3.0579998,3.3384986 -3.49359985,4.518802 -5.5792,10.179404 -5.5792,16.320703 0,14.747701 11.9976977,26.7443 26.7443007,26.7443 10.372998,0 19.3787,-5.94 23.811699,-14.594801 0.9482,-1.850201 1.686301,-3.822502 2.183501,-5.889402 0.1265,-0.524699 0.2354,-1.051599 0.33,-1.585099 0.2695,-1.5191 0.4169,-3.081099 0.4169,-4.674998 0.001,-0.0924 -0.004,-0.1837 -0.005,-0.2761 z m -5.0336,-10.688701 0.1551,-0.1738 c 0.2035,0.3949 0.3938,0.7964 0.5753,1.2034 l -0.253,-0.0095 -0.4774,0.066 z m -3.864299,-4.666203 0.004,-1.1945975 c 0.4202,0.4454985 0.825,0.9041985 1.2122,1.3793975 l -0.4818,0.7172 -1.684099,-0.0154 -0.1056,-0.3509 z M 9.889945,3.7679932 v -0.0451 h 0.535701 l 0.0462,-0.1837 h 0.876702 v 0.3827999 l -0.251902,0.3366 H 9.888845 Z m 0.855801,1.1935002 c 0,0 0.5357,-0.0913 0.581902,-0.0913 0.0462,0 0,0.5346002 0,0.5346002 l -1.207803,0.0759 -0.2299,-0.2750002 z M 47.718948,15.577595 h -1.9569 l -1.1924,-0.8877 -1.2551,0.1221 v 0.7656 h -0.397099 l -0.429,-0.3058 -2.1736,-0.5511 v -1.408 l -2.754402,0.2145 -0.8536,0.4587 h -1.0934 l -0.5357,-0.05387 -1.327701,0.737 v 1.387101 l -2.713701,1.958001 0.2255,0.836 h 0.55 l -0.1441,0.796393 -0.3872,0.1419 -0.02088,2.081201 2.345201,2.670799 h 1.0208 l 0.0616,-0.1628 h 1.8348 l 0.529106,-0.489505 h 1.0406 l 0.570901,0.572 1.551,0.1606 -0.2057,2.0625 1.7215,3.039298 -0.9064,1.732501 0.0616,0.8162 0.7139,0.7117 v 1.962401 l 0.9372,1.2606 v 1.630206 h 0.8096 c -4.505609,5.531894 -11.363012,9.074995 -19.03551,9.074995 -13.532207,10e-4 -24.54210555,-11.009912 -24.54210555,-24.543211 0,-3.4067 0.69959983,-6.653899 1.95910015,-9.605201 v -0.7656 l 0.8777949,-1.065905 c 0.3047,-0.5753 0.6313998,-1.1363 0.9800998,-1.683002 l 0.0396,0.445502 -1.0185998,1.2375 c -0.3157,0.5962 -0.6104999,1.2056 -0.8777999,1.8315 V 14.1597 l 1.0196999,0.4906 v 1.941501 l 0.9778998,1.668699 0.7953,0.1221 0.1023,-0.571999 -0.9383,-1.4476 -0.1837,-1.406901 h 0.5499999 l 0.2321,1.447601 1.3563,1.978899 -0.3498,0.6391 0.8623999,1.3189 2.1416989,0.5302 v -0.3465 l 0.856899,0.1221 -0.0814,0.6116 0.6732,0.1232 1.039501,0.2838 1.468502,1.673099 1.8755,0.1419 0.1837,1.5301 -1.2837,0.897599 -0.0605,1.3662 -0.1837,0.836 1.856801,2.324299 0.1419,0.7964 c 0,0 0.6732,0.182601 0.7557,0.182601 0.0814,0 1.5092,1.0813 1.5092,1.0813 v 4.200896 l 0.5093,0.143 -0.3465,1.938202 0.8569,1.1429 -0.1584,1.920599 1.1319,1.9899 1.4531,1.2694 1.460799,0.0264 0.143,-0.4697 -1.073599,-0.9042 0.0616,-0.4488 0.192499,-0.55 0.04068,-0.561 -0.726,-0.022 -0.3663,-0.4598 0.6028,-0.5797 0.0814,-0.437799 -0.6732,-0.1925 0.0396,-0.407 0.9592,-0.1452 1.4586,-0.7007 0.489499,-0.8976 1.530099,-1.958002 -0.347599,-1.5312 0.469699,-0.8151 1.4069,0.0429 0.9471,-0.7502 0.3058,-2.954601 1.0505,-1.334298 0.1837,-0.8569 -0.9581,-0.3069 -0.6325,-1.0373 -2.1615,-0.022 -1.713799,-0.6534 -0.0814,-1.2221 -0.571999,-0.9999 -1.5499,-0.02307 -0.8954,-1.4058 -0.795299,-0.3883 -0.04075,0.429 -1.447598,0.0858 -0.53018,-0.73811 -1.5103,-0.3069 -1.2441,1.4377 -1.958001,-0.3322 -0.1419,-2.2066 -1.428899,-0.2442 0.5731,-1.0824 -0.1639,-0.6215 -1.8777,1.2551 -1.1814,-0.1441 -0.4213,-0.9229 0.2574,-0.951499 0.6512,-1.2001 1.4993,-0.759001 2.895199,-0.001 -0.0075,0.883301 1.040599,0.484 -0.08254,-1.509201 0.7502,-0.7546 1.5136,-0.994399 0.1034,-0.6996 1.5092,-1.570799 1.6049,-0.8888 -0.1419,-0.1166 1.0868,-1.023 0.3982,0.1056 0.1826,0.2288 0.412501,-0.4576 0.1012,-0.04507 -0.452101,-0.0638 -0.4587,-0.1529 v -0.44 l 0.2431,-0.1991 h 0.535701 l 0.2453,0.1078 0.2123,0.429 0.2596,-0.0396 v -0.03742 l 0.0748,0.02532 0.752398,-0.115499 0.106734,-0.3674 0.429,0.1078 v 0.398199 l -0.3982,0.2739 h 10e-4 l 0.05832,0.4367 1.3629,0.4202 c 0,0 0.001,0.005 0.003,0.01652 l 0.3135,-0.0264 0.02088,-0.590701 -1.0802,-0.4917 -0.0616,-0.2838 0.8965,-0.3058 0.0396,-0.858 -0.937217,-0.57091 -0.0616,-1.4465017 -1.2848,0.6313997 h -0.4686 L 22.24488,5.2289542 20.495881,4.8164544 19.772083,5.3631542 V 7.030744 l -1.3013,0.4125 -0.5214,1.0868 -0.5654,0.09131 v -1.3904 l -1.2232,-0.1694 -0.6116,-0.3982 -0.2464,-0.9009007 2.1879,-1.2804001 1.0703,-0.3256 0.1078,0.7194 0.5962,-0.0308 0.0462,-0.3619 0.6237,-0.089095 0.011,-0.1264998 -0.2684,-0.1111 -0.0616,-0.3827999 0.766698,-0.0649 0.4631,-0.4818002 0.02531,-0.0352 0.005,0.0022 0.1408,-0.1452 1.611501,-0.2034999 0.712799,0.605 -1.8689,0.9954998 2.3782,0.5610001 0.308,-0.7952999 h 1.039499 l 0.367401,-0.693 -0.734801,-0.1837 V 2.4579097 l -2.304477,-1.0208 -1.590599,0.1837 -0.8976,0.4697001 0.0616,1.1417999 -0.938299,-0.1430001 -0.1441,-0.6313999 0.8987,-0.8162 -1.6313,-0.0814 -0.4686,0.1419001 -0.2035,0.5500001 0.6116,0.1034 -0.1221,0.6115998 -1.0395,0.0616 -0.162801,0.4070001 -1.508101,0.0418 c 0,0 -0.0418,-0.8558 -0.102289,-0.8558 -0.0605,0 1.1825,-0.0209 1.1825,-0.0209 l 0.899051,-0.8778 -0.4906,-0.2453001 -0.6523,0.6336001 -1.0824,-0.0616 -0.6523,-0.8976002 h -1.3871 l -1.4476,1.0813002 h 1.3266 l 0.121,0.3882999 -0.3443,0.3200999 1.4685,0.0407 0.2244,0.5302001 -1.6533,-0.0616 -0.08032,-0.4081001 -1.0395,-0.2244 -0.5511,-0.3057999 -1.2375,0.00986 c 4.051338,-2.95130536 9.033237,-4.6981055 14.417736,-4.6981055 6.206199,0 11.8767,2.31990016 16.203001,6.1314001 l -0.2915,0.5213999 -1.1319,0.4433001 -0.477401,0.5181001 0.11,0.6038976 0.584101,0.0814 0.352,0.879999 1.0076,-0.4059 0.1661,1.177 h -0.3036 l -0.8272,-0.1221 -0.917401,0.154 -0.8877,1.254 -1.2694,0.1991 -0.1837,1.086801 0.5357,0.1265 -0.1551,0.6985 -1.2606,-0.253 -1.1561,0.253 -0.2453,0.6435 0.2002,1.350801 0.6787,0.3179 1.1385,-0.0065 0.7689,-0.06933 0.2343,-0.6116 1.2012,-1.5609 0.790901,0.1617 0.7788,-0.704 0.1452,0.55 1.9162,1.2925 -0.2343,0.3146 -0.8635,-0.0462 0.3322,0.4708 0.5313,0.1166 0.6226,-0.2596 -0.0132,-0.7502 0.2761,-0.1386 -0.2222,-0.2354 -1.2782,-0.7128 -0.3366,-0.9471 h 1.0626 l 0.3399,0.3366 0.9152,0.7887 0.03851,0.9537 0.9482,1.0098 0.3531,-1.3838 0.6567,-0.3586 0.1232,1.1319 0.6413,0.704 1.279301,-0.022 c 0.2475,0.6369 0.4697,1.2848 0.6644,1.9459 z m -35.5641,-7.802304 0.6424,-0.3058 0.5808,0.1386 -0.2002,0.779901 -0.627,0.1991 z m 3.408901,1.835903 v 0.5049 h -1.467401 l -0.55,-0.1529 0.1375,-0.352 0.7051,-0.291502 h 0.963601 v 0.291502 z m 0.6754,0.704 v 0.4895 l -0.3674,0.2365 -0.4576,0.08469 c 0,0 0,-0.733702 0,-0.810702 z m -0.4136,-0.1991 v -0.5819 l 0.5049,0.4598 z m 0.2299,1.177 v 0.4763 l -0.3509,0.352 h -0.7799 l 0.1221,-0.5346 0.3685,-0.03186 0.07589,-0.1837 z m -1.942601,-0.9779 h 0.810701 l -1.039501,1.4531 -0.429,-0.2299 0.0924,-0.6116 z m 3.319801,0.8107 v 0.4752 h -0.7799 l -0.2134,-0.308 v -0.4422 h 0.0616 z m -0.7205,-0.6534 0.2222,-0.2332 0.3751,0.2332 -0.3003,0.2475 z m 31.404998,6.343702 0.077,-0.0902 c 0.03188,0.1386 0.066,0.2772 0.0968,0.418 z"
         id="path3"
         style="fill:#aaccff;stroke-width:40" />
      <path
         d="M 3.782,14.884 V 15.58 C 4.025,15.012 4.293,14.458 4.58,13.915 Z"
         id="path4"
         style="fill:#aaccff;stroke-width:40" />
    </g>
  </g>
  <g
     id="g1"
     transform="matrix(0.24997505,-0.01174883,0.01174883,0.24997505,-0.76303739,3.5787117)"
     style="fill:#5599ff;stroke-width:1.05726">
    <text
       xml:space="preserve"
       style="font-style:italic;font-variant:normal;font-weight:normal;font-stretch:normal;font-size:12.4444px;line-height:1.25;font-family:sans-serif;-inkscape-font-specification:'sans-serif Italic';fill:#5599ff;fill-opacity:1;stroke:none;stroke-width:2.46692"
       x="12.141157"
       y="31.083721"
       id="text934-9"><tspan
         sodipodi:role="line"
         id="tspan932-1"
         x="12.141157"
         y="31.083721"
         style="fill:#5599ff;stroke-width:2.46692">Proxy</tspan></text>
  </g>
</svg>
