<?xml version="1.0" encoding="UTF-8" standalone="no"?>
<svg
   xmlns:dc="http://purl.org/dc/elements/1.1/"
   xmlns:cc="http://creativecommons.org/ns#"
   xmlns:rdf="http://www.w3.org/1999/02/22-rdf-syntax-ns#"
   xmlns:svg="http://www.w3.org/2000/svg"
   xmlns="http://www.w3.org/2000/svg"
   xmlns:xlink="http://www.w3.org/1999/xlink"
   xmlns:sodipodi="http://sodipodi.sourceforge.net/DTD/sodipodi-0.dtd"
   xmlns:inkscape="http://www.inkscape.org/namespaces/inkscape"
   width="47.285591"
   height="47.28569"
   version="1.1"
   viewBox="0 0 12.510734 12.51076"
   id="svg12"
   sodipodi:docname="preferences-system-network-ntp.svg"
   inkscape:version="1.0.1 (3bc2e813f5, 2020-09-07)">
  <style
     id="style890"></style>
  <metadata
     id="metadata65">
    <rdf:RDF>
      <cc:Work
         rdf:about="">
        <dc:format>image/svg+xml</dc:format>
        <dc:type
           rdf:resource="http://purl.org/dc/dcmitype/StillImage" />
      </cc:Work>
    </rdf:RDF>
  </metadata>
  <defs
     id="defs16">
    <linearGradient
       id="linearGradient904"
       inkscape:collect="always">
      <stop
         style="stop-color:#5599ff;stop-opacity:0.56140351"
         offset="0"
         id="stop900" />
      <stop
         style="stop-color:#2a7fff;stop-opacity:1"
         offset="1"
         id="stop902" />
    </linearGradient>
    <linearGradient
       id="linearGradient3"
       inkscape:collect="always">
      <stop
         style="stop-color:#5599ff;stop-opacity:0.44999999"
         offset="0"
         id="stop2" />
      <stop
         style="stop-color:#2a7fff;stop-opacity:1"
         offset="1"
         id="stop3" />
    </linearGradient>
    <linearGradient
       id="c"
       y1="523.79999"
       x1="403.57001"
       y2="536.79999"
       x2="416.57001"
       gradientUnits="userSpaceOnUse"
       gradientTransform="matrix(0.34526714,0,0,0.34526706,-134.80427,-174.63325)">
      <stop
         stop-color="#292c2f"
         id="stop1568" />
      <stop
         offset="1"
         stop-opacity="0"
         id="stop1570" />
    </linearGradient>
    <linearGradient
       xlink:href="#b-2"
       id="linearGradient4189"
       x1="14.369"
       y1="22.521999"
       x2="26.521999"
       y2="22.521999"
       gradientUnits="userSpaceOnUse" />
    <linearGradient
       x1="36"
       gradientUnits="userSpaceOnUse"
       x2="14"
       y2="12"
       y1="44"
       id="b-2">
      <stop
         style="stop-color:#bfc9c9;stop-opacity:1"
         stop-color="#536161"
         id="stop1579" />
      <stop
         style="stop-color:#fbfbfb;stop-opacity:1"
         stop-color="#f4f5f5"
         offset="1"
         id="stop1581" />
    </linearGradient>
    <linearGradient
       xlink:href="#b-2"
       id="linearGradient4428"
       gradientUnits="userSpaceOnUse"
       x1="31.586"
       y1="36.345001"
       x2="1.2029999"
       y2="6.723" />
    <linearGradient
       xlink:href="#b-2"
       id="linearGradient4189-3"
       x1="14.369"
       y1="22.521999"
       x2="26.521999"
       y2="22.521999"
       gradientUnits="userSpaceOnUse"
       gradientTransform="translate(20.841982,61.553822)" />
    <linearGradient
       xlink:href="#b-2"
       id="linearGradient4428-5"
       gradientUnits="userSpaceOnUse"
       x1="31.586"
       y1="36.345001"
       x2="1.2029999"
       y2="6.723"
       gradientTransform="translate(20.841982,61.553822)" />
    <linearGradient
       xlink:href="#b-2"
       id="linearGradient4189-3-3"
       x1="14.369"
       y1="22.521999"
       x2="26.521999"
       y2="22.521999"
       gradientUnits="userSpaceOnUse"
       gradientTransform="translate(4.376802,4.4211693)" />
    <linearGradient
       xlink:href="#b-2"
       id="linearGradient4428-5-5"
       gradientUnits="userSpaceOnUse"
       x1="31.586"
       y1="36.345001"
       x2="1.2029999"
       y2="6.723"
       gradientTransform="translate(4.376802,4.4211693)" />
    <filter
       id="d-7"
       x="-0.035999998"
       y="-0.036000062"
       width="1.072"
       height="1.0720001"
       color-interpolation-filters="sRGB">
      <feGaussianBlur
         stdDeviation="9"
         id="feGaussianBlur238-5" />
    </filter>
    <linearGradient
       id="paint1_linear_41_121"
       x1="11.9599"
       y1="21"
       x2="11.9599"
       y2="3"
       gradientUnits="userSpaceOnUse"
       gradientTransform="scale(0.26457819)">
      <stop
         stop-color="#FD4C00"
         id="stop5" />
      <stop
         offset="1"
         stop-color="#FFB800"
         id="stop6" />
    </linearGradient>
    <linearGradient
       inkscape:collect="always"
       xlink:href="#linearGradient3"
       id="linearGradient2"
       x1="-3.273953"
       y1="11.98641"
       x2="3.6839044"
       y2="5.2674623"
       gradientUnits="userSpaceOnUse" />
    <linearGradient
       id="a-1-2-2"
       y1="510.79999"
       y2="527.14001"
       gradientUnits="userSpaceOnUse"
       x2="0"
       gradientTransform="matrix(1.2378066,0,0,1.231,-93.270747,-117.26405)">
      <stop
         stop-color="#7cbaf8"
         id="stop2-2-7-7" />
      <stop
         offset="1"
         stop-color="#f4fcff"
         id="stop4-70-0-0" />
    </linearGradient>
    <linearGradient
       id="c-93"
       y1="503.79999"
       x1="400.57001"
       y2="519.79999"
       x2="416.57001"
       gradientUnits="userSpaceOnUse"
       gradientTransform="matrix(1.2378066,0,0,1.231,-89.070362,-114.83858)">
      <stop
         stop-color="#292c2f"
         id="stop12-6" />
      <stop
         offset="1"
         stop-opacity="0"
         id="stop14-0" />
    </linearGradient>
    <linearGradient
       id="b-6"
       y1="542.79999"
       x1="408.57001"
       y2="521.79999"
       x2="387.57001"
       gradientUnits="userSpaceOnUse"
       gradientTransform="matrix(1.2378066,0,0,1.231,-473.64035,-614.6386)">
      <stop
         stop-color="#197cf1"
         id="stop7-2" />
      <stop
         offset="1"
         stop-color="#20bcfa"
         id="stop9-6" />
    </linearGradient>
    <linearGradient
       id="linearGradient1"
       inkscape:collect="always">
      <stop
         style="stop-color:#ffcc00;stop-opacity:1"
         offset="0"
         id="stop1" />
      <stop
         style="stop-color:#ff00ff;stop-opacity:1"
         offset="1"
         id="stop5-3" />
    </linearGradient>
    <linearGradient
       inkscape:collect="always"
       xlink:href="#linearGradient1"
       id="linearGradient9"
       gradientUnits="userSpaceOnUse"
       x1="10"
       y1="187.5005"
       x2="365"
       y2="187.5005" />
    <linearGradient
       id="e"
       gradientUnits="userSpaceOnUse"
       x1="14"
       x2="14"
       y1="17"
       y2="6"
       gradientTransform="matrix(1.5,0,0,1.5,69.305084,28.22034)">
      <stop
         offset="0"
         stop-color="#2a2c2f"
         id="stop249" />
      <stop
         offset="1"
         stop-color="#424649"
         id="stop251" />
    </linearGradient>
    <linearGradient
       id="f"
       gradientTransform="matrix(-1.0606602,-1.0606602,1.0606602,-1.0606602,97.32783,81.077741)"
       gradientUnits="userSpaceOnUse"
       x1="15.5"
       x2="21.247999"
       y1="10.5"
       y2="16.247999">
      <stop
         offset="0"
         stop-color="#c0392b"
         id="stop227" />
      <stop
         offset="1"
         stop-color="#e74c3c"
         id="stop229" />
    </linearGradient>
    <linearGradient
       inkscape:collect="always"
       xlink:href="#linearGradient904"
       id="linearGradient898"
       x1="-12.025727"
       y1="6.1170783"
       x2="-0.085100174"
       y2="6.1170783"
       gradientUnits="userSpaceOnUse" />
  </defs>
  <sodipodi:namedview
     id="namedview14"
     pagecolor="#000000"
     bordercolor="#666666"
     borderopacity="1.0"
     inkscape:showpageshadow="2"
     inkscape:pageopacity="0.0"
     inkscape:pagecheckerboard="0"
     inkscape:deskcolor="#d1d1d1"
     showgrid="false"
     inkscape:zoom="8.8545525"
     inkscape:cx="6.8205365"
     inkscape:cy="35.589998"
     inkscape:window-width="1920"
     inkscape:window-height="988"
     inkscape:window-x="0"
     inkscape:window-y="0"
     inkscape:window-maximized="1"
     inkscape:current-layer="svg12"
     inkscape:document-rotation="0">
    <inkscape:grid
       type="xygrid"
       id="grid244"
       originx="9.9594769"
       originy="-31.57929"
       spacingy="1"
       spacingx="1"
       units="px"
       visible="false" />
  </sodipodi:namedview>
  <rect
     x="-12.194976"
     y="0.32004508"
     width="11.940627"
     height="11.936014"
     rx="1.6121091"
     shape-rendering="crispEdges"
     id="rect5-6-7-3"
     ry="1.7735944"
     transform="matrix(0.00523883,-0.99998628,0.999988,0.00489859,0,0)"
     style="fill:#80b3ff;fill-opacity:0.13;stroke:url(#linearGradient898);stroke-width:0.529156;stroke-miterlimit:4;stroke-dasharray:none;stroke-opacity:1" />
  <rect
     x="-3.7202365"
     y="4.8851409"
     width="7.912631"
     height="7.912384"
     rx="1.612043"
     shape-rendering="crispEdges"
     id="rect5-6-6-6-6"
     style="fill:#5599ff;fill-opacity:0.1;stroke:url(#linearGradient2);stroke-width:0.39686725;stroke-opacity:1;stroke-miterlimit:4;stroke-dasharray:none"
     ry="1.7735215"
     transform="matrix(0.72612649,-0.68756114,0.6879775,0.72573202,0,0)" />
  <g
     id="g5"
     transform="matrix(0.11970631,0,0,0.11970631,3.2955853,3.1191118)"
     style="fill:#aaccff;stroke-width:36.3636">
    <g
       id="g4"
       style="fill:#aaccff;stroke-width:36.3636">
      <polygon
         points="35.479,11.176 34.938,11.288 34.866,12.057 35.514,12.057 36.376,11.974 36.821,11.445 36.348,11.261 36.089,10.963 35.7,10.333 35.514,9.442 34.783,9.591 34.578,9.905 34.578,10.259 34.93,10.5 35.432,10.815 "
         id="polygon1"
         style="fill:#aaccff;stroke-width:36.3636" />
      <polygon
         points="34.848,10.629 34.419,10.444 33.819,10.583 33.374,11.297 33.374,11.76 33.893,11.76 34.809,11.111 "
         id="polygon2"
         style="fill:#aaccff;stroke-width:36.3636" />
      <path
         d="m 22.459,13.158 -0.132,0.34 h -0.639 v 0.33 h 0.152 c 0,0 0.009,0.07 0.022,0.162 l 0.392,-0.033 0.245,-0.152 0.064,-0.307 0.317,-0.027 0.125,-0.258 -0.291,-0.06 z"
         id="path2"
         style="fill:#aaccff;stroke-width:36.3636" />
      <polygon
         points="20.787,14.08 21.25,14.041 21.298,13.717 21.02,13.498 20.812,13.757 "
         id="polygon3"
         style="fill:#aaccff;stroke-width:36.3636" />
      <path
         d="M 48.619,24.061 C 48.612,23.35 48.576,22.644 48.509,21.949 48.284,19.632 47.73,17.411 46.9,15.329 46.838,15.174 46.781,15.017 46.715,14.864 45.609,12.251 44.056,9.872 42.155,7.819 42.03,7.685 41.903,7.553 41.776,7.423 41.417,7.05 41.048,6.686 40.666,6.337 36.344,2.402 30.604,0 24.312,0 17.967,0 12.186,2.445 7.852,6.44 6.842,7.371 5.914,8.387 5.072,9.475 1.896,13.583 0,18.729 0,24.312 c 0,13.407 10.907,24.313 24.313,24.313 9.43,0 17.617,-5.4 21.647,-13.268 0.862,-1.682 1.533,-3.475 1.985,-5.354 0.115,-0.477 0.214,-0.956 0.3,-1.441 0.245,-1.381 0.379,-2.801 0.379,-4.25 10e-4,-0.084 -0.004,-0.167 -0.005,-0.251 z m -4.576,-9.717 0.141,-0.158 c 0.185,0.359 0.358,0.724 0.523,1.094 l -0.23,-0.009 -0.434,0.06 z M 40.53,10.102 40.534,9.016 c 0.382,0.405 0.75,0.822 1.102,1.254 l -0.438,0.652 -1.531,-0.014 -0.096,-0.319 z M 11.202,7.403 V 7.362 h 0.487 l 0.042,-0.167 h 0.797 v 0.348 l -0.229,0.306 h -1.098 z m 0.778,1.085 c 0,0 0.487,-0.083 0.529,-0.083 0.042,0 0,0.486 0,0.486 L 11.411,8.96 11.202,8.71 Z m 33.612,9.651 h -1.779 l -1.084,-0.807 -1.141,0.111 v 0.696 h -0.361 l -0.39,-0.278 -1.976,-0.501 v -1.28 l -2.504,0.195 -0.776,0.417 h -0.994 l -0.487,-0.049 -1.207,0.67 v 1.261 l -2.467,1.78 0.205,0.76 h 0.5 L 31,21.838 l -0.352,0.129 -0.019,1.892 2.132,2.428 h 0.928 l 0.056,-0.148 h 1.668 l 0.481,-0.445 h 0.946 l 0.519,0.52 1.41,0.146 -0.187,1.875 1.565,2.763 -0.824,1.575 0.056,0.742 0.649,0.647 v 1.784 l 0.852,1.146 v 1.482 h 0.736 c -4.096,5.029 -10.33,8.25 -17.305,8.25 C 12.009,46.625 2,36.615 2,24.312 2,21.215 2.636,18.263 3.781,15.58 V 14.884 L 4.579,13.915 C 4.856,13.392 5.153,12.882 5.47,12.385 L 5.506,12.79 4.58,13.915 C 4.293,14.457 4.025,15.011 3.782,15.58 v 1.27 l 0.927,0.446 v 1.765 l 0.889,1.517 0.723,0.111 0.093,-0.52 -0.853,-1.316 -0.167,-1.279 h 0.5 l 0.211,1.316 1.233,1.799 -0.318,0.581 0.784,1.199 1.947,0.482 v -0.315 l 0.779,0.111 -0.074,0.556 0.612,0.112 0.945,0.258 1.335,1.521 1.705,0.129 0.167,1.391 -1.167,0.816 -0.055,1.242 -0.167,0.76 1.688,2.113 0.129,0.724 c 0,0 0.612,0.166 0.687,0.166 0.074,0 1.372,0.983 1.372,0.983 v 3.819 l 0.463,0.13 -0.315,1.762 0.779,1.039 -0.144,1.746 1.029,1.809 1.321,1.154 1.328,0.024 0.13,-0.427 -0.976,-0.822 0.056,-0.408 0.175,-0.5 0.037,-0.51 -0.66,-0.02 -0.333,-0.418 0.548,-0.527 0.074,-0.398 -0.612,-0.175 0.036,-0.37 0.872,-0.132 1.326,-0.637 0.445,-0.816 1.391,-1.78 -0.316,-1.392 0.427,-0.741 1.279,0.039 0.861,-0.682 0.278,-2.686 0.955,-1.213 0.167,-0.779 -0.871,-0.279 -0.575,-0.943 -1.965,-0.02 -1.558,-0.594 -0.074,-1.111 -0.52,-0.909 -1.409,-0.021 -0.814,-1.278 -0.723,-0.353 -0.037,0.39 -1.316,0.078 -0.482,-0.671 -1.373,-0.279 -1.131,1.307 -1.78,-0.302 -0.129,-2.006 -1.299,-0.222 0.521,-0.984 -0.149,-0.565 -1.707,1.141 -1.074,-0.131 -0.383,-0.839 0.234,-0.865 0.592,-1.091 1.363,-0.69 2.632,-0.001 -0.007,0.803 0.946,0.44 -0.075,-1.372 0.682,-0.686 1.376,-0.904 0.094,-0.636 1.372,-1.428 1.459,-0.808 -0.129,-0.106 0.988,-0.93 0.362,0.096 0.166,0.208 0.375,-0.416 0.092,-0.041 -0.411,-0.058 -0.417,-0.139 v -0.4 l 0.221,-0.181 h 0.487 l 0.223,0.098 0.193,0.39 0.236,-0.036 v -0.034 l 0.068,0.023 0.684,-0.105 0.097,-0.334 0.39,0.098 v 0.362 l -0.362,0.249 h 10e-4 l 0.053,0.397 1.239,0.382 c 0,0 10e-4,0.005 0.003,0.015 l 0.285,-0.024 0.019,-0.537 -0.982,-0.447 -0.056,-0.258 0.815,-0.278 0.036,-0.78 -0.852,-0.519 -0.056,-1.315 -1.168,0.574 h -0.426 l 0.112,-1.001 -1.59,-0.375 -0.658,0.497 v 1.516 l -1.183,0.375 -0.474,0.988 -0.514,0.083 V 10.551 L 16.903,10.397 16.347,10.035 16.123,9.216 18.112,8.052 19.085,7.756 19.183,8.41 19.725,8.382 19.767,8.053 20.334,7.972 20.344,7.857 20.1,7.756 20.044,7.408 l 0.697,-0.059 0.421,-0.438 0.023,-0.032 0.005,0.002 0.128,-0.132 1.465,-0.185 0.648,0.55 -1.699,0.905 2.162,0.51 0.28,-0.723 h 0.945 L 25.453,7.176 24.785,7.009 V 6.212 L 22.69,5.284 21.244,5.451 20.428,5.878 20.484,6.916 19.631,6.786 19.5,6.212 20.317,5.47 18.834,5.396 l -0.426,0.129 -0.185,0.5 0.556,0.094 -0.111,0.556 -0.945,0.056 -0.148,0.37 -1.371,0.038 c 0,0 -0.038,-0.778 -0.093,-0.778 -0.055,0 1.075,-0.019 1.075,-0.019 L 18.003,5.544 17.557,5.321 16.964,5.897 15.98,5.841 15.387,5.025 H 14.126 L 12.81,6.008 h 1.206 l 0.11,0.353 -0.313,0.291 1.335,0.037 0.204,0.482 L 13.849,7.115 13.776,6.744 12.831,6.54 12.33,6.262 11.205,6.271 C 14.888,3.588 19.417,2 24.312,2 c 5.642,0 10.797,2.109 14.73,5.574 l -0.265,0.474 -1.029,0.403 -0.434,0.471 0.1,0.549 0.531,0.074 0.32,0.8 0.916,-0.369 0.151,1.07 h -0.276 l -0.752,-0.111 -0.834,0.14 -0.807,1.14 -1.154,0.181 -0.167,0.988 0.487,0.115 -0.141,0.635 -1.146,-0.23 -1.051,0.23 -0.223,0.585 0.182,1.228 0.617,0.289 1.035,-0.006 0.699,-0.063 0.213,-0.556 1.092,-1.419 0.719,0.147 0.708,-0.64 0.132,0.5 1.742,1.175 -0.213,0.286 -0.785,-0.042 0.302,0.428 0.483,0.106 0.566,-0.236 -0.012,-0.682 0.251,-0.126 -0.202,-0.214 -1.162,-0.648 -0.306,-0.861 h 0.966 l 0.309,0.306 0.832,0.717 0.035,0.867 0.862,0.918 0.321,-1.258 0.597,-0.326 0.112,1.029 0.583,0.64 1.163,-0.02 c 0.225,0.579 0.427,1.168 0.604,1.769 z m -32.331,-7.093 0.584,-0.278 0.528,0.126 -0.182,0.709 -0.57,0.181 z m 3.099,1.669 v 0.459 h -1.334 l -0.5,-0.139 0.125,-0.32 0.641,-0.265 h 0.876 v 0.265 z m 0.614,0.64 V 13.8 l -0.334,0.215 -0.416,0.077 c 0,0 0,-0.667 0,-0.737 z m -0.376,-0.181 v -0.529 l 0.459,0.418 z m 0.209,1.07 v 0.433 l -0.319,0.32 h -0.709 l 0.111,-0.486 0.335,-0.029 0.069,-0.167 z m -1.766,-0.889 h 0.737 l -0.945,1.321 -0.39,-0.209 0.084,-0.556 z m 3.018,0.737 v 0.432 H 17.35 l -0.194,-0.28 v -0.402 h 0.056 z m -0.655,-0.594 0.202,-0.212 0.341,0.212 -0.273,0.225 z m 28.55,5.767 0.07,-0.082 c 0.029,0.126 0.06,0.252 0.088,0.38 z"
         id="path3"
         style="fill:#aaccff;stroke-width:36.3636" />
      <path
         d="M 3.782,14.884 V 15.58 C 4.025,15.012 4.293,14.458 4.58,13.915 Z"
         id="path4"
         style="fill:#aaccff;stroke-width:36.3636" />
    </g>
  </g>
  <path
     inkscape:connector-curvature="0"
     id="path4218"
     d="m 3.7659225,9.3051898 c -0.1063177,0.07339 -0.2453868,0.149843 -0.3626056,0.201789 l 0.049136,0.193515 c 0.09547,-0.03037 0.1826818,-0.08188 0.2890022,-0.149846 V 11.295569 H 3.9786607 V 9.3052538 H 3.7659966 Z"
     style="fill:#d5e5ff;fill-opacity:1;stroke-width:0.171527" />
  <path
     inkscape:connector-curvature="0"
     id="path4220"
     d="m 4.4099565,9.4387768 0.07904,0.198978 c 0.1117781,-0.114618 0.2780985,-0.163708 0.444412,-0.163708 0.2262944,0 0.3517111,0.125523 0.3517111,0.34628 v 0.01484 C 5.2820096,9.9904618 5.1815169,10.143263 5.0261187,10.315022 L 4.339052,11.07843 4.369001,11.296596 h 1.1642181 l 0.0164,-0.204436 H 4.6254184 L 5.18706,10.492102 c 0.2181219,-0.23458 0.3517226,-0.425333 0.3544491,-0.6761582 v -0.0079 c 0,-0.327119 -0.2290225,-0.542547 -0.5916412,-0.542547 -0.2590014,0 -0.4280555,0.07096 -0.5398373,0.174624 z"
     style="fill:#d5e5ff;fill-opacity:1;stroke-width:0.171527" />
  <path
     inkscape:connector-curvature="0"
     id="path4222"
     d="M 5.8983883,11.328204 H 6.1737452 V 11.017297 H 5.8983883 Z m 0,-1.221458 H 6.1737452 V 9.7986468 H 5.8983883 Z"
     style="fill:#d5e5ff;fill-opacity:1;stroke-width:0.171527" />
  <path
     inkscape:connector-curvature="0"
     id="path4224"
     d="m 7.4558171,10.747467 c 0,0.242627 -0.1772211,0.376277 -0.4389633,0.376277 -0.2017444,0 -0.3408051,-0.0655 -0.4416772,-0.144384 l -0.076364,0.193512 c 0.073567,0.07096 0.2617198,0.152794 0.5207453,0.152794 0.3871484,0 0.6707004,-0.220804 0.6707004,-0.575272 0,-0.280826 -0.1553957,-0.460768 -0.3980568,-0.515294 0.2153862,-0.0655 0.3489883,-0.220806 0.3489883,-0.4771322 0,-0.318981 -0.2753739,-0.493473 -0.5698249,-0.493473 -0.2753736,0 -0.4525959,0.06003 -0.5725506,0.15279 l 0.076364,0.193516 c 0.1063233,-0.08447 0.2617281,-0.141893 0.4444123,-0.141893 0.2344759,0 0.365346,0.09824 0.365346,0.319022 0,0.3135532 -0.2890018,0.3489782 -0.5943647,0.3489782 v 0.19643 c 0.3707891,0 0.6652508,0.05719 0.6652508,0.414424 z"
     style="fill:#d5e5ff;fill-opacity:1;stroke-width:0.171527" />
  <path
     inkscape:connector-curvature="0"
     id="path4226"
     d="m 8.8684009,9.6050938 v 1.0033302 h -0.665241 z m 0.44987,1.1969012 0.01903,-0.193511 H 9.0918929 V 9.3052168 H 8.8437849 L 7.9686212,10.597543 v 0.204439 h 0.8997207 v 0.493487 h 0.223569 v -0.493487 z"
     style="fill:#d5e5ff;fill-opacity:1;stroke-width:0.171527" />
</svg>
