<?xml version="1.0" encoding="UTF-8" standalone="no"?>
<svg
   xmlns:dc="http://purl.org/dc/elements/1.1/"
   xmlns:cc="http://creativecommons.org/ns#"
   xmlns:rdf="http://www.w3.org/1999/02/22-rdf-syntax-ns#"
   xmlns:svg="http://www.w3.org/2000/svg"
   xmlns="http://www.w3.org/2000/svg"
   xmlns:xlink="http://www.w3.org/1999/xlink"
   xmlns:sodipodi="http://sodipodi.sourceforge.net/DTD/sodipodi-0.dtd"
   xmlns:inkscape="http://www.inkscape.org/namespaces/inkscape"
   width="47.285591"
   height="47.28569"
   version="1.1"
   id="svg63"
   sodipodi:docname="about-1.svg"
   inkscape:version="1.0.1 (3bc2e813f5, 2020-09-07)">
  <style
     id="style1006"></style>
  <metadata
     id="metadata181">
    <rdf:RDF>
      <cc:Work
         rdf:about="">
        <dc:format>image/svg+xml</dc:format>
        <dc:type
           rdf:resource="http://purl.org/dc/dcmitype/StillImage" />
      </cc:Work>
    </rdf:RDF>
  </metadata>
  <sodipodi:namedview
     id="namedview65"
     pagecolor="#000000"
     bordercolor="#666666"
     borderopacity="1.0"
     inkscape:showpageshadow="2"
     inkscape:pageopacity="0.0"
     inkscape:pagecheckerboard="0"
     inkscape:deskcolor="#d1d1d1"
     showgrid="false"
     inkscape:zoom="15.15916"
     inkscape:cx="16.570766"
     inkscape:cy="29.365956"
     inkscape:window-width="1920"
     inkscape:window-height="988"
     inkscape:window-x="0"
     inkscape:window-y="0"
     inkscape:window-maximized="1"
     inkscape:current-layer="svg63"
     inkscape:document-rotation="0">
    <inkscape:grid
       type="xygrid"
       id="grid468"
       originx="30.400758"
       originy="-11.147109"
       spacingy="1"
       spacingx="1"
       units="px"
       visible="false" />
  </sodipodi:namedview>
  <defs
     id="defs27">
    <linearGradient
       inkscape:collect="always"
       id="linearGradient1013">
      <stop
         style="stop-color:#ffb380;stop-opacity:0.42352942"
         offset="0"
         id="stop1009" />
      <stop
         style="stop-color:#ff9955;stop-opacity:1"
         offset="1"
         id="stop1011" />
    </linearGradient>
    <linearGradient
       id="a"
       y1="543.79999"
       y2="503.79999"
       x2="0"
       gradientUnits="userSpaceOnUse"
       gradientTransform="matrix(1.125,0,0,1,-51.07,0)">
      <stop
         stop-color="#c6cdd1"
         id="stop2" />
      <stop
         offset="1"
         stop-color="#e0e5e7"
         id="stop4" />
    </linearGradient>
    <linearGradient
       id="b"
       y1="543.79999"
       y2="503.79999"
       x2="0"
       gradientUnits="userSpaceOnUse"
       gradientTransform="matrix(1.0413094,0,0,1.0631247,-447.50457,-582.08122)">
      <stop
         stop-color="#1d1e1e"
         id="stop7" />
      <stop
         offset="1"
         stop-color="#44484c"
         id="stop9" />
    </linearGradient>
    <linearGradient
       xlink:href="#a"
       id="c"
       y1="506.79999"
       y2="504.79999"
       x2="0"
       gradientUnits="userSpaceOnUse"
       gradientTransform="matrix(1.0284537,0,0,1.0499997,-442.30191,-575.2578)" />
    <linearGradient
       xlink:href="#a"
       id="d"
       y1="508.79999"
       y2="506.79999"
       gradientUnits="userSpaceOnUse"
       x2="0"
       gradientTransform="matrix(1.0284537,0,0,1.0499997,-442.30191,-575.2578)" />
    <linearGradient
       xlink:href="#a"
       id="e"
       y1="510.79999"
       y2="508.79999"
       gradientUnits="userSpaceOnUse"
       x2="0"
       gradientTransform="matrix(1.0284537,0,0,1.0499997,-442.30191,-575.2578)" />
    <linearGradient
       xlink:href="#a"
       id="f"
       y1="512.79999"
       y2="510.79999"
       gradientUnits="userSpaceOnUse"
       x2="0"
       gradientTransform="matrix(1.0284537,0,0,1.0499997,-442.30191,-575.2578)" />
    <linearGradient
       xlink:href="#a"
       id="g"
       y1="514.79999"
       y2="512.79999"
       gradientUnits="userSpaceOnUse"
       x2="0"
       gradientTransform="matrix(1.0284537,0,0,1.0499997,-442.30191,-575.2578)" />
    <linearGradient
       xlink:href="#a"
       id="h"
       y1="516.79999"
       y2="514.79999"
       gradientUnits="userSpaceOnUse"
       x2="0"
       gradientTransform="matrix(1.0284537,0,0,1.0499997,-442.30191,-575.2578)" />
    <linearGradient
       xlink:href="#a"
       id="i"
       y1="518.79999"
       y2="516.79999"
       gradientUnits="userSpaceOnUse"
       x2="0"
       gradientTransform="matrix(1.0284537,0,0,1.0499997,-442.30191,-575.2578)" />
    <linearGradient
       xlink:href="#a"
       id="j"
       y1="520.79999"
       y2="518.79999"
       gradientUnits="userSpaceOnUse"
       x2="0"
       gradientTransform="matrix(1.0284537,0,0,1.0499997,-442.30191,-575.2578)" />
    <linearGradient
       xlink:href="#a"
       id="k"
       y1="523.79999"
       y2="520.79999"
       gradientUnits="userSpaceOnUse"
       x2="0"
       gradientTransform="matrix(1.0284537,0,0,1.0499997,-442.30191,-575.2578)" />
    <linearGradient
       xlink:href="#a"
       id="l"
       y1="33"
       y2="25"
       x2="0"
       gradientUnits="userSpaceOnUse"
       gradientTransform="matrix(1.0284537,0,0,1.0499997,-46.789476,-50.467946)" />
    <linearGradient
       id="m"
       y1="7"
       x1="10"
       y2="32"
       x2="35"
       gradientUnits="userSpaceOnUse"
       gradientTransform="matrix(1.0284537,0,0,1.0499997,-46.789476,-50.467946)">
      <stop
         stop-color="#383e51"
         id="stop22" />
      <stop
         offset="1"
         stop-color="#655c6f"
         stop-opacity="0"
         id="stop24" />
    </linearGradient>
    <linearGradient
       id="b-3"
       y1="543.79999"
       y2="503.79999"
       x2="0"
       gradientUnits="userSpaceOnUse"
       gradientTransform="matrix(1.0413094,0,0,1.0631247,-345.52626,-498.95277)">
      <stop
         stop-color="#1d1e1e"
         id="stop7-6" />
      <stop
         offset="1"
         stop-color="#44484c"
         id="stop9-7" />
    </linearGradient>
    <linearGradient
       xlink:href="#a-6"
       id="c-5"
       y1="506.79999"
       y2="504.79999"
       x2="0"
       gradientUnits="userSpaceOnUse"
       gradientTransform="matrix(1.0284537,0,0,1.0499997,-340.3236,-492.12935)" />
    <linearGradient
       id="a-6"
       y1="543.79999"
       y2="503.79999"
       x2="0"
       gradientUnits="userSpaceOnUse"
       gradientTransform="matrix(1.125,0,0,1,-51.07,0)">
      <stop
         stop-color="#c6cdd1"
         id="stop2-2" />
      <stop
         offset="1"
         stop-color="#e0e5e7"
         id="stop4-9" />
    </linearGradient>
    <linearGradient
       xlink:href="#a-6"
       id="d-1"
       y1="508.79999"
       y2="506.79999"
       gradientUnits="userSpaceOnUse"
       x2="0"
       gradientTransform="matrix(1.0284537,0,0,1.0499997,-340.3236,-492.12935)" />
    <linearGradient
       id="linearGradient991"
       y1="543.79999"
       y2="503.79999"
       x2="0"
       gradientUnits="userSpaceOnUse"
       gradientTransform="matrix(1.125,0,0,1,-51.07,0)">
      <stop
         stop-color="#c6cdd1"
         id="stop987" />
      <stop
         offset="1"
         stop-color="#e0e5e7"
         id="stop989" />
    </linearGradient>
    <linearGradient
       xlink:href="#a-6"
       id="e-2"
       y1="510.79999"
       y2="508.79999"
       gradientUnits="userSpaceOnUse"
       x2="0"
       gradientTransform="matrix(1.0284537,0,0,1.0499997,-340.3236,-492.12935)" />
    <linearGradient
       id="linearGradient998"
       y1="543.79999"
       y2="503.79999"
       x2="0"
       gradientUnits="userSpaceOnUse"
       gradientTransform="matrix(1.125,0,0,1,-51.07,0)">
      <stop
         stop-color="#c6cdd1"
         id="stop994" />
      <stop
         offset="1"
         stop-color="#e0e5e7"
         id="stop996" />
    </linearGradient>
    <linearGradient
       xlink:href="#a-6"
       id="f-7"
       y1="512.79999"
       y2="510.79999"
       gradientUnits="userSpaceOnUse"
       x2="0"
       gradientTransform="matrix(1.0284537,0,0,1.0499997,-340.3236,-492.12935)" />
    <linearGradient
       id="linearGradient1005"
       y1="543.79999"
       y2="503.79999"
       x2="0"
       gradientUnits="userSpaceOnUse"
       gradientTransform="matrix(1.125,0,0,1,-51.07,0)">
      <stop
         stop-color="#c6cdd1"
         id="stop1001" />
      <stop
         offset="1"
         stop-color="#e0e5e7"
         id="stop1003" />
    </linearGradient>
    <linearGradient
       xlink:href="#a-6"
       id="g-0"
       y1="514.79999"
       y2="512.79999"
       gradientUnits="userSpaceOnUse"
       x2="0"
       gradientTransform="matrix(1.0284537,0,0,1.0499997,-340.3236,-492.12935)" />
    <linearGradient
       id="linearGradient1012"
       y1="543.79999"
       y2="503.79999"
       x2="0"
       gradientUnits="userSpaceOnUse"
       gradientTransform="matrix(1.125,0,0,1,-51.07,0)">
      <stop
         stop-color="#c6cdd1"
         id="stop1008" />
      <stop
         offset="1"
         stop-color="#e0e5e7"
         id="stop1010" />
    </linearGradient>
    <linearGradient
       xlink:href="#a-6"
       id="h-9"
       y1="516.79999"
       y2="514.79999"
       gradientUnits="userSpaceOnUse"
       x2="0"
       gradientTransform="matrix(1.0284537,0,0,1.0499997,-340.3236,-492.12935)" />
    <linearGradient
       id="linearGradient1019"
       y1="543.79999"
       y2="503.79999"
       x2="0"
       gradientUnits="userSpaceOnUse"
       gradientTransform="matrix(1.125,0,0,1,-51.07,0)">
      <stop
         stop-color="#c6cdd1"
         id="stop1015" />
      <stop
         offset="1"
         stop-color="#e0e5e7"
         id="stop1017" />
    </linearGradient>
    <linearGradient
       xlink:href="#a-6"
       id="i-3"
       y1="518.79999"
       y2="516.79999"
       gradientUnits="userSpaceOnUse"
       x2="0"
       gradientTransform="matrix(1.0284537,0,0,1.0499997,-340.3236,-492.12935)" />
    <linearGradient
       id="linearGradient1026"
       y1="543.79999"
       y2="503.79999"
       x2="0"
       gradientUnits="userSpaceOnUse"
       gradientTransform="matrix(1.125,0,0,1,-51.07,0)">
      <stop
         stop-color="#c6cdd1"
         id="stop1022" />
      <stop
         offset="1"
         stop-color="#e0e5e7"
         id="stop1024" />
    </linearGradient>
    <linearGradient
       xlink:href="#a-6"
       id="j-6"
       y1="520.79999"
       y2="518.79999"
       gradientUnits="userSpaceOnUse"
       x2="0"
       gradientTransform="matrix(1.0284537,0,0,1.0499997,-340.3236,-492.12935)" />
    <linearGradient
       id="linearGradient1033"
       y1="543.79999"
       y2="503.79999"
       x2="0"
       gradientUnits="userSpaceOnUse"
       gradientTransform="matrix(1.125,0,0,1,-51.07,0)">
      <stop
         stop-color="#c6cdd1"
         id="stop1029" />
      <stop
         offset="1"
         stop-color="#e0e5e7"
         id="stop1031" />
    </linearGradient>
    <linearGradient
       xlink:href="#a-6"
       id="k-0"
       y1="523.79999"
       y2="520.79999"
       gradientUnits="userSpaceOnUse"
       x2="0"
       gradientTransform="matrix(1.0284537,0,0,1.0499997,-340.3236,-492.12935)" />
    <linearGradient
       id="linearGradient1040"
       y1="543.79999"
       y2="503.79999"
       x2="0"
       gradientUnits="userSpaceOnUse"
       gradientTransform="matrix(1.125,0,0,1,-51.07,0)">
      <stop
         stop-color="#c6cdd1"
         id="stop1036" />
      <stop
         offset="1"
         stop-color="#e0e5e7"
         id="stop1038" />
    </linearGradient>
    <linearGradient
       xlink:href="#a-6"
       id="l-6"
       y1="33"
       y2="25"
       x2="0"
       gradientUnits="userSpaceOnUse"
       gradientTransform="matrix(1.0284537,0,0,1.0499997,55.188836,32.660499)" />
    <linearGradient
       id="linearGradient1047"
       y1="543.79999"
       y2="503.79999"
       x2="0"
       gradientUnits="userSpaceOnUse"
       gradientTransform="matrix(1.125,0,0,1,-51.07,0)">
      <stop
         stop-color="#c6cdd1"
         id="stop1043" />
      <stop
         offset="1"
         stop-color="#e0e5e7"
         id="stop1045" />
    </linearGradient>
    <linearGradient
       xlink:href="#linearGradient4435"
       id="linearGradient4389-3-5"
       y1="524.79797"
       y2="515.79797"
       x2="0"
       gradientUnits="userSpaceOnUse"
       gradientTransform="matrix(1.3624978,0,0,1.3624978,-528.67725,-680.90488)" />
    <linearGradient
       id="linearGradient4435">
      <stop
         style="stop-color:#c61423"
         id="stop15" />
      <stop
         offset="1"
         style="stop-color:#dc2b41"
         id="stop17" />
    </linearGradient>
    <linearGradient
       id="b-3-7"
       y1="543.79999"
       y2="503.79999"
       x2="0"
       gradientUnits="userSpaceOnUse"
       gradientTransform="matrix(1.0413093,0,0,0.98916733,-397.39884,-489.9741)">
      <stop
         stop-color="#1d1e1e"
         id="stop7-6-5" />
      <stop
         offset="1"
         stop-color="#44484c"
         id="stop9-7-3" />
    </linearGradient>
    <linearGradient
       xlink:href="#a-6-9"
       id="c-5-2"
       y1="506.79999"
       y2="504.79999"
       x2="0"
       gradientUnits="userSpaceOnUse"
       gradientTransform="matrix(1.0284536,0,0,0.97695521,-392.19618,-483.62542)" />
    <linearGradient
       id="a-6-9"
       y1="543.79999"
       y2="503.79999"
       x2="0"
       gradientUnits="userSpaceOnUse"
       gradientTransform="matrix(1.125,0,0,1,-51.07,0)">
      <stop
         stop-color="#c6cdd1"
         id="stop2-2-1" />
      <stop
         offset="1"
         stop-color="#e0e5e7"
         id="stop4-9-2" />
    </linearGradient>
    <linearGradient
       xlink:href="#a-6-9"
       id="d-1-7"
       y1="508.79999"
       y2="506.79999"
       gradientUnits="userSpaceOnUse"
       x2="0"
       gradientTransform="matrix(1.0284536,0,0,0.97695521,-392.19618,-483.62542)" />
    <linearGradient
       id="linearGradient716"
       y1="543.79999"
       y2="503.79999"
       x2="0"
       gradientUnits="userSpaceOnUse"
       gradientTransform="matrix(1.125,0,0,1,-51.07,0)">
      <stop
         stop-color="#c6cdd1"
         id="stop712" />
      <stop
         offset="1"
         stop-color="#e0e5e7"
         id="stop714" />
    </linearGradient>
    <linearGradient
       xlink:href="#a-6-9"
       id="e-2-0"
       y1="510.79999"
       y2="508.79999"
       gradientUnits="userSpaceOnUse"
       x2="0"
       gradientTransform="matrix(1.0284536,0,0,0.97695521,-392.19618,-483.62542)" />
    <linearGradient
       id="linearGradient723"
       y1="543.79999"
       y2="503.79999"
       x2="0"
       gradientUnits="userSpaceOnUse"
       gradientTransform="matrix(1.125,0,0,1,-51.07,0)">
      <stop
         stop-color="#c6cdd1"
         id="stop719" />
      <stop
         offset="1"
         stop-color="#e0e5e7"
         id="stop721" />
    </linearGradient>
    <linearGradient
       xlink:href="#a-6-9"
       id="f-7-9"
       y1="512.79999"
       y2="510.79999"
       gradientUnits="userSpaceOnUse"
       x2="0"
       gradientTransform="matrix(1.0284536,0,0,0.97695521,-392.19618,-483.62542)" />
    <linearGradient
       id="linearGradient730"
       y1="543.79999"
       y2="503.79999"
       x2="0"
       gradientUnits="userSpaceOnUse"
       gradientTransform="matrix(1.125,0,0,1,-51.07,0)">
      <stop
         stop-color="#c6cdd1"
         id="stop726" />
      <stop
         offset="1"
         stop-color="#e0e5e7"
         id="stop728" />
    </linearGradient>
    <linearGradient
       xlink:href="#a-6-9"
       id="g-0-3"
       y1="514.79999"
       y2="512.79999"
       gradientUnits="userSpaceOnUse"
       x2="0"
       gradientTransform="matrix(1.0284536,0,0,0.97695521,-392.19618,-483.62542)" />
    <linearGradient
       id="linearGradient737"
       y1="543.79999"
       y2="503.79999"
       x2="0"
       gradientUnits="userSpaceOnUse"
       gradientTransform="matrix(1.125,0,0,1,-51.07,0)">
      <stop
         stop-color="#c6cdd1"
         id="stop733" />
      <stop
         offset="1"
         stop-color="#e0e5e7"
         id="stop735" />
    </linearGradient>
    <linearGradient
       xlink:href="#a-6-9"
       id="h-9-6"
       y1="516.79999"
       y2="514.79999"
       gradientUnits="userSpaceOnUse"
       x2="0"
       gradientTransform="matrix(1.0284536,0,0,0.97695521,-392.19618,-483.62542)" />
    <linearGradient
       id="linearGradient744"
       y1="543.79999"
       y2="503.79999"
       x2="0"
       gradientUnits="userSpaceOnUse"
       gradientTransform="matrix(1.125,0,0,1,-51.07,0)">
      <stop
         stop-color="#c6cdd1"
         id="stop740" />
      <stop
         offset="1"
         stop-color="#e0e5e7"
         id="stop742" />
    </linearGradient>
    <linearGradient
       xlink:href="#a-6-9"
       id="i-3-0"
       y1="518.79999"
       y2="516.79999"
       gradientUnits="userSpaceOnUse"
       x2="0"
       gradientTransform="matrix(1.0284536,0,0,0.97695521,-392.19618,-483.62542)" />
    <linearGradient
       id="linearGradient751"
       y1="543.79999"
       y2="503.79999"
       x2="0"
       gradientUnits="userSpaceOnUse"
       gradientTransform="matrix(1.125,0,0,1,-51.07,0)">
      <stop
         stop-color="#c6cdd1"
         id="stop747" />
      <stop
         offset="1"
         stop-color="#e0e5e7"
         id="stop749" />
    </linearGradient>
    <linearGradient
       xlink:href="#a-6-9"
       id="j-6-6"
       y1="520.79999"
       y2="518.79999"
       gradientUnits="userSpaceOnUse"
       x2="0"
       gradientTransform="matrix(1.0284536,0,0,0.97695521,-392.19618,-483.62542)" />
    <linearGradient
       id="linearGradient758"
       y1="543.79999"
       y2="503.79999"
       x2="0"
       gradientUnits="userSpaceOnUse"
       gradientTransform="matrix(1.125,0,0,1,-51.07,0)">
      <stop
         stop-color="#c6cdd1"
         id="stop754" />
      <stop
         offset="1"
         stop-color="#e0e5e7"
         id="stop756" />
    </linearGradient>
    <linearGradient
       xlink:href="#a-6-9"
       id="k-0-2"
       y1="523.79999"
       y2="520.79999"
       gradientUnits="userSpaceOnUse"
       x2="0"
       gradientTransform="matrix(1.0284536,0,0,0.97695521,-392.19618,-483.62542)" />
    <linearGradient
       id="linearGradient765"
       y1="543.79999"
       y2="503.79999"
       x2="0"
       gradientUnits="userSpaceOnUse"
       gradientTransform="matrix(1.125,0,0,1,-51.07,0)">
      <stop
         stop-color="#c6cdd1"
         id="stop761" />
      <stop
         offset="1"
         stop-color="#e0e5e7"
         id="stop763" />
    </linearGradient>
    <linearGradient
       xlink:href="#a-6-9"
       id="l-6-6"
       y1="33"
       y2="25"
       x2="0"
       gradientUnits="userSpaceOnUse"
       gradientTransform="matrix(1.0284536,0,0,0.97695521,3.3162253,4.6569547)" />
    <linearGradient
       id="linearGradient772"
       y1="543.79999"
       y2="503.79999"
       x2="0"
       gradientUnits="userSpaceOnUse"
       gradientTransform="matrix(1.125,0,0,1,-51.07,0)">
      <stop
         stop-color="#c6cdd1"
         id="stop768" />
      <stop
         offset="1"
         stop-color="#e0e5e7"
         id="stop770" />
    </linearGradient>
    <filter
       id="filter1305-3-7"
       x="-0.060002353"
       y="-0.060002353"
       width="1.1200047"
       height="1.1200047"
       color-interpolation-filters="sRGB">
      <feGaussianBlur
         stdDeviation="0.61852427"
         id="feGaussianBlur324-5" />
    </filter>
    <linearGradient
       id="b-3-7-6"
       y1="543.79999"
       y2="503.79999"
       x2="0"
       gradientUnits="userSpaceOnUse"
       gradientTransform="matrix(1.0413091,0,0,0.98916747,-397.39884,-489.97418)">
      <stop
         stop-color="#1d1e1e"
         id="stop7-6-5-7" />
      <stop
         offset="1"
         stop-color="#44484c"
         id="stop9-7-3-5" />
    </linearGradient>
    <linearGradient
       xlink:href="#a-6-9-5"
       id="c-5-2-3"
       y1="506.79999"
       y2="504.79999"
       x2="0"
       gradientUnits="userSpaceOnUse"
       gradientTransform="matrix(1.0284532,0,0,0.97695536,-392.19618,-483.62549)" />
    <linearGradient
       id="a-6-9-5"
       y1="543.79999"
       y2="503.79999"
       x2="0"
       gradientUnits="userSpaceOnUse"
       gradientTransform="matrix(1.125,0,0,1,-51.07,0)">
      <stop
         stop-color="#c6cdd1"
         id="stop2-2-1-6" />
      <stop
         offset="1"
         stop-color="#e0e5e7"
         id="stop4-9-2-2" />
    </linearGradient>
    <linearGradient
       xlink:href="#a-6-9-5"
       id="d-1-7-9"
       y1="508.79999"
       y2="506.79999"
       gradientUnits="userSpaceOnUse"
       x2="0"
       gradientTransform="matrix(1.0284532,0,0,0.97695536,-392.19618,-483.62549)" />
    <linearGradient
       id="linearGradient2"
       y1="543.79999"
       y2="503.79999"
       x2="0"
       gradientUnits="userSpaceOnUse"
       gradientTransform="matrix(1.125,0,0,1,-51.07,0)">
      <stop
         stop-color="#c6cdd1"
         id="stop1" />
      <stop
         offset="1"
         stop-color="#e0e5e7"
         id="stop2-1" />
    </linearGradient>
    <linearGradient
       xlink:href="#a-6-9-5"
       id="e-2-0-2"
       y1="510.79999"
       y2="508.79999"
       gradientUnits="userSpaceOnUse"
       x2="0"
       gradientTransform="matrix(1.0284532,0,0,0.97695536,-392.19618,-483.62549)" />
    <linearGradient
       id="linearGradient4"
       y1="543.79999"
       y2="503.79999"
       x2="0"
       gradientUnits="userSpaceOnUse"
       gradientTransform="matrix(1.125,0,0,1,-51.07,0)">
      <stop
         stop-color="#c6cdd1"
         id="stop3" />
      <stop
         offset="1"
         stop-color="#e0e5e7"
         id="stop4-7" />
    </linearGradient>
    <linearGradient
       xlink:href="#a-6-9-5"
       id="f-7-9-0"
       y1="512.79999"
       y2="510.79999"
       gradientUnits="userSpaceOnUse"
       x2="0"
       gradientTransform="matrix(1.0284532,0,0,0.97695536,-392.19618,-483.62549)" />
    <linearGradient
       id="linearGradient6"
       y1="543.79999"
       y2="503.79999"
       x2="0"
       gradientUnits="userSpaceOnUse"
       gradientTransform="matrix(1.125,0,0,1,-51.07,0)">
      <stop
         stop-color="#c6cdd1"
         id="stop5" />
      <stop
         offset="1"
         stop-color="#e0e5e7"
         id="stop6" />
    </linearGradient>
    <linearGradient
       xlink:href="#a-6-9-5"
       id="g-0-3-9"
       y1="514.79999"
       y2="512.79999"
       gradientUnits="userSpaceOnUse"
       x2="0"
       gradientTransform="matrix(1.0284532,0,0,0.97695536,-392.19618,-483.62549)" />
    <linearGradient
       id="linearGradient8"
       y1="543.79999"
       y2="503.79999"
       x2="0"
       gradientUnits="userSpaceOnUse"
       gradientTransform="matrix(1.125,0,0,1,-51.07,0)">
      <stop
         stop-color="#c6cdd1"
         id="stop7-3" />
      <stop
         offset="1"
         stop-color="#e0e5e7"
         id="stop8" />
    </linearGradient>
    <linearGradient
       xlink:href="#a-6-9-5"
       id="h-9-6-6"
       y1="516.79999"
       y2="514.79999"
       gradientUnits="userSpaceOnUse"
       x2="0"
       gradientTransform="matrix(1.0284532,0,0,0.97695536,-392.19618,-483.62549)" />
    <linearGradient
       id="linearGradient10"
       y1="543.79999"
       y2="503.79999"
       x2="0"
       gradientUnits="userSpaceOnUse"
       gradientTransform="matrix(1.125,0,0,1,-51.07,0)">
      <stop
         stop-color="#c6cdd1"
         id="stop9-0" />
      <stop
         offset="1"
         stop-color="#e0e5e7"
         id="stop10" />
    </linearGradient>
    <linearGradient
       xlink:href="#a-6-9-5"
       id="i-3-0-6"
       y1="518.79999"
       y2="516.79999"
       gradientUnits="userSpaceOnUse"
       x2="0"
       gradientTransform="matrix(1.0284532,0,0,0.97695536,-392.19618,-483.62549)" />
    <linearGradient
       id="linearGradient12"
       y1="543.79999"
       y2="503.79999"
       x2="0"
       gradientUnits="userSpaceOnUse"
       gradientTransform="matrix(1.125,0,0,1,-51.07,0)">
      <stop
         stop-color="#c6cdd1"
         id="stop11-2" />
      <stop
         offset="1"
         stop-color="#e0e5e7"
         id="stop12-6" />
    </linearGradient>
    <linearGradient
       xlink:href="#a-6-9-5"
       id="j-6-6-1"
       y1="520.79999"
       y2="518.79999"
       gradientUnits="userSpaceOnUse"
       x2="0"
       gradientTransform="matrix(1.0284532,0,0,0.97695536,-392.19618,-483.62549)" />
    <linearGradient
       id="linearGradient14-8"
       y1="543.79999"
       y2="503.79999"
       x2="0"
       gradientUnits="userSpaceOnUse"
       gradientTransform="matrix(1.125,0,0,1,-51.07,0)">
      <stop
         stop-color="#c6cdd1"
         id="stop13-7" />
      <stop
         offset="1"
         stop-color="#e0e5e7"
         id="stop14" />
    </linearGradient>
    <linearGradient
       xlink:href="#a-6-9-5"
       id="k-0-2-9"
       y1="523.79999"
       y2="520.79999"
       gradientUnits="userSpaceOnUse"
       x2="0"
       gradientTransform="matrix(1.0284532,0,0,0.97695536,-392.19618,-483.62549)" />
    <linearGradient
       id="linearGradient16"
       y1="543.79999"
       y2="503.79999"
       x2="0"
       gradientUnits="userSpaceOnUse"
       gradientTransform="matrix(1.125,0,0,1,-51.07,0)">
      <stop
         stop-color="#c6cdd1"
         id="stop15-2" />
      <stop
         offset="1"
         stop-color="#e0e5e7"
         id="stop16" />
    </linearGradient>
    <linearGradient
       xlink:href="#a-6-9-5"
       id="l-6-6-0"
       y1="33"
       y2="25"
       x2="0"
       gradientUnits="userSpaceOnUse"
       gradientTransform="matrix(1.0284532,0,0,0.97695536,3.3162253,4.6569548)" />
    <linearGradient
       id="linearGradient18"
       y1="543.79999"
       y2="503.79999"
       x2="0"
       gradientUnits="userSpaceOnUse"
       gradientTransform="matrix(1.125,0,0,1,-51.07,0)">
      <stop
         stop-color="#c6cdd1"
         id="stop17-2" />
      <stop
         offset="1"
         stop-color="#e0e5e7"
         id="stop18" />
    </linearGradient>
    <linearGradient
       inkscape:collect="always"
       xlink:href="#linearGradient1013"
       id="linearGradient1015"
       x1="-45.452461"
       y1="23.120121"
       x2="-0.32164383"
       y2="23.120121"
       gradientUnits="userSpaceOnUse" />
    <linearGradient
       inkscape:collect="always"
       xlink:href="#linearGradient1"
       id="linearGradient12-3"
       x1="12.202705"
       y1="20.794916"
       x2="-11.193524"
       y2="44.363842"
       gradientUnits="userSpaceOnUse" />
    <linearGradient
       id="linearGradient1"
       inkscape:collect="always">
      <stop
         style="stop-color:#ff9955;stop-opacity:1;"
         offset="0"
         id="stop11" />
      <stop
         style="stop-color:#ff9955;stop-opacity:0.2;"
         offset="1"
         id="stop12-67" />
    </linearGradient>
  </defs>
  <rect
     x="-46.092155"
     y="1.2096434"
     width="45.130817"
     height="45.11338"
     rx="6.0931306"
     shape-rendering="crispEdges"
     id="rect5-6-7"
     ry="6.7034807"
     transform="matrix(0.00523884,-0.99998628,0.999988,0.00489858,0,0)"
     style="fill:#ff9955;fill-opacity:0.10196079;stroke:url(#linearGradient1015);stroke-width:2;stroke-miterlimit:4;stroke-dasharray:none;stroke-opacity:1" />
  <rect
     x="-14.060373"
     y="18.58709"
     width="29.906599"
     height="29.905666"
     rx="6.0928807"
     shape-rendering="crispEdges"
     id="rect5-6-6-6-5"
     style="fill:#ff9955;fill-opacity:0.11764706;stroke:url(#linearGradient12-3);stroke-width:1.5;stroke-miterlimit:4;stroke-dasharray:none;stroke-opacity:1"
     ry="6.7032056"
     transform="matrix(0.72612648,-0.68756115,0.68797749,0.72573202,0,0)" />
  <path
     d="m 14.865516,11.920798 h 0.706318 c 0.17438,0 0.332246,0.07293 0.446514,0.190827 0.11426,0.117917 0.184942,0.280782 0.184942,0.46069 v 0.622153 c 0,0.179918 -0.0706,0.342785 -0.184942,0.460695 -0.114244,0.11791 -0.272134,0.190835 -0.446514,0.190835 h -0.706318 c -0.174362,0 -0.332226,-0.0729 -0.446496,-0.190835 -0.114244,-0.117915 -0.184944,-0.280777 -0.184944,-0.460695 v -0.622153 c 0,-0.179908 0.0706,-0.342782 0.184944,-0.46069 0.114243,-0.117902 0.272134,-0.190827 0.446496,-0.190827 z m -0.63144,8.188865 v -5.220811 c 0,-0.179916 0.0706,-0.342779 0.184944,-0.460701 0.114243,-0.117893 0.272134,-0.190827 0.446496,-0.190827 h 0.706318 c 0.17438,0 0.332246,0.07291 0.446514,0.190827 0.11426,0.117919 0.184942,0.280785 0.184942,0.460701 v 5.220811 c 0,0.179909 -0.0706,0.342791 -0.184942,0.460689 -0.114244,0.117913 -0.272134,0.190827 -0.446514,0.190827 h -0.706318 c -0.174362,0 -0.332226,-0.07284 -0.446496,-0.190827 -0.114244,-0.117906 -0.184944,-0.28078 -0.184944,-0.460689 z M 23.21906,16.75958 v 3.350083 c 0,0.179909 -0.07059,0.342791 -0.18496,0.460689 -0.114248,0.117913 -0.272133,0.190827 -0.446496,0.190827 h -0.706317 c -0.174387,0 -0.332239,-0.07284 -0.44652,-0.190827 -0.114235,-0.117906 -0.184944,-0.28078 -0.184944,-0.460689 v -2.67347 c 0,-0.619047 -0.02482,-1.021369 -0.08725,-1.20347 -0.05026,-0.146968 -0.130672,-0.262603 -0.244255,-0.344333 -0.115489,-0.08299 -0.255028,-0.121519 -0.416815,-0.121519 -0.223355,0 -0.424023,0.06307 -0.601587,0.190478 -0.17398,0.124869 -0.293423,0.290186 -0.357928,0.496248 -0.0752,0.240265 -0.108232,0.685093 -0.108232,1.332357 v 2.323708 c 0,0.179909 -0.07059,0.342791 -0.184953,0.460689 -0.114256,0.117913 -0.272129,0.190827 -0.446498,0.190827 h -0.706317 c -0.174377,0 -0.332236,-0.07283 -0.446509,-0.190827 -0.114235,-0.117906 -0.184945,-0.28078 -0.184945,-0.460689 v -5.220811 c 0,-0.179916 0.07061,-0.342779 0.184951,-0.460701 0.114242,-0.117893 0.272133,-0.190827 0.446509,-0.190827 h 0.596117 c 0.174384,0 0.332244,0.07288 0.446517,0.190827 0.09383,0.0967 0.158148,0.223733 0.178261,0.36559 0.485816,-0.464085 1.061323,-0.694018 1.724632,-0.694018 0.372587,0 0.712868,0.07078 1.021248,0.210397 0.320907,0.145281 0.561145,0.333376 0.725444,0.55847 0.162564,0.222708 0.276099,0.475279 0.339908,0.758012 0.05937,0.263755 0.09086,0.64125 0.09086,1.132978 z m 3.406817,3.350083 c 0,0.179909 -0.0706,0.342791 -0.184946,0.460689 -0.114249,0.117913 -0.272134,0.190827 -0.446499,0.190827 h -0.706316 c -0.174385,0 -0.332247,-0.07284 -0.446514,-0.190827 -0.114244,-0.117906 -0.184949,-0.28078 -0.184949,-0.460689 v -4.170765 h -0.609969 l -0.286314,-1.428333 0.896283,-0.226472 v -0.288296 c 0,-0.551415 0.0615,-0.961171 0.174021,-1.232273 0.121809,-0.293586 0.342983,-0.536277 0.670992,-0.72145 0.307638,-0.173689 0.695903,-0.264625 1.167184,-0.264625 0.524445,0 1.036513,0.09284 1.536156,0.27856 l -0.286952,1.540312 c -0.30612,-0.09677 -0.597595,-0.145981 -0.874533,-0.145981 -0.145835,0 -0.26126,0.01945 -0.327356,0.0935 -0.07442,0.08337 -0.09026,0.251895 -0.09026,0.480681 l 0.907489,0.212865 0.288872,1.441081 -1.196361,0.224547 z m 1.759053,-4.350861 c 0.273397,-0.540189 0.66114,-0.952069 1.162285,-1.236551 0.494942,-0.280952 1.047409,-0.422528 1.657987,-0.422528 0.947495,0 1.722183,0.323216 2.327029,0.962876 0.603498,0.638251 0.908325,1.443845 0.908325,2.419461 0,0.983019 -0.30743,1.796213 -0.916365,2.442155 -0.611134,0.648272 -1.379848,0.97459 -2.307985,0.97459 -0.569283,0 -1.112294,-0.133734 -1.628964,-0.401558 -0.526716,-0.273044 -0.926964,-0.673529 -1.201208,-1.200918 -0.268074,-0.515489 -0.40519,-1.142583 -0.40519,-1.883083 0,-0.569671 0.134231,-1.121278 0.404086,-1.654444 z m 1.603699,1.740454 c 0,0.538199 0.113494,0.955883 0.360369,1.243671 0.232894,0.271471 0.519763,0.408432 0.861697,0.408432 0.341557,0 0.627402,-0.136704 0.858508,-0.407877 0.245601,-0.28819 0.35806,-0.70999 0.35806,-1.255684 0,-0.531218 -0.112907,-0.945119 -0.35806,-1.232754 -0.231106,-0.271176 -0.516951,-0.407896 -0.858508,-0.407896 -0.341934,0 -0.628803,0.136986 -0.861697,0.408427 -0.246912,0.287794 -0.360369,0.705493 -0.360369,1.243681 z"
     id="info"
     inkscape:connector-curvature="0"
     style="fill:#ffffff;fill-opacity:0.794521;stroke-width:0.539062" />
  <path
     d="m 15.707459,32.409075 c 0.348745,0 0.631453,0.291694 0.631453,0.651515 0,0.359839 -0.282708,0.651534 -0.631453,0.651534 h -2.315333 c -0.34874,0 -0.63145,-0.291695 -0.63145,-0.651534 0,-0.359821 0.28271,-0.651515 0.63145,-0.651515 z m 5.2621,0 c 0.348743,0 0.631455,0.291694 0.631455,0.651515 0,0.359839 -0.282712,0.651534 -0.631455,0.651534 h -1.262893 c -0.348743,0 -0.631461,-0.291695 -0.631461,-0.651534 0,-0.359821 0.282718,-0.651515 0.631461,-0.651515 z m 9.682293,0 c 0.348738,0 0.631443,0.291694 0.631443,0.651515 0,0.359839 -0.282705,0.651534 -0.631443,0.651534 h -7.577444 c -0.348748,0 -0.631446,-0.291695 -0.631446,-0.651534 0,-0.359821 0.282698,-0.651515 0.631446,-0.651515 z M 17.601815,30.237326 c 0.348744,0 0.631458,0.291696 0.631458,0.651519 0,0.359832 -0.282714,0.651535 -0.631458,0.651535 h -4.209689 c -0.34874,0 -0.63145,-0.291703 -0.63145,-0.651535 0,-0.359823 0.28271,-0.651519 0.63145,-0.651519 z m 7.998396,0 c 0.348745,0 0.631459,0.291696 0.631459,0.651519 0,0.359832 -0.282714,0.651535 -0.631459,0.651535 h -5.893545 c -0.348743,0 -0.631461,-0.291703 -0.631461,-0.651535 0,-0.359823 0.282718,-0.651519 0.631461,-0.651519 z m 7.577449,0 c 0.348746,0 0.631446,0.291696 0.631446,0.651519 0,0.359832 -0.2827,0.651535 -0.631446,0.651535 h -5.472601 c -0.348738,0 -0.631439,-0.291703 -0.631439,-0.651535 0,-0.359823 0.282701,-0.651519 0.631439,-0.651519 z M 16.759885,28.065575 c 0.348742,0 0.631443,0.291698 0.631443,0.651522 0,0.359828 -0.282701,0.651531 -0.631443,0.651531 h -3.367759 c -0.34874,0 -0.63145,-0.291703 -0.63145,-0.651531 0,-0.359824 0.28271,-0.651522 0.63145,-0.651522 z m 13.470986,0 c 0.348741,0 0.631455,0.291698 0.631455,0.651522 0,0.359828 -0.282714,0.651531 -0.631455,0.651531 H 19.706666 c -0.348743,0 -0.631461,-0.291703 -0.631461,-0.651531 0,-0.359824 0.282718,-0.651522 0.631461,-0.651522 z M 15.496969,25.893829 c 0.348744,0 0.631462,0.29169 0.631462,0.65152 0,0.359827 -0.282718,0.651526 -0.631462,0.651526 h -2.104843 c -0.34874,0 -0.63145,-0.291699 -0.63145,-0.651526 0,-0.35983 0.28271,-0.65152 0.63145,-0.65152 z m 7.156469,0 c 0.34874,0 0.631461,0.29169 0.631461,0.65152 0,0.359827 -0.282721,0.651526 -0.631461,0.651526 h -2.946772 c -0.348743,0 -0.631461,-0.291699 -0.631461,-0.651526 0,-0.35983 0.282718,-0.65152 0.631461,-0.65152 z m 8.419378,0 c 0.348743,0 0.631444,0.29169 0.631444,0.65152 0,0.359827 -0.282701,0.651526 -0.631444,0.651526 h -6.314534 c -0.348745,0 -0.631453,-0.291699 -0.631453,-0.651526 0,-0.35983 0.282708,-0.65152 0.631453,-0.65152 z m 4.209682,0 c 0.348739,0 0.631451,0.29169 0.631451,0.65152 0,0.359827 -0.282712,0.651526 -0.631451,0.651526 H 33.17766 c -0.348734,0 -0.631447,-0.291699 -0.631447,-0.651526 0,-0.35983 0.282713,-0.65152 0.631447,-0.65152 z M 16.759885,23.72208 c 0.348742,0 0.631443,0.291691 0.631443,0.651517 0,0.359833 -0.282701,0.65153 -0.631443,0.65153 h -3.367759 c -0.34874,0 -0.63145,-0.291697 -0.63145,-0.65153 0,-0.359826 0.28271,-0.651517 0.63145,-0.651517 z m 8.840326,0 c 0.348745,0 0.631459,0.291691 0.631459,0.651517 0,0.359833 -0.282714,0.65153 -0.631459,0.65153 h -5.893545 c -0.348743,0 -0.631461,-0.291697 -0.631461,-0.65153 0,-0.359826 0.282718,-0.651517 0.631461,-0.651517 z m 6.735508,0 c 0.348739,0 0.631452,0.291691 0.631452,0.651517 0,0.359833 -0.282713,0.65153 -0.631452,0.65153 h -4.63066 c -0.348738,0 -0.631439,-0.291697 -0.631439,-0.65153 0,-0.359826 0.282701,-0.651517 0.631439,-0.651517 z"
     id="path143-6"
     inkscape:connector-curvature="0"
     style="fill:#ff9955;fill-opacity:1;stroke-width:0.539062" />
</svg>
