<?xml version="1.0" encoding="UTF-8" standalone="no"?>
<svg
   xmlns:dc="http://purl.org/dc/elements/1.1/"
   xmlns:cc="http://creativecommons.org/ns#"
   xmlns:rdf="http://www.w3.org/1999/02/22-rdf-syntax-ns#"
   xmlns:svg="http://www.w3.org/2000/svg"
   xmlns="http://www.w3.org/2000/svg"
   xmlns:xlink="http://www.w3.org/1999/xlink"
   xmlns:sodipodi="http://sodipodi.sourceforge.net/DTD/sodipodi-0.dtd"
   xmlns:inkscape="http://www.inkscape.org/namespaces/inkscape"
   width="47.285591"
   height="47.28569"
   version="1.1"
   viewBox="0 0 12.510734 12.51076"
   id="svg12"
   sodipodi:docname="start-here-opensuse.svg"
   inkscape:version="1.0.1 (3bc2e813f5, 2020-09-07)">
  <style
     id="style864"></style>
  <metadata
     id="metadata39">
    <rdf:RDF>
      <cc:Work
         rdf:about="">
        <dc:format>image/svg+xml</dc:format>
        <dc:type
           rdf:resource="http://purl.org/dc/dcmitype/StillImage" />
      </cc:Work>
    </rdf:RDF>
  </metadata>
  <defs
     id="defs16">
    <linearGradient
       id="c"
       y1="523.79999"
       x1="403.57001"
       y2="536.79999"
       x2="416.57001"
       gradientUnits="userSpaceOnUse"
       gradientTransform="matrix(0.34526714,0,0,0.34526706,-134.80427,-174.63325)">
      <stop
         stop-color="#292c2f"
         id="stop1568" />
      <stop
         offset="1"
         stop-opacity="0"
         id="stop1570" />
    </linearGradient>
    <linearGradient
       xlink:href="#b-2"
       id="linearGradient4189"
       x1="14.369"
       y1="22.521999"
       x2="26.521999"
       y2="22.521999"
       gradientUnits="userSpaceOnUse" />
    <linearGradient
       x1="36"
       gradientUnits="userSpaceOnUse"
       x2="14"
       y2="12"
       y1="44"
       id="b-2">
      <stop
         style="stop-color:#bfc9c9;stop-opacity:1"
         stop-color="#536161"
         id="stop1579" />
      <stop
         style="stop-color:#fbfbfb;stop-opacity:1"
         stop-color="#f4f5f5"
         offset="1"
         id="stop1581" />
    </linearGradient>
    <linearGradient
       xlink:href="#b-2"
       id="linearGradient4428"
       gradientUnits="userSpaceOnUse"
       x1="31.586"
       y1="36.345001"
       x2="1.2029999"
       y2="6.723" />
    <linearGradient
       xlink:href="#b-2"
       id="linearGradient4189-3"
       x1="14.369"
       y1="22.521999"
       x2="26.521999"
       y2="22.521999"
       gradientUnits="userSpaceOnUse"
       gradientTransform="translate(20.841982,61.553822)" />
    <linearGradient
       xlink:href="#b-2"
       id="linearGradient4428-5"
       gradientUnits="userSpaceOnUse"
       x1="31.586"
       y1="36.345001"
       x2="1.2029999"
       y2="6.723"
       gradientTransform="translate(20.841982,61.553822)" />
    <linearGradient
       xlink:href="#b-2"
       id="linearGradient4189-3-3"
       x1="14.369"
       y1="22.521999"
       x2="26.521999"
       y2="22.521999"
       gradientUnits="userSpaceOnUse"
       gradientTransform="translate(4.376802,4.4211693)" />
    <linearGradient
       xlink:href="#b-2"
       id="linearGradient4428-5-5"
       gradientUnits="userSpaceOnUse"
       x1="31.586"
       y1="36.345001"
       x2="1.2029999"
       y2="6.723"
       gradientTransform="translate(4.376802,4.4211693)" />
    <linearGradient
       inkscape:collect="always"
       xlink:href="#linearGradient14"
       id="linearGradient15"
       x1="-9.6850061"
       y1="45.161198"
       x2="11.98815"
       y2="21.735205"
       gradientUnits="userSpaceOnUse"
       gradientTransform="scale(0.26457813)" />
    <linearGradient
       id="linearGradient14"
       inkscape:collect="always">
      <stop
         style="stop-color:#00a489;stop-opacity:0.83128077;"
         offset="0"
         id="stop12" />
      <stop
         style="stop-color:#00a489;stop-opacity:1;"
         offset="1"
         id="stop13" />
    </linearGradient>
    <filter
       id="filter2917-3"
       x="-0.96181148"
       y="-0.66745996"
       width="2.9236228"
       height="2.3349199"
       color-interpolation-filters="sRGB">
      <feGaussianBlur
         stdDeviation="0.2871969"
         id="feGaussianBlur732-5" />
    </filter>
    <filter
       id="filter1"
       x="-0.96181148"
       y="-0.66745996"
       width="2.9236228"
       height="2.3349199"
       color-interpolation-filters="sRGB">
      <feGaussianBlur
         stdDeviation="0.2871969"
         id="feGaussianBlur1" />
    </filter>
    <filter
       id="filter2"
       x="-0.96181148"
       y="-0.66745996"
       width="2.9236228"
       height="2.3349199"
       color-interpolation-filters="sRGB">
      <feGaussianBlur
         stdDeviation="0.2871969"
         id="feGaussianBlur2" />
    </filter>
    <linearGradient
       inkscape:collect="always"
       xlink:href="#linearGradient14"
       id="linearGradient867"
       x1="-12.194976"
       y1="6.2880521"
       x2="-0.25434875"
       y2="6.2880521"
       gradientUnits="userSpaceOnUse" />
  </defs>
  <sodipodi:namedview
     id="namedview14"
     pagecolor="#000000"
     bordercolor="#666666"
     borderopacity="1.0"
     inkscape:showpageshadow="2"
     inkscape:pageopacity="0.0"
     inkscape:pagecheckerboard="0"
     inkscape:deskcolor="#d1d1d1"
     showgrid="false"
     inkscape:zoom="9.0252824"
     inkscape:cx="10.542721"
     inkscape:cy="22.408252"
     inkscape:window-width="1920"
     inkscape:window-height="988"
     inkscape:window-x="0"
     inkscape:window-y="0"
     inkscape:window-maximized="1"
     inkscape:current-layer="svg12"
     inkscape:document-rotation="0">
    <inkscape:grid
       type="xygrid"
       id="grid244"
       originx="9.9594769"
       originy="-31.57929"
       spacingy="1"
       spacingx="1"
       units="px"
       visible="false" />
  </sodipodi:namedview>
  <rect
     x="-12.194976"
     y="0.32004508"
     width="11.940627"
     height="11.936014"
     rx="1.6121091"
     shape-rendering="crispEdges"
     id="rect5-6-7-3"
     ry="1.7735944"
     transform="matrix(0.00523883,-0.99998628,0.999988,0.00489859,0,0)"
     style="fill:#00a489;fill-opacity:0.12;stroke:url(#linearGradient867);stroke-width:0.5291563;stroke-miterlimit:4;stroke-dasharray:none;stroke-opacity:1" />
  <rect
     x="-3.7202365"
     y="4.8851409"
     width="7.912631"
     height="7.912384"
     rx="1.612043"
     shape-rendering="crispEdges"
     id="rect5-6-6-6-6"
     style="fill:#00a489;fill-opacity:0.121569;stroke:url(#linearGradient15);stroke-width:0.39686725;stroke-opacity:1;stroke-miterlimit:4;stroke-dasharray:none"
     ry="1.7735215"
     transform="matrix(0.72612649,-0.68756114,0.6879775,0.72573202,0,0)" />
  <path
     style="fill:#9effee;fill-opacity:1;fill-rule:nonzero;stroke:none;stroke-width:0.25432"
     d="m 6.2243414,3.3080704 c -0.9873528,-0.00251 -1.9476133,0.4990333 -2.495216,1.4018719 -0.00468,0.00772 -0.0099,0.015597 -0.014583,0.023947 -9.128e-4,0.00132 -0.00199,0.00321 -0.00317,0.00525 -0.00468,0.00829 -0.00991,0.017183 -0.014584,0.025495 -0.00569,0.00988 -0.011458,0.020297 -0.017202,0.030186 -0.00199,0.00321 -0.0036,0.00677 -0.00569,0.00988 -0.0036,0.00677 -0.00778,0.014068 -0.011447,0.020805 -0.00199,0.00359 -0.00418,0.00734 -0.00569,0.010923 -0.00418,0.00677 -0.00778,0.013519 -0.010942,0.020299 -0.00199,0.00359 -0.00418,0.00733 -0.00569,0.010402 -0.00418,0.00773 -0.00778,0.015092 -0.011984,0.022895 -9.131e-4,0.0025 -0.00249,0.00565 -0.00418,0.00829 -0.00526,0.010407 -0.010431,0.020299 -0.015619,0.0307 -9.128e-4,0.00204 -0.00131,0.00359 -0.00249,0.00564 -0.00418,0.00829 -0.00826,0.016637 -0.012496,0.02498 -0.00131,0.00359 -0.00317,0.00733 -0.00526,0.010923 -0.00317,0.00676 -0.00627,0.014071 -0.0099,0.020808 -0.00131,0.00359 -0.00317,0.00734 -0.00468,0.010414 -0.00317,0.00733 -0.00627,0.014068 -0.00942,0.020806 -0.00199,0.00416 -0.0036,0.00772 -0.00526,0.011429 -0.0036,0.00772 -0.00677,0.015088 -0.010421,0.022895 -9.131e-4,0.00252 -0.00199,0.00565 -0.0036,0.00829 -0.00418,0.00989 -0.00886,0.020297 -0.01304,0.030698 -9.132e-4,0.00321 -0.00249,0.00622 -0.00418,0.00989 -0.00317,0.00734 -0.00569,0.01457 -0.00886,0.021333 -0.00131,0.00416 -0.00317,0.00773 -0.00468,0.011445 -0.00249,0.00734 -0.00526,0.014071 -0.00826,0.020806 -0.00131,0.00415 -0.00317,0.00772 -0.00418,0.011977 -0.00317,0.00677 -0.00569,0.013522 -0.00826,0.020296 -9.132e-4,0.00359 -0.00249,0.00734 -0.00418,0.011432 -0.00317,0.00884 -0.00677,0.017691 -0.00991,0.026537 -5.551e-4,0.00132 -9.129e-4,0.00321 -0.00131,0.00471 0,0 0,5.549e-4 0,5.549e-4 -0.00418,0.010399 -0.00778,0.020805 -0.011457,0.031219 -9.131e-4,0.00321 -0.00199,0.00622 -0.00317,0.00989 -0.00249,0.00676 -0.00526,0.014071 -0.00735,0.021333 -0.00131,0.00416 -0.00317,0.00884 -0.00468,0.01352 -0.00199,0.00623 -0.00418,0.012483 -0.00627,0.01872 -9.129e-4,0.00416 -0.00249,0.00829 -0.0036,0.012486 -0.00249,0.00733 -0.00526,0.015087 -0.00735,0.022374 -9.133e-4,0.00321 -0.00199,0.00622 -0.00317,0.0094 -0.00317,0.010407 -0.00627,0.020808 -0.00942,0.03122 0,5.549e-4 0,5.549e-4 0,5.549e-4 -5.55e-4,0.00204 -9.128e-4,0.00415 -0.00131,0.00622 -0.00249,0.00829 -0.00526,0.017183 -0.00735,0.025495 -0.00131,0.00416 -0.00249,0.00772 -0.0036,0.011439 -0.00131,0.00733 -0.0036,0.014068 -0.00569,0.021335 -9.131e-4,0.00416 -0.00199,0.00829 -0.00317,0.012482 -0.00131,0.00622 -0.00317,0.012481 -0.00526,0.019265 -9.13e-4,0.00416 -0.00199,0.00884 -0.00317,0.013522 -0.00199,0.00676 -0.0036,0.013519 -0.00526,0.020808 -0.00109,0.00358 -0.00199,0.00733 -0.00249,0.010919 -0.00249,0.010394 -0.00526,0.020805 -0.00735,0.03122 -9.131e-4,0.00359 -0.00141,0.00733 -0.00249,0.010407 -0.00141,0.00734 -0.00317,0.01457 -0.00468,0.021335 -9.128e-4,0.00471 -0.00199,0.0094 -0.00317,0.014068 -9.131e-4,0.00622 -0.00249,0.012477 -0.0036,0.018213 -9.128e-4,0.00471 -0.00199,0.0094 -0.00249,0.014569 -0.00141,0.00622 -0.00249,0.012492 -0.0036,0.01872 -9.13e-4,0.00471 -0.00199,0.0094 -0.00317,0.014068 -9.129e-4,0.00677 -0.00199,0.013517 -0.0036,0.020809 -4.593e-4,0.00359 -9.131e-4,0.00734 -0.00199,0.010919 -0.00141,0.010404 -0.0036,0.02081 -0.00526,0.031219 -4.592e-4,0.00416 -9.129e-4,0.00773 -0.00141,0.011434 -9.131e-4,0.00677 -0.00199,0.013519 -0.00317,0.020294 -9.129e-4,0.00471 -0.00141,0.00989 -0.00249,0.01457 -4.582e-4,0.00565 -0.00141,0.011976 -0.00249,0.018214 -4.591e-4,0.00471 -9.133e-4,0.00989 -0.00199,0.014569 -4.591e-4,0.00565 -0.00141,0.011977 -0.00199,0.017694 -4.593e-4,0.00526 -9.131e-4,0.00989 -0.00199,0.01457 -9.13e-4,0.0094 -0.00199,0.018211 -0.00317,0.027585 0,0.00101 0,0.0025 -4.596e-4,0.00358 0,0.00204 -4.584e-4,0.00416 -4.584e-4,0.00565 -9.126e-4,0.00885 -0.00199,0.017697 -0.00249,0.026023 -4.591e-4,0.00471 -9.128e-4,0.00884 -0.00141,0.013519 -4.593e-4,0.00622 -9.13e-4,0.012481 -0.00141,0.019265 -4.592e-4,0.00471 -9.13e-4,0.0094 -0.00141,0.014071 -4.592e-4,0.00622 -9.128e-4,0.012478 -0.00141,0.01821 0,0.00471 -4.591e-4,0.00941 -9.131e-4,0.014571 -4.59e-4,0.00622 -4.59e-4,0.013023 -9.126e-4,0.019758 -4.586e-4,0.00416 -4.586e-4,0.00829 -9.133e-4,0.012481 -4.586e-4,0.00988 -9.126e-4,0.020297 -0.00141,0.030698 -4.589e-4,0.00416 -4.589e-4,0.00829 -4.589e-4,0.01248 -4.59e-4,0.00676 -9.12e-4,0.013523 -9.12e-4,0.019758 -4.593e-4,0.00526 -4.593e-4,0.00989 -4.593e-4,0.014569 -4.594e-4,0.00622 -4.594e-4,0.011974 -4.594e-4,0.017691 -4.59e-4,0.00526 -4.59e-4,0.010385 -4.59e-4,0.015088 0,0.00621 -4.591e-4,0.011969 -4.591e-4,0.017694 0,0.00525 0,0.00989 0,0.01509 -9e-7,0.00565 -4.589e-4,0.011986 -4.589e-4,0.018224 0,0.00471 0,0.0094 0,0.014068 0,0.00989 0,0.01976 0,0.029656 0,0.00564 4.58e-4,0.010929 4.58e-4,0.016637 0,0.00525 0,0.00988 0,0.015092 0,0.00565 4.59e-4,0.011443 4.59e-4,0.017175 0,0.00526 0,0.00988 4.6e-4,0.014569 0,0.00622 0,0.011975 4.585e-4,0.018212 0,0.00416 4.592e-4,0.00884 4.592e-4,0.013521 0,0.00565 4.589e-4,0.011976 4.589e-4,0.018212 4.589e-4,0.00416 4.589e-4,0.00829 9.13e-4,0.012482 4.587e-4,0.011977 9.129e-4,0.023945 0.00199,0.03591 0,0.00416 4.582e-4,0.00772 4.582e-4,0.011975 4.591e-4,0.00565 9.13e-4,0.011435 0.00141,0.017694 0,0.00471 4.593e-4,0.00941 9.13e-4,0.014068 4.593e-4,0.00622 9.131e-4,0.012481 0.00141,0.018212 0,0.00416 4.591e-4,0.00829 9.129e-4,0.012477 4.593e-4,0.00622 9.131e-4,0.012481 0.00141,0.019265 4.591e-4,0.00359 9.13e-4,0.00772 9.13e-4,0.011977 9.128e-4,0.00676 0.00141,0.013023 0.00199,0.019758 4.592e-4,0.00101 4.592e-4,0.00252 4.592e-4,0.00359 0.00141,0.01457 0.0036,0.029659 0.00526,0.044232 4.583e-4,0.00359 9.131e-4,0.00734 0.00141,0.010919 4.583e-4,0.00675 0.00141,0.013521 0.00249,0.019758 4.593e-4,0.00359 9.131e-4,0.00734 0.00141,0.010919 9.131e-4,0.00734 0.00141,0.014066 0.00249,0.02081 4.594e-4,0.00321 9.132e-4,0.00622 0.00141,0.0094 9.131e-4,0.00734 0.00199,0.014569 0.00317,0.021333 4.581e-4,0.0025 9.131e-4,0.00525 0.00141,0.00772 0.0036,0.024452 0.00772,0.048392 0.012486,0.072327 4.594e-4,0.00321 9.132e-4,0.00564 0.00141,0.00829 0.00141,0.00734 0.00249,0.014068 0.00418,0.021335 4.592e-4,0.00321 9.13e-4,0.00622 0.00141,0.00884 0.00141,0.00734 0.00317,0.014071 0.00468,0.021333 4.591e-4,0.00321 9.131e-4,0.00622 0.00141,0.00885 0.00141,0.00734 0.00317,0.014568 0.00468,0.02186 4.591e-4,0.00132 9.127e-4,0.00359 0.00141,0.00526 0.00526,0.024977 0.011458,0.050477 0.017707,0.075451 0,0.00132 5.552e-4,0.00358 9.13e-4,0.00525 0.00199,0.00772 0.0036,0.015085 0.00569,0.022365 9.131e-4,0.00252 0.00131,0.00525 0.00199,0.00829 0.00199,0.00676 0.00418,0.014068 0.00569,0.021335 5.559e-4,0.00204 0.00131,0.00471 0.00199,0.00734 0.00942,0.03382 0.019289,0.06765 0.029695,0.1014714 9.129e-4,0.00204 0.00131,0.00359 0.00199,0.00565 0.00199,0.00772 0.00468,0.015085 0.00735,0.022896 5.552e-4,0.00132 9.13e-4,0.00358 0.00199,0.00564 0.00249,0.00772 0.00468,0.015607 0.00778,0.023402 0,0.00101 5.55e-4,0.00204 5.55e-4,0.0025 0.00942,0.026535 0.018237,0.053084 0.028134,0.079615 0.00317,0.00829 0.00627,0.016148 0.00942,0.024453 5.55e-4,0.00132 9.133e-4,0.0025 0.00131,0.00359 0.00317,0.00829 0.00627,0.016139 0.00942,0.024452 5.552e-4,0.00101 5.552e-4,0.00132 9.129e-4,0.0025 0.00317,0.00829 0.00677,0.016634 0.00989,0.024978 0.010942,0.026537 0.02188,0.053082 0.033348,0.079614 5.558e-4,0 5.558e-4,0 5.558e-4,0 0.0036,0.00829 0.00735,0.016637 0.010943,0.02498 5.549e-4,0.00101 5.549e-4,0.00132 9.129e-4,0.00252 0.0036,0.00829 0.00778,0.016639 0.011458,0.02498 0.016175,0.034867 0.033348,0.069726 0.050548,0.1035535 0,0 0,0 5.561e-4,5.549e-4 0.00418,0.00829 0.00826,0.016634 0.012504,0.024978 5.553e-4,0 5.553e-4,5.547e-4 9.133e-4,0.00101 0.00418,0.00829 0.00886,0.016637 0.013041,0.02498 0.018228,0.03331 0.036469,0.066094 0.055748,0.098871 5.553e-4,0.00101 0.00131,0.00204 0.00199,0.0025 0.00468,0.00772 0.00942,0.01614 0.014086,0.023947 0,0 0,5.549e-4 0,5.549e-4 0.025014,0.041105 0.051058,0.081702 0.078149,0.1217657 0.00569,0.00829 0.010933,0.016148 0.016657,0.023947 0.027097,0.04007 0.055748,0.079095 0.084925,0.1170829 5.551e-4,5.548e-4 9.133e-4,0.00101 0.00131,0.00132 0.029182,0.038507 0.059919,0.076491 0.091706,0.1134403 0.00627,0.00734 0.012506,0.01457 0.018745,0.021846 0,5.548e-4 5.553e-4,5.548e-4 5.553e-4,5.548e-4 0.031785,0.036946 0.065128,0.073373 0.098996,0.1087569 5.553e-4,0 5.553e-4,0 5.553e-4,0 C 4.3006124,8.4238938 4.5168397,8.5945747 4.7617237,8.7355946 6.1589754,9.541361 7.9325626,9.0667845 8.7391173,7.6716771 9.5455184,6.276513 9.0703368,4.5051795 7.6734547,3.6996491 7.214781,3.4352371 6.7161545,3.3087878 6.2237809,3.3072268 Z m -0.00623,0.3991214 c 1.393236,0 2.5144933,1.1198332 2.5144933,2.5112984 0,1.3914639 -1.1212573,2.5112975 -2.5144933,2.5112975 -0.7544526,0 -1.4286657,-0.3283527 -1.8887365,-0.8502828 0.1802747,-0.09887 0.4564214,-0.06765 0.7898809,-0.030184 0.1750656,0.020299 0.3740995,0.043194 0.5804266,0.047868 0.5762578,0.00361 1.1962838,-0.1025115 1.5787198,-0.269549 0.2474899,-0.1071962 0.4053626,-0.179007 0.5043581,-0.2685103 0.035427,-0.029656 0.053661,-0.077538 0.072947,-0.1290517 l 0.013537,-0.033818 c 0.016164,-0.041636 0.039595,-0.1295728 0.050019,-0.177446 0.00417,-0.021335 0.00622,-0.043706 -0.00886,-0.05568 l -0.05262,0.00989 C 7.6899786,7.073971 7.2700292,7.2649473 6.8776929,7.2732727 6.3905303,7.2831543 5.4099504,6.7841263 5.3073064,6.7310487 l -0.0099,-0.011439 C 5.2734305,6.6608062 5.1265117,6.3132009 5.0947283,6.2398292 5.8012474,6.7045182 6.3868846,6.9610597 6.8349714,7.0006074 7.334119,7.0453592 7.723329,6.7732069 7.8895361,6.6566438 c 0.032826,-0.021338 0.057316,-0.039546 0.067216,-0.043707 l 0.010935,-0.016636 C 7.9400837,6.4214462 7.6790481,5.5737657 7.4815775,5.3703013 7.4273904,5.3146222 7.383624,5.2599837 7.2955708,5.2084671 6.5817569,4.7932112 4.8889306,4.5423932 4.809212,4.5309461 l -0.013537,0.00359 -0.00472,0.011986 c 0,0 -0.00678,0.3507269 -0.00773,0.3897545 C 4.7170109,4.9139455 4.4908845,4.84057 4.1709703,4.7562714 4.6263516,4.1203804 5.3719463,3.7072098 6.2181005,3.7072098 Z m 0.4663191,1.5392513 c 0.00623,0 0.01199,0 0.018236,0 0.3991015,0.014566 0.7127619,0.3512474 0.6992146,0.7493302 -0.00782,0.1930547 -0.088588,0.3725819 -0.229788,0.503195 C 7.0303688,6.631661 6.8464432,6.7003509 6.6520997,6.6935858 6.2535113,6.6790193 5.9398509,6.3433781 5.9533971,5.9447761 5.9607007,5.7517193 6.0414518,5.5721926 6.1831728,5.4405389 6.3202041,5.3130487 6.4973534,5.244881 6.6844041,5.2464431 Z m -0.01306,0.2128293 c -0.1260937,0.00137 -0.244889,0.048915 -0.336591,0.1352958 -0.098473,0.092105 -0.1563086,0.2164731 -0.1599559,0.3512481 -0.0099,0.2783972 0.2089333,0.5130831 0.4871636,0.5229694 0.1349471,0.00418 0.2641633,-0.043709 0.3626376,-0.1352942 0.098996,-0.092626 0.1552678,-0.2169946 0.159955,-0.3512492 0.00941,-0.2783967 -0.2089316,-0.5125626 -0.4882035,-0.5224489 -0.00418,0 -0.0083,0 -0.0125,-5.548e-4 -0.00417,0 -0.0083,0 -0.012491,0 z m 0.1078531,0.2539391 c 0.1240066,0 0.224043,0.066602 0.224043,0.1493467 0,0.082214 -0.1000361,0.1488255 -0.224043,0.1488255 -0.1240048,0 -0.224043,-0.066603 -0.224043,-0.1488255 0,-0.08274 0.1000391,-0.1493467 0.224043,-0.1493467 z m 0,0"
     id="path4289-7" />
</svg>
