<?xml version="1.0" encoding="UTF-8" standalone="no"?>
<svg
   xmlns:dc="http://purl.org/dc/elements/1.1/"
   xmlns:cc="http://creativecommons.org/ns#"
   xmlns:rdf="http://www.w3.org/1999/02/22-rdf-syntax-ns#"
   xmlns:svg="http://www.w3.org/2000/svg"
   xmlns="http://www.w3.org/2000/svg"
   xmlns:xlink="http://www.w3.org/1999/xlink"
   xmlns:sodipodi="http://sodipodi.sourceforge.net/DTD/sodipodi-0.dtd"
   xmlns:inkscape="http://www.inkscape.org/namespaces/inkscape"
   width="47.285591"
   height="47.28569"
   version="1.1"
   id="svg63"
   sodipodi:docname="yast.svg"
   inkscape:version="1.0.1 (3bc2e813f5, 2020-09-07)">
  <style
     id="style1006"></style>
  <metadata
     id="metadata181">
    <rdf:RDF>
      <cc:Work
         rdf:about="">
        <dc:format>image/svg+xml</dc:format>
        <dc:type
           rdf:resource="http://purl.org/dc/dcmitype/StillImage" />
      </cc:Work>
    </rdf:RDF>
  </metadata>
  <sodipodi:namedview
     id="namedview65"
     pagecolor="#000000"
     bordercolor="#666666"
     borderopacity="1.0"
     inkscape:showpageshadow="2"
     inkscape:pageopacity="0.0"
     inkscape:pagecheckerboard="0"
     inkscape:deskcolor="#d1d1d1"
     showgrid="false"
     inkscape:zoom="9.2756403"
     inkscape:cx="9.8709905"
     inkscape:cy="36.02589"
     inkscape:window-width="1920"
     inkscape:window-height="988"
     inkscape:window-x="0"
     inkscape:window-y="0"
     inkscape:window-maximized="1"
     inkscape:current-layer="svg63"
     inkscape:document-rotation="0">
    <inkscape:grid
       type="xygrid"
       id="grid468"
       originx="30.400758"
       originy="-11.147109"
       spacingy="1"
       spacingx="1"
       units="px"
       visible="false" />
  </sodipodi:namedview>
  <defs
     id="defs27">
    <linearGradient
       id="linearGradient1009"
       inkscape:collect="always">
      <stop
         style="stop-color:#00bcec;stop-opacity:1"
         offset="0"
         id="stop1005" />
      <stop
         style="stop-color:#005d75;stop-opacity:1"
         offset="1"
         id="stop1007" />
    </linearGradient>
    <linearGradient
       id="a"
       y1="543.79999"
       y2="503.79999"
       x2="0"
       gradientUnits="userSpaceOnUse"
       gradientTransform="matrix(1.125,0,0,1,-51.07,0)">
      <stop
         stop-color="#c6cdd1"
         id="stop2" />
      <stop
         offset="1"
         stop-color="#e0e5e7"
         id="stop4" />
    </linearGradient>
    <linearGradient
       id="b"
       y1="543.79999"
       y2="503.79999"
       x2="0"
       gradientUnits="userSpaceOnUse"
       gradientTransform="matrix(1.0413094,0,0,1.0631247,-447.50457,-582.08122)">
      <stop
         stop-color="#1d1e1e"
         id="stop7" />
      <stop
         offset="1"
         stop-color="#44484c"
         id="stop9" />
    </linearGradient>
    <linearGradient
       xlink:href="#a"
       id="c"
       y1="506.79999"
       y2="504.79999"
       x2="0"
       gradientUnits="userSpaceOnUse"
       gradientTransform="matrix(1.0284537,0,0,1.0499997,-442.30191,-575.2578)" />
    <linearGradient
       xlink:href="#a"
       id="d"
       y1="508.79999"
       y2="506.79999"
       gradientUnits="userSpaceOnUse"
       x2="0"
       gradientTransform="matrix(1.0284537,0,0,1.0499997,-442.30191,-575.2578)" />
    <linearGradient
       xlink:href="#a"
       id="e"
       y1="510.79999"
       y2="508.79999"
       gradientUnits="userSpaceOnUse"
       x2="0"
       gradientTransform="matrix(1.0284537,0,0,1.0499997,-442.30191,-575.2578)" />
    <linearGradient
       xlink:href="#a"
       id="f"
       y1="512.79999"
       y2="510.79999"
       gradientUnits="userSpaceOnUse"
       x2="0"
       gradientTransform="matrix(1.0284537,0,0,1.0499997,-442.30191,-575.2578)" />
    <linearGradient
       xlink:href="#a"
       id="g"
       y1="514.79999"
       y2="512.79999"
       gradientUnits="userSpaceOnUse"
       x2="0"
       gradientTransform="matrix(1.0284537,0,0,1.0499997,-442.30191,-575.2578)" />
    <linearGradient
       xlink:href="#a"
       id="h"
       y1="516.79999"
       y2="514.79999"
       gradientUnits="userSpaceOnUse"
       x2="0"
       gradientTransform="matrix(1.0284537,0,0,1.0499997,-442.30191,-575.2578)" />
    <linearGradient
       xlink:href="#a"
       id="i"
       y1="518.79999"
       y2="516.79999"
       gradientUnits="userSpaceOnUse"
       x2="0"
       gradientTransform="matrix(1.0284537,0,0,1.0499997,-442.30191,-575.2578)" />
    <linearGradient
       xlink:href="#a"
       id="j"
       y1="520.79999"
       y2="518.79999"
       gradientUnits="userSpaceOnUse"
       x2="0"
       gradientTransform="matrix(1.0284537,0,0,1.0499997,-442.30191,-575.2578)" />
    <linearGradient
       xlink:href="#a"
       id="k"
       y1="523.79999"
       y2="520.79999"
       gradientUnits="userSpaceOnUse"
       x2="0"
       gradientTransform="matrix(1.0284537,0,0,1.0499997,-442.30191,-575.2578)" />
    <linearGradient
       xlink:href="#a"
       id="l"
       y1="33"
       y2="25"
       x2="0"
       gradientUnits="userSpaceOnUse"
       gradientTransform="matrix(1.0284537,0,0,1.0499997,-46.789476,-50.467946)" />
    <linearGradient
       id="m"
       y1="7"
       x1="10"
       y2="32"
       x2="35"
       gradientUnits="userSpaceOnUse"
       gradientTransform="matrix(1.0284537,0,0,1.0499997,-46.789476,-50.467946)">
      <stop
         stop-color="#383e51"
         id="stop22" />
      <stop
         offset="1"
         stop-color="#655c6f"
         stop-opacity="0"
         id="stop24" />
    </linearGradient>
    <linearGradient
       id="b-3"
       y1="543.79999"
       y2="503.79999"
       x2="0"
       gradientUnits="userSpaceOnUse"
       gradientTransform="matrix(1.0413094,0,0,1.0631247,-345.52626,-498.95277)">
      <stop
         stop-color="#1d1e1e"
         id="stop7-6" />
      <stop
         offset="1"
         stop-color="#44484c"
         id="stop9-7" />
    </linearGradient>
    <linearGradient
       xlink:href="#a-6"
       id="c-5"
       y1="506.79999"
       y2="504.79999"
       x2="0"
       gradientUnits="userSpaceOnUse"
       gradientTransform="matrix(1.0284537,0,0,1.0499997,-340.3236,-492.12935)" />
    <linearGradient
       id="a-6"
       y1="543.79999"
       y2="503.79999"
       x2="0"
       gradientUnits="userSpaceOnUse"
       gradientTransform="matrix(1.125,0,0,1,-51.07,0)">
      <stop
         stop-color="#c6cdd1"
         id="stop2-2" />
      <stop
         offset="1"
         stop-color="#e0e5e7"
         id="stop4-9" />
    </linearGradient>
    <linearGradient
       xlink:href="#a-6"
       id="d-1"
       y1="508.79999"
       y2="506.79999"
       gradientUnits="userSpaceOnUse"
       x2="0"
       gradientTransform="matrix(1.0284537,0,0,1.0499997,-340.3236,-492.12935)" />
    <linearGradient
       id="linearGradient991"
       y1="543.79999"
       y2="503.79999"
       x2="0"
       gradientUnits="userSpaceOnUse"
       gradientTransform="matrix(1.125,0,0,1,-51.07,0)">
      <stop
         stop-color="#c6cdd1"
         id="stop987" />
      <stop
         offset="1"
         stop-color="#e0e5e7"
         id="stop989" />
    </linearGradient>
    <linearGradient
       xlink:href="#a-6"
       id="e-2"
       y1="510.79999"
       y2="508.79999"
       gradientUnits="userSpaceOnUse"
       x2="0"
       gradientTransform="matrix(1.0284537,0,0,1.0499997,-340.3236,-492.12935)" />
    <linearGradient
       id="linearGradient998"
       y1="543.79999"
       y2="503.79999"
       x2="0"
       gradientUnits="userSpaceOnUse"
       gradientTransform="matrix(1.125,0,0,1,-51.07,0)">
      <stop
         stop-color="#c6cdd1"
         id="stop994" />
      <stop
         offset="1"
         stop-color="#e0e5e7"
         id="stop996" />
    </linearGradient>
    <linearGradient
       xlink:href="#a-6"
       id="f-7"
       y1="512.79999"
       y2="510.79999"
       gradientUnits="userSpaceOnUse"
       x2="0"
       gradientTransform="matrix(1.0284537,0,0,1.0499997,-340.3236,-492.12935)" />
    <linearGradient
       id="linearGradient1005"
       y1="543.79999"
       y2="503.79999"
       x2="0"
       gradientUnits="userSpaceOnUse"
       gradientTransform="matrix(1.125,0,0,1,-51.07,0)">
      <stop
         stop-color="#c6cdd1"
         id="stop1001" />
      <stop
         offset="1"
         stop-color="#e0e5e7"
         id="stop1003" />
    </linearGradient>
    <linearGradient
       xlink:href="#a-6"
       id="g-0"
       y1="514.79999"
       y2="512.79999"
       gradientUnits="userSpaceOnUse"
       x2="0"
       gradientTransform="matrix(1.0284537,0,0,1.0499997,-340.3236,-492.12935)" />
    <linearGradient
       id="linearGradient1012"
       y1="543.79999"
       y2="503.79999"
       x2="0"
       gradientUnits="userSpaceOnUse"
       gradientTransform="matrix(1.125,0,0,1,-51.07,0)">
      <stop
         stop-color="#c6cdd1"
         id="stop1008" />
      <stop
         offset="1"
         stop-color="#e0e5e7"
         id="stop1010" />
    </linearGradient>
    <linearGradient
       xlink:href="#a-6"
       id="h-9"
       y1="516.79999"
       y2="514.79999"
       gradientUnits="userSpaceOnUse"
       x2="0"
       gradientTransform="matrix(1.0284537,0,0,1.0499997,-340.3236,-492.12935)" />
    <linearGradient
       id="linearGradient1019"
       y1="543.79999"
       y2="503.79999"
       x2="0"
       gradientUnits="userSpaceOnUse"
       gradientTransform="matrix(1.125,0,0,1,-51.07,0)">
      <stop
         stop-color="#c6cdd1"
         id="stop1015" />
      <stop
         offset="1"
         stop-color="#e0e5e7"
         id="stop1017" />
    </linearGradient>
    <linearGradient
       xlink:href="#a-6"
       id="i-3"
       y1="518.79999"
       y2="516.79999"
       gradientUnits="userSpaceOnUse"
       x2="0"
       gradientTransform="matrix(1.0284537,0,0,1.0499997,-340.3236,-492.12935)" />
    <linearGradient
       id="linearGradient1026"
       y1="543.79999"
       y2="503.79999"
       x2="0"
       gradientUnits="userSpaceOnUse"
       gradientTransform="matrix(1.125,0,0,1,-51.07,0)">
      <stop
         stop-color="#c6cdd1"
         id="stop1022" />
      <stop
         offset="1"
         stop-color="#e0e5e7"
         id="stop1024" />
    </linearGradient>
    <linearGradient
       xlink:href="#a-6"
       id="j-6"
       y1="520.79999"
       y2="518.79999"
       gradientUnits="userSpaceOnUse"
       x2="0"
       gradientTransform="matrix(1.0284537,0,0,1.0499997,-340.3236,-492.12935)" />
    <linearGradient
       id="linearGradient1033"
       y1="543.79999"
       y2="503.79999"
       x2="0"
       gradientUnits="userSpaceOnUse"
       gradientTransform="matrix(1.125,0,0,1,-51.07,0)">
      <stop
         stop-color="#c6cdd1"
         id="stop1029" />
      <stop
         offset="1"
         stop-color="#e0e5e7"
         id="stop1031" />
    </linearGradient>
    <linearGradient
       xlink:href="#a-6"
       id="k-0"
       y1="523.79999"
       y2="520.79999"
       gradientUnits="userSpaceOnUse"
       x2="0"
       gradientTransform="matrix(1.0284537,0,0,1.0499997,-340.3236,-492.12935)" />
    <linearGradient
       id="linearGradient1040"
       y1="543.79999"
       y2="503.79999"
       x2="0"
       gradientUnits="userSpaceOnUse"
       gradientTransform="matrix(1.125,0,0,1,-51.07,0)">
      <stop
         stop-color="#c6cdd1"
         id="stop1036" />
      <stop
         offset="1"
         stop-color="#e0e5e7"
         id="stop1038" />
    </linearGradient>
    <linearGradient
       xlink:href="#a-6"
       id="l-6"
       y1="33"
       y2="25"
       x2="0"
       gradientUnits="userSpaceOnUse"
       gradientTransform="matrix(1.0284537,0,0,1.0499997,55.188836,32.660499)" />
    <linearGradient
       id="linearGradient1047"
       y1="543.79999"
       y2="503.79999"
       x2="0"
       gradientUnits="userSpaceOnUse"
       gradientTransform="matrix(1.125,0,0,1,-51.07,0)">
      <stop
         stop-color="#c6cdd1"
         id="stop1043" />
      <stop
         offset="1"
         stop-color="#e0e5e7"
         id="stop1045" />
    </linearGradient>
    <linearGradient
       xlink:href="#linearGradient4435"
       id="linearGradient4389-3-5"
       y1="524.79797"
       y2="515.79797"
       x2="0"
       gradientUnits="userSpaceOnUse"
       gradientTransform="matrix(1.3624978,0,0,1.3624978,-528.67725,-680.90488)" />
    <linearGradient
       id="linearGradient4435">
      <stop
         style="stop-color:#c61423"
         id="stop15" />
      <stop
         offset="1"
         style="stop-color:#dc2b41"
         id="stop17" />
    </linearGradient>
    <linearGradient
       id="b-3-7"
       y1="543.79999"
       y2="503.79999"
       x2="0"
       gradientUnits="userSpaceOnUse"
       gradientTransform="matrix(1.0413093,0,0,0.98916733,-397.39884,-489.9741)">
      <stop
         stop-color="#1d1e1e"
         id="stop7-6-5" />
      <stop
         offset="1"
         stop-color="#44484c"
         id="stop9-7-3" />
    </linearGradient>
    <linearGradient
       xlink:href="#a-6-9"
       id="c-5-2"
       y1="506.79999"
       y2="504.79999"
       x2="0"
       gradientUnits="userSpaceOnUse"
       gradientTransform="matrix(1.0284536,0,0,0.97695521,-392.19618,-483.62542)" />
    <linearGradient
       id="a-6-9"
       y1="543.79999"
       y2="503.79999"
       x2="0"
       gradientUnits="userSpaceOnUse"
       gradientTransform="matrix(1.125,0,0,1,-51.07,0)">
      <stop
         stop-color="#c6cdd1"
         id="stop2-2-1" />
      <stop
         offset="1"
         stop-color="#e0e5e7"
         id="stop4-9-2" />
    </linearGradient>
    <linearGradient
       xlink:href="#a-6-9"
       id="d-1-7"
       y1="508.79999"
       y2="506.79999"
       gradientUnits="userSpaceOnUse"
       x2="0"
       gradientTransform="matrix(1.0284536,0,0,0.97695521,-392.19618,-483.62542)" />
    <linearGradient
       id="linearGradient716"
       y1="543.79999"
       y2="503.79999"
       x2="0"
       gradientUnits="userSpaceOnUse"
       gradientTransform="matrix(1.125,0,0,1,-51.07,0)">
      <stop
         stop-color="#c6cdd1"
         id="stop712" />
      <stop
         offset="1"
         stop-color="#e0e5e7"
         id="stop714" />
    </linearGradient>
    <linearGradient
       xlink:href="#a-6-9"
       id="e-2-0"
       y1="510.79999"
       y2="508.79999"
       gradientUnits="userSpaceOnUse"
       x2="0"
       gradientTransform="matrix(1.0284536,0,0,0.97695521,-392.19618,-483.62542)" />
    <linearGradient
       id="linearGradient723"
       y1="543.79999"
       y2="503.79999"
       x2="0"
       gradientUnits="userSpaceOnUse"
       gradientTransform="matrix(1.125,0,0,1,-51.07,0)">
      <stop
         stop-color="#c6cdd1"
         id="stop719" />
      <stop
         offset="1"
         stop-color="#e0e5e7"
         id="stop721" />
    </linearGradient>
    <linearGradient
       xlink:href="#a-6-9"
       id="f-7-9"
       y1="512.79999"
       y2="510.79999"
       gradientUnits="userSpaceOnUse"
       x2="0"
       gradientTransform="matrix(1.0284536,0,0,0.97695521,-392.19618,-483.62542)" />
    <linearGradient
       id="linearGradient730"
       y1="543.79999"
       y2="503.79999"
       x2="0"
       gradientUnits="userSpaceOnUse"
       gradientTransform="matrix(1.125,0,0,1,-51.07,0)">
      <stop
         stop-color="#c6cdd1"
         id="stop726" />
      <stop
         offset="1"
         stop-color="#e0e5e7"
         id="stop728" />
    </linearGradient>
    <linearGradient
       xlink:href="#a-6-9"
       id="g-0-3"
       y1="514.79999"
       y2="512.79999"
       gradientUnits="userSpaceOnUse"
       x2="0"
       gradientTransform="matrix(1.0284536,0,0,0.97695521,-392.19618,-483.62542)" />
    <linearGradient
       id="linearGradient737"
       y1="543.79999"
       y2="503.79999"
       x2="0"
       gradientUnits="userSpaceOnUse"
       gradientTransform="matrix(1.125,0,0,1,-51.07,0)">
      <stop
         stop-color="#c6cdd1"
         id="stop733" />
      <stop
         offset="1"
         stop-color="#e0e5e7"
         id="stop735" />
    </linearGradient>
    <linearGradient
       xlink:href="#a-6-9"
       id="h-9-6"
       y1="516.79999"
       y2="514.79999"
       gradientUnits="userSpaceOnUse"
       x2="0"
       gradientTransform="matrix(1.0284536,0,0,0.97695521,-392.19618,-483.62542)" />
    <linearGradient
       id="linearGradient744"
       y1="543.79999"
       y2="503.79999"
       x2="0"
       gradientUnits="userSpaceOnUse"
       gradientTransform="matrix(1.125,0,0,1,-51.07,0)">
      <stop
         stop-color="#c6cdd1"
         id="stop740" />
      <stop
         offset="1"
         stop-color="#e0e5e7"
         id="stop742" />
    </linearGradient>
    <linearGradient
       xlink:href="#a-6-9"
       id="i-3-0"
       y1="518.79999"
       y2="516.79999"
       gradientUnits="userSpaceOnUse"
       x2="0"
       gradientTransform="matrix(1.0284536,0,0,0.97695521,-392.19618,-483.62542)" />
    <linearGradient
       id="linearGradient751"
       y1="543.79999"
       y2="503.79999"
       x2="0"
       gradientUnits="userSpaceOnUse"
       gradientTransform="matrix(1.125,0,0,1,-51.07,0)">
      <stop
         stop-color="#c6cdd1"
         id="stop747" />
      <stop
         offset="1"
         stop-color="#e0e5e7"
         id="stop749" />
    </linearGradient>
    <linearGradient
       xlink:href="#a-6-9"
       id="j-6-6"
       y1="520.79999"
       y2="518.79999"
       gradientUnits="userSpaceOnUse"
       x2="0"
       gradientTransform="matrix(1.0284536,0,0,0.97695521,-392.19618,-483.62542)" />
    <linearGradient
       id="linearGradient758"
       y1="543.79999"
       y2="503.79999"
       x2="0"
       gradientUnits="userSpaceOnUse"
       gradientTransform="matrix(1.125,0,0,1,-51.07,0)">
      <stop
         stop-color="#c6cdd1"
         id="stop754" />
      <stop
         offset="1"
         stop-color="#e0e5e7"
         id="stop756" />
    </linearGradient>
    <linearGradient
       xlink:href="#a-6-9"
       id="k-0-2"
       y1="523.79999"
       y2="520.79999"
       gradientUnits="userSpaceOnUse"
       x2="0"
       gradientTransform="matrix(1.0284536,0,0,0.97695521,-392.19618,-483.62542)" />
    <linearGradient
       id="linearGradient765"
       y1="543.79999"
       y2="503.79999"
       x2="0"
       gradientUnits="userSpaceOnUse"
       gradientTransform="matrix(1.125,0,0,1,-51.07,0)">
      <stop
         stop-color="#c6cdd1"
         id="stop761" />
      <stop
         offset="1"
         stop-color="#e0e5e7"
         id="stop763" />
    </linearGradient>
    <linearGradient
       xlink:href="#a-6-9"
       id="l-6-6"
       y1="33"
       y2="25"
       x2="0"
       gradientUnits="userSpaceOnUse"
       gradientTransform="matrix(1.0284536,0,0,0.97695521,3.3162253,4.6569547)" />
    <linearGradient
       id="linearGradient772"
       y1="543.79999"
       y2="503.79999"
       x2="0"
       gradientUnits="userSpaceOnUse"
       gradientTransform="matrix(1.125,0,0,1,-51.07,0)">
      <stop
         stop-color="#c6cdd1"
         id="stop768" />
      <stop
         offset="1"
         stop-color="#e0e5e7"
         id="stop770" />
    </linearGradient>
    <filter
       id="filter1305-3-7"
       x="-0.060002353"
       y="-0.060002353"
       width="1.1200047"
       height="1.1200047"
       color-interpolation-filters="sRGB">
      <feGaussianBlur
         stdDeviation="0.61852427"
         id="feGaussianBlur324-5" />
    </filter>
    <linearGradient
       id="b-3-7-6"
       y1="543.79999"
       y2="503.79999"
       x2="0"
       gradientUnits="userSpaceOnUse"
       gradientTransform="matrix(1.0413091,0,0,0.98916747,-397.39884,-489.97418)">
      <stop
         stop-color="#1d1e1e"
         id="stop7-6-5-7" />
      <stop
         offset="1"
         stop-color="#44484c"
         id="stop9-7-3-5" />
    </linearGradient>
    <linearGradient
       xlink:href="#a-6-9-5"
       id="c-5-2-3"
       y1="506.79999"
       y2="504.79999"
       x2="0"
       gradientUnits="userSpaceOnUse"
       gradientTransform="matrix(1.0284532,0,0,0.97695536,-392.19618,-483.62549)" />
    <linearGradient
       id="a-6-9-5"
       y1="543.79999"
       y2="503.79999"
       x2="0"
       gradientUnits="userSpaceOnUse"
       gradientTransform="matrix(1.125,0,0,1,-51.07,0)">
      <stop
         stop-color="#c6cdd1"
         id="stop2-2-1-6" />
      <stop
         offset="1"
         stop-color="#e0e5e7"
         id="stop4-9-2-2" />
    </linearGradient>
    <linearGradient
       xlink:href="#a-6-9-5"
       id="d-1-7-9"
       y1="508.79999"
       y2="506.79999"
       gradientUnits="userSpaceOnUse"
       x2="0"
       gradientTransform="matrix(1.0284532,0,0,0.97695536,-392.19618,-483.62549)" />
    <linearGradient
       id="linearGradient2"
       y1="543.79999"
       y2="503.79999"
       x2="0"
       gradientUnits="userSpaceOnUse"
       gradientTransform="matrix(1.125,0,0,1,-51.07,0)">
      <stop
         stop-color="#c6cdd1"
         id="stop1" />
      <stop
         offset="1"
         stop-color="#e0e5e7"
         id="stop2-1" />
    </linearGradient>
    <linearGradient
       xlink:href="#a-6-9-5"
       id="e-2-0-2"
       y1="510.79999"
       y2="508.79999"
       gradientUnits="userSpaceOnUse"
       x2="0"
       gradientTransform="matrix(1.0284532,0,0,0.97695536,-392.19618,-483.62549)" />
    <linearGradient
       id="linearGradient4"
       y1="543.79999"
       y2="503.79999"
       x2="0"
       gradientUnits="userSpaceOnUse"
       gradientTransform="matrix(1.125,0,0,1,-51.07,0)">
      <stop
         stop-color="#c6cdd1"
         id="stop3" />
      <stop
         offset="1"
         stop-color="#e0e5e7"
         id="stop4-7" />
    </linearGradient>
    <linearGradient
       xlink:href="#a-6-9-5"
       id="f-7-9-0"
       y1="512.79999"
       y2="510.79999"
       gradientUnits="userSpaceOnUse"
       x2="0"
       gradientTransform="matrix(1.0284532,0,0,0.97695536,-392.19618,-483.62549)" />
    <linearGradient
       id="linearGradient6"
       y1="543.79999"
       y2="503.79999"
       x2="0"
       gradientUnits="userSpaceOnUse"
       gradientTransform="matrix(1.125,0,0,1,-51.07,0)">
      <stop
         stop-color="#c6cdd1"
         id="stop5" />
      <stop
         offset="1"
         stop-color="#e0e5e7"
         id="stop6" />
    </linearGradient>
    <linearGradient
       xlink:href="#a-6-9-5"
       id="g-0-3-9"
       y1="514.79999"
       y2="512.79999"
       gradientUnits="userSpaceOnUse"
       x2="0"
       gradientTransform="matrix(1.0284532,0,0,0.97695536,-392.19618,-483.62549)" />
    <linearGradient
       id="linearGradient8"
       y1="543.79999"
       y2="503.79999"
       x2="0"
       gradientUnits="userSpaceOnUse"
       gradientTransform="matrix(1.125,0,0,1,-51.07,0)">
      <stop
         stop-color="#c6cdd1"
         id="stop7-3" />
      <stop
         offset="1"
         stop-color="#e0e5e7"
         id="stop8" />
    </linearGradient>
    <linearGradient
       xlink:href="#a-6-9-5"
       id="h-9-6-6"
       y1="516.79999"
       y2="514.79999"
       gradientUnits="userSpaceOnUse"
       x2="0"
       gradientTransform="matrix(1.0284532,0,0,0.97695536,-392.19618,-483.62549)" />
    <linearGradient
       id="linearGradient10"
       y1="543.79999"
       y2="503.79999"
       x2="0"
       gradientUnits="userSpaceOnUse"
       gradientTransform="matrix(1.125,0,0,1,-51.07,0)">
      <stop
         stop-color="#c6cdd1"
         id="stop9-0" />
      <stop
         offset="1"
         stop-color="#e0e5e7"
         id="stop10" />
    </linearGradient>
    <linearGradient
       xlink:href="#a-6-9-5"
       id="i-3-0-6"
       y1="518.79999"
       y2="516.79999"
       gradientUnits="userSpaceOnUse"
       x2="0"
       gradientTransform="matrix(1.0284532,0,0,0.97695536,-392.19618,-483.62549)" />
    <linearGradient
       id="linearGradient12"
       y1="543.79999"
       y2="503.79999"
       x2="0"
       gradientUnits="userSpaceOnUse"
       gradientTransform="matrix(1.125,0,0,1,-51.07,0)">
      <stop
         stop-color="#c6cdd1"
         id="stop11-2" />
      <stop
         offset="1"
         stop-color="#e0e5e7"
         id="stop12-6" />
    </linearGradient>
    <linearGradient
       xlink:href="#a-6-9-5"
       id="j-6-6-1"
       y1="520.79999"
       y2="518.79999"
       gradientUnits="userSpaceOnUse"
       x2="0"
       gradientTransform="matrix(1.0284532,0,0,0.97695536,-392.19618,-483.62549)" />
    <linearGradient
       id="linearGradient14-8"
       y1="543.79999"
       y2="503.79999"
       x2="0"
       gradientUnits="userSpaceOnUse"
       gradientTransform="matrix(1.125,0,0,1,-51.07,0)">
      <stop
         stop-color="#c6cdd1"
         id="stop13-7" />
      <stop
         offset="1"
         stop-color="#e0e5e7"
         id="stop14" />
    </linearGradient>
    <linearGradient
       xlink:href="#a-6-9-5"
       id="k-0-2-9"
       y1="523.79999"
       y2="520.79999"
       gradientUnits="userSpaceOnUse"
       x2="0"
       gradientTransform="matrix(1.0284532,0,0,0.97695536,-392.19618,-483.62549)" />
    <linearGradient
       id="linearGradient16"
       y1="543.79999"
       y2="503.79999"
       x2="0"
       gradientUnits="userSpaceOnUse"
       gradientTransform="matrix(1.125,0,0,1,-51.07,0)">
      <stop
         stop-color="#c6cdd1"
         id="stop15-2" />
      <stop
         offset="1"
         stop-color="#e0e5e7"
         id="stop16" />
    </linearGradient>
    <linearGradient
       xlink:href="#a-6-9-5"
       id="l-6-6-0"
       y1="33"
       y2="25"
       x2="0"
       gradientUnits="userSpaceOnUse"
       gradientTransform="matrix(1.0284532,0,0,0.97695536,3.3162253,4.6569548)" />
    <linearGradient
       id="linearGradient18"
       y1="543.79999"
       y2="503.79999"
       x2="0"
       gradientUnits="userSpaceOnUse"
       gradientTransform="matrix(1.125,0,0,1,-51.07,0)">
      <stop
         stop-color="#c6cdd1"
         id="stop17-2" />
      <stop
         offset="1"
         stop-color="#e0e5e7"
         id="stop18" />
    </linearGradient>
    <linearGradient
       inkscape:collect="always"
       xlink:href="#linearGradient1009"
       id="linearGradient1015"
       x1="0.46171373"
       y1="26.051514"
       x2="-47.322395"
       y2="26.911455"
       gradientUnits="userSpaceOnUse" />
    <linearGradient
       inkscape:collect="always"
       xlink:href="#linearGradient1"
       id="linearGradient12-3"
       x1="12.202705"
       y1="20.794916"
       x2="-11.193524"
       y2="44.363842"
       gradientUnits="userSpaceOnUse"
       gradientTransform="matrix(1,-5.3584568e-5,-5.35882e-5,0.99999946,1.0745437e-7,1.0558547e-8)" />
    <linearGradient
       id="linearGradient1"
       inkscape:collect="always">
      <stop
         style="stop-color:#007fa0;stop-opacity:1;"
         offset="0"
         id="stop11" />
      <stop
         style="stop-color:#0dcdff;stop-opacity:0.15000001;"
         offset="1"
         id="stop12-67" />
    </linearGradient>
  </defs>
  <rect
     x="-46.092155"
     y="1.2096434"
     width="45.130817"
     height="45.11338"
     rx="6.0931306"
     shape-rendering="crispEdges"
     id="rect5-6-7"
     ry="6.7034807"
     transform="matrix(0.00523884,-0.99998628,0.999988,0.00489858,0,0)"
     style="fill:#80b3ff;fill-opacity:0.15;stroke:url(#linearGradient1015);stroke-width:2;stroke-miterlimit:4;stroke-dasharray:none;stroke-opacity:1" />
  <rect
     x="-14.061597"
     y="18.453659"
     width="29.908293"
     height="29.907187"
     rx="6.0928807"
     shape-rendering="crispEdges"
     id="rect5-6-6-6-5"
     style="fill:#55ddff;fill-opacity:0.122146;stroke:url(#linearGradient12-3);stroke-width:1.50000018;stroke-opacity:1;stroke-miterlimit:4;stroke-dasharray:none"
     ry="6.7032056"
     transform="matrix(0.72616332,-0.68752224,0.68801638,0.72569515,0,0)" />
  <path
     d="m 28.150756,34.329551 a 4.6865014,4.6865032 0 0 0 -0.411728,-0.16303 40.537128,40.537141 0 0 1 -0.590416,-0.213695 L 26.41266,33.680182 c -0.237641,-0.08856 -0.630945,-0.234878 -0.873192,-0.326991 L 25.098266,33.1874 21.754714,33.346744 c -1.839411,0.08856 -3.504747,0.17041 -3.700933,0.182385 -0.196192,0.01172 -0.356461,0.0082 -0.356461,-0.01173 0,-0.03679 0.296589,-0.512122 1.026091,-1.645988 l 0.235799,-0.365668 0.0082,-2.647213 0.0082,-2.646286 0.181461,-1.81363 c 0.100348,-0.997542 0.170399,-1.831125 0.156583,-1.85323 -0.01376,-0.0221 -0.0063,-0.06267 0.01567,-0.09026 0.02299,-0.02759 0.05154,-0.178683 0.06441,-0.336194 l 0.0221,-0.285541 -0.287381,0.02952 a 1.8440207,1.8440213 0 0 0 -0.351852,0.05976 1.7675701,1.7675707 0 0 1 -0.345414,0.05812 c -0.931186,0.09025 -1.667134,0.260683 -2.265846,0.525961 a 4.2241144,4.2241158 0 0 1 -0.306671,0.128955 c -0.05722,0 -1.922308,0.875041 -2.241008,1.050968 -0.336192,0.18698 -0.435674,0.230267 -0.561867,0.242244 a 0.97543364,0.97543396 0 0 0 -0.194148,0.143648 c -0.188825,0.163037 -0.562787,0.307648 -0.89438,0.345412 -0.175006,0.02029 -0.308564,0 -0.538836,-0.06355 -0.27264,-0.08015 -0.342643,-0.124367 -0.650282,-0.414519 -0.268909,-0.2533 -0.379441,-0.39423 -0.500106,-0.64016 -0.140928,-0.287385 -0.155669,-0.350942 -0.162115,-0.712011 -0.0047,-0.349096 0.0056,-0.418172 0.09858,-0.579355 0.127102,-0.219229 0.458702,-0.451348 0.700021,-0.488191 a 0.80871632,0.80871657 0 0 0 0.355544,-0.177766 c 0.101277,-0.08285 0.336195,-0.26435 0.521335,-0.402515 1.457165,-1.081364 2.097317,-1.611905 2.097317,-1.734409 0,-0.0405 0.71108,-1.250846 0.830821,-1.413872 0.126192,-0.172249 0.511208,-0.469765 0.792142,-0.609769 0.250539,-0.127101 0.847397,-0.342641 1.188202,-0.431065 0.640161,-0.163946 0.578449,-0.132629 0.497396,-0.25237 -0.03968,-0.05813 -0.488179,-0.564625 -0.995699,-1.125563 -0.508437,-0.560954 -0.952404,-1.072156 -0.986489,-1.135711 -0.03405,-0.06441 -0.211852,-0.465143 -0.396067,-0.890695 -0.18422,-0.426467 -0.373963,-0.859379 -0.421858,-0.962542 -0.213692,-0.459618 -0.248692,-0.561854 -0.248692,-0.726737 0,-0.206323 0.0782,-0.330669 0.267115,-0.420934 0.298427,-0.144609 0.420935,-0.07006 1.120046,0.677001 a 46.08301,46.083028 0 0 0 1.380712,1.390844 c 0.725817,0.700025 1.459001,1.540061 1.642297,1.882706 0.116093,0.215542 0.613451,0.830825 0.841883,1.038992 0.142763,0.131713 0.2754,0.216455 0.33527,0.216455 0.232114,0 0.571999,-0.227511 1.02978,-0.690823 0.91556,-0.92569 1.673619,-1.639536 1.96929,-1.854144 0.368427,-0.268956 1.975736,-1.04268 2.789977,-1.344795 0.320541,-0.117863 0.622648,-0.232119 0.669632,-0.251465 0.04796,-0.02027 0.164874,-0.0589 0.259745,-0.08649 a 0.82805916,0.82805944 0 0 0 0.214613,-0.08649 0.18882323,0.18882329 0 0 1 0.107758,-0.03679 c 0.03679,0 0.359233,-0.105939 0.715693,-0.233959 1.143994,-0.409888 1.177146,-0.415414 1.41571,-0.224745 0.180528,0.143689 0.239489,0.327907 0.165791,0.515809 -0.138157,0.349097 -1.228732,1.805331 -1.832962,2.446412 -0.736875,0.781091 -1.140312,1.040829 -2.408649,1.554798 -1.469138,0.595947 -1.52809,0.627271 -1.956401,1.061097 -0.248679,0.250537 -0.685277,0.99938 -0.620804,1.062935 0.01661,0.01563 0.111413,0 0.21185,-0.03965 1.232416,-0.462388 1.680986,-0.617127 2.344168,-0.814242 0.428309,-0.126189 0.817011,-0.245935 0.864906,-0.26435 a 2.855376,2.8553769 0 0 1 0.346329,-0.08484 c 0.142765,-0.02759 0.288302,-0.06441 0.324223,-0.08106 0.03595,-0.0184 0.259746,-0.05518 0.497387,-0.08384 a 5.0936234,5.0936252 0 0 0 0.518578,-0.08108 c 0.04802,-0.0156 0.437509,-0.0156 0.86582,0 0.673313,0.02301 0.822535,0.0414 1.107151,0.133557 1.23702,0.402519 2.327592,1.161497 3.555401,2.47589 0.513965,0.550814 0.861226,1.037143 1.172546,1.643224 0.398833,0.775553 0.443968,0.947794 0.565554,2.145224 0.162111,1.596242 0.383165,3.597767 0.496464,4.49583 0.211848,1.681906 0.342646,2.65274 0.368435,2.741163 0.0097,0.03412 0.04049,0.232116 0.06643,0.439358 0.0258,0.207241 0.113314,0.770032 0.196195,1.252681 0.08195,0.480811 0.14921,0.94504 0.14921,1.029785 0,0.151058 -0.0029,0.15382 -0.200793,0.18053 a 3.6935674,3.6935685 0 0 1 -0.356466,0.02759 c -0.130793,0 -0.206323,0.04598 -0.459624,0.272639 -0.165794,0.147376 -0.32422,0.269888 -0.351851,0.269888 -0.02677,0 -0.1308,-0.13172 -0.232124,-0.29291 l -0.18215,-0.292974 h -0.236717 c -0.214614,0 -0.267114,0.02029 -0.568308,0.220138 a 6.4135443,6.4135466 0 0 0 -0.416265,0.292853 c -0.04598,0.04049 -0.104915,0.06808 -0.128962,0.05982 -0.07186,-0.02212 -0.148292,-0.28095 -0.151056,-0.505693 l -0.0025,-0.204483 -0.283696,0.02759 c -0.156577,0.01661 -0.429218,0.05811 -0.607906,0.09409 -0.408972,0.08193 -0.485422,0.06178 -0.368444,-0.09858 0.04598,-0.0644 0.291066,-0.4237 0.543442,-0.798587 l 0.460542,-0.683449 -0.07,-0.593184 a 47.853343,47.853361 0 0 1 -0.09396,-0.855653 c -0.01376,-0.144605 -0.04134,-0.272641 -0.06179,-0.285529 -0.02024,-0.0097 -0.03679,-0.06441 -0.03679,-0.118854 0,-0.05435 -0.09568,-0.291986 -0.21185,-0.530542 l -0.34421,-0.706422 c -0.07371,-0.149196 -0.230337,-0.441184 -0.350081,-0.64843 l -0.216424,-0.375805 -0.271723,0.0097 c -0.466065,0.02029 -0.455015,0.01292 -0.486335,0.333432 -0.01473,0.155665 -0.04598,0.315013 -0.06809,0.355539 a 0.4117269,0.41172706 0 0 0 -0.04142,0.171328 c 0,0.05347 -0.02847,0.190665 -0.06438,0.303953 a 5.8028614,5.8028633 0 0 0 -0.128882,0.602434 c -0.03679,0.218305 -0.08483,0.491866 -0.10692,0.607007 -0.0221,0.115107 -0.06267,0.350007 -0.08939,0.523165 -0.02759,0.17225 -0.0673,0.397916 -0.08746,0.502001 -0.02029,0.103268 -0.0589,0.328829 -0.08571,0.501994 -0.02677,0.173165 -0.0673,0.392381 -0.08942,0.489101 -0.08106,0.359221 -0.05609,0.404357 0.68713,1.263735 0.264355,0.303953 0.43015,0.528702 0.402517,0.545282 a 2.9309053,2.9309064 0 0 1 -0.382234,0.102234 c -0.67239,0.149219 -0.882402,0.202642 -1.330051,0.339882 -0.396993,0.120648 -0.515813,0.128951 -0.685287,0.04234 z m -4.443331,-1.903898 c 0.566477,-0.587644 0.732268,-0.786606 0.834504,-1.003984 0.277248,-0.589498 0.342651,-0.729504 0.600548,-1.307024 0.147382,-0.327909 0.267121,-0.64476 0.267121,-0.701869 -0.0011,-0.08106 -0.968986,-2.450091 -1.017803,-2.490621 a 34.379653,34.379664 0 0 0 -1.374268,-0.386862 0.47343982,0.47343996 0 0 1 -0.159357,-0.05977 c -0.07729,-0.05888 -0.172226,0.0082 -0.524089,0.357386 l -0.315014,0.315007 0.0258,0.222906 c 0.04891,0.408046 0.108653,0.847401 0.151979,1.100705 0.02304,0.138169 0.101271,0.627257 0.173172,1.086884 0.07186,0.46054 0.149213,0.950564 0.172238,1.088726 0.02395,0.138166 0.101277,0.627264 0.172253,1.087812 0.07096,0.460537 0.149209,0.92753 0.173156,1.038984 0.02393,0.11053 0.04334,0.248695 0.04334,0.306724 0,0.0572 0.01559,0.0986 0.035,0.09119 a 18.974438,18.974444 0 0 0 0.74147,-0.746087 z"
     id="path6036-2"
     style="fill:#b7ebe1;fill-opacity:1;stroke-width:1.05" />
  <path
     d="m 28.150756,34.329551 a 4.6883435,4.6883451 0 0 0 -0.411728,-0.16303 40.537128,40.537141 0 0 1 -0.590416,-0.213695 L 26.41266,33.679262 A 107.12265,107.12269 0 0 1 25.539468,33.353191 L 25.098266,33.1874 21.754714,33.346744 c -1.839411,0.08856 -3.504747,0.17041 -3.700933,0.182385 -0.196192,0.01172 -0.356461,0.0082 -0.356461,-0.01173 0,-0.03679 0.296589,-0.512122 1.026091,-1.645988 l 0.235799,-0.365668 0.0082,-2.647213 0.0082,-2.646286 0.181461,-1.81363 c 0.100348,-0.997542 0.170399,-1.831125 0.156583,-1.85323 -0.01376,-0.0221 -0.0063,-0.06267 0.01567,-0.09026 0.02299,-0.02759 0.05154,-0.178683 0.06441,-0.336194 l 0.0221,-0.285541 -0.287381,0.02952 a 1.8440207,1.8440213 0 0 0 -0.351852,0.05976 1.7675701,1.7675707 0 0 1 -0.345414,0.05812 c -0.931186,0.09025 -1.667134,0.260683 -2.265846,0.525961 a 4.2241144,4.2241158 0 0 1 -0.306671,0.128955 c -0.05722,0 -1.922308,0.875041 -2.241008,1.050968 -0.336192,0.18698 -0.435674,0.230267 -0.561867,0.242244 a 0.97543364,0.97543396 0 0 0 -0.194148,0.143648 c -0.188825,0.163037 -0.562787,0.307648 -0.89438,0.345412 -0.175006,0.02029 -0.308564,0 -0.538836,-0.06355 -0.27264,-0.08015 -0.342643,-0.124367 -0.650282,-0.414519 -0.268909,-0.2533 -0.379441,-0.39423 -0.500106,-0.64016 -0.140928,-0.287385 -0.155669,-0.350942 -0.162115,-0.712011 -0.0047,-0.349096 0.0056,-0.418172 0.09858,-0.579355 0.127102,-0.219229 0.458702,-0.451348 0.700021,-0.488191 a 0.80871632,0.80871657 0 0 0 0.355544,-0.177766 c 0.101277,-0.08285 0.336195,-0.26435 0.521335,-0.402515 1.457165,-1.081364 2.097317,-1.611905 2.097317,-1.734409 0,-0.0405 0.71108,-1.250846 0.830821,-1.413872 0.126192,-0.172249 0.511208,-0.469765 0.792142,-0.609769 0.250542,-0.127089 0.847401,-0.342627 1.188205,-0.431053 0.640158,-0.163958 0.578445,-0.132641 0.497392,-0.252382 a 36.650133,36.650145 0 0 0 -0.99542,-1.125619 c -0.508363,-0.560997 -0.952334,-1.072203 -0.986412,-1.135761 -0.03411,-0.0644 -0.211851,-0.465138 -0.396067,-0.890692 -0.184214,-0.426462 -0.373958,-0.859378 -0.421856,-0.962541 -0.213693,-0.459618 -0.248694,-0.561862 -0.248694,-0.726737 0,-0.20632 0.07821,-0.330668 0.267118,-0.420934 0.29843,-0.144613 0.420937,-0.07008 1.120037,0.676999 a 46.082091,46.082105 0 0 0 1.380786,1.39083 c 0.725818,0.700031 1.459002,1.540064 1.642299,1.882714 0.116085,0.215542 0.613449,0.83082 0.841879,1.038988 0.142761,0.131715 0.275402,0.216456 0.335278,0.216456 0.232113,0 0.571995,-0.227508 1.029776,-0.690822 0.915561,-0.925686 1.673614,-1.63954 1.969289,-1.854149 0.368433,-0.268956 1.975735,-1.04267 2.789975,-1.344793 0.320544,-0.117859 0.622653,-0.232117 0.669637,-0.25146 0.04798,-0.0203 0.164876,-0.05889 0.259742,-0.08648 a 0.82805916,0.82805944 0 0 0 0.214617,-0.08649 0.18882323,0.18882329 0 0 1 0.107759,-0.03679 c 0.03679,0 0.359233,-0.105931 0.715693,-0.233956 1.143992,-0.409891 1.177146,-0.415421 1.415715,-0.22475 0.180528,0.143696 0.239485,0.327906 0.165794,0.515809 -0.138159,0.349097 -1.228736,1.805331 -1.832973,2.44641 -0.73687,0.781087 -1.140305,1.040831 -2.408646,1.554803 -1.469136,0.595951 -1.528085,0.627267 -1.956398,1.061089 -0.248679,0.250544 -0.685284,0.999388 -0.620808,1.062941 0.01661,0.01562 0.111433,0 0.211852,-0.03969 1.232419,-0.462386 1.680987,-0.617126 2.344168,-0.814244 0.428308,-0.126185 0.817014,-0.245933 0.864904,-0.264355 a 2.855376,2.8553769 0 0 1 0.346334,-0.08482 c 0.142763,-0.02759 0.288302,-0.06441 0.32422,-0.08106 0.03595,-0.0184 0.259746,-0.05518 0.497385,-0.08384 0.237649,-0.02848 0.471601,-0.06441 0.518575,-0.08107 0.04802,-0.01562 0.437518,-0.01562 0.865826,0 0.673317,0.02302 0.822535,0.04135 1.10715,0.133556 1.237021,0.402514 2.327594,1.161491 3.555407,2.475892 0.513967,0.550811 0.861215,1.037142 1.172542,1.64322 0.398835,0.775559 0.443964,0.947793 0.565547,2.145219 0.162115,1.596245 0.383177,3.597775 0.497393,4.495836 0.21185,1.681908 0.34172,2.652737 0.368432,2.741157 0.0083,0.03408 0.0397,0.232122 0.06442,0.439358 0.02486,0.207248 0.114167,0.770034 0.197117,1.252686 0.08197,0.480812 0.149217,0.945041 0.149217,1.029774 0,0.151067 -0.0029,0.153828 -0.200802,0.180539 a 3.6935674,3.6935685 0 0 1 -0.356459,0.02759 c -0.130794,0 -0.206322,0.04598 -0.459623,0.272642 -0.165798,0.147373 -0.324227,0.269885 -0.351861,0.269885 -0.02677,0 -0.130797,-0.131722 -0.232114,-0.292914 l -0.181963,-0.29294 h -0.236724 c -0.214615,0 -0.267116,0.02027 -0.568313,0.219215 A 6.4089389,6.408941 0 0 0 32.90175,33.85989 c -0.04598,0.03969 -0.104157,0.06641 -0.128961,0.05889 -0.07186,-0.0221 -0.148291,-0.28093 -0.151054,-0.505676 l -0.0025,-0.204482 -0.283697,0.02759 a 7.5713535,7.5713559 0 0 0 -0.607915,0.09409 c -0.408968,0.08107 -0.485424,0.06077 -0.368437,-0.09863 0.04598,-0.0644 0.291066,-0.423711 0.543439,-0.799515 l 0.460551,-0.682512 -0.06898,-0.593186 a 47.853343,47.853361 0 0 1 -0.0949,-0.856605 c -0.01377,-0.14369 -0.04132,-0.271721 -0.06174,-0.283696 -0.02032,-0.01291 -0.03679,-0.06641 -0.03679,-0.119738 0,-0.05347 -0.09567,-0.291989 -0.211846,-0.530546 l -0.3443,-0.706478 C 31.471,28.510184 31.314362,28.217271 31.194622,28.010946 l -0.216456,-0.37672 -0.271716,0.01169 c -0.466071,0.01931 -0.455021,0.01291 -0.486339,0.333439 -0.01472,0.155656 -0.04598,0.315011 -0.06809,0.35554 a 0.4117269,0.41172706 0 0 0 -0.04142,0.170401 c 0,0.05518 -0.02849,0.191582 -0.06441,0.303953 a 5.8019403,5.8019422 0 0 0 -0.128928,0.603316 c -0.03679,0.218302 -0.08484,0.491869 -0.106929,0.606079 -0.02212,0.115121 -0.06268,0.350013 -0.0894,0.523174 -0.02676,0.173172 -0.06642,0.398837 -0.08748,0.501999 -0.02027,0.104125 -0.05888,0.329747 -0.0857,0.502913 -0.02759,0.172249 -0.06731,0.392384 -0.08939,0.488173 -0.08106,0.359229 -0.05608,0.405282 0.687135,1.263739 0.264356,0.304883 0.430151,0.529622 0.402517,0.5462 a 2.9309053,2.9309064 0 0 1 -0.382251,0.101279 c -0.672398,0.150133 -0.882406,0.203558 -1.330049,0.340802 -0.396992,0.119743 -0.515811,0.128031 -0.685293,0.04235 z m 0.621735,-0.900829 c -0.09667,-0.214616 -0.167636,-0.396063 -0.159348,-0.405277 0.0082,-0.0083 0.12435,0.11332 0.257907,0.270796 0.377655,0.446733 0.375813,0.445812 0.632781,0.386861 0.119748,-0.02759 0.218304,-0.05972 0.218304,-0.07096 0,-0.0097 -0.16119,-0.239482 -0.359224,-0.507525 A 32.56603,32.56604 0 0 1 28.97237,32.561946 c -0.0184,-0.02759 0.175007,-1.259129 0.429225,-2.735641 0.46055,-2.67116 0.462393,-2.684055 0.375806,-2.752208 a 85.817878,85.817906 0 0 0 -0.515803,-0.387766 5.4500845,5.4500863 0 0 1 -0.634637,-0.554485 c -0.20725,-0.233963 -0.232116,-0.314094 -0.04334,-0.142774 0.210007,0.190667 0.09492,-0.04137 -0.275408,-0.554499 -0.316856,-0.43936 -0.380408,-0.555419 -0.410802,-0.749767 -0.03767,-0.245924 -0.0021,-0.87872 0.05058,-0.87872 0.01661,0 0.04236,0.13909 0.05518,0.309488 0.01472,0.19343 0.05811,0.371204 0.112393,0.470679 0.0489,0.08848 0.226587,0.462385 0.396062,0.830819 0.167638,0.368442 0.328825,0.698192 0.3583,0.733194 0.05722,0.07003 0.672395,0.533304 0.987416,0.741481 0.116069,0.07727 0.211846,0.177763 0.227502,0.239481 0.01565,0.05811 0.05518,0.105916 0.08853,0.105916 0.03316,0 0.241331,-0.06732 0.463315,-0.149214 0.39054,-0.14368 0.555413,-0.239477 0.555413,-0.322378 0,-0.02125 0.02759,-0.09862 0.0618,-0.170406 0.398828,-0.854768 0.50844,-1.170707 0.477121,-1.382547 -0.0166,-0.118848 -0.01473,-0.120664 0.02023,-0.02579 0.07729,0.211849 0.04598,0.402516 -0.140916,0.838189 -0.102299,0.240409 -0.211863,0.482655 -0.241332,0.536075 a 0.29014306,0.29014317 0 0 0 -0.03131,0.184219 0.48541397,0.48541415 0 0 1 -0.04141,0.239479 l -0.06441,0.156589 0.589493,1.031616 c 0.614373,1.072153 0.665956,1.197417 0.774647,1.888242 0.121576,0.769104 0.271711,1.484793 0.325135,1.545583 0.04235,0.0497 0.0082,0.113324 -0.179604,0.345407 -0.462389,0.569233 -0.608836,0.769113 -0.583968,0.79214 0.0397,0.0397 0.467907,-0.07001 0.645671,-0.163952 0.161193,-0.08571 0.267118,-0.07275 0.170406,0.02124 -0.08106,0.07824 -0.05987,0.116969 0.06267,0.116969 h 0.114156 l -0.03049,0.257901 c -0.03405,0.292912 -0.06808,0.294753 0.333438,-0.02124 0.165797,-0.130789 0.218296,-0.152896 0.267119,-0.112379 a 0.25790495,0.25790503 0 0 0 0.162117,0.03967 0.44488604,0.44488618 0 0 1 0.175003,0.02212 0.50291467,0.50291485 0 0 0 0.221974,0.0083 l 0.145539,-0.02759 0.05811,0.251459 c 0.06808,0.297516 0.117861,0.282777 0.236721,-0.07004 0.111433,-0.333434 0.126188,-0.34633 0.396066,-0.34633 0.202643,0 0.23212,-0.0083 0.211855,-0.07362 a 8.5311275,8.5311302 0 0 1 -0.09201,-0.574702 c -0.102249,-0.750466 -0.443992,-3.09832 -0.495571,-3.409644 -0.193437,-1.166109 -0.520424,-4.148594 -0.605153,-5.521012 -0.05435,-0.863973 -0.117861,-1.10622 -0.476203,-1.821895 -0.51581,-1.02978 -1.503219,-2.131412 -2.664714,-2.975126 -0.651203,-0.473426 -1.130163,-0.722126 -1.805323,-0.936738 l -0.424623,-0.135399 -0.828985,0.02125 c -0.863055,0.02124 -1.20571,0.07096 -2.063234,0.294748 a 33.564488,33.564498 0 0 0 -2.876568,0.948731 l -0.810557,0.324221 c -0.0894,0.03597 -0.162112,0.08571 -0.162112,0.11144 0,0.126191 0.365668,0.618981 0.713838,0.961632 0.541609,0.533306 0.657661,0.6116 0.948726,0.640152 0.305805,0.03131 0.359229,0.09667 0.07823,0.09667 -0.291068,0 -0.490934,-0.133552 -1.079519,-0.723968 -0.455015,-0.45594 -0.531466,-0.559095 -0.850164,-1.154124 -0.214607,-0.397913 0.104921,-1.27203 0.687135,-1.879021 0.407118,-0.426467 0.787531,-0.653978 1.642307,-0.987413 0.405275,-0.157512 0.988322,-0.4062 1.298731,-0.552648 0.46331,-0.221065 0.623574,-0.322384 0.918314,-0.584899 0.559116,-0.497386 1.261905,-1.334654 1.883641,-2.241017 0.340799,-0.498299 0.393305,-0.613431 0.257901,-0.559089 -0.04234,0.01661 -0.202638,0.07364 -0.357377,0.126185 -2.102852,0.722137 -2.242853,0.773722 -3.062632,1.109912 -1.26649,0.520417 -1.938887,0.898061 -2.597464,1.459007 -0.150141,0.128952 -0.595949,0.56924 -0.990173,0.980041 -0.736872,0.766342 -1.033462,1.01596 -1.37795,1.15873 -0.398835,0.165799 -0.792138,0.05347 -1.146761,-0.327909 a 10.944383,10.944386 0 0 1 -0.879727,-1.117877 c -0.33804,-0.513046 -0.755288,-0.985563 -1.643223,-1.860598 a 81.295332,81.295358 0 0 1 -1.381631,-1.393605 c -0.257905,-0.270801 -0.477121,-0.485419 -0.486332,-0.477133 -0.0083,0.0083 0.05058,0.161194 0.133559,0.337119 0.08285,0.176856 0.237636,0.52318 0.341719,0.770955 0.10491,0.247773 0.230271,0.534226 0.277251,0.637397 0.340802,0.736867 0.308564,0.694496 1.598088,2.11574 l 1.255444,1.383479 -0.394227,0.07186 c -0.824376,0.148298 -1.861516,0.490022 -2.278775,0.749765 -0.338958,0.211851 -0.408961,0.300282 -0.90911,1.153205 -0.400677,0.68437 -0.487256,0.801354 -0.796745,1.088728 -0.190662,0.176855 -0.709236,0.589499 -1.154126,0.918326 -0.443962,0.328829 -0.890696,0.668711 -0.992014,0.755293 l -0.184215,0.158429 0.331592,0.177766 c 0.184217,0.09775 0.333434,0.18422 0.333434,0.19343 0,0.0083 -0.138164,-0.03047 -0.308566,-0.08649 -0.466067,-0.152895 -0.669632,-0.167636 -0.915561,-0.06441 -0.172243,0.07186 -0.222903,0.119735 -0.294747,0.278158 -0.08014,0.175015 -0.08383,0.218307 -0.03769,0.482652 0.07652,0.439365 0.432909,0.902678 0.863978,1.127418 0.189744,0.09777 0.640153,0.07561 0.887008,-0.04331 0.184215,-0.08941 0.236715,-0.143697 0.357378,-0.373043 0.114174,-0.2183 0.140932,-0.318699 0.142773,-0.543446 0.0038,-0.396066 0.06266,-0.507518 0.09861,-0.19159 0.06175,0.537918 0.08285,0.689906 0.0986,0.689906 0.0083,0 0.507521,-0.233961 1.108997,-0.520422 1.185439,-0.56464 2.128632,-0.966229 2.606678,-1.108999 0.272642,-0.08285 0.547126,-0.129874 2.054029,-0.359234 1.020566,-0.153818 1.531775,-0.363826 1.980341,-0.814241 l 0.146459,-0.147374 -0.101277,0.184218 c -0.119742,0.218304 -0.349093,0.415413 -0.666868,0.576603 -0.27264,0.138161 -0.24869,0.06356 -0.340802,1.084121 a 288.76146,288.76155 0 0 1 -0.175005,1.84126 l -0.174091,1.774012 c -0.04598,0.481733 -0.06267,1.293217 -0.06267,3.157497 v 2.509048 L 19.072656,32.1346 c -0.195274,0.288296 -0.391463,0.564624 -0.436596,0.615286 -0.121578,0.133556 -0.05812,0.180536 0.244086,0.180536 h 0.269886 l 0.16211,-0.205407 c 0.256063,-0.324228 0.308569,-0.343569 0.182371,-0.06642 a 2.0724504,2.072451 0 0 1 -0.159345,0.299349 c -0.03598,0.04141 -0.02759,0.06266 0.03045,0.08372 0.08285,0.0305 2.991701,-0.128946 3.030384,-0.16579 0.03415,-0.0322 -0.15659,-1.368742 -0.396073,-2.790901 -0.03775,-0.218327 -0.125289,-0.773742 -0.195293,-1.234286 -0.07004,-0.460544 -0.154745,-0.99662 -0.189743,-1.191891 a 15.159285,15.15929 0 0 1 -0.09119,-0.593206 l -0.02954,-0.237652 0.2754,-0.285538 c 0.151077,-0.156553 0.386873,-0.40801 0.522276,-0.557226 l 0.246857,-0.270805 0.142769,0.05434 c 0.265273,0.101279 3.480792,1.136631 3.530532,1.136631 0.09409,0 0.04893,-0.08017 -0.181454,-0.322384 a 2.2732476,2.2732483 0 0 1 -0.283655,-0.347198 c -0.0681,-0.136324 0.27447,0.215526 0.544351,0.559098 0.110532,0.140927 0.333433,0.409881 0.494628,0.59686 0.252377,0.292908 0.307638,0.337123 0.403432,0.318701 0.08285,-0.01475 0.110527,0 0.110527,0.04889 0,0.03767 -0.142775,0.618978 -0.317776,1.291366 -0.767269,2.951174 -0.993854,3.868577 -0.969909,3.929373 0.01661,0.03968 0.371197,0.175003 0.937667,0.357379 l 0.911878,0.293825 v -0.264329 c 0,-0.145534 -0.0184,-0.276331 -0.04332,-0.290146 -0.02487,-0.01381 -0.04234,-0.05812 -0.04135,-0.09668 0.0024,-0.128956 0.11239,0.05722 0.280012,0.476205 l 0.156577,0.391459 0.331594,0.01172 c 0.184221,0.0083 0.3491,0 0.368444,-0.01291 0.0184,-0.01384 -0.04514,-0.200797 -0.140929,-0.414497 z m -0.542516,-9.047854 c 0.04426,-0.372128 0.104915,-0.445814 0.106926,-0.128959 8.8e-4,0.278173 -0.02675,0.39054 -0.09492,0.39054 -0.02679,0 -0.03131,-0.09567 -0.01174,-0.261581 z M 11.710241,23.500301 c -0.06901,-0.04888 -0.07652,-0.08648 -0.04893,-0.242243 0.04326,-0.243174 0.04326,-0.362908 0.0015,-0.539758 l -0.03403,-0.147378 0.112389,0.101267 c 0.06266,0.05518 0.175934,0.217375 0.254225,0.361987 0.11786,0.221062 0.133558,0.281853 0.09775,0.38133 -0.04968,0.138166 -0.246856,0.181459 -0.383175,0.08482 z m -0.753454,-0.419095 a 0.36106706,0.36106718 0 0 1 -0.09406,-0.221058 c 0,-0.06909 -0.02297,-0.147373 -0.05155,-0.175008 -0.03046,-0.02951 -0.03316,-0.05058 -0.0083,-0.05058 0.09117,0 0.280935,0.243171 0.305805,0.39055 0.02954,0.177767 -0.0166,0.194347 -0.151059,0.05611 z m 7.401872,-3.42645 c -0.133561,-0.06178 -0.229349,-0.280931 -0.229349,-0.525024 0,-0.198036 0.0055,-0.209092 0.162109,-0.276329 0.17685,-0.07363 0.247771,-0.08483 0.504761,-0.07452 0.165791,0.0083 0.167635,0.0083 0.09026,0.09023 -0.04334,0.04598 -0.05971,0.08285 -0.03678,0.08285 0.06441,0 0.187903,0.233967 0.187903,0.357391 0,0.164874 -0.26343,0.396987 -0.445813,0.393303 a 0.7046332,0.70463344 0 0 1 -0.233019,-0.04689 z m -0.402516,-0.974511 c 0,-0.0089 0.09666,-0.06641 0.215535,-0.124353 a 0.87687685,0.87687715 0 0 1 0.465149,-0.10034 l 0.249617,0.0083 -0.237644,0.03045 c -0.130795,0.0184 -0.340802,0.07098 -0.465148,0.119739 -0.125268,0.04888 -0.227509,0.07929 -0.227509,0.06904 z m -0.690815,-1.056494 c 0,-0.05889 0.368435,-0.212771 0.72121,-0.302119 0.366596,-0.09307 0.582128,-0.110518 0.272641,-0.02124 -0.288298,0.08285 -0.810557,0.262509 -0.909112,0.313173 -0.04598,0.02482 -0.08572,0.02849 -0.08572,0.0082 z m 6.357362,-1.954553 c 0,-0.0097 0.306716,-0.30764 0.681607,-0.6595 0.374878,-0.350014 0.764492,-0.718445 0.865811,-0.817005 0.100369,-0.09857 0.183304,-0.162114 0.183304,-0.140921 0,0.04598 -0.68437,0.871345 -0.816088,0.984641 -0.149213,0.128952 -0.120651,0.193427 0.06268,0.143689 0.216454,-0.05721 0.239481,-0.0082 0.03503,0.07363 -0.09205,0.03678 -0.347251,0.150145 -0.564629,0.251456 -0.394225,0.182373 -0.447645,0.202636 -0.447645,0.163952 z m 0.08487,16.756455 c 0.566472,-0.587644 0.732269,-0.786606 0.834506,-1.003984 0.27725,-0.589498 0.342643,-0.729504 0.60055,-1.307024 0.147377,-0.327909 0.267117,-0.64476 0.267117,-0.701869 -0.0011,-0.08106 -0.968985,-2.450091 -1.017801,-2.490621 a 34.379653,34.379664 0 0 0 -1.374263,-0.386862 0.47343982,0.47343996 0 0 1 -0.15935,-0.05972 c -0.07728,-0.0589 -0.172241,0.0082 -0.524102,0.357382 l -0.315007,0.315017 0.0258,0.222899 c 0.0489,0.40804 0.108653,0.847399 0.151982,1.100703 0.02304,0.138162 0.101268,0.627262 0.173163,1.086882 0.07186,0.460549 0.149221,0.950565 0.172246,1.088731 0.02397,0.138162 0.101281,0.627261 0.172241,1.087806 0.071,0.460535 0.149227,0.927537 0.173174,1.038987 0.02395,0.110528 0.0433,0.248696 0.0433,0.306727 0,0.05722 0.01567,0.09862 0.03504,0.09116 a 18.974438,18.974444 0 0 0 0.741479,-0.746089 z"
     fill="#173f4f"
     id="path6038-7"
     style="stroke-width:1.05" />
</svg>
