<?xml version="1.0" encoding="UTF-8" standalone="no"?>
<svg
   xmlns:dc="http://purl.org/dc/elements/1.1/"
   xmlns:cc="http://creativecommons.org/ns#"
   xmlns:rdf="http://www.w3.org/1999/02/22-rdf-syntax-ns#"
   xmlns:svg="http://www.w3.org/2000/svg"
   xmlns="http://www.w3.org/2000/svg"
   xmlns:xlink="http://www.w3.org/1999/xlink"
   xmlns:sodipodi="http://sodipodi.sourceforge.net/DTD/sodipodi-0.dtd"
   xmlns:inkscape="http://www.inkscape.org/namespaces/inkscape"
   width="47.285591"
   height="47.28569"
   version="1.1"
   viewBox="0 0 12.510734 12.51076"
   id="svg12"
   sodipodi:docname="kronometer.svg"
   inkscape:version="1.0.1 (3bc2e813f5, 2020-09-07)">
  <style
     id="style873"></style>
  <metadata
     id="metadata48">
    <rdf:RDF>
      <cc:Work
         rdf:about="">
        <dc:format>image/svg+xml</dc:format>
        <dc:type
           rdf:resource="http://purl.org/dc/dcmitype/StillImage" />
      </cc:Work>
    </rdf:RDF>
  </metadata>
  <defs
     id="defs16">
    <linearGradient
       id="c"
       y1="523.79999"
       x1="403.57001"
       y2="536.79999"
       x2="416.57001"
       gradientUnits="userSpaceOnUse"
       gradientTransform="matrix(0.34526714,0,0,0.34526706,-134.80427,-174.63325)">
      <stop
         stop-color="#292c2f"
         id="stop1568" />
      <stop
         offset="1"
         stop-opacity="0"
         id="stop1570" />
    </linearGradient>
    <linearGradient
       xlink:href="#b-2"
       id="linearGradient4189"
       x1="14.369"
       y1="22.521999"
       x2="26.521999"
       y2="22.521999"
       gradientUnits="userSpaceOnUse" />
    <linearGradient
       x1="36"
       gradientUnits="userSpaceOnUse"
       x2="14"
       y2="12"
       y1="44"
       id="b-2">
      <stop
         style="stop-color:#bfc9c9;stop-opacity:1"
         stop-color="#536161"
         id="stop1579" />
      <stop
         style="stop-color:#fbfbfb;stop-opacity:1"
         stop-color="#f4f5f5"
         offset="1"
         id="stop1581" />
    </linearGradient>
    <linearGradient
       xlink:href="#b-2"
       id="linearGradient4428"
       gradientUnits="userSpaceOnUse"
       x1="31.586"
       y1="36.345001"
       x2="1.2029999"
       y2="6.723" />
    <linearGradient
       xlink:href="#b-2"
       id="linearGradient4189-3"
       x1="14.369"
       y1="22.521999"
       x2="26.521999"
       y2="22.521999"
       gradientUnits="userSpaceOnUse"
       gradientTransform="translate(20.841982,61.553822)" />
    <linearGradient
       xlink:href="#b-2"
       id="linearGradient4428-5"
       gradientUnits="userSpaceOnUse"
       x1="31.586"
       y1="36.345001"
       x2="1.2029999"
       y2="6.723"
       gradientTransform="translate(20.841982,61.553822)" />
    <linearGradient
       xlink:href="#b-2"
       id="linearGradient4189-3-3"
       x1="14.369"
       y1="22.521999"
       x2="26.521999"
       y2="22.521999"
       gradientUnits="userSpaceOnUse"
       gradientTransform="translate(4.376802,4.4211693)" />
    <linearGradient
       xlink:href="#b-2"
       id="linearGradient4428-5-5"
       gradientUnits="userSpaceOnUse"
       x1="31.586"
       y1="36.345001"
       x2="1.2029999"
       y2="6.723"
       gradientTransform="translate(4.376802,4.4211693)" />
    <linearGradient
       inkscape:collect="always"
       xlink:href="#linearGradient14"
       id="linearGradient15"
       x1="-9.6850061"
       y1="45.161198"
       x2="11.98815"
       y2="21.735205"
       gradientUnits="userSpaceOnUse"
       gradientTransform="scale(0.26457813)" />
    <linearGradient
       id="linearGradient14"
       inkscape:collect="always">
      <stop
         style="stop-color:#37c871;stop-opacity:1"
         offset="0"
         id="stop12" />
      <stop
         style="stop-color:#00ccff;stop-opacity:1"
         offset="1"
         id="stop13" />
    </linearGradient>
    <filter
       id="filter2917-3"
       x="-0.96181148"
       y="-0.66745996"
       width="2.9236228"
       height="2.3349199"
       color-interpolation-filters="sRGB">
      <feGaussianBlur
         stdDeviation="0.2871969"
         id="feGaussianBlur732-5" />
    </filter>
    <filter
       id="filter1"
       x="-0.96181148"
       y="-0.66745996"
       width="2.9236228"
       height="2.3349199"
       color-interpolation-filters="sRGB">
      <feGaussianBlur
         stdDeviation="0.2871969"
         id="feGaussianBlur1" />
    </filter>
    <filter
       id="filter2"
       x="-0.96181148"
       y="-0.66745996"
       width="2.9236228"
       height="2.3349199"
       color-interpolation-filters="sRGB">
      <feGaussianBlur
         stdDeviation="0.2871969"
         id="feGaussianBlur2" />
    </filter>
    <linearGradient
       xlink:href="#linearGradient4303"
       id="linearGradient4982"
       y1="500.798"
       y2="503.798"
       x2="0"
       gradientUnits="userSpaceOnUse"
       gradientTransform="matrix(0.26457813,3.2207522e-8,3.2207522e-8,0.26457813,-108.09907,-129.60543)" />
    <linearGradient
       id="linearGradient4303">
      <stop
         style="stop-color:#c6cdd1"
         id="stop7" />
      <stop
         offset="1"
         style="stop-color:#e0e5e7"
         id="stop8" />
    </linearGradient>
    <linearGradient
       xlink:href="#linearGradient4303"
       id="linearGradient4990"
       x1="411.57101"
       x2="405.57101"
       gradientUnits="userSpaceOnUse"
       gradientTransform="matrix(0.26457813,-3.2207522e-8,-3.2207522e-8,0.26457813,-99.118968,-138.58549)" />
    <linearGradient
       xlink:href="#linearGradient4918"
       id="linearGradient4924"
       y1="12.42"
       x1="9.2679996"
       y2="38.819"
       x2="35.667"
       gradientUnits="userSpaceOnUse"
       gradientTransform="scale(0.26457814)" />
    <linearGradient
       id="linearGradient4918">
      <stop
         style="stop-color:#80cafe;stop-opacity:1;"
         id="stop3"
         offset="0" />
      <stop
         offset="1"
         style="stop-color:#5eda92;stop-opacity:1;"
         id="stop4" />
    </linearGradient>
    <linearGradient
       inkscape:collect="always"
       xlink:href="#linearGradient14"
       id="linearGradient881"
       x1="-12.025727"
       y1="6.1170783"
       x2="-0.085100174"
       y2="6.1170783"
       gradientUnits="userSpaceOnUse" />
  </defs>
  <sodipodi:namedview
     id="namedview14"
     pagecolor="#000000"
     bordercolor="#666666"
     borderopacity="1.0"
     inkscape:showpageshadow="2"
     inkscape:pageopacity="0.0"
     inkscape:pagecheckerboard="0"
     inkscape:deskcolor="#d1d1d1"
     showgrid="false"
     inkscape:zoom="8.8545525"
     inkscape:cx="28.981836"
     inkscape:cy="31.897087"
     inkscape:window-width="1920"
     inkscape:window-height="988"
     inkscape:window-x="0"
     inkscape:window-y="0"
     inkscape:window-maximized="1"
     inkscape:current-layer="svg12"
     inkscape:document-rotation="0">
    <inkscape:grid
       type="xygrid"
       id="grid244"
       originx="9.9594769"
       originy="-31.57929"
       spacingy="1"
       spacingx="1"
       units="px"
       visible="false" />
  </sodipodi:namedview>
  <rect
     x="-12.194976"
     y="0.32004508"
     width="11.940627"
     height="11.936014"
     rx="1.6121091"
     shape-rendering="crispEdges"
     id="rect5-6-7-3"
     ry="1.7735944"
     transform="matrix(0.00523883,-0.99998628,0.999988,0.00489859,0,0)"
     style="fill:#80b3ff;fill-opacity:0.15;stroke:url(#linearGradient881);stroke-width:0.5291563;stroke-miterlimit:4;stroke-dasharray:none;stroke-opacity:1" />
  <rect
     x="-3.7202365"
     y="4.8851409"
     width="7.912631"
     height="7.912384"
     rx="1.612043"
     shape-rendering="crispEdges"
     id="rect5-6-6-6-6"
     style="fill:#80b3ff;fill-opacity:0.122146;stroke:url(#linearGradient15);stroke-width:0.39686725;stroke-opacity:1;stroke-miterlimit:4;stroke-dasharray:none"
     ry="1.7735215"
     transform="matrix(0.72612649,-0.68756114,0.6879775,0.72573202,0,0)" />
  <rect
     width="0.40513098"
     x="0.0029418911"
     y="4.1914496"
     height="0.81026196"
     style="fill:#00ccff;stroke-width:0.529157;stroke-linecap:round;stroke-linejoin:round"
     id="rect8"
     transform="rotate(-45.000007)" />
  <rect
     width="1.2153927"
     x="-0.40219137"
     y="3.9888847"
     rx="0.2645781"
     height="0.40513098"
     style="fill:url(#linearGradient4982);stroke-width:0.529157;stroke-linecap:round;stroke-linejoin:round"
     id="rect9"
     transform="rotate(-45.000007)"
     ry="0.2645781" />
  <rect
     width="0.40513098"
     x="8.4446363"
     y="-4.6618328"
     height="0.81026196"
     style="fill:#2ad4ff;stroke-width:0.529157;stroke-linecap:round;stroke-linejoin:round"
     id="rect10"
     transform="rotate(45.000007)" />
  <rect
     width="1.2153927"
     x="8.0395021"
     y="-4.864398"
     rx="0.2645781"
     height="0.40513098"
     style="fill:url(#linearGradient4990);stroke-width:0.529157;stroke-linecap:round;stroke-linejoin:round"
     id="rect11"
     transform="rotate(45.000007)"
     ry="0.2645781" />
  <path
     style="fill:url(#linearGradient4924);stroke-width:0.740819;stroke-opacity:0.550265"
     d="m 6.0486526,3.0804565 c -0.1029043,0 -0.2038296,0.0079 -0.3038499,0.0182 v 0.61086 c 0.09984,-0.01223 0.2005596,-0.0214 0.3038499,-0.0214 0.1030053,0 0.2039926,0.0075 0.3038489,0.01862 v -0.611253 c -0.1001093,-0.0092 -0.2012496,-0.01504 -0.3038489,-0.01504 z m 0.5408361,0.04824 -0.1582551,0.589892 c 0.2045921,0.02963 0.4016193,0.08154 0.5879164,0.15509 l 0.1578581,-0.58868 C 6.988739,3.2153725 6.7926198,3.1626495 6.5894887,3.1287235 Z m 0.8090753,0.246877 -0.3046389,0.527382 c 0.1881649,0.08105 0.3631818,0.185243 0.5254037,0.305828 l 0.3058268,-0.53013 C 7.7603697,3.5616725 7.5843868,3.4605135 7.398564,3.3755975 Z m -1.7847167,0.147191 c -0.2010402,0.03111 -0.398147,0.08377 -0.5879174,0.157064 l 0.05222,0.194259 c 0.1894378,-0.07438 0.3868606,-0.12656 0.5883148,-0.155481 z m -0.7109586,0.206924 c -0.1855338,0.08245 -0.3616786,0.18458 -0.5254036,0.30464 l 0.1016784,0.176058 c 0.1631061,-0.121116 0.3396776,-0.222943 0.5261934,-0.303459 z m 3.2145448,0.09337 -0.4336157,0.433619 c 0.1594219,0.126228 0.3034298,0.270237 0.4296597,0.429658 L 8.5470929,4.2527205 C 8.4176299,4.0963565 8.2738012,3.9525275 8.1174335,3.8230635 Z m -3.8459788,0.291594 c -0.1585465,0.12698 -0.3029911,0.270629 -0.4308472,0.428473 l 0.1455939,0.145592 c 0.1254277,-0.159901 0.2689432,-0.304742 0.4276823,-0.431637 z m 4.4200449,0.33036 -0.5301501,0.305827 c 0.1205147,0.162126 0.2248037,0.336964 0.3058254,0.525007 L 8.994555,4.9715975 C 8.9096453,4.7857715 8.8084833,4.6097895 8.6914996,4.4450045 Z M 3.7614803,4.6503395 C 3.641783,4.8143685 3.5400482,4.9907775 3.4580281,5.1765345 l 0.1740793,0.100888 c 0.081317,-0.186359 0.1839425,-0.362666 0.3058266,-0.525409 z m 5.3236747,0.542813 -0.5887031,0.157856 c 0.07355,0.186297 0.1254727,0.383323 0.1550887,0.587917 l 0.5898901,-0.158255 c -0.03392,-0.20313 -0.08665,-0.399246 -0.1562757,-0.587516 z m -5.6813291,0.105239 c -0.072722,0.189701 -0.1248514,0.386671 -0.1554851,0.587514 l 0.1982137,0.05303 c 0.029234,-0.201224 0.081676,-0.398378 0.156276,-0.587526 z m 1.7332768,0.212849 c -0.05611,0 -0.1012822,0.0452 -0.1012822,0.101284 0,0.05611 0.04517,0.101282 0.1012822,0.101282 h 0.202567 c 0.05611,0 0.1012828,-0.0452 0.1012828,-0.101282 0,-0.05609 -0.04517,-0.101284 -0.1012828,-0.101284 z m 1.6205311,0 c -0.05611,0 -0.1012831,0.0452 -0.1012831,0.101284 0,0.05611 0.04517,0.101282 0.1012831,0.101282 h 0.2025661 c 0.05611,0 0.1012831,-0.0452 0.1012831,-0.101282 0,-0.05609 -0.04517,-0.101284 -0.1012831,-0.101284 z m 1.0128279,0 c -0.05611,0 -0.1012829,0.0452 -0.1012829,0.101284 0,0.05611 0.04517,0.101282 0.1012829,0.101282 h 0.2025649 c 0.05611,0 0.1012829,-0.0452 0.1012829,-0.101282 0,-0.05609 -0.04517,-0.101284 -0.1012829,-0.101284 z m -3.2410525,0.202566 c -0.05611,0 -0.1012826,0.04521 -0.1012826,0.101282 v 0.202568 c 0,0.0561 0.045171,0.101283 0.1012826,0.101283 0.056108,0 0.1012826,-0.04521 0.1012826,-0.101283 v -0.202568 c 0,-0.05609 -0.045172,-0.101282 -0.1012826,-0.101282 z m 1.0128267,0 c -0.05611,0 -0.1012834,0.04521 -0.1012834,0.101282 v 0.202568 c 0,0.0561 0.04517,0.101283 0.1012834,0.101283 0.05611,0 0.1012834,-0.04521 0.1012834,-0.101283 v -0.202568 c 0,-0.05609 -0.04517,-0.101282 -0.1012834,-0.101282 z m 0.5064167,0 A 0.20256544,0.20256544 0 0 0 5.846086,5.9163695 0.20256544,0.20256544 0 0 0 6.0486526,6.1189365 0.20256544,0.20256544 0 0 0 6.2512182,5.9163695 0.20256544,0.20256544 0 0 0 6.0486526,5.7138035 Z m 1.1141125,0 c -0.05611,0 -0.1012821,0.04521 -0.1012821,0.101282 v 0.202568 c 0,0.0561 0.04517,0.101283 0.1012821,0.101283 0.05611,0 0.1012829,-0.04521 0.1012829,-0.101283 v -0.202568 c 0,-0.05609 -0.04517,-0.101282 -0.1012829,-0.101282 z m 1.0128274,0 c -0.05611,0 -0.101283,0.04521 -0.101283,0.101282 v 0.202568 c 0,0.0561 0.04517,0.101283 0.101283,0.101283 0.05611,0 0.1012817,-0.04521 0.1012817,-0.101283 v -0.202568 c 0,-0.05609 -0.04517,-0.101282 -0.1012817,-0.101282 z m -4.943077,0.30385 c -0.012032,0.100855 -0.018634,0.202283 -0.019782,0.303848 3.645e-4,0.101521 0.00621,0.202948 0.01741,0.303848 h 0.2061257 c -0.012846,-0.100794 -0.019847,-0.202247 -0.02097,-0.303848 5.874e-4,-0.101573 0.00704,-0.203025 0.019384,-0.303848 z m 5.4308941,0 c 0.0114,0.09985 0.01859,0.200842 0.01859,0.303848 0,0.103004 -0.0072,0.20399 -0.01859,0.303848 h 0.6112541 c 0.0092,-0.100111 0.01502,-0.201249 0.01502,-0.303848 0,-0.1026 -0.0061,-0.203741 -0.01502,-0.303848 z m -3.5263069,0.101283 c -0.05611,0 -0.1012822,0.04518 -0.1012822,0.101279 0,0.0561 0.04517,0.101286 0.1012822,0.101286 h 0.202567 c 0.05611,0 0.1012828,-0.0452 0.1012828,-0.101286 0,-0.05611 -0.04517,-0.101279 -0.1012828,-0.101279 z m 1.6205311,0 c -0.05611,0 -0.1012831,0.04518 -0.1012831,0.101279 0,0.0561 0.04517,0.101286 0.1012831,0.101286 h 0.2025661 c 0.05611,0 0.1012831,-0.0452 0.1012831,-0.101286 0,-0.05611 -0.04517,-0.101279 -0.1012831,-0.101279 z m -2.2282246,0.202565 c -0.05611,0 -0.1012826,0.04519 -0.1012826,0.101283 v 0.202565 c 0,0.05609 0.045171,0.101281 0.1012826,0.101281 0.056108,0 0.1012826,-0.0452 0.1012826,-0.101281 v -0.202565 c 0,-0.0561 -0.045172,-0.101283 -0.1012826,-0.101283 z m 1.0128267,0 c -0.05611,0 -0.1012834,0.04519 -0.1012834,0.101283 v 0.202565 c 0,0.05609 0.04517,0.101281 0.1012834,0.101281 0.05611,0 0.1012834,-0.0452 0.1012834,-0.101281 v -0.202565 c 0,-0.0561 -0.04517,-0.101283 -0.1012834,-0.101283 z m 0.5064167,0 A 0.20256544,0.20256544 0 0 0 5.846086,6.5240725 0.20256544,0.20256544 0 0 0 6.0486526,6.7266355 0.20256544,0.20256544 0 0 0 6.2512182,6.5240725 0.20256544,0.20256544 0 0 0 6.0486526,6.3215065 Z m 1.1141125,0 c -0.05611,0 -0.1012821,0.04519 -0.1012821,0.101283 v 0.202565 c 0,0.05609 0.04517,0.101281 0.1012821,0.101281 0.05611,0 0.1012829,-0.0452 0.1012829,-0.101281 v -0.202565 c 0,-0.0561 -0.04517,-0.101283 -0.1012829,-0.101283 z m 1.0128274,0 c -0.05611,0 -0.101283,0.04519 -0.101283,0.101283 v 0.202565 c 0,0.05609 0.04517,0.101281 0.101283,0.101281 0.05611,0 0.1012817,-0.0452 0.1012817,-0.101281 v -0.202565 c 0,-0.0561 -0.04517,-0.101283 -0.1012817,-0.101283 z m -4.7298293,0.382579 -0.1958395,0.05265 c 0.031147,0.200903 0.083803,0.397876 0.157067,0.587518 L 3.6012481,7.2920155 C 3.5268892,7.1026915 3.4747134,6.9054065 3.4457632,6.7040855 Z m 5.2057774,0 c -0.02962,0.204592 -0.08154,0.401619 -0.1550887,0.587915 l 0.5887031,0.157857 c 0.06962,-0.188269 0.1223477,-0.384387 0.1562757,-0.587517 z m -3.5144379,0.02252 c -0.05611,0 -0.1012822,0.0452 -0.1012822,0.101283 0,0.05611 0.04517,0.101282 0.1012822,0.101282 h 0.202567 c 0.05611,0 0.1012828,-0.04521 0.1012828,-0.101282 0,-0.05609 -0.04517,-0.101283 -0.1012828,-0.101283 z m 1.6205311,0 c -0.05611,0 -0.1012831,0.0452 -0.1012831,0.101283 0,0.05611 0.04517,0.101282 0.1012831,0.101282 h 0.2025661 c 0.05611,0 0.1012831,-0.04521 0.1012831,-0.101282 0,-0.05609 -0.04517,-0.101283 -0.1012831,-0.101283 z m -3.1235481,0.638169 -0.1772448,0.10247 c 0.082447,0.185537 0.1845785,0.361681 0.3046394,0.525406 l 0.176058,-0.101664 C 3.8164291,7.7278805 3.714601,7.5513065 3.6340857,7.3647905 Z m 4.8330892,0.0021 c -0.08104,0.188122 -0.1852407,0.363139 -0.3058254,0.525362 l 0.5301501,0.305817 C 8.8084833,8.0332375 8.9096413,7.8572555 8.994555,7.6714345 Z m -4.4829515,0.589457 -0.142429,0.14243 c 0.1269821,0.158548 0.2706309,0.30299 0.4284734,0.430848 l 0.1455938,-0.14564 c -0.1599,-0.125437 -0.3047437,-0.268952 -0.4316382,-0.427692 z m 4.1292541,4.07e-4 c -0.1262299,0.159404 -0.2702378,0.303412 -0.4296597,0.429645 l 0.4336157,0.433613 c 0.1563677,-0.12947 0.3001964,-0.273299 0.4296594,-0.429669 z m -3.6351054,0.477123 -0.3054308,0.52857 c 0.1646617,0.117054 0.339444,0.221058 0.5250088,0.30622 L 5.0041699,8.7384655 C 4.8162683,8.6572265 4.6404874,8.5543795 4.4783721,8.4338185 Z m 3.1409567,4.06e-4 C 7.4572019,8.5547565 7.282363,8.6590465 7.0943201,8.7400705 l 0.3042439,0.527375 c 0.1858228,-0.084914 0.3618057,-0.18607 0.5265916,-0.303056 z m -2.5407793,0.333898 -0.1586488,0.591082 c 0.1880234,0.06984 0.38419,0.123348 0.5871232,0.15746 l 0.1586518,-0.591492 c -0.2046352,-0.02983 -0.4008734,-0.08326 -0.5871262,-0.15711 z m 1.9406005,0.0013 c -0.1864141,0.07362 -0.3835813,0.125475 -0.5883115,0.15508 l 0.1582542,0.589892 c 0.2032681,-0.03398 0.3995273,-0.08665 0.5879154,-0.15632 z m -1.2743473,0.166092 v 0.612049 c 0.1000333,0.0093 0.2012846,0.015 0.3038499,0.015 0.1025993,0 0.2037396,-0.0062 0.3038489,-0.015 v -0.611268 c -0.09986,0.01143 -0.2008436,0.01862 -0.3038489,0.01862 -0.1030393,0 -0.2040056,-0.0081 -0.3038499,-0.01938 z"
     id="path13" />
</svg>
