<?xml version="1.0" encoding="UTF-8" standalone="no"?>
<svg
   width="47.285591"
   height="47.28569"
   version="1.1"
   viewBox="0 0 12.510734 12.51076"
   id="svg12"
   sodipodi:docname="zmninja.svg"
   inkscape:version="1.4.2 (unknown)"
   xmlns:inkscape="http://www.inkscape.org/namespaces/inkscape"
   xmlns:sodipodi="http://sodipodi.sourceforge.net/DTD/sodipodi-0.dtd"
   xmlns:xlink="http://www.w3.org/1999/xlink"
   xmlns="http://www.w3.org/2000/svg"
   xmlns:svg="http://www.w3.org/2000/svg"
   xmlns:rdf="http://www.w3.org/1999/02/22-rdf-syntax-ns#"
   xmlns:cc="http://creativecommons.org/ns#"
   xmlns:dc="http://purl.org/dc/elements/1.1/">
  <style
     id="style864" />
  <metadata
     id="metadata39">
    <rdf:RDF>
      <cc:Work
         rdf:about="">
        <dc:format>image/svg+xml</dc:format>
        <dc:type
           rdf:resource="http://purl.org/dc/dcmitype/StillImage" />
      </cc:Work>
    </rdf:RDF>
  </metadata>
  <defs
     id="defs16">
    <linearGradient
       id="linearGradient2"
       inkscape:collect="always">
      <stop
         style="stop-color:#525c6b;stop-opacity:1;"
         offset="0"
         id="stop1" />
      <stop
         style="stop-color:#4e5766;stop-opacity:1;"
         offset="1"
         id="stop2" />
    </linearGradient>
    <linearGradient
       id="c"
       y1="523.79999"
       x1="403.57001"
       y2="536.79999"
       x2="416.57001"
       gradientUnits="userSpaceOnUse"
       gradientTransform="matrix(0.34526714,0,0,0.34526706,-134.80427,-174.63325)">
      <stop
         stop-color="#292c2f"
         id="stop1568" />
      <stop
         offset="1"
         stop-opacity="0"
         id="stop1570" />
    </linearGradient>
    <linearGradient
       xlink:href="#b-2"
       id="linearGradient4189"
       x1="14.369"
       y1="22.521999"
       x2="26.521999"
       y2="22.521999"
       gradientUnits="userSpaceOnUse" />
    <linearGradient
       x1="36"
       gradientUnits="userSpaceOnUse"
       x2="14"
       y2="12"
       y1="44"
       id="b-2">
      <stop
         style="stop-color:#bfc9c9;stop-opacity:1"
         stop-color="#536161"
         id="stop1579" />
      <stop
         style="stop-color:#fbfbfb;stop-opacity:1"
         stop-color="#f4f5f5"
         offset="1"
         id="stop1581" />
    </linearGradient>
    <linearGradient
       xlink:href="#b-2"
       id="linearGradient4428"
       gradientUnits="userSpaceOnUse"
       x1="31.586"
       y1="36.345001"
       x2="1.2029999"
       y2="6.723" />
    <linearGradient
       xlink:href="#b-2"
       id="linearGradient4189-3"
       x1="14.369"
       y1="22.521999"
       x2="26.521999"
       y2="22.521999"
       gradientUnits="userSpaceOnUse"
       gradientTransform="translate(20.841982,61.553822)" />
    <linearGradient
       xlink:href="#b-2"
       id="linearGradient4428-5"
       gradientUnits="userSpaceOnUse"
       x1="31.586"
       y1="36.345001"
       x2="1.2029999"
       y2="6.723"
       gradientTransform="translate(20.841982,61.553822)" />
    <linearGradient
       xlink:href="#b-2"
       id="linearGradient4189-3-3"
       x1="14.369"
       y1="22.521999"
       x2="26.521999"
       y2="22.521999"
       gradientUnits="userSpaceOnUse"
       gradientTransform="translate(4.376802,4.4211693)" />
    <linearGradient
       xlink:href="#b-2"
       id="linearGradient4428-5-5"
       gradientUnits="userSpaceOnUse"
       x1="31.586"
       y1="36.345001"
       x2="1.2029999"
       y2="6.723"
       gradientTransform="translate(4.376802,4.4211693)" />
    <linearGradient
       inkscape:collect="always"
       xlink:href="#linearGradient2"
       id="linearGradient15"
       x1="-9.6850061"
       y1="45.161198"
       x2="11.98815"
       y2="21.735205"
       gradientUnits="userSpaceOnUse"
       gradientTransform="scale(0.26457813)" />
    <filter
       id="filter2917-3"
       x="-0.96181148"
       y="-0.66745996"
       width="2.9236228"
       height="2.3349199"
       color-interpolation-filters="sRGB">
      <feGaussianBlur
         stdDeviation="0.2871969"
         id="feGaussianBlur732-5" />
    </filter>
    <filter
       id="filter1"
       x="-0.96181148"
       y="-0.66745996"
       width="2.9236228"
       height="2.3349199"
       color-interpolation-filters="sRGB">
      <feGaussianBlur
         stdDeviation="0.2871969"
         id="feGaussianBlur1" />
    </filter>
    <filter
       id="filter2"
       x="-0.96181148"
       y="-0.66745996"
       width="2.9236228"
       height="2.3349199"
       color-interpolation-filters="sRGB">
      <feGaussianBlur
         stdDeviation="0.2871969"
         id="feGaussianBlur2" />
    </filter>
    <linearGradient
       inkscape:collect="always"
       xlink:href="#linearGradient2"
       id="linearGradient867"
       x1="-12.194976"
       y1="6.2880521"
       x2="-0.25434875"
       y2="6.2880521"
       gradientUnits="userSpaceOnUse" />
  </defs>
  <sodipodi:namedview
     id="namedview14"
     pagecolor="#000000"
     bordercolor="#666666"
     borderopacity="1.0"
     inkscape:showpageshadow="2"
     inkscape:pageopacity="0.0"
     inkscape:pagecheckerboard="0"
     inkscape:deskcolor="#d1d1d1"
     showgrid="false"
     inkscape:zoom="9.0252824"
     inkscape:cx="10.581386"
     inkscape:cy="31.522559"
     inkscape:window-width="1920"
     inkscape:window-height="998"
     inkscape:window-x="0"
     inkscape:window-y="0"
     inkscape:window-maximized="1"
     inkscape:current-layer="svg12"
     inkscape:document-rotation="0">
    <inkscape:grid
       type="xygrid"
       id="grid244"
       originx="9.9594769"
       originy="-31.57929"
       spacingy="1"
       spacingx="1"
       units="px"
       visible="false" />
  </sodipodi:namedview>
  <rect
     x="-12.194976"
     y="0.32004508"
     width="11.940627"
     height="11.936014"
     rx="1.6121091"
     shape-rendering="crispEdges"
     id="rect5-6-7-3"
     ry="1.7735944"
     transform="matrix(0.00523883,-0.99998628,0.999988,0.00489859,0,0)"
     style="fill:#373e48;fill-opacity:0.12;stroke:url(#linearGradient867);stroke-width:0.5291563;stroke-miterlimit:4;stroke-dasharray:none;stroke-opacity:1" />
  <rect
     x="-3.7202365"
     y="4.8851409"
     width="7.912631"
     height="7.912384"
     rx="1.612043"
     shape-rendering="crispEdges"
     id="rect5-6-6-6-6"
     style="fill:#4e5766;fill-opacity:0.41999999;stroke:url(#linearGradient15);stroke-width:0.39686725;stroke-opacity:1;stroke-miterlimit:4;stroke-dasharray:none"
     ry="1.7735215"
     transform="matrix(0.72612649,-0.68756114,0.6879775,0.72573202,0,0)" />
  <g
     id="g1"
     transform="translate(5.1039015,-12.134066)">
    <path
       style="opacity:0.2;stroke-width:0.123451"
       d="m 1.1981125,15.734056 a 2.7462157,2.7167482 0 0 0 -0.59303572,0.05332 2.7462157,2.7167482 0 0 0 -2.19254578,2.519521 l 5.20594,-1.045644 A 2.7462157,2.7167482 0 0 0 1.1981125,15.734056 Z m 1.6402507,2.033125 -1.1957144,0.238012 a 0.61716054,0.60499304 0 0 0 0.010372,0.08608 0.61716054,0.60499304 0 0 0 0.7277951,0.472411 0.61716054,0.60499304 0 0 0 0.4819024,-0.713317 0.61716054,0.60499304 0 0 0 -0.024351,-0.08326 z m -2.48327787,0.482782 -1.18366118,0.238009 a 0.61097906,0.60499304 0 0 0 0.0103621,0.08609 0.61097906,0.60499304 0 0 0 0.72032187,0.47265 0.61097906,0.60499304 0 0 0 0.47708045,-0.713317 0.61097906,0.60499304 0 0 0 -0.0241066,-0.08349 z m 3.53531457,0.342912 -5.2059403,1.045619 a 2.7462157,2.7167482 0 0 0 3.0133946,1.473896 2.7462157,2.7167482 0 0 0 2.1925457,-2.519515 z"
       id="path3" />
    <path
       style="fill:#ffffff;stroke-width:0.123451"
       d="m 1.1981125,15.610554 a 2.7462157,2.7167482 0 0 0 -0.59303572,0.05333 2.7462157,2.7167482 0 0 0 -2.19254578,2.519524 l 5.20594,-1.045647 A 2.7462157,2.7167482 0 0 0 1.1981125,15.610554 Z m 1.6402507,2.033124 -1.1957144,0.238013 a 0.61716054,0.60499304 0 0 0 0.010372,0.08608 0.61716054,0.60499304 0 0 0 0.7277951,0.472404 0.61716054,0.60499304 0 0 0 0.4819026,-0.713309 0.61716054,0.60499304 0 0 0 -0.024351,-0.08326 z m -2.48327787,0.482781 -1.18366118,0.238011 a 0.61097906,0.60499304 0 0 0 0.0103621,0.08609 0.61097906,0.60499304 0 0 0 0.72032187,0.47265 0.61097906,0.60499304 0 0 0 0.47708045,-0.713319 0.61097906,0.60499304 0 0 0 -0.0241066,-0.08349 z m 3.53531457,0.342908 -5.2059403,1.045623 a 2.7462157,2.7167482 0 0 0 3.0133946,1.473899 2.7462157,2.7167482 0 0 0 2.1925457,-2.519522 z"
       id="path4" />
  </g>
</svg>
