<?xml version="1.0" encoding="UTF-8" standalone="no"?>
<svg
   xmlns:dc="http://purl.org/dc/elements/1.1/"
   xmlns:cc="http://creativecommons.org/ns#"
   xmlns:rdf="http://www.w3.org/1999/02/22-rdf-syntax-ns#"
   xmlns:svg="http://www.w3.org/2000/svg"
   xmlns="http://www.w3.org/2000/svg"
   xmlns:xlink="http://www.w3.org/1999/xlink"
   xmlns:sodipodi="http://sodipodi.sourceforge.net/DTD/sodipodi-0.dtd"
   xmlns:inkscape="http://www.inkscape.org/namespaces/inkscape"
   width="47.285591"
   height="47.28569"
   version="1.1"
   viewBox="0 0 12.510734 12.51076"
   id="svg12"
   sodipodi:docname="atunes.svg"
   inkscape:version="1.0.1 (3bc2e813f5, 2020-09-07)">
  <style
     id="style899"></style>
  <metadata
     id="metadata74">
    <rdf:RDF>
      <cc:Work
         rdf:about="">
        <dc:format>image/svg+xml</dc:format>
        <dc:type
           rdf:resource="http://purl.org/dc/dcmitype/StillImage" />
      </cc:Work>
    </rdf:RDF>
  </metadata>
  <defs
     id="defs16">
    <linearGradient
       id="c"
       y1="523.79999"
       x1="403.57001"
       y2="536.79999"
       x2="416.57001"
       gradientUnits="userSpaceOnUse"
       gradientTransform="matrix(0.34526714,0,0,0.34526706,-134.80427,-174.63325)">
      <stop
         stop-color="#292c2f"
         id="stop1568" />
      <stop
         offset="1"
         stop-opacity="0"
         id="stop1570" />
    </linearGradient>
    <linearGradient
       xlink:href="#b-2"
       id="linearGradient4189"
       x1="14.369"
       y1="22.521999"
       x2="26.521999"
       y2="22.521999"
       gradientUnits="userSpaceOnUse" />
    <linearGradient
       x1="36"
       gradientUnits="userSpaceOnUse"
       x2="14"
       y2="12"
       y1="44"
       id="b-2">
      <stop
         style="stop-color:#bfc9c9;stop-opacity:1"
         stop-color="#536161"
         id="stop1579" />
      <stop
         style="stop-color:#fbfbfb;stop-opacity:1"
         stop-color="#f4f5f5"
         offset="1"
         id="stop1581" />
    </linearGradient>
    <linearGradient
       xlink:href="#b-2"
       id="linearGradient4428"
       gradientUnits="userSpaceOnUse"
       x1="31.586"
       y1="36.345001"
       x2="1.2029999"
       y2="6.723" />
    <linearGradient
       xlink:href="#b-2"
       id="linearGradient4189-3"
       x1="14.369"
       y1="22.521999"
       x2="26.521999"
       y2="22.521999"
       gradientUnits="userSpaceOnUse"
       gradientTransform="translate(20.841982,61.553822)" />
    <linearGradient
       xlink:href="#b-2"
       id="linearGradient4428-5"
       gradientUnits="userSpaceOnUse"
       x1="31.586"
       y1="36.345001"
       x2="1.2029999"
       y2="6.723"
       gradientTransform="translate(20.841982,61.553822)" />
    <linearGradient
       xlink:href="#b-2"
       id="linearGradient4189-3-3"
       x1="14.369"
       y1="22.521999"
       x2="26.521999"
       y2="22.521999"
       gradientUnits="userSpaceOnUse"
       gradientTransform="translate(4.376802,4.4211693)" />
    <linearGradient
       xlink:href="#b-2"
       id="linearGradient4428-5-5"
       gradientUnits="userSpaceOnUse"
       x1="31.586"
       y1="36.345001"
       x2="1.2029999"
       y2="6.723"
       gradientTransform="translate(4.376802,4.4211693)" />
    <linearGradient
       inkscape:collect="always"
       xlink:href="#linearGradient14"
       id="linearGradient15"
       x1="-9.6850061"
       y1="45.161198"
       x2="11.98815"
       y2="21.735205"
       gradientUnits="userSpaceOnUse"
       gradientTransform="scale(0.26457813)" />
    <linearGradient
       id="linearGradient14"
       inkscape:collect="always">
      <stop
         style="stop-color:#ff9900;stop-opacity:0.34509805;"
         offset="0"
         id="stop12" />
      <stop
         style="stop-color:#ffb685;stop-opacity:0.81568629;"
         offset="1"
         id="stop13" />
    </linearGradient>
    <filter
       id="filter2917-3"
       x="-0.96181148"
       y="-0.66745996"
       width="2.9236228"
       height="2.3349199"
       color-interpolation-filters="sRGB">
      <feGaussianBlur
         stdDeviation="0.2871969"
         id="feGaussianBlur732-5" />
    </filter>
    <filter
       id="filter1"
       x="-0.96181148"
       y="-0.66745996"
       width="2.9236228"
       height="2.3349199"
       color-interpolation-filters="sRGB">
      <feGaussianBlur
         stdDeviation="0.2871969"
         id="feGaussianBlur1" />
    </filter>
    <filter
       id="filter2"
       x="-0.96181148"
       y="-0.66745996"
       width="2.9236228"
       height="2.3349199"
       color-interpolation-filters="sRGB">
      <feGaussianBlur
         stdDeviation="0.2871969"
         id="feGaussianBlur2" />
    </filter>
    <linearGradient
       id="_lgradient_20"
       x1="-0.29991642"
       y1="-0.26140401"
       x2="0.96725708"
       y2="0.86616999"
       gradientTransform="matrix(15.137397,0,0,16.82717,0.89780187,0.05291536)"
       gradientUnits="userSpaceOnUse">
      <stop
         offset="34.94098066785295%"
         stop-opacity="1"
         style="stop-color:rgb(178,229,107)"
         id="stop1" />
      <stop
         offset="53.84922244785295%"
         stop-opacity="1"
         style="stop-color:rgb(194,233,100)"
         id="stop2" />
      <stop
         offset="90.40515655585295%"
         stop-opacity="1"
         style="stop-color:rgb(236,244,81)"
         id="stop3" />
      <stop
         offset="100%"
         stop-opacity="1"
         style="stop-color:rgb(250,247,75)"
         id="stop4" />
    </linearGradient>
    <linearGradient
       id="b-2-5"
       y1="35.825909"
       y2="-4.1468086"
       gradientUnits="userSpaceOnUse"
       x2="1.525889"
       gradientTransform="matrix(0.18808708,0,0,0.18779368,2.9505234,2.8105876)"
       x1="0.19073613">
      <stop
         stop-color="#d35400"
         id="stop7-9-6"
         offset="0"
         style="stop-color:#ff9e5e;stop-opacity:1;" />
      <stop
         offset="1"
         stop-color="#f67400"
         stop-opacity=".941"
         id="stop9-1-2" />
    </linearGradient>
    <linearGradient
       id="linearGradient4308">
      <stop
         style="stop-color:#884d2c;stop-opacity:1"
         offset="0"
         id="stop363" />
      <stop
         style="stop-color:#ffc169;stop-opacity:1"
         offset="1"
         id="stop365" />
    </linearGradient>
    <linearGradient
       id="linearGradient4513">
      <stop
         style="stop-color:#000000;stop-opacity:1;"
         offset="0"
         id="stop353" />
      <stop
         style="stop-color:#000000;stop-opacity:0;"
         offset="1"
         id="stop355" />
    </linearGradient>
    <linearGradient
       id="linearGradient4325">
      <stop
         offset="0"
         style="stop-color:#2a2c2f;stop-opacity:1"
         id="stop358" />
      <stop
         offset="1"
         style="stop-color:#424649;stop-opacity:1"
         id="stop360" />
    </linearGradient>
    <linearGradient
       id="a"
       gradientUnits="userSpaceOnUse"
       x1="25"
       x2="25"
       y1="6"
       y2="26">
      <stop
         offset="0"
         id="stop1047" />
      <stop
         offset="1"
         stop-color="#292c2f"
         id="stop1049" />
    </linearGradient>
    <linearGradient
       inkscape:collect="always"
       xlink:href="#linearGradient4308"
       id="linearGradient907"
       x1="-12.025727"
       y1="6.1170783"
       x2="-0.085100174"
       y2="6.1170783"
       gradientUnits="userSpaceOnUse" />
    <linearGradient
       inkscape:collect="always"
       xlink:href="#linearGradient6386"
       id="linearGradient3"
       gradientUnits="userSpaceOnUse"
       gradientTransform="matrix(0.03393939,0,0,0.03393939,-16.856977,-10.569024)"
       x1="735.66742"
       y1="660.83142"
       x2="735.66742"
       y2="388.10217" />
    <linearGradient
       inkscape:collect="always"
       id="linearGradient6386">
      <stop
         style="stop-color:#f2b187;stop-opacity:1"
         offset="0"
         id="stop6382" />
      <stop
         style="stop-color:#ec908c;stop-opacity:1;"
         offset="0.54933107"
         id="stop23871" />
      <stop
         style="stop-color:#ec8f8b;stop-opacity:1;"
         offset="0.8804239"
         id="stop23677" />
      <stop
         style="stop-color:#de6865;stop-opacity:1"
         offset="1"
         id="stop6384" />
    </linearGradient>
    <linearGradient
       inkscape:collect="always"
       xlink:href="#linearGradient26704"
       id="linearGradient26784"
       gradientUnits="userSpaceOnUse"
       x1="722.4295"
       y1="521.9483"
       x2="731.73212"
       y2="556.66614"
       gradientTransform="matrix(0.03393939,0,0,0.03393939,-16.856977,-10.569024)" />
    <linearGradient
       inkscape:collect="always"
       id="linearGradient26704">
      <stop
         style="stop-color:#f2bd9a;stop-opacity:0"
         offset="0"
         id="stop26700" />
      <stop
         style="stop-color:#1631cf;stop-opacity:0.61176471;"
         offset="0.10469195"
         id="stop26980" />
      <stop
         style="stop-color:#003cf2;stop-opacity:0.00045954"
         offset="1"
         id="stop26702" />
    </linearGradient>
    <linearGradient
       inkscape:collect="always"
       xlink:href="#linearGradient25252"
       id="linearGradient25254"
       x1="748.22168"
       y1="404.50122"
       x2="734.85419"
       y2="538.79596"
       gradientUnits="userSpaceOnUse"
       gradientTransform="matrix(0.03393939,0,0,0.03393939,-16.856977,-10.569024)" />
    <linearGradient
       inkscape:collect="always"
       id="linearGradient25252">
      <stop
         style="stop-color:#f2b187;stop-opacity:1;"
         offset="0"
         id="stop25248" />
      <stop
         style="stop-color:#f2a472;stop-opacity:1"
         offset="1"
         id="stop25250" />
    </linearGradient>
    <linearGradient
       inkscape:collect="always"
       xlink:href="#linearGradient25530"
       id="linearGradient25532"
       x1="740.75671"
       y1="450.95929"
       x2="687.04364"
       y2="584.65771"
       gradientUnits="userSpaceOnUse"
       gradientTransform="matrix(0.03393939,0,0,0.03393939,-16.856977,-10.569024)" />
    <linearGradient
       inkscape:collect="always"
       id="linearGradient25530">
      <stop
         style="stop-color:#f2bd9a;stop-opacity:1;"
         offset="0"
         id="stop25526" />
      <stop
         style="stop-color:#f26000;stop-opacity:0.25890476"
         offset="1"
         id="stop25528" />
    </linearGradient>
    <linearGradient
       inkscape:collect="always"
       xlink:href="#linearGradient26428"
       id="linearGradient26430"
       x1="746.40808"
       y1="555.41046"
       x2="681.24591"
       y2="574.94653"
       gradientUnits="userSpaceOnUse"
       gradientTransform="matrix(0.03393939,0,0,0.03393939,-16.856977,-10.569024)" />
    <linearGradient
       inkscape:collect="always"
       id="linearGradient26428">
      <stop
         style="stop-color:#f2bd9a;stop-opacity:0.69014871"
         offset="0"
         id="stop26424" />
      <stop
         style="stop-color:#f2bd9a;stop-opacity:0;"
         offset="1"
         id="stop26426" />
    </linearGradient>
    <linearGradient
       inkscape:collect="always"
       xlink:href="#linearGradient30948"
       id="linearGradient4"
       gradientUnits="userSpaceOnUse"
       gradientTransform="matrix(0.03393939,0,0,0.03393939,-16.856977,-10.569024)"
       x1="674.57922"
       y1="450.78961"
       x2="786.78943"
       y2="568.28052" />
    <linearGradient
       inkscape:collect="always"
       id="linearGradient30948">
      <stop
         style="stop-color:#ffd14b;stop-opacity:1;"
         offset="0"
         id="stop30944" />
      <stop
         style="stop-color:#ffd14b;stop-opacity:0;"
         offset="1"
         id="stop30946" />
    </linearGradient>
    <linearGradient
       inkscape:collect="always"
       xlink:href="#linearGradient30948"
       id="linearGradient974"
       gradientUnits="userSpaceOnUse"
       gradientTransform="matrix(0.03393939,0,0,0.03393939,-16.856977,-10.569024)"
       x1="674.57922"
       y1="450.78961"
       x2="786.78943"
       y2="568.28052" />
    <linearGradient
       inkscape:collect="always"
       xlink:href="#linearGradient6386"
       id="linearGradient976"
       gradientUnits="userSpaceOnUse"
       gradientTransform="matrix(0.03393939,0,0,0.03393939,-16.856977,-10.569024)"
       x1="735.66742"
       y1="660.83142"
       x2="735.66742"
       y2="388.10217" />
  </defs>
  <sodipodi:namedview
     id="namedview14"
     pagecolor="#000000"
     bordercolor="#666666"
     borderopacity="1.0"
     inkscape:showpageshadow="2"
     inkscape:pageopacity="0.0"
     inkscape:pagecheckerboard="0"
     inkscape:deskcolor="#d1d1d1"
     showgrid="false"
     inkscape:zoom="11.044844"
     inkscape:cx="50.550642"
     inkscape:cy="22.846922"
     inkscape:window-width="1920"
     inkscape:window-height="988"
     inkscape:window-x="0"
     inkscape:window-y="0"
     inkscape:window-maximized="1"
     inkscape:current-layer="svg12"
     inkscape:document-rotation="0">
    <inkscape:grid
       type="xygrid"
       id="grid244"
       originx="9.9594769"
       originy="-31.57929"
       spacingy="1"
       spacingx="1"
       units="px"
       visible="false" />
  </sodipodi:namedview>
  <rect
     x="-12.194976"
     y="0.32004508"
     width="11.940627"
     height="11.936014"
     rx="1.6121091"
     shape-rendering="crispEdges"
     id="rect5-6-7-3"
     ry="1.7735944"
     transform="matrix(0.00523883,-0.99998628,0.999988,0.00489859,0,0)"
     style="fill:#ffe0cc;fill-opacity:0.0980392;stroke:url(#linearGradient907);stroke-width:0.5291563;stroke-miterlimit:4;stroke-dasharray:none;stroke-opacity:1" />
  <rect
     x="-3.7202365"
     y="4.8851409"
     width="7.912631"
     height="7.912384"
     rx="1.612043"
     shape-rendering="crispEdges"
     id="rect5-6-6-6-6"
     style="fill:#ffc299;fill-opacity:0.101961;stroke:url(#linearGradient15);stroke-width:0.39686725;stroke-opacity:1;stroke-miterlimit:4;stroke-dasharray:none"
     ry="1.7735215"
     transform="matrix(0.72612649,-0.68756114,0.6879775,0.72573202,0,0)" />
  <path
     id="path1211"
     style="fill:#45007e;fill-opacity:0.0695295;stroke:none;stroke-width:0.0339369px;stroke-linecap:butt;stroke-linejoin:miter;stroke-opacity:1"
     d="m 7.0286361,2.0299169 c -0.294042,-0.0013 -0.552445,0.3971268 -0.552445,0.3971268 0.03929,-0.05146 0.09064,-0.098617 0.148671,-0.1267115 -0.187916,0.1012987 -0.371522,0.4492817 -0.527499,0.9033473 -0.196118,0.5709326 -0.176657,1.2418496 -0.111753,1.7933519 -1.229215,0.7947473 -1.397074,1.0971376 -1.689599,1.6037941 -0.621441,1.0763756 -0.162481,2.2390611 0.624953,2.816454 0,0 3.17e-4,2.368e-4 3.17e-4,2.368e-4 0.001,7.937e-4 0.0021,0.0013 0.0033,0.00241 9.26e-4,7.938e-4 0.0019,0.0013 0.003,0.00206 0.03165,0.022894 0.0638,0.04512 0.09645,0.06618 0.0064,0.00366 0.01285,0.00832 0.01927,0.01216 0.01036,0.00672 0.0208,0.0128 0.03127,0.019341 0.01003,0.00601 0.02014,0.011977 0.03027,0.01805 0,0 3.18e-4,2.37e-4 3.18e-4,2.37e-4 5.29e-4,2.366e-4 0.0011,7.938e-4 0.0016,0.0013 0.02467,0.014263 0.04971,0.028081 0.07484,0.041271 0.0071,0.00366 0.01415,0.00781 0.02126,0.011239 0.0057,0.00306 0.01155,0.00601 0.01727,0.0087 0.01577,0.00799 0.03164,0.015261 0.04756,0.022436 0.0017,7.937e-4 0.0038,0.00206 0.0057,0.00246 0.01499,0.00709 0.03012,0.013263 0.04523,0.019947 0.0055,0.00246 0.01084,0.0043 0.01628,0.00715 0.01902,0.00798 0.038,0.015933 0.0572,0.022812 0.403765,0.1530203 0.976321,0.2237677 1.547245,0.092465 0.0091,0.048343 0.01734,0.094798 0.02395,0.1377071 0.0041,0.026906 0.0078,0.052641 0.01097,0.077489 0.0222,0.1741216 0.02112,0.2993516 6.08e-4,0.3881476 -0.0029,0.01255 -0.0063,0.02429 -0.01,0.03558 -0.0038,0.01117 -0.0079,0.02197 -0.01229,0.03193 -0.0044,0.0099 -0.0094,0.01911 -0.01465,0.0276 -0.0052,0.0086 -0.01073,0.01679 -0.01665,0.02376 -0.0059,0.0074 -0.01203,0.01387 -0.01864,0.02026 -0.0066,0.0066 -0.01371,0.01169 -0.02095,0.01713 -0.0073,0.0051 -0.01473,0.0098 -0.02263,0.01377 -0.02371,0.01234 -0.05009,0.02067 -0.07916,0.0256 -0.0097,0.0021 -0.01971,0.0024 -0.02993,0.0037 -0.01023,7.94e-4 -0.02083,0.0021 -0.03159,0.0021 -0.02155,7.94e-4 -0.04401,6.2e-5 -0.06752,-0.0013 -0.02353,-0.0013 -0.0482,-0.0031 -0.0735,-0.0066 -0.0253,-0.0024 -0.05125,-0.0066 -0.07816,-0.01 -0.02691,-0.0037 -0.05448,-0.0075 -0.08282,-0.01124 -0.01188,-0.0021 -0.02344,-0.0031 -0.03459,-0.0037 -0.01115,-7.93e-4 -0.02213,-0.0013 -0.03259,-0.0013 -0.01044,5.3e-5 -0.02052,5.3e-4 -0.03027,0.0013 -0.0098,7.94e-4 -0.01917,0.0021 -0.02827,0.0031 -0.01817,0.0031 -0.03496,0.0077 -0.05056,0.01314 -0.0078,0.0024 -0.01545,0.0066 -0.02263,0.0097 -0.0072,0.0031 -0.01405,0.0072 -0.02064,0.01094 -0.0066,0.0037 -0.01267,0.0082 -0.01864,0.0125 -0.006,0.0043 -0.01159,0.0091 -0.01696,0.0138 -0.0054,0.0049 -0.01046,0.01026 -0.01528,0.01579 -0.0048,0.005 -0.0097,0.01061 -0.01396,0.01647 -0.03429,0.04543 -0.05125,0.101735 -0.05521,0.156969 -9.26e-4,0.01366 -0.0012,0.02743 -6.08e-4,0.04093 5.55e-4,0.01333 0.0018,0.02672 0.004,0.03959 0.002,0.01274 0.005,0.02542 0.0083,0.03727 0.0033,0.01176 0.0071,0.02302 0.01166,0.03359 0.0091,0.02079 0.02079,0.03843 0.03392,0.05156 0,0 0.0051,0.0077 0.01565,0.01995 0.01053,0.01221 0.02622,0.02962 0.04723,0.04892 0.01051,0.0097 0.02248,0.01955 0.03559,0.02993 0.01311,0.01034 0.02749,0.02079 0.04324,0.03129 0.02364,0.0157 0.05031,0.03083 0.07982,0.0446 0.0098,0.0043 0.01978,0.0091 0.03027,0.01313 0.01051,0.0043 0.02146,0.0083 0.03259,0.01188 0.02229,0.0076 0.04592,0.014 0.07084,0.01934 0.01245,0.0024 0.02513,0.0043 0.03825,0.0068 0.0131,0.0021 0.02648,0.0031 0.04025,0.0043 0.01377,0.0013 0.02815,0.0021 0.04257,0.0021 0.01441,1.94e-4 0.02916,-2.03e-4 0.04424,-0.0013 0.01506,-7.94e-4 0.03017,-0.0021 0.0459,-0.0037 0.01574,-0.0021 0.03184,-0.0043 0.04823,-0.0074 0.01638,-0.0031 0.03318,-0.0066 0.05022,-0.01061 0.01703,-0.0043 0.03452,-0.0091 0.05222,-0.0145 0.01771,-0.006 0.03553,-0.01132 0.05388,-0.01836 0.01833,-0.0071 0.03721,-0.01453 0.05621,-0.02281 0.01899,-0.0084 0.03822,-0.01752 0.05787,-0.02728 0.01966,-0.0099 0.03956,-0.02068 0.05987,-0.03225 0.02029,-0.0115 0.0409,-0.02375 0.06186,-0.03727 0.01838,-0.01158 0.03627,-0.02341 0.05321,-0.03591 0.01693,-0.01216 0.03301,-0.02505 0.04856,-0.03791 0.01557,-0.01274 0.03035,-0.02581 0.04457,-0.03926 0.0142,-0.0132 0.02798,-0.02728 0.04091,-0.04125 0.01292,-0.01371 0.02522,-0.02787 0.03692,-0.04223 0.01172,-0.01436 0.02274,-0.0291 0.03326,-0.04389 0.01054,-0.01477 0.02055,-0.02973 0.02993,-0.04493 0.0094,-0.01526 0.01795,-0.0307 0.02627,-0.04619 0.0083,-0.01571 0.01633,-0.0311 0.02361,-0.04693 0.01459,-0.03166 0.02715,-0.06392 0.03792,-0.09646 0.0054,-0.01647 0.0101,-0.03275 0.01467,-0.04925 0.0045,-0.01667 0.0086,-0.03295 0.01228,-0.04955 0.0037,-0.01678 0.0071,-0.0332 0.01,-0.04988 0.01755,-0.100064 0.02161,-0.201329 0.01794,-0.299338 -0.0013,-0.03262 -0.0032,-0.06501 -0.006,-0.09679 -0.0028,-0.0318 -0.0061,-0.062939 -0.01,-0.093462 -0.0044,-0.035253 -0.0096,-0.06961 -0.01495,-0.1027627 -0.0017,-0.010155 -0.0033,-0.019624 -0.005,-0.02962 -0.0029,-0.017229 -0.0057,-0.033265 -0.0087,-0.049552 -0.0016,-0.00813 -0.0026,-0.014343 -0.004,-0.022164 -0.0024,-0.012496 -0.0043,-0.023606 -0.0067,-0.035915 -8.21e-4,-0.00366 -0.0017,-0.00789 -0.0024,-0.011575 -0.0048,-0.024865 -0.0091,-0.048531 -0.01328,-0.070846 0,0 -0.0088,-0.045369 -0.009,-0.046212 0.17373,-0.086864 0.341834,-0.1981068 0.498897,-0.3365896 2.31e-4,-1.99e-4 4.5e-4,-5.292e-4 6.88e-4,-7.938e-4 0.03635,-0.032055 0.07233,-0.065006 0.10743,-0.10011 0,0 0,-2.379e-4 0,-2.379e-4 0.0052,-0.00512 0.01018,-0.010607 0.01529,-0.01615 0.0015,-0.0013 0.0029,-0.00243 0.0043,-0.0043 0.0015,-0.0013 0.0026,-0.00306 0.004,-0.0043 0.01135,-0.012052 0.02266,-0.024733 0.03359,-0.037589 0.0061,-0.00733 0.01232,-0.014015 0.01828,-0.021523 0,0 0,-2.345e-4 0,-2.345e-4 0.0046,-0.00601 0.0091,-0.011684 0.01367,-0.017735 10e-4,-0.0013 0.0022,-0.00243 0.003,-0.00366 4.5e-4,-5.292e-4 9.53e-4,-0.0013 0.0014,-0.00206 8.21e-4,-0.0013 0.0016,-0.00206 0.0024,-0.00306 0.005,-0.00672 0.01008,-0.012811 0.01495,-0.019624 0.0033,-0.0043 0.0063,-0.00961 0.0097,-0.014078 0.008,-0.011239 0.01594,-0.022439 0.02361,-0.034231 0,0 0,-2.366e-4 0,-2.366e-4 0.0026,-0.00366 0.0048,-0.00789 0.0073,-0.011575 5.56e-4,-7.938e-4 0.0012,-0.0013 0.0017,-0.00243 0.0024,-0.00366 0.0047,-0.00741 0.007,-0.010951 0.0052,-0.0084 0.01059,-0.016896 0.01566,-0.025267 0,0 0,-2.373e-4 0,-2.373e-4 0.0029,-0.0052 0.0058,-0.010035 0.0087,-0.015031 7.41e-4,-0.0013 0.0014,-0.00241 0.0021,-0.00366 0.0016,-0.00246 0.0032,-0.00527 0.0046,-0.00781 0.0049,-0.00879 0.0099,-0.017288 0.01466,-0.025947 0,0 0,-2.366e-4 0,-2.366e-4 0.0096,-0.017846 0.01894,-0.035851 0.02794,-0.054207 0,0 0,-2.35e-4 0,-2.35e-4 0.02704,-0.055363 0.05138,-0.113449 0.07284,-0.1732793 0.0071,-0.019867 0.01411,-0.0399 0.02062,-0.06019 0,0 0,-2.368e-4 0,-2.368e-4 0,0 0,-2.365e-4 0,-2.365e-4 0.0065,-0.020261 0.0128,-0.040552 0.01863,-0.061219 0,0 0,-2.37e-4 0,-2.37e-4 0.0059,-0.020542 0.01142,-0.04126 0.01663,-0.062177 0,0 0,-2.345e-4 0,-2.345e-4 0.0052,-0.020865 0.01006,-0.042021 0.01466,-0.063189 0,0 0,-2.352e-4 0,-2.352e-4 9.53e-4,-0.0043 0.0018,-0.0088 0.0027,-0.012843 2.11e-4,-0.0013 4.77e-4,-0.00206 6.88e-4,-0.00306 1.41e-4,-7.938e-4 2e-4,-0.0013 3.44e-4,-0.00206 0.0031,-0.015525 0.0065,-0.030695 0.0093,-0.046212 0.0038,-0.021169 0.0074,-0.042477 0.01069,-0.063842 3.1e-5,-2.008e-4 -3.4e-5,-5.291e-4 0,-7.937e-4 0.0032,-0.021354 0.0061,-0.042675 0.0087,-0.064164 0,0 0,-2.371e-4 0,-2.371e-4 0.0026,-0.021449 0.0047,-0.043321 0.0067,-0.064863 0,0 0,-2.371e-4 0,-2.371e-4 0.002,-0.021449 0.0031,-0.042997 0.0043,-0.064532 0,0 0,-2.349e-4 0,-2.349e-4 0.0012,-0.021452 0.0023,-0.043051 0.0027,-0.064523 0,0 0,-2.368e-4 0,-2.368e-4 5.03e-4,-0.02132 6.09e-4,-0.042926 3.44e-4,-0.064165 -2e-6,-2.003e-4 1e-6,-5.292e-4 0,-7.938e-4 -2.37e-4,-0.02132 -0.0011,-0.042354 -0.0021,-0.063521 0,0 0,-2.342e-4 0,-2.342e-4 -0.001,-0.021124 -0.0024,-0.04229 -0.004,-0.063207 0,0 0,-2.373e-4 0,-2.373e-4 -0.0018,-0.020785 -0.0036,-0.041645 -0.006,-0.062177 0,0 0,-2.341e-4 0,-2.341e-4 0,0 0,-2.347e-4 0,-2.347e-4 -0.0024,-0.020476 -0.0052,-0.041 -0.0083,-0.06121 -3.3e-5,-1.987e-4 3.2e-5,-5.292e-4 0,-7.938e-4 -0.0031,-0.02032 -0.0068,-0.040293 -0.01068,-0.06018 0,0 0,-2.374e-4 0,-2.374e-4 -0.0038,-0.019809 -0.0081,-0.039452 -0.01267,-0.058881 0,0 0,-2.373e-4 0,-2.373e-4 0,0 0,-2.342e-4 0,-2.342e-4 -0.0046,-0.019523 -0.0099,-0.038539 -0.01528,-0.057531 0,0 0,-2.346e-4 0,-2.346e-4 -0.0054,-0.019029 -0.01114,-0.037777 -0.01729,-0.056187 0,0 0,-2.365e-4 0,-2.365e-4 -0.0061,-0.01855 -0.01275,-0.036694 -0.01962,-0.054513 0,0 0,-2.371e-4 0,-2.371e-4 -0.0069,-0.017917 -0.01425,-0.035332 -0.02196,-0.052587 0,0 0,-2.344e-4 0,-2.344e-4 -0.0077,-0.017444 -0.01575,-0.034303 -0.02426,-0.050913 -0.01161,-0.022439 -0.02385,-0.0446 -0.03626,-0.06652 -10e-4,-0.00206 -0.0022,-0.00306 -0.0031,-0.00503 -0.06189,-0.1084322 -0.133626,-0.2088404 -0.212916,-0.2996857 -0.0013,-0.0013 -0.0024,-0.00243 -0.0037,-0.00366 -0.127978,-0.1456727 -0.275362,-0.2670392 -0.432739,-0.3588636 -8.2e-4,-5.292e-4 -0.0016,-7.938e-4 -0.0024,-0.0013 -0.118521,-0.068903 -0.242574,-0.1209961 -0.368185,-0.1543308 -6.61e-4,-2.077e-4 -0.0014,-1.352e-4 -0.002,-2.368e-4 -0.08359,-0.021963 -0.167773,-0.035832 -0.251455,-0.040533 -8.47e-4,-5.18e-5 -0.0017,5e-5 -0.0027,0 -0.02423,-0.0013 -0.04839,-0.00206 -0.07253,-0.00206 v 2.36e-4 c -0.01704,1.257e-4 -0.03392,2.374e-4 -0.05088,0.0013 -0.01567,7.937e-4 -0.03133,0.00206 -0.04689,0.00366 -0.01069,0.0013 -0.02128,0.00246 -0.03193,0.00366 -0.06578,-0.3369035 -0.121855,-0.6223137 -0.187614,-0.9598551 -4.2e-5,-1.974e-4 4.4e-5,-5.292e-4 0,-7.937e-4 -0.0075,-0.038377 -0.01368,-0.075508 -0.02027,-0.1130347 0.182807,-0.1942199 0.350009,-0.3792696 0.450359,-0.5118682 0.0089,-0.011575 0.01781,-0.024071 0.02694,-0.037267 0.0091,-0.012896 0.01858,-0.02652 0.02794,-0.040937 0.0094,-0.014234 0.01872,-0.029602 0.02827,-0.045246 0.0096,-0.015758 0.01925,-0.031796 0.02894,-0.048531 0.07746,-0.1343825 0.15797,-0.3059013 0.226167,-0.4992288 0.0085,-0.02396 0.01686,-0.048459 0.02496,-0.073172 0,0 0,-2.365e-4 0,-2.365e-4 0.0081,-0.024865 0.01596,-0.04975 0.02361,-0.075169 0.09936,-0.3303397 0.156338,-0.7084121 0.106099,-1.0683022 -0.0077,-0.055293 -0.0179,-0.1101312 -0.03093,-0.1643144 0,0 0,-2.342e-4 0,-2.342e-4 -0.0065,-0.027158 -0.0137,-0.054056 -0.02162,-0.08082 -0.01588,-0.053545 -0.03463,-0.1062326 -0.05654,-0.157983 -0.0065,-0.015526 -0.01302,-0.029799 -0.01962,-0.044215 -0.0026,-0.00503 -0.0048,-0.010607 -0.0073,-0.016182 -0.0015,-0.00306 -0.0029,-0.00601 -0.0043,-0.0087 -0.0076,-0.016182 -0.0152,-0.031474 -0.02296,-0.046212 -1.92e-4,-5.292e-4 -5.03e-4,-7.937e-4 -6.88e-4,-0.0013 -0.01821,-0.034737 -0.03651,-0.066291 -0.05521,-0.094768 -0.0012,-0.00206 -0.0023,-0.00306 -0.0033,-0.00502 -0.01778,-0.02671 -0.03576,-0.050716 -0.05388,-0.07218 -9.26e-4,-0.0013 -0.0018,-0.00206 -0.0026,-0.00306 -0.0087,-0.010202 -0.01754,-0.019867 -0.02627,-0.028957 -1.73e-4,-1.918e-4 -5.03e-4,-1.318e-4 -6.62e-4,-2.381e-4 -0.02893,-0.029861 -0.05786,-0.054001 -0.08714,-0.0725 -5.55e-4,-2.371e-4 -0.0011,-7.938e-4 -0.0016,-0.0013 -0.01714,-0.010655 -0.03439,-0.019417 -0.05155,-0.026586 -0.0035,-0.0013 -0.0071,-0.00306 -0.01067,-0.00429 -0.02775,-0.010528 -0.05538,-0.017129 -0.08282,-0.019624 -5.02e-4,-5.27e-5 -0.0011,5.26e-5 -0.0016,0 -0.0091,-7.938e-4 -0.01818,-0.00206 -0.02728,-0.00206 z m -0.131044,0.3129967 c 0.0068,0.00601 0.01353,0.012099 0.02027,0.019029 0.05263,0.052408 0.105026,0.1307773 0.154658,0.2434781 0.06747,0.1474427 0.271922,1.166625 -0.50189,1.9509973 -1.1e-5,-2.037e-4 9e-6,-5.291e-4 0,-7.937e-4 -0.0017,-0.036255 -0.0028,-0.071998 -0.0037,-0.1071089 -7.94e-4,-0.031984 -0.0015,-0.063403 -0.0016,-0.094466 -7.4e-5,-0.015343 2.35e-4,-0.030176 3.17e-4,-0.045228 2.36e-4,-0.047009 0.0013,-0.092904 0.003,-0.137723 3.97e-4,-0.010467 4.76e-4,-0.021127 9.79e-4,-0.031571 9.79e-4,-0.023307 0.0021,-0.046606 0.0037,-0.06952 9.79e-4,-0.016385 0.002,-0.032065 0.0033,-0.047879 0.0014,-0.019682 0.003,-0.039594 0.0047,-0.058917 0.0027,-0.029584 0.0057,-0.05855 0.009,-0.087132 0.0027,-0.024071 0.0056,-0.047815 0.0087,-0.071194 0.0011,-0.00823 0.0021,-0.01643 0.0033,-0.024137 0.0071,-0.050841 0.01516,-0.099756 0.02395,-0.1470179 0.0036,-0.019515 0.0078,-0.03861 0.01166,-0.057539 0.0016,-0.0084 0.0032,-0.016901 0.005,-0.024928 0.0046,-0.021359 0.0094,-0.042522 0.01428,-0.063189 1.57e-4,-7.937e-4 1.79e-4,-0.0013 3.17e-4,-0.00206 0.01092,-0.046212 0.02248,-0.090458 0.03459,-0.1327113 0.0054,-0.018769 0.01074,-0.036954 0.01628,-0.054907 0.0014,-0.00429 0.0031,-0.00955 0.0047,-0.014107 0.0057,-0.01805 0.01146,-0.035727 0.01727,-0.052901 h -3.27e-4 c 0.14817,-0.4363209 0.342564,-0.6257673 0.342564,-0.6257673 -0.05061,-0.1086051 -0.102296,-0.1888712 -0.15466,-0.2434656 -0.0067,-0.00716 -0.01357,-0.012684 -0.02027,-0.019028 z m -0.778943,3.4942868 c 0.0048,0.027202 0.01122,0.061058 0.01497,0.084124 0.0107,0.065973 0.02639,0.1541323 0.04623,0.2597615 0.01985,0.1056325 0.04367,0.2287849 0.07084,0.3655454 0.0033,0.016597 0.0076,0.036756 0.01097,0.053545 -0.04875,0.03109 -0.09399,0.062822 -0.135701,0.095115 -2.36e-4,1.939e-4 -7.14e-4,7.937e-4 -9.26e-4,0.0013 -3.7e-4,2.371e-4 -5.82e-4,7.938e-4 -9.26e-4,0.0013 -0.01622,0.012496 -0.03201,0.025106 -0.04723,0.037911 -7.14e-4,7.937e-4 -0.0015,0.0013 -0.0022,0.00206 -7.15e-4,7.937e-4 -0.0015,0.0013 -0.0022,0.00206 -0.012,0.010155 -0.02421,0.020603 -0.03559,0.030963 -0.0088,0.00798 -0.01718,0.016182 -0.02561,0.023751 -0.0048,0.00431 -0.0097,0.00887 -0.01428,0.013126 -9.79e-4,0.0013 -0.0022,0.00246 -0.0033,0.00306 -0.0072,0.00716 -0.01404,0.01406 -0.02095,0.02124 -0.0087,0.00899 -0.01734,0.017735 -0.02561,0.026566 -0.0015,0.00206 -0.003,0.00366 -0.0047,0.00512 -0.0075,0.0084 -0.01479,0.016788 -0.02195,0.024939 -0.0092,0.010607 -0.01802,0.021172 -0.02661,0.03192 -0.0018,0.00243 -0.0038,0.00512 -0.0057,0.00741 -0.0053,0.00682 -0.01057,0.013396 -0.01565,0.020259 -0.0098,0.0128 -0.01965,0.02555 -0.0286,0.038548 -0.04937,0.071561 -0.08654,0.1440638 -0.11408,0.2168591 -0.0055,0.014509 -0.0106,0.02902 -0.01528,0.043571 0,0 0,2.339e-4 0,2.339e-4 -0.0094,0.029093 -0.01746,0.058122 -0.02394,0.08715 -0.0032,0.014364 -0.0061,0.02877 -0.0087,0.043239 0,0 0,2.368e-4 0,2.368e-4 -0.0026,0.014441 -0.0048,0.028833 -0.0067,0.043257 -0.0018,0.014314 -0.0034,0.028581 -0.0047,0.042934 0,0 0,2.347e-4 0,2.347e-4 -0.02397,0.2726409 0.06307,0.5311067 0.158982,0.7247396 0.01009,0.020383 0.02043,0.039962 0.0306,0.058891 0,0 0,2.368e-4 0,2.368e-4 0.01011,0.018814 0.0203,0.036693 0.03026,0.053868 0,0 0,2.36e-4 0,2.36e-4 0.0099,0.017335 0.02005,0.033461 0.0296,0.048917 0,0 0,2.368e-4 0,2.368e-4 0.02869,0.04648 0.05511,0.085009 0.07583,0.1137432 0.02766,0.038367 0.04523,0.059222 0.04523,0.059222 0,0 -0.0051,-0.013345 -0.01297,-0.0399 -0.0039,-0.012941 -0.0086,-0.029611 -0.01365,-0.048916 0,0 0,-2.347e-4 0,-2.347e-4 -3.44e-4,-0.0013 -6.08e-4,-0.00306 -9.26e-4,-0.0043 -0.0048,-0.018584 -0.0098,-0.039399 -0.01497,-0.063216 -3.17e-4,-0.0013 -6.08e-4,-0.00306 -9.26e-4,-0.00429 -0.0044,-0.020672 -0.0092,-0.043965 -0.01365,-0.068517 -4.76e-4,-0.00243 -7.94e-4,-0.00429 -0.0013,-0.00741 0,0 0,-2.339e-4 0,-2.339e-4 -2.61e-4,-0.0013 -6.61e-4,-0.00306 -9.26e-4,-0.00431 -2.61e-4,-0.0013 -3.97e-4,-0.00306 -6.08e-4,-0.00502 -0.0052,-0.030077 -0.01034,-0.062626 -0.01496,-0.097802 -0.0048,-0.036936 -0.0093,-0.076683 -0.01297,-0.1190488 0,0 0,-2.381e-4 0,-2.381e-4 -0.0036,-0.042398 -0.0065,-0.087392 -0.0083,-0.1350129 0,0 0,-2.336e-4 0,-2.336e-4 -0.0053,-0.112097 0.0073,-0.214924 0.03392,-0.3083161 0,0 0,-2.371e-4 0,-2.371e-4 0.01778,-0.062221 0.04193,-0.1201722 0.07151,-0.1739284 0,0 0,-2.362e-4 0,-2.362e-4 0.0073,-0.013205 0.01525,-0.026378 0.02326,-0.039247 0,0 0,-2.336e-4 0,-2.336e-4 0.008,-0.012739 0.01664,-0.025304 0.02528,-0.037599 0,0 0,-2.349e-4 0,-2.349e-4 0.01736,-0.02473 0.03616,-0.04829 0.05588,-0.070871 0,0 0,-2.354e-4 0,-2.354e-4 0.0099,-0.011168 0.01983,-0.022053 0.03027,-0.032951 0.05217,-0.053805 0.111087,-0.1006566 0.174614,-0.1406706 0.0025,-0.0013 0.0051,-0.00306 0.0077,-0.00429 0.09299,0.4503906 0.200252,0.9578843 0.305657,1.4411659 0.02211,0.1013972 0.04354,0.197244 0.06519,0.295316 h -3.17e-4 c 0.01011,0.045827 0.01966,0.088511 0.0296,0.1333773 0.0018,0.0084 0.0038,0.016526 0.0057,0.024606 -0.388511,0.046124 -0.823133,-0.068704 -1.19868,-0.379209 -0.01317,-0.01084 -0.0258,-0.022055 -0.03825,-0.033254 -0.0042,-0.00366 -0.0082,-0.00761 -0.01229,-0.011237 -0.0021,-0.00206 -0.0044,-0.00366 -0.0067,-0.00601 -0.0059,-0.00587 -0.01187,-0.011025 -0.01764,-0.016822 -0.01687,-0.016539 -0.03314,-0.033117 -0.04856,-0.049887 -0.0146,-0.016081 -0.02826,-0.032011 -0.04158,-0.048218 -0.01066,-0.012843 -0.02106,-0.026008 -0.03093,-0.039245 -0.0056,-0.00761 -0.01096,-0.015131 -0.01628,-0.022444 -0.0023,-0.00306 -0.005,-0.00709 -0.0073,-0.010266 -0.0083,-0.011914 -0.01626,-0.024148 -0.02395,-0.036255 -1.31e-4,-1.942e-4 -1.97e-4,-5.292e-4 -3.17e-4,-7.938e-4 -9.79e-4,-0.00206 -0.0021,-0.00366 -0.0033,-0.00502 -0.0022,-0.00366 -0.0044,-0.00761 -0.0067,-0.011239 -0.02266,-0.037624 -0.0429,-0.075849 -0.06019,-0.1147721 -5.29e-4,-0.0013 -0.0011,-0.00243 -0.0016,-0.00366 -0.01914,-0.04358 -0.03526,-0.088126 -0.04823,-0.1330437 -1.99e-4,-7.937e-4 -4.77e-4,-0.0013 -6.09e-4,-0.00206 -0.0018,-0.00682 -0.0036,-0.013089 -0.0053,-0.019946 -0.0012,-0.00502 -0.0023,-0.00975 -0.0037,-0.014557 -8.6e-5,-2.368e-4 -2.36e-4,-7.937e-4 -3.17e-4,-0.0013 -0.0047,-0.018703 -0.0089,-0.0374 -0.01266,-0.056186 -0.003,-0.015621 -0.0059,-0.031026 -0.0083,-0.046544 -0.002,-0.013065 -0.0037,-0.026576 -0.0053,-0.0399 -9.3e-5,-7.937e-4 -2.36e-4,-0.0013 -3.18e-4,-0.00243 -0.0058,-0.048271 -0.0089,-0.096944 -0.0093,-0.1456773 -1.31e-4,-0.014512 2e-5,-0.02902 3.18e-4,-0.043572 6.61e-4,-0.032762 0.0025,-0.065669 0.0053,-0.098448 0.0039,-0.045764 0.0097,-0.091513 0.01727,-0.1370287 0,0 0,-2.363e-4 0,-2.363e-4 0.0012,-0.00741 0.0027,-0.014607 0.004,-0.021836 1.78e-4,-0.0013 4.76e-4,-0.00206 6.08e-4,-0.00306 0.003,-0.016875 0.0062,-0.033282 0.0097,-0.049884 7.15e-4,-0.00366 0.0015,-0.00761 0.0022,-0.011239 0.0021,-0.010154 0.0047,-0.020156 0.007,-0.030238 0.0041,-0.017968 0.0084,-0.03579 0.01297,-0.053555 0.0028,-0.010718 0.0054,-0.02146 0.0083,-0.032235 0.0033,-0.012208 0.0071,-0.024624 0.01066,-0.036953 0.0025,-0.0086 0.0051,-0.017261 0.0077,-0.025606 0.0017,-0.00601 0.0033,-0.011239 0.005,-0.017079 0,0 0,-2.341e-4 0,-2.341e-4 0.0026,-0.00831 0.0053,-0.0166 0.008,-0.024571 0.0092,-0.02852 0.01884,-0.05684 0.02894,-0.084813 0.0082,-0.022682 0.01656,-0.045828 0.02527,-0.068186 0.0013,-0.00306 0.003,-0.00672 0.0043,-0.00998 0.01049,-0.026585 0.02119,-0.052964 0.03226,-0.078833 0.03546,-0.082736 0.07327,-0.1614099 0.111753,-0.2348126 0,0 0,-2.323e-4 0,-2.323e-4 0.0011,-0.00206 0.0025,-0.00366 0.0037,-0.00662 0.02975,-0.056446 0.05996,-0.1096798 0.08914,-0.1589816 -8.46e-4,0.0013 -0.0016,0.00243 -0.0027,0.00366 0.07257,-0.1230349 0.140474,-0.2225266 0.188251,-0.287031 0.01683,-0.022563 0.0314,-0.041125 0.04258,-0.054897 0.01116,-0.013544 0.02481,-0.029737 0.04091,-0.047887 0.06399,-0.072241 0.17268,-0.1857161 0.291023,-0.3083158 z m 0.86043,1.1135242 c 0.0999,0.0013 0.198862,0.015025 0.292021,0.04221 0.02806,0.00832 0.05555,0.017735 0.08248,0.028277 0.06733,0.026558 0.13063,0.060699 0.188251,0.1024399 0.03457,0.025037 0.06712,0.052892 0.09712,0.083488 0.01999,0.020386 0.03888,0.041959 0.05654,0.064855 0.05299,0.06866 0.09476,0.1484659 0.122395,0.239799 0,0 0,2.358e-4 0,2.358e-4 0.0046,0.015073 0.0089,0.030524 0.01266,0.046203 0,0 0,2.341e-4 0,2.341e-4 0.0038,0.015888 0.0073,0.031859 0.01027,0.048191 0,0 0,2.375e-4 0,2.375e-4 0.0059,0.032888 0.0099,0.067012 0.01228,0.1024373 0,0 0,2.371e-4 0,2.371e-4 0.0012,0.017814 0.0022,0.035915 0.0024,0.054172 2.36e-4,0.018491 6.4e-5,0.036506 -3.44e-4,0.054585 0,0 0,2.339e-4 0,2.339e-4 -8.2e-4,0.03604 -0.0026,0.071454 -0.006,0.1061152 0,0 0,2.368e-4 0,2.368e-4 -0.0018,0.017377 -0.0038,0.034294 -0.006,0.051217 0,0 0,2.341e-4 0,2.341e-4 -0.0023,0.017078 -0.0051,0.033658 -0.008,0.050179 0,0 0,2.365e-4 0,2.365e-4 -0.0058,0.033229 -0.01258,0.065705 -0.02063,0.097455 0,0 0,2.368e-4 0,2.368e-4 -0.0041,0.016052 -0.0084,0.031446 -0.01295,0.04692 0,0 0,2.368e-4 0,2.368e-4 -0.0012,0.00366 -0.0026,0.00741 -0.0037,0.010943 -0.0083,0.027211 -0.01758,0.053805 -0.02761,0.079817 -0.0057,0.014811 -0.01138,0.029172 -0.01763,0.043579 0,0 0,2.363e-4 0,2.363e-4 -0.01242,0.028708 -0.02615,0.056707 -0.04058,0.083838 0,0 0,2.347e-4 0,2.347e-4 -0.0072,0.013335 -0.01465,0.026772 -0.02228,0.039899 0,0 0,2.379e-4 0,2.379e-4 -0.0038,0.00672 -0.008,0.012737 -0.01195,0.019341 -0.0039,0.00662 -0.0079,0.012808 -0.01196,0.019341 0,0 0,2.36e-4 0,2.36e-4 -0.0081,0.012623 -0.01668,0.025246 -0.02527,0.037599 0,0 0,2.347e-4 0,2.347e-4 -0.0086,0.01216 -0.01759,0.024315 -0.02661,0.036254 0,0 0,2.339e-4 0,2.339e-4 -0.009,0.011816 -0.01851,0.023243 -0.02794,0.034948 0,0 0,2.36e-4 0,2.36e-4 -0.01899,0.022894 -0.03891,0.045138 -0.05953,0.066521 0,0 0,2.362e-4 0,2.362e-4 -0.04011,0.041582 -0.08368,0.079791 -0.129381,0.1147648 -0.0042,0.00246 -0.0087,0.00672 -0.01296,0.00968 -0.01422,0.010607 -0.02852,0.020915 -0.04324,0.030981 C 7.2451771,8.310448 7.1531681,7.8400667 6.9790821,6.9490644 Z" />
  <path
     id="path860-0"
     style="fill:#45007e;fill-opacity:0.0695295;stroke:none;stroke-width:0.0339369px;stroke-linecap:butt;stroke-linejoin:miter;stroke-opacity:1"
     d="m 6.9161961,1.857798 c -0.294042,-0.0013 -0.552444,0.3971315 -0.552444,0.3971315 0.03929,-0.051468 0.09064,-0.098615 0.14867,-0.1267157 -0.187916,0.1013024 -0.371521,0.4492851 -0.527499,0.9033452 -0.196118,0.5709387 -0.176658,1.241852 -0.111753,1.7933606 -1.229215,0.7947372 -1.397073,1.0971328 -1.689598,1.6037889 -0.621442,1.0763787 -0.162482,2.2390803 0.624952,2.816456 0,0 3.17e-4,2.368e-4 3.17e-4,2.368e-4 10e-4,7.937e-4 0.0021,0.0013 0.0033,0.00246 9.26e-4,7.937e-4 0.0019,0.0013 0.003,0.00206 0.03165,0.022894 0.0638,0.04511 0.09645,0.066179 0.0064,0.00366 0.01285,0.00831 0.01927,0.012163 0.01037,0.00672 0.0208,0.012798 0.03127,0.019341 0.01003,0.00601 0.02014,0.011975 0.03027,0.01805 0,0 3.18e-4,2.373e-4 3.18e-4,2.373e-4 5.29e-4,2.358e-4 10e-4,7.938e-4 0.0016,0.0013 0.02467,0.014152 0.04971,0.02808 0.07483,0.04127 0.0071,0.00366 0.01415,0.00781 0.02126,0.011239 0.0057,0.00306 0.01155,0.00601 0.01727,0.0087 0.01577,0.00798 0.03165,0.015391 0.04756,0.022439 0.0018,7.937e-4 0.0038,0.00206 0.0057,0.00243 0.01499,0.00708 0.03011,0.013263 0.04523,0.019947 0.0054,0.00243 0.01084,0.0043 0.01628,0.00716 0.01902,0.00799 0.038,0.015936 0.0572,0.022812 0.403765,0.1530183 0.976321,0.2237657 1.547244,0.092464 0.0091,0.048353 0.01734,0.094801 0.02395,0.1377087 0.0041,0.026898 0.0078,0.052642 0.01097,0.077489 0.0222,0.1741258 0.02112,0.2993547 6.09e-4,0.3881477 -0.0029,0.01255 -0.0063,0.02426 -0.01,0.03557 -0.0038,0.01117 -0.0078,0.02197 -0.01229,0.03194 -0.0044,0.0099 -0.0094,0.01911 -0.01465,0.02761 -0.0052,0.0086 -0.01073,0.01679 -0.01665,0.02376 -0.0059,0.0074 -0.01203,0.01386 -0.01864,0.02026 -0.0066,0.0066 -0.01371,0.01169 -0.02095,0.01713 -0.0072,0.0051 -0.01473,0.0098 -0.02263,0.01377 -0.02371,0.01237 -0.05009,0.02068 -0.07916,0.02561 -0.0097,0.0021 -0.01971,0.0025 -0.02993,0.0037 -0.01022,7.93e-4 -0.02083,0.0021 -0.03159,0.0021 -0.02155,7.93e-4 -0.04401,5.6e-5 -0.06752,-0.0013 -0.02353,-0.0013 -0.0482,-0.0031 -0.0735,-0.0066 -0.0253,-0.0024 -0.05125,-0.0066 -0.07816,-0.01 -0.02691,-0.0037 -0.05448,-0.0075 -0.08282,-0.01126 -0.01188,-0.0021 -0.02344,-0.0031 -0.03459,-0.0037 -0.01115,-7.94e-4 -0.02213,-0.0013 -0.03259,-0.0013 -0.01045,5.2e-5 -0.02052,5.29e-4 -0.03027,0.0013 -0.0098,7.93e-4 -0.01917,0.0021 -0.02827,0.0031 -0.01817,0.0031 -0.03496,0.0077 -0.05056,0.01313 -0.0078,0.0024 -0.01545,0.0066 -0.02263,0.0097 -0.0072,0.0031 -0.01405,0.0072 -0.02063,0.01094 -0.0066,0.0037 -0.01267,0.0082 -0.01864,0.0125 -0.006,0.0043 -0.01159,0.0091 -0.01696,0.01376 -0.0054,0.0051 -0.01047,0.01026 -0.01528,0.01584 -0.0048,0.005 -0.0097,0.01061 -0.01396,0.01647 -0.03429,0.04544 -0.05125,0.101749 -0.05521,0.156978 -9.26e-4,0.01366 -0.0012,0.02743 -6.08e-4,0.04094 5.29e-4,0.01335 0.0018,0.02671 0.004,0.03959 0.002,0.01274 0.005,0.02543 0.0083,0.03727 0.0033,0.01176 0.0071,0.02302 0.01166,0.03359 0.0091,0.02079 0.02079,0.03843 0.03392,0.05156 0,0 0.0051,0.0077 0.01565,0.01995 0.01052,0.01223 0.02623,0.02962 0.04723,0.04892 0.01052,0.0097 0.02248,0.01955 0.03559,0.02994 0.01311,0.01032 0.02749,0.02079 0.04324,0.03129 0.02363,0.01572 0.05031,0.03083 0.07982,0.0446 0.0098,0.0043 0.01978,0.0091 0.03027,0.01313 0.01051,0.0043 0.02146,0.0083 0.03259,0.01187 0.02228,0.0076 0.04592,0.01397 0.07084,0.01934 0.01246,0.0024 0.02514,0.0043 0.03825,0.0068 0.0131,0.0021 0.02648,0.0031 0.04024,0.0043 0.01377,0.0013 0.02815,0.0021 0.04257,0.0021 0.01441,2.02e-4 0.02916,-2.03e-4 0.04424,-0.0013 0.01506,-7.94e-4 0.03017,-0.0021 0.0459,-0.0037 0.01574,-0.0021 0.03184,-0.0043 0.04823,-0.0074 0.01639,-0.0031 0.03318,-0.0066 0.05022,-0.01061 0.01703,-0.0043 0.03452,-0.0092 0.05222,-0.01449 0.01771,-0.006 0.03553,-0.01132 0.05388,-0.01836 0.01833,-0.0071 0.03721,-0.01468 0.05621,-0.02281 0.01899,-0.0084 0.03822,-0.01752 0.05787,-0.02728 0.01966,-0.0099 0.03956,-0.02067 0.05987,-0.03224 0.02029,-0.0115 0.0409,-0.02376 0.06187,-0.03727 0.01836,-0.01157 0.03627,-0.02342 0.05321,-0.03591 0.01694,-0.01216 0.03301,-0.02505 0.04856,-0.0379 0.01558,-0.01274 0.03035,-0.02582 0.04457,-0.03927 0.0142,-0.0132 0.02798,-0.02728 0.04091,-0.04125 0.01292,-0.0137 0.02522,-0.02787 0.03692,-0.04222 0.01171,-0.01434 0.02274,-0.0291 0.03326,-0.0439 0.01054,-0.01481 0.02055,-0.02973 0.02993,-0.04492 0.0094,-0.01534 0.01795,-0.03069 0.02627,-0.04619 0.0083,-0.0157 0.01632,-0.03109 0.02362,-0.04693 0.01459,-0.03166 0.02715,-0.06391 0.03792,-0.09646 0.0054,-0.0165 0.01011,-0.03275 0.01466,-0.04925 0.0045,-0.01667 0.0086,-0.03295 0.01228,-0.04955 0.0037,-0.01679 0.0071,-0.03321 0.01,-0.04988 0.01755,-0.100064 0.02162,-0.201332 0.01794,-0.2993368 -0.0013,-0.032629 -0.0032,-0.065016 -0.006,-0.096793 -0.0028,-0.031796 -0.0061,-0.062939 -0.01,-0.093457 -0.0044,-0.035261 -0.0096,-0.069609 -0.01496,-0.1027651 -0.0017,-0.010154 -0.0033,-0.019624 -0.005,-0.029621 -0.0029,-0.017211 -0.0057,-0.033264 -0.0087,-0.049551 -0.0015,-0.00813 -0.0025,-0.014343 -0.004,-0.022161 -0.0024,-0.012496 -0.0044,-0.023606 -0.0067,-0.035915 -8.21e-4,-0.00366 -0.0016,-0.00789 -0.0024,-0.011575 -0.0048,-0.024865 -0.0091,-0.048522 -0.01328,-0.070844 0,0 -0.0088,-0.045371 -0.009,-0.046205 0.173729,-0.086854 0.341833,-0.1981068 0.498896,-0.3365857 2.31e-4,-1.982e-4 4.49e-4,-5.292e-4 6.87e-4,-7.937e-4 0.03635,-0.032047 0.07233,-0.065016 0.107431,-0.1001111 0,0 0,-2.373e-4 0,-2.373e-4 0.0052,-0.00512 0.01018,-0.010607 0.01528,-0.01615 0.0015,-0.0013 0.0029,-0.00243 0.0043,-0.00429 0.0015,-0.0013 0.0026,-0.00306 0.004,-0.0043 0.01134,-0.012052 0.02266,-0.024693 0.03359,-0.037589 0.0061,-0.00733 0.01232,-0.014015 0.01829,-0.021518 0,0 0,-2.368e-4 0,-2.368e-4 0.0046,-0.00601 0.0091,-0.011686 0.01367,-0.017735 10e-4,-0.0013 0.0022,-0.00243 0.003,-0.00366 4.5e-4,-5.292e-4 9.53e-4,-0.0013 0.0014,-0.00206 8.2e-4,-0.0013 0.0016,-0.00206 0.0024,-0.00306 0.005,-0.00672 0.01008,-0.012803 0.01495,-0.019624 0.0033,-0.0043 0.0063,-0.00963 0.0097,-0.014105 0.008,-0.011237 0.01594,-0.022439 0.02361,-0.034231 0,0 0,-2.383e-4 0,-2.383e-4 0.0026,-0.00366 0.0048,-0.00788 0.0073,-0.011575 5.56e-4,-7.938e-4 0.0012,-0.0013 0.0018,-0.00246 0.0024,-0.00366 0.0047,-0.00741 0.007,-0.01094 0.0052,-0.0084 0.01059,-0.016875 0.01566,-0.025267 0,0 0,-2.371e-4 0,-2.371e-4 0.0029,-0.00527 0.0058,-0.010035 0.0087,-0.015131 7.41e-4,-0.0013 0.0014,-0.00243 0.0021,-0.00366 0.0016,-0.00243 0.0031,-0.00528 0.0046,-0.00781 0.0049,-0.0088 0.0099,-0.017258 0.01467,-0.025937 0,0 0,-2.355e-4 0,-2.355e-4 0.0096,-0.017846 0.01894,-0.035844 0.02794,-0.054209 0,0 0,-2.36e-4 0,-2.36e-4 0.02704,-0.055364 0.05139,-0.1134522 0.07284,-0.1732807 0.0071,-0.019867 0.0141,-0.039909 0.02063,-0.060198 0,0 0,-2.376e-4 0,-2.376e-4 0,0 0,-2.36e-4 0,-2.36e-4 0.0065,-0.020264 0.01279,-0.040562 0.01863,-0.061229 0,0 0,-2.347e-4 0,-2.347e-4 0.0059,-0.020542 0.01141,-0.04127 0.01665,-0.062186 0,0 0,-2.368e-4 0,-2.368e-4 0.0052,-0.020865 0.01006,-0.042022 0.01467,-0.06318 0,0 0,-2.36e-4 0,-2.36e-4 9.53e-4,-0.0043 0.0018,-0.00879 0.0026,-0.012848 2.11e-4,-0.0013 4.76e-4,-0.00206 6.88e-4,-0.00306 1.38e-4,-7.938e-4 1.98e-4,-0.0013 3.44e-4,-0.00206 0.0031,-0.015555 0.0065,-0.030694 0.0093,-0.046203 0.0038,-0.021187 0.0074,-0.042487 0.01068,-0.063842 3.2e-5,-2.067e-4 -3.4e-5,-5.292e-4 0,-7.938e-4 0.0032,-0.021349 0.0061,-0.042665 0.0087,-0.064164 0,0 0,-2.376e-4 0,-2.376e-4 0.0026,-0.021449 0.0047,-0.043301 0.0067,-0.064854 0,0 0,-2.373e-4 0,-2.373e-4 0.002,-0.021455 0.0031,-0.042998 0.0043,-0.064532 0,0 0,-2.37e-4 0,-2.37e-4 0.0012,-0.021478 0.0023,-0.04307 0.0027,-0.064532 0,0 0,-2.365e-4 0,-2.365e-4 5.03e-4,-0.021317 6.08e-4,-0.042935 3.44e-4,-0.064175 -3e-6,-1.945e-4 2e-6,-5.292e-4 0,-7.938e-4 -2.37e-4,-0.02132 -0.0011,-0.042344 -0.0021,-0.063521 0,0 0,-2.373e-4 0,-2.373e-4 -0.001,-0.021124 -0.0024,-0.04228 -0.004,-0.063197 0,0 0,-2.357e-4 0,-2.357e-4 -0.0018,-0.020785 -0.0037,-0.041645 -0.006,-0.062185 0,0 0,-2.376e-4 0,-2.376e-4 0,0 0,-2.36e-4 0,-2.36e-4 -0.0024,-0.020486 -0.0052,-0.041002 -0.0083,-0.06122 -3.5e-5,-1.895e-4 3.2e-5,-5.292e-4 0,-7.938e-4 -0.0031,-0.020309 -0.0068,-0.040293 -0.01068,-0.060179 0,0 0,-2.363e-4 0,-2.363e-4 -0.0038,-0.019817 -0.008,-0.039462 -0.01266,-0.0589 0,0 0,-2.352e-4 0,-2.352e-4 0,0 0,-2.341e-4 0,-2.341e-4 -0.0046,-0.019515 -0.0099,-0.038548 -0.01528,-0.057539 0,0 0,-2.362e-4 0,-2.362e-4 -0.0054,-0.019029 -0.01114,-0.037777 -0.01729,-0.056186 0,0 0,-2.371e-4 0,-2.371e-4 -0.0061,-0.018555 -0.01274,-0.036676 -0.01962,-0.054513 0,0 0,-2.341e-4 0,-2.341e-4 -0.0069,-0.017917 -0.01425,-0.035323 -0.02196,-0.052579 0,0 0,-2.341e-4 0,-2.341e-4 -0.0078,-0.017444 -0.01576,-0.034304 -0.02426,-0.050904 -0.01161,-0.022439 -0.02385,-0.04461 -0.03626,-0.06652 -10e-4,-0.00206 -0.0022,-0.00306 -0.003,-0.00503 -0.06185,-0.1084128 -0.133583,-0.20882 -0.212873,-0.2996592 -0.0013,-0.0013 -0.0024,-0.00243 -0.0037,-0.00366 -0.12798,-0.1456708 -0.275364,-0.2670341 -0.432742,-0.3588626 -8.2e-4,-5.291e-4 -0.0016,-7.937e-4 -0.0024,-0.0013 -0.118522,-0.068903 -0.242574,-0.1209908 -0.368184,-0.1543311 -6.35e-4,-1.966e-4 -0.0014,-1.294e-4 -0.002,-2.344e-4 -0.08358,-0.021973 -0.167762,-0.035852 -0.251464,-0.040543 -8.46e-4,-5.05e-5 -0.0017,4.44e-5 -0.0027,0 -0.02423,-0.0013 -0.04839,-0.00206 -0.07251,-0.00206 v 2.373e-4 c -0.01704,1.326e-4 -0.03392,2.36e-4 -0.05088,0.0013 -0.01567,7.938e-4 -0.03133,0.00206 -0.04689,0.00366 -0.01069,0.0013 -0.02128,0.00243 -0.03193,0.00366 -0.06576,-0.3369035 -0.121833,-0.6223084 -0.187592,-0.9598586 -4.3e-5,-2.095e-4 4.2e-5,-5.291e-4 0,-7.937e-4 -0.0075,-0.038423 -0.01368,-0.075556 -0.02027,-0.113082 0.182807,-0.1942152 0.350008,-0.3792651 0.450338,-0.5118682 0.0088,-0.011575 0.01781,-0.024138 0.02694,-0.037275 0.0091,-0.012901 0.01858,-0.026513 0.02794,-0.04093 0.0094,-0.014184 0.01872,-0.02962 0.02827,-0.045246 0.0096,-0.015726 0.01924,-0.031795 0.02894,-0.048531 0.07746,-0.134384 0.157969,-0.3059137 0.226166,-0.4992309 0.0085,-0.023947 0.01685,-0.048468 0.02495,-0.073172 0,0 0,-2.374e-4 0,-2.374e-4 0.0081,-0.024854 0.01596,-0.049749 0.02362,-0.075162 0.09935,-0.3303311 0.156337,-0.7084035 0.106097,-1.0683012 -0.0077,-0.055283 -0.0179,-0.110137 -0.03093,-0.1643017 0,0 0,-2.363e-4 0,-2.363e-4 -0.0065,-0.027158 -0.01371,-0.054065 -0.02162,-0.08082 -0.01588,-0.053555 -0.03463,-0.1062339 -0.05654,-0.1579822 -0.0065,-0.015496 -0.01302,-0.029799 -0.01963,-0.044224 -0.0026,-0.00512 -0.0048,-0.010607 -0.0073,-0.01616 -0.0015,-0.00306 -0.0029,-0.00601 -0.0043,-0.0087 -0.0077,-0.016182 -0.0152,-0.031463 -0.02296,-0.046193 -1.92e-4,-5.292e-4 -4.77e-4,-7.938e-4 -6.62e-4,-0.0013 -0.01821,-0.03476 -0.03651,-0.066312 -0.05521,-0.094795 -0.0012,-0.00206 -0.0022,-0.00306 -0.0033,-0.00512 -0.01779,-0.026701 -0.03577,-0.050716 -0.05389,-0.072161 -8.73e-4,-0.0013 -0.0017,-0.00206 -0.0026,-0.00306 -0.0087,-0.010199 -0.01753,-0.019867 -0.02627,-0.028958 -1.71e-4,-2.072e-4 -4.76e-4,-1.286e-4 -6.35e-4,-2.366e-4 -0.02897,-0.029844 -0.05791,-0.053966 -0.08719,-0.072466 -5.29e-4,-2.367e-4 -0.0011,-7.937e-4 -0.0016,-0.0013 -0.01714,-0.010655 -0.03439,-0.019412 -0.05155,-0.026575 -0.0036,-0.0013 -0.0071,-0.00306 -0.01066,-0.00431 -0.02775,-0.010528 -0.05538,-0.017161 -0.08282,-0.019624 -5.03e-4,-5.92e-5 -0.0011,5.48e-5 -0.0016,0 -0.0091,-7.937e-4 -0.01818,-0.00206 -0.02728,-0.00206 z m -0.131043,0.3130015 c 0.0068,0.00601 0.01353,0.012096 0.02027,0.019029 0.05263,0.052408 0.105025,0.1307746 0.154656,0.2434791 0.06747,0.1474414 0.271924,1.1666266 -0.501889,1.9510069 -1e-5,-2.061e-4 10e-6,-5.292e-4 0,-7.938e-4 -0.0017,-0.036255 -0.0028,-0.071999 -0.0037,-0.1071049 -7.15e-4,-0.031984 -0.0014,-0.063395 -0.0016,-0.094464 -7.4e-5,-0.015372 2.35e-4,-0.030175 3.17e-4,-0.045227 2.36e-4,-0.047001 0.0013,-0.092899 0.003,-0.1377161 3.97e-4,-0.010467 4.76e-4,-0.021124 9.26e-4,-0.031571 9.79e-4,-0.023296 0.0021,-0.046606 0.0037,-0.06952 9.79e-4,-0.016385 0.002,-0.032065 0.0033,-0.047878 0.0014,-0.019698 0.003,-0.039594 0.0047,-0.058918 0.0027,-0.029584 0.0057,-0.058542 0.009,-0.087131 0.0027,-0.024003 0.0055,-0.047816 0.0087,-0.071195 0.0011,-0.00823 0.0021,-0.016436 0.0033,-0.024137 0.0071,-0.050842 0.01516,-0.099754 0.02395,-0.1470192 0.0036,-0.019518 0.0078,-0.03861 0.01166,-0.057539 0.0016,-0.0084 0.0032,-0.01688 0.005,-0.024929 0.0046,-0.021354 0.0094,-0.042513 0.01428,-0.063188 1.58e-4,-7.938e-4 1.77e-4,-0.0013 3.18e-4,-0.00206 0.01092,-0.046212 0.02248,-0.090459 0.03459,-0.1327045 0.0054,-0.018782 0.01074,-0.036954 0.01628,-0.054916 0.0014,-0.0043 0.0031,-0.00955 0.0047,-0.014134 0.0057,-0.018049 0.01146,-0.035728 0.01727,-0.052901 h -3.3e-4 c 0.148056,-0.4362894 0.34245,-0.6257308 0.34245,-0.6257308 -0.050607,-0.1086141 -0.102293,-0.1888762 -0.154657,-0.2434754 -0.0067,-0.00716 -0.01358,-0.012676 -0.02027,-0.019028 z M 6.0062101,5.665083 c 0.0048,0.027212 0.01122,0.061058 0.01497,0.084124 0.0107,0.065974 0.02639,0.1541287 0.04623,0.2597551 0.01985,0.1056583 0.04367,0.22879 0.07084,0.3655454 0.0033,0.016594 0.0076,0.036748 0.01097,0.053554 -0.04875,0.03108 -0.09399,0.062813 -0.135701,0.095107 -2.36e-4,1.99e-4 -7.15e-4,7.938e-4 -9.26e-4,0.0013 -3.71e-4,2.338e-4 -5.83e-4,7.937e-4 -9.26e-4,0.0013 -0.01622,0.012496 -0.03201,0.025108 -0.04723,0.037911 -7.15e-4,7.937e-4 -0.0015,0.0013 -0.0022,0.00206 -7.15e-4,7.937e-4 -0.0015,0.0013 -0.0022,0.00206 -0.012,0.010155 -0.02421,0.020603 -0.03559,0.030963 -0.0088,0.00798 -0.01718,0.016182 -0.02561,0.023751 -0.0048,0.0043 -0.0097,0.00887 -0.01428,0.013126 -9.79e-4,0.0013 -0.0022,0.00246 -0.0033,0.00306 -0.0072,0.00716 -0.01404,0.014184 -0.02096,0.021238 -0.0087,0.009 -0.01733,0.017735 -0.02561,0.026568 -0.0015,0.00206 -0.003,0.00366 -0.0047,0.00512 -0.0075,0.0084 -0.01479,0.016782 -0.02195,0.024928 -0.0092,0.010607 -0.01802,0.021174 -0.02661,0.031922 -0.0018,0.00243 -0.0038,0.00494 -0.0057,0.00741 -0.0053,0.00682 -0.01058,0.013396 -0.01565,0.020264 -0.0098,0.012795 -0.01965,0.02555 -0.0286,0.038556 -0.04937,0.071539 -0.08654,0.1440461 -0.114078,0.2168403 -0.0055,0.014393 -0.0106,0.02902 -0.01528,0.04357 0,0 0,2.339e-4 0,2.339e-4 -0.0094,0.029083 -0.01747,0.058131 -0.02395,0.087151 -0.0032,0.014364 -0.0061,0.02877 -0.0087,0.043248 0,0 0,2.371e-4 0,2.371e-4 -0.0026,0.014364 -0.0048,0.028832 -0.0067,0.043248 -0.0017,0.014314 -0.0034,0.028581 -0.0047,0.042926 0,0 0,2.338e-4 0,2.338e-4 -0.02396,0.2726423 0.06307,0.5311068 0.158981,0.724741 0.01009,0.020391 0.02044,0.039962 0.0306,0.058883 0,0 0,2.355e-4 0,2.355e-4 0.01011,0.018817 0.0203,0.036685 0.03026,0.053868 0,0 0,2.36e-4 0,2.36e-4 0.0099,0.017333 0.02005,0.03347 0.0296,0.048917 0,0 0,2.344e-4 0,2.344e-4 0.02869,0.046471 0.05511,0.085009 0.07583,0.1137424 0.02766,0.03837 0.04523,0.059222 0.04523,0.059222 0,0 -0.0051,-0.013345 -0.01297,-0.039899 -0.0039,-0.012943 -0.0086,-0.029611 -0.01365,-0.048916 0,0 0,-2.365e-4 0,-2.365e-4 -3.44e-4,-0.0013 -6.09e-4,-0.00306 -9.26e-4,-0.0043 -0.0048,-0.018592 -0.0098,-0.039398 -0.01497,-0.063216 -3.18e-4,-0.0013 -6.09e-4,-0.00306 -9.26e-4,-0.00429 -0.0044,-0.020677 -0.0092,-0.043965 -0.01365,-0.068525 -4.76e-4,-0.00246 -7.94e-4,-0.0043 -0.0013,-0.00741 0,0 0,-2.36e-4 0,-2.36e-4 -2.61e-4,-0.0013 -6.62e-4,-0.00306 -9.26e-4,-0.0043 -2.61e-4,-0.0013 -3.97e-4,-0.00306 -6.09e-4,-0.00502 -0.0052,-0.030077 -0.01034,-0.062626 -0.01496,-0.097809 -0.0048,-0.036944 -0.0093,-0.076682 -0.01297,-0.1190467 0,0 0,-2.354e-4 0,-2.354e-4 -0.0036,-0.042406 -0.0065,-0.087392 -0.0083,-0.1350169 0,0 0,-2.35e-4 0,-2.35e-4 -0.0053,-0.1121007 0.0073,-0.2149271 0.03392,-0.3083129 0,0 0,-2.349e-4 0,-2.349e-4 0.01778,-0.062222 0.04192,-0.1201722 0.07151,-0.1739215 0,0 0,-2.371e-4 0,-2.371e-4 0.0073,-0.013205 0.01525,-0.026371 0.02326,-0.039246 0,0 0,-2.36e-4 0,-2.36e-4 0.008,-0.01274 0.01664,-0.025312 0.02528,-0.037599 0,0 0,-2.36e-4 0,-2.36e-4 0.01737,-0.024741 0.03616,-0.048289 0.05588,-0.070872 0,0 0,-2.36e-4 0,-2.36e-4 0.0099,-0.011192 0.01983,-0.022053 0.03027,-0.032952 0.05217,-0.053805 0.111087,-0.1006537 0.174615,-0.1406693 0.0025,-0.0013 0.0051,-0.00306 0.0077,-0.0043 0.09299,0.4503908 0.200251,0.9578874 0.305658,1.4411674 0.02211,0.1014041 0.04354,0.1972438 0.06519,0.2953224 h -3.18e-4 c 0.01011,0.045836 0.01966,0.088511 0.0296,0.1333821 0.0017,0.0084 0.0038,0.016526 0.0057,0.024561 -0.388515,0.046119 -0.823138,-0.0687 -1.198685,-0.3792098 -0.01317,-0.01084 -0.0258,-0.022055 -0.03825,-0.033255 -0.0042,-0.00366 -0.0082,-0.00761 -0.01229,-0.011239 -0.0021,-0.00206 -0.0044,-0.00366 -0.0067,-0.00601 -0.0059,-0.00585 -0.01186,-0.011022 -0.01764,-0.016809 -0.01687,-0.016541 -0.03314,-0.033122 -0.04856,-0.049901 -0.0146,-0.016102 -0.02826,-0.032001 -0.04158,-0.048218 -0.01066,-0.012845 -0.02106,-0.026008 -0.03093,-0.039236 -0.0056,-0.00761 -0.01096,-0.015232 -0.01628,-0.022436 -0.0023,-0.00306 -0.005,-0.00708 -0.0073,-0.010263 -0.0083,-0.011922 -0.01626,-0.024063 -0.02395,-0.036265 -1.31e-4,-1.942e-4 -1.98e-4,-5.292e-4 -3.17e-4,-7.937e-4 -9.79e-4,-0.00206 -0.0021,-0.00366 -0.0033,-0.00502 -0.0022,-0.00366 -0.0044,-0.00761 -0.0067,-0.011239 -0.02267,-0.03758 -0.04291,-0.075805 -0.0602,-0.1147332 -5.3e-4,-0.0013 -0.0011,-0.00246 -0.0016,-0.00366 -0.01914,-0.043605 -0.03526,-0.08815 -0.04822,-0.1330611 -1.99e-4,-7.937e-4 -4.77e-4,-0.0013 -6.09e-4,-0.00206 -0.0018,-0.00682 -0.0036,-0.013086 -0.0053,-0.019947 -0.0012,-0.00494 -0.0023,-0.00974 -0.0037,-0.014607 -8.5e-5,-2.373e-4 -2.36e-4,-7.938e-4 -3.17e-4,-0.0013 -0.0047,-0.018703 -0.0089,-0.037402 -0.01266,-0.056187 -0.003,-0.015576 -0.0059,-0.031025 -0.0083,-0.046534 -0.002,-0.013086 -0.0037,-0.026576 -0.0053,-0.039908 -9.3e-5,-7.938e-4 -2.36e-4,-0.0013 -3.18e-4,-0.00246 -0.0058,-0.048272 -0.0089,-0.096937 -0.0093,-0.1456704 -1.32e-4,-0.01456 2e-5,-0.02903 3.18e-4,-0.043572 6.61e-4,-0.032762 0.0025,-0.065668 0.0053,-0.098445 0.0039,-0.045764 0.0097,-0.09151 0.01727,-0.1370332 0,0 0,-2.347e-4 0,-2.347e-4 0.0012,-0.00741 0.0027,-0.014636 0.004,-0.021833 1.77e-4,-0.0013 4.76e-4,-0.00206 6.08e-4,-0.00306 0.003,-0.016883 0.0062,-0.033291 0.0097,-0.049875 7.15e-4,-0.00366 0.0015,-0.00761 0.0022,-0.011239 0.0021,-0.010154 0.0047,-0.020156 0.007,-0.030238 0.0041,-0.01797 0.0084,-0.03579 0.01297,-0.053555 0.0028,-0.010723 0.0054,-0.021455 0.0083,-0.032244 0.0033,-0.012208 0.0071,-0.024664 0.01066,-0.036945 0.0025,-0.0086 0.0051,-0.017258 0.0077,-0.025606 0.0016,-0.00601 0.0032,-0.011239 0.005,-0.0171 0,0 0,-2.325e-4 0,-2.325e-4 0.0026,-0.00832 0.0053,-0.016613 0.008,-0.024534 0.0092,-0.028518 0.01884,-0.056832 0.02894,-0.084814 0.0082,-0.022685 0.01656,-0.045836 0.02528,-0.068186 0.0013,-0.00306 0.003,-0.00672 0.0043,-0.00997 0.0105,-0.026584 0.02118,-0.052963 0.03226,-0.078831 0.03546,-0.082727 0.07327,-0.1614135 0.111754,-0.234808 0,0 0,-2.353e-4 0,-2.353e-4 0.0011,-0.00206 0.0025,-0.00366 0.0037,-0.00662 0.02976,-0.056446 0.05996,-0.1096727 0.08914,-0.1589816 -8.47e-4,0.0013 -0.0017,0.00243 -0.0027,0.00366 0.07257,-0.1230384 0.140474,-0.2225306 0.188251,-0.2870319 0.01683,-0.022574 0.0314,-0.041126 0.04257,-0.054898 0.01116,-0.013544 0.0248,-0.029728 0.04091,-0.047886 0.06399,-0.072241 0.172681,-0.1857149 0.291023,-0.3083177 z m 0.860429,1.113529 c 0.0999,0.0013 0.198862,0.014962 0.292021,0.042209 0.02806,0.00831 0.05556,0.017737 0.08248,0.028277 0.06733,0.026557 0.130629,0.06069 0.18825,0.1024404 0.03457,0.025034 0.06712,0.052891 0.09712,0.083479 0.01999,0.02038 0.03888,0.041958 0.05654,0.064855 0.05299,0.06866 0.09475,0.1484712 0.122395,0.239798 0,0 0,2.355e-4 0,2.355e-4 0.0046,0.015213 0.0089,0.030524 0.01266,0.046202 0,0 0,2.323e-4 0,2.323e-4 0.0038,0.015973 0.0073,0.031859 0.01028,0.04819 0,0 0,2.347e-4 0,2.347e-4 0.0059,0.032888 0.0099,0.067021 0.01228,0.1024407 0,0 0,2.363e-4 0,2.363e-4 0.0012,0.017785 0.0022,0.035915 0.0024,0.054172 2.36e-4,0.018494 6.2e-5,0.036507 -3.44e-4,0.054585 0,0 0,2.358e-4 0,2.358e-4 -8.2e-4,0.036041 -0.0027,0.071454 -0.006,0.1061175 0,0 0,2.371e-4 0,2.371e-4 -0.0018,0.017378 -0.0038,0.034293 -0.006,0.051217 0,0 0,2.341e-4 0,2.341e-4 -0.0023,0.0171 -0.0051,0.033668 -0.008,0.050188 0,0 0,2.354e-4 0,2.354e-4 -0.0058,0.033229 -0.01258,0.065696 -0.02063,0.097454 0,0 0,2.344e-4 0,2.344e-4 -0.0041,0.016052 -0.0083,0.031457 -0.01295,0.046919 0,0 0,2.373e-4 0,2.373e-4 -0.0012,0.00366 -0.0026,0.00741 -0.0037,0.010948 -0.0083,0.027212 -0.01758,0.053805 -0.02761,0.079817 -0.0057,0.014747 -0.01139,0.029174 -0.01763,0.04358 0,0 0,2.366e-4 0,2.366e-4 -0.01243,0.028707 -0.02615,0.056697 -0.04058,0.083828 0,0 0,2.35e-4 0,2.35e-4 -0.0072,0.013335 -0.01465,0.026781 -0.02228,0.039899 0,0 0,2.368e-4 0,2.368e-4 -0.0038,0.00672 -0.0081,0.012739 -0.01196,0.019341 -0.0039,0.00662 -0.0079,0.0128 -0.01196,0.019341 0,0 0,2.342e-4 0,2.342e-4 -0.0081,0.01261 -0.01668,0.025243 -0.02527,0.037599 0,0 0,2.363e-4 0,2.363e-4 -0.0086,0.01216 -0.01758,0.024296 -0.02661,0.036255 0,0 0,2.337e-4 0,2.337e-4 -0.009,0.011813 -0.01851,0.023264 -0.02794,0.034949 0,0 0,2.347e-4 0,2.347e-4 -0.01899,0.022894 -0.03891,0.045145 -0.05953,0.06652 0,0 0,2.368e-4 0,2.368e-4 -0.04011,0.041583 -0.08369,0.07979 -0.129381,0.1147639 -0.0042,0.00246 -0.0087,0.00672 -0.01296,0.00969 -0.01422,0.010607 -0.02852,0.020915 -0.04324,0.030982 C 7.1326761,8.1397724 7.0406681,7.6693844 6.8665831,6.7784181 Z" />
  <path
     style="fill:url(#linearGradient3);fill-opacity:1;stroke:none;stroke-width:0.0339369px;stroke-linecap:butt;stroke-linejoin:miter;stroke-opacity:1"
     d="m 6.8012781,2.2837574 c 0,0 -0.791088,0.7693867 -0.398009,2.7871403 0.393079,2.0177216 0.82556,4.2248959 0.82556,4.2248959 0.06726,0.3568305 0.229166,1.0626424 -0.358946,1.4355894 -0.670688,0.425354 -1.007014,-0.05664 -1.007014,-0.05664 -0.105081,-0.105099 -0.09771,-0.504526 0.282356,-0.452526 0.453358,0.06199 0.735968,0.132977 0.47309,-1.0135332 C 6.3554371,8.062166 5.9477581,6.127581 5.8622631,5.5999894 5.7891161,5.1486424 5.4881461,3.8656651 5.8259641,2.8822507 c 0.2809,-0.8177471 0.651418,-1.29357 0.975314,-0.5984999 z"
     id="path860"
     sodipodi:nodetypes="cscscssssc" />
  <path
     style="opacity:0.500664;fill:url(#linearGradient26784);fill-opacity:1;stroke:none;stroke-width:0.0339369px;stroke-linecap:butt;stroke-linejoin:miter;stroke-opacity:1"
     d="m 6.4032691,5.0708977 c 0.393079,2.0177216 0.82556,4.2248959 0.82556,4.2248959 0.06726,0.3568305 0.229166,1.0626424 -0.358946,1.4355894 -0.670688,0.425354 -1.007014,-0.05664 -1.007014,-0.05664 -0.105081,-0.105099 -0.09771,-0.504526 0.282356,-0.452526 0.453358,0.06199 0.735968,0.132977 0.47309,-1.0135332 C 6.3554371,8.062165 5.9477581,6.1275802 5.8622631,5.5999886 Z"
     id="path26641"
     sodipodi:nodetypes="ccscsscc" />
  <path
     style="fill:url(#linearGradient25254);fill-opacity:1;stroke:none;stroke-width:0.0339369px;stroke-linecap:butt;stroke-linejoin:miter;stroke-opacity:1"
     d="m 6.2050311,2.1055691 c 0,0 0.599431,-0.9251374 1.01186,0.048818 0.350602,0.828002 -0.100821,1.9177684 -0.383677,2.2916163 -0.290625,0.3841066 -1.139211,1.2062639 -1.317929,1.4258905 -0.178717,0.2195903 -1.167619,1.6480056 -0.212673,2.4375544 0.957265,0.7914969 2.298202,0.3123372 2.281584,-0.866795 -0.01664,-1.179119 -1.967978,-1.0354832 -1.910955,0.1614966 0.01453,0.3819445 0.09632,0.599518 0.09632,0.599518 0,0 -1.130682,-1.3488266 0.53633,-2.0925991 0.617495,-0.2755195 1.428802,0.1173441 1.802003,0.8445892 0.2725,0.5309933 0.139677,1.4357193 -0.280772,1.8561578 -0.825545,0.8255413 -2.013907,0.804364 -2.706087,0.5420501 C 4.0717891,8.9562364 3.2869921,7.5569946 4.0246521,6.2793277 4.3304301,5.7497205 4.4970391,5.444726 5.8853031,4.5657294 7.1371981,3.7730485 6.8787921,2.4532189 6.8012781,2.2838032 6.5915091,1.8076197 6.3342331,1.9363353 6.2050311,2.1056024 Z"
     id="path2652"
     sodipodi:nodetypes="csssssccsssscscc" />
  <path
     id="path25289"
     style="fill:url(#linearGradient25532);fill-opacity:1;stroke:none;stroke-width:0.0339369px;stroke-linecap:butt;stroke-linejoin:miter;stroke-opacity:1"
     d="m 6.7572261,1.7084756 c -0.0065,-2.78e-5 -0.01289,5.292e-4 -0.01934,0.0013 0.408555,0.4124506 1.440168,1.888249 -1.729062,4.1796936 -1.404201,1.0153051 -1.195329,2.1667071 -0.358859,3.2064828 0.147211,0.1079011 0.305854,0.195437 0.471099,0.2580582 0.692178,0.2623239 1.8805,0.2834595 2.706043,-0.5420831 0.420447,-0.4204162 0.553307,-1.3250946 0.280807,-1.8561167 -0.373202,-0.7272372 -1.184518,-1.1201421 -1.802011,-0.8446218 -1.667014,0.7437971 -0.53633,2.0926615 -0.53633,2.0926615 0,0 -0.08182,-0.2176214 -0.09633,-0.5995801 C 5.6162231,6.4072478 7.5676101,6.2636221 7.5842311,7.4427511 7.6008811,8.6218722 6.2598971,9.101051 5.3026321,8.309567 4.3476811,7.5199563 5.3365791,6.0915478 5.5152951,5.8719506 5.6940141,5.6523275 6.5425831,4.8301228 6.8332081,4.4460173 7.1160651,4.0721488 7.5674801,2.9823945 7.2168771,2.1544001 7.0751041,1.8196127 6.9112541,1.7092299 6.7572331,1.708518 Z" />
  <path
     id="path25643"
     style="fill:url(#linearGradient26430);fill-opacity:1;stroke:none;stroke-width:0.0339369px;stroke-linecap:butt;stroke-linejoin:miter;stroke-opacity:1"
     d="m 5.2871281,6.2100614 c -1.281033,1.7371288 0.197625,3.5495015 2.023996,2.5414707 0.663209,-0.366046 0.835967,-1.5024711 0.259559,-2.0304796 -0.793,-0.7263884 -2.523503,-0.07525 -1.801121,1.4826245 0,0 -0.08182,-0.2176367 -0.09633,-0.5996132 -0.05702,-1.1969727 1.894366,-1.340569 1.910986,-0.161444 0.01664,1.1791332 -1.324332,1.658312 -2.281597,0.8668114 -0.727932,-0.6018517 -0.326711,-1.5734586 -0.0155,-2.0993698 z" />
  <path
     id="path30388"
     style="fill:url(#linearGradient4);fill-opacity:1;stroke:none;stroke-width:0.0339369px;stroke-linecap:butt;stroke-linejoin:miter;stroke-opacity:1"
     d="m 6.7204851,6.0227339 c -0.01704,1.199e-4 -0.03402,5.292e-4 -0.05099,0.0013 -0.125243,0.00708 -0.247827,0.035052 -0.363606,0.086679 -0.454969,0.2029987 -0.70052,0.4511095 -0.818562,0.7045446 -0.126045,0.7352309 0.282231,1.3881249 0.282231,1.3881249 -0.722382,-1.5578832 1.00812,-2.2090114 1.80112,-1.4826253 0.576409,0.527962 0.40365,1.6643963 -0.259559,2.0304417 -0.21232,0.1171931 -0.419818,0.1958365 -0.618949,0.241349 L 6.8839481,9.384667 C 7.2178361,9.2762784 7.5439131,9.0946288 7.8270961,8.8114574 8.2475421,8.3910039 8.3804021,7.4863083 8.1079011,6.9553036 7.8141541,6.3828706 7.2489331,6.0176477 6.7204851,6.022422 Z m 0.861591,1.5179573 c -3.17e-4,0.00635 -5.55e-4,0.011316 -9.52e-4,0.017161 3.7e-4,-0.00635 6.09e-4,-0.011237 9.52e-4,-0.017161 z m -0.0095,0.1071836 c -7.93e-4,0.00635 -0.0018,0.011604 -0.0026,0.017642 9.53e-4,-0.00635 0.0018,-0.011604 0.0026,-0.017642 z m -0.01785,0.1064106 c -3.44e-4,0.0013 -7.93e-4,0.00262 -0.0011,0.00455 3.44e-4,-0.0013 7.94e-4,-0.00262 0.0011,-0.00455 z m -0.02225,0.087697 c -0.0015,0.00455 -0.0026,0.00925 -0.0039,0.013546 0.0015,-0.00455 0.0027,-0.00919 0.0039,-0.013546 z m -0.03063,0.092281 c -0.0023,0.00635 -0.0043,0.011186 -0.0066,0.016999 0.0023,-0.00635 0.0044,-0.011181 0.0066,-0.016999 z m -0.03894,0.091631 c -0.0015,0.00262 -0.0029,0.00635 -0.0042,0.0086 0.0015,-0.00262 0.0029,-0.00635 0.0042,-0.0086 z m -0.04102,0.077579 c -0.0019,0.00262 -0.0036,0.00635 -0.0054,0.00966 0.0019,-0.00324 0.0036,-0.00635 0.0054,-0.00966 z m -0.04825,0.07662 c -0.0031,0.00455 -0.0064,0.00926 -0.0097,0.01361 0.0033,-0.00455 0.0065,-0.00919 0.0097,-0.01361 z m -0.05727,0.076521 c -0.002,0.00206 -0.004,0.00455 -0.006,0.00716 0.002,-0.00206 0.004,-0.00455 0.006,-0.00716 z m -0.05508,0.062213 c -0.003,0.00324 -0.006,0.00635 -0.009,0.00966 0.0031,-0.00324 0.006,-0.00635 0.009,-0.00966 z m -0.06393,0.062258 c -0.0044,0.00385 -0.0089,0.00806 -0.01341,0.01179 0.0045,-0.00385 0.009,-0.00798 0.01341,-0.01179 z m -0.0714,0.059473 c -0.0042,0.00262 -0.0087,0.00635 -0.01299,0.00958 0.0043,-0.00262 0.0087,-0.00635 0.01299,-0.00958 z m -0.06944,0.049176 c -0.0034,0.00206 -0.0069,0.00455 -0.01031,0.00708 0.0035,-0.00206 0.0069,-0.00455 0.01031,-0.00708 z m -0.0752,0.04546 c -0.0058,0.00324 -0.01158,0.00635 -0.01738,0.00958 0.0059,-0.00262 0.01164,-0.00635 0.01738,-0.00958 z m -0.08464,0.043105 c -0.0047,0.00206 -0.0094,0.00385 -0.01406,0.00635 0.0047,-0.00206 0.0094,-0.00385 0.01406,-0.00635 z m -0.05971,0.025058 c -0.02088,0.0084 -0.04205,0.01634 -0.06345,0.023248 0.02142,-0.00741 0.04256,-0.015102 0.06345,-0.023248 z m -0.09604,0.034196 c -0.02339,0.00741 -0.04712,0.013414 -0.07105,0.019605 0.02392,-0.00635 0.04766,-0.012163 0.07105,-0.019605 z m -0.09835,0.026629 c -0.03349,0.00781 -0.06738,0.01397 -0.101732,0.019296 0.03435,-0.00553 0.06824,-0.011604 0.101732,-0.019296 z" />
  <path
     style="fill:url(#linearGradient976);fill-opacity:1;stroke:none;stroke-width:0.0339369px;stroke-linecap:butt;stroke-linejoin:miter;stroke-opacity:1"
     d="m 7.0500311,8.3825355 c 0.109002,0.5570418 0.178798,0.9132581 0.178798,0.9132581 0.06726,0.3568305 0.229166,1.0626424 -0.358946,1.4355894 -0.670688,0.425354 -1.007014,-0.05664 -1.007014,-0.05664 -0.105081,-0.105099 -0.09771,-0.504526 0.282356,-0.452526 0.453358,0.06199 0.735968,0.132977 0.47309,-1.0135332 -0.04701,-0.2050216 -0.09865,-0.435229 -0.152245,-0.6780958 z"
     id="path27384"
     sodipodi:nodetypes="ccscsscc" />
  <path
     id="path27666"
     style="fill:#f6ebff;fill-opacity:0.197812;stroke:none;stroke-width:0.0339369px;stroke-linecap:butt;stroke-linejoin:miter;stroke-opacity:1"
     d="m 6.4326751,2.9092297 c -0.230142,0.4144431 -0.318876,0.9283139 -0.320278,1.4939804 0.068,-0.05479 0.13014,-0.1112866 0.187085,-0.1690432 -0.02742,-0.5799248 0.0542,-1.0145743 0.159426,-1.3243813 z m -0.0501,2.0465659 c -0.07446,0.079126 -0.147467,0.1573893 -0.223944,0.2368768 0.03345,0.3012659 0.08265,0.6101241 0.14156,0.9210227 0.0018,-0.0013 0.0038,-0.00206 0.0057,-0.00206 0.09147,-0.040731 0.187279,-0.066285 0.285201,-0.078857 -0.08795,-0.4503877 -0.09837,-0.5020992 -0.1878,-0.9611727 -0.0076,-0.039111 -0.01396,-0.076889 -0.02072,-0.1150653 z m 0.325031,1.6709345 c -0.100181,0.00761 -0.179032,0.00206 -0.27428,0.031627 0.37042,1.7639507 0.901701,3.3400152 0.520068,4.0125699 0.486992,-0.384546 0.339278,-1.0365846 0.275465,-1.3751211 0,0 -0.270388,-1.3851226 -0.521253,-2.6690897 z" />
  <path
     id="path31535"
     style="fill:url(#linearGradient974);fill-opacity:1;stroke:none;stroke-width:0.0339369px;stroke-linecap:butt;stroke-linejoin:miter;stroke-opacity:1"
     d="m 6.7204851,6.0227339 c -0.01704,1.199e-4 -0.03402,5.292e-4 -0.05099,0.0013 -0.125243,0.00708 -0.247827,0.035052 -0.363606,0.086679 -0.454969,0.2029987 -0.70052,0.4511095 -0.818562,0.7045446 -0.126045,0.7352309 0.282231,1.3881249 0.282231,1.3881249 -0.722382,-1.5578832 1.00812,-2.2090114 1.80112,-1.4826253 0.576409,0.527962 0.40365,1.6643963 -0.259559,2.0304417 -0.21232,0.1171931 -0.419818,0.1958365 -0.618949,0.241349 L 6.8839481,9.384667 C 7.2178361,9.2762784 7.5439131,9.0946288 7.8270961,8.8114574 8.2475421,8.3910039 8.3804021,7.4863083 8.1079011,6.9553036 7.8141541,6.3828706 7.2489331,6.0176477 6.7204851,6.022422 Z m 0.861591,1.5179573 c -3.17e-4,0.00635 -5.55e-4,0.011316 -9.52e-4,0.017161 3.7e-4,-0.00635 6.09e-4,-0.011237 9.52e-4,-0.017161 z m -0.0095,0.1071836 c -7.93e-4,0.00635 -0.0018,0.011604 -0.0026,0.017642 9.53e-4,-0.00635 0.0018,-0.011604 0.0026,-0.017642 z m -0.01785,0.1064106 c -3.44e-4,0.0013 -7.93e-4,0.00262 -0.0011,0.00455 3.44e-4,-0.0013 7.94e-4,-0.00262 0.0011,-0.00455 z m -0.02225,0.087697 c -0.0015,0.00455 -0.0026,0.00925 -0.0039,0.013546 0.0015,-0.00455 0.0027,-0.00919 0.0039,-0.013546 z m -0.03063,0.092281 c -0.0023,0.00635 -0.0043,0.011186 -0.0066,0.016999 0.0023,-0.00635 0.0044,-0.011181 0.0066,-0.016999 z m -0.03894,0.091631 c -0.0015,0.00262 -0.0029,0.00635 -0.0042,0.0086 0.0015,-0.00262 0.0029,-0.00635 0.0042,-0.0086 z m -0.04102,0.077579 c -0.0019,0.00262 -0.0036,0.00635 -0.0054,0.00966 0.0019,-0.00324 0.0036,-0.00635 0.0054,-0.00966 z m -0.04825,0.07662 c -0.0031,0.00455 -0.0064,0.00926 -0.0097,0.01361 0.0033,-0.00455 0.0065,-0.00919 0.0097,-0.01361 z m -0.05727,0.076521 c -0.002,0.00206 -0.004,0.00455 -0.006,0.00716 0.002,-0.00206 0.004,-0.00455 0.006,-0.00716 z m -0.05508,0.062213 c -0.003,0.00324 -0.006,0.00635 -0.009,0.00966 0.0031,-0.00324 0.006,-0.00635 0.009,-0.00966 z m -0.06393,0.062258 c -0.0044,0.00385 -0.0089,0.00806 -0.01341,0.01179 0.0045,-0.00385 0.009,-0.00798 0.01341,-0.01179 z m -0.0714,0.059473 c -0.0042,0.00262 -0.0087,0.00635 -0.01299,0.00958 0.0043,-0.00262 0.0087,-0.00635 0.01299,-0.00958 z m -0.06944,0.049176 c -0.0034,0.00206 -0.0069,0.00455 -0.01031,0.00708 0.0035,-0.00206 0.0069,-0.00455 0.01031,-0.00708 z m -0.0752,0.04546 c -0.0058,0.00324 -0.01158,0.00635 -0.01738,0.00958 0.0059,-0.00262 0.01164,-0.00635 0.01738,-0.00958 z m -0.08464,0.043105 c -0.0047,0.00206 -0.0094,0.00385 -0.01406,0.00635 0.0047,-0.00206 0.0094,-0.00385 0.01406,-0.00635 z m -0.05971,0.025058 c -0.02088,0.0084 -0.04205,0.01634 -0.06345,0.023248 0.02142,-0.00741 0.04256,-0.015102 0.06345,-0.023248 z m -0.09604,0.034196 c -0.02339,0.00741 -0.04712,0.013414 -0.07105,0.019605 0.02392,-0.00635 0.04766,-0.012163 0.07105,-0.019605 z m -0.09835,0.026629 c -0.03349,0.00781 -0.06738,0.01397 -0.101732,0.019296 0.03435,-0.00553 0.06824,-0.011604 0.101732,-0.019296 z" />
</svg>
