<?xml version="1.0" encoding="UTF-8" standalone="no"?>
<svg
   xmlns:dc="http://purl.org/dc/elements/1.1/"
   xmlns:cc="http://creativecommons.org/ns#"
   xmlns:rdf="http://www.w3.org/1999/02/22-rdf-syntax-ns#"
   xmlns:svg="http://www.w3.org/2000/svg"
   xmlns="http://www.w3.org/2000/svg"
   xmlns:sodipodi="http://sodipodi.sourceforge.net/DTD/sodipodi-0.dtd"
   xmlns:inkscape="http://www.inkscape.org/namespaces/inkscape"
   width="136"
   height="136"
   viewBox="0 0 35.983333 35.983334"
   id="svg2"
   version="1.1"
   inkscape:version="1.0.2 (e86c870879, 2021-01-15)"
   sodipodi:docname="busywidget.svg">
  <defs
     id="defs4">
    <style
       type="text/css"
       id="current-color-scheme" />
  </defs>
  <sodipodi:namedview
     id="base"
     pagecolor="#ffffff"
     bordercolor="#000000"
     borderopacity="1"
     inkscape:pageopacity="0"
     inkscape:pageshadow="2"
     inkscape:zoom="2"
     inkscape:cx="76.70553"
     inkscape:cy="71.286446"
     inkscape:document-units="px"
     inkscape:current-layer="layer1"
     showgrid="false"
     units="px"
     inkscape:showpageshadow="false"
     borderlayer="true"
     inkscape:window-width="1920"
     inkscape:window-height="1007"
     inkscape:window-x="0"
     inkscape:window-y="0"
     inkscape:window-maximized="1"
     fit-margin-top="0"
     fit-margin-left="0"
     fit-margin-right="0"
     fit-margin-bottom="0"
     inkscape:document-rotation="0"
     showguides="false"
     inkscape:lockguides="false">
    <inkscape:grid
       type="xygrid"
       id="grid4160"
       empspacing="2"
       originx="0"
       originy="0"
       visible="true"
       enabled="true"
       snapvisiblegridlinesonly="true"
       spacingx="1"
       spacingy="1" />
    <sodipodi:guide
       position="-5.8455811e-08,35.983344"
       orientation="136.00001,0"
       id="guide4155"
       inkscape:locked="false" />
    <sodipodi:guide
       position="-5.8455811e-08,6.6152344e-06"
       orientation="0,136"
       id="guide4157"
       inkscape:locked="false" />
    <sodipodi:guide
       position="35.983333,6.6152344e-06"
       orientation="-136.00001,0"
       id="guide4159"
       inkscape:locked="false" />
    <sodipodi:guide
       position="35.983333,35.983344"
       orientation="0,-136"
       id="guide4161"
       inkscape:locked="false" />
    <sodipodi:guide
       position="1.1488343e-09,17.991675"
       orientation="68.000007,0"
       id="guide4165"
       inkscape:locked="false" />
    <sodipodi:guide
       position="1.1488343e-09,6.6152344e-06"
       orientation="0,67.999998"
       id="guide4167"
       inkscape:locked="false" />
    <sodipodi:guide
       position="17.991666,6.6152344e-06"
       orientation="-68.000007,0"
       id="guide4169"
       inkscape:locked="false" />
    <sodipodi:guide
       position="17.991666,17.991675"
       orientation="0,-67.999998"
       id="guide4171"
       inkscape:locked="false" />
    <sodipodi:guide
       position="1.8520831,34.131232"
       orientation="122.00003,0"
       id="guide4199"
       inkscape:locked="false" />
    <sodipodi:guide
       position="1.8520831,1.8520574"
       orientation="0,121.99999"
       id="guide4201"
       inkscape:locked="false" />
    <sodipodi:guide
       position="34.131248,1.8520574"
       orientation="-122.00003,0"
       id="guide4203"
       inkscape:locked="false" />
    <sodipodi:guide
       position="34.131248,34.131232"
       orientation="0,-121.99999"
       id="guide4205"
       inkscape:locked="false" />
  </sodipodi:namedview>
  <metadata
     id="metadata7">
    <rdf:RDF>
      <cc:Work
         rdf:about="">
        <dc:format>image/svg+xml</dc:format>
        <dc:type
           rdf:resource="http://purl.org/dc/dcmitype/StillImage" />
        <dc:title />
      </cc:Work>
    </rdf:RDF>
  </metadata>
  <g
     inkscape:label="Capa 1"
     inkscape:groupmode="layer"
     id="layer1"
     transform="translate(0.52916664,-249.37498)">
    <rect
       style="opacity:0.01;fill:#00cccc;fill-opacity:1;fill-rule:nonzero;stroke:none;stroke-width:0.264583"
       id="hint-rotation-angle"
       width="3.7041671"
       height="3.7041693"
       x="-0.52916706"
       y="285.35831" />
    <g
       id="busywidget">
      <rect
         style="fill:none;stroke:none"
         id="rect3016"
         width="35.983334"
         height="35.983334"
         x="-0.52916682"
         y="249.37498" />
      <circle
         cx="17.462765"
         cy="267.39337"
         r="5.3096585"
         id="circle2"
         style="fill:#4993b0;fill-opacity:1;stroke-width:0.431681" />
      <path
         d="m 17.757783,252.03697 c 0,-0.30295 -0.242367,-0.54532 -0.545325,-0.54532 -0.302958,0 -0.484733,0.24237 -0.484733,0.54532 v 6.72567 h 1.090649 v -6.72567 z"
         id="path6-3"
         style="fill:#eaf2fa;fill-opacity:1;stroke-width:0.605916" />
      <path
         d="m 17.212458,282.69632 c 0,0.30296 0.242367,0.54533 0.545325,0.54533 0.302958,0 0.545324,-0.24237 0.545324,-0.54533 v -6.72566 h -1.090649 z"
         id="path8-6"
         style="fill:#eaf2fa;fill-opacity:1;stroke-width:0.605916" />
      <path
         d="m 12.546905,260.33802 0.908874,-0.54532 -3.39313,-5.87739 c -0.1211828,-0.24236 -0.4847324,-0.36355 -0.7270988,-0.18177 -0.2423664,0.12118 -0.3635496,0.48473 -0.1817748,0.7271 z"
         id="path14-3"
         style="fill:#eaf2fa;fill-opacity:1;stroke-width:0.605916" />
      <path
         d="m 22.483928,274.39527 -0.908874,0.54533 3.393129,5.81679 c 0.121183,0.24237 0.484733,0.36355 0.727099,0.18178 0.242367,-0.12119 0.36355,-0.48473 0.181775,-0.7271 z"
         id="path16-5"
         style="fill:#eaf2fa;fill-opacity:1;stroke-width:0.605916" />
      <path
         d="m 3.8217145,260.39862 5.8167937,3.39312 0.5453248,-0.90887 -5.8167941,-3.39313 c -0.2423664,-0.12118 -0.605916,-0.0606 -0.7270992,0.18178 -0.1817748,0.24236 -0.060592,0.54532 0.1817748,0.7271 z"
         id="path22"
         style="fill:#eaf2fa;fill-opacity:1;stroke-width:0.605916" />
      <path
         d="m 31.209118,274.33468 -5.816794,-3.39313 -0.545324,0.90888 5.816794,3.39313 c 0.242366,0.12118 0.605916,0.0606 0.727099,-0.18178 0.121183,-0.24236 0.06059,-0.60591 -0.181775,-0.7271 z"
         id="path24"
         style="fill:#eaf2fa;fill-opacity:1;stroke-width:0.605916" />
      <path
         d="M 8.911409,267.06369 H 2.1857412 c -0.302958,0 -0.5453244,0.24237 -0.5453244,0.54533 0,0.30295 0.2423664,0.54532 0.5453244,0.54532 H 8.911409 Z"
         id="path30"
         style="fill:#eaf2fa;fill-opacity:1;stroke-width:0.605916" />
      <path
         d="m 32.845091,266.57896 h -6.725667 v 1.09065 h 6.725667 c 0.302958,0 0.545325,-0.24237 0.545325,-0.54533 0,-0.30296 -0.242367,-0.54532 -0.545325,-0.54532 z"
         id="path32"
         style="fill:#eaf2fa;fill-opacity:1;stroke-width:0.605916" />
      <path
         d="m 9.9414662,271.42629 -5.8167937,3.39313 c -0.2423664,0.12118 -0.3635496,0.48473 -0.1817748,0.7271 0.1817748,0.24236 0.4847328,0.36354 0.7270992,0.18177 l 5.8167941,-3.39313 z"
         id="path38"
         style="fill:#eaf2fa;fill-opacity:1;stroke-width:0.605916" />
      <path
         d="m 25.089366,263.30701 5.816794,-3.39313 c 0.242367,-0.12118 0.36355,-0.48473 0.181775,-0.7271 -0.181775,-0.24236 -0.484733,-0.36355 -0.727099,-0.18177 l -5.816794,3.39313 z"
         id="path40"
         style="fill:#eaf2fa;fill-opacity:1;stroke-width:0.605916" />
      <path
         d="m 9.5779166,280.51503 c -0.1211832,0.24236 -0.060592,0.60591 0.1817748,0.7271 0.2423666,0.12118 0.6059156,0.0606 0.7270996,-0.18178 l 3.393129,-5.81679 -0.908874,-0.54533 z"
         id="path46"
         style="fill:#eaf2fa;fill-opacity:1;stroke-width:0.605916" />
      <path
         d="m 25.392324,254.21827 c 0.121184,-0.24236 0.06059,-0.60591 -0.181774,-0.7271 -0.242367,-0.12118 -0.605916,-0.0606 -0.7271,0.18178 l -3.393129,5.81679 0.908874,0.54533 z"
         id="path48"
         style="fill:#eaf2fa;fill-opacity:1;stroke-width:0.605916" />
      <circle
         style="color:#3daee9;fill:#eaf2fa;fill-opacity:1;stroke:none;stroke-width:0.396875"
         id="path3872"
         class="ColorScheme-ButtonFocus"
         cx="17.441862"
         cy="267.38199"
         r="3.175" />
    </g>
  </g>
</svg>
