<?xml version="1.0" encoding="UTF-8" standalone="no"?>
<svg
   id="svg4306"
   width="22"
   height="22"
   version="1.1"
   style="enable-background:new"
   sodipodi:docname="close.svg"
   inkscape:version="1.1.2 (0a00cf5339, 2022-02-04)"
   xmlns:inkscape="http://www.inkscape.org/namespaces/inkscape"
   xmlns:sodipodi="http://sodipodi.sourceforge.net/DTD/sodipodi-0.dtd"
   xmlns="http://www.w3.org/2000/svg"
   xmlns:svg="http://www.w3.org/2000/svg"
   xmlns:rdf="http://www.w3.org/1999/02/22-rdf-syntax-ns#"
   xmlns:cc="http://creativecommons.org/ns#"
   xmlns:dc="http://purl.org/dc/elements/1.1/">
  <metadata
     id="metadata40">
    <rdf:RDF>
      <cc:Work
         rdf:about="">
        <dc:format>image/svg+xml</dc:format>
        <dc:type
           rdf:resource="http://purl.org/dc/dcmitype/StillImage" />
      </cc:Work>
    </rdf:RDF>
  </metadata>
  <defs
     id="defs38" />
  <sodipodi:namedview
     inkscape:document-rotation="0"
     pagecolor="#b2b2b2"
     bordercolor="#666666"
     borderopacity="1"
     objecttolerance="10"
     gridtolerance="10"
     guidetolerance="10"
     inkscape:pageopacity="0"
     inkscape:pageshadow="2"
     inkscape:window-width="1920"
     inkscape:window-height="1015"
     id="namedview36"
     showgrid="false"
     inkscape:snap-bbox="true"
     inkscape:bbox-nodes="true"
     inkscape:zoom="6.8300085"
     inkscape:cx="12.811111"
     inkscape:cy="26.939937"
     inkscape:window-x="0"
     inkscape:window-y="0"
     inkscape:window-maximized="1"
     inkscape:current-layer="svg4306"
     inkscape:pagecheckerboard="0"
     inkscape:lockguides="false">
    <inkscape:grid
       type="xygrid"
       id="grid865"
       originx="-22"
       originy="0" />
  </sodipodi:namedview>
  <style
     type="text/css"
     id="current-color-scheme">
.ColorScheme-Text { 
    color:#ffffff;
}
.ColorScheme-ButtonFocus { color:#3daee9; }
.ColorScheme-NegativeText { color:#da4453; }
</style>
  <g
     id="active-center"
     transform="translate(-22)">
    <rect
       y="0"
       x="0"
       height="22"
       width="22"
       id="rect953-2-7"
       style="opacity:0.003;fill:#050505;fill-opacity:1;stroke-width:1.001" />
    <path
       fill-rule="evenodd"
       clip-rule="evenodd"
       d="m 15.957351,10.368584 c -0.0033,0.0035 -0.004,0.0095 -0.01007,0.01288 -0.341249,0.341877 -0.341249,0.895851 0,1.237093 0.0044,0.0044 0.009,0.01 0.01064,0.01449 l 1.529897,1.529637 c 0.682293,0.6823 0.682293,1.789102 0,2.471402 l -1.853623,1.854036 c -0.68273,0.682504 -1.789129,0.682504 -2.471835,0 l -1.530265,-1.530094 c -0.004,-0.0037 -0.0095,-0.004 -0.0139,-0.01028 -0.341458,-0.341874 -0.895218,-0.341874 -1.23714,0 -0.170845,0.170619 -0.447592,0.170619 -0.61843,0 -0.170624,-0.170626 -0.170624,-0.447584 0,-0.618863 l -10e-4,-0.0011 0.138601,-0.138799 c 0.0039,-0.0044 0.01152,-0.0091 0.01715,-0.01426 0.59772,-0.597916 1.567265,-0.597916 2.164768,0 0.005,0.0051 0.01261,0.01062 0.01909,0.01575 l 1.524705,1.525184 c 0.426671,0.426252 1.11839,0.426252 1.545068,0 l 1.54462,-1.545223 c 0.42625,-0.426229 0.42625,-1.117715 0,-1.544599 l -1.525199,-1.524341 c -0.0047,-0.005 -0.0099,-0.01261 -0.01556,-0.01928 -0.597505,-0.597719 -0.597505,-1.566823 0,-2.164741 0.009,-0.0043 0.0099,-0.01207 0.01426,-0.01701 l 1.526483,-1.5267724 c 0.426249,-0.4262273 0.426249,-1.1177126 0,-1.5445962 L 15.17101,5.2845784 c -0.42667,-0.4266657 -1.118369,-0.4266657 -1.545062,0 l -1.523853,1.523699 c -0.005,0.0065 -0.01297,0.0098 -0.01986,0.01687 -0.597538,0.5979432 -1.567045,0.5979432 -2.164767,0 -0.0047,-0.0067 -0.0127,-0.0098 -0.01845,-0.01537 l -1.5253231,-1.52515 c -0.4262551,-0.4266643 -1.1179311,-0.4266643 -1.5446243,0 L 5.2844754,6.8292228 c -0.4268837,0.4268836 -0.4268837,1.11837 0,1.5445967 L 6.8094392,9.899005 c 0.0055,0.0043 0.0093,0.01234 0.01537,0.01845 0.5979429,0.597945 0.5979429,1.567026 0,2.164747 -0.0071,0.009 -0.01077,0.0136 -0.01665,0.02001 l -1.5236784,1.523661 c -0.426883,0.426883 -0.426883,1.11838 0,1.544592 l 1.3906268,1.391292 -0.05211,0.05186 c 0.073249,0.01854 0.1443729,0.05005 0.2018202,0.10766 0.1712513,0.170629 0.1712513,0.447611 0,0.618231 -0.1706215,0.170812 -0.4476081,0.170812 -0.6182321,0 -0.057639,-0.05747 -0.08862,-0.128352 -0.1071617,-0.201818 l -0.04187,0.04188 -1.5454726,-1.545696 c -0.6827062,-0.682295 -0.6827062,-1.7891 0,-2.471399 l 1.5296615,-1.529588 c 0.0043,-0.0044 0.0052,-0.01007 0.010209,-0.01443 0.3414638,-0.341243 0.3414638,-0.89522 0,-1.237097 -0.0044,-0.0035 -0.0052,-0.0095 -0.0093,-0.01288 L 4.5120302,8.8371887 c -0.6827069,-0.6822963 -0.6827069,-1.7891256 0,-2.4713966 L 6.3656964,4.5121564 c 0.6822705,-0.6827075 1.7889081,-0.6827075 2.4718339,0 l 1.5292287,1.5294478 c 0.004,0.0041 0.01035,0.0052 0.0144,0.010209 0.341898,0.3419002 0.895652,0.3419002 1.237141,0 0.0047,-0.0055 0.01064,-0.00649 0.01518,-0.01077 L 13.16253,4.51203 c 0.682736,-0.6827067 1.789126,-0.6827067 2.471834,0 l 1.853629,1.8536295 c 0.682298,0.6822713 0.682298,1.7891004 0,2.4713963 z m -7.1439322,5.87966 c 0.2410866,0 0.4369182,0.195799 0.4369182,0.437568 0,0.24109 -0.1958056,0.43733 -0.4369182,0.43733 -0.2417421,0 -0.4373555,-0.19624 -0.4373555,-0.43733 0,-0.241769 0.1956134,-0.437568 0.4373555,-0.437568 z"
       id="path2-3-3"
       style="stroke-width:0.0273433;fill-opacity:1;fill:currentColor;"
       class="ColorScheme-Text" />
  </g>
  <g
     id="hover-center">
    <rect
       style="opacity:0.003;fill:#050505;fill-opacity:1;stroke-width:1.001"
       id="rect953-2-7-2"
       width="22"
       height="22"
       x="0"
       y="0" />
    <path
       fill-rule="evenodd"
       clip-rule="evenodd"
       d="m 15.957351,10.368583 c -0.0033,0.0035 -0.004,0.0095 -0.01007,0.01288 -0.341249,0.341877 -0.341249,0.895851 0,1.237093 0.0044,0.0044 0.009,0.01 0.01064,0.01449 l 1.529897,1.529637 c 0.682293,0.6823 0.682293,1.789102 0,2.471402 l -1.853623,1.854036 c -0.68273,0.682504 -1.789129,0.682504 -2.471835,0 l -1.530265,-1.530094 c -0.004,-0.0037 -0.0095,-0.004 -0.0139,-0.01028 -0.341458,-0.341874 -0.895218,-0.341874 -1.23714,0 -0.170845,0.170619 -0.4475917,0.170619 -0.6184297,0 -0.170624,-0.170626 -0.170624,-0.447584 0,-0.618863 l -10e-4,-0.0011 0.138601,-0.138799 c 0.0039,-0.0044 0.01152,-0.0091 0.01715,-0.01426 0.5977197,-0.597916 1.5672647,-0.597916 2.1647677,0 0.005,0.0051 0.01261,0.01062 0.01909,0.01575 l 1.524705,1.525184 c 0.426671,0.426252 1.11839,0.426252 1.545068,0 l 1.54462,-1.545223 c 0.42625,-0.426229 0.42625,-1.117715 0,-1.544599 l -1.525199,-1.524341 c -0.0047,-0.005 -0.0099,-0.01261 -0.01556,-0.01928 -0.597505,-0.597719 -0.597505,-1.566823 0,-2.1647407 0.009,-0.0043 0.0099,-0.01207 0.01426,-0.01701 l 1.526483,-1.5267719 c 0.426249,-0.426228 0.426249,-1.117713 0,-1.544597 L 15.17101,5.2845772 c -0.42667,-0.426665 -1.118369,-0.426665 -1.545062,0 l -1.523853,1.523699 c -0.005,0.0065 -0.01297,0.0098 -0.01986,0.01687 -0.597538,0.597944 -1.567045,0.597944 -2.1647667,0 -0.0047,-0.0067 -0.0127,-0.0098 -0.01845,-0.01537 l -1.5253229,-1.52515 c -0.426255,-0.426664 -1.1179312,-0.426664 -1.5446242,0 l -1.544596,1.544596 c -0.426883,0.426883 -0.426883,1.11837 0,1.5445971 l 1.524964,1.525185 c 0.0055,0.0043 0.0093,0.01234 0.01537,0.01845 0.597943,0.5979447 0.597943,1.5670257 0,2.1647467 -0.0071,0.009 -0.01077,0.0136 -0.01665,0.02001 l -1.523678,1.523661 c -0.426883,0.426883 -0.426883,1.11838 0,1.544592 l 1.390627,1.391292 -0.05211,0.05186 c 0.07325,0.01854 0.144372,0.05005 0.20182,0.10766 0.171251,0.170629 0.171251,0.447611 0,0.618231 -0.170622,0.170812 -0.447608,0.170812 -0.618232,0 -0.05764,-0.05747 -0.08862,-0.128352 -0.107162,-0.201818 l -0.04187,0.04188 -1.545473,-1.545696 c -0.682706,-0.682295 -0.682706,-1.7891 0,-2.471399 l 1.529662,-1.529588 c 0.0043,-0.0044 0.0052,-0.01007 0.01021,-0.01443 0.341464,-0.341243 0.341464,-0.89522 0,-1.237097 -0.0044,-0.0035 -0.0052,-0.0095 -0.0093,-0.01288 L 4.5120302,8.8371883 c -0.6827069,-0.6822971 -0.6827069,-1.7891261 0,-2.4713971 l 1.853666,-1.853636 c 0.682271,-0.682707 1.7889081,-0.682707 2.4718342,0 l 1.5292286,1.529448 c 0.004,0.0041 0.01035,0.0052 0.0144,0.01021 0.341898,0.3419 0.895652,0.3419 1.237141,0 0.0047,-0.0055 0.01064,-0.0065 0.01518,-0.01077 l 1.52905,-1.529013 c 0.682736,-0.6827069 1.789126,-0.6827069 2.471834,0 l 1.853629,1.85363 c 0.682298,0.682271 0.682298,1.7891 0,2.471396 z m -7.1439317,5.87966 c 0.241086,0 0.4369181,0.195799 0.4369181,0.437568 0,0.24109 -0.195806,0.43733 -0.4369181,0.43733 -0.2417419,0 -0.4373559,-0.19624 -0.4373559,-0.43733 0,-0.241769 0.195614,-0.437568 0.4373559,-0.437568 z"
       id="path2-3-3-2"
       style="fill:#ff3333;fill-opacity:1;stroke-width:0.0273433;enable-background:new" />
  </g>
  <g
     id="pressed-center"
     transform="translate(22)">
    <rect
       style="opacity:0.003;fill:#050505;fill-opacity:1;stroke-width:1.001"
       id="rect953-2-7-6"
       width="22"
       height="22"
       x="0"
       y="0" />
    <path
       fill-rule="evenodd"
       clip-rule="evenodd"
       d="m 15.957351,10.368583 c -0.0033,0.0035 -0.004,0.0095 -0.01007,0.01288 -0.341249,0.341877 -0.341249,0.895851 0,1.237093 0.0044,0.0044 0.009,0.01 0.01064,0.01449 l 1.529897,1.529637 c 0.682293,0.6823 0.682293,1.789102 0,2.471402 l -1.853623,1.854036 c -0.68273,0.682504 -1.789129,0.682504 -2.471835,0 l -1.530265,-1.530094 c -0.004,-0.0037 -0.0095,-0.004 -0.0139,-0.01028 -0.341458,-0.341874 -0.895218,-0.341874 -1.23714,0 -0.170845,0.170619 -0.4475917,0.170619 -0.6184297,0 -0.170624,-0.170626 -0.170624,-0.447584 0,-0.618863 l -10e-4,-0.0011 0.1386011,-0.138799 c 0.0039,-0.0044 0.01152,-0.0091 0.01715,-0.01426 0.5977196,-0.597916 1.5672646,-0.597916 2.1647676,0 0.005,0.0051 0.01261,0.01062 0.01909,0.01575 l 1.524705,1.525184 c 0.426671,0.426252 1.11839,0.426252 1.545068,0 l 1.54462,-1.545223 c 0.42625,-0.426229 0.42625,-1.117715 0,-1.544599 l -1.525199,-1.524341 c -0.0047,-0.005 -0.0099,-0.01261 -0.01556,-0.01928 -0.597505,-0.597719 -0.597505,-1.566823 0,-2.1647408 0.009,-0.0043 0.0099,-0.01207 0.01426,-0.01701 l 1.526483,-1.526772 c 0.426249,-0.426228 0.426249,-1.117713 0,-1.544597 L 15.17101,5.2845772 c -0.42667,-0.426665 -1.118369,-0.426665 -1.545062,0 l -1.523853,1.523699 c -0.005,0.0065 -0.01297,0.0098 -0.01986,0.01687 -0.597538,0.597944 -1.567045,0.597944 -2.1647667,0 -0.0047,-0.0067 -0.0127,-0.0098 -0.01845,-0.01537 l -1.525323,-1.52515 c -0.4262551,-0.426664 -1.117931,-0.426664 -1.544624,0 l -1.5445961,1.544596 c -0.426883,0.426883 -0.426883,1.11837 0,1.544597 l 1.524964,1.525185 c 0.0055,0.0043 0.0093,0.01234 0.01537,0.01845 0.597943,0.5979448 0.597943,1.5670258 0,2.1647468 -0.0071,0.009 -0.01077,0.0136 -0.01665,0.02001 l -1.523678,1.523661 c -0.426883,0.426883 -0.426883,1.11838 0,1.544592 l 1.390627,1.391292 -0.05211,0.05186 c 0.07325,0.01854 0.144372,0.05005 0.20182,0.10766 0.171251,0.170629 0.171251,0.447611 0,0.618231 -0.170622,0.170812 -0.447608,0.170812 -0.618232,0 -0.05764,-0.05747 -0.08862,-0.128352 -0.107162,-0.201818 l -0.04187,0.04188 -1.545473,-1.545696 c -0.682706,-0.682295 -0.682706,-1.7891 0,-2.471399 l 1.529662,-1.529588 c 0.0043,-0.0044 0.0052,-0.01007 0.01021,-0.01443 0.341464,-0.341243 0.341464,-0.89522 0,-1.237097 -0.0044,-0.0035 -0.0052,-0.0095 -0.0093,-0.01288 L 4.5120302,8.8371882 c -0.6827069,-0.682297 -0.6827069,-1.789126 0,-2.471397 l 1.8536661,-1.853636 c 0.682271,-0.682707 1.788908,-0.682707 2.471834,0 l 1.5292287,1.529448 c 0.004,0.0041 0.01035,0.0052 0.0144,0.01021 0.341898,0.3419 0.895652,0.3419 1.237141,0 0.0047,-0.0055 0.01064,-0.0065 0.01518,-0.01077 l 1.52905,-1.529013 c 0.682736,-0.6827069 1.789126,-0.6827069 2.471834,0 l 1.853629,1.85363 c 0.682298,0.682271 0.682298,1.7891 0,2.471396 z m -7.1439317,5.87966 c 0.241086,0 0.4369179,0.195799 0.4369179,0.437568 0,0.24109 -0.1958059,0.43733 -0.4369179,0.43733 -0.2417421,0 -0.4373561,-0.19624 -0.4373561,-0.43733 0,-0.241769 0.195614,-0.437568 0.4373561,-0.437568 z"
       id="path2-3-3-2-9"
       style="fill:#ff8080;fill-opacity:1;stroke-width:0.0273433;enable-background:new" />
  </g>
  <g
     id="inactive-center"
     transform="translate(-22,22)">
    <rect
       style="opacity:0.003;fill:#050505;fill-opacity:1;stroke-width:1.001"
       id="rect953-2"
       width="22"
       height="22"
       x="0"
       y="0" />
    <path
       fill-rule="evenodd"
       clip-rule="evenodd"
       d="m 15.95735,10.368583 c -0.0033,0.0035 -0.004,0.0095 -0.01007,0.01288 -0.341249,0.341877 -0.341249,0.895851 0,1.237093 0.0044,0.0044 0.009,0.01 0.01064,0.01449 l 1.529897,1.529637 c 0.682293,0.6823 0.682293,1.789102 0,2.471402 l -1.853623,1.854036 c -0.68273,0.682504 -1.789129,0.682504 -2.471835,0 l -1.530265,-1.530094 c -0.004,-0.0037 -0.0095,-0.004 -0.0139,-0.01028 -0.341458,-0.341874 -0.895218,-0.341874 -1.23714,0 -0.170845,0.170619 -0.447592,0.170619 -0.6184298,0 -0.170624,-0.170626 -0.170624,-0.447584 0,-0.618863 l -9.999e-4,-0.0011 0.138601,-0.138799 c 0.0039,-0.0044 0.01152,-0.0091 0.01715,-0.01426 0.5977197,-0.597916 1.5672647,-0.597916 2.1647677,0 0.005,0.0051 0.01261,0.01062 0.01909,0.01575 l 1.524705,1.525184 c 0.426671,0.426252 1.11839,0.426252 1.545068,0 l 1.54462,-1.545223 c 0.42625,-0.426229 0.42625,-1.117715 0,-1.544599 l -1.525199,-1.524341 c -0.0047,-0.005 -0.0099,-0.01261 -0.01556,-0.01928 -0.597505,-0.597719 -0.597505,-1.566823 0,-2.164741 0.009,-0.0043 0.0099,-0.01207 0.01426,-0.01701 L 16.71561,8.3736933 c 0.426249,-0.4262281 0.426249,-1.1177131 0,-1.544597 L 15.171009,5.2845772 c -0.42667,-0.426665 -1.118369,-0.426665 -1.545062,0 l -1.523853,1.523699 c -0.005,0.0065 -0.01297,0.0098 -0.01986,0.01687 -0.597538,0.597944 -1.567045,0.597944 -2.164767,0 -0.0047,-0.0067 -0.0127,-0.0098 -0.01845,-0.01537 l -1.5253228,-1.52515 c -0.426255,-0.426664 -1.117931,-0.426664 -1.544624,0 l -1.544596,1.5445961 c -0.426883,0.426883 -0.426883,1.11837 0,1.544596 l 1.524964,1.525186 c 0.0055,0.0043 0.0093,0.01234 0.01537,0.01845 0.597943,0.5979447 0.597943,1.5670257 0,2.1647467 -0.0071,0.009 -0.01077,0.0136 -0.01665,0.02001 l -1.523678,1.523661 c -0.426883,0.426883 -0.426883,1.11838 0,1.544592 l 1.390627,1.391292 -0.05211,0.05186 c 0.07325,0.01854 0.144372,0.05005 0.20182,0.10766 0.171251,0.170629 0.171251,0.447611 0,0.618231 -0.170622,0.170812 -0.447608,0.170812 -0.618232,0 -0.05764,-0.05747 -0.08862,-0.128352 -0.107162,-0.201818 l -0.04187,0.04188 -1.545473,-1.545696 c -0.682706,-0.682295 -0.682706,-1.7891 0,-2.471399 l 1.529662,-1.529588 c 0.0043,-0.0044 0.0052,-0.01007 0.01021,-0.01443 0.341464,-0.341243 0.341464,-0.89522 0,-1.237097 -0.0044,-0.0035 -0.0052,-0.0095 -0.0093,-0.01288 L 4.5120302,8.8371882 c -0.6827069,-0.6822969 -0.6827069,-1.7891259 0,-2.4713969 l 1.853666,-1.8536361 c 0.682271,-0.6827069 1.7889081,-0.6827069 2.4718341,0 l 1.5292287,1.5294481 c 0.004,0.0041 0.01035,0.0052 0.0144,0.01021 0.341898,0.3419 0.895652,0.3419 1.237141,0 0.0047,-0.0055 0.01064,-0.0065 0.01518,-0.01077 l 1.52905,-1.5290131 c 0.682736,-0.6827069 1.789126,-0.6827069 2.471834,0 l 1.853629,1.8536291 c 0.682298,0.682272 0.682298,1.789101 0,2.471397 z m -7.1439317,5.87966 c 0.241086,0 0.436918,0.195799 0.436918,0.437568 0,0.24109 -0.195806,0.43733 -0.436918,0.43733 -0.241742,0 -0.437356,-0.19624 -0.437356,-0.43733 0,-0.241769 0.195614,-0.437568 0.437356,-0.437568 z"
       id="path2-3-3-3"
       style="enable-background:new;stroke-width:0.0273433;fill-opacity:0.5;fill:currentColor;"
       class="ColorScheme-Text" />
  </g>
  <g
     id="hover-inactive-center"
     transform="translate(0,22)">
    <rect
       y="0"
       x="0"
       height="22"
       width="22"
       id="rect953-2-7-2-7"
       style="opacity:0.003;fill:#050505;fill-opacity:1;stroke-width:1.001" />
    <path
       fill-rule="evenodd"
       clip-rule="evenodd"
       d="m 15.957351,10.368583 c -0.0033,0.0035 -0.004,0.0095 -0.01007,0.01288 -0.341249,0.341877 -0.341249,0.895851 0,1.237093 0.0044,0.0044 0.009,0.01 0.01064,0.01449 l 1.529897,1.529637 c 0.682293,0.6823 0.682293,1.789102 0,2.471402 l -1.853623,1.854036 c -0.68273,0.682504 -1.789129,0.682504 -2.471835,0 l -1.530265,-1.530094 c -0.004,-0.0037 -0.0095,-0.004 -0.0139,-0.01028 -0.341458,-0.341874 -0.895218,-0.341874 -1.23714,0 -0.170845,0.170619 -0.447592,0.170619 -0.6184298,0 -0.170624,-0.170626 -0.170624,-0.447584 0,-0.618863 l -0.001,-0.0011 0.138601,-0.138799 c 0.0039,-0.0044 0.01152,-0.0091 0.01715,-0.01426 0.5977198,-0.597916 1.5672648,-0.597916 2.1647678,0 0.005,0.0051 0.01261,0.01062 0.01909,0.01575 l 1.524705,1.525184 c 0.426671,0.426252 1.11839,0.426252 1.545068,0 l 1.54462,-1.545223 c 0.42625,-0.426229 0.42625,-1.117715 0,-1.544599 l -1.525199,-1.524341 c -0.0047,-0.005 -0.0099,-0.01261 -0.01556,-0.01928 -0.597505,-0.597719 -0.597505,-1.566823 0,-2.16474 0.009,-0.0043 0.0099,-0.012071 0.01426,-0.01701 l 1.526483,-1.5267719 c 0.426249,-0.426228 0.426249,-1.117713 0,-1.544597 L 15.17101,5.2845774 c -0.42667,-0.426665 -1.118369,-0.426665 -1.545062,0 l -1.523853,1.523699 c -0.005,0.0065 -0.01297,0.0098 -0.01986,0.01687 -0.597538,0.597944 -1.567045,0.597944 -2.164767,0 -0.0047,-0.0067 -0.0127,-0.0098 -0.01845,-0.01537 l -1.5253228,-1.52515 c -0.426255,-0.426664 -1.117931,-0.426664 -1.544624,0 l -1.544596,1.544596 c -0.426883,0.426883 -0.426883,1.11837 0,1.5445971 l 1.524964,1.525185 c 0.0055,0.0043 0.0093,0.01234 0.01537,0.018451 0.597943,0.5979445 0.597943,1.5670255 0,2.1647465 -0.0071,0.009 -0.01077,0.0136 -0.01665,0.02001 l -1.523678,1.523661 c -0.426883,0.426883 -0.426883,1.11838 0,1.544592 l 1.390627,1.391292 -0.05211,0.05186 c 0.07325,0.01854 0.144372,0.05005 0.20182,0.10766 0.171251,0.170629 0.171251,0.44761 0,0.618231 -0.170622,0.170812 -0.447608,0.170812 -0.618232,0 -0.05764,-0.05747 -0.08862,-0.128352 -0.107162,-0.201818 l -0.04187,0.04188 -1.545473,-1.545696 c -0.682706,-0.682295 -0.682706,-1.7891 0,-2.471399 l 1.529662,-1.529588 c 0.0043,-0.0044 0.0052,-0.01007 0.01021,-0.01443 0.341464,-0.341243 0.341464,-0.89522 0,-1.237097 -0.0044,-0.0035 -0.0052,-0.0095 -0.0093,-0.01288 L 4.5120302,8.8371885 c -0.6827069,-0.6822971 -0.6827069,-1.7891261 0,-2.4713971 l 1.853666,-1.853636 c 0.6822711,-0.6827072 1.788908,-0.6827072 2.471834,0 l 1.5292288,1.529448 c 0.004,0.0041 0.01035,0.0052 0.0144,0.01021 0.341898,0.3419 0.895652,0.3419 1.237141,0 0.0047,-0.0055 0.01064,-0.0065 0.01518,-0.01077 l 1.52905,-1.529013 c 0.682736,-0.6827072 1.789126,-0.6827072 2.471834,0 l 1.853629,1.85363 c 0.682298,0.682271 0.682298,1.7891 0,2.471396 z m -7.1439318,5.87966 c 0.241086,0 0.436918,0.195799 0.436918,0.437568 0,0.24109 -0.1958059,0.43733 -0.436918,0.43733 -0.241742,0 -0.437356,-0.19624 -0.437356,-0.43733 0,-0.241769 0.195614,-0.437568 0.437356,-0.437568 z"
       id="path2-3-3-2-6"
       style="fill:#ff3333;fill-opacity:1;stroke-width:0.0273433;enable-background:new" />
  </g>
  <g
     id="pressed-inactive-center"
     transform="translate(22,22)">
    <rect
       y="0"
       x="0"
       height="22"
       width="22"
       id="rect953-2-7-6-5"
       style="opacity:0.003;fill:#050505;fill-opacity:1;stroke-width:1.001" />
    <path
       fill-rule="evenodd"
       clip-rule="evenodd"
       d="m 15.957351,10.368583 c -0.0033,0.0035 -0.004,0.0095 -0.01007,0.01288 -0.341249,0.341877 -0.341249,0.895851 0,1.237093 0.0044,0.0044 0.009,0.01 0.01064,0.01449 l 1.529897,1.529637 c 0.682292,0.6823 0.682292,1.789102 0,2.471402 l -1.853623,1.854036 c -0.68273,0.682504 -1.789129,0.682504 -2.471835,0 l -1.530265,-1.530094 c -0.004,-0.0037 -0.0095,-0.004 -0.0139,-0.01028 -0.341458,-0.341874 -0.895218,-0.341874 -1.23714,0 -0.170845,0.170619 -0.447592,0.170619 -0.61843,0 -0.170624,-0.170626 -0.170624,-0.447584 0,-0.618863 l -10e-4,-0.0011 0.138601,-0.138799 c 0.0039,-0.0044 0.01152,-0.0091 0.01715,-0.01426 0.59772,-0.597916 1.567265,-0.597916 2.164768,0 0.005,0.0051 0.01261,0.01062 0.01909,0.01575 l 1.524705,1.525184 c 0.426671,0.426252 1.11839,0.426252 1.545068,0 l 1.54462,-1.545223 c 0.42625,-0.426229 0.42625,-1.117715 0,-1.544599 l -1.525199,-1.524341 c -0.0047,-0.005 -0.0099,-0.01261 -0.01556,-0.01928 -0.597505,-0.597719 -0.597505,-1.566823 0,-2.164741 0.009,-0.0043 0.0099,-0.01207 0.01426,-0.01701 l 1.526483,-1.5267718 c 0.426249,-0.426228 0.426249,-1.117713 0,-1.544597 L 15.17101,5.2845772 c -0.42667,-0.426665 -1.118369,-0.426665 -1.545062,0 l -1.523853,1.523699 c -0.005,0.0065 -0.01297,0.0098 -0.01986,0.01687 -0.597538,0.597944 -1.567045,0.597944 -2.164767,0 -0.0047,-0.0067 -0.0127,-0.0098 -0.01845,-0.01537 l -1.5253225,-1.52515 c -0.426255,-0.426664 -1.1179311,-0.426664 -1.544624,0 l -1.5445961,1.544596 c -0.426883,0.426883 -0.426883,1.11837 0,1.544597 l 1.524964,1.5251848 c 0.0055,0.0043 0.0093,0.01234 0.01537,0.01845 0.597943,0.597945 0.597943,1.567026 0,2.164747 -0.0071,0.009 -0.01077,0.0136 -0.01665,0.02001 l -1.523678,1.523661 c -0.4268832,0.426883 -0.4268832,1.11838 0,1.544592 l 1.390627,1.391292 -0.05211,0.05186 c 0.07325,0.01854 0.1443719,0.05005 0.2018199,0.10766 0.171251,0.170629 0.171251,0.447611 0,0.618231 -0.170622,0.170812 -0.447608,0.170812 -0.618232,0 -0.05764,-0.05747 -0.08862,-0.128352 -0.1071619,-0.201818 l -0.04187,0.04188 -1.545473,-1.545696 c -0.682706,-0.682295 -0.682706,-1.7891 0,-2.471399 l 1.529662,-1.529588 c 0.0043,-0.0044 0.0052,-0.01007 0.01021,-0.01443 0.3414641,-0.341243 0.3414641,-0.89522 0,-1.237097 -0.0044,-0.0035 -0.0052,-0.0095 -0.0093,-0.01288 L 4.5120302,8.8371882 c -0.6827069,-0.682297 -0.6827069,-1.789126 0,-2.471397 l 1.853666,-1.853636 c 0.682271,-0.682707 1.788908,-0.682707 2.4718342,0 l 1.5292286,1.529448 c 0.004,0.0041 0.01035,0.0052 0.0144,0.01021 0.341898,0.3419 0.895652,0.3419 1.237141,0 0.0047,-0.0055 0.01064,-0.0065 0.01518,-0.01077 l 1.52905,-1.529013 c 0.682736,-0.6827069 1.789126,-0.6827069 2.471834,0 l 1.853629,1.85363 c 0.682297,0.682271 0.682297,1.7891 0,2.471396 z m -7.1439316,5.87966 c 0.2410856,0 0.4369177,0.195799 0.4369177,0.437568 0,0.24109 -0.195806,0.43733 -0.4369177,0.43733 -0.241742,0 -0.437356,-0.19624 -0.437356,-0.43733 0,-0.241769 0.195614,-0.437568 0.437356,-0.437568 z"
       id="path2-3-3-2-9-7"
       style="fill:#ff8080;fill-opacity:1;stroke-width:0.0273433;enable-background:new" />
  </g>
  <g
     id="deactivated-center"
     style="fill:#e5e5e5;fill-opacity:0.501961"
     transform="translate(44)">
    <rect
       y="0"
       x="0"
       height="22"
       width="22"
       id="rect953-2-8"
       style="opacity:0.003;fill:#050505;fill-opacity:1;stroke-width:1.001" />
    <path
       fill-rule="evenodd"
       clip-rule="evenodd"
       d="m 15.95735,10.368583 c -0.0033,0.0035 -0.004,0.0095 -0.01007,0.01288 -0.341249,0.341877 -0.341249,0.895851 0,1.237093 0.0044,0.0044 0.009,0.01 0.01064,0.01449 l 1.529897,1.529637 c 0.682293,0.6823 0.682293,1.789102 0,2.471402 l -1.853623,1.854036 c -0.68273,0.682504 -1.789129,0.682504 -2.471835,0 l -1.530265,-1.530094 c -0.004,-0.0037 -0.0095,-0.004 -0.0139,-0.01028 -0.341458,-0.341874 -0.895218,-0.341874 -1.23714,0 -0.170845,0.170619 -0.4475917,0.170619 -0.6184297,0 -0.170624,-0.170626 -0.170624,-0.447584 0,-0.618863 l -0.001,-0.0011 0.138601,-0.138799 c 0.0039,-0.0044 0.01152,-0.0091 0.01715,-0.01426 0.5977197,-0.597916 1.5672647,-0.597916 2.1647677,0 0.005,0.0051 0.01261,0.01062 0.01909,0.01575 l 1.524705,1.525184 c 0.426671,0.426252 1.11839,0.426252 1.545068,0 l 1.54462,-1.545223 c 0.42625,-0.426229 0.42625,-1.117715 0,-1.544599 l -1.525199,-1.524341 c -0.0047,-0.005 -0.0099,-0.01261 -0.01556,-0.01928 -0.597505,-0.597719 -0.597505,-1.566823 0,-2.164741 0.009,-0.0043 0.0099,-0.01207 0.01426,-0.01701 L 16.71561,8.3736934 c 0.426249,-0.426228 0.426249,-1.1177129 0,-1.5445971 l -1.544601,-1.544519 c -0.42667,-0.426665 -1.118369,-0.426665 -1.545062,0 l -1.523853,1.523699 c -0.005,0.0065 -0.01297,0.0098 -0.01986,0.01687 -0.597538,0.5979442 -1.567045,0.5979442 -2.1647668,0 -0.0047,-0.0067 -0.0127,-0.0098 -0.01845,-0.01537 l -1.525323,-1.52515 c -0.426255,-0.426664 -1.117931,-0.426664 -1.544624,0 l -1.544596,1.544596 c -0.426883,0.426883 -0.426883,1.1183702 0,1.5445962 l 1.524964,1.5251855 c 0.0055,0.0043 0.0093,0.01234 0.01537,0.01845 0.5979431,0.597945 0.5979431,1.567026 0,2.164747 -0.0071,0.009 -0.01077,0.0136 -0.01665,0.02001 l -1.523678,1.523661 c -0.426883,0.426883 -0.426883,1.11838 0,1.544592 l 1.3906269,1.391292 -0.05211,0.05186 c 0.07325,0.01854 0.144372,0.05005 0.20182,0.10766 0.171251,0.170629 0.171251,0.447611 0,0.618231 -0.170622,0.170812 -0.447608,0.170812 -0.618232,0 -0.05764,-0.05747 -0.08862,-0.128352 -0.107162,-0.201818 l -0.04187,0.04188 -1.545473,-1.545696 c -0.682706,-0.682295 -0.682706,-1.7891 0,-2.471399 l 1.529662,-1.529588 c 0.0043,-0.0044 0.0052,-0.01007 0.01021,-0.01443 0.341464,-0.341243 0.341464,-0.89522 0,-1.237097 -0.0044,-0.0035 -0.0052,-0.0095 -0.0093,-0.01288 L 4.5120303,8.8371887 c -0.682707,-0.6822971 -0.682707,-1.7891262 0,-2.4713972 l 1.853666,-1.8536362 c 0.682271,-0.6827069 1.788908,-0.6827069 2.471834,0 l 1.5292287,1.5294481 c 0.004,0.0041 0.01035,0.0052 0.0144,0.01021 0.341898,0.3419 0.895652,0.3419 1.237141,0 0.0047,-0.0055 0.01064,-0.0065 0.01518,-0.01077 l 1.52905,-1.5290132 c 0.682736,-0.6827069 1.789126,-0.6827069 2.471834,0 l 1.853629,1.8536291 c 0.682298,0.6822721 0.682298,1.7891011 0,2.4713973 z m -7.1439317,5.87966 c 0.241086,0 0.436918,0.195799 0.436918,0.437568 0,0.24109 -0.195806,0.43733 -0.436918,0.43733 -0.241742,0 -0.437356,-0.19624 -0.437356,-0.43733 0,-0.241769 0.195614,-0.437568 0.437356,-0.437568 z"
       id="path2-3-3-3-5"
       style="enable-background:new;stroke-width:0.0273433;fill-opacity:0.50196099;fill:currentColor"
       class="ColorScheme-Text" />
  </g>
  <g
     id="deactivated-inactive-center"
     transform="translate(44,22)">
    <rect
       style="opacity:0.003;fill:#050505;fill-opacity:1;stroke-width:1.001"
       id="rect953-2-8-9"
       width="22"
       height="22"
       x="0"
       y="0" />
    <path
       fill-rule="evenodd"
       clip-rule="evenodd"
       d="m 15.95735,10.368583 c -0.0033,0.0035 -0.004,0.0095 -0.01007,0.01288 -0.341249,0.341877 -0.341249,0.895851 0,1.237093 0.0044,0.0044 0.009,0.01 0.01064,0.01449 l 1.529897,1.529637 c 0.682293,0.6823 0.682293,1.789102 0,2.471402 l -1.853623,1.854036 c -0.68273,0.682504 -1.789129,0.682504 -2.471835,0 l -1.530265,-1.530094 c -0.004,-0.0037 -0.0095,-0.004 -0.0139,-0.01028 -0.341458,-0.341874 -0.895218,-0.341874 -1.23714,0 -0.170845,0.170619 -0.447592,0.170619 -0.6184296,0 -0.170624,-0.170626 -0.170624,-0.447584 0,-0.618863 l -10e-4,-0.0011 0.138601,-0.138799 c 0.0039,-0.0044 0.01152,-0.0091 0.01715,-0.01426 0.5977196,-0.597916 1.5672646,-0.597916 2.1647676,0 0.005,0.0051 0.01261,0.01062 0.01909,0.01575 l 1.524705,1.525184 c 0.426671,0.426252 1.11839,0.426252 1.545068,0 l 1.54462,-1.545223 c 0.42625,-0.426229 0.42625,-1.117715 0,-1.544599 l -1.525199,-1.524341 c -0.0047,-0.005 -0.0099,-0.01261 -0.01556,-0.01928 -0.597505,-0.597719 -0.597505,-1.566823 0,-2.164741 0.009,-0.0043 0.0099,-0.01207 0.01426,-0.01701 L 16.71561,8.3736934 c 0.426249,-0.426228 0.426249,-1.1177129 0,-1.5445971 l -1.544601,-1.544519 c -0.42667,-0.426665 -1.118369,-0.426665 -1.545062,0 l -1.523853,1.523699 c -0.005,0.0065 -0.01297,0.0098 -0.01986,0.01687 -0.597538,0.5979442 -1.567045,0.5979442 -2.164767,0 -0.0047,-0.0067 -0.0127,-0.0098 -0.01845,-0.01537 l -1.5253225,-1.52515 c -0.4262551,-0.426664 -1.117931,-0.426664 -1.544624,0 l -1.544596,1.544596 c -0.4268832,0.426883 -0.4268832,1.1183702 0,1.5445962 L 6.8094383,9.899004 c 0.0055,0.0043 0.0093,0.01234 0.01537,0.01845 0.5979432,0.597945 0.5979432,1.567026 0,2.164747 -0.0071,0.009 -0.01077,0.0136 -0.01665,0.02001 l -1.5236781,1.523661 c -0.426883,0.426883 -0.426883,1.11838 0,1.544592 l 1.3906271,1.391292 -0.05211,0.05186 c 0.07325,0.01854 0.1443721,0.05005 0.20182,0.10766 0.1712509,0.170629 0.1712509,0.447611 0,0.618231 -0.1706221,0.170812 -0.4476082,0.170812 -0.6182322,0 -0.05764,-0.05747 -0.08862,-0.128352 -0.1071618,-0.201818 l -0.04187,0.04188 -1.5454731,-1.545696 c -0.682706,-0.682295 -0.682706,-1.7891 0,-2.471399 l 1.529662,-1.529588 c 0.0043,-0.0044 0.0052,-0.01007 0.01021,-0.01443 0.341464,-0.341243 0.341464,-0.89522 0,-1.237097 -0.0044,-0.0035 -0.0052,-0.0095 -0.0093,-0.01288 L 4.5120302,8.8371883 c -0.6827069,-0.6822967 -0.6827069,-1.7891258 0,-2.4713968 L 6.3656964,4.5121553 c 0.6822711,-0.6827069 1.788908,-0.6827069 2.4718341,0 l 1.5292285,1.5294481 c 0.004,0.0041 0.01035,0.0052 0.0144,0.01021 0.341898,0.3419 0.895652,0.3419 1.237141,0 0.0047,-0.0055 0.01064,-0.0065 0.01518,-0.01077 l 1.52905,-1.5290132 c 0.682736,-0.6827069 1.789126,-0.6827069 2.471834,0 l 1.853629,1.8536291 c 0.682298,0.6822721 0.682298,1.7891011 0,2.471397 z m -7.1439316,5.87966 c 0.2410861,0 0.4369181,0.195799 0.4369181,0.437568 0,0.24109 -0.195806,0.43733 -0.4369181,0.43733 -0.241742,0 -0.437356,-0.19624 -0.437356,-0.43733 0,-0.241769 0.195614,-0.437568 0.437356,-0.437568 z"
       id="path2-3-3-3-5-3"
       style="enable-background:new;stroke-width:0.0273433;fill-opacity:0.30196103;fill:currentColor"
       class="ColorScheme-Text" />
  </g>
</svg>
