<?xml version="1.0" encoding="UTF-8" standalone="no"?>
<svg
   inkscape:version="1.1.2 (0a00cf5339, 2022-02-04)"
   sodipodi:docname="help.svg"
   style="enable-background:new"
   version="1.1"
   height="22"
   width="22"
   id="svg4306"
   xmlns:inkscape="http://www.inkscape.org/namespaces/inkscape"
   xmlns:sodipodi="http://sodipodi.sourceforge.net/DTD/sodipodi-0.dtd"
   xmlns="http://www.w3.org/2000/svg"
   xmlns:svg="http://www.w3.org/2000/svg"
   xmlns:rdf="http://www.w3.org/1999/02/22-rdf-syntax-ns#"
   xmlns:cc="http://creativecommons.org/ns#"
   xmlns:dc="http://purl.org/dc/elements/1.1/">
  <metadata
     id="metadata28">
    <rdf:RDF>
      <cc:Work
         rdf:about="">
        <dc:format>image/svg+xml</dc:format>
        <dc:type
           rdf:resource="http://purl.org/dc/dcmitype/StillImage" />
      </cc:Work>
    </rdf:RDF>
  </metadata>
  <defs
     id="defs26" />
  <sodipodi:namedview
     inkscape:bbox-nodes="true"
     inkscape:snap-bbox="true"
     inkscape:current-layer="svg4306"
     inkscape:window-maximized="1"
     inkscape:window-y="0"
     inkscape:window-x="0"
     inkscape:cy="24.124999"
     inkscape:cx="29.062499"
     inkscape:zoom="8.0000004"
     showgrid="false"
     id="namedview24"
     inkscape:window-height="1015"
     inkscape:window-width="1920"
     inkscape:pageshadow="2"
     inkscape:pageopacity="0"
     guidetolerance="10"
     gridtolerance="10"
     objecttolerance="10"
     borderopacity="1"
     bordercolor="#666666"
     pagecolor="#b2b2b2"
     inkscape:document-rotation="0"
     inkscape:pagecheckerboard="0"
     inkscape:lockguides="false">
    <inkscape:grid
       id="grid853"
       type="xygrid"
       originx="-22"
       originy="0" />
  </sodipodi:namedview>
  <style
     id="current-color-scheme"
     type="text/css">.ColorScheme-Text { color:#ffffff; }
.ColorScheme-ButtonFocus { color:#3daee9; }
.ColorScheme-NegativeText { color:#da4453; }
</style>
  <g
     id="hover-center">
    <rect
       y="0"
       x="0"
       height="22"
       width="22"
       id="rect861-6"
       style="opacity:0.003;fill:#000000;fill-opacity:1;stroke-width:1.02253" />
    <path
       fill-rule="evenodd"
       clip-rule="evenodd"
       d="m 11,16.25 c 0.48322,0 0.875,0.39178 0.875,0.875 C 11.875,17.60822 11.48322,18 11,18 10.51678,18 10.125,17.60822 10.125,17.125 10.125,16.64178 10.51678,16.25 11,16.25 Z M 11,5.75 C 9.55034,5.75 8.375,6.925344 8.375,8.375 8.375,8.85822 7.98322,9.25 7.5,9.25 7.01678,9.25 6.625,8.85822 6.625,8.375 6.625,5.958906 8.58391,4 11,4 c 2.41609,0 4.375,1.958906 4.375,4.375 0,1.81322 -1.10485,3.36585 -2.6763,4.02894 -0.002,8.7e-4 -0.002,0.003 -0.003,0.004 -0.48108,0.19479 -0.82031,0.66653 -0.82031,1.21723 0,0.0662 -0.006,0.11791 -0.0162,0.16193 -0.0761,0.40589 -0.4311,0.71307 -0.85876,0.71307 -0.48322,0 -0.875,-0.39178 -0.875,-0.875 0,-1.27061 0.77372,-2.36009 1.87562,-2.82412 8.7e-4,-4.3e-4 0.002,-8.7e-4 0.003,-0.002 0.95146,-0.39392 1.62138,-1.33 1.62138,-2.42419 0,-1.449656 -1.17534,-2.625 -2.625,-2.625 z M 11,4 v 0 0 0 0 0 0 0 0 0 0 0 0 0 0 0 0 0 0 0 0 0 0 0 0 0 0 1.75 z m 0,0 z"
       id="path2-3"
       sodipodi:nodetypes="sssssssssssccscssccssccccccccccccccccccccccccccccccccccccccccc"
       style="fill:#4c93ff;fill-opacity:1;stroke-width:0.0546875;enable-background:new" />
  </g>
  <g
     id="pressed-center"
     transform="translate(22)">
    <g
       id="g2477">
      <rect
         style="opacity:0.003;fill:#000000;fill-opacity:1;stroke-width:1.02253"
         id="rect861-6-6"
         width="22"
         height="22"
         x="0"
         y="0" />
      <path
         fill-rule="evenodd"
         clip-rule="evenodd"
         d="m 11,16.25 c 0.48322,0 0.875,0.39178 0.875,0.875 C 11.875,17.60822 11.48322,18 11,18 10.51678,18 10.125,17.60822 10.125,17.125 10.125,16.64178 10.51678,16.25 11,16.25 Z M 11,5.75 C 9.55034,5.75 8.375,6.925344 8.375,8.375 8.375,8.85822 7.98322,9.25 7.5,9.25 7.01678,9.25 6.625,8.85822 6.625,8.375 6.625,5.958906 8.58391,4 11,4 c 2.41609,0 4.375,1.958906 4.375,4.375 0,1.81322 -1.10485,3.36585 -2.6763,4.02894 -0.002,8.7e-4 -0.002,0.003 -0.003,0.004 -0.48108,0.19479 -0.82031,0.66653 -0.82031,1.21723 0,0.0662 -0.006,0.11791 -0.0162,0.16193 -0.0761,0.40589 -0.4311,0.71307 -0.85876,0.71307 -0.48322,0 -0.875,-0.39178 -0.875,-0.875 0,-1.27061 0.77372,-2.36009 1.87562,-2.82412 8.7e-4,-4.3e-4 0.002,-8.7e-4 0.003,-0.002 0.95146,-0.39392 1.62138,-1.33 1.62138,-2.42419 0,-1.449656 -1.17534,-2.625 -2.625,-2.625 z M 11,4 v 0 0 0 0 0 0 0 0 0 0 0 0 0 0 0 0 0 0 0 0 0 0 0 0 0 0 1.75 z m 0,0 z"
         id="path2-3-6"
         sodipodi:nodetypes="sssssssssssccscssccssccccccccccccccccccccccccccccccccccccccccc"
         style="fill:#80b1ff;fill-opacity:1;stroke-width:0.0546875;enable-background:new" />
    </g>
  </g>
  <g
     id="active-center"
     transform="translate(-22)">
    <rect
       style="opacity:0.003;fill:#000000;fill-opacity:1;stroke-width:1.02253"
       id="rect861"
       width="22"
       height="22"
       x="0"
       y="0" />
    <path
       fill-rule="evenodd"
       clip-rule="evenodd"
       d="m 10.99957,16.25 c 0.48322,0 0.875,0.39178 0.875,0.875 0,0.48322 -0.39178,0.875 -0.875,0.875 -0.48322,0 -0.875,-0.39178 -0.875,-0.875 0,-0.48322 0.39178,-0.875 0.875,-0.875 z m 0,-10.5 c -1.44966,0 -2.625,1.175344 -2.625,2.625 0,0.48322 -0.39178,0.875 -0.875,0.875 -0.48322,0 -0.875,-0.39178 -0.875,-0.875 0,-2.416094 1.95891,-4.375 4.375,-4.375 2.41609,0 4.375,1.958906 4.375,4.375 0,1.81322 -1.10485,3.36585 -2.6763,4.02894 -0.002,8.7e-4 -0.002,0.003 -0.003,0.004 -0.48108,0.19479 -0.82031,0.66653 -0.82031,1.21723 0,0.0662 -0.006,0.11791 -0.0162,0.16193 -0.0761,0.40589 -0.4311,0.71307 -0.85876,0.71307 -0.48322,0 -0.875,-0.39178 -0.875,-0.875 0,-1.27061 0.77372,-2.36009 1.87562,-2.82412 8.7e-4,-4.3e-4 0.002,-8.7e-4 0.003,-0.002 0.95146,-0.39392 1.62138,-1.33 1.62138,-2.42419 0,-1.449656 -1.17534,-2.625 -2.625,-2.625 z m 0,-1.75 v 0 0 0 0 0 0 0 0 0 0 0 0 0 0 0 0 0 0 0 0 0 0 0 0 0 0 1.75 z m 0,0 z"
       id="path2-3-3"
       sodipodi:nodetypes="sssssssssssccscssccssccccccccccccccccccccccccccccccccccccccccc"
       style="fill:currentColor;fill-opacity:1;stroke-width:0.0546875;enable-background:new"
       class="ColorScheme-Text" />
  </g>
  <g
     id="inactive-center"
     transform="translate(-22,22)">
    <rect
       y="0"
       x="0"
       height="22"
       width="22"
       id="rect861-7"
       style="opacity:0.003;fill:#000000;fill-opacity:1;stroke-width:1.02253" />
    <path
       fill-rule="evenodd"
       clip-rule="evenodd"
       d="m 10.99957,16.25 c 0.48322,0 0.875,0.39178 0.875,0.875 0,0.48322 -0.39178,0.875 -0.875,0.875 -0.48322,0 -0.875,-0.39178 -0.875,-0.875 0,-0.48322 0.39178,-0.875 0.875,-0.875 z m 0,-10.5 c -1.44966,0 -2.625,1.175344 -2.625,2.625 0,0.48322 -0.39178,0.875 -0.875,0.875 -0.48322,0 -0.875,-0.39178 -0.875,-0.875 0,-2.416094 1.95891,-4.375 4.375,-4.375 2.41609,0 4.375,1.958906 4.375,4.375 0,1.81322 -1.10485,3.36585 -2.6763,4.02894 -0.002,8.7e-4 -0.002,0.003 -0.003,0.004 -0.48108,0.19479 -0.82031,0.66653 -0.82031,1.21723 0,0.0662 -0.006,0.11791 -0.0162,0.16193 -0.0761,0.40589 -0.4311,0.71307 -0.85876,0.71307 -0.48322,0 -0.875,-0.39178 -0.875,-0.875 0,-1.27061 0.77372,-2.36009 1.87562,-2.82412 8.7e-4,-4.3e-4 0.002,-8.7e-4 0.003,-0.002 0.95146,-0.39392 1.62138,-1.33 1.62138,-2.42419 0,-1.449656 -1.17534,-2.625 -2.625,-2.625 z m 0,-1.75 v 0 0 0 0 0 0 0 0 0 0 0 0 0 0 0 0 0 0 0 0 0 0 0 0 0 0 1.75 z m 0,0 z"
       id="path2-3-3-3"
       sodipodi:nodetypes="sssssssssssccscssccssccccccccccccccccccccccccccccccccccccccccc"
       style="enable-background:new;stroke-width:0.0546875;fill-opacity:0.498039;fill:currentColor;"
       class="ColorScheme-Text" />
  </g>
  <g
     id="hover-inactive-center"
     transform="translate(0,22)">
    <rect
       style="opacity:0.003;fill:#000000;fill-opacity:1;stroke-width:1.02253"
       id="rect861-6-67"
       width="22"
       height="22"
       x="0"
       y="0" />
    <path
       fill-rule="evenodd"
       clip-rule="evenodd"
       d="m 10.99957,16.25 c 0.48322,0 0.875,0.39178 0.875,0.875 0,0.48322 -0.39178,0.875 -0.875,0.875 -0.48322,0 -0.875,-0.39178 -0.875,-0.875 0,-0.48322 0.39178,-0.875 0.875,-0.875 z m 0,-10.5 c -1.44966,0 -2.625,1.175344 -2.625,2.625 0,0.48322 -0.39178,0.875 -0.875,0.875 -0.48322,0 -0.875,-0.39178 -0.875,-0.875 0,-2.416094 1.95891,-4.375 4.375,-4.375 2.41609,0 4.375,1.958906 4.375,4.375 0,1.81322 -1.10485,3.36585 -2.6763,4.02894 -0.002,8.7e-4 -0.002,0.003 -0.003,0.004 -0.48108,0.19479 -0.82031,0.66653 -0.82031,1.21723 0,0.0662 -0.006,0.11791 -0.0162,0.16193 -0.0761,0.40589 -0.4311,0.71307 -0.85876,0.71307 -0.48322,0 -0.875,-0.39178 -0.875,-0.875 0,-1.27061 0.77372,-2.36009 1.87562,-2.82412 8.7e-4,-4.3e-4 0.002,-8.7e-4 0.003,-0.002 0.95146,-0.39392 1.62138,-1.33 1.62138,-2.42419 0,-1.449656 -1.17534,-2.625 -2.625,-2.625 z m 0,-1.75 v 0 0 0 0 0 0 0 0 0 0 0 0 0 0 0 0 0 0 0 0 0 0 0 0 0 0 1.75 z m 0,0 z"
       id="path2-3-67"
       sodipodi:nodetypes="sssssssssssccscssccssccccccccccccccccccccccccccccccccccccccccc"
       style="fill:#4c93ff;fill-opacity:0.7;stroke-width:0.0546875;enable-background:new" />
  </g>
  <g
     id="pressed-inactive-center"
     transform="translate(22,22)">
    <rect
       y="0"
       x="0"
       height="22"
       width="22"
       id="rect861-6-6-5"
       style="opacity:0.003;fill:#000000;fill-opacity:1;stroke-width:1.02253" />
    <path
       fill-rule="evenodd"
       clip-rule="evenodd"
       d="m 11,16.25 c 0.48322,0 0.875,0.39178 0.875,0.875 C 11.875,17.60822 11.48322,18 11,18 10.51678,18 10.125,17.60822 10.125,17.125 10.125,16.64178 10.51678,16.25 11,16.25 Z M 11,5.75 C 9.55034,5.75 8.375,6.925344 8.375,8.375 8.375,8.85822 7.98322,9.25 7.5,9.25 7.01678,9.25 6.625,8.85822 6.625,8.375 6.625,5.958906 8.58391,4 11,4 c 2.41609,0 4.375,1.958906 4.375,4.375 0,1.81322 -1.10485,3.36585 -2.6763,4.02894 -0.002,8.7e-4 -0.002,0.003 -0.003,0.004 -0.48108,0.19479 -0.82031,0.66653 -0.82031,1.21723 0,0.0662 -0.006,0.11791 -0.0162,0.16193 -0.0761,0.40589 -0.4311,0.71307 -0.85876,0.71307 -0.48322,0 -0.875,-0.39178 -0.875,-0.875 0,-1.27061 0.77372,-2.36009 1.87562,-2.82412 8.7e-4,-4.3e-4 0.002,-8.7e-4 0.003,-0.002 0.95146,-0.39392 1.62138,-1.33 1.62138,-2.42419 0,-1.449656 -1.17534,-2.625 -2.625,-2.625 z M 11,4 v 0 0 0 0 0 0 0 0 0 0 0 0 0 0 0 0 0 0 0 0 0 0 0 0 0 0 1.75 z m 0,0 z"
       id="path2-3-6-5"
       sodipodi:nodetypes="sssssssssssccscssccssccccccccccccccccccccccccccccccccccccccccc"
       style="fill:#80b1ff;fill-opacity:1;stroke-width:0.0546875;enable-background:new" />
  </g>
  <g
     id="deactivated-center"
     transform="translate(44)">
    <rect
       y="0"
       x="0"
       height="22"
       width="22"
       id="rect861-0"
       style="opacity:0.003;fill:#000000;fill-opacity:1;stroke-width:1.02253" />
    <path
       fill-rule="evenodd"
       clip-rule="evenodd"
       d="m 10.99957,16.25 c 0.48322,0 0.875,0.39178 0.875,0.875 0,0.48322 -0.39178,0.875 -0.875,0.875 -0.48322,0 -0.875,-0.39178 -0.875,-0.875 0,-0.48322 0.39178,-0.875 0.875,-0.875 z m 0,-10.5 c -1.44966,0 -2.625,1.175344 -2.625,2.625 0,0.48322 -0.39178,0.875 -0.875,0.875 -0.48322,0 -0.875,-0.39178 -0.875,-0.875 0,-2.416094 1.95891,-4.375 4.375,-4.375 2.41609,0 4.375,1.958906 4.375,4.375 0,1.81322 -1.10485,3.36585 -2.6763,4.02894 -0.002,8.7e-4 -0.002,0.003 -0.003,0.004 -0.48108,0.19479 -0.82031,0.66653 -0.82031,1.21723 0,0.0662 -0.006,0.11791 -0.0162,0.16193 -0.0761,0.40589 -0.4311,0.71307 -0.85876,0.71307 -0.48322,0 -0.875,-0.39178 -0.875,-0.875 0,-1.27061 0.77372,-2.36009 1.87562,-2.82412 8.7e-4,-4.3e-4 0.002,-8.7e-4 0.003,-0.002 0.95146,-0.39392 1.62138,-1.33 1.62138,-2.42419 0,-1.449656 -1.17534,-2.625 -2.625,-2.625 z m 0,-1.75 v 0 0 0 0 0 0 0 0 0 0 0 0 0 0 0 0 0 0 0 0 0 0 0 0 0 0 1.75 z m 0,0 z"
       id="path2-3-3-3-3"
       sodipodi:nodetypes="sssssssssssccscssccssccccccccccccccccccccccccccccccccccccccccc"
       style="enable-background:new;stroke-width:0.0546875;fill-opacity:0.501961;fill:currentColor;"
       class="ColorScheme-Text" />
  </g>
  <g
     id="deactivated-inactive-center"
     transform="translate(44,22)">
    <rect
       style="opacity:0.003;fill:#000000;fill-opacity:1;stroke-width:1.02253"
       id="rect861-0-9"
       width="22"
       height="22"
       x="0"
       y="0" />
    <path
       fill-rule="evenodd"
       clip-rule="evenodd"
       d="m 11,16.25 c 0.48322,0 0.875,0.39178 0.875,0.875 C 11.875,17.60822 11.48322,18 11,18 10.51678,18 10.125,17.60822 10.125,17.125 10.125,16.64178 10.51678,16.25 11,16.25 Z M 11,5.75 C 9.55034,5.75 8.375,6.925344 8.375,8.375 8.375,8.85822 7.98322,9.25 7.5,9.25 7.01678,9.25 6.625,8.85822 6.625,8.375 6.625,5.958906 8.58391,4 11,4 c 2.41609,0 4.375,1.958906 4.375,4.375 0,1.81322 -1.10485,3.36585 -2.6763,4.02894 -0.002,8.7e-4 -0.002,0.003 -0.003,0.004 -0.48108,0.19479 -0.82031,0.66653 -0.82031,1.21723 0,0.0662 -0.006,0.11791 -0.0162,0.16193 -0.0761,0.40589 -0.4311,0.71307 -0.85876,0.71307 -0.48322,0 -0.875,-0.39178 -0.875,-0.875 0,-1.27061 0.77372,-2.36009 1.87562,-2.82412 8.7e-4,-4.3e-4 0.002,-8.7e-4 0.003,-0.002 0.95146,-0.39392 1.62138,-1.33 1.62138,-2.42419 0,-1.449656 -1.17534,-2.625 -2.625,-2.625 z M 11,4 v 0 0 0 0 0 0 0 0 0 0 0 0 0 0 0 0 0 0 0 0 0 0 0 0 0 0 1.75 z m 0,0 z"
       id="path2-3-3-3-3-5"
       sodipodi:nodetypes="sssssssssssccscssccssccccccccccccccccccccccccccccccccccccccccc"
       style="enable-background:new;stroke-width:0.0546875;fill-opacity:0.301961;fill:currentColor;"
       class="ColorScheme-Text" />
  </g>
</svg>
