<?xml version="1.0" encoding="UTF-8" standalone="no"?>
<svg
   inkscape:version="1.1.2 (0a00cf5339, 2022-02-04)"
   sodipodi:docname="keepabove.svg"
   style="enable-background:new"
   version="1.1"
   height="22"
   width="22"
   id="svg4306"
   xmlns:inkscape="http://www.inkscape.org/namespaces/inkscape"
   xmlns:sodipodi="http://sodipodi.sourceforge.net/DTD/sodipodi-0.dtd"
   xmlns="http://www.w3.org/2000/svg"
   xmlns:svg="http://www.w3.org/2000/svg"
   xmlns:rdf="http://www.w3.org/1999/02/22-rdf-syntax-ns#"
   xmlns:cc="http://creativecommons.org/ns#"
   xmlns:dc="http://purl.org/dc/elements/1.1/">
  <metadata
     id="metadata24">
    <rdf:RDF>
      <cc:Work
         rdf:about="">
        <dc:format>image/svg+xml</dc:format>
        <dc:type
           rdf:resource="http://purl.org/dc/dcmitype/StillImage" />
      </cc:Work>
    </rdf:RDF>
  </metadata>
  <defs
     id="defs22" />
  <sodipodi:namedview
     inkscape:current-layer="svg4306"
     inkscape:window-maximized="1"
     inkscape:window-y="0"
     inkscape:window-x="0"
     inkscape:cy="20.188234"
     inkscape:cx="15.425882"
     inkscape:zoom="9.6590914"
     showgrid="false"
     id="namedview20"
     inkscape:window-height="1015"
     inkscape:window-width="1920"
     inkscape:pageshadow="2"
     inkscape:pageopacity="0"
     guidetolerance="10"
     gridtolerance="10"
     objecttolerance="10"
     borderopacity="1"
     bordercolor="#666666"
     pagecolor="#b2b2b2"
     inkscape:document-rotation="0"
     inkscape:snap-bbox="true"
     inkscape:bbox-nodes="true"
     inkscape:pagecheckerboard="0"
     inkscape:lockguides="true">
    <inkscape:grid
       id="grid849"
       type="xygrid"
       originx="-22"
       originy="0" />
  </sodipodi:namedview>
  <style
     id="current-color-scheme"
     type="text/css">.ColorScheme-Text { color:#ffffff; }
.ColorScheme-ButtonFocus { color:#3daee9; }
.ColorScheme-NegativeText { color:#da4453; }
</style>
  <g
     id="active-center"
     transform="translate(-22)">
    <rect
       style="opacity:0.00100002;fill:#000000;fill-opacity:1;fill-rule:nonzero;stroke:none;stroke-width:2;stroke-linecap:round;stroke-linejoin:round;stroke-miterlimit:4;stroke-dasharray:none;stroke-opacity:1"
       y="-22"
       x="-22"
       height="22"
       width="22"
       id="rect4266"
       transform="scale(-1)" />
    <path
       fill-rule="evenodd"
       clip-rule="evenodd"
       d="m 17.999886,12.357505 c 0,0.946479 -0.783662,1.713828 -1.749884,1.713828 H 5.749673 c -0.48311,0 -0.875083,0.383996 -0.875083,0.857353 v 0.85713 c 0,0.473344 0.391973,0.85734 0.875083,0.85734 h 10.500329 c 0.48322,0 0.874568,-0.383996 0.874568,-0.85734 v -0.428572 c 0,-0.236883 0.196103,-0.428558 0.437494,-0.428558 0.241828,0 0.437502,0.191675 0.437502,0.428558 v 0.428572 c 0,0.946709 -0.783342,1.71405 -1.749564,1.71405 H 5.749673 C 4.783345,17.499866 4,16.732525 4,15.785816 v -0.85713 c 0,-0.946709 0.783345,-1.71405 1.749673,-1.71405 h 0.101991 10.398338 c 0.48322,0 0.874568,-0.383996 0.874568,-0.857131 h 0.0034 c 8.22e-4,-0.331264 -0.127338,-0.662739 -0.38519,-0.91543 L 11.933792,6.7320233 c -0.514197,-0.503485 -1.347525,-0.503485 -1.861071,0 L 5.844419,10.873721 c -0.08002,0.08081 -0.191297,0.131191 -0.315,0.131191 -0.242786,0 -0.439524,-0.19272 -0.439524,-0.430654 0,-0.129749 0.05991,-0.244631 0.153071,-0.32373 L 9.4527,6.1266463 c 0.427356,-0.418656 0.987191,-0.625841 1.547302,-0.626644 0.562242,-8.04e-4 1.124807,0.206354 1.553946,0.626644 l 4.806461,4.7085817 c 0.412717,0.404086 0.625042,0.929217 0.639591,1.458658 -4.34e-4,0.0185 -4.34e-4,0.03854 -4.34e-4,0.06362 z m -13.562824,0 C 4.195672,12.357505 4,12.165172 4,11.92872 c 0,-0.236893 0.195672,-0.428471 0.437062,-0.428471 0.241829,0 0.437501,0.191578 0.437501,0.428471 0,0.236452 -0.195672,0.428785 -0.437501,0.428785 z"
       id="path2-3-3"
       style="fill:currentColor;stroke-width:0.0270633;enable-background:new"
       class="ColorScheme-Text" />
  </g>
  <g
     id="hover-center">
    <rect
       id="rect4266-6-2-6"
       width="22"
       height="22"
       x="-22"
       y="-22"
       style="opacity:0.00100002;fill:#000000;fill-opacity:1;fill-rule:nonzero;stroke:none;stroke-width:2;stroke-linecap:round;stroke-linejoin:round;stroke-miterlimit:4;stroke-dasharray:none;stroke-opacity:1"
       transform="scale(-1)" />
    <path
       fill-rule="evenodd"
       clip-rule="evenodd"
       d="m 17.999886,12.357505 c 0,0.946479 -0.783662,1.713828 -1.749884,1.713828 H 5.749673 c -0.48311,0 -0.875083,0.383996 -0.875083,0.857353 v 0.85713 c 0,0.473344 0.391973,0.85734 0.875083,0.85734 h 10.500329 c 0.48322,0 0.874568,-0.383996 0.874568,-0.85734 v -0.428572 c 0,-0.236883 0.196103,-0.428558 0.437494,-0.428558 0.241828,0 0.437502,0.191675 0.437502,0.428558 v 0.428572 c 0,0.946709 -0.783342,1.71405 -1.749564,1.71405 H 5.749673 C 4.783345,17.499866 4,16.732525 4,15.785816 v -0.85713 c 0,-0.946709 0.783345,-1.71405 1.749673,-1.71405 h 0.101991 10.398338 c 0.48322,0 0.874568,-0.383996 0.874568,-0.857131 h 0.0034 c 8.22e-4,-0.331264 -0.127338,-0.662739 -0.38519,-0.91543 L 11.933792,6.7320233 c -0.514197,-0.503485 -1.347525,-0.503485 -1.861071,0 L 5.844419,10.873721 c -0.08002,0.08081 -0.191297,0.131191 -0.315,0.131191 -0.242786,0 -0.439524,-0.19272 -0.439524,-0.430654 0,-0.129749 0.05991,-0.244631 0.153071,-0.32373 L 9.4527,6.1266463 c 0.427356,-0.418656 0.987191,-0.625841 1.547302,-0.626644 0.562242,-8.04e-4 1.124807,0.206354 1.553946,0.626644 l 4.806461,4.7085817 c 0.412717,0.404086 0.625042,0.929217 0.639591,1.458658 -4.34e-4,0.0185 -4.34e-4,0.03854 -4.34e-4,0.06362 z m -13.562824,0 C 4.195672,12.357505 4,12.165172 4,11.92872 c 0,-0.236893 0.195672,-0.428471 0.437062,-0.428471 0.241829,0 0.437501,0.191578 0.437501,0.428471 0,0.236452 -0.195672,0.428785 -0.437501,0.428785 z"
       id="path2-3-3-3"
       style="fill:#e500e5;fill-opacity:1;stroke-width:0.0270633;enable-background:new" />
  </g>
  <g
     id="pressed-center"
     transform="translate(22)">
    <rect
       style="opacity:0.00100002;fill:#000000;fill-opacity:1;fill-rule:nonzero;stroke:none;stroke-width:2;stroke-linecap:round;stroke-linejoin:round;stroke-miterlimit:4;stroke-dasharray:none;stroke-opacity:1"
       y="-22"
       x="-22"
       height="22"
       width="22"
       id="rect4266-6-2"
       transform="scale(-1)" />
    <path
       fill-rule="evenodd"
       clip-rule="evenodd"
       d="m 17.999886,12.357505 c 0,0.946479 -0.783662,1.713828 -1.749884,1.713828 H 5.749673 c -0.48311,0 -0.875083,0.383996 -0.875083,0.857353 v 0.85713 c 0,0.473344 0.391973,0.85734 0.875083,0.85734 h 10.500329 c 0.48322,0 0.874568,-0.383996 0.874568,-0.85734 v -0.428572 c 0,-0.236883 0.196103,-0.428558 0.437494,-0.428558 0.241828,0 0.437502,0.191675 0.437502,0.428558 v 0.428572 c 0,0.946709 -0.783342,1.71405 -1.749564,1.71405 H 5.749673 C 4.783345,17.499866 4,16.732525 4,15.785816 v -0.85713 c 0,-0.946709 0.783345,-1.71405 1.749673,-1.71405 h 0.101991 10.398338 c 0.48322,0 0.874568,-0.383996 0.874568,-0.857131 h 0.0034 c 8.22e-4,-0.331264 -0.127338,-0.662739 -0.38519,-0.91543 L 11.933792,6.7320233 c -0.514197,-0.503485 -1.347525,-0.503485 -1.861071,0 L 5.844419,10.873721 c -0.08002,0.08081 -0.191297,0.131191 -0.315,0.131191 -0.242786,0 -0.439524,-0.19272 -0.439524,-0.430654 0,-0.129749 0.05991,-0.244631 0.153071,-0.32373 L 9.4527,6.1266463 c 0.427356,-0.418656 0.987191,-0.625841 1.547302,-0.626644 0.562242,-8.04e-4 1.124807,0.206354 1.553946,0.626644 l 4.806461,4.7085817 c 0.412717,0.404086 0.625042,0.929217 0.639591,1.458658 -4.34e-4,0.0185 -4.34e-4,0.03854 -4.34e-4,0.06362 z m -13.562824,0 C 4.195672,12.357505 4,12.165172 4,11.92872 c 0,-0.236893 0.195672,-0.428471 0.437062,-0.428471 0.241829,0 0.437501,0.191578 0.437501,0.428471 0,0.236452 -0.195672,0.428785 -0.437501,0.428785 z"
       id="path2-3-3-3-6"
       style="fill:#ff1aff;fill-opacity:1;stroke-width:0.0270633;enable-background:new" />
  </g>
  <g
     id="inactive-center"
     transform="translate(-22,22)">
    <rect
       id="rect4266-62"
       width="22"
       height="22"
       x="-22"
       y="-22"
       style="opacity:0.00100002;fill:#000000;fill-opacity:1;fill-rule:nonzero;stroke:none;stroke-width:2;stroke-linecap:round;stroke-linejoin:round;stroke-miterlimit:4;stroke-dasharray:none;stroke-opacity:1"
       transform="scale(-1)" />
    <path
       d="m 17.999886,12.357505 c 0,0.946479 -0.783662,1.713828 -1.749884,1.713828 H 5.749673 c -0.48311,0 -0.875083,0.383996 -0.875083,0.857353 v 0.85713 c 0,0.473344 0.391973,0.85734 0.875083,0.85734 h 10.500329 c 0.48322,0 0.874568,-0.383996 0.874568,-0.85734 v -0.428572 c 0,-0.236883 0.196103,-0.428558 0.437494,-0.428558 0.241828,0 0.437502,0.191675 0.437502,0.428558 v 0.428572 c 0,0.946709 -0.783342,1.71405 -1.749564,1.71405 H 5.749673 C 4.783345,17.499866 4,16.732525 4,15.785816 v -0.85713 c 0,-0.946709 0.783345,-1.71405 1.749673,-1.71405 h 0.101991 10.398338 c 0.48322,0 0.874568,-0.383996 0.874568,-0.857131 h 0.0034 c 8.22e-4,-0.331264 -0.127338,-0.662739 -0.38519,-0.91543 L 11.933792,6.7320233 c -0.514197,-0.503485 -1.347525,-0.503485 -1.861071,0 L 5.844419,10.873721 c -0.08002,0.08081 -0.191297,0.131191 -0.315,0.131191 -0.242786,0 -0.439524,-0.19272 -0.439524,-0.430654 0,-0.129749 0.05991,-0.244631 0.153071,-0.32373 L 9.4527,6.1266463 c 0.427356,-0.418656 0.987191,-0.625841 1.547302,-0.626644 0.562242,-8.04e-4 1.124807,0.206354 1.553946,0.626644 l 4.806461,4.7085817 c 0.412717,0.404086 0.625042,0.929217 0.639591,1.458658 -4.34e-4,0.0185 -4.34e-4,0.03854 -4.34e-4,0.06362 z m -13.562824,0 C 4.195672,12.357505 4,12.165172 4,11.92872 c 0,-0.236893 0.195672,-0.428471 0.437062,-0.428471 0.241829,0 0.437501,0.191578 0.437501,0.428471 0,0.236452 -0.195672,0.428785 -0.437501,0.428785 z"
       id="path2-3-3-36"
       style="enable-background:new;stroke-width:0.0270633;fill-opacity:0.498039;fill:currentColor"
       fill-rule="evenodd"
       clip-rule="evenodd"
       class="ColorScheme-Text" />
  </g>
  <g
     id="hover-inactive-center"
     transform="translate(0,22)">
    <rect
       style="opacity:0.00100002;fill:#000000;fill-opacity:1;fill-rule:nonzero;stroke:none;stroke-width:2;stroke-linecap:round;stroke-linejoin:round;stroke-miterlimit:4;stroke-dasharray:none;stroke-opacity:1"
       y="-22"
       x="-22"
       height="22"
       width="22"
       id="rect4266-6-2-6-6"
       transform="scale(-1)" />
    <path
       fill-rule="evenodd"
       clip-rule="evenodd"
       d="m 17.999886,12.357505 c 0,0.946479 -0.783662,1.713828 -1.749884,1.713828 H 5.749673 c -0.48311,0 -0.875083,0.383996 -0.875083,0.857353 v 0.85713 c 0,0.473344 0.391973,0.85734 0.875083,0.85734 h 10.500329 c 0.48322,0 0.874568,-0.383996 0.874568,-0.85734 v -0.428572 c 0,-0.236883 0.196103,-0.428558 0.437494,-0.428558 0.241828,0 0.437502,0.191675 0.437502,0.428558 v 0.428572 c 0,0.946709 -0.783342,1.71405 -1.749564,1.71405 H 5.749673 C 4.783345,17.499866 4,16.732525 4,15.785816 v -0.85713 c 0,-0.946709 0.783345,-1.71405 1.749673,-1.71405 h 0.101991 10.398338 c 0.48322,0 0.874568,-0.383996 0.874568,-0.857131 h 0.0034 c 8.22e-4,-0.331264 -0.127338,-0.662739 -0.38519,-0.91543 L 11.933792,6.7320233 c -0.514197,-0.503485 -1.347525,-0.503485 -1.861071,0 L 5.844419,10.873721 c -0.08002,0.08081 -0.191297,0.131191 -0.315,0.131191 -0.242786,0 -0.439524,-0.19272 -0.439524,-0.430654 0,-0.129749 0.05991,-0.244631 0.153071,-0.32373 L 9.4527,6.1266463 c 0.427356,-0.418656 0.987191,-0.625841 1.547302,-0.626644 0.562242,-8.04e-4 1.124807,0.206354 1.553946,0.626644 l 4.806461,4.7085817 c 0.412717,0.404086 0.625042,0.929217 0.639591,1.458658 -4.34e-4,0.0185 -4.34e-4,0.03854 -4.34e-4,0.06362 z m -13.562824,0 C 4.195672,12.357505 4,12.165172 4,11.92872 c 0,-0.236893 0.195672,-0.428471 0.437062,-0.428471 0.241829,0 0.437501,0.191578 0.437501,0.428471 0,0.236452 -0.195672,0.428785 -0.437501,0.428785 z"
       id="path2-3-3-3-7"
       style="fill:#e500e5;fill-opacity:0.7;stroke-width:0.0270633;enable-background:new" />
  </g>
  <g
     id="pressed-inactive-center"
     transform="translate(22,22)">
    <rect
       id="rect4266-6-2-3"
       width="22"
       height="22"
       x="-22"
       y="-22"
       style="opacity:0.00100002;fill:#000000;fill-opacity:1;fill-rule:nonzero;stroke:none;stroke-width:2;stroke-linecap:round;stroke-linejoin:round;stroke-miterlimit:4;stroke-dasharray:none;stroke-opacity:1"
       transform="scale(-1)" />
    <path
       fill-rule="evenodd"
       clip-rule="evenodd"
       d="m 17.999886,12.357505 c 0,0.946479 -0.783662,1.713828 -1.749884,1.713828 H 5.749673 c -0.48311,0 -0.875083,0.383996 -0.875083,0.857353 v 0.85713 c 0,0.473344 0.391973,0.85734 0.875083,0.85734 h 10.500329 c 0.48322,0 0.874568,-0.383996 0.874568,-0.85734 v -0.428572 c 0,-0.236883 0.196103,-0.428558 0.437494,-0.428558 0.241828,0 0.437502,0.191675 0.437502,0.428558 v 0.428572 c 0,0.946709 -0.783342,1.71405 -1.749564,1.71405 H 5.749673 C 4.783345,17.499866 4,16.732525 4,15.785816 v -0.85713 c 0,-0.946709 0.783345,-1.71405 1.749673,-1.71405 h 0.101991 10.398338 c 0.48322,0 0.874568,-0.383996 0.874568,-0.857131 h 0.0034 c 8.22e-4,-0.331264 -0.127338,-0.662739 -0.38519,-0.91543 L 11.933792,6.7320233 c -0.514197,-0.503485 -1.347525,-0.503485 -1.861071,0 L 5.844419,10.873721 c -0.08002,0.08081 -0.191297,0.131191 -0.315,0.131191 -0.242786,0 -0.439524,-0.19272 -0.439524,-0.430654 0,-0.129749 0.05991,-0.244631 0.153071,-0.32373 L 9.4527,6.1266463 c 0.427356,-0.418656 0.987191,-0.625841 1.547302,-0.626644 0.562242,-8.04e-4 1.124807,0.206354 1.553946,0.626644 l 4.806461,4.7085817 c 0.412717,0.404086 0.625042,0.929217 0.639591,1.458658 -4.34e-4,0.0185 -4.34e-4,0.03854 -4.34e-4,0.06362 z m -13.562824,0 C 4.195672,12.357505 4,12.165172 4,11.92872 c 0,-0.236893 0.195672,-0.428471 0.437062,-0.428471 0.241829,0 0.437501,0.191578 0.437501,0.428471 0,0.236452 -0.195672,0.428785 -0.437501,0.428785 z"
       id="path2-3-3-3-6-5"
       style="fill:#ff1aff;fill-opacity:0.7;stroke-width:0.0270633;enable-background:new" />
  </g>
  <g
     id="deactivated-center"
     transform="translate(44)">
    <rect
       style="opacity:0.00100002;fill:#000000;fill-opacity:1;fill-rule:nonzero;stroke:none;stroke-width:2;stroke-linecap:round;stroke-linejoin:round;stroke-miterlimit:4;stroke-dasharray:none;stroke-opacity:1"
       y="-22"
       x="-22"
       height="22"
       width="22"
       id="rect4266-62-8"
       transform="scale(-1)" />
    <path
       fill-rule="evenodd"
       clip-rule="evenodd"
       d="m 17.999886,12.357505 c 0,0.946479 -0.783662,1.713828 -1.749884,1.713828 H 5.749673 c -0.48311,0 -0.875083,0.383996 -0.875083,0.857353 v 0.85713 c 0,0.473344 0.391973,0.85734 0.875083,0.85734 h 10.500329 c 0.48322,0 0.874568,-0.383996 0.874568,-0.85734 v -0.428572 c 0,-0.236883 0.196103,-0.428558 0.437494,-0.428558 0.241828,0 0.437502,0.191675 0.437502,0.428558 v 0.428572 c 0,0.946709 -0.783342,1.71405 -1.749564,1.71405 H 5.749673 C 4.783345,17.499866 4,16.732525 4,15.785816 v -0.85713 c 0,-0.946709 0.783345,-1.71405 1.749673,-1.71405 h 0.101991 10.398338 c 0.48322,0 0.874568,-0.383996 0.874568,-0.857131 h 0.0034 c 8.22e-4,-0.331264 -0.127338,-0.662739 -0.38519,-0.91543 L 11.933792,6.7320233 c -0.514197,-0.503485 -1.347525,-0.503485 -1.861071,0 L 5.844419,10.873721 c -0.08002,0.08081 -0.191297,0.131191 -0.315,0.131191 -0.242786,0 -0.439524,-0.19272 -0.439524,-0.430654 0,-0.129749 0.05991,-0.244631 0.153071,-0.32373 L 9.4527,6.1266463 c 0.427356,-0.418656 0.987191,-0.625841 1.547302,-0.626644 0.562242,-8.04e-4 1.124807,0.206354 1.553946,0.626644 l 4.806461,4.7085817 c 0.412717,0.404086 0.625042,0.929217 0.639591,1.458658 -4.34e-4,0.0185 -4.34e-4,0.03854 -4.34e-4,0.06362 z m -13.562824,0 C 4.195672,12.357505 4,12.165172 4,11.92872 c 0,-0.236893 0.195672,-0.428471 0.437062,-0.428471 0.241829,0 0.437501,0.191578 0.437501,0.428471 0,0.236452 -0.195672,0.428785 -0.437501,0.428785 z"
       id="path2-3-3-36-3"
       style="enable-background:new;stroke-width:0.0270633;fill-opacity:0.498039;fill:currentColor;"
       class="ColorScheme-Text" />
  </g>
  <g
     id="deactivated-inactive-center"
     transform="translate(44,22)">
    <rect
       id="rect4266-62-8-2"
       width="22"
       height="22"
       x="-22"
       y="-22"
       style="opacity:0.00100002;fill:#000000;fill-opacity:1;fill-rule:nonzero;stroke:none;stroke-width:2;stroke-linecap:round;stroke-linejoin:round;stroke-miterlimit:4;stroke-dasharray:none;stroke-opacity:1"
       transform="scale(-1)" />
    <path
       fill-rule="evenodd"
       clip-rule="evenodd"
       d="m 17.999886,12.357505 c 0,0.946479 -0.783662,1.713828 -1.749884,1.713828 H 5.749673 c -0.48311,0 -0.875083,0.383996 -0.875083,0.857353 v 0.85713 c 0,0.473344 0.391973,0.85734 0.875083,0.85734 h 10.500329 c 0.48322,0 0.874568,-0.383996 0.874568,-0.85734 v -0.428572 c 0,-0.236883 0.196103,-0.428558 0.437494,-0.428558 0.241828,0 0.437502,0.191675 0.437502,0.428558 v 0.428572 c 0,0.946709 -0.783342,1.71405 -1.749564,1.71405 H 5.749673 C 4.783345,17.499866 4,16.732525 4,15.785816 v -0.85713 c 0,-0.946709 0.783345,-1.71405 1.749673,-1.71405 h 0.101991 10.398338 c 0.48322,0 0.874568,-0.383996 0.874568,-0.857131 h 0.0034 c 8.22e-4,-0.331264 -0.127338,-0.662739 -0.38519,-0.91543 L 11.933792,6.7320233 c -0.514197,-0.503485 -1.347525,-0.503485 -1.861071,0 L 5.844419,10.873721 c -0.08002,0.08081 -0.191297,0.131191 -0.315,0.131191 -0.242786,0 -0.439524,-0.19272 -0.439524,-0.430654 0,-0.129749 0.05991,-0.244631 0.153071,-0.32373 L 9.4527,6.1266463 c 0.427356,-0.418656 0.987191,-0.625841 1.547302,-0.626644 0.562242,-8.04e-4 1.124807,0.206354 1.553946,0.626644 l 4.806461,4.7085817 c 0.412717,0.404086 0.625042,0.929217 0.639591,1.458658 -4.34e-4,0.0185 -4.34e-4,0.03854 -4.34e-4,0.06362 z m -13.562824,0 C 4.195672,12.357505 4,12.165172 4,11.92872 c 0,-0.236893 0.195672,-0.428471 0.437062,-0.428471 0.241829,0 0.437501,0.191578 0.437501,0.428471 0,0.236452 -0.195672,0.428785 -0.437501,0.428785 z"
       id="path2-3-3-36-3-5"
       style="enable-background:new;stroke-width:0.0270633;fill-opacity:0.3;fill:currentColor;"
       class="ColorScheme-Text" />
  </g>
</svg>
