<?xml version="1.0" encoding="UTF-8" standalone="no"?>
<svg
   id="svg4306"
   width="22"
   height="22"
   version="1.1"
   style="enable-background:new"
   sodipodi:docname="keepbelow.svg"
   inkscape:version="1.1.2 (0a00cf5339, 2022-02-04)"
   xmlns:inkscape="http://www.inkscape.org/namespaces/inkscape"
   xmlns:sodipodi="http://sodipodi.sourceforge.net/DTD/sodipodi-0.dtd"
   xmlns="http://www.w3.org/2000/svg"
   xmlns:svg="http://www.w3.org/2000/svg"
   xmlns:rdf="http://www.w3.org/1999/02/22-rdf-syntax-ns#"
   xmlns:cc="http://creativecommons.org/ns#"
   xmlns:dc="http://purl.org/dc/elements/1.1/">
  <metadata
     id="metadata24">
    <rdf:RDF>
      <cc:Work
         rdf:about="">
        <dc:format>image/svg+xml</dc:format>
        <dc:type
           rdf:resource="http://purl.org/dc/dcmitype/StillImage" />
      </cc:Work>
    </rdf:RDF>
  </metadata>
  <defs
     id="defs22" />
  <sodipodi:namedview
     inkscape:bbox-nodes="true"
     inkscape:snap-bbox="true"
     inkscape:document-rotation="0"
     pagecolor="#d3d3d3"
     bordercolor="#666666"
     borderopacity="1"
     objecttolerance="10"
     gridtolerance="10"
     guidetolerance="10"
     inkscape:pageopacity="0"
     inkscape:pageshadow="2"
     inkscape:window-width="1920"
     inkscape:window-height="1015"
     id="namedview20"
     showgrid="false"
     inkscape:zoom="6.830009"
     inkscape:cx="20.570983"
     inkscape:cy="19.765713"
     inkscape:window-x="0"
     inkscape:window-y="0"
     inkscape:window-maximized="1"
     inkscape:current-layer="svg4306"
     inkscape:pagecheckerboard="0"
     units="mm"
     inkscape:lockguides="false">
    <inkscape:grid
       type="xygrid"
       id="grid849"
       originx="-22"
       originy="0" />
  </sodipodi:namedview>
  <style
     type="text/css"
     id="current-color-scheme">.ColorScheme-Text { color:#ffffff; }
.ColorScheme-ButtonFocus { color:#3daee9; }
.ColorScheme-NegativeText { color:#da4453; }
</style>
  <g
     id="active-center"
     transform="translate(-22)">
    <rect
       id="rect4266"
       width="22"
       height="22"
       x="0"
       y="0"
       style="opacity:0.00100002;fill:#000000;fill-opacity:1;fill-rule:nonzero;stroke:none;stroke-width:2;stroke-linecap:round;stroke-linejoin:round;stroke-miterlimit:4;stroke-dasharray:none;stroke-opacity:1" />
    <path
       fill-rule="evenodd"
       clip-rule="evenodd"
       d="m 4.0001102,10.642421 c 0,-0.946494 0.7836648,-1.713851 1.7498888,-1.713851 h 10.500324 c 0.483117,0 0.875085,-0.384 0.875085,-0.857359 V 7.21407 c 0,-0.473353 -0.391968,-0.857353 -0.875085,-0.857353 H 5.749999 c -0.4832192,0 -0.8745657,0.384 -0.8745657,0.857353 v 0.428574 c 0,0.236889 -0.1961092,0.428567 -0.4374947,0.428567 -0.2418285,0 -0.4375048,-0.191678 -0.4375048,-0.428567 V 7.21407 C 4.0004338,6.267354 4.783775,5.5 5.749999,5.5 H 16.250323 C 17.216654,5.5 18,6.267354 18,7.21407 v 0.857141 c 0,0.946716 -0.783346,1.71407 -1.749677,1.71407 H 16.148336 5.749999 c -0.4832192,0 -0.8745657,0.384 -0.8745657,0.85714 h -0.00313 c -8.493e-4,0.331266 0.1273111,0.662738 0.3851636,0.915438 l 4.8087881,4.710105 c 0.514198,0.50349 1.347519,0.50349 1.86107,0 l 4.228299,-4.141748 c 0.08001,-0.08084 0.191296,-0.131186 0.315,-0.131186 0.242786,0 0.439523,0.19272 0.439523,0.430656 0,0.129748 -0.05994,0.244632 -0.153071,0.323731 l -4.209731,4.12393 C 12.119986,17.292007 11.56015,17.49919 11.000039,17.499998 10.437792,17.5008 9.8752227,17.293637 9.4460868,16.873347 L 4.6396026,12.164713 C 4.2268711,11.760621 4.0145458,11.235486 4,10.70604 c 4.338e-4,-0.0185 4.338e-4,-0.03854 4.338e-4,-0.06362 z m 13.5628258,0 c 0.241394,0 0.437064,0.192333 0.437064,0.428788 0,0.236895 -0.19567,0.428469 -0.437064,0.428469 -0.241829,0 -0.437498,-0.191574 -0.437498,-0.428469 0,-0.236455 0.195669,-0.428788 0.437498,-0.428788 z"
       id="path2-3"
       style="fill:currentColor;stroke-width:0.0270635;enable-background:new"
       class="ColorScheme-Text" />
  </g>
  <g
     id="hover-center">
    <rect
       style="opacity:0.00100002;fill:#000000;fill-opacity:1;fill-rule:nonzero;stroke:none;stroke-width:2;stroke-linecap:round;stroke-linejoin:round;stroke-miterlimit:4;stroke-dasharray:none;stroke-opacity:1"
       y="0"
       x="0"
       height="22"
       width="22"
       id="rect4266-6-2-6" />
    <path
       fill-rule="evenodd"
       clip-rule="evenodd"
       d="m 4.0001102,10.642421 c 0,-0.946494 0.7836648,-1.713851 1.7498888,-1.713851 h 10.500324 c 0.483117,0 0.875085,-0.384 0.875085,-0.857359 V 7.21407 c 0,-0.473353 -0.391968,-0.857353 -0.875085,-0.857353 H 5.749999 c -0.4832192,0 -0.8745657,0.384 -0.8745657,0.857353 v 0.428574 c 0,0.236889 -0.1961092,0.428567 -0.4374947,0.428567 -0.2418285,0 -0.4375048,-0.191678 -0.4375048,-0.428567 V 7.21407 C 4.0004338,6.267354 4.783775,5.5 5.749999,5.5 H 16.250323 C 17.216654,5.5 18,6.267354 18,7.21407 v 0.857141 c 0,0.946716 -0.783346,1.71407 -1.749677,1.71407 H 16.148336 5.749999 c -0.4832192,0 -0.8745657,0.384 -0.8745657,0.85714 h -0.00313 c -8.493e-4,0.331266 0.1273111,0.662738 0.3851636,0.915438 l 4.8087881,4.710105 c 0.514198,0.50349 1.347519,0.50349 1.86107,0 l 4.228299,-4.141748 c 0.08001,-0.08084 0.191296,-0.131186 0.315,-0.131186 0.242786,0 0.439523,0.19272 0.439523,0.430656 0,0.129748 -0.05994,0.244632 -0.153071,0.323731 l -4.209731,4.12393 C 12.119986,17.292007 11.56015,17.49919 11.000039,17.499998 10.437792,17.5008 9.8752227,17.293637 9.4460868,16.873347 L 4.6396026,12.164713 C 4.2268711,11.760621 4.0145458,11.235486 4,10.70604 c 4.338e-4,-0.0185 4.338e-4,-0.03854 4.338e-4,-0.06362 z m 13.5628258,0 c 0.241394,0 0.437064,0.192333 0.437064,0.428788 0,0.236895 -0.19567,0.428469 -0.437064,0.428469 -0.241829,0 -0.437498,-0.191574 -0.437498,-0.428469 0,-0.236455 0.195669,-0.428788 0.437498,-0.428788 z"
       id="path2-3-3"
       style="fill:#ff6700;fill-opacity:1;stroke-width:0.0270635;enable-background:new" />
  </g>
  <g
     id="pressed-center"
     transform="translate(22)">
    <rect
       id="rect4266-6-2"
       width="22"
       height="22"
       x="0"
       y="0"
       style="opacity:0.00100002;fill:#000000;fill-opacity:1;fill-rule:nonzero;stroke:none;stroke-width:2;stroke-linecap:round;stroke-linejoin:round;stroke-miterlimit:4;stroke-dasharray:none;stroke-opacity:1" />
    <path
       fill-rule="evenodd"
       clip-rule="evenodd"
       d="m 4.0001102,10.642421 c 0,-0.946494 0.7836648,-1.713851 1.7498888,-1.713851 h 10.500324 c 0.483117,0 0.875085,-0.384 0.875085,-0.857359 V 7.21407 c 0,-0.473353 -0.391968,-0.857353 -0.875085,-0.857353 H 5.749999 c -0.4832192,0 -0.8745657,0.384 -0.8745657,0.857353 v 0.428574 c 0,0.236889 -0.1961092,0.428567 -0.4374947,0.428567 -0.2418285,0 -0.4375048,-0.191678 -0.4375048,-0.428567 V 7.21407 C 4.0004338,6.267354 4.783775,5.5 5.749999,5.5 H 16.250323 C 17.216654,5.5 18,6.267354 18,7.21407 v 0.857141 c 0,0.946716 -0.783346,1.71407 -1.749677,1.71407 H 16.148336 5.749999 c -0.4832192,0 -0.8745657,0.384 -0.8745657,0.85714 h -0.00313 c -8.493e-4,0.331266 0.1273111,0.662738 0.3851636,0.915438 l 4.8087881,4.710105 c 0.514198,0.50349 1.347519,0.50349 1.86107,0 l 4.228299,-4.141748 c 0.08001,-0.08084 0.191296,-0.131186 0.315,-0.131186 0.242786,0 0.439523,0.19272 0.439523,0.430656 0,0.129748 -0.05994,0.244632 -0.153071,0.323731 l -4.209731,4.12393 C 12.119986,17.292007 11.56015,17.49919 11.000039,17.499998 10.437792,17.5008 9.8752227,17.293637 9.4460868,16.873347 L 4.6396026,12.164713 C 4.2268711,11.760621 4.0145458,11.235486 4,10.70604 c 4.338e-4,-0.0185 4.338e-4,-0.03854 4.338e-4,-0.06362 z m 13.5628258,0 c 0.241394,0 0.437064,0.192333 0.437064,0.428788 0,0.236895 -0.19567,0.428469 -0.437064,0.428469 -0.241829,0 -0.437498,-0.191574 -0.437498,-0.428469 0,-0.236455 0.195669,-0.428788 0.437498,-0.428788 z"
       id="path2-3-3-6"
       style="fill:#ff8333;fill-opacity:1;stroke-width:0.0270635;enable-background:new" />
  </g>
  <g
     id="hover-inactive-center"
     transform="translate(0,22)">
    <rect
       id="rect4266-6-2-6-6"
       width="22"
       height="22"
       x="0"
       y="0"
       style="opacity:0.00100002;fill:#000000;fill-opacity:1;fill-rule:nonzero;stroke:none;stroke-width:2;stroke-linecap:round;stroke-linejoin:round;stroke-miterlimit:4;stroke-dasharray:none;stroke-opacity:1" />
    <path
       fill-rule="evenodd"
       clip-rule="evenodd"
       d="m 4.0001102,10.642421 c 0,-0.946494 0.7836648,-1.713851 1.7498888,-1.713851 h 10.500324 c 0.483117,0 0.875085,-0.384 0.875085,-0.857359 V 7.21407 c 0,-0.473353 -0.391968,-0.857353 -0.875085,-0.857353 H 5.749999 c -0.4832192,0 -0.8745657,0.384 -0.8745657,0.857353 v 0.428574 c 0,0.236889 -0.1961092,0.428567 -0.4374947,0.428567 -0.2418285,0 -0.4375048,-0.191678 -0.4375048,-0.428567 V 7.21407 C 4.0004338,6.267354 4.783775,5.5 5.749999,5.5 H 16.250323 C 17.216654,5.5 18,6.267354 18,7.21407 v 0.857141 c 0,0.946716 -0.783346,1.71407 -1.749677,1.71407 H 16.148336 5.749999 c -0.4832192,0 -0.8745657,0.384 -0.8745657,0.85714 h -0.00313 c -8.493e-4,0.331266 0.1273111,0.662738 0.3851636,0.915438 l 4.8087881,4.710105 c 0.514198,0.50349 1.347519,0.50349 1.86107,0 l 4.228299,-4.141748 c 0.08001,-0.08084 0.191296,-0.131186 0.315,-0.131186 0.242786,0 0.439523,0.19272 0.439523,0.430656 0,0.129748 -0.05994,0.244632 -0.153071,0.323731 l -4.209731,4.12393 C 12.119986,17.292007 11.56015,17.49919 11.000039,17.499998 10.437792,17.5008 9.875223,17.293637 9.446087,16.873347 L 4.6396026,12.164713 C 4.2268711,11.760621 4.0145458,11.235486 4,10.70604 c 4.338e-4,-0.0185 4.338e-4,-0.03854 4.338e-4,-0.06362 z m 13.5628258,0 c 0.241394,0 0.437064,0.192333 0.437064,0.428788 0,0.236895 -0.19567,0.428469 -0.437064,0.428469 -0.241829,0 -0.437498,-0.191574 -0.437498,-0.428469 0,-0.236455 0.195669,-0.428788 0.437498,-0.428788 z"
       id="path2-3-3-7"
       style="fill:#ff6700;fill-opacity:0.701103;stroke-width:0.0270635;enable-background:new" />
  </g>
  <g
     id="pressed-inactive-center"
     transform="translate(22,22)">
    <rect
       style="opacity:0.00100002;fill:#000000;fill-opacity:1;fill-rule:nonzero;stroke:none;stroke-width:2;stroke-linecap:round;stroke-linejoin:round;stroke-miterlimit:4;stroke-dasharray:none;stroke-opacity:1"
       y="0"
       x="0"
       height="22"
       width="22"
       id="rect4266-6-2-3" />
    <path
       fill-rule="evenodd"
       clip-rule="evenodd"
       d="m 4.0001102,10.642421 c 0,-0.946494 0.7836648,-1.713851 1.7498888,-1.713851 h 10.500324 c 0.483117,0 0.875085,-0.384 0.875085,-0.857359 V 7.21407 c 0,-0.473353 -0.391968,-0.857353 -0.875085,-0.857353 H 5.749999 c -0.4832192,0 -0.8745657,0.384 -0.8745657,0.857353 v 0.428574 c 0,0.236889 -0.1961092,0.428567 -0.4374947,0.428567 -0.2418285,0 -0.4375048,-0.191678 -0.4375048,-0.428567 V 7.21407 C 4.0004338,6.267354 4.783775,5.5 5.749999,5.5 H 16.250323 C 17.216654,5.5 18,6.267354 18,7.21407 v 0.857141 c 0,0.946716 -0.783346,1.71407 -1.749677,1.71407 H 16.148336 5.749999 c -0.4832192,0 -0.8745657,0.384 -0.8745657,0.85714 h -0.00313 c -8.493e-4,0.331266 0.1273111,0.662738 0.3851636,0.915438 l 4.8087881,4.710105 c 0.514198,0.50349 1.347519,0.50349 1.86107,0 l 4.228299,-4.141748 c 0.08001,-0.08084 0.191296,-0.131186 0.315,-0.131186 0.242786,0 0.439523,0.19272 0.439523,0.430656 0,0.129748 -0.05994,0.244632 -0.153071,0.323731 l -4.209731,4.12393 C 12.119986,17.292007 11.56015,17.49919 11.000039,17.499998 10.437792,17.5008 9.875223,17.293637 9.446087,16.873347 L 4.6396026,12.164713 C 4.2268711,11.760621 4.0145458,11.235486 4,10.70604 c 4.338e-4,-0.0185 4.338e-4,-0.03854 4.338e-4,-0.06362 z m 13.5628258,0 c 0.241394,0 0.437064,0.192333 0.437064,0.428788 0,0.236895 -0.19567,0.428469 -0.437064,0.428469 -0.241829,0 -0.437498,-0.191574 -0.437498,-0.428469 0,-0.236455 0.195669,-0.428788 0.437498,-0.428788 z"
       id="path2-3-3-6-5"
       style="fill:#ff8333;fill-opacity:0.7;stroke-width:0.0270635;enable-background:new" />
  </g>
  <g
     id="deactivated-center"
     transform="translate(44)">
    <rect
       id="rect4266-62-8"
       width="22"
       height="22"
       x="0"
       y="0"
       style="opacity:0.00100002;fill:#000000;fill-opacity:1;fill-rule:nonzero;stroke:none;stroke-width:2;stroke-linecap:round;stroke-linejoin:round;stroke-miterlimit:4;stroke-dasharray:none;stroke-opacity:1" />
    <path
       fill-rule="evenodd"
       clip-rule="evenodd"
       d="m 4.00011,10.642421 c 0,-0.946494 0.783665,-1.713851 1.749889,-1.713851 h 10.500324 c 0.483117,0 0.875085,-0.384 0.875085,-0.857359 V 7.21407 c 0,-0.473353 -0.391968,-0.857353 -0.875085,-0.857353 H 5.749999 c -0.483219,0 -0.874566,0.384 -0.874566,0.857353 v 0.428574 c 0,0.236889 -0.196109,0.428567 -0.437494,0.428567 -0.241829,0 -0.437505,-0.191678 -0.437505,-0.428567 V 7.21407 C 4.000434,6.267354 4.783775,5.5 5.749999,5.5 H 16.250323 C 17.216654,5.5 18,6.267354 18,7.21407 v 0.857141 c 0,0.946716 -0.783346,1.71407 -1.749677,1.71407 H 16.148336 5.749999 c -0.483219,0 -0.874566,0.384 -0.874566,0.85714 h -0.0031 c -8.49e-4,0.331266 0.127311,0.662738 0.385164,0.915438 l 4.808788,4.710105 c 0.514198,0.50349 1.347519,0.50349 1.86107,0 l 4.228299,-4.141748 c 0.08001,-0.08084 0.191296,-0.131186 0.315,-0.131186 0.242786,0 0.439523,0.19272 0.439523,0.430656 0,0.129748 -0.05994,0.244632 -0.153071,0.323731 l -4.209731,4.12393 C 12.120016,17.292007 11.56018,17.49919 11.000069,17.499998 10.437822,17.5008 9.875253,17.293637 9.446117,16.873347 L 4.639603,12.164713 C 4.226871,11.760621 4.014546,11.235486 4,10.70604 c 4.34e-4,-0.0185 4.34e-4,-0.03854 4.34e-4,-0.06362 z m 13.562826,0 c 0.241394,0 0.437064,0.192333 0.437064,0.428788 0,0.236895 -0.19567,0.428469 -0.437064,0.428469 -0.241829,0 -0.437498,-0.191574 -0.437498,-0.428469 0,-0.236455 0.195669,-0.428788 0.437498,-0.428788 z"
       id="path2-3-36-3"
       style="fill:currentColor;fill-opacity:0.498039;stroke-width:0.0270635;enable-background:new"
       class="ColorScheme-Text" />
  </g>
  <g
     id="deactivated-inactive-center"
     transform="translate(44,22)">
    <rect
       style="opacity:0.00100002;fill:#000000;fill-opacity:1;fill-rule:nonzero;stroke:none;stroke-width:2;stroke-linecap:round;stroke-linejoin:round;stroke-miterlimit:4;stroke-dasharray:none;stroke-opacity:1"
       y="0"
       x="0"
       height="22"
       width="22"
       id="rect4266-62-8-2" />
    <path
       fill-rule="evenodd"
       clip-rule="evenodd"
       d="m 4.00011,10.642421 c 0,-0.946494 0.783665,-1.713851 1.749889,-1.713851 h 10.500324 c 0.483117,0 0.875085,-0.384 0.875085,-0.857359 V 7.21407 c 0,-0.473353 -0.391968,-0.857353 -0.875085,-0.857353 H 5.749999 c -0.483219,0 -0.874566,0.384 -0.874566,0.857353 v 0.428574 c 0,0.236889 -0.196109,0.428567 -0.437494,0.428567 -0.241829,0 -0.437505,-0.191678 -0.437505,-0.428567 V 7.21407 C 4.000434,6.267354 4.783775,5.5 5.749999,5.5 H 16.250323 C 17.216654,5.5 18,6.267354 18,7.21407 v 0.857141 c 0,0.946716 -0.783346,1.71407 -1.749677,1.71407 H 16.148336 5.749999 c -0.483219,0 -0.874566,0.384 -0.874566,0.85714 h -0.0031 c -8.49e-4,0.331266 0.127311,0.662738 0.385164,0.915438 l 4.808788,4.710105 c 0.514198,0.50349 1.347519,0.50349 1.86107,0 l 4.228299,-4.141748 c 0.08001,-0.08084 0.191296,-0.131186 0.315,-0.131186 0.242786,0 0.439523,0.19272 0.439523,0.430656 0,0.129748 -0.05994,0.244632 -0.153071,0.323731 l -4.209731,4.12393 C 12.120016,17.292007 11.56018,17.49919 11.000069,17.499998 10.437822,17.5008 9.875253,17.293637 9.446117,16.873347 L 4.639603,12.164713 C 4.226871,11.760621 4.014546,11.235486 4,10.70604 c 4.34e-4,-0.0185 4.34e-4,-0.03854 4.34e-4,-0.06362 z m 13.562826,0 c 0.241394,0 0.437064,0.192333 0.437064,0.428788 0,0.236895 -0.19567,0.428469 -0.437064,0.428469 -0.241829,0 -0.437498,-0.191574 -0.437498,-0.428469 0,-0.236455 0.195669,-0.428788 0.437498,-0.428788 z"
       id="path2-3-36-3-5"
       style="fill:currentColor;fill-opacity:0.3;stroke-width:0.0270635;enable-background:new"
       class="ColorScheme-Text" />
  </g>
  <g
     id="inactive-center"
     transform="translate(-22,22)">
    <rect
       style="opacity:0.00100002;fill:#000000;fill-opacity:1;fill-rule:nonzero;stroke:none;stroke-width:2;stroke-linecap:round;stroke-linejoin:round;stroke-miterlimit:4;stroke-dasharray:none;stroke-opacity:1"
       y="0"
       x="0"
       height="22"
       width="22"
       id="rect4266-62" />
    <path
       fill-rule="evenodd"
       clip-rule="evenodd"
       d="m 4.00008,10.642421 c 0,-0.946494 0.783665,-1.713851 1.749889,-1.713851 h 10.500324 c 0.483117,0 0.875085,-0.384 0.875085,-0.857359 V 7.21407 c 0,-0.473353 -0.391968,-0.857353 -0.875085,-0.857353 H 5.749969 c -0.483219,0 -0.874566,0.384 -0.874566,0.857353 v 0.428574 c 0,0.236889 -0.196109,0.428567 -0.437494,0.428567 -0.241829,0 -0.437505,-0.191678 -0.437505,-0.428567 V 7.21407 C 4.000404,6.267354 4.783745,5.5 5.749969,5.5 h 10.500324 c 0.966331,0 1.749677,0.767354 1.749677,1.71407 v 0.857141 c 0,0.946716 -0.783346,1.71407 -1.749677,1.71407 H 16.148306 5.749969 c -0.483219,0 -0.874566,0.384 -0.874566,0.85714 h -0.0031 c -8.49e-4,0.331266 0.127311,0.662738 0.385164,0.915438 l 4.808788,4.710105 c 0.514198,0.50349 1.347519,0.50349 1.86107,0 l 4.228299,-4.141748 c 0.08001,-0.08084 0.191296,-0.131186 0.315,-0.131186 0.242786,0 0.439523,0.19272 0.439523,0.430656 0,0.129748 -0.05994,0.244632 -0.153071,0.323731 l -4.209731,4.12393 C 12.119986,17.292007 11.56015,17.49919 11.000039,17.499998 10.437792,17.5008 9.8752231,17.293637 9.4460871,16.873347 L 4.639603,12.164713 C 4.226871,11.760621 4.014546,11.235486 4,10.70604 c 4.34e-4,-0.0185 4.34e-4,-0.03854 4.34e-4,-0.06362 z m 13.562826,0 c 0.241394,0 0.437064,0.192333 0.437064,0.428788 0,0.236895 -0.19567,0.428469 -0.437064,0.428469 -0.241829,0 -0.437498,-0.191574 -0.437498,-0.428469 0,-0.236455 0.195669,-0.428788 0.437498,-0.428788 z"
       id="path2-3-36"
       style="enable-background:new;stroke-width:0.0270635;fill-opacity:0.5;fill:currentColor;"
       class="ColorScheme-Text" />
  </g>
</svg>
