<?xml version="1.0" encoding="UTF-8" standalone="no"?>
<svg
   id="svg4306"
   width="22"
   height="22"
   version="1.1"
   style="enable-background:new"
   sodipodi:docname="maximize.svg"
   inkscape:version="1.1.2 (0a00cf5339, 2022-02-04)"
   xmlns:inkscape="http://www.inkscape.org/namespaces/inkscape"
   xmlns:sodipodi="http://sodipodi.sourceforge.net/DTD/sodipodi-0.dtd"
   xmlns="http://www.w3.org/2000/svg"
   xmlns:svg="http://www.w3.org/2000/svg"
   xmlns:rdf="http://www.w3.org/1999/02/22-rdf-syntax-ns#"
   xmlns:cc="http://creativecommons.org/ns#"
   xmlns:dc="http://purl.org/dc/elements/1.1/">
  <metadata
     id="metadata28">
    <rdf:RDF>
      <cc:Work
         rdf:about="">
        <dc:format>image/svg+xml</dc:format>
        <dc:type
           rdf:resource="http://purl.org/dc/dcmitype/StillImage" />
      </cc:Work>
    </rdf:RDF>
  </metadata>
  <defs
     id="defs26" />
  <sodipodi:namedview
     inkscape:document-rotation="0"
     pagecolor="#aaaaaa"
     bordercolor="#666666"
     borderopacity="1"
     objecttolerance="10"
     gridtolerance="10"
     guidetolerance="10"
     inkscape:pageopacity="0"
     inkscape:pageshadow="2"
     inkscape:window-width="1920"
     inkscape:window-height="1015"
     id="namedview24"
     showgrid="false"
     inkscape:zoom="8"
     inkscape:cx="10.6875"
     inkscape:cy="20.25"
     inkscape:window-x="0"
     inkscape:window-y="0"
     inkscape:window-maximized="1"
     inkscape:current-layer="svg4306"
     inkscape:snap-bbox="true"
     inkscape:bbox-nodes="true"
     inkscape:pagecheckerboard="0"
     inkscape:lockguides="false">
    <inkscape:grid
       type="xygrid"
       id="grid853"
       originx="-22"
       originy="0" />
  </sodipodi:namedview>
  <style
     type="text/css"
     id="current-color-scheme">.ColorScheme-Text { color:#ffffff; }
.ColorScheme-ButtonFocus { color:#3daee9; }
.ColorScheme-NegativeText { color:#da4453; }
</style>
  <g
     id="active-center"
     transform="translate(-22)">
    <rect
       id="rect4266"
       width="22"
       height="22"
       x="-22"
       y="-22"
       style="opacity:0.00100002;fill:#000000;fill-opacity:1;fill-rule:nonzero;stroke:none;stroke-width:2;stroke-linecap:round;stroke-linejoin:round;stroke-miterlimit:4;stroke-dasharray:none;stroke-opacity:1"
       transform="scale(-1)" />
    <path
       fill-rule="evenodd"
       clip-rule="evenodd"
       d="m 17.999886,11.357581 c 0,0.94649 -0.783662,1.713847 -1.749884,1.713847 H 5.7496726 c -0.4831098,0 -0.8750826,0.384001 -0.8750826,0.857364 v 0.857139 c 0,0.473349 0.3919728,0.857349 0.8750826,0.857349 H 16.250002 c 0.48322,0 0.874568,-0.384 0.874568,-0.857349 v -0.428577 c 0,-0.236887 0.196103,-0.428562 0.437494,-0.428562 0.241828,0 0.437502,0.191675 0.437502,0.428562 v 0.428577 c 0,0.94672 -0.783342,1.714069 -1.749564,1.714069 H 5.7496726 C 4.7833448,16.5 4,15.732651 4,14.785931 v -0.857139 c 0,-0.94672 0.7833448,-1.71407 1.7496726,-1.71407 H 5.8516644 16.250002 c 0.48322,0 0.874568,-0.384 0.874568,-0.857141 h 0.0034 c 8.22e-4,-0.331267 -0.127338,-0.662746 -0.38519,-0.91544 L 11.933792,5.7320364 c -0.514197,-0.5034899 -1.347525,-0.5034899 -1.861071,0 L 5.8444186,9.8737795 c -0.080016,0.08081 -0.191297,0.1311935 -0.315,0.1311935 -0.2427854,0 -0.4395239,-0.1927218 -0.4395239,-0.4306582 0,-0.1297504 0.059909,-0.2446336 0.153071,-0.3237334 L 9.4527005,5.1266535 C 9.8800558,4.7079924 10.439891,4.5008054 11.000002,4.5000024 c 0.562242,-8.04e-4 1.124807,0.206356 1.553946,0.6266511 l 4.806461,4.7086337 C 17.773126,10.239378 17.985451,10.764515 18,11.293962 c -4.34e-4,0.0185 -4.34e-4,0.03854 -4.34e-4,0.06362 z m -13.5628239,0 C 4.195672,11.357581 4,11.165246 4,10.928792 c 0,-0.236896 0.195672,-0.428476 0.4370621,-0.428476 0.2418287,0 0.437501,0.19158 0.437501,0.428476 0,0.236454 -0.1956723,0.428789 -0.437501,0.428789 z"
       id="path2"
       style="fill:currentColor;stroke-width:0.0270635"
       class="ColorScheme-Text" />
  </g>
  <g
     id="hover-center">
    <rect
       style="opacity:0.00100002;fill:#000000;fill-opacity:1;fill-rule:nonzero;stroke:none;stroke-width:2;stroke-linecap:round;stroke-linejoin:round;stroke-miterlimit:4;stroke-dasharray:none;stroke-opacity:1"
       y="-22"
       x="-22"
       height="22"
       width="22"
       id="rect4266-3"
       transform="scale(-1)" />
    <path
       fill-rule="evenodd"
       clip-rule="evenodd"
       d="m 17.999886,11.357581 c 0,0.94649 -0.783662,1.713848 -1.749884,1.713848 H 5.749672 c -0.483109,0 -0.875083,0.384 -0.875083,0.857362 v 0.857139 c 0,0.47335 0.391974,0.85735 0.875083,0.85735 h 10.50033 c 0.48322,0 0.874568,-0.384 0.874568,-0.85735 v -0.428576 c 0,-0.236886 0.196103,-0.428563 0.437494,-0.428563 0.241828,0 0.437502,0.191677 0.437502,0.428563 v 0.428576 c 0,0.94672 -0.783342,1.71407 -1.749564,1.71407 H 5.749672 C 4.783345,16.5 4,15.73265 4,14.78593 v -0.857139 c 0,-0.94672 0.783345,-1.71407 1.749672,-1.71407 h 0.101992 10.398338 c 0.48322,0 0.874568,-0.384 0.874568,-0.85714 h 0.0034 c 8.22e-4,-0.331268 -0.127338,-0.662747 -0.38519,-0.91544 L 11.933792,5.7320363 c -0.514197,-0.50349 -1.347525,-0.50349 -1.861071,0 L 5.844418,9.8737814 c -0.08002,0.080809 -0.191296,0.1311916 -0.314999,0.1311916 -0.242787,0 -0.439524,-0.1927211 -0.439524,-0.430658 0,-0.1297506 0.05991,-0.2446338 0.153071,-0.3237333 L 9.452701,5.1266533 c 0.427355,-0.418661 0.98719,-0.625848 1.547301,-0.626651 0.562242,-8.04e-4 1.124807,0.206356 1.553946,0.626651 l 4.806463,4.7086339 C 17.773126,10.239378 17.985451,10.764515 18,11.293962 c -4.34e-4,0.0185 -4.34e-4,0.03854 -4.34e-4,0.06362 z m -13.562824,0 C 4.195673,11.357581 4,11.165246 4,10.928791 c 0,-0.236895 0.195673,-0.428475 0.437062,-0.428475 0.241828,0 0.437501,0.19158 0.437501,0.428475 0,0.236455 -0.195673,0.42879 -0.437501,0.42879 z"
       id="path2-6"
       style="fill:#00b248;fill-opacity:1;stroke-width:0.0270635;enable-background:new" />
  </g>
  <g
     id="pressed-center"
     transform="translate(22)">
    <rect
       id="rect4266-3-6"
       width="22"
       height="22"
       x="-22"
       y="-22"
       style="opacity:0.00100002;fill:#000000;fill-opacity:1;fill-rule:nonzero;stroke:none;stroke-width:2;stroke-linecap:round;stroke-linejoin:round;stroke-miterlimit:4;stroke-dasharray:none;stroke-opacity:1"
       transform="scale(-1)" />
    <path
       fill-rule="evenodd"
       clip-rule="evenodd"
       d="m 17.999886,11.357581 c 0,0.94649 -0.783662,1.713848 -1.749884,1.713848 H 5.749672 c -0.483109,0 -0.875083,0.384 -0.875083,0.857362 v 0.857139 c 0,0.47335 0.391974,0.85735 0.875083,0.85735 h 10.50033 c 0.48322,0 0.874568,-0.384 0.874568,-0.85735 v -0.428576 c 0,-0.236886 0.196103,-0.428563 0.437494,-0.428563 0.241828,0 0.437502,0.191677 0.437502,0.428563 v 0.428576 c 0,0.94672 -0.783342,1.71407 -1.749564,1.71407 H 5.749672 C 4.783345,16.5 4,15.73265 4,14.78593 v -0.857139 c 0,-0.94672 0.783345,-1.71407 1.749672,-1.71407 h 0.101992 10.398338 c 0.48322,0 0.874568,-0.384 0.874568,-0.85714 h 0.0034 c 8.22e-4,-0.331268 -0.127338,-0.662747 -0.38519,-0.91544 L 11.933792,5.732036 c -0.514197,-0.50349 -1.347525,-0.50349 -1.861071,0 L 5.844418,9.873781 c -0.08002,0.08081 -0.191296,0.131192 -0.314999,0.131192 -0.242787,0 -0.439524,-0.192721 -0.439524,-0.430658 0,-0.129751 0.05991,-0.244634 0.153071,-0.323733 L 9.452701,5.126653 c 0.427355,-0.418661 0.98719,-0.625848 1.547301,-0.626651 0.562242,-8.04e-4 1.124807,0.206356 1.553946,0.626651 l 4.806463,4.708634 c 0.412715,0.404091 0.62504,0.929228 0.639589,1.458675 -4.34e-4,0.0185 -4.34e-4,0.03854 -4.34e-4,0.06362 z m -13.562824,0 C 4.195673,11.357581 4,11.165246 4,10.928791 c 0,-0.236895 0.195673,-0.428475 0.437062,-0.428475 0.241828,0 0.437501,0.19158 0.437501,0.428475 0,0.236455 -0.195673,0.42879 -0.437501,0.42879 z"
       id="path2-6-5"
       style="fill:#00e55d;fill-opacity:1;stroke-width:0.0270635;enable-background:new" />
  </g>
  <g
     id="hover-inactive-center"
     transform="translate(0,22)">
    <rect
       id="rect4266-3-67"
       width="22"
       height="22"
       x="-22"
       y="-22"
       style="opacity:0.00100002;fill:#000000;fill-opacity:1;fill-rule:nonzero;stroke:none;stroke-width:2;stroke-linecap:round;stroke-linejoin:round;stroke-miterlimit:4;stroke-dasharray:none;stroke-opacity:1"
       transform="scale(-1)" />
    <path
       fill-rule="evenodd"
       clip-rule="evenodd"
       d="m 17.999886,11.357581 c 0,0.94649 -0.783662,1.713848 -1.749884,1.713848 H 5.749672 c -0.483109,0 -0.875083,0.384 -0.875083,0.857362 v 0.857139 c 0,0.47335 0.391974,0.85735 0.875083,0.85735 h 10.50033 c 0.48322,0 0.874568,-0.384 0.874568,-0.85735 v -0.428576 c 0,-0.236886 0.196103,-0.428563 0.437494,-0.428563 0.241828,0 0.437502,0.191677 0.437502,0.428563 v 0.428576 c 0,0.94672 -0.783342,1.71407 -1.749564,1.71407 H 5.749672 C 4.783345,16.5 4,15.73265 4,14.78593 v -0.857139 c 0,-0.94672 0.783345,-1.71407 1.749672,-1.71407 h 0.101992 10.398338 c 0.48322,0 0.874568,-0.384 0.874568,-0.85714 h 0.0034 c 8.22e-4,-0.331268 -0.127338,-0.662747 -0.38519,-0.91544 L 11.933792,5.7320363 c -0.514197,-0.50349 -1.347525,-0.50349 -1.861071,0 L 5.844418,9.8737814 c -0.08002,0.080809 -0.191296,0.1311916 -0.314999,0.1311916 -0.242787,0 -0.439524,-0.1927211 -0.439524,-0.430658 0,-0.1297506 0.05991,-0.2446338 0.153071,-0.3237333 L 9.452701,5.1266533 c 0.427355,-0.418661 0.98719,-0.625848 1.547301,-0.626651 0.562242,-8.04e-4 1.124807,0.206356 1.553946,0.626651 l 4.806463,4.7086339 C 17.773126,10.239378 17.985451,10.764515 18,11.293962 c -4.34e-4,0.0185 -4.34e-4,0.03854 -4.34e-4,0.06362 z m -13.562824,0 C 4.195673,11.357581 4,11.165246 4,10.928791 c 0,-0.236895 0.195673,-0.428475 0.437062,-0.428475 0.241828,0 0.437501,0.19158 0.437501,0.428475 0,0.236455 -0.195673,0.42879 -0.437501,0.42879 z"
       id="path2-6-6"
       style="fill:#00b248;fill-opacity:1;stroke-width:0.0270635;enable-background:new" />
  </g>
  <g
     id="pressed-inactive-center"
     transform="translate(22,22)">
    <rect
       style="opacity:0.00100002;fill:#000000;fill-opacity:1;fill-rule:nonzero;stroke:none;stroke-width:2;stroke-linecap:round;stroke-linejoin:round;stroke-miterlimit:4;stroke-dasharray:none;stroke-opacity:1"
       y="-22"
       x="-22"
       height="22"
       width="22"
       id="rect4266-3-6-5"
       transform="scale(-1)" />
    <path
       fill-rule="evenodd"
       clip-rule="evenodd"
       d="m 17.999886,11.357581 c 0,0.94649 -0.783662,1.713848 -1.749884,1.713848 H 5.749672 c -0.483109,0 -0.875083,0.384 -0.875083,0.857362 v 0.857139 c 0,0.47335 0.391974,0.85735 0.875083,0.85735 h 10.50033 c 0.48322,0 0.874568,-0.384 0.874568,-0.85735 v -0.428576 c 0,-0.236886 0.196103,-0.428563 0.437494,-0.428563 0.241828,0 0.437502,0.191677 0.437502,0.428563 v 0.428576 c 0,0.94672 -0.783342,1.71407 -1.749564,1.71407 H 5.749672 C 4.783345,16.5 4,15.73265 4,14.78593 v -0.857139 c 0,-0.94672 0.783345,-1.71407 1.749672,-1.71407 h 0.101992 10.398338 c 0.48322,0 0.874568,-0.384 0.874568,-0.85714 h 0.0034 c 8.22e-4,-0.331268 -0.127338,-0.662747 -0.38519,-0.91544 L 11.933792,5.7320363 c -0.514197,-0.50349 -1.347525,-0.50349 -1.861071,0 L 5.844418,9.873781 c -0.08002,0.08081 -0.191296,0.131192 -0.314999,0.131192 -0.242787,0 -0.439524,-0.192721 -0.439524,-0.430658 0,-0.129751 0.05991,-0.244634 0.153071,-0.323733 L 9.452701,5.1266533 c 0.427355,-0.418661 0.98719,-0.625848 1.547301,-0.626651 0.562242,-8.04e-4 1.124807,0.206356 1.553946,0.626651 l 4.806463,4.7086337 c 0.412715,0.404091 0.62504,0.929228 0.639589,1.458675 -4.34e-4,0.0185 -4.34e-4,0.03854 -4.34e-4,0.06362 z m -13.562824,0 C 4.195673,11.357581 4,11.165246 4,10.928791 c 0,-0.236895 0.195673,-0.428475 0.437062,-0.428475 0.241828,0 0.437501,0.19158 0.437501,0.428475 0,0.236455 -0.195673,0.42879 -0.437501,0.42879 z"
       id="path2-6-5-7"
       style="fill:#00e55d;fill-opacity:0.7;stroke-width:0.0270635;enable-background:new" />
  </g>
  <g
     id="deactivated-center"
     transform="translate(44)">
    <rect
       style="opacity:0.00100002;fill:#000000;fill-opacity:1;fill-rule:nonzero;stroke:none;stroke-width:2;stroke-linecap:round;stroke-linejoin:round;stroke-miterlimit:4;stroke-dasharray:none;stroke-opacity:1"
       y="-22"
       x="-22"
       height="22"
       width="22"
       id="rect4266-0"
       transform="scale(-1)" />
    <path
       fill-rule="evenodd"
       clip-rule="evenodd"
       d="m 17.999886,11.357581 c 0,0.94649 -0.783662,1.713847 -1.749884,1.713847 H 5.749673 c -0.48311,0 -0.875083,0.384001 -0.875083,0.857364 v 0.857139 c 0,0.473349 0.391973,0.857349 0.875083,0.857349 h 10.500329 c 0.48322,0 0.874568,-0.384 0.874568,-0.857349 v -0.428577 c 0,-0.236887 0.196103,-0.428562 0.437494,-0.428562 0.241828,0 0.437502,0.191675 0.437502,0.428562 v 0.428577 c 0,0.94672 -0.783342,1.714069 -1.749564,1.714069 H 5.749673 C 4.783345,16.5 4,15.732651 4,14.785931 v -0.857139 c 0,-0.94672 0.783345,-1.71407 1.749673,-1.71407 h 0.101991 10.398338 c 0.48322,0 0.874568,-0.384 0.874568,-0.857141 h 0.0034 c 8.22e-4,-0.331267 -0.127338,-0.662746 -0.38519,-0.91544 L 11.933792,5.7320363 c -0.514197,-0.50349 -1.347525,-0.50349 -1.861071,0 L 5.844419,9.873779 c -0.08002,0.08081 -0.191297,0.131194 -0.315,0.131194 -0.242786,0 -0.439524,-0.192722 -0.439524,-0.430658 0,-0.129751 0.05991,-0.244634 0.153071,-0.323734 L 9.452701,5.1266533 c 0.427355,-0.418661 0.98719,-0.625848 1.547301,-0.626651 0.562242,-8.04e-4 1.124807,0.206356 1.553946,0.626651 l 4.806461,4.7086337 c 0.412717,0.404091 0.625042,0.929228 0.639591,1.458675 -4.34e-4,0.0185 -4.34e-4,0.03854 -4.34e-4,0.06362 z m -13.562824,0 C 4.195672,11.357581 4,11.165246 4,10.928792 c 0,-0.236896 0.195672,-0.428476 0.437062,-0.428476 0.241829,0 0.437501,0.19158 0.437501,0.428476 0,0.236454 -0.195672,0.428789 -0.437501,0.428789 z"
       id="path2-3-5"
       style="fill:currentColor;fill-opacity:0.5;stroke-width:0.0270635;enable-background:new"
       class="ColorScheme-Text" />
  </g>
  <g
     id="deactivated-inactive-center"
     transform="translate(44,22)">
    <rect
       id="rect4266-0-9"
       width="22"
       height="22"
       x="-22"
       y="-22"
       style="opacity:0.00100002;fill:#000000;fill-opacity:1;fill-rule:nonzero;stroke:none;stroke-width:2;stroke-linecap:round;stroke-linejoin:round;stroke-miterlimit:4;stroke-dasharray:none;stroke-opacity:1"
       transform="scale(-1)" />
    <path
       fill-rule="evenodd"
       clip-rule="evenodd"
       d="m 17.999886,11.357581 c 0,0.94649 -0.783662,1.713847 -1.749884,1.713847 H 5.749673 c -0.48311,0 -0.875083,0.384001 -0.875083,0.857364 v 0.857139 c 0,0.473349 0.391973,0.857349 0.875083,0.857349 h 10.500329 c 0.48322,0 0.874568,-0.384 0.874568,-0.857349 v -0.428577 c 0,-0.236887 0.196103,-0.428562 0.437494,-0.428562 0.241828,0 0.437502,0.191675 0.437502,0.428562 v 0.428577 c 0,0.94672 -0.783342,1.714069 -1.749564,1.714069 H 5.749673 C 4.783345,16.5 4,15.732651 4,14.785931 v -0.857139 c 0,-0.94672 0.783345,-1.71407 1.749673,-1.71407 h 0.101991 10.398338 c 0.48322,0 0.874568,-0.384 0.874568,-0.857141 h 0.0034 c 8.22e-4,-0.331267 -0.127338,-0.662746 -0.38519,-0.91544 L 11.933792,5.7320363 c -0.514197,-0.50349 -1.347525,-0.50349 -1.861071,0 L 5.844419,9.873779 c -0.08002,0.08081 -0.191297,0.131194 -0.315,0.131194 -0.242786,0 -0.439524,-0.192722 -0.439524,-0.430658 0,-0.129751 0.05991,-0.244634 0.153071,-0.323734 L 9.452701,5.1266533 c 0.427355,-0.418661 0.98719,-0.625848 1.547301,-0.626651 0.562242,-8.04e-4 1.124807,0.206356 1.553946,0.626651 l 4.806461,4.7086337 c 0.412717,0.404091 0.625042,0.929228 0.639591,1.458675 -4.34e-4,0.0185 -4.34e-4,0.03854 -4.34e-4,0.06362 z m -13.562824,0 C 4.195672,11.357581 4,11.165246 4,10.928792 c 0,-0.236896 0.195672,-0.428476 0.437062,-0.428476 0.241829,0 0.437501,0.19158 0.437501,0.428476 0,0.236454 -0.195672,0.428789 -0.437501,0.428789 z"
       id="path2-3-5-3"
       style="fill:currentColor;fill-opacity:0.296772;stroke-width:0.0270635;enable-background:new"
       class="ColorScheme-Text" />
  </g>
  <g
     id="inactive-center"
     transform="translate(-22,22)">
    <rect
       style="opacity:0.00100002;fill:#000000;fill-opacity:1;fill-rule:nonzero;stroke:none;stroke-width:2;stroke-linecap:round;stroke-linejoin:round;stroke-miterlimit:4;stroke-dasharray:none;stroke-opacity:1"
       y="-22"
       x="-22"
       height="22"
       width="22"
       id="rect4266-9"
       transform="scale(-1)" />
    <path
       fill-rule="evenodd"
       clip-rule="evenodd"
       d="m 17.999886,11.357582 c 0,0.94649 -0.783662,1.713847 -1.749884,1.713847 H 5.749673 c -0.48311,0 -0.875083,0.384001 -0.875083,0.857364 v 0.857139 c 0,0.473349 0.391973,0.857349 0.875083,0.857349 h 10.500329 c 0.48322,0 0.874568,-0.384 0.874568,-0.857349 v -0.428577 c 0,-0.236887 0.196103,-0.428562 0.437494,-0.428562 0.241828,0 0.437502,0.191675 0.437502,0.428562 v 0.428577 c 0,0.94672 -0.783342,1.714069 -1.749564,1.714069 H 5.749673 C 4.783345,16.500001 4,15.732652 4,14.785932 v -0.857139 c 0,-0.94672 0.783345,-1.71407 1.749673,-1.71407 h 0.101991 10.398338 c 0.48322,0 0.874568,-0.384 0.874568,-0.857141 h 0.0034 c 8.22e-4,-0.331267 -0.127338,-0.662746 -0.38519,-0.91544 L 11.933792,5.7320363 c -0.514197,-0.50349 -1.347525,-0.50349 -1.861071,0 L 5.844419,9.87378 c -0.08002,0.08081 -0.191297,0.131194 -0.315,0.131194 -0.242786,0 -0.439524,-0.192722 -0.439524,-0.4306584 0,-0.1297513 0.05991,-0.2446343 0.153071,-0.3237343 l 4.209735,-4.123928 c 0.4273549,-0.418661 0.98719,-0.625848 1.547301,-0.626651 0.562242,-8.04e-4 1.124807,0.206356 1.553946,0.626651 l 4.806461,4.7086347 c 0.412717,0.404091 0.625042,0.929228 0.639591,1.458675 -4.34e-4,0.0185 -4.34e-4,0.03854 -4.34e-4,0.06362 z m -13.562824,0 C 4.195672,11.357582 4,11.165247 4,10.928793 c 0,-0.236896 0.195672,-0.428476 0.437062,-0.428476 0.241829,0 0.437501,0.19158 0.437501,0.428476 0,0.236454 -0.195672,0.428789 -0.437501,0.428789 z"
       id="path2-3-3"
       style="fill:currentColor;fill-opacity:0.5;stroke-width:0.0270635;enable-background:new"
       class="ColorScheme-Text" />
  </g>
</svg>
