<?xml version="1.0" encoding="UTF-8" standalone="no"?>
<svg
   id="svg4306"
   width="22"
   height="22"
   version="1.1"
   style="enable-background:new"
   sodipodi:docname="minimize.svg"
   inkscape:version="1.1.2 (0a00cf5339, 2022-02-04)"
   xmlns:inkscape="http://www.inkscape.org/namespaces/inkscape"
   xmlns:sodipodi="http://sodipodi.sourceforge.net/DTD/sodipodi-0.dtd"
   xmlns="http://www.w3.org/2000/svg"
   xmlns:svg="http://www.w3.org/2000/svg"
   xmlns:rdf="http://www.w3.org/1999/02/22-rdf-syntax-ns#"
   xmlns:cc="http://creativecommons.org/ns#"
   xmlns:dc="http://purl.org/dc/elements/1.1/">
  <metadata
     id="metadata28">
    <rdf:RDF>
      <cc:Work
         rdf:about="">
        <dc:format>image/svg+xml</dc:format>
        <dc:type
           rdf:resource="http://purl.org/dc/dcmitype/StillImage" />
      </cc:Work>
    </rdf:RDF>
  </metadata>
  <defs
     id="defs26" />
  <sodipodi:namedview
     inkscape:document-rotation="0"
     pagecolor="#b2b2b2"
     bordercolor="#666666"
     borderopacity="1"
     objecttolerance="10"
     gridtolerance="10"
     guidetolerance="10"
     inkscape:pageopacity="0"
     inkscape:pageshadow="2"
     inkscape:window-width="1920"
     inkscape:window-height="1015"
     id="namedview24"
     showgrid="false"
     inkscape:zoom="5.656854"
     inkscape:cx="1.6793787"
     inkscape:cy="10.253049"
     inkscape:window-x="0"
     inkscape:window-y="0"
     inkscape:window-maximized="1"
     inkscape:current-layer="svg4306"
     inkscape:snap-bbox="true"
     inkscape:bbox-nodes="true"
     inkscape:pagecheckerboard="0"
     showguides="false"
     inkscape:lockguides="false">
    <inkscape:grid
       type="xygrid"
       id="grid853"
       originx="-22"
       originy="0" />
  </sodipodi:namedview>
  <style
     type="text/css"
     id="current-color-scheme">.ColorScheme-Text { color:#ffffff; }
.ColorScheme-ButtonFocus { color:#3daee9; }
.ColorScheme-NegativeText { color:#da4453; }
</style>
  <g
     id="active-center"
     transform="translate(-22)">
    <rect
       id="rect4266"
       width="22"
       height="22"
       x="0"
       y="0"
       style="opacity:0.00100002;fill:#000000;fill-opacity:1;fill-rule:nonzero;stroke:none;stroke-width:2;stroke-linecap:round;stroke-linejoin:round;stroke-miterlimit:4;stroke-dasharray:none;stroke-opacity:1" />
    <path
       fill-rule="evenodd"
       clip-rule="evenodd"
       d="m 4.0001102,9.64242 c 0,-0.9464936 0.7836648,-1.7138504 1.7498888,-1.7138504 h 10.500324 c 0.483117,0 0.875085,-0.3840001 0.875085,-0.8573589 V 6.2140698 c 0,-0.4733529 -0.391968,-0.8573529 -0.875085,-0.8573529 H 5.749999 c -0.4832192,0 -0.8745657,0.384 -0.8745657,0.8573529 v 0.4285739 c 0,0.2368889 -0.1961092,0.428567 -0.4374947,0.428567 -0.2418285,0 -0.4375048,-0.1916781 -0.4375048,-0.428567 V 6.2140698 C 4.0004338,5.2673539 4.783775,4.5 5.749999,4.5 H 16.250323 C 17.216654,4.5 18,5.2673539 18,6.2140698 v 0.8571409 c 0,0.9467158 -0.783346,1.7140698 -1.749677,1.7140698 H 16.148336 5.749999 c -0.4832192,0 -0.8745657,0.3840005 -0.8745657,0.8571395 h -0.00313 c -8.493e-4,0.331267 0.1273111,0.662738 0.3851636,0.915439 l 4.8087881,4.710104 c 0.514198,0.503489 1.347519,0.503489 1.86107,0 l 4.228299,-4.141749 c 0.08001,-0.08083 0.191296,-0.131185 0.315,-0.131185 0.242786,0 0.439523,0.19272 0.439523,0.430657 0,0.129747 -0.05994,0.24463 -0.153071,0.32373 l -4.209731,4.12393 c -0.427359,0.418659 -0.987195,0.625842 -1.547306,0.626652 -0.562245,8e-4 -1.1248142,-0.206363 -1.5539501,-0.626652 L 4.6396026,11.164712 C 4.2268711,10.760621 4.0145458,10.235486 4,9.70604 4.0004338,9.68753 4.0004338,9.66749 4.0004338,9.64242 Z m 13.5628258,0 C 17.80433,9.64242 18,9.834754 18,10.071208 c 0,0.236895 -0.19567,0.42847 -0.437064,0.42847 -0.241829,0 -0.437498,-0.191575 -0.437498,-0.42847 0,-0.236454 0.195669,-0.428788 0.437498,-0.428788 z"
       id="path2-3"
       style="fill:currentColor;stroke-width:0.0270635;enable-background:new"
       class="ColorScheme-Text" />
  </g>
  <g
     id="hover-center">
    <rect
       style="opacity:0.00100002;fill:#000000;fill-opacity:1;fill-rule:nonzero;stroke:none;stroke-width:2;stroke-linecap:round;stroke-linejoin:round;stroke-miterlimit:4;stroke-dasharray:none;stroke-opacity:1"
       y="0"
       x="0"
       height="22"
       width="22"
       id="rect4266-3" />
    <path
       fill-rule="evenodd"
       clip-rule="evenodd"
       d="m 4.0001102,9.642421 c 0,-0.946494 0.7836648,-1.713851 1.7498888,-1.713851 h 10.500324 c 0.483117,0 0.875085,-0.384 0.875085,-0.857359 V 6.21407 c 0,-0.473353 -0.391968,-0.857353 -0.875085,-0.857353 H 5.749999 c -0.4832192,0 -0.8745657,0.384 -0.8745657,0.857353 v 0.428574 c 0,0.236889 -0.1961092,0.428567 -0.4374947,0.428567 -0.2418285,0 -0.4375048,-0.191678 -0.4375048,-0.428567 V 6.21407 C 4.0004338,5.267354 4.783775,4.5 5.749999,4.5 H 16.250323 C 17.216654,4.5 18,5.267354 18,6.21407 v 0.857141 c 0,0.946716 -0.783346,1.71407 -1.749677,1.71407 H 16.148336 5.749999 c -0.4832192,0 -0.8745657,0.384 -0.8745657,0.85714 h -0.00313 c -8.493e-4,0.331266 0.1273111,0.662738 0.3851636,0.915438 l 4.8087881,4.710105 c 0.514198,0.50349 1.347519,0.50349 1.86107,0 l 4.228299,-4.141748 c 0.08001,-0.08084 0.191296,-0.131186 0.315,-0.131186 0.242786,0 0.439523,0.19272 0.439523,0.430656 0,0.129748 -0.05994,0.244632 -0.153071,0.323731 l -4.209731,4.12393 C 12.119986,16.292007 11.56015,16.49919 11.000039,16.499998 10.437792,16.5008 9.8752227,16.293637 9.4460868,15.873347 L 4.6396026,11.164713 C 4.2268711,10.760621 4.0145458,10.235486 4,9.70604 4.0004338,9.68754 4.0004338,9.6675 4.0004338,9.64242 Z m 13.5628258,0 C 17.80433,9.642421 18,9.834754 18,10.071209 c 0,0.236895 -0.19567,0.428469 -0.437064,0.428469 -0.241829,0 -0.437498,-0.191574 -0.437498,-0.428469 0,-0.236455 0.195669,-0.428788 0.437498,-0.428788 z"
       id="path2-3-7"
       style="fill:#cca400;fill-opacity:1;stroke-width:0.0270635;enable-background:new" />
  </g>
  <g
     id="pressed-center"
     transform="translate(22)">
    <rect
       id="rect4266-3-6"
       width="22"
       height="22"
       x="0"
       y="0"
       style="opacity:0.00100002;fill:#000000;fill-opacity:1;fill-rule:nonzero;stroke:none;stroke-width:2;stroke-linecap:round;stroke-linejoin:round;stroke-miterlimit:4;stroke-dasharray:none;stroke-opacity:1" />
    <path
       fill-rule="evenodd"
       clip-rule="evenodd"
       d="m 4.0001102,9.642421 c 0,-0.946494 0.7836648,-1.713851 1.7498888,-1.713851 h 10.500324 c 0.483117,0 0.875085,-0.384 0.875085,-0.857359 V 6.21407 c 0,-0.473353 -0.391968,-0.857353 -0.875085,-0.857353 H 5.749999 c -0.4832192,0 -0.8745657,0.384 -0.8745657,0.857353 v 0.428574 c 0,0.236889 -0.1961092,0.428567 -0.4374947,0.428567 -0.2418285,0 -0.4375048,-0.191678 -0.4375048,-0.428567 V 6.21407 C 4.0004338,5.267354 4.783775,4.5 5.749999,4.5 H 16.250323 C 17.216654,4.5 18,5.267354 18,6.21407 v 0.857141 c 0,0.946716 -0.783346,1.71407 -1.749677,1.71407 H 16.148336 5.749999 c -0.4832192,0 -0.8745657,0.384 -0.8745657,0.85714 h -0.00313 c -8.493e-4,0.331266 0.1273111,0.662738 0.3851636,0.915438 l 4.8087881,4.710105 c 0.514198,0.50349 1.347519,0.50349 1.86107,0 l 4.228299,-4.141748 c 0.08001,-0.08084 0.191296,-0.131186 0.315,-0.131186 0.242786,0 0.439523,0.19272 0.439523,0.430656 0,0.129748 -0.05994,0.244632 -0.153071,0.323731 l -4.209731,4.12393 C 12.119986,16.292007 11.56015,16.49919 11.000039,16.499998 10.437792,16.5008 9.8752227,16.293637 9.4460868,15.873347 L 4.6396026,11.164713 C 4.2268711,10.760621 4.0145458,10.235486 4,9.70604 4.0004338,9.68754 4.0004338,9.6675 4.0004338,9.64242 Z m 13.5628258,0 C 17.80433,9.642421 18,9.834754 18,10.071209 c 0,0.236895 -0.19567,0.428469 -0.437064,0.428469 -0.241829,0 -0.437498,-0.191574 -0.437498,-0.428469 0,-0.236455 0.195669,-0.428788 0.437498,-0.428788 z"
       id="path2-3-7-3"
       style="fill:#ffcd00;fill-opacity:1;stroke-width:0.0270635;enable-background:new" />
  </g>
  <g
     id="deactivated-center"
     transform="translate(44)">
    <rect
       style="opacity:0.00100002;fill:#000000;fill-opacity:1;fill-rule:nonzero;stroke:none;stroke-width:2;stroke-linecap:round;stroke-linejoin:round;stroke-miterlimit:4;stroke-dasharray:none;stroke-opacity:1"
       y="0"
       x="0"
       height="22"
       width="22"
       id="rect4266-0" />
    <path
       fill-rule="evenodd"
       clip-rule="evenodd"
       d="m 4.00011,9.64242 c 0,-0.9464936 0.783665,-1.7138504 1.749889,-1.7138504 h 10.500324 c 0.483117,0 0.875085,-0.3840001 0.875085,-0.8573589 V 6.21407 c 0,-0.473353 -0.391968,-0.857353 -0.875085,-0.857353 H 5.749999 c -0.483219,0 -0.874566,0.384 -0.874566,0.857353 v 0.4285737 c 0,0.2368889 -0.196109,0.428567 -0.437494,0.428567 -0.241829,0 -0.437505,-0.1916781 -0.437505,-0.428567 V 6.21407 C 4.000434,5.267354 4.783775,4.5 5.749999,4.5 H 16.250323 C 17.216654,4.5 18,5.267354 18,6.21407 v 0.8571407 c 0,0.9467158 -0.783346,1.7140698 -1.749677,1.7140698 H 16.148336 5.749999 c -0.483219,0 -0.874566,0.3840005 -0.874566,0.8571395 h -0.0031 c -8.49e-4,0.331267 0.127311,0.662738 0.385164,0.915439 l 4.808788,4.710104 c 0.514198,0.503489 1.347519,0.503489 1.86107,0 l 4.228299,-4.141749 c 0.08001,-0.08083 0.191296,-0.131185 0.315,-0.131185 0.242786,0 0.439523,0.19272 0.439523,0.430657 0,0.129747 -0.05994,0.24463 -0.153071,0.32373 l -4.209731,4.12393 c -0.427359,0.418659 -0.987195,0.625842 -1.547306,0.626652 -0.562245,8e-4 -1.124814,-0.206363 -1.55395,-0.626652 L 4.639603,11.164712 C 4.226871,10.760621 4.014546,10.235486 4,9.70604 4.000434,9.68753 4.000434,9.66749 4.000434,9.64242 Z m 13.562826,0 C 17.80433,9.64242 18,9.834754 18,10.071208 c 0,0.236895 -0.19567,0.42847 -0.437064,0.42847 -0.241829,0 -0.437498,-0.191575 -0.437498,-0.42847 0,-0.236454 0.195669,-0.428788 0.437498,-0.428788 z"
       id="path2-3-3"
       style="fill:currentColor;fill-opacity:0.5;stroke-width:0.0270635;enable-background:new"
       class="ColorScheme-Text" />
  </g>
  <g
     id="inactive-center"
     transform="translate(-22,22)">
    <rect
       style="opacity:0.00100002;fill:#000000;fill-opacity:1;fill-rule:nonzero;stroke:none;stroke-width:2;stroke-linecap:round;stroke-linejoin:round;stroke-miterlimit:4;stroke-dasharray:none;stroke-opacity:1"
       y="0"
       x="0"
       height="22"
       width="22"
       id="rect4266-9" />
    <path
       fill-rule="evenodd"
       clip-rule="evenodd"
       d="m 4.00011,9.64242 c 0,-0.946494 0.783665,-1.71385 1.749889,-1.71385 h 10.500324 c 0.483117,0 0.875085,-0.384001 0.875085,-0.857359 V 6.21407 c 0,-0.473353 -0.391968,-0.857353 -0.875085,-0.857353 H 5.749999 c -0.483219,0 -0.874566,0.384 -0.874566,0.857353 v 0.428574 c 0,0.236889 -0.196109,0.428567 -0.437494,0.428567 -0.241829,0 -0.437505,-0.191678 -0.437505,-0.428567 V 6.21407 C 4.000434,5.267354 4.783775,4.5 5.749999,4.5 H 16.250323 C 17.216654,4.5 18,5.267354 18,6.21407 V 7.071211 C 18,8.017926 17.216654,8.78528 16.250323,8.78528 H 16.148336 5.749999 c -0.483219,0 -0.874566,0.384001 -0.874566,0.85714 h -0.0031 c -8.49e-4,0.331267 0.127311,0.662738 0.385164,0.915439 l 4.808788,4.710104 c 0.514198,0.503489 1.347519,0.503489 1.86107,0 l 4.228299,-4.141749 c 0.08001,-0.08083 0.191296,-0.131185 0.315,-0.131185 0.242786,0 0.439523,0.19272 0.439523,0.430657 0,0.129747 -0.05994,0.24463 -0.153071,0.32373 l -4.209731,4.12393 c -0.427359,0.418659 -0.987195,0.625842 -1.547306,0.626652 -0.562245,8e-4 -1.124814,-0.206363 -1.55395,-0.626652 L 4.639633,11.164712 C 4.226871,10.760621 4.014546,10.235486 4,9.70604 4.000434,9.68753 4.000434,9.66749 4.000434,9.64242 Z m 13.562826,0 C 17.80433,9.64242 18,9.834754 18,10.071208 c 0,0.236895 -0.19567,0.42847 -0.437064,0.42847 -0.241829,0 -0.437498,-0.191575 -0.437498,-0.42847 0,-0.236454 0.195669,-0.428788 0.437498,-0.428788 z"
       id="path2-3-75"
       style="fill:currentColor;fill-opacity:0.5;stroke-width:0.0270635;enable-background:new"
       class="ColorScheme-Text" />
  </g>
  <g
     id="hover-inactive-center"
     transform="translate(0,22)">
    <rect
       id="rect4266-3-67"
       width="22"
       height="22"
       x="0"
       y="0"
       style="opacity:0.00100002;fill:#000000;fill-opacity:1;fill-rule:nonzero;stroke:none;stroke-width:2;stroke-linecap:round;stroke-linejoin:round;stroke-miterlimit:4;stroke-dasharray:none;stroke-opacity:1" />
    <path
       fill-rule="evenodd"
       clip-rule="evenodd"
       d="m 4.00011,9.642421 c 0,-0.946494 0.783665,-1.713851 1.749889,-1.713851 h 10.500324 c 0.483117,0 0.875085,-0.384 0.875085,-0.857359 V 6.21407 c 0,-0.473353 -0.391968,-0.857353 -0.875085,-0.857353 H 5.749999 c -0.483219,0 -0.874566,0.384 -0.874566,0.857353 v 0.428574 c 0,0.236889 -0.196109,0.428567 -0.437494,0.428567 -0.241829,0 -0.437505,-0.191678 -0.437505,-0.428567 V 6.21407 C 4.000434,5.267354 4.783775,4.5 5.749999,4.5 H 16.250323 C 17.216654,4.5 18,5.267354 18,6.21407 v 0.857141 c 0,0.946716 -0.783346,1.71407 -1.749677,1.71407 H 16.148336 5.749999 c -0.483219,0 -0.874566,0.384 -0.874566,0.85714 h -0.0031 c -8.49e-4,0.331266 0.127311,0.662738 0.385164,0.915438 l 4.808788,4.710105 c 0.514198,0.50349 1.347519,0.50349 1.86107,0 l 4.228299,-4.141748 c 0.08001,-0.08084 0.191296,-0.131186 0.315,-0.131186 0.242786,0 0.439523,0.19272 0.439523,0.430656 0,0.129748 -0.05994,0.244632 -0.153071,0.323731 l -4.209731,4.12393 C 12.119986,16.292007 11.56015,16.49919 11.000039,16.499998 10.437792,16.5008 9.875223,16.293637 9.446087,15.873347 L 4.639603,11.164713 C 4.226871,10.760621 4.014546,10.235486 4,9.70604 4.000434,9.68754 4.000434,9.6675 4.000434,9.64242 Z m 13.562826,0 C 17.80433,9.642421 18,9.834754 18,10.071209 c 0,0.236895 -0.19567,0.428469 -0.437064,0.428469 -0.241829,0 -0.437498,-0.191574 -0.437498,-0.428469 0,-0.236455 0.195669,-0.428788 0.437498,-0.428788 z"
       id="path2-3-7-35"
       style="fill:#cca400;fill-opacity:0.7;stroke-width:0.0270635;enable-background:new" />
  </g>
  <g
     id="pressed-inactive-center"
     transform="translate(22,22)">
    <g
       id="g3890">
      <rect
         style="opacity:0.00100002;fill:#000000;fill-opacity:1;fill-rule:nonzero;stroke:none;stroke-width:2;stroke-linecap:round;stroke-linejoin:round;stroke-miterlimit:4;stroke-dasharray:none;stroke-opacity:1"
         y="0"
         x="0"
         height="22"
         width="22"
         id="rect4266-3-6-5" />
      <path
         fill-rule="evenodd"
         clip-rule="evenodd"
         d="m 4.00008,9.642421 c 0,-0.946494 0.783665,-1.713851 1.749889,-1.713851 h 10.500324 c 0.483117,0 0.875085,-0.384 0.875085,-0.857359 V 6.21407 c 0,-0.473353 -0.391968,-0.857353 -0.875085,-0.857353 H 5.749969 c -0.483219,0 -0.874566,0.384 -0.874566,0.857353 v 0.428574 c 0,0.236889 -0.196109,0.428567 -0.437494,0.428567 -0.241829,0 -0.437505,-0.191678 -0.437505,-0.428567 V 6.21407 C 4.000404,5.267354 4.783745,4.5 5.749969,4.5 h 10.500324 c 0.966331,0 1.749677,0.767354 1.749677,1.71407 v 0.857141 c 0,0.946716 -0.783346,1.71407 -1.749677,1.71407 H 16.148306 5.749969 c -0.483219,0 -0.874566,0.384 -0.874566,0.85714 h -0.0031 c -8.49e-4,0.331266 0.127311,0.662738 0.385164,0.915438 l 4.808788,4.710105 c 0.514198,0.50349 1.347519,0.50349 1.86107,0 l 4.228299,-4.141748 c 0.08001,-0.08084 0.191296,-0.131186 0.315,-0.131186 0.242786,0 0.439523,0.19272 0.439523,0.430656 0,0.129748 -0.05994,0.244632 -0.153071,0.323731 l -4.209731,4.12393 C 12.119986,16.292007 11.56015,16.49919 11.000039,16.499998 10.437792,16.5008 9.875223,16.293637 9.446087,15.873347 L 4.639603,11.164713 C 4.226871,10.760621 4.014546,10.235486 4,9.70604 4.000434,9.68754 4.000434,9.6675 4.000434,9.64242 Z m 13.562826,0 c 0.241394,0 0.437064,0.192333 0.437064,0.428788 0,0.236895 -0.19567,0.428469 -0.437064,0.428469 -0.241829,0 -0.437498,-0.191574 -0.437498,-0.428469 0,-0.236455 0.195669,-0.428788 0.437498,-0.428788 z"
         id="path2-3-7-3-6"
         style="fill:#ffcd00;fill-opacity:1;stroke-width:0.0270635;enable-background:new" />
    </g>
  </g>
  <g
     id="deactivated-inactive-center"
     transform="translate(44,22)">
    <rect
       id="rect4266-0-9"
       width="22"
       height="22"
       x="0"
       y="0"
       style="opacity:0.00100002;fill:#000000;fill-opacity:1;fill-rule:nonzero;stroke:none;stroke-width:2;stroke-linecap:round;stroke-linejoin:round;stroke-miterlimit:4;stroke-dasharray:none;stroke-opacity:1" />
    <path
       fill-rule="evenodd"
       clip-rule="evenodd"
       d="m 4.00011,9.6424197 c 0,-0.9464937 0.783665,-1.7138507 1.749889,-1.7138507 h 10.500324 c 0.483117,0 0.875085,-0.384 0.875085,-0.857359 V 6.21407 c 0,-0.473353 -0.391968,-0.857353 -0.875085,-0.857353 H 5.749999 c -0.483219,0 -0.874566,0.384 -0.874566,0.857353 v 0.428573 c 0,0.236889 -0.196109,0.428567 -0.437494,0.428567 -0.241829,0 -0.437505,-0.191678 -0.437505,-0.428567 V 6.21407 C 4.000434,5.267354 4.783775,4.5 5.749999,4.5 H 16.250323 C 17.216654,4.5 18,5.267354 18,6.21407 v 0.85714 c 0,0.946716 -0.783346,1.71407 -1.749677,1.71407 H 16.148336 5.749999 c -0.483219,0 -0.874566,0.384001 -0.874566,0.8571397 h -0.0031 C 4.871484,9.973687 4.999644,10.305158 5.257497,10.557859 l 4.808788,4.710104 c 0.514198,0.503489 1.347519,0.503489 1.86107,0 l 4.228299,-4.141749 c 0.08001,-0.08083 0.191296,-0.131185 0.315,-0.131185 0.242786,0 0.439523,0.19272 0.439523,0.430657 0,0.129747 -0.05994,0.24463 -0.153071,0.32373 l -4.209731,4.12393 c -0.427358,0.418659 -0.987194,0.625842 -1.547306,0.626652 -0.562245,8e-4 -1.124814,-0.206363 -1.55395,-0.626652 L 4.639603,11.164712 C 4.226871,10.760621 4.014546,10.235486 4,9.70604 4.000434,9.68753 4.000434,9.66749 4.000434,9.64242 Z m 13.562826,0 C 17.80433,9.6424197 18,9.834754 18,10.071208 c 0,0.236895 -0.19567,0.42847 -0.437064,0.42847 -0.241829,0 -0.437498,-0.191575 -0.437498,-0.42847 0,-0.236454 0.195669,-0.4287883 0.437498,-0.4287883 z"
       id="path2-3-3-6-3"
       style="color:#ffffff;fill:currentColor;fill-opacity:0.5;stroke-width:0.0270635;enable-background:new"
       class="ColorScheme-Text" />
  </g>
</svg>
