<?xml version="1.0" encoding="UTF-8" standalone="no"?>
<svg
   id="svg4306"
   width="22"
   height="22"
   version="1.1"
   style="enable-background:new"
   sodipodi:docname="restore.svg"
   inkscape:version="1.1.2 (0a00cf5339, 2022-02-04)"
   xmlns:inkscape="http://www.inkscape.org/namespaces/inkscape"
   xmlns:sodipodi="http://sodipodi.sourceforge.net/DTD/sodipodi-0.dtd"
   xmlns="http://www.w3.org/2000/svg"
   xmlns:svg="http://www.w3.org/2000/svg"
   xmlns:rdf="http://www.w3.org/1999/02/22-rdf-syntax-ns#"
   xmlns:cc="http://creativecommons.org/ns#"
   xmlns:dc="http://purl.org/dc/elements/1.1/">
  <metadata
     id="metadata28">
    <rdf:RDF>
      <cc:Work
         rdf:about="">
        <dc:format>image/svg+xml</dc:format>
        <dc:type
           rdf:resource="http://purl.org/dc/dcmitype/StillImage" />
      </cc:Work>
    </rdf:RDF>
  </metadata>
  <defs
     id="defs26" />
  <sodipodi:namedview
     inkscape:bbox-nodes="true"
     inkscape:snap-bbox="true"
     inkscape:document-rotation="0"
     pagecolor="#b2b2b2"
     bordercolor="#666666"
     borderopacity="1"
     objecttolerance="10"
     gridtolerance="10"
     guidetolerance="10"
     inkscape:pageopacity="0"
     inkscape:pageshadow="2"
     inkscape:window-width="1920"
     inkscape:window-height="1015"
     id="namedview24"
     showgrid="false"
     inkscape:zoom="8.0000004"
     inkscape:cx="19.187499"
     inkscape:cy="30.499998"
     inkscape:window-x="0"
     inkscape:window-y="0"
     inkscape:window-maximized="1"
     inkscape:current-layer="svg4306"
     inkscape:pagecheckerboard="0"
     inkscape:lockguides="false">
    <inkscape:grid
       type="xygrid"
       id="grid853"
       originx="-22"
       originy="0" />
  </sodipodi:namedview>
  <style
     type="text/css"
     id="current-color-scheme">.ColorScheme-Text { color:#ffffff; }
.ColorScheme-ButtonFocus { color:#3daee9; }
.ColorScheme-NegativeText { color:#da4453; }
</style>
  <g
     id="active-center"
     transform="translate(-22)">
    <rect
       style="opacity:0.00100002;fill:#000000;fill-opacity:1;fill-rule:nonzero;stroke:none;stroke-width:2;stroke-linecap:round;stroke-linejoin:round;stroke-miterlimit:4;stroke-dasharray:none;stroke-opacity:1"
       y="-22"
       x="-22"
       height="22"
       width="22"
       id="rect4266"
       transform="scale(-1)" />
    <path
       fill-rule="evenodd"
       clip-rule="evenodd"
       d="m 12.625278,9.781097 c 0,0.224555 -0.182509,0.406252 -0.406655,0.406252 -0.224528,0 -0.406227,-0.181722 -0.406227,-0.406252 0,-0.224148 0.181699,-0.40635 0.406227,-0.40635 0.224146,0 0.406655,0.182202 0.406655,0.40635 z m -1.625325,0 c 0,0.224555 -0.181675,0.406252 -0.406226,0.406252 -0.224123,0 -0.406435,-0.181722 -0.406435,-0.406252 0,-0.224148 0.182312,-0.40635 0.406435,-0.40635 0.224551,0 0.406226,0.182202 0.406226,0.40635 z m 4.875151,3.656172 h -1.320471 c -0.16818,0 -0.304656,0.136684 -0.304656,0.304898 v 2.133007 c 0,0.897231 -0.727549,1.624826 -1.624699,1.624826 H 6.124822 C 5.227441,17.5 4.5,16.772405 4.5,15.875174 v -3.859601 c 0,-0.560978 0.454619,-1.01562 1.015879,-1.01562 h 7.617393 c 0.167775,0 0.304656,-0.136175 0.304656,-0.30469 V 9.374746 c 0,-0.448703 -0.364174,-0.812119 -0.81265,-0.812119 H 6.124822 c -0.448677,0 -0.812069,0.363416 -0.812069,0.812119 v 0.406351 c 0,0.224555 -0.18238,0.406252 -0.406427,0.406252 C 4.681796,10.187349 4.5,10.005627 4.5,9.781097 V 9.374746 C 4.5,8.477441 5.227441,7.750025 6.124822,7.750025 h 2.234553 0.203201 0.812677 0.203101 3.046924 c 0.89715,0 1.624699,0.727391 1.624699,1.624722 v 1.422076 c 0,0.561186 -0.454619,1.01563 -1.015169,1.01563 H 5.617441 c -0.168517,0 -0.304687,0.136269 -0.304687,0.304888 v 3.757833 c 0,0.448534 0.363391,0.812534 0.812068,0.812534 h 6.500456 c 0.448476,0 0.81265,-0.364 0.81265,-0.812534 v -2.234577 c 0,-0.384438 0.215796,-0.714897 0.53041,-0.8871 0.01547,-0.0029 0.02894,-0.01133 0.03971,-0.02183 0.134871,-0.06644 0.284833,-0.10652 0.445093,-0.10652 h 1.422005 c 0.448674,0 0.812858,-0.364023 0.812858,-0.812724 v -5.6876 c 0,-0.448704 -0.364184,-0.812221 -0.812858,-0.812221 h -5.687808 c -0.4485777,0 -0.812045,0.363517 -0.812045,0.812221 v 0.40625 c 0,0.224554 -0.1822028,0.406351 -0.406326,0.406351 -0.2245543,0 -0.4063518,-0.181822 -0.4063518,-0.406351 V 6.124826 C 8.562576,5.227492 9.290043,4.5 10.187292,4.5 h 5.687812 C 16.772462,4.5 17.5,5.227492 17.5,6.124822 v 5.687631 c 0,0.897429 -0.727538,1.624816 -1.624896,1.624816 z"
       id="path2-3"
       style="fill:currentColor;fill-opacity:1;stroke-width:0.0253905"
       class="ColorScheme-Text" />
  </g>
  <g
     id="hover-center"
     transform="translate(22)">
    <rect
       id="rect4266-6"
       width="22"
       height="22"
       x="0"
       y="-22"
       style="opacity:0.00100002;fill:#000000;fill-opacity:1;fill-rule:nonzero;stroke:none;stroke-width:2;stroke-linecap:round;stroke-linejoin:round;stroke-miterlimit:4;stroke-dasharray:none;stroke-opacity:1"
       transform="scale(-1)" />
    <path
       fill-rule="evenodd"
       clip-rule="evenodd"
       d="m -9.374722,9.781097 c 0,0.224555 -0.182509,0.406252 -0.406655,0.406252 -0.224528,0 -0.406227,-0.181722 -0.406227,-0.406252 0,-0.224148 0.181699,-0.40635 0.406227,-0.40635 0.224146,0 0.406655,0.182202 0.406655,0.40635 z m -1.625325,0 c 0,0.224555 -0.181675,0.406252 -0.406226,0.406252 -0.224123,0 -0.406435,-0.181722 -0.406435,-0.406252 0,-0.224148 0.182312,-0.40635 0.406435,-0.40635 0.224551,0 0.406226,0.182202 0.406226,0.40635 z m 4.875151,3.656172 h -1.320471 c -0.16818,0 -0.304656,0.136684 -0.304656,0.304898 v 2.133007 c 0,0.897231 -0.727549,1.624826 -1.624699,1.624826 h -6.500456 C -16.772559,17.5 -17.5,16.772405 -17.5,15.875174 v -3.859601 c 0,-0.560978 0.454619,-1.01562 1.015879,-1.01562 h 7.617393 c 0.167775,0 0.304656,-0.136175 0.304656,-0.30469 V 9.374746 c 0,-0.448703 -0.364174,-0.812119 -0.81265,-0.812119 h -6.500456 c -0.448677,0 -0.812069,0.363416 -0.812069,0.812119 v 0.406351 c 0,0.224555 -0.18238,0.406252 -0.406427,0.406252 -0.22453,0 -0.406326,-0.181722 -0.406326,-0.406252 V 9.374746 c 0,-0.897305 0.727441,-1.624721 1.624822,-1.624721 h 2.234553 0.203201 0.812677 0.203101 3.046924 c 0.89715,0 1.624699,0.727391 1.624699,1.624722 v 1.422076 c 0,0.561186 -0.454619,1.01563 -1.015169,1.01563 h -7.617367 c -0.168517,0 -0.304687,0.136269 -0.304687,0.304888 v 3.757833 c 0,0.448534 0.363391,0.812534 0.812068,0.812534 h 6.500456 c 0.448476,0 0.81265,-0.364 0.81265,-0.812534 v -2.234577 c 0,-0.384438 0.215796,-0.714897 0.53041,-0.8871 0.01547,-0.0029 0.02894,-0.01133 0.03971,-0.02183 0.134871,-0.06644 0.284833,-0.10652 0.445093,-0.10652 h 1.422005 c 0.448674,0 0.812858,-0.364023 0.812858,-0.812724 v -5.6876 c 0,-0.448704 -0.364184,-0.812221 -0.812858,-0.812221 h -5.687808 c -0.448578,0 -0.812045,0.363517 -0.812045,0.812221 v 0.40625 c 0,0.224554 -0.182203,0.406351 -0.406326,0.406351 -0.224554,0 -0.406352,-0.181822 -0.406352,-0.406351 V 6.124826 C -13.437424,5.227492 -12.709957,4.5 -11.812708,4.5 h 5.687812 C -5.227538,4.5 -4.5,5.227492 -4.5,6.124822 v 5.687631 c 0,0.897429 -0.727538,1.624816 -1.624896,1.624816 z"
       id="path2-3-3"
       style="fill:#00cc99;fill-opacity:1;stroke-width:0.0253905;enable-background:new" />
  </g>
  <g
     id="pressed-center"
     transform="translate(22)">
    <rect
       style="opacity:0.00100002;fill:#000000;fill-opacity:1;fill-rule:nonzero;stroke:none;stroke-width:2;stroke-linecap:round;stroke-linejoin:round;stroke-miterlimit:4;stroke-dasharray:none;stroke-opacity:1"
       y="-22"
       x="-22"
       height="22"
       width="22"
       id="rect4266-6-5"
       transform="scale(-1)" />
    <path
       fill-rule="evenodd"
       clip-rule="evenodd"
       d="m 12.625325,9.781097 c 0,0.224555 -0.182509,0.406252 -0.406655,0.406252 -0.224528,0 -0.406227,-0.181722 -0.406227,-0.406252 0,-0.224148 0.181699,-0.40635 0.406227,-0.40635 0.224146,0 0.406655,0.182202 0.406655,0.40635 z m -1.625325,0 c 0,0.224555 -0.181675,0.406252 -0.406226,0.406252 -0.224123,0 -0.406435,-0.181722 -0.406435,-0.406252 0,-0.224148 0.182312,-0.40635 0.406435,-0.40635 C 10.818325,9.374747 11,9.556949 11,9.781097 Z m 4.875151,3.656172 H 14.55468 c -0.16818,0 -0.304656,0.136684 -0.304656,0.304898 v 2.133007 c 0,0.897231 -0.727549,1.624826 -1.624699,1.624826 H 6.124869 c -0.897381,0 -1.624822,-0.727595 -1.624822,-1.624826 v -3.859601 c 0,-0.560978 0.454619,-1.01562 1.015879,-1.01562 h 7.617393 c 0.167775,0 0.304656,-0.136175 0.304656,-0.30469 V 9.374746 c 0,-0.448703 -0.364174,-0.812119 -0.81265,-0.812119 H 6.124869 c -0.448677,0 -0.812069,0.363416 -0.812069,0.812119 v 0.406351 c 0,0.224555 -0.18238,0.406252 -0.406427,0.406252 -0.22453,0 -0.406326,-0.181722 -0.406326,-0.406252 V 9.374746 c 0,-0.897305 0.727441,-1.624721 1.624822,-1.624721 H 8.359422 8.562623 9.3753 9.578401 12.625325 c 0.89715,0 1.624699,0.727391 1.624699,1.624722 v 1.422076 c 0,0.561186 -0.454619,1.01563 -1.015169,1.01563 H 5.617488 c -0.168517,0 -0.304687,0.136269 -0.304687,0.304888 v 3.757833 c 0,0.448534 0.363391,0.812534 0.812068,0.812534 h 6.500456 c 0.448476,0 0.81265,-0.364 0.81265,-0.812534 v -2.234577 c 0,-0.384438 0.215796,-0.714897 0.53041,-0.8871 0.01547,-0.0029 0.02894,-0.01133 0.03971,-0.02183 0.134871,-0.06644 0.284833,-0.10652 0.445093,-0.10652 h 1.422005 c 0.448674,0 0.812858,-0.364023 0.812858,-0.812724 v -5.6876 c 0,-0.448704 -0.364184,-0.812221 -0.812858,-0.812221 h -5.687808 c -0.448578,0 -0.812045,0.363517 -0.812045,0.812221 v 0.40625 c 0,0.224554 -0.182203,0.406351 -0.406326,0.406351 -0.224554,0 -0.406352,-0.181822 -0.406352,-0.406351 V 6.124826 C 8.562623,5.227492 9.29009,4.5 10.187339,4.5 h 5.687812 c 0.897358,0 1.624896,0.727492 1.624896,1.624822 v 5.687631 c 0,0.897429 -0.727538,1.624816 -1.624896,1.624816 z"
       id="path2-3-6"
       style="fill:#1affc6;fill-opacity:1;stroke-width:0.0253905;enable-background:new" />
  </g>
  <g
     id="inactive-center"
     transform="translate(-22,22)">
    <rect
       id="rect4266-2"
       width="22"
       height="22"
       x="-22"
       y="-22"
       style="opacity:0.00100002;fill:#000000;fill-opacity:1;fill-rule:nonzero;stroke:none;stroke-width:2;stroke-linecap:round;stroke-linejoin:round;stroke-miterlimit:4;stroke-dasharray:none;stroke-opacity:1"
       transform="scale(-1)" />
    <path
       fill-rule="evenodd"
       clip-rule="evenodd"
       d="m 12.625325,9.781097 c 0,0.224555 -0.182509,0.406252 -0.406655,0.406252 -0.224528,0 -0.406227,-0.181722 -0.406227,-0.406252 0,-0.224148 0.181699,-0.40635 0.406227,-0.40635 0.224146,0 0.406655,0.182202 0.406655,0.40635 z m -1.625325,0 c 0,0.224555 -0.181675,0.406252 -0.406226,0.406252 -0.224123,0 -0.406435,-0.181722 -0.406435,-0.406252 0,-0.224148 0.182312,-0.40635 0.406435,-0.40635 C 10.818325,9.374747 11,9.556949 11,9.781097 Z m 4.875151,3.656172 H 14.55468 c -0.16818,0 -0.304656,0.136684 -0.304656,0.304898 v 2.133007 c 0,0.897231 -0.727549,1.624826 -1.624699,1.624826 H 6.124869 c -0.897381,0 -1.624822,-0.727595 -1.624822,-1.624826 v -3.859601 c 0,-0.560978 0.454619,-1.01562 1.015879,-1.01562 h 7.617393 c 0.167775,0 0.304656,-0.136175 0.304656,-0.30469 V 9.374746 c 0,-0.448703 -0.364174,-0.812119 -0.81265,-0.812119 H 6.124869 c -0.448677,0 -0.812069,0.363416 -0.812069,0.812119 v 0.406351 c 0,0.224555 -0.18238,0.406252 -0.406427,0.406252 -0.22453,0 -0.406326,-0.181722 -0.406326,-0.406252 V 9.374746 c 0,-0.897305 0.727441,-1.624721 1.624822,-1.624721 H 8.359422 8.562623 9.3753 9.578401 12.625325 c 0.89715,0 1.624699,0.727391 1.624699,1.624722 v 1.422076 c 0,0.561186 -0.454619,1.01563 -1.015169,1.01563 H 5.617488 c -0.168517,0 -0.304687,0.136269 -0.304687,0.304888 v 3.757833 c 0,0.448534 0.363391,0.812534 0.812068,0.812534 h 6.500456 c 0.448476,0 0.81265,-0.364 0.81265,-0.812534 v -2.234577 c 0,-0.384438 0.215796,-0.714897 0.53041,-0.8871 0.01547,-0.0029 0.02894,-0.01133 0.03971,-0.02183 0.134871,-0.06644 0.284833,-0.10652 0.445093,-0.10652 h 1.422005 c 0.448674,0 0.812858,-0.364023 0.812858,-0.812724 v -5.6876 c 0,-0.448704 -0.364184,-0.812221 -0.812858,-0.812221 h -5.687808 c -0.4485777,0 -0.812045,0.363517 -0.812045,0.812221 v 0.40625 c 0,0.224554 -0.1822028,0.406351 -0.406326,0.406351 -0.2245543,0 -0.4063518,-0.181822 -0.4063518,-0.406351 V 6.124826 C 8.562623,5.227492 9.29009,4.5 10.187339,4.5 h 5.687812 c 0.897358,0 1.624896,0.727492 1.624896,1.624822 v 5.687631 c 0,0.897429 -0.727538,1.624816 -1.624896,1.624816 z"
       id="path2-3-36"
       style="enable-background:new;stroke-width:0.0253905;fill-opacity:0.5;fill:currentColor;"
       class="ColorScheme-Text" />
  </g>
  <g
     id="hover-inactive-center"
     transform="translate(0,22)">
    <rect
       style="opacity:0.00100002;fill:#000000;fill-opacity:1;fill-rule:nonzero;stroke:none;stroke-width:2;stroke-linecap:round;stroke-linejoin:round;stroke-miterlimit:4;stroke-dasharray:none;stroke-opacity:1"
       y="-22"
       x="-22"
       height="22"
       width="22"
       id="rect4266-6-6"
       transform="scale(-1)" />
    <path
       fill-rule="evenodd"
       clip-rule="evenodd"
       d="m 12.625325,9.781097 c 0,0.224555 -0.182509,0.406252 -0.406655,0.406252 -0.224528,0 -0.406227,-0.181722 -0.406227,-0.406252 0,-0.224148 0.181699,-0.40635 0.406227,-0.40635 0.224146,0 0.406655,0.182202 0.406655,0.40635 z m -1.625325,0 c 0,0.224555 -0.181675,0.406252 -0.406226,0.406252 -0.224123,0 -0.406435,-0.181722 -0.406435,-0.406252 0,-0.224148 0.182312,-0.40635 0.406435,-0.40635 C 10.818325,9.374747 11,9.556949 11,9.781097 Z m 4.875151,3.656172 H 14.55468 c -0.16818,0 -0.304656,0.136684 -0.304656,0.304898 v 2.133007 c 0,0.897231 -0.727549,1.624826 -1.624699,1.624826 H 6.124869 c -0.897381,0 -1.624822,-0.727595 -1.624822,-1.624826 v -3.859601 c 0,-0.560978 0.454619,-1.01562 1.015879,-1.01562 h 7.617393 c 0.167775,0 0.304656,-0.136175 0.304656,-0.30469 V 9.374746 c 0,-0.448703 -0.364174,-0.812119 -0.81265,-0.812119 H 6.124869 c -0.448677,0 -0.812069,0.363416 -0.812069,0.812119 v 0.406351 c 0,0.224555 -0.18238,0.406252 -0.406427,0.406252 -0.22453,0 -0.406326,-0.181722 -0.406326,-0.406252 V 9.374746 c 0,-0.897305 0.727441,-1.624721 1.624822,-1.624721 H 8.359422 8.562623 9.3753 9.578401 12.625325 c 0.89715,0 1.624699,0.727391 1.624699,1.624722 v 1.422076 c 0,0.561186 -0.454619,1.01563 -1.015169,1.01563 H 5.617488 c -0.168517,0 -0.304687,0.136269 -0.304687,0.304888 v 3.757833 c 0,0.448534 0.363391,0.812534 0.812068,0.812534 h 6.500456 c 0.448476,0 0.81265,-0.364 0.81265,-0.812534 v -2.234577 c 0,-0.384438 0.215796,-0.714897 0.53041,-0.8871 0.01547,-0.0029 0.02894,-0.01133 0.03971,-0.02183 0.134871,-0.06644 0.284833,-0.10652 0.445093,-0.10652 h 1.422005 c 0.448674,0 0.812858,-0.364023 0.812858,-0.812724 v -5.6876 c 0,-0.448704 -0.364184,-0.812221 -0.812858,-0.812221 h -5.687808 c -0.448578,0 -0.812045,0.363517 -0.812045,0.812221 v 0.40625 c 0,0.224554 -0.182203,0.406351 -0.406326,0.406351 -0.224554,0 -0.406352,-0.181822 -0.406352,-0.406351 V 6.124826 C 8.562623,5.227492 9.29009,4.5 10.187339,4.5 h 5.687812 c 0.897358,0 1.624896,0.727492 1.624896,1.624822 v 5.687631 c 0,0.897429 -0.727538,1.624816 -1.624896,1.624816 z"
       id="path2-3-3-7"
       style="fill:#00cc99;fill-opacity:0.7;stroke-width:0.0253905;enable-background:new" />
  </g>
  <g
     id="pressed-inactive-center"
     transform="translate(22,22)">
    <rect
       id="rect4266-6-5-3"
       width="22"
       height="22"
       x="-22"
       y="-22"
       style="opacity:0.00100002;fill:#800000;fill-opacity:1;fill-rule:nonzero;stroke:none;stroke-width:2;stroke-linecap:round;stroke-linejoin:round;stroke-miterlimit:4;stroke-dasharray:none;stroke-opacity:1"
       transform="scale(-1)" />
    <path
       fill-rule="evenodd"
       clip-rule="evenodd"
       d="m 12.625278,9.781097 c 0,0.224555 -0.182509,0.406252 -0.406655,0.406252 -0.224528,0 -0.406227,-0.181722 -0.406227,-0.406252 0,-0.224148 0.181699,-0.40635 0.406227,-0.40635 0.224146,0 0.406655,0.182202 0.406655,0.40635 z m -1.625325,0 c 0,0.224555 -0.181675,0.406252 -0.406226,0.406252 -0.224123,0 -0.406435,-0.181722 -0.406435,-0.406252 0,-0.224148 0.182312,-0.40635 0.406435,-0.40635 0.224551,0 0.406226,0.182202 0.406226,0.40635 z m 4.875151,3.656172 h -1.320471 c -0.16818,0 -0.304656,0.136684 -0.304656,0.304898 v 2.133007 c 0,0.897231 -0.727549,1.624826 -1.624699,1.624826 H 6.124822 C 5.227441,17.5 4.5,16.772405 4.5,15.875174 v -3.859601 c 0,-0.560978 0.454619,-1.01562 1.015879,-1.01562 h 7.617393 c 0.167775,0 0.304656,-0.136175 0.304656,-0.30469 V 9.374746 c 0,-0.448703 -0.364174,-0.812119 -0.81265,-0.812119 H 6.124822 c -0.448677,0 -0.812069,0.363416 -0.812069,0.812119 v 0.406351 c 0,0.224555 -0.18238,0.406252 -0.406427,0.406252 C 4.681796,10.187349 4.5,10.005627 4.5,9.781097 V 9.374746 C 4.5,8.477441 5.227441,7.750025 6.124822,7.750025 h 2.234553 0.203201 0.812677 0.203101 3.046924 c 0.89715,0 1.624699,0.727391 1.624699,1.624722 v 1.422076 c 0,0.561186 -0.454619,1.01563 -1.015169,1.01563 H 5.617441 c -0.168517,0 -0.304687,0.136269 -0.304687,0.304888 v 3.757833 c 0,0.448534 0.363391,0.812534 0.812068,0.812534 h 6.500456 c 0.448476,0 0.81265,-0.364 0.81265,-0.812534 v -2.234577 c 0,-0.384438 0.215796,-0.714897 0.53041,-0.8871 0.01547,-0.0029 0.02894,-0.01133 0.03971,-0.02183 0.134871,-0.06644 0.284833,-0.10652 0.445093,-0.10652 h 1.422005 c 0.448674,0 0.812858,-0.364023 0.812858,-0.812724 v -5.6876 c 0,-0.448704 -0.364184,-0.812221 -0.812858,-0.812221 h -5.687808 c -0.448578,0 -0.812045,0.363517 -0.812045,0.812221 v 0.40625 c 0,0.224554 -0.182203,0.406351 -0.406326,0.406351 -0.224554,0 -0.406352,-0.181822 -0.406352,-0.406351 V 6.124826 C 8.562576,5.227492 9.290043,4.5 10.187292,4.5 h 5.687812 C 16.772462,4.5 17.5,5.227492 17.5,6.124822 v 5.687631 c 0,0.897429 -0.727538,1.624816 -1.624896,1.624816 z"
       id="path2-3-6-5"
       style="fill:#1affc6;fill-opacity:0.7;stroke-width:0.0253905;enable-background:new" />
  </g>
  <g
     id="deactivated-center"
     transform="translate(44)">
    <rect
       id="rect4266-5"
       width="22"
       height="22"
       x="-22"
       y="-22"
       style="opacity:0.00100002;fill:#000000;fill-opacity:1;fill-rule:nonzero;stroke:none;stroke-width:2;stroke-linecap:round;stroke-linejoin:round;stroke-miterlimit:4;stroke-dasharray:none;stroke-opacity:1"
       transform="scale(-1)" />
    <path
       fill-rule="evenodd"
       clip-rule="evenodd"
       d="m 12.625278,9.781097 c 0,0.224555 -0.182509,0.406252 -0.406655,0.406252 -0.224528,0 -0.406227,-0.181722 -0.406227,-0.406252 0,-0.224148 0.181699,-0.40635 0.406227,-0.40635 0.224146,0 0.406655,0.182202 0.406655,0.40635 z m -1.625325,0 c 0,0.224555 -0.181675,0.406252 -0.406226,0.406252 -0.224123,0 -0.406435,-0.181722 -0.406435,-0.406252 0,-0.224148 0.182312,-0.40635 0.406435,-0.40635 0.224551,0 0.406226,0.182202 0.406226,0.40635 z m 4.875151,3.656172 h -1.320471 c -0.16818,0 -0.304656,0.136684 -0.304656,0.304898 v 2.133007 c 0,0.897231 -0.727549,1.624826 -1.624699,1.624826 H 6.124822 C 5.227441,17.5 4.5,16.772405 4.5,15.875174 v -3.859601 c 0,-0.560978 0.454619,-1.01562 1.015879,-1.01562 h 7.617393 c 0.167775,0 0.304656,-0.136175 0.304656,-0.30469 V 9.374746 c 0,-0.448703 -0.364174,-0.812119 -0.81265,-0.812119 H 6.124822 c -0.448677,0 -0.812069,0.363416 -0.812069,0.812119 v 0.406351 c 0,0.224555 -0.18238,0.406252 -0.406427,0.406252 C 4.681796,10.187349 4.5,10.005627 4.5,9.781097 V 9.374746 C 4.5,8.477441 5.227441,7.750025 6.124822,7.750025 h 2.234553 0.203201 0.812677 0.203101 3.046924 c 0.89715,0 1.624699,0.727391 1.624699,1.624722 v 1.422076 c 0,0.561186 -0.454619,1.01563 -1.015169,1.01563 H 5.617441 c -0.168517,0 -0.304687,0.136269 -0.304687,0.304888 v 3.757833 c 0,0.448534 0.363391,0.812534 0.812068,0.812534 h 6.500456 c 0.448476,0 0.81265,-0.364 0.81265,-0.812534 v -2.234577 c 0,-0.384438 0.215796,-0.714897 0.53041,-0.8871 0.01547,-0.0029 0.02894,-0.01133 0.03971,-0.02183 0.134871,-0.06644 0.284833,-0.10652 0.445093,-0.10652 h 1.422005 c 0.448674,0 0.812858,-0.364023 0.812858,-0.812724 v -5.6876 c 0,-0.448704 -0.364184,-0.812221 -0.812858,-0.812221 h -5.687808 c -0.448578,0 -0.812045,0.363517 -0.812045,0.812221 v 0.40625 c 0,0.224554 -0.182203,0.406351 -0.406326,0.406351 -0.224554,0 -0.406352,-0.181822 -0.406352,-0.406351 V 6.124826 C 8.562576,5.227492 9.290043,4.5 10.187292,4.5 h 5.687812 C 16.772462,4.5 17.5,5.227492 17.5,6.124822 v 5.687631 c 0,0.897429 -0.727538,1.624816 -1.624896,1.624816 z"
       id="path2-3-36-3"
       style="enable-background:new;stroke-width:0.0253905;fill-opacity:0.5;fill:currentColor;"
       class="ColorScheme-Text" />
  </g>
  <g
     id="deactivated-inactive-center"
     transform="translate(44,22)">
    <rect
       style="opacity:0.00100002;fill:#000000;fill-opacity:1;fill-rule:nonzero;stroke:none;stroke-width:2;stroke-linecap:round;stroke-linejoin:round;stroke-miterlimit:4;stroke-dasharray:none;stroke-opacity:1"
       y="-22"
       x="-22"
       height="22"
       width="22"
       id="rect4266-5-2"
       transform="scale(-1)" />
    <path
       fill-rule="evenodd"
       clip-rule="evenodd"
       d="m 12.625278,9.781097 c 0,0.224555 -0.182509,0.406252 -0.406655,0.406252 -0.224528,0 -0.406227,-0.181722 -0.406227,-0.406252 0,-0.224148 0.181699,-0.40635 0.406227,-0.40635 0.224146,0 0.406655,0.182202 0.406655,0.40635 z m -1.625325,0 c 0,0.224555 -0.181675,0.406252 -0.406226,0.406252 -0.224123,0 -0.406435,-0.181722 -0.406435,-0.406252 0,-0.224148 0.182312,-0.40635 0.406435,-0.40635 0.224551,0 0.406226,0.182202 0.406226,0.40635 z m 4.875151,3.656172 h -1.320471 c -0.16818,0 -0.304656,0.136684 -0.304656,0.304898 v 2.133007 c 0,0.897231 -0.727549,1.624826 -1.624699,1.624826 H 6.124822 C 5.227441,17.5 4.5,16.772405 4.5,15.875174 v -3.859601 c 0,-0.560978 0.454619,-1.01562 1.015879,-1.01562 h 7.617393 c 0.167775,0 0.304656,-0.136175 0.304656,-0.30469 V 9.374746 c 0,-0.448703 -0.364174,-0.812119 -0.81265,-0.812119 H 6.124822 c -0.448677,0 -0.812069,0.363416 -0.812069,0.812119 v 0.406351 c 0,0.224555 -0.18238,0.406252 -0.406427,0.406252 C 4.681796,10.187349 4.5,10.005627 4.5,9.781097 V 9.374746 C 4.5,8.477441 5.227441,7.750025 6.124822,7.750025 h 2.234553 0.203201 0.812677 0.203101 3.046924 c 0.89715,0 1.624699,0.727391 1.624699,1.624722 v 1.422076 c 0,0.561186 -0.454619,1.01563 -1.015169,1.01563 H 5.617441 c -0.168517,0 -0.304687,0.136269 -0.304687,0.304888 v 3.757833 c 0,0.448534 0.363391,0.812534 0.812068,0.812534 h 6.500456 c 0.448476,0 0.81265,-0.364 0.81265,-0.812534 v -2.234577 c 0,-0.384438 0.215796,-0.714897 0.53041,-0.8871 0.01547,-0.0029 0.02894,-0.01133 0.03971,-0.02183 0.134871,-0.06644 0.284833,-0.10652 0.445093,-0.10652 h 1.422005 c 0.448674,0 0.812858,-0.364023 0.812858,-0.812724 v -5.6876 c 0,-0.448704 -0.364184,-0.812221 -0.812858,-0.812221 h -5.687808 c -0.448578,0 -0.812045,0.363517 -0.812045,0.812221 v 0.40625 c 0,0.224554 -0.182203,0.406351 -0.406326,0.406351 -0.224554,0 -0.406352,-0.181822 -0.406352,-0.406351 V 6.124826 C 8.562576,5.227492 9.290043,4.5 10.187292,4.5 h 5.687812 C 16.772462,4.5 17.5,5.227492 17.5,6.124822 v 5.687631 c 0,0.897429 -0.727538,1.624816 -1.624896,1.624816 z"
       id="path2-3-36-3-5"
       style="enable-background:new;stroke-width:0.0253905;fill-opacity:0.5;fill:currentColor;"
       class="ColorScheme-Text" />
  </g>
</svg>
