<?xml version="1.0" encoding="UTF-8" standalone="no"?>
<svg
   inkscape:version="1.1.2 (0a00cf5339, 2022-02-04)"
   sodipodi:docname="shade.svg"
   style="enable-background:new"
   version="1.1"
   height="22"
   width="22"
   id="svg4306"
   xmlns:inkscape="http://www.inkscape.org/namespaces/inkscape"
   xmlns:sodipodi="http://sodipodi.sourceforge.net/DTD/sodipodi-0.dtd"
   xmlns="http://www.w3.org/2000/svg"
   xmlns:svg="http://www.w3.org/2000/svg"
   xmlns:rdf="http://www.w3.org/1999/02/22-rdf-syntax-ns#"
   xmlns:cc="http://creativecommons.org/ns#"
   xmlns:dc="http://purl.org/dc/elements/1.1/">
  <metadata
     id="metadata28">
    <rdf:RDF>
      <cc:Work
         rdf:about="">
        <dc:format>image/svg+xml</dc:format>
        <dc:type
           rdf:resource="http://purl.org/dc/dcmitype/StillImage" />
      </cc:Work>
    </rdf:RDF>
  </metadata>
  <defs
     id="defs26" />
  <sodipodi:namedview
     inkscape:bbox-nodes="true"
     inkscape:snap-bbox="true"
     inkscape:current-layer="svg4306"
     inkscape:window-maximized="1"
     inkscape:window-y="0"
     inkscape:window-x="0"
     inkscape:cy="32.249998"
     inkscape:cx="14.937499"
     inkscape:zoom="8.0000004"
     showgrid="false"
     id="namedview24"
     inkscape:window-height="1015"
     inkscape:window-width="1920"
     inkscape:pageshadow="2"
     inkscape:pageopacity="0"
     guidetolerance="10"
     gridtolerance="10"
     objecttolerance="10"
     borderopacity="1"
     bordercolor="#666666"
     pagecolor="#acacac"
     inkscape:document-rotation="0"
     inkscape:pagecheckerboard="0"
     inkscape:lockguides="false">
    <inkscape:grid
       id="grid853"
       type="xygrid"
       originx="-22"
       originy="0" />
  </sodipodi:namedview>
  <style
     id="current-color-scheme"
     type="text/css">.ColorScheme-Text { color:#ffffff; }
.ColorScheme-ButtonFocus { color:#3daee9; }
.ColorScheme-NegativeText { color:#da4453; }
</style>
  <g
     id="active-center"
     transform="translate(-22)">
    <rect
       id="rect4266"
       width="22"
       height="22"
       x="-22"
       y="-22"
       style="opacity:0.00100002;fill:#000000;fill-opacity:1;fill-rule:nonzero;stroke:none;stroke-width:2;stroke-linecap:round;stroke-linejoin:round;stroke-miterlimit:4;stroke-dasharray:none;stroke-opacity:1"
       transform="scale(-1)" />
    <path
       fill-rule="evenodd"
       clip-rule="evenodd"
       d="m 18.061275,7.2 v 0.750023 c 0,0.828375 -0.595414,1.500375 -1.699914,1.500375 h -5.300336 c -0.255625,0 -0.511969,0.07287 -0.707031,0.219352 -0.04541,0.03406 -0.08178,0.07214 -0.116469,0.110602 l -5.1100944,6.231585 c -0.0415,0.07819 -0.36607,0.463399 -0.36607,0.55293 0,0.378844 0.508875,0.385485 1.014,0.385485 H 16.146708 c 0.505126,0 1.214653,-0.0066 1.214653,-0.385485 0,-0.09759 -0.32818,-0.490304 -0.377,-0.574 l -2.965,-3.640003 v 0 c -0.03759,-0.05255 -0.06857,-0.08515 -0.08263,-0.147878 -0.04756,-0.212119 0.04763,-0.464853 0.32163,-0.502831 0.179905,-0.02494 0.438651,0.07305 0.526776,0.182016 l 3.051281,3.717281 c 0.309848,0.391415 0.520405,0.814869 0.424943,1.168415 C 18.018884,17.665889 17.205806,17.7 16.150619,17.7 H 5.8712706 c -0.88691,0 -1.88691,-0.01158 -2.00991,-0.932133 -0.060008,-0.449111 0.123,-0.777 0.424,-1.168 l 5.127476,-6.245422 c 0.06838,-0.07545 0.14525,-0.147937 0.234375,-0.214969 C 10.037337,8.846883 10.549056,8.599867 11.061025,8.599867 h 5.300336 c 0.55225,0 0.9,-0.235656 0.9,-0.649844 V 7.2 c 0,-0.414187 -0.34775,-0.749625 -0.9,-0.749625 H 5.7613606 c -0.55225,0 -0.9,0.335438 -0.9,0.749625 v 0.750023 c 0,0.414188 0.34775,0.649844 0.9,0.649844 h 1.799664 c 0.276375,0 0.50025,0.167719 0.50025,0.375 0,0.206907 -0.223875,0.475531 -0.50025,0.475531 h -1.899664 c -1.1045,0 -1.600086,-0.672 -1.600086,-1.500375 V 7.2 c 0,-0.828375 0.495586,-1.5 1.600086,-1.5 H 16.461361 c 1.1045,0 1.599914,0.671625 1.599914,1.5 z m -5.5,3.375047 c 0,-0.206906 0.223625,-0.375 0.5,-0.375 0.275875,0 0.5,0.168094 0.5,0.375 0,0.207281 -0.224125,0.375 -0.5,0.375 -0.276375,0 -0.5,-0.167719 -0.5,-0.375 z"
       id="path2"
       style="fill:currentColor;stroke-width:0.0270633"
       sodipodi:nodetypes="sssscccsssscccssccsssscccsssssssssssssssssssssss"
       class="ColorScheme-Text" />
  </g>
  <g
     id="hover-center"
     transform="translate(22)">
    <rect
       style="opacity:0.00100002;fill:#000000;fill-opacity:1;fill-rule:nonzero;stroke:none;stroke-width:2;stroke-linecap:round;stroke-linejoin:round;stroke-miterlimit:4;stroke-dasharray:none;stroke-opacity:1"
       y="-22"
       x="0"
       height="22"
       width="22"
       id="rect4266-6"
       transform="scale(-1)" />
    <path
       fill-rule="evenodd"
       clip-rule="evenodd"
       d="m -3.938725,7.2 v 0.750023 c 0,0.828375 -0.595414,1.500375 -1.699914,1.500375 h -5.300336 c -0.255625,0 -0.511969,0.07287 -0.707031,0.219352 -0.04541,0.03406 -0.08178,0.07214 -0.116469,0.110602 l -5.110094,6.231585 c -0.0415,0.07819 -0.36607,0.463399 -0.36607,0.55293 0,0.378844 0.508875,0.385485 1.014,0.385485 h 10.371347 c 0.505126,0 1.214653,-0.0066 1.214653,-0.385485 0,-0.09759 -0.32818,-0.490304 -0.377,-0.574 l -2.965,-3.640003 v 0 c -0.03759,-0.05255 -0.06857,-0.08515 -0.08263,-0.147878 -0.04756,-0.212119 0.04763,-0.464853 0.32163,-0.502831 0.179905,-0.02494 0.438651,0.07305 0.526776,0.182016 l 3.051281,3.717281 c 0.309848,0.391415 0.520405,0.814869 0.424943,1.168415 C -3.981116,17.665889 -4.794194,17.7 -5.849381,17.7 h -10.279348 c -0.88691,0 -1.88691,-0.01158 -2.00991,-0.932133 -0.06001,-0.449111 0.123,-0.777 0.424,-1.168 l 5.127476,-6.245422 c 0.06838,-0.07545 0.14525,-0.147937 0.234375,-0.214969 0.390125,-0.292593 0.901844,-0.539609 1.413813,-0.539609 h 5.300336 c 0.55225,0 0.9,-0.235656 0.9,-0.649844 V 7.2 c 0,-0.414187 -0.34775,-0.749625 -0.9,-0.749625 h -10.6 c -0.55225,0 -0.9,0.335438 -0.9,0.749625 v 0.750023 c 0,0.414188 0.34775,0.649844 0.9,0.649844 h 1.799664 c 0.276375,0 0.50025,0.167719 0.50025,0.375 0,0.206907 -0.223875,0.475531 -0.50025,0.475531 h -1.899664 c -1.1045,0 -1.600086,-0.672 -1.600086,-1.500375 V 7.2 c 0,-0.828375 0.495586,-1.5 1.600086,-1.5 h 10.8 c 1.1045,0 1.599914,0.671625 1.599914,1.5 z m -5.5,3.375047 c 0,-0.206906 0.223625,-0.375 0.5,-0.375 0.275875,0 0.5,0.168094 0.5,0.375 0,0.207281 -0.224125,0.375 -0.5,0.375 -0.276375,0 -0.5,-0.167719 -0.5,-0.375 z"
       id="path2-3"
       style="fill:#00cfff;fill-opacity:1;stroke-width:0.0270633;enable-background:new"
       sodipodi:nodetypes="sssscccsssscccssccsssscccsssssssssssssssssssssss" />
  </g>
  <g
     id="pressed-center"
     transform="translate(22)">
    <rect
       transform="scale(-1)"
       style="opacity:0.00100002;fill:#000000;fill-opacity:1;fill-rule:nonzero;stroke:none;stroke-width:2;stroke-linecap:round;stroke-linejoin:round;stroke-miterlimit:4;stroke-dasharray:none;stroke-opacity:1"
       y="-22"
       x="-22"
       height="22"
       width="22"
       id="rect4266-06" />
    <path
       fill-rule="evenodd"
       clip-rule="evenodd"
       d="m 4.0732743,15.9 v -0.750023 c 0,-0.828375 0.595414,-1.500375 1.699914,-1.500375 h 5.3003357 c 0.255625,0 0.511969,-0.07287 0.707031,-0.219352 0.04541,-0.03406 0.08178,-0.07214 0.116469,-0.110602 l 5.110095,-6.231585 c 0.0415,-0.07819 0.36607,-0.463399 0.36607,-0.55293 0,-0.378844 -0.508875,-0.385485 -1.014,-0.385485 H 5.9878413 c -0.505126,0 -1.214653,0.0066 -1.214653,0.385485 0,0.09759 0.32818,0.490304 0.377,0.574 l 2.965,3.640003 v 0 c 0.03759,0.05255 0.06857,0.08515 0.08263,0.147878 0.04756,0.212119 -0.04763,0.464853 -0.32163,0.502831 -0.179905,0.02494 -0.438651,-0.07305 -0.526776,-0.182016 L 4.2981313,7.500548 C 3.9882833,7.109133 3.7777263,6.685679 3.8731883,6.332133 4.1156653,5.434111 4.9287433,5.4 5.9839303,5.4 H 16.263279 c 0.88691,0 1.88691,0.01158 2.00991,0.932133 0.06001,0.449111 -0.123,0.777 -0.424,1.168 l -5.127477,6.245422 c -0.06838,0.07545 -0.14525,0.147937 -0.234375,0.214969 -0.390125,0.292593 -0.901844,0.539609 -1.413813,0.539609 H 5.7731883 c -0.55225,0 -0.9,0.235656 -0.9,0.649844 V 15.9 c 0,0.414187 0.34775,0.749625 0.9,0.749625 H 16.373189 c 0.55225,0 0.9,-0.335438 0.9,-0.749625 v -0.750023 c 0,-0.414188 -0.34775,-0.649844 -0.9,-0.649844 h -1.799664 c -0.276375,0 -0.50025,-0.167719 -0.50025,-0.375 0,-0.206907 0.223875,-0.475531 0.50025,-0.475531 h 1.899664 c 1.1045,0 1.600086,0.672 1.600086,1.500375 V 15.9 c 0,0.828375 -0.495586,1.5 -1.600086,1.5 H 5.6731883 c -1.1045,0 -1.599914,-0.671625 -1.599914,-1.5 z M 9.573274,12.524953 c 0,0.206906 -0.223625,0.375 -0.4999997,0.375 -0.275875,0 -0.5,-0.168094 -0.5,-0.375 0,-0.207281 0.224125,-0.375 0.5,-0.375 0.2763747,0 0.4999997,0.167719 0.4999997,0.375 z"
       id="path2-3-6-3"
       style="fill:#33d9ff;fill-opacity:1;stroke-width:0.0270633;enable-background:new"
       sodipodi:nodetypes="sssscccsssscccssccsssscccsssssssssssssssssssssss" />
  </g>
  <g
     id="inactive-center"
     transform="translate(-22,22)">
    <rect
       style="opacity:0.00100002;fill:#000000;fill-opacity:1;fill-rule:nonzero;stroke:none;stroke-width:2;stroke-linecap:round;stroke-linejoin:round;stroke-miterlimit:4;stroke-dasharray:none;stroke-opacity:1"
       y="-22"
       x="-22"
       height="22"
       width="22"
       id="rect4266-9"
       transform="scale(-1)" />
    <path
       fill-rule="evenodd"
       clip-rule="evenodd"
       d="m 18.061275,7.2 v 0.750023 c 0,0.828375 -0.595414,1.500375 -1.699914,1.500375 h -5.300336 c -0.255625,0 -0.511969,0.07287 -0.707031,0.219352 -0.04541,0.03406 -0.08178,0.07214 -0.116469,0.110602 l -5.1100938,6.231585 c -0.0415,0.07819 -0.36607,0.463399 -0.36607,0.55293 0,0.378844 0.508875,0.385485 1.014,0.385485 H 16.146708 c 0.505126,0 1.214653,-0.0066 1.214653,-0.385485 0,-0.09759 -0.32818,-0.490304 -0.377,-0.574 l -2.965,-3.640003 v 0 c -0.03759,-0.05255 -0.06857,-0.08515 -0.08263,-0.147878 -0.04756,-0.212119 0.04763,-0.464853 0.32163,-0.502831 0.179905,-0.02494 0.438651,0.07305 0.526776,0.182016 l 3.051281,3.717281 c 0.309848,0.391415 0.520405,0.814869 0.424943,1.168415 C 18.018884,17.665889 17.205806,17.7 16.150619,17.7 H 5.8712712 c -0.88691,0 -1.88691,-0.01158 -2.00991,-0.932133 -0.06001,-0.449111 0.123,-0.777 0.424,-1.168 l 5.127476,-6.245422 c 0.06838,-0.07545 0.14525,-0.147937 0.234375,-0.214969 C 10.037337,8.846883 10.549056,8.599867 11.061025,8.599867 h 5.300336 c 0.55225,0 0.9,-0.235656 0.9,-0.649844 V 7.2 c 0,-0.414187 -0.34775,-0.749625 -0.9,-0.749625 H 5.7613612 c -0.55225,0 -0.9,0.335438 -0.9,0.749625 v 0.750023 c 0,0.414188 0.34775,0.649844 0.9,0.649844 h 1.799664 c 0.276375,0 0.50025,0.167719 0.50025,0.375 0,0.206907 -0.223875,0.475531 -0.50025,0.475531 h -1.899664 c -1.1045,0 -1.600086,-0.672 -1.600086,-1.500375 V 7.2 c 0,-0.828375 0.495586,-1.5 1.600086,-1.5 H 16.461361 c 1.1045,0 1.599914,0.671625 1.599914,1.5 z m -5.5,3.375047 c 0,-0.206906 0.223625,-0.375 0.5,-0.375 0.275875,0 0.5,0.168094 0.5,0.375 0,0.207281 -0.224125,0.375 -0.5,0.375 -0.276375,0 -0.5,-0.167719 -0.5,-0.375 z"
       id="path2-36"
       style="fill:currentColor;fill-opacity:0.5;stroke-width:0.0270633;enable-background:new"
       sodipodi:nodetypes="sssscccsssscccssccsssscccsssssssssssssssssssssss"
       class="ColorScheme-Text" />
  </g>
  <g
     id="hover-inactive-center"
     transform="translate(0,22)">
    <rect
       transform="scale(-1)"
       id="rect4266-6-6"
       width="22"
       height="22"
       x="-22"
       y="-22"
       style="opacity:0.00100002;fill:#000000;fill-opacity:1;fill-rule:nonzero;stroke:none;stroke-width:2;stroke-linecap:round;stroke-linejoin:round;stroke-miterlimit:4;stroke-dasharray:none;stroke-opacity:1" />
    <path
       fill-rule="evenodd"
       clip-rule="evenodd"
       d="m 18.061275,7.2 v 0.750023 c 0,0.828375 -0.595414,1.500375 -1.699914,1.500375 h -5.300336 c -0.255625,0 -0.511969,0.07287 -0.707031,0.219352 -0.04541,0.03406 -0.08178,0.07214 -0.116469,0.110602 l -5.1100938,6.231585 c -0.0415,0.07819 -0.36607,0.463399 -0.36607,0.55293 0,0.378844 0.508875,0.385485 1.014,0.385485 H 16.146708 c 0.505126,0 1.214653,-0.0066 1.214653,-0.385485 0,-0.09759 -0.32818,-0.490304 -0.377,-0.574 l -2.965,-3.640003 v 0 c -0.03759,-0.05255 -0.06857,-0.08515 -0.08263,-0.147878 -0.04756,-0.212119 0.04763,-0.464853 0.32163,-0.502831 0.179905,-0.02494 0.438651,0.07305 0.526776,0.182016 l 3.051281,3.717281 c 0.309848,0.391415 0.520405,0.814869 0.424943,1.168415 C 18.018884,17.665889 17.205806,17.7 16.150619,17.7 H 5.8712712 c -0.88691,0 -1.88691,-0.01158 -2.00991,-0.932133 -0.06001,-0.449111 0.123,-0.777 0.424,-1.168 l 5.127476,-6.245422 c 0.06838,-0.07545 0.14525,-0.147937 0.234375,-0.214969 C 10.037337,8.846883 10.549056,8.599867 11.061025,8.599867 h 5.300336 c 0.55225,0 0.9,-0.235656 0.9,-0.649844 V 7.2 c 0,-0.414187 -0.34775,-0.749625 -0.9,-0.749625 H 5.7613612 c -0.55225,0 -0.9,0.335438 -0.9,0.749625 v 0.750023 c 0,0.414188 0.34775,0.649844 0.9,0.649844 h 1.799664 c 0.276375,0 0.50025,0.167719 0.50025,0.375 0,0.206907 -0.223875,0.475531 -0.50025,0.475531 h -1.899664 c -1.1045,0 -1.600086,-0.672 -1.600086,-1.500375 V 7.2 c 0,-0.828375 0.495586,-1.5 1.600086,-1.5 H 16.461361 c 1.1045,0 1.599914,0.671625 1.599914,1.5 z m -5.5,3.375047 c 0,-0.206906 0.223625,-0.375 0.5,-0.375 0.275875,0 0.5,0.168094 0.5,0.375 0,0.207281 -0.224125,0.375 -0.5,0.375 -0.276375,0 -0.5,-0.167719 -0.5,-0.375 z"
       id="path2-3-7"
       style="fill:#00cfff;fill-opacity:0.7;stroke-width:0.0270633;enable-background:new"
       sodipodi:nodetypes="sssscccsssscccssccsssscccsssssssssssssssssssssss" />
  </g>
  <g
     id="pressed-inactive-center"
     transform="translate(22,22)">
    <rect
       id="rect4266-06-3"
       width="22"
       height="22"
       x="-22"
       y="-22"
       style="opacity:0.00100002;fill:#000000;fill-opacity:1;fill-rule:nonzero;stroke:none;stroke-width:2;stroke-linecap:round;stroke-linejoin:round;stroke-miterlimit:4;stroke-dasharray:none;stroke-opacity:1"
       transform="scale(-1)" />
    <path
       fill-rule="evenodd"
       clip-rule="evenodd"
       d="m 4.0732743,16.2 v -0.750023 c 0,-0.828375 0.595414,-1.500375 1.6999137,-1.500375 h 5.300336 c 0.255625,0 0.511969,-0.07287 0.707031,-0.219352 0.04541,-0.03406 0.08178,-0.07214 0.116469,-0.110602 l 5.110095,-6.231585 c 0.0415,-0.07819 0.36607,-0.463399 0.36607,-0.55293 0,-0.378844 -0.508875,-0.385485 -1.014,-0.385485 H 5.987841 c -0.505126,0 -1.2146527,0.0066 -1.2146527,0.385485 0,0.09759 0.3281797,0.490304 0.3769997,0.574 l 2.965,3.640003 v 0 c 0.03759,0.05255 0.06857,0.08515 0.08263,0.147878 0.04756,0.212119 -0.04763,0.464853 -0.32163,0.502831 -0.179905,0.02494 -0.438651,-0.07305 -0.526776,-0.182016 L 4.2981313,7.800548 C 3.9882833,7.409133 3.7777263,6.985679 3.8731883,6.632133 4.1156653,5.734111 4.9287433,5.7 5.98393,5.7 h 10.279349 c 0.88691,0 1.88691,0.01158 2.00991,0.932133 0.06001,0.449111 -0.123,0.777 -0.424,1.168 l -5.127477,6.245422 c -0.06838,0.07545 -0.14525,0.147937 -0.234375,0.214969 -0.390125,0.292593 -0.901844,0.539609 -1.413813,0.539609 H 5.773188 c -0.55225,0 -0.8999997,0.235656 -0.8999997,0.649844 V 16.2 c 0,0.414187 0.3477497,0.749625 0.8999997,0.749625 h 10.600001 c 0.55225,0 0.9,-0.335438 0.9,-0.749625 v -0.750023 c 0,-0.414188 -0.34775,-0.649844 -0.9,-0.649844 h -1.799664 c -0.276375,0 -0.50025,-0.167719 -0.50025,-0.375 0,-0.206907 0.223875,-0.475531 0.50025,-0.475531 h 1.899664 c 1.1045,0 1.600086,0.672 1.600086,1.500375 V 16.2 c 0,0.828375 -0.495586,1.5 -1.600086,1.5 H 5.673188 C 4.5686883,17.7 4.0732743,17.028375 4.0732743,16.2 Z M 9.573274,12.824953 c 0,0.206906 -0.223625,0.375 -0.5,0.375 -0.275875,0 -0.5,-0.168094 -0.5,-0.375 0,-0.207281 0.224125,-0.375 0.5,-0.375 0.276375,0 0.5,0.167719 0.5,0.375 z"
       id="path2-3-6-3-5"
       style="fill:#33d9ff;fill-opacity:0.7;stroke-width:0.0270633;enable-background:new"
       sodipodi:nodetypes="sssscccsssscccssccsssscccsssssssssssssssssssssss" />
  </g>
  <g
     id="deactivated-center"
     transform="translate(44)">
    <rect
       style="opacity:0.00100002;fill:#000000;fill-opacity:1;fill-rule:nonzero;stroke:none;stroke-width:2;stroke-linecap:round;stroke-linejoin:round;stroke-miterlimit:4;stroke-dasharray:none;stroke-opacity:1"
       y="-22"
       x="-22"
       height="22"
       width="22"
       id="rect4266-0"
       transform="scale(-1)" />
    <path
       fill-rule="evenodd"
       clip-rule="evenodd"
       d="m 18.061275,7.2 v 0.750023 c 0,0.828375 -0.595414,1.500375 -1.699914,1.500375 h -5.300336 c -0.255625,0 -0.511969,0.07287 -0.707031,0.219352 -0.04541,0.03406 -0.08178,0.07214 -0.116469,0.110602 l -5.1100938,6.231585 c -0.0415,0.07819 -0.36607,0.463399 -0.36607,0.55293 0,0.378844 0.508875,0.385485 1.014,0.385485 H 16.146708 c 0.505126,0 1.214653,-0.0066 1.214653,-0.385485 0,-0.09759 -0.32818,-0.490304 -0.377,-0.574 l -2.965,-3.640003 v 0 c -0.03759,-0.05255 -0.06857,-0.08515 -0.08263,-0.147878 -0.04756,-0.212119 0.04763,-0.464853 0.32163,-0.502831 0.179905,-0.02494 0.438651,0.07305 0.526776,0.182016 l 3.051281,3.717281 c 0.309848,0.391415 0.520405,0.814869 0.424943,1.168415 C 18.018884,17.665889 17.205806,17.7 16.150619,17.7 H 5.8712712 c -0.88691,0 -1.88691,-0.01158 -2.00991,-0.932133 -0.06001,-0.449111 0.123,-0.777 0.424,-1.168 L 9.412837,9.354445 c 0.06838,-0.07545 0.14525,-0.147937 0.234375,-0.214969 0.390125,-0.292593 0.901844,-0.539609 1.413813,-0.539609 h 5.300336 c 0.55225,0 0.9,-0.235656 0.9,-0.649844 V 7.2 c 0,-0.414187 -0.34775,-0.749625 -0.9,-0.749625 H 5.7613612 c -0.55225,0 -0.9,0.335438 -0.9,0.749625 v 0.750023 c 0,0.414188 0.34775,0.649844 0.9,0.649844 h 1.799664 c 0.276375,0 0.5002498,0.167719 0.5002498,0.375 0,0.206907 -0.2238748,0.475531 -0.5002498,0.475531 h -1.899664 c -1.1045,0 -1.600086,-0.672 -1.600086,-1.500375 V 7.2 c 0,-0.828375 0.495586,-1.5 1.600086,-1.5 H 16.461361 c 1.1045,0 1.599914,0.671625 1.599914,1.5 z m -5.5,3.375047 c 0,-0.206906 0.223625,-0.375 0.5,-0.375 0.275875,0 0.5,0.168094 0.5,0.375 0,0.207281 -0.224125,0.375 -0.5,0.375 -0.276375,0 -0.5,-0.167719 -0.5,-0.375 z"
       id="path2-36-3"
       style="fill:currentColor;fill-opacity:0.5;stroke-width:0.0270633;enable-background:new"
       sodipodi:nodetypes="sssscccsssscccssccsssscccsssssssssssssssssssssss"
       class="ColorScheme-Text" />
  </g>
  <g
     id="deactivated-inactive-center"
     transform="translate(44,22)">
    <rect
       id="rect4266-0-2"
       width="22"
       height="22"
       x="-22"
       y="-22"
       style="opacity:0.00100002;fill:#000000;fill-opacity:1;fill-rule:nonzero;stroke:none;stroke-width:2;stroke-linecap:round;stroke-linejoin:round;stroke-miterlimit:4;stroke-dasharray:none;stroke-opacity:1"
       transform="scale(-1)" />
    <path
       fill-rule="evenodd"
       clip-rule="evenodd"
       d="m 18.061275,7.2 v 0.750023 c 0,0.828375 -0.595414,1.500375 -1.699914,1.500375 h -5.300336 c -0.255625,0 -0.511969,0.07287 -0.707031,0.219352 -0.04541,0.03406 -0.08178,0.07214 -0.116469,0.110602 l -5.1100938,6.231585 c -0.0415,0.07819 -0.36607,0.463399 -0.36607,0.55293 0,0.378844 0.508875,0.385485 1.014,0.385485 H 16.146708 c 0.505126,0 1.214653,-0.0066 1.214653,-0.385485 0,-0.09759 -0.32818,-0.490304 -0.377,-0.574 l -2.965,-3.640003 v 0 c -0.03759,-0.05255 -0.06857,-0.08515 -0.08263,-0.147878 -0.04756,-0.212119 0.04763,-0.464853 0.32163,-0.502831 0.179905,-0.02494 0.438651,0.07305 0.526776,0.182016 l 3.051281,3.717281 c 0.309848,0.391415 0.520405,0.814869 0.424943,1.168415 C 18.018884,17.665889 17.205806,17.7 16.150619,17.7 H 5.8712712 c -0.88691,0 -1.88691,-0.01158 -2.00991,-0.932133 -0.06001,-0.449111 0.123,-0.777 0.424,-1.168 l 5.127476,-6.245422 c 0.06838,-0.07545 0.14525,-0.147937 0.234375,-0.214969 C 10.037337,8.846883 10.549056,8.599867 11.061025,8.599867 h 5.300336 c 0.55225,0 0.9,-0.235656 0.9,-0.649844 V 7.2 c 0,-0.414187 -0.34775,-0.749625 -0.9,-0.749625 H 5.7613612 c -0.55225,0 -0.9,0.335438 -0.9,0.749625 v 0.750023 c 0,0.414188 0.34775,0.649844 0.9,0.649844 h 1.799664 c 0.276375,0 0.50025,0.167719 0.50025,0.375 0,0.206907 -0.223875,0.475531 -0.50025,0.475531 h -1.899664 c -1.1045,0 -1.600086,-0.672 -1.600086,-1.500375 V 7.2 c 0,-0.828375 0.495586,-1.5 1.600086,-1.5 H 16.461361 c 1.1045,0 1.599914,0.671625 1.599914,1.5 z m -5.5,3.375047 c 0,-0.206906 0.223625,-0.375 0.5,-0.375 0.275875,0 0.5,0.168094 0.5,0.375 0,0.207281 -0.224125,0.375 -0.5,0.375 -0.276375,0 -0.5,-0.167719 -0.5,-0.375 z"
       id="path2-36-3-5"
       style="fill:currentColor;fill-opacity:0.3;stroke-width:0.0270633;enable-background:new"
       sodipodi:nodetypes="sssscccsssscccssccsssscccsssssssssssssssssssssss"
       class="ColorScheme-Text" />
  </g>
</svg>
