<?xml version="1.0" encoding="UTF-8" standalone="no"?>
<svg
   width="124.00004"
   height="51.999859"
   viewBox="0 0 32.808341 13.758296"
   id="svg2"
   version="1.1"
   inkscape:version="1.2.1 (9c6d41e410, 2022-07-14)"
   sodipodi:docname="configuration-icons.svg"
   xmlns:inkscape="http://www.inkscape.org/namespaces/inkscape"
   xmlns:sodipodi="http://sodipodi.sourceforge.net/DTD/sodipodi-0.dtd"
   xmlns="http://www.w3.org/2000/svg"
   xmlns:svg="http://www.w3.org/2000/svg"
   xmlns:rdf="http://www.w3.org/1999/02/22-rdf-syntax-ns#"
   xmlns:cc="http://creativecommons.org/ns#"
   xmlns:dc="http://purl.org/dc/elements/1.1/">
  <style
     id="current-color-scheme"
     type="text/css">.ColorScheme-Text { color:#eceff4; }
</style>
  <defs
     id="defs4">
    <style
       type="text/css"
       id="style3" />
    <inkscape:perspective
       id="perspective4146"
       inkscape:persp3d-origin="11.999999 : 7.9999625 : 1"
       inkscape:vp_z="23.999998 : 11.999962 : 1"
       inkscape:vp_y="0 : 999.99997 : 0"
       inkscape:vp_x="0 : 11.999962 : 1"
       sodipodi:type="inkscape:persp3d" />
    <inkscape:perspective
       id="perspective4090"
       inkscape:persp3d-origin="11.999999 : 7.9999625 : 1"
       inkscape:vp_z="23.999998 : 11.999962 : 1"
       inkscape:vp_y="0 : 999.99997 : 0"
       inkscape:vp_x="0 : 11.999962 : 1"
       sodipodi:type="inkscape:persp3d" />
  </defs>
  <sodipodi:namedview
     id="base"
     pagecolor="#ffffff"
     bordercolor="#000000"
     borderopacity="1"
     inkscape:pageopacity="0"
     inkscape:pageshadow="2"
     inkscape:zoom="4"
     inkscape:cx="76.000001"
     inkscape:cy="49.25"
     inkscape:document-units="px"
     inkscape:current-layer="layer1"
     showgrid="false"
     units="px"
     inkscape:showpageshadow="true"
     borderlayer="false"
     inkscape:window-width="1920"
     inkscape:window-height="1002"
     inkscape:window-x="0"
     inkscape:window-y="0"
     inkscape:window-maximized="1"
     fit-margin-top="0"
     fit-margin-left="0"
     fit-margin-right="0"
     fit-margin-bottom="0"
     showguides="false"
     inkscape:lockguides="false"
     inkscape:document-rotation="0"
     inkscape:pagecheckerboard="0"
     inkscape:deskcolor="#cccccc">
    <sodipodi:guide
       position="1.0117348e-06,13.7583"
       orientation="16.000015,0"
       id="guide4136"
       inkscape:locked="false" />
    <sodipodi:guide
       position="1.0117348e-06,9.524962"
       orientation="0,16"
       id="guide4138"
       inkscape:locked="false" />
    <sodipodi:guide
       position="4.2333342,9.524962"
       orientation="-16.000015,0"
       id="guide4140"
       inkscape:locked="false" />
    <sodipodi:guide
       position="4.2333342,13.7583"
       orientation="0,-16"
       id="guide4142"
       inkscape:locked="false" />
    <inkscape:grid
       type="xygrid"
       id="grid366" />
  </sodipodi:namedview>
  <metadata
     id="metadata7">
    <rdf:RDF>
      <cc:Work
         rdf:about="">
        <dc:format>image/svg+xml</dc:format>
        <dc:type
           rdf:resource="http://purl.org/dc/dcmitype/StillImage" />
      </cc:Work>
    </rdf:RDF>
  </metadata>
  <g
     inkscape:label="Capa 1"
     inkscape:groupmode="layer"
     id="layer1"
     transform="translate(0.52916771,-249.37497)">
    <g
       id="configure">
      <rect
         style="fill:none;fill-opacity:1;stroke:none"
         id="rect4156"
         width="4.2333336"
         height="4.2333322"
         x="4.2333336"
         y="249.37497" />
      <rect
         y="249.90414"
         x="4.7625003"
         height="3.1749992"
         width="3.1750002"
         id="rect4158"
         style="fill:none;fill-opacity:1;stroke:none" />
      <path
         fill-rule="evenodd"
         clip-rule="evenodd"
         d="m 7.9847538,250.96766 c 0.00189,0 0.00357,-0.001 0.00573,-0.001 0.2670923,0.0271 0.4761838,0.25175 0.4761838,0.52598 0,0.27474 -0.2093477,0.50054 -0.4774818,0.52653 -3.879e-4,0.001 -0.00127,0.002 -0.00166,0.003 -0.00189,-1.2e-4 -0.00345,-10e-4 -0.00573,-10e-4 -0.067417,0 -0.1425422,0.0125 -0.1704469,0.0795 -0.027903,0.0671 0.011632,0.12643 0.063301,0.17796 0.00179,0.002 0.00427,0.002 0.00617,0.004 0.1689666,0.20772 0.1594007,0.51231 -0.034238,0.70593 -0.1934572,0.19352 -0.4983424,0.20334 -0.7061444,0.0341 -0.00311,0.002 -0.00645,0.002 -0.00956,0.004 -0.00139,-0.002 -0.00189,-0.003 -0.00345,-0.005 -0.047865,-0.0477 -0.1091619,-0.0928 -0.1766644,-0.0642 -0.067619,0.0284 -0.081052,0.0972 -0.081052,0.17049 0,0.006 0.00179,0.013 0.00385,0.0182 -0.033263,0.26041 -0.2541119,0.46215 -0.523668,0.46215 -0.2743926,0 -0.4998881,-0.20884 -0.5265693,-0.47623 -0.00295,-0.001 -0.00535,-0.002 -0.00835,-0.004 1.324e-4,-0.001 7.067e-4,-0.002 7.067e-4,-0.003 0,-0.067 -0.011952,-0.14236 -0.079391,-0.17021 -0.067503,-0.0286 -0.126477,0.0122 -0.178078,0.0634 -0.00311,0.003 -0.00466,0.006 -0.00679,0.009 -0.2075452,0.16248 -0.5071306,0.15125 -0.698066,-0.0397 -0.1939111,-0.19387 -0.2034108,-0.49913 -0.03365,-0.70696 -0.00179,-0.003 -0.00283,-0.007 -0.00439,-0.012 0.047678,-0.0477 0.092171,-0.10915 0.064207,-0.17643 -0.028039,-0.067 -0.097663,-0.081 -0.170719,-0.081 -0.00478,0 -0.00907,0.002 -0.013502,0.002 -0.260246,-0.0329 -0.4619709,-0.25431 -0.4619709,-0.52353 0,-0.27538 0.2103233,-0.50123 0.4791516,-0.52651 7.738e-4,-0.002 0.00212,-0.004 0.00323,-0.006 0.066464,-5.8e-4 0.1391352,-0.0134 0.1665272,-0.0794 0.027903,-0.0669 -0.011359,-0.12591 -0.062911,-0.17745 -0.1693057,-0.20758 -0.1598058,-0.51252 0.033972,-0.70627 0.1944816,-0.19463 0.5016325,-0.20356 0.7094345,-0.0318 0.00212,-0.001 0.00449,-0.001 0.00667,-0.002 0.047281,0.0468 0.1074846,0.0891 0.1735637,0.0618 0.067501,-0.0285 0.081068,-0.0974 0.081068,-0.17059 0,-3e-4 -1.325e-4,-4.4e-4 -1.325e-4,-6.8e-4 0.026797,-0.26716 0.2517134,-0.47577 0.5259738,-0.47577 0.2758816,0 0.5020298,0.21094 0.5267019,0.48027 5.819e-4,1.7e-4 9.001e-4,5.7e-4 0.00145,5.8e-4 0,0.0158 8.469e-4,0.0321 0.00289,0.048 h -0.00184 c 0,0.0739 -0.059168,0.13238 -0.132289,0.13238 -0.072926,0 -0.1321571,-0.0599 -0.1321571,-0.13238 0,-0.14608 -0.1185313,-0.26443 -0.2646448,-0.26443 -0.1461801,0 -0.2645786,0.11835 -0.2645786,0.26443 v 0.13238 l -8.463e-4,0.001 c 0.00229,0.0868 -0.053224,0.16908 -0.1410041,0.19516 -0.00207,6.7e-4 -0.00444,6.7e-4 -0.00645,0.001 l -0.00156,0.002 c -0.061886,0.0202 -0.1219591,0.0459 -0.1795796,0.0754 l -0.00374,-5.6e-4 c -0.00218,0.001 -0.00417,0.003 -0.00634,0.004 -0.085588,0.0465 -0.1899679,0.0224 -0.2487454,-0.05 l -0.082492,-0.0821 c -0.1034175,-0.10304 -0.2709695,-0.10304 -0.3741964,0 -0.1032754,0.10281 -0.1032754,0.27084 0,0.37407 l 0.093527,0.0939 5.819e-4,0.004 c 0.061882,0.0609 0.079715,0.15603 0.036499,0.23585 -7.063e-4,0.001 -0.00166,0.002 -0.0023,0.003 l 7.067e-4,0.004 c -0.028806,0.0585 -0.053996,0.11774 -0.074668,0.17972 l -0.00411,0.003 c -6.527e-4,0.002 -7.731e-4,0.004 -0.00145,0.006 -0.028096,0.0946 -0.1202677,0.15152 -0.214706,0.13975 H 4.7625097 c -0.1461796,0 -0.2646364,0.11852 -0.2646364,0.26456 0,0.14599 0.1184568,0.26454 0.2646364,0.26454 h 0.1321604 l 0.00385,0.002 c 0.085588,-1.1e-4 0.1648407,0.0539 0.1905464,0.14093 2.47e-4,6.5e-4 2.47e-4,10e-4 3.884e-4,0.002 l 0.0049,0.003 c 0.020799,0.0621 0.045734,0.12195 0.074803,0.17954 l -0.00122,0.007 c 9.004e-4,0.001 0.00195,0.002 0.00289,0.003 0.046312,0.0848 0.023125,0.18988 -0.050255,0.24868 l -0.080342,0.0804 c -0.1032751,0.10303 -0.1032751,0.27073 0,0.37407 0.1032192,0.10282 0.2707798,0.10282 0.3741969,0 l 0.093594,-0.0938 0.00379,-6.7e-4 c 0.060326,-0.0607 0.1548858,-0.0775 0.2337552,-0.0341 5.819e-4,2.7e-4 8.464e-4,6.7e-4 0.00145,0.001 l 0.00846,-0.001 c 0.057682,0.0292 0.1177541,0.0532 0.1797645,0.0753 l 0.00524,0.006 c 8.466e-4,2.4e-4 0.00184,2.4e-4 0.00277,6.3e-4 0.086428,0.0264 0.1412604,0.10567 0.141004,0.19105 l 8.465e-4,0.001 v 0.13238 c 0,0.14609 0.1183994,0.26455 0.264579,0.26455 0.1461133,0 0.2646446,-0.11846 0.2646446,-0.26455 v -0.13239 l 8.465e-4,-10e-4 c -2.643e-4,-0.0852 0.054587,-0.16537 0.1410124,-0.19107 9.735e-4,-3.7e-4 0.00179,-3.7e-4 0.00283,-6.2e-4 l 0.00518,-0.006 c 0.061882,-0.0202 0.1218882,-0.0459 0.1795589,-0.0754 l 0.00863,0.001 c 5.114e-4,-2.6e-4 8.467e-4,-6.6e-4 0.00139,-0.001 0.078867,-0.0433 0.1734392,-0.0265 0.2337632,0.0341 l 0.00385,6.9e-4 0.093593,0.0938 c 0.1032202,0.10293 0.2707798,0.10293 0.374197,0 0.1032855,-0.10337 0.1032855,-0.27087 0,-0.37405 l -0.080424,-0.0804 c -0.073378,-0.0594 -0.09651,-0.16315 -0.050184,-0.24866 8.466e-4,-0.001 0.00189,-0.002 0.00283,-0.003 l -0.00133,-0.008 c 0.028805,-0.0584 0.054201,-0.11689 0.07467,-0.17862 l 0.00512,-0.004 c 1.939e-4,-6.8e-4 3.177e-4,-0.001 4.584e-4,-0.002 0.025649,-0.0854 0.1048395,-0.14094 0.1904224,-0.14094 l 0.00379,-0.002 h 0.1323955 c 0.1461797,0 0.2645783,-0.11859 0.2645783,-0.26458 0,-0.14603 -0.1183986,-0.26451 -0.2645783,-0.26451 H 7.8252607 c -0.09457,0.0123 -0.1866102,-0.0457 -0.2146472,-0.13979 -7.066e-4,-0.002 -8.469e-4,-0.004 -0.00145,-0.006 l -0.00385,-0.002 c -0.020744,-0.0621 -0.045745,-0.12196 -0.074741,-0.17943 l 7.068e-4,-0.004 c -7.068e-4,-0.001 -0.00166,-0.002 -0.00229,-0.003 -0.04322,-0.0798 -0.025384,-0.17543 0.036426,-0.23585 l 5.824e-4,-0.004 0.093594,-0.0939 c 0.1032824,-0.10293 0.1032824,-0.27075 0,-0.37406 -0.049097,-0.0488 -0.1209206,-0.0773 -0.1851886,-0.0795 -0.073123,0 -0.1323554,-0.0598 -0.1323554,-0.13227 0,-0.074 0.059231,-0.13231 0.1323554,-0.13231 0.0095,0 0.018674,7.4e-4 0.027649,0.002 0.1244097,0.007 0.249853,0.0599 0.3445475,0.15407 0.1943498,0.19427 0.2035848,0.50062 0.032557,0.70843 7.071e-4,0.001 8.468e-4,0.002 0.00156,0.003 -7.064e-4,5.9e-4 -0.00145,6.6e-4 -0.00201,0.001 -0.047728,0.0478 -0.092373,0.10928 -0.064399,0.17677 0.027881,0.067 0.09757,0.0809 0.1705538,0.0809 z m -0.9072152,-0.66571 c -0.073122,0 -0.1322892,-0.0598 -0.1322892,-0.13234 0,-0.0735 0.05917,-0.13213 0.1322892,-0.13213 0.072925,0 0.1321572,0.0598 0.1321572,0.13213 0,0.0739 -0.059232,0.13234 -0.1321572,0.13234 z m -1.1906447,1.52109 c 0.073121,0 0.1323552,0.0598 0.1323552,0.1323 0,0.074 -0.059231,0.13223 -0.1323552,0.13223 -0.073057,0 -0.1322897,-0.0597 -0.1322897,-0.13223 0,-0.074 0.059231,-0.1323 0.1322897,-0.1323 z m -0.3306488,-0.33066 c 0,-0.43832 0.3553865,-0.79365 0.7936525,-0.79365 0.4383408,0 0.7937195,0.35533 0.7937195,0.79365 0,0.43823 -0.3553787,0.79358 -0.7937195,0.79358 -0.073057,0 -0.1322889,-0.0599 -0.1322889,-0.13227 0,-0.0739 0.059231,-0.1324 0.1322889,-0.1324 0.2922935,0 0.5290914,-0.23674 0.5290914,-0.52891 0,-0.29224 -0.2368063,-0.52905 -0.5290914,-0.52905 -0.2922183,0 -0.5292147,0.2368 -0.5292147,0.52905 0,0.0738 -0.059231,0.13226 -0.1321568,0.13226 -0.073123,0 -0.132281,-0.0597 -0.132281,-0.13226 z"
         id="path2-6"
         style="stroke-width:0.00826742;fill-opacity:1;fill:currentColor;"
         class="ColorScheme-Text" />
    </g>
    <g
       id="rotate">
      <rect
         y="249.37497"
         x="8.9958344"
         height="4.2333322"
         width="4.2333336"
         id="rect4176"
         style="opacity:1;fill:none;fill-opacity:1;stroke:none" />
      <rect
         style="opacity:1;fill:none;fill-opacity:1;stroke:none"
         id="rect4178"
         width="3.1750002"
         height="3.1749992"
         x="9.5250006"
         y="249.90414" />
      <path
         style="enable-background:accumulate;stroke:none;fill-rule:nonzero;fill-opacity:1;fill:currentColor;visibility:visible;overflow:visible;display:inline;text-decoration-line:none;text-decoration:none;"
         d="M 44.171875,1.671875 43.464844,2.3789062 44.414062,3.328125 45.085938,4 H 41 v 1 h 4.085938 L 44.414062,5.671875 43.464844,6.6210938 44.171875,7.328125 45.121094,6.3789062 47,4.5 45.121094,2.6210938 Z M 39.5,5 C 39.22386,5 39,5.2237543 39,5.5 39,5.7762835 39.223861,6 39.5,6 39.77614,6 40,5.7762457 40,5.5 40,5.2237165 39.776139,5 39.5,5 Z M 46.46875,6.5625 42.5625,10.46875 46.09375,14 50,10.09375 Z M 38.5,8 C 38.22386,8 38,8.2237543 38,8.5 38,8.7762835 38.223862,9 38.5,9 38.77614,9 39,8.7762457 39,8.5 39,8.2237165 38.776139,8 38.5,8 Z m 1,3 C 39.22386,11 39,11.223754 39,11.5 39,11.776283 39.223861,12 39.5,12 39.77614,12 40,11.776246 40,11.5 40,11.223717 39.776139,11 39.5,11 Z m 3,1 C 42.223868,12 42,12.223754 42,12.5 42,12.776283 42.22386,13 42.5,13 42.776132,13 43,12.776246 43,12.5 43,12.223717 42.77614,12 42.5,12 Z"
         transform="matrix(0.26458333,0,0,0.26458333,-0.52916771,249.37493)"
         id="rect4144-9"
         class="ColorScheme-Text"
         inkscape:connector-curvature="0" />
    </g>
    <g
       id="move">
      <rect
         style="opacity:1;fill:none;fill-opacity:1;stroke:none"
         id="rect4213"
         width="4.2333336"
         height="4.2333322"
         x="13.758335"
         y="249.37497" />
      <rect
         y="249.90414"
         x="14.287501"
         height="3.1749992"
         width="3.1750002"
         id="rect4215"
         style="opacity:1;fill:none;fill-opacity:1;stroke:none" />
      <path
         id="path4404"
         d="m 15.875001,249.90414 -0.529166,0.79375 h 1.058333 z m -0.79375,1.05833 -0.79375,0.52917 0.79375,0.52916 z m 1.5875,0 v 1.05833 l 0.79375,-0.52916 z m -0.79375,0.26458 c -0.146125,0 -0.264583,0.11846 -0.264583,0.26459 0,0.14612 0.118458,0.26458 0.264583,0.26458 0.146126,0 0.264584,-0.11846 0.264584,-0.26458 0,-0.14613 -0.118458,-0.26459 -0.264584,-0.26459 z m -0.529166,1.05834 0.529166,0.79375 0.529167,-0.79375 z"
         style="stroke:none;fill-opacity:1;fill:currentColor;"
         inkscape:connector-curvature="0"
         class="ColorScheme-Text" />
    </g>
    <g
       id="size-vertical">
      <rect
         y="249.37497"
         x="18.520834"
         height="4.2333322"
         width="4.2333336"
         id="rect4257"
         style="opacity:1;fill:none;fill-opacity:1;stroke:none" />
      <rect
         style="opacity:1;fill:none;fill-opacity:1;stroke:none"
         id="rect4259"
         width="3.1750002"
         height="3.1749992"
         x="19.050001"
         y="249.90414" />
      <path
         sodipodi:nodetypes="ccccssssscccc"
         inkscape:connector-curvature="0"
         style="stroke:none;fill-opacity:1;fill:currentColor;"
         d="m 20.637501,249.90414 -0.529166,0.79375 h 1.058333 z m 0,1.32291 c -0.146125,0 -0.264583,0.11846 -0.264583,0.26459 0,0.14612 0.118458,0.26458 0.264583,0.26458 0.146126,0 0.264584,-0.11846 0.264584,-0.26458 0,-0.14613 -0.118458,-0.26459 -0.264584,-0.26459 z m -0.529166,1.05834 0.529166,0.79375 0.529167,-0.79375 z"
         id="path4263"
         class="ColorScheme-Text" />
    </g>
    <g
       id="size-horizontal">
      <rect
         style="opacity:1;fill:none;fill-opacity:1;stroke:none"
         id="rect4265"
         width="4.2333336"
         height="4.2333322"
         x="23.283333"
         y="249.37497" />
      <rect
         y="249.90414"
         x="23.8125"
         height="3.1749992"
         width="3.1750002"
         id="rect4267"
         style="opacity:1;fill:none;fill-opacity:1;stroke:none" />
      <path
         id="path4269"
         d="m 26.987502,251.49164 -0.79375,-0.52917 v 1.05834 z m -1.32291,0 c 0,-0.14613 -0.11846,-0.26458 -0.26459,-0.26458 -0.14612,0 -0.26458,0.11845 -0.26458,0.26458 0,0.14613 0.11846,0.26458 0.26458,0.26458 0.14613,0 0.26459,-0.11845 0.26459,-0.26458 z m -1.05834,-0.52917 -0.79375,0.52917 0.79375,0.52917 z"
         style="stroke:none;fill-opacity:1;fill:currentColor;"
         inkscape:connector-curvature="0"
         sodipodi:nodetypes="ccccssssscccc"
         class="ColorScheme-Text" />
    </g>
    <g
       id="size-diagonal-tr2bl">
      <rect
         y="249.37497"
         x="28.045832"
         height="4.2333322"
         width="4.2333336"
         id="rect4271"
         style="opacity:1;fill:none;fill-opacity:1;stroke:none" />
      <rect
         style="opacity:1;fill:none;fill-opacity:1;stroke:none"
         id="rect4273"
         width="3.1750002"
         height="3.1749992"
         x="28.574999"
         y="249.90414" />
      <path
         inkscape:connector-curvature="0"
         id="rect3354"
         d="m 29.368751,253.07915 v -0.26458 h -0.606682 l 0.871265,-0.87127 -0.187068,-0.18706 -0.871265,0.87126 v -0.60668 h -0.264584 v 1.05833 h 0.264584 z"
         style="stroke:none;fill-opacity:1;fill:currentColor;"
         class="ColorScheme-Text" />
      <path
         inkscape:connector-curvature="0"
         id="rect3378"
         transform="matrix(0.26458334,0,0,0.26458334,-0.52916664,249.37498)"
         d="m 109,2 v 1 1 3 1 h 1 V 7 4 3 h 1 4 2 V 2 h -2 -4 -1 z m 13,6 v 1 3 1 h -2 -3 -2 v 1 h 2 3 2 1 V 12 9 8 Z"
         style="stroke:none;fill-opacity:1;fill:currentColor;"
         class="ColorScheme-Text" />
      <path
         style="stroke:none;fill-opacity:1;fill:currentColor;"
         d="m 30.95625,249.90415 v 0.26458 h 0.606682 L 30.691667,251.04 30.878735,251.22706 31.75,250.3558 v 0.60668 h 0.264584 v -1.05833 H 31.75 Z"
         id="path4303"
         inkscape:connector-curvature="0"
         class="ColorScheme-Text" />
    </g>
    <g
       id="size-diagonal-tl2br">
      <rect
         style="opacity:1;fill:none;fill-opacity:1;stroke:none"
         id="rect4308"
         width="4.2333336"
         height="4.2333322"
         x="-0.52916676"
         y="254.13741" />
      <rect
         y="254.66658"
         x="8.4756147e-07"
         height="3.1749992"
         width="3.1750002"
         id="rect4310"
         style="opacity:1;fill:none;fill-opacity:1;stroke:none" />
      <path
         style="stroke:none;fill-opacity:1;fill:currentColor;"
         d="m 2.3812496,257.84168 v -0.26458 h 0.6066819 l -0.8712649,-0.87127 0.187068,-0.18706 0.8712649,0.87126 v -0.60668 h 0.264584 v 1.05833 h -0.264584 z"
         id="path4312"
         inkscape:connector-curvature="0"
         class="ColorScheme-Text" />
      <path
         style="stroke:none;fill-opacity:1;fill:currentColor;"
         d="m 3.4395835,254.66667 v 0.26459 0.26458 0.79375 0.26458 h -0.264584 v -0.26458 -0.79375 -0.26458 H 2.9104166 1.8520836 1.3229166 v -0.26459 h 0.529167 1.058333 0.2645829 z M -4e-7,256.25417 v 0.26459 0.79375 0.26458 h 0.529167 0.79375 0.529167 v 0.26458 H 1.3229166 0.5291666 -4e-7 -0.2645834 v -0.52916 -0.79375 -0.26459 z"
         id="path4314"
         inkscape:connector-curvature="0"
         class="ColorScheme-Text" />
      <path
         inkscape:connector-curvature="0"
         id="path4316"
         d="m 0.7937506,254.66668 v 0.26458 h -0.606682 l 0.871265,0.87127 -0.187068,0.18706 L 6e-7,255.11833 v 0.60668 h -0.264584 v -1.05833 H 6e-7 Z"
         style="stroke:none;fill-opacity:1;fill:currentColor;"
         class="ColorScheme-Text" />
    </g>
    <g
       id="maximize">
      <rect
         y="254.13741"
         x="4.2333331"
         height="4.2333322"
         width="4.2333336"
         id="rect4318"
         style="opacity:1;fill:none;fill-opacity:1;stroke:none" />
      <rect
         style="opacity:1;fill:none;fill-opacity:1;stroke:none"
         id="rect4320"
         width="3.1750002"
         height="3.1749992"
         x="4.7625008"
         y="254.66658" />
      <path
         inkscape:connector-curvature="0"
         id="path4322"
         d="m 7.1437499,254.66667 v 0.26458 h 0.6066819 l -0.8712649,0.87127 0.187068,0.18706 0.8712649,-0.87126 v 0.60668 h 0.264584 v -1.05833 h -0.264584 z"
         style="stroke:none;fill-opacity:1;fill:currentColor;"
         class="ColorScheme-Text" />
      <path
         id="path4324"
         transform="matrix(0.26458333,0,0,0.26458334,-0.52916771,249.37497)"
         d="m 19,20 v 2 3 1 5 1 h 1 5 2 4 1 1 v -1 -1 -3 -1 h -1 v 1 3 1 h -1 -4 -2 -5 v -5 -1 -3 -1 h 2 3 2 v -1 h -2 -3 -2 z"
         style="stroke:none;fill-opacity:1;fill:currentColor;"
         inkscape:connector-curvature="0"
         class="ColorScheme-Text" />
    </g>
    <g
       id="unmaximize">
      <rect
         style="opacity:1;fill:none;fill-opacity:1;stroke:none"
         id="rect4333"
         width="4.2333336"
         height="4.2333322"
         x="8.9958324"
         y="254.13741" />
      <rect
         y="254.66658"
         x="9.5249996"
         height="3.1749992"
         width="3.1750002"
         id="rect4335"
         style="opacity:1;fill:none;fill-opacity:1;stroke:none" />
      <path
         style="stroke:none;fill-opacity:1;fill:currentColor;"
         d="M 12.700003,255.98958 V 255.725 h -0.606682 l 0.871265,-0.87127 -0.187068,-0.18706 -0.871266,0.87126 v -0.60668 h -0.264584 v 1.05833 h 0.264584 z"
         id="path4337"
         inkscape:connector-curvature="0"
         class="ColorScheme-Text" />
      <path
         inkscape:connector-curvature="0"
         style="stroke:none;fill-opacity:1;fill:currentColor;"
         d="m 9.2604158,254.66664 v 0.52916 0.79375 0.26459 1.32291 0.26459 h 0.2645833 1.3229169 0.529167 1.058334 0.264584 0.264583 v -0.26459 -0.26458 -0.79375 -0.26458 h -0.264583 v 0.26458 0.79375 0.26458 H 12.435417 11.377083 10.847916 9.5249991 v -1.32291 -0.26459 -0.79375 -0.26458 h 0.5291669 0.79375 0.529167 v -0.26458 h -0.529167 -0.79375 -0.5291669 z"
         id="path4339"
         class="ColorScheme-Text" />
    </g>
    <g
       id="status">
      <rect
         y="254.13741"
         x="13.758333"
         height="4.2333322"
         width="4.2333336"
         id="rect4341"
         style="opacity:1;fill:none;fill-opacity:1;stroke:none" />
      <rect
         style="opacity:1;fill:none;fill-opacity:1;stroke:none"
         id="rect4343"
         width="3.1750002"
         height="3.1749992"
         x="14.2875"
         y="254.66658" />
      <g
         inkscape:label="Capa 1"
         id="layer1-70"
         transform="matrix(0.26458333,0,0,0.26458334,-97.820237,113.43444)">
        <path
           sodipodi:nodetypes="cccccccccccccccccccccccccccccccc"
           inkscape:connector-curvature="0"
           id="rect4083"
           transform="translate(367.71428,513.79097)"
           d="m 56,20 v 3 3 1 5 H 57 60.970703 68 V 31 21 20 H 63.148438 57 Z m 1,3 h 7.345703 L 62.628906,29.408203 60.662109,26 H 60.369141 57.505859 57 Z m 8.382812,0 H 67 v 8 H 63.238281 Z M 57,27 h 3.083984 l 2.308594,4 H 57 Z"
           style="stroke:none;fill-opacity:1;fill:currentColor;"
           class="ColorScheme-Text" />
      </g>
    </g>
    <g
       id="collapse">
      <rect
         y="254.13741"
         x="23.283337"
         height="4.2333322"
         width="4.2333336"
         id="rect4397"
         style="opacity:1;fill:none;fill-opacity:1;stroke:none" />
      <rect
         style="opacity:1;fill:none;fill-opacity:1;stroke:none"
         id="rect4399"
         width="3.1750002"
         height="3.1749992"
         x="23.812504"
         y="254.66658" />
      <path
         inkscape:connector-curvature="0"
         style="stroke:none;fill-opacity:1;fill:currentColor;opacity:1;"
         d="m 24.870835,254.66664 0.529166,0.52916 0.529167,-0.52916 z m -1.058334,1.32291 v 0.52917 h 3.175 v -0.52917 z m 1.5875,1.32292 -0.529166,0.52917 h 1.058333 z"
         id="path4401"
         class="ColorScheme-Text" />
    </g>
    <g
       id="return-to-source">
      <rect
         style="opacity:1;fill:none;fill-opacity:1;stroke:none"
         id="rect4380"
         width="4.2333336"
         height="4.2333322"
         x="18.520832"
         y="254.13741" />
      <rect
         y="254.66658"
         x="19.049999"
         height="3.1749992"
         width="3.1750002"
         id="rect4382"
         style="opacity:1;fill:none;fill-opacity:1;stroke:none" />
      <path
         id="rect4403"
         transform="matrix(0.26458333,0,0,0.26458334,-0.52916771,249.37497)"
         d="M 74,20 V 32 H 86 V 20 Z m 4,1 h 4 l -2,2 z m -3,4 h 10 v 2 H 75 Z m 5,4 2,2 h -4 z"
         style="stroke:none;fill-opacity:1;fill:currentColor;opacity:1;"
         inkscape:connector-curvature="0"
         class="ColorScheme-Text" />
    </g>
    <g
       id="restore">
      <rect
         style="opacity:1;fill:none;fill-opacity:1;stroke:none"
         id="rect4414"
         width="4.2333336"
         height="4.2333322"
         x="28.045841"
         y="254.13741" />
      <rect
         y="254.66658"
         x="28.575008"
         height="3.1749992"
         width="3.1750002"
         id="rect4416"
         style="opacity:1;fill:none;fill-opacity:1;stroke:none" />
      <path
         sodipodi:nodetypes="ccccccccccccc"
         id="path4418"
         d="m 29.633338,255.1958 0.529166,-0.52916 0.529167,0.52916 z m -1.058334,0.79375 v 0.52917 h 3.175 v -0.52917 z m 1.5875,1.85209 -0.529166,-0.52917 h 1.058333 z"
         style="stroke:none;fill-opacity:1;fill:currentColor;opacity:1;"
         inkscape:connector-curvature="0"
         class="ColorScheme-Text" />
    </g>
    <g
       id="help">
      <rect
         y="258.89993"
         x="-0.52916676"
         height="4.2333322"
         width="4.2333336"
         id="rect4420"
         style="opacity:1;fill:none;fill-opacity:1;stroke:none" />
      <rect
         style="opacity:1;fill:none;fill-opacity:1;stroke:none"
         id="rect4422"
         width="3.1750002"
         height="3.1749992"
         x="8.4756147e-07"
         y="259.42911" />
      <path
         inkscape:connector-curvature="0"
         style="stroke-opacity:1;stroke:none;fill-opacity:1;fill:currentColor;opacity:1;"
         d="M 1.5875009,259.42911 A 1.5875,1.5875001 0 0 0 9.929289e-7,261.01661 1.5875,1.5875001 0 0 0 1.5875009,262.60411 a 1.5875,1.5875001 0 0 0 1.5875,-1.5875 1.5875,1.5875001 0 0 0 -1.5875,-1.5875 z M 9.929289e-7,259.69369 v 0.52917 L 0.52916759,259.69369 Z m 1.5874999070711,0 a 1.3229166,1.3229167 0 0 1 0.6325195,0.16123 l -0.4025594,0.40256 a 0.79374998,0.79375003 0 0 0 -0.2299601,-0.0346 0.79374998,0.79375003 0 0 0 -0.2299601,0.0346 l -0.40152591,-0.40153 a 1.3229166,1.3229167 0 0 1 0.63148601,-0.16226 z m 1.0583333,0 0.5291667,0.52917 v -0.52917 z m -2.22001941,0.6904 0.4025594,0.40256 a 0.79374998,0.79375003 0 0 0 -0.034623,0.22996 0.79374998,0.79375003 0 0 0 0.034623,0.22996 l -0.4015259,0.40152 a 1.3229166,1.3229167 0 0 1 -0.162264,-0.63148 1.3229166,1.3229167 0 0 1 0.1612305,-0.63252 z m 2.32233881,10e-4 a 1.3229166,1.3229167 0 0 1 0.1622639,0.63149 1.3229166,1.3229167 0 0 1 -0.1612304,0.63252 l -0.4025593,-0.40253 a 0.79374998,0.79375003 0 0 0 0.034623,-0.22996 0.79374998,0.79375003 0 0 0 -0.034623,-0.22996 l 0.4015258,-0.40153 z m -1.1606527,0.10232 a 0.52916665,0.52916669 0 0 1 0.5291667,0.52917 0.52916665,0.52916669 0 0 1 -0.5291667,0.52916 0.52916665,0.52916669 0 0 1 -0.5291667,-0.52916 0.52916665,0.52916669 0 0 1 0.5291667,-0.52917 z m -0.2299601,1.28829 a 0.79374998,0.79375003 0 0 0 0.2299601,0.0346 0.79374998,0.79375003 0 0 0 0.2299601,-0.0346 l 0.4015259,0.40153 a 1.3229166,1.3229167 0 0 1 -0.631486,0.16226 1.3229166,1.3229167 0 0 1 -0.63251951,-0.16123 z M 9.929289e-7,261.8103 v 0.52916 H 0.52916759 Z m 3.1749999070711,0 -0.5291667,0.52916 h 0.5291667 z"
         id="path59"
         class="ColorScheme-Text" />
    </g>
    <g
       id="delete">
      <rect
         style="fill:none;fill-opacity:1;stroke:none"
         id="rect4456"
         width="4.2333336"
         height="4.2333322"
         x="4.2333331"
         y="258.89993" />
      <rect
         y="259.42911"
         x="4.7625008"
         height="3.1749992"
         width="3.1750002"
         id="rect4458"
         style="fill:none;fill-opacity:1;stroke:none" />
      <path
         d="m 5.9507861,261.90951 v -0.9922 c 0,-0.0548 0.04431,-0.0992 0.09905,-0.0992 0.05471,0 0.09903,0.0444 0.09903,0.0992 v 0.9922 c 0,0.0547 -0.04431,0.0992 -0.09903,0.0992 -0.05474,0 -0.09905,-0.0445 -0.09905,-0.0992 z m 0.693173,-0.29765 c -0.05473,0 -0.09903,-0.0445 -0.09903,-0.0992 v -0.59533 c 0,-0.0548 0.04429,-0.0992 0.09903,-0.0992 0.05473,0 0.09903,0.0444 0.09903,0.0992 v 0.59533 c 0,0.0547 -0.04429,0.0992 -0.09903,0.0992 z m 0,0.39687 c -0.05473,0 -0.09903,-0.0445 -0.09903,-0.0992 0,-0.0548 0.04429,-0.0992 0.09903,-0.0992 0.05473,0 0.09903,0.0444 0.09903,0.0992 0,0.0547 -0.04429,0.0992 -0.09903,0.0992 z m 0.792206,-0.9922 c -0.05473,0 -0.09903,-0.0444 -0.09903,-0.0992 0,-0.0548 0.04429,-0.0992 0.09903,-0.0992 0.05473,0 0.09903,0.0444 0.09903,0.0992 0,0.0548 -0.0443,0.0992 -0.09903,0.0992 z m 0.09903,-0.59531 h -0.05334 -0.39228 -0.04956 -1.435826 c -0.136742,0 -0.247538,0.11104 -0.247538,0.24805 v 0.0496 0.39694 1.04179 c 0,0.137 0.110796,0.24804 0.247538,0.24804 h 1.485385 c 0.136742,0 0.247564,-0.11104 0.247564,-0.24804 v -0.84335 c 0,-0.0548 0.04429,-0.0992 0.09903,-0.0992 0.05473,0 0.09903,0.0444 0.09903,0.0992 v 0.89295 c 0,0.21918 -0.177366,0.39688 -0.396106,0.39688 h -1.584362 c -0.218772,0 -0.3961746,-0.1777 -0.3961746,-0.39688 v -1.09139 -0.39694 -0.0991 c 0,-0.21922 0.1774026,-0.39692 0.3961746,-0.39692 h 0.09893 1.485435 0.396106 c 0.109376,0 0.198003,-0.0889 0.198003,-0.19849 0,-0.10953 -0.08863,-0.19839 -0.198003,-0.19839 h -0.742696 c -0.109382,0 -0.138143,-0.19843 -0.247569,-0.19843 h -0.396075 c -0.109426,0 -0.138218,0.19843 -0.247539,0.19843 H 5.1585555 c -0.1093205,0 -0.1980778,0.0889 -0.1980778,0.19839 0,0.0548 -0.044314,0.0993 -0.098927,0.0993 -0.054738,0 -0.099051,-0.0445 -0.099051,-0.0993 0,-0.21912 0.177279,-0.39682 0.3960564,-0.39682 h 0.544686 c 0.109327,0 0.138218,-0.19844 0.247539,-0.19844 h 0.7922 c 0.109382,0 0.138242,0.19844 0.247569,0.19844 h 0.544643 c 0.218789,0 0.396099,0.1777 0.396099,0.39682 6e-6,0.21922 -0.177303,0.39692 -0.396093,0.39692 z"
         id="path2"
         style="stroke-width:0.00620117;fill-opacity:1;fill:currentColor;"
         class="ColorScheme-Text" />
    </g>
    <g
       id="add">
      <rect
         y="258.89993"
         x="8.9958324"
         height="4.2333322"
         width="4.2333336"
         id="rect4488"
         style="opacity:1;fill:none;fill-opacity:1;stroke:none" />
      <rect
         style="opacity:1;fill:none;fill-opacity:1;stroke:none"
         id="rect4490"
         width="3.1750002"
         height="3.1749992"
         x="9.5249996"
         y="259.42911" />
      <path
         style="stroke:none;fill-opacity:1;fill:currentColor;opacity:1;"
         d="m 43,38 v 5 h -5 v 2 h 5 v 5 h 2 v -5 h 5 v -2 h -5 v -5 z"
         transform="matrix(0.26458333,0,0,0.26458333,-0.52916771,249.37493)"
         id="rect4498"
         class="ColorScheme-Text" />
    </g>
    <g
       id="remove">
      <rect
         style="opacity:1;fill:none;fill-opacity:1;stroke:none"
         id="rect4502"
         width="4.2333336"
         height="4.2333322"
         x="13.758328"
         y="258.89993" />
      <rect
         y="259.42911"
         x="14.287497"
         height="3.1749992"
         width="3.1750002"
         id="rect4504"
         style="opacity:1;fill:none;fill-opacity:1;stroke:none" />
      <rect
         y="-17.462498"
         x="260.75204"
         height="3.175"
         width="0.5291667"
         id="rect4508"
         style="stroke:none;fill-opacity:1;fill:currentColor;opacity:1;"
         transform="rotate(90)"
         class="ColorScheme-Text" />
    </g>
    <g
       id="filter">
      <rect
         y="258.89993"
         x="18.520828"
         height="4.2333322"
         width="4.2333336"
         id="rect4527"
         style="opacity:1;fill:none;fill-opacity:1;stroke:none" />
      <rect
         style="opacity:1;fill:none;fill-opacity:1;stroke:none"
         id="rect4529"
         width="3.1750002"
         height="3.1749992"
         x="19.049997"
         y="259.42911" />
      <path
         id="path4545"
         transform="matrix(0.26458333,0,0,0.26458334,-0.52916771,249.37497)"
         d="m 76,38 -1,1 v 1 l 3,5.259766 V 48 48.002 l 3,1.996094 v 0.002 h 1 V 49.461032 45.25986 L 85,40 v -1 l -1,-1 z m 0,1 h 8 v 0.734375 l -3,5.263672 v 0.002 1 2.794922 L 79,47.464844 V 45 44.998 l -3,-5.263672 z m 1,1 2,2 v -1 l 1,-1 z"
         style="stroke-opacity:1;stroke-linejoin:miter;stroke-linecap:butt;stroke-width:0.264583px;stroke:none;fill-rule:evenodd;fill-opacity:1;fill:currentColor;"
         inkscape:connector-curvature="0"
         class="ColorScheme-Text" />
    </g>
    <g
       id="showbackground">
      <g
         id="g942">
        <rect
           class="ColorScheme-Background"
           ry="0.12427091"
           y="259.69373"
           x="28.574997"
           height="2.6458437"
           width="2.6458342"
           id="rect929"
           style="opacity:1;fill:#eff3f5;fill-opacity:1" />
        <rect
           y="258.89993"
           x="27.858765"
           height="4.2333322"
           width="4.2333336"
           id="rect908"
           style="opacity:1;fill:none;fill-opacity:1;stroke:none" />
        <path
           inkscape:connector-curvature="0"
           class="ColorScheme-Text"
           style="fill-opacity:1;fill:currentColor;opacity:1;"
           d="m 110,38 c -0.55407,0 -1,0.445928 -1,1 v 10 c 0,0.554072 0.44593,1 1,1 h 10 c 0.55407,0 1,-0.445928 1,-1 V 39 c 0,-0.554072 -0.44593,-1 -1,-1 z m 0.46875,1 h 9.0625 C 119.79146,39 120,39.210497 120,39.470703 V 48.53125 C 120,48.791456 119.79146,49 119.53125,49 h -9.0625 C 110.20854,49 110,48.791456 110,48.53125 V 39.470703 C 110,39.210497 110.20854,39 110.46875,39 Z"
           transform="matrix(0.26458332,0,0,0.26458332,-0.5291667,249.37493)"
           id="rect910" />
        <g
           aria-label="a"
           transform="scale(0.92487808,1.0812236)"
           id="text927">
          <path
             d="m 32.390856,240.67151 c 0.173043,0 0.30106,0.038 0.38405,0.11389 0.08299,0.0759 0.124486,0.19688 0.124486,0.36286 v 0.99379 H 32.72988 l -0.04503,-0.22834 h -0.01059 c -0.0618,0.0777 -0.127133,0.13508 -0.195998,0.17216 -0.06886,0.0371 -0.162449,0.0556 -0.280754,0.0556 -0.1289,0 -0.235727,-0.0335 -0.320483,-0.10065 -0.08476,-0.0689 -0.122393,-0.17569 -0.122393,-0.32048 0,-0.14126 0.05088,-0.28618 0.162122,-0.3621 0.111242,-0.0777 0.282519,-0.11816 0.513833,-0.12522 l 0.241024,-0.008 v -0.0504 c 0,-0.11831 -0.0256,-0.20042 -0.07681,-0.24633 -0.05121,-0.0459 -0.123603,-0.0689 -0.217187,-0.0689 -0.07416,0 -0.144791,0.0115 -0.211889,0.0344 -0.0671,0.0212 -0.129783,0.0459 -0.188052,0.0742 l -0.07151,-0.17481 c 0.0618,-0.0335 0.135078,-0.0618 0.219835,-0.0848 0.08476,-0.0247 0.173043,-0.0371 0.264862,-0.0371 z m 0.278106,0.73618 -0.209242,0.008 c -0.176575,0.007 -0.299294,0.0334 -0.368158,0.0829 -0.0671,0.0495 -0.100647,0.1345 -0.100647,0.22453 0,0.0795 0.02384,0.13773 0.07151,0.17481 0.04944,0.0371 0.112124,0.0556 0.188052,0.0556 0.118305,0 0.217187,-0.0327 0.296646,-0.098 0.08122,-0.0671 0.121837,-0.16951 0.121837,-0.30724 z"
             style="fill:#030303;fill-opacity:1"
             id="path934"
             inkscape:connector-curvature="0"
             sodipodi:nodetypes="ccscccccscscccscscccccccccscsccc" />
        </g>
      </g>
    </g>
    <g
       id="close">
      <g
         id="g968">
        <rect
           y="258.89993"
           x="23.283339"
           height="4.2333322"
           width="4.2333336"
           id="rect4253"
           style="opacity:1;fill:none;fill-opacity:1;stroke:none" />
        <rect
           style="opacity:1;fill:none;fill-opacity:1;stroke:none"
           id="rect4255"
           width="3.1750002"
           height="3.1749992"
           x="23.812508"
           y="259.42911" />
      </g>
      <path
         d="m 23.81316,259.42919 h 0.396716 c 0.0041,-5e-5 0.0082,-1.8e-4 0.0124,0 0.101142,0.004 0.202273,0.051 0.272742,0.12402 l 0.904986,0.90535 0.917404,-0.90535 c 0.105376,-0.0915 0.177201,-0.12124 0.272742,-0.12402 h 0.396715 v 0.39687 c 0,0.1137 -0.01362,0.21854 -0.09918,0.29766 l -0.904987,0.90535 0.892609,0.89296 c 0.07466,0.0747 0.111572,0.17997 0.111576,0.28526 v 0.39687 h -0.396715 c -0.105249,0 -0.210493,-0.0369 -0.285139,-0.11162 l -0.904987,-0.90535 -0.904987,0.90535 c -0.07465,0.0747 -0.179894,0.11162 -0.285139,0.11162 H 23.8132 v -0.39687 c -10e-7,-0.10529 0.03692,-0.21058 0.111576,-0.28526 l 0.904987,-0.89296 -0.904987,-0.90535 c -0.0836,-0.0772 -0.120268,-0.18623 -0.111576,-0.29766 z"
         fill="#dfdfdf"
         id="path124"
         style="stroke-width:0.396795;fill-opacity:1;fill:currentColor"
         class="ColorScheme-Text" />
    </g>
    <g
       id="menu">
      <rect
         y="249.37497"
         x="-0.52916771"
         height="4.2333322"
         width="4.2333336"
         id="rect4152"
         style="fill:none;fill-opacity:1;stroke:none" />
      <path
         fill-rule="evenodd"
         clip-rule="evenodd"
         d="m 1.1722507,252.73364 c -2.265e-4,-3.6e-4 -5.187e-4,-8.5e-4 -6.339e-4,-8.5e-4 -0.015726,-0.0416 -0.05902,-0.0714 -0.1097328,-0.0711 l -1.19109661,0.009 c -0.063658,4.6e-4 -0.11559079,-0.0464 -0.11612239,-0.10484 -5.1888e-4,-0.0584 0.0505418,-0.10605 0.11419951,-0.10654 l 1.19109569,-0.009 c 0.1497358,-8.9e-4 0.2781148,0.0854 0.3271325,0.20746 6.338e-4,0.002 0.00167,0.003 0.00274,0.004 0.049626,0.12106 0.1763195,0.20724 0.3253276,0.2061 0.095313,-7.4e-4 0.1812466,-0.0367 0.2430808,-0.0946 0.020737,-0.0196 0.049536,-0.0318 0.081423,-0.032 0.063655,-4.6e-4 0.1156414,0.0465 0.1161737,0.105 2.813e-4,0.0309 -0.014195,0.0586 -0.037131,0.078 -0.1031105,0.0944 -0.2444504,0.15363 -0.4016133,0.15485 -0.2497098,0.002 -0.4631281,-0.14236 -0.5448376,-0.34597 z m 0.8652082,-0.2895 c -6.342e-4,-0.002 -0.00164,-0.003 -0.00274,-0.004 -0.049523,-0.12111 -0.1762111,-0.20721 -0.3253272,-0.20607 -0.095425,7.2e-4 -0.1814609,0.0369 -0.2434165,0.0948 -0.020628,0.0194 -0.04942,0.0314 -0.081189,0.0316 -0.063538,4.7e-4 -0.1154689,-0.0464 -0.1160008,-0.10482 -2.766e-4,-0.0308 0.013649,-0.0578 0.035962,-0.0773 0.1032191,-0.0949 0.2450615,-0.15444 0.4027278,-0.15564 0.2496024,-0.002 0.4625159,0.14226 0.544446,0.34556 4.01e-4,4.6e-4 9.105e-4,8.7e-4 0.00104,8.7e-4 0.015791,0.0416 0.059019,0.0714 0.1097973,0.0711 l 0.5001396,-0.004 c 0.063544,-5.3e-4 0.1156415,0.0464 0.1161721,0.10474 5.336e-4,0.0585 -0.05071,0.10613 -0.1142488,0.10658 l -0.5001547,0.004 c -0.1499075,8.7e-4 -0.278171,-0.0853 -0.3271963,-0.20743 z m 1.1719205,0.0952 c -5.304e-4,-0.0583 0.050542,-0.10603 0.1140843,-0.10657 0.063655,-4.6e-4 0.1155835,0.0464 0.1161143,0.10478 5.334e-4,0.0584 -0.05054,0.10615 -0.1141917,0.10662 -0.063544,4.6e-4 -0.1154752,-0.0464 -0.1160069,-0.10483 z m -2.9678301,-0.85585 c -2.8479e-4,-4.9e-4 -6.3397e-4,-8.7e-4 -8.07e-4,-8.7e-4 -0.0157309,-0.0418 -0.0591301,-0.0714 -0.10973266,-0.071 l -0.26984033,0.002 c -0.0636579,4.6e-4 -0.1155908,-0.0464 -0.1161225,-0.10486 -5.1877e-4,-0.0584 0.0505408,-0.10603 0.11419939,-0.10651 l 0.26984027,-0.002 c 0.14978575,-9.2e-4 0.27811409,0.0854 0.32713216,0.20746 6.9169e-4,0.002 0.001698,0.003 0.00274,0.004 0.0496847,0.12102 0.17637631,0.20724 0.32532711,0.2061 0.0953035,-7.9e-4 0.18123982,-0.0367 0.24308126,-0.0945 0.020737,-0.0195 0.049535,-0.0318 0.081467,-0.032 0.063656,-4.4e-4 0.1155842,0.0464 0.116116,0.10492 2.813e-4,0.031 -0.014195,0.0586 -0.037131,0.0783 -0.1030589,0.0944 -0.24445014,0.15369 -0.40160547,0.1549 -0.24955186,0.002 -0.46302019,-0.14235 -0.54467051,-0.34578 z m 0.8650908,-0.28978 c -6.922e-4,-0.002 -0.00178,-0.003 -0.00301,-0.005 -0.04962,-0.12072 -0.17620769,-0.20682 -0.32509371,-0.20567 -0.0953683,7.4e-4 -0.18146758,0.037 -0.24341626,0.0948 -0.0206336,0.0193 -0.0494209,0.0314 -0.0811888,0.0316 -0.0635356,4.9e-4 -0.11546855,-0.0464 -0.11600033,-0.10488 -2.706e-4,-0.0295 0.0130384,-0.0567 0.0344541,-0.076 0.10315432,-0.0959 0.24584123,-0.15579 0.40423461,-0.15701 0.24960179,-0.002 0.46257319,0.14238 0.54443859,0.34561 4.037e-4,4.5e-4 9.223e-4,9.3e-4 0.00109,9.3e-4 0.015727,0.0414 0.059015,0.0714 0.1097321,0.0711 l 1.8819872,-0.0144 c 0.063656,-4.2e-4 0.1155837,0.0464 0.1161145,0.10476 5.332e-4,0.0584 -0.05054,0.10617 -0.1141911,0.10663 l -1.8819874,0.0144 c -0.1499035,8.7e-4 -0.2782894,-0.0853 -0.3271419,-0.20741 z m 0.5072225,-0.7783 c -2.851e-4,-4.3e-4 -6.917e-4,-8.6e-4 -8.073e-4,-8.6e-4 -0.015896,-0.0417 -0.059126,-0.0714 -0.1097329,-0.071 l -1.65178116,0.0127 c -0.063658,4.6e-4 -0.11559082,-0.0464 -0.1161217,-0.10476 -5.1877e-4,-0.0585 0.0505397,-0.10614 0.11419842,-0.10664 l 1.65178144,-0.0127 c 0.1497351,-8.8e-4 0.2781139,0.0854 0.3271321,0.20754 6.341e-4,0.002 0.00167,0.003 0.00274,0.004 0.049523,0.12103 0.1762104,0.20722 0.3252116,0.20609 0.095425,-7.5e-4 0.1814674,-0.037 0.2434093,-0.0948 0.020738,-0.0194 0.049311,-0.0314 0.081197,-0.0316 0.063538,-4.8e-4 0.1156415,0.0464 0.1161731,0.1049 2.769e-4,0.0306 -0.013815,0.058 -0.036126,0.0773 -0.1032191,0.095 -0.2450689,0.15451 -0.4027279,0.15572 -0.2495949,0.002 -0.4629061,-0.14248 -0.5445553,-0.34575 z m 0.8649322,-0.28974 c -6.342e-4,-0.002 -0.00168,-0.003 -0.00274,-0.004 -0.04964,-0.12105 -0.1763195,-0.20724 -0.325328,-0.20609 -0.095423,7.5e-4 -0.1813523,0.037 -0.2433006,0.0948 -0.020628,0.0192 -0.049428,0.0315 -0.081197,0.0317 -0.063538,4.7e-4 -0.1155837,-0.0464 -0.1161155,-0.10487 -2.754e-4,-0.0305 0.013536,-0.0577 0.035683,-0.0771 0.1029357,-0.0953 0.2453396,-0.15474 0.4030063,-0.15595 0.2496022,-0.002 0.4630198,0.14229 0.5446701,0.34568 2.853e-4,4.9e-4 6.861e-4,9.2e-4 7.957e-4,9.2e-4 0.015727,0.0416 0.059125,0.0713 0.1097396,0.0711 l 0.5002116,-0.004 c 0.063656,-4.7e-4 0.1155836,0.0464 0.1161157,0.10487 5.299e-4,0.0583 -0.050541,0.10603 -0.114192,0.10648 l -0.5002121,0.004 c -0.1497426,8.6e-4 -0.2781209,-0.0853 -0.3271393,-0.20745 z"
         id="path2-3"
         style="stroke-width:0.00689709;fill-opacity:1;fill:currentColor;"
         class="ColorScheme-Text" />
    </g>
  </g>
</svg>
