<?xml version="1.0" encoding="UTF-8" standalone="no"?>
<svg
   viewBox="0 0 256 256"
   id="svg2"
   version="1.1"
   inkscape:version="1.1 (c68e22c387, 2021-05-23)"
   sodipodi:docname="org.kde.plasma.frame.svg"
   xmlns:inkscape="http://www.inkscape.org/namespaces/inkscape"
   xmlns:sodipodi="http://sodipodi.sourceforge.net/DTD/sodipodi-0.dtd"
   xmlns:xlink="http://www.w3.org/1999/xlink"
   xmlns="http://www.w3.org/2000/svg"
   xmlns:svg="http://www.w3.org/2000/svg"
   xmlns:rdf="http://www.w3.org/1999/02/22-rdf-syntax-ns#"
   xmlns:cc="http://creativecommons.org/ns#"
   xmlns:dc="http://purl.org/dc/elements/1.1/"
   xmlns:serif="http://www.serif.com/">
  <metadata
     id="metadata10">
    <rdf:RDF>
      <cc:Work
         rdf:about="">
        <dc:format>image/svg+xml</dc:format>
        <dc:type
           rdf:resource="http://purl.org/dc/dcmitype/StillImage" />
      </cc:Work>
    </rdf:RDF>
  </metadata>
  <sodipodi:namedview
     pagecolor="#ffffff"
     bordercolor="#666666"
     borderopacity="1"
     objecttolerance="10"
     gridtolerance="10"
     guidetolerance="10"
     inkscape:pageopacity="0"
     inkscape:pageshadow="2"
     inkscape:window-width="1920"
     inkscape:window-height="1015"
     id="namedview8"
     showgrid="true"
     inkscape:object-nodes="true"
     inkscape:zoom="1.84375"
     inkscape:cx="27.389831"
     inkscape:cy="130.16949"
     inkscape:window-x="0"
     inkscape:window-y="0"
     inkscape:window-maximized="1"
     inkscape:current-layer="svg2"
     inkscape:document-rotation="0"
     inkscape:pagecheckerboard="0">
    <inkscape:grid
       type="xygrid"
       id="grid4474" />
  </sodipodi:namedview>
  <defs
     id="defs4">
    <style
       id="current-color-scheme"
       type="text/css">
      .ColorScheme-Text {
        color:#f2f2f2;
      }
      .ColorScheme-Background {
        color:#31363b;
      }
      .ColorScheme-Highlight {
        color:#3daee9;
      }
      .ColorScheme-ViewText {
        color:#31363b;
      }
      .ColorScheme-ViewBackground {
        color:#314045;
      }
      .ColorScheme-ViewHover {
        color:#93cee9;
      }
      .ColorScheme-ViewFocus{
        color:#3daee9;
      }
      .ColorScheme-ButtonText {
        color:#31363b;
      }
      .ColorScheme-ButtonBackground {
        color:#31363b;
      }
      .ColorScheme-ButtonHover {
        color:#93cee9;
      }
      .ColorScheme-ButtonFocus{
        color:#3daee9;
      }
      </style>
    <linearGradient
       inkscape:collect="always"
       xlink:href="#linearGradient842"
       id="linearGradient854"
       gradientUnits="userSpaceOnUse"
       gradientTransform="matrix(2.1537142,0,0,2.1999834,20.27765,17.800889)"
       x1="6"
       y1="50.000134"
       x2="94.005508"
       y2="50.000134" />
    <linearGradient
       inkscape:collect="always"
       id="linearGradient842">
      <stop
         style="stop-color:#00aa88;stop-opacity:1"
         offset="0"
         id="stop838" />
      <stop
         style="stop-color:#008fb2;stop-opacity:1"
         offset="1"
         id="stop840" />
    </linearGradient>
    <linearGradient
       inkscape:collect="always"
       xlink:href="#linearGradient842"
       id="linearGradient1212"
       gradientUnits="userSpaceOnUse"
       gradientTransform="matrix(0,-0.32391774,0.36783195,0,28.32146,225.74774)"
       x1="0"
       y1="213.3335"
       x2="512.00098"
       y2="213.3335" />
    <linearGradient
       inkscape:collect="always"
       xlink:href="#linearGradient842"
       id="linearGradient844"
       gradientUnits="userSpaceOnUse"
       x1="0"
       y1="213.3335"
       x2="512.00098"
       y2="213.3335"
       gradientTransform="matrix(0,-0.32391774,0.36783195,0,10.37826,207.9785)" />
    <linearGradient
       inkscape:collect="always"
       xlink:href="#linearGradient842"
       id="linearGradient858"
       x1="320"
       y1="187.5"
       x2="439"
       y2="187.5"
       gradientUnits="userSpaceOnUse"
       gradientTransform="matrix(0.33846162,0,0,0.33846162,-53.023529,114.5574)" />
    <linearGradient
       inkscape:collect="always"
       xlink:href="#linearGradient842"
       id="linearGradient866"
       x1="320"
       y1="227.5"
       x2="439"
       y2="227.5"
       gradientUnits="userSpaceOnUse"
       gradientTransform="matrix(0.33846162,0,0,0.33846162,54.43154,100.87523)" />
    <linearGradient
       inkscape:collect="always"
       xlink:href="#linearGradient842"
       id="linearGradient1267"
       x1="12.000006"
       y1="22.000011"
       x2="32.000015"
       y2="22.000011"
       gradientUnits="userSpaceOnUse" />
    <linearGradient
       inkscape:collect="always"
       xlink:href="#linearGradient842"
       id="linearGradient909"
       gradientUnits="userSpaceOnUse"
       x1="12.000006"
       y1="22.000011"
       x2="32.000015"
       y2="22.000011" />
    <linearGradient
       inkscape:collect="always"
       xlink:href="#linearGradient842"
       id="linearGradient911"
       gradientUnits="userSpaceOnUse"
       x1="12.000006"
       y1="22.000011"
       x2="32.000015"
       y2="22.000011" />
  </defs>
  <path
     style="fill:#000000;fill-opacity:1;stroke:none"
     d="m 16,10 224,0 c 3.324,0 6,2.676 6,6 l 0,224 c 0,3.324 -2.676,6 -6,6 l -224,0 c -3.324,0 -6,-2.676 -6,-6 L 10,16 c 0,-3.324 2.676,-6 6,-6 z"
     class="ColorScheme-ButtonText"
     id="rect4240" />
  <path
     style="fill:#23252f;fill-opacity:1;stroke:none"
     d="m 16,12 224,0 c 2.216,0 4,1.784 4,4 l 0,224 c 0,2.216 -1.784,4 -4,4 l -224,0 c -2.216,0 -4,-1.784 -4,-4 L 12,16 c 0,-2.216 1.784,-4 4,-4 z"
     class="ColorScheme-Background"
     id="rect4238" />
  <path
     style="color:#000000;font-style:normal;font-variant:normal;font-weight:normal;font-stretch:normal;font-size:medium;line-height:normal;font-family:Sans;-inkscape-font-specification:Sans;text-indent:0;text-align:start;text-decoration:none;text-decoration-line:none;letter-spacing:normal;word-spacing:normal;text-transform:none;writing-mode:lr-tb;direction:ltr;baseline-shift:baseline;text-anchor:start;display:inline;overflow:visible;visibility:visible;fill:url(#linearGradient854);fill-opacity:1;fill-rule:nonzero;stroke:none;stroke-width:8.70695;marker:none;enable-background:accumulate"
     d="M 49.48746,50.800644 C 40.70454,50.800644 33.2,57.092434 33.2,65.4443 v 123.23536 c 0,5.20275 1.84187,8.54561 5.41772,11.57873 3.57588,3.03312 7.28702,4.54099 12.02243,4.54099 h 150.5487 c 3.61438,0.0637 3.51158,-4.89474 8.6e-4,-4.94734 l -150.75782,-0.0877 c -4.65924,0 -8.53065,-3.28438 -8.53065,-3.28438 0,0 -3.56753,-2.67628 -3.56753,-7.80045 V 65.444152 c 0,-5.755485 3.91761,-9.44811 10.76078,-9.372975 l 52.99316,-0.02665 25.27008,22.507787 c 0.76357,0.688351 1.74121,1.669775 2.75935,1.69175 l 73.47929,-0.02665 c 3.74662,-0.02073 3.62824,-5.157639 -0.11846,-5.217699 H 131.66499 L 104.87817,51.831238 C 104.10511,51.167794 103.12846,50.802784 102.11872,50.8 Z m 85.4755,6.393696 c -3.41907,-0.0089 -3.42588,5.875961 0.0853,5.926129 l 65.53552,-0.09003 c 6.64063,-0.0089 9.5175,2.140956 11.72859,4.201802 2.21108,2.060905 5.57107,7.106332 5.57107,12.305344 V 200.39919 c 0.0207,4.08994 4.84069,4.22463 4.85508,0.14067 L 222.7237,79.536815 c -6.8e-4,-7.062857 -2.31189,-12.976222 -6.46116,-16.843577 -4.14917,-3.867386 -9.79822,-5.499964 -15.68167,-5.499964 h -65.21721 c -0.13475,-0.0059 -0.2695,-0.0059 -0.40384,0 z"
     id="path2-3-3"
     sodipodi:nodetypes="sssssccscsssccccccccsccsssccssscc" />
  <path
     style="fill:url(#linearGradient1212);fill-opacity:1;stroke-width:0.345176"
     id="path6"
     d="m 77.62309,92.261246 c 0.61206,-0.539 0.91956,-1.246749 0.91956,-1.954201 0,-0.707749 -0.3075,-1.415201 -0.91956,-1.954202 -1.22747,-1.080576 -3.2112,-1.080576 -4.43828,0 l -6.27778,5.52798 c -1.22744,1.080609 -1.22744,2.827799 0,3.908397 1.22747,1.08091 3.21116,1.08091 4.43825,0 z" />
  <path
     style="fill:url(#linearGradient844);fill-opacity:1;stroke-width:0.345176"
     id="path8"
     d="m 78.51288,74.49201 c 0.61207,-0.539 0.91956,-1.246749 0.91956,-1.954201 0,-0.707749 -0.30749,-1.415201 -0.91956,-1.954201 -1.22747,-1.080577 -3.21116,-1.080577 -4.43828,0 l -25.11077,22.11257 c -1.22747,1.080932 -1.22747,2.827794 0,3.908404 1.22747,1.080898 3.21117,1.080898 4.43825,0 z" />
  <path
     d="M 93.022679,175.4805 H 57.82265 c -1.4019,0 -2.53845,1.13622 -2.53845,2.53845 0,1.40226 1.13655,2.53849 2.53845,2.53849 h 35.200029 c 1.4019,0 2.53845,-1.13623 2.53845,-2.53849 0,-1.40223 -1.13655,-2.53845 -2.53845,-2.53845 z"
     id="path4-3"
     style="fill:url(#linearGradient858);fill-opacity:1;stroke-width:0.338462" />
  <path
     d="m 200.47775,175.3368 h -35.20003 c -1.4019,0 -2.53845,1.13623 -2.53845,2.53846 0,1.40226 1.13655,2.53848 2.53845,2.53848 h 35.20003 c 1.4019,0 2.53845,-1.13622 2.53845,-2.53848 0,-1.40223 -1.13655,-2.53846 -2.53845,-2.53846 z"
     id="path6-6"
     style="fill:url(#linearGradient866);fill-opacity:1;stroke-width:0.338462" />
  <g
     serif:id="new"
     id="g8"
     transform="matrix(0.74038446,0,0,0.74038447,113.16156,157.41511)"
     style="fill:url(#linearGradient1267);fill-opacity:1">
    <g
       transform="matrix(0.666667,0,0,0.666667,6.66667,6.66667)"
       id="g6"
       style="fill:url(#linearGradient911);fill-opacity:1">
      <circle
         cx="23"
         cy="23"
         r="15"
         id="circle4"
         style="fill:url(#linearGradient909);fill-opacity:1" />
    </g>
  </g>
</svg>
