<?xml version="1.0" encoding="UTF-8" standalone="no"?>
<svg
   width="32"
   height="32"
   version="1.1"
   id="svg30"
   sodipodi:docname="accessories.svg"
   inkscape:version="1.3.2 (091e20ef0f, 2023-11-25)"
   xmlns:inkscape="http://www.inkscape.org/namespaces/inkscape"
   xmlns:sodipodi="http://sodipodi.sourceforge.net/DTD/sodipodi-0.dtd"
   xmlns="http://www.w3.org/2000/svg"
   xmlns:svg="http://www.w3.org/2000/svg">
  <sodipodi:namedview
     id="namedview32"
     pagecolor="#ffffff"
     bordercolor="#000000"
     borderopacity="1"
     inkscape:showpageshadow="false"
     inkscape:pageopacity="0"
     inkscape:pagecheckerboard="false"
     inkscape:deskcolor="#d1d1d1"
     showgrid="false"
     inkscape:zoom="7.375"
     inkscape:cx="-10.847458"
     inkscape:cy="8.0677966"
     inkscape:window-width="1920"
     inkscape:window-height="994"
     inkscape:window-x="0"
     inkscape:window-y="0"
     inkscape:window-maximized="1"
     inkscape:current-layer="svg30">
    <inkscape:grid
       type="xygrid"
       id="grid515"
       originx="-32"
       originy="-21.999998"
       spacingy="1"
       spacingx="1"
       units="px"
       visible="false" />
  </sodipodi:namedview>
  <defs
     id="defs5">
    <style
       id="current-color-scheme"
       type="text/css">.ColorScheme-Background { color:#181818; }
.ColorScheme-ButtonBackground { color:#343434; }
.ColorScheme-Highlight { color:#4285f4; }
.ColorScheme-Text { color:#d1d5e9; }
.ColorScheme-ViewBackground { color:#242424; }
.ColorScheme-NegativeText { color:#f44336; }
.ColorScheme-PositiveText { color:#4caf50; }
.ColorScheme-NeutralText { color:#ff9800; }
</style>
  </defs>
  <g
     id="accessories-dictionary"
     transform="translate(-32)">
    <rect
       style="opacity:0.00100002;fill:#d1d5e9;fill-opacity:1"
       width="32"
       height="32"
       x="0"
       y="0"
       id="rect18" />
    <path
       fill-rule="evenodd"
       clip-rule="evenodd"
       d="m 28.027825,23.619604 -9.570319,3.912125 C 17.694644,27.832401 16.867544,28 16.000281,28 15.125762,28 14.291237,27.830646 13.524437,27.524654 L 3.9774625,23.622717 C 3.1024938,23.172955 2.5,22.262904 2.5,21.206931 V 10.793126 8.981399 c 0,-0.500591 0.4038751,-0.905637 0.9,-0.905637 0.4974751,0 0.9003938,0.405046 0.9003938,0.905637 v 0.736283 1.075444 10.286903 c 0,0.326765 0.177525,0.606267 0.4359374,0.765433 l 9.1893378,3.912634 c 0.0202,0.008 0.03735,0.01194 0.05754,0.02032 0.619595,0.263993 1.301627,0.409857 2.017069,0.409857 0.710832,0 1.388476,-0.144109 2.005426,-0.404989 0.0202,-0.0088 0.0378,-0.01324 0.05799,-0.02123 l 9.199405,-3.916596 c 0.258413,-0.159166 0.436838,-0.438668 0.436838,-0.765433 V 14.415164 13.33972 12.603437 c 0,-0.499685 0.403425,-0.904731 0.9,-0.904731 0.497476,0 0.9,0.405046 0.9,0.904731 v 1.81167 6.791767 c 5.6e-5,1.054275 -0.600243,1.960817 -1.472117,2.41273 z M 28.600001,9.887489 c -0.496576,0 -0.9,-0.406405 -0.9,-0.90609 0,-0.500591 0.403424,-0.905637 0.9,-0.905637 0.497474,0 0.899999,0.405046 0.899999,0.905637 0,0.499685 -0.402525,0.90609 -0.899999,0.90609 z m -4.354032,11.108485 -4.245131,1.77986 v -0.0013 c -0.115144,0.05219 -0.24255,0.08139 -0.3762,0.08139 -0.509738,0 -0.924582,-0.41614 -0.924582,-0.929976 0,-0.397971 0.248738,-0.734075 0.597656,-0.868053 l 4.324164,-1.904101 C 23.902224,19.001647 24.1,18.70805 24.1,18.362663 V 6.505048 c 0,-0.249842 -0.201263,-0.452818 -0.449999,-0.452818 -0.06502,0 -0.127463,0.01415 -0.184556,0.03934 V 6.090665 L 17.379082,8.771293 C 17.096088,8.92344 16.900957,9.217036 16.900957,9.561065 v 10.740174 1.811274 c 0,1.000276 -0.806626,1.811727 -1.800676,1.811727 -0.249187,0 -0.485156,-0.05083 -0.701381,-0.143261 L 7.7491938,20.992918 c -0.9698625,-0.41348 -1.6488,-1.377927 -1.6488,-2.501935 V 5.81167 c 0,-1.000276 0.8064,-1.81167 1.8,-1.81167 0.2451938,0 0.477225,0.04998 0.6912562,0.140147 l 4.130381,1.731238 c 0.339244,0.143261 0.578306,0.48112 0.578306,0.874223 0,0.524024 -0.421875,0.948485 -0.941737,0.948485 -0.157331,0 -0.303637,-0.0429 -0.433744,-0.110997 L 8.5354,6.090663 c -0.0013,0 0,9.05e-4 -0.0013,9.05e-4 -0.056249,-0.02519 -0.1177874,-0.03934 -0.1832625,-0.03934 -0.2496375,0 -0.45045,0.202976 -0.45045,0.452818 V 18.36272 c 0,0.345387 0.1968751,0.638983 0.478575,0.79113 l 6.0868125,2.679723 c 9e-4,0 0,-9.06e-4 9e-4,-9.06e-4 0.05535,0.02519 0.118238,0.03934 0.183713,0.03934 0.248287,0 0.45,-0.20207 0.45,-0.452818 V 9.887489 9.434218 c 0,-1.125877 0.680287,-2.092475 1.651218,-2.503747 L 23.408398,4.140147 C 23.622823,4.04998 23.854911,4 24.100105,4 c 0.994049,0 1.8009,0.811394 1.8009,1.81167 v 12.679256 c -5.7e-5,1.12582 -0.683888,2.092474 -1.655044,2.505048 z"
       id="path1"
       style="fill:currentColor;fill-opacity:1;stroke-width:0.0564258"
       class="ColorScheme-Text" />
  </g>
  <g
     id="22-22-accessories-dictionary"
     transform="translate(-32,-21.999999)">
    <rect
       style="opacity:0.00100002;fill:#d1d5e9;fill-opacity:1"
       width="22"
       height="22"
       x="0"
       y="0"
       id="rect4" />
    <path
       fill-rule="evenodd"
       clip-rule="evenodd"
       d="M 19.018319,16.079783 12.63819,18.68782 c -0.508565,0.200448 -1.059957,0.312183 -1.638123,0.312183 -0.583006,0 -1.139349,-0.112896 -1.6505417,-0.316888 L 2.9849614,16.081857 C 2.4016571,15.782019 2,15.175324 2,14.471346 V 7.528907 6.321108 C 2,5.987382 2.2692467,5.71736 2.599992,5.71736 c 0.3316454,0 0.6002543,0.270022 0.6002543,0.603748 v 0.490844 0.716955 6.857838 c 0,0.217848 0.1183484,0.40418 0.290621,0.510289 l 6.1261422,2.608385 c 0.013473,0.0058 0.024895,0.008 0.038358,0.01356 0.4130585,0.175994 0.8677415,0.273234 1.3446965,0.273234 0.473879,0 0.925636,-0.09608 1.336932,-0.269991 0.0135,-0.0064 0.02521,-0.0086 0.03867,-0.0141 l 6.13285,-2.611029 c 0.172277,-0.106112 0.291225,-0.292449 0.291225,-0.510285 V 9.943623 9.226673 8.735826 c 0,-0.33312 0.268944,-0.603148 0.599991,-0.603148 0.331639,0 0.599994,0.270028 0.599994,0.603148 v 1.207768 4.527776 c 3.8e-5,0.702846 -0.400157,1.307193 -0.981398,1.608465 z m 0.381447,-9.154626 c -0.331048,0 -0.599994,-0.27093 -0.599994,-0.604049 0,-0.333726 0.268946,-0.603748 0.599994,-0.603748 0.331644,0 0.599993,0.270022 0.599993,0.603748 0,0.333119 -0.268349,0.604049 -0.599993,0.604049 z m -2.902651,7.405554 -2.830049,1.186559 v -0.0013 c -0.07675,0.03476 -0.1617,0.0542 -0.250795,0.0542 -0.339819,0 -0.61638,-0.277422 -0.61638,-0.619975 0,-0.265313 0.165822,-0.489378 0.398434,-0.578694 l 2.882738,-1.269383 c 0.186893,-0.101429 0.318743,-0.297157 0.318743,-0.52741 V 4.669747 c 0,-0.166558 -0.134174,-0.301873 -0.299993,-0.301873 -0.04342,0 -0.08501,0.0091 -0.123035,0.02627 V 4.393548 L 11.919253,6.18062 c -0.18866,0.101457 -0.318746,0.297183 -0.318746,0.526534 v 7.160019 1.207495 c 0,0.666844 -0.537743,1.207804 -1.200433,1.207804 -0.166123,0 -0.323434,-0.03393 -0.467581,-0.09549 L 5.4994153,14.328497 C 4.8528491,14.052838 4.4002303,13.409891 4.4002303,12.660561 V 4.207796 c 0,-0.666838 0.5375927,-1.207757 1.1999835,-1.207757 0.1634603,0 0.3181455,0.03328 0.4608309,0.09346 l 2.7535504,1.15415 c 0.2261597,0.09548 0.385532,0.320742 0.385532,0.582801 0,0.349353 -0.2812462,0.632316 -0.6278159,0.632316 -0.104886,0 -0.2024221,-0.02854 -0.2891589,-0.07404 L 6.0235457,4.393815 c -8.247e-4,0 0,5.95e-4 -8.247e-4,5.95e-4 C 5.985219,4.37763 5.9442,4.36812 5.9005479,4.36812 c -0.1664228,0 -0.3002958,0.135314 -0.3002958,0.301873 v 7.905008 c 0,0.23026 0.1312483,0.425987 0.3190454,0.527417 l 4.0578205,1.786459 c 6e-4,0 0,-6.06e-4 6e-4,-6.06e-4 0.03689,0.01677 0.07882,0.02627 0.122473,0.02627 0.165522,0 0.299996,-0.134709 0.299996,-0.301873 V 6.924976 6.622795 c 0,-0.750571 0.453523,-1.394971 1.100797,-1.66914 L 15.938786,3.09346 C 16.081736,3.03337 16.236456,3 16.399918,3 c 0.662689,0 1.200584,0.540917 1.200584,1.207757 v 8.452727 c -4.3e-5,0.75054 -0.455918,1.394965 -1.103348,1.670006 z"
       id="path1-3"
       style="fill:currentColor;fill-opacity:1;stroke-width:0.0376173"
       class="ColorScheme-Text" />
  </g>
  <g
     id="accessories-calculator">
    <rect
       style="opacity:0.00100002;fill:#d1d5e9;fill-opacity:1"
       width="32"
       height="32"
       x="0"
       y="0"
       id="rect25" />
    <path
       d="m 7.8851893,10.67882 h 1.500063 v 1.500064 c 0,0.449996 0.299923,0.749919 0.7499187,0.749919 0.449997,0 0.749919,-0.299923 0.749919,-0.749919 V 10.67882 h 1.500063 c 0.449997,0 0.74992,-0.299922 0.74992,-0.749919 0,-0.449996 -0.299923,-0.749919 -0.74992,-0.749919 H 10.88509 V 7.678919 C 10.88509,7.228922 10.585168,6.929 10.135171,6.929 9.6851753,6.929 9.3852523,7.228922 9.3852523,7.678919 v 1.500063 h -1.500063 c -0.449997,0 -0.74992,0.299923 -0.74992,0.749919 0,0.449997 0.299923,0.749919 0.74992,0.749919 z"
       id="path1724"
       style="fill:currentColor;fill-opacity:1;stroke-width:0.0562496"
       class="ColorScheme-Text" />
    <path
       d="m 11.275065,21.347032 1.349989,-1.349989 c 0.299923,-0.299923 0.299923,-0.749919 0,-1.050067 -0.299922,-0.299923 -0.749919,-0.299923 -1.050066,0 l -1.34999,1.349989 -1.3499887,-1.349989 c -0.299923,-0.299923 -0.749919,-0.299923 -1.0500671,0 -0.299923,0.299923 -0.299923,0.749919 0,1.050067 l 1.3499892,1.349989 -1.3499891,1.34999 c -0.299923,0.299922 -0.299923,0.749919 0,1.050066 0.150074,0.150074 0.3750721,0.224999 0.5249211,0.224999 0.150074,0 0.3750719,-0.07493 0.5249209,-0.224999 l 1.3499887,-1.349989 1.34999,1.349989 c 0.150073,0.150074 0.375072,0.224999 0.52492,0.224999 0.150074,0 0.375073,-0.07493 0.524921,-0.224999 0.299923,-0.299922 0.299923,-0.749919 0,-1.050066 z"
       id="path1726"
       style="fill:currentColor;fill-opacity:1;stroke-width:0.0562496"
       class="ColorScheme-Text" />
    <path
       d="m 19.878919,10.749838 h 3.750046 c 0.449996,0 0.749919,-0.299922 0.749919,-0.7499188 0,-0.449996 -0.299923,-0.749919 -0.749919,-0.749919 h -3.750046 c -0.449996,0 -0.749919,0.299923 -0.749919,0.749919 -2.25e-4,0.4499968 0.299923,0.7499188 0.749919,0.7499188 z"
       id="path1728"
       style="fill:currentColor;fill-opacity:1;stroke-width:0.0562496"
       class="ColorScheme-Text" />
    <path
       d="m 24.064063,22.300001 h -3.750128 c -0.450006,0 -0.749935,0.299954 -0.749935,0.75 0,0.450045 0.299929,0.75 0.749935,0.75 h 3.750128 c 0.450007,0 0.749937,-0.299955 0.749937,-0.75 2.25e-4,-0.450046 -0.29993,-0.75 -0.749937,-0.75 z"
       id="path1730"
       style="fill:currentColor;fill-opacity:1;stroke-width:0.0562533"
       class="ColorScheme-Text" />
    <path
       d="m 24.063964,20.250001 h -3.750045 c -0.449997,0 -0.749919,0.299923 -0.749919,0.749919 0,0.449997 0.299922,0.74992 0.749919,0.74992 h 3.750045 c 0.449997,0 0.74992,-0.299923 0.74992,-0.74992 2.25e-4,-0.449996 -0.299923,-0.749919 -0.74992,-0.749919 z"
       id="path1732"
       style="fill:currentColor;fill-opacity:1;stroke-width:0.0562496"
       class="ColorScheme-Text" />
    <path
       d="m 25.000071,28 h -5.249954 c -0.413812,0 -0.750375,-0.336183 -0.750375,-0.75 0,-0.414562 0.336563,-0.75 0.750375,-0.75 h 4.874954 c 1.035655,0 1.874999,-0.839342 1.874999,-1.875 v -4.874947 c 0,-0.414569 0.335437,-0.750752 0.75,-0.750752 0.414563,0 0.75,0.336183 0.75,0.750752 v 5.249948 C 28.00007,26.656752 26.656818,28 25.000071,28 Z M 4.750074,11.500333 c 0.414562,0 0.750189,0.335438 0.750189,0.749956 0,0.413431 -0.335627,0.749247 -0.750189,0.749247 -0.414374,0 -0.749999,-0.335816 -0.749999,-0.749247 0,-0.414518 0.335625,-0.749956 0.749999,-0.749956 z m 23.222146,3.390702 c -0.01024,0.08055 -0.0227,0.160785 -0.0396,0.238785 -0.0083,0.03803 -0.01902,0.07393 -0.02852,0.111326 -0.0168,0.06524 -0.0337,0.131109 -0.05492,0.194807 -0.0083,0.02782 -0.01976,0.05573 -0.0301,0.08349 -0.02704,0.07322 -0.05418,0.145733 -0.08714,0.215722 -0.0074,0.01831 -0.01717,0.0359 -0.02603,0.05416 -0.03664,0.07614 -0.07578,0.151967 -0.118265,0.224105 -0.0092,0.01501 -0.01754,0.02968 -0.02704,0.04466 -0.04616,0.07474 -0.09483,0.147749 -0.147231,0.218813 -0.0074,0.0094 -0.01542,0.0205 -0.02234,0.03003 -0.05677,0.07393 -0.116114,0.146491 -0.179059,0.214596 -0.0055,0.0059 -0.01098,0.01251 -0.01615,0.01758 -0.06812,0.07393 -0.140631,0.144276 -0.216055,0.210937 -0.528794,0.465091 -1.220197,0.75 -1.979713,0.75 v 0.03803 c -0.121219,-0.0242 -0.24684,-0.03803 -0.375,-0.03803 h -5.249952 c -1.035611,0 -1.874953,0.839338 -1.874953,1.874948 v 5.249956 c 0,0.128156 0.0139,0.254156 0.03844,0.374997 h -0.03844 c 0,0.759515 -0.284531,1.450924 -0.750003,1.979715 -0.06665,0.07545 -0.136969,0.14794 -0.210935,0.216048 -0.0055,0.0055 -0.0117,0.01026 -0.01724,0.01611 -0.0685,0.06303 -0.140998,0.122296 -0.214964,0.178687 -0.0094,0.0073 -0.02053,0.01537 -0.03004,0.0227 -0.07104,0.05198 -0.143908,0.101064 -0.218812,0.147231 -0.01501,0.0094 -0.02948,0.01831 -0.04452,0.02709 -0.07235,0.04247 -0.147937,0.08125 -0.224295,0.117938 -0.01831,0.0089 -0.0359,0.01832 -0.05419,0.02634 -0.06997,0.03294 -0.142265,0.06005 -0.215532,0.08714 -0.02782,0.01026 -0.05573,0.0212 -0.08345,0.03005 -0.06367,0.0212 -0.129656,0.03804 -0.19481,0.05492 -0.03753,0.0094 -0.07323,0.0205 -0.111515,0.02853 -0.07783,0.01683 -0.1582,0.02933 -0.238593,0.03956 -0.02236,0.004 -0.04281,0.0073 -0.06594,0.0094 -0.106732,0.0125 -0.215671,0.01831 -0.325359,0.01831 H 7.00036 c -1.656891,4.9e-5 -3.000321,-1.343201 -3.000321,-2.99995 v -7.499752 c 0,-1.656941 1.34343,-3.000191 3.000321,-3.000191 h 0.75019 4.874389 c 1.035843,0 1.874998,-0.839341 1.874998,-1.875001 V 7.374894 c 0,-1.035609 -0.839155,-1.874957 -1.874998,-1.874957 H 7.374984 c -1.035608,0 -1.87481,0.839348 -1.87481,1.874957 V 9.249891 C 5.500174,9.664074 5.16455,9.99989 4.749988,9.99989 4.335627,9.999954 4,9.664144 4,9.249955 v -2.24962 c 5.1e-5,-1.65708 1.343481,-3.000328 3.000372,-3.000328 h 6.000144 c 0.109688,0 0.217169,0.0059 0.323715,0.01724 0.0247,0.0028 0.04856,0.0089 0.07321,0.0121 0.07871,0.01026 0.156753,0.02236 0.233817,0.03885 0.03569,0.0073 0.0692,0.01832 0.104903,0.02709 0.06778,0.01683 0.134389,0.03371 0.199779,0.05573 0.02693,0.0089 0.054,0.02018 0.08106,0.02968 0.07311,0.02709 0.147238,0.05492 0.217877,0.08754 0.01902,0.0089 0.03824,0.01724 0.05731,0.02709 0.07475,0.03549 0.148684,0.07474 0.220262,0.116812 0.01519,0.0094 0.03021,0.01832 0.04541,0.02782 0.07474,0.04612 0.147932,0.09449 0.218762,0.147236 0.0094,0.0069 0.02065,0.01503 0.03021,0.02236 0.07393,0.05639 0.146301,0.116114 0.214779,0.178688 0.0059,0.0059 0.0119,0.01135 0.0174,0.01613 0.07393,0.06847 0.143906,0.140624 0.210753,0.21642 0.465464,0.528799 0.750183,1.220203 0.750183,1.979669 h 0.03829 c -0.02475,0.120845 -0.03829,0.246469 -0.03829,0.374625 v 5.624581 c 0,1.657123 -1.343435,3.000372 -2.999626,3.000372 H 7.374904 c -1.035608,0 -1.874818,0.839533 -1.874818,1.875187 v 6.749903 c 0,1.035658 0.839159,1.875002 1.874818,1.875002 h 6.750321 c 1.035611,0 1.874813,-0.839344 1.874813,-1.875002 v -5.625701 c 0,-1.656702 1.343296,-2.999393 2.999624,-2.999393 h 5.625282 c 1.035655,0 1.875,-0.838968 1.875,-1.874623 v -6.75033 c 0,-1.035608 -0.839345,-1.874948 -1.875,-1.874948 h -6.374531 c -0.414188,0 -0.750375,-0.335442 -0.750375,-0.75 C 17.500137,4.335437 17.836324,4 18.250512,4 h 6.749531 c 1.656747,0 2.999999,1.343248 2.999999,3.000328 v 7.499573 c 0,0.109499 -0.0064,0.218624 -0.01837,0.325221 -0.0018,0.02304 -0.0056,0.04392 -0.0095,0.06594 z"
       id="path2"
       style="fill:currentColor;fill-opacity:1;stroke-width:0.0468752"
       class="ColorScheme-Text " />
  </g>
  <g
     id="22-22-accessories-calculator"
     transform="translate(0,-21.999999)">
    <rect
       style="opacity:0.00100002;fill:#d1d5e9;fill-opacity:1"
       width="22"
       height="22"
       x="0"
       y="0"
       id="rect13" />
    <path
       d="M 5.590111,7.452296 H 6.59016 v 1.000056 c 0,0.300001 0.199956,0.499951 0.499958,0.499951 0.300001,0 0.499943,-0.19995 0.499943,-0.499951 V 7.452296 h 1.000061 c 0.3,0 0.499945,-0.199951 0.499945,-0.499953 0,-0.3 -0.199945,-0.499953 -0.499945,-0.499953 H 7.590061 V 5.452336 c 0,-0.300001 -0.199942,-0.499952 -0.499943,-0.499952 -0.300002,0 -0.499958,0.199951 -0.499958,0.499952 V 6.45239 H 5.590111 c -0.300001,0 -0.499958,0.199953 -0.499958,0.499953 0,0.300002 0.199957,0.499953 0.499958,0.499953 z"
       id="path1724-6"
       style="fill:currentColor;fill-opacity:1;stroke-width:0.0375001"
       class="ColorScheme-Text " />
    <path
       d="m 7.850047,14.564528 0.900004,-0.900006 c 0.199952,-0.199952 0.199952,-0.499954 0,-0.700055 -0.199945,-0.199949 -0.499949,-0.199949 -0.700049,0 L 7.149998,13.864472 6.249994,12.964467 c -0.199954,-0.199949 -0.499954,-0.199949 -0.70005,0 -0.199955,0.19995 -0.199955,0.499951 0,0.700055 l 0.900004,0.900006 -0.900004,0.900002 c -0.199955,0.19995 -0.199955,0.499951 0,0.700051 0.100048,0.100051 0.250045,0.149997 0.349945,0.149997 0.100052,0 0.250058,-0.04998 0.349954,-0.149997 l 0.900004,-0.900002 0.900005,0.900002 c 0.100046,0.100051 0.250048,0.149997 0.349949,0.149997 0.100051,0 0.250054,-0.04998 0.349952,-0.149997 0.199952,-0.199952 0.199952,-0.499952 0,-0.700051 z"
       id="path1726-7"
       style="fill:currentColor;fill-opacity:1;stroke-width:0.0375001"
       class="ColorScheme-Text " />
    <path
       d="m 13.586021,7.499643 h 2.500065 c 0.299999,0 0.49995,-0.19995 0.49995,-0.499953 0,-0.300001 -0.199951,-0.499953 -0.49995,-0.499953 h -2.500065 c -0.300002,0 -0.499953,0.199952 -0.499953,0.499953 -1.49e-4,0.300003 0.199951,0.499953 0.499953,0.499953 z"
       id="path1728-5"
       style="fill:currentColor;fill-opacity:1;stroke-width:0.0375001"
       class="ColorScheme-Text " />
    <path
       d="m 16.37615,15.199844 h -2.500113 c -0.30001,0 -0.499962,0.199971 -0.499962,0.500004 0,0.300037 0.199952,0.500003 0.499962,0.500003 h 2.500113 c 0.30001,0 0.499966,-0.199966 0.499966,-0.500003 1.49e-4,-0.300033 -0.199956,-0.500004 -0.499966,-0.500004 z"
       id="path1730-3"
       style="fill:currentColor;fill-opacity:1;stroke-width:0.0375021"
       class="ColorScheme-Text " />
    <path
       d="m 16.376087,13.833164 h -2.500063 c -0.300002,0 -0.499949,0.199948 -0.499949,0.499948 0,0.300003 0.199947,0.499952 0.499949,0.499952 h 2.500063 c 0.300001,0 0.499953,-0.199949 0.499953,-0.499952 1.5e-4,-0.3 -0.199952,-0.499948 -0.499953,-0.499948 z"
       id="path1732-5"
       style="fill:currentColor;fill-opacity:1;stroke-width:0.0375001"
       class="ColorScheme-Text " />
    <path
       d="m 17.000167,18.999889 h -3.500015 c -0.275875,0 -0.500253,-0.22412 -0.500253,-0.500008 0,-0.276377 0.224378,-0.500007 0.500253,-0.500007 h 3.250009 c 0.690444,0 1.250017,-0.559567 1.250017,-1.25001 v -3.250007 c 0,-0.276383 0.223624,-0.500507 0.500005,-0.500507 0.276377,0 0.500007,0.224124 0.500007,0.500507 v 3.500005 c 0,1.10452 -0.895511,2.000027 -2.000023,2.000027 z M 3.500007,7.999978 c 0.276374,0 0.500129,0.223626 0.500129,0.499976 0,0.275625 -0.223755,0.499504 -0.500129,0.499504 C 3.223753,8.999458 3,8.775579 3,8.499954 3,8.223604 3.223753,7.999978 3.500007,7.999978 Z m 15.481616,2.260493 c -0.0073,0.05368 -0.01516,0.107193 -0.02641,0.159193 -0.0061,0.02532 -0.01262,0.04925 -0.01896,0.07425 -0.0112,0.04353 -0.0225,0.08737 -0.03656,0.12987 -0.0061,0.0185 -0.01321,0.0372 -0.02004,0.05563 -0.01805,0.04879 -0.03609,0.09714 -0.05812,0.143817 -0.0052,0.01216 -0.01148,0.0239 -0.0173,0.03608 -0.02447,0.05075 -0.05051,0.101316 -0.07888,0.149408 -0.0065,0.01002 -0.01172,0.01985 -0.01804,0.02973 -0.03081,0.04986 -0.06322,0.09849 -0.09816,0.145878 -0.0052,0.0067 -0.01032,0.0136 -0.01492,0.01999 -0.0378,0.04925 -0.07743,0.09766 -0.119373,0.143063 -0.004,0.0041 -0.0079,0.008 -0.01073,0.01176 -0.04545,0.04925 -0.09375,0.09619 -0.14404,0.140627 -0.352533,0.310065 -0.813472,0.500006 -1.319824,0.500006 v 0.02531 c -0.0808,-0.01619 -0.164562,-0.02531 -0.250004,-0.02531 h -3.5 c -0.690417,0 -1.249987,0.559567 -1.249987,1.249981 v 3.500014 c 0,0.08546 0.0092,0.16944 0.02564,0.249999 h -0.02564 c 0,0.506354 -0.189689,0.967295 -0.500005,1.319829 -0.04442,0.0503 -0.09132,0.09862 -0.140627,0.144031 -0.004,0.0041 -0.008,0.0073 -0.01153,0.01073 -0.04566,0.04205 -0.09399,0.08152 -0.143314,0.119133 -0.0067,0.0051 -0.01366,0.01029 -0.02,0.01514 -0.04734,0.0346 -0.09594,0.06744 -0.145875,0.09817 -0.01003,0.0067 -0.01968,0.01216 -0.02963,0.0181 -0.04827,0.02829 -0.09862,0.05412 -0.149534,0.07864 -0.01215,0.0064 -0.0239,0.01217 -0.03612,0.01754 -0.04668,0.02195 -0.09485,0.04005 -0.143688,0.05812 -0.0185,0.0073 -0.03718,0.01408 -0.05557,0.02003 -0.04243,0.0141 -0.08644,0.02535 -0.129876,0.03655 -0.02498,0.0067 -0.04883,0.0136 -0.07437,0.01897 -0.05191,0.01123 -0.105466,0.01961 -0.159063,0.02639 -0.01494,0.0029 -0.0285,0.0051 -0.04397,0.0067 C 10.145903,18.99584 10.073324,19 10.000198,19 H 5.000407 c -1.104611,3.6e-5 -2.000241,-0.895477 -2.000241,-1.999989 v -4.999892 c 0,-1.104642 0.89563,-2.000157 2.000241,-2.000157 h 0.500132 3.24963 c 0.690571,0 1.250016,-0.559567 1.250016,-1.250014 v -3.49999 c 0,-0.690417 -0.559445,-1.249997 -1.250016,-1.249997 h -3.50001 c -0.690414,0 -1.249892,0.55958 -1.249892,1.249997 v 1.250004 c 0,0.27613 -0.223752,0.500004 -0.500127,0.500004 C 3.223897,7.000012 3.000143,6.776131 3.000143,6.500005 V 5.000246 C 3.000175,3.895507 3.895806,3 5.000414,3 h 4.000143 c 0.07311,0 0.144782,0.0041 0.215813,0.01153 0.01648,0.0023 0.03241,0.0063 0.04879,0.0081 0.05244,0.0073 0.104504,0.01494 0.155882,0.02594 0.02374,0.0051 0.0461,0.01215 0.06992,0.01807 0.0452,0.01123 0.08959,0.02251 0.133188,0.0372 0.01799,0.0064 0.03603,0.01349 0.05399,0.01984 0.04877,0.01807 0.09817,0.03656 0.145256,0.05841 0.01262,0.0063 0.02544,0.01153 0.03815,0.01808 0.04987,0.02361 0.09912,0.04987 0.146843,0.07784 0.01017,0.0067 0.02009,0.01216 0.03021,0.0185 0.04986,0.03079 0.09861,0.06304 0.145839,0.09817 0.0067,0.0047 0.01373,0.01004 0.02012,0.01494 0.04924,0.03761 0.09753,0.07746 0.143188,0.119129 0.0041,0.0041 0.008,0.008 0.01165,0.01075 0.04924,0.0456 0.09593,0.09376 0.140502,0.144281 0.31031,0.352538 0.500129,0.81348 0.500129,1.319794 h 0.02549 c -0.01653,0.08061 -0.02549,0.164315 -0.02549,0.249754 v 3.749767 c 0,1.104765 -0.895635,2.000275 -1.999778,2.000275 H 5.249928 c -0.690417,0 -1.249892,0.559694 -1.249892,1.250139 v 4.49999 c 0,0.690446 0.559439,1.250014 1.249892,1.250014 h 4.500268 c 0.690412,0 1.24989,-0.559568 1.24989,-1.250014 v -3.750517 c 0,-1.104481 0.895543,-1.999615 1.999772,-1.999615 h 3.750211 c 0.690447,0 1.250015,-0.559324 1.250015,-1.2497638 V 5.250327 c 0,-0.690416 -0.559568,-1.249978 -1.250015,-1.249978 h -4.249732 c -0.27613,0 -0.500259,-0.223635 -0.500259,-0.500008 6.4e-5,-0.276469 0.224195,-0.500099 0.500322,-0.500099 h 4.499743 c 1.104513,0 2.000025,0.895508 2.000025,2.000245 v 4.999776 c 0,0.07296 -0.0042,0.14575 -0.0122,0.216817 -0.0018,0.01532 -0.0041,0.0293 -0.0068,0.04403 z"
       id="path2-6"
       style="fill:currentColor;fill-opacity:1;stroke-width:0.031251"
       class="ColorScheme-Text " />
  </g>
</svg>
