<?xml version="1.0" encoding="UTF-8" standalone="no"?>
<svg
   width="31.999998"
   height="31.999998"
   viewBox="0 0 8.466666 8.4666664"
   version="1.1"
   id="svg847"
   inkscape:version="1.1.2 (0a00cf5339, 2022-02-04)"
   sodipodi:docname="activities.svg"
   xmlns:inkscape="http://www.inkscape.org/namespaces/inkscape"
   xmlns:sodipodi="http://sodipodi.sourceforge.net/DTD/sodipodi-0.dtd"
   xmlns="http://www.w3.org/2000/svg"
   xmlns:svg="http://www.w3.org/2000/svg"
   xmlns:rdf="http://www.w3.org/1999/02/22-rdf-syntax-ns#"
   xmlns:cc="http://creativecommons.org/ns#"
   xmlns:dc="http://purl.org/dc/elements/1.1/">
  <style
     id="current-color-scheme"
     type="text/css">.ColorScheme-Text { color:#eff0f1; }
</style>
  <defs
     id="defs841" />
  <sodipodi:namedview
     id="base"
     pagecolor="#ffffff"
     bordercolor="#000000"
     borderopacity="1"
     inkscape:pageopacity="0.0"
     inkscape:pageshadow="2"
     inkscape:zoom="7.919596"
     inkscape:cx="18.182746"
     inkscape:cy="14.647212"
     inkscape:document-units="px"
     inkscape:current-layer="layer1"
     inkscape:document-rotation="0"
     showgrid="false"
     units="px"
     inkscape:window-width="1920"
     inkscape:window-height="1009"
     inkscape:window-x="0"
     inkscape:window-y="0"
     inkscape:window-maximized="1"
     inkscape:snap-bbox="true"
     inkscape:bbox-nodes="true"
     inkscape:showpageshadow="false"
     inkscape:lockguides="true"
     inkscape:pagecheckerboard="0">
    <inkscape:grid
       type="xygrid"
       id="grid1410"
       originx="5.9999999e-07"
       originy="0" />
  </sodipodi:namedview>
  <metadata
     id="metadata844">
    <rdf:RDF>
      <cc:Work
         rdf:about="">
        <dc:format>image/svg+xml</dc:format>
        <dc:type
           rdf:resource="http://purl.org/dc/dcmitype/StillImage" />
      </cc:Work>
    </rdf:RDF>
    <style
       id="style6" />
  </metadata>
  <g
     inkscape:label="Layer 1"
     inkscape:groupmode="layer"
     id="layer1">
    <g
       id="22-22-activities">
      <rect
         style="opacity:0.003;fill:#000000;stroke-width:0.363802"
         id="rect1430-3-7-5"
         width="5.8208323"
         height="5.8208323"
         x="8.4666681"
         y="2.6458333" />
      <path
         d="m 12.964701,7.6729167 h -2.116733 c -0.292365,0 -0.52925,-0.2369344 -0.52925,-0.5291667 v -0.1323 c 0,-0.073124 0.05917,-0.1322916 0.132292,-0.1322916 0.073,0 0.132358,0.059167 0.132358,0.1322916 v 0.1323 c 0,0.1461161 0.118343,0.2645172 0.264591,0.2645172 h 2.116733 c 0.146059,0 0.264592,-0.1184011 0.264592,-0.2645172 V 5.0270007 c 0,-0.1461162 -0.118533,-0.2644924 -0.264592,-0.2644924 h -2.116724 c -0.146249,0 -0.264592,0.1183762 -0.264592,0.2644924 v 1.256779 c 0,0.1827444 -0.148059,0.3307953 -0.330803,0.3307953 H 9.7894692 c -0.2921741,0 -0.5290511,-0.2369344 -0.5290511,-0.5293072 V 3.968659 c 0,-0.2922075 0.236877,-0.5290757 0.5290511,-0.5290757 h 1.9845738 c 0.07292,0 0.132291,0.059167 0.132291,0.1321594 0,0.073124 -0.05937,0.1322917 -0.132291,0.1322917 H 9.7894692 c -0.1461161,0 -0.2644601,0.1185333 -0.2644601,0.2646164 v 2.116617 c 0,0.1462484 0.118344,0.2646578 0.2644601,0.2646578 h 0.4300218 c 0.05491,0 0.09922,-0.044375 0.09922,-0.099219 V 5.0270005 c 0,-0.2921993 0.236877,-0.5290758 0.529249,-0.5290758 h 2.116733 c 0.292175,0 0.529051,0.2368682 0.529051,0.5290758 v 2.1167493 c 8e-6,0.2922323 -0.236868,0.5291667 -0.529042,0.5291667 z M 12.303093,3.968659 c -0.07293,0 -0.1323,-0.059167 -0.1323,-0.1322916 0,-0.072959 0.05937,-0.1323248 0.1323,-0.1323248 0.07312,0 0.132358,0.059366 0.132358,0.1323248 0,0.073124 -0.05923,0.1322916 -0.132358,0.1322916 z"
         id="path2-7"
         style="stroke-width:0.0082682;fill-opacity:1;fill:currentColor;"
         class="ColorScheme-Text" />
    </g>
    <g
       id="activities">
      <rect
         y="0"
         x="0"
         height="8.4666662"
         width="8.4666662"
         id="rect1430"
         style="opacity:0.003;fill:#000000;stroke-width:0.529167" />
      <path
         d="M 6.6147568,7.4083332 H 3.4396577 c -0.4385464,0 -0.7938744,-0.3554015 -0.7938744,-0.79375 V 6.4161333 c 0,-0.1096862 0.08875,-0.1984375 0.198438,-0.1984375 0.1095,0 0.1985366,0.088751 0.1985366,0.1984375 v 0.1984499 c 0,0.2191742 0.1775147,0.3967758 0.3968874,0.3967758 h 3.1750991 c 0.2190874,0 0.3968874,-0.1776016 0.3968874,-0.3967758 V 3.4394593 c 0,-0.2191743 -0.1778,-0.3967386 -0.3968874,-0.3967386 H 3.4396577 c -0.2193727,0 -0.3968874,0.1775643 -0.3968874,0.3967386 v 1.8851685 c 0,0.2741166 -0.222089,0.496193 -0.496205,0.496193 h -0.694656 c -0.438261,0 -0.793576,-0.3554016 -0.793576,-0.7939609 v -3.174913 c 0,-0.4383113 0.355315,-0.7936136 0.793576,-0.7936136 h 2.9768605 c 0.1093886,0 0.1984375,0.088751 0.1984375,0.1982391 0,0.1096863 -0.089049,0.1984375 -0.1984375,0.1984375 H 1.8519093 c -0.219174,0 -0.396689,0.1778 -0.396689,0.3969246 v 3.1749254 c 0,0.2193727 0.177515,0.3969867 0.396689,0.3969867 h 0.645034 c 0.08236,0 0.148828,-0.066563 0.148828,-0.1488281 V 3.4394593 c 0,-0.4382989 0.355315,-0.7936136 0.793874,-0.7936136 h 3.1750991 c 0.4382616,0 0.7935764,0.3553023 0.7935764,0.7936136 v 3.1751239 c 1.24e-5,0.4383485 -0.3553024,0.79375 -0.793564,0.79375 z M 5.622346,1.8519469 c -0.109401,0 -0.1984497,-0.088751 -0.1984497,-0.1984375 0,-0.1094383 0.089049,-0.1984871 0.1984497,-0.1984871 0.1096865,0 0.1985367,0.089049 0.1985367,0.1984871 0,0.1096863 -0.08885,0.1984375 -0.1985367,0.1984375 z"
         id="path2"
         style="stroke-width:0.0124023;fill-opacity:1;fill:currentColor;"
         class="ColorScheme-Text" />
    </g>
  </g>
</svg>
