<?xml version="1.0" encoding="UTF-8" standalone="no"?>
<svg
   width="32"
   height="32"
   version="1.1"
   id="svg12"
   sodipodi:docname="amarok.svg"
   inkscape:version="1.1.2 (0a00cf5339, 2022-02-04)"
   xmlns:inkscape="http://www.inkscape.org/namespaces/inkscape"
   xmlns:sodipodi="http://sodipodi.sourceforge.net/DTD/sodipodi-0.dtd"
   xmlns="http://www.w3.org/2000/svg"
   xmlns:svg="http://www.w3.org/2000/svg"
   xmlns:rdf="http://www.w3.org/1999/02/22-rdf-syntax-ns#"
   xmlns:cc="http://creativecommons.org/ns#"
   xmlns:dc="http://purl.org/dc/elements/1.1/">
  <style
     id="current-color-scheme"
     type="text/css">
.ColorScheme-Text { 
    color:#eceff4;
}
</style>
  <metadata
     id="metadata18">
    <rdf:RDF>
      <cc:Work
         rdf:about="">
        <dc:format>image/svg+xml</dc:format>
        <dc:type
           rdf:resource="http://purl.org/dc/dcmitype/StillImage" />
      </cc:Work>
    </rdf:RDF>
  </metadata>
  <defs
     id="defs16" />
  <sodipodi:namedview
     pagecolor="#ffffff"
     bordercolor="#000000"
     borderopacity="1"
     objecttolerance="10"
     gridtolerance="10"
     guidetolerance="10"
     inkscape:pageopacity="0"
     inkscape:pageshadow="2"
     inkscape:window-width="1920"
     inkscape:window-height="1009"
     id="namedview14"
     showgrid="false"
     inkscape:zoom="9.8125"
     inkscape:cx="15.184713"
     inkscape:cy="10.802548"
     inkscape:window-x="0"
     inkscape:window-y="0"
     inkscape:window-maximized="1"
     inkscape:current-layer="svg12"
     inkscape:document-rotation="0"
     inkscape:lockguides="false"
     inkscape:showpageshadow="false"
     inkscape:pagecheckerboard="0">
    <inkscape:grid
       type="xygrid"
       id="grid889"
       originx="32"
       originy="10.000001" />
  </sodipodi:namedview>
  <g
     id="amarok">
    <path
       style="opacity:0.00100002"
       d="M 0,0 V 32.000001 H 32 V 0 Z"
       id="path7" />
    <path
       d="m 23.499637,26.499999 c -2.485127,0 -4.499253,-2.013798 -4.499253,-4.499252 0,-2.485174 2.014173,-4.50005 4.499253,-4.50005 0.414563,0 0.75075,0.335063 0.75075,0.74925 0,0.414563 -0.336187,0.750751 -0.75075,0.750751 -1.656376,0 -3.000002,1.342548 -3.000002,3.000049 0,1.656376 1.343626,2.999251 3.000002,2.999251 1.657501,0 3.000377,-1.342875 3.000377,-2.999251 v -3.346831 -1.528219 -3.37594 c 0,-0.413438 0.335812,-0.749672 0.750375,-0.749672 0.414188,0 0.749625,0.336187 0.749625,0.749672 v 8.25099 c 0,2.485454 -2.014876,4.499252 -4.500377,4.499252 z m 2.438251,-14.527462 -12.191913,2.454377 c -0.426985,0.08972 -0.745595,0.464719 -0.745595,0.916641 v 8.157239 C 13.00038,25.986202 10.985457,28 8.500003,28 6.014876,28 4,25.986202 4,23.500748 4,22.258559 4.504282,21.133512 5.31836,20.319058 l 0.0029,0.0029 C 5.456401,20.18574 5.644979,20.10188 5.851511,20.10188 c 0.414562,0 0.75075,0.336188 0.75075,0.750376 0,0.216422 -0.09375,0.410531 -0.241688,0.5475 -0.531375,0.540188 -0.860578,1.282126 -0.860578,2.100986 0,1.656704 1.343626,2.999251 3.000002,2.999251 1.656751,0 3.000376,-1.342547 3.000376,-2.999251 v -3.346831 -1.153219 -3.575158 c 0,-1.181392 0.840095,-2.166518 1.956658,-2.389549 l 0.0011,-0.0011 0.250125,-0.05311 c 0.01462,-0.0018 0.02709,-0.0018 0.04177,-0.0048 l 12.000376,-2.578079 c 0.414188,-0.09084 0.749626,-0.500251 0.749626,-0.9148134 V 6.1094558 c 0,-0.414563 -0.335438,-0.676407 -0.749626,-0.586313 L 13.75002,8.1020188 c -0.414563,0.08972 -0.749626,0.499501 -0.749626,0.913688 v 1.7347512 c 0,0.413438 -0.336187,0.749626 -0.75075,0.749626 -0.414188,0 -0.749251,-0.336188 -0.749251,-0.749626 V 8.9318478 c 0,-1.094626 0.923204,-2.167642 2.062127,-2.397611 l 12.375382,-2.490939 c 1.138548,-0.22889 2.062126,0.472407 2.062126,1.567736 v 3.9638926 c 0,1.0953286 -0.923578,2.1687196 -2.062126,2.3976106 z M 8.500003,20.500699 c -0.414188,0 -0.750376,-0.336188 -0.750376,-0.750376 0,-0.414562 0.336188,-0.749625 0.750376,-0.749625 0.414563,0 0.749625,0.335063 0.749625,0.749625 0,0.414188 -0.335062,0.750376 -0.749625,0.750376 z"
       id="path2"
       style="stroke-width:0.046875;fill-opacity:1;fill:currentColor"
       class="ColorScheme-Text" />
  </g>
  <g
     id="22-22-amarok"
     transform="translate(32,10.000001)">
    <path
       style="opacity:0.00100002"
       d="M 0,0 V 22 H 22 V 0 Z"
       id="path4" />
    <path
       d="m 15.999758,18.000037 c -1.656751,0 -2.999502,-1.342532 -2.999502,-2.999502 0,-1.656783 1.342782,-3.000033 2.999502,-3.000033 0.276375,0 0.5005,0.223375 0.5005,0.4995 0,0.276375 -0.224125,0.5005 -0.5005,0.5005 -1.104251,0 -2.000001,0.895033 -2.000001,2.000033 0,1.104251 0.89575,1.999501 2.000001,1.999501 1.105001,0 2.000251,-0.89525 2.000251,-1.999501 V 12.769314 11.750502 9.4998751 c 0,-0.275625 0.223875,-0.499781 0.50025,-0.499781 0.276126,0 0.49975,0.224124 0.49975,0.499781 v 5.5006599 c 0,1.65697 -1.34325,2.999502 -3.000251,2.999502 z M 17.625259,8.3150621 9.4973167,9.951313 c -0.2846566,0.05981 -0.4970633,0.309813 -0.4970633,0.611094 v 5.43816 c 0,1.656938 -1.343282,2.99947 -3.0002514,2.99947 C 4.3432507,19.000037 3,17.657505 3,16.000536 3,15.17241 3.336188,14.422379 3.8789067,13.879409 l 0.00193,0.0019 c 0.090094,-0.09081 0.2158127,-0.146719 0.3535007,-0.146719 0.2763746,0 0.5005,0.224125 0.5005,0.500251 0,0.144281 -0.0625,0.273687 -0.1611254,0.365 -0.35425,0.360125 -0.5737187,0.85475 -0.5737187,1.400657 0,1.104469 0.8957508,1.999501 2.0000014,1.999501 1.1045007,0 2.0002507,-0.895032 2.0002507,-1.999501 v -2.231221 -0.768813 -2.383438 c 0,-0.7875949 0.5600633,-1.4443459 1.3044387,-1.5930329 l 7.333e-4,-7.33e-4 0.16675,-0.03541 c 0.00975,-0.0012 0.01806,-0.0012 0.027847,-0.0032 l 8.0002536,-1.718719 c 0.276125,-0.06056 0.499751,-0.333501 0.499751,-0.609876 v -2.249751 c 0,-0.276375 -0.223626,-0.450938 -0.499751,-0.390875 l -8.0002546,1.71925 c -0.2763753,0.05981 -0.4997507,0.333001 -0.4997507,0.609126 v 1.1565 c 0,0.275626 -0.2241246,0.499751 -0.5005,0.499751 -0.2761253,0 -0.4995007,-0.224125 -0.4995007,-0.499751 v -1.212406 c 0,-0.729751 0.6154694,-1.445095 1.3747514,-1.598408 l 8.2502546,-1.660626 c 0.759032,-0.152593 1.374751,0.314938 1.374751,1.045158 v 2.642594 c 0,0.73022 -0.615719,1.445814 -1.374751,1.598408 z M 6.000002,14.000503 c -0.2761253,0 -0.5002506,-0.224125 -0.5002506,-0.500251 0,-0.276374 0.2241253,-0.49975 0.5002506,-0.49975 0.2763754,0 0.49975,0.223376 0.49975,0.49975 0,0.276126 -0.2233746,0.500251 -0.49975,0.500251 z"
       id="path2-3"
       style="stroke-width:0.03125;fill-opacity:1;fill:currentColor"
       class="ColorScheme-Text" />
  </g>
</svg>
