<?xml version="1.0" encoding="UTF-8" standalone="no"?>
<svg
   width="32"
   height="32"
   version="1.1"
   id="svg12"
   sodipodi:docname="applications.svg"
   inkscape:version="1.1.2 (0a00cf5339, 2022-02-04)"
   xmlns:inkscape="http://www.inkscape.org/namespaces/inkscape"
   xmlns:sodipodi="http://sodipodi.sourceforge.net/DTD/sodipodi-0.dtd"
   xmlns="http://www.w3.org/2000/svg"
   xmlns:svg="http://www.w3.org/2000/svg"
   xmlns:rdf="http://www.w3.org/1999/02/22-rdf-syntax-ns#"
   xmlns:cc="http://creativecommons.org/ns#"
   xmlns:dc="http://purl.org/dc/elements/1.1/">
  <style id="current-color-scheme" type="text/css">.ColorScheme-Text { color:#eceff4; }
</style>
  <g
     id="22-22-applications-other"
     transform="translate(32,9.9999997)">
    <path
       style="clip-rule:evenodd;fill:#ffffc1;fill-opacity:0;fill-rule:evenodd;stroke-width:0.688964;stroke-linejoin:round;stroke-miterlimit:1.41421"
       d="M 0,0 V 22 H 22 V 0 Z"
       id="rect817-5"
       inkscape:connector-curvature="0" />
    <path
       d="m 18.500059,21.000011 h -4.374961 c -0.344844,0 -0.625313,-0.280156 -0.625313,-0.624999 0,-0.345469 0.280469,-0.625 0.625313,-0.625 h 4.062461 c 0.863046,0 1.5625,-0.699453 1.5625,-1.5625 v -4.06246 c 0,-0.345469 0.27953,-0.625625 0.625,-0.625625 0.345469,0 0.624999,0.280156 0.624999,0.625625 v 4.37496 c 0,1.380624 -1.119376,2.499999 -2.499999,2.499999 z M 1.625062,7.250288 c 0.345469,0 0.625156,0.279531 0.625156,0.624961 0,0.344531 -0.279687,0.624375 -0.625156,0.624375 -0.345312,0 -0.625,-0.279844 -0.625,-0.624375 0,-0.34543 0.279688,-0.624961 0.625,-0.624961 z m 19.351789,2.825585 c -0.0085,0.06715 -0.01892,0.133985 -0.033,0.198985 -0.0069,0.03172 -0.01585,0.06164 -0.02377,0.09277 -0.014,0.05434 -0.02808,0.109258 -0.04577,0.162344 -0.0069,0.0232 -0.01646,0.04641 -0.02508,0.06957 -0.02254,0.06102 -0.04515,0.121445 -0.07261,0.179765 -0.0062,0.01527 -0.01431,0.02992 -0.02169,0.04515 -0.03054,0.06348 -0.06315,0.126641 -0.09855,0.186758 -0.0077,0.0125 -0.01461,0.02472 -0.02254,0.03723 -0.03846,0.06226 -0.07902,0.123125 -0.122692,0.182344 -0.0062,0.0079 -0.01285,0.01711 -0.01861,0.02504 -0.04731,0.06164 -0.09676,0.12207 -0.149216,0.178828 -0.0046,0.0048 -0.0092,0.01039 -0.01346,0.01465 -0.05677,0.06164 -0.117192,0.120235 -0.180046,0.175782 -0.440662,0.387577 -1.016831,0.625 -1.649761,0.625 v 0.03172 c -0.101016,-0.02015 -0.2057,-0.03172 -0.3125,-0.03172 h -4.374961 c -0.863008,0 -1.562461,0.699452 -1.562461,1.56246 v 4.37496 c 0,0.106797 0.0116,0.211797 0.03203,0.3125 h -0.03203 c 0,0.632929 -0.237109,1.209101 -0.624999,1.649765 -0.05555,0.06285 -0.11414,0.123281 -0.175781,0.180039 -0.0042,0.0042 -0.0098,0.0085 -0.01434,0.01344 -0.05707,0.0525 -0.1175,0.101914 -0.17914,0.148906 -0.0079,0.0061 -0.01711,0.01281 -0.02504,0.01891 -0.05921,0.04332 -0.119921,0.08422 -0.182343,0.122695 -0.0125,0.0079 -0.02457,0.01527 -0.03711,0.02258 -0.06027,0.03539 -0.12328,0.06773 -0.186913,0.09828 -0.01527,0.0073 -0.02992,0.01528 -0.04515,0.02195 -0.05828,0.02746 -0.118555,0.05004 -0.179609,0.07262 -0.0232,0.0085 -0.04641,0.01769 -0.06957,0.02504 -0.05308,0.01769 -0.108046,0.03172 -0.162343,0.04579 -0.03128,0.0079 -0.06102,0.01711 -0.09293,0.02379 -0.06485,0.01402 -0.131836,0.02442 -0.198828,0.03297 -0.01863,0.0031 -0.0357,0.0061 -0.05492,0.0079 -0.08895,0.01039 -0.179727,0.01527 -0.271133,0.01527 H 3.500312 C 2.11957,20.999995 1.000039,19.88062 1.000039,18.499996 v -6.24992 c 0,-1.380781 1.119531,-2.500156 2.500273,-2.500156 h 0.625156 4.061991 c 0.863203,0 1.562499,-0.699453 1.562499,-1.562499 V 3.81246 C 9.749958,2.949453 9.050662,2.25 8.187459,2.25 h -4.37496 c -0.863007,0 -1.562343,0.699453 -1.562343,1.56246 v 1.5625 c 0,0.345156 -0.279688,0.625 -0.625156,0.625 C 1.279688,5.99996 1,5.720116 1,5.37496 V 3.500273 C 1.000039,2.119375 2.11957,1 3.500312,1 h 5.000116 c 0.09141,0 0.180976,0.0045 0.269765,0.01434 0.02058,0.0022 0.04043,0.0073 0.06102,0.01008 0.06562,0.0086 0.130625,0.01863 0.194843,0.03235 0.02976,0.0061 0.05769,0.01528 0.08742,0.02258 0.05645,0.01402 0.111991,0.02808 0.166484,0.04641 0.02242,0.0073 0.045,0.0168 0.06758,0.02472 0.0609,0.02258 0.122696,0.04578 0.181563,0.07293 0.01586,0.0073 0.03188,0.01434 0.04778,0.02258 0.06227,0.02961 0.123907,0.06226 0.183555,0.09734 0.01265,0.0079 0.02519,0.01528 0.03785,0.0232 0.06226,0.03844 0.123281,0.07875 0.182304,0.122695 0.0079,0.0058 0.01722,0.0125 0.02519,0.01863 0.06164,0.04699 0.121913,0.09676 0.178983,0.148906 0.0045,0.0045 0.0099,0.0095 0.01449,0.01344 0.06164,0.05707 0.119922,0.117188 0.175625,0.180352 0.38789,0.440663 0.625156,1.016836 0.625156,1.649725 h 0.03191 c -0.02062,0.100703 -0.03191,0.205391 -0.03191,0.312188 v 4.687147 c 0,1.3809378 -1.119531,2.500312 -2.4996871,2.500312 h -4.68785 c -0.863007,0 -1.562343,0.69961 -1.562343,1.562656 v 5.624921 c 0,0.863046 0.699297,1.562499 1.562343,1.562499 h 5.625272 c 0.8630081,0 1.5623431,-0.699453 1.5623431,-1.562499 v -4.68807 c 0,-1.380585 1.119415,-2.499491 2.499687,-2.499491 h 4.687735 c 0.863046,0 1.5625,-0.69914 1.5625,-1.562187 V 3.812482 c 0,-0.863007 -0.699454,-1.56246 -1.5625,-1.56246 h -5.312109 c -0.345157,0 -0.625313,-0.279532 -0.625313,-0.625 0,-0.345469 0.280156,-0.625 0.625313,-0.625 h 5.624609 c 1.380623,0 2.499999,1.119375 2.499999,2.500272 v 6.249647 c 0,0.09125 -0.0054,0.182188 -0.01531,0.271016 -0.0015,0.01922 -0.0046,0.0366 -0.0079,0.05492 z"
       id="path2-7"
       style="stroke-width:0.0390625;fill-opacity:1;fill:currentColor;"
       class="ColorScheme-Text" />
  </g>
  <g
     id="applications-other">
    <path
       style="clip-rule:evenodd;fill:#ffffc1;fill-opacity:0;fill-rule:evenodd;stroke-width:1.00213;stroke-linejoin:round;stroke-miterlimit:1.41421"
       d="M 0,0 V 32 H 32 V 0 Z"
       id="rect817"
       inkscape:connector-curvature="0" />
    <path
       d="m 25.750083,29.000007 h -5.687451 c -0.448297,0 -0.812907,-0.364203 -0.812907,-0.8125 0,-0.449109 0.36461,-0.8125 0.812907,-0.8125 h 5.281201 c 1.12196,0 2.03125,-0.909289 2.03125,-2.03125 v -5.281199 c 0,-0.44911 0.36339,-0.813313 0.8125,-0.813313 0.44911,0 0.8125,0.364203 0.8125,0.813313 v 5.687449 c 0,1.794812 -1.45519,3.25 -3.25,3.25 z M 3.812581,11.125362 c 0.449109,0 0.812703,0.363391 0.812703,0.81245 0,0.44789 -0.363594,0.811687 -0.812703,0.811687 -0.448906,0 -0.8125,-0.363797 -0.8125,-0.811687 0,-0.449059 0.363594,-0.81245 0.8125,-0.81245 z m 25.157332,3.673262 c -0.0111,0.08729 -0.0246,0.17418 -0.0429,0.25868 -0.009,0.04123 -0.0206,0.08013 -0.0309,0.120605 -0.0182,0.07064 -0.0365,0.142036 -0.0595,0.211047 -0.009,0.03016 -0.0214,0.06033 -0.0326,0.09044 -0.0293,0.07932 -0.0587,0.157879 -0.0944,0.233695 -0.008,0.01985 -0.0186,0.0389 -0.0282,0.0587 -0.0397,0.08252 -0.0821,0.164633 -0.12812,0.242785 -0.01,0.01625 -0.019,0.03214 -0.0293,0.0484 -0.05,0.08094 -0.10273,0.160062 -0.1595,0.237047 -0.008,0.01031 -0.0167,0.02224 -0.0242,0.03255 -0.0615,0.08013 -0.12579,0.158692 -0.19398,0.232477 -0.006,0.0063 -0.0119,0.01351 -0.0175,0.01904 -0.0738,0.08013 -0.15235,0.156305 -0.23406,0.228516 -0.57286,0.503851 -1.32188,0.8125 -2.14469,0.8125 v 0.04123 c -0.13132,-0.0262 -0.26741,-0.04123 -0.40625,-0.04123 h -5.68745 c -1.121911,0 -2.0312,0.909289 -2.0312,2.031199 v 5.687449 c 0,0.138836 0.01508,0.275336 0.04164,0.40625 h -0.04164 c 0,0.822809 -0.308242,1.571832 -0.8125,2.144695 -0.07221,0.08171 -0.148382,0.160266 -0.228515,0.234051 -0.0055,0.0055 -0.0127,0.01112 -0.01864,0.01747 -0.07419,0.06825 -0.15275,0.132488 -0.232883,0.193578 -0.01031,0.0079 -0.02224,0.01666 -0.03255,0.02458 -0.07698,0.05632 -0.155898,0.109484 -0.237046,0.159504 -0.01625,0.01031 -0.03194,0.01985 -0.04824,0.02935 -0.07835,0.04601 -0.160265,0.08805 -0.242988,0.127765 -0.01985,0.0095 -0.0389,0.01986 -0.0587,0.02854 -0.07577,0.0357 -0.154121,0.06505 -0.233492,0.0944 -0.03016,0.01112 -0.06033,0.023 -0.09044,0.03255 -0.06901,0.023 -0.140461,0.04124 -0.211047,0.05952 -0.04067,0.01031 -0.07932,0.02224 -0.120808,0.03093 -0.0843,0.01823 -0.171387,0.03174 -0.258477,0.04286 -0.02422,0.004 -0.04641,0.0079 -0.0714,0.01031 -0.115629,0.01351 -0.233645,0.01985 -0.352473,0.01985 H 6.2504061 c -1.7949651,5e-5 -3.2503551,-1.455138 -3.2503551,-3.24995 v -8.124898 c 0,-1.795016 1.45539,-3.250204 3.2503551,-3.250204 h 0.812703 5.2805899 c 1.122164,0 2.03125,-0.909289 2.03125,-2.031249 v -5.68745 c 0,-1.12191 -0.909086,-2.031199 -2.03125,-2.031199 H 6.6562501 c -1.1219101,0 -2.0310471,0.909289 -2.0310471,2.031199 v 2.0312499 c 0,0.448703 -0.363594,0.8125 -0.812703,0.8125 C 3.363594,9.4999559 3,9.1361589 3,8.6874559 V 6.250362 C 3.000051,4.455195 4.455441,3.000007 6.2504061,3.000007 h 6.5001529 c 0.118828,0 0.235269,0.0059 0.350695,0.01864 0.02676,0.0028 0.05256,0.0095 0.07932,0.0131 0.08531,0.01112 0.169813,0.02422 0.253297,0.04205 0.03869,0.0079 0.075,0.01986 0.113649,0.02935 0.07338,0.01823 0.145589,0.03651 0.216429,0.06033 0.02915,0.0095 0.0585,0.02184 0.08785,0.03214 0.07917,0.02935 0.159504,0.05952 0.236031,0.09481 0.02062,0.0095 0.04144,0.01864 0.06211,0.02935 0.08095,0.03849 0.161079,0.08094 0.238622,0.126546 0.01645,0.01031 0.03275,0.01986 0.04921,0.03016 0.08094,0.04997 0.160265,0.102374 0.236996,0.159503 0.01031,0.0075 0.02239,0.01625 0.03275,0.02422 0.08013,0.06109 0.158488,0.125785 0.232679,0.193578 0.0059,0.0059 0.0129,0.01229 0.01884,0.01747 0.08013,0.07419 0.155899,0.152344 0.228313,0.234457 0.504257,0.572863 0.812703,1.321887 0.812703,2.144644 h 0.04149 c -0.02681,0.130914 -0.04149,0.267008 -0.04149,0.405844 v 6.093293 c 0,1.795219 -1.455391,3.250406 -3.249594,3.250406 H 6.6562501 c -1.1219101,0 -2.0310471,0.909493 -2.0310471,2.031454 v 7.312398 c 0,1.121961 0.909086,2.03125 2.0310471,2.03125 h 7.3128549 c 1.121911,0 2.031047,-0.909289 2.031047,-2.03125 v -6.094512 c 0,-1.794761 1.455239,-3.24934 3.249594,-3.24934 h 6.094057 c 1.12196,0 2.03125,-0.908882 2.03125,-2.030843 V 6.656199 c 0,-1.12191 -0.90929,-2.031199 -2.03125,-2.031199 H 18.438059 C 17.989355,4.625 17.625152,4.261609 17.625152,3.8125 17.625152,3.363391 17.989355,3 18.438059,3 h 7.311994 c 1.79481,0 3.25,1.455188 3.25,3.250355 v 8.124543 c 0,0.118625 -0.007,0.236844 -0.0199,0.352321 -0.002,0.02498 -0.006,0.04758 -0.0103,0.0714 z"
       id="path2"
       style="stroke-width:0.0507812;fill-opacity:1;fill:currentColor;opacity:1;"
       class="ColorScheme-Text" />
  </g>
  <metadata
     id="metadata18">
    <rdf:RDF>
      <cc:Work
         rdf:about="">
        <dc:format>image/svg+xml</dc:format>
        <dc:type
           rdf:resource="http://purl.org/dc/dcmitype/StillImage" />
      </cc:Work>
    </rdf:RDF>
  </metadata>
  <defs
     id="defs16" />
  <sodipodi:namedview
     pagecolor="#ffffff"
     bordercolor="#000000"
     borderopacity="1"
     objecttolerance="10"
     gridtolerance="10"
     guidetolerance="10"
     inkscape:pageopacity="0"
     inkscape:pageshadow="2"
     inkscape:window-width="1920"
     inkscape:window-height="1015"
     id="namedview14"
     showgrid="false"
     inkscape:zoom="5.6568545"
     inkscape:cx="25.013901"
     inkscape:cy="24.395183"
     inkscape:window-x="0"
     inkscape:window-y="0"
     inkscape:window-maximized="1"
     inkscape:current-layer="svg12"
     inkscape:document-rotation="0"
     inkscape:showpageshadow="false"
     inkscape:pagecheckerboard="0"
     inkscape:lockguides="false">
    <inkscape:grid
       type="xygrid"
       id="grid851"
       originx="0"
       originy="0" />
  </sodipodi:namedview>
</svg>
