<?xml version="1.0" encoding="UTF-8" standalone="no"?>
<svg
   width="32"
   height="32"
   version="1.1"
   id="svg12"
   sodipodi:docname="audacious.svg"
   inkscape:version="1.1.2 (0a00cf5339, 2022-02-04)"
   xmlns:inkscape="http://www.inkscape.org/namespaces/inkscape"
   xmlns:sodipodi="http://sodipodi.sourceforge.net/DTD/sodipodi-0.dtd"
   xmlns="http://www.w3.org/2000/svg"
   xmlns:svg="http://www.w3.org/2000/svg"
   xmlns:rdf="http://www.w3.org/1999/02/22-rdf-syntax-ns#"
   xmlns:cc="http://creativecommons.org/ns#"
   xmlns:dc="http://purl.org/dc/elements/1.1/">
  <style
     id="current-color-scheme"
     type="text/css">
.ColorScheme-Text { 
    color:#eceff4;
}
</style>
  <metadata
     id="metadata18">
    <rdf:RDF>
      <cc:Work
         rdf:about="">
        <dc:format>image/svg+xml</dc:format>
        <dc:type
           rdf:resource="http://purl.org/dc/dcmitype/StillImage" />
      </cc:Work>
    </rdf:RDF>
  </metadata>
  <defs
     id="defs16" />
  <sodipodi:namedview
     pagecolor="#ffffff"
     bordercolor="#000000"
     borderopacity="1"
     objecttolerance="10"
     gridtolerance="10"
     guidetolerance="10"
     inkscape:pageopacity="0"
     inkscape:pageshadow="2"
     inkscape:window-width="1920"
     inkscape:window-height="1009"
     id="namedview14"
     showgrid="false"
     inkscape:zoom="6.9384853"
     inkscape:cx="27.095251"
     inkscape:cy="8.5032968"
     inkscape:window-x="0"
     inkscape:window-y="0"
     inkscape:window-maximized="1"
     inkscape:current-layer="svg12"
     inkscape:lockguides="true"
     inkscape:document-rotation="0"
     inkscape:showpageshadow="false"
     inkscape:pagecheckerboard="0">
    <inkscape:grid
       type="xygrid"
       id="grid882"
       originx="-1e-06"
       originy="0" />
  </sodipodi:namedview>
  <g
     id="audacious">
    <rect
       style="opacity:0.00100002"
       width="32"
       height="32"
       x="0"
       y="0"
       id="rect7" />
    <path
       d="m 20.724999,9.7 v 2.1735 C 19.570531,10.552075 17.891581,9.7 15.999999,9.7 c -3.479168,0 -6.3000001,2.820825 -6.3000001,6.3 0,3.479175 2.8208321,6.3 6.3000001,6.3 1.891582,0 3.570532,-0.852075 4.725,-2.1735 V 22.3 h 1.575 V 9.7 Z m -4.725,9.45 c -1.7388,0 -3.15,-1.4112 -3.15,-3.15 0,-1.7388 1.4112,-3.15 3.15,-3.15 1.737232,0 3.15,1.4112 3.15,3.15 0,1.7388 -1.412768,3.15 -3.15,3.15 z"
       id="path4-3"
       style="fill:currentColor;fill-opacity:1;stroke-width:1.575"
       class="ColorScheme-Text" />
    <path
       d="m 15.999688,27.99995 h -0.75 c -0.414563,0 -0.749954,-0.336187 -0.749954,-0.75 0,-0.414562 0.335391,-0.75 0.749954,-0.75 h 0.75 c 5.798859,0 10.499812,-4.701375 10.499812,-10.500094 0,-5.798531 -4.700953,-10.499906 -10.499812,-10.499906 -5.798484,0 -10.499859,4.701375 -10.499859,10.499906 0,3.435141 1.657125,6.476203 4.206983,8.391469 l -0.0076,0.01095 c 0.181274,0.13704 0.300665,0.352331 0.300665,0.597675 0,0.413766 -0.335439,0.75 -0.75,0.75 -0.168845,0 -0.322266,-0.05859 -0.447891,-0.152344 l -0.0018,0.0029 C 5.885922,23.411407 4,19.925829 4,15.999906 4,9.37225 9.372203,4 15.999813,4 22.626672,4 28,9.37225 28,15.999906 28,22.627047 22.626672,28 15.999813,28 Z m -3.749579,-1.5 c 0.413438,0 0.74925,0.335438 0.74925,0.75 0,0.413813 -0.335812,0.75 -0.74925,0.75 -0.414562,0 -0.75,-0.336187 -0.75,-0.75 0,-0.414562 0.335438,-0.75 0.75,-0.75 z M 26.4995,15.999856 v 0 0 0 0 0 l 0.0662,-0.01523 -0.06322,0.01455 0.0114,-0.01275 0.0012,0.0075 0.05654,-0.02776 -0.0822,0.02895 0.02914,0.0048 0.0098,0.0013 -0.02889,-0.0013 v 0 l 0.0191,-4.6e-5 0.0098,0.0013 0.0373,-0.01652 z"
       id="path2"
       sodipodi:nodetypes="ssssssssccssccssssssssscccccccccccccccccccc"
       style="fill:currentColor;fill-opacity:1;stroke-width:0.046875;enable-background:new"
       class="ColorScheme-Text" />
  </g>
  <g
     inkscape:groupmode="layer"
     id="layer1"
     inkscape:label="ColorScheme-Text" />
  <g
     id="22-22-audacious"
     transform="translate(32,10.000001)">
    <rect
       style="opacity:0.00100002"
       width="22"
       height="22"
       x="0"
       y="0"
       id="rect2" />
    <path
       d="m 14.150033,6.800033 v 1.449 c -0.769645,-0.88095 -1.888945,-1.449 -3.15,-1.449 -2.319445,0 -4.2,1.88055 -4.2,4.2 0,2.31945 1.880555,4.2 4.2,4.2 1.261055,0 2.380355,-0.56805 3.15,-1.449 v 1.449 h 1.05 v -8.4 z m -3.15,6.3 c -1.1592,0 -2.1,-0.9408 -2.1,-2.1 0,-1.1592003 0.9408,-2.1 2.1,-2.1 1.158155,0 2.1,0.9407997 2.1,2.1 0,1.1592 -0.941845,2.1 -2.1,2.1 z"
       id="path4-3-3"
       style="fill:currentColor;fill-opacity:1;stroke-width:1.05"
       class="ColorScheme-Text" />
    <path
       d="m 10.999826,19 h -0.5 c -0.276375,0 -0.499969,-0.224125 -0.499969,-0.5 0,-0.276375 0.223594,-0.5 0.499969,-0.5 h 0.5 c 3.865906,0 6.999875,-3.13425 6.999875,-7.000063 C 17.999701,7.13425 14.865732,4 10.999826,4 7.13417,4 3.99992,7.13425 3.99992,10.999937 c 0,2.290094 1.10475,4.317469 2.804655,5.594313 l -0.0051,0.0073 C 6.920324,16.69291 6.999918,16.836437 6.999918,17 c 0,0.275844 -0.223626,0.5 -0.5,0.5 -0.112563,0 -0.214844,-0.03906 -0.298594,-0.101563 l -0.0012,0.0019 C 4.257281,15.940938 3,13.617219 3,10.999937 3,6.5815 6.581469,3 10.999875,3 15.417781,3 19,6.5815 19,10.999937 19,15.418031 15.417781,19 10.999875,19 Z M 8.500107,18 c 0.275625,0 0.4995,0.223625 0.4995,0.5 0,0.275875 -0.223875,0.5 -0.4995,0.5 -0.276375,0 -0.5,-0.224125 -0.5,-0.5 0,-0.276375 0.223625,-0.5 0.5,-0.5 z m 9.499594,-7.000063 v 0 0 0 0 0 l 0.04413,-0.01015 -0.04215,0.0097 0.0076,-0.0085 8e-4,0.005 0.03769,-0.01851 -0.0548,0.0193 0.01943,0.0032 0.0065,8.67e-4 -0.01926,-8.67e-4 v 0 l 0.01273,-3.1e-5 0.0065,8.67e-4 0.02487,-0.01101 z"
       id="path2-6"
       sodipodi:nodetypes="ssssssssccssccssssssssscccccccccccccccccccc"
       style="fill:currentColor;fill-opacity:1;stroke-width:0.03125;enable-background:new"
       class="ColorScheme-Text" />
  </g>
</svg>
