<?xml version="1.0" encoding="UTF-8" standalone="no"?>
<svg
   id="svg50"
   width="32"
   height="32"
   version="1.1"
   sodipodi:docname="audio.svg"
   inkscape:version="1.1.2 (0a00cf5339, 2022-02-04)"
   xmlns:inkscape="http://www.inkscape.org/namespaces/inkscape"
   xmlns:sodipodi="http://sodipodi.sourceforge.net/DTD/sodipodi-0.dtd"
   xmlns="http://www.w3.org/2000/svg"
   xmlns:svg="http://www.w3.org/2000/svg"
   xmlns:rdf="http://www.w3.org/1999/02/22-rdf-syntax-ns#"
   xmlns:cc="http://creativecommons.org/ns#"
   xmlns:dc="http://purl.org/dc/elements/1.1/">
  <style
     id="current-color-scheme"
     type="text/css">
.ColorScheme-Text { 
    color:#eceff4;
}
</style>
  <g
     id="22-22-audio-volume-high"
     transform="translate(0,-22)">
    <path
       style="opacity:0.00100002"
       d="M 0,0 H 22 V 22 H 0 Z"
       id="path7" />
    <path
       d="m 18.778262,18.542333 -0.0043,-0.0045 c -0.124867,0.125 -0.297778,0.201833 -0.490795,0.201833 -0.379677,0 -0.686822,-0.298834 -0.686822,-0.666667 0,-0.197917 0.09032,-0.373042 0.229971,-0.494792 1.729492,-1.686925 2.799041,-4.011175 2.799041,-6.578759 0,-1.456084 -0.353508,-2.828126 -0.966811,-4.056042 l 0.0075,-0.0033 c -0.03895,-0.08429 -0.06178,-0.176125 -0.06178,-0.274084 0,-0.368167 0.308174,-0.666 0.68785,-0.666 0.278958,0 0.516964,0.161125 0.625077,0.39225 l 0.0052,-0.0026 c 0.690522,1.3952 1.07759,2.958701 1.07759,4.609743 0,2.945875 -1.231676,5.612543 -3.222012,7.542918 z M 18.563073,4.999705 c -0.380021,0 -0.687854,-0.298833 -0.687854,-0.666375 0,-0.368166 0.307833,-0.667 0.687854,-0.667 0.378988,0 0.687164,0.298834 0.687164,0.667 0,0.367542 -0.308176,0.666375 -0.687164,0.666375 z m -2.656366,10.666252 c -0.126545,0.145834 -0.312516,0.240251 -0.524011,0.240251 -0.37899,0 -0.687166,-0.298834 -0.687166,-0.666667 0,-0.181625 0.0752,-0.345709 0.196714,-0.465501 l -0.0027,-0.0026 c 0.994998,-0.9655 1.610362,-2.298875 1.610362,-3.772 0,-1.462917 -0.608274,-2.786792 -1.591885,-3.751001 -0.136299,-0.122083 -0.223226,-0.294583 -0.223226,-0.488625 0,-0.3675 0.308177,-0.666333 0.687166,-0.666333 0.190354,0 0.3612,0.07487 0.486069,0.195624 l 0.0037,-0.0033 c 1.243704,1.206367 2.013456,2.872742 2.013456,4.713576 0,1.817542 -0.75265,3.463417 -1.96851,4.666542 z M 10.312616,19 C 10.166606,19 10.023905,18.98437 9.88593,18.95637 9.325309,18.87175 8.787204,18.628246 8.354803,18.208954 l -1.363589,-1.322291 0.0054,-0.0052 c -0.121165,-0.1198 -0.196361,-0.283842 -0.196361,-0.464841 0,-0.368501 0.307145,-0.666667 0.687166,-0.666667 0.186658,0 0.355828,0.07292 0.479709,0.190749 l 0.0037,-0.0033 1.369647,1.328833 c 0.21618,0.209625 0.487101,0.327458 0.766745,0.366542 0.06542,0.02019 0.13293,0.03385 0.20542,0.03385 0.380021,0 0.687165,-0.298833 0.687165,-0.666667 V 4.999705 c 0,-0.3685 -0.307144,-0.666375 -0.687165,-0.666375 -0.07081,0 -0.137287,0.01367 -0.201741,0.03254 C 9.829235,4.40362 9.557325,4.523079 9.340459,4.733371 L 5.628639,8.332706 H 2.750037 c -0.759698,0 -1.375019,0.597667 -1.375019,1.333334 v 2.666542 c 0,0.737 0.615321,1.334042 1.375019,1.334042 h 0.687166 c 0.380021,0 0.688196,0.298166 0.688196,0.666667 0,0.367833 -0.308175,0.666667 -0.688196,0.666667 H 2.750037 C 1.230685,14.999958 0,13.805958 0,12.332582 V 9.66604 C 0,8.193706 1.230685,6.999373 2.750037,6.999373 H 5.045201 L 8.354829,3.790663 C 8.787186,3.372705 9.325334,3.127913 9.885955,3.04358 10.02393,3.01529 10.16663,3 10.31264,3 c 1.138687,0 2.062185,0.8955 2.062185,1.999708 V 17 c 0,1.104166 -0.923498,2 -2.062184,2 z M 5.843805,13.99929 c 0.38002,0 0.687165,0.298834 0.687165,0.667334 0,0.368501 -0.307145,0.666 -0.687165,0.666 -0.379677,0 -0.687853,-0.297541 -0.687853,-0.666 0,-0.368458 0.308176,-0.667334 0.687853,-0.667334 z"
       id="path2-3-9"
       style="fill:currentColor;fill-opacity:1;stroke-width:0.042313"
       class="ColorScheme-Text" />
  </g>
  <metadata
     id="metadata67">
    <rdf:RDF>
      <cc:Work
         rdf:about="">
        <dc:format>image/svg+xml</dc:format>
        <dc:type
           rdf:resource="http://purl.org/dc/dcmitype/StillImage" />
      </cc:Work>
    </rdf:RDF>
  </metadata>
  <defs
     id="defs65" />
  <sodipodi:namedview
     pagecolor="#ffffff"
     bordercolor="#000000"
     borderopacity="1"
     objecttolerance="10"
     gridtolerance="10"
     guidetolerance="10"
     inkscape:pageopacity="0"
     inkscape:pageshadow="2"
     inkscape:window-width="1920"
     inkscape:window-height="1009"
     id="namedview63"
     showgrid="false"
     inkscape:zoom="4.9062498"
     inkscape:cx="59.108283"
     inkscape:cy="14.471338"
     inkscape:window-x="0"
     inkscape:window-y="0"
     inkscape:window-maximized="1"
     inkscape:current-layer="svg50"
     inkscape:document-rotation="0"
     inkscape:lockguides="false"
     inkscape:showpageshadow="true"
     inkscape:pagecheckerboard="0">
    <inkscape:grid
       type="xygrid"
       id="grid902"
       originx="96.000003"
       originy="0" />
  </sodipodi:namedview>
  <g
     id="audio-volume-high">
    <path
       style="opacity:0.00100002"
       d="M 0,0 H 32.000001 V 32.000001 H 0 Z"
       id="path2" />
    <path
       d="m 27.3135,27.3135 -0.0064,-0.0068 c -0.181625,0.1875 -0.433125,0.302749 -0.713875,0.302749 -0.55225,0 -0.999,-0.44825 -0.999,-1 0,-0.296875 0.131375,-0.559562 0.3345,-0.742187 C 28.444312,23.336875 30,19.8505 30,15.999125 30,13.815 29.485813,11.756937 28.59375,9.915063 L 28.605,9.910163 C 28.54837,9.783725 28.51513,9.645975 28.51513,9.499037 c 0,-0.55225 0.44825,-0.999 1.0005,-0.999 0.40575,0 0.751937,0.241688 0.909188,0.588375 l 0.0078,-0.0039 C 31.437,11.177312 32,13.522562 32,15.999125 32,20.417937 30.2085,24.417937 27.3135,27.3135 Z M 27.0005,6.999562 C 26.44775,6.999562 26,6.551312 26,6 26,5.44775 26.44775,4.9995 27.0005,4.9995 27.55175,4.9995 28,5.44775 28,6 28,6.551312 27.55175,6.999562 27.0005,6.999562 Z m -3.86375,15.999375 c -0.184063,0.21875 -0.454563,0.360376 -0.762188,0.360376 -0.55125,0 -0.9995,-0.448251 -0.9995,-1 0,-0.272438 0.109375,-0.518563 0.286125,-0.698251 l -0.0039,-0.0039 c 1.44725,-1.44825 2.342313,-3.448312 2.342313,-5.657999 0,-2.194376 -0.88475,-4.180188 -2.315438,-5.626501 -0.19825,-0.183125 -0.324687,-0.441874 -0.324687,-0.732937 0,-0.55125 0.44825,-0.9995 0.9995,-0.9995 0.276875,0 0.525375,0.112312 0.707,0.293437 l 0.0054,-0.0049 C 24.880375,10.738313 26,13.237875 26,15.999125 c 0,2.726312 -1.09475,5.195125 -2.86325,6.999812 z M 15,28 C 14.787625,28 14.580063,27.97656 14.379375,27.93456 13.563938,27.807623 12.78125,27.442373 12.152312,26.813435 L 10.168937,24.83 l 0.0078,-0.0078 C 10.0005,24.6425 9.891125,24.396437 9.891125,24.124938 c 0,-0.552751 0.44675,-1 0.9995,-1 0.2715,0 0.517562,0.109375 0.69775,0.286124 l 0.0054,-0.0049 1.992187,1.99325 c 0.314438,0.314437 0.7085,0.491187 1.11525,0.549812 0.09516,0.03028 0.19335,0.05078 0.298788,0.05078 0.55275,0 0.9995,-0.44825 0.9995,-1 V 6.999562 C 15.9995,6.446812 15.55275,6 15,6 14.897,6 14.800313,6.0205 14.706563,6.04881 14.296875,6.10543 13.901375,6.284623 13.585938,6.600061 L 8.187,11.999063 H 4 c -1.105,0 -2,0.896499 -2,2 v 3.999812 c 0,1.1055 0.895,2.001063 2,2.001063 h 0.9995 c 0.55275,0 1.001,0.447249 1.001,1 0,0.551749 -0.44825,1 -1.001,1 H 4 c -2.209937,0 -4,-1.791 -4,-4.001063 v -3.999812 c 0,-2.208501 1.790063,-4 4,-4 H 7.338375 L 12.152313,5.186 C 12.781188,4.559062 13.563938,4.191875 14.379375,4.065375 14.580063,4.022937 14.787625,4 15,4 c 1.65625,0 2.9995,1.34325 2.9995,2.999562 V 25 c 0,1.65625 -1.34325,3 -2.9995,3 z M 8.5,20.498937 c 0.55275,0 0.9994998,0.44825 0.9994998,1.001001 0,0.55275 -0.4467498,0.998999 -0.9994998,0.998999 -0.55225,0 -1.0005,-0.446312 -1.0005,-0.998999 0,-0.552688 0.44825,-1.001001 1.0005,-1.001001 z"
       id="path2-3"
       style="fill:currentColor;fill-opacity:1;stroke-width:0.0625"
       class="ColorScheme-Text" />
  </g>
  <g
     id="audio-volume-muted"
     transform="translate(0,-22)">
    <path
       style="opacity:0.00100002"
       d="M 96.000003,22 H 128 V 54.000001 H 96.000003 Z"
       id="path45" />
    <path
       d="m 123.25004,27.503902 c -0.41386,0 -0.7493,-0.336421 -0.7493,-0.749765 0,-0.414422 0.33544,-0.750094 0.7493,-0.750094 0.41456,0 0.75,0.335719 0.75,0.750094 0,0.413344 -0.33544,0.749765 -0.75,0.749765 z m -1.7678,2.077922 -1.91386,1.913532 c -0.71629,0.680578 -1.8494,0.67214 -2.5522,-0.03038 -0.297,-0.296907 -0.46584,-0.669938 -0.51637,-1.055063 v -1.407234 c 0,-0.828094 -0.67088,-1.498782 -1.4993,-1.498782 v -0.0033 c -0.38527,-0.0018 -0.77124,0.143532 -1.06463,0.43786 l -4.67479,4.672358 c -0.005,0.0048 -0.01,0.0073 -0.015,0.01247 -0.54272,0.542156 -1.29277,0.878625 -2.12114,0.878625 h -2.62514 c -0.82838,0 -1.50043,0.670687 -1.50043,1.499484 v 5.997985 c 0,0.828093 0.672,1.498781 1.50043,1.498781 h 2.62509 c 0.82837,0 1.57842,0.336094 2.12114,0.878625 0.0278,0.02742 0.0553,0.04866 0.0831,0.06881 l 4.599,4.597313 c 0.27244,0.278953 0.65081,0.453984 1.07231,0.453984 0.82842,0 1.4993,-0.671765 1.4993,-1.499859 V 35.469582 c 0,-0.20686 -0.16734,-0.37486 -0.37425,-0.37486 -0.10655,0 -0.20363,0.04467 -0.27174,0.116063 -0.002,0.0015 0.003,-0.0044 0.002,-0.0044 l -5.95033,5.948582 c -0.13622,0.135093 -0.32301,0.219281 -0.53067,0.219281 -0.41381,0 -0.74925,-0.336422 -0.74925,-0.749719 0,-0.206859 0.0831,-0.39539 0.21938,-0.530437 l 6.09867,-6.096469 c 0.32447,-0.304969 0.75914,-0.495703 1.2404,-0.495703 1.00304,0 1.81608,0.812718 1.81608,1.815797 v 11.679342 c 0,1.656187 -1.34292,2.998641 -2.99934,2.998641 V 50 c -0.76683,0 -1.53483,-0.2925 -2.12006,-0.877922 l -4.69828,-4.69725 c -0.27061,-0.263953 -0.63835,-0.426844 -1.04555,-0.426844 H 104.5 c -1.6568,0 -2.99972,-1.342781 -2.99972,-2.99864 v -5.997985 c 0,-1.656937 1.34292,-2.999344 2.99972,-2.999344 h 2.63681 c 0.40725,0 0.77494,-0.162937 1.04555,-0.426843 L 112.88064,26.8775 C 113.46587,26.2925 114.23382,26 115.0007,26 v 0.004 c 1.65642,0 2.99934,1.342781 2.99934,2.99864 v 1.074469 c 0.001,7.5e-4 0.003,-0.0018 0.003,0.0015 0.0103,0.08091 0.0454,0.158906 0.10767,0.220406 0.14649,0.146063 0.38344,0.146063 0.53063,0 0.003,-0.0026 0.004,-7.5e-4 0.006,-0.0026 l 1.7744,-1.774406 c 0.006,-0.0059 0.0128,-0.0077 0.0187,-0.0128 0.13697,-0.155578 0.33619,-0.256266 0.56068,-0.256266 0.41381,0 0.75037,0.336047 0.75037,0.749766 0,0.223688 -0.10036,0.422109 -0.25561,0.559734 -0.006,0.0058 -0.007,0.0135 -0.0128,0.01936 z m -17.73243,15.915657 c 0.41456,0 0.75,0.335344 0.75,0.749765 0,0.206813 -0.0842,0.394266 -0.21975,0.530438 l -2.95139,2.949937 c -0.005,0.0048 -0.0128,0.0066 -0.018,0.01172 -0.13772,0.156327 -0.33619,0.256265 -0.56067,0.256265 -0.41456,0 -0.75,-0.335344 -0.75,-0.749719 0,-0.223688 0.1,-0.422859 0.25561,-0.559734 0.005,-0.0059 0.007,-0.0128 0.0125,-0.01866 l 2.94736,-2.945575 c 0.13622,-0.137672 0.32484,-0.224437 0.53433,-0.224437 z"
       id="path2-7-5"
       style="fill:currentColor;fill-opacity:1;stroke-width:0.046875"
       class="ColorScheme-Text" />
  </g>
  <g
     id="22-22-audio-volume-muted"
     transform="translate(0,-22)">
    <path
       style="opacity:0.00100002"
       d="M 96.000003,0 H 118 V 22 H 96.000003 Z"
       id="path26" />
    <path
       d="m 114.50003,4.002601 c -0.27591,0 -0.49953,-0.22428 -0.49953,-0.499843 0,-0.276281 0.22362,-0.500063 0.49953,-0.500063 0.27637,0 0.5,0.223813 0.5,0.500063 0,0.275563 -0.22363,0.499843 -0.5,0.499843 z m -1.17853,1.385282 -1.27591,1.275688 c -0.47753,0.453718 -1.23293,0.448093 -1.70147,-0.02025 -0.198,-0.197938 -0.31056,-0.446625 -0.34424,-0.703375 V 5.00179 c 0,-0.552063 -0.44726,-0.999188 -0.99954,-0.999188 v -0.0022 c -0.25684,-0.0012 -0.51416,0.09569 -0.70975,0.291907 l -3.11653,3.114905 c -0.003,0.0032 -0.007,0.0049 -0.01,0.0083 -0.36181,0.361438 -0.86184,0.58575 -1.41409,0.58575 h -1.75009 c -0.55226,0 -1.00029,0.447125 -1.00029,0.999657 v 3.998656 c 0,0.552062 0.448,0.999188 1.00029,0.999188 h 1.75006 c 0.55224,0 1.05228,0.224062 1.41409,0.58575 0.0185,0.01828 0.0369,0.03244 0.0554,0.04587 l 3.066,3.064875 c 0.18163,0.185969 0.43387,0.302656 0.71487,0.302656 0.55228,0 0.99954,-0.447843 0.99954,-0.999906 V 9.313046 c 0,-0.137907 -0.11156,-0.249907 -0.2495,-0.249907 -0.071,0 -0.13576,0.02978 -0.18116,0.07737 -0.001,10e-4 0.002,-0.0029 10e-4,-0.0029 l -3.96689,3.965721 c -0.0908,0.09006 -0.21534,0.146188 -0.35378,0.146188 -0.27587,0 -0.4995,-0.224282 -0.4995,-0.499813 0,-0.137906 0.0554,-0.263593 0.14625,-0.353625 l 4.06578,-4.064312 c 0.21632,-0.203313 0.5061,-0.330469 0.82694,-0.330469 0.66869,0 1.21072,0.541812 1.21072,1.210531 v 7.786228 c 0,1.104125 -0.89528,1.999094 -1.99956,1.999094 v 0.0029 c -0.51122,0 -1.02322,-0.195 -1.41338,-0.585281 l -3.13215,-3.131522 c -0.18041,-0.175969 -0.42557,-0.284563 -0.69703,-0.284563 H 102 c -1.10453,0 -1.99981,-0.895187 -1.99981,-1.999093 V 9.000906 c 0,-1.104625 0.89528,-1.999563 1.99981,-1.999563 h 1.75788 c 0.2715,0 0.51662,-0.108624 0.69703,-0.284562 L 107.5871,3.585 C 107.97725,3.195 108.48922,3 109.00047,3 v 0.0027 c 1.10428,0 1.99956,0.895187 1.99956,1.999093 v 0.716313 c 6.7e-4,5e-4 0.002,-0.0012 0.002,0.001 0.007,0.05394 0.0303,0.105937 0.0718,0.146937 0.0977,0.09738 0.25563,0.09738 0.35375,0 0.002,-0.0017 0.003,-5e-4 0.004,-0.0017 l 1.18294,-1.182938 c 0.004,-0.0039 0.008,-0.0051 0.0125,-0.0085 0.0913,-0.103719 0.22412,-0.170844 0.37378,-0.170844 0.27588,0 0.50025,0.224031 0.50025,0.499844 0,0.149125 -0.0669,0.281406 -0.17041,0.373156 -0.004,0.0039 -0.005,0.009 -0.008,0.01291 z m -11.82162,10.610438 c 0.27637,0 0.5,0.223563 0.5,0.499843 0,0.137876 -0.0561,0.262844 -0.1465,0.353626 l -1.967597,1.966624 c -0.0033,0.0032 -0.0085,0.0044 -0.012,0.0078 -0.09181,0.104218 -0.224127,0.170844 -0.37378,0.170844 -0.276373,0 -0.5,-0.223563 -0.5,-0.499813 0,-0.149125 0.06667,-0.281906 0.170407,-0.373156 0.0033,-0.0039 0.0047,-0.0085 0.0083,-0.01244 l 1.96491,-1.963717 c 0.0908,-0.09178 0.21656,-0.149624 0.35622,-0.149624 z"
       id="path2-7-5-3"
       style="fill:currentColor;fill-opacity:1;stroke-width:0.03125"
       class="ColorScheme-Text" />
  </g>
  <g
     id="audio-volume-medium"
     transform="translate(32.000001)">
    <path
       style="opacity:0.00100002;stroke-width:0.99991"
       d="M 0,0 H 31.994227 V 32.000001 H 0 Z"
       id="path31" />
    <path
       d="m 17.996251,25 z m 0,-18.000438 z m -2.998769,21.000443 c -0.212341,0 -0.419864,-0.02344 -0.620508,-0.06544 -0.815292,-0.126937 -1.597841,-0.492187 -2.226668,-1.121125 l -1.983012,-1.983435 0.008,-0.0078 c -0.1762085,-0.1797 -0.2855688,-0.425763 -0.2855688,-0.697262 0,-0.552751 0.4466698,-1 0.9993198,-1 0.271451,0 0.517476,0.109375 0.697634,0.286124 l 0.005,-0.0049 1.991831,1.99325 c 0.314383,0.314437 0.708372,0.491187 1.115048,0.549812 0.09518,0.03028 0.193315,0.05078 0.298736,0.05078 0.552651,0 0.99932,-0.44825 0.99932,-1 V 6.999567 c 0,-0.55275 -0.446669,-0.999562 -0.99932,-0.999562 -0.102981,0 -0.199654,0.0205 -0.293387,0.04881 -0.409616,0.05662 -0.805044,0.235813 -1.120417,0.551251 L 8.1855228,11.999068 H 3.9992783 c -1.1048007,0 -1.9996392,0.896499 -1.9996392,2 v 3.999812 c 0,1.1055 0.8948385,2.001063 1.9996392,2.001063 h 0.9993196 c 0.5526503,0 1.0008194,0.447249 1.0008194,1 0,0.551749 -0.4481691,1 -1.0008194,1 H 3.9992783 C 1.789737,21.999943 0,20.208943 0,17.99888 v -3.999812 c 0,-2.208501 1.789737,-4 3.9992783,-4 H 7.3370559 L 12.150116,5.186005 C 12.778883,4.559067 13.561492,4.19188 14.376784,4.06538 14.577428,4.02294 14.784951,4 14.997292,4 c 1.655952,0 2.998959,1.34325 2.998959,2.999562 V 25 c 0,1.65625 -1.343007,3 -2.998959,3 z M 8.4986553,20.498942 c 0.5526502,0 0.9993196,0.44825 0.9993196,1.001001 0,0.55275 -0.4466694,0.998999 -0.9993196,0.998999 -0.5521494,0 -1.0003185,-0.446312 -1.0003185,-0.998999 0,-0.552688 0.4481691,-1.001001 1.0003185,-1.001001 z"
       id="path2-3-3-6-3"
       style="stroke-width:0.0624944;fill-opacity:1;fill:currentColor"
       sodipodi:nodetypes="ccccccccccccccccccccccsccccccccccccccccssccccsssscccssssssscsssc"
       class="ColorScheme-Text" />
    <path
       d="m 23.132765,23.058712 c -0.184027,0.21875 -0.454478,0.360376 -0.762052,0.360376 -0.551151,0 -0.99932,-0.448251 -0.99932,-1 0,-0.272438 0.10936,-0.518563 0.286079,-0.698251 l -0.004,-0.0039 c 1.446989,-1.44825 2.3422,-3.64748 2.3422,-5.857167 0,-2.194376 -0.884903,-3.98102 -2.315335,-5.427333 -0.198214,-0.183125 -0.324631,-0.441874 -0.324631,-0.732937 0,-0.55125 0.448169,-0.9995 0.99932,-0.9995 0.27683,0 0.525285,0.112312 0.706882,0.293437 l 0.005,-0.0049 c 1.808674,1.809551 2.928102,4.309113 2.928102,7.070363 0,2.726312 -1.094553,5.195125 -2.862734,6.999812 z m 0.862907,-7.198942 v 0 0 h -2e-6 2e-6 v 0 0 0 0 0 0 0 0 0 0 0 0 h -2e-6 z"
       id="path2-3-3"
       style="stroke-width:0.0624944;fill-opacity:1;fill:currentColor"
       sodipodi:nodetypes="cccccccccccccccccscccccccccccccsccccccccccc"
       class="ColorScheme-Text" />
    <path
       d="m 27.314346,27.314 -0.0064,-0.0068 c -0.181592,0.1875 -0.433047,0.302749 -0.713746,0.302749 -0.552151,0 -0.99882,-0.44825 -0.99882,-1 0,-0.296875 0.131351,-0.559562 0.334439,-0.742187 2.515134,-2.530387 4.070541,-6.016762 4.070541,-9.868137 0,-2.184125 -0.514094,-4.242188 -1.405996,-6.084062 l 0.01125,-0.0049 c -0.05662,-0.126438 -0.08985,-0.264188 -0.08985,-0.411126 0,-0.55225 0.448169,-0.999 1.000319,-0.999 0.405677,0 0.751802,0.241688 0.909024,0.588375 l 0.0078,-0.0039 C 31.437102,11.177812 32,13.523062 32,15.999625 32,20.418437 30.208823,24.418437 27.314346,27.314 Z M 27.001402,7.000062 c -0.55265,0 -1.000319,-0.44825 -1.000319,-0.999562 0,-0.55225 0.447669,-1.0005 1.000319,-1.0005 0.551151,0 0.99932,0.44825 0.99932,1.0005 0,0.551312 -0.448169,0.999562 -0.99932,0.999562 z m 2.998959,8.999563 z m 0,0 z"
       id="path2-3-6"
       style="opacity:0.4;fill:currentColor;fill-opacity:1;stroke-width:0.0624944"
       sodipodi:nodetypes="ccsscsccssccscsssssccccccccccccccccccccccccccccccccccc"
       class="ColorScheme-Text" />
  </g>
  <g
     id="audio-volume-low"
     transform="translate(64.000002)">
    <path
       style="opacity:0.00100002"
       d="M 0,0 H 32.000001 V 32.000001 H 0 Z"
       id="path38" />
    <path
       d="m 17.996251,25 z m 0,-18.000438 z m -2.998769,21.000443 c -0.212341,0 -0.419864,-0.02344 -0.620508,-0.06544 -0.815292,-0.126937 -1.597841,-0.492187 -2.226668,-1.121125 l -1.983012,-1.983435 0.008,-0.0078 c -0.176208,-0.1797 -0.285569,-0.425763 -0.285569,-0.697262 0,-0.552751 0.44667,-1 0.99932,-1 0.271451,0 0.517476,0.109375 0.697634,0.286124 l 0.005,-0.0049 1.991831,1.99325 c 0.314383,0.314437 0.708372,0.491187 1.115048,0.549812 0.09518,0.03028 0.193315,0.05078 0.298736,0.05078 0.552651,0 0.99932,-0.44825 0.99932,-1 V 6.999567 c 0,-0.55275 -0.446669,-0.999562 -0.99932,-0.999562 -0.102981,0 -0.199654,0.0205 -0.293387,0.04881 -0.409616,0.05662 -0.805044,0.235813 -1.120417,0.551251 L 8.185523,11.999068 H 3.999278 c -1.1048,0 -1.999639,0.896499 -1.999639,2 v 3.999812 c 0,1.1055 0.894839,2.001063 1.999639,2.001063 h 0.99932 c 0.55265,0 1.000819,0.447249 1.000819,1 0,0.551749 -0.448169,1 -1.000819,1 H 3.999278 C 1.789737,21.999943 0,20.208943 0,17.99888 v -3.999812 c 0,-2.208501 1.789737,-4 3.999278,-4 h 3.337778 l 4.81306,-4.813063 C 12.778883,4.559067 13.561492,4.19188 14.376784,4.06538 14.577428,4.02294 14.784951,4 14.997292,4 c 1.655952,0 2.998959,1.34325 2.998959,2.999562 V 25 c 0,1.65625 -1.343007,3 -2.998959,3 z M 8.498655,20.498942 c 0.552651,0 0.99932,0.44825 0.99932,1.001001 0,0.55275 -0.446669,0.998999 -0.99932,0.998999 -0.552149,0 -1.000318,-0.446312 -1.000318,-0.998999 0,-0.552688 0.448169,-1.001001 1.000318,-1.001001 z"
       id="path2-3-3-6-3-3"
       style="stroke-width:0.0624944;fill-opacity:1;fill:currentColor"
       sodipodi:nodetypes="ccccccccccccccccccccccsccccccccccccccccssccccsssscccssssssscsssc"
       class="ColorScheme-Text" />
    <path
       d="m 23.132765,23.058712 c -0.184027,0.21875 -0.454478,0.360376 -0.762052,0.360376 -0.551151,0 -0.99932,-0.448251 -0.99932,-1 0,-0.272438 0.10936,-0.518563 0.286079,-0.698251 l -0.004,-0.0039 c 1.446989,-1.44825 2.3422,-3.64748 2.3422,-5.857167 0,-2.194376 -0.884903,-3.98102 -2.315335,-5.427333 -0.198214,-0.183125 -0.324631,-0.441874 -0.324631,-0.732937 0,-0.55125 0.448169,-0.9995 0.99932,-0.9995 0.27683,0 0.525285,0.112312 0.706882,0.293437 l 0.005,-0.0049 c 1.808674,1.809551 2.928102,4.309113 2.928102,7.070363 0,2.726312 -1.094553,5.195125 -2.862734,6.999812 z m 0.862907,-7.198942 v 0 0 h -2e-6 2e-6 v 0 0 0 0 0 0 0 0 0 0 0 0 h -2e-6 z"
       id="path2-3-3-6"
       style="stroke-width:0.0624944;fill-opacity:1;fill:currentColor;opacity:0.4"
       sodipodi:nodetypes="cccccccccccccccccscccccccccccccsccccccccccc"
       class="ColorScheme-Text" />
    <path
       d="m 27.314346,27.314 -0.0064,-0.0068 c -0.181592,0.1875 -0.433047,0.302749 -0.713746,0.302749 -0.552151,0 -0.99882,-0.44825 -0.99882,-1 0,-0.296875 0.131351,-0.559562 0.334439,-0.742187 2.515134,-2.530387 4.070541,-6.016762 4.070541,-9.868137 0,-2.184125 -0.514094,-4.242188 -1.405996,-6.084062 l 0.01125,-0.0049 c -0.05662,-0.126438 -0.08985,-0.264188 -0.08985,-0.411126 0,-0.55225 0.448169,-0.999 1.000319,-0.999 0.405677,0 0.751802,0.241688 0.909024,0.588375 l 0.0078,-0.0039 C 31.437102,11.177812 32,13.523062 32,15.999625 32,20.418437 30.208823,24.418437 27.314346,27.314 Z M 27.001402,7.000062 c -0.55265,0 -1.000319,-0.44825 -1.000319,-0.999562 0,-0.55225 0.447669,-1.0005 1.000319,-1.0005 0.551151,0 0.99932,0.44825 0.99932,1.0005 0,0.551312 -0.448169,0.999562 -0.99932,0.999562 z m 2.998959,8.999563 z m 0,0 z"
       id="path2-3-6-7"
       style="opacity:0.4;fill:currentColor;fill-opacity:1;stroke-width:0.0624944"
       sodipodi:nodetypes="ccsscsccssccscsssssccccccccccccccccccccccccccccccccccc"
       class="ColorScheme-Text" />
  </g>
  <g
     id="22-22-audio-volume-medium"
     transform="translate(32.000001,-22)">
    <path
       style="opacity:0.00100002;fill:#c8b7b7"
       d="M 0,0 H 22 V 22 H 0 Z"
       id="path12" />
    <path
       d="m 11.997564,17.00004 z m 0,-12.000289 z M 9.998385,19.000043 c -0.14156,0 -0.279909,-0.01563 -0.413672,-0.04363 -0.543528,-0.08462 -1.065227,-0.328124 -1.484445,-0.747416 l -1.322007,-1.32229 0.0053,-0.0052 c -0.117472,-0.1198 -0.190379,-0.283842 -0.190379,-0.464841 0,-0.368501 0.29778,-0.666667 0.666213,-0.666667 0.180967,0 0.344984,0.07292 0.465089,0.19075 l 0.0033,-0.0033 1.327887,1.328833 c 0.209589,0.209625 0.472248,0.327458 0.743366,0.366541 0.06345,0.02019 0.128876,0.03385 0.199157,0.03385 0.368434,0 0.666213,-0.298834 0.666213,-0.666667 V 4.999714 c 0,-0.3685 -0.297779,-0.666375 -0.666213,-0.666375 -0.06865,0 -0.133103,0.01367 -0.195591,0.03254 C 9.529525,4.403629 9.265907,4.523088 9.055658,4.73338 L 5.457014,8.332714 H 2.666185 c -0.736533,0 -1.333093,0.597666 -1.333093,1.333333 v 2.666541 c 0,0.737 0.59656,1.334041 1.333093,1.334041 h 0.666213 c 0.368433,0 0.667213,0.298166 0.667213,0.666667 0,0.367833 -0.29878,0.666667 -0.667213,0.666667 H 2.666185 C 1.193158,14.999963 0,13.805963 0,12.332588 V 9.666047 C 0,8.193713 1.193158,6.999381 2.666185,6.999381 H 4.89137 L 8.100076,3.790673 C 8.519254,3.372714 9.040993,3.127923 9.584521,3.04359 9.718283,3.0153 9.856632,3 9.998193,3 c 1.103967,0 1.999305,0.8955 1.999305,1.999708 v 12.000289 c 0,1.104167 -0.895338,2 -1.999305,2 z m -4.33255,-5.000708 c 0.368434,0 0.666213,0.298834 0.666213,0.667334 0,0.3685 -0.297779,0.665999 -0.666213,0.665999 -0.368099,0 -0.666879,-0.297541 -0.666879,-0.665999 0,-0.368458 0.29878,-0.667334 0.666879,-0.667334 z"
       id="path2-3-3-6-3-5"
       style="stroke-width:0.0416629;fill-opacity:1;fill:currentColor"
       sodipodi:nodetypes="ccccccccccccccccccccccsccccccccccccccccssccccsssscccssssssscsssc"
       class="ColorScheme-Text" />
    <path
       d="m 15.421906,15.705848 c -0.122685,0.145834 -0.302985,0.240251 -0.508034,0.240251 -0.367434,0 -0.666214,-0.298834 -0.666214,-0.666667 0,-0.181625 0.07291,-0.345708 0.19072,-0.4655 l -0.0027,-0.0026 c 0.964659,-0.9655 1.561466,-2.431653 1.561466,-3.904777 0,-1.462917 -0.589935,-2.654013 -1.543556,-3.618222 -0.132143,-0.122083 -0.216421,-0.294582 -0.216421,-0.488624 0,-0.3675 0.29878,-0.666333 0.666214,-0.666333 0.184553,0 0.350189,0.07487 0.471254,0.195624 l 0.0033,-0.0033 c 1.205783,1.206367 1.952068,2.872741 1.952068,4.713574 0,1.817541 -0.729702,3.463416 -1.908489,4.66654 z m 0.575271,-4.799293 v 0 0 h -1e-6 1e-6 v 0 0 0 0 0 0 z"
       id="path2-3-3-3"
       style="stroke-width:0.0416629;fill-opacity:1;fill:currentColor"
       sodipodi:nodetypes="cccccccccccccccccscccccccccccccsccccccccccc"
       class="ColorScheme-Text" />
    <path
       d="m 18.209626,18.542706 -0.0043,-0.0045 c -0.121062,0.125 -0.288698,0.201833 -0.475831,0.201833 -0.368101,0 -0.66588,-0.298834 -0.66588,-0.666667 0,-0.197916 0.08757,-0.373041 0.222959,-0.494791 1.676756,-1.686924 2.713694,-4.011174 2.713694,-6.578757 0,-1.456083 -0.342729,-2.828124 -0.937331,-4.05604 l 0.0075,-0.0033 c -0.03775,-0.08429 -0.0599,-0.176125 -0.0599,-0.274084 0,-0.368166 0.29878,-0.666 0.66688,-0.666 0.270451,0 0.501201,0.161126 0.606015,0.39225 l 0.0052,-0.0026 c 0.669464,1.3952 1.044729,2.9587 1.044729,4.609741 0,2.945874 -1.194118,5.61254 -3.123769,7.542915 z M 18.000997,5.000084 c -0.368433,0 -0.666879,-0.298833 -0.666879,-0.666375 0,-0.368166 0.298446,-0.666999 0.666879,-0.666999 0.367434,0 0.666213,0.298833 0.666213,0.666999 0,0.367542 -0.298779,0.666375 -0.666213,0.666375 z m 1.999305,5.999707 z m 0,0 z"
       id="path2-3-6-5"
       style="opacity:0.4;fill:currentColor;fill-opacity:1;stroke-width:0.0416629"
       sodipodi:nodetypes="ccsscsccssccscsssssccccccccccccccccccccccccccccccccccc"
       class="ColorScheme-Text" />
  </g>
  <g
     id="22-22-audio-volume-low"
     transform="translate(63.999942,-22)">
    <g
       id="g2197">
      <path
         style="opacity:0.00100002"
         d="m 6e-5,0 h 22 v 22 h -22 z"
         id="path19" />
      <path
         d="m 11.997564,17.00004 z m 0,-12.000289 z M 9.998385,19.000043 c -0.14156,0 -0.279909,-0.01563 -0.413672,-0.04363 -0.543528,-0.08462 -1.065227,-0.328124 -1.484445,-0.747416 l -1.322007,-1.32229 0.0053,-0.0052 c -0.117472,-0.1198 -0.190379,-0.283842 -0.190379,-0.464841 0,-0.368501 0.29778,-0.666667 0.666213,-0.666667 0.180967,0 0.344984,0.07292 0.465089,0.19075 l 0.0033,-0.0033 1.327887,1.328833 c 0.209589,0.209625 0.472248,0.327458 0.743366,0.366541 0.06345,0.02019 0.128876,0.03385 0.199157,0.03385 0.368434,0 0.666213,-0.298834 0.666213,-0.666667 V 4.999714 c 0,-0.3685 -0.297779,-0.666375 -0.666213,-0.666375 -0.06865,0 -0.133103,0.01367 -0.195591,0.03254 C 9.529525,4.403629 9.265907,4.523088 9.055658,4.73338 L 5.457014,8.332714 H 2.666185 c -0.736533,0 -1.333093,0.597666 -1.333093,1.333333 v 2.666541 c 0,0.737 0.59656,1.334041 1.333093,1.334041 h 0.666213 c 0.368433,0 0.667213,0.298166 0.667213,0.666667 0,0.367833 -0.29878,0.666667 -0.667213,0.666667 H 2.666185 C 1.193158,14.999963 0,13.805963 0,12.332588 V 9.666047 C 0,8.193713 1.193158,6.999381 2.666185,6.999381 H 4.89137 L 8.100076,3.790673 C 8.519254,3.372714 9.040993,3.127923 9.584521,3.04359 9.718283,3.0153 9.856632,3 9.998193,3 c 1.103967,0 1.999305,0.8955 1.999305,1.999708 v 12.000289 c 0,1.104167 -0.895338,2 -1.999305,2 z m -4.33255,-5.000708 c 0.368434,0 0.666213,0.298834 0.666213,0.667334 0,0.3685 -0.297779,0.665999 -0.666213,0.665999 -0.368099,0 -0.666879,-0.297541 -0.666879,-0.665999 0,-0.368458 0.29878,-0.667334 0.666879,-0.667334 z"
         id="path2-3-3-6-3-5-6"
         style="stroke-width:0.0416629;fill-opacity:1;fill:currentColor"
         sodipodi:nodetypes="ccccccccccccccccccccccsccccccccccccccccssccccsssscccssssssscsssc"
         class="ColorScheme-Text" />
      <path
         d="m 15.421906,15.705848 c -0.122685,0.145834 -0.302985,0.240251 -0.508034,0.240251 -0.367434,0 -0.666214,-0.298834 -0.666214,-0.666667 0,-0.181625 0.07291,-0.345708 0.19072,-0.4655 l -0.0027,-0.0026 c 0.964659,-0.9655 1.561466,-2.431653 1.561466,-3.904777 0,-1.462917 -0.589935,-2.654013 -1.543556,-3.618222 -0.132143,-0.122083 -0.216421,-0.294582 -0.216421,-0.488624 0,-0.3675 0.29878,-0.666333 0.666214,-0.666333 0.184553,0 0.350189,0.07487 0.471254,0.195624 l 0.0033,-0.0033 c 1.205783,1.206367 1.952068,2.872741 1.952068,4.713574 0,1.817541 -0.729702,3.463416 -1.908489,4.66654 z m 0.575271,-4.799293 v 0 0 h -1e-6 1e-6 v 0 0 0 z"
         id="path2-3-3-3-2"
         style="stroke-width:0.0416629;fill-opacity:1;fill:currentColor;opacity:0.4"
         sodipodi:nodetypes="cccccccccccccccccscccccccccccccsccccccccccc"
         class="ColorScheme-Text" />
      <path
         d="m 18.209626,18.542706 -0.0043,-0.0045 c -0.121062,0.125 -0.288698,0.201833 -0.475831,0.201833 -0.368101,0 -0.66588,-0.298834 -0.66588,-0.666667 0,-0.197916 0.08757,-0.373041 0.222959,-0.494791 1.676756,-1.686924 2.713694,-4.011174 2.713694,-6.578757 0,-1.456083 -0.342729,-2.828124 -0.937331,-4.05604 l 0.0075,-0.0033 c -0.03775,-0.08429 -0.0599,-0.176125 -0.0599,-0.274084 0,-0.368166 0.29878,-0.666 0.66688,-0.666 0.270451,0 0.501201,0.161126 0.606015,0.39225 l 0.0052,-0.0026 c 0.669464,1.3952 1.044729,2.9587 1.044729,4.609741 0,2.945874 -1.194118,5.61254 -3.123769,7.542915 z M 18.000997,5.000084 c -0.368433,0 -0.666879,-0.298833 -0.666879,-0.666375 0,-0.368166 0.298446,-0.666999 0.666879,-0.666999 0.367434,0 0.666213,0.298833 0.666213,0.666999 0,0.367542 -0.298779,0.666375 -0.666213,0.666375 z m 1.999305,5.999707 z m 0,0 z"
         id="path2-3-6-5-9"
         style="opacity:0.4;fill:currentColor;fill-opacity:1;stroke-width:0.0416629"
         sodipodi:nodetypes="ccsscsccssccscsssssccccccccccccccccccccccccccccccccccc"
         class="ColorScheme-Text" />
    </g>
  </g>
</svg>
