<?xml version="1.0" encoding="UTF-8" standalone="no"?>
<svg
   id="svg2"
   width="32"
   height="32"
   version="1.0"
   inkscape:version="1.1.2 (0a00cf5339, 2022-02-04)"
   sodipodi:docname="computer.svg"
   xmlns:inkscape="http://www.inkscape.org/namespaces/inkscape"
   xmlns:sodipodi="http://sodipodi.sourceforge.net/DTD/sodipodi-0.dtd"
   xmlns="http://www.w3.org/2000/svg"
   xmlns:svg="http://www.w3.org/2000/svg"
   xmlns:rdf="http://www.w3.org/1999/02/22-rdf-syntax-ns#"
   xmlns:cc="http://creativecommons.org/ns#"
   xmlns:dc="http://purl.org/dc/elements/1.1/">
  <style
     id="current-color-scheme"
     type="text/css">.ColorScheme-Text { color:#eceff4; }
</style>
  <g
     id="computer-laptop"
     transform="translate(32,-22.941122)">
    <rect
       style="opacity:0.00100002;fill:#000000;fill-opacity:1;stroke:none;stroke-width:4;stroke-linecap:round;stroke-linejoin:round;stroke-miterlimit:4;stroke-dasharray:none;stroke-opacity:1"
       id="rect4228"
       width="32"
       height="32"
       x="7.6293945e-06"
       y="22.941122" />
    <path
       d="m 26.875008,39.753622 c 0,0.448703 -0.405767,0.8125 -0.90625,0.8125 -0.500483,0 -0.90625,-0.363797 -0.90625,-0.8125 0,-0.448703 0.405767,-0.8125 0.90625,-0.8125 0.500483,0 0.90625,0.363797 0.90625,0.8125 z m 0,7.3125 h -4.53125 c -0.500483,0 -0.90625,-0.363797 -0.90625,-0.8125 0,-0.448703 0.405767,-0.8125 0.90625,-0.8125 h 4.53125 c 1.000966,0 1.8125,-0.727594 1.8125,-1.625 v -14.625 c 0,-0.897406 -0.811534,-1.625 -1.8125,-1.625 h -21.75 c -1.000954,0 -1.8125,0.727594 -1.8125,1.625 v 6.90625 0.447891 1.583359 c 0,0.448703 0.405773,0.8125 0.90625,0.8125 h 1.766 0.499625 15.859375 c 0.500483,0 0.90625,0.363797 0.90625,0.8125 0,0.448703 -0.405767,0.8125 -0.90625,0.8125 H 3.765633 c -1.095655,0 -2.009212,-0.697836 -2.219405,-1.625 h -0.04622 v -9.75 c 0,-1.794812 1.623095,-3.25 3.625,-3.25 h 21.75 c 2.001902,0 3.625,1.455188 3.625,3.25 v 14.625 c 0,1.794812 -1.623098,3.25 -3.625,3.25 z m -12.6875,-4.0625 c 0,-0.448703 0.405767,-0.8125 0.90625,-0.8125 0.500483,0 0.90625,0.363797 0.90625,0.8125 0,0.448703 -0.405767,0.8125 -0.90625,0.8125 -0.500483,0 -0.90625,-0.363797 -0.90625,-0.8125 z m -11.78125,-0.8125 c 0.500477,0 0.90625,0.363797 0.90625,0.8125 v 0.8125 c 0,0.897406 0.811546,1.625 1.8125,1.625 h 12.6875 c 1.000966,0 1.8125,0.727594 1.8125,1.625 0,1.794812 1.793021,3.25 2.71875,3.25 0.500483,0 0.90625,0.363797 0.90625,0.8125 0,0.448703 -0.405767,0.8125 -0.90625,0.8125 h -12.6875 c -0.500482,0 -0.90625,-0.363797 -0.90625,-0.8125 0,-0.448703 0.405768,-0.8125 0.90625,-0.8125 0.521047,0 1.353195,-0.493949 1.959873,-1.255668 0.162623,-0.222523 0.440729,-0.369332 0.758877,-0.369332 0.500483,0 0.90625,0.363797 0.90625,0.8125 0,0.02859 -0.0055,0.05555 -0.0084,0.08298 0.0074,0.07968 -0.02358,0.176515 -0.09785,0.292753 -0.01854,0.03133 -0.03721,0.06266 -0.05988,0.09171 -0.001,7.62e-4 -0.001,0.0027 -0.0018,0.0035 -0.09369,0.119032 -0.195808,0.230903 -0.297591,0.341606 h 6.33933 c -0.01334,-0.01468 -0.02839,-0.02778 -0.042,-0.04327 -0.002,-0.002 -0.0028,-0.004 -0.0044,-0.0055 -0.08142,-0.09049 -0.156667,-0.183727 -0.231886,-0.279754 -0.0028,-0.0048 -0.0075,-0.0095 -0.01151,-0.01386 -0.304443,-0.394368 -0.559326,-0.83393 -0.742501,-1.307618 -0.133615,-0.347953 -0.227469,-0.714492 -0.274821,-1.092964 9.06e-4,0.0044 0,0.0099 9.06e-4,0.01473 -0.04876,-0.295684 -0.331944,-0.521813 -0.673546,-0.521813 h -1.175301 -10.875 c -2.001905,0 -3.625,-1.455188 -3.625,-3.25 v -0.8125 c 0,-0.448703 0.405773,-0.8125 0.90625,-0.8125 z"
       id="path2-7"
       style="stroke-width:0.053631;fill-opacity:1;fill:currentColor;"
       class="ColorScheme-Text" />
  </g>
  <g
     id="computer">
    <rect
       y="0"
       x="0"
       height="32"
       width="32"
       id="rect4171"
       style="opacity:0.00100002;fill:#000000;fill-opacity:1;stroke:none;stroke-width:4;stroke-linecap:round;stroke-linejoin:round;stroke-miterlimit:4;stroke-dasharray:none;stroke-opacity:1" />
    <path
       d="m 26.975002,16.8125 c 0,0.448703 -0.405767,0.8125 -0.90625,0.8125 -0.500483,0 -0.90625,-0.363797 -0.90625,-0.8125 0,-0.448703 0.405767,-0.8125 0.90625,-0.8125 0.500483,0 0.90625,0.363797 0.90625,0.8125 z m 0,7.3125 h -4.53125 c -0.500483,0 -0.90625,-0.363797 -0.90625,-0.8125 0,-0.448703 0.405767,-0.8125 0.90625,-0.8125 h 4.53125 c 1.000966,0 1.8125,-0.727594 1.8125,-1.625 V 6.25 c 0,-0.897406 -0.811534,-1.625 -1.8125,-1.625 h -21.75 c -1.000954,0 -1.8125,0.727594 -1.8125,1.625 v 6.90625 0.447891 1.583359 c 0,0.448703 0.405773,0.8125 0.90625,0.8125 h 1.766 0.499625 15.859375 c 0.500483,0 0.90625,0.363797 0.90625,0.8125 0,0.448703 -0.405767,0.8125 -0.90625,0.8125 H 3.865627 C 2.769972,17.625 1.856415,16.927164 1.646222,16 H 1.6 V 6.25 C 1.6,4.455188 3.223095,3 5.225,3 h 21.75 C 28.976902,3 30.6,4.455188 30.6,6.25 v 14.625 c 0,1.794812 -1.623098,3.25 -3.625,3.25 z m -12.6875,-4.0625 c 0,-0.448703 0.405767,-0.8125 0.90625,-0.8125 0.500483,0 0.90625,0.363797 0.90625,0.8125 0,0.448703 -0.405767,0.8125 -0.90625,0.8125 -0.500483,0 -0.90625,-0.363797 -0.90625,-0.8125 z M 2.506252,19.25 c 0.500477,0 0.90625,0.363797 0.90625,0.8125 v 0.8125 c 0,0.897406 0.811546,1.625 1.8125,1.625 h 12.6875 c 1.000966,0 1.8125,0.727594 1.8125,1.625 0,1.794812 1.793021,3.25 2.71875,3.25 0.500483,0 0.90625,0.363797 0.90625,0.8125 0,0.448703 -0.405767,0.8125 -0.90625,0.8125 h -12.6875 c -0.500482,0 -0.90625,-0.363797 -0.90625,-0.8125 0,-0.448703 0.405768,-0.8125 0.90625,-0.8125 0.521047,0 1.353195,-0.493949 1.959873,-1.255668 C 11.878748,25.896809 12.156854,25.75 12.475002,25.75 c 0.500483,0 0.90625,0.363797 0.90625,0.8125 0,0.02859 -0.0055,0.05555 -0.0084,0.08298 0.0074,0.07968 -0.02358,0.176515 -0.09785,0.292753 -0.01854,0.03133 -0.03721,0.06266 -0.05988,0.09171 -10e-4,7.62e-4 -10e-4,0.0027 -0.0018,0.0035 -0.09369,0.119032 -0.195808,0.230903 -0.297591,0.341606 h 6.33933 c -0.01334,-0.01468 -0.02839,-0.02778 -0.042,-0.04327 -0.002,-0.002 -0.0028,-0.004 -0.0044,-0.0055 -0.08142,-0.09049 -0.156667,-0.183727 -0.231886,-0.279754 -0.0028,-0.0048 -0.0075,-0.0095 -0.01151,-0.01386 -0.304443,-0.394368 -0.559326,-0.83393 -0.742501,-1.307618 -0.133615,-0.347953 -0.227469,-0.714492 -0.274821,-1.092964 9.06e-4,0.0044 0,0.0099 9.06e-4,0.01473 C 17.900087,24.351129 17.616905,24.125 17.275303,24.125 h -1.175301 -10.875 c -2.001905,0 -3.625,-1.455188 -3.625,-3.25 v -0.8125 c 0,-0.448703 0.405773,-0.8125 0.90625,-0.8125 z"
       id="path2"
       style="stroke-width:0.053631;fill-opacity:1;fill:currentColor;"
       class="ColorScheme-Text" />
  </g>
  <sodipodi:namedview
     pagecolor="#ffffff"
     bordercolor="#000000"
     borderopacity="1"
     objecttolerance="10"
     gridtolerance="10"
     guidetolerance="10"
     inkscape:pageopacity="0"
     inkscape:pageshadow="2"
     inkscape:window-width="1920"
     inkscape:window-height="1009"
     id="namedview24"
     showgrid="false"
     inkscape:zoom="5.6568543"
     inkscape:cx="34.471455"
     inkscape:cy="16.617009"
     inkscape:window-x="0"
     inkscape:window-y="0"
     inkscape:window-maximized="1"
     inkscape:current-layer="svg2"
     inkscape:document-rotation="0"
     inkscape:pagecheckerboard="0"
     inkscape:lockguides="true"
     inkscape:showpageshadow="false">
    <inkscape:grid
       type="xygrid"
       id="grid862"
       originx="0"
       originy="0" />
  </sodipodi:namedview>
  <metadata
     id="metadata7">
    <rdf:RDF>
      <cc:Work
         rdf:about="">
        <dc:format>image/svg+xml</dc:format>
        <dc:type
           rdf:resource="http://purl.org/dc/dcmitype/StillImage" />
      </cc:Work>
    </rdf:RDF>
  </metadata>
  <defs
     id="defs5">
    <style
       id="style12"
       type="text/css" />
  </defs>
  <g
     style="fill:none;stroke:#ffffff"
     id="g4171"
     transform="translate(-102.11178,-18.990758)">
    <g
       transform="translate(-38.38147,-1006.1003)"
       style="stroke-width:0.5"
       id="g4173" />
    <g
       transform="translate(-39.59798,-1004.3622)"
       style="stroke-width:0.4"
       id="g4175" />
  </g>
  <g
     id="22-22-computer"
     transform="translate(32,-22.941122)">
    <rect
       style="opacity:0.00100002;stroke-width:1.00134"
       width="22"
       height="22.058878"
       x="-32"
       y="-0.058877535"
       id="rect7" />
    <path
       d="m -12.750003,11.566122 c 0,0.345156 -0.307824,0.625 -0.687501,0.625 -0.379676,0 -0.687499,-0.279844 -0.687499,-0.625 0,-0.345156 0.307823,-0.625 0.687499,-0.625 0.379677,0 0.687501,0.279844 0.687501,0.625 z m 0,5.625 h -3.4375 c -0.379676,0 -0.6875,-0.279844 -0.6875,-0.625 0,-0.345156 0.307824,-0.625 0.6875,-0.625 h 3.4375 c 0.759352,0 1.375,-0.559688 1.375,-1.25 V 3.4411225 c 0,-0.690312 -0.615648,-1.25 -1.375,-1.25 H -29.25 c -0.759345,0 -1.375,0.559688 -1.375,1.25 v 5.3125 0.344532 1.2179675 c 0,0.345156 0.307828,0.625 0.6875,0.625 h 1.339724 0.379026 12.031247 c 0.379677,0 0.6875,0.279844 0.6875,0.625 0,0.345156 -0.307823,0.625 -0.6875,0.625 h -14.093748 c -0.831186,0 -1.524229,-0.536797 -1.683685,-1.25 h -0.03506 V 3.4411225 c 0,-1.380625 1.231314,-2.50000004 2.75,-2.50000004 h 16.499997 C -11.231315,0.94112246 -10,2.0604975 -10,3.4411225 V 14.691122 c 0,1.380625 -1.231315,2.5 -2.749999,2.5 z m -9.624999,-3.125 c 0,-0.345156 0.307824,-0.625 0.6875,-0.625 0.379677,0 0.6875,0.279844 0.6875,0.625 0,0.345156 -0.307823,0.625 -0.6875,0.625 -0.379676,0 -0.6875,-0.279844 -0.6875,-0.625 z m -8.937498,-0.625 c 0.379672,0 0.6875,0.279844 0.6875,0.625 v 0.625 c 0,0.690312 0.615655,1.25 1.375,1.25 h 9.624998 c 0.759352,0 1.375,0.559688 1.375,1.25 0,1.380625 1.360222,2.5 2.062499,2.5 0.379677,0 0.6875,0.279844 0.6875,0.625 0,0.345156 -0.307823,0.625 -0.6875,0.625 h -9.624998 c -0.379676,0 -0.6875,-0.279844 -0.6875,-0.625 0,-0.345156 0.307824,-0.625 0.6875,-0.625 0.395277,0 1.026562,-0.379961 1.4868,-0.965898 0.12337,-0.171172 0.334346,-0.284102 0.5757,-0.284102 0.379677,0 0.6875,0.279844 0.6875,0.625 0,0.02199 -0.0041,0.04273 -0.0064,0.06383 0.0056,0.06129 -0.01789,0.135781 -0.07423,0.225194 -0.01406,0.0241 -0.02823,0.0482 -0.04543,0.07055 -7.6e-4,5.86e-4 -7.6e-4,0.0021 -0.0014,0.0027 -0.07108,0.09156 -0.148544,0.177618 -0.225759,0.262774 h 4.809149 c -0.01011,-0.01129 -0.02153,-0.02137 -0.0319,-0.03328 -0.0015,-0.0015 -0.0022,-0.0031 -0.0034,-0.0042 -0.06177,-0.06961 -0.118851,-0.141328 -0.175913,-0.215195 -0.0022,-0.0037 -0.0058,-0.0073 -0.0089,-0.01066 -0.230957,-0.30336 -0.424317,-0.641484 -0.563276,-1.00586 -0.101365,-0.267656 -0.172564,-0.549609 -0.208487,-0.840741 6.88e-4,0.0034 0,0.0076 6.88e-4,0.01133 -0.03699,-0.22745 -0.25182,-0.401395 -0.510966,-0.401395 H -21.000002 -29.25 c -1.518686,0 -2.75,-1.119375 -2.75,-2.5 v -0.625 c 0,-0.345156 0.307828,-0.625 0.6875,-0.625 z"
       id="path2-7-5"
       style="stroke-width:0.040969;fill-opacity:1;fill:currentColor;"
       sodipodi:nodetypes="ssssscsssssssssccssccssssccsssssscssssscssssssssssscsscccccccccccccscssscc"
       class="ColorScheme-Text" />
  </g>
  <g
     id="22-22-computer-laptop"
     transform="translate(32,-22.941122)">
    <rect
       style="opacity:0.00100002"
       width="22"
       height="22"
       x="0"
       y="-4.6325684e-07"
       id="rect2" />
    <path
       d="m 19.249997,11.625 c 0,0.345156 -0.307824,0.625 -0.687501,0.625 -0.379676,0 -0.687499,-0.279844 -0.687499,-0.625 0,-0.345155 0.307823,-0.625 0.687499,-0.625 0.379677,0 0.687501,0.279845 0.687501,0.625 z m 0,5.625 h -3.4375 c -0.379676,0 -0.6875,-0.279844 -0.6875,-0.625 0,-0.345156 0.307824,-0.625 0.6875,-0.625 h 3.4375 c 0.759352,0 1.375,-0.559687 1.375,-1.25 V 3.5 c 0,-0.690312 -0.615648,-1.25 -1.375,-1.25 H 2.75 C 1.990655,2.25 1.375,2.809688 1.375,3.5 V 8.8125005 9.1570325 10.375 C 1.375,10.720156 1.682828,11 2.0625,11 H 3.402224 3.78125 15.812497 c 0.379677,0 0.6875,0.279845 0.6875,0.625 0,0.345156 -0.307823,0.625 -0.6875,0.625 H 1.718749 C 0.887563,12.25 0.19452,11.713203 0.035064,11 H 4e-6 V 3.5 C 4e-6,2.119375 1.231318,1 2.750004,1 H 19.250001 C 20.768685,1 22,2.119375 22,3.5 v 11.25 c 0,1.380625 -1.231315,2.5 -2.749999,2.5 z M 9.624998,14.125 c 0,-0.345155 0.307824,-0.625 0.6875,-0.625 0.379677,0 0.6875,0.279845 0.6875,0.625 0,0.345156 -0.307823,0.625 -0.6875,0.625 -0.379676,0 -0.6875,-0.279844 -0.6875,-0.625 z M 0.6875,13.5 c 0.379672,0 0.6875,0.279845 0.6875,0.625 v 0.625 c 0,0.690313 0.615655,1.25 1.375,1.25 h 9.624998 c 0.759352,0 1.375,0.559688 1.375,1.25 0,1.380625 1.360222,2.5 2.062499,2.5 0.379677,0 0.6875,0.279844 0.6875,0.625 0,0.345156 -0.307823,0.625 -0.6875,0.625 H 6.187499 c -0.379676,0 -0.6875,-0.279844 -0.6875,-0.625 0,-0.345156 0.307824,-0.625 0.6875,-0.625 0.395277,0 1.026562,-0.379961 1.4868,-0.965898 C 7.797669,18.612931 8.008645,18.5 8.249999,18.5 c 0.379677,0 0.6875,0.279844 0.6875,0.625 0,0.02199 -0.0041,0.04273 -0.0064,0.06383 0.0056,0.06129 -0.01789,0.135781 -0.07423,0.225194 -0.01406,0.0241 -0.02823,0.0482 -0.04543,0.07055 -7.59e-4,5.86e-4 -7.59e-4,0.0021 -0.0014,0.0027 -0.07108,0.09156 -0.148543,0.177618 -0.225758,0.262774 h 4.809149 c -0.01011,-0.01129 -0.02153,-0.02137 -0.0319,-0.03328 -0.0015,-0.0015 -0.0022,-0.0031 -0.0034,-0.0042 -0.06177,-0.06961 -0.118851,-0.141328 -0.175913,-0.215195 -0.0022,-0.0037 -0.0058,-0.0073 -0.0089,-0.01066 -0.230957,-0.30336 -0.424317,-0.641484 -0.563276,-1.00586 -0.101365,-0.267656 -0.172564,-0.549609 -0.208487,-0.840741 6.88e-4,0.0034 0,0.0076 6.88e-4,0.01133 -0.03699,-0.22745 -0.25182,-0.401395 -0.510966,-0.401395 H 10.999998 2.75 c -1.518687,0 -2.75,-1.119375 -2.75,-2.5 v -0.625 c 0,-0.345156 0.307828,-0.625 0.6875,-0.625 z"
       id="path2-7-5-9"
       style="stroke-width:0.040969;fill-opacity:1;fill:currentColor;"
       sodipodi:nodetypes="ssssscsssssssssccssccssssccsssssscssssscssssssssssscsscccccccccccccscssscc"
       class="ColorScheme-Text" />
  </g>
</svg>
