<?xml version="1.0" encoding="UTF-8" standalone="no"?>
<svg
   width="32"
   height="32"
   version="1.1"
   id="svg12"
   sodipodi:docname="compass.svg"
   inkscape:version="1.1.2 (0a00cf5339, 2022-02-04)"
   xmlns:inkscape="http://www.inkscape.org/namespaces/inkscape"
   xmlns:sodipodi="http://sodipodi.sourceforge.net/DTD/sodipodi-0.dtd"
   xmlns="http://www.w3.org/2000/svg"
   xmlns:svg="http://www.w3.org/2000/svg"
   xmlns:rdf="http://www.w3.org/1999/02/22-rdf-syntax-ns#"
   xmlns:cc="http://creativecommons.org/ns#"
   xmlns:dc="http://purl.org/dc/elements/1.1/">
  <style id="current-color-scheme" type="text/css">.ColorScheme-Text { color:#eceff4; }
</style>
  <g
     id="22-22-compass"
     transform="translate(32,9.9999997)">
    <path
       style="clip-rule:evenodd;fill:#ffffc1;fill-opacity:0;fill-rule:evenodd;stroke-width:0.688964;stroke-linejoin:round;stroke-miterlimit:1.41421"
       d="M 0,0 V 22 H 22 V 0 Z"
       id="rect817-5"
       inkscape:connector-curvature="0" />
    <path
       d="m 18.499253,11.633691 c 0,0.345078 -0.280431,0.625743 -0.624884,0.625743 -0.345392,0 -0.625197,-0.280665 -0.625197,-0.625743 0,-0.345704 0.279805,-0.625431 0.625197,-0.625431 0.344492,0 0.624884,0.279727 0.624884,0.625431 z M 3.5010216,10.382828 c 0,-0.345078 0.280236,-0.6254297 0.624885,-0.6254297 0.345391,0 0.62504,0.2803517 0.62504,0.6254297 0,0.345704 -0.279649,0.625432 -0.62504,0.625432 -0.344649,0 -0.624885,-0.279728 -0.624885,-0.625432 z m 14.1533854,8.095719 c -0.03723,0.03633 -0.07719,0.0693 -0.12418,0.09684 -0.299023,0.173164 -0.681056,0.06992 -0.853439,-0.22875 -0.151328,-0.262306 -0.09246,-0.586916 0.125391,-0.780509 l -0.0012,-0.0019 C 19.854638,14.862872 20.694016,10.299505 18.577448,6.6306303 16.161193,2.4425753 10.810324,1.0072593 6.6259027,3.4252723 2.4416756,5.8430113 1.0073376,11.198217 3.4232406,15.386233 c 2.1167611,3.667936 6.4811841,5.206455 10.3439644,3.909812 l 0.0064,0.02047 c 0.275235,-0.09133 0.587657,0.01891 0.7384,0.281251 0.172383,0.298672 0.07015,0.681602 -0.228555,0.854142 -0.08547,0.04887 -0.177891,0.07359 -0.270352,0.07969 C 9.6352997,21.922925 4.7320476,20.156007 2.3414186,16.011624 -0.42003143,11.225677 1.2189166,5.1051973 6.0008787,2.3424183 10.782996,-0.42102465 16.898359,1.2189013 19.659028,6.0048863 22.071924,10.188606 21.124263,15.389592 17.654454,18.478543 Z m -6.654192,-0.590626 c 0,0.345079 -0.279493,0.625743 -0.62504,0.625743 -0.34461,0 -0.6248833,-0.280664 -0.6248833,-0.625743 0,-0.345704 0.2802733,-0.625431 0.6248833,-0.625431 0.345587,0 0.62504,0.279727 0.62504,0.625431 z m 0,-13.7593227 c 0,-0.34508 0.279337,-0.625744 0.624728,-0.625744 0.344766,0 0.625196,0.280664 0.625196,0.625744 0,0.345703 -0.28043,0.62543 -0.625196,0.62543 -0.345391,0 -0.624728,-0.279766 -0.624728,-0.62543 z m 4.098836,1.250822 c 0.84215,0 1.525276,0.683752 1.525276,1.526644 0,0.227188 -0.0525,0.440352 -0.141563,0.633947 l -2.239886,4.4842267 c -0.323712,0.516993 -0.883635,0.860549 -1.523441,0.860549 -0.491251,0 -0.933986,-0.20336 -1.261682,-0.529533 L 9.6485727,10.544626 c -0.09945,-0.09957 -0.231876,-0.161875 -0.379727,-0.161875 -0.203203,0 -0.380469,0.119101 -0.475665,0.293164 l -2.13645,4.082352 c -0.01816,0.04977 -0.03082,0.102617 -0.03082,0.158515 0,0.259572 0.209454,0.469376 0.468673,0.469376 0.05613,0 0.107227,-0.01281 0.157735,-0.03117 L 10.56377,13.619516 c 0.09945,-0.06875 0.219219,-0.109336 0.348907,-0.109336 0.338828,0 0.614923,0.27543 0.614923,0.615626 0,0.26875 -0.175118,0.494415 -0.415275,0.578712 l -3.5655953,1.784339 c -0.196953,0.09195 -0.414336,0.148126 -0.64547,0.148126 -0.84211,0 -1.5252761,-0.683752 -1.5252761,-1.526605 0,-0.227188 0.0525,-0.440352 0.1416021,-0.633048 l 2.242153,-4.487938 c 0.324336,-0.5154697 0.882697,-0.8578147 1.521018,-0.8578147 0.491252,0 0.9341423,0.2034 1.2619943,0.529533 l 1.809027,1.8106277 c 0.09949,0.09957 0.231914,0.161875 0.379571,0.161875 0.202617,0 0.378985,-0.116367 0.474454,-0.29164 L 15.3444,7.2565743 c 0.01735,-0.04977 0.03015,-0.10168 0.03015,-0.156953 0,-0.25961 -0.20961,-0.469064 -0.468946,-0.469064 -0.05586,0 -0.107109,0.0125 -0.157422,0.03086 l -3.311451,1.735511 c -0.09949,0.06871 -0.219376,0.109297 -0.348907,0.109297 -0.339141,0 -0.614493,-0.27543 -0.614493,-0.615626 0,-0.268438 0.174531,-0.494414 0.414805,-0.578399 l 3.565595,-1.784657 c 0.19707,-0.09191 0.414024,-0.148126 0.645313,-0.148126 z"
       id="path2-3"
       style="stroke-width:0.0390625;fill-opacity:1;fill:currentColor;"
       class="ColorScheme-Text" />
  </g>
  <metadata
     id="metadata18">
    <rdf:RDF>
      <cc:Work
         rdf:about="">
        <dc:format>image/svg+xml</dc:format>
        <dc:type
           rdf:resource="http://purl.org/dc/dcmitype/StillImage" />
      </cc:Work>
    </rdf:RDF>
  </metadata>
  <defs
     id="defs16" />
  <sodipodi:namedview
     pagecolor="#ffffff"
     bordercolor="#000000"
     borderopacity="1"
     objecttolerance="10"
     gridtolerance="10"
     guidetolerance="10"
     inkscape:pageopacity="0"
     inkscape:pageshadow="2"
     inkscape:window-width="1920"
     inkscape:window-height="1015"
     id="namedview14"
     showgrid="false"
     inkscape:zoom="5.6568543"
     inkscape:cx="31.908193"
     inkscape:cy="20.682873"
     inkscape:window-x="0"
     inkscape:window-y="0"
     inkscape:window-maximized="1"
     inkscape:current-layer="svg12"
     inkscape:document-rotation="0"
     inkscape:lockguides="false"
     inkscape:showpageshadow="false"
     inkscape:pagecheckerboard="0">
    <inkscape:grid
       type="xygrid"
       id="grid880"
       originx="32"
       originy="9.9999997" />
  </sodipodi:namedview>
  <g
     id="compass">
    <path
       style="clip-rule:evenodd;fill:#ffffc1;fill-opacity:0;fill-rule:evenodd;stroke-width:1.00213;stroke-linejoin:round;stroke-miterlimit:1.41421"
       d="M 0,0 V 32 H 32 V 0 Z"
       id="rect817"
       inkscape:connector-curvature="0" />
    <path
       d="m 25.749092,16.823793 c 0,0.448602 -0.36456,0.813466 -0.812349,0.813466 -0.449009,0 -0.812756,-0.364864 -0.812756,-0.813466 0,-0.449415 0.363747,-0.81306 0.812756,-0.81306 0.44784,0 0.812349,0.363645 0.812349,0.81306 z M 6.2513897,15.197672 c 0,-0.448602 0.364306,-0.81306 0.81235,-0.81306 0.449008,0 0.812552,0.364458 0.812552,0.81306 0,0.449415 -0.363544,0.813061 -0.812552,0.813061 -0.448044,0 -0.81235,-0.363646 -0.81235,-0.813061 z M 24.650793,25.722106 c -0.0484,0.04723 -0.100344,0.09009 -0.161434,0.125887 -0.388731,0.225114 -0.885373,0.0909 -1.109471,-0.297375 -0.196727,-0.340997 -0.120199,-0.76299 0.163008,-1.014662 l -0.0016,-0.0024 c 3.969756,-3.511822 5.060946,-9.4442 2.309409,-14.213737 C 22.709574,4.8753473 15.753444,3.0094375 10.313695,6.1528536 4.8741997,9.2959143 3.0095597,16.257682 6.1502337,21.702103 c 2.75179,4.768317 8.4255403,6.768392 13.4471553,5.082756 l 0.0083,0.02661 c 0.357805,-0.118727 0.763954,0.02458 0.95992,0.365626 0.224098,0.388274 0.0912,0.886083 -0.297122,1.110385 -0.11111,0.06353 -0.231258,0.09567 -0.351458,0.103593 C 14.22589,30.199803 7.8516627,27.90281 4.7438447,22.515112 1.1539587,16.293381 3.2845917,8.3367562 9.5011427,4.7451439 15.717897,1.1526683 23.667869,3.2845708 27.256739,9.5063522 30.393503,14.945188 29.161547,21.70647 24.650793,25.722106 Z m -8.65045,-0.767813 c 0,0.448602 -0.363341,0.813466 -0.812553,0.813466 -0.447993,0 -0.812349,-0.364864 -0.812349,-0.813466 0,-0.449415 0.364356,-0.813061 0.812349,-0.813061 0.449263,0 0.812553,0.363646 0.812553,0.813061 z m 0,-17.8871212 c 0,-0.4486024 0.363137,-0.8134664 0.812146,-0.8134664 0.448196,0 0.812755,0.364864 0.812755,0.8134664 0,0.4494149 -0.364559,0.8130601 -0.812755,0.8130601 -0.449009,0 -0.812146,-0.363696 -0.812146,-0.8130601 z m 5.328486,1.6260695 c 1.094795,0 1.98286,0.8888767 1.98286,1.9846367 0,0.295344 -0.06825,0.572458 -0.184032,0.824131 l -2.911853,5.829496 c -0.420825,0.672091 -1.148725,1.118713 -1.980473,1.118713 -0.638626,0 -1.214182,-0.264368 -1.640186,-0.688392 l -2.351938,-2.353817 c -0.12929,-0.129442 -0.301439,-0.210438 -0.493646,-0.210438 -0.264164,0 -0.49461,0.154832 -0.618364,0.381114 l -2.777385,5.307057 c -0.02361,0.0647 -0.04007,0.133402 -0.04007,0.20607 0,0.337443 0.27229,0.610189 0.609275,0.610189 0.07297,0 0.139395,-0.01666 0.205055,-0.04052 l 4.304888,-2.256114 c 0.129289,-0.08938 0.284985,-0.142137 0.453579,-0.142137 0.440477,0 0.7994,0.358059 0.7994,0.800314 0,0.349376 -0.227653,0.64274 -0.539857,0.752326 l -4.635271,2.319641 c -0.256039,0.119539 -0.538638,0.192563 -0.839111,0.192563 -1.0947443,0 -1.9828593,-0.888877 -1.9828593,-1.984586 0,-0.295344 0.06825,-0.572458 0.184082,-0.822963 l 2.9147993,-5.834319 c 0.421637,-0.670111 1.147506,-1.115159 1.977324,-1.115159 0.638627,0 1.214386,0.264419 1.640593,0.688392 l 2.351735,2.353817 c 0.12934,0.129442 0.301489,0.210438 0.493443,0.210438 0.263402,0 0.49268,-0.151278 0.61679,-0.379133 l 2.780176,-5.311019 c 0.02255,-0.0647 0.0392,-0.132184 0.0392,-0.204039 0,-0.337493 -0.272492,-0.609783 -0.609629,-0.609783 -0.07262,0 -0.139242,0.01625 -0.204649,0.04012 l -4.304887,2.256165 c -0.12934,0.08932 -0.285188,0.142086 -0.453579,0.142086 -0.440883,0 -0.798841,-0.358059 -0.798841,-0.800314 0,-0.348969 0.226891,-0.642739 0.539247,-0.751919 L 20.489919,8.8858042 C 20.74611,8.7663157 21.02815,8.6932413 21.328826,8.6932413 Z"
       id="path2"
       style="stroke-width:0.0507813;fill-opacity:1;fill:currentColor;"
       class="ColorScheme-Text" />
  </g>
</svg>
