<?xml version="1.0" encoding="UTF-8" standalone="no"?>
<svg
   width="32"
   height="32"
   version="1.1"
   id="svg17"
   sodipodi:docname="configure.svg"
   inkscape:version="1.1.2 (0a00cf5339, 2022-02-04)"
   xmlns:inkscape="http://www.inkscape.org/namespaces/inkscape"
   xmlns:sodipodi="http://sodipodi.sourceforge.net/DTD/sodipodi-0.dtd"
   xmlns="http://www.w3.org/2000/svg"
   xmlns:svg="http://www.w3.org/2000/svg"
   xmlns:rdf="http://www.w3.org/1999/02/22-rdf-syntax-ns#"
   xmlns:cc="http://creativecommons.org/ns#"
   xmlns:dc="http://purl.org/dc/elements/1.1/">
  <style
     id="current-color-scheme"
     type="text/css">.ColorScheme-Text { color:#eceff4; }
</style>
  <metadata
     id="metadata23">
    <rdf:RDF>
      <cc:Work
         rdf:about="">
        <dc:format>image/svg+xml</dc:format>
        <dc:type
           rdf:resource="http://purl.org/dc/dcmitype/StillImage" />
      </cc:Work>
    </rdf:RDF>
  </metadata>
  <defs
     id="defs21" />
  <sodipodi:namedview
     pagecolor="#ffffff"
     bordercolor="#000000"
     borderopacity="1"
     objecttolerance="10"
     gridtolerance="10"
     guidetolerance="10"
     inkscape:pageopacity="0"
     inkscape:pageshadow="2"
     inkscape:window-width="1920"
     inkscape:window-height="1009"
     id="namedview19"
     showgrid="false"
     inkscape:zoom="6.9384855"
     inkscape:cx="-2.0177314"
     inkscape:cy="-1.0088657"
     inkscape:window-x="0"
     inkscape:window-y="0"
     inkscape:window-maximized="1"
     inkscape:current-layer="svg17"
     inkscape:document-rotation="0"
     inkscape:showpageshadow="false"
     inkscape:lockguides="true"
     inkscape:pagecheckerboard="0">
    <inkscape:grid
       type="xygrid"
       id="grid863"
       originx="9.5688388e-14"
       originy="0" />
  </sodipodi:namedview>
  <g
     id="configure">
    <rect
       style="opacity:0.00100002"
       width="32"
       height="32"
       x="0"
       y="0"
       id="rect12" />
    <path
       fill-rule="evenodd"
       clip-rule="evenodd"
       d="m 25.268575,13.024853 c 0.01097,0 0.02053,-0.0062 0.03187,-0.0073 1.514256,0.149766 2.699683,1.427491 2.699683,2.982388 0,1.558036 -1.18688,2.838339 -2.707042,2.985527 -0.0022,0.0073 -0.0069,0.01317 -0.0095,0.02053 -0.01097,-7.5e-4 -0.01978,-0.0066 -0.03188,-0.0066 -0.38222,0 -0.808128,0.06811 -0.966332,0.450377 -0.158204,0.383063 0.06591,0.717049 0.358877,1.009269 0.01027,0.01027 0.02381,0.01462 0.03478,0.02344 0.957941,1.177739 0.903707,2.904808 -0.19411,4.002719 -1.096786,1.097114 -2.825308,1.152801 -4.003422,0.195563 -0.01758,0.0095 -0.03661,0.01317 -0.05419,0.02124 -0.0077,-0.0095 -0.01097,-0.02053 -0.01978,-0.03005 -0.27136,-0.270283 -0.618893,-0.52369 -1.001582,-0.364033 -0.383345,0.158204 -0.459517,0.552237 -0.459517,0.966754 0,0.03736 0.01027,0.07106 0.02236,0.104719 -0.188584,1.476553 -1.440667,2.620589 -2.968892,2.620589 -1.555646,0 -2.834073,-1.184348 -2.985339,-2.700432 -0.0165,-0.0059 -0.03075,-0.01538 -0.04763,-0.02124 7.5e-4,-0.0073 0.004,-0.01392 0.004,-0.02123 0,-0.382267 -0.06773,-0.807097 -0.450096,-0.965301 -0.382689,-0.158954 -0.71705,0.06591 -1.009598,0.358876 -0.01758,0.01758 -0.02634,0.03956 -0.03881,0.06005 -1.176659,0.92133 -2.875134,0.857627 -3.957623,-0.225565 C 6.415438,23.385779 6.361579,21.655054 7.32402,20.476565 7.31375,20.456035 7.30827,20.434095 7.2995,20.412115 c 0.270282,-0.270283 0.522565,-0.61819 0.364033,-1.000504 -0.158954,-0.382267 -0.55369,-0.45994 -0.967879,-0.45994 -0.02709,0 -0.05091,0.01027 -0.07655,0.01683 C 5.143661,18.781136 4,17.526475 4,15.999938 c 0,-1.561506 1.192411,-2.842136 2.716511,-2.98534 0.0044,-0.01355 0.01247,-0.02564 0.01833,-0.03881 0.376829,-0.0033 0.788815,-0.07397 0.944113,-0.44972 C 7.837158,12.144443 7.614504,11.811957 7.322281,11.519737 6.362418,10.342748 6.416277,8.613475 7.514891,7.514862 8.617489,6.411467 10.358855,6.36056 11.536969,7.335048 c 0.01242,-0.0062 0.02522,-0.0088 0.03806,-0.0143 0.268079,0.264048 0.609377,0.503534 0.984004,0.348658 0.382689,-0.158579 0.459611,-0.55369 0.459611,-0.967551 0,-0.0015 -7.5e-4,-0.0022 -7.5e-4,-0.004 C 13.169816,5.182848 14.444962,4 15.999858,4 c 1.564085,0 2.846215,1.196067 2.98609,2.72312 0.0033,0.0011 0.0051,0.0037 0.0081,0.0044 0,0.08972 0.0048,0.182016 0.01613,0.272438 h -0.01064 c 0,0.413815 -0.335439,0.750378 -0.750003,0.750378 -0.413439,0 -0.749253,-0.336563 -0.749253,-0.750378 0,-0.828753 -0.672002,-1.500005 -1.500381,-1.500005 -0.828753,0 -1.500005,0.671252 -1.500005,1.500005 v 0.750378 l -0.0048,0.0062 c 0.01355,0.495846 -0.301735,0.958739 -0.799409,1.106677 -0.01209,0.0037 -0.02489,0.0037 -0.03661,0.0073 l -0.0088,0.01172 c -0.350841,0.117941 -0.691436,0.2585662 -1.018109,0.4240825 l -0.02161,-0.00328 c -0.0128,0.00694 -0.02306,0.017203 -0.03591,0.024516 -0.485253,0.2625932 -1.077005,0.1311083 -1.410241,-0.2849089 L 10.696733,8.575344 c -0.586314,-0.58594 -1.53624,-0.58594 -2.121477,0 -0.585518,0.5859397 -0.585518,1.535912 0,2.121102 l 0.530252,0.530628 0.0033,0.02236 c 0.350814,0.342751 0.451924,0.884769 0.206907,1.337395 -0.004,0.0069 -0.0095,0.01172 -0.01355,0.01903 l 0.004,0.02527 c -0.16331,0.327045 -0.306139,0.667593 -0.423327,1.019157 l -0.02269,0.01758 c -0.0037,0.01317 -0.0044,0.02602 -0.0081,0.03956 C 8.692764,14.242834 8.1702,14.566555 7.634791,14.499898 H 7.000289 c -0.828753,0 -1.500334,0.672003 -1.500334,1.500006 0,0.827815 0.671581,1.500191 1.500334,1.500191 h 0.749253 l 0.02236,0.01683 c 0.485252,-7.49e-4 0.93455,0.310548 1.080285,0.799081 0.0014,0.0044 0.0014,0.0088 0.0022,0.01317 l 0.02784,0.02053 c 0.117938,0.350814 0.259267,0.691409 0.42408,1.018036 l -0.0066,0.04542 c 0.0051,0.0088 0.01134,0.01538 0.01613,0.02419 0.262595,0.484877 0.13111,1.076675 -0.284907,1.409911 L 8.575428,21.30357 c -0.585518,0.58519 -0.585518,1.535162 0,2.121102 0.58519,0.58519 1.535162,0.58519 2.121477,0 l 0.530627,-0.530252 0.02198,-0.0037 c 0.342001,-0.341298 0.878113,-0.437252 1.325255,-0.195564 0.0033,0.0015 0.0048,0.0044 0.0081,0.0059 l 0.04833,-0.0073 c 0.327048,0.163313 0.667597,0.306142 1.01916,0.42333 l 0.03005,0.03956 c 0.0048,0.0015 0.01064,0.0015 0.01537,0.0037 0.489987,0.145032 0.800863,0.596205 0.79941,1.083238 l 0.0048,0.0059 v 0.750658 c 0,0.828379 0.671253,1.500006 1.500006,1.500006 0.828378,0 1.500381,-0.671627 1.500381,-1.500006 v -0.750706 l 0.0048,-0.0059 c -0.0015,-0.48708 0.30947,-0.937504 0.799457,-1.083239 0.0055,-0.0022 0.01027,-0.0022 0.01575,-0.0037 l 0.02967,-0.03881 c 0.350814,-0.117937 0.691034,-0.258562 1.017988,-0.42408 l 0.04945,0.0073 c 0.0029,-0.0015 0.0048,-0.0044 0.0077,-0.0059 0.447142,-0.241688 0.983301,-0.145734 1.325302,0.195565 l 0.02236,0.0037 0.530627,0.530252 c 0.58519,0.585191 1.535163,0.585191 2.121478,0 0.585564,-0.58594 0.585564,-1.535912 0,-2.121102 l -0.455955,-0.456283 c -0.416018,-0.333235 -0.547128,-0.925035 -0.284533,-1.409911 0.0048,-0.0088 0.01097,-0.01613 0.01575,-0.02419 l -0.0073,-0.04978 c 0.163313,-0.326626 0.307267,-0.662815 0.42333,-1.012879 l 0.0293,-0.02198 c 0.0011,-0.0044 0.0018,-0.0081 0.0026,-0.01247 0.145406,-0.488533 0.594377,-0.799082 1.079582,-0.799082 l 0.02198,-0.01683 h 0.750285 c 0.828753,0 1.500006,-0.672377 1.500006,-1.500193 0,-0.828003 -0.671253,-1.500006 -1.500006,-1.500006 H 24.36507 c -0.536158,0.06666 -1.057973,-0.257063 -1.216926,-0.792472 -0.004,-0.01355 -0.0048,-0.02709 -0.0081,-0.04064 l -0.02236,-0.0165 C 23.000087,13.299495 22.858383,12.9589 22.693945,12.632976 l 0.004,-0.02634 c -0.004,-0.0073 -0.0095,-0.0128 -0.01355,-0.01978 -0.245016,-0.452626 -0.143907,-0.994644 0.206532,-1.337395 l 0.0033,-0.02236 0.530627,-0.530628 c 0.585564,-0.58519 0.585564,-1.5351623 0,-2.1211026 -0.278345,-0.277548 -0.68555,-0.436126 -1.049911,-0.450423 -0.414564,0 -0.750378,-0.335439 -0.750378,-0.750003 0,-0.414564 0.335814,-0.750003 0.750378,-0.750003 0.05381,0 0.105844,0.0051 0.156751,0.0165 0.705331,0.04612 1.416521,0.335814 1.953383,0.873425 1.101848,1.101567 1.154207,2.8388556 0.184594,4.0169696 0.004,0.0069 0.0048,0.0157 0.0088,0.02306 -0.004,0.0033 -0.0081,0.004 -0.01172,0.0081 -0.270611,0.270985 -0.52369,0.618893 -0.365111,1.002332 0.158063,0.382642 0.553174,0.459564 0.966941,0.459564 z M 20.125196,9.249947 c -0.414564,0 -0.750003,-0.3361886 -0.750003,-0.7503776 0,-0.413439 0.335439,-0.749253 0.750003,-0.749253 0.413439,0 0.749253,0.335814 0.749253,0.749253 0,0.414189 -0.335814,0.7503776 -0.749253,0.7503776 z m -6.750261,8.625175 c 0.414564,0 0.750378,0.335439 0.750378,0.750003 0,0.414563 -0.335814,0.749956 -0.750378,0.749956 -0.414189,0 -0.750003,-0.335392 -0.750003,-0.749956 0,-0.414564 0.335814,-0.750003 0.750003,-0.750003 z M 11.50035,15.999927 c 0,-2.485088 2.014836,-4.499971 4.499548,-4.499971 2.485135,0 4.499924,2.014883 4.499924,4.499971 0,2.485322 -2.014789,4.500158 -4.499924,4.500158 -0.414189,0 -0.750003,-0.336188 -0.750003,-0.750003 0,-0.413814 0.335814,-0.750706 0.750003,-0.750706 1.657132,0 2.999637,-1.342552 2.999637,-2.999449 0,-1.656709 -1.342552,-2.999637 -2.999637,-2.999637 -1.656709,0 -3.000339,1.342881 -3.000339,2.999637 0,0.414752 -0.335814,0.750191 -0.749253,0.750191 -0.414564,0 -0.749956,-0.335439 -0.749956,-0.750191 z"
       id="path2"
       style="stroke-width:0.0468752;fill-opacity:1;fill:currentColor"
       class="ColorScheme-Text" />
  </g>
  <g
     id="22-22-configure"
     transform="translate(0,-22)">
    <rect
       style="opacity:0.00100002"
       width="22"
       height="22"
       x="0"
       y="0"
       id="rect2" />
    <path
       fill-rule="evenodd"
       clip-rule="evenodd"
       d="m 18.723824,8.5207156 c 0.0091,0 0.01711,-0.00517 0.02656,-0.00608 1.261881,0.124805 2.249737,1.1895764 2.249737,2.4853244 0,1.298364 -0.989067,2.365284 -2.25587,2.487941 -0.0018,0.0061 -0.0057,0.01097 -0.0079,0.01711 -0.0091,-6.25e-4 -0.01648,-0.0055 -0.02657,-0.0055 -0.318517,0 -0.67344,0.05676 -0.805277,0.375314 -0.131837,0.31922 0.05492,0.597542 0.299064,0.841058 0.0086,0.0086 0.01984,0.01218 0.02898,0.01953 0.798284,0.981451 0.753089,2.420676 -0.161759,3.335602 -0.913989,0.914262 -2.354425,0.960668 -3.336187,0.162969 -0.01465,0.0079 -0.03051,0.01098 -0.04516,0.0177 -0.0064,-0.0079 -0.0091,-0.01711 -0.01648,-0.02504 -0.226133,-0.225236 -0.515744,-0.436409 -0.834652,-0.303361 -0.319454,0.131836 -0.382931,0.460198 -0.382931,0.805629 0,0.03113 0.0086,0.05922 0.01863,0.08727 -0.157163,1.230453 -1.200566,2.183817 -2.474088,2.183817 -1.296372,0 -2.361729,-0.986957 -2.487784,-2.250361 -0.01375,-0.0049 -0.02562,-0.01282 -0.03969,-0.0177 6.25e-4,-0.0061 0.0033,-0.0116 0.0033,-0.01769 0,-0.318556 -0.05644,-0.672581 -0.37508,-0.804418 -0.318908,-0.132462 -0.597542,0.05492 -0.841333,0.299063 -0.01465,0.01465 -0.02195,0.03297 -0.03234,0.05004 -0.98055,0.767776 -2.395947,0.71469 -3.298022,-0.187971 -0.916137,-0.916137 -0.961019,-2.358409 -0.158985,-3.340484 -0.0086,-0.01711 -0.01313,-0.03539 -0.02043,-0.05371 0.225235,-0.225236 0.435471,-0.515158 0.303361,-0.833754 -0.132462,-0.318556 -0.461409,-0.383283 -0.806566,-0.383283 -0.02258,0 -0.04243,0.0086 -0.06379,0.01403 C 1.953051,13.317623 1,12.272071 1,10.999956 1,9.698701 1.993676,8.6315085 3.263761,8.5121718 c 0.0037,-0.011292 0.01039,-0.021367 0.01527,-0.032342 0.314024,-0.00275 0.657346,-0.061642 0.786761,-0.374767 C 4.197629,7.7870398 4.012082,7.509968 3.768564,7.2664512 2.968678,6.2856263 3.01356,4.8445646 3.929073,3.9290532 4.847905,3.0095568 6.299044,2.9671343 7.280806,3.7792081 c 0.01035,-0.00517 0.02102,-0.00733 0.03172,-0.011917 0.223399,0.2200402 0.507815,0.419612 0.820004,0.2905486 0.318908,-0.1321493 0.383009,-0.4614087 0.383009,-0.8062931 0,-0.00125 -6.25e-4,-0.00183 -6.25e-4,-0.00333 C 8.641518,1.9857073 9.70414,1 10.999888,1 c 1.303405,0 2.371847,0.9967231 2.48841,2.2692681 0.0027,9.167e-4 0.0042,0.00308 0.0068,0.00367 0,0.074767 0.004,0.15168 0.01344,0.2270318 h -0.0089 c 0,0.344846 -0.279533,0.6253154 -0.625003,0.6253154 -0.344533,0 -0.624378,-0.2804694 -0.624378,-0.6253154 0,-0.6906279 -0.560002,-1.2500049 -1.250318,-1.2500049 -0.690628,0 -1.250005,0.559377 -1.250005,1.2500049 v 0.6253154 l -0.004,0.00517 c 0.01129,0.4132053 -0.251446,0.7989497 -0.666175,0.9222314 -0.01008,0.00308 -0.02074,0.00308 -0.03051,0.00608 l -0.0073,0.00977 C 8.749581,5.1668179 8.465751,5.2840055 8.193524,5.4219364 l -0.01801,-0.00275 c -0.01067,0.00575 -0.01922,0.014333 -0.02992,0.020433 C 7.741217,5.6584475 7.24809,5.5488766 6.970393,5.2021955 L 6.580664,4.8127794 c -0.488595,-0.4882836 -1.2802,-0.4882836 -1.767898,0 -0.487932,0.4882837 -0.487932,1.2799275 0,1.7675861 l 0.441877,0.4421903 0.0027,0.018633 c 0.292345,0.2856261 0.376603,0.7373081 0.172422,1.1144967 -0.0033,0.00575 -0.0079,0.00977 -0.01129,0.015858 l 0.0033,0.021058 C 5.285683,8.4651391 5.166659,8.7489293 5.069002,9.0418995 l -0.01891,0.01465 c -0.0031,0.010975 -0.0037,0.021683 -0.0068,0.032967 C 4.910555,9.53569 4.475085,9.805457 4.02891,9.74991 H 3.500158 c -0.690628,0 -1.250279,0.560003 -1.250279,1.250006 0,0.689846 0.559651,1.25016 1.250279,1.25016 h 0.624378 l 0.01863,0.01403 c 0.404377,-6.25e-4 0.778792,0.25879 0.900238,0.665901 0.0012,0.0037 0.0012,0.0073 0.0018,0.01098 l 0.0232,0.01711 c 0.09828,0.292345 0.216056,0.576174 0.3534,0.848364 l -0.0055,0.03785 c 0.0042,0.0073 0.0095,0.01282 0.01344,0.02016 0.218829,0.404064 0.109258,0.897229 -0.237423,1.174926 l -0.379585,0.380256 c -0.487932,0.487659 -0.487932,1.279303 0,1.767586 0.487659,0.487659 1.279303,0.487659 1.767899,0 l 0.442189,-0.441876 0.01832,-0.0031 c 0.285001,-0.284415 0.731761,-0.364377 1.10438,-0.16297 0.0027,0.0013 0.004,0.0037 0.0068,0.0049 l 0.04027,-0.0061 c 0.27254,0.136095 0.556331,0.255119 0.8493,0.352776 l 0.02504,0.03297 c 0.004,0.0013 0.0089,0.0013 0.01281,0.0031 0.408323,0.12086 0.667386,0.496837 0.666176,0.902699 l 0.004,0.0049 v 0.625549 c 0,0.690316 0.559377,1.250006 1.250005,1.250006 0.690316,0 1.250319,-0.55969 1.250319,-1.250006 v -0.625589 l 0.004,-0.0049 c -0.0012,-0.405901 0.257892,-0.781254 0.666214,-0.9027 0.0046,-0.0018 0.0086,-0.0018 0.01313,-0.0031 l 0.02473,-0.03234 c 0.292345,-0.09828 0.575862,-0.215469 0.848324,-0.3534 l 0.04121,0.0061 c 0.0024,-0.0012 0.004,-0.0037 0.0064,-0.0049 0.372619,-0.201407 0.819418,-0.121445 1.104419,0.162971 l 0.01863,0.0031 0.442189,0.441876 c 0.487659,0.48766 1.279303,0.48766 1.767899,0 0.487971,-0.488283 0.487971,-1.279927 0,-1.767586 L 16.807427,15.039383 C 16.460829,14.761679 16.35157,14.268512 16.5704,13.864448 c 0.004,-0.0073 0.0091,-0.01344 0.01313,-0.02016 l -0.0061,-0.04148 c 0.136095,-0.272188 0.256056,-0.552346 0.352776,-0.844066 l 0.02442,-0.01832 c 9.17e-4,-0.0037 0.0015,-0.0068 0.0022,-0.01039 0.121172,-0.407111 0.495314,-0.665902 0.899652,-0.665902 l 0.01832,-0.01403 h 0.625238 c 0.690628,0 1.250006,-0.560315 1.250006,-1.250162 0,-0.690003 -0.559378,-1.250005 -1.250006,-1.250005 h -0.529105 c -0.446798,0.05555 -0.881644,-0.21422 -1.014105,-0.6603938 -0.0033,-0.011292 -0.004,-0.022575 -0.0068,-0.033867 l -0.01863,-0.01375 c -0.098,-0.2923427 -0.216084,-0.576172 -0.353116,-0.8477756 l 0.0033,-0.02195 c -0.0033,-0.00608 -0.0079,-0.010667 -0.01129,-0.016483 C 16.36611,7.7785249 16.450367,7.3268431 16.7424,7.0412169 l 0.0027,-0.018633 0.442189,-0.4421903 c 0.487971,-0.4876586 0.487971,-1.2793024 0,-1.7675869 -0.231954,-0.2312901 -0.571292,-0.3634385 -0.874926,-0.3753527 -0.34547,0 -0.625315,-0.2795327 -0.625315,-0.6250029 0,-0.3454703 0.279845,-0.6250029 0.625315,-0.6250029 0.04484,0 0.0882,0.00425 0.130626,0.01375 0.587776,0.038433 1.180435,0.2798452 1.62782,0.7278546 0.918207,0.9179731 0.96184,2.3657148 0.153829,3.3474772 0.0033,0.00575 0.004,0.013083 0.0073,0.019217 -0.0033,0.00275 -0.0068,0.00333 -0.0098,0.00675 -0.225509,0.2258209 -0.436408,0.5157445 -0.304259,0.8352772 0.131719,0.3188685 0.460979,0.3829702 0.805785,0.3829702 z m -4.286152,-3.145757 c -0.34547,0 -0.625003,-0.2801577 -0.625003,-0.6253154 0,-0.3445327 0.279533,-0.6243779 0.625003,-0.6243779 0.344532,0 0.624378,0.2798452 0.624378,0.6243779 0,0.3451577 -0.279846,0.6253154 -0.624378,0.6253154 z M 8.812451,12.562609 c 0.34547,0 0.625315,0.279532 0.625315,0.625003 0,0.345469 -0.279845,0.624963 -0.625315,0.624963 -0.345158,0 -0.625003,-0.279493 -0.625003,-0.624963 0,-0.345471 0.279845,-0.625003 0.625003,-0.625003 z M 7.250296,10.999945 c 0,-2.0709074 1.679031,-3.7499778 3.749625,-3.7499778 2.070947,0 3.749939,1.6790704 3.749939,3.7499778 0,2.071103 -1.678992,3.750134 -3.749939,3.750134 -0.345157,0 -0.625003,-0.280157 -0.625003,-0.625003 0,-0.344845 0.279846,-0.625588 0.625003,-0.625588 1.380944,0 2.499699,-1.118794 2.499699,-2.499543 0,-1.380592 -1.118794,-2.4996985 -2.499699,-2.4996985 -1.380591,0 -2.500284,1.1190675 -2.500284,2.4996985 0,0.345627 -0.279845,0.62516 -0.624378,0.62516 -0.34547,0 -0.624963,-0.279533 -0.624963,-0.62516 z"
       id="path2-3"
       style="stroke-width:0.0390627;fill-opacity:1;fill:currentColor;"
       class="ColorScheme-Text" />
  </g>
  <g
     id="16-16-configure"
     transform="translate(0,-38)">
    <rect
       style="opacity:0.00100002"
       width="16"
       height="16"
       x="0"
       y="0"
       id="rect7" />
    <path
       fill-rule="evenodd"
       clip-rule="evenodd"
       d="m 14.179099,6.0165778 c 0.0073,0 0.01369,-0.00416 0.02125,-0.00488 1.009506,0.099844 1.799792,0.951663 1.799792,1.988263 0,1.0386928 -0.791255,1.89223 -1.804699,1.9903562 -0.0014,0.0049 -0.0046,0.0088 -0.0063,0.01369 -0.0073,-5e-4 -0.01318,-0.0044 -0.02126,-0.0044 -0.254814,0 -0.538753,0.04541 -0.644223,0.300251 -0.105469,0.255376 0.04394,0.478034 0.239252,0.672848 0.0069,0.0069 0.01587,0.0097 0.02318,0.01562 0.638628,0.785162 0.602472,1.936543 -0.129407,2.668485 -0.731193,0.731411 -1.883543,0.768536 -2.668954,0.130376 -0.01172,0.0063 -0.02441,0.0088 -0.03613,0.01416 -0.0051,-0.0063 -0.0073,-0.01369 -0.01318,-0.02003 -0.180907,-0.180189 -0.412596,-0.349128 -0.667723,-0.24269 -0.255563,0.105469 -0.306345,0.368159 -0.306345,0.644505 0,0.0249 0.0069,0.04738 0.0149,0.06982 -0.12573,0.984364 -0.960454,1.747056 -1.979273,1.747056 -1.037099,0 -1.889386,-0.789567 -1.99023,-1.800292 -0.011,-0.0039 -0.0205,-0.01026 -0.03175,-0.01416 5e-4,-0.0049 0.0026,-0.0093 0.0026,-0.01415 0,-0.254845 -0.04515,-0.538065 -0.300065,-0.643535 -0.255127,-0.10597 -0.478034,0.04394 -0.673067,0.239251 -0.01172,0.01172 -0.01756,0.02638 -0.02587,0.04003 -0.784442,0.614219 -1.916761,0.571751 -2.638422,-0.150379 -0.732911,-0.732911 -0.768816,-1.88673 -0.127188,-2.672392 -0.0069,-0.01369 -0.0105,-0.02831 -0.01634,-0.04297 0.180188,-0.18019 0.348377,-0.412128 0.242689,-0.667005 -0.10597,-0.254842 -0.369128,-0.306623 -0.645254,-0.306623 -0.01806,0 -0.03394,0.0069 -0.05103,0.01122 C 0.762442,9.8540939 0,9.0176511 0,7.9999576 0,6.958952 0.794942,6.1051964 1.811012,6.0097274 c 0.003,-0.00903 0.0083,-0.017096 0.01222,-0.025872 C 2.074451,5.9816154 2.349109,5.9345434 2.452641,5.6840413 2.558111,5.4296225 2.409671,5.2079646 2.214859,5.0131507 1.574949,4.2284895 1.610854,3.0756382 2.343266,2.3432283 3.078333,1.6076304 4.239246,1.573692 5.024656,2.2233521 c 0.0083,-0.00416 0.01682,-0.00584 0.02538,-0.00954 0.17872,0.1760323 0.406253,0.3356901 0.656005,0.2324388 0.255126,-0.1057194 0.306407,-0.369127 0.306407,-0.6450354 0,-9.6e-4 -5e-4,-0.00144 -5e-4,-0.00264 C 6.113232,0.7885668 6.96333,0 7.99993,0 c 1.042726,0 1.897481,0.7973796 1.990731,1.8154171 0.0022,7.336e-4 0.0034,0.00248 0.0054,0.00296 0,0.059816 0.0032,0.1213442 0.01075,0.1816259 h -0.0071 c 0,0.2758772 -0.223626,0.5002528 -0.500003,0.5002528 -0.275627,0 -0.499503,-0.2243756 -0.499503,-0.5002528 0,-0.5525032 -0.448002,-1.0000055 -1.000256,-1.0000055 -0.552503,0 -1.000005,0.4475023 -1.000005,1.0000055 v 0.5002528 l -0.0032,0.0041 c 0.009,0.3305645 -0.201157,0.6391609 -0.532941,0.7377859 -0.0081,0.00248 -0.01659,0.00248 -0.02441,0.00488 l -0.0058,0.00784 C 6.199698,3.3334937 5.972634,3.4272395 5.754852,3.5375845 l -0.01441,-0.00216 c -0.0085,0.00456 -0.01538,0.011464 -0.02394,0.016344 C 5.393,3.7268304 4.998497,3.6391735 4.77634,3.3618282 L 4.464556,3.050295 c -0.390877,-0.390627 -1.024162,-0.390627 -1.414321,0 -0.390346,0.3906278 -0.390346,1.0239439 0,1.4140709 l 0.353503,0.3537533 0.0022,0.014904 c 0.233876,0.228502 0.301282,0.5898481 0.137937,0.891599 -0.0026,0.00456 -0.0063,0.00784 -0.009,0.012688 l 0.0026,0.016848 C 3.428602,5.972189 3.333382,6.1992213 3.255256,6.4335977 l -0.01513,0.01172 c -0.0025,0.00878 -0.003,0.017344 -0.0054,0.026376 C 3.128537,6.8286334 2.78016,7.0444474 2.42322,7.0000097 H 2.000217 c -0.552503,0 -1.000224,0.4480031 -1.000224,1.0000063 0,0.5518776 0.447721,1.0001295 1.000224,1.0001295 h 0.499504 l 0.0149,0.011224 c 0.323502,-5e-4 0.623034,0.2070323 0.720191,0.5327216 9.6e-4,0.00296 9.6e-4,0.00584 0.0014,0.00878 l 0.01856,0.013688 c 0.07862,0.2338763 0.172845,0.4609399 0.282721,0.6786919 l -0.0044,0.03028 c 0.0034,0.0058 0.0076,0.01026 0.01075,0.01613 0.175063,0.323252 0.08741,0.717784 -0.189939,0.939942 l -0.303669,0.304206 c -0.390346,0.390127 -0.390346,1.023444 0,1.414071 0.390128,0.390127 1.023444,0.390127 1.414322,0 l 0.353751,-0.353502 0.01466,-0.0025 c 0.228002,-0.227532 0.58541,-0.291502 0.883506,-0.130376 0.0022,10e-4 0.0032,0.003 0.0054,0.0039 l 0.03222,-0.0049 c 0.218032,0.108876 0.445065,0.204096 0.679441,0.282221 l 0.02003,0.02638 c 0.0032,10e-4 0.0071,10e-4 0.01025,0.0025 0.326659,0.09669 0.533909,0.39747 0.532941,0.72216 l 0.0032,0.0039 v 0.50044 c 0,0.552254 0.447503,1.000007 1.000006,1.000007 0.552254,0 1.000257,-0.447753 1.000257,-1.000007 v -0.500472 l 0.0032,-0.0039 c -9.6e-4,-0.324721 0.206314,-0.625004 0.532972,-0.722161 0.0037,-0.0014 0.0069,-0.0014 0.0105,-0.0025 l 0.01978,-0.02587 c 0.233876,-0.07862 0.46069,-0.172375 0.67866,-0.28272 l 0.03297,0.0049 c 0.0019,-9.6e-4 0.0032,-0.003 0.0051,-0.0039 0.298096,-0.161126 0.655535,-0.09716 0.883537,0.130377 l 0.0149,0.0025 0.353751,0.353501 c 0.390128,0.390129 1.023444,0.390129 1.414322,0 0.390377,-0.390627 0.390377,-1.023943 0,-1.414071 l -0.30397,-0.304189 c -0.277279,-0.222163 -0.364687,-0.616698 -0.189622,-0.939949 0.0032,-0.0058 0.0073,-0.01075 0.0105,-0.01613 l -0.0049,-0.03318 c 0.108876,-0.217751 0.204845,-0.4418776 0.282221,-0.6752539 l 0.01954,-0.014656 c 7.34e-4,-0.00296 0.0012,-0.00544 0.0018,-0.00831 0.09694,-0.3256893 0.396252,-0.5327224 0.719723,-0.5327224 l 0.01466,-0.011224 h 0.500191 c 0.552503,0 1.000006,-0.4482527 1.000006,-1.0001311 0,-0.5520032 -0.447503,-1.0000055 -1.000006,-1.0000055 h -0.423285 c -0.357439,0.044432 -0.705316,-0.1713843 -0.811285,-0.528324 -0.0026,-0.00903 -0.0032,-0.018056 -0.0054,-0.027096 l -0.0149,-0.011 C 12.666784,6.1997413 12.572316,5.9726778 12.462691,5.7553942 l 0.0026,-0.01756 c -0.0026,-0.00488 -0.0063,-0.00854 -0.009,-0.013184 -0.163345,-0.3017509 -0.09594,-0.663097 0.137688,-0.8915982 l 0.0022,-0.014904 0.353752,-0.3537533 c 0.390377,-0.390127 0.390377,-1.0234431 0,-1.4140717 -0.185564,-0.1850323 -0.457035,-0.2907509 -0.699942,-0.3002821 -0.276377,0 -0.500253,-0.2236267 -0.500253,-0.5000031 0,-0.2763772 0.223876,-0.5000032 0.500253,-0.5000032 0.03587,0 0.07056,0.00336 0.104501,0.011 0.470221,0.030744 0.944349,0.2238764 1.302258,0.5822841 0.734566,0.7343803 0.769473,1.8925749 0.123063,2.6779864 0.0026,0.00456 0.0032,0.010464 0.0058,0.015376 -0.0026,0.00216 -0.0054,0.00264 -0.0078,0.00544 -0.180407,0.180657 -0.349127,0.4125958 -0.243407,0.6682226 0.105375,0.2550947 0.368783,0.3063764 0.644628,0.3063764 z M 10.750173,3.4999684 c -0.276377,0 -0.500003,-0.2241259 -0.500003,-0.5002527 0,-0.2756268 0.223626,-0.4995031 0.500003,-0.4995031 0.275626,0 0.499503,0.2238763 0.499503,0.4995031 0,0.2761268 -0.223877,0.5002527 -0.499503,0.5002527 z M 6.249989,9.2500979 c 0.276377,0 0.500253,0.2236259 0.500253,0.5000031 0,0.276376 -0.223876,0.499971 -0.500253,0.499971 -0.276127,0 -0.500003,-0.223595 -0.500003,-0.499971 0,-0.2763772 0.223876,-0.5000031 0.500003,-0.5000031 z M 5.000263,7.9999648 c 0,-1.6567289 1.343227,-2.9999869 2.999705,-2.9999869 1.65676,0 2.999955,1.343258 2.999955,2.9999869 0,1.6568849 -1.343195,3.0001112 -2.999955,3.0001112 -0.276126,0 -0.500003,-0.224126 -0.500003,-0.500003 0,-0.275876 0.223877,-0.500471 0.500003,-0.500471 1.104757,0 1.999762,-0.8950363 1.999762,-1.9996372 0,-1.1044753 -0.895037,-1.9997622 -1.999762,-1.9997622 -1.104475,0 -2.00023,0.8952557 -2.00023,1.9997622 0,0.276502 -0.223877,0.5001287 -0.499504,0.5001287 -0.276376,0 -0.499971,-0.2236267 -0.499971,-0.5001287 z"
       id="path2-3-6"
       style="stroke-width:0.0312502;fill-opacity:1;fill:currentColor;"
       class="ColorScheme-Text" />
  </g>
</svg>
