<?xml version="1.0" encoding="UTF-8" standalone="no"?>
<svg
   width="32"
   height="32"
   version="1.1"
   id="svg12"
   sodipodi:docname="desktop.svg"
   inkscape:version="1.2.2 (b0a8486541, 2022-12-01)"
   xmlns:inkscape="http://www.inkscape.org/namespaces/inkscape"
   xmlns:sodipodi="http://sodipodi.sourceforge.net/DTD/sodipodi-0.dtd"
   xmlns="http://www.w3.org/2000/svg"
   xmlns:svg="http://www.w3.org/2000/svg"
   xmlns:rdf="http://www.w3.org/1999/02/22-rdf-syntax-ns#"
   xmlns:cc="http://creativecommons.org/ns#"
   xmlns:dc="http://purl.org/dc/elements/1.1/">
  <style
     id="current-color-scheme"
     type="text/css">.ColorScheme-Text { color:#eceff4; }
</style>
  <metadata
     id="metadata18">
    <rdf:RDF>
      <cc:Work
         rdf:about="">
        <dc:format>image/svg+xml</dc:format>
        <dc:type
           rdf:resource="http://purl.org/dc/dcmitype/StillImage" />
      </cc:Work>
    </rdf:RDF>
  </metadata>
  <defs
     id="defs16">
    <linearGradient
       id="oomox"
       x1="0"
       x2="0"
       y1="0"
       y2="1">
      <stop
         offset="0%"
         style="stop-color:#303b3d; stop-opacity:1"
         id="stop18" />
      <stop
         offset="100%"
         style="stop-color:#bc985d; stop-opacity:1"
         id="stop20" />
    </linearGradient>
  </defs>
  <sodipodi:namedview
     pagecolor="#cccccc"
     bordercolor="#000000"
     borderopacity="1"
     objecttolerance="10"
     gridtolerance="10"
     guidetolerance="10"
     inkscape:pageopacity="0"
     inkscape:pageshadow="2"
     inkscape:window-width="1920"
     inkscape:window-height="1011"
     id="namedview14"
     showgrid="false"
     inkscape:zoom="13.876971"
     inkscape:cx="19.564788"
     inkscape:cy="20.645716"
     inkscape:window-x="0"
     inkscape:window-y="0"
     inkscape:window-maximized="1"
     inkscape:current-layer="svg12"
     inkscape:lockguides="false"
     inkscape:document-rotation="0"
     inkscape:showpageshadow="true"
     inkscape:pagecheckerboard="false"
     inkscape:deskcolor="#808080">
    <inkscape:grid
       type="xygrid"
       id="grid3359" />
  </sodipodi:namedview>
  <g
     id="desktop">
    <rect
       style="opacity:0.00100002;fill:#d1d5e9;fill-opacity:1"
       width="32"
       height="32"
       x="0"
       y="0"
       id="rect7" />
    <path
       d="m 8.0000023,9.5000023 c 0,0.8288327 -0.671174,1.5000067 -1.4999983,1.5000067 -0.828126,10e-7 -1.499997,-0.671174 -1.499997,-1.5000067 0,-0.8281266 0.671871,-1.4999932 1.499997,-1.4999932 0.8288243,0 1.4999983,0.6718666 1.4999983,1.4999932 z"
       id="path72-3"
       style="fill:currentColor;fill-opacity:1;stroke-width:0.0178575"
       class="ColorScheme-Text" />
    <path
       d="M 8.0000015,15.499993 C 8.0000015,16.328825 7.3288265,17 6.500004,17 5.671877,17 5.000006,16.328825 5.000006,15.499993 5.000006,14.671865 5.671877,14 6.500004,14 c 0.8288225,0 1.4999975,0.671865 1.4999975,1.499993 z"
       id="path72-3-6"
       style="fill:currentColor;fill-opacity:1;stroke-width:0.0178575"
       class="ColorScheme-Text" />
    <path
       d="m 26.5,19.692264 c 0,0.509767 -0.391776,0.923074 -0.875,0.923074 -0.483223,0 -0.875,-0.413307 -0.875,-0.923074 0,-0.509768 0.391777,-0.923074 0.875,-0.923074 0.483224,0 0.875,0.413306 0.875,0.923074 z m 0,8.307672 h -4.374999 c -0.483224,0 -0.875001,-0.41331 -0.875001,-0.923077 0,-0.509769 0.391777,-0.923072 0.875001,-0.923072 H 26.5 c 0.966448,0 1.75,-0.826614 1.75,-1.846151 V 7.6922978 C 28.25,6.6727617 27.466448,5.8461489 26.5,5.8461489 H 5.5000007 c -0.966438,0 -1.7500008,0.8266128 -1.7500008,1.8461489 v 7.8461312 0.508845 1.798841 c 0,0.509767 0.3917824,0.923075 0.8749999,0.923075 H 6.3301037 6.8125012 22.125001 c 0.483223,0 0.874999,0.413306 0.874999,0.923074 0,0.509767 -0.391776,0.923074 -0.874999,0.923074 H 4.1875003 c -1.0578741,0 -1.939928,-0.792806 -2.1428742,-1.846148 H 2 V 7.6922978 C 2,5.6532271 3.5671257,4 5.5000007,4 H 26.499999 C 28.432871,4 30,5.6532271 30,7.6922978 V 24.307636 c 0,2.03907 -1.567129,3.6923 -3.5,3.6923 z M 14.25,23.384561 c 0,-0.509767 0.391776,-0.923074 0.875,-0.923074 0.483225,0 0.875,0.413307 0.875,0.923074 0,0.509768 -0.391775,0.923075 -0.875,0.923075 -0.483224,0 -0.875,-0.413307 -0.875,-0.923075 z M 2.8749999,22.461487 c 0.4832196,0 0.875,0.413307 0.875,0.923074 v 0.923075 c 0,1.019537 0.7835628,1.846151 1.7500008,1.846151 H 17.750001 c 1.102798,0 1.102798,1.817742 1.78e-4,1.817742 h -4.59393 v 0 0 0 0 0 0 0 0 0 0 0 0 0 0 0 0 0 0 0 0 0 c 0,0 4.308345,0.02845 3.978522,0.02845 H 16 l -2.843751,-0.02845 -7.6562483,0.02845 C 3.5671357,28.006679 2,26.346748 2,24.30768 V 23.384565 C 2,22.874797 2.3917804,22.46149 2.8749999,22.46149 Z"
       id="path2-3"
       style="fill:currentColor;fill-opacity:1;stroke-width:0.0561697"
       class="ColorScheme-Text "
       sodipodi:nodetypes="sssssssssssssssccssccssssccsssssssssssssssssccscccccccccccccccccccsccssss" />
  </g>
</svg>
