<?xml version="1.0" encoding="UTF-8" standalone="no"?>
<svg
   width="32"
   height="32"
   version="1.1"
   id="svg12"
   sodipodi:docname="device.svg"
   inkscape:version="1.1.2 (0a00cf5339, 2022-02-04)"
   xmlns:inkscape="http://www.inkscape.org/namespaces/inkscape"
   xmlns:sodipodi="http://sodipodi.sourceforge.net/DTD/sodipodi-0.dtd"
   xmlns="http://www.w3.org/2000/svg"
   xmlns:svg="http://www.w3.org/2000/svg"
   xmlns:rdf="http://www.w3.org/1999/02/22-rdf-syntax-ns#"
   xmlns:cc="http://creativecommons.org/ns#"
   xmlns:dc="http://purl.org/dc/elements/1.1/">
  <style
     id="current-color-scheme"
     type="text/css">.ColorScheme-Text { color:#eceff4; }
</style>
  <g
     id="22-22-device-notifier"
     transform="translate(32,10)">
    <rect
       style="opacity:0.00100002"
       width="22"
       height="22"
       x="0"
       y="0"
       id="rect2" />
    <path
       style="font-style:normal;font-variant:normal;font-weight:normal;font-stretch:normal;font-size:medium;line-height:normal;font-family:Sans;-inkscape-font-specification:Sans;text-indent:0;text-align:start;text-decoration:none;text-decoration-line:none;letter-spacing:normal;word-spacing:normal;text-transform:none;writing-mode:lr-tb;direction:ltr;baseline-shift:baseline;text-anchor:start;display:inline;overflow:visible;visibility:visible;fill:currentColor;fill-opacity:1;fill-rule:nonzero;stroke:none;stroke-width:1.23805;marker:none;enable-background:accumulate"
       d="M 8.129092,7.24297 C 7.153812,7.24297 6.33288,7.92529 6.33288,8.76 v 1.327407 c -0.0129,0.769328 0.955805,0.769328 0.942931,0 V 8.76 c 0,-0.23497 0.382738,-0.646 0.651358,-0.646 h 6.443528 c 0.268626,0 0.583999,0.344363 0.583999,0.579333 v 8.789334 c 0,0.234946 -0.584812,0.646 -0.853434,0.646 H 7.927169 c -0.268616,0 -0.651358,-0.411054 -0.651358,-0.646 v -3.765334 c 0.01295,-0.769318 -0.942931,-0.769424 -0.942931,0 V 17.48297 C 6.33288,18.31767 7.153808,19 8.129092,19 h 5.837699 C 14.942078,19 15.763,18.31767 15.763,17.48297 V 8.76 c 0,-0.83471 -0.820926,-1.51703 -1.796209,-1.51703 z"
       id="path2-3-3-3-3"
       sodipodi:nodetypes="cccccccccccccsccccccc"
       class="ColorScheme-Text" />
    <path
       d="M 8.9206964,3 C 8.4552453,3 8.0849766,3.565438 8.085,4.07078 v 2.129269 h 0.8357198 l -2.34e-5,-1.066724 c 0.023866,-1.263551 0,-1.350792 0.8357096,-1.350792 h 2.513931 c 0.82892,-5.2e-5 0.832941,0.103697 0.82892,1.350792 l 3.2e-5,1.066724 H 13.935 l -2.3e-5,-2.133387 C 13.934977,3.424179 13.585538,3 13.110876,3.000053 Z m 0.835733,2.133389 v 1.06666 H 10.59214 v -1.06666 z m 1.6714306,0 v 1.06666 h 0.835711 v -1.06666 z"
       style="solid-color:#d5c289;fill:currentColor;fill-opacity:1;fill-rule:evenodd;stroke-width:0.944159"
       id="path4-6-6-6"
       sodipodi:nodetypes="ccccccccccccccccccccccc"
       class="ColorScheme-Text" />
    <path
       id="path8-9-7-7-7-7"
       d="M 6.796753,11.2 A 0.5967555,0.59999656 0 0 0 6.2,11.799999 0.5967555,0.59999656 0 0 0 6.796753,12.4 0.5967555,0.59999656 0 0 0 7.393513,11.799999 0.5967555,0.59999656 0 0 0 6.796753,11.2 Z"
       style="fill:currentColor;fill-opacity:1;fill-rule:evenodd;stroke:none;stroke-width:0.348148"
       inkscape:connector-curvature="0"
       class="ColorScheme-Text" />
  </g>
  <metadata
     id="metadata18">
    <rdf:RDF>
      <cc:Work
         rdf:about="">
        <dc:format>image/svg+xml</dc:format>
        <dc:type
           rdf:resource="http://purl.org/dc/dcmitype/StillImage" />
      </cc:Work>
    </rdf:RDF>
  </metadata>
  <defs
     id="defs16" />
  <sodipodi:namedview
     pagecolor="#ffffff"
     bordercolor="#666666"
     borderopacity="1"
     objecttolerance="10"
     gridtolerance="10"
     guidetolerance="10"
     inkscape:pageopacity="0"
     inkscape:pageshadow="2"
     inkscape:window-width="1920"
     inkscape:window-height="1009"
     id="namedview14"
     showgrid="false"
     inkscape:zoom="9.8125003"
     inkscape:cx="14.726114"
     inkscape:cy="13.961783"
     inkscape:window-x="0"
     inkscape:window-y="0"
     inkscape:window-maximized="1"
     inkscape:current-layer="svg12"
     inkscape:document-rotation="0"
     showguides="false"
     inkscape:guide-bbox="true"
     inkscape:pagecheckerboard="0"
     inkscape:lockguides="false">
    <inkscape:grid
       type="xygrid"
       id="grid849"
       originx="0"
       originy="-1e-06" />
    <sodipodi:guide
       position="-30.165605,19.66879"
       orientation="1,0"
       id="guide850"
       inkscape:locked="false" />
  </sodipodi:namedview>
  <g
     id="device-notifier">
    <rect
       style="opacity:0.00100002;fill:#eff0f1;fill-opacity:1"
       width="32"
       height="32"
       x="0"
       y="0"
       id="rect7" />
    <path
       style="enable-background:accumulate;marker:none;stroke-width:1.8475;stroke:none;fill-rule:nonzero;fill-opacity:1;fill:currentColor;visibility:visible;overflow:visible;display:inline;text-anchor:start;baseline-shift:baseline;direction:ltr;writing-mode:lr-tb;text-transform:none;word-spacing:normal;letter-spacing:normal;text-decoration-line:none;text-decoration:none;text-align:start;text-indent:0;-inkscape-font-specification:Sans;font-family:Sans;line-height:normal;font-size:medium;font-stretch:normal;font-weight:normal;font-variant:normal;font-style:normal;"
       d="m 11.66683,10.364455 c -1.447892,0 -2.6666402,1.02348 -2.6666402,2.275545 v 1.99111 c -0.01916,1.153993 1.4189792,1.153993 1.3998662,0 V 12.64 c 0,-0.352455 0.568211,-0.969 0.967,-0.969 h 9.566 c 0.3988,0 0.867,0.516545 0.867,0.869 v 13.184 c 0,0.35242 -0.868206,0.969 -1.267,0.969 h -9.166 c -0.398783,0 -0.967,-0.61658 -0.967,-0.969 v -5.648 c 0.01923,-1.153978 -1.3998662,-1.154137 -1.3998662,0 v 5.648455 C 9.0001898,26.976505 10.218933,28 11.66683,28 h 8.666592 c 1.4479,0 2.666634,-1.023495 2.666634,-2.275545 V 12.64 c 0,-1.252065 -1.21874,-2.275545 -2.666634,-2.275545 z"
       id="path2-3"
       sodipodi:nodetypes="cccccccccccccsccccccc"
       class="ColorScheme-Text" />
    <path
       d="M 12.969023,4 C 12.290074,4 11.749966,4.848157 11.75,5.6061704 V 8.800073 h 1.219058 l -3.5e-5,-1.6000847 c 0.03482,-1.8953273 0,-2.026188 1.219042,-2.026188 h 3.667047 c 1.209137,-7.95e-5 1.215003,0.1555451 1.209137,2.026188 l 4.9e-5,1.6000847 h 1.219042 l -3.4e-5,-3.2000796 C 20.283306,4.6362693 19.773583,4 19.0812,4.0000795 Z m 1.219076,3.2000843 V 8.800073 h 1.219043 V 7.2000843 Z m 2.4381,0 V 8.800073 h 1.219042 V 7.2000843 Z"
       style="solid-color:#d5c289;fill:currentColor;fill-opacity:1;fill-rule:evenodd;stroke-width:1.3966"
       id="path4"
       sodipodi:nodetypes="ccccccccccccccccccccccc"
       class="ColorScheme-Text" />
    <path
       id="path8-9-7"
       d="M 9.591933,16.3 A 0.88593748,0.89999484 0 0 0 8.706,17.199999 0.88593748,0.89999484 0 0 0 9.591933,18.1 0.88593748,0.89999484 0 0 0 10.477878,17.199999 0.88593748,0.89999484 0 0 0 9.591933,16.3 Z"
       style="fill:currentColor;fill-opacity:1;fill-rule:evenodd;stroke:none;stroke-width:0.519533"
       inkscape:connector-curvature="0"
       class="ColorScheme-Text" />
  </g>
</svg>
