<?xml version="1.0" encoding="UTF-8" standalone="no"?>
<svg
   width="32"
   height="32"
   version="1.1"
   id="svg58"
   sodipodi:docname="disk.svg"
   inkscape:version="1.1.2 (0a00cf5339, 2022-02-04)"
   xmlns:inkscape="http://www.inkscape.org/namespaces/inkscape"
   xmlns:sodipodi="http://sodipodi.sourceforge.net/DTD/sodipodi-0.dtd"
   xmlns="http://www.w3.org/2000/svg"
   xmlns:svg="http://www.w3.org/2000/svg"
   xmlns:rdf="http://www.w3.org/1999/02/22-rdf-syntax-ns#"
   xmlns:cc="http://creativecommons.org/ns#"
   xmlns:dc="http://purl.org/dc/elements/1.1/">
  <style
     id="current-color-scheme"
     type="text/css">.ColorScheme-Text { color:#eceff4; }
</style>
  <metadata
     id="metadata64">
    <rdf:RDF>
      <cc:Work
         rdf:about="">
        <dc:format>image/svg+xml</dc:format>
        <dc:type
           rdf:resource="http://purl.org/dc/dcmitype/StillImage" />
      </cc:Work>
    </rdf:RDF>
  </metadata>
  <defs
     id="defs62" />
  <sodipodi:namedview
     pagecolor="#ffffff"
     bordercolor="#000000"
     borderopacity="1"
     objecttolerance="10"
     gridtolerance="10"
     guidetolerance="10"
     inkscape:pageopacity="0"
     inkscape:pageshadow="2"
     inkscape:window-width="1920"
     inkscape:window-height="1009"
     id="namedview60"
     showgrid="false"
     inkscape:zoom="4.9062501"
     inkscape:cx="-44.738853"
     inkscape:cy="17.32484"
     inkscape:window-x="0"
     inkscape:window-y="0"
     inkscape:window-maximized="1"
     inkscape:current-layer="svg58"
     inkscape:document-rotation="0"
     inkscape:lockguides="false"
     inkscape:showpageshadow="false"
     inkscape:pagecheckerboard="0">
    <inkscape:grid
       type="xygrid"
       id="grid879"
       originx="-96"
       originy="0" />
  </sodipodi:namedview>
  <g
     id="disk-quota"
     transform="translate(-96)">
    <rect
       style="opacity:0.00100002"
       width="32"
       height="32"
       x="0"
       y="0"
       id="rect35" />
    <path
       d="M 26.3,28 H 5.728571 C 3.835143,28 2.3,26.464857 2.3,24.571429 V 22 c 0,-0.473357 0.383786,-0.857143 0.857143,-0.857143 0.473357,0 0.857143,0.383786 0.857143,0.857143 v 2.571429 c 0,0.946714 0.767571,1.714285 1.714285,1.714285 H 26.3 c 0.946714,0 1.714286,-0.767571 1.714286,-1.714285 V 17.714286 C 28.014286,16.767571 27.246714,16 26.3,16 h -4.473643 c -0.562071,0 -1.051768,0.309696 -1.307893,0.766714 0.01929,-0.03514 0.03471,-0.06739 0.04645,-0.09836 -0.859232,1.64025 -2.571429,2.760214 -4.550625,2.760214 -1.979197,0 -3.691393,-1.119964 -4.550625,-2.76016 0.01173,0.03096 0.02721,0.06321 0.04687,0.09836 C 11.253977,16.309696 10.764281,16 10.201352,16 H 5.728566 5.326352 c -1.183607,0 -2.142857,-0.95925 -2.142857,-2.142857 0,-0.204643 0.02887,-0.401357 0.08245,-0.589286 0.02764,-0.09541 0,-0.142286 -0.05609,-0.162803 L 4.563391,6.784857 C 5.222159,4.678857 6.660605,4 7.844212,4 h 16.285715 c 1.18441,0 2.62875,0.678857 3.294214,2.784857 l 1.053857,4.864929 -0.005,0.0012 c 0.08122,0.425625 -0.174053,0.847071 -0.598928,0.961339 -0.444911,0.118875 -0.902786,-0.145232 -1.022893,-0.590518 0,-8.57e-4 -8.04e-4,-0.0029 -8.04e-4,-0.0038 l -0.003,8.57e-4 -1.208625,-5.578875 C 25.520694,6.034857 25.044391,5.714286 24.571087,5.714286 H 7.41773 c -0.473786,0 -0.947946,0.320571 -1.061786,0.725732 l -1.441875,6.836625 c -0.154821,0.551196 0.179197,1.009071 0.751286,1.009071 h 4.536 c 1.224214,0 2.288947,0.684697 2.832161,1.691679 -8.57e-4,-0.0017 -0.0017,-0.0037 -0.0025,-0.0055 0.588054,1.039232 1.703411,1.742357 2.983286,1.742357 1.279875,0 2.394803,-0.703125 2.983285,-1.742304 -8.57e-4,0.0017 -0.0017,0.0038 -0.0025,0.0055 0.543214,-1.007035 1.607946,-1.691732 2.831303,-1.691732 h 4.473608 c 1.893429,0 3.428571,1.535143 3.428571,3.428572 v 6.857143 C 29.728569,26.464857 28.193427,28 26.299998,28 Z M 4.014286,18.571429 c 0,0.473357 -0.383786,0.857142 -0.857143,0.857142 C 2.683786,19.428571 2.3,19.044786 2.3,18.571429 c 0,-0.473358 0.383786,-0.857143 0.857143,-0.857143 0.473357,0 0.857143,0.383785 0.857143,0.857143 z"
       id="path2"
       style="fill:currentColor;fill-opacity:1;stroke-width:0.0535714"
       class="ColorScheme-Text" />
  </g>
  <g
     id="disk-quota-high"
     transform="translate(0,-22)">
    <rect
       style="opacity:0.00100002"
       width="32"
       height="32"
       x="-32"
       y="22"
       id="rect49" />
    <path
       d="M -5.6,50 H -26.171429 C -28.064857,50 -29.6,48.464857 -29.6,46.571429 V 44 c 0,-0.473357 0.383786,-0.857143 0.857143,-0.857143 0.473357,0 0.857143,0.383786 0.857143,0.857143 v 2.571429 c 0,0.946714 0.767571,1.714285 1.714285,1.714285 H -5.6 c 0.946714,0 1.714286,-0.767571 1.714286,-1.714285 V 39.714286 C -3.885714,38.767571 -4.653286,38 -5.6,38 h -4.473643 c -0.562071,0 -1.051768,0.309696 -1.307893,0.766714 0.01929,-0.03514 0.03471,-0.06739 0.04645,-0.09836 -0.859232,1.64025 -2.571429,2.760214 -4.550625,2.760214 -1.979197,0 -3.691393,-1.119964 -4.550625,-2.76016 0.01173,0.03096 0.02721,0.06321 0.04687,0.09836 C -20.646023,38.309696 -21.135719,38 -21.698648,38 h -4.472786 -0.402214 c -1.183607,0 -2.142857,-0.95925 -2.142857,-2.142857 0,-0.204643 0.02887,-0.401357 0.08245,-0.589286 0.02764,-0.09541 0,-0.142286 -0.05609,-0.162803 l 1.353536,-6.320197 C -26.677841,26.678857 -25.239395,26 -24.055788,26 h 16.285715 c 1.18441,0 2.62875,0.678857 3.294214,2.784857 l 1.053857,4.864929 -0.005,0.0012 c 0.08122,0.425625 -0.174053,0.847071 -0.598928,0.961339 -0.444911,0.118875 -0.902786,-0.145232 -1.022893,-0.590518 0,-8.57e-4 -8.04e-4,-0.0029 -8.04e-4,-0.0038 l -0.003,8.57e-4 -1.208625,-5.578875 C -6.379306,28.034857 -6.855609,27.714286 -7.328913,27.714286 H -24.48227 c -0.473786,0 -0.947946,0.320571 -1.061786,0.725732 l -1.441875,6.836625 c -0.154821,0.551196 0.179197,1.009071 0.751286,1.009071 h 4.536 c 1.224214,0 2.288947,0.684697 2.832161,1.691679 -8.57e-4,-0.0017 -0.0017,-0.0037 -0.0025,-0.0055 0.588054,1.039232 1.703411,1.742357 2.983286,1.742357 1.279875,0 2.394803,-0.703125 2.983285,-1.742304 -8.57e-4,0.0017 -0.0017,0.0038 -0.0025,0.0055 0.543214,-1.007035 1.607946,-1.691732 2.831303,-1.691732 h 4.473608 c 1.893429,0 3.428571,1.535143 3.428571,3.428572 v 6.857143 C -2.171431,48.464857 -3.706573,50 -5.600002,50 Z m -22.285714,-9.428571 c 0,0.473357 -0.383786,0.857142 -0.857143,0.857142 -0.473357,0 -0.857143,-0.383785 -0.857143,-0.857142 0,-0.473358 0.383786,-0.857143 0.857143,-0.857143 0.473357,0 0.857143,0.383785 0.857143,0.857143 z"
       id="path2-3-6"
       style="fill:#de8787;fill-opacity:1;stroke-width:0.0535714" />
  </g>
  <g
     id="22-22-disk-quota">
    <rect
       style="opacity:0.00100002"
       width="22"
       height="22"
       x="-96"
       y="-22"
       id="rect12" />
    <path
       d="M -78.2,-3 H -91.914286 C -93.176571,-3 -94.2,-4.023429 -94.2,-5.285714 V -7 c 0,-0.315571 0.255857,-0.571429 0.571429,-0.571429 0.315571,0 0.571428,0.255858 0.571428,0.571429 v 1.714286 c 0,0.631143 0.511714,1.142857 1.142857,1.142857 H -78.2 c 0.631143,0 1.142857,-0.511714 1.142857,-1.142857 V -9.857143 C -77.057143,-10.488286 -77.568857,-11 -78.2,-11 h -2.982429 c -0.374714,0 -0.701178,0.206464 -0.871928,0.511143 0.01286,-0.02343 0.02314,-0.04493 0.03097,-0.06557 -0.572821,1.0935 -1.714286,1.840143 -3.03375,1.840143 -1.319464,0 -2.460928,-0.746643 -3.03375,-1.840107 0.0078,0.02064 0.01814,0.04214 0.03125,0.06557 C -88.230682,-10.793536 -88.557146,-11 -88.932432,-11 h -2.981857 -0.268143 c -0.789071,0 -1.428571,-0.6395 -1.428571,-1.428571 0,-0.136429 0.01925,-0.267572 0.05497,-0.392858 0.01843,-0.06361 0,-0.09486 -0.03739,-0.108535 l 0.902357,-4.213465 C -92.251894,-18.547429 -91.29293,-19 -90.503859,-19 h 10.857144 c 0.789606,0 1.7525,0.452571 2.196142,1.856571 l 0.702572,3.243286 -0.0033,8e-4 c 0.05415,0.28375 -0.116035,0.564714 -0.399285,0.640893 -0.296607,0.07925 -0.601857,-0.09682 -0.681929,-0.393679 0,-5.71e-4 -5.36e-4,-0.0019 -5.36e-4,-0.0025 l -0.002,5.71e-4 -0.80575,-3.71925 c -0.0787,-0.270088 -0.396238,-0.483802 -0.711774,-0.483802 H -90.78818 c -0.315857,0 -0.631964,0.213714 -0.707857,0.483822 l -0.96125,4.55775 c -0.103214,0.367464 0.119464,0.672714 0.500857,0.672714 h 3.024 c 0.816143,0 1.525965,0.456464 1.888107,1.127786 -5.71e-4,-0.0011 -0.0011,-0.0025 -0.0017,-0.0037 0.392036,0.692821 1.135607,1.161571 1.988857,1.161571 0.85325,0 1.596535,-0.46875 1.988857,-1.161536 -5.72e-4,0.0011 -0.0011,0.0025 -0.0017,0.0037 0.362143,-0.671357 1.071964,-1.127821 1.887535,-1.127821 h 2.982406 c 1.262286,0 2.285714,1.023428 2.285714,2.285714 v 4.571429 c 0,1.262285 -1.023428,2.285714 -2.285714,2.285714 z m -14.857143,-6.285714 c 0,0.315571 -0.255857,0.571428 -0.571428,0.571428 -0.315572,0 -0.571429,-0.255857 -0.571429,-0.571428 0,-0.315572 0.255857,-0.571429 0.571429,-0.571429 0.315571,0 0.571428,0.255857 0.571428,0.571429 z"
       id="path2-5"
       style="fill:currentColor;fill-opacity:1;stroke-width:0.0357143"
       class="ColorScheme-Text" />
  </g>
  <g
     id="22-22-disk-quota-low"
     transform="translate(0,-22)">
    <rect
       style="opacity:0.00100002"
       width="22"
       height="22"
       x="-64"
       y="0"
       id="rect17" />
    <path
       d="M -46.2,19 H -59.914286 C -61.176571,19 -62.2,17.976571 -62.2,16.714286 V 15 c 0,-0.315571 0.255857,-0.571429 0.571429,-0.571429 0.315571,0 0.571428,0.255858 0.571428,0.571429 v 1.714286 c 0,0.631143 0.511714,1.142857 1.142857,1.142857 H -46.2 c 0.631143,0 1.142857,-0.511714 1.142857,-1.142857 V 12.142857 C -45.057143,11.511714 -45.568857,11 -46.2,11 h -2.982429 c -0.374714,0 -0.701178,0.206464 -0.871928,0.511143 0.01286,-0.02343 0.02314,-0.04493 0.03097,-0.06557 -0.572821,1.0935 -1.714286,1.840143 -3.03375,1.840143 -1.319464,0 -2.460928,-0.746643 -3.03375,-1.840107 0.0078,0.02064 0.01814,0.04214 0.03125,0.06557 C -56.230682,11.206464 -56.557146,11 -56.932432,11 h -2.981857 -0.268143 c -0.789071,0 -1.428571,-0.6395 -1.428571,-1.428571 0,-0.136429 0.01925,-0.267572 0.05497,-0.392858 0.01843,-0.06361 0,-0.09486 -0.03739,-0.108535 l 0.902357,-4.213465 C -60.251894,3.452571 -59.29293,3 -58.503859,3 h 10.857144 c 0.789606,0 1.7525,0.452571 2.196142,1.856571 l 0.702572,3.243286 -0.0033,8e-4 c 0.05415,0.28375 -0.116035,0.564714 -0.399285,0.640893 -0.296607,0.07925 -0.601857,-0.09682 -0.681929,-0.393679 0,-5.71e-4 -5.36e-4,-0.0019 -5.36e-4,-0.0025 l -0.002,5.71e-4 -0.80575,-3.71925 C -46.719501,4.356604 -47.037039,4.14289 -47.352575,4.14289 H -58.78818 c -0.315857,0 -0.631964,0.213714 -0.707857,0.483822 l -0.96125,4.55775 c -0.103214,0.367464 0.119464,0.672714 0.500857,0.672714 h 3.024 c 0.816143,0 1.525965,0.456464 1.888107,1.127786 -5.71e-4,-0.0011 -0.0011,-0.0025 -0.0017,-0.0037 0.392036,0.692821 1.135607,1.161571 1.988857,1.161571 0.85325,0 1.596535,-0.46875 1.988857,-1.161536 -5.72e-4,0.0011 -0.0011,0.0025 -0.0017,0.0037 0.362143,-0.671357 1.071964,-1.127821 1.887535,-1.127821 h 2.982406 c 1.262286,0 2.285714,1.023428 2.285714,2.285714 v 4.571429 c 0,1.262285 -1.023428,2.285714 -2.285714,2.285714 z m -14.857143,-6.285714 c 0,0.315571 -0.255857,0.571428 -0.571428,0.571428 -0.315572,0 -0.571429,-0.255857 -0.571429,-0.571428 0,-0.315572 0.255857,-0.571429 0.571429,-0.571429 0.315571,0 0.571428,0.255857 0.571428,0.571429 z"
       id="path2-5-3"
       style="fill:#ff9955;fill-opacity:1;stroke-width:0.0357143" />
  </g>
  <g
     id="disk-quota-low"
     transform="translate(0,-22)">
    <rect
       style="opacity:0.00100002"
       width="32"
       height="32"
       x="-64"
       y="22"
       id="rect35-6" />
    <path
       d="M -37.6,50 H -58.171429 C -60.064857,50 -61.6,48.464857 -61.6,46.571429 V 44 c 0,-0.473357 0.383786,-0.857143 0.857143,-0.857143 0.473357,0 0.857143,0.383786 0.857143,0.857143 v 2.571429 c 0,0.946714 0.767571,1.714285 1.714285,1.714285 H -37.6 c 0.946714,0 1.714286,-0.767571 1.714286,-1.714285 V 39.714286 C -35.885714,38.767571 -36.653286,38 -37.6,38 h -4.473643 c -0.562071,0 -1.051768,0.309696 -1.307893,0.766714 0.01929,-0.03514 0.03471,-0.06739 0.04645,-0.09836 -0.859232,1.64025 -2.571429,2.760214 -4.550625,2.760214 -1.979197,0 -3.691393,-1.119964 -4.550625,-2.76016 0.01173,0.03096 0.02721,0.06321 0.04687,0.09836 C -52.646023,38.309696 -53.135719,38 -53.698648,38 h -4.472786 -0.402214 c -1.183607,0 -2.142857,-0.95925 -2.142857,-2.142857 0,-0.204643 0.02887,-0.401357 0.08245,-0.589286 0.02764,-0.09541 0,-0.142286 -0.05609,-0.162803 l 1.353536,-6.320197 C -58.677841,26.678857 -57.239395,26 -56.055788,26 h 16.285715 c 1.18441,0 2.62875,0.678857 3.294214,2.784857 l 1.053857,4.864929 -0.005,0.0012 c 0.08122,0.425625 -0.174053,0.847071 -0.598928,0.961339 -0.444911,0.118875 -0.902786,-0.145232 -1.022893,-0.590518 0,-8.57e-4 -8.04e-4,-0.0029 -8.04e-4,-0.0038 l -0.003,8.57e-4 -1.208625,-5.578875 c -0.118054,-0.405132 -0.594357,-0.725703 -1.067661,-0.725703 H -56.48227 c -0.473786,0 -0.947946,0.320571 -1.061786,0.725732 l -1.441875,6.836625 c -0.154821,0.551196 0.179197,1.009071 0.751286,1.009071 h 4.536 c 1.224214,0 2.288947,0.684697 2.832161,1.691679 -8.57e-4,-0.0017 -0.0017,-0.0037 -0.0025,-0.0055 0.588054,1.039232 1.703411,1.742357 2.983286,1.742357 1.279875,0 2.394803,-0.703125 2.983285,-1.742304 -8.57e-4,0.0017 -0.0017,0.0038 -0.0025,0.0055 0.543214,-1.007035 1.607946,-1.691732 2.831303,-1.691732 h 4.473608 c 1.893429,0 3.428571,1.535143 3.428571,3.428572 v 6.857143 c 0,1.893428 -1.535142,3.428571 -3.428571,3.428571 z m -22.285714,-9.428571 c 0,0.473357 -0.383786,0.857142 -0.857143,0.857142 -0.473357,0 -0.857143,-0.383785 -0.857143,-0.857142 0,-0.473358 0.383786,-0.857143 0.857143,-0.857143 0.473357,0 0.857143,0.383785 0.857143,0.857143 z"
       id="path2-3"
       style="fill:#ff9955;fill-opacity:1;stroke-width:0.0535714" />
  </g>
  <g
     id="22-22-disk-quota-high"
     transform="translate(0,-22)">
    <rect
       style="opacity:0.00100002"
       width="22"
       height="22"
       x="-32"
       y="0"
       id="rect26" />
    <path
       d="M -14.2,19 H -27.914286 C -29.176571,19 -30.2,17.976571 -30.2,16.714286 V 15 c 0,-0.315571 0.255857,-0.571429 0.571429,-0.571429 0.315571,0 0.571428,0.255858 0.571428,0.571429 v 1.714286 c 0,0.631143 0.511714,1.142857 1.142857,1.142857 H -14.2 c 0.631143,0 1.142857,-0.511714 1.142857,-1.142857 V 12.142857 C -13.057143,11.511714 -13.568857,11 -14.2,11 h -2.982429 c -0.374714,0 -0.701178,0.206464 -0.871928,0.511143 0.01286,-0.02343 0.02314,-0.04493 0.03097,-0.06557 -0.572821,1.0935 -1.714286,1.840143 -3.03375,1.840143 -1.319464,0 -2.460928,-0.746643 -3.03375,-1.840107 0.0078,0.02064 0.01814,0.04214 0.03125,0.06557 C -24.230682,11.206464 -24.557146,11 -24.932432,11 h -2.981857 -0.268143 c -0.789071,0 -1.428571,-0.6395 -1.428571,-1.428571 0,-0.136429 0.01925,-0.267572 0.05497,-0.392858 0.01843,-0.06361 0,-0.09486 -0.03739,-0.108535 l 0.902357,-4.213465 C -28.251894,3.452571 -27.29293,3 -26.503859,3 h 10.857144 c 0.789606,0 1.7525,0.452571 2.196142,1.856571 l 0.702572,3.243286 -0.0033,8e-4 c 0.05415,0.28375 -0.116035,0.564714 -0.399285,0.640893 -0.296607,0.07925 -0.601857,-0.09682 -0.681929,-0.393679 0,-5.71e-4 -5.36e-4,-0.0019 -5.36e-4,-0.0025 l -0.002,5.71e-4 -0.80575,-3.71925 C -14.719501,4.356604 -15.037039,4.14289 -15.352575,4.14289 H -26.78818 c -0.315857,0 -0.631964,0.213714 -0.707857,0.483822 l -0.96125,4.55775 c -0.103214,0.367464 0.119464,0.672714 0.500857,0.672714 h 3.024 c 0.816143,0 1.525965,0.456464 1.888107,1.127786 -5.71e-4,-0.0011 -0.0011,-0.0025 -0.0017,-0.0037 0.392036,0.692821 1.135607,1.161571 1.988857,1.161571 0.85325,0 1.596535,-0.46875 1.988857,-1.161536 -5.72e-4,0.0011 -0.0011,0.0025 -0.0017,0.0037 0.362143,-0.671357 1.071964,-1.127821 1.887535,-1.127821 h 2.982406 c 1.262286,0 2.285714,1.023428 2.285714,2.285714 v 4.571429 c 0,1.262285 -1.023428,2.285714 -2.285714,2.285714 z m -14.857143,-6.285714 c 0,0.315571 -0.255857,0.571428 -0.571428,0.571428 -0.315572,0 -0.571429,-0.255857 -0.571429,-0.571428 0,-0.315572 0.255857,-0.571429 0.571429,-0.571429 0.315571,0 0.571428,0.255857 0.571428,0.571429 z"
       id="path2-5-3-5"
       style="fill:#de8787;fill-opacity:1;stroke-width:0.0357143" />
  </g>
  <g
     id="disk-quota-critical">
    <rect
       style="opacity:0.00100002"
       width="32"
       height="32"
       x="0"
       y="0"
       id="rect35-2" />
    <path
       d="M 26.4,28 H 5.82857 C 3.935143,28 2.4,26.464857 2.4,24.571429 V 22 c 0,-0.473357 0.383786,-0.857143 0.857143,-0.857143 0.473357,0 0.857147,0.383786 0.857147,0.857143 v 2.571429 c 0,0.946714 0.76757,1.714285 1.71428,1.714285 H 26.4 c 0.94671,0 1.71429,-0.767571 1.71429,-1.714285 V 17.714286 C 28.11429,16.767571 27.34671,16 26.4,16 h -4.47364 c -0.56207,0 -1.05177,0.309696 -1.3079,0.766714 0.0193,-0.03514 0.0347,-0.06739 0.0465,-0.09836 -0.85923,1.64025 -2.57142,2.760214 -4.55062,2.760214 -1.9792,0 -3.69139,-1.119964 -4.55063,-2.76016 0.0117,0.03096 0.0272,0.06321 0.0469,0.09836 C 11.35398,16.309696 10.86428,16 10.30135,16 H 5.82857 5.42635 c -1.1836,0 -2.142855,-0.95925 -2.142855,-2.142857 0,-0.204643 0.02887,-0.401357 0.08245,-0.589286 0.02764,-0.09541 0,-0.142286 -0.05609,-0.162803 L 4.66339,6.784857 C 5.32216,4.678857 6.7606,4 7.94421,4 h 16.28572 c 1.18441,0 2.62875,0.678857 3.29421,2.784857 l 1.05386,4.864929 -0.005,0.0012 c 0.0812,0.425625 -0.17406,0.847071 -0.59893,0.961339 -0.44491,0.118875 -0.90279,-0.145232 -1.02289,-0.590518 0,-8.57e-4 -8.1e-4,-0.0029 -8.1e-4,-0.0038 l -0.003,8.57e-4 -1.20862,-5.578875 C 25.62069,6.034857 25.14439,5.714286 24.67109,5.714286 H 7.51773 c -0.47379,0 -0.94795,0.320571 -1.06179,0.725732 l -1.44187,6.836625 c -0.15482,0.551196 0.1792,1.009071 0.75129,1.009071 h 4.536 c 1.22421,0 2.28894,0.684697 2.83216,1.691679 -8.6e-4,-0.0017 -0.002,-0.0037 -0.002,-0.0055 0.58805,1.039232 1.70341,1.742357 2.98328,1.742357 1.27988,0 2.39481,-0.703125 2.98329,-1.742304 -8.6e-4,0.0017 -0.002,0.0038 -0.002,0.0055 0.54321,-1.007035 1.60794,-1.691732 2.8313,-1.691732 H 26.4 c 1.89343,0 3.42857,1.535143 3.42857,3.428572 v 6.857143 C 29.82857,26.464857 28.29343,28 26.4,28 Z M 4.11429,18.571429 c 0,0.473357 -0.38379,0.857142 -0.857147,0.857142 C 2.783786,19.428571 2.4,19.044786 2.4,18.571429 c 0,-0.473358 0.383786,-0.857143 0.857143,-0.857143 0.473357,0 0.857147,0.383785 0.857147,0.857143 z"
       id="path2-3-6-7"
       style="fill:#d35f5f;fill-opacity:1;stroke-width:0.0535714" />
    <path
       d="m 15.71767,10.770062 c -0.15776,0 -0.28566,-0.127917 -0.28566,-0.285683 V 8.7703927 c 0,-0.4732661 0.38372,-0.8569971 0.85692,-0.8569971 0.47325,0 0.85698,0.383731 0.85698,0.8569971 v 2.2853263 c 0,0.05642 -0.01,0.111302 -0.0177,0.16486 -0.0101,0.04437 -0.0203,0.08633 -0.0361,0.127908 -0.005,0.0049 -0.008,0.01323 -0.01,0.01966 -0.0198,0.04678 -0.0426,0.09122 -0.0676,0.133477 -4.8e-4,0.0025 -0.003,0.004 -0.004,0.004 -0.0278,0.0433 -0.0596,0.08415 -0.0922,0.12177 -0.15678,0.173949 -0.38176,0.285662 -0.6346,0.285662 -0.0121,0 -0.0229,0.0019 -0.0321,0.004 -0.14252,0.01638 -0.2536,0.13573 -0.2536,0.282464 0,0.157752 0.12791,0.28566 0.2857,0.28566 0.15769,0 0.2856,-0.127908 0.2856,-0.28566 0,-0.157769 0.12793,-0.285679 0.28568,-0.285679 0.15774,0 0.28565,0.12791 0.28565,0.285679 0,0.473269 -0.38373,0.856984 -0.85693,0.856984 -0.47324,0 -0.85699,-0.383715 -0.85699,-0.856984 0,-0.0564 0.01,-0.111304 0.0177,-0.164874 0.0101,-0.04437 0.0202,-0.08633 0.0364,-0.127912 0.004,-0.0048 0.008,-0.01323 0.01,-0.01964 0.0198,-0.04679 0.0426,-0.09121 0.0676,-0.133497 5.5e-4,-0.0025 0.003,-0.004 0.004,-0.004 0.0277,-0.0433 0.0595,-0.08413 0.0922,-0.121761 0.15678,-0.173934 0.38172,-0.285661 0.63458,-0.285661 0.0215,0 0.044,-0.004 0.0668,-0.0085 0.01,-0.0039 0.0124,-0.0039 0.0202,-0.0052 0.11551,-0.03659 0.19964,-0.143373 0.19964,-0.271015 V 8.7711123 c 0,-0.1577474 -0.12794,-0.2856775 -0.28561,-0.2856775 -0.15774,0 -0.28566,0.1279102 -0.28566,0.2856775 v 1.7139847 c -4e-5,0.15777 -0.12793,0.285682 -0.2857,0.285682 z m 3.14348,3.429927 c -0.85754,-0.004 -1.71499,-0.0039 -2.57222,-0.0039 -0.57126,0 -1.14258,-0.0014 -1.71391,0 -0.15776,0 -0.28565,-0.127899 -0.28565,-0.285665 0,-0.157749 0.12789,-0.285658 0.28565,-0.285658 v -0.004 c 0.55376,-2.69e-4 1.13313,0.0039 1.71391,0.0039 0.83157,0 1.66331,-0.004 2.41612,0 1.50535,0.0089 1.58345,-0.389166 0.82326,-1.728644 -0.75991,-1.339629 -1.42055,-2.7657237 -2.16551,-4.114255 -0.745,-1.3484137 -1.40272,-1.3484137 -2.14769,0 -0.74496,1.348553 -1.40907,2.774649 -2.16938,4.114255 -0.2928,0.515819 -0.47037,0.771341 -0.47037,1.302092 0,0.157748 -0.12793,0.28566 -0.28568,0.28566 -0.15776,0 -0.28568,-0.127913 -0.28568,-0.28566 v 0.04095 C 12.00374,13.225594 12,13.212224 12,13.198114 c 0.004,-0.337003 0.14762,-0.759236 0.43633,-1.266393 0.86674,-1.522471 1.59096,-3.0496861 2.44035,-4.5822303 0.84957,-1.5326543 1.96688,-1.5326543 2.81602,0 0.8495,1.5325442 1.57373,3.0597593 2.44045,4.5822303 0.86687,1.522233 0.4418,2.278228 -1.27416,2.26818 z M 13.4323,13.626726 c 0.15775,0 0.28569,0.12791 0.28569,0.285655 0,0.15777 -0.12792,0.285668 -0.28569,0.285668 -0.15772,0 -0.28566,-0.127898 -0.28566,-0.285668 0,-0.157745 0.12794,-0.285655 0.28566,-0.285655 z m 1.13905,0.571323"
       id="path2-36-3"
       style="color:#eceff4;fill:#d35f5f;fill-opacity:1;stroke-width:0.0178581" />
  </g>
  <g
     id="22-22-disk-quota-critical"
     transform="translate(0,-22)">
    <rect
       style="opacity:0.00100002"
       width="22"
       height="22"
       x="0"
       y="0"
       id="rect7" />
    <path
       d="M 17.850001,19 H 4.1357133 C 2.8734287,19 1.85,17.976571 1.85,16.714286 V 15 c 0,-0.315571 0.2558573,-0.571429 0.5714287,-0.571429 C 2.737,14.428571 2.99286,14.684429 2.99286,15 v 1.714286 c 0,0.631143 0.5117133,1.142857 1.1428533,1.142857 H 17.850001 c 0.63114,0 1.14286,-0.511714 1.14286,-1.142857 V 12.142857 C 18.992861,11.511714 18.481141,11 17.850001,11 h -2.982427 c -0.374714,0 -0.70118,0.206464 -0.871934,0.511143 0.01287,-0.02343 0.02313,-0.04493 0.031,-0.06557 -0.57282,1.0935 -1.71428,1.840143 -3.033746,1.840143 -1.3194673,0 -2.4609273,-0.746643 -3.033754,-1.840107 0.0078,0.02064 0.018133,0.04214 0.031267,0.06557 C 7.8193203,11.206464 7.4928536,11 7.117567,11 H 4.1357136 3.867567 c -0.7890667,0 -1.42857,-0.6395 -1.42857,-1.428571 0,-0.136429 0.019247,-0.267572 0.054967,-0.392858 0.018427,-0.06361 0,-0.09486 -0.037393,-0.108535 L 3.3589277,4.856571 C 3.7981077,3.452571 4.7570677,3 5.546141,3 h 10.857147 c 0.789606,0 1.7525,0.452571 2.19614,1.856571 l 0.702573,3.243286 -0.0033,8e-4 c 0.05413,0.28375 -0.11604,0.564714 -0.399287,0.640893 -0.296607,0.07925 -0.60186,-0.09682 -0.681927,-0.393679 0,-5.71e-4 -5.4e-4,-0.0019 -5.4e-4,-0.0025 l -0.002,5.71e-4 -0.805746,-3.71925 C 17.330491,4.356604 17.012961,4.14289 16.697427,4.14289 H 5.26182 c -0.31586,0 -0.6319667,0.213714 -0.70786,0.483822 L 3.5927133,9.184462 C 3.4895,9.551926 3.71218,9.857176 4.0935733,9.857176 h 3.024 c 0.81614,0 1.52596,0.456464 1.8881067,1.127786 -5.733e-4,-0.0011 -0.00133,-0.0025 -0.00133,-0.0037 0.3920333,0.692821 1.135607,1.161571 1.988854,1.161571 0.853253,0 1.59654,-0.46875 1.98886,-1.161536 -5.74e-4,0.0011 -0.0013,0.0025 -0.0013,0.0037 0.36214,-0.671357 1.07196,-1.127821 1.887534,-1.127821 h 2.98174 c 1.262287,0 2.285713,1.023428 2.285713,2.285714 v 4.571429 c 0,1.262285 -1.023426,2.285714 -2.285713,2.285714 z M 2.99286,12.714286 c 0,0.315571 -0.25586,0.571428 -0.5714313,0.571428 C 2.1058573,13.285714 1.85,13.029857 1.85,12.714286 c 0,-0.315572 0.2558573,-0.571429 0.5714287,-0.571429 0.3155713,0 0.5714313,0.255857 0.5714313,0.571429 z"
       id="path2-3-6-7-3"
       style="fill:#d35f5f;fill-opacity:1;stroke-width:0.0357143" />
    <path
       d="m 10.728447,7.513375 c -0.105173,0 -0.19044,-0.08528 -0.19044,-0.190456 V 6.180262 c 0,-0.315511 0.255813,-0.571331 0.57128,-0.571331 0.3155,0 0.57132,0.25582 0.57132,0.571331 v 1.523551 c 0,0.03761 -0.0067,0.0742 -0.0118,0.109906 -0.0067,0.02958 -0.01353,0.05755 -0.02407,0.08527 -0.0033,0.0033 -0.0053,0.0088 -0.0067,0.01311 -0.0132,0.03119 -0.0284,0.06081 -0.04507,0.08899 -3.2e-4,0.0017 -0.002,0.0027 -0.0027,0.0027 -0.01853,0.02887 -0.03973,0.0561 -0.06147,0.08118 -0.10452,0.115966 -0.254507,0.190442 -0.423067,0.190442 -0.0081,0 -0.01527,0.0013 -0.0214,0.0027 -0.09501,0.01092 -0.169066,0.09049 -0.169066,0.18831 0,0.105168 0.08527,0.19044 0.190466,0.19044 0.105127,0 0.1904,-0.08527 0.1904,-0.19044 0,-0.10518 0.08529,-0.190453 0.190454,-0.190453 0.10516,0 0.190433,0.08527 0.190433,0.190453 0,0.315512 -0.25582,0.571322 -0.571287,0.571322 -0.315493,0 -0.571326,-0.25581 -0.571326,-0.571322 0,-0.0376 0.0067,-0.0742 0.0118,-0.109916 0.0067,-0.02958 0.01347,-0.05755 0.02427,-0.08527 0.0027,-0.0032 0.0053,-0.0088 0.0067,-0.01309 0.0132,-0.03119 0.0284,-0.06081 0.04507,-0.089 3.66e-4,-0.0017 0.002,-0.0027 0.0027,-0.0027 0.01847,-0.02887 0.03967,-0.05609 0.06147,-0.08117 0.10452,-0.115956 0.25448,-0.190441 0.423053,-0.190441 0.01433,0 0.02933,-0.0027 0.04453,-0.0057 0.0067,-0.0026 0.0083,-0.0026 0.01347,-0.0035 0.07701,-0.02439 0.133093,-0.09558 0.133093,-0.180677 V 6.180725 c 0,-0.105164 -0.08529,-0.190451 -0.190406,-0.190451 -0.10516,0 -0.19044,0.08527 -0.19044,0.190451 v 1.142657 c -2.7e-5,0.10518 -0.08529,0.190455 -0.190467,0.190455 z M 12.8241,9.799993 c -0.571693,-0.0027 -1.143326,-0.0026 -1.714813,-0.0026 -0.38084,0 -0.76172,-9.34e-4 -1.142607,0 -0.105173,0 -0.1904331,-0.08527 -0.1904331,-0.190444 0,-0.105166 0.08526,-0.190438 0.1904331,-0.190438 v -0.0027 c 0.369173,-1.79e-4 0.75542,0.0026 1.142607,0.0026 0.55438,0 1.108873,-0.0027 1.610747,0 1.003566,0.0059 1.055633,-0.259444 0.54884,-1.152429 C 12.762267,7.370896 12.32184,6.420166 11.8252,5.521145 c -0.496666,-0.898943 -0.935146,-0.898943 -1.431793,0 -0.49664,0.899035 -0.9393803,1.849766 -1.4462537,2.742837 -0.1952,0.343879 -0.31358,0.514227 -0.31358,0.868061 0,0.105165 -0.085287,0.19044 -0.1904533,0.19044 -0.1051733,0 -0.1904533,-0.08527 -0.1904533,-0.19044 v 0.0273 c -1.734e-4,-0.009 -0.00267,-0.01789 -0.00267,-0.0273 0.00267,-0.224669 0.098413,-0.506157 0.2908867,-0.844262 0.5778266,-1.014981 1.06064,-2.033124 1.6269006,-3.05482 0.56638,-1.02177 1.311253,-1.02177 1.877346,0 0.566334,1.021696 1.049154,2.039839 1.626967,3.05482 0.577913,1.014822 0.294533,1.518819 -0.84944,1.51212 z M 9.2048667,9.417817 c 0.1051666,0 0.19046,0.08527 0.19046,0.190437 0,0.10518 -0.08528,0.190445 -0.19046,0.190445 -0.1051467,0 -0.19044,-0.08526 -0.19044,-0.190445 0,-0.105163 0.085293,-0.190437 0.19044,-0.190437 z M 9.964233,9.798699"
       id="path2-36-3-6"
       style="color:#eceff4;fill:#d35f5f;fill-opacity:1;stroke-width:0.0119054" />
  </g>
</svg>
