<?xml version="1.0" encoding="UTF-8" standalone="no"?>
<svg
   width="32"
   height="32"
   version="1.1"
   id="svg32"
   sodipodi:docname="document.svg"
   inkscape:version="1.1.2 (0a00cf5339, 2022-02-04)"
   xmlns:inkscape="http://www.inkscape.org/namespaces/inkscape"
   xmlns:sodipodi="http://sodipodi.sourceforge.net/DTD/sodipodi-0.dtd"
   xmlns="http://www.w3.org/2000/svg"
   xmlns:svg="http://www.w3.org/2000/svg"
   xmlns:rdf="http://www.w3.org/1999/02/22-rdf-syntax-ns#"
   xmlns:cc="http://creativecommons.org/ns#"
   xmlns:dc="http://purl.org/dc/elements/1.1/">
  <style
     id="current-color-scheme"
     type="text/css">
.ColorScheme-Text { 
    color:#eceff4;
}
</style>
  <metadata
     id="metadata38">
    <rdf:RDF>
      <cc:Work
         rdf:about="">
        <dc:format>image/svg+xml</dc:format>
        <dc:type
           rdf:resource="http://purl.org/dc/dcmitype/StillImage" />
      </cc:Work>
    </rdf:RDF>
  </metadata>
  <defs
     id="defs36" />
  <sodipodi:namedview
     pagecolor="#ffffff"
     bordercolor="#000000"
     borderopacity="1"
     objecttolerance="10"
     gridtolerance="10"
     guidetolerance="10"
     inkscape:pageopacity="0"
     inkscape:pageshadow="2"
     inkscape:window-width="1920"
     inkscape:window-height="1013"
     id="namedview34"
     showgrid="false"
     inkscape:zoom="6.9384854"
     inkscape:cx="45.687204"
     inkscape:cy="5.6208232"
     inkscape:window-x="0"
     inkscape:window-y="0"
     inkscape:window-maximized="1"
     inkscape:current-layer="svg32"
     inkscape:document-rotation="0"
     inkscape:lockguides="true"
     inkscape:showpageshadow="false"
     inkscape:pagecheckerboard="0">
    <inkscape:grid
       type="xygrid"
       id="grid886"
       originx="0"
       originy="0" />
  </sodipodi:namedview>
  <g
     id="document-open-recent">
    <rect
       style="opacity:0.00100002"
       width="32"
       height="32"
       x="0"
       y="0"
       id="rect17" />
    <path
       d="m 25.442804,12.571 h -3.429 c -0.4725,0 -0.856286,-0.383786 -0.856286,-0.856286 0,-0.473785 0.383786,-0.857143 0.856286,-0.857143 h 3.429 c 0.473785,0 0.857142,0.383358 0.857142,0.857143 0,0.4725 -0.383357,0.856286 -0.857142,0.856286 z m 0,3.429 h -3.429 c -0.4725,0 -0.856286,-0.383357 -0.856286,-0.857143 0,-0.473786 0.383786,-0.857143 0.856286,-0.857143 h 3.429 c 0.473785,0 0.857142,0.383357 0.857142,0.857143 C 26.299946,15.616643 25.916589,16 25.442804,16 Z m -8.571483,5.142857 h 8.571483 c 0.473785,0 0.857142,0.383786 0.857142,0.857143 0,0.473786 -0.383357,0.857571 -0.857142,0.857571 h -8.571483 c -0.472928,0 -0.857571,-0.383785 -0.857571,-0.857571 0,-0.473357 0.384643,-0.857143 0.857571,-0.857143 z m 0,-3.428143 h 8.571483 c 0.473785,0 0.857142,0.383786 0.857142,0.856286 0,0.473786 -0.383357,0.857143 -0.857142,0.857143 h -8.571483 c -0.472928,0 -0.857571,-0.383357 -0.857571,-0.857143 0,-0.4725 0.384643,-0.856286 0.857571,-0.856286 z m -7.713964,-6.429 c 0,-1.183607 0.959089,-2.142857 2.142697,-2.142857 h 5.999839 c 1.183607,0 2.142857,0.95925 2.142857,2.142857 V 12.571 15.142857 C 19.44275,15.616643 19.059393,16 18.585607,16 18.111821,16 17.728464,15.616643 17.728464,15.142857 V 12.571 11.714714 c 0,-0.473785 -0.383785,-0.857143 -0.857143,-0.857143 h -5.143125 c -0.473571,0 -0.857142,0.383358 -0.857142,0.857143 v 1.713429 c 0,0.473786 0.383571,0.857571 0.857142,0.857571 h 3.429215 c 0.472714,0 0.856285,0.383357 0.856285,0.857143 C 16.013696,15.616643 15.630125,16 15.157411,16 H 11.300054 C 10.116446,16 9.157357,15.041179 9.157357,13.857571 Z m 0.856339,9.857143 h 3.429215 c 0.473571,0 0.857143,0.383786 0.857143,0.857143 0,0.473786 -0.383625,0.857571 -0.857143,0.857571 h -3.429215 c -0.472714,0 -0.856285,-0.383785 -0.856285,-0.857571 -5.4e-5,-0.473357 0.383571,-0.857143 0.856285,-0.857143 z m 0,-3.428143 h 3.429215 c 0.473571,0 0.857143,0.383786 0.857143,0.856286 0,0.473786 -0.383625,0.857143 -0.857143,0.857143 h -3.429215 c -0.472714,0 -0.856285,-0.383357 -0.856285,-0.857143 -5.4e-5,-0.4725 0.383571,-0.856286 0.856285,-0.856286 z M 26.299946,28 H 10.871054 9.157357 7.442857 C 4.602714,28 2.3,25.697286 2.3,22.857571 v -6 C 2.3,16.383786 2.683571,16 3.157357,16 c 0.472714,0 0.856286,0.383786 0.856286,0.857571 v 0.857143 0.856286 4.286571 c 0,1.893429 1.535571,3.428143 3.429214,3.428143 h 2.142643 3 13.285821 c 1.183608,0 2.142483,-0.95925 2.142483,-2.142857 V 7.857571 c 0,-1.184035 -0.958875,-2.142857 -2.142483,-2.142857 H 9.585554 c -1.183608,0 -2.142643,0.958822 -2.142643,2.142857 V 13.428143 14.285714 22 c 0,0.473786 -0.383786,0.857571 -0.857357,0.857571 C 6.111982,22.857571 5.728196,22.473786 5.728196,22 V 16.857571 14.329268 12.571054 12.142857 7.428143 C 5.728143,5.534714 7.263768,4 9.157357,4 h 17.142589 c 1.893911,0 3.428625,1.534714 3.428625,3.428143 V 24.571 c 0,1.893857 -1.534714,3.429 -3.428625,3.429 z M 3.157357,14.285714 C 2.683571,14.285714 2.3,13.901929 2.3,13.428143 2.3,12.955643 2.683571,12.571 3.157357,12.571 c 0.472714,0 0.856286,0.384643 0.856286,0.857143 0,0.473786 -0.383572,0.857571 -0.856286,0.857571 z"
       id="path2"
       style="stroke-width:0.0535714;fill-opacity:1;fill:currentColor"
       class="ColorScheme-Text " />
  </g>
  <g
     id="document-encrypt">
    <rect
       style="opacity:0.00100002"
       width="32"
       height="32"
       x="32"
       y="0"
       id="rect22" />
    <path
       d="m 47.250421,23.49995 c 0.41344,0 0.749999,0.33544 0.749999,0.75 0,0.41382 -0.33656,0.75 -0.75,0.75 -0.41456,0 -0.75037,-0.33618 -0.75037,-0.75 0,-0.41456 0.33586,-0.75 0.750371,-0.75 z m -0.75037,-5.25004 c 0,-0.41457 0.33581,-0.75 0.75037,-0.75 0.41344,0 0.749999,0.33543 0.749999,0.75 v 2.99929 c 0,0.41457 -0.33656,0.75075 -0.75,0.75075 -0.41456,0 -0.75037,-0.33618 -0.75037,-0.75075 z M 56.99995,28 H 38.99962 C 37.34288,28 36,26.656 36,24.99995 v -6.75004 c 0,-0.41457 0.33581,-0.75 0.75038,-0.75 0.41343,0 0.75,0.33543 0.75,0.75 v 6.37504 c 0,1.03566 0.83934,1.8743 1.875,1.8743 h 17.249571 c 1.03566,0 1.8758,-0.83869 1.8758,-1.8743 v -6.75079 c -1e-6,-1.03491 -0.84014,-1.87482 -1.8758,-1.87482 h -13.4999 -0.37467 -7.6e-4 C 41.50636,15.99934 40.5,14.99228 40.5,13.75005 V 13.3743 11.49967 C 40.5,7.35742 43.857471,4 48.000421,4 c 4.142109,0 7.49953,3.35742 7.49953,7.49967 V 14.45 c 0,0.41456 -0.33543,0.05 -0.75,0.05 -0.413811,0 -0.75,0.36456 -0.75,-0.05 v -2.95033 c 0,-3.31383 -2.686541,-6.00042 -5.99953,-6.00042 -3.31387,0 -6.00004,2.68655 -6.00004,6.00042 v 1.12463 0.28636 0.46364 c 0,0.62147 0.50353,1.12579 1.12467,1.12579 h 0.46364 0.28636 9.7499 0.375 1.5 0.37575 1.12425 C 58.65745,14.50009 60,15.84264 60,17.49991 v 7.50004 C 60,26.656 58.65745,28 56.99995,28 Z M 38.24962,15.99934 c -0.41343,0 -0.74924,-0.33543 -0.74924,-0.75 0,-0.41343 0.33581,-0.74925 0.74924,-0.74925 0.41457,0 0.75,0.33582 0.75,0.74925 0,0.41457 -0.33543,0.75 -0.75,0.75 z"
       id="path2-3"
       style="stroke-width:0.046875;fill-opacity:1;fill:currentColor"
       sodipodi:nodetypes="ssssssssssssssssssssssssccsscsssssssssccssccccccsssssssss"
       class="ColorScheme-Text" />
  </g>
  <g
     id="document-decrypt">
    <rect
       style="opacity:0.00100002"
       width="32"
       height="32"
       x="64"
       y="0"
       id="rect27" />
    <path
       d="m 79.25042,23.49995 c 0.41344,0 0.75,0.33544 0.75,0.75 0,0.41382 -0.33656,0.75 -0.75,0.75 -0.41456,0 -0.75037,-0.33618 -0.75037,-0.75 0,-0.41456 0.33586,-0.75 0.75037,-0.75 z m -0.75037,-5.25004 c 0,-0.41457 0.33581,-0.75 0.75037,-0.75 0.41344,0 0.75,0.33543 0.75,0.75 v 2.99929 c 0,0.41457 -0.33656,0.75075 -0.75,0.75075 -0.41456,0 -0.75037,-0.33618 -0.75037,-0.75075 z M 88.99995,28 H 70.99962 C 69.34288,28 68,26.656 68,24.99995 v -6.75004 c 0,-0.41457 0.33581,-0.75 0.75038,-0.75 0.41343,0 0.75,0.33543 0.75,0.75 v 6.37504 c 0,1.03566 0.83934,1.8743 1.875,1.8743 h 17.24957 c 1.03566,0 1.8758,-0.83869 1.8758,-1.8743 v -6.75079 c 0,-1.03491 -0.84014,-1.87482 -1.8758,-1.87482 h -13.4999 -0.37467 -7.6e-4 C 73.50636,15.99934 72.5,14.99228 72.5,13.75005 V 13.3743 11.49967 C 72.5,7.35742 75.85747,4 80.00042,4 c 4.14211,0 7.49953,3.35742 7.49953,7.49967 v 0.75 c 0,0.41456 -0.33543,0.75 -0.75,0.75 -0.41381,0 -0.75,-0.33544 -0.75,-0.75 v -0.75 c 0,-3.31383 -2.68654,-6.00042 -5.99953,-6.00042 -3.31387,0 -6.00004,2.68655 -6.00004,6.00042 v 1.12463 0.28636 0.46364 c 0,0.62147 0.50353,1.12579 1.12467,1.12579 h 0.46364 0.28636 9.7499 0.375 1.5 0.37575 1.12425 c 1.6575,0 3.00005,1.34255 3.00005,2.99982 v 7.50004 C 92,26.656 90.65745,28 88.99995,28 Z M 70.24962,15.99934 c -0.41343,0 -0.74924,-0.33543 -0.74924,-0.75 0,-0.41343 0.33581,-0.74925 0.74924,-0.74925 0.41457,0 0.75,0.33582 0.75,0.74925 0,0.41457 -0.33543,0.75 -0.75,0.75 z"
       id="path2-35"
       style="stroke-width:0.046875;fill-opacity:1;fill:currentColor"
       class="ColorScheme-Text" />
  </g>
  <g
     id="22-22-document-open-recent">
    <rect
       style="opacity:0.00100002"
       width="22"
       height="22"
       x="0"
       y="-22"
       id="rect7" />
    <path
       d="m 17.428536,-13.286 h -2.286 c -0.315,0 -0.570857,-0.255857 -0.570857,-0.570857 0,-0.315857 0.255857,-0.571429 0.570857,-0.571429 h 2.286 c 0.315857,0 0.571428,0.255572 0.571428,0.571429 0,0.315 -0.255571,0.570857 -0.571428,0.570857 z m 0,2.286 h -2.286 c -0.315,0 -0.570857,-0.255571 -0.570857,-0.571429 0,-0.315857 0.255857,-0.571428 0.570857,-0.571428 h 2.286 c 0.315857,0 0.571428,0.255571 0.571428,0.571428 0,0.315858 -0.255571,0.571429 -0.571428,0.571429 z m -5.714322,3.428571 h 5.714322 c 0.315857,0 0.571428,0.255858 0.571428,0.571429 0,0.315857 -0.255571,0.571714 -0.571428,0.571714 H 11.714214 C 11.398929,-6.428286 11.1425,-6.684143 11.1425,-7 c 0,-0.315571 0.256429,-0.571429 0.571714,-0.571429 z m 0,-2.285428 h 5.714322 c 0.315857,0 0.571428,0.255857 0.571428,0.570857 0,0.315857 -0.255571,0.571429 -0.571428,0.571429 h -5.714322 c -0.315285,0 -0.571714,-0.255572 -0.571714,-0.571429 0,-0.315 0.256429,-0.570857 0.571714,-0.570857 z m -5.142643,-4.286 c 0,-0.789072 0.639393,-1.428572 1.428465,-1.428572 h 3.999893 c 0.789071,0 1.428571,0.6395 1.428571,1.428572 v 0.856857 1.714571 c 0,0.315858 -0.255571,0.571429 -0.571429,0.571429 -0.315857,0 -0.571428,-0.255571 -0.571428,-0.571429 V -13.286 -13.856857 c 0,-0.315857 -0.255857,-0.571429 -0.571429,-0.571429 h -3.42875 c -0.315714,0 -0.571428,0.255572 -0.571428,0.571429 v 1.142286 c 0,0.315857 0.255714,0.571714 0.571428,0.571714 h 2.286143 c 0.315143,0 0.570857,0.255571 0.570857,0.571428 0,0.315858 -0.255714,0.571429 -0.570857,0.571429 H 8.000036 c -0.789072,0 -1.428465,-0.639214 -1.428465,-1.428286 z m 0.570893,6.571428 h 2.286143 c 0.315714,0 0.571429,0.255858 0.571429,0.571429 0,0.315857 -0.25575,0.571714 -0.571429,0.571714 H 7.142464 C 6.827321,-6.428286 6.571607,-6.684143 6.571607,-7 6.571571,-7.315571 6.827321,-7.571429 7.142464,-7.571429 Z m 0,-2.285428 h 2.286143 c 0.315714,0 0.571429,0.255857 0.571429,0.570857 0,0.315857 -0.25575,0.571429 -0.571429,0.571429 H 7.142464 c -0.315143,0 -0.570857,-0.255572 -0.570857,-0.571429 -3.6e-5,-0.315 0.255714,-0.570857 0.570857,-0.570857 z M 17.999964,-3 H 7.714036 6.571571 5.428571 C 3.535143,-3 2,-4.535143 2,-6.428286 v -4 C 2,-10.744143 2.255714,-11 2.571571,-11 c 0.315143,0 0.570858,0.255857 0.570858,0.571714 v 0.571429 0.570857 2.857714 c 0,1.262286 1.023714,2.285429 2.286142,2.285429 H 6.857 h 2 8.857214 c 0.789072,0 1.428322,-0.6395 1.428322,-1.428572 v -10.856857 c 0,-0.789357 -0.63925,-1.428571 -1.428322,-1.428571 H 6.857036 c -0.789072,0 -1.428429,0.639214 -1.428429,1.428571 v 3.713715 0.571714 V -7 c 0,0.315857 -0.255857,0.571714 -0.571571,0.571714 -0.315715,0 -0.571572,-0.255857 -0.571572,-0.571714 v -3.428286 -1.685535 -1.172143 -0.285465 -3.143142 C 4.285429,-17.976857 5.309179,-19 6.571571,-19 h 11.428393 c 1.262607,0 2.28575,1.023143 2.28575,2.285429 V -5.286 c 0,1.262571 -1.023143,2.286 -2.28575,2.286 z M 2.571571,-12.142857 C 2.255714,-12.142857 2,-12.398714 2,-12.714571 c 0,-0.315 0.255714,-0.571429 0.571571,-0.571429 0.315143,0 0.570858,0.256429 0.570858,0.571429 0,0.315857 -0.255715,0.571714 -0.570858,0.571714 z"
       id="path2-6"
       style="stroke-width:0.0357143;fill-opacity:1;fill:currentColor"
       class="ColorScheme-Text" />
  </g>
  <g
     id="22-22-document-encrypt">
    <rect
       style="opacity:0.00100002"
       width="22"
       height="22"
       x="32"
       y="-22"
       id="rect2" />
    <path
       d="m 42.500247,-6.000033 c 0.275626,0 0.499999,0.223626 0.499999,0.5 0,0.27588 -0.224373,0.5 -0.5,0.5 -0.276373,0 -0.500247,-0.22412 -0.500247,-0.5 0,-0.276374 0.223907,-0.5 0.500248,-0.5 z M 42,-9.50006 c 0,-0.27638 0.223873,-0.5 0.500247,-0.5 0.275626,0 0.499999,0.22362 0.499999,0.5 v 1.999527 c 0,0.27638 -0.224373,0.5005 -0.5,0.5005 -0.276373,0 -0.500247,-0.22412 -0.500247,-0.5005 z M 48.999933,-3 h -12.00022 c -1.104494,0 -1.999747,-0.896 -1.999747,-2.000033 V -9.50006 c 0,-0.27638 0.223873,-0.5 0.500253,-0.5 0.27562,0 0.5,0.22362 0.5,0.5 v 4.250027 c 0,0.69044 0.55956,1.249533 1.25,1.249533 h 11.499714 c 0.69044,0 1.250534,-0.559127 1.250534,-1.249533 V -9.75056 c -10e-7,-0.68994 -0.560094,-1.24988 -1.250534,-1.24988 H 39.75 39.50022 39.499713 c -0.82884,0 -1.499747,-0.671373 -1.499747,-1.499527 v -0.2505 -1.249753 c 0,-2.7615 2.238314,-4.99978 5.000281,-4.99978 2.761406,0 4.999686,2.23828 4.999686,4.99978 v 1.966887 c 0,0.276373 -0.22362,0.03333 -0.5,0.03333 -0.275874,0 -0.5,0.24304 -0.5,-0.03333 v -1.966887 c 0,-2.20922 -1.791027,-4.00028 -3.999686,-4.00028 -2.209247,0 -4.000027,1.791033 -4.000027,4.00028 v 0.749753 0.190907 0.309093 c 0,0.414314 0.335687,0.750527 0.74978,0.750527 h 0.309093 0.190907 6.499933 0.25 1 0.2505 0.7495 c 1.105,0 2.000033,0.895033 2.000033,1.99988 v 5.000027 C 50.999966,-3.896 50.104933,-3 48.999933,-3 Z m -12.50022,-8.00044 c -0.27562,0 -0.499494,-0.22362 -0.499494,-0.5 0,-0.27562 0.223874,-0.4995 0.499494,-0.4995 0.27638,0 0.5,0.22388 0.5,0.4995 0,0.27638 -0.22362,0.5 -0.5,0.5 z"
       id="path2-3-1"
       style="stroke-width:0.03125;fill-opacity:1;fill:currentColor"
       sodipodi:nodetypes="ssssssssssssssssssssssssccsscsssssssssccssccccccsssssssss"
       class="ColorScheme-Text" />
  </g>
  <g
     id="22-22-document-decrypt">
    <rect
       style="opacity:0.00100002"
       width="22"
       height="22"
       x="64"
       y="-22"
       id="rect12" />
    <path
       d="m 74.500247,-6.000033 c 0.275627,0 0.5,0.223626 0.5,0.5 0,0.27588 -0.224373,0.5 -0.5,0.5 -0.276373,0 -0.500247,-0.22412 -0.500247,-0.5 0,-0.276374 0.223907,-0.5 0.500247,-0.5 z M 74,-9.50006 c 0,-0.27638 0.223874,-0.5 0.500247,-0.5 0.275627,0 0.5,0.22362 0.5,0.5 v 1.999527 c 0,0.27638 -0.224373,0.5005 -0.5,0.5005 C 74.223874,-7.000033 74,-7.224153 74,-7.500533 Z M 80.999934,-3 H 68.999714 C 67.89522,-3 66.999967,-3.896 66.999967,-5.000033 V -9.50006 c 0,-0.27638 0.223873,-0.5 0.500253,-0.5 0.27562,0 0.5,0.22362 0.5,0.5 v 4.250027 c 0,0.69044 0.55956,1.249533 1.25,1.249533 h 11.499714 c 0.69044,0 1.250533,-0.559127 1.250533,-1.249533 V -9.75056 c 0,-0.68994 -0.560093,-1.24988 -1.250533,-1.24988 H 71.75 71.50022 71.499714 c -0.82884,0 -1.499747,-0.671373 -1.499747,-1.499527 v -0.2505 -1.249753 c 0,-2.7615 2.238313,-4.99978 5.00028,-4.99978 2.761407,0 4.999687,2.23828 4.999687,4.99978 v 0.5 c 0,0.276373 -0.22362,0.5 -0.5,0.5 -0.275874,0 -0.5,-0.223627 -0.5,-0.5 v -0.5 c 0,-2.20922 -1.791027,-4.00028 -3.999687,-4.00028 -2.209247,0 -4.000027,1.791033 -4.000027,4.00028 v 0.749753 0.190907 0.309093 c 0,0.414314 0.335687,0.750527 0.74978,0.750527 h 0.309094 0.190906 6.499934 0.25 1 0.2505 0.7495 c 1.105,0 2.000033,0.895033 2.000033,1.99988 v 5.000027 C 82.999967,-3.896 82.104934,-3 80.999934,-3 Z m -12.50022,-8.00044 c -0.27562,0 -0.499494,-0.22362 -0.499494,-0.5 0,-0.27562 0.223874,-0.4995 0.499494,-0.4995 0.27638,0 0.5,0.22388 0.5,0.4995 0,0.27638 -0.22362,0.5 -0.5,0.5 z"
       id="path2-35-0"
       style="stroke-width:0.03125;fill-opacity:1;fill:currentColor"
       class="ColorScheme-Text" />
  </g>
</svg>
