<?xml version="1.0" encoding="UTF-8" standalone="no"?>
<svg
   width="32"
   height="32"
   version="1.1"
   id="svg12"
   sodipodi:docname="drive.svg"
   inkscape:version="1.1.2 (0a00cf5339, 2022-02-04)"
   xmlns:inkscape="http://www.inkscape.org/namespaces/inkscape"
   xmlns:sodipodi="http://sodipodi.sourceforge.net/DTD/sodipodi-0.dtd"
   xmlns="http://www.w3.org/2000/svg"
   xmlns:svg="http://www.w3.org/2000/svg"
   xmlns:rdf="http://www.w3.org/1999/02/22-rdf-syntax-ns#"
   xmlns:cc="http://creativecommons.org/ns#"
   xmlns:dc="http://purl.org/dc/elements/1.1/">
  <style
     id="current-color-scheme"
     type="text/css">.ColorScheme-Text { color:#eceff4; }
</style>
  <g
     id="22-22-drive-harddisk"
     transform="translate(32,10.000001)">
    <rect
       style="opacity:0.00100002"
       width="22"
       height="22"
       x="0"
       y="-4.6325681e-08"
       id="rect2" />
    <path
       d="m 8.938095,16.000062 c 0,0.276375 -0.234274,0.5 -0.523809,0.5 -0.289013,0 -0.523941,-0.223625 -0.523941,-0.5 0,-0.276375 0.234928,-0.5 0.523941,-0.5 0.289535,0 0.523809,0.223625 0.523809,0.5 z m -2.0955,0 c 0,0.276375 -0.234274,0.5 -0.523286,0.5 -0.289536,0 -0.523809,-0.223625 -0.523809,-0.5 0,-0.276375 0.234273,-0.5 0.523809,-0.5 0.289012,0 0.523286,0.223625 0.523286,0.5 z m 2.0955,-10.000063 c 0,0.276375 -0.234274,0.5 -0.523809,0.5 -0.289013,0 -0.523941,-0.223625 -0.523941,-0.5 0,-0.275906 0.234928,-0.500125 0.523941,-0.500125 0.289535,0 0.523809,0.224219 0.523809,0.500125 z m -2.0955,0 c 0,0.276375 -0.234274,0.5 -0.523286,0.5 -0.289536,0 -0.523809,-0.223625 -0.523809,-0.5 0,-0.275906 0.234273,-0.500125 0.523809,-0.500125 0.289012,0 0.523286,0.224219 0.523286,0.500125 z M 5.7955,11.00003 c 0,-0.276374 0.234273,-0.500124 0.523809,-0.500124 0.289012,0 0.523286,0.22375 0.523286,0.500124 0,0.276376 -0.234274,0.5 -0.523286,0.5 -0.289536,0 -0.523809,-0.223624 -0.523809,-0.5 z m 2.094845,0 c 0,-0.276374 0.234928,-0.500124 0.523941,-0.500124 0.289535,0 0.523809,0.22375 0.523809,0.500124 0,0.276376 -0.234274,0.5 -0.523809,0.5 -0.289013,0 -0.523941,-0.223624 -0.523941,-0.5 z m 8.380821,8.000063 H 5.7955 c -1.157619,0 -2.0955,-0.8955 -2.0955,-2 v -1.500031 c 0,-0.275875 0.234273,-0.5 0.523809,-0.5 0.289536,0 0.52394,0.224125 0.52394,0.5 v 1.500031 c 0,0.55225 0.46868,1.00025 1.047751,1.00025 h 10.475666 c 0.579073,0 1.047619,-0.448 1.047619,-1.00025 v -2.000031 c 0,-0.55225 -0.468546,-1.00025 -1.047619,-1.00025 H 14.176191 5.7955 c -0.532125,0 -1.016027,-0.190688 -1.385476,-0.502188 -0.05232,-0.04394 -0.102176,-0.09081 -0.149744,-0.139656 -0.0018,-0.0025 -0.0047,-0.0044 -0.0063,-0.0068 -0.04527,-0.04687 -0.0881,-0.09569 -0.128659,-0.146969 -0.0047,-0.0066 -0.0095,-0.01222 -0.0147,-0.01903 -0.03581,-0.04591 -0.06868,-0.094 -0.100375,-0.142844 -0.0083,-0.01294 -0.01713,-0.02563 -0.02468,-0.03881 -0.02648,-0.04297 -0.05114,-0.08741 -0.07405,-0.132094 -0.0088,-0.01735 -0.01765,-0.03541 -0.02649,-0.05347 -0.02226,-0.04591 -0.04167,-0.0935 -0.05985,-0.141594 -0.0065,-0.01635 -0.01293,-0.03197 -0.01879,-0.04881 -0.01702,-0.04981 -0.03172,-0.101562 -0.04462,-0.152343 -0.0041,-0.01709 -0.01,-0.03272 -0.01355,-0.05006 -0.01343,-0.05835 -0.02341,-0.117687 -0.03107,-0.178219 -0.0011,-0.0095 -0.0029,-0.01928 -0.0041,-0.02856 C 3.704616,12.14653 3.7,12.07353 3.7,12.00003 V 9.999906 c 0,-0.074 0.0046,-0.146876 0.01293,-0.218657 5.24e-4,-0.0073 0.0023,-0.01403 0.0034,-0.02137 0.0077,-0.06213 0.0183,-0.124376 0.03172,-0.184938 0.0035,-0.01747 0.0095,-0.03309 0.01355,-0.04994 0.01293,-0.05103 0.02763,-0.102532 0.04462,-0.152469 0.0059,-0.01625 0.01293,-0.03137 0.01879,-0.04759 0.01879,-0.04944 0.03811,-0.09875 0.06113,-0.14575 0.007,-0.01575 0.01523,-0.02978 0.02289,-0.04494 0.02341,-0.04713 0.04871,-0.09362 0.07634,-0.138438 0.0075,-0.01235 0.01585,-0.02465 0.02403,-0.03759 0.03287,-0.05103 0.06689,-0.100937 0.104468,-0.148563 0.0025,-0.0034 0.0047,-0.005 0.0072,-0.0084 0.08633,-0.10925 0.184414,-0.210812 0.291827,-0.301031 0.368828,-0.310063 0.852206,-0.5 1.38253,-0.5 h 10.475674 c 0.579071,0 1.04762,-0.448 1.04762,-1.00025 V 4.999798 c 0,-0.552125 -0.468549,-0.999531 -1.04762,-0.999531 H 5.7955 c -0.579071,0 -1.047751,0.447406 -1.047751,0.999531 v 1.50025 c 0,0.276375 -0.234404,0.5 -0.52394,0.5 C 3.934273,7.000048 3.7,6.776423 3.7,6.500048 V 4.999798 C 3.7,3.895392 4.637881,3.000142 5.7955,3.000142 h 10.475666 c 1.157619,0 2.095501,0.89525 2.095501,1.999656 v 2.00025 c 0,1.1045 -0.937882,1.999781 -2.095501,1.999781 H 15.988047 5.7955 c -0.579071,0 -1.047751,0.447875 -1.047751,1.000126 v 2.000124 c 0,0.55225 0.46868,1.00025 1.047751,1.00025 h 10.192547 0.283119 c 1.157587,0 2.095501,0.895282 2.095501,1.999782 v 2.000031 c 0,1.1045 -0.937882,2 -2.095501,2 z m 1.571692,-7.000063 c -0.289013,0 -0.524073,-0.224124 -0.524073,-0.5 v -1.000124 c 0,-0.27575 0.23506,-0.5 0.524073,-0.5 0.289535,0 0.523809,0.22425 0.523809,0.5 v 1.000124 c 0,0.275876 -0.234274,0.5 -0.523809,0.5 z"
       id="path2-36"
       style="stroke-width:0.0319854;fill-opacity:1;fill:currentColor;"
       class="ColorScheme-Text" />
  </g>
  <metadata
     id="metadata18">
    <rdf:RDF>
      <cc:Work
         rdf:about="">
        <dc:format>image/svg+xml</dc:format>
        <dc:type
           rdf:resource="http://purl.org/dc/dcmitype/StillImage" />
      </cc:Work>
    </rdf:RDF>
  </metadata>
  <defs
     id="defs16" />
  <sodipodi:namedview
     pagecolor="#ffffff"
     bordercolor="#000000"
     borderopacity="1"
     objecttolerance="10"
     gridtolerance="10"
     guidetolerance="10"
     inkscape:pageopacity="0"
     inkscape:pageshadow="2"
     inkscape:window-width="1920"
     inkscape:window-height="1013"
     id="namedview14"
     showgrid="false"
     inkscape:zoom="11.313709"
     inkscape:cx="28.991377"
     inkscape:cy="11.932426"
     inkscape:window-x="0"
     inkscape:window-y="0"
     inkscape:window-maximized="1"
     inkscape:current-layer="svg12"
     inkscape:document-rotation="0"
     inkscape:lockguides="true"
     inkscape:showpageshadow="false"
     inkscape:pagecheckerboard="0">
    <inkscape:grid
       type="xygrid"
       id="grid875"
       originx="0"
       originy="-4.6325681e-08" />
  </sodipodi:namedview>
  <g
     id="drive-harddisk">
    <rect
       style="opacity:0.00100002"
       width="32"
       height="32"
       x="0"
       y="4.6325681e-08"
       id="rect7" />
    <path
       d="m 12.857143,23.499953 c 0,0.414563 -0.351411,0.75 -0.785714,0.75 -0.433519,0 -0.785911,-0.335437 -0.785911,-0.75 0,-0.414562 0.352392,-0.75 0.785911,-0.75 0.434303,0 0.785714,0.335438 0.785714,0.75 z m -3.1432504,0 c 0,0.414563 -0.351411,0.75 -0.7849284,0.75 -0.4343041,0 -0.7857142,-0.335437 -0.7857142,-0.75 0,-0.414562 0.3514101,-0.75 0.7857142,-0.75 0.4335174,0 0.7849284,0.335438 0.7849284,0.75 z M 12.857143,8.4998594 c 0,0.4145625 -0.351411,0.75 -0.785714,0.75 -0.433519,0 -0.785911,-0.3354375 -0.785911,-0.75 0,-0.4138594 0.352392,-0.7501875 0.785911,-0.7501875 0.434303,0 0.785714,0.3363281 0.785714,0.7501875 z m -3.1432504,0 c 0,0.4145625 -0.351411,0.75 -0.7849284,0.75 -0.4343041,0 -0.7857142,-0.3354375 -0.7857142,-0.75 0,-0.4138594 0.3514101,-0.7501875 0.7857142,-0.7501875 0.4335174,0 0.7849284,0.3363281 0.7849284,0.7501875 z M 8.14325,15.999906 c 0,-0.414562 0.3514101,-0.750187 0.7857142,-0.750187 0.4335174,0 0.7849284,0.335625 0.7849284,0.750187 0,0.414563 -0.351411,0.75 -0.7849284,0.75 -0.4343041,0 -0.7857142,-0.335437 -0.7857142,-0.75 z m 3.142268,0 c 0,-0.414562 0.352392,-0.750187 0.785911,-0.750187 0.434303,0 0.785714,0.335625 0.785714,0.750187 0,0.414563 -0.351411,0.75 -0.785714,0.75 -0.433519,0 -0.785911,-0.335437 -0.785911,-0.75 z M 23.856749,28 H 8.14325 C 6.4068213,28 5,26.65675 5,25 v -2.250047 c 0,-0.413812 0.3514102,-0.75 0.7857143,-0.75 0.4343029,0 0.7859101,0.336188 0.7859101,0.75 V 25 c 0,0.828375 0.7030185,1.500375 1.5716256,1.500375 h 15.713499 c 0.868609,0 1.571428,-0.672 1.571428,-1.500375 v -3.000047 c 0,-0.828375 -0.702819,-1.500375 -1.571428,-1.500375 H 20.714287 8.14325 c -0.7981872,0 -1.5240406,-0.286031 -2.0782142,-0.753281 -0.078479,-0.06591 -0.1532636,-0.136219 -0.2246159,-0.209484 -0.00272,-0.0037 -0.00711,-0.0066 -0.00953,-0.01027 C 5.7629759,19.456233 5.6987452,19.383012 5.6379017,19.30609 5.6307917,19.29619 5.6237057,19.28776 5.6158497,19.27754 5.5621277,19.20868 5.5128269,19.13654 5.465288,19.063274 5.45281,19.043864 5.4396,19.024834 5.428265,19.005054 5.388541,18.940604 5.351558,18.873944 5.317185,18.806913 5.303923,18.780893 5.290712,18.753803 5.277458,18.726713 5.24407,18.657853 5.214947,18.586463 5.187687,18.514322 5.177957,18.489802 5.168297,18.466372 5.159496,18.441102 5.133965,18.366382 5.111914,18.288759 5.092564,18.212587 5.086374,18.186947 5.077583,18.163507 5.07223,18.137497 5.052093,18.049977 5.037113,17.960966 5.025632,17.870169 c -0.00168,-0.0143 -0.0044,-0.02892 -0.00619,-0.04284 C 5.0069238,17.719656 5,17.610156 5,17.499906 v -3.000187 c 0,-0.111 0.00691,-0.220313 0.019401,-0.327985 7.858e-4,-0.01097 0.00347,-0.02105 0.00512,-0.03206 0.011491,-0.09319 0.027448,-0.186563 0.047582,-0.277407 0.00533,-0.0262 0.014195,-0.04964 0.020334,-0.07491 0.019401,-0.07655 0.041443,-0.153797 0.066932,-0.228703 0.0088,-0.02437 0.019401,-0.04706 0.028191,-0.07139 0.028191,-0.07416 0.057158,-0.148125 0.091689,-0.218625 0.01056,-0.02363 0.022838,-0.04467 0.03433,-0.06741 0.035116,-0.07069 0.073071,-0.140437 0.1145173,-0.207656 0.011292,-0.01852 0.02377,-0.03698 0.036048,-0.05639 0.049301,-0.07655 0.10033,-0.151406 0.1567018,-0.222844 0.00368,-0.0051 0.00711,-0.0075 0.010749,-0.01266 0.1294961,-0.163875 0.2766207,-0.316219 0.4377414,-0.451547 0.5532413,-0.465094 1.2783078,-0.75 2.0737942,-0.75 H 23.856642 c 0.868606,0 1.571429,-0.672 1.571429,-1.500375 V 6.9994844 c 0,-0.8281875 -0.702823,-1.4992969 -1.571429,-1.4992969 H 8.14325 c -0.8686071,0 -1.5716256,0.6711094 -1.5716256,1.4992969 v 2.250375 c 0,0.4145628 -0.3516072,0.7499996 -0.7859101,0.7499996 C 5.3514102,9.999859 5,9.6644222 5,9.2498594 V 6.9994844 C 5,5.342875 6.4068213,4 8.14325,4 H 23.856749 C 25.593178,4 27,5.342875 27,6.9994844 V 9.999859 c 0,1.65675 -1.406822,2.999672 -3.143251,2.999672 H 23.432071 8.14325 c -0.8686071,0 -1.5716256,0.671812 -1.5716256,1.500188 v 3.000187 c 0,0.828375 0.7030185,1.500375 1.5716256,1.500375 h 15.288821 0.424678 C 25.593129,19.000281 27,20.343203 27,21.999953 V 25 c 0,1.65675 -1.406822,3 -3.143251,3 z m 2.357538,-10.500094 c -0.433519,0 -0.78611,-0.336187 -0.78611,-0.75 v -1.500187 c 0,-0.413625 0.352591,-0.75 0.78611,-0.75 0.434302,0 0.785713,0.336375 0.785713,0.75 v 1.500187 c 0,0.413813 -0.351411,0.75 -0.785713,0.75 z"
       id="path2"
       style="stroke-width:0.0479781;fill-opacity:1;fill:currentColor;"
       class="ColorScheme-Text" />
  </g>
</svg>
