<?xml version="1.0" encoding="UTF-8" standalone="no"?>
<svg
   width="32"
   height="32"
   version="1.1"
   id="svg14"
   sodipodi:docname="edit.svg"
   inkscape:version="1.1.2 (0a00cf5339, 2022-02-04)"
   xmlns:inkscape="http://www.inkscape.org/namespaces/inkscape"
   xmlns:sodipodi="http://sodipodi.sourceforge.net/DTD/sodipodi-0.dtd"
   xmlns="http://www.w3.org/2000/svg"
   xmlns:svg="http://www.w3.org/2000/svg">
  <style
     id="current-color-scheme"
     type="text/css">.ColorScheme-Text { color:#eceff4; }
</style>
  <defs
     id="defs18" />
  <sodipodi:namedview
     id="namedview16"
     pagecolor="#ffffff"
     bordercolor="#666666"
     borderopacity="1.0"
     inkscape:pageshadow="2"
     inkscape:pageopacity="0.0"
     inkscape:pagecheckerboard="0"
     showgrid="false"
     inkscape:zoom="10.3125"
     inkscape:cx="24.436364"
     inkscape:cy="13.769697"
     inkscape:window-width="1920"
     inkscape:window-height="1013"
     inkscape:window-x="0"
     inkscape:window-y="0"
     inkscape:window-maximized="1"
     inkscape:current-layer="svg14"
     inkscape:lockguides="true">
    <inkscape:grid
       type="xygrid"
       id="grid1189"
       originx="0"
       originy="0" />
  </sodipodi:namedview>
  <g
     id="g863">
    <g
       id="edit-delete">
      <path
         style="opacity:0.00100002"
         d="M 0,0 V 32.000001 H 32.000001 V 0 Z"
         id="path9" />
      <path
         d="m 12.982328,22.750047 v -7.500141 c 0,-0.414562 0.334969,-0.75 0.748734,-0.75 0.413578,0 0.748547,0.335438 0.748547,0.75 v 7.500141 c 0,0.413812 -0.334969,0.75 -0.748547,0.75 -0.413765,0 -0.748734,-0.336188 -0.748734,-0.75 z m 5.239734,-2.25 c -0.413719,0 -0.748547,-0.336188 -0.748547,-0.75 v -4.500141 c 0,-0.414562 0.334828,-0.75 0.748547,-0.75 0.413719,0 0.748547,0.335438 0.748547,0.75 v 4.500141 c 0,0.413812 -0.334828,0.75 -0.748547,0.75 z m 0,3 c -0.413719,0 -0.748547,-0.336188 -0.748547,-0.75 0,-0.414563 0.334828,-0.75 0.748547,-0.75 0.413719,0 0.748547,0.335437 0.748547,0.75 0,0.413812 -0.334828,0.75 -0.748547,0.75 z m 5.988328,-7.500141 c -0.413718,0 -0.748547,-0.335437 -0.748547,-0.75 0,-0.414562 0.334829,-0.75 0.748547,-0.75 0.413719,0 0.748594,0.335438 0.748594,0.75 0,0.414563 -0.334875,0.75 -0.748594,0.75 z m 0.748594,-4.499953 H 24.555765 21.5905 21.215875 10.36239 c -1.03364,0 -1.871156,0.839344 -1.871156,1.875 v 0.374625 3.000516 7.874953 C 8.491234,25.660656 9.32875,26.5 10.36239,26.5 H 21.5905 c 1.03364,0 1.871343,-0.839344 1.871343,-1.874953 v -6.374953 c 0,-0.414563 0.334829,-0.75 0.748547,-0.75 0.413719,0 0.748594,0.335437 0.748594,0.75 V 25 c 0,1.65675 -1.340719,3 -2.994187,3 H 9.988515 C 8.334812,28 6.993812,26.65675 6.993812,25 v -8.249906 -3.000516 -0.74925 C 6.993812,11.34325 8.334812,10 9.988515,10 h 0.747797 11.228485 2.994187 C 25.785765,10 26.455703,9.328375 26.455703,8.499625 26.455703,7.671625 25.785765,7 24.958984,7 H 19.344906 C 18.518078,7 18.300672,5.5 17.473515,5.5 H 14.479562 C 13.652406,5.5 13.434765,7 12.608406,7 H 6.993812 C 6.167453,7 5.496531,7.671625 5.496531,8.499625 5.496531,8.9138125 5.161562,9.25 4.748734,9.25 4.334969,9.25 4,8.9138125 4,8.499625 4,6.84325 5.340062,5.5 6.993812,5.5 h 4.117313 C 11.937531,5.5 12.155922,4 12.982281,4 h 5.988281 c 0.826828,0 1.044985,1.5 1.871391,1.5 h 4.116984 c 1.653844,0 2.994141,1.34325 2.994141,2.9995781 4.7e-5,1.6571249 -1.34025,3.0003749 -2.994094,3.0003749 z"
         id="path2-3"
         style="stroke-width:0.046875;fill-opacity:1;fill:currentColor;"
         class="ColorScheme-Text" />
    </g>
  </g>
  <g
     id="22-22-edit-delete"
     transform="translate(32.000001,10.000001)">
    <path
       style="opacity:0.00100002"
       d="M 0,0 V 22 H 22 V 0 Z"
       id="path2" />
    <path
       d="m 8.988216,15.500061 v -5.000093 c 0,-0.276377 0.2233138,-0.5000003 0.4991598,-0.5000003 0.275723,0 0.4990322,0.2236233 0.4990322,0.5000003 v 5.000093 c 0,0.275876 -0.2233092,0.5 -0.4990322,0.5 -0.275846,0 -0.4991598,-0.224124 -0.4991598,-0.5 z m 3.493144,-1.5 c -0.275817,0 -0.49904,-0.224124 -0.49904,-0.5 v -3.000093 c 0,-0.276377 0.223223,-0.5000003 0.49904,-0.5000003 0.27584,0 0.49904,0.2236233 0.49904,0.5000003 v 3.000093 c 0,0.275876 -0.2232,0.5 -0.49904,0.5 z m 0,2 c -0.275817,0 -0.49904,-0.224124 -0.49904,-0.5 0,-0.276375 0.223223,-0.5 0.49904,-0.5 0.27584,0 0.49904,0.223625 0.49904,0.5 0,0.275876 -0.2232,0.5 -0.49904,0.5 z m 3.99223,-5.000093 c -0.275798,0 -0.499027,-0.223626 -0.499027,-0.5 0,-0.276377 0.223229,-0.5000003 0.499027,-0.5000003 0.275799,0 0.499074,0.2236233 0.499074,0.5000003 0,0.276374 -0.223275,0.5 -0.499074,0.5 z M 16.972664,7.999999 H 16.703845 14.72698 14.477235 7.241592 c -0.68909,0 -1.247438,0.55956 -1.247438,1.25 v 0.249751 2.000342 5.249967 c 0,0.690406 0.558348,1.249971 1.247438,1.249971 h 7.485388 c 0.6891,0 1.247583,-0.559565 1.247583,-1.249971 v -4.249967 c 0,-0.276374 0.223229,-0.5 0.499027,-0.5 0.275799,0 0.499074,0.223626 0.499074,0.5 v 4.499938 c 0,1.104504 -0.893839,2 -1.996107,2 H 6.992344 c -1.102468,0 -1.996468,-0.895496 -1.996468,-2 V 11.500092 9.49975 9.000246 c 0,-1.104718 0.894,-2.000216 1.996468,-2.000216 h 0.498528 7.485685 1.996107 c 0.551181,0 0.997816,-0.447752 0.997816,-1.000248 0,-0.552 -0.446635,-0.999752 -0.997816,-0.999752 h -3.742718 c -0.551228,0 -0.696154,-1 -1.247625,-1 h -1.99595 c -0.5514306,0 -0.6965315,1 -1.247435,1 h -3.74306 c -0.550908,0 -0.998188,0.447752 -0.998188,0.999752 0,0.2761245 -0.223312,0.500248 -0.49853,0.500248 C 3.223313,6.50003 3,6.2759065 3,5.999782 3,4.895528 3.893374,4.00003 4.995876,4.00003 h 2.744873 c 0.550939,0 0.696533,-1 1.247436,-1 H 12.9804 c 0.5512,0 0.69664,1 1.247553,1 h 2.744664 c 1.102564,0 1.996103,0.895498 1.996103,1.99972 5e-6,1.104751 -0.893492,2.000249 -1.996056,2.000249 z"
       id="path2-3-3"
       style="stroke-width:0.031251;fill-opacity:1;fill:currentColor;"
       class="ColorScheme-Text" />
  </g>
</svg>
