<?xml version="1.0" encoding="UTF-8" standalone="no"?>
<svg
   width="32"
   height="32"
   version="1.1"
   id="svg2222"
   sodipodi:docname="emblem.svg"
   inkscape:version="1.2.1 (9c6d41e410, 2022-07-14)"
   xmlns:inkscape="http://www.inkscape.org/namespaces/inkscape"
   xmlns:sodipodi="http://sodipodi.sourceforge.net/DTD/sodipodi-0.dtd"
   xmlns="http://www.w3.org/2000/svg"
   xmlns:svg="http://www.w3.org/2000/svg">
  <style
     id="current-color-scheme"
     type="text/css">.ColorScheme-Text { color:#eceff4; }
</style>
  <defs
     id="defs2226" />
  <sodipodi:namedview
     id="namedview2224"
     pagecolor="#cccccc"
     bordercolor="#000000"
     borderopacity="1"
     inkscape:showpageshadow="2"
     inkscape:pageopacity="0"
     inkscape:pagecheckerboard="0"
     inkscape:deskcolor="#cccccc"
     showgrid="false"
     inkscape:zoom="11.313709"
     inkscape:cx="36.01825"
     inkscape:cy="25.765202"
     inkscape:window-width="1920"
     inkscape:window-height="1002"
     inkscape:window-x="0"
     inkscape:window-y="0"
     inkscape:window-maximized="1"
     inkscape:current-layer="svg2222">
    <inkscape:grid
       type="xygrid"
       id="grid2250"
       originx="0"
       originy="0" />
  </sodipodi:namedview>
  <g
     id="emblem-shared-symbolic">
    <rect
       style="opacity:0.00100002"
       width="32"
       height="32"
       x="0"
       y="0"
       id="rect2217" />
    <path
       d="m 22.499608,12.999882 h -0.28125 c -0.155462,0 -0.281358,-0.2257 -0.281358,-0.380882 0,-0.155461 0.125896,-0.382 0.281358,-0.382 h 0.28125 c 2.04601,0 3.571862,-1.639685 3.637113,-3.737157 C 26.204334,6.3264545 24.189349,4.6762876 22.199279,4.862 20.245121,5.0443611 18.804558,6.5344686 18.862,8.499843 18.9,9.8 19.138742,10.261761 20.13978,11.247 l -0.0028,0.004 c 0.06801,0.05144 0.262516,0.247102 0.31302,0.324 0.268182,0.408338 -0.196939,0.775162 -0.473465,0.627889 -0.05588,-0.02976 -0.128906,-0.06813 -0.176014,-0.103282 l -0.0012,0.0014 C 18.707221,11.279275 18,9.972184 18,8.499962 18,6.014594 20.014578,4 22.499931,4 24.985006,4 27,6.014594 27,8.499962 27,10.985143 24.985006,13 22.499931,13 Z m -1.406089,-0.5625 c 0.155044,0 0.280967,0.125789 0.280967,0.28125 0,0.155182 -0.125923,0.28125 -0.280967,0.28125 -0.155456,0 -0.28125,-0.126068 -0.28125,-0.28125 0,-0.155461 0.125794,-0.28125 0.28125,-0.28125 z M 26.43705,8.499843 v 0 0 0 0 0 l 0.02481,-0.0057 -0.02371,0.0053 0.0042,-0.0042 4.5e-4,0.0027 0.02116,-0.01035 -0.03081,0.0109 0.01095,0.002 0.0039,4.91e-4 -0.01086,-4.91e-4 v 0 l -0.29314,-1.8e-5 0.004,4.91e-4 0.014,-0.0064 z"
       id="path2-3-3-7"
       sodipodi:nodetypes="ssssssssccssccssssscsssccccccccccccccccccccc"
       style="fill:currentColor;fill-opacity:1;stroke-width:0.0175785;enable-background:new"
       class="ColorScheme-Text" />
    <path
       d="m 13.064,13.194335 5.557463,-3.457973 0.64837,1.042028 -5.557462,3.457972 z"
       id="path1550-6-93"
       style="fill:currentColor;fill-opacity:1;stroke-width:0.041678"
       sodipodi:nodetypes="ccccc"
       class="ColorScheme-Text" />
    <path
       d="M 18.464898,22.379 12.886,18.142043 13.680424,17.096 l 5.578902,4.236957 z"
       id="path1550-6-5-6"
       style="fill:currentColor;fill-opacity:1;stroke-width:0.0446064"
       sodipodi:nodetypes="ccccc"
       class="ColorScheme-Text" />
    <path
       d="m 9.499608,20.499882 h -0.28125 c -0.155462,0 -0.281358,-0.2257 -0.281358,-0.380882 0,-0.155461 0.125896,-0.382 0.281358,-0.382 h 0.28125 c 2.04601,0 3.571862,-1.639685 3.637113,-3.737157 C 13.204334,13.826455 11.189349,12.176288 9.199279,12.362 7.245121,12.544361 5.804558,14.034469 5.862,15.999843 5.9,17.3 6.138742,17.761761 7.13978,18.747 l -0.0028,0.004 c 0.06801,0.05144 0.262516,0.247102 0.31302,0.324 0.268182,0.408338 -0.196939,0.775162 -0.473465,0.627889 -0.05588,-0.02976 -0.128906,-0.06813 -0.176014,-0.103282 l -0.0012,0.0014 C 5.707221,18.779275 5,17.472184 5,15.999962 5,13.514594 7.014578,11.5 9.499931,11.5 11.985006,11.5 14,13.514594 14,15.999962 14,18.485143 11.985006,20.5 9.499931,20.5 Z m -1.406089,-0.5625 c 0.155044,0 0.280967,0.125789 0.280967,0.28125 0,0.155182 -0.125923,0.28125 -0.280967,0.28125 -0.155456,0 -0.28125,-0.126068 -0.28125,-0.28125 0,-0.155461 0.125794,-0.28125 0.28125,-0.28125 z m 5.343531,-3.937539 v 0 0 0 0 0 l 0.02481,-0.0057 -0.02371,0.0053 0.0042,-0.0042 4.5e-4,0.0027 0.02116,-0.01035 -0.03081,0.0109 0.01095,0.002 0.0039,4.91e-4 -0.01086,-4.91e-4 v 0 l -0.29314,-1.8e-5 0.004,4.91e-4 0.014,-0.0064 z"
       id="path2-3-3-7-0"
       sodipodi:nodetypes="ssssssssccssccssssscsssccccccccccccccccccccc"
       style="fill:currentColor;fill-opacity:1;stroke-width:0.0175785;enable-background:new"
       class="ColorScheme-Text " />
    <path
       d="m 22.499608,27.999882 h -0.28125 c -0.155462,0 -0.281358,-0.2257 -0.281358,-0.380882 0,-0.155461 0.125896,-0.382 0.281358,-0.382 h 0.28125 c 2.04601,0 3.571862,-1.639685 3.637113,-3.737157 C 26.204334,21.326455 24.189349,19.676288 22.199279,19.862 20.245121,20.044361 18.804558,21.534469 18.862,23.499843 18.9,24.8 19.138742,25.261761 20.13978,26.247 l -0.0028,0.004 c 0.06801,0.05144 0.262516,0.247102 0.31302,0.324 0.268182,0.408338 -0.196939,0.775162 -0.473465,0.627889 -0.05588,-0.02976 -0.128906,-0.06813 -0.176014,-0.103282 l -0.0012,0.0014 C 18.707221,26.279275 18,24.972184 18,23.499962 18,21.014594 20.014578,19 22.499931,19 24.985006,19 27,21.014594 27,23.499962 27,25.985143 24.985006,28 22.499931,28 Z m -1.406089,-0.5625 c 0.155044,0 0.280967,0.125789 0.280967,0.28125 0,0.155182 -0.125923,0.28125 -0.280967,0.28125 -0.155456,0 -0.28125,-0.126068 -0.28125,-0.28125 0,-0.155461 0.125794,-0.28125 0.28125,-0.28125 z m 5.343531,-3.937539 v 0 0 0 0 0 l 0.02481,-0.0057 -0.02371,0.0053 0.0042,-0.0042 4.5e-4,0.0027 0.02116,-0.01035 -0.03081,0.0109 0.01095,0.002 0.0039,4.91e-4 -0.01086,-4.91e-4 v 0 l -0.29314,-1.8e-5 0.004,4.91e-4 0.014,-0.0064 z"
       id="path2-3-3-7-0-6"
       sodipodi:nodetypes="ssssssssccssccssssscsssccccccccccccccccccccc"
       style="fill:currentColor;fill-opacity:1;stroke-width:0.0175785;enable-background:new"
       class="ColorScheme-Text " />
    <circle
       cx="9.5"
       cy="16.100189"
       r="2.3531883"
       id="circle2"
       style="stroke-width:0.191316;fill-opacity:1;fill:currentColor;"
       class="ColorScheme-Text" />
    <circle
       cx="22.5"
       cy="23.600189"
       r="2.3531883"
       id="circle2-7"
       style="stroke-width:0.191316;fill-opacity:1;fill:currentColor;"
       class="ColorScheme-Text" />
    <circle
       cx="22.503189"
       cy="8.6031885"
       r="2.3531883"
       id="circle2-5"
       style="stroke-width:0.191316;fill-opacity:1;fill:currentColor;"
       class="ColorScheme-Text" />
  </g>
  <g
     id="22-22-emblem-shared-symbolic">
    <rect
       style="opacity:0.00100002"
       width="22"
       height="22"
       x="32"
       y="10.000001"
       id="rect2212" />
    <path
       d="m 47.924708,18.749227 h -0.210934 c -0.116593,0 -0.211028,-0.169278 -0.211028,-0.285662 0,-0.116597 0.09442,-0.286499 0.211028,-0.286499 h 0.210934 c 1.53451,0 2.678888,-1.229765 2.727828,-2.802871 0.05076,-1.63004 -1.460532,-2.867666 -2.953082,-2.72838 -1.465608,0.136771 -2.546036,1.254352 -2.502949,2.72838 0.02843,0.97512 0.207562,1.321441 0.95834,2.060371 l -0.0028,0.0034 c 0.05106,0.03857 0.196888,0.185319 0.234763,0.243 0.20114,0.306246 -0.147701,0.581373 -0.355098,0.470909 -0.04194,-0.02236 -0.09669,-0.05119 -0.13201,-0.07747 l -0.0012,0.0014 c -0.819044,-0.616344 -1.349461,-1.59666 -1.349461,-2.700838 0,-1.864012 1.510934,-3.374966 3.37495,-3.374966 1.863801,0 3.37505,1.510954 3.37505,3.374966 0,1.863888 -1.511249,3.375034 -3.37505,3.375034 z m -1.054564,-0.421875 c 0.116284,0 0.210722,0.09435 0.210722,0.210937 0,0.116386 -0.09439,0.210938 -0.210722,0.210938 -0.116606,0 -0.210932,-0.09453 -0.210932,-0.210938 0,-0.116599 0.09432,-0.210937 0.210932,-0.210937 z m 4.007646,-2.953157 v 0 0 0 0 0 l 0.01866,-0.0045 -0.01772,0.0044 0.0036,-0.0036 3.36e-4,0.0027 0.01582,-0.0085 -0.02307,0.0091 0.0092,0.002 0.0034,3.68e-4 -0.0089,-3.68e-4 v 0 l -0.219858,-1.3e-5 0.0034,3.68e-4 0.01046,-0.0049 z"
       id="path2-3-3-7-9"
       sodipodi:nodetypes="ssssssssccssccssssscsssccccccccccccccccccccc"
       style="fill:currentColor;fill-opacity:1;stroke-width:0.0131851;enable-background:new"
       class="ColorScheme-Text " />
    <path
       d="m 40.848,18.895066 4.168103,-2.593479 0.486265,0.781521 -4.168096,2.593479 z"
       id="path1550-6-93-2"
       style="fill:currentColor;fill-opacity:1;stroke-width:0.0312576"
       sodipodi:nodetypes="ccccc"
       class="ColorScheme-Text " />
    <path
       d="m 44.898673,25.783565 -4.184168,-3.177718 0.595827,-0.784532 4.184154,3.177717 z"
       id="path1550-6-5-6-0"
       style="fill:currentColor;fill-opacity:1;stroke-width:0.0334539"
       sodipodi:nodetypes="ccccc"
       class="ColorScheme-Text " />
    <path
       d="m 38.174713,23.999226 h -0.210941 c -0.116601,0 -0.211018,-0.169274 -0.211018,-0.285661 0,-0.116596 0.09441,-0.286499 0.211018,-0.286499 h 0.210941 c 1.53451,0 2.678897,-1.229764 2.727828,-2.80287 0.05076,-1.63004 -1.460532,-2.867665 -2.953082,-2.728382 -1.465623,0.136771 -2.546036,1.254352 -2.502964,2.728382 0.02843,0.975118 0.207559,1.321438 0.958339,2.060369 l -0.0028,0.0034 c 0.05106,0.03863 0.196889,0.185324 0.234766,0.243 0.201139,0.306254 -0.147701,0.581368 -0.355095,0.470924 -0.04194,-0.02242 -0.09669,-0.0512 -0.132016,-0.07748 l -0.0012,0.0014 C 35.330414,22.708769 34.8,21.728453 34.8,20.624287 c 0,-1.864027 1.510938,-3.374972 3.374946,-3.374972 1.863814,0 3.375054,1.510945 3.375054,3.374972 0,1.863885 -1.51124,3.375028 -3.375054,3.375028 z m -1.054579,-0.421875 c 0.116284,0 0.210737,0.09434 0.210737,0.210939 0,0.116383 -0.09446,0.210936 -0.210737,0.210936 -0.116591,0 -0.210938,-0.09455 -0.210938,-0.210936 0,-0.116597 0.09436,-0.210939 0.210938,-0.210939 z m 4.007661,-2.953155 v 0 0 0 0 0 l 0.01866,-0.0045 -0.01772,0.0044 0.0036,-0.0036 3.38e-4,0.0027 0.01581,-0.0085 -0.02305,0.0087 0.009,0.002 0.0034,3.66e-4 -0.0089,-3.66e-4 v 0 l -0.219854,-1.5e-5 0.0034,3.69e-4 0.01046,-0.0049 z"
       id="path2-3-3-7-0-2"
       sodipodi:nodetypes="ssssssssccssccssssscsssccccccccccccccccccccc"
       style="fill:currentColor;fill-opacity:1;stroke-width:0.0131851;enable-background:new"
       class="ColorScheme-Text " />
    <path
       d="m 47.924708,29.999227 h -0.210934 c -0.116593,0 -0.211028,-0.169278 -0.211028,-0.285661 0,-0.116598 0.09442,-0.2865 0.211028,-0.2865 h 0.210934 c 1.53451,0 2.678888,-1.229765 2.727828,-2.802871 0.05076,-1.630039 -1.460532,-2.867666 -2.953082,-2.72838 -1.465608,0.136771 -2.546036,1.254352 -2.502949,2.72838 0.02843,0.97512 0.207562,1.321441 0.95834,2.060371 l -0.0028,0.0034 c 0.05106,0.03861 0.196888,0.185319 0.234763,0.242999 0.20114,0.306247 -0.147701,0.581374 -0.355098,0.47091 -0.04194,-0.02236 -0.09669,-0.05116 -0.13201,-0.07747 l -0.0012,0.0014 c -0.819044,-0.616344 -1.349461,-1.59666 -1.349461,-2.700838 0,-1.864012 1.510934,-3.374966 3.37495,-3.374966 1.863801,0 3.37505,1.510954 3.37505,3.374966 0,1.863888 -1.511249,3.375034 -3.37505,3.375034 z m -1.054564,-0.421875 c 0.116284,0 0.210722,0.09435 0.210722,0.210937 0,0.116386 -0.09439,0.210938 -0.210722,0.210938 -0.116606,0 -0.210932,-0.09454 -0.210932,-0.210938 0,-0.116599 0.09432,-0.210937 0.210932,-0.210937 z m 4.007646,-2.953157 v 0 0 0 0 0 l 0.01866,-0.0045 -0.01772,0.0044 0.0036,-0.0036 3.36e-4,0.0027 0.01582,-0.0085 -0.02307,0.0092 0.0092,0.002 0.0034,3.69e-4 -0.0089,-3.69e-4 v 0 l -0.219858,-1.3e-5 0.0034,3.68e-4 0.01046,-0.0049 z"
       id="path2-3-3-7-0-6-3"
       sodipodi:nodetypes="ssssssssccssccssssscsssccccccccccccccccccccc"
       style="fill:currentColor;fill-opacity:1;stroke-width:0.0131851;enable-background:new"
       class="ColorScheme-Text " />
    <circle
       cx="47.924038"
       cy="15.375001"
       r="2.3531883"
       id="circle2-9"
       style="stroke-width:0.191316;fill-opacity:1;fill:currentColor;"
       class="ColorScheme-Text" />
    <circle
       cx="47.924038"
       cy="26.625002"
       r="2.3531883"
       id="circle2-2"
       style="fill:currentColor;fill-opacity:1;stroke-width:0.191316"
       class="ColorScheme-Text" />
    <circle
       cx="38.174999"
       cy="20.624315"
       r="2.3531883"
       id="circle2-28"
       style="stroke-width:0.191316;fill-opacity:1;fill:currentColor;"
       class="ColorScheme-Text" />
  </g>
</svg>
