<?xml version="1.0" encoding="UTF-8" standalone="no"?>
<svg
   viewBox="0 0 22 22"
   id="svg"
   version="1.1"
   width="22"
   height="22"
   sodipodi:docname="go.svg"
   inkscape:version="1.1.2 (0a00cf5339, 2022-02-04)"
   xmlns:inkscape="http://www.inkscape.org/namespaces/inkscape"
   xmlns:sodipodi="http://sodipodi.sourceforge.net/DTD/sodipodi-0.dtd"
   xmlns="http://www.w3.org/2000/svg"
   xmlns:svg="http://www.w3.org/2000/svg"
   xmlns:rdf="http://www.w3.org/1999/02/22-rdf-syntax-ns#"
   xmlns:cc="http://creativecommons.org/ns#"
   xmlns:dc="http://purl.org/dc/elements/1.1/">
  <style
     id="current-color-scheme"
     type="text/css">
.ColorScheme-Text { 
    color:#eceff4;
}
</style>
  <sodipodi:namedview
     pagecolor="#ffffff"
     bordercolor="#000000"
     borderopacity="1"
     objecttolerance="10"
     gridtolerance="10"
     guidetolerance="10"
     inkscape:pageopacity="0"
     inkscape:pageshadow="2"
     inkscape:window-width="1920"
     inkscape:window-height="1013"
     id="namedview21"
     showgrid="false"
     inkscape:zoom="5.3636365"
     inkscape:cx="76.813557"
     inkscape:cy="25.169491"
     inkscape:window-x="0"
     inkscape:window-y="0"
     inkscape:window-maximized="1"
     inkscape:current-layer="svg"
     inkscape:document-rotation="0"
     inkscape:pagecheckerboard="0"
     inkscape:lockguides="true"
     inkscape:showpageshadow="false">
    <inkscape:grid
       type="xygrid"
       id="grid853"
       originx="0"
       originy="0" />
  </sodipodi:namedview>
  <defs
     id="defs81">
    <style
       id="style5"
       type="text/css" />
  </defs>
  <metadata
     id="metadata34">
    <rdf:RDF>
      <cc:Work
         rdf:about="">
        <dc:format>image/svg+xml</dc:format>
        <dc:type
           rdf:resource="http://purl.org/dc/dcmitype/StillImage" />
      </cc:Work>
    </rdf:RDF>
  </metadata>
  <g
     id="go-down"
     transform="matrix(0.91666667,0,0,0.91666667,-30.08333,0)"
     style="fill:#d6dbf1;fill-opacity:1">
    <rect
       style="opacity:0.01;fill:#d6dbf1;fill-opacity:1;stroke:none"
       id="rect3098"
       width="24"
       height="24"
       x="155"
       y="0" />
    <path
       id="rect4176-9"
       d="M 157.88379,7.0278788 157,7.9116678 164.65625,15.567917 167,17.911667 169.34375,15.567917 177,7.9116678 176.11621,7.0278788 168.45996,14.684129 167,16.14409 165.54004,14.684129 Z"
       style="stroke:none;fill-opacity:1;fill:currentColor;"
       class="ColorScheme-Text" />
  </g>
  <g
     id="go-next"
     transform="matrix(0.91666667,0,0,0.91666667,-17.33333,0)"
     style="fill:#d6dbf1;fill-opacity:1">
    <rect
       style="opacity:0.01;fill:#d6dbf1;fill-opacity:1;stroke:none"
       id="rect3094"
       width="24"
       height="24"
       x="80"
       y="0" />
    <path
       id="rect4176-6"
       d="m 88.948831,1.9488962 -0.888311,0.8883112 7.695425,7.6954246 1.467431,1.467432 -1.467431,1.467431 -7.695425,7.695425 0.888311,0.888311 7.695425,-7.695425 L 99,12.000064 96.644256,9.6443212 Z"
       style="stroke:none;fill-opacity:1;fill:currentColor;"
       class="ColorScheme-Text" />
  </g>
  <g
     id="go-previous"
     transform="matrix(0.91666667,0,0,0.91666667,-8.66667,0)"
     style="fill:#d6dbf1;fill-opacity:1">
    <rect
       y="0"
       x="40"
       height="24"
       width="24"
       id="rect3092"
       style="opacity:0.01;fill:#d6dbf1;fill-opacity:1;stroke:none" />
    <path
       id="rect4176-31"
       d="m 56.088371,2 -7.656261,7.6562608 -2.343753,2.3437532 2.343753,2.343754 7.656261,7.65626 0.88379,-0.883751 L 49.3159,13.460016 47.855937,12.000014 49.3159,10.540137 56.972161,2.8838762 Z"
       style="stroke:none;fill-opacity:1;fill:currentColor;"
       class="ColorScheme-Text " />
  </g>
  <g
     id="go-up"
     transform="matrix(0.91666667,0,0,0.91666667,-21.41667,0)"
     style="fill:#d6dbf1;fill-opacity:1">
    <rect
       y="0"
       x="115"
       height="24"
       width="24"
       id="rect3096"
       style="opacity:0.01;fill:#d6dbf1;fill-opacity:1;stroke:none" />
    <path
       id="rect4176-2"
       d="M 117.88379,16.911625 117,16.027875 124.65625,8.371625 127,6.027875 l 2.34375,2.34375 7.65625,7.65625 -0.88379,0.88375 -7.65625,-7.65625 -1.45996,-1.46 -1.45996,1.46 z"
       style="stroke:none;fill-opacity:1;fill:currentColor;"
       class="ColorScheme-Text" />
  </g>
  <g
     id="go-home">
    <rect
       y="0"
       x="0"
       height="22"
       width="22"
       id="rect2996"
       style="opacity:0.01;fill:#d6dbf1;fill-opacity:1;stroke:none;stroke-width:0.916667" />
    <path
       fill-rule="evenodd"
       clip-rule="evenodd"
       d="m 20.000072,10.439328 c 0,0.310851 -0.25179,0.562359 -0.562395,0.562359 -0.310851,0 -0.562641,-0.251508 -0.562641,-0.562359 0,-0.148605 -0.938039,-0.853488 -1.161,-1.07673 L 17.103899,8.752425 h 0.01758 C 16.812841,8.367183 16.626091,7.878652 16.626091,7.345929 V 4.815734 c 0,-0.310851 -0.252668,-0.56264 -0.562676,-0.56264 H 14.93838 c -0.31057,0 -0.56236,0.251824 -0.56236,0.56264 v 0.193043 c 0,0.232875 -0.188367,0.421769 -0.421769,0.421769 -0.113695,0 -0.216387,-0.04585 -0.292219,-0.119179 L 11.796958,3.446258 c -0.438785,-0.439629 -1.151297,-0.439629 -1.590223,0 l -6.7602295,6.76016 c -0.220219,0.219726 -0.329941,0.507199 -0.329941,0.795269 h 0.01196 c 0,0.620719 0.471164,1.124895 0.939339,1.124895 0.536274,0 1.309922,0.755156 1.309922,1.687149 v 3.936726 c 0,0.621141 0.504035,1.124789 1.124895,1.124789 h 1.687429 c 0.310149,0 0.5625,-0.251543 0.5625,-0.56243 v -3.655512 c 0,-0.776566 0.629227,-1.406496 1.4058275,-1.406496 h 1.686867 c 0.776567,0 1.405934,0.62993 1.405934,1.406496 v 3.655512 c 0,0.310887 0.25207,0.56243 0.56236,0.56243 h 1.687429 c 0.62086,0 1.125035,-0.503648 1.125035,-1.124789 v -3.936726 c 0,-0.31029 0.251508,-0.562923 0.561797,-0.562923 0.310887,0 0.562395,0.252633 0.562395,0.562923 v 3.936726 C 17.750254,18.992773 16.743555,20 15.500992,20 h -1.687429 c -0.931711,0 -1.686832,-0.755684 -1.686832,-1.687184 v -3.374297 c 0,-0.310851 -0.251789,-0.562359 -0.562395,-0.562359 h -1.125 c -0.310711,0 -0.562394,0.251508 -0.562394,0.562359 v 3.374297 C 9.876942,19.244316 9.1217865,20 8.1900755,20 h -1.68743 c -1.242422,0 -2.249262,-1.007227 -2.249262,-2.249543 v -3.936726 c 0,-0.31029 -0.262371,-0.542602 -0.562395,-0.632673 -0.0061,-0.0016 -0.0091,-0.0049 -0.01375,-0.0077 -0.963281,-0.253719 -1.673684,-1.128653 -1.673684,-2.171669 v 0.124665 c -0.03403,-0.616746 0.175887,-1.244215 0.647087,-1.715415 L 9.4110805,2.650461 C 9.850358,2.211113 10.424318,2 11.000072,2 c 0.575754,0 1.153336,0.211113 1.592684,0.650461 l 0.98884,0.989121 C 13.839994,3.32982 14.222775,3.128269 14.657729,3.128269 h 1.686621 c 0.776566,0 1.405933,0.629368 1.405933,1.405969 v 2.811656 c 0,0.302871 0.121078,0.576387 0.316055,0.7785 l 1.286508,1.286508 c 0.441527,0.441281 0.647226,0.660973 0.647226,1.028426 z m -1.687431,1.687254 c 0.310852,0 0.562395,0.251508 0.562395,0.562395 0,0.310323 -0.251543,0.561831 -0.562395,0.561831 -0.310851,0 -0.562359,-0.251508 -0.562359,-0.561831 0,-0.310887 0.251508,-0.562395 0.562359,-0.562395 z"
       id="path2-3"
       style="stroke-width:0.0351562;fill-opacity:1;fill:currentColor;"
       class="ColorScheme-Text" />
  </g>
</svg>
