<?xml version="1.0" encoding="UTF-8" standalone="no"?>
<svg
   width="32"
   height="32"
   version="1.1"
   id="svg2"
   sodipodi:docname="image.svg"
   inkscape:version="1.3 (0e150ed6c4, 2023-07-21)"
   xmlns:inkscape="http://www.inkscape.org/namespaces/inkscape"
   xmlns:sodipodi="http://sodipodi.sourceforge.net/DTD/sodipodi-0.dtd"
   xmlns="http://www.w3.org/2000/svg"
   xmlns:svg="http://www.w3.org/2000/svg">
  <style
     id="style1">.ColorScheme-Text { color:#dfdfdf; }&#10;</style>
  <defs
     id="defs2" />
  <sodipodi:namedview
     id="namedview2"
     pagecolor="#ffffff"
     bordercolor="#4d4d4d"
     borderopacity="1"
     inkscape:showpageshadow="2"
     inkscape:pageopacity="0.0"
     inkscape:pagecheckerboard="0"
     inkscape:deskcolor="#d1d1d1"
     inkscape:zoom="11.256496"
     inkscape:cx="25.585227"
     inkscape:cy="19.144501"
     inkscape:window-width="1920"
     inkscape:window-height="994"
     inkscape:window-x="0"
     inkscape:window-y="0"
     inkscape:window-maximized="1"
     inkscape:current-layer="svg2"
     showgrid="false">
    <inkscape:grid
       id="grid1"
       units="px"
       originx="0"
       originy="0"
       spacingx="1"
       spacingy="1"
       empcolor="#0099e5"
       empopacity="0.30196078"
       color="#0099e5"
       opacity="0.14902"
       empspacing="5"
       dotted="false"
       gridanglex="30"
       gridanglez="30"
       visible="false" />
  </sodipodi:namedview>
  <g
     id="g2">
    <path
       style="clip-rule:evenodd;fill:#ffffc1;fill-opacity:0;fill-rule:evenodd;stroke-width:1.00213;stroke-linejoin:round;stroke-miterlimit:1.41421"
       d="M 0,0 V 32 H 32 V 0 Z"
       id="rect817"
       inkscape:connector-curvature="0" />
    <path
       style="fill:currentColor;fill-opacity:1;stroke:none;stroke-width:1.22462;stroke-linecap:round;stroke-miterlimit:4;stroke-dasharray:none;stroke-opacity:1"
       d="m 13.992159,15.303902 c -0.363036,-0.02739 -0.729503,0.08869 -0.990229,0.371543 L 5.6,23.707229 5,24.56511 22.342829,24.565088 14.961634,15.79662 c -0.247751,-0.294353 -0.606469,-0.465265 -0.969475,-0.492718 z"
       id="rect2428"
       inkscape:connector-curvature="0"
       sodipodi:nodetypes="ccccccc"
       class="ColorScheme-Text" />
    <path
       style="fill:currentColor;fill-opacity:0.65;stroke:none;stroke-width:1.22462;stroke-linecap:round;stroke-miterlimit:4;stroke-dasharray:none;stroke-opacity:1"
       d="m 19.711823,16.803911 c -0.363037,-0.02742 -0.729503,0.08859 -0.990229,0.371532 L 11.884146,24.59491 26.3,24.594932 v -0.568339 l -5.618694,-6.729957 c -0.247753,-0.294371 -0.606465,-0.465277 -0.969483,-0.492725 z"
       id="path2433"
       inkscape:connector-curvature="0"
       sodipodi:nodetypes="ccccccc"
       class="ColorScheme-Text" />
    <ellipse
       style="fill:currentColor;fill-opacity:1;stroke:none;stroke-width:1.2829;stroke-linecap:round;stroke-miterlimit:4;stroke-dasharray:none;stroke-opacity:1"
       id="path2451"
       cx="23.81531"
       cy="12.653275"
       rx="0.95327443"
       ry="0.95327455"
       class="ColorScheme-Text" />
    <path
       fill-rule="evenodd"
       clip-rule="evenodd"
       d="m 24.572286,28 h -12.858 C 11.24157,28 10.858,27.615358 10.858,27.142856 c 0,-0.473784 0.38357,-0.85757 0.856286,-0.85757 h 12.858 c 0.946714,0 1.714286,-0.767572 1.714286,-1.714286 V 7.428142 c 0,-0.946712 -0.767572,-1.713856 -1.714286,-1.713856 H 7.429 c -0.9465,0 -1.7145,0.767144 -1.7145,1.713856 V 23.713856 C 5.7145,24.187642 5.331144,24.571 4.857358,24.571 4.38443,24.571 4,24.187644 4,23.713856 V 7.428142 C 4,5.534714 5.535786,4 7.429,4 H 24.572286 C 26.465286,4 28,5.534714 28,7.428142 V 24.571 C 28,26.464428 26.465286,28 24.572286,28 Z M 8.286356,26.285286 c 0.472716,0 0.857144,0.383786 0.857144,0.85757 C 9.1435,27.615356 8.759072,28 8.286356,28 7.812572,28 7.429,27.615358 7.429,27.142856 c 0,-0.473784 0.383572,-0.85757 0.857356,-0.85757 z"
       id="path2-3"
       style="fill:currentColor;fill-opacity:1;stroke-width:0.0535714"
       class="ColorScheme-Text " />
  </g>
  <g
     id="image-x-generic">
    <path
       style="clip-rule:evenodd;fill:#ffffc1;fill-opacity:0;fill-rule:evenodd;stroke-width:0.688964;stroke-linejoin:round;stroke-miterlimit:1.41421"
       d="M 32,10 V 32 H 54 V 10 Z"
       id="rect817-5"
       inkscape:connector-curvature="0" />
    <path
       style="fill:currentColor;fill-opacity:1;stroke:none;stroke-width:0.827084;stroke-linecap:round;stroke-miterlimit:4;stroke-dasharray:none;stroke-opacity:1"
       d="m 41.668152,20.461384 c -0.2452,-0.01853 -0.492712,0.05989 -0.668813,0.250934 L 36,26.137075 l -0.4,0.579423 11.708284,-1.8e-5 -4.985338,-5.922312 c -0.167334,-0.198805 -0.409614,-0.314252 -0.654794,-0.332784 z"
       id="rect2428-3"
       inkscape:connector-curvature="0"
       sodipodi:nodetypes="ccccccc"
       class="ColorScheme-Text" />
    <path
       style="fill:currentColor;fill-opacity:0.65;stroke:none;stroke-width:0.827084;stroke-linecap:round;stroke-miterlimit:4;stroke-dasharray:none;stroke-opacity:1"
       d="m 45.531275,21.454361 c -0.245198,-0.01857 -0.492714,0.05985 -0.668808,0.250934 l -4.618089,5.011185 9.736622,1.8e-5 v -0.383857 l -3.794933,-4.545502 c -0.167341,-0.19881 -0.409612,-0.314245 -0.654792,-0.332778 z"
       id="path2433-6"
       inkscape:connector-curvature="0"
       sodipodi:nodetypes="ccccccc"
       class="ColorScheme-Text" />
    <ellipse
       style="fill:currentColor;fill-opacity:1;stroke:none;stroke-width:0.866433;stroke-linecap:round;stroke-miterlimit:4;stroke-dasharray:none;stroke-opacity:1"
       id="path2451-7"
       cx="48.30283"
       cy="18.743851"
       rx="0.64385176"
       ry="0.64385182"
       class="ColorScheme-Text" />
    <path
       fill-rule="evenodd"
       clip-rule="evenodd"
       d="m 48.714425,28.999998 h -8.571994 c -0.315142,0 -0.570857,-0.256425 -0.570857,-0.571439 0,-0.315841 0.255715,-0.571698 0.570857,-0.571698 h 8.571994 c 0.63115,0 1.142864,-0.511713 1.142864,-1.142862 V 15.285422 c 0,-0.631135 -0.511714,-1.142571 -1.142864,-1.142571 h -11.42885 c -0.631,0 -1.143,0.511436 -1.143,1.142571 v 10.857153 c 0,0.315855 -0.255573,0.571424 -0.57143,0.571424 -0.315286,0 -0.57157,-0.255567 -0.57157,-0.571424 V 15.285422 C 34.999575,14.023137 36.023431,13 37.285575,13 h 11.42885 c 1.262012,0 2.28515,1.023137 2.28515,2.285422 v 11.428577 c 0,1.26228 -1.023137,2.286 -2.28515,2.285999 z M 37.857146,27.856861 c 0.315141,0 0.571427,0.255857 0.571427,0.571699 0,0.315011 -0.256286,0.571439 -0.571427,0.571439 -0.315858,0 -0.571573,-0.256425 -0.571573,-0.571439 0,-0.315841 0.255715,-0.571699 0.571573,-0.571699 z"
       id="path2-3-6"
       style="fill:currentColor;fill-opacity:1;stroke-width:0.0357148"
       class="ColorScheme-Text " />
  </g>
</svg>
