<?xml version="1.0" encoding="UTF-8" standalone="no"?>
<svg
   width="32"
   height="32"
   id="svg3869"
   version="1.1"
   viewBox="0 0 32 32.000001"
   sodipodi:docname="input.svg"
   inkscape:version="1.1.2 (0a00cf5339, 2022-02-04)"
   xmlns:inkscape="http://www.inkscape.org/namespaces/inkscape"
   xmlns:sodipodi="http://sodipodi.sourceforge.net/DTD/sodipodi-0.dtd"
   xmlns="http://www.w3.org/2000/svg"
   xmlns:svg="http://www.w3.org/2000/svg"
   xmlns:rdf="http://www.w3.org/1999/02/22-rdf-syntax-ns#"
   xmlns:cc="http://creativecommons.org/ns#"
   xmlns:dc="http://purl.org/dc/elements/1.1/">
  <style
     id="current-color-scheme"
     type="text/css">.ColorScheme-Highlight { color:#25badc; }
.ColorScheme-Text { color:#eceff4; }
</style>
  <sodipodi:namedview
     pagecolor="#ffffff"
     bordercolor="#000000"
     borderopacity="1"
     objecttolerance="10"
     gridtolerance="10"
     guidetolerance="10"
     inkscape:pageopacity="0"
     inkscape:pageshadow="2"
     inkscape:window-width="1920"
     inkscape:window-height="1013"
     id="namedview49"
     showgrid="false"
     inkscape:zoom="6.5619512"
     inkscape:cx="19.049212"
     inkscape:cy="70.1011"
     inkscape:window-x="0"
     inkscape:window-y="0"
     inkscape:window-maximized="1"
     inkscape:current-layer="svg3869"
     inkscape:document-rotation="0"
     inkscape:lockguides="false"
     inkscape:showpageshadow="false"
     inkscape:pagecheckerboard="0"
     showguides="false">
    <inkscape:grid
       type="xygrid"
       id="grid874"
       originx="-38"
       originy="-160.00015" />
  </sodipodi:namedview>
  <metadata
     id="metadata25">
    <rdf:RDF>
      <cc:Work
         rdf:about="">
        <dc:format>image/svg+xml</dc:format>
        <dc:type
           rdf:resource="http://purl.org/dc/dcmitype/StillImage" />
      </cc:Work>
    </rdf:RDF>
  </metadata>
  <defs
     id="defs3871">
    <style
       type="text/css"
       id="style6" />
    <linearGradient
       id="a"
       gradientUnits="userSpaceOnUse"
       x1="41"
       x2="23"
       y1="58"
       y2="6"
       gradientTransform="matrix(0.46153841,0,0,0.46153841,104.17525,-40.961285)">
      <stop
         offset="0"
         stop-color="#848f9a"
         id="stop2" />
      <stop
         offset=".33333299"
         stop-color="#bdc2c7"
         id="stop4" />
      <stop
         offset="1"
         stop-color="#f6f6f6"
         id="stop6" />
    </linearGradient>
    <linearGradient
       id="d"
       gradientUnits="userSpaceOnUse"
       x1="32"
       x2="32"
       y1="6"
       y2="28"
       gradientTransform="matrix(0.46153841,0,0,0.46153841,104.17525,-40.961285)">
      <stop
         offset="0"
         stop-color="#68737e"
         id="stop21" />
      <stop
         offset="1"
         stop-color="#7a8692"
         id="stop23" />
    </linearGradient>
    <linearGradient
       id="c"
       gradientTransform="matrix(-0.46153841,0,0,0.46153841,92.636793,-40.961285)"
       gradientUnits="userSpaceOnUse"
       x1="-60"
       x2="-54"
       y1="22"
       y2="12">
      <stop
         offset="0"
         stop-color="#8e98a2"
         id="stop16" />
      <stop
         offset="1"
         stop-color="#6c7884"
         id="stop18" />
    </linearGradient>
    <linearGradient
       id="e"
       gradientTransform="matrix(-0.46153846,0,0,0.46153846,92.636792,-40.96129)"
       gradientUnits="userSpaceOnUse"
       x1="-55"
       x2="-55"
       y1="22"
       y2="12">
      <stop
         offset="0"
         stop-color="#232629"
         id="stop26" />
      <stop
         offset=".333"
         stop-color="#373d43"
         id="stop28" />
      <stop
         offset=".667"
         stop-color="#565f68"
         id="stop30" />
      <stop
         offset="1"
         stop-color="#474e55"
         id="stop32" />
    </linearGradient>
    <linearGradient
       id="b"
       gradientTransform="matrix(-0.46153846,0,0,0.46153846,92.636792,-40.96129)"
       gradientUnits="userSpaceOnUse"
       x1="-55"
       x2="-55"
       y1="12"
       y2="22">
      <stop
         offset="0"
         stop-color="#54b5e8"
         id="stop9" />
      <stop
         offset=".333"
         stop-color="#8fd9ff"
         id="stop11" />
      <stop
         offset="1"
         stop-color="#369acf"
         id="stop13" />
    </linearGradient>
    <linearGradient
       id="f"
       gradientUnits="userSpaceOnUse"
       x1="21.005859"
       x2="21"
       y1="21.005859"
       y2="58"
       gradientTransform="matrix(0.46153846,0,0,0.46153846,104.17525,-40.96129)">
      <stop
         offset="0"
         stop-color="#565f68"
         id="stop35" />
      <stop
         offset=".5945304"
         stop-color="#68737e"
         id="stop37" />
      <stop
         offset="1"
         stop-color="#424950"
         id="stop39" />
    </linearGradient>
    <linearGradient
       id="a-3"
       gradientUnits="userSpaceOnUse"
       x1="41"
       x2="23"
       y1="58"
       y2="6"
       gradientTransform="matrix(0.30769228,0,0,0.30769228,3.077215,1.153843)">
      <stop
         offset="0"
         stop-color="#848f9a"
         id="stop2-6" />
      <stop
         offset=".33333299"
         stop-color="#bdc2c7"
         id="stop4-7" />
      <stop
         offset="1"
         stop-color="#f6f6f6"
         id="stop6-5" />
    </linearGradient>
    <linearGradient
       id="d-3"
       gradientUnits="userSpaceOnUse"
       x1="32"
       x2="32"
       y1="6"
       y2="28"
       gradientTransform="matrix(0.30769228,0,0,0.30769228,3.077215,1.153843)">
      <stop
         offset="0"
         stop-color="#68737e"
         id="stop21-5" />
      <stop
         offset="1"
         stop-color="#7a8692"
         id="stop23-6" />
    </linearGradient>
    <linearGradient
       id="c-2"
       gradientTransform="matrix(-0.30769228,0,0,0.30769228,-4.615092,1.153843)"
       gradientUnits="userSpaceOnUse"
       x1="-60"
       x2="-54"
       y1="22"
       y2="12">
      <stop
         offset="0"
         stop-color="#8e98a2"
         id="stop16-9" />
      <stop
         offset="1"
         stop-color="#6c7884"
         id="stop18-1" />
    </linearGradient>
    <linearGradient
       id="e-2"
       gradientTransform="matrix(-0.30769232,0,0,0.30769232,-4.615093,1.15384)"
       gradientUnits="userSpaceOnUse"
       x1="-55"
       x2="-55"
       y1="22"
       y2="12">
      <stop
         offset="0"
         stop-color="#232629"
         id="stop26-7" />
      <stop
         offset=".333"
         stop-color="#373d43"
         id="stop28-0" />
      <stop
         offset=".667"
         stop-color="#565f68"
         id="stop30-9" />
      <stop
         offset="1"
         stop-color="#474e55"
         id="stop32-3" />
    </linearGradient>
    <linearGradient
       id="b-6"
       gradientTransform="matrix(-0.30769232,0,0,0.30769232,-4.615093,1.15384)"
       gradientUnits="userSpaceOnUse"
       x1="-55"
       x2="-55"
       y1="12"
       y2="22">
      <stop
         offset="0"
         stop-color="#54b5e8"
         id="stop9-0" />
      <stop
         offset=".333"
         stop-color="#8fd9ff"
         id="stop11-6" />
      <stop
         offset="1"
         stop-color="#369acf"
         id="stop13-2" />
    </linearGradient>
    <linearGradient
       id="f-6"
       gradientUnits="userSpaceOnUse"
       x1="21.005859"
       x2="21"
       y1="21.005859"
       y2="58"
       gradientTransform="matrix(0.30769232,0,0,0.30769232,3.077215,1.15384)">
      <stop
         offset="0"
         stop-color="#565f68"
         id="stop35-1" />
      <stop
         offset=".5945304"
         stop-color="#68737e"
         id="stop37-8" />
      <stop
         offset="1"
         stop-color="#424950"
         id="stop39-7" />
    </linearGradient>
  </defs>
  <g
     id="16-16-input-mouse-battery"
     transform="translate(-341,-457.36219)">
    <path
       id="path4196"
       transform="translate(319,457.36217)"
       d="m -8,82 a 4,4 0 0 0 -4,4 v 4 a 4,4 0 0 0 4,4 4,4 0 0 0 4,-4 v -4 a 4,4 0 0 0 -4,-4 z m 0,1 a 3,3 0 0 1 3,3 v 4 a 3,3 0 0 1 -3,3 3,3 0 0 1 -3,-3 v -4 a 3,3 0 0 1 3,-3 z m 0,1 -2,5 h 2 v 3 l 2,-5 h -2 z"
       style="stroke:none;fill-opacity:1;fill:currentColor;"
       inkscape:connector-curvature="0"
       class="ColorScheme-Text" />
    <rect
       style="opacity:1;fill:none"
       id="rect4442"
       width="16"
       height="16"
       x="303"
       y="537.36218" />
  </g>
  <g
     id="input-mouse-battery"
     transform="translate(0,-160)">
    <rect
       style="fill:none"
       id="rect4378-6"
       width="32"
       height="32"
       x="0"
       y="223.99998"
       ry="0" />
    <path
       d="m 16.8,237.74999 v 3 c 0,0.41419 -0.33581,0.75 -0.75,0.75 -0.41419,0 -0.75,-0.33581 -0.75,-0.75 v -3 c 0,-0.41419 0.33581,-0.75 0.75,-0.75 0.41419,0 0.75,0.33581 0.75,0.75 z m -0.75,14.25 c -3.727828,0 -6.75,-3.02199 -6.75,-6.75 v -4.5 -2.25 c 0,-2.27855 1.695,-4.1565 3.891891,-4.4542 0.01078,-0.007 0.02545,-0.0106 0.04561,-0.0106 0.02452,0 0.04781,-0.004 0.07158,-0.007 0.0154,-0.001 0.0304,-0.004 0.0458,-0.006 C 13.60922,233.96853 13.8,233.74292 13.8,233.47264 v -0.22266 c 0,-1.65675 1.67119,-2.25 3,-2.25 h 1.5 c 0.82837,0 1.5,-0.67163 1.5,-1.5 v -0.75 c 0,-0.41419 0.33581,-0.75 0.75,-0.75 0.41419,0 0.75,0.33581 0.75,0.75 v 0.75 c 0,0.35925 -0.0665,0.70205 -0.1822,1.02136 -0.003,0.01 -0.005,0.0194 -0.0101,0.0275 -0.30361,0.81187 -0.94702,1.45533 -1.75875,1.75889 -0.008,0.005 -0.0181,0.007 -0.0277,0.01 -0.31906,0.11611 -0.662,0.18239 -1.02125,0.18239 h -1.5 c -0.82837,0 -1.5,0.67163 -1.5,1.5 0,0.82838 -0.67163,1.5 -1.5,1.5 -1.656937,0 -3,1.34325 -3,3 v 2.25 4.5 c 0,2.89964 2.350547,5.25 5.25,5.25 2.89945,0 5.25,-2.35036 5.25,-5.25 v -4.5 -2.25 c 0,-1.65675 -1.34306,-3 -3,-3 h -0.75 c -0.41419,0 -0.75,-0.33581 -0.75,-0.75 0,-0.41419 0.33581,-0.75 0.75,-0.75 h 0.75 c 2.48531,0 4.5,2.01488 4.5,4.5 v 2.25 4.5 c 0,3.72802 -3.02217,6.75 -6.75,6.75 z"
       id="path2-36"
       style="stroke-width:0.046875;fill-opacity:1;fill:currentColor;"
       class="ColorScheme-Text" />
  </g>
  <g
     id="input-keyboard"
     transform="translate(-22,-86)">
    <rect
       style="fill:none;fill-rule:evenodd;stroke:none;stroke-width:1.45455px;stroke-linecap:butt;stroke-linejoin:miter;stroke-opacity:1"
       id="rect4196"
       width="32"
       height="32"
       x="22"
       y="-74.000008" />
    <path
       d="m 38.75,-55.000009 c 0.414188,0 0.75,0.335813 0.75,0.75 0,0.414187 -0.335812,0.75 -0.75,0.75 -0.414188,0 -0.75,-0.335813 -0.75,-0.75 0,-0.414187 0.335812,-0.75 0.75,-0.75 z m 1.5,-1.5 c -0.414188,0 -0.75,-0.335813 -0.75,-0.75 0,-0.414187 0.335812,-0.75 0.75,-0.75 0.414188,0 0.75,0.335813 0.75,0.75 0,0.414187 -0.335812,0.75 -0.75,0.75 z m 1.5,3 c -0.414188,0 -0.75,-0.335813 -0.75,-0.75 0,-0.414187 0.335812,-0.75 0.75,-0.75 0.414187,0 0.75,0.335813 0.75,0.75 0,0.414187 -0.335813,0.75 -0.75,0.75 z m 1.5,-4.5 c 0.414187,0 0.75,0.335813 0.75,0.75 0,0.414187 -0.335813,0.75 -0.75,0.75 -0.414188,0 -0.75,-0.335813 -0.75,-0.75 0,-0.414187 0.335812,-0.75 0.75,-0.75 z m 0,7.5 c -0.414188,0 -0.75,-0.335813 -0.75,-0.75 0,-0.414187 0.335812,-0.75 0.75,-0.75 0.414187,0 0.75,0.335813 0.75,0.75 0,0.414187 -0.335813,0.75 -0.75,0.75 z m 3,-6 c -0.414188,0 -0.75,-0.335813 -0.75,-0.75 0,-0.414187 0.335812,-0.75 0.75,-0.75 0.414187,0 0.75,0.335813 0.75,0.75 0,0.414187 -0.335813,0.75 -0.75,0.75 z m 0.75,5.25 c 0,0.414187 -0.335813,0.75 -0.75,0.75 -0.414188,0 -0.75,-0.335813 -0.75,-0.75 0,-0.414187 0.335812,-0.75 0.75,-0.75 0.414187,0 0.75,0.335813 0.75,0.75 z m -3,-3 c 0,-0.414187 0.335812,-0.75 0.75,-0.75 h 1.5 c 0.414187,0 0.75,0.335813 0.75,0.75 0,0.414187 -0.335813,0.75 -0.75,0.75 h -1.5 c -0.414188,0 -0.75,-0.335813 -0.75,-0.75 z m -9.75,-3.75 c 0.414188,0 0.75,0.335813 0.75,0.75 0,0.414187 -0.335812,0.75 -0.75,0.75 -0.414188,0 -0.75,-0.335813 -0.75,-0.75 0,-0.414187 0.335812,-0.75 0.75,-0.75 z m -2.25,6.75 c 0,0.414187 -0.335812,0.75 -0.75,0.75 -0.414188,0 -0.75,-0.335813 -0.75,-0.75 0,-0.414187 0.335812,-0.75 0.75,-0.75 0.414188,0 0.75,0.335813 0.75,0.75 z m -2.25,-5.25 c -0.414187,0 -0.75,-0.335813 -0.75,-0.75 0,-0.414187 0.335813,-0.75 0.75,-0.75 h 1.5 c 0.414188,0 0.75,0.335813 0.75,0.75 0,0.414187 -0.335812,0.75 -0.75,0.75 z m 3.75,2.25 c 0,0.414187 -0.335812,0.75 -0.75,0.75 h -3 c -0.414187,0 -0.75,-0.335813 -0.75,-0.75 0,-0.414187 0.335813,-0.75 0.75,-0.75 h 3 c 0.414188,0 0.75,0.335813 0.75,0.75 z m 7.5,3 c 0,0.414187 -0.335812,0.75 -0.75,0.75 h -6 c -0.414188,0 -0.75,-0.335813 -0.75,-0.75 0,-0.414187 0.335812,-0.75 0.75,-0.75 h 6 c 0.414188,0 0.75,0.335813 0.75,0.75 z m -5.25,-2.25 c -0.414188,0 -0.75,-0.335813 -0.75,-0.75 0,-0.414187 0.335812,-0.75 0.75,-0.75 0.414188,0 0.75,0.335813 0.75,0.75 0,0.414187 -0.335812,0.75 -0.75,0.75 z m 1.5,-4.5 c 0.414188,0 0.75,0.335813 0.75,0.75 0,0.414187 -0.335812,0.75 -0.75,0.75 -0.414188,0 -0.75,-0.335813 -0.75,-0.75 0,-0.414187 0.335812,-0.75 0.75,-0.75 z m 9.75,10.5 H 29 c -1.65675,0 -3,-1.34325 -3,-3 v -7.5 c 0,-1.65675 1.34325,-3 3,-3 h 6.9375 c 0.310547,0 0.5625,-0.251953 0.5625,-0.5625 v -0.9375 c 0,-0.35925 0.06628,-0.702188 0.182391,-1.021359 0.0029,-0.0095 0.0051,-0.01941 0.0099,-0.02766 0.30361,-0.811687 0.947016,-1.45514 1.758891,-1.75875 0.0081,-0.0049 0.01795,-0.0069 0.02747,-0.01008 C 38.797953,-65.433541 39.14075,-65.50001 39.5,-65.50001 H 41 c 0.828375,0 1.5,-0.671625 1.5,-1.5 v -0.75 c 0,-0.414187 0.335812,-0.75 0.75,-0.75 0.414187,0 0.75,0.335813 0.75,0.75 v 0.75 c 0,0.35925 -0.06628,0.702187 -0.182391,1.021359 -0.0029,0.0095 -0.0051,0.01941 -0.0099,0.02766 -0.30361,0.811687 -0.947016,1.45514 -1.758891,1.75875 -0.0081,0.0049 -0.01795,0.0069 -0.02747,0.01008 C 41.702047,-64.066479 41.35925,-64.00001 41,-64.00001 h -1.5 c -0.828375,0 -1.5,0.671625 -1.5,1.5 v 1.125 c 0,1.035656 -0.839344,1.875 -1.875,1.875 H 29 c -0.828375,0 -1.5,0.671625 -1.5,1.5 v 7.5 c 0,0.828375 0.671625,1.5 1.5,1.5 h 18 c 0.828375,0 1.5,-0.671625 1.5,-1.5 v -7.5 c 0,-0.828375 -0.671625,-1.5 -1.5,-1.5 h -6.75 c -0.414188,0 -0.75,-0.335813 -0.75,-0.75 0,-0.414187 0.335812,-0.75 0.75,-0.75 H 47 c 1.65675,0 3,1.34325 3,3 v 7.5 c 0,1.65675 -1.34325,3 -3,3.000001 z"
       id="path2-36-7"
       style="stroke-width:0.046875;fill-opacity:1;fill:currentColor;"
       class="ColorScheme-Text" />
  </g>
  <g
     id="22-22-input-mouse-battery"
     transform="translate(-22,73.999986)">
    <rect
       style="fill:none"
       width="22"
       height="22"
       x="0"
       y="1.661377e-07"
       ry="0"
       id="rect8" />
    <path
       style="fill:#d35f5f;fill-opacity:1;stroke:none"
       d="m 5,3.000017 -2,5 h 2 v 3 l 2,-5 H 5 Z"
       id="path12"
       inkscape:connector-curvature="0" />
    <path
       d="m 14.999971,9.4999758 v 1.9999882 c 0,0.276125 -0.223872,0.499997 -0.499997,0.499997 -0.276125,0 -0.499997,-0.223872 -0.499997,-0.499997 V 9.4999758 c 0,-0.2761251 0.223872,-0.4999971 0.499997,-0.4999971 0.276125,0 0.499997,0.223872 0.499997,0.4999971 z M 14.499974,18.99992 C 12.01477,18.99992 10,16.985272 10,14.499947 V 11.499964 9.999973 c 0,-1.5190246 1.129993,-2.770984 2.594579,-2.9694495 0.0072,-0.00467 0.01697,-0.00707 0.03041,-0.00707 0.01635,0 0.03187,-0.00267 0.04772,-0.00467 0.01027,-6.666e-4 0.02027,-0.00267 0.03053,-0.004 0.169558,-0.035773 0.296744,-0.1861789 0.296744,-0.3663645 V 6.4999799 c 0,-1.1044936 1.11412,-1.4999913 1.999989,-1.4999913 h 0.999994 c 0.552243,0 0.999994,-0.4477507 0.999994,-0.9999946 V 3.499997 C 16.99996,3.223872 17.223832,3 17.499957,3 c 0.276125,0 0.499997,0.223872 0.499997,0.499997 v 0.499997 c 0,0.2394991 -0.04433,0.4680311 -0.121466,0.6809032 -0.002,0.00667 -0.0033,0.012933 -0.0067,0.018333 -0.202405,0.5412435 -0.631343,0.9702143 -1.172493,1.1725865 -0.0053,0.00333 -0.01207,0.00467 -0.01847,0.00667 -0.212706,0.077406 -0.441331,0.1215926 -0.680829,0.1215926 h -0.999995 c -0.552243,0 -0.999994,0.4477508 -0.999994,0.9999942 0,0.5522501 -0.44775,0.9999942 -0.999994,0.9999942 -1.104618,0 -1.999988,0.8954947 -1.999988,1.9999883 v 1.499991 2.999982 c 0,1.933082 1.567022,3.49998 3.499979,3.49998 1.932956,0 3.49998,-1.566898 3.49998,-3.49998 V 11.500051 10.00006 c 0,-1.1044941 -0.895368,-1.9999888 -1.999988,-1.9999888 h -0.499998 c -0.276125,0 -0.499997,-0.2238721 -0.499997,-0.4999971 0,-0.2761251 0.223873,-0.4999971 0.499997,-0.4999971 h 0.499998 c 1.656863,0 2.999982,1.3432455 2.999982,2.999983 v 1.49999 2.999983 c 0,2.485332 -2.014768,4.499974 -4.499974,4.499974 z"
       id="path2-36-3"
       style="stroke-width:0.0312498;fill-opacity:1;fill:currentColor;"
       class="ColorScheme-Text" />
  </g>
  <g
     id="input-keyboard-virtual-on"
     transform="translate(-22,-86)">
    <rect
       style="fill:none;fill-rule:evenodd;stroke:none;stroke-width:1.45455px;stroke-linecap:butt;stroke-linejoin:miter;stroke-opacity:1"
       id="rect4192"
       width="32"
       height="32"
       x="22"
       y="-42" />
    <path
       id="path8-9"
       d="m 29.5,-36.500002 a 2.4999996,2.4999855 0 0 0 -2.5,2.499999 2.4999996,2.4999855 0 0 0 2.5,2.500001 2.4999996,2.4999855 0 0 0 2.5,-2.500001 2.4999996,2.4999855 0 0 0 -2.5,-2.499999 z"
       style="stroke-width:1.45455;stroke:none;fill-opacity:1;fill:currentColor;"
       inkscape:connector-curvature="0"
       class="ColorScheme-Highlight" />
    <path
       d="m 38.75,-23.000001 c 0.414188,0 0.75,0.335813 0.75,0.75 0,0.414187 -0.335812,0.75 -0.75,0.75 -0.414188,0 -0.75,-0.335813 -0.75,-0.75 0,-0.414187 0.335812,-0.75 0.75,-0.75 z m 1.5,-1.5 c -0.414188,0 -0.75,-0.335813 -0.75,-0.75 0,-0.414187 0.335812,-0.75 0.75,-0.75 0.414188,0 0.75,0.335813 0.75,0.75 0,0.414187 -0.335812,0.75 -0.75,0.75 z m 1.5,3 c -0.414188,0 -0.75,-0.335813 -0.75,-0.75 0,-0.414187 0.335812,-0.75 0.75,-0.75 0.414187,0 0.75,0.335813 0.75,0.75 0,0.414187 -0.335813,0.75 -0.75,0.75 z m 1.5,-4.5 c 0.414187,0 0.75,0.335813 0.75,0.75 0,0.414187 -0.335813,0.75 -0.75,0.75 -0.414188,0 -0.75,-0.335813 -0.75,-0.75 0,-0.414187 0.335812,-0.75 0.75,-0.75 z m 0,7.5 c -0.414188,0 -0.75,-0.335813 -0.75,-0.75 0,-0.414187 0.335812,-0.75 0.75,-0.75 0.414187,0 0.75,0.335813 0.75,0.75 0,0.414187 -0.335813,0.75 -0.75,0.75 z m 3,-6 c -0.414188,0 -0.75,-0.335813 -0.75,-0.75 0,-0.414187 0.335812,-0.75 0.75,-0.75 0.414187,0 0.75,0.335813 0.75,0.75 0,0.414187 -0.335813,0.75 -0.75,0.75 z m 0.75,5.25 c 0,0.414187 -0.335813,0.75 -0.75,0.75 -0.414188,0 -0.75,-0.335813 -0.75,-0.75 0,-0.414187 0.335812,-0.75 0.75,-0.75 0.414187,0 0.75,0.335813 0.75,0.75 z m -3,-3 c 0,-0.414187 0.335812,-0.75 0.75,-0.75 h 1.5 c 0.414187,0 0.75,0.335813 0.75,0.75 0,0.414187 -0.335813,0.75 -0.75,0.75 h -1.5 c -0.414188,0 -0.75,-0.335813 -0.75,-0.75 z m -9.75,-3.75 c 0.414188,0 0.75,0.335813 0.75,0.75 0,0.414187 -0.335812,0.75 -0.75,0.75 -0.414188,0 -0.75,-0.335813 -0.75,-0.75 0,-0.414187 0.335812,-0.75 0.75,-0.75 z m -2.25,6.75 c 0,0.414187 -0.335812,0.75 -0.75,0.75 -0.414188,0 -0.75,-0.335813 -0.75,-0.75 0,-0.414187 0.335812,-0.75 0.75,-0.75 0.414188,0 0.75,0.335813 0.75,0.75 z m -2.25,-5.25 c -0.414187,0 -0.75,-0.335813 -0.75,-0.75 0,-0.414187 0.335813,-0.75 0.75,-0.75 h 1.5 c 0.414188,0 0.75,0.335813 0.75,0.75 0,0.414187 -0.335812,0.75 -0.75,0.75 z m 3.75,2.25 c 0,0.414187 -0.335812,0.75 -0.75,0.75 h -3 c -0.414187,0 -0.75,-0.335813 -0.75,-0.75 0,-0.414187 0.335813,-0.75 0.75,-0.75 h 3 c 0.414188,0 0.75,0.335813 0.75,0.75 z m 7.5,3 c 0,0.414187 -0.335812,0.75 -0.75,0.75 h -6 c -0.414188,0 -0.75,-0.335813 -0.75,-0.75 0,-0.414187 0.335812,-0.75 0.75,-0.75 h 6 c 0.414188,0 0.75,0.335813 0.75,0.75 z m -5.25,-2.25 c -0.414188,0 -0.75,-0.335813 -0.75,-0.75 0,-0.414187 0.335812,-0.75 0.75,-0.75 0.414188,0 0.75,0.335813 0.75,0.75 0,0.414187 -0.335812,0.75 -0.75,0.75 z m 1.5,-4.5 c 0.414188,0 0.75,0.335813 0.75,0.75 0,0.414187 -0.335812,0.75 -0.75,0.75 -0.414188,0 -0.75,-0.335813 -0.75,-0.75 0,-0.414187 0.335812,-0.75 0.75,-0.75 z m 9.75,10.5 H 29 c -1.65675,0 -3,-1.34325 -3,-3 v -7.5 c 0,-1.65675 1.34325,-3 3,-3 h 6.9375 c 0.310547,0 0.5625,-0.251953 0.5625,-0.5625 v -0.9375 c 0,-0.35925 0.06628,-0.702188 0.182391,-1.021359 0.0029,-0.0095 0.0051,-0.01941 0.0099,-0.02766 0.30361,-0.811687 0.947016,-1.45514 1.758891,-1.75875 0.0081,-0.0049 0.01795,-0.0069 0.02747,-0.01008 0.319301,-0.115683 0.662098,-0.182152 1.021348,-0.182152 H 41 c 0.828375,0 1.5,-0.671625 1.5,-1.5 v -0.75 c 0,-0.414187 0.335812,-0.75 0.75,-0.75 0.414187,0 0.75,0.335813 0.75,0.75 v 0.75 c 0,0.35925 -0.06628,0.702187 -0.182391,1.021359 -0.0029,0.0095 -0.0051,0.01941 -0.0099,0.02766 -0.30361,0.811687 -0.947016,1.45514 -1.758891,1.75875 -0.0081,0.0049 -0.01795,0.0069 -0.02747,0.01008 -0.319301,0.115682 -0.662098,0.182151 -1.021348,0.182151 h -1.5 c -0.828375,0 -1.5,0.671625 -1.5,1.5 v 1.125 c 0,1.035656 -0.839344,1.875 -1.875,1.875 H 29 c -0.828375,0 -1.5,0.671625 -1.5,1.5 v 7.5 c 0,0.828375 0.671625,1.5 1.5,1.5 h 18 c 0.828375,0 1.5,-0.671625 1.5,-1.5 v -7.5 c 0,-0.828375 -0.671625,-1.5 -1.5,-1.5 h -6.75 c -0.414188,0 -0.75,-0.335813 -0.75,-0.75 0,-0.414187 0.335812,-0.75 0.75,-0.75 H 47 c 1.65675,0 3,1.34325 3,3 v 7.5 c 0,1.65675 -1.34325,3 -3,3.000001 z"
       id="path2-36-7-6"
       style="stroke-width:0.046875;fill-opacity:1;fill:currentColor;"
       class="ColorScheme-Text" />
  </g>
  <g
     id="22-22-input-keyboard-virtual-on"
     transform="translate(-22,-86)">
    <rect
       y="-32"
       x="0"
       height="22"
       width="22"
       id="rect4140"
       style="fill:none;fill-opacity:1;stroke:none;stroke-linejoin:bevel" />
    <path
       id="path8-9-7"
       d="M 4.625,-29 A 1.8749996,1.9047499 0 0 0 2.75,-27.09524 1.8749996,1.9047499 0 0 0 4.625,-25.190478 1.8749996,1.9047499 0 0 0 6.5,-27.09524 1.8749996,1.9047499 0 0 0 4.625,-29 Z"
       style="stroke-width:1.09954;stroke:none;fill-opacity:1;fill:currentColor;"
       inkscape:connector-curvature="0"
       class="ColorScheme-Highlight" />
    <path
       d="m 11.562501,-18.714291 c 0.310639,0 0.562499,0.255857 0.562499,0.571429 0,0.315571 -0.25186,0.571428 -0.562499,0.571428 -0.310642,0 -0.562502,-0.255857 -0.562502,-0.571428 0,-0.315572 0.25186,-0.571429 0.562502,-0.571429 z m 1.124999,-1.142856 c -0.310641,0 -0.5625,-0.255856 -0.5625,-0.571429 0,-0.31557 0.251859,-0.571427 0.5625,-0.571427 0.310641,0 0.5625,0.255857 0.5625,0.571427 0,0.315573 -0.251859,0.571429 -0.5625,0.571429 z m 1.125,2.285713 c -0.310641,0 -0.5625,-0.255857 -0.5625,-0.571428 0,-0.315572 0.251859,-0.571429 0.5625,-0.571429 0.31064,0 0.5625,0.255857 0.5625,0.571429 0,0.315571 -0.25186,0.571428 -0.5625,0.571428 z m 1.125,-3.428569 c 0.310639,0 0.562499,0.255857 0.562499,0.571427 0,0.315573 -0.25186,0.571429 -0.562499,0.571429 -0.310641,0 -0.5625,-0.255856 -0.5625,-0.571429 0,-0.31557 0.251859,-0.571427 0.5625,-0.571427 z m 0,5.714282 c -0.310641,0 -0.5625,-0.255858 -0.5625,-0.571428 0,-0.31557 0.251859,-0.571428 0.5625,-0.571428 0.310639,0 0.562499,0.255858 0.562499,0.571428 0,0.31557 -0.25186,0.571428 -0.562499,0.571428 z m 2.250001,-4.571426 c -0.310642,0 -0.562502,-0.255856 -0.562502,-0.571429 0,-0.31557 0.25186,-0.571427 0.562502,-0.571427 0.310638,0 0.562499,0.255857 0.562499,0.571427 0,0.315573 -0.251861,0.571429 -0.562499,0.571429 z M 17.75,-15.857149 c 0,0.31557 -0.251861,0.571428 -0.562499,0.571428 -0.310642,0 -0.562502,-0.255858 -0.562502,-0.571428 0,-0.31557 0.25186,-0.571428 0.562502,-0.571428 0.310638,0 0.562499,0.255858 0.562499,0.571428 z m -2.250001,-2.285713 c 0,-0.315572 0.251861,-0.571429 0.562501,-0.571429 h 1.125001 c 0.310638,0 0.562499,0.255857 0.562499,0.571429 0,0.315571 -0.251861,0.571428 -0.562499,0.571428 H 16.0625 c -0.31064,0 -0.562501,-0.255857 -0.562501,-0.571428 z M 8.1875,-21.000003 c 0.310641,0 0.5625,0.255857 0.5625,0.571427 0,0.315573 -0.251859,0.571429 -0.5625,0.571429 -0.310641,0 -0.5625,-0.255856 -0.5625,-0.571429 0,-0.31557 0.251859,-0.571427 0.5625,-0.571427 z M 6.5,-15.857149 c 0,0.31557 -0.251859,0.571428 -0.5625,0.571428 -0.310641,0 -0.5625,-0.255858 -0.5625,-0.571428 0,-0.31557 0.251859,-0.571428 0.5625,-0.571428 0.310641,0 0.5625,0.255858 0.5625,0.571428 z m -1.6875,-3.999998 c -0.31064,0 -0.5625,-0.255856 -0.5625,-0.571429 0,-0.31557 0.25186,-0.571427 0.5625,-0.571427 h 1.125 c 0.310641,0 0.5625,0.255857 0.5625,0.571427 0,0.315573 -0.251859,0.571429 -0.5625,0.571429 z m 2.8125,1.714285 c 0,0.315571 -0.251859,0.571428 -0.5625,0.571428 h -2.25 c -0.31064,0 -0.5625,-0.255857 -0.5625,-0.571428 0,-0.315572 0.25186,-0.571429 0.5625,-0.571429 h 2.25 c 0.310641,0 0.5625,0.255857 0.5625,0.571429 z m 5.625,2.285713 c 0,0.31557 -0.251859,0.571428 -0.5625,0.571428 h -4.5 c -0.310641,0 -0.5625,-0.255858 -0.5625,-0.571428 0,-0.31557 0.251859,-0.571428 0.5625,-0.571428 h 4.5 c 0.310641,0 0.5625,0.255858 0.5625,0.571428 z m -3.9375,-1.714285 c -0.310641,0 -0.5625,-0.255857 -0.5625,-0.571428 0,-0.315572 0.251859,-0.571429 0.5625,-0.571429 0.310641,0 0.5625,0.255857 0.5625,0.571429 0,0.315571 -0.251859,0.571428 -0.5625,0.571428 z m 1.125,-3.428569 c 0.31064,0 0.562499,0.255857 0.562499,0.571427 0,0.315573 -0.251859,0.571429 -0.562499,0.571429 -0.31064,0 -0.5625,-0.255856 -0.5625,-0.571429 0,-0.31557 0.25186,-0.571427 0.5625,-0.571427 z m 7.3125,7.999995 H 4.25 c -1.242563,0 -2.25,-1.023426 -2.25,-2.285713 v -5.714282 c 0,-1.262286 1.007437,-2.285714 2.25,-2.285714 h 5.203125 c 0.23291,0 0.421875,-0.191964 0.421875,-0.428571 v -0.714285 c 0,-0.273714 0.04971,-0.535 0.136792,-0.778178 0.0022,-0.0073 0.0038,-0.01479 0.0074,-0.02108 0.227708,-0.618428 0.710262,-1.108678 1.319168,-1.339999 0.0061,-0.0037 0.01346,-0.0053 0.0206,-0.0077 0.239477,-0.08814 0.496573,-0.138783 0.766011,-0.138783 h 1.125047 c 0.621281,0 1.124999,-0.511714 1.124999,-1.142856 v -0.571403 C 14.374971,-28.744143 14.626831,-29 14.937472,-29 c 0.310639,0 0.562499,0.255857 0.562499,0.571428 v 0.571428 c 0,0.273715 -0.0497,0.535 -0.136792,0.778178 -0.0022,0.0073 -0.0038,0.01479 -0.0074,0.02108 -0.227708,0.618428 -0.710262,1.108678 -1.319168,1.34 -0.0061,0.0037 -0.01347,0.0052 -0.0206,0.0077 -0.239475,0.08814 -0.496572,0.138781 -0.76601,0.138781 h -1.125 c -0.621283,0 -1.125,0.511714 -1.125,1.142857 v 0.857142 c 0,0.789071 -0.629509,1.428572 -1.406251,1.428572 H 4.25 c -0.621281,0 -1.125,0.511711 -1.125,1.142856 v 5.714284 c 0,0.631142 0.503719,1.142856 1.125,1.142856 h 13.5 c 0.62128,0 1.125,-0.511714 1.125,-1.142856 v -5.714282 c 0,-0.631145 -0.50372,-1.142856 -1.125,-1.142856 h -5.0625 c -0.310641,0 -0.5625,-0.255859 -0.5625,-0.571429 0,-0.315571 0.251859,-0.571429 0.5625,-0.571429 H 17.75 c 1.242563,0 2.25,1.023429 2.25,2.285714 v 5.714282 c 0,1.262266 -1.007437,2.285693 -2.25,2.285694 z"
       id="path2-36-7-6-5"
       style="stroke-width:0.0354341;fill-opacity:1;fill:currentColor;"
       class="ColorScheme-Text" />
  </g>
  <g
     id="22-22-input-keyboard"
     transform="translate(-22,-86)">
    <rect
       y="-64"
       x="0"
       height="22"
       width="22"
       id="rect4147"
       style="fill:none;fill-rule:evenodd;stroke:none;stroke-width:1px;stroke-linecap:butt;stroke-linejoin:miter;stroke-opacity:1" />
    <path
       d="m 11.562501,-50.714291 c 0.310639,0 0.562499,0.255857 0.562499,0.571429 0,0.315571 -0.25186,0.571428 -0.562499,0.571428 -0.310642,0 -0.562502,-0.255857 -0.562502,-0.571428 0,-0.315572 0.25186,-0.571429 0.562502,-0.571429 z m 1.124999,-1.142856 c -0.310641,0 -0.5625,-0.255856 -0.5625,-0.571429 0,-0.31557 0.251859,-0.571427 0.5625,-0.571427 0.310641,0 0.5625,0.255857 0.5625,0.571427 0,0.315573 -0.251859,0.571429 -0.5625,0.571429 z m 1.125,2.285713 c -0.310641,0 -0.5625,-0.255857 -0.5625,-0.571428 0,-0.315572 0.251859,-0.571429 0.5625,-0.571429 0.31064,0 0.5625,0.255857 0.5625,0.571429 0,0.315571 -0.25186,0.571428 -0.5625,0.571428 z m 1.125,-3.428569 c 0.310639,0 0.562499,0.255857 0.562499,0.571427 0,0.315573 -0.25186,0.571429 -0.562499,0.571429 -0.310641,0 -0.5625,-0.255856 -0.5625,-0.571429 0,-0.31557 0.251859,-0.571427 0.5625,-0.571427 z m 0,5.714282 c -0.310641,0 -0.5625,-0.255858 -0.5625,-0.571428 0,-0.31557 0.251859,-0.571428 0.5625,-0.571428 0.310639,0 0.562499,0.255858 0.562499,0.571428 0,0.31557 -0.25186,0.571428 -0.562499,0.571428 z m 2.250001,-4.571426 c -0.310642,0 -0.562502,-0.255856 -0.562502,-0.571429 0,-0.31557 0.25186,-0.571427 0.562502,-0.571427 0.310638,0 0.562499,0.255857 0.562499,0.571427 0,0.315573 -0.251861,0.571429 -0.562499,0.571429 z M 17.75,-47.857149 c 0,0.31557 -0.251861,0.571428 -0.562499,0.571428 -0.310642,0 -0.562502,-0.255858 -0.562502,-0.571428 0,-0.31557 0.25186,-0.571428 0.562502,-0.571428 0.310638,0 0.562499,0.255858 0.562499,0.571428 z m -2.250001,-2.285713 c 0,-0.315572 0.251861,-0.571429 0.562501,-0.571429 h 1.125001 c 0.310638,0 0.562499,0.255857 0.562499,0.571429 0,0.315571 -0.251861,0.571428 -0.562499,0.571428 H 16.0625 c -0.31064,0 -0.562501,-0.255857 -0.562501,-0.571428 z M 8.1875,-53.000003 c 0.310641,0 0.5625,0.255857 0.5625,0.571427 0,0.315573 -0.251859,0.571429 -0.5625,0.571429 -0.310641,0 -0.5625,-0.255856 -0.5625,-0.571429 0,-0.31557 0.251859,-0.571427 0.5625,-0.571427 z M 6.5,-47.857149 c 0,0.31557 -0.251859,0.571428 -0.5625,0.571428 -0.310641,0 -0.5625,-0.255858 -0.5625,-0.571428 0,-0.31557 0.251859,-0.571428 0.5625,-0.571428 0.310641,0 0.5625,0.255858 0.5625,0.571428 z m -1.6875,-3.999998 c -0.31064,0 -0.5625,-0.255856 -0.5625,-0.571429 0,-0.31557 0.25186,-0.571427 0.5625,-0.571427 h 1.125 c 0.310641,0 0.5625,0.255857 0.5625,0.571427 0,0.315573 -0.251859,0.571429 -0.5625,0.571429 z m 2.8125,1.714285 c 0,0.315571 -0.251859,0.571428 -0.5625,0.571428 h -2.25 c -0.31064,0 -0.5625,-0.255857 -0.5625,-0.571428 0,-0.315572 0.25186,-0.571429 0.5625,-0.571429 h 2.25 c 0.310641,0 0.5625,0.255857 0.5625,0.571429 z m 5.625,2.285713 c 0,0.31557 -0.251859,0.571428 -0.5625,0.571428 h -4.5 c -0.310641,0 -0.5625,-0.255858 -0.5625,-0.571428 0,-0.31557 0.251859,-0.571428 0.5625,-0.571428 h 4.5 c 0.310641,0 0.5625,0.255858 0.5625,0.571428 z m -3.9375,-1.714285 c -0.310641,0 -0.5625,-0.255857 -0.5625,-0.571428 0,-0.315572 0.251859,-0.571429 0.5625,-0.571429 0.310641,0 0.5625,0.255857 0.5625,0.571429 0,0.315571 -0.251859,0.571428 -0.5625,0.571428 z m 1.125,-3.428569 c 0.31064,0 0.562499,0.255857 0.562499,0.571427 0,0.315573 -0.251859,0.571429 -0.562499,0.571429 -0.31064,0 -0.5625,-0.255856 -0.5625,-0.571429 0,-0.31557 0.25186,-0.571427 0.5625,-0.571427 z m 7.3125,7.999995 H 4.25 c -1.242563,0 -2.25,-1.023426 -2.25,-2.285713 v -5.714282 c 0,-1.262286 1.007437,-2.285714 2.25,-2.285714 h 5.203125 c 0.23291,0 0.421875,-0.191964 0.421875,-0.428571 v -0.714285 c 0,-0.273714 0.04971,-0.535 0.136792,-0.778178 0.0022,-0.0073 0.0038,-0.01479 0.0074,-0.02107 0.227708,-0.618428 0.710262,-1.108678 1.319168,-1.339999 0.0061,-0.0037 0.01346,-0.0053 0.0206,-0.0077 0.239477,-0.08814 0.496573,-0.138783 0.766011,-0.138783 h 1.125047 c 0.621281,0 1.124999,-0.511714 1.124999,-1.142856 v -0.571418 C 14.374971,-60.744143 14.626831,-61 14.937472,-61 c 0.310639,0 0.562499,0.255857 0.562499,0.571428 v 0.571429 c 0,0.273714 -0.0497,0.534999 -0.136792,0.778177 -0.0022,0.0073 -0.0038,0.01479 -0.0074,0.02107 -0.227708,0.618428 -0.710262,1.108678 -1.319168,1.34 -0.0061,0.0037 -0.01347,0.0052 -0.0206,0.0077 -0.239475,0.08814 -0.496572,0.138781 -0.76601,0.138781 h -1.125 c -0.621283,0 -1.125,0.511714 -1.125,1.142857 v 0.857142 c 0,0.789071 -0.629509,1.428572 -1.406251,1.428572 H 4.25 c -0.621281,0 -1.125,0.511711 -1.125,1.142856 v 5.714284 c 0,0.631142 0.503719,1.142856 1.125,1.142856 h 13.5 c 0.62128,0 1.125,-0.511714 1.125,-1.142856 v -5.714282 c 0,-0.631145 -0.50372,-1.142856 -1.125,-1.142856 h -5.0625 c -0.310641,0 -0.5625,-0.255859 -0.5625,-0.571429 0,-0.315571 0.251859,-0.571429 0.5625,-0.571429 H 17.75 c 1.242563,0 2.25,1.023429 2.25,2.285714 v 5.714282 c 0,1.262276 -1.007437,2.285703 -2.25,2.285704 z"
       id="path2-36-7-6-5-3"
       style="stroke-width:0.0354341;fill-opacity:1;fill:currentColor;"
       class="ColorScheme-Text" />
  </g>
  <g
     id="input-keyboard-virtual-off"
     transform="translate(-22,-86)">
    <rect
       style="fill:none;fill-rule:evenodd;stroke:none;stroke-width:1.45455px;stroke-linecap:butt;stroke-linejoin:miter;stroke-opacity:1"
       id="rect4176"
       width="32"
       height="32"
       x="22"
       y="-10" />
    <path
       d="m 38.75,8.999924 c 0.414188,0 0.75,0.335813 0.75,0.75 0,0.414187 -0.335812,0.75 -0.75,0.75 -0.414188,0 -0.75,-0.335813 -0.75,-0.75 0,-0.414187 0.335812,-0.75 0.75,-0.75 z m 1.5,-1.5 c -0.414188,0 -0.75,-0.335813 -0.75,-0.75 0,-0.414187 0.335812,-0.75 0.75,-0.75 0.414188,0 0.75,0.335813 0.75,0.75 0,0.414187 -0.335812,0.75 -0.75,0.75 z m 1.5,3 c -0.414188,0 -0.75,-0.335813 -0.75,-0.75 0,-0.414187 0.335812,-0.75 0.75,-0.75 0.414187,0 0.75,0.335813 0.75,0.75 0,0.414187 -0.335813,0.75 -0.75,0.75 z m 1.5,-4.5 c 0.414187,0 0.75,0.335813 0.75,0.75 0,0.414187 -0.335813,0.75 -0.75,0.75 -0.414188,0 -0.75,-0.335813 -0.75,-0.75 0,-0.414187 0.335812,-0.75 0.75,-0.75 z m 0,7.5 c -0.414188,0 -0.75,-0.335813 -0.75,-0.75 0,-0.414187 0.335812,-0.75 0.75,-0.75 0.414187,0 0.75,0.335813 0.75,0.75 0,0.414187 -0.335813,0.75 -0.75,0.75 z m 3,-6 c -0.414188,0 -0.75,-0.335813 -0.75,-0.75 0,-0.414187 0.335812,-0.75 0.75,-0.75 0.414187,0 0.75,0.335813 0.75,0.75 0,0.414187 -0.335813,0.75 -0.75,0.75 z m 0.75,5.25 c 0,0.414187 -0.335813,0.75 -0.75,0.75 -0.414188,0 -0.75,-0.335813 -0.75,-0.75 0,-0.414187 0.335812,-0.75 0.75,-0.75 0.414187,0 0.75,0.335813 0.75,0.75 z m -3,-3 c 0,-0.414187 0.335812,-0.75 0.75,-0.75 h 1.5 c 0.414187,0 0.75,0.335813 0.75,0.75 0,0.414187 -0.335813,0.75 -0.75,0.75 h -1.5 c -0.414188,0 -0.75,-0.335813 -0.75,-0.75 z m -9.75,-3.75 c 0.414188,0 0.75,0.335813 0.75,0.75 0,0.414187 -0.335812,0.75 -0.75,0.75 -0.414188,0 -0.75,-0.335813 -0.75,-0.75 0,-0.414187 0.335812,-0.75 0.75,-0.75 z m -2.25,6.75 c 0,0.414187 -0.335812,0.75 -0.75,0.75 -0.414188,0 -0.75,-0.335813 -0.75,-0.75 0,-0.414187 0.335812,-0.75 0.75,-0.75 0.414188,0 0.75,0.335813 0.75,0.75 z m -2.25,-5.25 c -0.414187,0 -0.75,-0.335813 -0.75,-0.75 0,-0.414187 0.335813,-0.75 0.75,-0.75 h 1.5 c 0.414188,0 0.75,0.335813 0.75,0.75 0,0.414187 -0.335812,0.75 -0.75,0.75 z m 3.75,2.25 c 0,0.414187 -0.335812,0.75 -0.75,0.75 h -3 c -0.414187,0 -0.75,-0.335813 -0.75,-0.75 0,-0.414187 0.335813,-0.75 0.75,-0.75 h 3 c 0.414188,0 0.75,0.335813 0.75,0.75 z m 7.5,3 c 0,0.414187 -0.335812,0.75 -0.75,0.75 h -6 c -0.414188,0 -0.75,-0.335813 -0.75,-0.75 0,-0.414187 0.335812,-0.75 0.75,-0.75 h 6 c 0.414188,0 0.75,0.335813 0.75,0.75 z m -5.25,-2.25 c -0.414188,0 -0.75,-0.335813 -0.75,-0.75 0,-0.414187 0.335812,-0.75 0.75,-0.75 0.414188,0 0.75,0.335813 0.75,0.75 0,0.414187 -0.335812,0.75 -0.75,0.75 z m 1.5,-4.5 c 0.414188,0 0.75,0.335813 0.75,0.75 0,0.414187 -0.335812,0.75 -0.75,0.75 -0.414188,0 -0.75,-0.335813 -0.75,-0.75 0,-0.414187 0.335812,-0.75 0.75,-0.75 z m 9.75,10.5 H 29 c -1.65675,0 -3,-1.34325 -3,-3 v -7.5 c 0,-1.65675 1.34325,-3 3,-3 h 6.9375 c 0.310547,0 0.5625,-0.251953 0.5625,-0.5625 v -0.9375 c 0,-0.35925 0.06628,-0.702188 0.182391,-1.021359 0.0029,-0.0095 0.0051,-0.01941 0.0099,-0.02766 0.30361,-0.811687 0.947016,-1.45514 1.758891,-1.75875 0.0081,-0.0049 0.01795,-0.0069 0.02747,-0.01008 C 38.797953,-1.433608 39.14075,-1.500077 39.5,-1.500077 H 41 c 0.828375,0 1.5,-0.671625 1.5,-1.5 v -0.75 c 0,-0.414187 0.335812,-0.75 0.75,-0.75 0.414187,0 0.75,0.335813 0.75,0.75 v 0.75 c 0,0.35925 -0.06628,0.702187 -0.182391,1.021359 -0.0029,0.0095 -0.0051,0.01941 -0.0099,0.02766 -0.30361,0.811687 -0.947016,1.45514 -1.758891,1.75875 -0.0081,0.0049 -0.01795,0.0069 -0.02747,0.01008 C 41.702047,-0.066546 41.35925,-7.7e-5 41,-7.7e-5 h -1.5 c -0.828375,0 -1.5,0.671625 -1.5,1.5 v 1.125 c 0,1.035656 -0.839344,1.875 -1.875,1.875 H 29 c -0.828375,0 -1.5,0.671625 -1.5,1.5 v 7.5 c 0,0.828375 0.671625,1.5 1.5,1.5 h 18 c 0.828375,0 1.5,-0.671625 1.5,-1.5 v -7.5 c 0,-0.828375 -0.671625,-1.5 -1.5,-1.5 h -6.75 c -0.414188,0 -0.75,-0.335813 -0.75,-0.75 0,-0.414187 0.335812,-0.75 0.75,-0.75 H 47 c 1.65675,0 3,1.34325 3,3 v 7.5 c 0,1.65675 -1.34325,3 -3,3.000001 z"
       id="path2-36-7-6-56"
       style="fill:#d35f5f;fill-opacity:1;stroke-width:0.046875" />
  </g>
  <g
     id="22-22-input-keyboard-virtual-off"
     transform="translate(-22,-86)">
    <rect
       style="fill:none;fill-opacity:1;stroke:none;stroke-linejoin:bevel"
       id="rect4172"
       width="22"
       height="22"
       x="0"
       y="0" />
    <path
       d="m 11.562501,13.285633 c 0.310639,0 0.562499,0.255857 0.562499,0.571429 0,0.315571 -0.25186,0.571428 -0.562499,0.571428 -0.310642,0 -0.562502,-0.255857 -0.562502,-0.571428 0,-0.315572 0.25186,-0.571429 0.562502,-0.571429 z M 12.6875,12.142777 c -0.310641,0 -0.5625,-0.255856 -0.5625,-0.571429 0,-0.31557 0.251859,-0.571427 0.5625,-0.571427 0.310641,0 0.5625,0.255857 0.5625,0.571427 0,0.315573 -0.251859,0.571429 -0.5625,0.571429 z m 1.125,2.285713 c -0.310641,0 -0.5625,-0.255857 -0.5625,-0.571428 0,-0.315572 0.251859,-0.571429 0.5625,-0.571429 0.31064,0 0.5625,0.255857 0.5625,0.571429 0,0.315571 -0.25186,0.571428 -0.5625,0.571428 z m 1.125,-3.428569 c 0.310639,0 0.562499,0.255857 0.562499,0.571427 0,0.315573 -0.25186,0.571429 -0.562499,0.571429 -0.310641,0 -0.5625,-0.255856 -0.5625,-0.571429 0,-0.31557 0.251859,-0.571427 0.5625,-0.571427 z m 0,5.714282 c -0.310641,0 -0.5625,-0.255858 -0.5625,-0.571428 0,-0.31557 0.251859,-0.571428 0.5625,-0.571428 0.310639,0 0.562499,0.255858 0.562499,0.571428 0,0.31557 -0.25186,0.571428 -0.562499,0.571428 z m 2.250001,-4.571426 c -0.310642,0 -0.562502,-0.255856 -0.562502,-0.571429 0,-0.31557 0.25186,-0.571427 0.562502,-0.571427 0.310638,0 0.562499,0.255857 0.562499,0.571427 0,0.315573 -0.251861,0.571429 -0.562499,0.571429 z M 17.75,16.142775 c 0,0.31557 -0.251861,0.571428 -0.562499,0.571428 -0.310642,0 -0.562502,-0.255858 -0.562502,-0.571428 0,-0.31557 0.25186,-0.571428 0.562502,-0.571428 0.310638,0 0.562499,0.255858 0.562499,0.571428 z m -2.250001,-2.285713 c 0,-0.315572 0.251861,-0.571429 0.562501,-0.571429 h 1.125001 c 0.310638,0 0.562499,0.255857 0.562499,0.571429 0,0.315571 -0.251861,0.571428 -0.562499,0.571428 H 16.0625 c -0.31064,0 -0.562501,-0.255857 -0.562501,-0.571428 z M 8.1875,10.999921 c 0.310641,0 0.5625,0.255857 0.5625,0.571427 0,0.315573 -0.251859,0.571429 -0.5625,0.571429 -0.310641,0 -0.5625,-0.255856 -0.5625,-0.571429 0,-0.31557 0.251859,-0.571427 0.5625,-0.571427 z M 6.5,16.142775 c 0,0.31557 -0.251859,0.571428 -0.5625,0.571428 -0.310641,0 -0.5625,-0.255858 -0.5625,-0.571428 0,-0.31557 0.251859,-0.571428 0.5625,-0.571428 0.310641,0 0.5625,0.255858 0.5625,0.571428 z M 4.8125,12.142777 c -0.31064,0 -0.5625,-0.255856 -0.5625,-0.571429 0,-0.31557 0.25186,-0.571427 0.5625,-0.571427 h 1.125 c 0.310641,0 0.5625,0.255857 0.5625,0.571427 0,0.315573 -0.251859,0.571429 -0.5625,0.571429 z m 2.8125,1.714285 c 0,0.315571 -0.251859,0.571428 -0.5625,0.571428 h -2.25 c -0.31064,0 -0.5625,-0.255857 -0.5625,-0.571428 0,-0.315572 0.25186,-0.571429 0.5625,-0.571429 h 2.25 c 0.310641,0 0.5625,0.255857 0.5625,0.571429 z m 5.625,2.285713 c 0,0.31557 -0.251859,0.571428 -0.5625,0.571428 h -4.5 c -0.310641,0 -0.5625,-0.255858 -0.5625,-0.571428 0,-0.31557 0.251859,-0.571428 0.5625,-0.571428 h 4.5 c 0.310641,0 0.5625,0.255858 0.5625,0.571428 z M 9.3125,14.42849 c -0.310641,0 -0.5625,-0.255857 -0.5625,-0.571428 0,-0.315572 0.251859,-0.571429 0.5625,-0.571429 0.310641,0 0.5625,0.255857 0.5625,0.571429 0,0.315571 -0.251859,0.571428 -0.5625,0.571428 z m 1.125,-3.428569 c 0.31064,0 0.562499,0.255857 0.562499,0.571427 0,0.315573 -0.251859,0.571429 -0.562499,0.571429 -0.31064,0 -0.5625,-0.255856 -0.5625,-0.571429 0,-0.31557 0.25186,-0.571427 0.5625,-0.571427 z M 17.75,18.999916 H 4.25 C 3.007437,18.999916 2,17.97649 2,16.714203 V 10.999921 C 2,9.737635 3.007437,8.714207 4.25,8.714207 H 9.453125 C 9.686035,8.714207 9.875,8.522243 9.875,8.285636 V 7.571351 c 0,-0.273714 0.04971,-0.535 0.136792,-0.778178 0.0022,-0.0073 0.0038,-0.01479 0.0074,-0.02107 0.227708,-0.618428 0.710262,-1.108678 1.319168,-1.339999 0.0061,-0.0037 0.01346,-0.0053 0.0206,-0.0077 0.239477,-0.08814 0.496573,-0.138783 0.766011,-0.138783 h 1.125047 c 0.621281,0 1.124999,-0.511714 1.124999,-1.142856 V 3.571347 c -4.6e-5,-0.315566 0.251814,-0.571423 0.562455,-0.571423 0.310639,0 0.562499,0.255857 0.562499,0.571428 v 0.571429 c 0,0.273714 -0.0497,0.534999 -0.136792,0.778177 -0.0022,0.0073 -0.0038,0.01479 -0.0074,0.02107 -0.227708,0.618428 -0.710262,1.108678 -1.319168,1.34 -0.0061,0.0037 -0.01347,0.0052 -0.0206,0.0077 -0.239475,0.08814 -0.496572,0.138781 -0.76601,0.138781 h -1.125 c -0.621283,0 -1.125,0.511714 -1.125,1.142857 v 0.857142 c 0,0.789071 -0.629509,1.428572 -1.406251,1.428572 H 4.25 c -0.621281,0 -1.125,0.511711 -1.125,1.142856 v 5.714284 c 0,0.631142 0.503719,1.142856 1.125,1.142856 h 13.5 c 0.62128,0 1.125,-0.511714 1.125,-1.142856 v -5.714282 c 0,-0.631145 -0.50372,-1.142856 -1.125,-1.142856 h -5.0625 c -0.310641,0 -0.5625,-0.255859 -0.5625,-0.571429 0,-0.315571 0.251859,-0.571429 0.5625,-0.571429 H 17.75 c 1.242563,0 2.25,1.023429 2.25,2.285714 v 5.714282 c 0,1.262276 -1.007437,2.285703 -2.25,2.285704 z"
       id="path2-36-7-6-5-3-2"
       style="fill:#d35f5f;fill-opacity:1;stroke-width:0.0354341" />
  </g>
  <g
     id="input-caps-on">
    <rect
       y="0"
       x="0"
       height="32"
       width="32"
       id="rect978"
       style="opacity:0.00100002;fill-opacity:1;stroke:none;stroke-width:0.713687;stroke-linecap:round;stroke-linejoin:round;stroke-miterlimit:4;stroke-dasharray:none;stroke-opacity:1" />
    <path
       d="m 16,3.99991 c 0.553444,0 1.00028,0.4462794 1.00028,1.0002788 0,0.5534015 -0.446836,0.9997212 -1.00028,0.9997212 -0.554066,0 -1.000276,-0.4462792 -1.000276,-0.9997212 C 14.999724,4.4461184 15.445934,3.99991 16,3.99991 Z"
       fill-rule="evenodd"
       id="path66"
       style="stroke-width:0.010137;fill-opacity:1;fill:currentColor;"
       class="ColorScheme-Text" />
    <path
       d="m 21.24989,19.499676 h -0.18604 c -0.31506,0 -0.58214,-0.19659 -0.69467,-0.46812 l -3.66993,-9.55441 c -0.003,-0.006 -0.007,-0.0105 -0.0106,-0.0165 -0.021,-0.0525 -0.057,-0.0945 -0.09,-0.141 -0.024,-0.0345 -0.042,-0.0735 -0.072,-0.10356 -0.0256,-0.0256 -0.06,-0.0405 -0.0885,-0.0631 -0.0511,-0.0359 -0.0991,-0.0749 -0.15606,-0.0975 -0.006,-0.003 -0.009,-0.007 -0.0135,-0.009 -0.0316,-0.012 -0.0631,-0.009 -0.0945,-0.0165 -0.0585,-0.0135 -0.11402,-0.03 -0.17406,-0.03 -0.0615,0 -0.11856,0.0165 -0.17708,0.0315 -0.03,0.007 -0.0616,0.003 -0.0915,0.015 -0.002,0 -0.005,0.006 -0.006,0.006 -0.18897,0.075 -0.34805,0.22053 -0.42608,0.42458 l -3.66996,9.55442 c -0.11103,0.27153 -0.37813,0.46812 -0.69318,0.46812 h -0.18604 c -0.41563,0 -0.75019,0.33608 -0.75019,0.75018 0,0.41111 0.33456,0.7502 0.75019,0.7502 h 1.23027 0.0165 1.75248 c 0.41411,0 0.7502,-0.33909 0.7502,-0.7502 0,-0.4141 -0.33609,-0.75018 -0.7502,-0.75018 h -0.14099 c -0.20856,0 -0.3751,-0.16955 -0.3751,-0.3751 0,-0.048 0.008,-0.093 0.024,-0.13655 0.002,-0.003 -0.006,0.005 -0.006,0.002 l 0.38112,-0.99326 h 4.00452 l 0.42609,1.13877 c 0.001,10e-4 0,10e-4 0,0.003 0.0616,0.17256 -0.0105,0.36161 -0.16051,0.45011 0,0 0.006,0.005 0.006,0.006 -0.24163,0.12451 -0.40817,0.36756 -0.40817,0.65567 0,0.4111 0.33456,0.75019 0.75019,0.75019 h 1.62045 0.0585 1.32038 c 0.4141,0 0.75019,-0.33909 0.75019,-0.75019 -8e-5,-0.41411 -0.33617,-0.75019 -0.75028,-0.75019 z m -7.03978,-3.00376 1.04273,-2.71719 c 0.002,-0.003 0.003,0.009 0.006,0 0.078,-0.21903 0.31958,-0.33609 0.54011,-0.25804 0.11856,0.042 0.21007,0.13656 0.2521,0.24758 v -0.002 l 1.02322,2.73069 h -2.86422 z"
       id="path2-7-3"
       style="stroke-width:0.021434;fill-opacity:1;fill:currentColor;"
       sodipodi:nodetypes="cscccccccccscccccssssccsssssccccccccssccscccccccccccc"
       class="ColorScheme-Text" />
    <path
       fill-rule="evenodd"
       clip-rule="evenodd"
       d="M 23.000066,26.192047 16.000005,27.99991 8.9995003,26.192047 C 6.6031068,25.573184 5,24.156768 5,21.95342 V 7.988928 C 5,5.785829 6.7905002,3.99991 8.9995003,3.99991 H 11.99994 c 0.552745,0 0.999999,0.446106 0.999999,0.997441 0,0.550089 -0.447254,0.996444 -0.999999,0.996444 H 8.9995003 c -1.1045,0 -1.9989997,0.893459 -1.9989997,1.995133 v 13.96443 c 0,1.101674 0.8944997,1.995381 1.9989997,1.995381 H 23.000066 c 1.104496,0 1.999937,-0.893707 1.999937,-1.995381 V 7.988928 c 0,-1.101612 -0.895441,-1.99507 -1.999937,-1.99507 h -3.000999 c -0.550749,0 -0.999998,-0.446355 -0.999998,-0.996444 0,-0.551336 0.449249,-0.997442 0.999998,-0.997442 h 3.000999 C 25.208997,3.999972 27,5.785891 27,7.98899 v 13.96443 c 0,2.203348 -1.624466,3.62513 -3.999934,4.238627 z m 0,-22.192075 z"
       id="path2-3"
       sodipodi:nodetypes="scssssssssssssssssssssssccccccccc"
       style="stroke-width:0.06242;fill-opacity:1;fill:currentColor;"
       class="ColorScheme-Text" />
  </g>
  <g
     id="input-keyboard-brightness"
     transform="translate(0,-64.000014)">
    <rect
       ry="0"
       y="-4.2773436e-06"
       x="0"
       height="32"
       width="32"
       id="rect4266"
       style="fill:none" />
    <path
       style="stroke-width:0.7;stroke:none;fill-opacity:1;fill:currentColor;"
       d="m 23.5,2.99983 c -0.1939,0 -0.35,0.1561 -0.35,0.35 v 0.7 c 0,0.1939 0.1561,0.35 0.35,0.35 0.1939,0 0.35,-0.1561 0.35,-0.35 v -0.7 c 0,-0.1939 -0.1561,-0.35 -0.35,-0.35 z m -2.22705,0.92295 c -0.0894,0 -0.17907,0.0336 -0.2476,0.1024 -0.13707,0.13706 -0.13707,0.35786 0,0.49493 l 0.49493,0.49493 c 0.13707,0.13707 0.35786,0.13707 0.49493,0 0.13707,-0.13707 0.13707,-0.35786 0,-0.49493 L 21.52028,4.02518 c -0.068,-0.068 -0.15791,-0.1024 -0.24733,-0.1024 z m 4.4541,0 c -0.0892,0 -0.17879,0.0336 -0.24733,0.1024 l -0.49493,0.49493 c -0.13706,0.13707 -0.13706,0.35786 0,0.49493 0.13707,0.13707 0.35787,0.13707 0.49493,0 l 0.49494,-0.49493 c 0.13706,-0.13707 0.13706,-0.35787 0,-0.49493 -0.0679,-0.068 -0.15801,-0.1024 -0.24761,-0.1024 z M 23.5,5.09983 c -0.77315,0 -1.4,0.62685 -1.4,1.4 0,0.77315 0.62685,1.4 1.4,1.4 0.77315,0 1.4,-0.62685 1.4,-1.4 0,-0.77315 -0.62685,-1.4 -1.4,-1.4 z m 0,0.7 v 1.4 c -0.38668,0 -0.7,-0.31332 -0.7,-0.7 0,-0.38668 0.31332,-0.7 0.7,-0.7 z m -3.15,0.35 c -0.1939,0 -0.35,0.1561 -0.35,0.35 0,0.1939 0.1561,0.35 0.35,0.35 h 0.7 c 0.1939,0 0.35,-0.1561 0.35,-0.35 0,-0.1939 -0.1561,-0.35 -0.35,-0.35 z m 5.6,0 c -0.1939,0 -0.35,0.1561 -0.35,0.35 0,0.1939 0.1561,0.35 0.35,0.35 h 0.7 c 0.1939,0 0.35,-0.1561 0.35,-0.35 0,-0.1939 -0.1561,-0.35 -0.35,-0.35 z m -4.18215,1.73215 c -0.0894,0 -0.17904,0.0336 -0.24757,0.10264 l -0.49493,0.49493 c -0.13707,0.13707 -0.13707,0.35787 0,0.49493 0.13706,0.13707 0.35786,0.13707 0.49493,0 l 0.49493,-0.49493 c 0.13707,-0.13707 0.13707,-0.35786 0,-0.49493 -0.0679,-0.0679 -0.15791,-0.10264 -0.24736,-0.10264 z m 3.4643,0 c -0.0892,0 -0.17882,0.0336 -0.24736,0.10264 -0.13706,0.13707 -0.13706,0.35786 0,0.49493 l 0.49493,0.49493 c 0.13707,0.13707 0.35787,0.13707 0.49494,0 0.13706,-0.13706 0.13706,-0.35786 0,-0.49493 L 25.47972,7.98462 C 25.41182,7.91672 25.32175,7.88198 25.23215,7.88198 Z M 23.5,8.59983 c -0.1939,0 -0.35,0.1561 -0.35,0.35 v 0.7 c 0,0.1939 0.1561,0.35 0.35,0.35 0.1939,0 0.35,-0.1561 0.35,-0.35 v -0.7 c 0,-0.1939 -0.1561,-0.35 -0.35,-0.35 z"
       id="path4274"
       inkscape:connector-curvature="0"
       class="ColorScheme-Highlight" />
    <path
       fill-rule="evenodd"
       clip-rule="evenodd"
       d="m 23,26.225672 -7.000061,1.807863 -7.000505,-1.807863 c -2.396393,-0.618863 -3.9995,-2.035279 -3.9995,-4.238627 V 8.0225533 c 0,-2.203099 1.790513,-3.981582 3.9995,-3.989018 l 9.959083,-0.03353 c 0.552742,-0.00186 1.041417,0.482195 1.041417,1.03353 0,0.550089 -0.447255,1.000338 -1,1 l -10.0005,-0.0061 c -1.1045,-6.75e-4 -1.998999,0.893459 -1.998999,1.995133 V 21.986998 c 0,1.101674 0.894499,1.995381 1.998999,1.995381 H 23 c 1.104496,0 1.999218,-0.893707 1.999937,-1.995381 l -3e-6,-11.953463 h 2 c 0,-0.9891697 -2.000003,-0.9891077 -2,0 h 2 v 0 0 0 11.95351 c 0,2.203348 -1.624466,3.62513 -3.999934,4.238627 z"
       id="path2-3-6"
       sodipodi:nodetypes="scssssssssssssscccccccss"
       style="stroke-width:0.06242;fill-opacity:1;fill:currentColor;"
       class="ColorScheme-Text" />
    <path
       d="m 21.24989,19.49969 h -0.18604 c -0.31506,0 -0.58214,-0.19659 -0.69467,-0.46812 L 16.69925,9.47716 c -0.003,-0.006 -0.007,-0.0105 -0.0106,-0.0165 -0.021,-0.0525 -0.057,-0.0945 -0.09,-0.141 -0.024,-0.0345 -0.042,-0.0735 -0.072,-0.10356 -0.0256,-0.0256 -0.06,-0.0405 -0.0885,-0.0631 -0.0511,-0.0359 -0.0991,-0.0749 -0.15606,-0.0975 -0.006,-0.003 -0.009,-0.007 -0.0135,-0.009 C 16.23699,9.0345 16.20549,9.0375 16.17409,9.03 16.11559,9.0165 16.06007,9 16.00003,9 c -0.0615,0 -0.11856,0.0165 -0.17708,0.0315 -0.03,0.007 -0.0616,0.003 -0.0915,0.015 -0.002,0 -0.005,0.006 -0.006,0.006 -0.18897,0.075 -0.34805,0.22053 -0.42608,0.42458 l -3.66996,9.55442 c -0.11103,0.27153 -0.37813,0.46812 -0.69318,0.46812 H 10.75019 C 10.33456,19.49962 10,19.8357 10,20.2498 10,20.66091 10.33456,21 10.75019,21 h 1.23027 0.0165 1.75248 c 0.41411,0 0.7502,-0.33909 0.7502,-0.7502 0,-0.4141 -0.33609,-0.75018 -0.7502,-0.75018 h -0.14099 c -0.20856,0 -0.3751,-0.16955 -0.3751,-0.3751 0,-0.048 0.008,-0.093 0.024,-0.13655 0.002,-0.003 -0.006,0.005 -0.006,0.002 l 0.38112,-0.99326 h 4.00452 l 0.42609,1.13877 c 0.001,10e-4 0,10e-4 0,0.003 0.0616,0.17256 -0.0105,0.36161 -0.16051,0.45011 0,0 0.006,0.005 0.006,0.006 -0.24163,0.12451 -0.40817,0.36756 -0.40817,0.65567 0,0.4111 0.33456,0.75019 0.75019,0.75019 h 1.62045 0.0585 1.32038 c 0.4141,0 0.75019,-0.33909 0.75019,-0.75019 -8e-5,-0.41411 -0.33617,-0.75019 -0.75028,-0.75019 z m -7.03978,-3.00376 1.04273,-2.71719 c 0.002,-0.003 0.003,0.009 0.006,0 0.078,-0.21903 0.31958,-0.33609 0.54011,-0.25804 0.11856,0.042 0.21007,0.13656 0.2521,0.24758 v -0.002 l 1.02322,2.73069 h -2.86422 z"
       id="path2-7-3-7"
       style="stroke-width:0.021434;fill-opacity:1;fill:currentColor;"
       sodipodi:nodetypes="cscccccccccscccccssssccsssssccccccccssccscccccccccccc"
       class="ColorScheme-Text" />
  </g>
  <g
     id="input-keyboard-battery"
     transform="translate(0,-32.000018)">
    <rect
       style="fill:none"
       id="rect4378"
       width="32"
       height="32"
       x="0"
       y="-4.2773436e-06"
       ry="0" />
    <path
       fill-rule="evenodd"
       clip-rule="evenodd"
       d="M 23.000066,26.225673 16.000005,28.033536 8.9995,26.225673 C 6.603107,25.60681 5,24.190394 5,21.987046 V 8.0225536 c 0,-2.203099 1.790513,-3.981582 3.9995,-3.989018 l 9.959083,-0.03353 C 19.511325,3.9981056 20,4.4822006 20,5.0335356 c 0,0.550089 -0.447255,1.000338 -1,1 L 8.9995,6.0274356 C 7.895,6.0267606 7.000501,6.9208946 7.000501,8.0225686 V 21.986999 c 0,1.101674 0.894499,1.995381 1.998999,1.995381 h 14.000566 c 1.104496,0 1.999218,-0.893707 1.999937,-1.995381 L 25,10.033536 h 2 c 0,-0.9891704 -2.000003,-0.9891084 -2,0 h 2 v 0 0 0 11.95351 c 0,2.203348 -1.624466,3.62513 -3.999934,4.238627 z"
       id="path2-3-6-3"
       sodipodi:nodetypes="scssssssssssssscccccccss"
       style="stroke-width:0.06242;fill-opacity:1;fill:currentColor;"
       class="ColorScheme-Text" />
    <path
       d="m 21.249956,19.499691 h -0.18604 c -0.31506,0 -0.58214,-0.19659 -0.69467,-0.46812 l -3.66993,-9.5544104 c -0.003,-0.006 -0.007,-0.0105 -0.0106,-0.0165 -0.021,-0.0525 -0.057,-0.0945 -0.09,-0.141 -0.024,-0.0345 -0.042,-0.0735 -0.072,-0.10356 -0.0256,-0.0256 -0.06,-0.0405 -0.0885,-0.0631 -0.0511,-0.0359 -0.0991,-0.0749 -0.15606,-0.0975 -0.006,-0.003 -0.009,-0.007 -0.0135,-0.009 -0.0316,-0.012 -0.0631,-0.009 -0.0945,-0.0165 -0.0585,-0.0135 -0.11402,-0.03 -0.17406,-0.03 -0.0615,0 -0.11856,0.0165 -0.17708,0.0315 -0.03,0.007 -0.0616,0.003 -0.0915,0.015 -0.002,0 -0.005,0.006 -0.006,0.006 -0.18897,0.075 -0.34805,0.22053 -0.42608,0.42458 l -3.66996,9.5544204 c -0.11103,0.27153 -0.37813,0.46812 -0.69318,0.46812 h -0.18604 c -0.41563,0 -0.75019,0.33608 -0.75019,0.75018 0,0.41111 0.33456,0.7502 0.75019,0.7502 h 1.23027 0.0165 1.75248 c 0.41411,0 0.7502,-0.33909 0.7502,-0.7502 0,-0.4141 -0.33609,-0.75018 -0.7502,-0.75018 h -0.14099 c -0.20856,0 -0.3751,-0.16955 -0.3751,-0.3751 0,-0.048 0.008,-0.093 0.024,-0.13655 0.002,-0.003 -0.006,0.005 -0.006,0.002 l 0.38112,-0.99326 h 4.00452 l 0.42609,1.13877 c 0.001,0.001 0,0.001 0,0.003 0.0616,0.17256 -0.0105,0.36161 -0.16051,0.45011 0,0 0.006,0.005 0.006,0.006 -0.24163,0.12451 -0.40817,0.36756 -0.40817,0.65567 0,0.4111 0.33456,0.75019 0.75019,0.75019 h 1.62045 0.0585 1.32038 c 0.4141,0 0.75019,-0.33909 0.75019,-0.75019 -8e-5,-0.41411 -0.33617,-0.75019 -0.75028,-0.75019 z m -7.03978,-3.00376 1.04273,-2.71719 c 0.002,-0.003 0.003,0.009 0.006,0 0.078,-0.21903 0.31958,-0.33609 0.54011,-0.25804 0.11856,0.042 0.21007,0.13656 0.2521,0.24758 v -0.002 l 1.02322,2.73069 h -2.86422 z"
       id="path2-7-3-7-5"
       style="stroke-width:0.021434;fill-opacity:1;fill:currentColor;"
       sodipodi:nodetypes="cscccccccccscccccssssccsssssccccccccssccscccccccccccc"
       class="ColorScheme-Text" />
    <path
       style="fill:#d35f5f;fill-opacity:1;stroke:none"
       d="m 22.5,3.99992 -2,5 h 2 v 3 l 2,-5 h -2 z"
       id="path12-6"
       inkscape:connector-curvature="0" />
  </g>
  <g
     id="input-num-on"
     transform="translate(0,31.99998)">
    <rect
       style="opacity:0.00100002;fill-opacity:1;stroke:none;stroke-width:0.713687;stroke-linecap:round;stroke-linejoin:round;stroke-miterlimit:4;stroke-dasharray:none;stroke-opacity:1"
       id="rect984"
       width="32"
       height="32"
       x="0"
       y="0" />
    <path
       d="m 18.674838,18.749678 h -1.499921 v -8.624602 c 0,-0.298576 -0.11853,-0.584603 -0.32947,-0.795539 -0.21093,-0.210935 -0.497209,-0.329465 -0.795539,-0.329465 h -2.62492 c -0.40204,0 -0.77343,0.214451 -0.97432,0.562502 -0.200891,0.348051 -0.200891,0.77696 0,1.125004 0.20089,0.348051 0.57229,0.562502 0.97432,0.562502 h 1.49992 v 7.500241 h -1.49992 v -2.57e-4 c -0.40204,0 -0.77343,0.214451 -0.97432,0.562502 -0.200891,0.348051 -0.200891,0.77696 0,1.125004 0.20089,0.348051 0.57229,0.562502 0.97432,0.562502 h 5.2501 -2.5e-4 c 0.402029,0 0.77342,-0.214451 0.974309,-0.562502 0.200901,-0.348051 0.200901,-0.77696 0,-1.125004 -0.20089,-0.348051 -0.572289,-0.562502 -0.974309,-0.562502 z"
       id="path6"
       style="stroke-width:0.0642859;fill-opacity:1;fill:currentColor;"
       class="ColorScheme-Text" />
    <path
       d="m 16,4 c 0.553444,0 1.00028,0.446279 1.00028,1.000279 C 17.00028,5.55368 16.553444,6 16,6 15.445934,6 14.999724,5.553721 14.999724,5.000279 14.999724,4.446208 15.445934,4 16,4 Z"
       fill-rule="evenodd"
       id="path66-2"
       style="stroke-width:0.010137;fill-opacity:1;fill:currentColor;"
       class="ColorScheme-Text" />
    <path
       fill-rule="evenodd"
       clip-rule="evenodd"
       d="M 23.000066,26.192137 16.000005,28 8.9995,26.192137 C 6.603107,25.573274 5,24.156858 5,21.95351 V 7.989018 C 5,5.785919 6.7905,4 8.9995,4 h 3.00044 c 0.552745,0 0.999999,0.446106 0.999999,0.997441 0,0.550089 -0.447254,0.996444 -0.999999,0.996444 H 8.9995 c -1.1045,0 -1.998999,0.893459 -1.998999,1.995133 v 13.96443 c 0,1.101674 0.894499,1.995381 1.998999,1.995381 h 14.000566 c 1.104496,0 1.999937,-0.893707 1.999937,-1.995381 V 7.989018 c 0,-1.101612 -0.895441,-1.99507 -1.999937,-1.99507 h -3.000999 c -0.550749,0 -0.999998,-0.446355 -0.999998,-0.996444 0,-0.551336 0.449249,-0.997442 0.999998,-0.997442 h 3.000999 C 25.208997,4.000062 27,5.785981 27,7.98908 v 13.96443 c 0,2.203348 -1.624466,3.62513 -3.999934,4.238627 z m 0,-22.192075 z"
       id="path2-3-1"
       sodipodi:nodetypes="scssssssssssssssssssssssccccccccc"
       style="stroke-width:0.06242;fill-opacity:1;fill:currentColor;"
       class="ColorScheme-Text" />
  </g>
  <g
     id="22-22-input-keyboard-brightness"
     transform="translate(-22,-54.000014)">
    <rect
       ry="0"
       y="2.6171874e-06"
       x="0"
       height="22"
       width="22"
       style="fill:none"
       id="rect20" />
    <path
       style="stroke-width:0.447397;stroke:none;fill-opacity:1;fill:currentColor;"
       d="m 15.824101,3 c -0.123929,0 -0.223698,0.099769 -0.223698,0.2236984 v 0.4473968 c 0,0.123929 0.09977,0.2236985 0.223698,0.2236985 0.123929,0 0.223699,-0.099769 0.223699,-0.2236985 V 3.2236984 C 16.0478,3.0997695 15.94803,3 15.824101,3 Z m -1.423393,0.5898927 c -0.05714,0 -0.11445,0.021475 -0.15825,0.065448 -0.08761,0.0876 -0.08761,0.228722 0,0.3163287 l 0.316328,0.3163287 c 0.08761,0.087607 0.228722,0.087607 0.316329,0 0.08761,-0.087607 0.08761,-0.228722 0,-0.3163287 L 14.558786,3.6553407 c -0.04346,-0.043461 -0.100926,-0.065448 -0.158078,-0.065448 z m 2.846786,0 c -0.05701,0 -0.114271,0.021475 -0.158078,0.065448 l -0.316329,0.3163287 c -0.0876,0.087607 -0.0876,0.2287221 0,0.3163287 0.08761,0.087607 0.228729,0.087607 0.316329,0 l 0.316335,-0.3163287 c 0.0876,-0.087607 0.0876,-0.2287284 0,-0.3163287 -0.0434,-0.043461 -0.10099,-0.065448 -0.158257,-0.065448 z m -1.423393,0.7522978 c -0.49415,0 -0.894793,0.4006438 -0.894793,0.8947936 0,0.4941498 0.400643,0.8947937 0.894793,0.8947937 0.49415,0 0.894794,-0.4006439 0.894794,-0.8947937 0,-0.4941498 -0.400644,-0.8947936 -0.894794,-0.8947936 z m 0,0.4473968 v 0.8947936 c -0.247142,0 -0.447397,-0.2002548 -0.447397,-0.4473968 0,-0.247142 0.200255,-0.4473968 0.447397,-0.4473968 z m -2.013286,0.2236984 c -0.123928,0 -0.223698,0.099769 -0.223698,0.2236984 0,0.1239289 0.09977,0.2236984 0.223698,0.2236984 h 0.447397 c 0.123929,0 0.223699,-0.09977 0.223699,-0.2236984 0,-0.1239289 -0.09977,-0.2236984 -0.223699,-0.2236984 z m 3.579175,0 c -0.123929,0 -0.223698,0.099769 -0.223698,0.2236984 0,0.1239289 0.09977,0.2236984 0.223698,0.2236984 h 0.447397 c 0.123929,0 0.223698,-0.09977 0.223698,-0.2236984 0,-0.1239289 -0.09977,-0.2236984 -0.223698,-0.2236984 z m -2.672972,1.1070835 c -0.05714,0 -0.114432,0.021475 -0.158232,0.065601 l -0.316328,0.3163287 c -0.08761,0.087607 -0.08761,0.2287285 0,0.3163288 0.0876,0.087607 0.228722,0.087607 0.316328,0 l 0.316329,-0.3163288 c 0.08761,-0.087607 0.08761,-0.228722 0,-0.3163287 -0.0434,-0.043397 -0.100926,-0.065601 -0.158097,-0.065601 z m 2.214167,0 c -0.05701,0 -0.114291,0.021475 -0.158098,0.065601 -0.0876,0.087607 -0.0876,0.2287221 0,0.3163287 l 0.316329,0.3163288 c 0.08761,0.087607 0.228729,0.087607 0.316335,0 0.0876,-0.0876 0.0876,-0.228722 0,-0.3163288 L 17.089416,6.1859703 c -0.0434,-0.043397 -0.100965,-0.065601 -0.158231,-0.065601 z m -1.107084,0.4588054 c -0.123929,0 -0.223698,0.099769 -0.223698,0.2236984 v 0.4473969 c 0,0.1239289 0.09977,0.2236984 0.223698,0.2236984 0.123929,0 0.223699,-0.09977 0.223699,-0.2236984 V 6.802873 c 0,-0.1239289 -0.09977,-0.2236984 -0.223699,-0.2236984 z"
       id="path4274-3"
       inkscape:connector-curvature="0"
       class="ColorScheme-Highlight" />
    <path
       fill-rule="evenodd"
       clip-rule="evenodd"
       d="M 15.504532,17.844526 11.030525,19 6.556234,17.844526 C 5.024607,17.448987 4,16.543701 4,15.135457 V 6.2102147 C 4,4.8021298 5.144385,3.6654331 6.556234,3.6606805 l 6.365231,-0.02143 c 0.353279,-0.00121 0.66561,0.3081893 0.66561,0.6605686 0,0.351583 -0.285858,0.6393544 -0.639138,0.6391383 l -6.391703,-0.0039 C 5.850305,4.934626 5.278597,5.5061013 5.278597,6.2102233 v 8.9252027 c 0,0.704122 0.571708,1.275324 1.277637,1.275324 h 8.948298 c 0.705926,0 1.277777,-0.571202 1.278236,-1.275324 l -2e-6,-7.6399166 h 1.278277 c 0,-0.6322164 -1.278278,-0.6321768 -1.278277,0 h 1.278277 v 0 0 0 7.6399466 c 0,1.408244 -1.038258,2.316959 -2.556511,2.70907 z"
       id="path2-3-6-6"
       sodipodi:nodetypes="scssssssssssssscccccccss"
       style="stroke-width:0.039895;fill-opacity:1;fill:currentColor;"
       class="ColorScheme-Text" />
    <path
       d="m 14.38597,13.545693 h -0.118906 c -0.201367,0 -0.372068,-0.125648 -0.44399,-0.299193 L 11.477481,7.1399098 c -0.0019,-0.00384 -0.0045,-0.00671 -0.0068,-0.010546 -0.01342,-0.033555 -0.03643,-0.060399 -0.05752,-0.090118 -0.01534,-0.02205 -0.02684,-0.046977 -0.04602,-0.066189 -0.01636,-0.016362 -0.03835,-0.025885 -0.05656,-0.04033 -0.03266,-0.022945 -0.06334,-0.047872 -0.09974,-0.062316 -0.0038,-0.00192 -0.0058,-0.00447 -0.0086,-0.00575 -0.0202,-0.00767 -0.04033,-0.00575 -0.0604,-0.010546 -0.03739,-0.00863 -0.07287,-0.019174 -0.111248,-0.019174 -0.03931,0 -0.07578,0.010546 -0.113179,0.020133 -0.01917,0.00447 -0.03937,0.00192 -0.05848,0.00959 -0.0013,0 -0.0032,0.00384 -0.0038,0.00384 -0.120778,0.047925 -0.222452,0.1409389 -0.272324,0.2713551 L 8.237198,13.246455 C 8.166238,13.42 7.995521,13.545649 7.79416,13.545649 H 7.675255 c -0.265645,0 -0.479475,0.214801 -0.479475,0.479468 0,0.262756 0.21383,0.479482 0.479475,0.479482 h 0.786313 0.01055 1.120078 c 0.264673,0 0.479481,-0.216726 0.479481,-0.479482 0,-0.264667 -0.214808,-0.479468 -0.479481,-0.479468 h -0.09011 c -0.133298,0 -0.23974,-0.108366 -0.23974,-0.239741 0,-0.03068 0.0051,-0.05944 0.01534,-0.08727 0.0013,-0.0019 -0.0038,0.0032 -0.0038,0.0013 l 0.243589,-0.634831 h 2.559442 l 0.27233,0.727832 c 6.39e-4,6.39e-4 0,6.39e-4 0,0.0019 0.03937,0.110289 -0.0067,0.231119 -0.102588,0.287682 0,0 0.0038,0.0032 0.0038,0.0038 -0.154435,0.07958 -0.260877,0.234922 -0.260877,0.419064 0,0.26275 0.21383,0.479475 0.479475,0.479475 h 1.035692 0.03739 0.843906 c 0.264667,0 0.479475,-0.216725 0.479475,-0.479475 -5.1e-5,-0.264673 -0.214859,-0.479475 -0.479533,-0.479475 z M 9.886576,11.625875 10.553025,9.8892146 c 0.0013,-0.0019 0.0019,0.0058 0.0038,0 0.04985,-0.139991 0.204256,-0.214808 0.345205,-0.164923 0.07578,0.02684 0.134264,0.08728 0.161127,0.158238 v -0.0013 l 0.653979,1.7452884 H 9.886503 Z"
       id="path2-7-3-7-7"
       style="stroke-width:0.0136993;fill-opacity:1;fill:currentColor;"
       sodipodi:nodetypes="cscccccccccscccccssssccsssssccccccccssccscccccccccccc"
       class="ColorScheme-Text" />
  </g>
  <g
     id="22-22-input-keyboard-battery"
     transform="translate(-22,-22.00001)">
    <rect
       style="fill:none"
       width="22"
       height="22"
       x="0"
       y="0"
       ry="0"
       id="rect15" />
    <path
       fill-rule="evenodd"
       clip-rule="evenodd"
       d="M 15.63326,17.79644 10.97308,18.999996 6.312604,17.79644 C 4.717243,17.384442 3.65,16.441485 3.65,14.974641 V 5.6780012 c 0,-1.466678 1.192006,-2.650675 2.662604,-2.655625 l 6.630102,-0.02232 c 0.367979,-0.0013 0.693307,0.321013 0.693307,0.688056 0,0.366213 -0.297753,0.665959 -0.665734,0.665734 l -6.657675,-0.0041 c -0.735303,-4.49e-4 -1.330802,0.594806 -1.330802,1.328228 v 9.2965988 c 0,0.733422 0.595499,1.328393 1.330802,1.328393 h 9.320656 c 0.7353,0 1.330947,-0.594971 1.331426,-1.328393 l -2e-6,-7.9578288 h 1.331469 c 0,-0.658524 -1.331471,-0.658483 -1.331469,0 h 1.331469 v 0 0 0 7.9578598 c 0,1.466844 -1.081463,2.413373 -2.662893,2.821798 z"
       id="path2-3-6-3-5"
       sodipodi:nodetypes="scssssssssssssscccccccss"
       style="stroke-width:0.0415551;fill-opacity:1;fill:currentColor;"
       class="ColorScheme-Text" />
    <path
       d="m 14.468152,13.318724 h -0.123854 c -0.209746,0 -0.38755,-0.130877 -0.462465,-0.311644 L 11.438635,6.6463832 c -0.002,-0.004 -0.0047,-0.007 -0.0071,-0.01098 -0.01398,-0.03495 -0.03795,-0.06291 -0.05992,-0.09387 -0.01598,-0.02297 -0.02796,-0.04893 -0.04793,-0.06894 -0.01704,-0.01704 -0.03994,-0.02696 -0.05892,-0.04201 -0.03402,-0.0239 -0.06598,-0.04986 -0.103895,-0.06491 -0.004,-0.002 -0.006,-0.0047 -0.009,-0.006 -0.02104,-0.008 -0.04201,-0.006 -0.06291,-0.01098 -0.03895,-0.009 -0.07591,-0.01997 -0.115878,-0.01997 -0.04094,0 -0.07893,0.01098 -0.117888,0.02097 -0.01997,0.0047 -0.04101,0.002 -0.06091,0.01 -0.0013,0 -0.0033,0.004 -0.004,0.004 -0.125804,0.04993 -0.231709,0.146814 -0.283656,0.282657 L 8.06341,13.007035 C 7.98949,13.187802 7.811676,13.318678 7.601936,13.318678 H 7.478083 c -0.276699,0 -0.499427,0.22374 -0.499427,0.499421 0,0.27369 0.222728,0.499434 0.499427,0.499434 h 0.819033 0.01098 1.166685 c 0.275688,0 0.499434,-0.225744 0.499434,-0.499434 0,-0.275681 -0.223746,-0.499421 -0.499434,-0.499421 h -0.09386 c -0.138846,0 -0.249717,-0.112875 -0.249717,-0.249717 0,-0.03195 0.0053,-0.06191 0.01598,-0.09091 0.0013,-0.002 -0.004,0.0033 -0.004,0.0013 l 0.253725,-0.661247 h 2.665945 l 0.283663,0.758118 c 6.66e-4,6.66e-4 0,6.66e-4 0,0.002 0.04101,0.114879 -0.007,0.240736 -0.106857,0.299654 0,0 0.004,0.0033 0.004,0.004 -0.160862,0.08289 -0.271733,0.244697 -0.271733,0.436502 0,0.273683 0.222728,0.499427 0.499427,0.499427 h 1.078789 0.03895 0.879023 c 0.27568,0 0.499427,-0.225744 0.499427,-0.499427 -5.4e-5,-0.275687 -0.2238,-0.499427 -0.499487,-0.499427 z M 9.781529,11.319018 10.47571,9.5100922 c 0.0013,-0.002 0.002,0.006 0.004,0 0.05193,-0.145816 0.212755,-0.223747 0.359569,-0.171786 0.07893,0.02796 0.139851,0.09091 0.167832,0.164822 v -0.0013 l 0.681192,1.8179138 H 9.781494 Z"
       id="path2-7-3-7-5-3"
       style="stroke-width:0.0142693;fill-opacity:1;fill:currentColor;"
       sodipodi:nodetypes="cscccccccccscccccssssccsssssccccccccssccscccccccccccc"
       class="ColorScheme-Text" />
    <path
       style="fill:#d35f5f;fill-opacity:1;stroke:none;stroke-width:0.665734"
       d="m 15.300349,2.9999962 -1.331469,3.328671 h 1.331469 v 1.997203 l 1.331468,-3.328671 h -1.331468 z"
       id="path12-6-5"
       inkscape:connector-curvature="0" />
  </g>
  <g
     id="22-22-input-caps-on"
     transform="translate(-22,9.999979)">
    <rect
       y="-1.2158202e-06"
       x="2.1582031e-07"
       height="22"
       width="22"
       id="rect964"
       style="opacity:0.00100002;fill-opacity:1;stroke:none;stroke-width:0.49066;stroke-linecap:round;stroke-linejoin:round;stroke-miterlimit:4;stroke-dasharray:none;stroke-opacity:1" />
    <path
       d="m 10.983333,2.9998487 c 0.368963,0 0.666854,0.2975193 0.666854,0.6668526 0,0.368934 -0.297891,0.6664807 -0.666854,0.6664807 -0.369377,0 -0.66685,-0.2975194 -0.66685,-0.6664807 0,-0.3693806 0.297473,-0.6668526 0.66685,-0.6668526 z"
       fill-rule="evenodd"
       id="path66-6"
       style="stroke-width:0.006758;fill-opacity:1;fill:currentColor;"
       class="ColorScheme-Text" />
    <path
       d="m 14.48326,13.333026 h -0.124027 c -0.21004,0 -0.388093,-0.13106 -0.463113,-0.312081 L 11.4495,6.6513393 c -0.002,-0.004 -0.0047,-0.007 -0.0071,-0.011 -0.014,-0.035 -0.038,-0.063 -0.06,-0.094 -0.016,-0.023 -0.028,-0.049 -0.048,-0.06904 -0.01707,-0.017067 -0.04,-0.027 -0.059,-0.042067 -0.03407,-0.023933 -0.06607,-0.049933 -0.10404,-0.065 -0.004,-0.002 -0.006,-0.00467 -0.009,-0.006 -0.02107,-0.008 -0.04207,-0.006 -0.063,-0.011 -0.039,-0.009 -0.07601,-0.02 -0.11604,-0.02 -0.041,0 -0.07904,0.011 -0.118053,0.021 -0.02,0.00467 -0.04107,0.002 -0.061,0.01 -0.0013,0 -0.0033,0.004 -0.004,0.004 -0.12598,0.05 -0.232033,0.14702 -0.284053,0.2830534 l -2.44664,6.3696133 c -0.07402,0.18102 -0.252087,0.31208 -0.46212,0.31208 H 7.483427 c -0.277087,0 -0.500127,0.224053 -0.500127,0.50012 0,0.274073 0.22304,0.500133 0.500127,0.500133 h 0.82018 0.011 1.16832 c 0.276073,0 0.500133,-0.22606 0.500133,-0.500133 0,-0.276067 -0.22406,-0.50012 -0.500133,-0.50012 h -0.09399 c -0.13904,0 -0.250067,-0.113033 -0.250067,-0.250067 0,-0.032 0.0053,-0.062 0.016,-0.09103 0.0013,-0.002 -0.004,0.0033 -0.004,0.0013 l 0.25408,-0.662173 h 2.66968 l 0.28406,0.75918 c 6.67e-4,6.66e-4 0,6.66e-4 0,0.002 0.04107,0.11504 -0.007,0.241073 -0.107007,0.300073 0,0 0.004,0.0033 0.004,0.004 -0.161086,0.08301 -0.272113,0.24504 -0.272113,0.437114 0,0.274066 0.22304,0.500126 0.500127,0.500126 h 1.0803 0.039 0.880253 c 0.276067,0 0.500127,-0.22606 0.500127,-0.500126 -5.4e-5,-0.276074 -0.224114,-0.500127 -0.500187,-0.500127 z M 9.790073,11.330519 10.485227,9.5190593 c 0.0013,-0.002 0.002,0.006 0.004,0 0.052,-0.14602 0.213053,-0.22406 0.360073,-0.1720266 0.07904,0.028 0.140047,0.09104 0.168067,0.1650533 v -0.00133 l 0.682146,1.82046 h -1.90948 z"
       id="path2-7-3-2"
       style="stroke-width:0.0142893;fill-opacity:1;fill:currentColor;"
       sodipodi:nodetypes="cscccccccccscccccssssccsssssccccccccssccscccccccccccc"
       class="ColorScheme-Text" />
    <path
       fill-rule="evenodd"
       clip-rule="evenodd"
       d="M 15.650044,17.794606 10.983337,18.999848 6.316333,17.794606 C 4.718738,17.382031 3.65,16.437754 3.65,14.968855 V 5.659194 c 0,-1.4687327 1.193667,-2.6593453 2.666333,-2.6593453 h 2.000294 c 0.368496,0 0.666666,0.297404 0.666666,0.6649606 0,0.366726 -0.29817,0.664296 -0.666666,0.664296 H 6.316333 c -0.736333,0 -1.332666,0.5956393 -1.332666,1.3300887 v 9.30962 c 0,0.734449 0.596333,1.330254 1.332666,1.330254 h 9.333711 c 0.736331,0 1.333291,-0.595805 1.333291,-1.330254 v -9.30962 c 0,-0.734408 -0.59696,-1.3300467 -1.333291,-1.3300467 h -2.000666 c -0.367166,0 -0.666665,-0.29757 -0.666665,-0.664296 0,-0.3675573 0.299499,-0.6649613 0.666665,-0.6649613 h 2.000666 c 1.472621,0 2.666623,1.1906126 2.666623,2.6593453 v 9.3096197 c 0,1.468899 -1.082978,2.416753 -2.666623,2.825751 z m 0,-14.794716 z"
       id="path2-3-9"
       sodipodi:nodetypes="scssssssssssssssssssssssccccccccc"
       style="stroke-width:0.0416133;fill-opacity:1;fill:currentColor;"
       class="ColorScheme-Text" />
  </g>
  <g
     id="22-22-input-num-on"
     transform="translate(-22,41.999976)">
    <rect
       style="opacity:0.00100002;fill-opacity:1;stroke:none;stroke-width:0.49066;stroke-linecap:round;stroke-linejoin:round;stroke-miterlimit:4;stroke-dasharray:none;stroke-opacity:1"
       id="rect972"
       width="22"
       height="22"
       x="0"
       y="0" />
    <path
       d="M 12.766557,12.833121 H 11.76661 V 7.0833887 c 0,-0.1990533 -0.07902,-0.3897406 -0.219647,-0.5303646 C 11.406343,6.4124008 11.215491,6.3333808 11.016604,6.3333808 H 9.266658 c -0.268027,0 -0.51562,0.1429673 -0.649547,0.3750012 -0.133927,0.2320333 -0.133927,0.5179733 0,0.7500066 0.133927,0.2320333 0.381527,0.3749999 0.649547,0.3749999 h 0.999946 V 12.833548 H 9.266658 v -1.73e-4 c -0.268027,0 -0.51562,0.142966 -0.649547,0.375006 -0.133927,0.232034 -0.133927,0.517974 0,0.75 0.133927,0.232034 0.381527,0.375 0.649547,0.375 h 3.500066 -1.67e-4 c 0.268019,0 0.515613,-0.142966 0.649539,-0.375 0.133934,-0.232033 0.133934,-0.517973 0,-0.75 -0.133926,-0.23204 -0.381526,-0.375006 -0.649539,-0.375006 z"
       id="path6-0"
       style="stroke-width:0.0428573;fill-opacity:1;fill:currentColor;"
       class="ColorScheme-Text" />
    <path
       d="m 10.983332,3 c 0.368963,0 0.666853,0.2975193 0.666853,0.6668526 0,0.3689339 -0.29789,0.6664805 -0.666853,0.6664805 -0.369377,0 -0.66685,-0.2975193 -0.66685,-0.6664805 C 10.316482,3.297472 10.613955,3 10.983332,3 Z"
       fill-rule="evenodd"
       id="path66-2-9"
       style="stroke-width:0.006758;fill-opacity:1;fill:currentColor;"
       class="ColorScheme-Text" />
    <path
       fill-rule="evenodd"
       clip-rule="evenodd"
       d="m 15.650042,17.794759 -4.666707,1.20524 -4.667002,-1.20524 C 4.718738,17.382179 3.65,16.437906 3.65,14.969007 V 5.6593449 C 3.65,4.1906125 4.843666,3 6.316333,3 h 2.000293 c 0.368496,0 0.666666,0.297404 0.666666,0.6649606 0,0.3667259 -0.29817,0.6642958 -0.666666,0.6642958 H 6.316333 c -0.736333,0 -1.332666,0.5956393 -1.332666,1.3300885 v 9.3096211 c 0,0.734447 0.596333,1.330253 1.332666,1.330253 h 9.333709 c 0.73633,0 1.333291,-0.595806 1.333291,-1.330253 V 5.6593449 c 0,-0.7344079 -0.596961,-1.3300465 -1.333291,-1.3300465 h -2.000666 c -0.367166,0 -0.666665,-0.2975699 -0.666665,-0.6642958 0,-0.3675573 0.299499,-0.6649613 0.666665,-0.6649613 h 2.000666 c 1.47262,0 2.666622,1.1906125 2.666622,2.6593449 v 9.3096208 c 0,1.468899 -1.082977,2.416752 -2.666622,2.825752 z m 0,-14.7947177 z"
       id="path2-3-1-3"
       sodipodi:nodetypes="scssssssssssssssssssssssccccccccc"
       style="stroke-width:0.0416133;fill-opacity:1;fill:currentColor;"
       class="ColorScheme-Text" />
  </g>
</svg>
