<?xml version="1.0" encoding="UTF-8" standalone="no"?>
<svg
   width="32"
   height="32"
   version="1"
   id="svg12"
   sodipodi:docname="juk.svg"
   inkscape:version="1.2.1 (9c6d41e410, 2022-07-14)"
   xmlns:inkscape="http://www.inkscape.org/namespaces/inkscape"
   xmlns:sodipodi="http://sodipodi.sourceforge.net/DTD/sodipodi-0.dtd"
   xmlns="http://www.w3.org/2000/svg"
   xmlns:svg="http://www.w3.org/2000/svg"
   xmlns:rdf="http://www.w3.org/1999/02/22-rdf-syntax-ns#"
   xmlns:cc="http://creativecommons.org/ns#"
   xmlns:dc="http://purl.org/dc/elements/1.1/">
  <style
     id="current-color-scheme"
     type="text/css">.ColorScheme-Text { color:#eff0f1; }
</style>
  <metadata
     id="metadata18">
    <rdf:RDF>
      <cc:Work
         rdf:about="">
        <dc:format>image/svg+xml</dc:format>
        <dc:type
           rdf:resource="http://purl.org/dc/dcmitype/StillImage" />
      </cc:Work>
    </rdf:RDF>
  </metadata>
  <defs
     id="defs16" />
  <sodipodi:namedview
     pagecolor="#ffffff"
     bordercolor="#000000"
     borderopacity="1"
     objecttolerance="10"
     gridtolerance="10"
     guidetolerance="10"
     inkscape:pageopacity="0"
     inkscape:pageshadow="2"
     inkscape:window-width="1920"
     inkscape:window-height="1008"
     id="namedview14"
     showgrid="false"
     inkscape:zoom="9.8125"
     inkscape:cx="30.573248"
     inkscape:cy="17.273885"
     inkscape:window-x="0"
     inkscape:window-y="0"
     inkscape:window-maximized="1"
     inkscape:current-layer="svg12"
     inkscape:document-rotation="0"
     inkscape:showpageshadow="true"
     inkscape:lockguides="false"
     inkscape:pagecheckerboard="0"
     inkscape:deskcolor="#cccccc">
    <inkscape:grid
       type="xygrid"
       id="grid865"
       originx="0"
       originy="0" />
  </sodipodi:namedview>
  <g
     id="juk">
    <rect
       style="opacity:0.00100002;fill:#eff0f1;fill-opacity:1"
       width="32"
       height="32"
       x="0"
       y="0"
       id="rect7" />
    <path
       d="m 19.078561,15.999719 c 0,-1.587645 -1.29432,-2.878952 -2.885231,-2.878952 -1.590922,0 -2.885246,1.291307 -2.885246,2.878952 0,1.587636 1.294324,2.879294 2.885246,2.879294 1.590911,0 2.885231,-1.291658 2.885231,-2.879294 z m -4.80508,0 c 0,-1.056048 0.861292,-1.915638 1.919849,-1.915638 1.058546,0 1.919837,0.859522 1.919837,1.915638 0,1.056387 -0.861291,1.915886 -1.919837,1.915886 -1.058557,0 -1.919849,-0.859519 -1.919849,-1.915886 z"
       id="path70"
       style="fill:currentColor;fill-opacity:1;stroke-width:0.0861061"
       class="ColorScheme-Text" />
    <path
       d="m 16.066017,10.992577 c 0.266669,-0.0077 0.477111,-0.228146 0.470367,-0.493938 -0.007,-0.262079 -0.221546,-0.4694 -0.482831,-0.4694 h -0.01214 c -0.717846,0.01849 -1.422575,0.164979 -2.094302,0.436481 -0.670377,0.270826 -1.277771,0.654206 -1.806416,1.139402 -0.196621,0.180105 -0.20875,0.484861 -0.02861,0.680756 0.0953,0.103483 0.225262,0.155574 0.35556,0.155574 0.116837,0 0.234348,-0.04202 0.326598,-0.127014 0.443102,-0.406905 0.952565,-0.728805 1.51516,-0.95593 0.563641,-0.227465 1.154596,-0.350786 1.756583,-0.365911 z"
       id="path72"
       style="fill:currentColor;fill-opacity:1;stroke-width:0.0861061"
       class="ColorScheme-Text" />
    <path
       d="m 16.973654,9.0064196 c 0.268351,0.02855 0.504047,-0.160952 0.533676,-0.4253863 0.02966,-0.2644463 -0.161281,-0.5030193 -0.426265,-0.5325791 -1.31311,-0.1458186 -2.663276,0.038652 -3.897343,0.5376091 -1.233983,0.4986492 -2.331001,1.3010351 -3.173392,2.3211257 -0.1697046,0.204961 -0.1403962,0.509056 0.0656,0.677726 0.08988,0.07391 0.198314,0.110209 0.306394,0.110209 0.139392,0 0.277781,-0.05984 0.372725,-0.175391 0.740405,-0.896134 1.705384,-1.602096 2.790937,-2.040614 1.085895,-0.4391751 2.271433,-0.6031467 3.42766,-0.4727748 z"
       id="path74"
       style="fill:currentColor;fill-opacity:1;stroke-width:0.0861061"
       class="ColorScheme-Text" />
    <path
       d="m 16.323738,21.006848 c -0.266669,0.007 -0.477112,0.228148 -0.470368,0.493938 0.007,0.262089 0.221546,0.469399 0.482162,0.469399 h 0.01283 c 0.717505,-0.01849 1.421193,-0.165649 2.091631,-0.436469 0.67172,-0.270818 1.280783,-0.655218 1.808729,-1.141127 0.195963,-0.18077 0.208428,-0.484858 0.02797,-0.680759 -0.180472,-0.195219 -0.485519,-0.207319 -0.682164,-0.0279 -0.442759,0.407248 -0.952547,0.729148 -1.516527,0.956957 -0.563309,0.22781 -1.153562,0.350789 -1.754257,0.365919 z"
       id="path76"
       style="fill:currentColor;fill-opacity:1;stroke-width:0.0861061"
       class="ColorScheme-Text" />
    <path
       d="m 21.63082,20.479559 c -0.740402,0.896478 -1.705388,1.602096 -2.791631,2.040615 -1.085201,0.439839 -2.270046,0.604138 -3.426976,0.472769 -0.266328,-0.0272 -0.503365,0.16128 -0.533667,0.425379 -0.02966,0.264439 0.161281,0.503008 0.426267,0.532578 C 15.597404,23.98349 15.89202,24 16.186595,24 c 1.027973,0 2.056199,-0.198589 3.014868,-0.586679 1.233988,-0.498297 2.331345,-1.301024 3.173737,-2.321113 0.169698,-0.204969 0.140409,-0.509059 -0.06564,-0.677738 -0.205724,-0.169351 -0.509778,-0.13978 -0.678795,0.0652 z"
       id="path78"
       style="fill:currentColor;fill-opacity:1;stroke-width:0.0861061"
       class="ColorScheme-Text" />
    <path
       d="m 15.999688,27.99984 h -0.749999 c -0.414564,0 -0.749955,-0.336187 -0.749955,-0.75 0,-0.414562 0.335391,-0.75 0.749955,-0.75 h 0.749999 c 5.798859,0 10.499812,-4.701375 10.499812,-10.500094 0,-5.798531 -4.700953,-10.499906 -10.499812,-10.499906 -5.798484,0 -10.499859,4.701375 -10.499859,10.499906 0,3.435141 1.657125,6.476203 4.206983,8.391469 l -0.0076,0.01095 c 0.1812745,0.13704 0.300666,0.352331 0.300666,0.597675 0,0.413766 -0.33544,0.75 -0.750001,0.75 -0.168845,0 -0.322266,-0.05859 -0.447891,-0.152344 l -0.0018,0.0029 C 5.885922,23.411297 4,19.925719 4,15.999796 4,9.37214 9.372203,3.99989 15.999813,3.99989 c 6.626859,0 12.000186,5.37225 12.000186,11.999906 0,6.627141 -5.373328,12.000094 -12.000186,12.000094 z m -3.749578,-1.5 c 0.413438,0 0.749249,0.335438 0.749249,0.75 0,0.413813 -0.335811,0.75 -0.74925,0.75 -0.414562,0 -0.75,-0.336187 -0.75,-0.75 0,-0.414562 0.335438,-0.75 0.750001,-0.75 z M 26.4995,15.999746 v 0 0 0 0 0 l 0.0662,-0.01523 -0.06322,0.01455 0.0114,-0.01275 0.0012,0.0075 0.05654,-0.02776 -0.0822,0.02895 0.02914,0.0048 0.0098,0.0013 -0.02889,-0.0013 v 0 l 0.0191,-4.6e-5 0.0098,0.0013 0.0373,-0.01652 z"
       id="path2"
       sodipodi:nodetypes="ssssssssccssccssssssssscccccccccccccccccccc"
       style="fill:currentColor;fill-opacity:1;stroke-width:0.046875;enable-background:new"
       class="ColorScheme-Text" />
  </g>
  <g
     id="22-22-juk"
     transform="translate(32,10)">
    <rect
       style="opacity:0.00100002;fill:#eff0f1;fill-opacity:1"
       width="22"
       height="22"
       x="0"
       y="0"
       id="rect2" />
    <path
       d="m 12.836633,10.999846 c 0,-0.992282 -0.808965,-1.7993579 -1.803276,-1.7993579 -0.994334,0 -1.8032978,0.8070759 -1.8032978,1.7993579 0,0.992276 0.8089638,1.79956 1.8032978,1.79956 0.994311,0 1.803276,-0.807284 1.803276,-1.79956 z m -3.0031948,0 c 0,-0.660036 0.5383158,-1.1972824 1.1999188,-1.1972824 0.661591,0 1.199901,0.5372034 1.199901,1.1972824 0,0.66024 -0.53831,1.197428 -1.199901,1.197428 -0.661603,0 -1.1999188,-0.537206 -1.1999188,-1.197428 z"
       id="path70-6"
       style="fill:currentColor;fill-opacity:1;stroke-width:0.0538161"
       class="ColorScheme-Text" />
    <path
       d="m 10.953775,7.8703634 c 0.166678,-0.0048 0.298193,-0.1425902 0.293988,-0.3087092 -0.0051,-0.1637996 -0.138473,-0.2933759 -0.301775,-0.2933759 h -0.0072 C 10.489757,7.2798366 10.049291,7.3713861 9.6294598,7.5410803 9.2104716,7.7103501 8.8308504,7.9499563 8.5004476,8.2532087 8.3775554,8.3657739 8.3699734,8.5562515 8.482606,8.6786849 c 0.059553,0.06468 0.140793,0.097236 0.2222307,0.097236 0.073029,0 0.1464645,-0.02628 0.2041234,-0.079371 C 9.1858999,8.442228 9.5043121,8.241043 9.8559401,8.0990832 10.208212,7.9569174 10.577563,7.8798426 10.953807,7.8703886 Z"
       id="path72-7"
       style="fill:currentColor;fill-opacity:1;stroke-width:0.0538161"
       class="ColorScheme-Text" />
    <path
       d="m 11.521059,6.6290163 c 0.167709,0.0178 0.315024,-0.1005961 0.333541,-0.2658678 0.01852,-0.1652854 -0.100801,-0.3143989 -0.266414,-0.3328724 -0.8207,-0.091127 -1.664551,0.024191 -2.4358488,0.3360078 -0.7712468,0.3116653 -1.4568859,0.813156 -1.9833826,1.4507117 -0.1060652,0.1281016 -0.087743,0.3181615 0.041,0.4235845 0.05622,0.04622 0.1239514,0.068856 0.1914982,0.068856 0.087128,0 0.1736163,-0.03742 0.2329592,-0.1096178 C 8.0971616,7.6397354 8.7002802,7.1985068 9.3787582,6.9244315 10.05744,6.6499412 10.7984,6.5474567 11.521054,6.6289411 Z"
       id="path74-5"
       style="fill:currentColor;fill-opacity:1;stroke-width:0.0538161"
       class="ColorScheme-Text" />
    <path
       d="m 11.114861,14.12931 c -0.166675,0.005 -0.298199,0.142596 -0.293993,0.308717 0.005,0.163808 0.138478,0.293375 0.301365,0.293375 h 0.0075 c 0.44844,-0.0115 0.888245,-0.103529 1.307274,-0.272794 0.419828,-0.169253 0.800491,-0.409517 1.130456,-0.71321 0.122485,-0.112981 0.130275,-0.303031 0.0175,-0.425475 -0.112796,-0.122014 -0.30345,-0.129566 -0.426357,-0.01746 -0.276724,0.25453 -0.595342,0.455714 -0.947833,0.5981 -0.352069,0.142389 -0.720981,0.219241 -1.096414,0.2287 z"
       id="path76-3"
       style="fill:currentColor;fill-opacity:1;stroke-width:0.0538161"
       class="ColorScheme-Text" />
    <path
       d="m 14.431795,13.799761 c -0.462745,0.560301 -1.065869,1.001316 -1.744774,1.275394 -0.678254,0.274899 -1.41878,0.377584 -2.141865,0.295474 -0.166468,-0.017 -0.314607,0.100802 -0.333551,0.265862 -0.01853,0.165282 0.100801,0.314387 0.266426,0.332869 C 10.660886,15.98979 10.845039,16 11.029146,16 c 0.642485,0 1.285122,-0.124123 1.884303,-0.366676 0.771235,-0.311439 1.457096,-0.813151 1.983591,-1.450699 0.106055,-0.128107 0.08771,-0.318171 -0.04104,-0.423584 -0.128569,-0.105851 -0.318608,-0.08742 -0.424239,0.04069 z"
       id="path78-5"
       style="fill:currentColor;fill-opacity:1;stroke-width:0.0538161"
       class="ColorScheme-Text" />
    <path
       d="m 10.999826,19 h -0.5 c -0.276375,0 -0.499969,-0.224125 -0.499969,-0.5 0,-0.276375 0.223594,-0.5 0.499969,-0.5 h 0.5 c 3.865906,0 6.999875,-3.13425 6.999875,-7.000063 C 17.999701,7.13425 14.865732,4 10.999826,4 7.13417,4 3.99992,7.13425 3.99992,10.999937 c 0,2.290094 1.10475,4.317469 2.804655,5.594313 l -0.0051,0.0073 C 6.920324,16.69291 6.999918,16.836437 6.999918,17 c 0,0.275844 -0.223626,0.5 -0.5,0.5 -0.112563,0 -0.214844,-0.03906 -0.298594,-0.101563 l -0.0012,0.0019 C 4.257281,15.940938 3,13.617219 3,10.999937 3,6.5815 6.581469,3 10.999875,3 15.417781,3 19,6.5815 19,10.999937 19,15.418031 15.417781,19 10.999875,19 Z M 8.500107,18 c 0.275625,0 0.4995,0.223625 0.4995,0.5 0,0.275875 -0.223875,0.5 -0.4995,0.5 -0.276375,0 -0.5,-0.224125 -0.5,-0.5 0,-0.276375 0.223625,-0.5 0.5,-0.5 z m 9.499594,-7.000063 v 0 0 0 0 0 l 0.04413,-0.01015 -0.04215,0.0097 0.0076,-0.0085 8e-4,0.005 0.03769,-0.01851 -0.0548,0.0193 0.01943,0.0032 0.0065,8.67e-4 -0.01926,-8.67e-4 v 0 l 0.01273,-3.1e-5 0.0065,8.67e-4 0.02487,-0.01101 z"
       id="path2-3"
       sodipodi:nodetypes="ssssssssccssccssssssssscccccccccccccccccccc"
       style="fill:currentColor;fill-opacity:1;stroke-width:0.03125;enable-background:new"
       class="ColorScheme-Text" />
  </g>
</svg>
