<?xml version="1.0" encoding="UTF-8" standalone="no"?>
<svg
   style="enable-background:new"
   width="32"
   height="32"
   version="1.1"
   id="svg44"
   sodipodi:docname="kaffeine.svg"
   inkscape:version="1.1.2 (0a00cf5339, 2022-02-04)"
   xmlns:inkscape="http://www.inkscape.org/namespaces/inkscape"
   xmlns:sodipodi="http://sodipodi.sourceforge.net/DTD/sodipodi-0.dtd"
   xmlns="http://www.w3.org/2000/svg"
   xmlns:svg="http://www.w3.org/2000/svg">
  <style
     id="current-color-scheme"
     type="text/css">.ColorScheme-Text { color:#eceff4; }
</style>
  <sodipodi:namedview
     id="namedview46"
     pagecolor="#ffffff"
     bordercolor="#000000"
     borderopacity="1"
     inkscape:pageshadow="2"
     inkscape:pageopacity="0.0"
     inkscape:pagecheckerboard="0"
     showgrid="false"
     inkscape:zoom="7.2920387"
     inkscape:cx="30.581297"
     inkscape:cy="12.479363"
     inkscape:window-width="1920"
     inkscape:window-height="1013"
     inkscape:window-x="0"
     inkscape:window-y="0"
     inkscape:window-maximized="1"
     inkscape:current-layer="svg44"
     inkscape:lockguides="false"
     inkscape:showpageshadow="false">
    <inkscape:grid
       type="xygrid"
       id="grid1458"
       originx="0"
       originy="0" />
  </sodipodi:namedview>
  <defs
     id="defs4">
    <linearGradient
       id="linearGradient5606"
       inkscape:swatch="solid">
      <stop
         id="stop5608"
         offset="0"
         style="stop-color:#000000" />
    </linearGradient>
  </defs>
  <g
     id="kaffeine">
    <rect
       width="32"
       height="32"
       x="0"
       y="0"
       style="opacity:0.00100002"
       id="rect11" />
    <path
       d="M 26.001,28 H 11 c -0.5515,0 -0.999,-0.384643 -0.999,-0.857143 0,-0.473786 0.4475,-0.857571 0.999,-0.857571 h 15.001 c 1.1045,0 2.3,-0.767572 2.3,-1.714286 V 7.428143 c 0,-0.946714 -1.1955,-1.713857 -2.3,-1.713857 H 6.0005 C 4.89625,5.714286 3.7,6.481429 3.7,7.428143 V 23.713857 C 3.7,24.187643 3.553,24.571 3.00025,24.571 2.4485,24.571 2,24.187643 2,23.713857 V 7.428143 C 2,5.534714 3.79175,4 6.0005,4 H 26.001 C 28.2095,4 30,5.534714 30,7.428143 V 24.571 C 30,26.464429 28.2095,28 26.001,28 Z M 7.00075,26.285286 c 0.5515,0 0.90025,0.383785 0.90025,0.857571 C 7.901,27.615357 7.55225,28 7.00075,28 6.448,28 6.1,27.615357 6.1,27.142857 c 0,-0.473786 0.348,-0.857571 0.90075,-0.857571 z"
       id="path2"
       style="stroke-width:0.0578637;fill-opacity:1;fill:currentColor;"
       sodipodi:nodetypes="ssssssssssssssssssssssss"
       class="ColorScheme-Text" />
    <path
       d="m 21.992658,17.31046 -8.159932,4.92228 c -0.07459,0.05893 -0.167809,0.09563 -0.270347,0.09563 -0.241833,0 -0.437607,-0.195668 -0.437607,-0.437494 0,-0.165351 0.09379,-0.307619 0.229104,-0.382181 l 8.185452,-4.975917 c 0.0443,-0.02835 0.08786,-0.06061 0.127096,-0.09989 0.277702,-0.277704 0.277702,-0.728022 0,-1.005616 -0.04319,-0.04318 -0.09081,-0.07849 -0.141421,-0.108946 L 12.610792,9.90002 C 12.494479,9.84007 12.363524,9.80521 12.224236,9.80521 c -0.468994,0 -0.849576,0.380242 -0.849576,0.849164 v 9.43182 c 0,0.241829 -0.195774,0.437499 -0.437595,0.437499 C 10.695679,20.523694 10.5,20.328024 10.5,20.086195 V 10.635669 C 10.5,9.693918 11.263274,8.93 12.205555,8.93 c 0.309121,0 0.597516,0.084047 0.847657,0.2277095 l 8.935811,5.3900135 c 0.456723,0.290848 0.760919,0.800451 0.760919,1.382249 0,0.5802 -0.302476,1.088598 -0.757284,1.380403 z M 11.81216,22.055451 c 0.241834,0 0.4375,0.195666 0.4375,0.4375 0,0.241386 -0.195666,0.437049 -0.4375,0.437049 -0.241274,0 -0.4375,-0.195662 -0.4375,-0.437049 0,-0.241834 0.196226,-0.4375 0.4375,-0.4375 z"
       id="path2-3"
       style="stroke-width:0.0273435;fill-opacity:1;fill:currentColor;"
       class="ColorScheme-Text" />
  </g>
  <g
     id="22-22-kaffeine">
    <path
       style="opacity:0"
       d="m 32,10 h 22 c 0,0 0,0 0,0 v 22 c 0,0 0,0 0,0 H 32 c 0,0 0,0 0,0 V 10 c 0,0 0,0 0,0 z"
       id="path6" />
    <path
       fill-rule="evenodd"
       clip-rule="evenodd"
       d="M 49.700667,29 H 39.7 c -0.367667,0 -0.666,-0.256429 -0.666,-0.571429 0,-0.315857 0.298333,-0.571714 0.666,-0.571714 H 49.700667 C 50.437,27.856857 51.234,27.345143 51.234,26.714 V 15.285429 c 0,-0.631143 -0.797,-1.142572 -1.533333,-1.142572 H 36.367 c -0.736167,0 -1.533667,0.511429 -1.533667,1.142572 v 10.857142 c 0,0.315858 -0.098,0.571429 -0.4665,0.571429 C 33.999,26.714 33.7,26.458429 33.7,26.142571 V 15.285429 C 33.7,14.023143 34.8945,13 36.367,13 h 13.333667 c 1.472333,0 2.666,1.023143 2.666,2.285429 V 26.714 c 0,1.262286 -1.193667,2.286 -2.666,2.286 z M 37.033833,27.856857 c 0.367667,0 0.600167,0.255857 0.600167,0.571714 0,0.315 -0.2325,0.571429 -0.600167,0.571429 -0.3685,0 -0.6005,-0.256429 -0.6005,-0.571429 0,-0.315857 0.232,-0.571714 0.6005,-0.571714 z"
       id="path2-36"
       style="enable-background:new;stroke-width:0.0385758;fill-opacity:1;fill:currentColor;"
       sodipodi:nodetypes="ssssssssssssssssssssssss"
       class="ColorScheme-Text" />
    <path
       d="m 47.028439,21.87364 -5.439955,3.28152 c -0.04973,0.03929 -0.111873,0.06375 -0.180231,0.06375 -0.161222,0 -0.291738,-0.130445 -0.291738,-0.291662 0,-0.110234 0.06253,-0.20508 0.152736,-0.254788 l 5.456968,-3.317278 c 0.02953,-0.0189 0.05857,-0.04041 0.08473,-0.06659 0.185135,-0.185136 0.185135,-0.485348 0,-0.670411 -0.02879,-0.02879 -0.06054,-0.05233 -0.09428,-0.07263 l -5.942808,-3.612204 c -0.07754,-0.03997 -0.164845,-0.06321 -0.257704,-0.06321 -0.312662,0 -0.566384,0.253495 -0.566384,0.566109 v 6.28788 c 0,0.16122 -0.130516,0.291666 -0.29173,0.291666 -0.160924,10e-7 -0.291376,-0.130446 -0.291376,-0.291665 v -6.300351 c 0,-0.627834 0.508849,-1.137112 1.137036,-1.137112 0.206081,0 0.398344,0.05603 0.565105,0.151806 l 5.957207,3.593342 c 0.304482,0.193899 0.50728,0.533634 0.50728,0.9215 0,0.3868 -0.201651,0.725732 -0.504856,0.920268 z m -6.786999,3.163327 c 0.161223,0 0.291667,0.130444 0.291667,0.291667 0,0.160924 -0.130444,0.291366 -0.291667,0.291366 -0.160849,0 -0.291667,-0.130441 -0.291667,-0.291366 0,-0.161223 0.130818,-0.291667 0.291667,-0.291667 z"
       id="path2-3-7"
       style="enable-background:new;stroke-width:0.018229;fill-opacity:1;fill:currentColor;"
       class="ColorScheme-Text" />
  </g>
</svg>
