<?xml version="1.0" encoding="UTF-8" standalone="no"?>
<svg
   width="32"
   height="32"
   version="1"
   id="svg12"
   sodipodi:docname="kate.svg"
   inkscape:version="1.1.2 (0a00cf5339, 2022-02-04)"
   xmlns:inkscape="http://www.inkscape.org/namespaces/inkscape"
   xmlns:sodipodi="http://sodipodi.sourceforge.net/DTD/sodipodi-0.dtd"
   xmlns="http://www.w3.org/2000/svg"
   xmlns:svg="http://www.w3.org/2000/svg"
   xmlns:rdf="http://www.w3.org/1999/02/22-rdf-syntax-ns#"
   xmlns:cc="http://creativecommons.org/ns#"
   xmlns:dc="http://purl.org/dc/elements/1.1/">
  <style
     id="current-color-scheme"
     type="text/css">.ColorScheme-Highlight { color:#009eff; }
.ColorScheme-Text { color:#eceff4; }
</style>
  <metadata
     id="metadata18">
    <rdf:RDF>
      <cc:Work
         rdf:about="">
        <dc:format>image/svg+xml</dc:format>
        <dc:type
           rdf:resource="http://purl.org/dc/dcmitype/StillImage" />
      </cc:Work>
    </rdf:RDF>
  </metadata>
  <defs
     id="defs16" />
  <sodipodi:namedview
     pagecolor="#ffffff"
     bordercolor="#000000"
     borderopacity="1"
     objecttolerance="10"
     gridtolerance="10"
     guidetolerance="10"
     inkscape:pageopacity="0"
     inkscape:pageshadow="2"
     inkscape:window-width="1920"
     inkscape:window-height="1013"
     id="namedview14"
     showgrid="false"
     inkscape:zoom="9.8125003"
     inkscape:cx="28.229298"
     inkscape:cy="13.961783"
     inkscape:window-x="0"
     inkscape:window-y="0"
     inkscape:window-maximized="1"
     inkscape:current-layer="svg12"
     inkscape:document-rotation="0"
     inkscape:showpageshadow="false"
     inkscape:lockguides="true"
     inkscape:pagecheckerboard="0">
    <inkscape:grid
       type="xygrid"
       id="grid1003"
       originx="0"
       originy="0" />
  </sodipodi:namedview>
  <g
     id="kate">
    <rect
       style="opacity:0.00100002"
       width="32"
       height="32"
       x="0"
       y="0"
       id="rect7" />
    <path
       style="stroke-opacity:1;stroke-dasharray:none;stroke-miterlimit:4;stroke-linejoin:miter;stroke-linecap:butt;stroke-width:0.043999;stroke:none;fill-opacity:1;fill:currentColor;"
       d="M 13.141563,16.395058 C 12.609476,14.628642 9.602608,15.057281 9.1,15.018931 9.664121,14.7389 10.173923,14.508079 11.33688,13.66561 c 2.240397,-1.62294 4.612345,-1.268997 5.800161,-0.624488 -3.247313,0.123443 -2.628672,1.892576 -2.150379,2.824742 -0.60826,0.176679 -1.568422,0.44339 -1.845099,0.529194 z"
       id="path905"
       inkscape:connector-curvature="0"
       class="ColorScheme-Text" />
    <path
       sodipodi:nodetypes="cssscccccsssc"
       inkscape:connector-curvature="0"
       id="path907"
       d="m 21.157276,13.964383 c -1.169378,1.544582 -3.113558,3.631419 -5.241341,3.906306 -2.127805,0.274893 -4.156301,-0.02976 -4.626193,1.555053 -0.432718,1.45935 1.089203,2.821853 2.667687,2.493486 1.686335,-0.350825 1.322144,-2.262158 0.399793,-3.563724 0.700613,-0.04007 0.570287,-0.02986 1.758384,-0.08968 1.770894,1.509511 2.357897,1.939888 5.451762,4.142258 -2.384205,-0.249703 -3.251928,-0.478985 -4.961977,-1.501854 0.442995,1.111956 1.389831,3.635631 1.594929,5.593772 -0.986273,-1.417216 -1.360195,-1.938052 -2.888687,-2.960479 -1.957903,-1.309642 -3.543575,-1.353982 -4.461351,-3.283515 -0.915785,-1.925359 0.296379,-3.312286 2.46547,-3.912912 3.099752,-0.858348 5.770637,-1.672148 7.841524,-2.378724 z"
       style="fill:#e6e6e6;fill-opacity:1;stroke:none;stroke-width:0.043999;stroke-linecap:butt;stroke-linejoin:miter;stroke-miterlimit:4;stroke-dasharray:none;stroke-opacity:1" />
    <path
       sodipodi:nodetypes="cccc"
       inkscape:connector-curvature="0"
       id="path909"
       d="m 14.357222,18.355504 c 0.700613,-0.04007 0.570287,-0.02986 1.758384,-0.08968 1.770894,1.509511 2.357897,1.939888 5.451762,4.142258 -3.109761,-0.222461 -5.462694,-1.139632 -7.210146,-4.052588 z"
       style="fill:#e6e6e6;fill-opacity:1;stroke:none;stroke-width:0.043999;stroke-linecap:butt;stroke-linejoin:miter;stroke-miterlimit:4;stroke-dasharray:none;stroke-opacity:1" />
    <path
       style="stroke-opacity:1;stroke-dasharray:none;stroke-miterlimit:4;stroke-linejoin:miter;stroke-linecap:butt;stroke-width:0.043999;stroke:none;fill-opacity:1;fill:currentColor;"
       d="m 21.157276,13.964383 c -1.169378,1.544582 -3.113558,3.631419 -5.241341,3.906306 -2.127805,0.274893 -4.156301,-0.02976 -4.626193,1.555053 -0.432718,1.45935 1.089203,2.821853 2.667687,2.493486 1.686335,-0.350825 1.322144,-2.262158 0.399793,-3.563724 0.700613,-0.04007 0.570287,-0.02986 1.758384,-0.08968 1.770894,1.509511 2.357897,1.939888 5.451762,4.142258 -2.384205,-0.249703 -3.251928,-0.478985 -4.961977,-1.501854 0.442995,1.111956 1.389831,3.635631 1.594929,5.593772 -0.986273,-1.417216 -1.360195,-1.938052 -2.888687,-2.960479 -1.957903,-1.309642 -3.543575,-1.353982 -4.461351,-3.283515 -0.915785,-1.925359 0.296379,-3.312286 2.46547,-3.912912 3.099752,-0.858348 5.770637,-1.672148 7.841524,-2.378724 z"
       id="path911"
       inkscape:connector-curvature="0"
       sodipodi:nodetypes="cssscccccsssc"
       class="ColorScheme-Text" />
    <path
       style="stroke-opacity:1;stroke-dasharray:none;stroke-miterlimit:4;stroke-linejoin:miter;stroke-linecap:butt;stroke-width:0.043999;stroke:none;fill-opacity:1;fill:currentColor;"
       d="m 14.357222,18.355504 c 0.700613,-0.04007 0.570287,-0.02986 1.758384,-0.08968 1.770894,1.509511 2.357897,1.939888 5.451762,4.142258 -3.109761,-0.222461 -5.462694,-1.139632 -7.210146,-4.052588 z"
       id="path913"
       inkscape:connector-curvature="0"
       sodipodi:nodetypes="cccc"
       class="ColorScheme-Text" />
    <path
       sodipodi:nodetypes="ccccc"
       inkscape:connector-curvature="0"
       id="path915"
       d="m 9.1,15.018931 c 0.564121,-0.280031 1.073923,-0.510852 2.23688,-1.353321 2.240397,-1.62294 4.612345,-1.268997 5.800161,-0.624488 -3.247313,0.123443 -2.828909,0.770467 -2.840888,1.277696 C 12.138638,13.864036 11.508668,14.482796 9.1,15.018931 Z"
       style="stroke-opacity:1;stroke-dasharray:none;stroke-miterlimit:4;stroke-linejoin:miter;stroke-linecap:butt;stroke-width:0.043999;stroke:none;fill-opacity:1;fill:currentColor;"
       class="ColorScheme-Highlight" />
    <path
       inkscape:connector-curvature="0"
       id="path917"
       d="m 17.137041,13.041122 c -3.247313,0.123443 -2.628672,1.892576 -2.150379,2.824742 -0.378947,0.110079 -0.789657,0.23547 -1.296228,0.369549 -2.043951,-3.641985 1.778388,-4.115786 3.446607,-3.194291 z"
       style="stroke-opacity:1;stroke-dasharray:none;stroke-miterlimit:4;stroke-linejoin:miter;stroke-linecap:butt;stroke-width:0.043999;stroke:none;fill-opacity:1;fill:currentColor;"
       sodipodi:nodetypes="cccc"
       class="ColorScheme-Highlight" />
    <path
       sodipodi:nodetypes="cscc"
       style="stroke-opacity:1;stroke-dasharray:none;stroke-miterlimit:4;stroke-linejoin:miter;stroke-linecap:butt;stroke-width:0.043999;stroke:none;fill-opacity:1;fill:currentColor;"
       d="m 11.435018,21.163309 c -1.589053,-2.046105 -1.295652,-3.921535 1.81595,-4.895949 3.070628,-0.961582 5.835421,-1.596399 7.906308,-2.302977 -5.588581,2.129368 -12.586562,3.552203 -9.722258,7.198926 z"
       id="path919"
       inkscape:connector-curvature="0"
       class="ColorScheme-Highlight" />
    <path
       d="m 21.99925,12.250444 c 0,0.41414 -0.33544,0.75 -0.75,0.75 -0.41306,0 -0.7492,-0.335813 -0.7492,-0.75 0,-0.414516 0.33618,-0.750328 0.7492,-0.750328 0.41456,0 0.75,0.335812 0.75,0.750328 z m 0,15.749531 H 10.00033 C 8.34325,27.999975 7,26.656397 7,25.000444 V 7.000631 C 7,5.343553 8.34325,4.0011 10.00033,4.0011 h 5.9992 V 4 l 7.5e-4,0.0011 c 0.82889,0 1.49986,0.67125 1.49986,1.499203 v 4.49986 c 0,0.828703 0.67088,1.499953 1.49995,1.499953 0.41457,0 0.75005,0.335812 0.75005,0.750328 0,0.414141 -0.33548,0.75 -0.75005,0.75 -1.6567,0 -3.00051,-1.343578 -3.00051,-3.000281 V 7.000631 5.50035 H 14.50033 10.00037 C 9.17158,5.50035 8.5,6.172678 8.5,7.000678 v 17.999813 c 0,0.827953 0.67162,1.499203 1.50033,1.499203 H 21.9993 c 0.82912,0 1.50075,-0.67125 1.50075,-1.499203 V 15.250022 13.000491 11.81146 L 18.90048,7.211241 c -0.29371,-0.292594 -0.29371,-0.767578 0,-1.060172 0.29297,-0.292594 0.76763,-0.292594 1.06055,0 l 4.8105,4.810031 c 7.5e-4,7.5e-4 0.002,0.0022 0.003,0.0029 0.13842,0.136219 0.22556,0.32625 0.22556,0.53611 v 1.500328 2.249578 9.750469 c 0,1.655953 -1.34325,2.999531 -3.00075,2.999531 z"
       id="path2"
       style="stroke-width:0.046875;fill-opacity:1;fill:currentColor;"
       class="ColorScheme-Text" />
  </g>
  <g
     id="22-22-kate">
    <rect
       style="opacity:0.00100002"
       width="22"
       height="22"
       x="32"
       y="10"
       id="rect2" />
    <path
       style="stroke-opacity:1;stroke-dasharray:none;stroke-miterlimit:4;stroke-linejoin:miter;stroke-linecap:butt;stroke-width:0.0293326;stroke:none;fill-opacity:1;fill:currentColor;"
       d="m 41.094373,21.263366 c -0.354725,-1.177609 -2.359302,-0.89185 -2.694374,-0.917417 0.376081,-0.186687 0.715948,-0.340568 1.491252,-0.902213 1.493597,-1.08196 3.074895,-0.845998 3.866772,-0.416325 -2.164874,0.08229 -1.752447,1.261716 -1.433585,1.88316 -0.405507,0.117786 -1.045614,0.295593 -1.230065,0.352795 z"
       id="path905-6"
       inkscape:connector-curvature="0"
       class="ColorScheme-Text" />
    <path
       sodipodi:nodetypes="cssscccccsssc"
       inkscape:connector-curvature="0"
       id="path907-7"
       d="m 46.438178,19.642918 c -0.779585,1.02972 -2.075704,2.420944 -3.494225,2.604202 -1.418536,0.183262 -2.770866,-0.01984 -3.084127,1.036701 -0.288478,0.972899 0.726135,1.881234 1.778457,1.662323 1.124223,-0.233883 0.881429,-1.508104 0.266528,-2.375814 0.467075,-0.02671 0.380192,-0.01991 1.172256,-0.05979 1.180595,1.00634 1.57193,1.293258 3.634505,2.761503 -1.589469,-0.166468 -2.16795,-0.319323 -3.307982,-1.001235 0.29533,0.741304 0.926553,2.423753 1.063285,3.729179 -0.657515,-0.94481 -0.906796,-1.292034 -1.92579,-1.973651 -1.305268,-0.873094 -2.362382,-0.902654 -2.974232,-2.189009 -0.610523,-1.283572 0.197586,-2.208189 1.643645,-2.608606 2.066501,-0.572232 3.847089,-1.114765 5.22768,-1.585815 z"
       style="fill:#e6e6e6;fill-opacity:1;stroke:none;stroke-width:0.0293326;stroke-linecap:butt;stroke-linejoin:miter;stroke-miterlimit:4;stroke-dasharray:none;stroke-opacity:1" />
    <path
       sodipodi:nodetypes="cccc"
       inkscape:connector-curvature="0"
       id="path909-5"
       d="m 41.904811,22.57033 c 0.467075,-0.02671 0.380191,-0.01991 1.172256,-0.05979 1.180595,1.00634 1.57193,1.293258 3.634505,2.761503 C 44.6384,25.123736 43.069779,24.512289 41.904811,22.57032 Z"
       style="fill:#e6e6e6;fill-opacity:1;stroke:none;stroke-width:0.0293326;stroke-linecap:butt;stroke-linejoin:miter;stroke-miterlimit:4;stroke-dasharray:none;stroke-opacity:1" />
    <path
       style="stroke-opacity:1;stroke-dasharray:none;stroke-miterlimit:4;stroke-linejoin:miter;stroke-linecap:butt;stroke-width:0.0293326;stroke:none;fill-opacity:1;fill:currentColor;"
       d="m 46.438178,19.642918 c -0.779585,1.02972 -2.075704,2.420944 -3.494225,2.604202 -1.418536,0.183262 -2.770866,-0.01984 -3.084127,1.036701 -0.288478,0.972899 0.726135,1.881234 1.778457,1.662323 1.124223,-0.233883 0.881429,-1.508104 0.266528,-2.375814 0.467075,-0.02671 0.380192,-0.01991 1.172256,-0.05979 1.180595,1.00634 1.57193,1.293258 3.634505,2.761503 -1.589469,-0.166468 -2.16795,-0.319323 -3.307982,-1.001235 0.29533,0.741304 0.926553,2.423753 1.063285,3.729179 -0.657515,-0.94481 -0.906796,-1.292034 -1.92579,-1.973651 -1.305268,-0.873094 -2.362382,-0.902654 -2.974232,-2.189009 -0.610523,-1.283572 0.197586,-2.208189 1.643645,-2.608606 2.066501,-0.572232 3.847089,-1.114765 5.22768,-1.585815 z"
       id="path911-3"
       inkscape:connector-curvature="0"
       sodipodi:nodetypes="cssscccccsssc"
       class="ColorScheme-Text" />
    <path
       style="stroke-opacity:1;stroke-dasharray:none;stroke-miterlimit:4;stroke-linejoin:miter;stroke-linecap:butt;stroke-width:0.0293326;stroke:none;fill-opacity:1;fill:currentColor;"
       d="m 41.904811,22.57033 c 0.467075,-0.02671 0.380191,-0.01991 1.172256,-0.05979 1.180595,1.00634 1.57193,1.293258 3.634505,2.761503 C 44.6384,25.123736 43.069779,24.512289 41.904811,22.57032 Z"
       id="path913-5"
       inkscape:connector-curvature="0"
       sodipodi:nodetypes="cccc"
       class="ColorScheme-Text" />
    <path
       sodipodi:nodetypes="ccccc"
       inkscape:connector-curvature="0"
       id="path915-6"
       d="m 38.399999,20.345949 c 0.376081,-0.186687 0.715948,-0.340568 1.491252,-0.902213 1.493597,-1.08196 3.074895,-0.845998 3.866772,-0.416325 -2.164874,0.08229 -1.885938,0.513644 -1.893924,0.851796 -1.438343,-0.303187 -1.858322,0.109319 -3.4641,0.466742 z"
       style="stroke-opacity:1;stroke-dasharray:none;stroke-miterlimit:4;stroke-linejoin:miter;stroke-linecap:butt;stroke-width:0.0293326;stroke:none;fill-opacity:1;fill:currentColor;"
       class="ColorScheme-Highlight" />
    <path
       inkscape:connector-curvature="0"
       id="path917-2"
       d="m 43.758023,19.027411 c -2.164874,0.08229 -1.752447,1.261716 -1.433585,1.88316 -0.252631,0.07339 -0.526438,0.15698 -0.864152,0.246366 -1.362633,-2.427989 1.185592,-2.743856 2.297737,-2.129526 z"
       style="stroke-opacity:1;stroke-dasharray:none;stroke-miterlimit:4;stroke-linejoin:miter;stroke-linecap:butt;stroke-width:0.0293326;stroke:none;fill-opacity:1;fill:currentColor;"
       sodipodi:nodetypes="cccc"
       class="ColorScheme-Highlight" />
    <path
       sodipodi:nodetypes="cscc"
       style="stroke-opacity:1;stroke-dasharray:none;stroke-miterlimit:4;stroke-linejoin:miter;stroke-linecap:butt;stroke-width:0.0293326;stroke:none;fill-opacity:1;fill:currentColor;"
       d="m 39.956677,24.442198 c -1.059368,-1.364069 -0.863768,-2.614355 1.210632,-3.263963 2.047084,-0.641055 3.890278,-1.064266 5.270869,-1.535317 -3.725718,1.419577 -8.391036,2.368133 -6.481501,4.79928 z"
       id="path919-9"
       inkscape:connector-curvature="0"
       class="ColorScheme-Highlight" />
    <path
       d="m 46.999493,18.500292 c 0,0.276093 -0.223626,0.5 -0.499999,0.5 -0.275373,0 -0.499467,-0.223875 -0.499467,-0.5 0,-0.276343 0.22412,-0.500218 0.499467,-0.500218 0.276373,0 0.499999,0.223875 0.499999,0.500218 z m 0,10.499681 H 39.000219 C 37.895499,28.999973 37,28.104255 37,27.000287 V 15.000419 c 0,-1.104718 0.895499,-1.999686 2.000219,-1.999686 h 3.999464 V 13 l 5e-4,7.33e-4 c 0.552593,0 0.999906,0.4475 0.999906,0.999468 v 2.999905 c 0,0.552468 0.447253,0.999968 0.999966,0.999968 0.276379,0 0.500033,0.223875 0.500033,0.500218 0,0.276094 -0.223654,0.5 -0.500033,0.5 -1.104466,0 -2.000339,-0.895718 -2.000339,-2.000186 v -1.999687 -1.000186 h -0.999499 -2.999972 c -0.552526,0 -1.000246,0.448218 -1.000246,1.000218 v 11.999867 c 0,0.551968 0.447747,0.999468 1.00022,0.999468 h 7.999308 c 0.552746,0 1.000499,-0.4475 1.000499,-0.999468 V 20.50001 19.000323 18.207637 l -3.066378,-3.066811 c -0.195806,-0.195063 -0.195806,-0.511718 0,-0.706781 0.195313,-0.195062 0.511753,-0.195062 0.707033,0 l 3.206998,3.206685 c 5e-4,5e-4 0.0013,0.0015 0.002,0.0019 0.09228,0.09081 0.150373,0.217499 0.150373,0.357406 v 1.000218 1.499718 6.500308 C 49.000052,28.104282 48.104553,29 46.999553,29 Z"
       id="path2-1"
       style="stroke-width:0.03125;fill-opacity:1;fill:currentColor;"
       class="ColorScheme-Text" />
  </g>
</svg>
