<?xml version="1.0" encoding="UTF-8" standalone="no"?>
<svg
   sodipodi:docname="kdeconnect.svg"
   height="31.999973"
   width="32.000015"
   inkscape:version="1.1.2 (0a00cf5339, 2022-02-04)"
   version="1.1"
   id="svg"
   viewBox="0 0 32.000013 31.999973"
   xmlns:inkscape="http://www.inkscape.org/namespaces/inkscape"
   xmlns:sodipodi="http://sodipodi.sourceforge.net/DTD/sodipodi-0.dtd"
   xmlns="http://www.w3.org/2000/svg"
   xmlns:svg="http://www.w3.org/2000/svg"
   xmlns:rdf="http://www.w3.org/1999/02/22-rdf-syntax-ns#"
   xmlns:cc="http://creativecommons.org/ns#"
   xmlns:dc="http://purl.org/dc/elements/1.1/">
  <style
     id="current-color-scheme"
     type="text/css">.ColorScheme-Text { color:#eceff4; }
</style>
  <g
     id="16-16-kdeconnect"
     transform="translate(7.5624752,73.081215)">
    <rect
       style="fill:#566060;fill-opacity:0;stroke:none"
       id="rect3889"
       width="16"
       height="16"
       x="0"
       y="0"
       ry="2.9278411e-07" />
    <path
       style="text-rendering:geometricPrecision;shape-rendering:geometricPrecision;image-rendering:optimizeQuality;stroke-width:0.249603;fill-rule:evenodd;fill-opacity:1;fill:currentColor;"
       d="M 8.200359,6.522507 7.447647,6.653645 V 9.246203 L 8.19646,9.149683 8.19256,7.981127 9.075923,9.274483 9.943684,9.149683 8.945273,7.810993 9.947095,6.687779 9.068609,6.52592 8.19256,7.649138 Z m -1.582934,0.66203 c -0.0073,3.83e-4 -0.01406,0.0037 -0.0195,0.0092 l -0.25838,0.261304 c -0.01125,0.01128 -0.0131,0.02891 -0.0044,0.04242 L 6.647149,7.976678 C 6.588289,8.081132 6.543819,8.19566 6.515033,8.315496 L 5.976336,8.447608 c -0.01493,0.0037 -0.02634,0.01718 -0.02634,0.03267 v 0.170136 0.170141 c 0,0.0155 0.01138,0.029 0.02634,0.03269 L 6.51503,8.985357 c 0.02876,0.119834 0.07326,0.234367 0.132117,0.338818 l -0.311996,0.47921 c -0.0087,0.0135 -0.0069,0.03112 0.0044,0.04242 l 0.25838,0.261301 c 0.01089,0.01098 0.02781,0.01191 0.04093,0.0039 l 0.488962,-0.29981 c 0.09593,0.05588 0.245988,0.100848 0.355395,0.13065 l 0.114564,0.553321 c 0.0032,0.01596 0.01588,0.02729 0.03168,0.02729 h 0.192564 0.192566 c 0.01583,0 0.0285,-0.0113 0.03169,-0.02729 L 8.160847,9.94185 C 8.270252,9.91206 8.420307,9.86708 8.516241,9.811197 l 0.488969,0.299814 c 0.01316,0.008 0.03004,0.0071 0.04091,-0.0039 L 9.304501,9.845809 c 0.01123,-0.01128 0.01311,-0.02891 0.0044,-0.04242 L 9.04906,9.404129 9.01688,9.408929 8.834552,9.141773 C 8.648333,9.53214 8.254515,9.780913 7.822003,9.78138 7.201667,9.78138 6.698788,9.278499 6.698788,8.658169 6.699388,8.231811 6.940866,7.842418 7.322795,7.65293 V 7.40773 C 7.251595,7.43145 7.181643,7.45824 7.127792,7.48964 L 6.63884,7.18984 c -0.0066,-0.004 -0.01422,-0.006 -0.02146,-0.0053 z"
       class="ColorScheme-Text"
       id="path10-7" />
    <path
       d="m 8.325,13.000001 c 0,0.207093 -0.167905,0.375 -0.375,0.375 -0.207095,0 -0.375,-0.167907 -0.375,-0.375 0,-0.207094 0.167905,-0.375 0.375,-0.375 0.207095,0 0.375,0.167906 0.375,0.375 z m 1.875,1.5 H 5.7 c -0.828469,0 -1.5,-0.671625 -1.5,-1.5 V 8.125 C 4.2,7.917907 4.367907,7.75 4.575,7.75 4.782094,7.75 4.95,7.917907 4.95,8.125 v 4.875001 c 0,0.414187 0.335813,0.75 0.75,0.75 h 4.5 c 0.414185,0 0.75,-0.335813 0.75,-0.75 v -0.375 c 0,-0.207094 -0.167905,-0.375 -0.375,-0.375 h -4.5 c -0.207093,0 -0.375,-0.167907 -0.375,-0.375 0,-0.207094 0.167907,-0.375 0.375,-0.375 h 4.6875 c 0.453565,0 0.831655,0.322078 0.918635,0.75 h 0.01886 v 0.75 c 0,0.828375 -0.671625,1.5 -1.5,1.5 z M 4.95,6.625 C 4.95,6.832094 4.782094,7 4.575,7 4.367907,7 4.2,6.832094 4.2,6.625 4.2,6.417906 4.367907,6.25 4.575,6.25 4.782094,6.25 4.95,6.417906 4.95,6.625 Z m 6.375,4.125001 c -0.207095,0 -0.375,-0.167907 -0.375,-0.375 V 4 C 10.95,3.585813 10.614185,3.25 10.2,3.25 H 5.7 C 5.285813,3.25 4.95,3.585813 4.95,4 v 0.375 c 0,0.207094 0.167907,0.375 0.375,0.375 h 4.5 C 10.032095,4.75 10.2,4.917906 10.2,5.125 10.2,5.332094 10.032095,5.5 9.825,5.5 H 5.1375 C 4.619766,5.5 4.2,5.080328 4.2,4.5625 V 4 C 4.2,3.171625 4.871531,2.5 5.7,2.5 h 4.5 c 0.828375,0 1.5,0.671625 1.5,1.5 v 6.375001 c 0,0.207093 -0.167905,0.375 -0.375,0.375 z"
       id="path2-5"
       style="stroke-width:0.0234374;fill-opacity:1;fill:currentColor;"
       class="ColorScheme-Text" />
  </g>
  <defs
     id="defs81">
    <style
       type="text/css"
       id="current-color-scheme" />
    <style
       id="current-color-scheme-9"
       type="text/css" />
  </defs>
  <metadata
     id="metadata34">
    <rdf:RDF>
      <cc:Work
         rdf:about="">
        <dc:format>image/svg+xml</dc:format>
        <dc:type
           rdf:resource="http://purl.org/dc/dcmitype/StillImage" />
      </cc:Work>
    </rdf:RDF>
  </metadata>
  <sodipodi:namedview
     inkscape:document-rotation="0"
     fit-margin-bottom="0"
     fit-margin-right="0"
     fit-margin-left="0"
     fit-margin-top="0"
     inkscape:snap-bbox-midpoints="true"
     inkscape:snap-bbox="true"
     inkscape:guide-bbox="true"
     showguides="false"
     borderlayer="false"
     inkscape:current-layer="svg"
     inkscape:window-maximized="1"
     inkscape:window-y="0"
     inkscape:window-x="0"
     inkscape:cy="46.66905"
     inkscape:cx="19.798991"
     inkscape:zoom="5.6568539"
     showgrid="false"
     id="namedview32"
     inkscape:window-height="1013"
     inkscape:window-width="1920"
     inkscape:pageshadow="2"
     inkscape:pageopacity="0.11372549"
     guidetolerance="10"
     gridtolerance="10"
     objecttolerance="10"
     borderopacity="1"
     bordercolor="#000000"
     pagecolor="#ffffff"
     inkscape:lockguides="true"
     inkscape:pagecheckerboard="0"
     inkscape:showpageshadow="false">
    <inkscape:grid
       spacingy="1.0666667"
       spacingx="1.0666666"
       originy="-31.966645"
       originx="-51.666643"
       snapvisiblegridlinesonly="true"
       enabled="true"
       visible="true"
       empspacing="5"
       id="grid3046"
       type="xygrid" />
  </sodipodi:namedview>
  <g
     id="kdeconnect">
    <rect
       width="32.000015"
       height="31.999973"
       rx="0"
       ry="0"
       x="-4.4677737e-09"
       y="1.4697265e-07"
       id="rect3860"
       style="opacity:0.01;fill:#eff0f1;fill-opacity:0;stroke:none" />
    <path
       style="text-rendering:geometricPrecision;shape-rendering:geometricPrecision;image-rendering:optimizeQuality;stroke-width:0.499207;fill-rule:evenodd;fill-opacity:1;fill:currentColor;"
       d="m 16.500725,12.045 -1.505423,0.262277 v 5.185115 l 1.497625,-0.193047 -0.0078,-2.337112 1.766726,2.586711 1.735522,-0.249599 -1.996822,-2.677381 2.003645,-2.246427 -1.756972,-0.323719 -1.752099,2.246437 z m -3.165868,1.324061 c -0.01451,7.66e-4 -0.02811,0.0075 -0.039,0.0185 l -0.51676,0.522607 c -0.02249,0.02256 -0.0262,0.05781 -0.0088,0.08484 l 0.624009,0.958435 c -0.11772,0.208908 -0.20666,0.437963 -0.264232,0.677635 L 12.05268,15.895303 C 12.02281,15.902603 12,15.929653 12,15.960653 v 0.340272 0.340281 c 0,0.03099 0.02275,0.058 0.05268,0.06538 l 1.077388,0.264224 c 0.05753,0.239668 0.146514,0.468734 0.264234,0.677636 l -0.623992,0.958419 c -0.01741,0.02699 -0.0137,0.06224 0.0088,0.08483 l 0.516759,0.522602 c 0.02178,0.02197 0.05562,0.02381 0.08185,0.0078 l 0.977925,-0.599609 c 0.191859,0.11177 0.491976,0.201695 0.710789,0.2613 l 0.229128,1.106642 c 0.0064,0.03193 0.03176,0.05457 0.06336,0.05457 h 0.385129 0.385131 c 0.03167,0 0.057,-0.0226 0.06338,-0.05457 l 0.22913,-1.106635 c 0.218811,-0.05957 0.518921,-0.149536 0.710789,-0.261305 l 0.977937,0.599627 c 0.02632,0.01595 0.06008,0.01421 0.08182,-0.0078 l 0.516762,-0.522603 c 0.02247,-0.02256 0.02623,-0.05782 0.0088,-0.08483 l -0.519681,-0.79853 -0.06437,0.0096 -0.364656,-0.534312 c -0.372438,0.780735 -1.160075,1.278279 -2.025099,1.279213 -1.240671,0 -2.24643,-1.00576 -2.24643,-2.246421 0.0012,-0.852715 0.484157,-1.631502 1.248014,-2.010477 v -0.490401 c -0.142394,0.04745 -0.282304,0.101023 -0.390006,0.163816 l -0.977904,-0.599599 c -0.01319,-0.008 -0.02844,-0.01192 -0.04292,-0.01055 z"
       class="ColorScheme-Text"
       id="path10" />
    <path
       d="m 16.750008,24.999987 c 0,0.414187 -0.33581,0.75 -0.75,0.75 -0.41419,0 -0.75,-0.335813 -0.75,-0.75 0,-0.414187 0.33581,-0.75 0.75,-0.75 0.41419,0 0.75,0.335813 0.75,0.75 z m 3.75,3 h -9 c -1.6569384,0 -3.0000004,-1.34325 -3.0000004,-3 v -9.75 c 0,-0.414187 0.335813,-0.75 0.75,-0.75 0.414187,0 0.7500004,0.335813 0.7500004,0.75 v 9.75 c 0,0.828375 0.671625,1.5 1.5,1.5 h 9 c 0.82837,0 1.5,-0.671625 1.5,-1.5 v -0.75 c 0,-0.414187 -0.33581,-0.75 -0.75,-0.75 h -9 c -0.414187,0 -0.75,-0.335813 -0.75,-0.75 0,-0.414187 0.335813,-0.75 0.75,-0.75 h 9.375 c 0.90713,0 1.66331,0.644156 1.83727,1.5 h 0.03773 v 1.5 c 0,1.65675 -1.34325,3 -3,3 z m -10.5,-15.75 c 0,0.414187 -0.3358134,0.75 -0.7500004,0.75 -0.414187,0 -0.75,-0.335813 -0.75,-0.75 0,-0.414188 0.335813,-0.75 0.75,-0.75 0.414187,0 0.7500004,0.335812 0.7500004,0.75 z m 12.75,8.25 c -0.41419,0 -0.75,-0.335813 -0.75,-0.75 V 6.9999867 c 0,-0.828375 -0.67163,-1.5 -1.5,-1.5 h -9 c -0.828375,0 -1.5,0.671625 -1.5,1.5 v 0.75 c 0,0.4141875 0.335813,0.75 0.75,0.75 h 9 c 0.41419,0 0.75,0.3358126 0.75,0.75 0,0.4141874 -0.33581,0.75 -0.75,0.75 h -9.375 c -1.0354694,0 -1.8750004,-0.839344 -1.8750004,-1.875 v -1.125 c 0,-1.65675 1.343062,-3 3.0000004,-3 h 9 c 1.65675,0 3,1.34325 3,3 V 19.749987 c 0,0.414187 -0.33581,0.75 -0.75,0.75 z"
       id="path2"
       style="stroke-width:0.0468749;fill-opacity:1;fill:currentColor;"
       class="ColorScheme-Text" />
  </g>
  <g
     id="22-22-kdeconnect"
     transform="translate(7.5624752,73.081215)">
    <rect
       style="fill:#000000;fill-opacity:0;stroke:none"
       id="rect3841"
       width="22"
       height="22"
       x="-3.000001"
       y="-34.500004" />
    <path
       style="text-rendering:geometricPrecision;shape-rendering:geometricPrecision;image-rendering:optimizeQuality;stroke-width:0.332805;fill-rule:evenodd;fill-opacity:1;fill:currentColor;"
       d="m 8.33381,-25.93071 -1.003615,0.174851 v 3.456744 l 0.998417,-0.128698 -0.0052,-1.558075 1.177817,1.724474 1.157015,-0.166399 -1.331215,-1.784921 1.335763,-1.497618 -1.171314,-0.215813 -1.168066,1.497625 z m -2.110578,0.882707 c -0.0097,5.11e-4 -0.01874,0.005 -0.026,0.01233 l -0.344507,0.348404 c -0.01499,0.01504 -0.01747,0.03854 -0.0059,0.05656 l 0.416006,0.638957 c -0.07848,0.139272 -0.137773,0.291975 -0.176154,0.451757 l -0.718263,0.17615 c -0.01991,0.0049 -0.03512,0.0229 -0.03512,0.04357 v 0.226848 0.226854 c 0,0.02066 0.01517,0.03867 0.03512,0.04359 l 0.718259,0.176149 c 0.03835,0.159779 0.09768,0.31249 0.176156,0.451758 l -0.415962,0.638943 c -0.01161,0.01799 -0.0091,0.04149 0.0059,0.05655 l 0.344506,0.348401 c 0.01452,0.01465 0.03708,0.01587 0.05457,0.0052 l 0.65195,-0.399739 c 0.127906,0.07451 0.327984,0.134463 0.47386,0.1742 l 0.152752,0.737761 c 0.0043,0.02129 0.02117,0.03638 0.04224,0.03638 h 0.256752 0.256754 c 0.02111,0 0.038,-0.01507 0.04225,-0.03638 l 0.152753,-0.737756 c 0.145874,-0.03971 0.345947,-0.09969 0.473859,-0.174204 l 0.651958,0.399752 c 0.01755,0.01063 0.04005,0.0095 0.05455,-0.0052 l 0.344508,-0.348402 c 0.01498,-0.01504 0.01749,-0.03855 0.0059,-0.05655 l -0.346454,-0.532353 -0.04291,0.0064 -0.243104,-0.356208 c -0.248292,0.52049 -0.773383,0.852186 -1.350066,0.852809 -0.827114,0 -1.49762,-0.670507 -1.49762,-1.497614 8e-4,-0.568477 0.322772,-1.087668 0.83201,-1.340318 v -0.326934 c -0.09493,0.03163 -0.188203,0.06735 -0.260004,0.10921 L 6.251845,-25.04086 c -0.0088,-0.0053 -0.01896,-0.0079 -0.02861,-0.007 z"
       class="ColorScheme-Text"
       id="path10-3" />
    <path
       d="m 8.499999,-17.500004 c 0,0.276124 -0.223873,0.5 -0.5,0.5 -0.276127,0 -0.5,-0.223876 -0.5,-0.5 0,-0.276125 0.223873,-0.5 0.5,-0.5 0.276127,0 0.5,0.223875 0.5,0.5 z m 2.5,2 h -6 c -1.104625,0 -2,-0.8955 -2,-2 v -6.5 c 0,-0.276125 0.223875,-0.5 0.5,-0.5 0.276125,0 0.5,0.223875 0.5,0.5 v 6.5 c 0,0.55225 0.44775,1 1,1 h 6 c 0.552247,0 1,-0.44775 1,-1 v -0.5 c 0,-0.276125 -0.223873,-0.5 -0.5,-0.5 h -6 c -0.276125,0 -0.5,-0.223875 -0.5,-0.5 0,-0.276125 0.223875,-0.5 0.5,-0.5 h 6.25 c 0.604753,0 1.108873,0.429437 1.224847,1 h 0.02515 v 1 c 0,1.1045 -0.8955,2 -2,2 z m -7,-10.5 c 0,0.276125 -0.223875,0.5 -0.5,0.5 -0.276125,0 -0.5,-0.223875 -0.5,-0.5 0,-0.276125 0.223875,-0.5 0.5,-0.5 0.276125,0 0.5,0.223875 0.5,0.5 z m 8.5,5.5 c -0.276127,0 -0.5,-0.223875 -0.5,-0.5 v -8.5 c 0,-0.55225 -0.447753,-1 -1,-1 h -6 c -0.55225,0 -1,0.44775 -1,1 v 0.5 c 0,0.276125 0.223875,0.5 0.5,0.5 h 6 c 0.276127,0 0.5,0.223875 0.5,0.5 0,0.276125 -0.223873,0.5 -0.5,0.5 h -6.25 c -0.690313,0 -1.25,-0.559563 -1.25,-1.25 v -0.75 c 0,-1.1045 0.895375,-2 2,-2 h 6 c 1.1045,0 2,0.8955 2,2 v 8.5 c 0,0.276125 -0.223873,0.5 -0.5,0.5 z"
       id="path2-6"
       style="stroke-width:0.0312499;fill-opacity:1;fill:currentColor;"
       class="ColorScheme-Text" />
  </g>
</svg>
