<?xml version="1.0" encoding="UTF-8" standalone="no"?>
<svg
   width="32"
   height="32"
   version="1.1"
   id="svg12"
   sodipodi:docname="kdf.svg"
   inkscape:version="1.2.1 (9c6d41e410, 2022-07-14)"
   xmlns:inkscape="http://www.inkscape.org/namespaces/inkscape"
   xmlns:sodipodi="http://sodipodi.sourceforge.net/DTD/sodipodi-0.dtd"
   xmlns="http://www.w3.org/2000/svg"
   xmlns:svg="http://www.w3.org/2000/svg"
   xmlns:rdf="http://www.w3.org/1999/02/22-rdf-syntax-ns#"
   xmlns:cc="http://creativecommons.org/ns#"
   xmlns:dc="http://purl.org/dc/elements/1.1/">
  <style
     id="current-color-scheme"
     type="text/css">.ColorScheme-Text { color:#eff0f1; }
</style>
  <metadata
     id="metadata18">
    <rdf:RDF>
      <cc:Work
         rdf:about="">
        <dc:format>image/svg+xml</dc:format>
        <dc:type
           rdf:resource="http://purl.org/dc/dcmitype/StillImage" />
      </cc:Work>
    </rdf:RDF>
  </metadata>
  <defs
     id="defs16" />
  <sodipodi:namedview
     pagecolor="#cccccc"
     bordercolor="#000000"
     borderopacity="1"
     objecttolerance="10"
     gridtolerance="10"
     guidetolerance="10"
     inkscape:pageopacity="0"
     inkscape:pageshadow="2"
     inkscape:window-width="1920"
     inkscape:window-height="1004"
     id="namedview14"
     showgrid="false"
     inkscape:zoom="11.313708"
     inkscape:cx="16.440233"
     inkscape:cy="20.815457"
     inkscape:window-x="0"
     inkscape:window-y="0"
     inkscape:window-maximized="1"
     inkscape:current-layer="svg12"
     inkscape:document-rotation="0"
     inkscape:showpageshadow="2"
     inkscape:pagecheckerboard="0"
     inkscape:deskcolor="#808080">
    <inkscape:grid
       type="xygrid"
       id="grid898"
       originx="0"
       originy="0" />
  </sodipodi:namedview>
  <g
     id="kdf">
    <rect
       style="opacity:0.00100002"
       width="32"
       height="32"
       x="-32"
       y="0"
       ry="0"
       transform="scale(-1,1)"
       id="rect7" />
    <path
       d="M 15.999707,9.000098 C 12.13371,9.000098 9,11.970625 9,15.710581 c 0,1.210406 0.3299522,2.489093 0.9051494,3.268214 h -0.00226 l 0.082472,0.19514 c 0.014596,0.02252 0.027593,0.07585 0.041752,0.09807 L 13.132197,25 16.000286,22.10027 c 0.438112,0.08312 -0.463288,0 0,0 C 19.866276,22.10027 23,19.509325 23,15.769534 22.999772,12.029599 19.866052,9 16.000057,9 Z m 0,9.971251 c -1.826839,0 -3.30736,-1.432547 -3.30736,-3.199762 0,-1.766738 1.480521,-3.199255 3.30736,-3.199255 1.826529,0 3.307368,1.432517 3.307368,3.199255 0,1.767215 -1.480839,3.199762 -3.307368,3.199762 z"
       id="path2-36"
       style="stroke-width:0.0304693;fill-opacity:1;fill:currentColor;"
       sodipodi:nodetypes="csccccccssccsssss"
       class="ColorScheme-Text" />
    <path
       d="M 15.999689,27.99995 H 15.24969 c -0.414564,0 -0.749955,-0.336187 -0.749955,-0.75 0,-0.414562 0.335391,-0.75 0.749955,-0.75 h 0.749999 c 5.798859,0 10.499812,-4.701375 10.499812,-10.500094 0,-5.798531 -4.700953,-10.499906 -10.499812,-10.499906 -5.798484,0 -10.4998595,4.701375 -10.4998595,10.499906 0,3.435141 1.657125,6.476203 4.206983,8.391469 l -0.0076,0.01095 c 0.181275,0.13704 0.300666,0.352331 0.300666,0.597675 0,0.413766 -0.33544,0.75 -0.750001,0.75 -0.168845,0 -0.322266,-0.05859 -0.447891,-0.152344 l -0.0018,0.0029 C 5.8859225,23.411407 4.0000005,19.925829 4.0000005,15.999906 4.0000005,9.37225 9.3722035,4 15.999814,4 22.626672,4 28,9.37225 28,15.999906 28,22.627047 22.626671,28 15.999814,28 Z m -3.749578,-1.5 c 0.413438,0 0.749249,0.335438 0.749249,0.75 0,0.413813 -0.335811,0.75 -0.74925,0.75 -0.414562,0 -0.75,-0.336187 -0.75,-0.75 0,-0.414562 0.335438,-0.75 0.750001,-0.75 z M 26.4995,15.999856 v 0 0 0 0 0 l 0.0662,-0.01523 -0.06322,0.01455 0.0114,-0.01275 0.0012,0.0075 0.05654,-0.02776 -0.0822,0.02895 0.02914,0.0048 0.0098,0.0013 -0.02889,-0.0013 v 0 l 0.0191,-4.6e-5 0.0098,0.0013 0.0373,-0.01652 z"
       id="path2"
       sodipodi:nodetypes="ssssssssccssccssssssssscccccccccccccccccccc"
       style="fill:currentColor;fill-opacity:1;stroke-width:0.046875;enable-background:new"
       class="ColorScheme-Text " />
  </g>
  <g
     id="22-22-kdf"
     transform="translate(32,10)">
    <rect
       style="opacity:0.00100002"
       width="22"
       height="22"
       x="-22"
       y="0"
       ry="0"
       id="rect2"
       transform="scale(-1,1)" />
    <path
       d="M 11.050244,6.800014 C 8.702802,6.800014 6.8,8.656608 6.8,10.994075 c 0,0.756511 0.200357,1.555684 0.54961,2.042643 h -0.0023 l 0.05014,0.12196 c 0.0086,0.01402 0.01681,0.04735 0.02533,0.06133 L 9.308254,16.8 11.04976,14.987676 c 0.266024,0.05197 -0.281305,0 0,0 C 13.397193,14.987679 15.3,13.368332 15.3,11.030978 15.3,8.693496 13.397193,6.8 11.04976,6.8 Z m 0,6.232044 c -1.10927,0 -2.008248,-0.895333 -2.008248,-1.999854 0,-1.104215 0.898978,-1.999526 2.008248,-1.999526 1.109069,0 2.008228,0.895311 2.008228,1.999526 0,1.104521 -0.899159,1.999854 -2.008228,1.999854 z"
       id="path2-36-3"
       style="stroke-width:0.0187698;fill-opacity:1;fill:currentColor;"
       sodipodi:nodetypes="csccccccssccsssss"
       class="ColorScheme-Text" />
    <path
       d="m 10.999951,19 h -0.5 c -0.276375,0 -0.499969,-0.224125 -0.499969,-0.5 0,-0.276375 0.223594,-0.5 0.499969,-0.5 h 0.5 c 3.865906,0 6.999875,-3.13425 6.999875,-7.000063 C 17.999826,7.13425 14.865857,4 10.999951,4 7.134295,4 4.000045,7.13425 4.000045,10.999937 c 0,2.290094 1.10475,4.317469 2.804655,5.594313 l -0.0051,0.0073 C 6.920449,16.69291 7.000043,16.836437 7.000043,17 c 0,0.275844 -0.223626,0.5 -0.5,0.5 -0.112563,0 -0.214844,-0.03906 -0.298594,-0.101563 l -0.0012,0.0019 C 4.257406,15.940938 3.000125,13.617219 3.000125,10.999937 3.000125,6.5815 6.581594,3 11,3 15.417906,3 19.000125,6.5815 19.000125,10.999937 19.000125,15.418031 15.417906,19 11,19 Z M 8.500232,18 c 0.275625,0 0.4995,0.223625 0.4995,0.5 0,0.275875 -0.223875,0.5 -0.4995,0.5 -0.276375,0 -0.5,-0.224125 -0.5,-0.5 0,-0.276375 0.223625,-0.5 0.5,-0.5 z m 9.499594,-7.000063 v 0 0 0 0 0 l 0.04413,-0.01015 -0.04215,0.0097 0.0076,-0.0085 8e-4,0.005 0.03769,-0.01851 -0.0548,0.0193 0.01943,0.0032 0.0065,8.67e-4 -0.01926,-8.67e-4 v 0 l 0.01273,-3.1e-5 0.0065,8.67e-4 0.02487,-0.01101 z"
       id="path2-3"
       sodipodi:nodetypes="ssssssssccssccssssssssscccccccccccccccccccc"
       style="fill:currentColor;fill-opacity:1;stroke-width:0.03125;enable-background:new"
       class="ColorScheme-Text" />
  </g>
</svg>
