<?xml version="1.0" encoding="UTF-8" standalone="no"?>
<svg
   width="32"
   height="32"
   version="1.1"
   id="svg12"
   sodipodi:docname="kget.svg"
   inkscape:version="1.1.2 (0a00cf5339, 2022-02-04)"
   xmlns:inkscape="http://www.inkscape.org/namespaces/inkscape"
   xmlns:sodipodi="http://sodipodi.sourceforge.net/DTD/sodipodi-0.dtd"
   xmlns:xlink="http://www.w3.org/1999/xlink"
   xmlns="http://www.w3.org/2000/svg"
   xmlns:svg="http://www.w3.org/2000/svg"
   xmlns:rdf="http://www.w3.org/1999/02/22-rdf-syntax-ns#"
   xmlns:cc="http://creativecommons.org/ns#"
   xmlns:dc="http://purl.org/dc/elements/1.1/">
  <style
     id="current-color-scheme"
     type="text/css">.ColorScheme-Text { color:#e3e7e8; }
</style>
  <metadata
     id="metadata18">
    <rdf:RDF>
      <cc:Work
         rdf:about="">
        <dc:format>image/svg+xml</dc:format>
        <dc:type
           rdf:resource="http://purl.org/dc/dcmitype/StillImage" />
      </cc:Work>
    </rdf:RDF>
  </metadata>
  <defs
     id="defs16">
    <linearGradient
       id="c"
       y1="13"
       y2="33"
       x2="0"
       gradientUnits="userSpaceOnUse"
       gradientTransform="matrix(1,0,0,-1,384.57,547.8)">
      <stop
         stop-color="#197cf1"
         id="stop12" />
      <stop
         offset="1"
         stop-color="#20bcfa"
         id="stop14" />
    </linearGradient>
    <linearGradient
       xlink:href="#c"
       id="d"
       y1="14"
       y2="33"
       x2="0"
       gradientUnits="userSpaceOnUse"
       gradientTransform="matrix(1,0,0,-1,-8,37)" />
    <linearGradient
       id="linearGradient917"
       y1="13"
       y2="33"
       x2="0"
       gradientUnits="userSpaceOnUse"
       gradientTransform="matrix(1,0,0,-1,384.57,547.8)">
      <stop
         stop-color="#197cf1"
         id="stop913" />
      <stop
         offset="1"
         stop-color="#20bcfa"
         id="stop915" />
    </linearGradient>
  </defs>
  <sodipodi:namedview
     pagecolor="#ffffff"
     bordercolor="#666666"
     borderopacity="1"
     objecttolerance="10"
     gridtolerance="10"
     guidetolerance="10"
     inkscape:pageopacity="0"
     inkscape:pageshadow="2"
     inkscape:window-width="1920"
     inkscape:window-height="1013"
     id="namedview14"
     showgrid="false"
     inkscape:zoom="9.8125"
     inkscape:cx="15.286624"
     inkscape:cy="13.248408"
     inkscape:window-x="0"
     inkscape:window-y="0"
     inkscape:window-maximized="1"
     inkscape:current-layer="svg12"
     inkscape:document-rotation="0"
     inkscape:pagecheckerboard="0"
     inkscape:lockguides="true">
    <inkscape:grid
       type="xygrid"
       id="grid849"
       originx="0"
       originy="0" />
  </sodipodi:namedview>
  <g
     id="kget">
    <rect
       style="opacity:0.00100002"
       width="32"
       height="32"
       x="0"
       y="0"
       id="rect7" />
    <path
       d="m 26.500004,7 h -0.0051 c 0,0.7737656 -0.294047,1.54575 -0.884391,2.1349687 L 24.796435,9.949422 c -0.136969,0.145031 -0.330328,0.238031 -0.545672,0.238031 -0.414563,0 -0.750375,-0.335812 -0.750375,-0.7503749 0,-0.2091093 0.08681,-0.3976875 0.224859,-0.5339531 l 0.83896,-0.8393438 C 24.857926,7.7697344 25.005863,7.3851719 25.006613,7 h -0.0059 c 0,-0.828375 -0.672,-1.5 -1.500375,-1.5 h -15 c -0.828375,0 -1.5,0.671625 -1.5,1.5 0,0.4280625 0.180562,0.81075 0.468375,1.0839375 l 7.468125,7.4673755 c 0.590344,0.591046 1.547953,0.591046 2.139047,0 l 3.246135,-3.244969 c 0.536484,-0.498797 1.251328,-0.806391 2.04164,-0.806391 h 0.882188 0.254531 c 1.65675,0 2.999625,1.342875 2.999625,2.999953 h -0.0051 c 0,0.773813 -0.294047,1.545797 -0.884391,2.135391 l -7.474031,7.47464 c -1.179938,1.179938 -3.092297,1.179938 -4.27186,0 L 13.673841,23.919156 C 13.404685,23.661719 13.040654,23.499484 12.636732,23.499484 H 8.125388 c -0.621469,0 -1.125,0.503719 -1.125,1.125141 v 0.75 c 0,0.621469 0.503531,1.125141 1.125,1.125141 h 15.750366 c 0.621469,0 1.125,-0.503719 1.125,-1.125141 v -1.125 c 0,-0.375188 -0.503531,-0.750141 -1.125,-0.750141 h -1.125375 c -0.414563,0 -0.75,-0.335437 -0.75,-0.74925 0,-0.414562 0.335437,-0.75 0.75,-0.75 h 1.500375 c 1.241812,0 2.24925,1.007438 2.24925,2.249438 v 1.500187 C 26.500004,26.992562 25.492566,28 24.250754,28 H 7.750379 C 6.507442,28 5.500004,26.992562 5.500004,25.749859 v -1.500187 c 0,-1.242 1.007438,-2.249438 2.250375,-2.249438 h 1.125 2.879531 0.881813 c 0.822515,0 1.567734,0.330328 2.110125,0.867 0.01833,0.01852 0.03258,0.0293 0.04945,0.04378 l 0.140625,0.14025 c 0.590344,0.591234 1.547953,0.591234 2.139047,0 l 7.488281,-7.487157 c 0.293719,-0.294421 0.441656,-0.678937 0.442406,-1.064203 h -0.0059 c 0,-0.828 -0.672,-1.5 -1.500375,-1.5 h -1.136719 c -0.403547,0 -0.768656,0.161485 -1.036734,0.419672 l -3.190407,3.190406 c -1.179937,1.179704 -3.092296,1.179704 -4.271859,0 L 6.389879,9.1349688 C 5.800285,8.54575 5.505863,7.7737656 5.505863,7 h -0.00586 c 0,-1.6574531 1.344,-3 3.000375,-3 h 15 c 1.65675,0 2.999625,1.3425469 2.999626,3 z M 7.662863,12.909109 c 0,0.213844 -0.08897,0.405375 -0.232172,0.542344 -0.266625,0.271734 -0.430312,0.639047 -0.430312,1.048453 0,0.428485 0.180562,0.810797 0.468375,1.083985 l 1.754906,1.755234 c 0.136219,0.136219 0.220453,0.324422 0.220453,0.533016 0,0.415453 -0.337265,0.752765 -0.753656,0.752765 -0.212016,0 -0.402844,-0.08845 -0.539812,-0.229594 L 6.389926,16.635344 C 5.800332,16.04575 5.50591,15.273766 5.50591,14.499953 H 5.5 c 0,-0.811172 0.323016,-1.544672 0.845203,-2.084437 0.137719,-0.157125 0.338766,-0.258891 0.564328,-0.258891 0.416016,-4.7e-5 0.753328,0.336516 0.753328,0.752484 z m 3.837891,6.840797 c 0,0.414563 -0.336187,0.750141 -0.75,0.750141 -0.414563,0 -0.75,-0.335625 -0.75,-0.750141 0,-0.414515 0.335437,-0.75 0.75,-0.75 0.413813,0 0.75,0.335438 0.75,0.75 z"
       id="path2"
       style="stroke-width:0.046875;fill-opacity:1;fill:currentColor;"
       class="ColorScheme-Text" />
  </g>
  <g
     id="g875">
    <g
       id="g869">
      <g
         id="22-22-kget">
        <rect
           style="opacity:0.00100002"
           width="22"
           height="22"
           x="32"
           y="9.9978008"
           id="rect2" />
        <path
           d="m 50,14.997798 h -0.0034 c 0,0.515844 -0.196031,1.0305 -0.589594,1.423313 l -0.542718,0.542968 c -0.09131,0.09669 -0.220219,0.158688 -0.363782,0.158688 -0.276375,0 -0.50025,-0.223875 -0.50025,-0.50025 0,-0.139406 0.05787,-0.265125 0.149906,-0.355969 l 0.559307,-0.559563 c 0.195813,-0.196031 0.294437,-0.452406 0.294937,-0.709187 h -0.0039 c 0,-0.55225 -0.448,-1 -1.00025,-1 h -10 c -0.55225,0 -1,0.44775 -1,1 0,0.285375 0.120375,0.5405 0.31225,0.722625 l 4.97875,4.97825 c 0.393563,0.394031 1.031969,0.394031 1.426031,0 l 2.16409,-2.163312 c 0.357656,-0.332532 0.834219,-0.537594 1.361094,-0.537594 h 0.588125 0.169687 c 1.1045,0 1.99975,0.89525 1.99975,1.999968 h -0.0034 c 0,0.515876 -0.196031,1.030532 -0.589594,1.423594 l -4.982687,4.983094 c -0.786625,0.786625 -2.061531,0.786625 -2.847907,0 l -0.127187,-0.127188 c -0.179437,-0.171624 -0.422125,-0.279781 -0.691406,-0.279781 h -3.007563 c -0.414312,0 -0.75,0.335813 -0.75,0.750094 v 0.5 c 0,0.414313 0.335688,0.750094 0.75,0.750094 H 48.2505 c 0.414313,0 0.75,-0.335813 0.75,-0.750094 v -0.75 c 0,-0.250125 -0.335687,-0.500094 -0.75,-0.500094 h -0.75025 c -0.276375,0 -0.5,-0.223625 -0.5,-0.4995 0,-0.276375 0.223625,-0.5 0.5,-0.5 h 1.00025 c 0.827875,0 1.4995,0.671625 1.4995,1.499625 v 1.000125 c 0,0.828469 -0.671625,1.500094 -1.4995,1.500094 H 37.50025 C 36.671626,28.997798 36,28.326173 36,27.497704 v -1.000125 c 0,-0.828 0.671626,-1.499625 1.50025,-1.499625 h 0.75 1.919688 0.587875 c 0.548343,0 1.045156,0.220219 1.40675,0.578 0.01222,0.01235 0.02172,0.01953 0.03297,0.02919 l 0.09375,0.0935 c 0.393562,0.394156 1.031968,0.394156 1.426031,0 l 4.992187,-4.991438 c 0.195813,-0.196281 0.294438,-0.452625 0.294938,-0.709469 h -0.0039 c 0,-0.552 -0.448,-1 -1.00025,-1 H 47.24244 c -0.269032,0 -0.512438,0.107657 -0.691156,0.279781 l -2.126938,2.126938 c -0.786625,0.786469 -2.061531,0.786469 -2.847906,0 l -4.98319,-4.983342 c -0.393062,-0.392813 -0.589344,-0.907469 -0.589344,-1.423313 h -0.0039 c 0,-1.104969 0.896,-2 2.00025,-2 h 10 c 1.1045,0 1.99975,0.895031 1.999751,2 z m -12.558094,3.939406 c 0,0.142563 -0.05931,0.27025 -0.154781,0.361563 -0.17775,0.181156 -0.286875,0.426031 -0.286875,0.698968 0,0.285657 0.120375,0.540532 0.31225,0.722657 l 1.169938,1.170156 c 0.09081,0.09081 0.146968,0.216281 0.146968,0.355344 0,0.276969 -0.224843,0.501843 -0.502437,0.501843 -0.141344,0 -0.268563,-0.05897 -0.359875,-0.153062 l -1.173812,-1.173312 c -0.393063,-0.393063 -0.589344,-0.907719 -0.589344,-1.423594 h -0.0039 c 0,-0.540782 0.215344,-1.029782 0.563468,-1.389625 0.09181,-0.10475 0.225844,-0.172594 0.376219,-0.172594 0.277344,-3.1e-5 0.502219,0.224344 0.502219,0.501656 z m 2.558594,4.560531 c 0,0.276376 -0.224124,0.500094 -0.5,0.500094 -0.276375,0 -0.5,-0.22375 -0.5,-0.500094 0,-0.276343 0.223625,-0.5 0.5,-0.5 0.275876,0 0.5,0.223626 0.5,0.5 z"
           id="path2-3"
           style="stroke-width:0.03125;fill-opacity:1;fill:currentColor;"
           class="ColorScheme-Text" />
      </g>
    </g>
  </g>
</svg>
