<?xml version="1.0" encoding="UTF-8" standalone="no"?>
<svg
   width="32"
   height="32"
   version="1.1"
   id="svg12"
   sodipodi:docname="kgpg.svg"
   inkscape:version="1.1.2 (0a00cf5339, 2022-02-04)"
   xmlns:inkscape="http://www.inkscape.org/namespaces/inkscape"
   xmlns:sodipodi="http://sodipodi.sourceforge.net/DTD/sodipodi-0.dtd"
   xmlns="http://www.w3.org/2000/svg"
   xmlns:svg="http://www.w3.org/2000/svg"
   xmlns:rdf="http://www.w3.org/1999/02/22-rdf-syntax-ns#"
   xmlns:cc="http://creativecommons.org/ns#"
   xmlns:dc="http://purl.org/dc/elements/1.1/">
  <style
     id="current-color-scheme"
     type="text/css">.ColorScheme-Text { color:#eff0f1; }
</style>
  <g
     id="kgpg">
    <rect
       style="opacity:0.00100002"
       width="32"
       height="32"
       x="0"
       y="0"
       id="rect7" />
    <path
       d="m 15.25042,23.499954 c 0.41345,0 0.75,0.335436 0.75,0.75 0,0.413816 -0.33655,0.75 -0.75,0.75 -0.41455,0 -0.75037,-0.336184 -0.75037,-0.75 0,-0.414564 0.33585,-0.75 0.75037,-0.75 z m -0.75037,-5.250046 c 0,-0.414562 0.33582,-0.750005 0.75037,-0.750005 0.41345,0 0.75,0.335443 0.75,0.750005 v 2.999298 c 0,0.414564 -0.33655,0.750748 -0.75,0.750748 -0.41455,0 -0.75037,-0.336184 -0.75037,-0.750748 z M 24.999954,28 H 6.99963 C 5.34288,28 4,26.656 4,24.999954 v -6.750046 c 0,-0.414562 0.33582,-0.750005 0.75037,-0.750005 0.41345,0 0.75,0.335443 0.75,0.750005 v 6.375046 c 0,1.035656 0.83935,1.874298 1.87501,1.874298 h 17.249574 c 1.035656,0 1.875794,-0.838688 1.875794,-1.874298 V 17.87416 c 0,-1.03491 -0.840138,-1.87481 -1.875794,-1.87481 H 11.12504 10.75037 10.74963 C 9.50636,15.99935 8.5,14.99228 8.5,13.75005 V 13.37429 11.49966 C 8.5,7.35743 11.85748,4 16.00042,4 c 4.14211,0 7.499534,3.35743 7.499534,7.49966 v 0.75 c 0,0.41457 -0.335438,0.75 -0.75,0.75 -0.413816,0 -0.75,-0.33543 -0.75,-0.75 v -0.75 c 0,-3.31382 -2.68655,-6.00041 -5.999534,-6.00041 -3.31387,0 -6.00005,2.68654 -6.00005,6.00041 v 1.12463 0.28636 0.46364 c 0,0.62148 0.50353,1.12581 1.12467,1.12581 h 0.46364 0.28636 9.749914 0.375 1.5 0.375748 1.124252 C 26.657449,14.5001 28,15.84265 28,17.499903 v 7.500051 C 28,26.656 26.657449,28 24.999954,28 Z M 6.24963,15.99935 c -0.41345,0 -0.74926,-0.33545 -0.74926,-0.75 0,-0.41345 0.33581,-0.74925 0.74926,-0.74925 0.41455,0 0.75,0.3358 0.75,0.74925 0,0.41455 -0.33545,0.75 -0.75,0.75 z"
       id="path2-6"
       style="stroke-width:0.0468752;fill-opacity:1;fill:currentColor;"
       class="ColorScheme-Text" />
  </g>
  <metadata
     id="metadata18">
    <rdf:RDF>
      <cc:Work
         rdf:about="">
        <dc:format>image/svg+xml</dc:format>
        <dc:type
           rdf:resource="http://purl.org/dc/dcmitype/StillImage" />
      </cc:Work>
    </rdf:RDF>
  </metadata>
  <defs
     id="defs16" />
  <sodipodi:namedview
     pagecolor="#ffffff"
     bordercolor="#000000"
     borderopacity="1"
     objecttolerance="10"
     gridtolerance="10"
     guidetolerance="10"
     inkscape:pageopacity="0"
     inkscape:pageshadow="2"
     inkscape:window-width="1920"
     inkscape:window-height="1013"
     id="namedview14"
     showgrid="false"
     inkscape:zoom="9.8125003"
     inkscape:cx="19.7707"
     inkscape:cy="10.089172"
     inkscape:window-x="0"
     inkscape:window-y="0"
     inkscape:window-maximized="1"
     inkscape:current-layer="svg12"
     inkscape:document-rotation="0"
     inkscape:lockguides="true"
     inkscape:showpageshadow="false"
     inkscape:pagecheckerboard="0">
    <inkscape:grid
       type="xygrid"
       id="grid871"
       originx="-1e-06"
       originy="0" />
  </sodipodi:namedview>
  <g
     id="22-22-kgpg"
     transform="translate(32,10.000001)">
    <rect
       style="opacity:0.00100002"
       width="22"
       height="22"
       x="0"
       y="0"
       id="rect2" />
    <path
       d="m 10.500246,15.999969 c 0.275633,0 0.5,0.223624 0.5,0.5 0,0.275878 -0.224367,0.5 -0.5,0.5 -0.276367,0 -0.500247,-0.224122 -0.500247,-0.5 0,-0.276376 0.2239,-0.5 0.500247,-0.5 z m -0.500247,-3.50003 c 0,-0.276375 0.22388,-0.500004 0.500247,-0.500004 0.275633,0 0.5,0.223629 0.5,0.500004 v 1.999532 c 0,0.276376 -0.224367,0.500498 -0.5,0.500498 -0.276367,0 -0.500247,-0.224122 -0.500247,-0.500498 z M 16.999935,19 H 4.999719 C 3.8952193,19 2.999966,18.104 2.999966,16.999969 v -4.50003 c 0,-0.276375 0.22388,-0.500004 0.5002467,-0.500004 0.2756333,0 0.5000003,0.223629 0.5000003,0.500004 v 4.25003 c 0,0.690438 0.559566,1.249532 1.250006,1.249532 h 11.499716 c 0.690438,0 1.25053,-0.559125 1.25053,-1.249532 V 12.24944 c 0,-0.68994 -0.560092,-1.249873 -1.25053,-1.249873 H 7.749993 7.500213 7.499719 c -0.828846,0 -1.499753,-0.67138 -1.499753,-1.499534 V 9.249527 7.999773 C 5.999966,5.238287 8.238286,3 11.000246,3 c 2.761407,0 4.999689,2.238287 4.999689,4.999773 v 0.5 c 0,0.27638 -0.223625,0.5 -0.5,0.5 -0.275877,0 -0.5,-0.22362 -0.5,-0.5 v -0.5 c 0,-2.209213 -1.791033,-4.000273 -3.999689,-4.000273 -2.209247,0 -4.000033,1.791027 -4.000033,4.000273 v 0.749754 0.190906 0.309094 c 0,0.41432 0.335686,0.75054 0.74978,0.75054 h 0.309093 0.190907 6.499942 0.25 1 0.250499 0.749501 c 1.104997,0 2.000031,0.895033 2.000031,1.999868 v 5.000034 C 18.999966,18.104 18.104932,19 16.999935,19 Z M 4.499719,10.999567 c -0.275633,0 -0.499506,-0.223634 -0.499506,-0.5 0,-0.275634 0.223873,-0.4995 0.499506,-0.4995 0.276367,0 0.5,0.223866 0.5,0.4995 0,0.276366 -0.223633,0.5 -0.5,0.5 z"
       id="path2-6-3"
       style="stroke-width:0.0312501;fill-opacity:1;fill:currentColor;"
       class="ColorScheme-Text" />
  </g>
</svg>
