<?xml version="1.0" encoding="UTF-8" standalone="no"?>
<svg
   width="32"
   height="32"
   version="1.1"
   id="svg12"
   sodipodi:docname="kmail.svg"
   inkscape:version="1.1.2 (0a00cf5339, 2022-02-04)"
   xmlns:inkscape="http://www.inkscape.org/namespaces/inkscape"
   xmlns:sodipodi="http://sodipodi.sourceforge.net/DTD/sodipodi-0.dtd"
   xmlns="http://www.w3.org/2000/svg"
   xmlns:svg="http://www.w3.org/2000/svg"
   xmlns:rdf="http://www.w3.org/1999/02/22-rdf-syntax-ns#"
   xmlns:cc="http://creativecommons.org/ns#"
   xmlns:dc="http://purl.org/dc/elements/1.1/">
  <style
     id="current-color-scheme"
     type="text/css">.ColorScheme-Text { color:#d6dbf1; }
</style>
  <metadata
     id="metadata18">
    <rdf:RDF>
      <cc:Work
         rdf:about="">
        <dc:format>image/svg+xml</dc:format>
        <dc:type
           rdf:resource="http://purl.org/dc/dcmitype/StillImage" />
      </cc:Work>
    </rdf:RDF>
  </metadata>
  <defs
     id="defs16" />
  <sodipodi:namedview
     pagecolor="#ffffff"
     bordercolor="#000000"
     borderopacity="1"
     objecttolerance="10"
     gridtolerance="10"
     guidetolerance="10"
     inkscape:pageopacity="0"
     inkscape:pageshadow="2"
     inkscape:window-width="1920"
     inkscape:window-height="1013"
     id="namedview14"
     showgrid="false"
     inkscape:zoom="9.8125003"
     inkscape:cx="34.853502"
     inkscape:cy="18.242038"
     inkscape:window-x="0"
     inkscape:window-y="0"
     inkscape:window-maximized="1"
     inkscape:current-layer="svg12"
     inkscape:document-rotation="0"
     showguides="false"
     inkscape:lockguides="true"
     inkscape:showpageshadow="false"
     inkscape:pagecheckerboard="0">
    <inkscape:grid
       type="xygrid"
       id="grid859"
       originx="-32"
       originy="-10" />
  </sodipodi:namedview>
  <g
     id="kmail">
    <rect
       style="opacity:0.00100002"
       width="32"
       height="32"
       x="0"
       y="0"
       id="rect7" />
    <path
       d="m 6.4813211,23.272105 c -0.3414132,-0.360163 -0.3414132,-0.944738 0,-1.30488 L 8.95632,19.356334 c 0.341582,-0.361433 0.8955,-0.361433 1.237082,0 0.341582,0.360121 0.341582,0.944696 0,1.304841 l -2.4749912,2.61093 c -0.3416346,0.360473 -0.895512,0.360473 -1.2370897,0 z m 17.8001169,0 -2.475018,-2.61093 c -0.341317,-0.360145 -0.341317,-0.94472 0,-1.304841 0.341825,-0.361433 0.895451,-0.361433 1.237309,0 l 2.47506,2.610891 c 0.341228,0.360142 0.341228,0.944717 0,1.30488 -0.341844,0.360473 -0.895623,0.360473 -1.237351,0 z M 28.993035,9.38049 18.474874,19.553335 c -1.36682,1.44184 -3.582893,1.44184 -4.949828,0 L 7.3537011,13.042867 6.9591847,12.626935 5.273982,10.848894 l -0.00625,0.0024 C 5.1079785,10.640646 4.8804224,10.461301 4.62536,10.461301 c -0.4836031,0 -0.8752181,0.413348 -0.8752181,0.923062 v 2.600519 1.092495 9.229583 c 0,1.020367 0.7833439,1.846376 1.7502226,1.846376 H 26.499629 c 0.966867,0 1.74989,-0.826009 1.74989,-1.846376 V 13.230869 c 0,-0.510214 0.391837,-0.923055 0.875477,-0.923055 0.483285,0 0.875004,0.412921 0.875004,0.923055 V 24.30696 C 29.999997,26.346339 28.432459,28 26.499626,28 H 5.5003917 C 3.5673473,27.999934 2,26.346295 2,24.306921 V 11.384389 C 2,9.855568 3.1757841,8.616081 4.6253872,8.616081 c 0.6755035,0 1.2851572,0.325901 1.75017,0.798735 v -0.01586 l 8.3874018,8.848245 c 0.68298,0.721655 1.790974,0.721655 2.474136,0 L 27.754784,8.074379 C 28.097571,7.7142894 28.261938,7.2414523 28.259831,6.7696 h -0.01165 C 28.248393,5.7496976 27.465395,5.8465616 26.498526,5.8465616 H 8.124907 C 7.6423404,5.8465706 7.2497373,5.433272 7.2497373,4.9230537 7.2497373,4.4133554 7.6423404,4 8.124907,4 h 18.374769 c 1.605176,0 2.955617,0.5070457 3.3675,1.8465131 v 0 C 30.165774,7.0711747 29.901755,8.422298 28.993035,9.38049 Z M 4.6253872,5.8465706 C 4.1417839,5.8465706 3.7501694,5.433272 3.7501694,4.9230537 3.7501694,4.4133554 4.1417839,4 4.6253872,4 c 0.4834422,0 0.8750045,0.4132971 0.8750045,0.9230537 0,0.5102183 -0.3915623,0.9235169 -0.8750045,0.9235169 z"
       id="path2"
       style="stroke-width:0.056168;fill-opacity:1;fill:currentColor;"
       class="ColorScheme-Text" />
  </g>
  <g
     id="22-22-kmail">
    <rect
       style="opacity:0.00100002"
       width="22"
       height="22"
       x="32"
       y="10"
       id="rect2" />
    <path
       d="m 36.200943,25.848076 c -0.243868,-0.24011 -0.243868,-0.629831 0,-0.869903 l 1.767855,-1.740612 c 0.243984,-0.240955 0.639649,-0.240955 0.883634,0 0.243985,0.240072 0.243985,0.629793 0,0.869864 l -1.767855,1.740651 c -0.244023,0.240302 -0.63965,0.240302 -0.883634,0 z m 12.71436,0 -1.767857,-1.740651 c -0.24379,-0.240071 -0.24379,-0.629792 0,-0.869864 0.244141,-0.240955 0.63961,-0.240955 0.88379,0 l 1.767895,1.740612 c 0.243749,0.240072 0.243749,0.629793 0,0.869903 -0.244181,0.240302 -0.639728,0.240302 -0.883828,0 z m 3.365435,-9.261085 -7.512983,6.781875 c -0.976293,0.961246 -2.559223,0.961246 -3.535593,0 l -4.408093,-4.34028 -0.281797,-0.277301 -1.203714,-1.185356 -0.0046,0.0015 C 35.219969,17.427125 35.05743,17.30755 34.875243,17.30755 c -0.345431,0 -0.625158,0.275571 -0.625158,0.61537 v 1.733689 0.728329 6.153044 c 0,0.680253 0.559533,1.230932 1.250159,1.230932 h 14.99948 c 0.690625,0 1.249922,-0.550679 1.249922,-1.230932 v -7.384053 c 0,-0.340146 0.279884,-0.61537 0.625353,-0.61537 0.345195,0 0.625001,0.275263 0.625001,0.61537 v 7.384053 C 53,27.897565 51.880312,29 50.499724,29 H 35.500278 C 34.119533,28.999961 33,27.897527 33,26.537944 V 17.92292 c 0,-1.019206 0.839845,-1.845533 1.875277,-1.845533 0.4825,0 0.91797,0.217264 1.250119,0.532488 v -0.01054 l 5.990987,5.898819 c 0.487852,0.481104 1.279298,0.481104 1.767268,0 l 7.512628,-6.781873 c 0.244806,-0.240071 0.362231,-0.555294 0.360745,-0.869864 h -0.0072 c 0,-0.679945 -0.559299,-0.61537 -1.249926,-0.61537 H 37.374929 c -0.344688,0 -0.625118,-0.275532 -0.625118,-0.615677 0,-0.3398 0.28043,-0.61537 0.625118,-0.61537 h 13.124828 c 1.146523,0 2.111135,0.338031 2.405356,1.231009 v 0 c 0.21328,0.816442 0.02468,1.71719 -0.624375,2.355982 z M 34.875277,14.231047 c -0.345431,0 -0.625158,-0.275532 -0.625158,-0.615677 0,-0.3398 0.279727,-0.61537 0.625158,-0.61537 0.345313,0 0.625001,0.275532 0.625001,0.61537 0,0.340145 -0.279688,0.615677 -0.625001,0.615677 z"
       id="path2-3"
       style="stroke-width:0.0387604;fill-opacity:1;fill:currentColor;"
       class="ColorScheme-Text" />
  </g>
</svg>
