<?xml version="1.0" encoding="UTF-8" standalone="no"?>
<svg
   id="svg3287"
   version="1.1"
   inkscape:version="1.2.1 (9c6d41e410, 2022-07-14)"
   width="32.000004"
   height="32"
   sodipodi:docname="knotes.svg"
   viewBox="0 0 32.000004 32"
   xmlns:inkscape="http://www.inkscape.org/namespaces/inkscape"
   xmlns:sodipodi="http://sodipodi.sourceforge.net/DTD/sodipodi-0.dtd"
   xmlns="http://www.w3.org/2000/svg"
   xmlns:svg="http://www.w3.org/2000/svg"
   xmlns:rdf="http://www.w3.org/1999/02/22-rdf-syntax-ns#"
   xmlns:cc="http://creativecommons.org/ns#"
   xmlns:dc="http://purl.org/dc/elements/1.1/">
  <style
     id="current-color-scheme"
     type="text/css">.ColorScheme-Text { color:#eff0f1; }
</style>
  <g
     id="22-22-knotes"
     transform="translate(31.999853,10)">
    <rect
       style="fill:none;fill-opacity:1;stroke:none;stroke-width:0.1;stroke-linecap:square;stroke-linejoin:miter;stroke-miterlimit:4;stroke-dasharray:none;stroke-dashoffset:0;stroke-opacity:1"
       id="rect4148"
       width="22"
       height="22"
       x="1.3415527e-07"
       y="0" />
    <path
       d="M 13.777063,15 H 7.22292 C 7.099813,15 7,15.223879 7,15.500001 7,15.776123 7.09981,16 7.22292,16 h 6.554143 C 13.900171,16 14,15.776123 14,15.500001 14,15.223879 13.900171,15 13.777063,15 Z"
       id="path10-7-3"
       style="stroke-width:0.333861;fill-opacity:1;fill:currentColor;"
       class="ColorScheme-Text" />
    <path
       fill-rule="evenodd"
       clip-rule="evenodd"
       d="m 11.24975,7.25002 c 0,-0.276375 0.223875,-0.5 0.50025,-0.5 0.276125,0 0.5,0.223625 0.5,0.5 0,0.275625 -0.223875,0.4995 -0.5,0.4995 -0.276375,0 -0.50025,-0.223875 -0.50025,-0.4995 z m 7.173594,0.03931 -0.210688,0.210438 c -0.0019,0.0022 -0.0037,0.0022 -0.0059,0.0041 -0.383789,0.384034 -1.001226,0.388191 -1.39307,0.01709 L 15.525123,6.231646 c -0.195062,-0.195062 -0.195062,-0.511719 0,-0.706782 0.195063,-0.195062 0.511719,-0.195062 0.706781,0 L 17.32078,6.61299 c 0.001,0.0012 0.0015,0 0.0027,0.0012 0.09741,0.09741 0.255625,0.09741 0.353032,0 0.0032,-0.0032 0.0059,-7.34e-4 0.009,-0.0022 l 0.03028,-0.03028 c 0.390875,-0.390376 0.390875,-1.023438 0,-1.414313 L 16.832281,4.283864 c -0.390876,-0.390875 -1.023938,-0.390875 -1.414313,0 L 13.702405,5.999426 H 12.287656 8.00025 5.25 c -0.690437,0 -1.25,0.560063 -1.25,1.2505 v 9.49975 c 0,0.690438 0.559563,1.25 1.25,1.25 h 9.49975 c 0.690687,0 1.25,-0.559562 1.25,-1.25 v -6.429937 c 0,-0.137687 -0.111813,-0.24975 -0.24975,-0.24975 -0.06884,0 -0.131594,0.02806 -0.1765,0.07325 -0.0012,0.001 -7.33e-4,-0.0032 -0.0017,-0.0027 l -2.778313,2.777844 c -0.301031,0.301281 -0.674313,0.483656 -1.064219,0.5525 -0.07372,0.01756 -0.150156,0.02856 -0.229,0.02856 h -0.07056 c -0.03297,7.33e-4 -0.06691,7.33e-4 -0.09984,0 H 9.499806 c -0.552,0 -0.9995,-0.4475 -0.9995,-0.9995 V 10.66988 c -5e-4,-0.03297 -5e-4,-0.06691 0,-0.09962 v -0.07051 c 0,-0.07909 0.01122,-0.155531 0.02856,-0.22925 0.06909,-0.389656 0.251468,-0.763687 0.5527501,-1.064687 l 1.0619999,-1.06225 0.0027,0.0027 c 0.09009,-0.09081 0.215813,-0.1465 0.35375,-0.1465 0.276375,0 0.5,0.223874 0.5,0.50025 0,0.151624 -0.06934,0.286374 -0.176031,0.377937 L 9.788879,9.913107 c -0.218031,0.21753 -0.309563,0.50975 -0.284657,0.794437 -5e-4,0.01441 -0.0044,0.02806 -0.0044,0.04247 v 0.74975 C 9.49975,12.05175 9.948,12.5 10.5,12.5 h 0.74975 c 0.01441,0 0.02806,-0.0037 0.04247,-0.0041 0.284906,0.02491 0.576906,-0.06691 0.794437,-0.284907 L 15.297594,9 C 15.478,8.82275 15.726063,8.74975 15.99975,8.74975 c 0.5525,0 1.00025,0.4475 1.00025,1 V 16.9995 C 17,18.10425 16.10475,19 15.00025,19 h -10 C 3.8955,19 3,18.10425 3,16.9995 V 6.99975 C 3,5.895031 3.8955,5 5.00025,5 h 4.143563 4.143562 L 14.710719,3.576656 C 15.101187,3.186031 15.613031,3 16.124906,3 c 0.511875,0 1.023781,0.186031 1.414407,0.576656 l 0.884031,0.884031 C 18.814375,4.851719 19.000531,5.370906 19,5.883469 18.999469,6.394625 18.813313,6.899187 18.423344,7.289313 Z"
       id="path208-3"
       style="stroke-width:0.03125;fill-opacity:1;fill:currentColor;"
       sodipodi:nodetypes="ssssscccccsccssccccccccssssssssccccsccssccsccccsscccsssscccsssssssscccsssscc"
       class="ColorScheme-Text" />
  </g>
  <metadata
     id="metadata4159">
    <rdf:RDF>
      <cc:Work
         rdf:about="">
        <dc:format>image/svg+xml</dc:format>
        <dc:type
           rdf:resource="http://purl.org/dc/dcmitype/StillImage" />
      </cc:Work>
    </rdf:RDF>
  </metadata>
  <defs
     id="defs3287">
    <style
       type="text/css"
       id="current-color-scheme" />
    <linearGradient
       id="oomox"
       x1="33"
       x2="33"
       y1="81"
       y2="95"
       gradientUnits="userSpaceOnUse">
      <stop
         offset="0%"
         style="stop-color:#303b3d; stop-opacity:1"
         id="stop18" />
      <stop
         offset="100%"
         style="stop-color:#bc985d; stop-opacity:1"
         id="stop20" />
    </linearGradient>
  </defs>
  <sodipodi:namedview
     pagecolor="#ffffff"
     bordercolor="#000000"
     borderopacity="1"
     objecttolerance="10"
     gridtolerance="10000"
     guidetolerance="10"
     inkscape:pageopacity="0"
     inkscape:pageshadow="2"
     inkscape:window-width="1920"
     inkscape:window-height="1002"
     id="namedview4155"
     inkscape:document-units="px"
     showgrid="false"
     inkscape:showpageshadow="true"
     borderlayer="true"
     inkscape:zoom="11.313709"
     inkscape:cx="28.991377"
     inkscape:cy="19.312853"
     inkscape:window-x="0"
     inkscape:window-y="0"
     inkscape:window-maximized="1"
     inkscape:current-layer="svg3287"
     fit-margin-top="0"
     fit-margin-left="0"
     fit-margin-right="0"
     fit-margin-bottom="0"
     inkscape:snap-bbox="true"
     inkscape:bbox-nodes="true"
     inkscape:document-rotation="0"
     showguides="false"
     inkscape:lockguides="false"
     inkscape:pagecheckerboard="0"
     inkscape:deskcolor="#cccccc">
    <inkscape:grid
       type="xygrid"
       id="grid4140"
       originx="1.3415527e-07"
       originy="0" />
    <sodipodi:guide
       position="2.0000001,29.999999"
       orientation="28,0"
       id="guide4186"
       inkscape:locked="false" />
    <sodipodi:guide
       position="2.0000001,1.999999"
       orientation="0,28.000004"
       id="guide4188"
       inkscape:locked="false" />
    <sodipodi:guide
       position="30.000004,1.999999"
       orientation="-28,0"
       id="guide4190"
       inkscape:locked="false" />
    <sodipodi:guide
       position="30.000004,29.999999"
       orientation="0,-28.000004"
       id="guide4192"
       inkscape:locked="false" />
    <sodipodi:guide
       position="1.3415527e-07,31.999999"
       orientation="32,0"
       id="guide4194"
       inkscape:locked="false" />
    <sodipodi:guide
       position="1.3415527e-07,-1e-06"
       orientation="0,32.000004"
       id="guide4196"
       inkscape:locked="false" />
    <sodipodi:guide
       position="32.000004,-1e-06"
       orientation="-32,0"
       id="guide4198"
       inkscape:locked="false" />
    <sodipodi:guide
       position="32.000004,31.999999"
       orientation="0,-32.000004"
       id="guide4200"
       inkscape:locked="false" />
  </sodipodi:namedview>
  <inkscape:clipboard
     style="opacity:0.01000001;fill:#00000f;fill-opacity:0;stroke-width:1;stroke-linecap:butt;stroke-linejoin:miter;stroke-miterlimit:4;stroke-dasharray:none;stroke-dashoffset:0;stroke-opacity:1;stroke:none"
     min="0,0"
     max="22,22" />
  <g
     id="knotes">
    <rect
       y="0"
       x="-1.3415527e-07"
       height="32"
       width="32.000004"
       id="rect4230"
       style="fill:none;fill-opacity:1;stroke:none" />
    <path
       d="M 19.649671,22 H 9.350303 C 9.156849,22 9,22.223878 9,22.500001 9,22.776123 9.156849,23 9.350303,23 H 19.649671 C 19.843126,23 20,22.776123 20,22.500001 20,22.223878 19.843126,22 19.649671,22 Z"
       id="path10-7"
       style="stroke-width:0.418517;fill-opacity:1;fill:currentColor;"
       sodipodi:nodetypes="sssssss"
       class="ColorScheme-Text" />
    <path
       fill-rule="evenodd"
       clip-rule="evenodd"
       d="m 16.374625,10.37503 c 0,-0.414562 0.335813,-0.75 0.750375,-0.75 0.414188,0 0.75,0.335438 0.75,0.75 0,0.413438 -0.335812,0.74925 -0.75,0.74925 -0.414562,0 -0.750375,-0.335812 -0.750375,-0.74925 z m 10.760391,0.05897 -0.316032,0.315656 c -0.0029,0.0033 -0.0055,0.0033 -0.0088,0.0062 -0.575684,0.576051 -1.50184,0.582286 -2.089606,0.02564 L 22.787734,8.847527 c -0.292593,-0.292593 -0.292593,-0.767578 0,-1.060172 0.292594,-0.292593 0.767578,-0.292593 1.060172,0 l 1.633313,1.632188 c 0.0015,0.0018 0.0022,0 0.004,0.0018 0.146109,0.146109 0.383437,0.146109 0.529547,0 0.0048,-0.0048 0.0088,-0.0011 0.01355,-0.0033 l 0.04542,-0.04542 c 0.586312,-0.585563 0.586312,-1.535156 0,-2.121469 l -1.325267,-1.3253 c -0.586313,-0.586312 -1.535907,-0.586312 -2.121469,0 L 20.053656,8.499198 H 17.931484 11.500375 7.375 c -1.035656,0 -1.875,0.840094 -1.875,1.87575 v 14.249625 c 0,1.035656 0.839344,1.875 1.875,1.875 h 14.249625 c 1.036031,0 1.875,-0.839344 1.875,-1.875 v -9.644906 c 0,-0.206531 -0.167719,-0.374625 -0.374625,-0.374625 -0.103266,0 -0.197391,0.04209 -0.26475,0.109875 -0.0018,0.0015 -0.0011,-0.0048 -0.0026,-0.004 l -4.167469,4.166765 c -0.451547,0.451922 -1.011469,0.725485 -1.596328,0.82875 -0.110578,0.02634 -0.225234,0.04284 -0.3435,0.04284 h -0.105844 c -0.04945,0.0011 -0.100359,0.0011 -0.149765,0 H 13.74965 c -0.828,0 -1.49925,-0.67125 -1.49925,-1.49925 v -2.745094 c -7.5e-4,-0.04945 -7.5e-4,-0.100359 0,-0.149437 v -0.105762 c 0,-0.118641 0.01683,-0.233297 0.04284,-0.343875 0.10364,-0.584484 0.377203,-1.145531 0.829125,-1.597031 l 1.593,-1.593375 0.004,0.004 c 0.135141,-0.136219 0.323719,-0.21975 0.530625,-0.21975 0.414562,0 0.75,0.335812 0.75,0.750375 0,0.227437 -0.104016,0.429562 -0.264047,0.566906 l -1.552734,1.552735 c -0.327047,0.326296 -0.464344,0.764625 -0.426985,1.191656 -7.5e-4,0.02161 -0.0066,0.04209 -0.0066,0.0637 v 1.124625 C 13.749625,17.577625 14.422,18.25 15.25,18.25 h 1.124625 c 0.02161,0 0.04209,-0.0055 0.0637,-0.0062 0.42736,0.03736 0.86536,-0.10036 1.191656,-0.42736 L 22.446391,13 c 0.270609,-0.265875 0.642703,-0.375375 1.053234,-0.375375 0.82875,0 1.500375,0.67125 1.500375,1.5 V 24.99925 C 25,26.656375 23.657125,28 22.000375,28 h -15 C 5.34325,28 4,26.656375 4,24.99925 V 9.999625 C 4,8.342547 5.34325,7 7.000375,7 h 6.215344 6.215344 L 21.566078,4.864984 C 22.151781,4.279047 22.919547,4 23.687359,4 c 0.767813,0 1.535672,0.279047 2.12161,0.864984 l 1.326047,1.326047 C 27.721562,6.777578 28.000797,7.556359 28,8.325203 c -7.97e-4,0.766735 -0.280031,1.523578 -0.864984,2.108766 z"
       id="path208"
       style="stroke-width:0.046875;fill-opacity:1;fill:currentColor;"
       sodipodi:nodetypes="ssssscccccsccssccccccccssssssssccccsccssccsccccsscccsssscccsssssssscccsssscc"
       class="ColorScheme-Text" />
  </g>
</svg>
