<?xml version="1.0" encoding="UTF-8" standalone="no"?>
<svg
   width="32"
   height="32"
   version="1.1"
   id="svg12"
   sodipodi:docname="korgac.svg"
   inkscape:version="1.1.2 (0a00cf5339, 2022-02-04)"
   xmlns:inkscape="http://www.inkscape.org/namespaces/inkscape"
   xmlns:sodipodi="http://sodipodi.sourceforge.net/DTD/sodipodi-0.dtd"
   xmlns="http://www.w3.org/2000/svg"
   xmlns:svg="http://www.w3.org/2000/svg"
   xmlns:rdf="http://www.w3.org/1999/02/22-rdf-syntax-ns#"
   xmlns:cc="http://creativecommons.org/ns#"
   xmlns:dc="http://purl.org/dc/elements/1.1/">
  <style
     id="current-color-scheme"
     type="text/css">.ColorScheme-Text { color:#eceff4; }
</style>
  <metadata
     id="metadata18">
    <rdf:RDF>
      <cc:Work
         rdf:about="">
        <dc:format>image/svg+xml</dc:format>
        <dc:type
           rdf:resource="http://purl.org/dc/dcmitype/StillImage" />
      </cc:Work>
    </rdf:RDF>
  </metadata>
  <defs
     id="defs16" />
  <sodipodi:namedview
     pagecolor="#ffffff"
     bordercolor="#666666"
     borderopacity="1"
     objecttolerance="10"
     gridtolerance="10"
     guidetolerance="10"
     inkscape:pageopacity="0"
     inkscape:pageshadow="2"
     inkscape:window-width="1920"
     inkscape:window-height="1013"
     id="namedview14"
     showgrid="false"
     inkscape:zoom="9.8125"
     inkscape:cx="18.343949"
     inkscape:cy="12.840764"
     inkscape:window-x="0"
     inkscape:window-y="0"
     inkscape:window-maximized="1"
     inkscape:current-layer="svg12"
     inkscape:document-rotation="0"
     inkscape:pagecheckerboard="0"
     inkscape:lockguides="true">
    <inkscape:grid
       type="xygrid"
       id="grid858"
       originx="0"
       originy="0" />
  </sodipodi:namedview>
  <g
     id="korgac">
    <rect
       style="opacity:0.00100002;fill:#a8aeca;fill-opacity:1"
       width="32"
       height="32"
       x="0"
       y="0"
       id="rect7" />
    <path
       fill-rule="evenodd"
       clip-rule="evenodd"
       d="M 22.75,23.5 C 22.335812,23.5 22,23.164187 22,22.75 22,22.335812 22.335812,22 22.75,22 c 0.414187,0 0.75,0.335812 0.75,0.75 0,0.414187 -0.335813,0.75 -0.75,0.75 z M 22,16 h 0.75 c 0.414187,0 0.75,0.335812 0.75,0.75 0,0.414188 -0.335813,0.75 -0.75,0.75 H 22.50025 C 22.224109,17.5 22,17.724109 22,18.00025 V 18.25 C 22,18.664188 21.664187,19 21.25,19 20.835812,19 20.5,18.664188 20.5,18.25 V 17.5 C 20.5,16.671625 21.171625,16 22,16 Z m -2.25,4.5 c 0.414187,0 0.75,0.335812 0.75,0.75 0,0.414187 -0.335813,0.75 -0.75,0.75 H 19.50025 C 19.224109,22 19,22.224109 19,22.50025 V 22.75 c 0,0.414187 -0.335812,0.75 -0.75,0.75 -0.414188,0 -0.75,-0.335813 -0.75,-0.75 V 22 c 0,-0.828375 0.671625,-1.5 1.5,-1.5 z M 17.5,16 h 0.75 c 0.414188,0 0.75,0.335812 0.75,0.75 0,0.414188 -0.335812,0.75 -0.75,0.75 H 18.00025 C 17.724109,17.5 17.5,17.724109 17.5,18.00025 V 18.25 C 17.5,18.664188 17.164188,19 16.75,19 16.335812,19 16,18.664188 16,18.25 V 17.5 C 16,16.671625 16.671625,16 17.5,16 Z m -2.25,4.5 C 15.664188,20.5 16,20.835812 16,21.25 16,21.664187 15.664188,22 15.25,22 H 15.00025 C 14.724109,22 14.5,22.224109 14.5,22.50025 V 22.75 c 0,0.414187 -0.335812,0.75 -0.75,0.75 C 13.335813,23.5 13,23.164187 13,22.75 V 22 c 0,-0.828375 0.671625,-1.5 1.5,-1.5 z M 13,16 h 0.75 c 0.414188,0 0.75,0.335812 0.75,0.75 0,0.414188 -0.335812,0.75 -0.75,0.75 H 13.50025 C 13.224109,17.5 13,17.724109 13,18.00025 V 18.25 C 13,18.664188 12.664188,19 12.25,19 11.835813,19 11.5,18.664188 11.5,18.25 V 17.5 C 11.5,16.671625 12.171625,16 13,16 Z M 9.25,23.5 C 8.835813,23.5 8.5,23.164187 8.5,22.75 V 22 c 0,-0.828375 0.671625,-1.5 1.5,-1.5 h 0.75 c 0.414188,0 0.75,0.335812 0.75,0.75 0,0.414187 -0.335812,0.75 -0.75,0.75 H 10.50025 C 10.224109,22 10,22.224109 10,22.50025 V 22.75 c 0,0.414187 -0.335812,0.75 -0.75,0.75 z m 18,-7.5 c -0.414188,0 -0.75,-0.335812 -0.75,-0.75 0,-0.414188 0.335812,-0.75 0.75,-0.75 0.414187,0 0.75,0.335812 0.75,0.75 C 28,15.664188 27.664187,16 27.25,16 Z M 25,28 H 7 C 5.34325,28 4,26.65675 4,25 V 14.5 c 0,-1.65675 1.34325,-3 3,-3 H 24.25 24.288437 25.75 c 0.414187,0 0.75,-0.335812 0.75,-0.75 V 10.364734 10 C 26.5,9.171625 25.828375,8.5 25,8.5 H 23.875 C 22.839344,8.5 22,7.6606562 22,6.625 V 6.25 C 22,5.8358125 21.664187,5.5 21.25,5.5 20.835812,5.5 20.5,5.8358125 20.5,6.25 V 6.625 C 20.5,7.6606562 19.660656,8.5 18.625,8.5 h -5.25 C 12.339344,8.5 11.5,7.6606562 11.5,6.625 V 6.25 C 11.5,5.8358125 11.164188,5.5 10.75,5.5 10.335813,5.5 10,5.8358125 10,6.25 V 6.625 C 10,7.6606562 9.160656,8.5 8.125,8.5 H 7 C 6.171625,8.5 5.5,9.171625 5.5,10 5.5,10.414188 5.164188,10.75 4.75,10.75 4.335813,10.75 4,10.414188 4,10 4,8.34325 5.34325,7 7,7 H 7.75 C 8.164188,7 8.5,6.6641875 8.5,6.25 8.5,5.007437 9.507438,4 10.75,4 11.992563,4 13,5.007437 13,6.25 13,6.6641875 13.335813,7 13.75,7 h 4.5 C 18.664188,7 19,6.6641875 19,6.25 19,5.007437 20.007438,4 21.25,4 22.492562,4 23.5,5.007437 23.5,6.25 23.5,6.6641875 23.835812,7 24.25,7 H 25 c 1.65675,0 3,1.34325 3,3 v 1.125 C 28,12.160656 27.160656,13 26.125,13 H 10 9.594953 7 C 6.171625,13 5.5,13.671625 5.5,14.5 V 17.095328 17.5 25 c 0,0.828375 0.671625,1.5 1.5,1.5 h 18 c 0.828375,0 1.5,-0.671625 1.5,-1.5 v -6.75 c 0,-0.414188 0.335812,-0.75 0.75,-0.75 0.414187,0 0.75,0.335812 0.75,0.75 V 25 c 0,1.65675 -1.34325,3 -3,3 z"
       id="path2"
       style="fill:currentColor;fill-opacity:1;stroke-width:0.046875"
       class="ColorScheme-Text" />
  </g>
  <g
     id="22-22-korgac"
     transform="translate(32.000001,10.000001)">
    <rect
       style="opacity:0.00100002;fill:#a8aeca;fill-opacity:1"
       width="22"
       height="22"
       x="0"
       y="0"
       id="rect2" />
    <path
       fill-rule="evenodd"
       clip-rule="evenodd"
       d="m 15.500001,16 c -0.276125,0 -0.5,-0.223875 -0.5,-0.5 0,-0.276125 0.223875,-0.5 0.5,-0.5 0.276125,0 0.5,0.223875 0.5,0.5 0,0.276125 -0.223875,0.5 -0.5,0.5 z m -0.5,-5 h 0.5 c 0.276125,0 0.5,0.223875 0.5,0.5 0,0.276125 -0.223875,0.5 -0.5,0.5 h -0.1665 c -0.184094,0 -0.3335,0.149407 -0.3335,0.333501 V 12.5 c 0,0.276125 -0.223875,0.5 -0.5,0.5 -0.276125,0 -0.5,-0.223875 -0.5,-0.5 V 12 c 0,-0.55225 0.44775,-1 1,-1 z m -1.5,3 c 0.276125,0 0.5,0.223875 0.5,0.5 0,0.276125 -0.223875,0.5 -0.5,0.5 h -0.1665 c -0.184094,0 -0.3335,0.149407 -0.3335,0.333501 V 15.5 c 0,0.276125 -0.223875,0.5 -0.5,0.5 -0.276125,0 -0.5,-0.223875 -0.5,-0.5 V 15 c 0,-0.55225 0.44775,-1 1,-1 z m -1.5,-3 h 0.5 c 0.276125,0 0.5,0.223875 0.5,0.5 0,0.276125 -0.223875,0.5 -0.5,0.5 h -0.1665 c -0.184094,0 -0.3335,0.149407 -0.3335,0.333501 V 12.5 c 0,0.276125 -0.223875,0.5 -0.5,0.5 C 11.223875,13 11,12.776125 11,12.5 V 12 c 0,-0.55225 0.447751,-1 1.000001,-1 z M 10.5,14 c 0.276126,0 0.5,0.223875 0.5,0.5 0,0.276125 -0.223874,0.5 -0.5,0.5 H 10.3335 C 10.149406,15 10,15.149407 10,15.333501 V 15.5 c 0,0.276125 -0.2238745,0.5 -0.4999999,0.5 -0.2761246,0 -0.5,-0.223875 -0.5,-0.5 V 15 c 0,-0.55225 0.44775,-1 0.9999999,-1 z M 9.0000001,11 h 0.5 C 9.7761255,11 10,11.223875 10,11.5 10,11.776125 9.7761255,12 9.5000001,12 h -0.1665 c -0.184094,0 -0.3335,0.149407 -0.3335,0.333501 V 12.5 c 0,0.276125 -0.2238746,0.5 -0.5,0.5 C 8.2238753,13 8,12.776125 8,12.5 V 12 C 8,11.44775 8.44775,11 9.0000001,11 Z M 6.5,16 C 6.2238753,16 6,15.776125 6,15.5 V 15 C 6,14.44775 6.44775,14 7,14 H 7.5 C 7.7761253,14 8,14.223875 8,14.5 8,14.776125 7.7761253,15 7.5,15 H 7.3335 C 7.149406,15 7,15.149407 7,15.333501 V 15.5 C 7,15.776125 6.7761253,16 6.5,16 Z m 12.000001,-5 c -0.276125,0 -0.5,-0.223875 -0.5,-0.5 0,-0.276125 0.223875,-0.5 0.5,-0.5 0.276125,0 0.5,0.223875 0.5,0.5 0,0.276125 -0.223875,0.5 -0.5,0.5 z m -1.5,8 H 5 C 3.8955,19 3,18.1045 3,17 V 10 C 3,8.8955 3.8955,8 5,8 h 11.500001 0.02563 0.974375 c 0.276125,0 0.5,-0.223875 0.5,-0.5 V 7.243156 7 c 0,-0.55225 -0.44775,-1 -1,-1 h -0.75 c -0.690437,0 -1.25,-0.559563 -1.25,-1.25 V 4.5 c 0,-0.276125 -0.223875,-0.5 -0.5,-0.5 -0.276125,0 -0.5,0.223875 -0.5,0.5 v 0.25 c 0,0.690437 -0.559563,1.25 -1.25,1.25 H 9.2500021 C 8.5595648,6 8.000002,5.440437 8.000002,4.75 V 4.5 c 0,-0.276125 -0.2238747,-0.5 -0.5,-0.5 -0.2761247,0 -0.5,0.223875 -0.5,0.5 v 0.25 c 0,0.690437 -0.5595627,1.25 -1.25,1.25 h -0.75 c -0.55225,0 -1,0.44775 -1,1 0,0.276125 -0.2238747,0.5 -0.5,0.5 -0.2761247,0 -0.5,-0.223875 -0.5,-0.5 0,-1.1045 0.8955,-2 2,-2 h 0.5 c 0.2761253,0 0.5,-0.223875 0.5,-0.5 0,-0.828375 0.6716253,-1.5 1.5,-1.5 0.8283753,0 1.5000001,0.671625 1.5000001,1.5 0,0.276125 0.2238754,0.5 0.5,0.5 h 3.0000009 c 0.276125,0 0.5,-0.223875 0.5,-0.5 0,-0.828375 0.671625,-1.5 1.5,-1.5 0.828375,0 1.5,0.671625 1.5,1.5 0,0.276125 0.223875,0.5 0.5,0.5 h 0.5 c 1.1045,0 2,0.8955 2,2 v 0.75 c 0,0.690437 -0.559563,1.25 -1.25,1.25 H 7 6.7299687 5 C 4.44775,9 4,9.44775 4,10 v 1.73022 0.269781 5 c 0,0.55225 0.44775,1 1,1 h 12.000001 c 0.55225,0 1,-0.44775 1,-1 v -4.5 c 0,-0.276125 0.223875,-0.5 0.5,-0.5 0.276125,0 0.5,0.223875 0.5,0.5 v 4.5 c 0,1.1045 -0.8955,2 -2,1.999999 z"
       id="path2-3"
       style="fill:currentColor;fill-opacity:1;stroke-width:0.03125"
       class="ColorScheme-Text" />
  </g>
</svg>
