<?xml version="1.0" encoding="UTF-8" standalone="no"?>
<!-- Created with Inkscape (http://www.inkscape.org/) -->

<svg
   id="svg4153"
   version="1.1"
   inkscape:version="1.1.2 (0a00cf5339, 2022-02-04)"
   width="22"
   height="22"
   sodipodi:docname="kpackagekit.svg"
   viewBox="0 0 22 22"
   xmlns:inkscape="http://www.inkscape.org/namespaces/inkscape"
   xmlns:sodipodi="http://sodipodi.sourceforge.net/DTD/sodipodi-0.dtd"
   xmlns="http://www.w3.org/2000/svg"
   xmlns:svg="http://www.w3.org/2000/svg"
   xmlns:rdf="http://www.w3.org/1999/02/22-rdf-syntax-ns#"
   xmlns:cc="http://creativecommons.org/ns#"
   xmlns:dc="http://purl.org/dc/elements/1.1/">
  <metadata
     id="metadata4159">
    <rdf:RDF>
      <cc:Work
         rdf:about="">
        <dc:format>image/svg+xml</dc:format>
        <dc:type
           rdf:resource="http://purl.org/dc/dcmitype/StillImage" />
      </cc:Work>
    </rdf:RDF>
  </metadata>
  <defs
     id="defs4157">
    <style
       type="text/css"
       id="current-color-scheme">.ColorScheme-Text { color:#eceff4; }
.ColorScheme-Background { color:#eff0f1; }
.ColorScheme-Highlight { color:#3daee9; }
.ColorScheme-ViewText { color:#31363b; }
.ColorScheme-ViewBackground { color:#fcfcfc; }
.ColorScheme-ViewHover { color:#93cee9; }
.ColorScheme-ViewFocus { color:#3daee9; }
.ColorScheme-ButtonText { color:#31363b; }
.ColorScheme-ButtonBackground { color:#eff0f1; }
.ColorScheme-ButtonHover { color:#93cee9; }
.ColorScheme-ButtonFocus { color:#3daee9; }
</style>
  </defs>
  <sodipodi:namedview
     pagecolor="#ffffff"
     bordercolor="#666666"
     borderopacity="1"
     objecttolerance="10"
     gridtolerance="10000"
     guidetolerance="10"
     inkscape:pageopacity="0"
     inkscape:pageshadow="2"
     inkscape:window-width="1920"
     inkscape:window-height="1013"
     id="namedview4155"
     inkscape:document-units="px"
     showgrid="false"
     inkscape:showpageshadow="false"
     borderlayer="true"
     inkscape:zoom="8.3409091"
     inkscape:cx="-31.531335"
     inkscape:cy="3.4768392"
     inkscape:window-x="0"
     inkscape:window-y="0"
     inkscape:window-maximized="1"
     inkscape:current-layer="svg4153"
     inkscape:pagecheckerboard="0"
     showguides="false"
     inkscape:lockguides="false">
    <inkscape:grid
       type="xygrid"
       id="grid4140"
       originx="-44"
       originy="1.0658141e-14" />
    <sodipodi:guide
       position="-44,22"
       orientation="22,0"
       id="guide4146"
       inkscape:locked="false" />
    <sodipodi:guide
       position="-44,-1.4210855e-14"
       orientation="0,22"
       id="guide4148"
       inkscape:locked="false" />
    <sodipodi:guide
       position="-22,-1.4210855e-14"
       orientation="-22,0"
       id="guide4150"
       inkscape:locked="false" />
    <sodipodi:guide
       position="-22,22"
       orientation="0,-22"
       id="guide4152"
       inkscape:locked="false" />
    <sodipodi:guide
       position="-41,19"
       orientation="16,0"
       id="guide4154"
       inkscape:locked="false" />
    <sodipodi:guide
       position="-26,3"
       orientation="0,16"
       id="guide4156"
       inkscape:locked="false" />
    <sodipodi:guide
       position="-25,3"
       orientation="-16,0"
       id="guide4158"
       inkscape:locked="false" />
    <sodipodi:guide
       position="-25,19"
       orientation="0,-16"
       id="guide4160"
       inkscape:locked="false" />
  </sodipodi:namedview>
  <inkscape:clipboard
     style="opacity:0.01000001;fill:#00000f;fill-opacity:0;stroke-width:1;stroke-linecap:butt;stroke-linejoin:miter;stroke-miterlimit:4;stroke-dasharray:none;stroke-dashoffset:0;stroke-opacity:1;stroke:none"
     min="0,0"
     max="22,22" />
  <g
     id="kpackagekit-inactive"
     transform="translate(-66)">
    <rect
       y="-2.6645353e-15"
       x="0"
       height="22"
       width="22"
       id="rect4214"
       style="fill:none;fill-opacity:0.599057;stroke:none" />
    <path
       fill-rule="evenodd"
       clip-rule="evenodd"
       d="m 5.9999992,15.666668 c 0,-0.257719 0.2238749,-0.46667 0.5000005,-0.46667 C 6.7761251,15.199998 7,15.408949 7,15.666668 c 0,0.257717 -0.2238749,0.466668 -0.5000003,0.466668 -0.2761256,0 -0.5000005,-0.208951 -0.5000005,-0.466668 z m 2.0000005,0 c 0,-0.257719 0.2238749,-0.46667 0.4999995,-0.46667 0.2761254,0 0.5000003,0.208951 0.5000003,0.46667 0,0.257717 -0.2238749,0.466668 -0.5000003,0.466668 -0.2761246,0 -0.4999995,-0.208951 -0.4999995,-0.466668 z m 8.9999993,2.333331 H 4.9999995 C 3.8953748,17.999999 3,17.164197 3,16.133336 v -1.866669 c 0,-1.030869 0.8953748,-1.866671 1.9999995,-1.866671 h 11.9999995 0.03663 c 0.333751,0 0.528813,-0.24928 0.438465,-0.549141 L 16.384025,8.1284525 C 16.317619,7.9080982 16.040994,7.7333313 15.764652,7.7333313 H 15.03906 c -0.549066,0 -1.046151,-0.2069085 -1.407472,-0.5409545 L 11.360841,5.0728924 c -0.197252,-0.1840127 -0.516588,-0.1840127 -0.713869,0 l -0.248537,0.2321965 -4.99e-4,-4.671e-4 c -0.09936,0.092747 -0.236561,0.1500631 -0.388187,0.1500631 -0.3032185,0 -0.5488119,-0.2293381 -0.5488119,-0.5122249 0,-0.1414004 0.061532,-0.2694417 0.1606565,-0.3621919 l -0.00191,-0.00181 0.068837,-0.064143 c 0.3622044,-0.33818 0.8367084,-0.5134715 1.3114864,-0.5143173 0.477223,-8.749e-4 0.954778,0.1743873 1.318846,0.5142667 l 2.164557,2.0337042 c 0.178475,0.1553997 0.417008,0.2520292 0.680656,0.2520292 h 0.35157 c 0.690435,0 1.530025,0.3696 1.913809,1.5157629 l 1.007091,3.5255242 c 4.98e-4,0.002 -4.99e-4,0.0027 0,0.0048 0.03131,0.101851 0.04783,0.209416 0.04783,0.3206 0,0.644406 -0.55956,1.166666 -1.249995,1.166666 H 16.99997 4.9999684 c -0.5522501,0 -0.9999997,0.417901 -0.9999997,0.933332 v 1.866668 c 0,0.515434 0.4477496,0.933335 0.9999997,0.933335 H 16.999999 C 17.552254,17.066366 18,16.648465 18,16.133033 v -1.399972 c 0,-0.25772 0.223872,-0.466667 0.499999,-0.466667 0.276128,0 0.500001,0.208947 0.500001,0.466667 v 1.400002 c 0,1.030863 -0.895501,1.866661 -2.000001,1.866661 z M 8.7499998,6.5666648 c -0.2761256,0 -0.5000003,-0.2089509 -0.5000003,-0.4666671 0,-0.2577175 0.2238747,-0.4666678 0.5000003,-0.4666678 0.2761245,0 0.4999994,0.2089503 0.4999994,0.4666678 0,0.2577162 -0.2238749,0.4666671 -0.4999994,0.4666671 z m 0,1.6333338 c 0.6904369,0 1.2499997,0.5222577 1.2499997,1.1666658 v 0.7000016 c 0,0.257718 0.2238735,0.466666 0.4999985,0.466666 H 11.5 c 0.276126,0 0.499999,-0.208977 0.499999,-0.466666 V 9.3666644 c 0,-0.6444081 0.559559,-1.1666658 1.249995,-1.1666658 h 0.250005 C 13.776126,8.1999986 14,8.4089485 14,8.6666642 c 0,0.2577168 -0.223874,0.466667 -0.500001,0.466667 -0.276127,0 -0.5,0.2089506 -0.5,0.4666672 v 0.6999936 c 0,0.644416 -0.55956,1.166674 -1.250005,1.166674 h -1.499997 c -0.690435,0 -1.2499975,-0.522258 -1.2499975,-1.166674 V 9.5999984 c 0,-0.2577166 -0.2238749,-0.4666672 -0.5000003,-0.4666672 -0.7174063,0 -1.3153126,-0.4707789 -1.4632491,-1.0987673 -0.00643,-0.035324 -0.00502,-0.071108 -0.00863,-0.1066327 -0.00201,4.667e-4 -0.00773,0.00231 -0.00783,0.00161 C 7.0012211,7.8183485 6.8979367,7.7333267 6.773438,7.7333267 H 6.258656 c -0.27625,0 -0.5544372,0.174766 -0.6226876,0.3951213 l -0.899281,3.004166 c -0.00261,0.0148 0.00131,0.02915 -0.00291,0.04374 -0.066276,0.230588 -0.3204363,0.367553 -0.5676236,0.305779 -0.2471863,-0.06201 -0.3939046,-0.298953 -0.3276238,-0.52978 2.507e-4,-0.0012 8.755e-4,-0.002 0.00131,-0.003 l -0.0041,-7.7e-4 0.7587847,-2.6327797 C 4.9825718,7.1695108 5.8253535,6.7999397 6.5156649,6.7999397 h 0.4843742 c 0.5522512,0 1.0000018,0.4178999 1.0000018,0.9333335 0,0.00909 0.00462,0.012774 0.00593,0.0205 0.00191,0.053554 0.010745,0.1066337 0.032215,0.1572378 4.992e-4,0.00161 9.375e-4,0.00321 0.00171,0.00482 0.021962,0.049901 0.056626,0.095458 0.097908,0.1374037 0.091029,0.089982 0.2192185,0.1467373 0.3622812,0.1467373 z"
       id="path2-3"
       style="stroke-width:0.0301903;fill-opacity:1;fill:currentColor;"
       class="ColorScheme-Text" />
  </g>
  <g
     id="kpackagekit-updates"
     transform="translate(-44)">
    <rect
       style="fill:none;fill-opacity:0.599057;stroke:none"
       id="rect4212"
       width="22"
       height="22"
       x="0"
       y="-2.6645353e-15" />
    <path
       fill-rule="evenodd"
       clip-rule="evenodd"
       d="m 5.999969,15.666661 c 0,-0.257717 0.223872,-0.466667 0.499997,-0.466667 0.276125,0 0.499996,0.20895 0.499996,0.466667 0,0.257716 -0.223871,0.466666 -0.499996,0.466666 -0.276125,0 -0.499997,-0.20895 -0.499997,-0.466666 z m 1.999984,0 c 0,-0.257717 0.223872,-0.466667 0.499993,-0.466667 0.276124,0 0.499996,0.20895 0.499996,0.466667 0,0.257716 -0.223872,0.466666 -0.499996,0.466666 -0.276121,0 -0.499993,-0.20895 -0.499993,-0.466666 z m 8.999911,2.333332 H 4.999978 C 3.895364,17.999993 3,17.164194 3,16.133327 v -1.866666 c 0,-1.030867 0.895364,-1.866667 1.999978,-1.866667 h 11.999886 0.03663 c 0.33375,0 0.52881,-0.249286 0.438466,-0.549149 L 16.383909,8.1284503 c -0.0664,-0.220354 -0.343029,-0.395121 -0.619369,-0.395121 h -0.725586 c -0.549057,0 -1.046148,-0.206908 -1.407458,-0.540954 l -2.270727,-2.119483 c -0.197246,-0.184013 -0.516588,-0.184013 -0.713868,0 l -0.248527,0.232196 -5e-4,-4.67e-4 c -0.09936,0.09275 -0.236563,0.150063 -0.388184,0.150063 -0.303218,0 -0.548808,-0.229338 -0.548808,-0.512225 0,-0.1414 0.0615,-0.269441 0.160655,-0.362191 l -0.0018,-0.0018 0.06884,-0.06414 c 0.362217,-0.338188 0.836712,-0.513479 1.311489,-0.514325 0.477212,-8.75e-4 0.954768,0.174387 1.318828,0.514266 l 2.164543,2.033704 c 0.178467,0.1554 0.416995,0.252029 0.680652,0.252029 h 0.351559 c 0.690428,0 1.530013,0.3696 1.913789,1.515762 l 1.007089,3.5255197 c 4.99e-4,0.002 -4.99e-4,0.0027 0,0.0048 0.03125,0.10185 0.04785,0.209416 0.04785,0.3206 0,0.644407 -0.55956,1.166666 -1.249991,1.166666 H 17.000016 5.00013 c -0.552244,0 -0.99999,0.4179 -0.99999,0.933333 v 1.866666 c 0,0.515434 0.447746,0.933334 0.99999,0.933334 h 11.999886 c 0.552243,0 0.999988,-0.4179 0.999988,-0.933334 V 14.73335 c 0,-0.257717 0.223873,-0.466667 0.499991,-0.466667 0.276126,0 0.499999,0.20895 0.499999,0.466667 v 1.399999 c 0,1.030867 -0.895491,1.866666 -1.999978,1.866666 z M 8.749946,6.5666633 c -0.276124,0 -0.499997,-0.20895 -0.499997,-0.466667 0,-0.257717 0.223873,-0.466667 0.499997,-0.466667 0.276118,0 0.499991,0.20895 0.499991,0.466667 0,0.257717 -0.223873,0.466667 -0.499991,0.466667 z m 0,1.633333 c 0.690428,0 1.249986,0.522258 1.249986,1.166666 v 0.6999997 c 0,0.257716 0.223873,0.466666 0.499996,0.466666 h 0.99999 c 0.27612,0 0.499993,-0.208979 0.499993,-0.466666 V 9.3666623 c 0,-0.644408 0.559558,-1.166666 1.24999,-1.166666 h 0.249996 c 0.276124,0 0.499997,0.20895 0.499997,0.466666 0,0.257717 -0.223873,0.466667 -0.499997,0.466667 -0.276124,0 -0.499996,0.20895 -0.499996,0.466667 v 0.6999987 c 0,0.644408 -0.559553,1.166667 -1.249985,1.166667 h -1.499988 c -0.690428,0 -1.249986,-0.522259 -1.249986,-1.166667 V 9.5999963 c 0,-0.257717 -0.223872,-0.466667 -0.499996,-0.466667 -0.717399,0 -1.315298,-0.470779 -1.463236,-1.098767 -0.006,-0.03532 -0.0047,-0.07111 -0.0092,-0.106633 -0.0019,4.67e-4 -0.0072,0.0023 -0.0073,0.0016 C 7.00117,7.8183463 6.897899,7.7333253 6.773402,7.7333253 H 6.258626 c -0.276248,0 -0.554435,0.174766 -0.622681,0.395121 L 4.736672,11.132612 c -0.0024,0.01482 0.0012,0.02917 -0.0027,0.04375 -0.06623,0.230591 -0.320432,0.367558 -0.567617,0.305783 -0.247187,-0.06198 -0.393904,-0.298958 -0.327623,-0.529783 2.51e-4,-0.0012 8.76e-4,-0.002 0.0012,-0.003 l -0.0038,-9.34e-4 0.758771,-2.6327567 c 0.388029,-1.146162 1.230804,-1.515733 1.921109,-1.515733 h 0.484369 c 0.552246,0 0.999992,0.4179 0.999992,0.933333 0,0.0091 0.0043,0.01278 0.0055,0.0205 0.0018,0.05355 0.01078,0.106633 0.0322,0.157237 4.99e-4,0.0016 9.37e-4,0.0032 0.0016,0.0048 0.02199,0.0499 0.05658,0.09546 0.09789,0.137404 0.09104,0.08998 0.219217,0.146737 0.362278,0.146737 z"
       id="path2"
       style="stroke-width:0.0301904;fill-opacity:1;fill:currentColor;"
       class="ColorScheme-Text" />
    <path
       inkscape:connector-curvature="0"
       id="path4180-3"
       d="m 15.3749,13.450059 a 1.75,1.75 0 0 0 -1.75,1.75 1.75,1.75 0 0 0 1.75,1.75 1.75,1.75 0 0 0 1.75,-1.75 1.75,1.75 0 0 0 -1.75,-1.75 z"
       style="fill:#2ecc71;fill-opacity:1;stroke:none;stroke-width:0.583335" />
  </g>
  <g
     id="kpackagekit-security"
     transform="translate(-22)">
    <rect
       style="fill:none;fill-opacity:0.599057;stroke:none"
       id="rect4208"
       width="22"
       height="22"
       x="0"
       y="-2.6645353e-15" />
    <path
       fill-rule="evenodd"
       clip-rule="evenodd"
       d="m 5.999996,15.666661 c 0,-0.257717 0.223872,-0.466667 0.499997,-0.466667 0.276129,0 0.5,0.20895 0.5,0.466667 0,0.257716 -0.223871,0.466666 -0.5,0.466666 -0.276125,0 -0.499997,-0.20895 -0.499997,-0.466666 z m 1.999996,0 c 0,-0.257717 0.223872,-0.466667 0.499998,-0.466667 0.276127,0 0.499999,0.20895 0.499999,0.466667 0,0.257716 -0.223872,0.466666 -0.499999,0.466666 -0.276126,0 -0.499998,-0.20895 -0.499998,-0.466666 z m 8.999983,2.333332 H 4.999996 C 3.895372,17.999993 3,17.164194 3,16.133327 v -1.866666 c 0,-1.030867 0.895372,-1.866667 1.999996,-1.866667 h 11.999979 0.03663 c 0.333751,0 0.528813,-0.249286 0.438466,-0.549149 l -1.09106,-3.7223947 c -0.0664,-0.220354 -0.343031,-0.395121 -0.619373,-0.395121 h -0.725593 c -0.549063,0 -1.04615,-0.206908 -1.407469,-0.540954 l -2.270744,-2.119483 c -0.19725,-0.184013 -0.516588,-0.184013 -0.713869,0 l -0.248535,0.232196 -4.99e-4,-4.67e-4 c -0.09936,0.09275 -0.236559,0.150063 -0.388186,0.150063 -0.303217,0 -0.54881,-0.229338 -0.54881,-0.512225 0,-0.1414 0.06148,-0.269441 0.160655,-0.362191 l -0.0018,-0.0018 0.06884,-0.06414 c 0.362218,-0.338188 0.836716,-0.513479 1.311498,-0.514325 0.477215,-8.75e-4 0.954779,0.174387 1.318839,0.514266 l 2.16456,2.033704 c 0.178468,0.1554 0.416999,0.252029 0.680656,0.252029 h 0.35156 c 0.690436,0 1.53003,0.3696 1.913809,1.515762 l 1.007094,3.5255197 c 5e-4,0.002 -5.01e-4,0.0027 0,0.0048 0.03129,0.10185 0.04785,0.209416 0.04785,0.3206 0,0.644407 -0.559563,1.166666 -1.249999,1.166666 H 17.000004 5.000025 c -0.552245,0 -0.999999,0.4179 -0.999999,0.933333 v 1.866666 c 0,0.515434 0.447754,0.933334 0.999999,0.933334 h 11.999979 c 0.552252,0 0.999997,-0.4179 0.999997,-0.933334 V 14.73335 c 0,-0.257717 0.223874,-0.466667 0.499999,-0.466667 0.276127,0 0.5,0.20895 0.5,0.466667 v 1.399999 c 0,1.030867 -0.8955,1.866666 -1.999996,1.866666 z M 8.749987,6.5666633 c -0.276119,0 -0.5,-0.20895 -0.5,-0.466667 0,-0.257717 0.223881,-0.466667 0.5,-0.466667 0.276124,0 0.499997,0.20895 0.499997,0.466667 0,0.257717 -0.223873,0.466667 -0.499997,0.466667 z m 0,1.633333 c 0.690441,0 1.250001,0.522258 1.250001,1.1666657 v 0.7 c 0,0.257716 0.223873,0.466666 0.499999,0.466666 h 0.999998 c 0.276126,0 0.5,-0.208979 0.5,-0.466666 v -0.7 c 0,-0.6444077 0.559557,-1.1666657 1.249992,-1.1666657 h 0.250004 c 0.276128,0 0.500001,0.20895 0.500001,0.466666 0,0.257717 -0.223873,0.466667 -0.500001,0.466667 -0.276126,0 -0.499998,0.2089497 -0.499998,0.4666667 v 0.699999 c 0,0.644408 -0.55956,1.166667 -1.250002,1.166667 h -1.499998 c -0.690434,0 -1.249994,-0.522259 -1.249994,-1.166667 V 9.599996 c 0,-0.257717 -0.223872,-0.4666667 -0.499999,-0.4666667 -0.717407,0 -1.315312,-0.470779 -1.463245,-1.098767 -0.006,-0.03532 -0.0047,-0.07111 -0.0092,-0.106633 -0.0019,4.67e-4 -0.0072,0.0023 -0.0073,0.0016 C 7.001205,7.8183463 6.897928,7.7333253 6.773431,7.7333253 H 6.258653 c -0.276252,0 -0.554443,0.174766 -0.622688,0.395121 L 4.736681,11.132612 c -0.0024,0.01482 0.0012,0.02917 -0.0027,0.04375 -0.06623,0.230591 -0.320436,0.367558 -0.567624,0.305783 -0.247186,-0.06198 -0.393904,-0.298958 -0.327625,-0.529783 2.53e-4,-0.0012 8.76e-4,-0.002 0.0012,-0.003 l -0.0038,-9.34e-4 0.75878,-2.6327567 c 0.388032,-1.146162 1.230813,-1.515733 1.921122,-1.515733 h 0.484374 c 0.552251,0 1,0.4179 1,0.933333 0,0.0091 0.0043,0.01278 0.0055,0.0205 0.0018,0.05355 0.01078,0.106633 0.0322,0.157237 5.07e-4,0.0016 9.39e-4,0.0032 0.0016,0.0048 0.02199,0.0499 0.05658,0.09546 0.09789,0.137404 0.09104,0.08998 0.219219,0.146737 0.362282,0.146737 z"
       id="path2-6"
       style="stroke-width:0.0301905;fill-opacity:1;fill:currentColor;"
       class="ColorScheme-Text" />
    <path
       inkscape:connector-curvature="0"
       style="fill:#fdbc4b;fill-opacity:1;fill-rule:evenodd;stroke:none;stroke-width:0.603808px;stroke-linecap:butt;stroke-linejoin:miter;stroke-opacity:1"
       d="m 15.99998,13.333392 c 0,0.583333 -1.250002,0.583333 -1.250002,0.583333 v 1.75 c 0,0.583334 0.625006,0.583334 1.250002,1.166667 0.624997,-0.583333 1.249993,-0.583333 1.249993,-1.166667 v -1.75 c 0,0 -1.249993,0 -1.249993,-0.583333 z"
       id="path4191-5" />
  </g>
  <g
     id="kpackagekit-important">
    <rect
       y="-2.6645353e-15"
       x="0"
       height="22"
       width="22"
       id="rect4206"
       style="fill:none;fill-opacity:0.599057;stroke:none" />
    <path
       fill-rule="evenodd"
       clip-rule="evenodd"
       d="m 5.999996,15.666661 c 0,-0.257717 0.223872,-0.466667 0.499997,-0.466667 0.276129,0 0.5,0.20895 0.5,0.466667 0,0.257716 -0.223871,0.466666 -0.5,0.466666 -0.276125,0 -0.499997,-0.20895 -0.499997,-0.466666 z m 1.999996,0 c 0,-0.257717 0.223872,-0.466667 0.499998,-0.466667 0.276127,0 0.499999,0.20895 0.499999,0.466667 0,0.257716 -0.223872,0.466666 -0.499999,0.466666 -0.276126,0 -0.499998,-0.20895 -0.499998,-0.466666 z m 8.999983,2.333332 H 4.999996 C 3.895372,17.999993 3,17.164194 3,16.133327 v -1.866666 c 0,-1.030867 0.895372,-1.866667 1.999996,-1.866667 h 11.999979 0.03663 c 0.333751,0 0.528813,-0.249286 0.438466,-0.549149 l -1.09106,-3.7223947 c -0.0664,-0.220354 -0.343031,-0.395121 -0.619373,-0.395121 h -0.725593 c -0.549063,0 -1.04615,-0.206908 -1.407469,-0.540954 l -2.270744,-2.119483 c -0.19725,-0.184013 -0.516588,-0.184013 -0.713869,0 l -0.248535,0.232196 -4.99e-4,-4.67e-4 c -0.09936,0.09275 -0.236559,0.150063 -0.388186,0.150063 -0.303217,0 -0.54881,-0.229338 -0.54881,-0.512225 0,-0.1414 0.06148,-0.269441 0.160655,-0.362191 l -0.0018,-0.0018 0.06884,-0.06414 c 0.362218,-0.338188 0.836716,-0.513479 1.311498,-0.514325 0.477215,-8.75e-4 0.954779,0.174387 1.318839,0.514266 l 2.16456,2.033704 c 0.178468,0.1554 0.416999,0.252029 0.680656,0.252029 h 0.35156 c 0.690436,0 1.53003,0.3696 1.913809,1.515762 l 1.007094,3.5255197 c 5e-4,0.002 -5.01e-4,0.0027 0,0.0048 0.03124,0.10185 0.04785,0.209416 0.04785,0.3206 0,0.644407 -0.559563,1.166666 -1.249999,1.166666 H 17.000004 5.000025 c -0.552245,0 -0.999999,0.4179 -0.999999,0.933333 v 1.866666 c 0,0.515434 0.447754,0.933334 0.999999,0.933334 h 11.999979 c 0.552252,0 0.999997,-0.4179 0.999997,-0.933334 V 14.73335 c 0,-0.257717 0.223874,-0.466667 0.499999,-0.466667 0.276127,0 0.5,0.20895 0.5,0.466667 v 1.399999 c 0,1.030867 -0.8955,1.866666 -1.999996,1.866666 z M 8.749987,6.5666633 c -0.276119,0 -0.5,-0.20895 -0.5,-0.466667 0,-0.257717 0.223881,-0.466667 0.5,-0.466667 0.276124,0 0.499997,0.20895 0.499997,0.466667 0,0.257717 -0.223873,0.466667 -0.499997,0.466667 z m 0,1.633333 c 0.690441,0 1.250001,0.522258 1.250001,1.166666 v 0.6999997 c 0,0.257716 0.223873,0.466666 0.499999,0.466666 h 0.999998 c 0.276126,0 0.5,-0.208979 0.5,-0.466666 V 9.3666623 c 0,-0.644408 0.559557,-1.166666 1.249992,-1.166666 h 0.250004 c 0.276128,0 0.500001,0.20895 0.500001,0.466666 0,0.257717 -0.223873,0.466667 -0.500001,0.466667 -0.276126,0 -0.499998,0.20895 -0.499998,0.466667 v 0.6999987 c 0,0.644408 -0.55956,1.166667 -1.250002,1.166667 h -1.499998 c -0.690434,0 -1.249994,-0.522259 -1.249994,-1.166667 V 9.5999963 c 0,-0.257717 -0.223872,-0.466667 -0.499999,-0.466667 -0.717407,0 -1.315312,-0.470779 -1.463245,-1.098767 -0.006,-0.03532 -0.0047,-0.07111 -0.0092,-0.106633 -0.0019,4.67e-4 -0.0072,0.0023 -0.0073,0.0016 C 7.001205,7.8183463 6.897928,7.7333253 6.773431,7.7333253 H 6.258653 c -0.276252,0 -0.554443,0.174766 -0.622688,0.395121 L 4.736681,11.132612 c -0.0024,0.01482 0.0012,0.02917 -0.0027,0.04375 -0.06625,0.230591 -0.320436,0.367558 -0.567624,0.305783 -0.247186,-0.06198 -0.393904,-0.298958 -0.327625,-0.529783 2.53e-4,-0.0012 8.76e-4,-0.002 0.0012,-0.003 l -0.0038,-9.34e-4 0.75878,-2.6327567 c 0.388032,-1.146162 1.230813,-1.515733 1.921122,-1.515733 h 0.484374 c 0.552251,0 1,0.4179 1,0.933333 0,0.0091 0.0043,0.01278 0.0055,0.0205 0.0018,0.05355 0.01078,0.106633 0.0322,0.157237 5.07e-4,0.0016 9.39e-4,0.0032 0.0016,0.0048 0.02199,0.0499 0.05658,0.09546 0.09789,0.137404 0.09104,0.08998 0.219219,0.146737 0.362282,0.146737 z"
       id="path2-5"
       style="stroke-width:0.0301905;fill-opacity:1;fill:currentColor;"
       class="ColorScheme-Text" />
    <path
       style="fill:#d35f5f;fill-opacity:1;fill-rule:evenodd;stroke:none;stroke-width:0.603808px;stroke-linecap:butt;stroke-linejoin:miter;stroke-opacity:1"
       d="m 15.499982,13.741725 1.874999,2.916667 h -3.749999 z"
       id="path4202-6"
       inkscape:connector-curvature="0" />
  </g>
</svg>
