<?xml version="1.0" encoding="UTF-8" standalone="no"?>
<svg
   id="svg2"
   version="1.1"
   viewBox="0 0 22 22"
   sodipodi:docname="kup.svg"
   inkscape:version="1.1.2 (0a00cf5339, 2022-02-04)"
   xmlns:inkscape="http://www.inkscape.org/namespaces/inkscape"
   xmlns:sodipodi="http://sodipodi.sourceforge.net/DTD/sodipodi-0.dtd"
   xmlns="http://www.w3.org/2000/svg"
   xmlns:svg="http://www.w3.org/2000/svg">
  <sodipodi:namedview
     id="namedview9"
     pagecolor="#ffffff"
     bordercolor="#666666"
     borderopacity="1.0"
     inkscape:pageshadow="2"
     inkscape:pageopacity="0.0"
     inkscape:pagecheckerboard="0"
     showgrid="false"
     inkscape:zoom="14.136364"
     inkscape:cx="5.5530545"
     inkscape:cy="12.237942"
     inkscape:window-width="1920"
     inkscape:window-height="1013"
     inkscape:window-x="0"
     inkscape:window-y="0"
     inkscape:window-maximized="1"
     inkscape:current-layer="svg2"
     inkscape:lockguides="false">
    <inkscape:grid
       type="xygrid"
       id="grid831" />
  </sodipodi:namedview>
  <defs
     id="defs4">
    <style
       id="current-color-scheme"
       type="text/css">.ColorScheme-Text { color:#eff0f1; }
</style>
  </defs>
  <g
     id="kup">
    <path
       id="rect4246"
       class="ColorScheme-Text"
       d="M 0,0 H 22 V 22 H 0 Z"
       fill="none"
       style="" />
    <path
       d="m 11.006309,16.618909 h -0.343753 c -0.190009,0 -0.343726,-0.154086 -0.343726,-0.343749 0,-0.19001 0.153717,-0.343751 0.343726,-0.343751 h 0.343753 c 2.657809,0 4.812418,-2.154799 4.812418,-4.812547 0,-2.657665 -2.154609,-4.812456 -4.812418,-4.812456 -2.657645,0 -4.812435,2.154791 -4.812435,4.812456 0,1.574438 0.759514,2.968261 1.928193,3.846093 l -0.0051,0.005 c 0.08309,0.06281 0.137808,0.161485 0.137808,0.273934 0,0.189643 -0.153747,0.34375 -0.343751,0.34375 -0.07747,0 -0.147706,-0.02686 -0.205287,-0.06981 l -0.0012,0.0014 C 6.369388,14.515811 5.505,12.918256 5.505,11.11887 c 0,-3.03767 2.462256,-5.499952 5.49992,-5.499952 3.037307,0 5.500081,2.462283 5.500081,5.499952 0,3.037443 -2.462774,5.500048 -5.500081,5.500048 z M 8.943996,16.27516 Z m 6.874731,-5.156298 v 0 0 0 0 0 l 0.03025,-0.0054 -0.02912,0.0054 0.0054,-0.0054 5.63e-4,0.005 0.02585,-0.01267 -0.0378,0.0133 0.01343,0.0032 0.0054,6.18e-4 -0.01326,-5.93e-4 v 0 l 0.0084,-2.5e-5 0.0054,6.18e-4 0.01705,-0.0065 z"
       id="path2"
       sodipodi:nodetypes="ssssssssccssccsssssccccccccccccccccccccccccc"
       style="stroke-width:0.021485;fill-opacity:1;fill:currentColor;"
       class="ColorScheme-Text" />
    <path
       fill-rule="evenodd"
       clip-rule="evenodd"
       d="m 17.373911,10.188098 c -0.005,0.0058 -0.006,0.01072 -0.01209,0.01649 -0.438749,0.439558 -0.438749,1.151822 0,1.590572 0.0066,0.0066 0.008,0.01206 0.01318,0.01863 l 1.967024,1.96671 c 0.877253,0.877252 0.877253,2.300304 0,3.177557 l -2.383273,2.383802 c -0.877816,0.877533 -2.300341,0.877533 -3.178121,0 l -1.967587,-1.967271 c -0.0061,-0.0055 -0.01125,-0.006 -0.01782,-0.01262 -0.439031,-0.439557 -1.151014,-0.439557 -1.590642,0 -0.219656,0.219376 -0.575472,0.219376 -0.795128,0 -0.219375,-0.219375 -0.219375,-0.575472 0,-0.795689 l -0.0016,-0.0017 0.178207,-0.178452 c 0.0071,-0.0066 0.01427,-0.01072 0.02222,-0.01839 0.768514,-0.76876 2.015083,-0.76876 2.783316,0 0.0083,0.0082 0.01624,0.01318 0.02447,0.02032 l 1.96038,1.960943 c 0.548577,0.54805 1.437959,0.54805 1.986536,0 l 1.985974,-1.986783 c 0.54805,-0.548015 0.54805,-1.43708 0,-1.985938 l -1.960982,-1.960052 c -0.0071,-0.0085 -0.01181,-0.01621 -0.02004,-0.02472 -0.768233,-0.768514 -0.768233,-2.01452 0,-2.783281 0.0077,-0.0077 0.01181,-0.01484 0.01839,-0.02197 l 1.96263,-1.962876 c 0.54805,-0.548015 0.54805,-1.43708 0,-1.985938 L 16.362979,3.651509 c -0.548577,-0.548578 -1.437923,-0.548578 -1.986536,0 l -1.959255,1.959044 c -0.0082,0.008 -0.01677,0.01262 -0.02559,0.02169 -0.768268,0.768795 -2.014802,0.768795 -2.783316,0 -0.0085,-0.0085 -0.01621,-0.01262 -0.02387,-0.01976 L 7.62343,3.651541 c -0.54805,-0.548578 -1.437361,-0.548578 -1.985974,0 L 3.651518,5.637479 c -0.548859,0.548859 -0.548859,1.437924 0,1.985939 l 1.960696,1.960977 c 0.0071,0.0077 0.01153,0.01564 0.01976,0.02387 0.768796,0.768796 0.768796,2.014767 0,2.783281 -0.0091,0.0091 -0.01375,0.0173 -0.02141,0.02581 l -1.959044,1.95901 c -0.548858,0.548859 -0.548858,1.437923 0,1.985937 l 1.787974,1.788818 -0.06701,0.06669 c 0.09418,0.02391 0.185625,0.06427 0.259488,0.13841 0.220183,0.219374 0.220183,0.575506 0,0.794882 -0.219374,0.21962 -0.575507,0.21962 -0.794881,0 -0.07411,-0.0739 -0.113942,-0.165023 -0.137813,-0.259488 l -0.05382,0.05382 -1.987063,-1.987344 c -0.87778,-0.877253 -0.87778,-2.300305 0,-3.177557 l 1.966743,-1.966709 c 0.0055,-0.0066 0.0066,-0.01209 0.01318,-0.01863 0.43903,-0.43875 0.43903,-1.151014 0,-1.590572 -0.0058,-0.0058 -0.0066,-0.01072 -0.01181,-0.01649 L 2.658335,8.219175 c -0.87778,-0.877253 -0.87778,-2.300341 0,-3.177558 L 5.041644,2.658343 c 0.877217,-0.87778 2.300059,-0.87778 3.17812,0 l 1.966181,1.966462 c 0.0066,0.0052 0.01209,0.0066 0.01867,0.01318 0.439593,0.439593 1.151576,0.439593 1.590642,0 0.0071,-0.0071 0.01315,-0.008 0.01948,-0.01375 l 1.965935,-1.9659 c 0.877815,-0.87778 2.300341,-0.87778 3.178121,0 l 2.383274,2.383274 c 0.877252,0.877217 0.877252,2.300305 0,3.177558 z m -9.18519,7.559672 c 0.309972,0 0.561761,0.251754 0.561761,0.562605 0,0.309972 -0.251754,0.562288 -0.561761,0.562288 -0.310816,0 -0.562323,-0.252316 -0.562323,-0.562288 0,-0.310851 0.251507,-0.562605 0.562323,-0.562605 z"
       id="path2-3"
       style="stroke-width:0.0351562;fill-opacity:1;fill:currentColor;"
       class="ColorScheme-Text" />
  </g>
</svg>
