<?xml version="1.0" encoding="UTF-8" standalone="no"?>
<svg
   version="1.1"
   viewBox="0 0 22 22"
   id="svg12"
   sodipodi:docname="list.svg"
   width="22"
   height="22"
   inkscape:version="1.1.2 (0a00cf5339, 2022-02-04)"
   xmlns:inkscape="http://www.inkscape.org/namespaces/inkscape"
   xmlns:sodipodi="http://sodipodi.sourceforge.net/DTD/sodipodi-0.dtd"
   xmlns="http://www.w3.org/2000/svg"
   xmlns:svg="http://www.w3.org/2000/svg"
   xmlns:rdf="http://www.w3.org/1999/02/22-rdf-syntax-ns#"
   xmlns:cc="http://creativecommons.org/ns#"
   xmlns:dc="http://purl.org/dc/elements/1.1/">
  <style
     id="current-color-scheme"
     type="text/css">.ColorScheme-Text { color:#d6dbf1; }
</style>
  <metadata
     id="metadata18">
    <rdf:RDF>
      <cc:Work
         rdf:about="">
        <dc:format>image/svg+xml</dc:format>
        <dc:type
           rdf:resource="http://purl.org/dc/dcmitype/StillImage" />
      </cc:Work>
    </rdf:RDF>
  </metadata>
  <defs
     id="defs16" />
  <sodipodi:namedview
     pagecolor="#ffffff"
     bordercolor="#666666"
     borderopacity="1"
     objecttolerance="10"
     gridtolerance="10"
     guidetolerance="10"
     inkscape:pageopacity="0"
     inkscape:pageshadow="2"
     inkscape:window-width="1920"
     inkscape:window-height="1013"
     id="namedview14"
     showgrid="false"
     inkscape:zoom="10.092342"
     inkscape:cx="22.343674"
     inkscape:cy="8.570855"
     inkscape:window-x="0"
     inkscape:window-y="0"
     inkscape:window-maximized="1"
     inkscape:current-layer="svg12"
     inkscape:document-rotation="0"
     inkscape:lockguides="false"
     inkscape:pagecheckerboard="0">
    <inkscape:grid
       type="xygrid"
       id="grid858"
       originx="22"
       originy="0" />
  </sodipodi:namedview>
  <g
     id="list-add">
    <path
       style="opacity:0.00100002"
       d="M 0,0 H 22 V 22 H 0 Z"
       id="path2" />
    <path
       fill-rule="evenodd"
       clip-rule="evenodd"
       d="m 8.499781,8.0002187 c 0.276125,0 0.5,0.223875 0.5,0.5 0,0.276375 -0.223875,0.50025 -0.5,0.50025 -0.276375,0 -0.50025,-0.223875 -0.50025,-0.50025 0,-0.2761562 0.223875,-0.5 0.50025,-0.5 z m 8.500188,5.9998133 h -1.9995 -0.001 c -0.55175,0 -0.999532,0.44775 -0.999532,0.9995 v 5e-4 V 17 c 0,1.1045 -0.8955,2 -2,2 H 10.000063 C 8.895313,19 7.999531,18.1045 7.999531,17 v -1.999968 -5e-4 0 c 0,-0.55175 -0.4475,-0.9995 -0.9995,-0.9995 h -5e-4 v 0 H 4.99975 C 3.895031,14.000032 3,13.105 3,12.000063 V 9.999938 C 3,8.8959375 3.895031,8.0002187 4.99975,8.0002187 H 6.5 c 0.275625,0 0.5,0.223875 0.5,0.5 0,0.276375 -0.224375,0.50025 -0.5,0.50025 H 5.25 c -0.690437,0 -1.250531,0.5593126 -1.250531,1.2497503 v 1.499875 c 0,0.690438 0.560062,1.2505 1.250531,1.2505 h 1.99975 c 0.966813,0 1.75,0.783188 1.75,1.749969 v 1.9995 c 0,0.690406 0.559594,1.249969 1.25,1.249969 h 1.500156 c 0.690469,0 1.250031,-0.559563 1.250031,-1.249969 v -1.9995 c 0,-0.966813 0.783188,-1.749969 1.75,-1.749969 h 1.999532 c 0.690875,0 1.249968,-0.560062 1.249968,-1.2505 v -1.499875 c 0,-0.6904065 -0.559093,-1.2497503 -1.249968,-1.2497503 h -1.999532 c -0.966812,0 -1.75,-0.7839374 -1.75,-1.7499997 V 5.25 c 0,-0.690437 -0.559562,-1.24975 -1.250031,-1.24975 H 10.24975 c -0.690406,0 -1.25,0.559313 -1.25,1.24975 V 6.5 c 0,0.276375 -0.223875,0.5 -0.5,0.5 C 8.223375,7 7.9995,6.776375 7.9995,6.5 V 5.000219 C 7.999531,3.89575 8.895281,3 10.000031,3 h 1.999906 c 1.1045,0 2,0.89575 2,2.000219 v 1.99975 7.2e-4 c 0,0.5524997 0.447782,0.9994998 0.999532,0.9994998 h 0.001 1.9995 c 1.1045,0 2.000031,0.89575 2.000031,1.9997192 v 2.000125 c 3.1e-5,1.104969 -0.8955,2 -2,2 z"
       id="path2-36"
       style="stroke-width:0.03125;fill-opacity:1;fill:currentColor;"
       class="ColorScheme-Text" />
  </g>
  <g
     id="list-remove"
     transform="translate(22)">
    <path
       style="opacity:0.00100002"
       d="M 0,0 H 22 V 22 H 0 Z"
       id="path7" />
    <path
       fill-rule="evenodd"
       clip-rule="evenodd"
       d="m 3.0019955,12.990593 v -0.498385 c 0,-0.27498 0.2235992,-0.49837 0.4994424,-0.49837 0.276343,0 0.4999425,0.22339 0.4999425,0.49837 v 0.498385 c 0,0.550465 0.096575,0.988164 0.6487519,0.988539 l 12.3500117,0.008 c 0.552684,3.8e-4 1.000013,-0.44655 1.000013,-0.997016 v -3.98705 c 0,-0.5502144 -0.447356,-0.9967726 -1.000013,-0.9967726 l -11.9999725,1.13e-5 c -0.312464,0 -1.0155095,-0.073599 -1.0155095,0.549051 v 0.4702224 c 0,0.3114896 -0.2562201,0.4672419 -0.4905682,0.4655433 C 3.2597454,9.4922614 3.0003999,9.3371087 3.0003999,9.0151337 v -0.456778 c 0,-1.2459643 0.9061463,-1.5574497 1.9997716,-1.5574497 v 0 l 11.9999725,0.00798 v 0 0 0 0 0 0 0 0 0 0 0 L 5.0001715,7 17.000144,7.01024 c 0.507752,4.101e-4 0.969739,0.1900696 1.322257,0.5008025 0.04989,0.04352 0.09636,0.089333 0.141326,0.1374918 0.0034,0.00339 0.0066,0.00907 0.01168,0.012868 0.04035,0.044089 0.07901,0.090572 0.115463,0.137992 0.0057,0.00907 0.01334,0.017771 0.02025,0.026777 0.03317,0.045226 0.06513,0.092736 0.09477,0.1408864 0.0061,0.01219 0.01451,0.022897 0.02119,0.034974 0.02573,0.044318 0.04989,0.089544 0.07231,0.1365344 0.0066,0.01561 0.01622,0.0311 0.02352,0.047401 0.02128,0.0474 0.04108,0.096599 0.059,0.1462391 0.0047,0.01582 0.01133,0.03016 0.01663,0.04602 0.0163,0.04968 0.02987,0.10096 0.04267,0.1525631 0.0035,0.01647 0.0104,0.03238 0.01292,0.04968 0.01292,0.05818 0.02246,0.1172801 0.02972,0.1776517 0.0011,0.0094 0.0025,0.01887 0.0035,0.02842 C 18.994752,8.858115 19,8.9308906 19,9.0039083 v 0.1683859 3.8186628 c 0,1.100919 -0.895267,1.992424 -2.000021,1.99378 l -12.4025698,0.01526 c -1.7201468,0.0023 -1.595408,-1.551768 -1.595408,-2.008987 z m 0.9993849,-2.491662 c 0,0.274985 -0.2235995,0.49838 -0.4999425,0.49838 -0.2758432,0 -0.4994424,-0.223395 -0.4994424,-0.49838 0,-0.275474 0.2235992,-0.498384 0.4994424,-0.498384 0.276343,0 0.4999425,0.22291 0.4999425,0.498384 z"
       id="path2-3"
       sodipodi:nodetypes="sssssssssscsccscccccccccccccccsscccccccccccccccscsssssssss"
       style="stroke-width:0.0311975;fill-opacity:1;fill:currentColor;"
       class="ColorScheme-Text" />
  </g>
</svg>
