<?xml version="1.0" encoding="UTF-8" standalone="no"?>
<svg
   width="32"
   height="32"
   version="1.1"
   id="svg22"
   sodipodi:docname="mail.svg"
   inkscape:version="1.1.2 (0a00cf5339, 2022-02-04)"
   xmlns:inkscape="http://www.inkscape.org/namespaces/inkscape"
   xmlns:sodipodi="http://sodipodi.sourceforge.net/DTD/sodipodi-0.dtd"
   xmlns="http://www.w3.org/2000/svg"
   xmlns:svg="http://www.w3.org/2000/svg"
   xmlns:rdf="http://www.w3.org/1999/02/22-rdf-syntax-ns#"
   xmlns:cc="http://creativecommons.org/ns#"
   xmlns:dc="http://purl.org/dc/elements/1.1/">
  <style
     id="current-color-scheme"
     type="text/css">.ColorScheme-Highlight { color:#476382; }
.ColorScheme-Text { color:#d6dbf1; }
</style>
  <g
     id="22-22-mail-unread"
     transform="translate(32,42)">
    <rect
       style="opacity:0.00100002"
       width="22"
       height="22"
       x="0"
       y="0"
       id="rect2-6" />
    <path
       d="m 4.2009381,15.848076 c -0.2438675,-0.24011 -0.2438675,-0.629831 0,-0.869903 l 1.7678514,-1.740612 c 0.2439835,-0.240955 0.639648,-0.240955 0.8836324,0 0.2439842,0.240072 0.2439842,0.629793 0,0.869864 l -1.7678514,1.740651 c -0.2440233,0.240302 -0.6396491,0.240302 -0.8836324,0 z m 12.7143349,0 -1.76785,-1.740651 c -0.24379,-0.240071 -0.24379,-0.629792 0,-0.869864 0.24414,-0.240955 0.639609,-0.240955 0.883788,0 l 1.767892,1.740612 c 0.243749,0.240072 0.243749,0.629793 0,0.869903 -0.24418,0.240302 -0.639727,0.240302 -0.88383,0 z m 3.365433,-9.261085 -7.512971,6.781875 c -0.976291,0.961246 -2.559218,0.961246 -3.5355867,0 L 4.8240623,9.028586 4.5422652,8.751285 3.3385543,7.565929 l -0.00456,0.0015 C 3.2199994,7.427092 3.05746,7.307517 2.8752728,7.307517 c -0.3454296,0 -0.6251565,0.275571 -0.6251565,0.61537 v 1.733689 0.728329 6.153044 c 0,0.680253 0.5595312,1.230932 1.2501567,1.230932 h 14.999455 c 0.690624,0 1.24992,-0.550679 1.24992,-1.230932 V 9.153896 c 0,-0.340146 0.279884,-0.61537 0.625352,-0.61537 0.345195,0 0.625,0.275263 0.625,0.61537 v 7.384053 C 20.999967,17.897565 19.880278,19 18.499692,19 H 3.500274 C 2.1195312,18.999961 1,17.897527 1,16.537944 V 7.92292 C 1,6.903714 1.8398435,6.077387 2.8752738,6.077387 c 0.4824995,0 0.9179683,0.217264 1.2501173,0.532488 v -0.01054 l 5.9909759,5.898819 c 0.487852,0.481104 1.279297,0.481104 1.767266,0 L 19.396249,5.716281 C 19.641054,5.47621 19.758476,5.160987 19.756993,4.846417 h -0.0072 c 0,-0.679945 -0.559298,-0.61537 -1.249924,-0.61537 H 5.3749221 C 5.0302341,4.231047 4.749805,3.955515 4.749805,3.61537 4.749805,3.27557 5.0302341,3 5.3749221,3 H 18.499728 c 1.146521,0 2.111131,0.338031 2.40535,1.231009 v 0 c 0.213283,0.816442 0.02468,1.71719 -0.624372,2.355982 z M 2.8752738,4.231047 C 2.5298432,4.231047 2.2501173,3.955515 2.2501173,3.61537 2.2501173,3.27557 2.5298432,3 2.8752738,3 3.2205864,3 3.500274,3.275532 3.500274,3.61537 c 0,0.340145 -0.2796876,0.615677 -0.6250002,0.615677 z"
       id="path2-3"
       style="fill:currentColor;fill-opacity:1;stroke-width:0.0387604"
       class="ColorScheme-Text" />
  </g>
  <metadata
     id="metadata28">
    <rdf:RDF>
      <cc:Work
         rdf:about="">
        <dc:format>image/svg+xml</dc:format>
        <dc:type
           rdf:resource="http://purl.org/dc/dcmitype/StillImage" />
      </cc:Work>
    </rdf:RDF>
  </metadata>
  <defs
     id="defs26" />
  <sodipodi:namedview
     pagecolor="#ffffff"
     bordercolor="#000000"
     borderopacity="1"
     objecttolerance="10"
     gridtolerance="10"
     guidetolerance="10"
     inkscape:pageopacity="0"
     inkscape:pageshadow="2"
     inkscape:window-width="1920"
     inkscape:window-height="1011"
     id="namedview24"
     showgrid="false"
     inkscape:zoom="6.9384853"
     inkscape:cx="34.51762"
     inkscape:cy="40.498753"
     inkscape:window-x="0"
     inkscape:window-y="0"
     inkscape:window-maximized="1"
     inkscape:current-layer="svg22"
     inkscape:document-rotation="0"
     showguides="false"
     inkscape:showpageshadow="false"
     inkscape:lockguides="true"
     inkscape:pagecheckerboard="0">
    <inkscape:grid
       type="xygrid"
       id="grid884"
       originx="0"
       originy="32" />
  </sodipodi:namedview>
  <g
     id="mail-unread"
     transform="translate(0,32)">
    <rect
       style="opacity:0.00100002"
       width="32"
       height="32"
       x="0"
       y="0"
       id="rect7-3" />
    <path
       d="m 6.4813209,23.272109 c -0.3414153,-0.360157 -0.3414153,-0.944742 0,-1.304844 l 2.4749981,-2.61092 c 0.341579,-0.361434 0.895513,-0.361434 1.237091,0 0.34158,0.360102 0.34158,0.944686 0,1.304789 l -2.4750015,2.610975 c -0.3416341,0.360453 -0.8955094,0.360453 -1.2370876,0 z m 17.8001001,0 -2.474991,-2.610975 c -0.341309,-0.360103 -0.341309,-0.944687 0,-1.304789 0.341797,-0.361434 0.895447,-0.361434 1.237298,0 l 2.475056,2.61092 c 0.341248,0.360102 0.341248,0.944686 0,1.304844 -0.341851,0.360453 -0.895625,0.360453 -1.237363,0 z M 28.993025,9.380489 18.474861,19.553294 c -1.366808,1.441872 -3.582922,1.441872 -4.949834,0 l -6.1713307,-6.510411 -0.3945165,-0.41595 -1.6851974,-1.77804 -0.00648,0.0022 C 5.1079457,10.640618 4.8803908,10.461261 4.6253276,10.461261 c -0.4836018,0 -0.8752203,0.413352 -0.8752203,0.923053 v 2.60054 1.092491 9.229561 c 0,1.020384 0.783346,1.846398 1.7502221,1.846398 H 26.499607 c 0.966879,0 1.749902,-0.826014 1.749902,-1.846398 V 13.23083 c 0,-0.51022 0.391829,-0.923054 0.875491,-0.923054 0.483271,0 0.875,0.412889 0.875,0.923054 V 24.306906 C 30,26.34635 28.432434,28 26.499607,28 H 5.5003894 C 3.5673465,27.999945 2,26.346295 2,24.306914 V 11.384377 C 2,9.855568 3.1757839,8.616082 4.6253877,8.616082 c 0.6755008,0 1.2851587,0.3259 1.7501672,0.798733 v -0.01586 l 8.3873761,8.848222 c 0.682995,0.721657 1.791024,0.721657 2.474183,0 L 27.754799,8.074388 C 28.097528,7.7142824 28.26191,7.2414472 28.259834,6.7695933 h -0.01 c 0,-1.0199178 -0.783018,-0.9230551 -1.749893,-0.9230551 H 8.124899 C 7.6423371,5.8465614 7.2497358,5.4332633 7.2497358,4.9230453 7.2497358,4.4133549 7.6423371,4 8.124899,4 h 18.374764 c 1.605137,0 2.955585,0.5070461 3.367496,1.8465129 v 0 c 0.298588,1.2246634 0.03459,2.5757841 -0.874134,3.5339761 z M 4.6253877,5.8465705 c -0.4836026,0 -0.8752213,-0.4132971 -0.8752213,-0.9235151 C 3.7501664,4.4133549 4.1417851,4 4.6253877,4 c 0.4834379,0 0.8750017,0.4132983 0.8750017,0.9230554 0,0.510218 -0.3915638,0.9235151 -0.8750017,0.9235151 z"
       id="path2"
       style="fill:currentColor;fill-opacity:1;stroke-width:0.0561696"
       class="ColorScheme-Text" />
  </g>
  <g
     id="mail-unread-new"
     transform="translate(32,10)">
    <rect
       style="opacity:0.00100002"
       width="32"
       height="32"
       x="-32"
       y="-10"
       id="rect7-5" />
    <path
       d="m -25.518732,13.272104 c -0.341429,-0.36015 -0.341429,-0.944737 0,-1.304835 l 2.474963,-2.610926 c 0.341571,-0.361434 0.895495,-0.361434 1.237069,0 0.341579,0.360104 0.341579,0.944689 0,1.304788 l -2.474977,2.610973 c -0.341624,0.360455 -0.895483,0.360455 -1.237055,0 z m 17.7998527,0 -2.4749607,-2.610973 c -0.341304,-0.360099 -0.341304,-0.944684 0,-1.304788 0.3417946,-0.361434 0.8954382,-0.361434 1.2372856,0 l 2.4750195,2.610926 c 0.3412441,0.360098 0.3412441,0.944685 0,1.304835 -0.3418489,0.360455 -0.895608,0.360455 -1.2373444,0 z M -3.0073321,-0.6195141 -13.525355,9.553297 c -1.366797,1.441867 -3.582877,1.441867 -4.949772,0 l -6.171258,-6.5104174 -0.394491,-0.4159534 -1.685194,-1.7780323 -0.006,0.00231 c -0.159612,-0.2105061 -0.387163,-0.3898691 -0.642224,-0.3898691 -0.483596,0 -0.87521,0.413356 -0.87521,0.9230558 v 2.6005311 1.0924939 9.2295484 c 0,1.020391 0.783336,1.846413 1.750203,1.846413 h 20.9989855 c 0.9668621,0 1.749868,-0.826022 1.749868,-1.846413 V 3.2308939 c 0,-0.5102201 0.3918321,-0.923055 0.8754825,-0.923055 C -2.3917213,2.3078389 -2,2.7207331 -2,3.2308939 V 14.306964 C -2.0003796,16.346351 -3.5679208,18 -5.5007171,18 H -26.499654 C -28.432676,17.999947 -30,16.3463 -30,14.306913 V 1.3843788 c 0,-1.5288081 1.175768,-2.7682979 2.625361,-2.7682979 0.675491,0 1.285122,0.325896 1.750129,0.7987311 v -0.01581 l 8.387265,8.84823 c 0.682985,0.721655 1.790997,0.721655 2.474151,0 L -4.2455567,-1.9255796 c 0.3427223,-0.360106 0.5071156,-0.8329397 0.5050364,-1.3047947 h -0.010213 c 0,-1.0199188 -0.7830058,-0.9230558 -1.7498687,-0.9230558 h -18.374563 c -0.482576,0 -0.875157,-0.4132963 -0.875157,-0.9235141 C -24.750322,-5.5866453 -24.357741,-6 -23.875165,-6 h 18.3745038 c 1.6051112,0 2.9555491,0.5070461 3.3674531,1.8465129 v 0 c 0.2985889,1.2246638 0.034542,2.5757848 -0.8741136,3.5339728 z m -24.3673069,-3.533916 c -0.483606,0 -0.87521,-0.4132963 -0.87521,-0.9235141 0,-0.5097011 0.391604,-0.9230558 0.87521,-0.9230558 0.483436,0 0.874985,0.4132985 0.874985,0.9230558 0,0.5102178 -0.391549,0.9235141 -0.874985,0.9235141 z"
       id="path2-6"
       style="fill:#1a89a2;fill-opacity:1;stroke-width:0.0561696"
       class="ColorScheme-Highlight" />
  </g>
  <g
     id="22-22-mail-unread-new"
     transform="translate(32,10)">
    <rect
       style="opacity:0.00100002"
       width="22"
       height="22"
       x="0"
       y="4.7683716e-07"
       id="rect2" />
    <path
       d="m 4.2009381,15.848076 c -0.2438675,-0.24011 -0.2438675,-0.629831 0,-0.869903 l 1.7678514,-1.740612 c 0.2439835,-0.240955 0.639648,-0.240955 0.8836324,0 0.2439842,0.240072 0.2439842,0.629793 0,0.869864 l -1.7678514,1.740651 c -0.2440233,0.240302 -0.6396491,0.240302 -0.8836324,0 z m 12.7143349,0 -1.76785,-1.740651 c -0.24379,-0.240071 -0.24379,-0.629792 0,-0.869864 0.24414,-0.240955 0.639609,-0.240955 0.883788,0 l 1.767892,1.740612 c 0.243749,0.240072 0.243749,0.629793 0,0.869903 -0.24418,0.240302 -0.639727,0.240302 -0.88383,0 z m 3.365433,-9.261085 -7.512971,6.781875 c -0.976291,0.961246 -2.559218,0.961246 -3.535587,0 L 4.8240623,9.028586 4.5422652,8.751285 3.3385543,7.565929 l -0.00456,0.0015 C 3.2199994,7.427092 3.05746,7.307517 2.8752728,7.307517 c -0.3454296,0 -0.6251565,0.275571 -0.6251565,0.61537 v 1.733689 0.728329 6.153044 c 0,0.680253 0.5595312,1.230932 1.2501567,1.230932 h 14.999455 c 0.690624,0 1.24992,-0.550679 1.24992,-1.230932 V 9.153896 c 0,-0.340146 0.279884,-0.61537 0.625352,-0.61537 0.345195,0 0.625,0.275263 0.625,0.61537 v 7.384053 C 20.999967,17.897565 19.880278,19 18.499692,19 H 3.500274 C 2.1195312,18.999961 1,17.897527 1,16.537944 V 7.92292 C 1,6.903714 1.8398435,6.077387 2.8752738,6.077387 c 0.4824995,0 0.9179683,0.217264 1.2501173,0.532488 v -0.01054 l 5.9909759,5.898819 c 0.487852,0.481104 1.279297,0.481104 1.767266,0 L 19.396249,5.716281 C 19.641054,5.47621 19.758476,5.160987 19.756993,4.846417 h -0.0072 c 0,-0.679945 -0.559298,-0.61537 -1.249924,-0.61537 H 5.3749221 C 5.0302341,4.231047 4.749805,3.955515 4.749805,3.61537 4.749805,3.27557 5.0302341,3 5.3749221,3 H 18.499728 c 1.146521,0 2.111131,0.338031 2.40535,1.231009 v 0 c 0.213283,0.816442 0.02468,1.71719 -0.624372,2.355982 z M 2.8752738,4.231047 C 2.5298432,4.231047 2.2501173,3.955515 2.2501173,3.61537 2.2501173,3.27557 2.5298432,3 2.8752738,3 3.2205864,3 3.500274,3.275532 3.500274,3.61537 c 0,0.340145 -0.2796876,0.615677 -0.6250002,0.615677 z"
       id="path2-3-7"
       style="fill:#1a89a2;fill-opacity:1;stroke-width:0.0387604"
       class="ColorScheme-Highlight" />
  </g>
</svg>
