<?xml version="1.0" encoding="UTF-8" standalone="no"?>
<svg
   width="32"
   height="32"
   version="1"
   id="svg12"
   sodipodi:docname="manjaro.svg"
   inkscape:version="1.1.2 (0a00cf5339, 2022-02-04)"
   xmlns:inkscape="http://www.inkscape.org/namespaces/inkscape"
   xmlns:sodipodi="http://sodipodi.sourceforge.net/DTD/sodipodi-0.dtd"
   xmlns="http://www.w3.org/2000/svg"
   xmlns:svg="http://www.w3.org/2000/svg"
   xmlns:rdf="http://www.w3.org/1999/02/22-rdf-syntax-ns#"
   xmlns:cc="http://creativecommons.org/ns#"
   xmlns:dc="http://purl.org/dc/elements/1.1/">
  <style
     id="current-color-scheme"
     type="text/css">.ColorScheme-Highlight { color:#1a89a2; }
</style>
  <metadata
     id="metadata18">
    <rdf:RDF>
      <cc:Work
         rdf:about="">
        <dc:format>image/svg+xml</dc:format>
        <dc:type
           rdf:resource="http://purl.org/dc/dcmitype/StillImage" />
      </cc:Work>
    </rdf:RDF>
  </metadata>
  <defs
     id="defs16" />
  <sodipodi:namedview
     pagecolor="#ffffff"
     bordercolor="#000000"
     borderopacity="1"
     objecttolerance="10"
     gridtolerance="10"
     guidetolerance="10"
     inkscape:pageopacity="0"
     inkscape:pageshadow="2"
     inkscape:window-width="1920"
     inkscape:window-height="1013"
     id="namedview14"
     showgrid="false"
     inkscape:zoom="9.8125003"
     inkscape:cx="-2.9044585"
     inkscape:cy="18.751592"
     inkscape:window-x="0"
     inkscape:window-y="0"
     inkscape:window-maximized="1"
     inkscape:current-layer="svg12"
     inkscape:document-rotation="0"
     inkscape:lockguides="false"
     inkscape:showpageshadow="false"
     inkscape:pagecheckerboard="0">
    <inkscape:grid
       type="xygrid"
       id="grid843"
       originx="-4.494629e-07"
       originy="-6.0302739e-08" />
  </sodipodi:namedview>
  <g
     id="manjaro">
    <rect
       style="opacity:0.00100002"
       width="32"
       height="32"
       x="4.494629e-07"
       y="6.0302739e-08"
       id="rect7" />
    <path
       fill-rule="evenodd"
       clip-rule="evenodd"
       d="m 8.5226372,27.247715 c -5.586e-4,-0.413376 0.3348198,-0.750037 0.7481957,-0.750596 0.4141251,-5.62e-4 0.7504121,0.335194 0.7509711,0.74857 5.57e-4,0.413751 -0.33482,0.749663 -0.7489454,0.750222 -0.4133759,5.58e-4 -0.7496622,-0.334445 -0.7502214,-0.748196 z m 5.6039798,0.713823 c -0.08051,-0.01015 -0.160268,-0.0232 -0.238583,-0.03957 -0.03803,-0.0076 -0.07392,-0.01891 -0.11125,-0.02837 -0.06516,-0.01672 -0.131017,-0.03387 -0.194681,-0.05462 -0.02783,-0.0088 -0.05566,-0.02006 -0.08344,-0.03023 -0.07318,-0.02697 -0.145654,-0.05468 -0.215233,-0.08606 -0.01902,-0.0088 -0.03805,-0.01826 -0.05637,-0.02699 -0.07249,-0.03502 -0.143478,-0.07225 -0.212317,-0.111672 -0.02198,-0.01275 -0.04396,-0.02556 -0.06519,-0.03906 -0.07109,-0.04415 -0.141396,-0.09018 -0.208001,-0.139446 -0.0095,-0.008 -0.02053,-0.01496 -0.03005,-0.023 -0.07617,-0.05698 -0.14944,-0.118313 -0.220469,-0.183352 -0.0022,-0.0022 -0.0044,-0.0048 -0.0081,-0.0073 -0.07474,-0.06937 -0.147275,-0.141712 -0.214667,-0.218837 -0.465316,-0.526909 -0.750856,-1.217903 -0.751882,-1.976992 l -0.03802,4.6e-5 c 0.024,-0.121545 0.03769,-0.245932 0.03752,-0.374702 L 11.492641,7.3898178 C 11.491241,6.355254 10.651651,5.5171796 9.617087,5.5185777 l -2.2468773,0.00304 c -1.034611,0.0014 -1.871935,0.8417388 -1.870537,1.8763025 l 0.02329,17.2315688 c 0.0012,0.883505 0.705347,1.637242 1.242911,2.057946 l -7.47e-4,0.0015 c 0.15752,0.137361 0.258744,0.335531 0.259048,0.560856 5.6e-4,0.41375 -0.334071,0.749661 -0.748196,0.750221 -0.777023,0.0011 -2.249439,-1.33842 -2.251676,-2.993797 l -0.0243,-17.9813916 c -0.0022,-1.6551896 1.337784,-2.998321 2.992786,-3.0005576 L 9.99042,4.0202158 c 1.655003,-0.00224 2.997946,1.3372688 3.000183,2.9924585 l 0.0015,1.123626 0.02228,16.4830627 c 0.0014,1.034611 0.840989,1.871562 1.875553,1.870163 l 2.247814,-0.003 c 1.034564,-0.0014 1.871889,-0.840615 1.870491,-1.875226 L 18.985971,8.128236 18.984471,7.00461 c -0.0022,-1.6551896 1.338158,-2.9983215 2.992458,-3.0005572 l 2.997209,-0.00405 c 1.655377,-0.00224 2.998321,1.3372685 3.000558,2.9924581 l 0.0243,17.9813401 c 0.0022,1.655376 -1.33708,2.998647 -2.992457,3.000884 l -2.248001,0.003 c -0.413002,5.58e-4 -0.749663,-0.334445 -0.750222,-0.748196 -5.57e-4,-0.413376 0.335195,-0.750038 0.748196,-0.750596 l 1.873069,-0.0025 c 1.034564,-0.0014 1.872639,-0.840616 1.87124,-1.875227 l -0.0233,-17.2315994 c -0.0014,-1.0345637 -0.84174,-1.8726372 -1.876304,-1.871239 l -2.247298,0.00304 c -1.034564,0.0014 -1.871514,0.8417383 -1.870116,1.8763021 l 0.02329,17.2315693 c 1.87e-4,0.128771 0.01387,0.253121 0.03853,0.3746 l -0.03802,4.7e-5 c 0.001,0.759089 -0.282692,1.4509 -0.74691,1.979018 -0.06723,0.07726 -0.139525,0.149796 -0.214071,0.219433 -0.0033,0.0026 -0.0055,0.0051 -0.008,0.0073 -0.07052,0.06523 -0.143583,0.126764 -0.219972,0.183947 -0.0095,0.0081 -0.02049,0.01501 -0.02998,0.02308 -0.06689,0.04949 -0.136695,0.09566 -0.207248,0.140008 -0.02157,0.01356 -0.04351,0.02637 -0.06508,0.03923 -0.06911,0.03961 -0.139623,0.07703 -0.212015,0.112247 -0.0183,0.0088 -0.0373,0.01836 -0.05629,0.02714 -0.06982,0.03156 -0.142223,0.05947 -0.215375,0.08664 -0.0278,0.01029 -0.0556,0.02166 -0.08336,0.03046 -0.06361,0.02092 -0.129468,0.0382 -0.194533,0.05514 -0.03731,0.0096 -0.07311,0.02094 -0.111172,0.02867 -0.0779,0.01659 -0.158371,0.02985 -0.238476,0.04022 -0.02233,0.0029 -0.04279,0.007 -0.06582,0.0096 -0.106419,0.01185 -0.215466,0.0186 -0.325225,0.01875 l -2.996648,0.0041 c -0.10901,1.4e-4 -0.218029,-0.0063 -0.324901,-0.01787 -0.02267,-0.0025 -0.04388,-0.0065 -0.06585,-0.0094 z M 17.482628,4.7594869 c 5.57e-4,0.4131887 -0.334072,0.7489125 -0.748197,0.7494722 l -1.497481,0.00202 c -0.414126,5.595e-4 -0.750412,-0.3342575 -0.75097,-0.7474462 -5.62e-4,-0.4141251 0.33482,-0.74985 0.748946,-0.7504096 l 1.497481,-0.00202 c 0.414125,-5.597e-4 0.749662,0.3342584 0.750221,0.7483836 z"
       id="path2"
       style="stroke-width:0.0468256;fill-opacity:1;fill:currentColor;"
       class="ColorScheme-Highlight" />
  </g>
  <g
     id="22-22-manjaro"
     transform="translate(-31.957779,9.9999998)">
    <rect
       style="opacity:0.00100002"
       width="22"
       height="22"
       x="-4.494629e-07"
       y="-6.0302739e-08"
       id="rect2" />
    <path
       fill-rule="evenodd"
       clip-rule="evenodd"
       d="m 6.0151005,18.498569 c -3.72e-4,-0.275585 0.223215,-0.500026 0.4988,-0.500399 0.276084,-3.74e-4 0.500276,0.223464 0.500649,0.499049 3.71e-4,0.275835 -0.223214,0.499777 -0.499299,0.50015 -0.275585,3.72e-4 -0.499777,-0.222965 -0.50015,-0.4988 z m 3.736001,0.475884 c -0.05367,-0.0068 -0.106846,-0.01547 -0.159056,-0.02638 -0.02535,-0.0051 -0.04928,-0.01261 -0.07417,-0.01891 -0.04344,-0.01115 -0.08734,-0.02258 -0.129788,-0.03641 -0.01855,-0.0059 -0.03711,-0.01337 -0.05563,-0.02015 -0.04879,-0.01798 -0.0971,-0.03645 -0.143489,-0.05737 -0.01268,-0.0059 -0.02537,-0.01217 -0.03758,-0.01799 -0.04833,-0.02335 -0.09565,-0.04817 -0.141545,-0.07445 -0.01465,-0.0085 -0.02931,-0.01704 -0.04346,-0.02604 -0.04739,-0.02943 -0.09427,-0.06012 -0.138668,-0.09296 -0.0063,-0.0053 -0.01369,-0.01 -0.02003,-0.01533 -0.05078,-0.03799 -0.09963,-0.07888 -0.14698,-0.122235 -0.0015,-0.0015 -0.0029,-0.0032 -0.0054,-0.0049 -0.04983,-0.04625 -0.09818,-0.09447 -0.143111,-0.145892 -0.310212,-0.351274 -0.500573,-0.811938 -0.501257,-1.317999 l -0.02535,3e-5 c 0.016,-0.08103 0.02513,-0.163955 0.02501,-0.249802 L 7.9951075,5.2599129 c -9.33e-4,-0.689712 -0.560662,-1.24843 -1.250374,-1.247498 l -1.4979226,0.002 c -0.689743,9.33e-4 -1.247961,0.561162 -1.247029,1.250873 l 0.01553,11.4877541 c 8e-4,0.589006 0.470234,1.091499 0.828611,1.371969 l -4.98e-4,10e-4 c 0.105014,0.09157 0.172496,0.223689 0.172699,0.373906 3.73e-4,0.275834 -0.222715,0.499776 -0.498799,0.500149 -0.518017,7.33e-4 -1.499632,-0.892283 -1.501123,-1.995872 l -0.0162,-11.9876391 c -0.0015,-1.103463 0.891859,-1.998888 1.995198,-2.000378 l 1.9984276,-0.0027 c 1.103339,-0.0015 1.998638,0.891516 2.000129,1.994979 l 10e-4,0.749087 0.01485,10.9887491 c 9.33e-4,0.689743 0.560661,1.247713 1.2503725,1.24678 l 1.498548,-0.002 c 0.689712,-9.34e-4 1.247931,-0.560412 1.246999,-1.250155 l -0.01485,-10.9887501 -0.001,-0.749087 c -0.0015,-1.103464 0.892108,-1.998888 1.994979,-2.000378 l 1.998147,-0.0027 c 1.103589,-0.0015 1.998888,0.891515 2.000379,1.994979 l 0.0162,11.9876041 c 0.0015,1.103588 -0.89139,1.999106 -1.994978,2.000597 l -1.498673,0.002 c -0.275336,3.72e-4 -0.499777,-0.222964 -0.50015,-0.498799 -3.71e-4,-0.275585 0.223464,-0.500028 0.498799,-0.5004 l 1.248717,-0.0017 c 0.689712,-9.34e-4 1.248431,-0.560413 1.247498,-1.250156 L 17.985064,5.2463519 c -9.34e-4,-0.689712 -0.561162,-1.24843 -1.250874,-1.247497 l -1.498204,0.002 c -0.689712,9.33e-4 -1.247681,0.561161 -1.246749,1.250873 l 0.01553,11.4877541 c 1.25e-4,0.08585 0.0092,0.168748 0.02569,0.249735 l -0.02535,3.1e-5 c 6.67e-4,0.506061 -0.188462,0.96727 -0.497942,1.31935 -0.04482,0.05151 -0.09302,0.09986 -0.142714,0.146289 -0.0022,0.0017 -0.0037,0.0034 -0.0053,0.0049 -0.04701,0.04349 -0.09572,0.08451 -0.146648,0.122632 -0.0063,0.0054 -0.01366,0.01001 -0.01999,0.01539 -0.04459,0.03299 -0.09113,0.06377 -0.138166,0.09334 -0.01438,0.009 -0.02901,0.01758 -0.04339,0.02615 -0.04607,0.02641 -0.09308,0.05135 -0.141344,0.07483 -0.0122,0.0059 -0.02487,0.01224 -0.03753,0.01809 -0.04655,0.02104 -0.09482,0.03965 -0.143584,0.05776 -0.01853,0.0069 -0.03707,0.01444 -0.05557,0.02031 -0.04241,0.01395 -0.08631,0.02547 -0.129689,0.03676 -0.02487,0.0064 -0.04874,0.01396 -0.07411,0.01911 -0.05193,0.01106 -0.105581,0.0199 -0.158984,0.02681 -0.01489,0.0019 -0.02853,0.0047 -0.04388,0.0064 -0.07095,0.0079 -0.143644,0.0124 -0.216817,0.0125 l -1.997773,0.0027 c -0.07267,9.4e-5 -0.1453525,-0.0042 -0.2166005,-0.01191 -0.01511,-0.0017 -0.02925,-0.0043 -0.0439,-0.0063 z M 11.98845,3.5063629 c 3.71e-4,0.27546 -0.222716,0.499276 -0.4988,0.499649 l -0.998325,0.0013 c -0.276085,3.73e-4 -0.500276,-0.222839 -0.500648,-0.498299 -3.75e-4,-0.276085 0.223214,-0.499902 0.499299,-0.500276 l 0.998324,-0.0013 c 0.276085,-3.73e-4 0.499777,0.22284 0.50015,0.498926 z"
       id="path2-3"
       style="stroke-width:0.0312172;fill-opacity:1;fill:currentColor;"
       class="ColorScheme-Highlight" />
  </g>
</svg>
