<?xml version="1.0" encoding="UTF-8" standalone="no"?>
<svg
   inkscape:version="1.1.2 (0a00cf5339, 2022-02-04)"
   sodipodi:docname="media.svg"
   id="svg218"
   viewBox="0 0 19.999999 19.999999"
   version="1.1"
   height="20"
   width="20"
   xmlns:inkscape="http://www.inkscape.org/namespaces/inkscape"
   xmlns:sodipodi="http://sodipodi.sourceforge.net/DTD/sodipodi-0.dtd"
   xmlns="http://www.w3.org/2000/svg"
   xmlns:svg="http://www.w3.org/2000/svg"
   xmlns:rdf="http://www.w3.org/1999/02/22-rdf-syntax-ns#"
   xmlns:cc="http://creativecommons.org/ns#"
   xmlns:dc="http://purl.org/dc/elements/1.1/">
  <style
     id="current-color-scheme"
     type="text/css">.ColorScheme-Text { color:#eff0f1; }
</style>
  <metadata
     id="metadata224">
    <rdf:RDF>
      <cc:Work
         rdf:about="">
        <dc:format>image/svg+xml</dc:format>
        <dc:type
           rdf:resource="http://purl.org/dc/dcmitype/StillImage" />
      </cc:Work>
    </rdf:RDF>
  </metadata>
  <defs
     id="defs222" />
  <sodipodi:namedview
     inkscape:document-rotation="0"
     inkscape:lockguides="true"
     inkscape:current-layer="svg218"
     inkscape:window-maximized="1"
     inkscape:window-y="0"
     inkscape:window-x="0"
     inkscape:cy="35"
     inkscape:cx="9.375"
     inkscape:zoom="4"
     showgrid="false"
     id="namedview220"
     inkscape:window-height="1013"
     inkscape:window-width="1920"
     inkscape:pageshadow="2"
     inkscape:pageopacity="0"
     guidetolerance="10"
     gridtolerance="10"
     objecttolerance="10"
     borderopacity="1"
     bordercolor="#000000"
     pagecolor="#ffffff"
     showguides="false"
     inkscape:pagecheckerboard="0"
     inkscape:showpageshadow="false">
    <inkscape:grid
       id="grid933"
       type="xygrid"
       originx="-99.999872"
       originy="32.000018" />
  </sodipodi:namedview>
  <g
     transform="matrix(0.68181819,0,0,0.68181819,-30.454561,59.000002)"
     id="22-22-media-record">
    <rect
       id="rect22"
       y="0"
       x="154"
       height="22"
       width="22"
       style="opacity:0.00100002" />
    <path
       inkscape:connector-curvature="0"
       id="path24"
       d="m 165,3 a 8,8 0 0 0 -8,8 8,8 0 0 0 8,8 8,8 0 0 0 8,-8 8,8 0 0 0 -8,-8 z m 0,4 a 4,4 0 0 1 4,4 4,4 0 0 1 -4,4 4,4 0 0 1 -4,-4 4,4 0 0 1 4,-4 z"
       style="fill-opacity:1;fill:currentColor;opacity:1;"
       class="ColorScheme-Text" />
  </g>
  <g
     transform="matrix(0.625,0,0,0.625,60.00001,32.000001)"
     id="media-record">
    <rect
       id="rect153"
       y="0"
       x="0"
       height="32"
       width="32"
       style="opacity:0.00100002" />
    <path
       inkscape:connector-curvature="0"
       id="path159"
       style="fill-opacity:1;fill:currentColor;"
       d="M 16,6 A 10,10 0 0 0 6,16 10,10 0 0 0 16,26 10,10 0 0 0 26,16 10,10 0 0 0 16,6 Z"
       class="ColorScheme-Text" />
    <circle
       id="circle163"
       style="fill:#aa0000"
       r="5"
       cy="16"
       cx="16" />
  </g>
  <g
     id="media-playback-paused">
    <rect
       id="rect192"
       y="0"
       x="0"
       height="20"
       width="20"
       style="opacity:0.00100002;stroke-width:0.625" />
    <path
       d="m 15.566397,17.5 h -0.483329 c -0.266677,0 -0.483333,-0.202653 -0.483333,-0.452668 0,-0.250471 0.216656,-0.453124 0.483333,-0.453124 h 0.483329 c 0.533846,0 0.96691,-0.406237 0.96691,-0.906704 V 4.812752 c 0,-0.5009298 -0.433065,-0.906363 -0.96691,-0.906363 h -3.866655 c -0.533599,0 -0.966668,0.4054623 -0.966668,0.906363 v 10.421596 0.453156 C 10.733074,16.688458 9.8676678,17.5 8.7999892,17.5 H 4.9328448 C 3.8654041,17.5 3,16.688458 3,15.687504 V 4.812752 C 3,3.8114592 3.8654041,3.000028 4.9328448,3.000028 h 3.3838145 c 0.2666764,0 0.4833299,0.2027735 0.4833299,0.453237 0,0.2498984 -0.2166535,0.453124 -0.4833299,0.453124 H 4.9328448 c -0.5338419,0 -0.9661779,0.4054623 -0.9661779,0.906363 v 10.874752 c 0,0.500467 0.432336,0.906704 0.9661779,0.906704 h 3.8671444 c 0.5338438,0 0.9661778,-0.406237 0.9661778,-0.906704 V 4.812752 c 0,-0.460205 0.1843376,-0.8789201 0.485692,-1.1984294 0.04223,-0.04526 0.08662,-0.08739 0.133346,-0.1280917 0.0036,-0.0036 0.0087,-0.0071 0.01252,-0.01062 0.04271,-0.036616 0.08778,-0.071689 0.133824,-0.1046437 0.0086,-0.0061 0.01722,-0.01218 0.02595,-0.01827 0.04389,-0.02999 0.08993,-0.05895 0.136631,-0.08595 0.01181,-0.00654 0.02218,-0.01317 0.034,-0.01925 0.04295,-0.02334 0.08685,-0.04526 0.132407,-0.065599 0.01511,-0.0071 0.03021,-0.01472 0.04599,-0.02124 0.04599,-0.019362 0.09368,-0.03716 0.141828,-0.053437 0.01532,-0.00508 0.02929,-0.01006 0.0446,-0.015153 0.04817,-0.01481 0.09792,-0.02699 0.14796,-0.0386 0.01604,-0.00362 0.03135,-0.0088 0.04817,-0.01172 0.05639,-0.01172 0.113764,-0.02037 0.172279,-0.02688 0.0089,-0.0011 0.01837,-0.0025 0.02761,-0.00362 C 11.558371,3.004068 11.628931,3 11.699742,3 h 0.163311 3.703344 c 1.067684,0 1.933571,0.8114312 1.933571,1.812724 v 10.87478 c 0,1.000954 -0.865887,1.812496 -1.933571,1.812496 z m -2.416419,-0.905792 c 0.26668,0 0.483335,0.202653 0.483335,0.453124 0,0.250015 -0.216655,0.452668 -0.483335,0.452668 -0.267158,0 -0.483335,-0.202653 -0.483335,-0.452668 0,-0.250471 0.216177,-0.453124 0.483335,-0.453124 z"
       id="path2"
       style="stroke-width:0.0292494;fill-opacity:1;fill:currentColor;"
       class="ColorScheme-Text" />
  </g>
  <g
     id="media-playback-playing"
     transform="translate(-99.999997)">
    <rect
       id="rect179"
       style="opacity:0.00100002;stroke-width:0.625"
       y="0"
       x="0"
       height="20"
       width="20" />
    <path
       fill-rule="evenodd"
       clip-rule="evenodd"
       d="m 15.503169,11.379723 -8.451404,5.09811 c -0.07731,0.06106 -0.173802,0.09912 -0.280003,0.09912 -0.250465,0 -0.453239,-0.20266 -0.453239,-0.453125 0,-0.171253 0.09714,-0.318603 0.237296,-0.395833 l 8.477827,-5.153646 c 0.04579,-0.02942 0.09094,-0.06284 0.131633,-0.103538 0.287621,-0.287621 0.287621,-0.7540288 0,-1.0415366 -0.04469,-0.044689 -0.09402,-0.081308 -0.146472,-0.1128281 L 5.786187,3.704606 C 5.665712,3.642556 5.530086,3.606476 5.385822,3.606476 c -0.48575,0 -0.879912,0.393822 -0.879912,0.879487 v 9.768724 c 0,0.250464 -0.202773,0.453125 -0.453238,0.453125 C 3.80266,14.707813 3.6,14.505152 3.6,14.254688 V 4.466593 C 3.6,3.491213 4.390533,2.7 5.366479,2.7 c 0.320162,0 0.618856,0.08706 0.87793,0.235852 l 9.254993,5.5825279 C 15.972437,8.819623 16.2875,9.3474287 16.2875,9.95 c 0,0.600928 -0.313279,1.127488 -0.784331,1.429723 z M 4.959035,16.294204 c 0.250465,0 0.453125,0.20266 0.453125,0.453125 0,0.250012 -0.20266,0.452672 -0.453125,0.452672 -0.249898,0 -0.453125,-0.20266 -0.453125,-0.452672 0,-0.250465 0.203227,-0.453125 0.453125,-0.453125 z"
       id="path2-3"
       style="stroke-width:0.0283203;fill-opacity:1;fill:currentColor;"
       class="ColorScheme-Text" />
  </g>
  <g
     id="media-playback-stopped"
     transform="translate(20)">
    <rect
       id="rect205"
       y="0"
       x="0"
       height="20"
       width="20"
       style="opacity:0.00100002;stroke-width:0.625" />
    <path
       fill-rule="evenodd"
       clip-rule="evenodd"
       d="M 15.079089,17.2 H 7.310714 c -0.285598,0 -0.517339,-0.232388 -0.517339,-0.517857 0,-0.286246 0.231741,-0.518116 0.517339,-0.518116 h 7.768375 c 0.571974,0 1.035715,-0.463741 1.035715,-1.035714 V 4.77117 c 0,-0.571974 -0.463741,-1.035456 -1.035715,-1.035456 H 4.721688 c -0.571844,0 -1.035844,0.463482 -1.035844,1.035456 v 9.839285 c 0,0.286246 -0.231612,0.517858 -0.517857,0.517858 C 2.882259,15.128313 2.65,14.896701 2.65,14.610455 V 4.77117 C 2.65,3.627223 3.577871,2.7 4.721688,2.7 H 15.079089 C 16.222777,2.7 17.15,3.627223 17.15,4.77117 V 15.128313 C 17.15,16.272259 16.222777,17.2 15.079089,17.2 Z M 5.239674,16.164027 c 0.285598,0 0.517857,0.23187 0.517857,0.518116 0,0.285469 -0.232259,0.517857 -0.517857,0.517857 -0.286245,0 -0.517986,-0.232388 -0.517986,-0.517857 0,-0.286246 0.231741,-0.518116 0.517986,-0.518116 z"
       id="path2-6"
       style="stroke-width:0.0323661;fill-opacity:1;fill:currentColor;"
       class="ColorScheme-Text" />
  </g>
  <g
     id="22-22-media-playback-start"
     transform="translate(-99.999997,59.000003)">
    <rect
       id="rect2"
       y="0"
       x="0"
       height="15"
       width="15"
       style="opacity:0.00100002;stroke-width:0.681818" />
    <path
       d="m 11.72999,8.584617 -6.41141,3.867531 c -0.05865,0.04632 -0.13185,0.0752 -0.212416,0.0752 -0.190008,0 -0.343836,-0.153742 -0.343836,-0.34375 0,-0.129916 0.07369,-0.2417 0.180018,-0.300287 l 6.431455,-3.909662 c 0.03474,-0.02232 0.06899,-0.04767 0.09986,-0.07855 0.218195,-0.218196 0.218195,-0.572022 0,-0.790131 -0.0339,-0.0339 -0.07133,-0.06168 -0.111117,-0.08559 L 4.358486,2.762116 c -0.09139,-0.04707 -0.194283,-0.07444 -0.303724,-0.07444 -0.3685,0 -0.66752,0.298762 -0.66752,0.667197 v 7.410756 c 0,0.190008 -0.153828,0.34375 -0.343836,0.34375 C 2.853742,11.109375 2.7,10.955633 2.7,10.765625 V 3.340174 C 2.7,2.60023 3.299715,2 4.040088,2 4.282969,2 4.509564,2.06604 4.706104,2.178922 l 7.021029,4.235021 C 12.085986,6.642473 12.325,7.042877 12.325,7.5 c 0,0.455877 -0.23766,0.855336 -0.59501,1.084617 z m -7.998998,3.728227 c 0.190008,0 0.34375,0.153742 0.34375,0.34375 C 4.074742,12.846258 3.921,13 3.730992,13 c -0.189578,0 -0.34375,-0.153742 -0.34375,-0.343406 0,-0.190008 0.154172,-0.34375 0.34375,-0.34375 z"
       id="path2-36"
       style="stroke-width:0.0214844;fill-opacity:1;fill:currentColor;"
       class="ColorScheme-Text" />
  </g>
  <g
     id="media-playback-start"
     transform="translate(-99.999997,-26.999983)">
    <rect
       id="rect62"
       y="58.999989"
       x="0"
       height="20"
       width="20"
       style="opacity:0.00100002;stroke-width:0.625" />
    <path
       d="m 14.861303,70.282535 -7.285661,4.394904 c -0.0666,0.05262 -0.149822,0.0854 -0.241381,0.0854 -0.215914,0 -0.390714,-0.1747 -0.390714,-0.390624 0,-0.147631 0.08374,-0.274656 0.20456,-0.341229 l 7.308438,-4.442774 c 0.03948,-0.02532 0.07839,-0.05412 0.113477,-0.0892 0.247947,-0.247954 0.247947,-0.650022 0,-0.897875 -0.03852,-0.03855 -0.08105,-0.07008 -0.126269,-0.09729 L 6.48464,63.666069 c -0.103845,-0.05352 -0.220785,-0.08464 -0.345139,-0.08464 -0.418749,0 -0.758553,0.339502 -0.758553,0.758185 v 8.421267 c 0,0.215915 -0.174799,0.390624 -0.390712,0.390624 C 4.774712,73.151501 4.6,72.976791 4.6,72.760876 v -8.43797 c 0,-0.840848 0.681495,-1.522919 1.522819,-1.522919 0.276001,0 0.533496,0.07504 0.756839,0.203326 l 7.978399,4.812495 c 0.407785,0.259691 0.679391,0.714689 0.679391,1.23415 0,0.518039 -0.270067,0.971964 -0.676145,1.232517 z m -9.08973,4.236595 c 0.215926,0 0.390625,0.174712 0.390625,0.390625 0,0.215524 -0.174699,0.390236 -0.390625,0.390236 -0.215424,0 -0.390625,-0.174712 -0.390625,-0.390236 0,-0.215913 0.175201,-0.390625 0.390625,-0.390625 z"
       id="path2-36-3"
       style="stroke-width:0.0244139;fill-opacity:1;fill:currentColor;"
       class="ColorScheme-Text" />
  </g>
  <g
     id="22-22-media-playback-playing"
     transform="translate(-99.999997,-26.999983)">
    <rect
       id="rect47"
       style="opacity:0.00100002;stroke-width:0.681818"
       y="0"
       x="0"
       height="14.99999"
       width="14.99999" />
    <path
       d="m 11.72999,8.584617 -6.41141,3.867531 c -0.05865,0.04632 -0.13185,0.0752 -0.212416,0.0752 -0.190008,0 -0.343836,-0.153742 -0.343836,-0.34375 0,-0.129916 0.07369,-0.2417 0.180018,-0.300287 l 6.431455,-3.909662 c 0.03474,-0.02232 0.06899,-0.04767 0.09986,-0.07855 0.218195,-0.218196 0.218195,-0.572022 0,-0.790131 -0.0339,-0.0339 -0.07133,-0.06168 -0.111117,-0.08559 L 4.358486,2.762116 c -0.09139,-0.04707 -0.194283,-0.07444 -0.303724,-0.07444 -0.3685,0 -0.66752,0.298762 -0.66752,0.667197 v 7.410756 c 0,0.190008 -0.153828,0.34375 -0.343836,0.34375 C 2.853742,11.109375 2.7,10.955633 2.7,10.765625 V 3.340174 C 2.7,2.60023 3.299715,2 4.040088,2 4.282969,2 4.509564,2.06604 4.706104,2.178922 l 7.021029,4.235021 C 12.085986,6.642473 12.325,7.042877 12.325,7.5 c 0,0.455877 -0.23766,0.855336 -0.59501,1.084617 z m -7.998998,3.728227 c 0.190008,0 0.34375,0.153742 0.34375,0.34375 C 4.074742,12.846258 3.921,13 3.730992,13 c -0.189578,0 -0.34375,-0.153742 -0.34375,-0.343406 0,-0.190008 0.154172,-0.34375 0.34375,-0.34375 z"
       id="path2-36-6"
       style="stroke-width:0.0214844;fill-opacity:1;fill:currentColor;"
       class="ColorScheme-Text" />
  </g>
  <g
     id="media-skip-forward"
     transform="translate(-60.000007,32.000001)">
    <rect
       id="rect101"
       style="opacity:0.00100002;stroke-width:0.625"
       y="0"
       x="-20"
       height="20"
       width="20" />
    <path
       d="m -4.6,16.3 h -0.892885 c -0.986161,0 -1.786161,-0.799777 -1.786161,-1.785937 v -4.464286 c 0,-0.228237 -0.08675,-0.457115 -0.261133,-0.631278 -0.04054,-0.04054 -0.08588,-0.07302 -0.131668,-0.10399 l -7.418555,-4.562584 c -0.09308,-0.03705 -0.194224,-0.05907 -0.300809,-0.05907 -0.451004,0 -0.81635,0.3649 -0.81635,0.815904 v 9.081808 c 0,0.451005 0.365346,0.816351 0.81635,0.816351 0.116183,0 0.226256,-0.02486 0.325893,-0.06844 l 4.449944,-2.740039 0.002,0.003 c 0.06256,-0.03357 0.133175,-0.05449 0.20971,-0.05449 0.246763,0 0.446428,0.200111 0.446428,0.446428 0,0.162165 -0.08697,0.30279 -0.216685,0.381473 l -4.425332,2.724397 C -14.837556,16.225 -15.106306,16.3 -15.394699,16.3 -16.33683,16.3 -17.1,15.536189 -17.1,14.594057 V 5.505273 C -17.1,4.563365 -16.33683,3.8 -15.394699,3.8 c 0.287724,0 0.557171,0.07411 0.794755,0.199665 l 7.435128,4.578516 c 0.08982,0.06105 0.176116,0.129687 0.255915,0.209263 0.348326,0.348326 0.523159,0.805218 0.523159,1.262333 v 4.464285 c 0,0.493081 0.399777,0.892858 0.892857,0.892858 H -4.6 c 0.49308,0 0.892411,-0.399777 0.892411,-0.892858 V 5.585491 c 0,-0.49308 -0.399331,-0.892634 -0.892411,-0.892634 h -0.892885 c -0.49308,0 -0.892857,0.399554 -0.892857,0.892634 v 1.339286 c 0,0.246763 -0.199665,0.446652 -0.446429,0.446652 -0.246317,0 -0.446875,-0.199889 -0.446875,-0.446652 V 5.585491 c 0,-0.986161 0.8,-1.785491 1.786161,-1.785491 H -4.6 c 0.986161,0 1.785714,0.79933 1.785714,1.785491 v 8.928572 C -2.814286,15.500223 -3.613839,16.3 -4.6,16.3 Z m -4.017913,-4.910714 c 0.246317,0 0.446429,0.199665 0.446429,0.446428 0,0.246317 -0.200112,0.446429 -0.446429,0.446429 -0.246763,0 -0.446429,-0.200112 -0.446429,-0.446429 0,-0.246763 0.199666,-0.446428 0.446429,-0.446428 z"
       id="path2-62"
       style="stroke-width:0.0279018;fill-opacity:1;fill:currentColor;"
       class="ColorScheme-Text" />
  </g>
  <g
     id="media-skip-backward"
     transform="translate(-60.000007,32.000001)">
    <rect
       id="rect114"
       y="0"
       x="-20"
       height="20"
       width="20"
       style="opacity:0.00100002;stroke-width:0.625"
       transform="scale(-1,1)" />
    <path
       d="m 6.917857,13.62098 c -0.246763,0 -0.446428,-0.19966 -0.446428,-0.44643 0,-0.24631 0.199665,-0.44598 0.446428,-0.44598 0.246317,0 0.446429,0.19967 0.446429,0.44598 0,0.24677 -0.200112,0.44643 -0.446429,0.44643 z M 15.480106,16.3 c -0.288616,0 -0.558482,-0.075 -0.796931,-0.20165 L 7.248326,11.51987 C 7.159176,11.45927 7.073493,11.39168 6.994587,11.31256 6.645592,10.96378 6.470982,10.50667 6.471429,10.04978 V 5.58549 c 0,-0.49308 -0.4,-0.89263 -0.892969,-0.89263 H 4.685491 c -0.49308,0 -0.892411,0.39955 -0.892411,0.89263 v 8.92857 c 0,0.49308 0.399331,0.89286 0.892411,0.89286 H 5.57846 c 0.38856,0 0.715095,-0.24958 0.838476,-0.59595 l 0.0048,0.002 c 0.06124,-0.17375 0.224945,-0.29886 0.419615,-0.29886 0.246094,0 0.446429,0.19966 0.446429,0.44643 0,0.0525 -0.01046,0.10268 -0.02745,0.14975 h 4.46e-4 c -4.46e-4,0.002 -0.0015,0.002 -0.002,0.004 -0.0061,0.0161 -0.01309,0.0316 -0.02048,0.0466 C 6.97846,15.82589 6.336272,16.3 5.57846,16.3 H 4.685491 C 3.699442,16.3 2.9,15.50022 2.9,14.51406 V 5.58549 C 2.9,4.59933 3.699442,3.8 4.685491,3.8 H 5.57846 c 0.986691,0 1.785826,0.79933 1.785826,1.78549 v 4.46429 c 0,0.22865 0.08719,0.45689 0.261356,0.63172 0.04054,0.0399 0.08566,0.0719 0.130999,0.1031 l 7.419587,4.56347 c 0.0933,0.0368 0.194001,0.0589 0.30039,0.0589 0.451228,0 0.816574,-0.36534 0.816574,-0.81635 v -9.0818 c 0,-0.45101 -0.365346,-0.81591 -0.816574,-0.81591 -0.11596,0 -0.226255,0.0251 -0.326534,0.0687 l -6.19149,3.81253 c -0.0726,0.0506 -0.160212,0.0807 -0.255246,0.0807 -0.246317,0 -0.445982,-0.19966 -0.445982,-0.44643 0,-0.16216 0.08697,-0.30279 0.216685,-0.38102 l -0.0015,-0.002 6.209348,-3.82301 C 14.919894,3.875 15.190206,3.8 15.480106,3.8 c 0.942132,0 1.705497,0.76336 1.705497,1.70527 v 9.08879 c 0,0.94213 -0.763365,1.70594 -1.705497,1.70594 z"
       id="path2-9"
       style="stroke-width:0.0279018;fill-opacity:1;fill:currentColor;"
       class="ColorScheme-Text" />
  </g>
  <g
     id="media-playback-pause"
     transform="translate(0,32.000001)">
    <rect
       id="rect75"
       style="opacity:0.00100002;stroke-width:0.625"
       y="0"
       x="0"
       height="20"
       width="20" />
    <path
       d="m 14.633097,16.199983 h -0.416659 c -0.229887,0 -0.416663,-0.174693 -0.416663,-0.390228 0,-0.215931 0.186776,-0.390624 0.416663,-0.390624 h 0.416659 c 0.460216,0 0.83355,-0.350197 0.83355,-0.781644 V 5.262703 c 0,-0.431836 -0.373334,-0.781347 -0.83355,-0.781347 h -3.333315 c -0.46,0 -0.833342,0.349536 -0.833342,0.781347 v 8.984128 0.390656 c 0,0.862894 -0.746036,1.562496 -1.666449,1.562496 H 5.466245 C 4.546038,16.199983 3.8,15.500381 3.8,14.637487 V 5.262703 C 3.8,4.3995188 4.546038,3.700009 5.466245,3.700009 h 2.917082 c 0.229893,0 0.416664,0.174806 0.416664,0.3907223 0,0.2154287 -0.186771,0.3906247 -0.416664,0.3906247 H 5.466245 c -0.460208,0 -0.832912,0.349536 -0.832912,0.781347 v 9.374784 c 0,0.431447 0.372704,0.781644 0.832912,0.781644 h 3.333746 c 0.46021,0 0.832912,-0.350197 0.832912,-0.781644 V 5.262703 c 0,-0.396729 0.158912,-0.75769 0.4187,-1.033129 0.03641,-0.03902 0.07468,-0.07533 0.114954,-0.110424 0.0031,-0.00313 0.0074,-0.0061 0.01079,-0.00919 0.03683,-0.031564 0.07568,-0.061805 0.115363,-0.090206 0.0072,-0.0053 0.01483,-0.0105 0.02236,-0.01575 0.03785,-0.02585 0.07753,-0.050813 0.117786,-0.07409 0.01019,-0.00562 0.01915,-0.01135 0.02933,-0.01659 0.03699,-0.02012 0.07486,-0.03902 0.114138,-0.056556 0.01307,-0.0061 0.02603,-0.012689 0.03961,-0.018314 0.03961,-0.016688 0.08073,-0.03204 0.122267,-0.046066 0.01322,-0.00438 0.02528,-0.00866 0.03842,-0.01306 0.04156,-0.01277 0.08437,-0.02327 0.127549,-0.03328 0.01384,-0.00313 0.02696,-0.0076 0.04156,-0.0101 0.04859,-0.0101 0.09808,-0.017561 0.148519,-0.023179 0.0069,-9.259e-4 0.01577,-0.0021 0.02381,-0.00313 C 11.177914,3.703492 11.238731,3.7 11.299782,3.7 h 0.140781 3.192534 c 0.920424,0 1.666871,0.699509 1.666871,1.5626938 v 9.3748102 c 0,0.862894 -0.746447,1.562496 -1.666871,1.562496 z m -2.083119,-0.780852 c 0.2299,0 0.416675,0.174693 0.416675,0.390624 0,0.215535 -0.186775,0.390228 -0.416675,0.390228 -0.230298,0 -0.416666,-0.174693 -0.416666,-0.390228 0,-0.215931 0.186368,-0.390624 0.416666,-0.390624 z"
       id="path2-1"
       style="stroke-width:0.0252154;fill-opacity:1;fill:currentColor;"
       class="ColorScheme-Text" />
  </g>
  <g
     id="22-22-media-playback-paused"
     transform="translate(40.000003,32.000001)">
    <rect
       id="rect52"
       style="opacity:0.00100002;stroke-width:0.681818"
       y="-59.000004"
       x="-30.999994"
       height="14.99999"
       width="15" />
    <path
       d="m -19.466881,-46.000007 h -0.366662 c -0.202302,0 -0.366666,-0.153737 -0.366666,-0.343402 0,-0.190012 0.164364,-0.343749 0.366666,-0.343749 h 0.366662 c 0.404988,0 0.733522,-0.308179 0.733522,-0.687843 v -8.2498 c 0,-0.380015 -0.328534,-0.687584 -0.733522,-0.687584 h -2.933316 c -0.4048,0 -0.733341,0.307591 -0.733341,0.687584 v 7.906027 0.343773 c 0,0.759343 -0.656503,1.374994 -1.466471,1.374994 h -2.933695 c -0.809776,0 -1.46629,-0.615651 -1.46629,-1.374994 v -8.2498 c 0,-0.759601 0.656514,-1.375168 1.46629,-1.375168 h 2.567026 c 0.202313,0 0.366669,0.153829 0.366669,0.343835 0,0.189577 -0.164356,0.343749 -0.366669,0.343749 h -2.567026 c -0.404976,0 -0.732958,0.307591 -0.732958,0.687584 v 8.2498 c 0,0.379664 0.327982,0.687843 0.732958,0.687843 h 2.933695 c 0.404975,0 0.732968,-0.308179 0.732968,-0.687843 v -8.2498 c 0,-0.349121 0.139834,-0.666766 0.368447,-0.909152 0.03205,-0.03434 0.0656,-0.06629 0.101162,-0.09717 0.004,-0.0027 0.0055,-0.0053 0.0093,-0.0081 0.03242,-0.02778 0.06656,-0.05439 0.101525,-0.07938 0.0055,-0.0047 0.013,-0.0093 0.0196,-0.01386 0.0334,-0.02275 0.0682,-0.04472 0.103656,-0.0652 0.0088,-0.005 0.01695,-0.01 0.02583,-0.01459 0.03251,-0.0177 0.0658,-0.03434 0.100449,-0.04977 0.01153,-0.0053 0.02285,-0.01117 0.0348,-0.01612 0.0348,-0.01468 0.07103,-0.0282 0.107596,-0.04053 0.01158,-0.0038 0.0223,-0.0076 0.03375,-0.0115 0.03665,-0.01124 0.07428,-0.02048 0.112246,-0.02929 0.01215,-0.0028 0.02367,-0.0067 0.03665,-0.0089 0.04275,-0.0089 0.08631,-0.01546 0.130696,-0.0204 0.0055,-8.15e-4 0.01385,-0.0018 0.02095,-0.0027 0.05274,-0.0054 0.106266,-0.0085 0.159991,-0.0085 h 0.123894 2.809424 c 0.809967,0 1.466843,0.615564 1.466843,1.375166 v 8.249817 c 0,0.759343 -0.656876,1.374995 -1.466843,1.374995 z m -1.833141,-0.687151 c 0.20231,0 0.366668,0.153737 0.366668,0.343749 0,0.189665 -0.164358,0.343402 -0.366668,0.343402 -0.202666,0 -0.366669,-0.153737 -0.366669,-0.343402 0,-0.190012 0.164003,-0.343749 0.366669,-0.343749 z"
       id="path2-367"
       style="stroke-width:0.0221899;fill-opacity:1;fill:currentColor;"
       class="ColorScheme-Text" />
  </g>
  <g
     id="22-22-media-playback-stopped"
     transform="translate(31.000013,-26.999983)">
    <rect
       id="rect57"
       style="opacity:0.00100002;stroke-width:0.681818"
       y="0"
       x="-7.5000003e-07"
       height="14.99999"
       width="14.99999" />
    <path
       fill-rule="evenodd"
       clip-rule="evenodd"
       d="M 11.428959,13 H 5.535709 C 5.319061,13 5.14325,12.823715 5.14325,12.607135 c 0,-0.21714 0.175811,-0.393038 0.392459,-0.393038 h 5.89325 c 0.433916,0 0.78571,-0.35181 0.78571,-0.785722 V 3.5712324 c 0,-0.4339112 -0.351794,-0.7855184 -0.78571,-0.7855184 H 3.571625 c -0.433821,0 -0.785821,0.3516072 -0.785821,0.7855184 v 7.4642846 c 0,0.217154 -0.175689,0.392858 -0.392837,0.392858 C 2.176189,11.428375 2,11.252671 2,11.035517 V 3.5712324 C 2,2.7034106 2.703906,2 3.571625,2 h 7.857334 C 12.296602,2 13,2.7034106 13,3.5712324 V 11.428375 C 13,12.296192 12.296602,13 11.428959,13 Z M 3.964574,12.214097 c 0.216671,0 0.392872,0.175898 0.392872,0.393038 C 4.357446,12.823715 4.181245,13 3.964574,13 3.747419,13 3.571625,12.823715 3.571625,12.607135 c 0,-0.21714 0.175794,-0.393038 0.392949,-0.393038 z"
       id="path2-6-5"
       style="stroke-width:0.0245541;fill-opacity:1;fill:currentColor;"
       class="ColorScheme-Text" />
  </g>
  <g
     id="media-playback-stop"
     transform="translate(20,32.000001)">
    <rect
       id="rect88"
       style="opacity:0.00100002;stroke-width:0.625"
       y="0"
       x="0"
       height="20"
       width="20" />
    <path
       fill-rule="evenodd"
       clip-rule="evenodd"
       d="M 14.514729,16.2 H 7.8178562 C 7.571652,16.2 7.371875,15.999666 7.371875,15.753571 c 0,-0.246764 0.199777,-0.446652 0.4459812,-0.446652 h 6.6968728 c 0.493084,0 0.892855,-0.399775 0.892855,-0.892856 V 5.485492 c 0,-0.493082 -0.399771,-0.8926358 -0.892855,-0.8926358 H 5.585938 c -0.4929692,0 -0.8929692,0.3995538 -0.8929692,0.8926358 v 8.482141 c 0,0.246764 -0.1996648,0.44643 -0.4464278,0.44643 C 4.000223,14.414063 3.8,14.214397 3.8,13.967633 V 5.485492 C 3.8,4.499331 4.599889,3.7 5.585938,3.7 h 8.928791 C 15.500677,3.7 16.3,4.499331 16.3,5.485492 v 8.928571 C 16.3,15.400223 15.500677,16.2 14.514729,16.2 Z M 6.032478,15.306919 c 0.246204,0 0.4464283,0.199888 0.4464283,0.446652 0,0.246095 -0.2002243,0.446429 -0.4464283,0.446429 -0.246763,0 -0.44654,-0.200334 -0.44654,-0.446429 0,-0.246764 0.199777,-0.446652 0.44654,-0.446652 z"
       id="path2-6-3"
       style="stroke-width:0.0279021;fill-opacity:1;fill:currentColor;"
       class="ColorScheme-Text" />
  </g>
  <g
     id="22-22-media-skip-forward"
     transform="translate(-77.999977,59.000003)">
    <rect
       id="rect7"
       y="0"
       x="0"
       height="15"
       width="15"
       style="opacity:0.00100002;stroke-width:0.681818" />
    <path
       d="m 12.299901,12.999882 h -0.785737 c -0.867823,0 -1.571821,-0.703804 -1.571821,-1.571617 V 7.499702 c 0,-0.200848 -0.07637,-0.402261 -0.229797,-0.555525 -0.03566,-0.03571 -0.07553,-0.0643 -0.115863,-0.09153 L 3.0683677,2.837595 c -0.081905,-0.03256 -0.1709165,-0.05202 -0.2647108,-0.05202 -0.3968829,0 -0.7183863,0.321113 -0.7183863,0.717996 v 7.991978 c 0,0.396884 0.3215034,0.718387 0.7183863,0.718387 0.1022403,0 0.1991046,-0.02186 0.2867853,-0.06019 l 3.9159438,-2.411228 0.002,0.003 c 0.05506,-0.02952 0.117195,-0.0479 0.184542,-0.0479 0.217151,0 0.392858,0.176097 0.392858,0.392858 0,0.142704 -0.07649,0.266454 -0.190684,0.335694 L 3.5006526,12.823337 C 3.2909461,12.934 3.0544468,13 2.8006611,13 1.9715885,13 1.3,12.327845 1.3,11.498775 V 3.500639 C 1.3,2.671758 1.9715885,2 2.8006611,2 c 0.2531963,0 0.49031,0.06526 0.6993831,0.175709 l 6.5429018,4.029086 c 0.07902,0.0537 0.15498,0.114117 0.225195,0.18415 0.306534,0.306523 0.460382,0.708588 0.460382,1.110847 v 3.928565 c 0,0.433905 0.351806,0.785711 0.78571,0.785711 h 0.785738 c 0.433917,0 0.785324,-0.351806 0.785324,-0.785711 v -7.85713 c 0,-0.433904 -0.351407,-0.785517 -0.785324,-0.785517 h -0.785754 c -0.433904,0 -0.78571,0.351613 -0.78571,0.785517 V 4.7498 c 0,0.217152 -0.175696,0.393055 -0.392849,0.393055 -0.216765,0 -0.393249,-0.175903 -0.393249,-0.393055 V 3.571227 C 9.942409,2.703404 10.646407,2 11.514217,2 h 0.785738 c 0.867824,0 1.571433,0.703404 1.571433,1.571227 v 7.85713 c 0,0.867809 -0.703609,1.571614 -1.571433,1.571614 z M 8.764144,8.678466 c 0.216762,0 0.39286,0.175699 0.39286,0.392852 0,0.216764 -0.176098,0.39286 -0.39286,0.39286 -0.217152,0 -0.392853,-0.176096 -0.392853,-0.39286 0,-0.217153 0.175701,-0.392852 0.392853,-0.392852 z"
       id="path2-62-5"
       style="stroke-width:0.0245537;fill-opacity:1;fill:currentColor;"
       class="ColorScheme-Text " />
  </g>
  <g
     id="22-22-media-playback-pause"
     transform="translate(9.000031,59.000003)">
    <rect
       id="rect12"
       y="0"
       x="0"
       height="15"
       width="15"
       style="opacity:0.00100002;stroke-width:0.681818" />
    <path
       d="m 11.53312,12.999994 h -0.36666 c -0.202301,0 -0.366664,-0.153731 -0.366664,-0.343401 0,-0.190017 0.164363,-0.343749 0.366664,-0.343749 h 0.36666 c 0.404989,0 0.733521,-0.308173 0.733521,-0.687846 V 3.3751929 c 0,-0.3800155 -0.328532,-0.6875851 -0.733521,-0.6875851 H 8.5998039 c -0.4047998,0 -0.7333406,0.3075916 -0.7333406,0.6875851 v 7.9060271 0.343778 c 0,0.759346 -0.6565111,1.374996 -1.4664741,1.374996 H 3.4662949 C 2.656513,12.999994 2,12.384344 2,11.624998 V 3.3751929 C 2,2.6155911 2.656513,2.000023 3.4662949,2.000023 H 6.033325 c 0.2023058,0 0.3666642,0.1538293 0.3666642,0.3438355 0,0.189577 -0.1643584,0.3437493 -0.3666642,0.3437493 H 3.4662949 c -0.4049831,0 -0.7329623,0.3075916 -0.7329623,0.6875851 v 8.2498051 c 0,0.379673 0.3279792,0.687846 0.7329623,0.687846 h 2.9336943 c 0.4049844,0 0.7329621,-0.308173 0.7329621,-0.687846 V 3.3751929 c 0,-0.3491212 0.1398426,-0.6667667 0.368456,-0.9091529 0.032045,-0.03434 0.06572,-0.066285 0.1011589,-0.097174 0.00274,-0.00275 0.0065,-0.00535 0.00948,-0.00814 0.032405,-0.027776 0.0666,-0.054392 0.1015195,-0.079376 0.0063,-0.0047 0.013045,-0.00928 0.019675,-0.01386 0.033305,-0.022745 0.06823,-0.044714 0.1036516,-0.065195 0.00899,-0.00495 0.016855,-0.00999 0.025805,-0.014595 0.03255,-0.017705 0.065875,-0.03434 0.1004415,-0.049773 0.011497,-0.00535 0.02291,-0.011166 0.034855,-0.016115 0.034855,-0.014686 0.07104,-0.0282 0.1075951,-0.040538 0.01163,-0.00385 0.02225,-0.00761 0.033815,-0.011493 0.036574,-0.01124 0.074245,-0.02048 0.1122433,-0.02929 0.012175,-0.00274 0.02372,-0.0067 0.036574,-0.0089 0.042755,-0.0089 0.086305,-0.015456 0.1306966,-0.020401 0.00605,-8.149e-4 0.01388,-0.0018 0.020953,-0.00275 C 8.4925408,2.00304 8.5460622,2 8.5997871,2 h 0.1238869 2.809428 c 0.80997,0 1.466845,0.6155673 1.466845,1.3751697 V 11.625003 C 12.999947,12.384349 12.343072,13 11.533102,13 Z m -1.8331445,-0.68715 c 0.2023125,0 0.3666735,0.153732 0.3666735,0.343749 0,0.18967 -0.164361,0.343401 -0.3666735,0.343401 -0.2026621,0 -0.3666659,-0.153731 -0.3666659,-0.343401 0,-0.190017 0.1640038,-0.343749 0.3666659,-0.343749 z"
       id="path2-1-6"
       style="stroke-width:0.0221899;fill-opacity:1;fill:currentColor;"
       class="ColorScheme-Text" />
  </g>
  <g
     id="22-22-media-playback-stop"
     transform="translate(40.000003,32.000001)">
    <rect
       id="rect17"
       y="27.000002"
       x="-8.9999495"
       height="15"
       width="15"
       style="opacity:0.00100002;stroke-width:0.681818" />
    <path
       fill-rule="evenodd"
       clip-rule="evenodd"
       d="m 2.429014,40.000002 h -5.893248 c -0.21666,0 -0.392464,-0.176294 -0.392464,-0.392859 0,-0.217152 0.175804,-0.393053 0.392464,-0.393053 h 5.893248 c 0.433914,0 0.7857111,-0.351802 0.7857111,-0.785713 v -7.857143 c 0,-0.433913 -0.3517971,-0.78552 -0.7857111,-0.78552 h -7.857336 c -0.433813,0 -0.785813,0.351607 -0.785813,0.78552 v 7.464284 c 0,0.217153 -0.175705,0.392859 -0.392857,0.392859 -0.21676,0 -0.392956,-0.175706 -0.392956,-0.392859 v -7.464284 c 0,-0.867822 0.703903,-1.571233 1.571626,-1.571233 h 7.857336 c 0.8676361,0 1.5710401,0.703411 1.5710401,1.571233 v 7.857143 c 0,0.867821 -0.703404,1.571625 -1.5710401,1.571625 z M -5.035367,39.21409 c 0.216659,0 0.392857,0.175901 0.392857,0.393053 0,0.216565 -0.176198,0.392859 -0.392857,0.392859 -0.217151,0 -0.392955,-0.176294 -0.392955,-0.392859 0,-0.217152 0.175804,-0.393053 0.392955,-0.393053 z"
       id="path2-6-3-2"
       style="stroke-width:0.0245541;fill-opacity:1;fill:currentColor;"
       class="ColorScheme-Text" />
  </g>
  <g
     id="22-22-media-skip-backward"
     transform="translate(-55.999933,59.000003)">
    <rect
       id="rect37"
       y="0"
       x="-15"
       height="15"
       width="15"
       style="opacity:0.00100002;stroke-width:0.681818"
       transform="scale(-1,1)" />
    <path
       d="m 4.7356349,10.642269 c -0.2171463,0 -0.3928474,-0.175697 -0.3928474,-0.39285 0,-0.216748 0.1757011,-0.392453 0.3928474,-0.392453 0.2167543,0 0.3928492,0.175705 0.3928492,0.392453 0,0.217153 -0.1760949,0.39285 -0.3928492,0.39285 z m 7.5346131,2.357482 c -0.253979,0 -0.491456,-0.066 -0.701285,-0.177442 L 5.0264414,8.7933337 C 4.9479911,8.7400069 4.8725919,8.680529 4.8031561,8.6109051 4.4960473,8.3039854 4.3423937,7.9017373 4.3427875,7.4996838 V 3.5711959 c 0,-0.4339005 -0.3519923,-0.7854967 -0.7857955,-0.7854967 H 2.771197 c -0.4339008,0 -0.7853042,0.3515962 -0.7853042,0.7854967 v 7.8569661 c 0,0.4339 0.3514034,0.785699 0.7853042,0.785699 h 0.785795 c 0.3419252,0 0.6292695,-0.219626 0.7378426,-0.524424 l 0.0042,0.0018 c 0.053896,-0.152887 0.1979522,-0.262981 0.3692579,-0.262981 0.2165581,0 0.3928487,0.175698 0.3928487,0.392852 0,0.0462 -0.00924,0.09036 -0.024151,0.131776 h 3.936e-4 c -3.923e-4,0.0018 -0.00135,0.0018 -0.0017,0.0038 -0.00535,0.01416 -0.011515,0.02783 -0.01802,0.04103 -0.2286743,0.585145 -0.7937874,1.00235 -1.4606466,1.00235 H 2.771197 C 1.9034932,13.000064 1.2,12.296275 1.2,11.428474 V 3.5711959 C 1.2,2.7033946 1.9034932,2 2.771197,2 h 0.785795 c 0.8682687,0 1.5714921,0.7033946 1.5714921,1.5711959 v 3.9284879 c 0,0.2012072 0.076722,0.4020535 0.229988,0.5559007 0.035678,0.035115 0.075379,0.063272 0.1152764,0.090724 l 6.5290925,4.0157645 c 0.08207,0.0324 0.170717,0.05185 0.264334,0.05185 0.397075,0 0.71857,-0.321491 0.71857,-0.718371 V 3.5037306 c 0,-0.39688 -0.321495,-0.7179848 -0.71857,-0.7179848 -0.102042,0 -0.199099,0.022087 -0.287341,0.060454 L 6.5314433,6.2011493 c -0.063885,0.044525 -0.140983,0.07101 -0.2246115,0.07101 -0.2167539,0 -0.3924551,-0.1756966 -0.3924551,-0.3928496 0,-0.1426976 0.07653,-0.266449 0.1906787,-0.3352901 l -0.00135,-0.0017 5.4641046,-3.3641735 c 0.20943,-0.1120919 0.447301,-0.1780904 0.702408,-0.1780904 0.829059,0 1.500803,0.6717418 1.500803,1.5006042 v 7.9979261 c 0,0.829058 -0.671744,1.501192 -1.500803,1.501192 z"
       id="path2-9-9"
       style="stroke-width:0.0245532;fill-opacity:1;fill:currentColor;"
       class="ColorScheme-Text" />
  </g>
  <g
     id="22-22-media-seek-forward"
     transform="translate(-34.999924,59.000003)">
    <rect
       id="rect32"
       y="0"
       x="1.8e-07"
       height="15"
       width="15"
       style="opacity:0.00100002;stroke-width:0.681818" />
    <path
       fill-rule="evenodd"
       clip-rule="evenodd"
       d="m 13.316313,8.719429 c -0.01304,0.01323 -0.02723,0.02416 -0.04086,0.03703 L 8.49846,12.684266 C 8.233748,12.880694 7.908609,13 7.554105,13 6.676118,13 5.964458,12.288143 5.964458,11.40996 v -0.518498 -0.248998 c 0,-0.474375 0.211381,-0.897556 0.543444,-1.185667 C 7.083757,8.988167 7.616643,8.553888 8.033292,8.214165 8.41925,7.815931 8.416942,7.179453 8.023122,6.78527 7.997222,6.75937 7.970382,6.73521 7.942172,6.71257 7.936072,6.70737 7.932372,6.70297 7.926822,6.69818 6.707566,5.705675 4.629351,4.013394 3.295037,2.927095 3.165738,2.839045 3.011124,2.785715 2.8433,2.785715 c -0.445795,0 -0.807395,0.361208 -0.807395,0.807003 v 7.813977 c 0,0.445795 0.3616,0.807395 0.807395,0.807395 0.166866,0 0.319761,-0.05313 0.448667,-0.139464 0.0165,-0.01323 0.03396,-0.02782 0.05026,-0.04105 l 0.0013,0.0017 c 0.07003,-0.06389 0.16171,-0.103395 0.263951,-0.103395 0.216563,0 0.392858,0.175705 0.392858,0.392857 0,0.13696 -0.07135,0.257616 -0.178014,0.327643 l -0.03835,0.03185 C 3.51988,12.88067 3.194741,12.999975 2.840065,12.999975 1.961857,13 1.25,12.288143 1.25,11.40996 V 3.589647 C 1.25,2.711857 1.961857,2 2.84004,2 3.196067,2 3.522359,2.119699 3.787268,2.318042 l 4.774687,3.925895 c 0.01323,0.01228 0.02723,0.0234 0.0401,0.03607 0.673873,0.674069 0.673873,1.765942 0,2.439446 -0.01284,0.01284 -0.02647,0.0234 -0.03933,0.03568 L 7.02333,10.0206 c -0.147125,0.164386 -0.273158,0.354112 -0.273158,0.591594 v 0.794529 c 0,0.445794 0.361207,0.807395 0.807002,0.807395 0.166129,0 0.319,-0.05237 0.447145,-0.137721 1.373846,-1.118342 3.54011,-2.88254 4.743431,-3.862203 0.385958,-0.398235 0.38365,-1.034712 -0.01017,-1.428895 -0.0259,-0.0259 -0.05333,-0.05006 -0.08095,-0.0727 -0.0063,-0.0052 -0.0098,-0.0096 -0.01554,-0.01439 C 11.421834,5.70568 9.34384,4.013399 8.009501,2.9271 7.880005,2.83905 7.725416,2.78572 7.557175,2.78572 c -0.346623,0 -0.639547,0.219828 -0.754065,0.526944 l -0.004,-0.0014 C 6.74443,3.462219 6.600963,3.571188 6.431003,3.571188 c -0.216759,0 -0.393053,-0.175902 -0.393053,-0.393053 0,-0.04488 0.0088,-0.08766 0.02303,-0.127753 h -5.65e-4 c 5.65e-4,-0.0012 0.0013,-0.0025 0.0019,-0.0038 0.0061,-0.01765 0.014,-0.03433 0.02284,-0.05063 C 6.321245,2.413187 6.886739,2 7.554105,2 7.910525,2 8.236424,2.119699 8.501529,2.318042 l 4.774688,3.925895 c 0.01323,0.01228 0.02743,0.0234 0.0401,0.03607 0.673479,0.674069 0.673479,1.765917 0,2.439422 z m -8.530599,2.316089 c 0.217152,0 0.392857,0.176098 0.392857,0.392857 0,0.217152 -0.175705,0.392857 -0.392857,0.392857 -0.216759,0 -0.392464,-0.175705 -0.392464,-0.392857 -2.5e-5,-0.216759 0.175681,-0.392857 0.392464,-0.392857 z"
       id="path2-12"
       style="stroke-width:0.0245536;fill-opacity:1;fill:currentColor;"
       class="ColorScheme-Text" />
  </g>
  <g
     id="media-seek-forward"
     transform="translate(-40,32.000001)">
    <rect
       id="rect127"
       style="opacity:0.00100002;stroke-width:0.625"
       y="0"
       x="0"
       height="20"
       width="20" />
    <path
       fill-rule="evenodd"
       clip-rule="evenodd"
       d="m 16.561569,11.43573 c -0.01484,0.01503 -0.03098,0.02746 -0.04641,0.04213 l -5.428335,4.463365 c -0.300806,0.223217 -0.670278,0.358784 -1.073118,0.358784 -0.9977008,0 -1.8063958,-0.808922 -1.8063958,-1.806841 v -0.589197 -0.28295 c 0,-0.539056 0.2402028,-1.019937 0.6175428,-1.347331 0.6543727,-0.53253 1.259918,-1.02602 1.733377,-1.412065 0.438583,-0.452533 0.435961,-1.175796 -0.01155,-1.623726 -0.02943,-0.02948 -0.05992,-0.05694 -0.09199,-0.0826 -0.007,-0.0052 -0.01114,-0.01099 -0.01745,-0.01634 C 9.0517372,8.011124 6.6901574,6.088102 5.1739092,4.853684 5.0269802,4.753633 4.8512845,4.693027 4.6605778,4.693027 c -0.5065794,0 -0.9174836,0.410461 -0.9174836,0.91704 v 8.879413 c 0,0.506576 0.4109042,0.917481 0.9174836,0.917481 0.1896181,0 0.3633603,-0.06033 0.5098429,-0.158476 0.01875,-0.01503 0.038595,-0.03157 0.057115,-0.0466 l 0.00145,0.0017 c 0.079585,-0.07259 0.1837592,-0.117494 0.2999408,-0.117494 0.2460914,0 0.4464242,0.199661 0.4464242,0.446422 0,0.155635 -0.081083,0.292742 -0.2022861,0.372317 l -0.043585,0.0362 C 5.4293787,16.164252 5.0599072,16.299825 4.6568708,16.299825 3.6589188,16.299853 2.85,15.490935 2.85,14.493011 V 5.606398 C 2.85,4.608922 3.6589188,3.8 4.6568425,3.8 5.0614136,3.8 5.4321957,3.936019 5.7332252,4.161407 L 11.158942,8.6226 c 0.01503,0.01393 0.03094,0.02655 0.04557,0.04102 0.765754,0.765978 0.765754,2.006727 0,2.772064 -0.01459,0.01464 -0.03008,0.02655 -0.04469,0.04048 L 9.4105305,12.91419 c -0.1671855,0.1868 -0.3104032,0.402393 -0.3104032,0.672256 v 0.902862 c 0,0.506579 0.4104577,0.917485 0.9170367,0.917485 0.188781,0 0.362496,-0.05957 0.508113,-0.1565 1.56117,-1.270827 4.022807,-3.275574 5.390199,-4.388815 0.438587,-0.452536 0.435964,-1.175795 -0.01152,-1.623724 -0.02947,-0.02948 -0.06058,-0.05692 -0.09205,-0.0826 -0.0078,-0.0052 -0.01117,-0.01099 -0.01764,-0.01634 -1.385503,-1.12786 -3.746832,-3.050882 -5.263109,-4.285305 -0.147153,-0.10005 -0.32282,-0.160655 -0.514,-0.160655 -0.3938854,0 -0.7267496,0.249803 -0.8568822,0.598794 l -0.0046,-0.0014 C 9.0935358,5.461784 8.9305064,5.585611 8.737372,5.585611 c -0.2463139,0 -0.4466457,-0.199888 -0.4466457,-0.446647 0,-0.05103 0.01,-0.09966 0.026165,-0.14517 h -6.328e-4 c 6.421e-4,-0.0012 0.00145,-0.0025 0.0022,-0.0038 0.007,-0.02005 0.015905,-0.03898 0.02596,-0.05753 C 8.6126992,4.27024 9.2552986,3.800715 10.01366,3.800715 c 0.405018,0 0.775353,0.13602 1.076605,0.361407 l 5.425717,4.46119 c 0.01503,0.01393 0.03118,0.02655 0.04551,0.04102 0.765308,0.76598 0.765308,2.006702 0,2.772041 z m -9.693747,2.631892 c 0.2467608,0 0.4464231,0.200103 0.4464231,0.446422 0,0.246763 -0.1996623,0.446423 -0.4464231,0.446423 -0.2463142,0 -0.4459768,-0.19966 -0.4459768,-0.446423 -2.81e-5,-0.246319 0.1996354,-0.446422 0.4459768,-0.446422 z"
       id="path2-12-7"
       style="stroke-width:0.0279016;fill-opacity:1;fill:currentColor;"
       class="ColorScheme-Text" />
  </g>
  <g
     id="22-22-media-seek-backward"
     transform="translate(40.000003,32.000001)">
    <rect
       id="rect42"
       y="27.000017"
       x="37.999916"
       height="15"
       width="15"
       style="opacity:0.00100002;stroke-width:0.681818"
       transform="scale(-1,1)" />
    <path
       fill-rule="evenodd"
       clip-rule="evenodd"
       d="m -40.768711,40.000017 c -0.354505,0 -0.679643,-0.119306 -0.943766,-0.315734 l -4.777953,-3.928204 c -0.01323,-0.01247 -0.02723,-0.02379 -0.0401,-0.03663 -0.673873,-0.673505 -0.673873,-1.765353 0,-2.439447 0.01323,-0.01304 0.02743,-0.02416 0.04105,-0.03683 l 1.538625,-1.265074 c 0.146167,-0.164386 0.272201,-0.354111 0.272201,-0.590243 v -0.795118 c 0,-0.445795 -0.361208,-0.807003 -0.807003,-0.807003 -0.168609,0 -0.323419,0.05333 -0.45289,0.14138 -1.373846,1.117948 -3.535125,2.878513 -4.736728,3.85739 -0.387283,0.398603 -0.385,1.035474 0.0092,1.429681 0.0259,0.02608 0.05333,0.05026 0.08095,0.0727 0.0063,0.0054 0.0098,0.0098 0.01554,0.01459 1.219232,0.992308 3.297839,2.685154 4.631982,3.771257 0.06158,0.04201 0.129103,0.07538 0.200849,0.09956 l -3.93e-4,0.0014 c 0.157683,0.05122 0.272593,0.197386 0.272593,0.371766 0,0.217151 -0.175705,0.392857 -0.392857,0.392857 -0.04181,0 -0.08115,-0.0083 -0.118937,-0.02013 l -3.93e-4,7.61e-4 c -0.0031,-7.61e-4 -0.0063,-0.0031 -0.0094,-0.0038 -0.01611,-0.0057 -0.03165,-0.01247 -0.04758,-0.02033 -0.14079,-0.05333 -0.27392,-0.122006 -0.392857,-0.210056 l -4.778125,-3.92916 c -0.01323,-0.01228 -0.02743,-0.0232 -0.0401,-0.03607 -0.333788,-0.33389 -0.502151,-0.770428 -0.505073,-1.207948 -0.003,-0.445279 0.165368,-0.89159 0.505067,-1.231558 0.01363,-0.01363 0.02858,-0.02495 0.04258,-0.03818 l 4.7726,-3.923785 c 0.265123,-0.197779 0.591219,-0.318042 0.947049,-0.318042 0.87779,0 1.589648,0.711857 1.589648,1.589647 v 0.518498 0.248801 c 0,0.471699 -0.209099,0.893701 -0.538657,1.181837 -0.577009,0.469588 -1.111442,0.905217 -1.529417,1.245701 -0.387112,0.398603 -0.385,1.035474 0.0094,1.429681 0.0259,0.02608 0.05274,0.05026 0.08095,0.0727 0.0061,0.0054 0.0098,0.0098 0.01535,0.01459 1.219257,0.992308 3.297471,2.685154 4.631589,3.771257 0.129471,0.08825 0.284085,0.141379 0.451933,0.141379 0.445795,0 0.807396,-0.3616 0.807396,-0.807395 v -7.813977 c 0,-0.445795 -0.361601,-0.807003 -0.807396,-0.807003 -0.169002,0 -0.324573,0.05429 -0.454437,0.143295 -0.358679,0.291966 -0.770344,0.62727 -1.205605,0.98175 -0.07135,0.07405 -0.17131,0.120656 -0.282366,0.120656 -0.217152,0 -0.392857,-0.175705 -0.392857,-0.392464 0,-0.144817 0.07923,-0.269893 0.196035,-0.338176 l 1.195272,-0.98271 c 0.264711,-0.197804 0.5912,-0.318067 0.947031,-0.318067 0.878379,0 1.590236,0.711857 1.590236,1.589647 v 7.820313 c 0,0.878183 -0.711857,1.59004 -1.590236,1.59004 z m -3.713507,-1.375196 c 0.217152,0 0.392857,0.175705 0.392857,0.392857 0,0.217152 -0.175705,0.393053 -0.392857,0.393053 -0.216759,0 -0.392857,-0.175901 -0.392857,-0.393053 0,-0.217152 0.176098,-0.392857 0.392857,-0.392857 z"
       id="path2-0"
       style="stroke-width:0.0245536;fill-opacity:1;fill:currentColor;"
       class="ColorScheme-Text" />
  </g>
  <g
     id="media-seek-backward"
     transform="translate(-20,32.000001)">
    <rect
       id="rect140"
       y="0"
       x="-20"
       height="20"
       width="20"
       style="opacity:0.00100002;stroke-width:0.625"
       transform="scale(-1,1)" />
    <path
       fill-rule="evenodd"
       clip-rule="evenodd"
       d="m 15.328732,16.3 c -0.402847,0 -0.772322,-0.135581 -1.072462,-0.358784 L 8.8267786,11.477347 c -0.01503,-0.01412 -0.030948,-0.02709 -0.045573,-0.04158 -0.7657647,-0.76535 -0.7657647,-2.0060876 0,-2.772102 0.01503,-0.01484 0.031165,-0.02746 0.046645,-0.04187 L 10.576288,7.184217 c 0.166099,-0.186807 0.30932,-0.402405 0.30932,-0.670729 V 5.609937 c 0,-0.506577 -0.410464,-0.917045 -0.91705,-0.917045 -0.1916006,0 -0.3675211,0.06059 -0.5146474,0.160655 -1.5611885,1.270397 -4.0171875,3.271044 -5.3826452,4.3833994 -0.4400945,0.452959 -0.4375,1.1766796 0.010418,1.6246406 0.029428,0.02968 0.060605,0.05716 0.09199,0.0826 0.0072,0.0054 0.011137,0.01117 0.017655,0.01654 1.3854906,1.127623 3.7475441,3.051304 5.2636156,4.285517 0.06998,0.04771 0.1467083,0.08565 0.2282376,0.113135 l -4.466e-4,0.0014 c 0.1791853,0.05823 0.309765,0.224302 0.309765,0.42246 0,0.246764 -0.199665,0.446429 -0.4464286,0.446429 -0.04751,0 -0.09222,-0.0098 -0.1351555,-0.02283 l -4.469e-4,8.65e-4 c -0.00355,-8.65e-4 -0.0072,-0.0031 -0.010714,-0.0038 -0.018301,-0.0072 -0.03597,-0.01412 -0.054075,-0.02313 C 9.1856915,16.120193 9.0344074,16.042129 8.899252,15.942072 L 3.4695663,11.477094 c -0.01503,-0.01393 -0.031165,-0.02635 -0.045575,-0.04102 -0.379304,-0.379419 -0.570626,-0.875486 -0.5739455,-1.372667 -0.00345,-0.5059986 0.1879175,-1.0131716 0.5739395,-1.399498 0.01549,-0.01543 0.03248,-0.0284 0.048385,-0.04343 L 8.8957783,4.161634 C 9.1971464,3.936658 9.5677102,3.8 9.972063,3.8 c 0.997489,0 1.806418,0.808922 1.806418,1.806412 V 6.19562 6.478351 c 0,0.536019 -0.237612,1.015561 -0.61211,1.342997 -0.655693,0.533623 -1.2630027,1.0286524 -1.7379746,1.4155614 -0.4399,0.452963 -0.4375,1.1766836 0.010714,1.6246356 0.02943,0.02968 0.059928,0.05716 0.09199,0.0826 0.007,0.0054 0.011137,0.01117 0.017448,0.01654 1.3855196,1.127622 3.7471256,3.051304 5.2631686,4.285517 0.147126,0.100252 0.322824,0.160654 0.513561,0.160654 0.506585,0 0.917495,-0.410905 0.917495,-0.917495 V 5.609844 c 0,-0.506587 -0.41091,-0.917046 -0.917495,-0.917046 -0.192048,0 -0.368833,0.06164 -0.516406,0.16283 -0.40759,0.331784 -0.875391,0.712813 -1.370006,1.115625 -0.08108,0.0841 -0.19467,0.137109 -0.32087,0.137109 -0.246764,0 -0.446428,-0.19966 -0.446428,-0.445981 0,-0.16456 0.09003,-0.306691 0.222766,-0.384289 L 14.252587,4.161389 C 14.553368,3.936658 14.924378,3.8 15.328732,3.8 c 0.998158,0 1.807086,0.808922 1.807086,1.806412 v 8.886723 c 0,0.997943 -0.808928,1.806865 -1.807086,1.806865 z m -4.219894,-1.562726 c 0.246764,0 0.446428,0.199675 0.446428,0.446437 0,0.246762 -0.199664,0.446648 -0.446428,0.446648 -0.246317,0 -0.446429,-0.199886 -0.446429,-0.446648 0,-0.246762 0.200112,-0.446437 0.446429,-0.446437 z"
       id="path2-0-9"
       style="stroke-width:0.0279016;fill-opacity:1;fill:currentColor;"
       class="ColorScheme-Text" />
  </g>
  <g
     id="22-22-media-eject"
     transform="translate(53.000107,59.000018)">
    <rect
       id="rect27"
       y="0"
       x="0"
       height="15"
       width="15"
       style="opacity:0.00100002;stroke-width:0.681818" />
    <path
       fill-rule="evenodd"
       clip-rule="evenodd"
       d="m 13.821328,8.2861081 c 0,0.867625 -0.703705,1.571036 -1.57133,1.571036 H 2.821134 c -0.433813,0 -0.785788,0.3519989 -0.785788,0.7859099 v 0.785714 c 0,0.433911 0.351975,0.785911 0.785788,0.785911 h 9.428864 c 0.43391,0 0.785321,-0.352 0.785321,-0.785911 v -0.392857 c 0,-0.217152 0.176098,-0.392857 0.392857,-0.392857 0.217152,0 0.392857,0.175705 0.392857,0.392857 v 0.392857 C 13.821033,12.296589 13.117623,13 12.249998,13 H 2.821134 C 1.953411,13 1.25,12.296589 1.25,11.428768 v -0.785714 c 0,-0.8678209 0.703411,-1.5712319 1.571134,-1.5712319 h 0.09158 9.337279 c 0.43391,0 0.785321,-0.352 0.785321,-0.785714 h 0.0027 c 7.62e-4,-0.303654 -0.114321,-0.607504 -0.345861,-0.839143 L 8.374212,3.1293681 c -0.46173,-0.461533 -1.210024,-0.461533 -1.671165,0 l -3.79684,3.796595 c -0.07184,0.07405 -0.171777,0.120264 -0.282857,0.120264 -0.218012,0 -0.394674,-0.176663 -0.394674,-0.394773 0,-0.118937 0.0538,-0.224247 0.13745,-0.296754 L 6.1463,2.5744331 c 0.383748,-0.383772 0.886458,-0.573694 1.389413,-0.574431 0.50487,-7.36e-4 1.010036,0.189161 1.395379,0.574431 l 4.316002,4.316247 c 0.370611,0.370415 0.56127,0.851788 0.574332,1.337113 -3.93e-4,0.01689 -3.93e-4,0.03531 -3.93e-4,0.05832 h 2.95e-4 z m -12.178864,0 C 1.425705,8.2861081 1.25,8.1098141 1.25,7.8930551 c 0,-0.217152 0.175705,-0.392759 0.392464,-0.392759 0.217152,0 0.392857,0.175607 0.392857,0.392759 0,0.216759 -0.175705,0.393053 -0.392857,0.393053 z"
       id="path2-360"
       style="stroke-width:0.0245536;fill-opacity:1;fill:currentColor;"
       class="ColorScheme-Text" />
  </g>
  <g
     id="media-eject"
     transform="translate(40.000003,32.000001)">
    <rect
       id="rect166"
       style="opacity:0.00100002;stroke-width:0.625"
       y="0"
       x="0"
       height="20"
       width="20" />
    <path
       fill-rule="evenodd"
       clip-rule="evenodd"
       d="m 17.135603,10.893305 c 0,0.985938 -0.799674,1.785268 -1.785605,1.785268 H 4.635379 c -0.492973,0 -0.892934,0.399999 -0.892934,0.89308 v 0.892857 c 0,0.49308 0.399961,0.89308 0.892934,0.89308 h 10.714619 c 0.493084,0 0.892406,-0.4 0.892406,-0.89308 v -0.446429 c 0,-0.246764 0.200113,-0.446428 0.446437,-0.446428 0.246762,0 0.446422,0.199664 0.446422,0.446428 v 0.446429 c 0,0.98616 -0.799334,1.78549 -1.785265,1.78549 H 4.635379 C 3.649336,16.25 2.85,15.45067 2.85,14.46451 v -0.892857 c 0,-0.986161 0.799336,-1.785491 1.785379,-1.785491 h 0.10404 10.61055 c 0.493071,0 0.892406,-0.4 0.892406,-0.892857 h 0.0027 c 8.66e-4,-0.345062 -0.129911,-0.690343 -0.393024,-0.95357 L 10.945322,5.0333734 c -0.524692,-0.524473 -1.375027,-0.524473 -1.89905,0 L 4.73168,9.3476784 c -0.08159,0.0841 -0.1952,0.136674 -0.321427,0.136674 -0.247742,0 -0.448494,-0.200753 -0.448494,-0.448608 0,-0.135152 0.06115,-0.254832 0.156194,-0.337224 l 4.295652,-4.295757 c 0.436076,-0.436107 1.007338,-0.651919 1.578878,-0.652761 0.573715,-8.41e-4 1.147769,0.214961 1.585657,0.652761 l 4.904548,4.904832 c 0.421149,0.42092 0.637806,0.9679356 0.65265,1.5194426 -4.45e-4,0.0192 -4.45e-4,0.04012 -4.45e-4,0.06627 h 3.33e-4 z m -13.839619,0 C 3.04966,10.893305 2.85,10.692971 2.85,10.446653 c 0,-0.246764 0.19966,-0.446313 0.445984,-0.446313 0.246762,0 0.446422,0.199549 0.446422,0.446313 0,0.246318 -0.19966,0.446652 -0.446422,0.446652 z"
       id="path2-360-6"
       style="stroke-width:0.0279016;fill-opacity:1;fill:currentColor;"
       class="ColorScheme-Text" />
  </g>
</svg>
