<?xml version="1.0" encoding="UTF-8" standalone="no"?>
<svg
   width="32"
   height="32"
   version="1.1"
   id="svg12"
   sodipodi:docname="nepomuk.svg"
   inkscape:version="1.1.2 (0a00cf5339, 2022-02-04)"
   xmlns:inkscape="http://www.inkscape.org/namespaces/inkscape"
   xmlns:sodipodi="http://sodipodi.sourceforge.net/DTD/sodipodi-0.dtd"
   xmlns="http://www.w3.org/2000/svg"
   xmlns:svg="http://www.w3.org/2000/svg"
   xmlns:rdf="http://www.w3.org/1999/02/22-rdf-syntax-ns#"
   xmlns:cc="http://creativecommons.org/ns#"
   xmlns:dc="http://purl.org/dc/elements/1.1/">
  <style
     id="current-color-scheme"
     type="text/css">.ColorScheme-Text { color:#eff0f1; }
</style>
  <metadata
     id="metadata18">
    <rdf:RDF>
      <cc:Work
         rdf:about="">
        <dc:format>image/svg+xml</dc:format>
        <dc:type
           rdf:resource="http://purl.org/dc/dcmitype/StillImage" />
      </cc:Work>
    </rdf:RDF>
  </metadata>
  <defs
     id="defs16" />
  <sodipodi:namedview
     pagecolor="#ffffff"
     bordercolor="#000000"
     borderopacity="1"
     objecttolerance="10"
     gridtolerance="10"
     guidetolerance="10"
     inkscape:pageopacity="0"
     inkscape:pageshadow="2"
     inkscape:window-width="1920"
     inkscape:window-height="1009"
     id="namedview14"
     showgrid="false"
     inkscape:zoom="9.8125"
     inkscape:cx="29.095541"
     inkscape:cy="16.101911"
     inkscape:window-x="0"
     inkscape:window-y="0"
     inkscape:window-maximized="1"
     inkscape:current-layer="svg12"
     inkscape:document-rotation="0"
     inkscape:showpageshadow="false"
     showguides="false"
     inkscape:lockguides="false"
     inkscape:pagecheckerboard="0">
    <inkscape:grid
       type="xygrid"
       id="grid860"
       originx="1e-06"
       originy="1e-06" />
  </sodipodi:namedview>
  <g
     id="nepomuk">
    <path
       style="opacity:0.00100002"
       d="M 0,0 V 32.000001 H 32.000001 V 0 Z"
       id="path7" />
    <path
       d="m 9.029547,18.524641 c -0.3585,0.206906 -0.817734,0.08423 -1.024313,-0.274313 -0.0128,-0.02236 -0.02086,-0.04542 -0.03112,-0.06773 C 7.356677,17.094625 6.99963,15.840344 6.99963,14.5 c 0,-2.746218 1.482797,-5.14125 3.683719,-6.4475156 0.02236,-0.01575 0.04209,-0.033328 0.06703,-0.047625 0.3585,-0.2069063 0.816656,-0.084234 1.024312,0.2746406 0.206907,0.3585 0.08461,0.8174062 -0.274312,1.0243125 h -7.5e-4 l 0.0022,0.00403 C 9.708863,10.344953 8.500004,12.279672 8.500004,14.5 c 0,1.0935 0.297375,2.114859 0.808219,2.997797 l -0.004,0.0022 c 0.206531,0.358875 0.08423,0.817406 -0.274641,1.024641 z M 14.5,8.499625 c -0.414562,0 -0.75,-0.3358125 -0.75,-0.74925 C 13.75,7.3358125 14.085438,7 14.5,7 c 0.414562,0 0.75,0.3358125 0.75,0.750375 0,0.4134375 -0.335438,0.74925 -0.75,0.74925 z m 12.621375,18.621469 c -1.171875,1.171875 -3.071391,1.171875 -4.242188,0 L 20.869891,25.112781 C 19.490734,23.733625 19.547875,22.649266 20.186547,21.6865 v 0 c 2.238375,-2.238375 3.313125,-4.319109 3.313125,-7.1865 0,-4.9702031 -4.028672,-9 -8.999625,-9 -4.970953,0 -8.999672,4.0297969 -8.999672,9 0,4.970578 4.028672,9.000375 8.999625,9.000375 0.414562,0 0.75,0.335812 0.75,0.74925 C 15.25,24.664187 14.914562,25 14.5,25 8.701047,25 4,20.298578 4,14.5 4,8.7006719 8.701047,4 14.5,4 c 2.899312,0 5.524312,1.1747813 7.424906,3.0750938 0.247172,0.2471718 0.477891,0.5049843 0.695813,0.7701562 0.09412,0.1142813 0.176531,0.2376563 0.266625,0.3559688 0.117562,0.156 0.237656,0.3112968 0.346078,0.4716562 0.09633,0.1442812 0.182015,0.295875 0.270984,0.4456875 0.08606,0.1432031 0.175781,0.2838281 0.254906,0.4303125 0.08494,0.1574531 0.156375,0.3230156 0.233625,0.485953 0.06994,0.148313 0.145032,0.295172 0.206907,0.445688 0.0652,0.157453 0.11864,0.320437 0.176531,0.481922 0.05822,0.161484 0.120094,0.323719 0.170297,0.487781 0.05016,0.164438 0.08826,0.333984 0.129656,0.501703 0.04064,0.164063 0.08752,0.327047 0.120094,0.492188 0.03806,0.192609 0.06117,0.39075 0.08897,0.58739 0.02086,0.142828 0.04795,0.28636 0.06225,0.429938 0.03333,0.341297 0.05236,0.688453 0.05236,1.038562 0,0.301031 -0.01758,0.602766 -0.04284,0.903422 -0.0081,0.08827 -0.01833,0.175031 -0.02784,0.262594 -0.02564,0.229968 -0.05822,0.458109 -0.09886,0.686297 -0.0143,0.078 -0.02601,0.157453 -0.04209,0.23475 -0.05784,0.29039 -0.128156,0.577499 -0.210562,0.861703 -0.01941,0.0652 -0.04209,0.128531 -0.063,0.194109 -0.06849,0.217547 -0.143906,0.434344 -0.227438,0.648937 -0.04139,0.107297 -0.08423,0.213844 -0.129656,0.318985 -0.078,0.183469 -0.164812,0.366562 -0.254531,0.5475 -0.06553,0.131812 -0.132188,0.262219 -0.202875,0.391125 -0.467672,0.851062 -1.053938,1.653797 -1.775391,2.37525 -0.851719,0.851719 -0.815343,1.306125 0,2.121469 l 1.995469,1.995843 c 0.585563,0.585563 1.535531,0.585563 2.121844,0 0.585187,-0.585562 0.585187,-1.535531 0,-2.121468 l -1.598157,-1.598157 c -0.0066,-0.0066 -0.01537,-0.0081 -0.02161,-0.0143 -0.292594,-0.293344 -0.292594,-0.768657 0,-1.061297 0.293719,-0.292594 0.768328,-0.292594 1.061297,0 0.0022,0.0026 0.0022,0.0048 0.0048,0.0073 l 0.004,-0.004 1.628812,1.628906 c 1.1715,1.171828 1.1715,3.071344 0,4.242141 z m -9.62175,-3.620719 c 0.414563,0 0.75,0.335812 0.75,0.74925 0,0.414562 -0.335437,0.750375 -0.75,0.750375 -0.413437,0 -0.74925,-0.335813 -0.74925,-0.750375 0,-0.413438 0.335813,-0.74925 0.74925,-0.74925 z"
       id="path2-3"
       style="stroke-width:0.046875;fill-opacity:1;fill:currentColor;"
       class="ColorScheme-Text" />
  </g>
  <g
     id="22-22-nepomuk"
     transform="translate(32.000002,10.000001)">
    <path
       style="opacity:0.00100002"
       d="M 0,0 V 22 H 22 V 0 Z"
       id="path2" />
    <path
       d="m 6.353031,12.683094 c -0.239,0.137937 -0.545156,0.05615 -0.682875,-0.182875 -0.0085,-0.01491 -0.01391,-0.03028 -0.02075,-0.04515 C 5.237782,11.729754 4.99975,10.893567 4.99975,10.000004 c 0,-1.830812 0.988532,-3.4275 2.455813,-4.298344 0.01491,-0.0105 0.02806,-0.02222 0.04469,-0.03175 0.239,-0.137938 0.544437,-0.05615 0.682874,0.183094 0.137938,0.239 0.05641,0.544937 -0.182874,0.682875 h -5e-4 l 0.0015,0.0027 c -1.19531,0.691406 -2.001216,1.981219 -2.001216,3.461438 0,0.729 0.19825,1.409906 0.538812,1.998531 l -0.0027,0.0015 c 0.137687,0.23925 0.05615,0.544937 -0.183094,0.683094 z M 10,5.99975 C 9.723625,5.99975 9.5,5.775875 9.5,5.50025 9.5,5.223875 9.723625,5 10,5 c 0.276375,0 0.5,0.223875 0.5,0.50025 0,0.275625 -0.223625,0.4995 -0.5,0.4995 z m 8.41425,12.414313 c -0.78125,0.78125 -2.047594,0.78125 -2.828125,0 L 14.246594,17.075187 C 13.327156,16.15575 13.36525,15.432844 13.791031,14.791 v 0 c 1.49225,-1.49225 2.20875,-2.879406 2.20875,-4.791 0,-3.313469 -2.685781,-6 -5.99975,-6 -3.313968,0 -5.999781,2.686531 -5.999781,6 0,3.313719 2.685781,6.00025 5.99975,6.00025 0.276375,0 0.5,0.223875 0.5,0.4995 C 10.5,16.776125 10.276375,17 10,17 6.134031,17 3,13.865719 3,10 3,6.133781 6.134031,3 10,3 c 1.932875,0 3.682875,0.783187 4.949937,2.050063 0.164782,0.164781 0.318594,0.336656 0.463876,0.513437 0.06275,0.07619 0.117687,0.158437 0.17775,0.237313 0.07837,0.104 0.158437,0.207531 0.230718,0.314437 0.06422,0.09619 0.121344,0.19725 0.180656,0.297125 0.05737,0.09547 0.117188,0.189219 0.169938,0.286875 0.05663,0.104969 0.10425,0.215344 0.15575,0.323969 0.04663,0.09887 0.09669,0.196781 0.137938,0.297125 0.04347,0.104969 0.07909,0.213625 0.117687,0.321281 0.03881,0.107656 0.08006,0.215813 0.113531,0.325188 0.03344,0.109625 0.05884,0.222656 0.08644,0.334468 0.02709,0.109376 0.05835,0.218032 0.08006,0.328126 0.02537,0.128406 0.04078,0.2605 0.05931,0.391593 0.01391,0.09522 0.03197,0.190907 0.0415,0.286625 0.02222,0.227532 0.03491,0.458969 0.03491,0.692375 0,0.200687 -0.01172,0.401844 -0.02856,0.602281 -0.0054,0.05885 -0.01222,0.116688 -0.01856,0.175063 -0.01709,0.153312 -0.03881,0.305406 -0.06591,0.457531 -0.0095,0.052 -0.01734,0.104969 -0.02806,0.1565 -0.03856,0.193594 -0.08544,0.385 -0.140375,0.574469 -0.01294,0.04347 -0.02806,0.08569 -0.042,0.129406 -0.04566,0.145031 -0.09594,0.289563 -0.151625,0.432625 -0.02759,0.07153 -0.05615,0.142562 -0.08644,0.212656 -0.052,0.122313 -0.109874,0.244375 -0.169687,0.365 -0.04369,0.08788 -0.08812,0.174813 -0.13525,0.26075 -0.311781,0.567375 -0.702625,1.102532 -1.183594,1.5835 -0.567813,0.567813 -0.543562,0.87075 0,1.414313 l 1.330313,1.330562 c 0.390375,0.390375 1.023687,0.390375 1.414562,0 0.390125,-0.390375 0.390125,-1.023687 0,-1.414312 l -1.065438,-1.065438 c -0.0044,-0.0044 -0.01025,-0.0054 -0.01441,-0.0095 -0.195063,-0.195563 -0.195063,-0.512438 0,-0.707532 0.195812,-0.195062 0.512218,-0.195062 0.707531,0 0.0015,0.0017 0.0015,0.0032 0.0032,0.0049 l 0.0027,-0.0027 1.085874,1.085938 c 0.781,0.781218 0.781,2.047562 0,2.828094 z m -6.4145,-2.413813 c 0.276375,0 0.5,0.223875 0.5,0.4995 0,0.276375 -0.223625,0.50025 -0.5,0.50025 -0.275625,0 -0.4995,-0.223875 -0.4995,-0.50025 0,-0.275625 0.223875,-0.4995 0.4995,-0.4995 z"
       id="path2-3-3"
       style="stroke-width:0.03125;fill-opacity:1;fill:currentColor;"
       class="ColorScheme-Text" />
  </g>
</svg>
