<?xml version="1.0" encoding="UTF-8" standalone="no"?>
<svg
   width="5.8208332mm"
   height="5.8208332mm"
   viewBox="0 0 22 22"
   version="1.1"
   id="svg881"
   inkscape:version="1.1.2 (0a00cf5339, 2022-02-04)"
   sodipodi:docname="notification.svg"
   xmlns:inkscape="http://www.inkscape.org/namespaces/inkscape"
   xmlns:sodipodi="http://sodipodi.sourceforge.net/DTD/sodipodi-0.dtd"
   xmlns="http://www.w3.org/2000/svg"
   xmlns:svg="http://www.w3.org/2000/svg"
   xmlns:rdf="http://www.w3.org/1999/02/22-rdf-syntax-ns#"
   xmlns:cc="http://creativecommons.org/ns#"
   xmlns:dc="http://purl.org/dc/elements/1.1/">
  <style
     id="current-color-scheme"
     type="text/css">
.ColorScheme-Highlight { 
    color:#1a89a2;
}
.ColorScheme-Text { color:#eff0f1; }
</style>
  <defs
     id="defs875" />
  <sodipodi:namedview
     id="base"
     pagecolor="#ffffff"
     bordercolor="#000000"
     borderopacity="1"
     inkscape:pageopacity="0.0"
     inkscape:pageshadow="2"
     inkscape:zoom="5.6730816"
     inkscape:cx="8.5491455"
     inkscape:cy="-21.152525"
     inkscape:document-units="px"
     inkscape:current-layer="layer1"
     showgrid="false"
     inkscape:window-width="1920"
     inkscape:window-height="1013"
     inkscape:window-x="0"
     inkscape:window-y="0"
     inkscape:window-maximized="1"
     inkscape:lockguides="true"
     inkscape:document-rotation="0"
     inkscape:showpageshadow="true"
     inkscape:pagecheckerboard="0">
    <inkscape:grid
       type="xygrid"
       id="grid866"
       originx="0"
       originy="-40" />
  </sodipodi:namedview>
  <metadata
     id="metadata878">
    <rdf:RDF>
      <cc:Work
         rdf:about="">
        <dc:format>image/svg+xml</dc:format>
        <dc:type
           rdf:resource="http://purl.org/dc/dcmitype/StillImage" />
      </cc:Work>
    </rdf:RDF>
  </metadata>
  <g
     inkscape:label="Layer 1"
     inkscape:groupmode="layer"
     id="layer1"
     transform="translate(-209.82493,-726.24546)">
    <g
       id="notification-disabled">
      <path
         style="fill:none"
         inkscape:connector-curvature="0"
         d="m 209.82493,646.24546 h 22 v 22 h -22 z"
         id="path25" />
      <path
         d="m 227.16815,662.55842 h -0.53099 -3.98464 -1.85884 -1.85964 -3.98411 -0.53152 c -0.87988,0 -1.59348,-0.71387 -1.59348,-1.59378 0,-0.88042 0.7136,-1.59375 1.59348,-1.59375 0.29339,0 0.53152,-0.2376 0.53152,-0.53125 V 655.652 c 0,-1.6132 0.6542,-3.07391 1.71202,-4.13173 l 5.3e-4,7.7e-4 c 0.0965,-0.0994 0.22983,-0.16084 0.37898,-0.16084 0.29365,0 0.53099,0.23813 0.53099,0.53152 0,0.14915 -0.0615,0.28275 -0.16004,0.37898 l 7.6e-4,7.6e-4 c -0.86561,0.86488 -1.40074,2.06019 -1.40074,3.38054 v 3.45326 c 0,0.73359 -0.59507,1.32813 -1.32866,1.32813 h -0.26536 c -0.29364,0 -0.53098,0.23813 -0.53098,0.53125 0,0.29311 0.23734,0.53125 0.53098,0.53125 h 1.59402 4.78125 4.78098 1.59349 c 0.29365,0 0.53178,-0.23814 0.53178,-0.53125 0,-0.29312 -0.23813,-0.53125 -0.53178,-0.53125 h -0.26536 c -0.73359,0 -1.32813,-0.59454 -1.32813,-1.32813 V 655.652 c 0,-2.42618 -1.80827,-4.42511 -4.14962,-4.73456 0.003,-0.004 0.003,-0.007 -0.001,-0.008 -0.65474,-0.082 -1.16185,-0.64049 -1.16185,-1.31777 v -0.31542 c 0,-0.29339 0.23813,-0.53079 0.53178,-0.53079 0.29338,0 0.53098,0.2374 0.53098,0.53079 v 0.19921 c 0,0.19766 0.14371,0.36135 0.33177,0.39326 -0.0296,-0.005 -0.0568,-0.005 -0.0815,0 2.8565,0.38313 5.06218,2.82177 5.06218,5.78282 v 3.18764 c 0,0.29365 0.23814,0.53125 0.53099,0.53125 0.88064,0 1.59428,0.71333 1.59428,1.59375 0,0.87991 -0.7136,1.59378 -1.59428,1.59378 z M 218.66841,651.402 c -0.29338,0 -0.53151,-0.2376 -0.53151,-0.53101 0,-0.29365 0.23813,-0.53152 0.53151,-0.53152 0.29365,0 0.53099,0.23787 0.53099,0.53152 0,0.29338 -0.23734,0.53101 -0.53099,0.53101 z m 1.06277,12.21892 c 0.29338,0 0.53072,0.23813 0.53072,0.53072 0,0.29365 0.23813,0.53178 0.53178,0.53178 0.29338,0 0.53098,-0.23813 0.53098,-0.53178 0,-0.29259 0.23814,-0.53072 0.53152,-0.53072 0.29365,0 0.53098,0.23813 0.53098,0.53072 0,0.88094 -0.7136,1.59428 -1.59348,1.59428 -0.88065,0 -1.59428,-0.71334 -1.59428,-1.59428 0,-0.29259 0.23813,-0.53072 0.53178,-0.53072 z"
         id="path2-7"
         style="fill:#d35f5f;stroke-width:0.0332031" />
    </g>
    <g
       id="notification-progress-active"
       transform="translate(248.82493,685.24546)">
      <path
         style="fill:none"
         inkscape:connector-curvature="0"
         id="empty-rectangle"
         d="M 1,1 H 23 V 23 H 1 Z" />
      <circle
         id="circle-blue"
         cx="12"
         cy="12"
         r="8"
         class="ColorScheme-ButtonFocus  ColorScheme-Highlight"
         style="fill-opacity:1;fill:currentColor;" />
    </g>
    <g
       id="notification-progress-inactive"
       transform="translate(248.82493,725.24546)">
      <path
         style="fill:none"
         inkscape:connector-curvature="0"
         id="path10"
         d="M 1,1 H 23 V 23 H 1 Z" />
      <circle
         id="circle-transparent"
         cx="12"
         cy="12"
         r="8"
         class="ColorScheme-Text"
         style="fill-opacity:1;fill:currentColor;opacity:0.4;" />
    </g>
    <path
       inkscape:connector-curvature="0"
       id="expander-bottom"
       d="m 191.82493,709.24546 2,-2 2,2 z"
       class="ColorScheme-Text"
       style="fill-opacity:1;fill:currentColor;" />
    <path
       inkscape:connector-curvature="0"
       id="expander-top"
       d="m 191.82493,703.24546 2,2 2,-2 z"
       class="ColorScheme-Text"
       style="fill-opacity:1;fill:currentColor;" />
    <path
       inkscape:connector-curvature="0"
       id="expander-right"
       d="m 196.82493,704.24546 -2,2 2,2 z"
       class="ColorScheme-Text"
       style="fill-opacity:1;fill:currentColor;" />
    <path
       inkscape:connector-curvature="0"
       id="expander-left"
       d="m 190.82493,704.24546 2,2 -2,2 z"
       class="ColorScheme-Text"
       style="fill-opacity:1;fill:currentColor;" />
    <g
       id="notification-empty"
       transform="translate(248.82493,645.24546)">
      <path
         style="fill:none"
         inkscape:connector-curvature="0"
         id="path31"
         d="M 1,1 H 23 V 23 H 1 Z" />
      <path
         inkscape:connector-curvature="0"
         id="circle-outline"
         d="m 12,4 a 8,8 0 0 0 -8,8 8,8 0 0 0 8,8 8,8 0 0 0 8,-8 8,8 0 0 0 -8,-8 z m 0,1 a 7,7 0 0 1 7,7 7,7 0 0 1 -7,7 7,7 0 0 1 -7,-7 7,7 0 0 1 7,-7 z"
         class="ColorScheme-Text "
         style="fill-opacity:1;fill:currentColor;" />
    </g>
    <g
       id="notification-active">
      <path
         style="fill:none"
         inkscape:connector-curvature="0"
         d="m 209.82493,726.24546 h 22 v 22 h -22 z"
         id="path14" />
      <path
         d="m 227.16815,742.55842 h -0.53099 -3.98464 -1.85884 -1.85964 -3.98411 -0.53152 c -0.87988,0 -1.59348,-0.71387 -1.59348,-1.59378 0,-0.88042 0.7136,-1.59375 1.59348,-1.59375 0.29339,0 0.53152,-0.2376 0.53152,-0.53125 V 735.652 c 0,-1.6132 0.6542,-3.07391 1.71202,-4.13173 l 5.3e-4,7.7e-4 c 0.0965,-0.0993 0.22983,-0.16084 0.37898,-0.16084 0.29365,0 0.53099,0.23813 0.53099,0.53152 0,0.14915 -0.0615,0.28275 -0.16004,0.37898 l 7.6e-4,7.6e-4 c -0.86561,0.86488 -1.40074,2.06019 -1.40074,3.38054 v 3.45326 c 0,0.73359 -0.59507,1.32813 -1.32866,1.32813 h -0.26536 c -0.29364,0 -0.53098,0.23813 -0.53098,0.53125 0,0.29311 0.23734,0.53125 0.53098,0.53125 h 1.59402 4.78125 4.78098 1.59349 c 0.29365,0 0.53178,-0.23814 0.53178,-0.53125 0,-0.29312 -0.23813,-0.53125 -0.53178,-0.53125 h -0.26536 c -0.73359,0 -1.32813,-0.59454 -1.32813,-1.32813 V 735.652 c 0,-2.42618 -1.80827,-4.42511 -4.14962,-4.73456 0.003,-0.004 0.003,-0.007 -0.001,-0.008 -0.65474,-0.082 -1.16185,-0.64049 -1.16185,-1.31777 v -0.31542 c 0,-0.29339 0.23813,-0.53079 0.53178,-0.53079 0.29338,0 0.53098,0.2374 0.53098,0.53079 v 0.19921 c 0,0.19766 0.14371,0.36135 0.33177,0.39326 -0.0296,-0.005 -0.0568,-0.005 -0.0815,0 2.8565,0.38313 5.06218,2.82177 5.06218,5.78282 v 3.18764 c 0,0.29365 0.23814,0.53125 0.53099,0.53125 0.88064,0 1.59428,0.71333 1.59428,1.59375 0,0.87991 -0.7136,1.59378 -1.59428,1.59378 z M 218.66841,731.402 c -0.29338,0 -0.53151,-0.2376 -0.53151,-0.53101 0,-0.29365 0.23813,-0.53152 0.53151,-0.53152 0.29365,0 0.53099,0.23787 0.53099,0.53152 0,0.29338 -0.23734,0.53101 -0.53099,0.53101 z m 1.06277,12.21892 c 0.29338,0 0.53072,0.23813 0.53072,0.53072 0,0.29365 0.23813,0.53178 0.53178,0.53178 0.29338,0 0.53098,-0.23813 0.53098,-0.53178 0,-0.29259 0.23814,-0.53072 0.53152,-0.53072 0.29365,0 0.53098,0.23813 0.53098,0.53072 0,0.88094 -0.7136,1.59428 -1.59348,1.59428 -0.88065,0 -1.59428,-0.71334 -1.59428,-1.59428 0,-0.29259 0.23813,-0.53072 0.53178,-0.53072 z"
         id="path2"
         style="stroke-width:0.0332031;fill-opacity:1;fill:currentColor;"
         class="ColorScheme-Text" />
      <path
         fill-rule="evenodd"
         clip-rule="evenodd"
         d="m 222.24998,740.16592 v 0 0 l 1.1e-4,-10e-4 v 0 0 0 0 l -1.1e-4,10e-4 1.1e-4,-10e-4 v 0 0 z m -1.11068,-6.40027 c -0.22125,0 -0.40058,0.17934 -0.40058,0.40059 0,0.22119 -0.17937,0.40057 -0.40061,0.40057 -0.22121,0 -0.40058,-0.17938 -0.40058,-0.40057 0,-0.0278 0.003,-0.0548 0.008,-0.0806 0.0424,-0.62555 0.55747,-1.12118 1.19355,-1.12118 0.2212,0 0.40057,0.17937 0.40057,0.40057 0,0.22125 -0.17937,0.40061 -0.40057,0.40061 z m -0.70807,7.17081 c -0.44069,-0.11795 -0.7024,-0.57095 -0.58426,-1.01182 l 0.91363,-3.40987 c 0.0286,-0.10696 -0.035,-0.21671 -0.1416,-0.24548 -0.0552,-0.0146 -0.1109,-0.005 -0.15609,0.0226 -4.8e-4,3.7e-4 0.002,-0.002 0.001,-0.002 l -0.33095,0.19132 c -0.19171,0.11051 -0.43675,0.0448 -0.54728,-0.14669 -0.11073,-0.19168 -0.0448,-0.43659 0.14653,-0.54726 l 0.70844,-0.4088 c 0.18193,-0.10289 0.40211,-0.13769 0.61984,-0.0794 0.44069,0.11813 0.70241,0.57112 0.58427,1.01181 v 2.1e-4 l -0.91363,3.40968 v 0 c -0.0285,0.1068 0.035,0.21672 0.1416,0.24527 0.0552,0.0148 0.11111,0.005 0.15608,-0.0222 4.8e-4,-4.2e-4 -0.002,0.002 -0.001,0.002 l 0.82171,-0.47432 c 0.1915,-0.11073 0.43657,-0.0448 0.54709,0.14652 0.11073,0.19147 0.0448,0.43658 -0.14652,0.54727 l -1.19901,0.6922 c -0.18192,0.10268 -0.40216,0.13768 -0.61985,0.0792 z m 0.61985,-0.0792 z"
         id="path2-3"
         sodipodi:nodetypes="ccccccccsccccscsssscscsccccccccccccccsccccccccccc"
         style="stroke-width:0.0250365;fill-opacity:1;fill:currentColor;"
         class="ColorScheme-Text" />
    </g>
    <g
       id="notification-inactive">
      <path
         style="fill:none"
         inkscape:connector-curvature="0"
         d="m 209.82493,686.24546 h 22 v 22 h -22 z"
         id="path6" />
      <path
         d="m 227.16815,702.55842 h -0.53099 -3.98464 -1.85884 -1.85964 -3.98411 -0.53152 c -0.87988,0 -1.59348,-0.71387 -1.59348,-1.59378 0,-0.88042 0.7136,-1.59375 1.59348,-1.59375 0.29339,0 0.53152,-0.2376 0.53152,-0.53125 V 695.652 c 0,-1.6132 0.6542,-3.07391 1.71202,-4.13173 l 5.3e-4,7.7e-4 c 0.0965,-0.0994 0.22983,-0.16084 0.37898,-0.16084 0.29365,0 0.53099,0.23813 0.53099,0.53152 0,0.14915 -0.0615,0.28275 -0.16004,0.37898 l 7.6e-4,7.6e-4 c -0.86561,0.86488 -1.40074,2.06019 -1.40074,3.38054 v 3.45326 c 0,0.73359 -0.59507,1.32813 -1.32866,1.32813 h -0.26536 c -0.29364,0 -0.53098,0.23813 -0.53098,0.53125 0,0.29311 0.23734,0.53125 0.53098,0.53125 h 1.59402 4.78125 4.78098 1.59349 c 0.29365,0 0.53178,-0.23814 0.53178,-0.53125 0,-0.29312 -0.23813,-0.53125 -0.53178,-0.53125 h -0.26536 c -0.73359,0 -1.32813,-0.59454 -1.32813,-1.32813 V 695.652 c 0,-2.42618 -1.80827,-4.42511 -4.14962,-4.73456 0.003,-0.004 0.003,-0.007 -0.001,-0.008 -0.65474,-0.082 -1.16185,-0.64049 -1.16185,-1.31777 v -0.31542 c 0,-0.29339 0.23813,-0.53079 0.53178,-0.53079 0.29338,0 0.53098,0.2374 0.53098,0.53079 v 0.19921 c 0,0.19766 0.14371,0.36135 0.33177,0.39326 -0.0296,-0.005 -0.0568,-0.005 -0.0815,0 2.8565,0.38313 5.06218,2.82177 5.06218,5.78282 v 3.18764 c 0,0.29365 0.23814,0.53125 0.53099,0.53125 0.88064,0 1.59428,0.71333 1.59428,1.59375 0,0.87991 -0.7136,1.59378 -1.59428,1.59378 z M 218.66841,691.402 c -0.29338,0 -0.53151,-0.2376 -0.53151,-0.53101 0,-0.29365 0.23813,-0.53152 0.53151,-0.53152 0.29365,0 0.53099,0.23787 0.53099,0.53152 0,0.29338 -0.23734,0.53101 -0.53099,0.53101 z m 1.06277,12.21892 c 0.29338,0 0.53072,0.23813 0.53072,0.53072 0,0.29365 0.23813,0.53178 0.53178,0.53178 0.29338,0 0.53098,-0.23813 0.53098,-0.53178 0,-0.29259 0.23814,-0.53072 0.53152,-0.53072 0.29365,0 0.53098,0.23813 0.53098,0.53072 0,0.88094 -0.7136,1.59428 -1.59348,1.59428 -0.88065,0 -1.59428,-0.71334 -1.59428,-1.59428 0,-0.29259 0.23813,-0.53072 0.53178,-0.53072 z"
         id="path2-6"
         style="stroke-width:0.0332031;fill-opacity:1;fill:currentColor;"
         class="ColorScheme-Text" />
    </g>
  </g>
</svg>
