<?xml version="1.0" encoding="UTF-8" standalone="no"?>
<svg
   width="32"
   height="32"
   version="1.1"
   id="svg3204"
   sodipodi:docname="office.svg"
   inkscape:version="1.2.1 (9c6d41e410, 2022-07-14)"
   xmlns:inkscape="http://www.inkscape.org/namespaces/inkscape"
   xmlns:sodipodi="http://sodipodi.sourceforge.net/DTD/sodipodi-0.dtd"
   xmlns="http://www.w3.org/2000/svg"
   xmlns:svg="http://www.w3.org/2000/svg">
  <sodipodi:namedview
     id="namedview3206"
     pagecolor="#ffffff"
     bordercolor="#000000"
     borderopacity="1"
     inkscape:showpageshadow="2"
     inkscape:pageopacity="0"
     inkscape:pagecheckerboard="0"
     inkscape:deskcolor="#cccccc"
     showgrid="false"
     inkscape:zoom="10.429825"
     inkscape:cx="4.7939443"
     inkscape:cy="18.648443"
     inkscape:window-width="1920"
     inkscape:window-height="1002"
     inkscape:window-x="0"
     inkscape:window-y="0"
     inkscape:window-maximized="1"
     inkscape:current-layer="svg3204">
    <inkscape:grid
       type="xygrid"
       id="grid3410" />
  </sodipodi:namedview>
  <defs
     id="defs5">
    <style
       id="current-color-scheme"
       type="text/css">.ColorScheme-Background { color:#181818; }
.ColorScheme-ButtonBackground { color:#343434; }
.ColorScheme-Highlight { color:#4285f4; }
.ColorScheme-Text { color:#dfdfdf; }
.ColorScheme-ViewBackground { color:#242424; }
.ColorScheme-NegativeText { color:#f44336; }
.ColorScheme-PositiveText { color:#4caf50; }
.ColorScheme-NeutralText { color:#ff9800; }
</style>
  </defs>
  <g
     id="office-chart-pie">
    <rect
       style="opacity:0.00100002"
       width="32"
       height="32"
       x="0"
       y="0"
       id="rect3197" />
    <path
       fill-rule="evenodd"
       clip-rule="evenodd"
       d="m 27.171235,15.30552 -4.009639,3.068202 c -0.327375,0.27539 -0.54089,0.682921 -0.54089,1.144687 0,0.130359 0.01941,0.256734 0.05128,0.378281 0,0 1.549452,5.394138 1.580202,5.494872 0.05967,0.189328 0.09155,0.391078 0.09155,0.600562 0,1.109859 -0.90014,2.007796 -2.009765,2.007796 -0.431765,0 -0.830952,-0.134109 -1.160155,-0.366609 l -0.695437,-0.489937 v -7.5e-4 c -0.223032,-0.148688 -0.370969,-0.402094 -0.370969,-0.690609 0,-0.457735 0.370969,-0.828656 0.82875,-0.828656 0.197015,0 0.374624,0.07026 0.517827,0.18525 l 0.0029,-0.0037 0.21239,0.151594 c 0.08681,0.05381 0.186422,0.08789 0.295547,0.08789 0.310922,0 0.562125,-0.251203 0.562125,-0.562078 0,-0.05053 -0.0059,-0.09853 -0.01833,-0.145031 -0.004,-0.01462 -0.0048,-0.02419 -0.0048,-0.02892 l -1.483499,-5.140029 c -0.07069,-0.254156 -0.11025,-0.52439 -0.11025,-0.80264 0,-0.971531 0.462516,-1.836046 1.179187,-2.384577 0.0059,-0.0051 0.0077,-0.0077 0.0128,-0.01172 l 3.830576,-2.952467 c 0.138047,-0.102563 0.227063,-0.266578 0.227063,-0.451172 0,-0.310875 -0.251203,-0.562781 -0.562125,-0.562781 -0.03881,0 -0.05198,-0.0022 -0.04542,-0.0051 H 20.82591 c -1.288312,-0.02705 -2.377077,-0.859362 -2.77589,-2.017596 L 17.96321,10.73235 c -0.0165,-0.0465 -0.03408,-0.09666 -0.04833,-0.139125 L 16.462834,6.447696 c -0.02381,-0.06263 -0.05494,-0.123422 -0.105094,-0.173578 -0.194109,-0.194437 -0.51014,-0.194437 -0.704203,0 -0.05784,0.05784 -0.09853,0.126328 -0.121594,0.198844 -0.0029,0.0095 -0.004,0.004 -0.0059,0.0066 l -1.437374,4.101935 c -0.02419,0.06773 -0.05016,0.143906 -0.07617,0.220453 l -0.06259,0.176487 c -0.397359,1.158984 -1.486827,1.992374 -2.776264,2.019515 H 6.447756 c 0.0066,0.0029 -0.0069,0.0051 -0.04542,0.0051 -0.310171,0 -0.562499,0.251953 -0.562499,0.562781 0,0.184593 0.08897,0.348609 0.227062,0.451172 l 3.830951,2.952467 c 0.0048,0.004 0.0066,0.0066 0.01247,0.01172 0.716672,0.548531 1.179562,1.413093 1.179562,2.384577 0,0.278296 -0.03956,0.548484 -0.11025,0.80264 l -1.483546,5.140029 c 0,0.0048 -0.0011,0.0143 -0.0051,0.02892 -0.01134,0.0465 -0.01833,0.0945 -0.01833,0.145031 0,0.310875 0.252328,0.562078 0.562125,0.562078 0.108375,0 0.208734,-0.03408 0.294797,-0.08714 l 3.917717,-2.793936 c 0.0018,-0.0011 0.0037,-0.0018 0.0059,-0.0029 0.48375,-0.346735 1.07775,-0.552563 1.718249,-0.558422 0.0077,0 0.01538,-0.0018 0.02306,-0.0018 0.0011,0 0.0018,0 0.0029,0 0.0011,0 0.0018,0 0.0029,0 v 0.0011 c 0.42811,0.0037 0.772688,0.349734 0.772688,0.777422 0,0.428765 -0.344625,0.774421 -0.772688,0.778452 v 0.0011 c -0.156375,0 -0.299578,0.04908 -0.420046,0.13036 l -4.757061,3.346545 c -0.326672,0.23175 -0.726562,0.364781 -1.157249,0.364781 -1.11,0 -2.01014,-0.897937 -2.01014,-2.007843 0,-0.209484 0.03188,-0.411187 0.09192,-0.600562 0.03075,-0.100687 1.580202,-5.494872 1.580202,-5.494872 0.03187,-0.121594 0.05091,-0.247922 0.05091,-0.378281 0,-0.461766 -0.21314,-0.871125 -0.54164,-1.145765 L 4.824723,15.301529 c -0.502078,-0.38925 -0.824718,-0.993844 -0.824718,-1.677468 0,-1.171781 0.949593,-2.12128 2.121093,-2.12128 0.0029,0 0.0048,0 0.0077,0 l 4.915638,-0.0048 c 0.620015,-0.02489 1.141499,-0.422906 1.345452,-0.97439 0,0 1.836188,-5.050357 1.935797,-5.336342 0.08569,-0.24314 0.225937,-0.472359 0.421125,-0.667171 0.692484,-0.693516 1.81678,-0.693516 2.510014,0 0.19153,0.190031 0.329578,0.41414 0.41564,0.652921 0.09267,0.258891 1.937625,5.35167 1.937625,5.35167 0.205828,0.552187 0.727311,0.948374 1.345451,0.973312 l 4.915263,0.0048 c 0.0029,0 0.0051,0 0.0081,0 1.171499,0 2.121092,0.949499 2.121092,2.12128 4.7e-5,0.685499 -0.325499,1.292952 -0.828702,1.681499 z m -8.546621,8.946089 c 0.414562,0 0.750749,0.336188 0.750749,0.750703 0,0.414141 -0.336187,0.749531 -0.750749,0.749531 -0.414187,0 -0.74925,-0.33539 -0.74925,-0.749531 0,-0.414515 0.335063,-0.750703 0.74925,-0.750703 z"
       id="path184"
       style="stroke-width:0.046875;fill-opacity:1;fill:currentColor;"
       class="ColorScheme-Text" />
  </g>
</svg>
