<?xml version="1.0" encoding="UTF-8" standalone="no"?>
<svg
   sodipodi:docname="phone.svg"
   inkscape:version="1.1.2 (0a00cf5339, 2022-02-04)"
   id="svg"
   viewBox="0 0 32.000015 31.999973"
   height="31.999973"
   width="32.000015"
   version="1.1"
   xmlns:inkscape="http://www.inkscape.org/namespaces/inkscape"
   xmlns:sodipodi="http://sodipodi.sourceforge.net/DTD/sodipodi-0.dtd"
   xmlns="http://www.w3.org/2000/svg"
   xmlns:svg="http://www.w3.org/2000/svg"
   xmlns:rdf="http://www.w3.org/1999/02/22-rdf-syntax-ns#"
   xmlns:cc="http://creativecommons.org/ns#"
   xmlns:dc="http://purl.org/dc/elements/1.1/">
  <style
     id="current-color-scheme"
     type="text/css">.ColorScheme-Text { color:#eff0f1; }
</style>
  <sodipodi:namedview
     inkscape:document-rotation="0"
     fit-margin-bottom="0"
     fit-margin-right="0"
     fit-margin-left="0"
     fit-margin-top="0"
     inkscape:snap-bbox-midpoints="true"
     inkscape:snap-bbox="true"
     inkscape:current-layer="svg"
     inkscape:window-maximized="1"
     inkscape:window-y="0"
     inkscape:window-x="0"
     inkscape:cy="52.425783"
     inkscape:cx="41.958219"
     inkscape:zoom="5.684226"
     showgrid="false"
     id="namedview10"
     inkscape:window-height="1013"
     inkscape:window-width="1920"
     inkscape:pageshadow="2"
     inkscape:pageopacity="0"
     guidetolerance="10"
     gridtolerance="10"
     objecttolerance="10"
     borderopacity="1"
     bordercolor="#000000"
     pagecolor="#ffffff"
     inkscape:pagecheckerboard="0"
     inkscape:lockguides="true">
    <inkscape:grid
       spacingy="1.0666667"
       spacingx="1.0666667"
       originy="-27.733351"
       originx="-52.266646"
       empopacity="0.07843137"
       empcolor="#0000ff"
       opacity="0.03921569"
       color="#0000ff"
       snapvisiblegridlinesonly="true"
       enabled="true"
       visible="true"
       empspacing="4"
       id="grid2987"
       type="xygrid" />
  </sodipodi:namedview>
  <defs
     id="defs81">
    <style
       id="current-color-scheme"
       type="text/css" />
  </defs>
  <metadata
     id="metadata34">
    <rdf:RDF>
      <cc:Work
         rdf:about="">
        <dc:format>image/svg+xml</dc:format>
        <dc:type
           rdf:resource="http://purl.org/dc/dcmitype/StillImage" />
      </cc:Work>
    </rdf:RDF>
  </metadata>
  <g
     id="phone">
    <rect
       width="32.000015"
       height="31.999973"
       rx="0"
       ry="0"
       x="-2.9711913e-07"
       y="-3.8330079e-08"
       id="rect3860"
       style="opacity:0.01;fill:#eff0f1;fill-opacity:0;stroke:none" />
    <path
       d="m 16.749999,25.000001 c 0,0.414187 -0.33581,0.75 -0.75,0.75 -0.41419,0 -0.749999,-0.335813 -0.749999,-0.75 0,-0.414187 0.335809,-0.75 0.749999,-0.75 0.41419,0 0.75,0.335813 0.75,0.75 z m 3.75,3 H 11.5 c -1.656938,0 -3,-1.34325 -3,-3 v -9.75 c 0,-0.414187 0.335813,-0.75 0.75,-0.75 0.414187,0 0.75,0.335813 0.75,0.75 v 9.75 c 0,0.828375 0.671625,1.5 1.5,1.5 h 8.999999 c 0.82837,0 1.5,-0.671625 1.5,-1.5 v -0.75 c 0,-0.414187 -0.33581,-0.75 -0.75,-0.75 H 12.25 c -0.414187,0 -0.75,-0.335813 -0.75,-0.75 0,-0.414187 0.335813,-0.75 0.75,-0.75 h 9.374999 c 0.90713,0 1.66331,0.644156 1.83727,1.5 h 0.03773 v 1.5 c 0,1.65675 -1.34325,3 -3,3 z M 10,12.250001 c 0,0.414187 -0.335813,0.75 -0.75,0.75 -0.414187,0 -0.75,-0.335813 -0.75,-0.75 0,-0.414188 0.335813,-0.75 0.75,-0.75 0.414187,0 0.75,0.335812 0.75,0.75 z m 12.749999,8.25 c -0.41419,0 -0.75,-0.335813 -0.75,-0.75 V 7 c 0,-0.828375 -0.67163,-1.5 -1.5,-1.5 H 11.5 C 10.671625,5.5 10,6.171625 10,7 v 0.75 c 0,0.4141875 0.335813,0.75 0.75,0.75 h 8.999999 c 0.41419,0 0.75,0.3358126 0.75,0.75 0,0.414188 -0.33581,0.75 -0.75,0.75 H 10.375 C 9.339531,10 8.5,9.160656 8.5,8.125 V 7 c 0,-1.65675 1.343062,-3 3,-3 h 8.999999 c 1.65675,0 3,1.34325 3,3 v 12.750001 c 0,0.414187 -0.33581,0.75 -0.75,0.75 z"
       id="path2"
       style="stroke-width:0.0468749;fill-opacity:1;fill:currentColor;"
       class="ColorScheme-Text" />
  </g>
  <g
     id="22-22-phone"
     transform="translate(7.4624763,73.581209)">
    <rect
       style="fill:#000000;fill-opacity:0;stroke:none"
       id="rect3841"
       width="22"
       height="22"
       x="-2.900001"
       y="-34.799999" />
    <path
       d="m 8.637998,-17.800001 c 0,0.276125 -0.223873,0.5 -0.5,0.5 -0.276127,0 -0.499999,-0.223875 -0.499999,-0.5 0,-0.276125 0.223872,-0.5 0.499999,-0.5 0.276127,0 0.5,0.223875 0.5,0.5 z m 2.5,2 H 5.137999 c -1.104625,0 -2,-0.8955 -2,-2 v -6.5 c 0,-0.276124 0.223875,-0.5 0.5,-0.5 0.276125,0 0.5,0.223876 0.5,0.5 v 6.5 c 0,0.55225 0.44775,1 1,1 h 5.999999 c 0.552247,0 1,-0.44775 1,-1 v -0.5 c 0,-0.276125 -0.223873,-0.5 -0.5,-0.5 H 5.637999 c -0.276125,0 -0.5,-0.223875 -0.5,-0.5 0,-0.276125 0.223875,-0.5 0.5,-0.5 h 6.249999 c 0.604753,0 1.108873,0.429437 1.224847,1 h 0.02515 v 1 c 0,1.1045 -0.8955,2 -2,2 z m -6.999999,-10.5 c 0,0.276125 -0.223875,0.5 -0.5,0.5 -0.276125,0 -0.5,-0.223875 -0.5,-0.5 0,-0.276125 0.223875,-0.5 0.5,-0.5 0.276125,0 0.5,0.223875 0.5,0.5 z m 8.499999,5.5 c -0.276127,0 -0.5,-0.223875 -0.5,-0.5 v -8.5 c 0,-0.55225 -0.447753,-1 -1,-1 H 5.137999 c -0.55225,0 -1,0.44775 -1,1 v 0.5 c 0,0.276125 0.223875,0.5 0.5,0.5 h 5.999999 c 0.276127,0 0.5,0.223875 0.5,0.5 0,0.276125 -0.223873,0.5 -0.5,0.5 H 4.387999 c -0.690313,0 -1.25,-0.559563 -1.25,-1.25 v -0.75 c 0,-1.1045 0.895375,-2 2,-2 h 5.999999 c 1.1045,0 2,0.8955 2,2 v 8.5 c 0,0.276125 -0.223873,0.5 -0.5,0.5 z"
       id="path2-3"
       style="stroke-width:0.0312499;fill-opacity:1;fill:currentColor;"
       class="ColorScheme-Text" />
  </g>
  <g
     id="16-16-phone"
     transform="translate(7.4624763,73.581209)">
    <rect
       style="fill:#566060;fill-opacity:0;stroke:none"
       id="rect3889"
       width="16"
       height="16"
       x="4.7402793e-13"
       y="-4.2628317e-13"
       ry="2.9278411e-07" />
    <path
       d="m 8.374999,12.5 c 0,0.207094 -0.167904,0.375 -0.375,0.375 C 7.792904,12.875 7.625,12.707094 7.625,12.5 c 0,-0.207094 0.167904,-0.375 0.374999,-0.375 0.207096,0 0.375,0.167906 0.375,0.375 z M 10.25,14 H 5.75 C 4.921531,14 4.25,13.328375 4.25,12.5 V 7.625 C 4.25,7.417907 4.417906,7.25 4.625,7.25 4.832094,7.25 5,7.417907 5,7.625 V 12.5 c 0,0.414187 0.335812,0.75 0.75,0.75 h 4.5 C 10.664185,13.25 11,12.914187 11,12.5 V 12.125 C 11,11.917906 10.832095,11.75 10.625,11.75 h -4.5 C 5.917906,11.75 5.75,11.582094 5.75,11.375 5.75,11.167906 5.917906,11 6.125,11 h 4.6875 c 0.453564,0 0.831654,0.322078 0.918635,0.75 h 0.01886 v 0.75 c 0,0.828375 -0.671625,1.5 -1.5,1.5 z M 5,6.125 C 5,6.3320937 4.832094,6.5 4.625,6.5 4.417906,6.5 4.25,6.3320937 4.25,6.125 4.25,5.9179063 4.417906,5.75 4.625,5.75 4.832094,5.75 5,5.9179063 5,6.125 Z m 6.375,4.125 C 11.167904,10.25 11,10.082094 11,9.875 V 3.5 C 11,3.0858125 10.664185,2.75 10.25,2.75 H 5.75 C 5.335812,2.75 5,3.0858125 5,3.5 V 3.875 C 5,4.0820938 5.167906,4.25 5.375,4.25 H 9.8749993 C 10.082095,4.25 10.25,4.4179063 10.25,4.625 10.25,4.8320938 10.082095,5 9.8749993,5 H 5.1875 C 4.669765,5 4.25,4.5803277 4.25,4.0625 V 3.5 C 4.25,2.671625 4.921531,2 5.75,2 h 4.5 c 0.828375,0 1.5,0.671625 1.5,1.5 v 6.375 c 0,0.207094 -0.167905,0.375 -0.375,0.375 z"
       id="path2-3-6"
       style="stroke-width:0.0234374;fill-opacity:1;fill:currentColor;"
       class="ColorScheme-Text" />
  </g>
  <g
     id="g4312"
     transform="translate(59.562473,73.281209)">
    <g
       id="phone-battery"
       transform="translate(-55.999998,-33.500001)">
      <rect
         style="opacity:0.01;fill:#eff0f1;fill-opacity:0;stroke:none"
         id="rect3038"
         y="-39.781208"
         x="48.437527"
         ry="0"
         rx="0"
         height="31.999973"
         width="32.000015" />
    </g>
    <path
       sodipodi:nodetypes="ccccccc"
       inkscape:connector-curvature="0"
       id="path4444"
       d="m 9.669567,-63.026209 -4.1820383,6.273116 H 7.57849 v 5.227693 l 4.182039,-6.273231 H 9.669567 Z"
       style="stroke-width:0.958402;stroke:none;fill-rule:evenodd;fill-opacity:1;fill:currentColor;"
       class="ColorScheme-Text" />
    <path
       d="m 9.287528,-48.281208 c 0,0.414187 -0.33581,0.75 -0.75,0.75 -0.41419,0 -0.749999,-0.335813 -0.749999,-0.75 0,-0.414187 0.335809,-0.75 0.749999,-0.75 0.41419,0 0.75,0.335813 0.75,0.75 z m 3.750001,3 H 4.0375287 c -1.656938,0 -3,-1.34325 -3,-3 v -9.75 c 0,-0.414187 0.335813,-0.75 0.75,-0.75 0.414187,0 0.75,0.335813 0.75,0.75 v 9.75 c 0,0.828375 0.671625,1.5 1.5,1.5 h 9.0000003 c 0.82837,0 1.5,-0.671625 1.5,-1.5 v -0.75 c 0,-0.414187 -0.33581,-0.75 -0.75,-0.75 H 4.7875287 c -0.414187,0 -0.75,-0.335813 -0.75,-0.75 0,-0.414187 0.335813,-0.75 0.75,-0.75 h 9.3750003 c 0.90713,0 1.66331,0.644156 1.83727,1.5 h 0.0377 v 1.5 c 0,1.65675 -1.34325,3 -3,3 z m -10.5000003,-15.75 c 0,0.414187 -0.335813,0.75 -0.75,0.75 -0.414187,0 -0.75,-0.335813 -0.75,-0.75 0,-0.414188 0.335813,-0.75 0.75,-0.75 0.414187,0 0.75,0.335812 0.75,0.75 z m 12.7500003,8.25 c -0.41419,0 -0.75,-0.335813 -0.75,-0.75 v -12.750001 c 0,-0.828375 -0.67163,-1.5 -1.5,-1.5 H 4.0375287 c -0.828375,0 -1.5,0.671625 -1.5,1.5 v 0.75 c 0,0.414187 0.335813,0.75 0.75,0.75 h 9.0000003 c 0.41419,0 0.75,0.335813 0.75,0.75 0,0.414188 -0.33581,0.75 -0.75,0.75 H 2.9125287 c -1.035469,0 -1.875,-0.839344 -1.875,-1.875 v -1.125 c 0,-1.65675 1.343062,-3 3,-3 h 9.0000003 c 1.65675,0 3,1.34325 3,3 v 12.750001 c 0,0.414187 -0.33581,0.75 -0.75,0.75 z"
       id="path2-7"
       style="stroke-width:0.0468749;fill-opacity:1;fill:currentColor;"
       class="ColorScheme-Text" />
  </g>
  <g
     id="22-22-phone-battery"
     transform="translate(59.562473,73.281209)">
    <rect
       y="-34.5"
       x="-2.999994"
       height="22"
       width="22"
       id="rect3054"
       style="fill:#000000;fill-opacity:0;stroke:none" />
    <path
       class="ColorScheme-Text"
       style="stroke-width:0.7;stroke:none;fill-rule:evenodd;fill-opacity:1;fill:currentColor;"
       d="m 8.745415,-26.850001 -2.545409,3.818149 h 1.272668 v 3.181851 l 2.545411,-3.818222 h -1.27267 z"
       id="path3072"
       inkscape:connector-curvature="0"
       sodipodi:nodetypes="ccccccc" />
    <path
       d="m 8.704213,-17.400001 c 0,0.276125 -0.223873,0.5 -0.5,0.5 -0.276127,0 -0.499999,-0.223875 -0.499999,-0.5 0,-0.276125 0.223872,-0.5 0.499999,-0.5 0.276127,0 0.5,0.223875 0.5,0.5 z m 2.5,2 H 5.2042141 c -1.104625,0 -2,-0.8955 -2,-2 v -6.5 c 0,-0.276124 0.223875,-0.5 0.5,-0.5 0.276125,0 0.5,0.223876 0.5,0.5 v 6.5 c 0,0.55225 0.44775,1 1,1 h 5.9999989 c 0.552247,0 1,-0.44775 1,-1 v -0.5 c 0,-0.276125 -0.223873,-0.5 -0.5,-0.5 H 5.7042141 c -0.276125,0 -0.5,-0.223875 -0.5,-0.5 0,-0.276125 0.223875,-0.5 0.5,-0.5 h 6.2499989 c 0.604753,0 1.108873,0.429437 1.224847,1 h 0.02515 v 1 c 0,1.1045 -0.8955,2 -2,2 z m -6.9999989,-10.5 c 0,0.276125 -0.223875,0.5 -0.5,0.5 -0.276125,0 -0.5,-0.223875 -0.5,-0.5 0,-0.276125 0.223875,-0.5 0.5,-0.5 0.276125,0 0.5,0.223875 0.5,0.5 z m 8.4999989,5.5 c -0.276127,0 -0.5,-0.223875 -0.5,-0.5 v -8.5 c 0,-0.55225 -0.447753,-1 -1,-1 H 5.2042141 c -0.55225,0 -1,0.44775 -1,1 v 0.5 c 0,0.276125 0.223875,0.5 0.5,0.5 h 5.9999989 c 0.276127,0 0.5,0.223875 0.5,0.5 0,0.276125 -0.223873,0.5 -0.5,0.5 H 4.4542141 c -0.690313,0 -1.25,-0.559563 -1.25,-1.25 v -0.75 c 0,-1.1045 0.895375,-2 2,-2 h 5.9999989 c 1.1045,0 2,0.8955 2,2 v 8.5 c 0,0.276125 -0.223873,0.5 -0.5,0.5 z"
       id="path2-3-5"
       style="stroke-width:0.0312499;fill-opacity:1;fill:currentColor;"
       class="ColorScheme-Text" />
  </g>
  <g
     id="16-16-phone-battery"
     transform="translate(59.562473,73.281209)">
    <rect
       ry="2.9278411e-07"
       y="-4.2628317e-13"
       x="4.7402793e-13"
       height="16"
       width="16"
       id="rect3060"
       style="fill:#566060;fill-opacity:0;stroke:none" />
    <path
       sodipodi:nodetypes="ccccccc"
       inkscape:connector-curvature="0"
       id="path3863"
       d="M 8.5000057,5.25 6.5000396,8.2499749 H 7.4999938 V 10.75 L 9.4999605,7.7499712 H 8.5000057 Z"
       style="stroke-width:0.6875;stroke:none;fill-rule:evenodd;fill-opacity:1;fill:currentColor;"
       class="ColorScheme-Text" />
    <path
       d="m 8.374999,12.5 c 0,0.207094 -0.167904,0.375 -0.375,0.375 C 7.792904,12.875 7.625,12.707094 7.625,12.5 c 0,-0.207094 0.167904,-0.375 0.374999,-0.375 0.207096,0 0.375,0.167906 0.375,0.375 z M 10.25,14 H 5.75 C 4.921531,14 4.25,13.328375 4.25,12.5 V 7.6249998 c 0,-0.207093 0.167906,-0.375 0.375,-0.375 0.207094,0 0.375,0.167907 0.375,0.375 V 12.5 c 0,0.414187 0.335812,0.75 0.75,0.75 h 4.5 C 10.664185,13.25 11,12.914187 11,12.5 V 12.125 C 11,11.917906 10.832095,11.75 10.625,11.75 h -4.5 C 5.917906,11.75 5.75,11.582094 5.75,11.375 5.75,11.167906 5.917906,11 6.125,11 h 4.6875 c 0.453564,0 0.831654,0.322078 0.918635,0.75 h 0.01886 v 0.75 c 0,0.828375 -0.671625,1.5 -1.5,1.5 z M 5,6.1249998 c 0,0.2070937 -0.167906,0.375 -0.375,0.375 -0.207094,0 -0.375,-0.1679063 -0.375,-0.375 0,-0.2070937 0.167906,-0.375 0.375,-0.375 0.207094,0 0.375,0.1679063 0.375,0.375 z M 11.375,10.25 C 11.167904,10.25 11,10.082094 11,9.8750001 V 3.4999998 c 0,-0.4141875 -0.335815,-0.75 -0.75,-0.75 h -4.5 c -0.414188,0 -0.75,0.3358125 -0.75,0.75 v 0.375 c 0,0.2070938 0.167906,0.375 0.375,0.375 h 4.499999 c 0.207096,0 0.375001,0.1679063 0.375001,0.375 0,0.2070938 -0.167905,0.375 -0.375001,0.375 H 5.1875 c -0.517735,0 -0.9375,-0.4196723 -0.9375,-0.9375 v -0.5625 c 0,-0.828375 0.671531,-1.5 1.5,-1.5 h 4.5 c 0.828375,0 1.5,0.671625 1.5,1.5 V 9.8750001 C 11.75,10.082094 11.582095,10.25 11.375,10.25 Z"
       id="path2-3-6-3"
       style="stroke-width:0.0234374;fill-opacity:1;fill:currentColor;"
       class="ColorScheme-Text" />
  </g>
</svg>
