<?xml version="1.0" encoding="UTF-8" standalone="no"?>
<svg
   width="32"
   height="32"
   version="1.1"
   id="svg12"
   sodipodi:docname="plasmavault_error.svg"
   inkscape:version="1.1.2 (0a00cf5339, 2022-02-04)"
   xmlns:inkscape="http://www.inkscape.org/namespaces/inkscape"
   xmlns:sodipodi="http://sodipodi.sourceforge.net/DTD/sodipodi-0.dtd"
   xmlns="http://www.w3.org/2000/svg"
   xmlns:svg="http://www.w3.org/2000/svg"
   xmlns:rdf="http://www.w3.org/1999/02/22-rdf-syntax-ns#"
   xmlns:cc="http://creativecommons.org/ns#"
   xmlns:dc="http://purl.org/dc/elements/1.1/">
  <g
     id="22-22-plasmavault_error"
     transform="translate(32,10)">
    <rect
       style="opacity:0.00100002"
       width="22"
       height="22"
       x="0"
       y="0"
       id="rect2" />
    <path
       fill-rule="evenodd"
       clip-rule="evenodd"
       d="m 4.8122554,15.307877 c 0.3109211,0 0.5627802,0.275236 0.5627802,0.615396 0,0.339545 -0.2518937,0.615395 -0.5627802,0.615395 -0.3106424,0 -0.5624999,-0.27585 -0.5624999,-0.615395 0,-0.34016 0.2518575,-0.615396 0.5624999,-0.615396 z M 17.750004,19.000289 H 6.4994729 4.2497555 C 3.0069106,19.000289 2,17.897461 2,16.538668 V 7.9232041 C 2,6.6112574 2.937125,5.5427381 4.1195709,5.4685057 L 4.9394144,3.8900162 C 5.2096612,3.3699297 5.9059666,3 6.5274935,3 H 9.9025282 C 10.523529,3 11.222959,3.3698917 11.49761,3.8900551 l 0.828901,1.5712585 h 4.860954 c 0.310363,0 0.562539,0.2752359 0.562539,0.6153961 0,0.3401601 -0.252176,0.6153962 -0.562539,0.6153962 h -5.062538 v 0 c -0.08143,0 -0.193349,-0.025581 -0.292774,-0.062501 C 11.590555,6.5398749 11.363024,6.3468302 11.24111,6.1028648 L 10.602911,4.8242643 C 10.429868,4.4774878 9.9896069,4.2302143 9.5976563,4.2302143 H 6.7615295 c -0.3913961,0 -0.8300055,0.2473125 -1.0005826,0.5940498 L 5.1327751,6.1028642 C 5.0157744,6.3417525 4.8610164,6.5306789 4.620267,6.6257197 4.4842811,6.6794106 4.3583163,6.6921409 4.2497555,6.6921409 v 0 c -0.5303683,0 -1.1252825,0.6887434 -1.1252825,1.5384898 v 8.0003373 c 0,0.807092 0.5704804,1.460949 1.2922733,1.525873 0.037087,0.0084 0.075273,0.012 0.1139767,0.012 h 0.022244 2.2280282 0.8437501 9.8439727 c 0.776769,0 1.405717,-0.688127 1.405717,-1.537873 v -5.539066 c 0,-0.8491691 -0.628985,-1.5384896 -1.405717,-1.5384896 H 7.3437815 6.7810031 6.2185024 c -0.4658195,0 -0.8434688,0.4131615 -0.8434688,0.9237086 v 0.614781 0.615242 2.153884 c 0,0.3402 -0.2518947,0.616051 -0.5627802,0.616051 -0.3106419,0 -0.5625009,-0.275851 -0.5625009,-0.616051 v -3.076516 c 0,-0.06912 0.00416,-0.138542 0.00966,-0.206119 -0.00203,-0.03485 -0.00966,-0.06669 -0.00966,-0.101272 V 9.7691196 c 0,-1.0195565 0.7552962,-1.8459175 1.6877809,-1.8459175 h 0.280969 c 0.031582,0 0.06152,0.00836 0.093094,0.0105 0.06209,-0.006 0.124136,-0.0105 0.1878744,-0.0105 H 17.749999 c 1.242,0 2.250001,1.101596 2.250001,2.4613139 v 6.15415 c 5e-6,1.358795 -1.007996,2.461623 -2.249996,2.461623 z"
       id="path2-3"
       style="fill:#d35f5f;fill-opacity:1;stroke-width:0.0367722" />
    <path
       fill-rule="evenodd"
       clip-rule="evenodd"
       d="m 13.860676,11.083306 c 0,0.137939 -0.107804,0.250129 -0.241053,0.250129 -0.133001,0 -0.241059,-0.11219 -0.241059,-0.250129 0,-0.138191 0.108058,-0.250007 0.241059,-0.250007 0.133249,0 0.241053,0.111816 0.241053,0.250007 z m -0.919975,3.247732 c -0.0101,0.0013 -0.02215,0.0022 -0.03767,0.0022 -0.24906,0 -0.474474,0.10619 -0.635725,0.277209 -0.0029,0.0028 -0.0051,0.0045 -0.0078,0.0071 l -0.260839,0.270396 c -0.04119,0.04492 -0.06687,0.105111 -0.06687,0.171877 v 0.148565 c 0,0.345101 -0.269775,0.625138 -0.602694,0.625138 h -0.180846 c -0.09968,0 -0.180849,0.08373 -0.180849,0.187504 v 0.187502 c 0,0.345085 -0.269776,0.624747 -0.602408,0.624747 h -0.143112 c -0.06358,0 -0.12088,0.02637 -0.16432,0.06813 l -0.1341227,0.139008 c -0.1113592,0.115487 -0.2443559,0.192628 -0.384434,0.239989 -0.082986,0.03393 -0.1699553,0.05299 -0.2588354,0.05299 h -0.036878 c -0.00213,2.5e-4 -0.00317,2.5e-4 -0.0054,0 h -0.680651 c -0.092409,0 -0.1816333,-0.01379 -0.2662493,-0.03893 -0.00243,-8.68e-4 -0.0048,-0.0015 -0.00753,-0.0023 -0.0052,-0.0017 -0.010001,-0.0041 -0.015189,-0.0059 -0.086979,-0.03369 -0.1693826,-0.08606 -0.2397155,-0.158691 -0.2595435,-0.269285 -0.2595435,-0.705826 0,-0.975095 0.00357,-0.0037 0.00397,-0.0065 0.00693,-0.0099 L 11.038921,13.02811 c 0.09381,-0.0973 0.246239,-0.0973 0.340047,0 0.09369,0.09753 0.09369,0.25538 0,0.352538 l -3.0118903,3.123559 c -0.067094,0.07703 -0.066043,0.195066 0.0053,0.269288 0.018128,0.01857 0.039544,0.03113 0.061446,0.04066 0.03943,0.01123 0.080277,0.01905 0.1234739,0.01905 h 0.7231102 c 0.05615,0 0.1072313,-0.01477 0.1520705,-0.04089 -0.00183,-8.67e-4 -0.00357,-0.0017 -0.0054,-0.0025 0.056036,-0.02429 0.1084072,-0.05969 0.153849,-0.106691 l 0.1991519,-0.206636 c 0.086757,-0.08692 0.2043383,-0.140986 0.3346988,-0.140986 0.01272,0 0.02167,-0.0013 0.03274,-0.0019 h 0.09735 c 0.132876,0 0.241057,-0.11205 0.241057,-0.24999 V 15.95863 c 0,-0.103769 0.02647,-0.20019 0.06965,-0.286254 l 0.257073,-0.266553 c 0.08298,-0.04467 0.176029,-0.07239 0.275726,-0.07239 h 0.120519 c 0.133253,0 0.241181,-0.111814 0.241181,-0.250004 V 14.95057 c 0,-0.134768 0.0524,-0.256727 0.136252,-0.346931 l 0.34604,-0.359116 c 0.248125,-0.253657 0.589346,-0.410899 0.966246,-0.410899 0.03364,0 0.06425,-0.0019 0.09204,-0.005 1.020985,-0.05103 1.834675,-0.923719 1.834675,-1.995256 0,-1.104381 -0.863835,-2.0000227 -1.928586,-2.0000227 -1.030041,0 -1.86885,0.8375327 -1.923527,1.8912567 -0.0034,0.03003 -0.0056,0.06275 -0.0056,0.09925 0,0.390507 -0.151602,0.744154 -0.3962,1.001471 l -2.1083332,2.186361 c -0.042372,0.03809 -0.097001,0.06201 -0.1576165,0.06201 -0.1334629,0 -0.2418852,-0.112424 -0.2418852,-0.250974 0,-0.07508 0.032488,-0.141485 0.082744,-0.187503 l 2.0677179,-2.144305 c 0.0017,-0.0017 0.0026,-0.0031 0.0045,-0.005 0.164789,-0.167361 0.267302,-0.400881 0.267302,-0.659309 0,-0.01599 8.39e-4,-0.02857 0.0022,-0.03893 0.0238,-1.359289 1.091951,-2.4541561 2.408719,-2.4541561 1.330982,0 2.410456,1.1192711 2.410456,2.4997801 -5.8e-5,1.365371 -1.055984,2.473188 -2.366508,2.497845 z M 7.8339158,15.83349 c -0.1332374,0 -0.2410571,-0.11219 -0.2410571,-0.250131 0,-0.13819 0.1078197,-0.250005 0.2410571,-0.250005 0.1330105,0 0.2412372,0.111815 0.2412372,0.250005 0,0.137941 -0.1082267,0.250131 -0.2412372,0.250131 z"
       id="path2-36-6"
       style="fill:#d35f5f;fill-opacity:1;stroke-width:0.0153436" />
  </g>
  <metadata
     id="metadata18">
    <rdf:RDF>
      <cc:Work
         rdf:about="">
        <dc:format>image/svg+xml</dc:format>
        <dc:type
           rdf:resource="http://purl.org/dc/dcmitype/StillImage" />
      </cc:Work>
    </rdf:RDF>
  </metadata>
  <defs
     id="defs16" />
  <sodipodi:namedview
     pagecolor="#ffffff"
     bordercolor="#666666"
     borderopacity="1"
     objecttolerance="10"
     gridtolerance="10"
     guidetolerance="10"
     inkscape:pageopacity="0"
     inkscape:pageshadow="2"
     inkscape:window-width="1920"
     inkscape:window-height="1013"
     id="namedview14"
     showgrid="false"
     inkscape:zoom="9.8125"
     inkscape:cx="18.700637"
     inkscape:cy="20.993631"
     inkscape:window-x="0"
     inkscape:window-y="0"
     inkscape:window-maximized="1"
     inkscape:current-layer="svg12"
     inkscape:document-rotation="0"
     inkscape:lockguides="true"
     inkscape:pagecheckerboard="0">
    <inkscape:grid
       type="xygrid"
       id="grid868"
       originx="0"
       originy="0" />
  </sodipodi:namedview>
  <g
     id="plasmavault_error">
    <rect
       style="opacity:0.00100002"
       width="32"
       height="32"
       x="0"
       y="0"
       id="rect7" />
    <path
       fill-rule="evenodd"
       clip-rule="evenodd"
       d="m 6.3746178,22.461481 c 0.4836557,0 0.8754365,0.412846 0.8754365,0.923077 0,0.509307 -0.3918357,0.923077 -0.8754365,0.923077 -0.4832197,0 -0.8750001,-0.41377 -0.8750001,-0.923077 0,-0.510231 0.3917804,-0.923077 0.8750001,-0.923077 z M 26.5,28 H 8.9991791 5.4996177 C 3.5663049,28 2,26.345788 2,24.307635 V 11.384673 C 2,9.416788 3.45775,7.814038 5.297109,7.702692 L 6.5724217,5.335 C 6.9928056,4.554885 8.0759458,4 9.0427663,4 h 5.2500527 c 0.966,0 2.054004,0.554827 2.481234,1.335058 l 1.289409,2.356846 h 7.56148 c 0.482784,0 0.875058,0.412846 0.875058,0.923077 0,0.510231 -0.392274,0.923077 -0.875058,0.923077 h -7.875057 v 0 c -0.126647,0 -0.30077,-0.03837 -0.455431,-0.09375 C 16.918638,9.309712 16.564701,9.020154 16.375053,8.654212 L 15.382303,6.736346 C 15.113128,6.216192 14.428277,5.845288 13.818573,5.845288 H 9.4068212 c -0.6088367,0 -1.291118,0.370962 -1.5564611,0.891058 L 6.8732035,8.654212 c -0.182,0.358326 -0.4227344,0.641711 -0.7972345,0.784269 -0.2115323,0.08054 -0.4074772,0.09963 -0.5763513,0.09963 v 0 c -0.8250157,0 -1.7504379,1.033097 -1.7504379,2.307693 v 12.000288 c 0,1.210616 0.8874145,2.191385 2.0102022,2.288769 0.057691,0.01264 0.1170876,0.018 0.1772975,0.018 h 0.034613 3.4658207 1.3124998 15.312838 c 1.208311,0 2.186673,-1.032173 2.186673,-2.306769 V 15.53765 c 0,-1.273731 -0.978419,-2.307692 -2.186673,-2.307692 H 10.312552 9.4371186 8.5621185 c -0.7246092,0 -1.3120632,0.61973 -1.3120632,1.385538 v 0.922154 0.922846 3.230769 c 0,0.510289 -0.3918357,0.924058 -0.8754365,0.924058 -0.4832197,0 -0.8750001,-0.413769 -0.8750001,-0.924058 v -4.614692 c 0,-0.103673 0.00649,-0.207808 0.014934,-0.309173 -0.00305,-0.05227 -0.014934,-0.100039 -0.014934,-0.151904 v -0.462 c 0,-1.529308 1.1749056,-2.768827 2.6254366,-2.768827 h 0.4370632 c 0.049116,0 0.095701,0.01264 0.144812,0.01575 0.096578,-0.009 0.1931014,-0.01575 0.2922496,-0.01575 H 26.5 c 1.932,0 3.5,1.652365 3.5,3.691904 v 9.231058 C 30,26.345788 28.432,28 26.5,28 Z"
       id="path2"
       style="fill:#d35f5f;fill-opacity:1;stroke-width:0.0561699" />
    <path
       fill-rule="evenodd"
       clip-rule="evenodd"
       d="m 20.449938,16.124738 c 0,0.206906 -0.167695,0.375188 -0.374977,0.375188 -0.206883,0 -0.374977,-0.168282 -0.374977,-0.375188 0,-0.207281 0.168094,-0.375001 0.374977,-0.375001 0.207282,0 0.374977,0.16772 0.374977,0.375001 z m -1.431071,4.871512 c -0.01575,0.002 -0.03443,0.0033 -0.0586,0.0033 -0.387423,0 -0.738071,0.159281 -0.9889,0.415805 -0.0044,0.0042 -0.0077,0.0068 -0.01172,0.01061 l -0.40575,0.405587 c -0.06408,0.06738 -0.104016,0.157664 -0.104016,0.257812 v 0.222844 c 0,0.517641 -0.419648,0.937688 -0.937524,0.937688 h -0.28125 c -0.155063,0 -0.281321,0.125602 -0.281321,0.281251 v 0.28125 c 0,0.517617 -0.419649,0.937102 -0.937079,0.937102 h -0.222819 c -0.09888,0 -0.188039,0.03956 -0.25561,0.102164 l -0.208617,0.208547 c -0.173227,0.173227 -0.38011,0.288938 -0.598008,0.359977 -0.129094,0.0509 -0.264376,0.07948 -0.402633,0.07948 h -0.0573 c -0.0033,3.75e-4 -0.0049,3.75e-4 -0.0084,0 h -1.059095 c -0.143743,0 -0.28254,-0.02069 -0.414165,-0.0584 -0.0037,-0.0013 -0.0075,-0.0022 -0.01172,-0.0035 -0.0081,-0.0026 -0.01556,-0.0062 -0.02363,-0.0088 -0.135305,-0.05053 -0.263484,-0.129094 -0.372891,-0.238032 -0.403734,-0.403922 -0.403734,-1.058719 0,-1.462618 0.0055,-0.0055 0.0062,-0.0097 0.0108,-0.01484 l 4.671895,-4.671523 c 0.145922,-0.145946 0.383039,-0.145946 0.528961,0 0.145735,0.146297 0.145735,0.383062 0,0.528797 l -4.68516,4.685254 c -0.104367,0.115547 -0.102727,0.292594 0.0083,0.403922 0.0282,0.02785 0.06152,0.04669 0.09558,0.06099 0.06134,0.01685 0.124875,0.02857 0.19207,0.02857 h 1.124837 c 0.08735,0 0.166805,-0.02215 0.236555,-0.06134 -0.0029,-0.0013 -0.0055,-0.0026 -0.0084,-0.0038 0.08716,-0.03644 0.168633,-0.08953 0.23932,-0.160032 l 0.309798,-0.310008 c 0.134953,-0.130359 0.317859,-0.211476 0.520641,-0.211476 0.01978,0 0.0337,-0.002 0.05091,-0.0029 h 0.15143 c 0.206695,0 0.374976,-0.168071 0.374976,-0.374977 v -0.1875 c 0,-0.155649 0.0412,-0.300282 0.108375,-0.429376 l 0.399891,-0.399727 c 0.129071,-0.06701 0.273821,-0.108586 0.428907,-0.108586 h 0.187477 c 0.207281,0 0.375164,-0.167719 0.375164,-0.375 v -0.199406 c 0,-0.202149 0.08149,-0.385079 0.211946,-0.520384 l 0.538289,-0.538664 c 0.385969,-0.380485 0.916759,-0.616337 1.503049,-0.616337 0.05236,0 0.09998,-0.0029 0.143156,-0.0075 1.588197,-0.07655 2.85394,-1.385556 2.85394,-2.992831 0,-1.65654 -1.343743,-2.999979 -3.000026,-2.999979 -1.602283,0 -2.907097,1.256275 -2.992151,2.836831 -0.0051,0.04505 -0.0084,0.09413 -0.0084,0.148875 0,0.585751 -0.235829,1.116212 -0.616313,1.502181 L 12.054,22.017098 c -0.06591,0.05714 -0.150891,0.09302 -0.24518,0.09302 -0.20761,0 -0.376266,-0.168633 -0.376266,-0.376453 0,-0.112618 0.05053,-0.212227 0.128719,-0.281251 l 3.216448,-3.216401 c 0.0026,-0.0026 0.0039,-0.0046 0.0068,-0.0075 0.256336,-0.251039 0.415805,-0.601313 0.415805,-0.988946 0,-0.02398 0.0013,-0.04285 0.0033,-0.0584 0.03701,-2.0389 1.698586,-3.681167 3.746885,-3.681167 2.070423,0 3.749605,1.678876 3.749605,3.749605 -9.4e-5,2.048017 -1.642643,3.709714 -3.681238,3.746698 z m -7.94389,2.253635 c -0.207258,0 -0.374977,-0.168282 -0.374977,-0.375188 0,-0.207281 0.167719,-0.375001 0.374977,-0.375001 0.206906,0 0.375258,0.16772 0.375258,0.375001 0,0.206906 -0.168352,0.375188 -0.375258,0.375188 z"
       id="path2-36"
       style="fill:#d35f5f;fill-opacity:1;stroke-width:0.0234375" />
  </g>
</svg>
