<?xml version="1.0" encoding="UTF-8" standalone="no"?>
<svg
   id="svg"
   version="1.1"
   viewBox="0 0 22 22"
   sodipodi:docname="preferences.svg"
   width="22"
   height="22"
   inkscape:version="1.1.2 (0a00cf5339, 2022-02-04)"
   xmlns:inkscape="http://www.inkscape.org/namespaces/inkscape"
   xmlns:sodipodi="http://sodipodi.sourceforge.net/DTD/sodipodi-0.dtd"
   xmlns="http://www.w3.org/2000/svg"
   xmlns:svg="http://www.w3.org/2000/svg">
  <style
     id="current-color-scheme"
     type="text/css">
.ColorScheme-Text { 
    color:#eceff4;
}
</style>
  <g
     id="22-22-preferences-desktop-display-randr"
     transform="translate(-182.93248,1.9099674)">
    <rect
       id="rect3832"
       x="0"
       y="0"
       width="22"
       height="22"
       fill-opacity="0" />
    <path
       d="M 17,11.5 C 17,11.776125 16.776125,12 16.5,12 16.223875,12 16,11.776125 16,11.5 16,11.223875 16.223875,11 16.5,11 16.776125,11 17,11.223875 17,11.5 Z M 17,16 H 14.5 C 14.223875,16 14,15.776125 14,15.5 14,15.223875 14.223875,15 14.5,15 H 17 c 0.552249,0 1,-0.44775 1,-1 V 5 C 18,4.44775 17.552249,4 17,4 H 5 C 4.44775,4 4,4.44775 4,5 V 9.25 9.525625 10.5 C 4,10.776125 4.223875,11 4.5,11 H 5.474344 5.75 14.5 c 0.276125,0 0.5,0.223875 0.5,0.5 0,0.276125 -0.223875,0.5 -0.5,0.5 H 4.25 C 3.6455,12 3.141468,11.570563 3.0255,11 H 3 V 5 c 1e-6,-1.104501 0.8955,-2 2.000001,-2 H 17 c 1.104499,0 2,0.8955 2,2 v 9 c 0,1.104501 -0.895501,2 -2,2 z M 10,13.5 C 10,13.223875 10.223875,13 10.5,13 10.776125,13 11,13.223875 11,13.5 11,13.776125 10.776125,14 10.5,14 10.223875,14 10,13.776125 10,13.5 Z M 3.5,13 C 3.776125,13 4,13.223875 4,13.5 V 14 c 0,0.55225 0.44775,1 1,1 h 7 c 0.552249,0 1,0.44775 1,1 0,1.104501 0.989249,2 1.5,2 0.276125,0 0.5,0.223875 0.5,0.5 0,0.276125 -0.223875,0.5 -0.5,0.5 h -7 C 7.223875,19 7,18.776125 7,18.5 7,18.223875 7.223875,18 7.5,18 7.787468,18 8.246593,17.696031 8.581313,17.227281 8.671031,17.090344 8.824468,17 9,17 c 0.276125,0 0.5,0.223875 0.5,0.5 0,0.01759 -0.0034,0.03419 -0.0051,0.05107 0.0045,0.04903 -0.01303,0.108624 -0.05394,0.180156 -0.01029,0.01928 -0.0205,0.03856 -0.03297,0.05643 -6.25e-4,4.69e-4 -6.25e-4,0.0017 -0.0011,0.0021 -0.05175,0.07325 -0.10803,0.142094 -0.164187,0.210219 h 3.497563 c -0.0073,-0.009 -0.01563,-0.01709 -0.02319,-0.02662 -0.0013,-0.0013 -0.0017,-0.0024 -0.0027,-0.0034 -0.04494,-0.05569 -0.08644,-0.113062 -0.127938,-0.172157 -0.0017,-0.0029 -0.0046,-0.0059 -0.0063,-0.0085 -0.167969,-0.242688 -0.308594,-0.513188 -0.409656,-0.804688 -0.07371,-0.214124 -0.125499,-0.439687 -0.151625,-0.672594 5e-4,0.0027 0,0.0061 5e-4,0.0091 C 11.993153,16.139157 11.836907,16 11.648438,16 H 11 5 C 3.8955,16 3,15.104501 3,14 V 13.5 C 3,13.223875 3.223875,13 3.5,13 Z"
       id="path2-3"
       style="stroke-width:0.0312499;fill-opacity:1;fill:currentColor;"
       class="ColorScheme-Text" />
  </g>
  <g
     id="preferences-desktop-display-randr"
     transform="translate(-214.93248,-8.0900326)">
    <rect
       id="rect3832-6"
       x="0"
       y="0"
       width="32"
       height="32"
       fill-opacity="0" />
    <path
       d="m 25,16.75 c 0,0.414187 -0.335812,0.75 -0.75,0.75 -0.414188,0 -0.75,-0.335813 -0.75,-0.75 0,-0.414188 0.335812,-0.75 0.75,-0.75 0.414188,0 0.75,0.335812 0.75,0.75 z m 0,6.75 H 21.25 C 20.835812,23.5 20.5,23.164188 20.5,22.75 20.5,22.335812 20.835812,22 21.25,22 H 25 c 0.828374,0 1.5,-0.671625 1.5,-1.5 V 7.0000001 c 0,-0.8283746 -0.671626,-1.5 -1.5,-1.5 H 7 c -0.828375,0 -1.5,0.6716254 -1.5,1.5 V 13.375 13.788437 15.25 C 5.5,15.664187 5.835813,16 6.25,16 H 7.711516 8.125 21.25 c 0.414188,0 0.75,0.335812 0.75,0.75 0,0.414187 -0.335812,0.75 -0.75,0.75 H 5.875 C 4.96825,17.5 4.212202,16.855844 4.03825,16 H 4 V 7.0000001 C 4.000001,5.3432493 5.34325,4 7.000001,4 H 25 c 1.656749,0 3,1.3432495 3,3.0000001 V 20.5 c 0,1.656751 -1.343251,3 -3,3 z M 14.5,19.75 c 0,-0.414188 0.335813,-0.75 0.75,-0.75 0.414188,0 0.75,0.335812 0.75,0.75 0,0.414188 -0.335812,0.75 -0.75,0.75 -0.414187,0 -0.75,-0.335812 -0.75,-0.75 z M 4.75,19 c 0.414188,0 0.75,0.335812 0.75,0.75 V 20.5 C 5.5,21.328375 6.171625,22 7,22 h 10.5 c 0.828374,0 1.5,0.671625 1.5,1.5 0,1.656751 1.483874,3 2.25,3 0.414188,0 0.75,0.335812 0.75,0.75 C 22,27.664188 21.664188,28 21.25,28 H 10.75 C 10.335813,28 10,27.664188 10,27.25 c 0,-0.414188 0.335813,-0.75 0.75,-0.75 0.431202,0 1.11989,-0.455953 1.621969,-1.159079 C 12.506546,25.135516 12.736702,25 13,25 c 0.414188,0 0.75,0.335812 0.75,0.75 0,0.02639 -0.0051,0.05128 -0.0077,0.0766 0.0068,0.07355 -0.01955,0.162937 -0.08091,0.270235 -0.01543,0.02892 -0.03075,0.05784 -0.04945,0.08465 -9.37e-4,7.04e-4 -9.37e-4,0.0025 -0.0016,0.0032 -0.07763,0.10988 -0.162046,0.213141 -0.246281,0.315328 h 5.246344 c -0.01093,-0.01355 -0.02344,-0.02564 -0.03479,-0.03993 -0.0019,-0.0019 -0.0025,-0.0036 -0.004,-0.0051 -0.06741,-0.08353 -0.129653,-0.169593 -0.191906,-0.258235 -0.0025,-0.0044 -0.0069,-0.0088 -0.0095,-0.0128 -0.251953,-0.364032 -0.462891,-0.769781 -0.614484,-1.207032 -0.110573,-0.321186 -0.188249,-0.65953 -0.227437,-1.00889 7.49e-4,0.0041 0,0.0092 7.49e-4,0.0136 C 17.48973,23.708735 17.25536,23.5 16.972657,23.5 H 16 7 c -1.65675,0 -3,-1.343249 -3,-3 V 19.75 C 4,19.335812 4.335813,19 4.75,19 Z"
       id="path2"
       style="stroke-width:0.0468749;fill-opacity:1;fill:currentColor;"
       class="ColorScheme-Text " />
  </g>
  <sodipodi:namedview
     id="namedview40"
     pagecolor="#ffffff"
     bordercolor="#666666"
     borderopacity="1.0"
     inkscape:pageshadow="2"
     inkscape:pageopacity="0.0"
     inkscape:pagecheckerboard="0"
     showgrid="false"
     inkscape:zoom="3.5340909"
     inkscape:cx="-101.58199"
     inkscape:cy="5.659164"
     inkscape:window-width="1920"
     inkscape:window-height="1013"
     inkscape:window-x="0"
     inkscape:window-y="0"
     inkscape:window-maximized="1"
     inkscape:current-layer="svg">
    <inkscape:grid
       type="xygrid"
       id="grid910"
       originx="-214.93248"
       originy="-8.0900326" />
  </sodipodi:namedview>
  <defs
     id="defs81">
    <style
       id="style11"
       type="text/css" />
  </defs>
  <g
     id="22-22-preferences-system-bluetooth"
     transform="translate(-147.93248,-29.190033)">
    <rect
       id="rect4645"
       x="66"
       width="22"
       height="22"
       fill="none"
       y="0" />
    <path
       id="rect4163-9"
       d="m 76.998047,3 v 7.041013 l -3.292969,-3.2929692 -0.002,0.00195 C 73.347329,6.39404 72.707031,5.7539062 72.707031,5.7539062 L 72,6.4609375 76.544922,11.001953 72,15.542969 72.707031,16.25 c 0,0 0.640351,-0.640094 0.996094,-0.996094 h 0.002 L 77,11.960938 V 19 h 1 L 82,15 78,11 82,7 78,3 Z M 78,4.4160156 80.585938,7.0019531 78,9.5878906 Z m 0,8.0000004 2.585938,2.585937 L 78,17.587891 Z"
       style="fill-opacity:1;fill:currentColor;"
       class="ColorScheme-Text" />
  </g>
  <g
     id="22-22-preferences-system-bluetooth-activated"
     transform="translate(-125.93248,-29.190033)">
    <rect
       id="rect4674"
       x="66"
       width="22"
       height="22"
       fill="none"
       y="0" />
    <path
       id="path4676"
       d="m 76.998047,3 v 7.041013 l -3.292969,-3.2929692 -0.002,0.00195 C 73.347329,6.39404 72.707031,5.7539062 72.707031,5.7539062 L 72,6.4609375 76.544922,11.001953 72,15.542969 72.707031,16.25 c 0,0 0.640351,-0.640094 0.996094,-0.996094 h 0.002 L 77,11.960938 V 19 h 1 L 82,15 78,11 82,7 78,3 Z M 78,4.4160156 80.585938,7.0019531 78,9.5878906 Z M 67,10 a 1,1 0 0 0 -1,1 1,1 0 0 0 1,1 1,1 0 0 0 1,-1 1,1 0 0 0 -1,-1 z m 4,0 a 1,1 0 0 0 -1,1 1,1 0 0 0 1,1 1,1 0 0 0 1,-1 1,1 0 0 0 -1,-1 z m 12,0 a 1,1 0 0 0 -1,1 1,1 0 0 0 1,1 1,1 0 0 0 1,-1 1,1 0 0 0 -1,-1 z m 4,0 a 1,1 0 0 0 -1,1 1,1 0 0 0 1,1 1,1 0 0 0 1,-1 1,1 0 0 0 -1,-1 z m -9,2.416016 2.585938,2.585937 L 78,17.587891 Z"
       style="fill-opacity:1;fill:currentColor;"
       class="ColorScheme-Text" />
  </g>
  <g
     id="22-22-preferences-system-bluetooth-inactive"
     transform="translate(-169.93248,-29.190033)">
    <rect
       id="rect4162"
       x="66"
       width="22"
       height="22"
       fill="none"
       y="0" />
    <path
       id="path4164"
       d="m 76.998047,3 v 7.041013 l -3.292969,-3.2929692 -0.002,0.00195 C 73.347329,6.39404 72.707031,5.7539062 72.707031,5.7539062 L 72,6.4609375 76.544922,11.001953 72,15.542969 72.707031,16.25 c 0,0 0.640351,-0.640094 0.996094,-0.996094 h 0.002 L 77,11.960938 V 19 h 1 L 82,15 78,11 82,7 78,3 Z M 78,4.4160156 80.585938,7.0019531 78,9.5878906 Z m 0,8.0000004 2.585938,2.585937 L 78,17.587891 Z"
       style="fill-opacity:1;fill:currentColor;"
       class="ColorScheme-Text"
       opacity="0.5" />
  </g>
  <g
     id="preferences-system-bluetooth"
     transform="translate(-81.93248,-29.190033)">
    <rect
       id="rect4168"
       x="-5"
       y="22"
       width="32"
       height="32"
       fill="none" />
    <path
       id="rect4331"
       d="m 11,26 v 0.410156 10.587891 L 5.0019531,31 4.296875,31.705078 10.589844,38 4.296875,44.294922 5.0019531,45 11,39.001953 V 50 h 1 0.002 L 18,44.001953 V 44 43.998 L 12.001953,38 18,32.001953 V 32 31.998 L 12.001953,26 H 12 Z M 12,27.410156 16.587891,32 12,36.589844 Z m 0,12 L 16.587891,44 12,48.589844 Z"
       style="fill-opacity:1;fill:currentColor;"
       class="ColorScheme-Text" />
  </g>
  <g
     id="preferences-system-bluetooth-activated"
     transform="translate(-81.93248,-29.190033)">
    <rect
       id="rect4422"
       x="27"
       y="22"
       width="32"
       height="32"
       fill="none" />
    <path
       id="path4424"
       d="M 43,26 V 36.998047 L 37.001953,31 36.296875,31.705078 42.589844,38 36.296875,44.294922 37.001953,45 43,39.001953 V 50 h 1.002 L 50,44.001953 v -0.0039 L 44.001953,38 50,32.001953 v -0.0039 L 44.001953,26 Z M 44,27.410156 48.587891,32 44,36.589844 Z M 30,37 a 1,1 0 0 0 -1,1 1,1 0 0 0 1,1 1,1 0 0 0 1,-1 1,1 0 0 0 -1,-1 z m 6,0 a 1,1 0 0 0 -1,1 1,1 0 0 0 1,1 1,1 0 0 0 1,-1 1,1 0 0 0 -1,-1 z m 14,0 a 1,1 0 0 0 -1,1 1,1 0 0 0 1,1 1,1 0 0 0 1,-1 1,1 0 0 0 -1,-1 z m 6,0 a 1,1 0 0 0 -1,1 1,1 0 0 0 1,1 1,1 0 0 0 1,-1 1,1 0 0 0 -1,-1 z M 44,39.410156 48.587891,44 44,48.589844 Z"
       style="fill-opacity:1;fill:currentColor;"
       class="ColorScheme-Text" />
  </g>
  <g
     id="preferences-system-bluetooth-inactive"
     transform="translate(-81.93248,-29.190033)">
    <rect
       id="rect4426"
       x="-37"
       y="22"
       width="32"
       height="32"
       fill="none" />
    <path
       id="path4428"
       d="M -21,26 V 36.998047 L -26.998047,31 -27.703125,31.705078 -21.410156,38 -27.703125,44.294922 -26.998047,45 -21,39.001953 V 50 h 1.002 L -14,44.001953 v -0.004 L -19.998047,38 -14,32.001953 V 31.998 L -19.998047,26 Z m 1,1.410156 L -15.412109,32 -20,36.589844 Z m 0,12 L -15.412109,44 -20,48.589844 Z"
       style="fill-opacity:1;fill:currentColor;"
       class="ColorScheme-Text"
       opacity="0.5" />
  </g>
  <g
     id="preferences-system-bluetooth-battery"
     transform="translate(-81.93248,2.8099674)">
    <rect
       id="rect4168-3"
       x="-5"
       y="22"
       width="32"
       height="32"
       fill="none" />
    <path
       id="rect4331-5"
       d="m 11,26 v 0.410156 10.587891 L 5.0019531,31 4.296875,31.705078 10.589844,38 4.296875,44.294922 5.0019531,45 11,39.001953 V 50 h 1 0.002 L 18,44.001953 V 44 43.998 L 12.001953,38 18,32.001953 V 32 31.998 L 12.001953,26 H 12 Z M 12,27.410156 16.587891,32 12,36.589844 Z m 0,12 L 16.587891,44 12,48.589844 Z"
       style="fill-opacity:1;fill:currentColor;"
       class="ColorScheme-Text" />
  </g>
  <g
     id="preferences-desktop-notification"
     transform="translate(-160.93248,1.9099674)">
    <rect
       id="rect3068"
       x="0"
       y="0"
       width="22"
       height="22"
       fill-opacity="0" />
    <path
       fill-rule="evenodd"
       clip-rule="evenodd"
       d="m 16.67566,16.637218 c -0.09156,0.102062 -0.222904,0.167469 -0.37084,0.167469 -0.276128,0 -0.5,-0.223875 -0.5,-0.5 0,-0.138187 0.05592,-0.263187 0.146504,-0.3535 l -0.0016,-0.0014 c 1.26684,-1.266627 2.05028,-3.016627 2.05028,-4.94972 0,-3.8659693 -3.134034,-7.0000005 -7.000004,-7.0000005 -3.8659688,0 -7,3.1340312 -7,7.0000005 0,3.865968 3.1340312,6.999999 7,6.999999 0.276125,0 0.5,0.223874 0.5,0.5 0,0.276125 -0.223875,0.5 -0.5,0.5 -4.4182184,0 -8,-3.581531 -8,-7.999999 0,-4.4182193 3.5817816,-8.0000005 8,-8.0000005 4.41822,0 8.000004,3.5817812 8.000004,8.0000005 0,2.199217 -0.887944,4.190905 -2.324472,5.637217 z M 11.50013,7 c -0.276125,0 -0.5,0.2238751 -0.5,0.5 0,0.2761251 -0.223874,0.5 -0.5,0.5 -0.276125,0 -0.5,-0.2238749 -0.5,-0.5 0,-0.034656 0.0034,-0.068375 0.01026,-0.1005936 0.05274,-0.78075 0.69581,-1.3994063 1.489746,-1.3994063 0.276126,0 0.500001,0.223875 0.500001,0.4999999 0,0.2761251 -0.223875,0.5 -0.500001,0.5 z m -0.883781,8.950436 C 10.066286,15.803218 9.73963,15.23778 9.887099,14.6875 l 1.140375,-4.256094 c 0.03587,-0.133531 -0.04346,-0.2705 -0.17675,-0.306406 -0.06885,-0.01831 -0.138438,-0.0061 -0.194812,0.02831 -7.34e-4,5e-4 0.0018,-0.0025 0.0012,-0.0025 l -0.413095,0.238781 C 10.004768,10.527529 9.698861,10.445741 9.5609244,10.206497 9.422756,9.9672985 9.5047804,9.6616105 9.743817,9.5234545 l 0.884282,-0.5102503 c 0.227062,-0.1284064 0.501937,-0.1718751 0.773687,-0.099125 0.550064,0.1474685 0.87672,0.7128754 0.729251,1.2629378 0,2.5e-4 0,2.5e-4 0,2.5e-4 l -1.140376,4.255874 v 0 c -0.03587,0.133313 0.04346,0.2705 0.176751,0.306157 0.06884,0.01856 0.138687,0.0063 0.194812,-0.02785 7.33e-4,-5e-4 -0.0018,0.0025 -0.0012,0.0022 l 1.025626,-0.592031 c 0.239,-0.138187 0.544937,-0.05615 0.682875,0.182875 0.138188,0.239 0.05615,0.544938 -0.182875,0.683094 l -1.496594,0.864 c -0.227063,0.128156 -0.501969,0.171844 -0.773688,0.09884 z M 14.750134,17 c 0.27612,0 0.5,0.223874 0.5,0.5 0,0.276124 -0.22388,0.5 -0.5,0.5 -0.276127,0 -0.5,-0.223876 -0.5,-0.5 0,-0.276126 0.223873,-0.5 0.5,-0.5 z"
       id="path2-3-6"
       style="stroke-width:0.03125;fill-opacity:1;fill:currentColor;"
       class="ColorScheme-Text" />
  </g>
  <g
     id="preferences-desktop-text-to-speech">
    <rect
       y="0"
       x="0"
       height="22"
       width="22"
       id="rect2991-5-7-0"
       style="opacity:0.01;fill:#000000;fill-opacity:0.00392157;stroke:none;stroke-width:0.916667" />
    <path
       fill-rule="evenodd"
       clip-rule="evenodd"
       d="m 12.009448,15.916063 c -0.004,0.003 -0.0082,0.0049 -0.0098,0.0049 -0.259943,0.02444 -0.454362,0.245371 -0.454362,0.493184 v 1.335944 c 0,0.690441 -0.610434,1.250006 -1.363648,1.250006 H 8.818195 c -0.3012332,0 -0.545459,-0.223875 -0.545459,-0.500002 0,-0.276127 0.2442258,-0.500003 0.545459,-0.500003 h 1.090918 c 0.301231,0 0.545457,-0.223875 0.545457,-0.500002 v -1.296888 c 0,-0.63916 0.523371,-1.166255 1.198782,-1.240976 0.0032,-4.99e-4 0.0082,-0.0037 0.01244,-0.0083 2.395439,-0.298564 4.243294,-2.176011 4.243294,-4.453866 0,-0.276126 0.244223,-0.500003 0.545453,-0.500003 0.301238,0 0.545461,0.223877 0.545461,0.500003 0,2.7217 -2.158383,4.975618 -4.990641,5.416026 z m -1.009403,-1.916009 c -2.1087063,0 -3.8182095,-1.566914 -3.8182095,-3.500017 v -4.00002 c 0,-0.276126 0.244226,-0.5000024 0.5454588,-0.5000024 0.3012333,0 0.5454593,0.2238764 0.5454593,0.5000024 v 4.00002 c 0,1.380631 1.2210074,2.500012 2.7272914,2.500012 1.506418,0 2.7273,-1.119381 2.7273,-2.500012 v -4.00002 c 0,-1.3806315 -1.220882,-2.500012 -2.7273,-2.500012 -0.301229,0 -0.545453,-0.2238764 -0.545453,-0.5000026 C 10.454592,3.2238762 10.698816,3 11.000045,3 13.108899,3 14.81826,4.5669141 14.81826,6.500017 v 4.00002 c 0,1.933103 -1.709361,3.500017 -3.818215,3.500017 z M 8.2727536,5.250011 c -0.3012332,0 -0.5454593,-0.2238763 -0.5454593,-0.5000023 0,-0.2761262 0.2442261,-0.5000026 0.5454593,-0.5000026 0.3012327,0 0.5454588,0.2238764 0.5454588,0.5000026 0,0.276126 -0.2442261,0.5000023 -0.5454588,0.5000023 z m 0.7666445,9.37967 c 0.1908408,0.07787 0.3242731,0.25244 0.3242731,0.456316 0,0.276126 -0.2442259,0.500002 -0.5454588,0.500002 -0.108787,0 -0.2095959,-0.03003 -0.2948184,-0.08031 C 6.4467579,14.640936 5,12.727113 5,10.50004 c 0,-0.276126 0.244226,-0.500003 0.5454591,-0.500003 0.3012325,0 0.5454585,0.223877 0.5454585,0.500003 0,1.846696 1.2146369,3.431642 2.9506274,4.125272 z m 4.1424859,3.370392 c 0.301229,0 0.545461,0.223877 0.545461,0.500003 0,0.276126 -0.244232,0.500002 -0.545461,0.500002 -0.30123,0 -0.545462,-0.223876 -0.545462,-0.500002 0,-0.276126 0.244232,-0.500003 0.545462,-0.500003 z"
       id="path2-36"
       style="stroke-width:0.0326396;fill-opacity:1;fill:currentColor;"
       class="ColorScheme-Text" />
  </g>
</svg>
