<?xml version="1.0" encoding="UTF-8" standalone="no"?>
<svg
   width="32"
   height="32"
   version="1.1"
   id="svg12"
   sodipodi:docname="printer.svg"
   inkscape:version="1.1.2 (0a00cf5339, 2022-02-04)"
   xmlns:inkscape="http://www.inkscape.org/namespaces/inkscape"
   xmlns:sodipodi="http://sodipodi.sourceforge.net/DTD/sodipodi-0.dtd"
   xmlns="http://www.w3.org/2000/svg"
   xmlns:svg="http://www.w3.org/2000/svg"
   xmlns:rdf="http://www.w3.org/1999/02/22-rdf-syntax-ns#"
   xmlns:cc="http://creativecommons.org/ns#"
   xmlns:dc="http://purl.org/dc/elements/1.1/">
  <style
     id="current-color-scheme"
     type="text/css">.ColorScheme-Text { color:#eceff4; }
</style>
  <metadata
     id="metadata18">
    <rdf:RDF>
      <cc:Work
         rdf:about="">
        <dc:format>image/svg+xml</dc:format>
        <dc:type
           rdf:resource="http://purl.org/dc/dcmitype/StillImage" />
      </cc:Work>
    </rdf:RDF>
  </metadata>
  <defs
     id="defs16" />
  <sodipodi:namedview
     pagecolor="#ffffff"
     bordercolor="#000000"
     borderopacity="1"
     objecttolerance="10"
     gridtolerance="10"
     guidetolerance="10"
     inkscape:pageopacity="0"
     inkscape:pageshadow="2"
     inkscape:window-width="1920"
     inkscape:window-height="1011"
     id="namedview14"
     showgrid="false"
     inkscape:zoom="9.8125003"
     inkscape:cx="23.745222"
     inkscape:cy="12.127388"
     inkscape:window-x="0"
     inkscape:window-y="0"
     inkscape:window-maximized="1"
     inkscape:current-layer="svg12"
     inkscape:document-rotation="0"
     inkscape:lockguides="true"
     inkscape:showpageshadow="false"
     inkscape:pagecheckerboard="0">
    <inkscape:grid
       type="xygrid"
       id="grid908"
       originx="-1e-06"
       originy="-4.6325681e-08" />
  </sodipodi:namedview>
  <g
     id="printer">
    <rect
       style="opacity:0.00100002"
       width="32"
       height="32"
       x="0"
       y="4.6325681e-08"
       id="rect7" />
    <path
       d="m 16.750656,20.499953 h 2.999297 c 0.414563,0 0.75,0.336188 0.75,0.75075 0,0.413063 -0.335437,0.75 -0.75,0.75 h -2.999297 c -0.414562,0 -0.750187,-0.336937 -0.750187,-0.75 -4.7e-5,-0.414562 0.335625,-0.75075 0.750187,-0.75075 z m -3.750984,0.75075 c 0,-0.414562 0.335812,-0.75075 0.750375,-0.75075 0.414187,0 0.75,0.336188 0.75,0.75075 0,0.413063 -0.33586,0.75 -0.75,0.75 -0.414563,0 -0.750375,-0.336937 -0.750375,-0.75 z m 6.000234,2.99925 c 0,0.414563 -0.335437,0.75 -0.75,0.75 h -6.000234 c -0.413438,0 -0.74925,-0.335437 -0.74925,-0.75 0,-0.414562 0.335812,-0.75 0.74925,-0.75 h 6.000234 c 0.414563,0 0.75,0.335438 0.75,0.75 z m 6.664125,-0.75 h -1.788328 c -1.036359,0 -1.875,-0.839344 -1.875,-1.875 v -1.5 c 0,-0.62114 -0.504656,-1.125047 -1.12575,-1.125047 h -9.749906 c -0.621469,0 -1.125,0.503907 -1.125,1.125047 v 5.25 c 0,0.621844 0.503531,1.125797 1.125,1.125797 h 9.749906 c 0.489281,0 1.12575,-0.438234 1.12575,-0.750797 v 0 c 0,-0.413812 0.335438,-0.75 0.74925,-0.75 0.414563,0 0.75,0.336188 0.75,0.75 0,0.05198 -0.01172,0.100359 -0.01538,0.151594 C 23.405453,27.072016 22.440859,28 21.250703,28 H 10.750375 C 9.5078125,28 8.5,26.992937 8.5,25.749953 v -2.25 -1.49925 -2.25075 c 0,-1.242234 1.0078125,-2.250047 2.250375,-2.250047 h 10.500281 c 1.242188,0 2.24925,1.007813 2.24925,2.250047 v 1.50075 c 0,0.413063 0.335438,0.75 0.75,0.75 h 0.37575 c 1.034906,0 1.875047,-0.840094 1.875047,-1.87575 v -4.874859 c 0,-0.414188 0.335438,-0.75 0.75,-0.75 0.413063,0 0.74925,0.335812 0.74925,0.75 v 5.710734 C 28,21.920969 26.656281,23.499953 25.664031,23.499953 Z m 0.08592,-10.500281 c -0.413812,0 -0.75,-0.335438 -0.75,-0.75 0,-0.413438 0.336188,-0.74925 0.75,-0.74925 0.414563,0 0.750797,0.335812 0.750797,0.74925 0,0.414562 -0.336234,0.75 -0.750797,0.75 z m -4.49925,0 H 20.499953 10.750375 7.375 c -1.0356563,0 -1.874625,0.840093 -1.874625,1.875047 v 4.125187 0.137719 2.113078 c 0,0.413063 0.3354375,0.75 0.75,0.75 0.4134375,0 0.74925,0.335438 0.74925,0.74925 0,0.414563 -0.3358125,0.75 -0.74925,0.75 -0.051656,0 -0.1003594,-0.01172 -0.1512656,-0.01538 C 4.9276094,23.405453 4,22.440859 4,21.250703 4,21.137172 4.016828,21.03025 4.032578,20.921828 4.013547,20.783406 4,20.643484 4,20.499953 V 14.500094 C 4,12.842922 5.343625,11.500422 6.999625,11.500422 H 8.125375 8.5 h 2.625 0.75 8.999906 c 0.621094,0 1.12575,-0.504282 1.12575,-1.12575 V 6.625 c 0,-0.621094 -0.504656,-1.124625 -1.12575,-1.124625 h -9.749859 c -0.621469,0 -1.125,0.503531 -1.125,1.124625 v 2.625047 c 0,0.414562 -0.3354376,0.75 -0.7500001,0.75 -0.4145625,0 -0.75,-0.335438 -0.75,-0.75 V 6.250375 C 8.5,5.007062 9.5078125,4 10.750375,4 h 10.500281 c 1.242188,0 2.24925,1.007062 2.24925,2.250375 v 4.500047 c 4.7e-5,1.242187 -1.007015,2.24925 -2.249203,2.24925 z M 7.7496719,14.500094 c 0.4145625,0 0.750375,0.335812 0.750375,0.75 0,0.414562 -0.3358125,0.750375 -0.750375,0.750375 -0.4134844,0 -0.75,-0.335813 -0.75,-0.750375 -4.69e-5,-0.414188 0.3365156,-0.75 0.75,-0.75 z"
       id="path2"
       style="stroke-width:0.046875;fill-opacity:1;fill:currentColor;"
       class="ColorScheme-Text" />
  </g>
  <g
     id="22-22-printer"
     transform="translate(32,10.000001)">
    <rect
       style="opacity:0.00100002"
       width="22"
       height="22"
       x="0"
       y="0"
       id="rect2" />
    <path
       d="m 11.500437,14.000187 h 1.999532 c 0.276375,0 0.5,0.224125 0.5,0.5005 0,0.275375 -0.223625,0.5 -0.5,0.5 h -1.999532 c -0.276374,0 -0.500124,-0.224625 -0.500124,-0.5 -3.2e-5,-0.276375 0.22375,-0.5005 0.500124,-0.5005 z m -2.5006557,0.5005 c 0,-0.276375 0.2238747,-0.5005 0.50025,-0.5005 0.2761247,0 0.4999997,0.224125 0.4999997,0.5005 0,0.275375 -0.223906,0.5 -0.4999997,0.5 -0.2763753,0 -0.50025,-0.224625 -0.50025,-0.5 z m 4.0001557,1.9995 c 0,0.276375 -0.223624,0.5 -0.5,0.5 H 8.4997813 c -0.2756253,0 -0.4995,-0.223625 -0.4995,-0.5 0,-0.276375 0.2238747,-0.5 0.4995,-0.5 h 4.0001557 c 0.276376,0 0.5,0.223625 0.5,0.5 z m 4.44275,-0.5 h -1.192218 c -0.690906,0 -1.25,-0.559563 -1.25,-1.25 v -1 c 0,-0.414094 -0.336438,-0.750032 -0.7505,-0.750032 H 7.7500313 c -0.4143126,0 -0.75,0.335938 -0.75,0.750032 v 3.5 c 0,0.414562 0.3356874,0.750531 0.75,0.750531 h 6.4999377 c 0.326187,0 0.7505,-0.292156 0.7505,-0.500531 v 0 c 0,-0.275875 0.223625,-0.5 0.4995,-0.5 0.276375,0 0.5,0.224125 0.5,0.5 0,0.03465 -0.0078,0.06691 -0.01025,0.101062 -0.05275,0.780313 -0.695809,1.398969 -1.489246,1.398969 H 7.50025 C 6.671875,19.000218 6,18.328843 6,17.500187 v -1.5 -0.9995 -1.5005 c 0,-0.828156 0.671875,-1.500032 1.50025,-1.500032 h 7.000187 c 0.828126,0 1.4995,0.671876 1.4995,1.500032 v 1.0005 c 0,0.275375 0.223626,0.5 0.5,0.5 h 0.2505 c 0.689938,0 1.250032,-0.560063 1.250032,-1.2505 v -3.249906 c 0,-0.276126 0.223625,-0.5 0.5,-0.5 0.275375,0 0.4995,0.223874 0.4995,0.5 v 3.807156 c 3.1e-5,0.640094 -0.895782,1.69275 -1.557282,1.69275 z m 0.05728,-7.000188 c -0.275874,0 -0.5,-0.223625 -0.5,-0.5 0,-0.275625 0.224126,-0.4995 0.5,-0.4995 0.276376,0 0.500532,0.223875 0.500532,0.4995 0,0.276375 -0.224156,0.5 -0.500532,0.5 z m -2.9995,0 H 13.999969 7.50025 5.25 c -0.6904375,0 -1.24975,0.560062 -1.24975,1.250032 v 2.750124 0.09181 1.408719 c 0,0.275375 0.223625,0.5 0.5,0.5 0.275625,0 0.4995,0.223625 0.4995,0.4995 0,0.276375 -0.223875,0.5 -0.4995,0.5 -0.034437,0 -0.066906,-0.0078 -0.1008437,-0.01025 C 3.6184063,15.937184 3,15.294124 3,14.500687 3,14.424997 3.011219,14.353718 3.021719,14.281437 3.009031,14.189157 3,14.095874 3,14.000187 V 10.000281 C 3,8.895499 3.89575,8.000499 4.99975,8.000499 H 5.75025 6 h 1.75 0.5 5.999937 c 0.414063,0 0.7505,-0.336188 0.7505,-0.7505 V 4.750218 c 0,-0.414063 -0.336437,-0.74975 -0.7505,-0.74975 H 7.7500313 c -0.4143126,0 -0.75,0.335687 -0.75,0.74975 v 1.750031 c 0,0.276375 -0.223625,0.5 -0.5,0.5 -0.276375,0 -0.5,-0.223625 -0.5,-0.5 V 4.500468 C 6,3.671593 6.671875,3.000218 7.50025,3.000218 h 7.000187 c 0.828126,0 1.4995,0.671375 1.4995,1.50025 v 3.000031 c 3.2e-5,0.828125 -0.671343,1.4995 -1.499468,1.4995 z m -9.0006857,1.000282 c 0.276375,0 0.50025,0.223874 0.50025,0.5 0,0.276374 -0.223875,0.50025 -0.50025,0.50025 -0.2756563,0 -0.5,-0.223876 -0.5,-0.50025 -3.13e-5,-0.276126 0.2243437,-0.5 0.5,-0.5 z"
       id="path2-3"
       style="stroke-width:0.03125;fill-opacity:1;fill:currentColor;"
       class="ColorScheme-Text" />
  </g>
</svg>
