<?xml version="1.0" encoding="UTF-8" standalone="no"?>
<svg
   inkscape:version="1.1.2 (0a00cf5339, 2022-02-04)"
   sodipodi:docname="qbittorrent.svg"
   id="svg36"
   version="1.1"
   height="32"
   width="32"
   style="enable-background:new"
   xmlns:inkscape="http://www.inkscape.org/namespaces/inkscape"
   xmlns:sodipodi="http://sodipodi.sourceforge.net/DTD/sodipodi-0.dtd"
   xmlns="http://www.w3.org/2000/svg"
   xmlns:svg="http://www.w3.org/2000/svg"
   xmlns:rdf="http://www.w3.org/1999/02/22-rdf-syntax-ns#"
   xmlns:cc="http://creativecommons.org/ns#"
   xmlns:dc="http://purl.org/dc/elements/1.1/">
  <style
     id="current-color-scheme"
     type="text/css">.ColorScheme-Highlight { color:#00adcf; }
.ColorScheme-Text { color:#eff0f1; }
</style>
  <g
     id="22-22-qbittorrent"
     transform="translate(32,10)">
    <path
       id="path6"
       d="M 0,0 H 22 V 22 H 0 Z"
       style="opacity:0" />
    <path
       d="m 10.999917,18.999967 h -0.5 c -0.276375,0 -0.499969,-0.224125 -0.499969,-0.5 0,-0.276375 0.223594,-0.5 0.499969,-0.5 h 0.5 c 3.865906,0 6.999875,-3.13425 6.999875,-7.000063 0,-3.865687 -3.133969,-6.999937 -6.999875,-6.999937 -3.865656,0 -6.999907,3.13425 -6.999907,6.999937 0,2.290094 1.104751,4.317469 2.804656,5.594313 l -0.0051,0.0073 c 0.120849,0.09136 0.200443,0.234887 0.200443,0.39845 0,0.275844 -0.223626,0.5 -0.5,0.5 -0.112563,0 -0.214844,-0.03906 -0.298594,-0.101563 l -0.0012,0.0019 C 4.257406,15.940938 3.000125,13.617219 3.000125,10.999937 3.000125,6.5815 6.581594,3 11,3 15.417906,3 19.000125,6.5815 19.000125,10.999937 19.000125,15.418031 15.417906,19 11,19 Z m -2.499719,-1 c 0.275625,0 0.4995,0.223625 0.4995,0.5 0,0.275875 -0.223875,0.5 -0.4995,0.5 -0.276375,0 -0.5,-0.224125 -0.5,-0.5 0,-0.276375 0.223625,-0.5 0.5,-0.5 z m 9.499594,-7.000063 v 0 0 0 0 0 l 0.04413,-0.01015 -0.04215,0.0097 0.0076,-0.0085 8e-4,0.005 0.03769,-0.01851 -0.0548,0.0193 0.01943,0.0032 0.0065,8.67e-4 -0.01926,-8.67e-4 v 0 l 0.01273,-3.1e-5 0.0065,8.67e-4 0.02487,-0.01101 z"
       id="path2-3"
       sodipodi:nodetypes="ssssssssccssccssssssssscccccccccccccccccccc"
       style="enable-background:new;stroke-width:0.03125;fill-opacity:1;fill:currentColor;"
       class="ColorScheme-Text" />
    <path
       d="m 8.128436,13.048224 q 0.860294,0 1.254146,-0.461255 0.39387,-0.461224 0.41978,-1.554724 v -0.19175 q 0,-1.191948 -0.404218,-1.715375 -0.404226,-0.523422 -1.28006,-0.523422 -0.756648,0 -1.160862,0.590802 -0.399054,0.585594 -0.399054,1.65837 0,1.072765 0.393874,1.637635 0.399042,0.559698 1.176394,0.559698 z m -0.129561,0.720344 q -1.098653,0 -1.715374,-0.772172 -0.616709,-0.772187 -0.616709,-2.155901 0,-1.394058 0.621897,-2.17661 0.621875,-0.782552 1.730923,-0.782552 1.166041,0 1.793116,0.881011 h 0.04667 l 0.12437,-0.777359 h 0.678904 v 8.229682 H 9.802375 v -2.430546 q 0,-0.518251 0.05703,-0.881011 h -0.06738 q -0.595974,0.865458 -1.793128,0.865458 z"
       id="path15-6"
       style="enable-background:new;stroke-width:0.0167939;fill-opacity:1;fill:currentColor;"
       class="ColorScheme-Text" />
    <path
       d="m 14.098472,7.910331 q 1.096457,0 1.700522,0.751253 0.609113,0.746203 0.609113,2.116757 0,1.370551 -0.614215,2.131991 -0.609114,0.756335 -1.69542,0.756335 -0.543158,0 -0.994925,-0.197965 -0.446695,-0.20305 -0.751267,-0.619301 h -0.06091 l -0.177648,0.715741 H 11.509634 V 5.666667 h 0.842646 v 1.918806 q 0,0.644664 -0.04061,1.157354 h 0.04065 q 0.588816,-0.832496 1.746171,-0.832496 z m -0.12183,0.705577 q -0.862922,0 -1.243642,0.497454 -0.38072,0.492394 -0.38072,1.664979 0,1.172585 0.390867,1.68021 0.390849,0.502526 1.253797,0.502526 0.77665,0 1.15737,-0.563455 0.380698,-0.568521 0.380698,-1.629429 0,-1.086311 -0.380698,-1.619302 -0.38072,-0.532983 -1.177672,-0.532983 z"
       id="path13-7"
       style="enable-background:new;stroke-width:0.0164493;fill-opacity:1;fill:currentColor;"
       class="ColorScheme-Highlight" />
  </g>
  <metadata
     id="metadata40">
    <rdf:RDF>
      <cc:Work
         rdf:about="">
        <dc:format>image/svg+xml</dc:format>
        <dc:type
           rdf:resource="http://purl.org/dc/dcmitype/StillImage" />
      </cc:Work>
    </rdf:RDF>
  </metadata>
  <sodipodi:namedview
     inkscape:document-rotation="0"
     inkscape:lockguides="true"
     inkscape:current-layer="svg36"
     inkscape:window-maximized="1"
     inkscape:window-y="0"
     inkscape:window-x="0"
     inkscape:cy="16.299411"
     inkscape:cx="35.139612"
     inkscape:zoom="10.429825"
     showgrid="false"
     id="namedview38"
     inkscape:window-height="1013"
     inkscape:window-width="1920"
     inkscape:pageshadow="2"
     inkscape:pageopacity="0"
     guidetolerance="10"
     gridtolerance="10"
     objecttolerance="10"
     borderopacity="1"
     bordercolor="#666666"
     pagecolor="#ffffff"
     inkscape:pagecheckerboard="0">
    <inkscape:grid
       type="xygrid"
       id="grid1315"
       originx="0"
       originy="0" />
  </sodipodi:namedview>
  <defs
     id="defs4">
    <linearGradient
       id="linearGradient5606"
       inkscape:swatch="solid">
      <stop
         style="stop-color:#000000"
         offset="0"
         id="stop5608" />
    </linearGradient>
  </defs>
  <g
     id="qbittorrent">
    <rect
       id="rect13"
       style="opacity:0.00100002"
       y="0"
       x="0"
       height="32"
       width="32" />
    <path
       d="m 15.999688,27.99995 h -0.75 c -0.414563,0 -0.749954,-0.336187 -0.749954,-0.75 0,-0.414562 0.335391,-0.75 0.749954,-0.75 h 0.75 c 5.798859,0 10.499812,-4.701375 10.499812,-10.500094 0,-5.798531 -4.700953,-10.499906 -10.499812,-10.499906 -5.798484,0 -10.4998595,4.701375 -10.4998595,10.499906 0,3.435141 1.6571255,6.476203 4.2069835,8.391469 l -0.0076,0.01095 c 0.181274,0.13704 0.300665,0.352331 0.300665,0.597675 0,0.413766 -0.335439,0.75 -0.75,0.75 -0.168845,0 -0.322266,-0.05859 -0.447891,-0.152344 l -0.0018,0.0029 C 5.8859215,23.411407 4,19.925829 4,15.999906 4,9.37225 9.372203,4 15.999813,4 22.626672,4 28,9.37225 28,15.999906 28,22.627047 22.626672,28 15.999813,28 Z m -3.749579,-1.5 c 0.413438,0 0.74925,0.335438 0.74925,0.75 0,0.413813 -0.335812,0.75 -0.74925,0.75 -0.414562,0 -0.75,-0.336187 -0.75,-0.75 0,-0.414562 0.335438,-0.75 0.75,-0.75 z M 26.4995,15.999856 v 0 0 0 0 0 l 0.0662,-0.01523 -0.06322,0.01455 0.0114,-0.01275 0.0012,0.0075 0.05654,-0.02776 -0.0822,0.02895 0.02914,0.0048 0.0098,0.0013 -0.02889,-0.0013 v 0 l 0.0191,-4.6e-5 0.0098,0.0013 0.0373,-0.01652 z"
       id="path2"
       sodipodi:nodetypes="ssssssssccssccssssssssscccccccccccccccccccc"
       style="stroke-width:0.046875;fill-opacity:1;fill:currentColor;"
       class="ColorScheme-Text" />
    <path
       d="m 11.692467,19.072336 q 1.290441,0 1.881219,-0.691883 0.590804,-0.691835 0.629669,-2.332085 v -0.287625 q 0,-1.787923 -0.606326,-2.573063 -0.60634,-0.785133 -1.92009,-0.785133 -1.134972,0 -1.741294,0.886203 -0.598581,0.878391 -0.598581,2.487555 0,1.609148 0.590811,2.456452 0.598564,0.839548 1.764592,0.839548 z m -0.194342,1.080516 q -1.64798,0 -2.573061,-1.158258 Q 8,17.836313 8,15.760743 8,13.669656 8.932846,12.495828 9.865658,11.322 11.52923,11.322 q 1.749062,0 2.689674,1.321516 h 0.07 l 0.186554,-1.166039 h 1.018356 V 23.822 h -1.290439 v -3.645819 q 0,-0.777376 0.08555,-1.321516 h -0.101066 q -0.893961,1.298187 -2.689692,1.298187 z"
       id="path15"
       style="stroke-width:0.0251908;fill-opacity:1;fill:currentColor;"
       class="ColorScheme-Text" />
    <path
       d="m 20.64752,11.365497 q 1.644686,0 2.550783,1.126879 0.91367,1.119304 0.91367,3.175135 0,2.055827 -0.921322,3.197987 Q 22.276979,20 20.64752,20 19.832783,20 19.155133,19.703053 18.485091,19.398478 18.028232,18.774102 h -0.09137 l -0.266473,1.073611 H 16.764257 V 8 h 1.26397 v 2.87821 q 0,0.966996 -0.06091,1.73603 h 0.06097 q 0.883224,-1.248743 2.619256,-1.248743 z m -0.182744,1.058365 q -1.294384,0 -1.865464,0.746181 -0.57108,0.738591 -0.57108,2.497468 0,1.758878 0.586301,2.520316 0.586274,0.753788 1.880696,0.753788 1.164974,0 1.736054,-0.845182 0.571048,-0.852781 0.571048,-2.444144 0,-1.629466 -0.571048,-2.428952 -0.57108,-0.799475 -1.766507,-0.799475 z"
       id="path13"
       style="stroke-width:0.0246739;fill-opacity:1;fill:currentColor;"
       class="ColorScheme-Highlight" />
  </g>
</svg>
