<?xml version="1.0" encoding="UTF-8" standalone="no"?>
<svg
   width="32"
   height="32"
   version="1.1"
   id="svg32"
   sodipodi:docname="quassel.svg"
   inkscape:version="1.1.2 (0a00cf5339, 2022-02-04)"
   xmlns:inkscape="http://www.inkscape.org/namespaces/inkscape"
   xmlns:sodipodi="http://sodipodi.sourceforge.net/DTD/sodipodi-0.dtd"
   xmlns:xlink="http://www.w3.org/1999/xlink"
   xmlns="http://www.w3.org/2000/svg"
   xmlns:svg="http://www.w3.org/2000/svg"
   xmlns:rdf="http://www.w3.org/1999/02/22-rdf-syntax-ns#"
   xmlns:cc="http://creativecommons.org/ns#"
   xmlns:dc="http://purl.org/dc/elements/1.1/">
  <style
     id="current-color-scheme"
     type="text/css">
.ColorScheme-Highlight { 
    color:#077285;
}
.ColorScheme-Text { color:#eceff4; }
</style>
  <g
     id="22-22-quassel-inactive"
     transform="translate(32,-22)"
     style="fill:#eceff4;fill-opacity:1">
    <rect
       style="opacity:0.00100002;fill:#eceff4;fill-opacity:1"
       width="22"
       height="22"
       x="0"
       y="0"
       id="rect12" />
    <path
       d="M 6.333333,9.666667 V 11 H 5 v 0.666667 H 6.333333 V 13 H 5 v 0.666667 H 6.333333 V 15 H 7 V 13.666667 H 8.333333 V 15 H 9 v -1.333333 h 1.33333 V 13 H 9 v -1.333333 h 1.33333 V 11 H 9 V 9.666667 H 8.333333 V 11 H 7 V 9.666667 Z m 0.666667,2 H 8.333333 V 13 H 7 Z"
       id="path30-35-7"
       style="stroke-width:0.333333;fill-opacity:1;fill:currentColor;opacity:0.5;"
       inkscape:connector-curvature="0"
       class="ColorScheme-Text" />
    <rect
       height="1.3333334"
       rx="0.66666669"
       y="6.3333321"
       x="16.333345"
       width="1.3333334"
       id="rect36-62-0"
       style="stroke-width:0.333333;fill-opacity:1;fill:currentColor;opacity:0.5;"
       class="ColorScheme-Text" />
    <rect
       height="1.3333334"
       rx="0.66666669"
       y="6.3333321"
       x="14.333344"
       width="1.3333334"
       id="rect38-91-9"
       style="stroke-width:0.333333;fill-opacity:1;fill:currentColor;opacity:0.5;"
       class="ColorScheme-Text" />
    <path
       fill-rule="evenodd"
       clip-rule="evenodd"
       d="M 18.31278,12.143143 C 18.00214,12.143143 17.75,12.399 17.75,12.714 V 13 c 0,0.789071 -0.62983,1.428571 -1.40601,1.428571 -0.30733,0 -0.59132,-0.09989 -0.82258,-0.269821 -5.6e-4,0 0,0 -5.6e-4,0 L 14.18273,13.1395 c -0.0157,-0.01229 -0.028,-0.02175 -0.0437,-0.03403 -0.54054,-0.416857 -0.88911,-1.077 -0.88911,-1.820036 v -1.142286 c 0,-0.789071 -0.62951,-1.429142 -1.40625,-1.429142 H 4.531351 c -0.776742,0 -1.406813,0.640071 -1.406813,1.429142 v 4 c 0,0.625572 0.398532,1.150965 0.950344,1.344858 0.02211,0.05275 0.0765,0.08371 0.174832,0.08371 0.416531,0 1.125281,0.639214 1.125281,1.428286 v 0.571714 c 0,0.157357 0.125789,0.285428 0.28097,0.285428 0.05959,0 0.114538,-0.01897 0.160382,-0.05107 7.33e-4,0 0,5.71e-4 0,5.71e-4 l 2.36552,-1.802178 c 0.353223,-0.27175 0.793483,-0.43275 1.271393,-0.43275 h 2.10913 c 0.31064,0 0.5625,0.255572 0.5625,0.571428 0,0.315 -0.25186,0.570858 -0.5625,0.570858 H 9.5935 c -0.32161,0 -0.61868,0.109642 -0.855,0.295214 l -2.259213,1.721249 h -5.6e-4 C 6.247227,18.900107 5.963234,19 5.656039,19 4.879297,19 4.249789,18.360786 4.249789,17.571714 v -0.286285 c 0,-0.315 -0.251718,-0.571429 -0.5625,-0.571429 -0.06209,0 -0.07513,-0.03682 -0.05906,-0.09096 C 2.68843,16.349036 2,15.471536 2,14.428571 V 9.857143 C 2,8.594571 3.007051,7.571714 4.249754,7.571714 h 7.875176 c 1.2426,0 2.25032,1.022893 2.25032,2.285429 v 1.428286 c 0,0.374714 0.17715,0.707321 0.45098,0.91575 l 1.3571,1.034035 c 6.7e-4,0 -5.6e-4,-5.71e-4 0,-5.71e-4 0.0456,0.03207 0.10108,0.05079 0.16066,0.05079 0.15518,0 0.28098,-0.127786 0.28098,-0.285428 v -0.57143 C 16.62497,11.6395 17.33357,11 17.75,11 c 0.54246,0 1.12472,-0.639214 1.12472,-1.428286 v -4 c 0,-0.789357 -0.62923,-1.428571 -1.40601,-1.428571 h -7.31267 c -0.77674,0 -1.40615,0.639214 -1.40615,1.428571 v 0.285429 c 0,0.315571 -0.251717,0.571428 -0.562637,0.571428 -0.31078,0 -0.5625,-0.255857 -0.5625,-0.571428 V 5.285429 C 7.624753,4.023143 8.63237,3 9.87507,3 H 17.75 C 18.99285,3 20,4.023143 20,5.285429 v 4.571714 c 0,1.262286 -0.89015,2.286 -1.68722,2.286 z m -4.50031,2.285428 c 0.31036,0 0.56278,0.255858 0.56278,0.571429 0,0.315857 -0.25242,0.571714 -0.56278,0.571714 -0.31064,0 -0.56254,-0.255857 -0.56254,-0.571714 0,-0.315571 0.2519,-0.571429 0.56254,-0.571429 z"
       id="path2-2-3"
       style="stroke-width:0.0354342;fill-opacity:1;fill:currentColor;opacity:0.5;"
       class="ColorScheme-Text" />
  </g>
  <g
     id="22-22-quassel-message"
     transform="translate(32,-22)"
     style="fill:#eceff4;fill-opacity:1">
    <rect
       style="opacity:0.00100002;fill:#eceff4;fill-opacity:1"
       width="22"
       height="22"
       x="-32"
       y="0"
       id="rect7" />
    <path
       d="M -25.666669,9.666667 V 11 h -1.333334 v 0.666667 h 1.333334 V 13 h -1.333334 v 0.666667 h 1.333334 V 15 h 0.666666 v -1.333333 h 1.333334 V 15 h 0.666666 v -1.333333 h 1.333334 V 13 h -1.333334 v -1.333333 h 1.333334 V 11 h -1.333334 V 9.666667 h -0.666666 V 11 h -1.333334 V 9.666667 Z m 0.666666,2 h 1.333334 V 13 h -1.333334 z"
       id="path30-3-6"
       style="stroke-width:0.333333;fill-opacity:1;fill:currentColor;"
       inkscape:connector-curvature="0"
       class="ColorScheme-Highlight" />
    <rect
       height="1.3333334"
       rx="0.66666669"
       y="6.3333321"
       x="-15.666668"
       width="1.3333334"
       id="rect36-6-0"
       style="stroke-width:0.333333;fill-opacity:1;fill:currentColor;"
       class="ColorScheme-Highlight" />
    <rect
       height="1.3333334"
       rx="0.66666669"
       y="6.3333321"
       x="-17.666668"
       width="1.3333334"
       id="rect38-7-6"
       style="stroke-width:0.333333;fill-opacity:1;fill:currentColor;"
       class="ColorScheme-Highlight" />
    <path
       fill-rule="evenodd"
       clip-rule="evenodd"
       d="m -13.687223,12.143143 c -0.310639,0 -0.56278,0.255857 -0.56278,0.570857 V 13 c 0,0.789071 -0.629824,1.428571 -1.406004,1.428571 -0.307335,0 -0.591328,-0.09989 -0.822585,-0.269821 -5.64e-4,0 0,0 -5.64e-4,0 l -1.338116,-1.01925 c -0.01563,-0.01229 -0.02801,-0.02175 -0.04367,-0.03403 -0.540528,-0.416857 -0.889103,-1.077 -0.889103,-1.820036 v -1.142286 c 0,-0.789071 -0.629507,-1.429142 -1.406249,-1.429142 h -7.312315 c -0.776742,0 -1.406813,0.640071 -1.406813,1.429142 v 4 c 0,0.625572 0.398532,1.150965 0.950344,1.344858 0.02211,0.05275 0.0765,0.08371 0.174832,0.08371 0.416532,0 1.125282,0.639214 1.125282,1.428286 v 0.571714 c 0,0.157357 0.125788,0.285428 0.280968,0.285428 0.05959,0 0.114539,-0.01897 0.160383,-0.05107 7.33e-4,0 0,5.71e-4 0,5.71e-4 l 2.365523,-1.802178 c 0.353216,-0.27175 0.793478,-0.43275 1.271392,-0.43275 h 2.109127 c 0.310643,0 0.562501,0.255572 0.562501,0.571428 0,0.315 -0.251858,0.570858 -0.562501,0.570858 h -1.968889 c -0.32161,0 -0.61868,0.109642 -0.855,0.295214 l -2.259212,1.721249 h -5.62e-4 C -25.752776,18.900107 -26.036769,19 -26.343963,19 c -0.776743,0 -1.40625,-0.639214 -1.40625,-1.428286 v -0.286285 c 0,-0.315 -0.251719,-0.571429 -0.5625,-0.571429 -0.06209,0 -0.07513,-0.03682 -0.05906,-0.09096 C -29.31157,16.34904 -30,15.47154 -30,14.428575 V 9.857147 c 0,-1.262572 1.007051,-2.285429 2.249754,-2.285429 h 7.875175 c 1.242598,0 2.250318,1.022893 2.250318,2.285429 v 1.428286 c 0,0.374714 0.177151,0.707321 0.450984,0.91575 l 1.357102,1.034035 c 8e-4,0 -5.63e-4,-5.71e-4 0,-5.71e-4 0.04561,0.03207 0.101073,0.05079 0.160663,0.05079 0.15518,0 0.280969,-0.127786 0.280969,-0.285428 v -0.57143 C -15.375037,11.6395 -14.666429,11 -14.250003,11 c 0.542461,0 1.12472,-0.639214 1.12472,-1.428286 v -4 c 0,-0.789357 -0.629228,-1.428571 -1.406004,-1.428571 h -7.312676 c -0.776742,0 -1.406144,0.639214 -1.406144,1.428571 v 0.285429 c 0,0.315571 -0.25172,0.571428 -0.562642,0.571428 -0.310781,0 -0.5625,-0.255857 -0.5625,-0.571428 V 5.285429 C -24.375249,4.023143 -23.367634,3 -22.124932,3 h 7.874929 c 1.242844,0 2.25,1.023143 2.25,2.285429 v 4.571714 c 0,1.262286 -0.890156,2.286 -1.68722,2.286 z m -4.500315,2.285428 c 0.31036,0 0.562783,0.255858 0.562783,0.571429 0,0.315857 -0.252423,0.571714 -0.562783,0.571714 -0.310641,0 -0.562535,-0.255857 -0.562535,-0.571714 0,-0.315571 0.251894,-0.571429 0.562535,-0.571429 z"
       id="path2-5-2"
       style="stroke-width:0.0354342;fill-opacity:1;fill:currentColor;"
       class="ColorScheme-Highlight " />
  </g>
  <g
     id="22-22-quassel"
     transform="translate(32,-22)"
     style="fill:#eceff4;fill-opacity:1">
    <rect
       style="opacity:0.00100002;fill:#eceff4;fill-opacity:1"
       width="22"
       height="22"
       x="-64"
       y="0"
       id="rect2" />
    <path
       d="M -57.666669,9.666667 V 11 h -1.333334 v 0.666667 h 1.333334 V 13 h -1.333334 v 0.666667 h 1.333334 V 15 h 0.666666 v -1.333333 h 1.333334 V 15 h 0.666666 v -1.333333 h 1.333334 V 13 h -1.333334 v -1.333333 h 1.333334 V 11 h -1.333334 V 9.666667 h -0.666666 V 11 h -1.333334 V 9.666667 Z m 0.666666,2 h 1.333334 V 13 h -1.333334 z"
       id="path30-3-61"
       style="stroke-width:0.333333;fill-opacity:1;fill:currentColor;"
       inkscape:connector-curvature="0"
       class="ColorScheme-Text" />
    <rect
       height="1.3333334"
       rx="0.66666669"
       y="6.3333316"
       x="-47.666672"
       width="1.3333334"
       id="rect36-6-8"
       style="stroke-width:0.333333;fill-opacity:1;fill:currentColor;"
       class="ColorScheme-Text" />
    <rect
       height="1.3333334"
       rx="0.66666669"
       y="6.3333316"
       x="-49.666672"
       width="1.3333334"
       id="rect38-7-7"
       style="stroke-width:0.333333;fill-opacity:1;fill:currentColor;"
       class="ColorScheme-Text" />
    <path
       fill-rule="evenodd"
       clip-rule="evenodd"
       d="m -45.687223,12.143143 c -0.310639,0 -0.56278,0.255857 -0.56278,0.570857 V 13 c 0,0.789071 -0.629824,1.428571 -1.406004,1.428571 -0.307335,0 -0.591328,-0.09989 -0.822585,-0.269821 -5.64e-4,0 0,0 -5.64e-4,0 l -1.338116,-1.01925 c -0.01563,-0.01229 -0.02801,-0.02175 -0.04367,-0.03403 -0.540528,-0.416857 -0.889103,-1.077 -0.889103,-1.820036 v -1.142286 c 0,-0.789071 -0.629507,-1.429142 -1.406249,-1.429142 h -7.312315 c -0.776742,0 -1.406813,0.640071 -1.406813,1.429142 v 4 c 0,0.625572 0.398532,1.150965 0.950344,1.344858 0.02211,0.05275 0.0765,0.08371 0.174832,0.08371 0.416532,0 1.125282,0.639214 1.125282,1.428286 v 0.571714 c 0,0.157357 0.125788,0.285428 0.280968,0.285428 0.05959,0 0.114539,-0.01897 0.160383,-0.05107 7.33e-4,0 0,5.71e-4 0,5.71e-4 l 2.365523,-1.802178 c 0.353216,-0.27175 0.793478,-0.43275 1.271392,-0.43275 h 2.109127 c 0.310643,0 0.562501,0.255572 0.562501,0.571428 0,0.315 -0.251858,0.570858 -0.562501,0.570858 h -1.968889 c -0.32161,0 -0.61868,0.109642 -0.855,0.295214 l -2.259212,1.721249 h -5.62e-4 C -57.752776,18.900107 -58.036769,19 -58.343963,19 c -0.776743,0 -1.40625,-0.639214 -1.40625,-1.428286 v -0.286285 c 0,-0.315 -0.251719,-0.571429 -0.5625,-0.571429 -0.06209,0 -0.07513,-0.03682 -0.05906,-0.09096 C -61.31157,16.34904 -62,15.47154 -62,14.428575 V 9.857147 c 0,-1.262572 1.007051,-2.285429 2.249754,-2.285429 h 7.875175 c 1.242598,0 2.250318,1.022893 2.250318,2.285429 v 1.428286 c 0,0.374714 0.177151,0.707321 0.450984,0.91575 l 1.357102,1.034035 c 8e-4,0 -5.63e-4,-5.71e-4 0,-5.71e-4 0.04561,0.03207 0.101073,0.05079 0.160663,0.05079 0.15518,0 0.280969,-0.127786 0.280969,-0.285428 v -0.57143 C -47.375037,11.6395 -46.666429,11 -46.250003,11 c 0.542461,0 1.12472,-0.639214 1.12472,-1.428286 v -4 c 0,-0.789357 -0.629228,-1.428571 -1.406004,-1.428571 h -7.312676 c -0.776742,0 -1.406144,0.639214 -1.406144,1.428571 v 0.285429 c 0,0.315571 -0.25172,0.571428 -0.562642,0.571428 -0.310781,0 -0.5625,-0.255857 -0.5625,-0.571428 V 5.285429 C -56.375249,4.023143 -55.367634,3 -54.124932,3 h 7.874929 c 1.242844,0 2.25,1.023143 2.25,2.285429 v 4.571714 c 0,1.262286 -0.890156,2.286 -1.68722,2.286 z m -4.500315,2.285428 c 0.31036,0 0.562783,0.255858 0.562783,0.571429 0,0.315857 -0.252423,0.571714 -0.562783,0.571714 -0.310641,0 -0.562535,-0.255857 -0.562535,-0.571714 0,-0.315571 0.251894,-0.571429 0.562535,-0.571429 z"
       id="path2-5-9"
       style="stroke-width:0.0354342;fill-opacity:1;fill:currentColor;"
       class="ColorScheme-Text" />
  </g>
  <metadata
     id="metadata38">
    <rdf:RDF>
      <cc:Work
         rdf:about="">
        <dc:format>image/svg+xml</dc:format>
        <dc:type
           rdf:resource="http://purl.org/dc/dcmitype/StillImage" />
      </cc:Work>
    </rdf:RDF>
  </metadata>
  <defs
     id="defs36">
    <linearGradient
       xlink:href="#b"
       id="e"
       gradientUnits="userSpaceOnUse"
       x1="7"
       y1="14"
       x2="27"
       y2="34"
       gradientTransform="translate(-57,-10)" />
    <linearGradient
       id="b"
       y1="14"
       x1="7"
       y2="34"
       x2="27"
       gradientUnits="userSpaceOnUse">
      <stop
         stop-opacity=".691"
         id="stop12" />
      <stop
         offset="1"
         stop-opacity="0"
         id="stop14" />
    </linearGradient>
    <linearGradient
       xlink:href="#a"
       id="f"
       gradientUnits="userSpaceOnUse"
       y1="30"
       x2="0"
       y2="14"
       gradientTransform="matrix(0.5,0,0,0.5,4,4)" />
    <linearGradient
       id="a"
       y1="30"
       y2="14"
       x2="0"
       gradientUnits="userSpaceOnUse">
      <stop
         stop-color="#c2d4e7"
         id="stop7" />
      <stop
         offset="1"
         stop-color="#e0e3f7"
         id="stop9" />
    </linearGradient>
    <linearGradient
       xlink:href="#b"
       id="g"
       y1="27"
       x1="32"
       y2="32"
       gradientUnits="userSpaceOnUse"
       x2="38"
       gradientTransform="translate(-57,-9)" />
    <linearGradient
       xlink:href="#b"
       id="h"
       y1="27"
       x1="32"
       y2="32"
       gradientUnits="userSpaceOnUse"
       x2="38"
       gradientTransform="translate(-51,-9)" />
    <linearGradient
       xlink:href="#a"
       id="i"
       y1="529.79999"
       y2="525.79999"
       x2="0"
       gradientUnits="userSpaceOnUse"
       gradientTransform="matrix(0.5,0,0,0.5,-174.285,-245.9)" />
    <linearGradient
       id="linearGradient902"
       y1="30"
       y2="14"
       x2="0"
       gradientUnits="userSpaceOnUse">
      <stop
         stop-color="#c2d4e7"
         id="stop898" />
      <stop
         offset="1"
         stop-color="#e0e3f7"
         id="stop900" />
    </linearGradient>
    <linearGradient
       xlink:href="#a"
       id="j"
       y1="529.79999"
       y2="525.79999"
       gradientUnits="userSpaceOnUse"
       x2="0"
       gradientTransform="matrix(0.5,0,0,0.5,-177.285,-245.9)" />
    <linearGradient
       id="linearGradient909"
       y1="30"
       y2="14"
       x2="0"
       gradientUnits="userSpaceOnUse">
      <stop
         stop-color="#c2d4e7"
         id="stop905" />
      <stop
         offset="1"
         stop-color="#e0e3f7"
         id="stop907" />
    </linearGradient>
  </defs>
  <sodipodi:namedview
     pagecolor="#ffffff"
     bordercolor="#666666"
     borderopacity="1"
     objecttolerance="10"
     gridtolerance="10"
     guidetolerance="10"
     inkscape:pageopacity="0"
     inkscape:pageshadow="2"
     inkscape:window-width="1920"
     inkscape:window-height="1013"
     id="namedview34"
     showgrid="false"
     inkscape:zoom="5.6568542"
     inkscape:cx="6.3639611"
     inkscape:cy="12.904699"
     inkscape:window-x="0"
     inkscape:window-y="0"
     inkscape:window-maximized="1"
     inkscape:current-layer="svg32"
     inkscape:document-rotation="0"
     showguides="false"
     inkscape:lockguides="true"
     inkscape:pagecheckerboard="0">
    <inkscape:grid
       type="xygrid"
       id="grid948"
       originx="-32"
       originy="0" />
  </sodipodi:namedview>
  <g
     id="g4"
     transform="matrix(0.20660017,0,0,0.20660017,-84.3303,3.075656)" />
  <g
     id="quassel"
     transform="translate(32,-22)">
    <rect
       style="opacity:0.00100002;fill:#a8aeca;fill-opacity:1"
       width="32"
       height="32"
       x="-64"
       y="22"
       id="rect17" />
    <path
       d="m -55,36 v 2 h -2 v 1 h 2 v 2 h -2 v 1 h 2 v 2 h 1 v -2 h 2 v 2 h 1 v -2 h 2 v -1 h -2 v -2 h 2 v -1 h -2 v -2 h -1 v 2 h -2 v -2 z m 1,3 h 2 v 2 h -2 z"
       id="path30"
       style="stroke-width:0.5;fill-opacity:1;fill:currentColor;"
       inkscape:connector-curvature="0"
       class="ColorScheme-Text" />
    <rect
       height="2"
       rx="1"
       y="31"
       x="-40"
       width="2"
       id="rect36"
       style="stroke-width:0.5;fill-opacity:1;fill:currentColor;"
       class="ColorScheme-Text" />
    <rect
       height="2"
       rx="1"
       y="31"
       x="-43"
       width="2"
       id="rect38"
       style="stroke-width:0.5;fill-opacity:1;fill:currentColor;"
       class="ColorScheme-Text" />
    <path
       fill-rule="evenodd"
       clip-rule="evenodd"
       d="m -37.03083,39.714714 c -0.465959,0 -0.84417,0.383786 -0.84417,0.856286 V 41 c 0,1.183607 -0.944736,2.142857 -2.109006,2.142857 -0.461003,0 -0.886993,-0.149839 -1.233878,-0.404732 -8.46e-4,0 0,0 -8.46e-4,0 l -2.007174,-1.528875 c -0.02345,-0.01843 -0.04202,-0.03262 -0.06551,-0.05105 -0.810792,-0.625285 -1.333654,-1.6155 -1.333654,-2.730053 v -1.713429 c 0,-1.183607 -0.944261,-2.143714 -2.109374,-2.143714 h -10.968472 c -1.165113,0 -2.110219,0.960107 -2.110219,2.143714 v 6 c 0,0.938357 0.597798,1.726447 1.425516,2.017286 0.03317,0.07912 0.11475,0.125571 0.262248,0.125571 0.624797,0 1.687922,0.958822 1.687922,2.142429 v 0.857571 c 0,0.236036 0.188683,0.428143 0.421454,0.428143 0.08938,0 0.171807,-0.02845 0.240573,-0.07661 0.0011,0 0,8.57e-4 0,8.57e-4 l 3.548285,-2.703268 c 0.529824,-0.407625 1.190216,-0.649125 1.907087,-0.649125 h 3.163691 c 0.465964,0 0.843751,0.383358 0.843751,0.857143 0,0.4725 -0.377787,0.856286 -0.843751,0.856286 h -2.953333 c -0.482416,0 -0.92802,0.164464 -1.282501,0.442821 l -3.388817,2.581874 h -8.43e-4 C -55.12916,49.850161 -55.555149,50 -56.015941,50 c -1.165114,0 -2.109375,-0.958821 -2.109375,-2.142429 v -0.429428 c 0,-0.4725 -0.377578,-0.857143 -0.84375,-0.857143 -0.09313,0 -0.112694,-0.05523 -0.08859,-0.136446 -1.409695,-0.411 -2.44234,-1.72725 -2.44234,-3.291697 v -6.857143 c 0,-1.893857 1.510577,-3.428143 3.374631,-3.428143 h 11.812763 c 1.863897,0 3.375477,1.53434 3.375477,3.428143 v 2.142429 c 0,0.562071 0.265726,1.060982 0.676475,1.373625 l 2.035653,1.551053 c 0.0012,0 -8.44e-4,-8.57e-4 0,-8.57e-4 0.06841,0.04811 0.15161,0.07618 0.240995,0.07618 0.23277,0 0.421454,-0.191679 0.421454,-0.428143 V 40.142857 C -39.562552,38.95925 -38.49964,38 -37.875,38 c 0.813691,0 1.68708,-0.958821 1.68708,-2.142429 v -6 c 0,-1.184035 -0.943842,-2.142857 -2.109007,-2.142857 H -49.26594 c -1.165114,0 -2.109217,0.958822 -2.109217,2.142857 v 0.428143 c 0,0.473357 -0.377579,0.857143 -0.843963,0.857143 -0.466171,0 -0.84375,-0.383786 -0.84375,-0.857143 V 29.428143 C -53.06287,27.534714 -51.551447,26 -49.687394,26 H -37.875 c 1.864265,0 3.375,1.534714 3.375,3.428143 v 6.857571 c 0,1.893429 -1.335235,3.429 -2.53083,3.429 z m -6.750473,3.428143 c 0.46554,0 0.844174,0.383786 0.844174,0.857143 0,0.473786 -0.378634,0.857571 -0.844174,0.857571 -0.465961,0 -0.843803,-0.383785 -0.843803,-0.857571 0,-0.473357 0.377842,-0.857143 0.843803,-0.857143 z"
       id="path2"
       style="stroke-width:0.0531513;fill-opacity:1;fill:currentColor;"
       class="ColorScheme-Text " />
  </g>
  <g
     id="quassel-message"
     transform="translate(32,-22)"
     style="fill:#eceff4;fill-opacity:1">
    <rect
       style="opacity:0.00100002;fill:#eceff4;fill-opacity:1"
       width="32"
       height="32"
       x="-32"
       y="22"
       id="rect22" />
    <path
       d="m -23.000004,36 v 2 h -2 v 1 h 2 v 2 h -2 v 1 h 2 v 2 h 1 v -2 h 2 v 2 h 1 v -2 h 2 v -1 h -2 v -2 h 2 v -1 h -2 v -2 h -1 v 2 h -2 v -2 z m 1,3 h 2 v 2 h -2 z"
       id="path30-3"
       style="stroke-width:0.5;fill-opacity:1;fill:currentColor;"
       inkscape:connector-curvature="0"
       class="ColorScheme-Highlight" />
    <rect
       height="2"
       rx="1"
       y="30.999998"
       x="-8.0000019"
       width="2"
       id="rect36-6"
       style="stroke-width:0.5;fill-opacity:1;fill:currentColor;"
       class="ColorScheme-Highlight " />
    <rect
       height="2"
       rx="1"
       y="30.999998"
       x="-11.000002"
       width="2"
       id="rect38-7"
       style="stroke-width:0.5;fill-opacity:1;fill:currentColor;"
       class="ColorScheme-Highlight" />
    <path
       fill-rule="evenodd"
       clip-rule="evenodd"
       d="m -5.030834,39.714714 c -0.465959,0 -0.84417,0.383786 -0.84417,0.856286 V 41 c 0,1.183607 -0.944736,2.142857 -2.109006,2.142857 -0.461003,0 -0.886993,-0.149839 -1.233878,-0.404732 -8.46e-4,0 0,0 -8.46e-4,0 l -2.007174,-1.528875 c -0.02345,-0.01843 -0.04202,-0.03262 -0.06551,-0.05105 -0.810792,-0.625285 -1.333654,-1.6155 -1.333654,-2.730053 v -1.713429 c 0,-1.183607 -0.944261,-2.143714 -2.109374,-2.143714 h -10.968472 c -1.165113,0 -2.110219,0.960107 -2.110219,2.143714 v 6 c 0,0.938357 0.597798,1.726447 1.425516,2.017286 0.03317,0.07912 0.11475,0.125571 0.262248,0.125571 0.624797,0 1.687922,0.958822 1.687922,2.142429 v 0.857571 c 0,0.236036 0.188683,0.428143 0.421453,0.428143 0.08938,0 0.171808,-0.02845 0.240574,-0.07661 0.0011,0 0,8.57e-4 0,8.57e-4 l 3.548285,-2.703268 c 0.529824,-0.407625 1.190216,-0.649125 1.907087,-0.649125 h 3.163691 c 0.465964,0 0.843751,0.383358 0.843751,0.857143 0,0.4725 -0.377787,0.856286 -0.843751,0.856286 h -2.953333 c -0.482416,0 -0.92802,0.164464 -1.282501,0.442821 l -3.388817,2.581874 h -8.43e-4 C -23.129164,49.850161 -23.555153,50 -24.015945,50 c -1.165114,0 -2.109375,-0.958821 -2.109375,-2.142429 v -0.429428 c 0,-0.4725 -0.377578,-0.857143 -0.84375,-0.857143 -0.09313,0 -0.112694,-0.05523 -0.08859,-0.136446 -1.409695,-0.411 -2.44234,-1.72725 -2.44234,-3.291697 v -6.857143 c 0,-1.893857 1.510577,-3.428143 3.374631,-3.428143 h 11.812763 c 1.863897,0 3.375477,1.53434 3.375477,3.428143 v 2.142429 c 0,0.562071 0.265726,1.060982 0.676475,1.373625 l 2.035653,1.551053 c 0.0012,0 -8.44e-4,-8.57e-4 0,-8.57e-4 0.06841,0.04811 0.15161,0.07618 0.240995,0.07618 0.23277,0 0.421454,-0.191679 0.421454,-0.428143 V 40.142857 C -7.562556,38.95925 -6.499644,38 -5.875004,38 c 0.813691,0 1.68708,-0.958821 1.68708,-2.142429 v -6 c 0,-1.184035 -0.943842,-2.142857 -2.109007,-2.142857 h -10.969013 c -1.165114,0 -2.109217,0.958822 -2.109217,2.142857 v 0.428143 c 0,0.473357 -0.377579,0.857143 -0.843963,0.857143 -0.466171,0 -0.84375,-0.383786 -0.84375,-0.857143 V 29.428143 C -21.062874,27.534714 -19.551451,26 -17.687398,26 h 11.812394 c 1.864265,0 3.375,1.534714 3.375,3.428143 v 6.857571 c 0,1.893429 -1.335235,3.429 -2.53083,3.429 z m -6.750473,3.428143 c 0.46554,0 0.844174,0.383786 0.844174,0.857143 0,0.473786 -0.378634,0.857571 -0.844174,0.857571 -0.465961,0 -0.843803,-0.383785 -0.843803,-0.857571 0,-0.473357 0.377842,-0.857143 0.843803,-0.857143 z"
       id="path2-5"
       style="stroke-width:0.0531513;fill-opacity:1;fill:currentColor;"
       class="ColorScheme-Highlight" />
  </g>
  <g
     id="quassel-inactive"
     transform="translate(32)"
     style="fill:#eceff4;fill-opacity:1">
    <rect
       style="opacity:0.00100002;fill:#eceff4;fill-opacity:1"
       width="32"
       height="32"
       x="0"
       y="0"
       id="rect27" />
    <path
       d="m 9,14 v 2 H 7 v 1 h 2 v 2 H 7 v 1 h 2 v 2 h 1 v -2 h 2 v 2 h 1 v -2 h 2 v -1 h -2 v -2 h 2 v -1 h -2 v -2 h -1 v 2 h -2 v -2 z m 1,3 h 2 v 2 h -2 z"
       id="path30-35"
       style="stroke-width:0.5;fill-opacity:1;fill:currentColor;opacity:0.5;"
       inkscape:connector-curvature="0"
       class="ColorScheme-Text" />
    <rect
       height="2"
       rx="1"
       y="9"
       x="24"
       width="2"
       id="rect36-62"
       style="stroke-width:0.5;fill-opacity:1;fill:currentColor;opacity:0.5;"
       class="ColorScheme-Text" />
    <rect
       height="2"
       rx="1"
       y="9"
       x="21"
       width="2"
       id="rect38-91"
       style="stroke-width:0.5;fill-opacity:1;fill:currentColor;opacity:0.5;"
       class="ColorScheme-Text" />
    <path
       fill-rule="evenodd"
       clip-rule="evenodd"
       d="m 26.96917,17.714714 c -0.46596,0 -0.84417,0.383786 -0.84417,0.856286 V 19 c 0,1.183607 -0.94474,2.142857 -2.10901,2.142857 -0.461,0 -0.88699,-0.149839 -1.23387,-0.404732 -8.5e-4,0 0,0 -8.5e-4,0 L 20.7741,19.20925 c -0.0235,-0.01843 -0.042,-0.03262 -0.0655,-0.05105 -0.8108,-0.625285 -1.33366,-1.6155 -1.33366,-2.730053 v -1.713429 c 0,-1.183607 -0.94426,-2.143714 -2.10937,-2.143714 H 6.297086 c -1.165113,0 -2.110219,0.960107 -2.110219,2.143714 v 6 c 0,0.938357 0.597798,1.726447 1.425516,2.017286 0.03317,0.07912 0.11475,0.125571 0.262248,0.125571 0.624797,0 1.687922,0.958822 1.687922,2.142429 v 0.857571 c 0,0.236036 0.188683,0.428143 0.421454,0.428143 0.08938,0 0.171807,-0.02845 0.240573,-0.07661 0.0011,0 0,8.57e-4 0,8.57e-4 l 3.54828,-2.703268 c 0.52983,-0.407625 1.19022,-0.649125 1.90709,-0.649125 h 3.16369 c 0.46597,0 0.84375,0.383358 0.84375,0.857143 0,0.4725 -0.37778,0.856286 -0.84375,0.856286 h -2.95333 c -0.48242,0 -0.92802,0.164464 -1.2825,0.442821 L 9.218992,27.595696 H 9.218149 C 8.87084,27.850161 8.444851,28 7.984059,28 6.818945,28 5.874684,27.041179 5.874684,25.857571 v -0.429428 c 0,-0.4725 -0.377578,-0.857143 -0.84375,-0.857143 -0.09313,0 -0.112694,-0.05523 -0.08859,-0.136446 C 3.532645,24.023554 2.5,22.707304 2.5,21.142857 v -6.857143 c 0,-1.893857 1.510577,-3.428143 3.374631,-3.428143 H 17.68739 c 1.8639,0 3.37548,1.53434 3.37548,3.428143 v 2.142429 c 0,0.562071 0.26573,1.060982 0.67648,1.373625 l 2.03565,1.551053 c 0.001,0 -8.4e-4,-8.57e-4 0,-8.57e-4 0.0684,0.04811 0.15161,0.07618 0.24099,0.07618 0.23277,0 0.42146,-0.191679 0.42146,-0.428143 V 18.142857 C 24.43745,16.95925 25.50036,16 26.125,16 c 0.81369,0 1.68708,-0.958821 1.68708,-2.142429 v -6 c 0,-1.184035 -0.94384,-2.142857 -2.10901,-2.142857 H 14.73406 c -1.16511,0 -2.10922,0.958822 -2.10922,2.142857 v 0.428143 c 0,0.473357 -0.37758,0.857143 -0.84396,0.857143 -0.46617,0 -0.84375,-0.383786 -0.84375,-0.857143 V 7.428143 C 10.93713,5.534714 12.44855,4 14.31261,4 H 26.125 C 27.98927,4 29.5,5.534714 29.5,7.428143 v 6.857571 c 0,1.893429 -1.33523,3.429 -2.53083,3.429 z m -6.75047,3.428143 c 0.46554,0 0.84417,0.383786 0.84417,0.857143 0,0.473786 -0.37863,0.857571 -0.84417,0.857571 -0.46596,0 -0.84381,-0.383785 -0.84381,-0.857571 0,-0.473357 0.37785,-0.857143 0.84381,-0.857143 z"
       id="path2-2"
       style="stroke-width:0.0531513;fill-opacity:1;fill:currentColor;opacity:0.5;"
       class="ColorScheme-Text" />
  </g>
</svg>
