<?xml version="1.0" encoding="UTF-8" standalone="no"?>
<svg
   width="32"
   height="32"
   version="1.1"
   id="svg78"
   sodipodi:docname="quota.svg"
   inkscape:version="1.2.2 (b0a8486541, 2022-12-01)"
   xmlns:inkscape="http://www.inkscape.org/namespaces/inkscape"
   xmlns:sodipodi="http://sodipodi.sourceforge.net/DTD/sodipodi-0.dtd"
   xmlns="http://www.w3.org/2000/svg"
   xmlns:svg="http://www.w3.org/2000/svg">
  <sodipodi:namedview
     id="namedview80"
     pagecolor="#cccccc"
     bordercolor="#000000"
     borderopacity="1"
     inkscape:pageshadow="2"
     inkscape:pageopacity="0"
     inkscape:pagecheckerboard="0"
     showgrid="false"
     inkscape:zoom="7.9999996"
     inkscape:cx="2.8125001"
     inkscape:cy="13.437501"
     inkscape:window-width="1920"
     inkscape:window-height="1002"
     inkscape:window-x="0"
     inkscape:window-y="0"
     inkscape:window-maximized="1"
     inkscape:current-layer="svg78"
     showguides="false"
     inkscape:lockguides="true"
     inkscape:showpageshadow="true"
     inkscape:deskcolor="#808080">
    <inkscape:grid
       type="xygrid"
       id="grid1005"
       originx="31.467962"
       originy="12.247845" />
  </sodipodi:namedview>
  <defs
     id="l4k1">
    <style
       id="current-color-scheme"
       type="text/css">.ColorScheme-Background { color:#181818; }
.ColorScheme-ButtonBackground { color:#343434; }
.ColorScheme-Highlight { color:#4285f4; }
.ColorScheme-Text { color:#dfdfdf; }
.ColorScheme-ViewBackground { color:#242424; }
.ColorScheme-NegativeText { color:#f44336; }
.ColorScheme-PositiveText { color:#4caf50; }
.ColorScheme-NeutralText { color:#ff9800; }
</style>
  </defs>
  <g
     transform="matrix(1.5,0,0,1.5,163.46796,16.248145)"
     id="g70" />
  <g
     id="quota">
    <rect
       style="opacity:0.00100002"
       width="32"
       height="32"
       x="0"
       y="0"
       id="rect35" />
    <path
       d="M 26.3,28 H 5.728571 C 3.835143,28 2.3,26.464857 2.3,24.571429 V 22 c 0,-0.473357 0.383786,-0.857143 0.857143,-0.857143 0.473357,0 0.857143,0.383786 0.857143,0.857143 v 2.571429 c 0,0.946714 0.767571,1.714285 1.714285,1.714285 H 26.3 c 0.946714,0 1.714286,-0.767571 1.714286,-1.714285 V 17.714286 C 28.014286,16.767571 27.246714,16 26.3,16 h -4.473643 c -0.562071,0 -1.051768,0.309696 -1.307893,0.766714 0.01929,-0.03514 0.03471,-0.06739 0.04645,-0.09836 -0.859232,1.64025 -2.571429,2.760214 -4.550625,2.760214 -1.979197,0 -3.691393,-1.119964 -4.550625,-2.76016 0.01173,0.03096 0.02721,0.06321 0.04687,0.09836 C 11.253977,16.309696 10.764281,16 10.201352,16 H 5.728566 5.326352 c -1.183607,0 -2.142857,-0.95925 -2.142857,-2.142857 0,-0.204643 0.02887,-0.401357 0.08245,-0.589286 0.02764,-0.09541 0,-0.142286 -0.05609,-0.162803 L 4.563391,6.784857 C 5.222159,4.678857 6.660605,4 7.844212,4 h 16.285715 c 1.18441,0 2.62875,0.678857 3.294214,2.784857 l 1.053857,4.864929 -0.005,0.0012 c 0.08122,0.425625 -0.174053,0.847071 -0.598928,0.961339 -0.444911,0.118875 -0.902786,-0.145232 -1.022893,-0.590518 0,-8.57e-4 -8.04e-4,-0.0029 -8.04e-4,-0.0038 l -0.003,8.57e-4 -1.208625,-5.578875 C 25.520694,6.034857 25.044391,5.714286 24.571087,5.714286 H 7.41773 c -0.473786,0 -0.947946,0.320571 -1.061786,0.725732 l -1.441875,6.836625 c -0.154821,0.551196 0.179197,1.009071 0.751286,1.009071 h 4.536 c 1.224214,0 2.288947,0.684697 2.832161,1.691679 -8.57e-4,-0.0017 -0.0017,-0.0037 -0.0025,-0.0055 0.588054,1.039232 1.703411,1.742357 2.983286,1.742357 1.279875,0 2.394803,-0.703125 2.983285,-1.742304 -8.57e-4,0.0017 -0.0017,0.0038 -0.0025,0.0055 0.543214,-1.007035 1.607946,-1.691732 2.831303,-1.691732 h 4.473608 c 1.893429,0 3.428571,1.535143 3.428571,3.428572 v 6.857143 C 29.728569,26.464857 28.193427,28 26.299998,28 Z M 4.014286,18.571429 c 0,0.473357 -0.383786,0.857142 -0.857143,0.857142 C 2.683786,19.428571 2.3,19.044786 2.3,18.571429 c 0,-0.473358 0.383786,-0.857143 0.857143,-0.857143 0.473357,0 0.857143,0.383785 0.857143,0.857143 z"
       id="path2"
       style="fill:currentColor;fill-opacity:1;stroke-width:0.0535714"
       class="ColorScheme-Text " />
  </g>
  <g
     id="22-22-quota">
    <rect
       style="opacity:0.00100002"
       width="22"
       height="22"
       x="0"
       y="-22"
       id="rect12" />
    <path
       d="M 17.8,-3 H 4.085714 C 2.823429,-3 1.8,-4.023429 1.8,-5.285714 V -7 c 0,-0.315571 0.255857,-0.571429 0.571429,-0.571429 0.315571,0 0.571428,0.255858 0.571428,0.571429 v 1.714286 c 0,0.631143 0.511714,1.142857 1.142857,1.142857 H 17.8 c 0.631143,0 1.142857,-0.511714 1.142857,-1.142857 V -9.857143 C 18.942857,-10.488286 18.431143,-11 17.8,-11 h -2.982429 c -0.374714,0 -0.701178,0.206464 -0.871928,0.511143 0.01286,-0.02343 0.02314,-0.04493 0.03097,-0.06557 -0.572821,1.0935 -1.714286,1.840143 -3.03375,1.840143 -1.319464,0 -2.460928,-0.746643 -3.03375,-1.840107 0.0078,0.02064 0.01814,0.04214 0.03125,0.06557 C 7.769318,-10.793536 7.442854,-11 7.067568,-11 H 4.085711 3.817568 c -0.789071,0 -1.428571,-0.6395 -1.428571,-1.428571 0,-0.136429 0.01925,-0.267572 0.05497,-0.392858 0.01843,-0.06361 0,-0.09486 -0.03739,-0.108535 l 0.902357,-4.213465 C 3.748106,-18.547429 4.70707,-19 5.496141,-19 h 10.857144 c 0.789606,0 1.7525,0.452571 2.196142,1.856571 l 0.702572,3.243286 -0.0033,8e-4 c 0.05415,0.28375 -0.116035,0.564714 -0.399285,0.640893 -0.296607,0.07925 -0.601857,-0.09682 -0.681929,-0.393679 0,-5.71e-4 -5.36e-4,-0.0019 -5.36e-4,-0.0025 l -0.002,5.71e-4 -0.80575,-3.71925 c -0.0787,-0.270088 -0.396238,-0.483802 -0.711774,-0.483802 H 5.21182 c -0.315857,0 -0.631964,0.213714 -0.707857,0.483822 l -0.96125,4.55775 c -0.103214,0.367464 0.119464,0.672714 0.500857,0.672714 h 3.024 c 0.816143,0 1.525965,0.456464 1.888107,1.127786 -5.71e-4,-0.0011 -0.0011,-0.0025 -0.0017,-0.0037 0.392036,0.692821 1.135607,1.161571 1.988857,1.161571 0.85325,0 1.596535,-0.46875 1.988857,-1.161536 -5.72e-4,0.0011 -0.0011,0.0025 -0.0017,0.0037 0.362143,-0.671357 1.071964,-1.127821 1.887535,-1.127821 h 2.982406 c 1.262286,0 2.285714,1.023428 2.285714,2.285714 v 4.571429 c 0,1.262285 -1.023428,2.285714 -2.285714,2.285714 z M 2.942857,-9.285714 c 0,0.315571 -0.255857,0.571428 -0.571428,0.571428 C 2.055857,-8.714286 1.8,-8.970143 1.8,-9.285714 c 0,-0.315572 0.255857,-0.571429 0.571429,-0.571429 0.315571,0 0.571428,0.255857 0.571428,0.571429 z"
       id="path2-5"
       style="fill:currentColor;fill-opacity:1;stroke-width:0.0357143"
       class="ColorScheme-Text " />
  </g>
</svg>
