<?xml version="1.0" encoding="UTF-8" standalone="no"?>
<svg
   width="32"
   height="32"
   version="1.1"
   id="svg22"
   sodipodi:docname="sirikali.svg"
   inkscape:version="1.2.1 (9c6d41e410, 2022-07-14)"
   xmlns:inkscape="http://www.inkscape.org/namespaces/inkscape"
   xmlns:sodipodi="http://sodipodi.sourceforge.net/DTD/sodipodi-0.dtd"
   xmlns="http://www.w3.org/2000/svg"
   xmlns:svg="http://www.w3.org/2000/svg">
    <style
       id="current-color-scheme"
       type="text/css">.ColorScheme-Text { color:#eff0f1; }
</style>
  <g
     id="22-22-sirikali"
     transform="translate(32,9.9999733)">
    <rect
       style="opacity:0.00100002;fill:#d1d5e9;fill-opacity:1"
       width="22"
       height="22"
       x="0"
       y="0"
       id="rect2" />
    <path
       d="M 10.491528,11.790946 Z M 16.999966,19 H 4.999761 C 3.895256,19 3,18.104 3,16.999966 v -4.500028 c 0,-0.276376 0.22388,-0.500005 0.500239,-0.500005 0.275641,0 0.5,0.223629 0.5,0.500005 v 4.250032 c 0,0.690431 0.559573,1.249528 1.250021,1.249528 h 11.49971 c 0.690429,0 1.250532,-0.559118 1.250532,-1.249528 v -4.50053 c 0,-0.689944 -0.560103,-1.249874 -1.250532,-1.249874 H 7.750024 7.500239 7.499759 C 6.670908,10.999566 6,10.328188 6,9.500038 V 9.249519 7.99977 C 6,5.238286 8.238319,3 11.000281,3 c 2.761398,0 4.999685,2.238286 4.999685,4.99977 v 0.5 c 0,0.27638 -0.223618,0.5 -0.5,0.5 -0.275878,0 -0.5,-0.22362 -0.5,-0.5 v -0.5 c 0,-2.20921 -1.791034,-4.000274 -3.999685,-4.000274 -2.209251,0 -4.000042,1.791026 -4.000042,4.000274 v 0.749749 0.190915 0.309085 c 0,0.414331 0.335691,0.750551 0.749785,0.750551 h 0.309095 0.190905 6.499946 0.249996 1 0.250506 0.749494 C 18.104969,10.00007 19,10.895101 19,11.999933 v 5.000033 C 19,18.104 18.104969,19 16.999966,19 Z M 4.499761,10.999566 c -0.275641,0 -0.499522,-0.223636 -0.499522,-0.5 0,-0.275636 0.223882,-0.499496 0.499522,-0.499496 0.276359,0 0.5,0.22386 0.5,0.499496 0,0.276364 -0.223641,0.5 -0.5,0.5 z"
       id="path2-6-35-2-1"
       style="fill:currentColor;fill-opacity:1;stroke-width:0.0312506"
       class="ColorScheme-Text"
       sodipodi:nodetypes="ccccccccssssssssssssssssccsscsssssssssccsscccccsssss" />
    <path
       id="Key-6-9-2"
       class="st0  ColorScheme-Text"
       d="m 12.90476,13.171417 c 0,0.266664 -0.209521,0.476184 -0.476196,0.476184 -0.266666,0 -0.476182,-0.20952 -0.476182,-0.476184 0,-0.266672 0.209516,-0.476194 0.476182,-0.476194 0.266675,0 0.476196,0.209522 0.476196,0.476194 z m 0.761904,0.476184 c 0,0.942858 -0.771432,1.71428 -1.714282,1.71428 -0.171434,0 -0.342861,-0.02851 -0.495234,-0.07618 L 9.47619,17.266652 H 8.333336 V 16.314273 H 8.90476 v -0.571431 h 0.57143 v -0.57142 h 0.571428 v -0.571447 l 0.314287,-0.314293 c -0.07616,-0.19999 -0.123803,-0.40951 -0.123803,-0.638084 0,-0.942855 0.77142,-1.71428 1.71428,-1.71428 0.94285,0 1.714282,0.771425 1.714282,1.714283 z"
       style="stroke-width:0.09524;fill-rule:evenodd;fill-opacity:1;fill:currentColor;clip-rule:evenodd;" />
  </g>
  <defs
     id="defs26" />
  <sodipodi:namedview
     id="namedview24"
     pagecolor="#ffffff"
     bordercolor="#000000"
     borderopacity="1"
     inkscape:showpageshadow="2"
     inkscape:pageopacity="0.0"
     inkscape:pagecheckerboard="0"
     inkscape:deskcolor="#cccccc"
     showgrid="false"
     inkscape:zoom="7.375"
     inkscape:cx="21.898305"
     inkscape:cy="-0.94915254"
     inkscape:window-width="1920"
     inkscape:window-height="1004"
     inkscape:window-x="0"
     inkscape:window-y="0"
     inkscape:window-maximized="1"
     inkscape:current-layer="svg22">
    <inkscape:grid
       type="xygrid"
       id="grid725"
       originx="0"
       originy="-2.6702881e-05" />
  </sodipodi:namedview>
  <g
     id="sirikali"
     transform="translate(0,-32.000027)">
    <rect
       style="opacity:0.00100002;fill:#d1d5e9;fill-opacity:1"
       width="32"
       height="32"
       x="0"
       y="32.000027"
       id="rect7" />
    <path
       d="m 15.237288,49.186441 z m 9.762666,10.813584 H 6.99963 C 5.34288,60.000025 4,58.656025 4,56.999979 v -6.750046 c 0,-0.414562 0.33582,-0.750005 0.75037,-0.750005 0.41345,0 0.75,0.335443 0.75,0.750005 v 6.375046 c 0,1.035656 0.83935,1.874298 1.87501,1.874298 h 17.249574 c 1.035656,0 1.875794,-0.838688 1.875794,-1.874298 v -6.750794 c 0,-1.03491 -0.840138,-1.87481 -1.875794,-1.87481 H 11.12504 10.75037 10.74963 c -1.24327,0 -2.24963,-1.00707 -2.24963,-2.2493 v -0.37576 -1.87463 c 0,-4.14223 3.35748,-7.49966 7.50042,-7.49966 4.14211,0 7.499534,3.35743 7.499534,7.49966 v 0.75 c 0,0.41457 -0.335438,0.75 -0.75,0.75 -0.413816,0 -0.75,-0.33543 -0.75,-0.75 v -0.75 c 0,-3.31382 -2.68655,-6.00041 -5.999534,-6.00041 -3.31387,0 -6.00005,2.68654 -6.00005,6.00041 v 1.12463 0.28636 0.46364 c 0,0.62148 0.50353,1.12581 1.12467,1.12581 h 0.46364 0.28636 9.749914 0.375 1.5 0.375748 1.124252 c 1.657495,0 3.000046,1.34255 3.000046,2.999803 v 7.500051 c 0,1.656046 -1.342551,3.000046 -3.000046,3.000046 z M 6.24963,47.999375 c -0.41345,0 -0.74926,-0.33545 -0.74926,-0.75 0,-0.41345 0.33581,-0.74925 0.74926,-0.74925 0.41455,0 0.75,0.3358 0.75,0.74925 0,0.41455 -0.33545,0.75 -0.75,0.75 z"
       id="path2-6"
       style="fill:currentColor;fill-opacity:1;stroke-width:0.0468752"
       class="ColorScheme-Text "
       sodipodi:nodetypes="ccccccccssssssssssssssssccsscsssssssssccsscccccsssss" />
    <path
       id="Key"
       class="st0  ColorScheme-Text"
       d="m 18.857146,51.257146 c 0,0.4 -0.314292,0.714282 -0.714292,0.714282 -0.4,0 -0.714282,-0.314282 -0.714282,-0.714282 0,-0.4 0.314282,-0.714292 0.714282,-0.714292 0.4,0 0.714292,0.314292 0.714292,0.714292 z M 20,51.971428 c 0,1.41428 -1.157156,2.571426 -2.571428,2.571426 -0.257144,0 -0.51429,-0.04281 -0.742854,-0.114282 L 13.714282,57.4 H 12 v -1.428572 h 0.857146 v -0.857146 h 0.857136 v -0.857136 h 0.857146 V 53.4 l 0.471437,-0.471438 C 14.928582,52.628572 14.857146,52.314282 14.857146,51.971428 14.857146,50.557146 16.014292,49.4 17.428572,49.4 18.842844,49.4 20,50.557146 20,51.971428 Z"
       style="stroke-width:0.142854;fill-rule:evenodd;fill-opacity:1;fill:currentColor;clip-rule:evenodd;" />
  </g>
  <g
     id="sirikali-panel"
     transform="translate(0,-32.000027)">
    <rect
       style="opacity:0.00100002;fill:#d1d5e9;fill-opacity:1"
       width="32"
       height="32"
       x="0"
       y="0"
       id="rect17" />
    <path
       d="M 15.237288,17.186416 Z M 24.999954,28 H 6.99963 C 5.34288,28 4,26.656 4,24.999954 v -6.750046 c 0,-0.414562 0.33582,-0.750005 0.75037,-0.750005 0.41345,0 0.75,0.335443 0.75,0.750005 v 6.375046 c 0,1.035656 0.83935,1.874298 1.87501,1.874298 h 17.249574 c 1.035656,0 1.875794,-0.838688 1.875794,-1.874298 V 17.87416 c 0,-1.03491 -0.840138,-1.87481 -1.875794,-1.87481 H 11.12504 10.75037 10.74963 C 9.50636,15.99935 8.5,14.99228 8.5,13.75005 V 13.37429 11.49966 C 8.5,7.35743 11.85748,4 16.00042,4 c 4.14211,0 7.499534,3.35743 7.499534,7.49966 v 0.75 c 0,0.41457 -0.335438,0.75 -0.75,0.75 -0.413816,0 -0.75,-0.33543 -0.75,-0.75 v -0.75 c 0,-3.31382 -2.68655,-6.00041 -5.999534,-6.00041 -3.31387,0 -6.00005,2.68654 -6.00005,6.00041 v 1.12463 0.28636 0.46364 c 0,0.62148 0.50353,1.12581 1.12467,1.12581 h 0.46364 0.28636 9.749914 0.375 1.5 0.375748 1.124252 C 26.657449,14.5001 28,15.84265 28,17.499903 v 7.500051 C 28,26.656 26.657449,28 24.999954,28 Z M 6.24963,15.99935 c -0.41345,0 -0.74926,-0.33545 -0.74926,-0.75 0,-0.41345 0.33581,-0.74925 0.74926,-0.74925 0.41455,0 0.75,0.3358 0.75,0.74925 0,0.41455 -0.33545,0.75 -0.75,0.75 z"
       id="path2-6-35"
       style="fill:currentColor;fill-opacity:1;stroke-width:0.0468752"
       class="ColorScheme-Text"
       sodipodi:nodetypes="ccccccccssssssssssssssssccsscsssssssssccsscccccsssss" />
    <path
       id="Key-6"
       class="st0  ColorScheme-Text"
       d="m 18.857146,19.257121 c 0,0.4 -0.314292,0.714282 -0.714292,0.714282 -0.4,0 -0.714282,-0.314282 -0.714282,-0.714282 0,-0.4 0.314282,-0.714292 0.714282,-0.714292 0.4,0 0.714292,0.314292 0.714292,0.714292 z M 20,19.971403 c 0,1.41428 -1.157156,2.571426 -2.571428,2.571426 -0.257144,0 -0.51429,-0.04281 -0.742854,-0.114282 l -2.971436,2.971428 H 12 v -1.428572 h 0.857146 v -0.857146 h 0.857136 v -0.857136 h 0.857146 v -0.857146 l 0.471437,-0.471438 c -0.114283,-0.29999 -0.185719,-0.61428 -0.185719,-0.957134 0,-1.414282 1.157146,-2.571428 2.571426,-2.571428 1.414272,0 2.571428,1.157146 2.571428,2.571428 z"
       style="stroke-width:0.142854;fill-rule:evenodd;fill-opacity:1;fill:currentColor;clip-rule:evenodd;" />
  </g>
  <g
     id="22-22-sirikali-panel"
     transform="translate(32,9.9999733)">
    <rect
       style="opacity:0.00100002;fill:#d1d5e9;fill-opacity:1"
       width="22"
       height="22"
       x="0"
       y="-32"
       id="rect12" />
    <path
       d="M 10.491528,-20.209054 Z M 16.999966,-13 H 4.999761 C 3.895256,-13 3,-13.896 3,-15.000034 v -4.500028 c 0,-0.276376 0.22388,-0.500005 0.500239,-0.500005 0.275641,0 0.5,0.223629 0.5,0.500005 v 4.250032 c 0,0.690431 0.559573,1.249528 1.250021,1.249528 h 11.49971 c 0.690429,0 1.250532,-0.559118 1.250532,-1.249528 v -4.50053 c 0,-0.689944 -0.560103,-1.249874 -1.250532,-1.249874 H 7.750024 7.500239 7.499759 C 6.670908,-21.000434 6,-21.671812 6,-22.499962 v -0.250519 -1.249749 C 6,-26.761714 8.238319,-29 11.000281,-29 c 2.761398,0 4.999685,2.238286 4.999685,4.99977 v 0.5 c 0,0.27638 -0.223618,0.5 -0.5,0.5 -0.275878,0 -0.5,-0.22362 -0.5,-0.5 v -0.5 c 0,-2.20921 -1.791034,-4.000274 -3.999685,-4.000274 -2.209251,0 -4.000042,1.791026 -4.000042,4.000274 v 0.749749 0.190915 0.309085 c 0,0.414331 0.335691,0.750551 0.749785,0.750551 h 0.309095 0.190905 6.499946 0.249996 1 0.250506 0.749494 c 1.105003,0 2.000034,0.895031 2.000034,1.999863 v 5.000033 C 19,-13.896 18.104969,-13 16.999966,-13 Z M 4.499761,-21.000434 c -0.275641,0 -0.499522,-0.223636 -0.499522,-0.5 0,-0.275636 0.223882,-0.499496 0.499522,-0.499496 0.276359,0 0.5,0.22386 0.5,0.499496 0,0.276364 -0.223641,0.5 -0.5,0.5 z"
       id="path2-6-35-2"
       style="fill:currentColor;fill-opacity:1;stroke-width:0.0312506"
       class="ColorScheme-Text"
       sodipodi:nodetypes="ccccccccssssssssssssssssccsscsssssssssccsscccccsssss" />
    <path
       id="Key-6-9"
       class="st0  ColorScheme-Text"
       d="m 12.90476,-18.828583 c 0,0.266664 -0.209521,0.476184 -0.476196,0.476184 -0.266666,0 -0.476182,-0.20952 -0.476182,-0.476184 0,-0.266672 0.209516,-0.476194 0.476182,-0.476194 0.266675,0 0.476196,0.209522 0.476196,0.476194 z m 0.761904,0.476184 c 0,0.942858 -0.771432,1.71428 -1.714282,1.71428 -0.171434,0 -0.342861,-0.02851 -0.495234,-0.07618 L 9.47619,-14.733348 H 8.333336 v -0.952379 H 8.90476 v -0.571431 h 0.57143 v -0.57142 h 0.571428 v -0.571447 l 0.314287,-0.314293 c -0.07616,-0.19999 -0.123803,-0.40951 -0.123803,-0.638084 0,-0.942855 0.77142,-1.71428 1.71428,-1.71428 0.94285,0 1.714282,0.771425 1.714282,1.714283 z"
       style="stroke-width:0.09524;fill-rule:evenodd;fill-opacity:1;fill:currentColor;clip-rule:evenodd;" />
  </g>
</svg>
