<?xml version="1.0" encoding="UTF-8" standalone="no"?>
<svg
   viewBox="0 0 22 22"
   id="svg"
   version="1.1"
   inkscape:version="1.1.2 (0a00cf5339, 2022-02-04)"
   width="22"
   height="22"
   sodipodi:docname="slc.svg"
   xmlns:inkscape="http://www.inkscape.org/namespaces/inkscape"
   xmlns:sodipodi="http://sodipodi.sourceforge.net/DTD/sodipodi-0.dtd"
   xmlns="http://www.w3.org/2000/svg"
   xmlns:svg="http://www.w3.org/2000/svg"
   xmlns:rdf="http://www.w3.org/1999/02/22-rdf-syntax-ns#"
   xmlns:cc="http://creativecommons.org/ns#"
   xmlns:dc="http://purl.org/dc/elements/1.1/">
  <defs
     id="defs81">
    <style
       id="current-color-scheme"
       type="text/css">.ColorScheme-Text { color:#eff0f1; }
.ColorScheme-Background { color:#EFF0F1; }
.ColorScheme-Highlight { color:#3DAEE6; }
.ColorScheme-ViewText { color:#7B7C7E; }
.ColorScheme-ViewBackground { color:#FCFCFC; }
.ColorScheme-ViewHover { color:#3DAEE6; }
.ColorScheme-ViewFocus { color:#1E92FF; }
.ColorScheme-ButtonText { color:#7B7C7E; }
.ColorScheme-ButtonBackground { color:#EFF0F1; }
.ColorScheme-ButtonHover { color:#3DAEE6; }
.ColorScheme-ButtonFocus { color:#1E92FF; }
</style>
  </defs>
  <metadata
     id="metadata34">
    <rdf:RDF>
      <cc:Work
         rdf:about="">
        <dc:format>image/svg+xml</dc:format>
        <dc:type
           rdf:resource="http://purl.org/dc/dcmitype/StillImage" />
      </cc:Work>
    </rdf:RDF>
  </metadata>
  <sodipodi:namedview
     pagecolor="#ffffff"
     bordercolor="#000000"
     borderopacity="1"
     objecttolerance="10"
     gridtolerance="10"
     guidetolerance="10"
     inkscape:pageopacity="0"
     inkscape:pageshadow="2"
     inkscape:window-width="1920"
     inkscape:window-height="1013"
     id="namedview32"
     showgrid="false"
     inkscape:zoom="4.9269376"
     inkscape:cx="-4.1607996"
     inkscape:cy="6.6978725"
     inkscape:window-x="0"
     inkscape:window-y="0"
     inkscape:window-maximized="1"
     inkscape:current-layer="svg"
     borderlayer="false"
     showguides="false"
     inkscape:guide-bbox="true"
     inkscape:snap-bbox="true"
     inkscape:bbox-nodes="true"
     inkscape:pagecheckerboard="0"
     inkscape:showpageshadow="false">
    <inkscape:grid
       type="xygrid"
       id="grid3046"
       empspacing="4"
       visible="true"
       enabled="true"
       snapvisiblegridlinesonly="true"
       color="#0000ff"
       opacity="0.03921569"
       empcolor="#0000ff"
       empopacity="0.07843137"
       originx="-40"
       originy="0" />
    <sodipodi:guide
       orientation="0,1"
       position="-39.545455,0.863636"
       id="guide3820" />
    <sodipodi:guide
       orientation="0,1"
       position="-39.5,0.136364"
       id="guide3822" />
    <sodipodi:guide
       orientation="1,0"
       position="-39.5,0.887901"
       id="guide3824" />
    <sodipodi:guide
       orientation="0,1"
       position="-39.5,0.5"
       id="guide3826" />
  </sodipodi:namedview>
  <g
     id="slc-connect"
     transform="translate(-40)">
    <rect
       style="fill:#ffffff;fill-opacity:0;stroke:none"
       id="rect3009"
       width="22"
       height="22"
       x="0"
       y="0" />
    <path
       d="m 19.83469,9.7142285 c -0.220414,0.219331 -0.57564,0.219331 -0.795423,0 -0.220413,-0.219645 -0.220413,-0.575916 0,-0.795661 0.220413,-0.21969 0.575684,-0.219645 0.795423,0 0.220414,0.219646 0.220414,0.575944 0,0.795661 z m -5.56661,4.9175945 -0.06388,0.12402 c -0.0985,0.202681 -0.171833,0.39654 -0.171833,0.630043 0,0.0351 -0.0036,0.07029 0.0014,0.10395 -0.01349,0.251416 0.0036,0.388081 -0.01349,0.50779 -0.03599,0.967579 -0.40889,1.926314 -1.147501,2.664861 -0.659215,0.658841 -1.727546,0.658841 -2.386628,0 L 7.304726,15.481326 4.642491,18.143159 c -0.220863,0.21996 -0.576449,0.21996 -0.796457,0 -0.220864,-0.219962 -0.220864,-0.576479 0,-0.796466 l 2.66192,-2.66208 -3.181287,-3.181162 c -0.658946,-0.658702 -0.658946,-1.7270825 0,-2.3862075 0.790655,-0.790693 1.83348,-1.166142 2.869784,-1.14303 0.06118,-0.0058 0.13045,-0.0021 0.206919,0.0054 0.02699,0.0017 0.04498,0.005 0.06793,0.0076 0.02699,0.0027 0.04498,0.0017 0.06298,0.0068 0.04498,0.0068 0.06838,0.0059 0.103455,0.0059 0.232559,0 0.448924,-0.07101 0.628494,-0.192015 l 4.520051,-3.092471 0.009,0.009 c 0.22851,-0.169065 0.549819,-0.16002 0.757457,0.04779 0.228511,0.229411 0.228511,0.600917 0,0.829951 -0.02699,0.0225 -0.04813,0.03015 -0.07332,0.04892 l 0.0036,0.009 -4.529496,3.085032 c -0.357607,0.240841 -0.789257,0.381556 -1.25352,0.381556 -0.07962,0 -0.159237,-0.0033 -0.238856,-0.0108 -0.09222,-0.009 -0.168683,-0.01035 -0.237057,-0.009 -0.757457,-0.03015 -1.525172,0.235485 -2.10387,0.814304 -0.220413,0.2193305 -0.220413,0.5756735 0,0.7953755 l 7.159256,7.158939 c 0.220412,0.219331 0.576224,0.219331 0.795422,0 0.522291,-0.522109 0.786112,-1.197974 0.811392,-1.881585 0.009,-0.09814 0.009,-0.23517 0.01799,-0.423451 -0.01349,-0.07812 0.0013,-0.157725 0.0013,-0.23778 0,-0.465243 0.138996,-0.940786 0.351761,-1.256224 0.04498,-0.09288 0.119204,-0.189316 0.172283,-0.295426 l 3.655715,-5.3662455 c 0.146643,-0.215145 0.127301,-0.507268 -0.05848,-0.701434 l -2.56538,-2.565714 v 0 L 13.467276,4.1531695 13.117315,3.8052285 12.27196,2.9601125 c -0.219963,-0.219645 -0.219963,-0.57592 0,-0.795345 0.220414,-0.21969 0.576269,-0.21969 0.795964,0 l 0.994199,0.994192 3.784769,3.784545 c 0.5751,0.575106 0.645407,1.461086 0.216366,2.115578 z M 3.124963,19.437501 c 0,0.31059 -0.251901,0.562443 -0.562549,0.562443 C 2.250687,19.999945 2,19.748259 2,19.437501 c 0,-0.310636 0.251901,-0.562487 0.562414,-0.562487 0.311728,0 0.562549,0.251775 0.562549,0.562487 z"
       id="path2-3-0-5"
       sodipodi:nodetypes="ccsscccsccccccsccccccccsccccccccsccscccccscccccccccccccccsssss"
       style="stroke-width:0.0351628;fill-opacity:1;fill:currentColor;"
       class="ColorScheme-Text" />
  </g>
  <g
     id="slc-like"
     transform="translate(-40,-40)">
    <rect
       y="0"
       x="0"
       height="22"
       width="22"
       id="rect3791"
       style="fill:#ffffff;fill-opacity:0;stroke:none" />
    <path
       fill-rule="evenodd"
       clip-rule="evenodd"
       d="m 5.689548,10.320711 c -0.2206023,0.22001 -0.5582823,0.232857 -0.8044492,0.06188 l -0.01549,0.01556 -0.4484975,-0.448648 c -1.2382412,-1.2380861 -1.2382412,-3.2458195 0,-4.4840612 0.2473957,-0.2473943 0.6490047,-0.2473943 0.8965588,0 0.2481863,0.2475527 0.2481863,0.6491633 0,0.8965585 -0.7425011,0.7432936 -0.7425011,1.9478063 0,2.6903077 l 0.4484973,0.448654 -0.01549,0.01555 c 0.1722092,0.248187 0.1594868,0.58369 -0.061126,0.804289 z M 7.3292412,5.8817214 c -0.2481885,-0.2473942 -0.2481885,-0.6490049 0,-0.8963989 0.247553,-0.248346 0.6490036,-0.248346 0.8965576,0 0.2475529,0.247394 0.2475529,0.6490047 0,0.8963989 -0.247554,0.2475921 -0.6490046,0.2475921 -0.8965576,0 z m 12.3375868,5.8616546 -4.067743,4.067108 c -0.247393,0.247392 -0.649005,0.247392 -0.896399,0 -0.248345,-0.247709 -0.248345,-0.649009 0,-0.896722 l 3.619051,-3.619049 0.448057,-0.448647 c 1.575132,-1.575134 1.733666,-4.5438286 0,-6.2778116 -1.733346,-1.7331881 -4.543942,-1.7331881 -6.277331,0 L 12.048762,5.012114 v 0 c -0.23007,0.232056 -0.549007,0.3766806 -0.901986,0.3766806 -0.352392,0 -0.671167,-0.1445837 -0.901201,-0.3766806 v 0 L 9.801719,4.5682544 c -1.7331884,-1.7331882 -4.5439424,-1.7331882 -6.2771706,0 -1.7339834,1.7339829 -1.6149214,4.6636376 0,6.2778116 l 1.3450548,1.345366 6.7258728,6.726305 c 0.247386,0.247398 0.247386,0.649005 0,0.896717 -0.247716,0.247395 -0.649014,0.247395 -0.896561,0 L 7.1114132,16.227585 2.6273567,11.743376 c -2.10986969,-2.109876 -2.22893168,-5.8427493 0,-8.0716793 2.2287701,-2.2289289 5.8425862,-2.2289289 8.0715213,0 l 0.448486,0.4486559 0.448066,-0.4486559 c 2.228772,-2.2289289 5.84259,-2.2289289 8.071359,0 2.229127,2.22893 2.030643,6.0404363 3.9e-5,8.0716793 z m -5.643466,4.746467 c 0.247394,0.247397 0.247394,0.649011 0,0.897039 -0.247393,0.247712 -0.649006,0.247712 -0.897346,0 -0.247402,-0.248028 -0.247402,-0.649642 0,-0.897039 0.248297,-0.247709 0.649912,-0.247709 0.897346,0 z"
       id="path2"
       style="stroke-width:0.0396341;fill-opacity:1;fill:currentColor;"
       class="ColorScheme-Text" />
  </g>
  <g
     id="slc-share">
    <rect
       y="0"
       x="0"
       height="22"
       width="22"
       id="rect3833"
       style="fill:#ffffff;fill-opacity:0;stroke:none" />
    <path
       fill-rule="evenodd"
       clip-rule="evenodd"
       d="m 8.46876,7.0625018 c 0,-0.3106406 0.251855,-0.5625008 0.5625,-0.5625008 0.31064,0 0.5625,0.2518602 0.5625,0.5625008 0,0.310641 -0.25186,0.5625 -0.5625,0.5625 -0.310645,0 -0.5625,-0.251859 -0.5625,-0.5625 z m 10.780871,2.9372012 -0.224389,0.224402 c -0.02168,-0.04476 -0.05885,-0.06976 -0.104122,-0.08185 -0.03266,0.293874 -0.279316,0.524048 -0.582258,0.524048 -0.325477,0 -0.588862,-0.263961 -0.588862,-0.589437 0,-0.1623176 0.06599,-0.3092707 0.172763,-0.4161108 l -0.0012,-0.00114 0.579763,-0.5792695 c 0.494122,-0.4927501 0.494122,-1.2930831 0,-1.7858334 l -3.799745,-3.79626 C 14.489562,3.2859434 14.219848,3.1711229 13.942423,3.1414855 c -0.04222,-0.010174 -0.0851,-0.016499 -0.129898,-0.016499 -0.310641,0 -0.562501,0.2518593 -0.562501,0.5625004 0,0.9319219 -0.75558,1.6875004 -1.6875,1.6875004 H 5.656255 4.5312555 c -0.7764631,0 -1.4062507,0.629507 -1.4062507,1.4062504 V 17.468746 c 0,0.776754 0.6297876,1.406256 1.4062507,1.406256 H 15.21876 c 0.776749,0 1.406251,-0.629502 1.406251,-1.406256 v -4.166295 c 0,-0.154618 -0.125792,-0.280684 -0.281252,-0.280684 -0.07794,0 -0.148328,0.03408 -0.198838,0.08509 l -0.516909,0.516909 c -0.498795,0.499324 -1.151928,0.749252 -1.805869,0.75066 v -8.12e-4 c -0.0027,0 -0.0056,0.0012 -0.0103,0.0012 -0.931917,0 -1.687499,-0.755583 -1.687499,-1.6875 0,-0.310644 -0.251858,-0.5625 -0.5625,-0.5625 h -0.5625 c -1.799823,0 -3.348635,1.059887 -4.068527,2.586724 -0.0013,0.0012 -0.0018,-9.94e-4 -0.0031,8.09e-4 -0.2255681,0.475434 -0.7100915,0.78745 -1.2720294,0.78745 -0.7764615,0 -1.4062502,-0.62951 -1.4062502,-1.406254 v -0.281236 c 0,-2.30302 0.9231325,-4.3901439 2.4200172,-5.9133946 0.1029873,-0.134008 0.2633774,-0.22109 0.4454844,-0.22109 0.310922,0 0.562499,0.251297 0.562499,0.561938 0,0.1560228 -0.06316,0.2958037 -0.164812,0.3982498 l 0.0034,0.0038 C 6.1939945,9.9650567 5.3749599,11.793183 5.3749599,13.81245 v 0.281255 c 0,0.155463 0.1260695,0.281245 0.28125,0.281245 0.1074061,0 0.2007761,-0.04289 0.2480271,-0.131029 -0.0043,0.0073 -0.0069,0.02121 -0.010188,0.03266 0.8904529,-1.932977 2.838566,-3.27662 5.105893,-3.27662 h 0.562501 c 0.931929,0 1.687498,0.755584 1.687498,1.687501 0,0.310643 0.251866,0.562501 0.562498,0.562501 0.04478,0 0.08771,-0.0056 0.129908,-0.01646 0.277416,-0.02965 0.547098,-0.144461 0.759165,-0.356765 l 0.638018,-0.637206 c 0.25629,-0.261488 0.610595,-0.395788 1.004168,-0.395788 0.776746,0 1.406258,0.60342 1.406258,1.380168 V 17.75 c 0,1.24256 -1.00744,2.25 -2.250007,2.25 H 4.2500007 C 3.0074376,20 2,18.99256 2,17.75 V 6.500001 C 2,5.2574392 3.0074376,4.2500006 4.2500007,4.2500006 h 7.3125053 c 0.310635,0 0.562501,-0.251859 0.562501,-0.5625 C 12.125007,2.7555786 12.880581,2 13.812507,2 c 0.0029,0 0.0059,0.0014 0.0103,0.0014 V 2 c 0.653976,0.0014 1.30711,0.251297 1.805872,0.7503406 l 3.62169,3.6243986 c 1.000302,1.0008628 1.000302,2.6238176 0,3.6249638 z"
       id="path2-3-3"
       style="stroke-width:0.035156;fill-opacity:1;fill:currentColor;"
       class="ColorScheme-Text" />
  </g>
</svg>
