<?xml version="1.0" encoding="UTF-8" standalone="no"?>
<svg
   id="svg12"
   width="32"
   height="32"
   version="1.1"
   sodipodi:docname="start.svg"
   inkscape:version="1.1.2 (0a00cf5339, 2022-02-04)"
   xmlns:inkscape="http://www.inkscape.org/namespaces/inkscape"
   xmlns:sodipodi="http://sodipodi.sourceforge.net/DTD/sodipodi-0.dtd"
   xmlns="http://www.w3.org/2000/svg"
   xmlns:svg="http://www.w3.org/2000/svg">
  <style
     id="current-color-scheme"
     type="text/css">
.ColorScheme-Text { 
    color:#eceff4;
}
</style>
  <g
     id="22-22-start-here-kde"
     transform="translate(-22,10)">
    <rect
       id="rect2"
       style="opacity:0.00100002"
       width="22"
       height="22"
       x="0"
       y="0" />
    <path
       fill-rule="evenodd"
       clip-rule="evenodd"
       d="M 16,9 H 14.25 14 13 12.75 9.25 9 8 7.75 6 C 4.343127,9 3,7.65675 3,6 3,4.34325 4.343127,3 6,3 7.656873,3 9,4.34325 9,6 V 6.5 C 9,6.776125 8.776127,7 8.5,7 8.223873,7 8,6.776125 8,6.5 V 6 C 8,4.8955 7.104627,4 6,4 4.895373,4 4,4.8955 4,6 4,7.1045 4.895373,8 6,8 H 6.5 7 9 9.25 12.75 13 15 15.5 16 C 17.1045,8 18,7.1045 18,6 18,4.8955 17.1045,4 16,4 14.8955,4 14,4.8955 14,6 V 6.5 C 14,6.776125 13.776127,7 13.5,7 13.223873,7 13,6.776125 13,6.5 V 6 c 0,-1.65675 1.343253,-3 3,-3 1.656747,0 3,1.34325 3,3 0,1.65675 -1.343253,3 -3,3 z M 6,13 H 6.5 C 6.776127,13 7,13.223875 7,13.5 7,13.776125 6.776127,14 6.5,14 H 6 c -1.104627,0 -2,0.8955 -2,2 0,1.1045 0.895373,2 2,2 1.104627,0 2,-0.8955 2,-2 V 15.25 15 13 12.75 10.5 C 8,10.223875 8.223873,10 8.5,10 8.776127,10 9,10.223875 9,10.5 V 12.75 13 14 14.25 16 C 9,17.65675 7.656873,19 6,19 4.343127,19 3,17.65675 3,16 3,14.34325 4.343127,13 6,13 Z m 7,-1.5 v -1 c 0,-0.276125 0.223873,-0.5 0.5,-0.5 0.276127,0 0.5,0.223875 0.5,0.5 v 1 C 14,11.776125 13.776127,12 13.5,12 13.223873,12 13,11.776125 13,11.5 Z M 10.5,13 H 12.75 13 14 14.25 16 c 1.656747,0 3,1.34325 3,3 0,1.65675 -1.343253,3 -3,3 -1.656747,0 -3,-1.34325 -3,-3 v -0.5 c 0,-0.276125 0.223873,-0.5 0.5,-0.5 0.276127,0 0.5,0.223875 0.5,0.5 V 16 c 0,1.1045 0.8955,2 2,2 1.1045,0 2,-0.8955 2,-2 0,-1.1045 -0.8955,-2 -2,-2 H 15.25 15 13 12.75 10.5 C 10.223873,14 10,13.776125 10,13.5 10,13.223875 10.223873,13 10.5,13 Z"
       id="path2-7"
       style="stroke-width:0.03125;fill-opacity:1;fill:currentColor"
       class="ColorScheme-Text" />
  </g>
  <g
     id="start-here-kde">
    <rect
       id="rect7"
       style="opacity:0.00100002"
       width="32"
       height="32"
       x="0"
       y="0" />
    <path
       fill-rule="evenodd"
       clip-rule="evenodd"
       d="M 23.5,13 H 20.875 20.5 19 18.625 13.375 13 11.5 11.125 8.5 C 6.01469,13 4,10.985125 4,8.5 4,6.014875 6.01469,4 8.5,4 10.98531,4 13,6.014875 13,8.5 V 9.25 C 13,9.664188 12.66419,10 12.25,10 11.83581,10 11.5,9.664188 11.5,9.25 V 8.5 c 0,-1.65675 -1.34306,-3 -3,-3 -1.65694,0 -3,1.34325 -3,3 0,1.65675 1.34306,3 3,3 h 0.75 0.75 3 0.375 5.25 0.375 3 0.75 0.75 c 1.65675,0 3,-1.34325 3,-3 0,-1.65675 -1.34325,-3 -3,-3 -1.65675,0 -3,1.34325 -3,3 V 9.25 C 20.5,9.664188 20.16419,10 19.75,10 19.33581,10 19,9.664188 19,9.25 V 8.5 C 19,6.014875 21.01488,4 23.5,4 25.98512,4 28,6.014875 28,8.5 28,10.985125 25.98512,13 23.5,13 Z m -15,6 H 9.25 C 9.66419,19 10,19.335812 10,19.75 10,20.164187 9.66419,20.5 9.25,20.5 H 8.5 c -1.65694,0 -3,1.34325 -3,3 0,1.65675 1.34306,3 3,3 1.65694,0 3,-1.34325 3,-3 V 22.375 22 19 18.625 15.25 c 0,-0.414188 0.33581,-0.75 0.75,-0.75 0.41419,0 0.75,0.335812 0.75,0.75 V 18.625 19 20.5 20.875 23.5 C 13,25.985125 10.98531,28 8.5,28 6.01469,28 4,25.985125 4,23.5 4,21.014875 6.01469,19 8.5,19 Z M 19,16.75 v -1.5 c 0,-0.414188 0.33581,-0.75 0.75,-0.75 0.41419,0 0.75,0.335812 0.75,0.75 v 1.5 c 0,0.414188 -0.33581,0.75 -0.75,0.75 C 19.33581,17.5 19,17.164188 19,16.75 Z M 15.25,19 H 18.625 19 20.5 20.875 23.5 C 25.98512,19 28,21.014875 28,23.5 28,25.985125 25.98512,28 23.5,28 21.01488,28 19,25.985125 19,23.5 V 22.75 C 19,22.335812 19.33581,22 19.75,22 c 0.41419,0 0.75,0.335812 0.75,0.75 v 0.75 c 0,1.65675 1.34325,3 3,3 1.65675,0 3,-1.34325 3,-3 0,-1.65675 -1.34325,-3 -3,-3 H 22.375 22 19 18.625 15.25 c -0.41419,0 -0.75,-0.335813 -0.75,-0.75 0,-0.414188 0.33581,-0.75 0.75,-0.75 z"
       id="path2"
       style="stroke-width:0.046875;fill-opacity:1;fill:currentColor"
       class="ColorScheme-Text " />
  </g>
  <defs
     id="defs17" />
  <sodipodi:namedview
     id="namedview15"
     pagecolor="#ffffff"
     bordercolor="#000000"
     borderopacity="1"
     inkscape:pageshadow="2"
     inkscape:pageopacity="0.0"
     inkscape:pagecheckerboard="0"
     showgrid="false"
     inkscape:zoom="5.303301"
     inkscape:cx="15.556349"
     inkscape:cy="22.438855"
     inkscape:window-width="1920"
     inkscape:window-height="1011"
     inkscape:window-x="0"
     inkscape:window-y="0"
     inkscape:window-maximized="1"
     inkscape:current-layer="svg12"
     inkscape:lockguides="true"
     inkscape:showpageshadow="false" />
</svg>
