<?xml version="1.0" encoding="UTF-8" standalone="no"?>
<svg
   width="32"
   height="32"
   version="1.1"
   id="svg12"
   sodipodi:docname="TeamViewer.svg"
   inkscape:version="1.1.2 (0a00cf5339, 2022-02-04)"
   xmlns:inkscape="http://www.inkscape.org/namespaces/inkscape"
   xmlns:sodipodi="http://sodipodi.sourceforge.net/DTD/sodipodi-0.dtd"
   xmlns="http://www.w3.org/2000/svg"
   xmlns:svg="http://www.w3.org/2000/svg"
   xmlns:rdf="http://www.w3.org/1999/02/22-rdf-syntax-ns#"
   xmlns:cc="http://creativecommons.org/ns#"
   xmlns:dc="http://purl.org/dc/elements/1.1/">
  <style
     id="current-color-scheme"
     type="text/css">.ColorScheme-Text { color:#eff0f1; }
</style>
  <metadata
     id="metadata18">
    <rdf:RDF>
      <cc:Work
         rdf:about="">
        <dc:format>image/svg+xml</dc:format>
        <dc:type
           rdf:resource="http://purl.org/dc/dcmitype/StillImage" />
      </cc:Work>
    </rdf:RDF>
  </metadata>
  <defs
     id="defs16" />
  <sodipodi:namedview
     pagecolor="#ffffff"
     bordercolor="#666666"
     borderopacity="1"
     objecttolerance="10"
     gridtolerance="10"
     guidetolerance="10"
     inkscape:pageopacity="0"
     inkscape:pageshadow="2"
     inkscape:window-width="1920"
     inkscape:window-height="1013"
     id="namedview14"
     showgrid="false"
     inkscape:zoom="6.9384853"
     inkscape:cx="24.71721"
     inkscape:cy="12.250512"
     inkscape:window-x="0"
     inkscape:window-y="0"
     inkscape:window-maximized="1"
     inkscape:current-layer="svg12"
     inkscape:document-rotation="0"
     inkscape:pagecheckerboard="0"
     inkscape:lockguides="true">
    <inkscape:grid
       type="xygrid"
       id="grid1129"
       originx="0"
       originy="0" />
  </sodipodi:namedview>
  <g
     id="TeamViewer">
    <rect
       style="opacity:0.00100002"
       width="32"
       height="32"
       x="0"
       y="0"
       id="rect7" />
    <path
       d="m 15.999688,27.99995 h -0.75 c -0.414563,0 -0.749954,-0.336187 -0.749954,-0.75 0,-0.414562 0.335391,-0.75 0.749954,-0.75 h 0.75 c 5.798859,0 10.499812,-4.701375 10.499812,-10.500094 0,-5.798531 -4.700953,-10.499906 -10.499812,-10.499906 -5.798484,0 -10.499859,4.701375 -10.499859,10.499906 0,3.435141 1.657125,6.476203 4.206983,8.391469 l -0.0076,0.01095 c 0.181274,0.13704 0.300665,0.352331 0.300665,0.597675 0,0.413766 -0.335439,0.75 -0.75,0.75 -0.168845,0 -0.322266,-0.05859 -0.447891,-0.152344 l -0.0018,0.0029 C 5.885922,23.411407 4,19.925829 4,15.999906 4,9.37225 9.372203,4 15.999813,4 22.626672,4 28,9.37225 28,15.999906 28,22.627047 22.626672,28 15.999813,28 Z m -3.749579,-1.5 c 0.413438,0 0.74925,0.335438 0.74925,0.75 0,0.413813 -0.335812,0.75 -0.74925,0.75 -0.414562,0 -0.75,-0.336187 -0.75,-0.75 0,-0.414562 0.335438,-0.75 0.75,-0.75 z M 26.4995,15.999856 v 0 0 0 0 0 l 0.0662,-0.01523 -0.06322,0.01455 0.0114,-0.01275 0.0012,0.0075 0.05654,-0.02776 -0.0822,0.02895 0.02914,0.0048 0.0098,0.0013 -0.02889,-0.0013 v 0 l 0.0191,-4.6e-5 0.0098,0.0013 0.0373,-0.01652 z"
       id="path2"
       sodipodi:nodetypes="ssssssssccssccssssssssscccccccccccccccccccc"
       style="enable-background:new;stroke-width:0.046875;fill-opacity:1;fill:currentColor;"
       class="ColorScheme-Text" />
    <path
       fill-rule="evenodd"
       clip-rule="evenodd"
       d="m 24.222029,17.579605 -2.764499,2.7645 c -0.431044,0.43105 -0.995284,0.64726 -1.559524,0.65213 -0.007,5.5e-4 -0.01247,0.004 -0.02007,0.004 -0.920701,0 -1.666956,-0.74626 -1.666956,-1.66696 v -0.13889 c 0,-0.22975 -0.186078,-0.41611 -0.41667,-0.41611 h -0.04285 c -0.497781,0 -0.933722,-0.26285 -1.178654,-0.65511 l -2.046852,-3.546528 c -0.09969,-0.14514 -0.265314,-0.243613 -0.455315,-0.243613 h -0.02618 c -0.766742,0 -1.389038,-0.621601 -1.389038,-1.388343 v -0.277779 c 0,-0.307225 -0.248474,-0.555699 -0.555004,-0.555699 -0.05045,0 -0.09833,0.0087 -0.145139,0.02115 -0.236009,0.03118 -0.463476,0.132119 -0.644658,0.313301 l -2.764498,2.764491 c -0.435941,0.43594 -0.435941,1.14355 0,1.57974 l 2.764498,2.76422 c 0.181217,0.18121 0.408684,0.28212 0.644658,0.3133 0.04681,0.0125 0.09469,0.0214 0.145139,0.0214 0.30653,0 0.555004,-0.24875 0.555004,-0.55584 v -0.27778 c 0,-0.76688 0.622296,-1.38862 1.389038,-1.38862 h 0.277779 c 0.307225,0 0.555699,0.24876 0.555699,0.55584 0,0.30625 -0.248474,0.55556 -0.555699,0.55556 h -0.138751 c -0.229897,0 -0.416808,0.18636 -0.416808,0.41611 v 0.13889 c 0,0.92071 -0.746255,1.66696 -1.666262,1.66696 -0.0075,0 -0.01302,-0.003 -0.01993,-0.004 -0.564934,-0.005 -1.128618,-0.22108 -1.559663,-0.65213 L 7.756257,17.579605 C 7.319932,17.143285 7.1,16.571655 7.1,16.000015 c 0,-0.57167 0.219932,-1.143376 0.656255,-1.579733 l 2.764498,-2.76436 c 0.431045,-0.431044 0.994729,-0.647261 1.559663,-0.652122 0.0069,-6.95e-4 0.01247,-0.0038 0.01993,-0.0038 0.920007,0 1.666262,0.746255 1.666262,1.666956 v 0.13889 c 0,0.229758 0.186911,0.416669 0.416808,0.416669 h 0.04354 c 0.495211,0 0.929902,0.259724 1.175424,0.650248 l 2.05175,3.553642 c 0.100383,0.14403 0.264204,0.24035 0.453545,0.24035 h 0.02549 c 0.767435,0 1.389176,0.62174 1.389176,1.38862 v 0.27778 c 0,0.30708 0.248474,0.55584 0.555559,0.55584 0.05045,0 0.09847,-0.009 0.14514,-0.0214 0.236009,-0.0312 0.463614,-0.13212 0.644796,-0.3133 l 2.764499,-2.76422 c 0.43594,-0.43618 0.43594,-1.14379 0,-1.57973 L 20.66784,12.445839 c -0.181216,-0.181217 -0.408787,-0.28212 -0.644796,-0.313301 -0.04667,-0.01247 -0.09469,-0.02115 -0.14514,-0.02115 -0.307085,0 -0.555559,0.248474 -0.555559,0.555698 v 0.27778 0.832783 c 0,0.307086 -0.248474,0.55556 -0.55556,0.55556 -0.306529,0 -0.555837,-0.248474 -0.555837,-0.55556 v -0.832794 -0.27778 c 0,-0.920701 0.746255,-1.666956 1.666956,-1.666956 0.0076,0 0.01302,0.0031 0.02007,0.0038 0.56424,0.0049 1.12848,0.221078 1.559525,0.652123 l 2.764498,2.764359 c 0.436114,0.436218 0.655907,1.007894 0.655907,1.579564 0,0.57167 -0.219793,1.14333 -0.655872,1.57966 z m -7.399392,-3.246546 c -0.307085,0 -0.555559,-0.248474 -0.555559,-0.555559 0,-0.30653 0.248474,-0.555004 0.555559,-0.555004 0.30653,0 0.555559,0.248474 0.555559,0.555004 0,0.307085 -0.249029,0.555559 -0.555559,0.555559 z"
       id="path2-6"
       style="stroke-width:0.0347225;fill-opacity:1;fill:currentColor;"
       class="ColorScheme-Text" />
  </g>
  <g
     id="22-22-TeamViewer"
     transform="translate(32,10.000001)">
    <rect
       style="opacity:0.00100002"
       width="22"
       height="22"
       x="0"
       y="-4.6325681e-08"
       id="rect2" />
    <path
       d="m 10.999826,19 h -0.5 c -0.276375,0 -0.499969,-0.224125 -0.499969,-0.5 0,-0.276375 0.223594,-0.5 0.499969,-0.5 h 0.5 c 3.865906,0 6.999875,-3.13425 6.999875,-7.000063 C 17.999701,7.13425 14.865732,4 10.999826,4 7.13417,4 3.99992,7.13425 3.99992,10.999937 c 0,2.290094 1.10475,4.317469 2.804655,5.594313 l -0.0051,0.0073 C 6.920324,16.69291 6.999918,16.836437 6.999918,17 c 0,0.275844 -0.223626,0.5 -0.5,0.5 -0.112563,0 -0.214844,-0.03906 -0.298594,-0.101563 l -0.0012,0.0019 C 4.257281,15.940938 3,13.617219 3,10.999937 3,6.5815 6.581469,3 10.999875,3 15.417781,3 19,6.5815 19,10.999937 19,15.418031 15.417781,19 10.999875,19 Z M 8.500107,18 c 0.275625,0 0.4995,0.223625 0.4995,0.5 0,0.275875 -0.223875,0.5 -0.4995,0.5 -0.276375,0 -0.5,-0.224125 -0.5,-0.5 0,-0.276375 0.223625,-0.5 0.5,-0.5 z m 9.499594,-7.000063 v 0 0 0 0 0 l 0.04413,-0.01015 -0.04215,0.0097 0.0076,-0.0085 8e-4,0.005 0.03769,-0.01851 -0.0548,0.0193 0.01943,0.0032 0.0065,8.67e-4 -0.01926,-8.67e-4 v 0 l 0.01273,-3.1e-5 0.0065,8.67e-4 0.02487,-0.01101 z"
       id="path2-3"
       sodipodi:nodetypes="ssssssssccssccssssssssscccccccccccccccccccc"
       style="enable-background:new;stroke-width:0.03125;fill-opacity:1;fill:currentColor;"
       class="ColorScheme-Text" />
    <path
       d="m 16.481387,12.053103 -1.843,1.843 c -0.287362,0.287367 -0.663522,0.431507 -1.039682,0.434753 -0.0047,3.67e-4 -0.0083,0.0027 -0.01338,0.0027 -0.613801,0 -1.111304,-0.497506 -1.111304,-1.111306 v -0.09259 c 0,-0.153167 -0.124052,-0.277407 -0.27778,-0.277407 h -0.02857 c -0.331854,0 -0.622481,-0.175233 -0.785769,-0.43674 L 10.017334,10.051161 C 9.950874,9.954401 9.840458,9.888753 9.71379,9.888753 H 9.69634 c -0.511161,0 -0.926025,-0.414401 -0.926025,-0.925562 V 8.778005 c 0,-0.204817 -0.16565,-0.370466 -0.370003,-0.370466 -0.03363,0 -0.06555,0.0058 -0.09676,0.0141 -0.15734,0.02079 -0.308984,0.08808 -0.429772,0.208867 L 6.030781,10.4735 c -0.290627,0.290627 -0.290627,0.762367 0,1.05316 l 1.842999,1.842813 c 0.120811,0.120807 0.272456,0.18808 0.429772,0.208867 0.03121,0.0083 0.06313,0.01427 0.09676,0.01427 0.204353,0 0.370003,-0.165834 0.370003,-0.37056 v -0.185191 c 0,-0.511253 0.414864,-0.925747 0.926025,-0.925747 h 0.185186 c 0.204817,0 0.370466,0.16584 0.370466,0.37056 0,0.204167 -0.165649,0.370374 -0.370466,0.370374 h -0.0925 c -0.153264,0 -0.277872,0.12424 -0.277872,0.277406 v 0.09259 c 0,0.613807 -0.497503,1.111307 -1.110841,1.111307 -0.005,0 -0.0087,-0.002 -0.01329,-0.0027 -0.376622,-0.0033 -0.752412,-0.147387 -1.039775,-0.434753 l -1.843043,-1.84279 c -0.290883,-0.29088 -0.437504,-0.671967 -0.437504,-1.05306 0,-0.381113 0.146621,-0.762251 0.437503,-1.053155 L 7.347203,8.103984 C 7.634566,7.816621 8.010355,7.672477 8.386978,7.669236 c 0.0046,-4.63e-4 0.0083,-0.0025 0.01329,-0.0025 0.613338,0 1.110841,0.497503 1.110841,1.111304 v 0.09259 c 0,0.153172 0.124607,0.277779 0.277872,0.277779 h 0.02903 c 0.33014,0 0.619934,0.17315 0.783616,0.433499 l 1.367833,2.369095 c 0.06692,0.09602 0.176136,0.160233 0.302363,0.160233 h 0.01699 c 0.511623,0 0.926117,0.414493 0.926117,0.925747 v 0.185186 c 0,0.20472 0.165649,0.37056 0.370373,0.37056 0.03363,0 0.06565,-0.006 0.09676,-0.01427 0.157339,-0.0208 0.309076,-0.08808 0.429864,-0.208866 l 1.842999,-1.842813 c 0.290627,-0.290787 0.290627,-0.762527 0,-1.053154 L 14.111929,8.630622 c -0.12081,-0.120811 -0.272524,-0.18808 -0.429864,-0.208867 -0.03111,-0.0083 -0.06313,-0.0141 -0.09676,-0.0141 -0.204723,0 -0.370372,0.165649 -0.370372,0.370465 v 0.185187 0.555189 c 0,0.204724 -0.16565,0.370373 -0.370374,0.370373 -0.204352,0 -0.370558,-0.165649 -0.370558,-0.370373 V 8.9633 8.778113 c 0,-0.613801 0.497504,-1.111304 1.111304,-1.111304 0.0051,0 0.0087,0.0021 0.01338,0.0025 0.37616,0.0033 0.75232,0.147386 1.039684,0.434749 l 1.842998,1.842906 c 0.290743,0.290812 0.437272,0.671929 0.437272,1.053043 0,0.381113 -0.146529,0.76222 -0.437248,1.053106 z M 11.548459,9.888739 c -0.204724,0 -0.370373,-0.165649 -0.370373,-0.370373 0,-0.204353 0.165649,-0.370002 0.370373,-0.370002 0.204353,0 0.370372,0.165649 0.370372,0.370002 0,0.204724 -0.166019,0.370373 -0.370372,0.370373 z"
       id="path2-6-6"
       style="stroke-width:0.0231483;fill-opacity:1;fill:currentColor;"
       class="ColorScheme-Text" />
  </g>
</svg>
