<?xml version="1.0" encoding="UTF-8" standalone="no"?>
<svg
   width="22"
   height="22"
   version="1.1"
   id="svg12"
   sodipodi:docname="telegram.svg"
   inkscape:version="1.3.2 (091e20ef0f, 2023-11-25)"
   xmlns:inkscape="http://www.inkscape.org/namespaces/inkscape"
   xmlns:sodipodi="http://sodipodi.sourceforge.net/DTD/sodipodi-0.dtd"
   xmlns="http://www.w3.org/2000/svg"
   xmlns:svg="http://www.w3.org/2000/svg"
   xmlns:rdf="http://www.w3.org/1999/02/22-rdf-syntax-ns#"
   xmlns:cc="http://creativecommons.org/ns#"
   xmlns:dc="http://purl.org/dc/elements/1.1/">
  <style
     type="text/css"
     id="current-color-scheme">.ColorScheme-Text { color:#eff0f1; }
</style>
  <metadata
     id="metadata18">
    <rdf:RDF>
      <cc:Work
         rdf:about="">
        <dc:format>image/svg+xml</dc:format>
        <dc:type
           rdf:resource="http://purl.org/dc/dcmitype/StillImage" />
      </cc:Work>
    </rdf:RDF>
  </metadata>
  <defs
     id="defs16" />
  <sodipodi:namedview
     pagecolor="#ffffff"
     bordercolor="#000000"
     borderopacity="1"
     objecttolerance="10"
     gridtolerance="10"
     guidetolerance="10"
     inkscape:pageopacity="0"
     inkscape:pageshadow="2"
     inkscape:window-width="1920"
     inkscape:window-height="994"
     id="namedview14"
     showgrid="false"
     inkscape:zoom="9.9627528"
     inkscape:cx="26.950383"
     inkscape:cy="23.136176"
     inkscape:window-x="0"
     inkscape:window-y="0"
     inkscape:window-maximized="1"
     inkscape:current-layer="svg12"
     inkscape:document-rotation="0"
     inkscape:pagecheckerboard="false"
     inkscape:lockguides="true"
     inkscape:showpageshadow="2"
     inkscape:deskcolor="#cccccc">
    <inkscape:grid
       type="xygrid"
       id="grid833"
       originx="12"
       originy="-10"
       spacingy="1"
       spacingx="1"
       units="px"
       visible="false" />
  </sodipodi:namedview>
  <g
     id="telegram-mute-panel"
     transform="translate(22)">
    <rect
       style="opacity:0.00100002"
       width="22"
       height="22"
       x="0"
       y="0"
       id="rect2-8" />
    <path
       d="m 18.133906,3.0046599 c -0.288856,0.02226 -0.463632,0.111693 -0.483333,0.1218313 L 4.6518986,7.6200664 C 3.96649,7.8570073 3.5286755,8.0666866 3.2184243,8.3067907 3.0632987,8.4268427 2.9352737,8.5580797 2.8466299,8.7287952 2.7579861,8.8995108 2.7257088,9.1195593 2.769227,9.3037866 c 0.087037,0.3684558 0.335874,0.521336 0.4976828,0.6166769 0.1618089,0.09534 0.3106985,0.1418145 0.3106985,0.1418145 l -0.054356,-0.02063 4.4356603,1.959398 A 0.55659791,0.55006044 0 0 0 8.6940221,11.723222 0.55659791,0.55006044 0 0 0 8.4131107,10.996748 L 4.0694207,9.0779588 C 4.2530047,8.9675922 4.5325033,8.8268304 5.0193447,8.6585328 L 18.018019,4.1649577 a 0.55665357,0.55011544 0 0 0 0.01891,-0.00709 c 0,0 0.01912,-0.00365 0.0224,-0.0043 -0.0068,0.018488 -0.0037,0.021202 -0.01239,0.0419 -0.521283,1.2427281 -5.275133,12.5744043 -5.275133,12.5744043 a 0.55665357,0.55011544 0 0 0 -0.01,0.02578 c 0,0 -0.223367,0.582474 -0.453328,0.924156 -0.591828,-1.537801 -2.237072,-5.81352 -2.237072,-5.81352 a 0.55659791,0.55006044 0 0 0 -0.7181568,-0.31844 0.55659791,0.55006044 0 0 0 -0.3224388,0.709501 c 0,0 1.6827776,4.372345 2.2592496,5.870247 0.08971,0.233104 0.191996,0.426671 0.364619,0.589603 0.172624,0.162933 0.460193,0.270375 0.705975,0.236572 0.491564,-0.06761 0.68433,-0.383272 0.865128,-0.648263 0.361598,-0.529981 0.584435,-1.180066 0.584435,-1.180066 l -0.01,0.02578 c 0,0 4.753728,-11.3313851 5.275134,-12.574404 C 19.230902,4.2460089 19.310348,3.9292647 19.19559,3.5891062 19.080833,3.2489478 18.716631,3.049669 18.471786,3.0151886 18.349364,2.9979484 18.23563,2.9968214 18.13391,3.0046604 Z"
       style="stop-color:#000000;enable-background:accumulate;text-rendering:auto;shape-rendering:auto;image-rendering:auto;color-rendering:auto;stroke-opacity:1;stroke-dashoffset:0;stroke-dasharray:none;stroke-miterlimit:4;stroke-linejoin:round;stroke-linecap:round;stroke-width:1.10664;stroke:none;fill-rule:nonzero;fill-opacity:0.6;fill:currentColor;vector-effect:none;solid-opacity:1;solid-color:#000000;color-interpolation-filters:linearRGB;color-interpolation:sRGB;mix-blend-mode:normal;isolation:auto;visibility:visible;overflow:visible;display:inline;clip-rule:nonzero;inline-size:0;shape-margin:0;shape-padding:0;white-space:normal;text-anchor:start;baseline-shift:baseline;dominant-baseline:auto;text-orientation:mixed;direction:ltr;writing-mode:lr-tb;text-transform:none;word-spacing:normal;letter-spacing:normal;text-decoration-color:#000000;text-decoration-style:solid;text-decoration-line:none;text-decoration:none;text-align:start;text-indent:0;font-variation-settings:normal;font-feature-settings:normal;font-variant-east-asian:normal;font-variant-alternates:normal;font-variant-numeric:normal;font-variant-caps:normal;font-variant-position:normal;font-variant-ligatures:normal;font-family:sans-serif;line-height:normal;font-size:medium;font-stretch:normal;font-weight:normal;font-variant:normal;font-style:normal;"
       id="path1"
       class="ColorScheme-Text" />
    <path
       d="M 15.859002,5.6531468 A 0.55659791,0.55006044 0 0 0 15.484381,5.803341 L 9.1688749,11.702166 A 0.55659791,0.55006044 0 0 0 9.1464809,12.47978 0.55659791,0.55006044 0 0 0 9.9333372,12.5017 L 16.24906,6.602872 A 0.55659791,0.55006044 0 0 0 16.27124,5.8252577 0.55659791,0.55006044 0 0 0 15.859004,5.6531468 Z"
       style="stop-color:#000000;enable-background:accumulate;text-rendering:auto;shape-rendering:auto;image-rendering:auto;color-rendering:auto;stroke-opacity:1;stroke-dashoffset:0;stroke-dasharray:none;stroke-miterlimit:4;stroke-linejoin:round;stroke-linecap:round;stroke-width:1.10664;stroke:none;fill-rule:nonzero;fill-opacity:0.60;fill:currentColor;vector-effect:none;solid-opacity:1;solid-color:#000000;color-interpolation-filters:linearRGB;color-interpolation:sRGB;mix-blend-mode:normal;isolation:auto;visibility:visible;overflow:visible;display:inline;clip-rule:nonzero;inline-size:0;shape-margin:0;shape-padding:0;white-space:normal;text-anchor:start;baseline-shift:baseline;dominant-baseline:auto;text-orientation:mixed;direction:ltr;writing-mode:lr-tb;text-transform:none;word-spacing:normal;letter-spacing:normal;text-decoration-color:#000000;text-decoration-style:solid;text-decoration-line:none;text-decoration:none;text-align:start;text-indent:0;font-variation-settings:normal;font-feature-settings:normal;font-variant-east-asian:normal;font-variant-alternates:normal;font-variant-numeric:normal;font-variant-caps:normal;font-variant-position:normal;font-variant-ligatures:normal;font-family:sans-serif;line-height:normal;font-size:medium;font-stretch:normal;font-weight:normal;font-variant:normal;font-style:normal;"
       id="path2"
       class="ColorScheme-Text" />
    <path
       d="m 5.2187221,11.671014 a 0.55661018,0.55007256 0 0 0 -0.5120327,0.325528 0.55661018,0.55007256 0 0 0 0.2811288,0.72669 l 2.6158243,1.155786 0.9686223,2.516127 A 0.55661018,0.55007256 0 0 0 9.2904151,16.713797 0.55661018,0.55007256 0 0 0 9.612855,16.004082 L 8.4798598,13.061009 5.4420163,11.718931 a 0.55661018,0.55007256 0 0 0 -0.2232942,-0.04792 z"
       style="stop-color:#000000;enable-background:accumulate;text-rendering:auto;shape-rendering:auto;image-rendering:auto;color-rendering:auto;stroke-opacity:1;stroke-dashoffset:0;stroke-dasharray:none;stroke-miterlimit:4;stroke-linejoin:miter;stroke-linecap:round;stroke-width:1.10666;stroke:none;fill-rule:nonzero;fill-opacity:0.60;fill:currentColor;vector-effect:none;solid-opacity:1;solid-color:#000000;color-interpolation-filters:linearRGB;color-interpolation:sRGB;mix-blend-mode:normal;isolation:auto;visibility:visible;overflow:visible;display:inline;clip-rule:nonzero;inline-size:0;shape-margin:0;shape-padding:0;white-space:normal;text-anchor:start;baseline-shift:baseline;dominant-baseline:auto;text-orientation:mixed;direction:ltr;writing-mode:lr-tb;text-transform:none;word-spacing:normal;letter-spacing:normal;text-decoration-color:#000000;text-decoration-style:solid;text-decoration-line:none;text-decoration:none;text-align:start;text-indent:0;font-variation-settings:normal;font-feature-settings:normal;font-variant-east-asian:normal;font-variant-alternates:normal;font-variant-numeric:normal;font-variant-caps:normal;font-variant-position:normal;font-variant-ligatures:normal;font-family:sans-serif;line-height:normal;font-size:medium;font-stretch:normal;font-weight:normal;font-variant:normal;font-style:normal;"
       id="path3"
       class="ColorScheme-Text" />
    <ellipse
       style="stroke-opacity:1;stroke-dasharray:none;stroke-miterlimit:4;stroke-linecap:round;stroke-width:0.672886;stroke:none;fill-opacity:0.60;fill:currentColor;"
       id="path2451"
       cx="6.698905"
       cy="14.76"
       rx="0.49999988"
       ry="0.5"
       class="ColorScheme-Text " />
    <path
       d="M 16.499994,13.999991 C 16.499994,15.105103 15.605092,16 14.499997,16 13.395825,16.000001 12.5,15.105103 12.5,13.999991 12.5,12.895822 13.395825,12 14.499997,12 c 1.105094,0 1.999997,0.895822 1.999997,1.999991 z"
       id="path72-3-4"
       style="fill:#c83771;fill-opacity:0.80000001;stroke-width:0.0238098" />
    <path
       d="m 14.999997,13.999996 c 0,0.276274 -0.223721,0.500004 -0.5,0.500004 C 14.223956,14.500001 14,14.27627 14,13.999996 14,13.72395 14.223956,13.5 14.499997,13.5 c 0.276279,0 0.5,0.22395 0.5,0.499996 z"
       id="path72-3-2-9"
       style="fill:#eff0f1;fill-opacity:1;stroke-width:0.00595252" />
    <path
       d="m 13.833331,13.999996 c 0,0.276274 -0.22372,0.500004 -0.499999,0.500004 -0.27604,10e-7 -0.499995,-0.22373 -0.499995,-0.500004 0,-0.276046 0.223955,-0.499996 0.499995,-0.499996 0.276279,0 0.499999,0.22395 0.499999,0.499996 z"
       id="path72-3-2-4-2"
       style="fill:#eff0f1;fill-opacity:1;stroke-width:0.00595252" />
    <path
       d="m 16.166662,13.999996 c 0,0.276274 -0.223721,0.500004 -0.5,0.500004 -0.27604,10e-7 -0.499996,-0.22373 -0.499996,-0.500004 0,-0.276046 0.223956,-0.499996 0.499996,-0.499996 0.276279,0 0.5,0.22395 0.5,0.499996 z"
       id="path72-3-2-2-0"
       style="fill:#eff0f1;fill-opacity:1;stroke-width:0.00595252" />
  </g>
  <g
     id="telegram-attention-panel"
     transform="translate(44)">
    <rect
       style="opacity:0.00100002"
       width="22"
       height="22"
       x="0"
       y="0"
       id="rect2" />
    <path
       d="M 18.133903,3.004661 C 17.845047,3.026921 17.670271,3.116354 17.65057,3.126492 L 4.6518966,7.620067 c -0.685409,0.236941 -1.123224,0.44662 -1.433475,0.686724 -0.155125,0.120052 -0.28315,0.251289 -0.3717938,0.422005 -0.08864,0.170715 -0.120921,0.390764 -0.0774,0.574991 0.08704,0.368456 0.3358738,0.521336 0.4976828,0.616677 0.161809,0.09534 0.310698,0.141814 0.310698,0.141814 l -0.05436,-0.02063 4.435661,1.959398 a 0.55659791,0.55006044 0 0 0 0.73511,-0.277824 0.55659791,0.55006044 0 0 0 -0.280911,-0.726474 L 4.0694186,9.077959 C 4.2530026,8.967593 4.5325006,8.826831 5.0193426,8.658533 L 18.018016,4.164958 a 0.55665357,0.55011544 0 0 0 0.01891,-0.0071 c 0,0 0.01912,-0.0037 0.0224,-0.0043 -0.0068,0.01849 -0.0037,0.0212 -0.01239,0.0419 -0.521283,1.242728 -5.275133,12.574404 -5.275133,12.574404 a 0.55665357,0.55011544 0 0 0 -0.01,0.02578 c 0,0 -0.223367,0.582474 -0.453328,0.924156 -0.591828,-1.537801 -2.237072,-5.81352 -2.237072,-5.81352 a 0.55659791,0.55006044 0 0 0 -0.7181564,-0.31844 0.55659791,0.55006044 0 0 0 -0.322439,0.709501 c 0,0 1.6827774,4.372345 2.2592494,5.870247 0.08971,0.233104 0.191996,0.426671 0.364619,0.589603 0.172624,0.162933 0.460193,0.270375 0.705975,0.236572 0.491564,-0.06761 0.68433,-0.383272 0.865128,-0.648263 0.361598,-0.529981 0.584435,-1.180066 0.584435,-1.180066 l -0.01,0.02578 c 0,0 4.753728,-11.331384 5.275134,-12.574403 C 19.230899,4.246 19.310345,3.929255 19.195587,3.589097 19.08083,3.248938 18.716628,3.04966 18.471783,3.015179 18.349361,2.997939 18.235627,2.996809 18.133907,3.004649 Z"
       style="stop-color:#000000;enable-background:accumulate;text-rendering:auto;shape-rendering:auto;image-rendering:auto;color-rendering:auto;stroke-opacity:1;stroke-dashoffset:0;stroke-dasharray:none;stroke-miterlimit:4;stroke-linejoin:round;stroke-linecap:round;stroke-width:1.10664;stroke:none;fill-rule:nonzero;fill-opacity:1;fill:currentColor;vector-effect:none;solid-opacity:1;solid-color:#000000;color-interpolation-filters:linearRGB;color-interpolation:sRGB;mix-blend-mode:normal;isolation:auto;visibility:visible;overflow:visible;display:inline;clip-rule:nonzero;inline-size:0;shape-margin:0;shape-padding:0;white-space:normal;text-anchor:start;baseline-shift:baseline;dominant-baseline:auto;text-orientation:mixed;direction:ltr;writing-mode:lr-tb;text-transform:none;word-spacing:normal;letter-spacing:normal;text-decoration-color:#000000;text-decoration-style:solid;text-decoration-line:none;text-decoration:none;text-align:start;text-indent:0;font-variation-settings:normal;font-feature-settings:normal;font-variant-east-asian:normal;font-variant-alternates:normal;font-variant-numeric:normal;font-variant-caps:normal;font-variant-position:normal;font-variant-ligatures:normal;font-family:sans-serif;line-height:normal;font-size:medium;font-stretch:normal;font-weight:normal;font-variant:normal;font-style:normal;"
       id="path1-8"
       class="ColorScheme-Text" />
    <path
       d="m 15.858999,5.653147 a 0.55659791,0.55006044 0 0 0 -0.374621,0.150195 l -6.3155054,5.898824 a 0.55659791,0.55006044 0 0 0 -0.02239,0.777614 0.55659791,0.55006044 0 0 0 0.786856,0.02192 L 16.249061,6.602873 a 0.55659791,0.55006044 0 0 0 0.02218,-0.777615 0.55659791,0.55006044 0 0 0 -0.412236,-0.172111 z"
       style="stop-color:#000000;enable-background:accumulate;text-rendering:auto;shape-rendering:auto;image-rendering:auto;color-rendering:auto;stroke-opacity:1;stroke-dashoffset:0;stroke-dasharray:none;stroke-miterlimit:4;stroke-linejoin:round;stroke-linecap:round;stroke-width:1.10664;stroke:none;fill-rule:nonzero;fill-opacity:1;fill:currentColor;vector-effect:none;solid-opacity:1;solid-color:#000000;color-interpolation-filters:linearRGB;color-interpolation:sRGB;mix-blend-mode:normal;isolation:auto;visibility:visible;overflow:visible;display:inline;clip-rule:nonzero;inline-size:0;shape-margin:0;shape-padding:0;white-space:normal;text-anchor:start;baseline-shift:baseline;dominant-baseline:auto;text-orientation:mixed;direction:ltr;writing-mode:lr-tb;text-transform:none;word-spacing:normal;letter-spacing:normal;text-decoration-color:#000000;text-decoration-style:solid;text-decoration-line:none;text-decoration:none;text-align:start;text-indent:0;font-variation-settings:normal;font-feature-settings:normal;font-variant-east-asian:normal;font-variant-alternates:normal;font-variant-numeric:normal;font-variant-caps:normal;font-variant-position:normal;font-variant-ligatures:normal;font-family:sans-serif;line-height:normal;font-size:medium;font-stretch:normal;font-weight:normal;font-variant:normal;font-style:normal;"
       id="path2-9"
       class="ColorScheme-Text" />
    <path
       d="m 5.2187196,11.671014 a 0.55661018,0.55007256 0 0 0 -0.512033,0.325528 0.55661018,0.55007256 0 0 0 0.281129,0.72669 l 2.615824,1.155786 0.968623,2.516127 a 0.55661018,0.55007256 0 0 0 0.71815,0.318652 0.55661018,0.55007256 0 0 0 0.32244,-0.709715 l -1.132995,-2.943073 -3.037844,-1.342078 a 0.55661018,0.55007256 0 0 0 -0.223294,-0.04792 z"
       style="font-style:normal;font-variant:normal;font-weight:normal;font-stretch:normal;font-size:medium;line-height:normal;font-family:sans-serif;font-variant-ligatures:normal;font-variant-position:normal;font-variant-caps:normal;font-variant-numeric:normal;font-variant-alternates:normal;font-variant-east-asian:normal;font-feature-settings:normal;font-variation-settings:normal;text-indent:0;text-align:start;text-decoration:none;text-decoration-line:none;text-decoration-style:solid;text-decoration-color:#000000;letter-spacing:normal;word-spacing:normal;text-transform:none;writing-mode:lr-tb;direction:ltr;text-orientation:mixed;dominant-baseline:auto;baseline-shift:baseline;text-anchor:start;white-space:normal;shape-padding:0;shape-margin:0;inline-size:0;clip-rule:nonzero;display:inline;overflow:visible;visibility:visible;isolation:auto;mix-blend-mode:normal;color-interpolation:sRGB;color-interpolation-filters:linearRGB;solid-color:#000000;solid-opacity:1;vector-effect:none;fill:currentColor;fill-opacity:1;fill-rule:nonzero;stroke:none;stroke-width:1.10666;stroke-linecap:round;stroke-linejoin:miter;stroke-miterlimit:4;stroke-dasharray:none;stroke-dashoffset:0;stroke-opacity:1;color-rendering:auto;image-rendering:auto;shape-rendering:auto;text-rendering:auto;enable-background:accumulate;stop-color:#000000"
       id="path3-2"
       class="ColorScheme-Text " />
    <ellipse
       style="fill:currentColor;fill-opacity:1;stroke:none;stroke-width:0.672886;stroke-linecap:round;stroke-miterlimit:4;stroke-dasharray:none;stroke-opacity:1"
       id="path2451-6"
       cx="6.6989045"
       cy="14.76"
       rx="0.49999988"
       ry="0.5"
       class="ColorScheme-Text " />
    <path
       d="M 16.499993,13.999994 C 16.499993,15.105107 15.605094,16 14.499996,16 13.395826,16.000001 12.5,15.105107 12.5,13.999994 12.5,12.895826 13.395826,12 14.499996,12 c 1.105098,0 1.999997,0.895826 1.999997,1.999994 z"
       id="path72-3-6-0"
       style="fill:#00aa7f;fill-opacity:1;stroke-width:0.0238097" />
    <path
       id="path4166-4"
       d="M 15.5,12.733334 16.166664,13.4 l -2,2 L 12.833336,14.066667 13.5,13.4 l 0.666664,0.666667 z"
       class="ColorScheme-Background"
       style="color:#eff0f1;fill:#eff0f1;fill-opacity:1;stroke-width:0.666664" />
  </g>
  <g
     id="telegram-panel">
    <rect
       style="opacity:0.00100002"
       width="22"
       height="22"
       x="0"
       y="0"
       id="rect2-1" />
    <path
       d="M 18.133906,3.00466 C 17.84505,3.02692 17.670274,3.116353 17.650573,3.1264913 L 4.6518994,7.6200665 c -0.685409,0.2369409 -1.123224,0.4466202 -1.433475,0.6867243 -0.155125,0.120052 -0.28315,0.251289 -0.371794,0.4220045 -0.08864,0.1707156 -0.120921,0.3907641 -0.0774,0.5749914 0.08704,0.3684558 0.335874,0.521336 0.497683,0.6166769 0.161809,0.09534 0.310698,0.1418144 0.310698,0.1418144 l -0.05436,-0.02063 4.435661,1.959398 a 0.55659791,0.55006044 0 0 0 0.735109,-0.277824 0.55659791,0.55006044 0 0 0 -0.280911,-0.726474 l -4.34369,-1.9187891 c 0.183584,-0.1103666 0.463082,-0.2511284 0.949924,-0.419426 L 18.018019,4.1649578 a 0.55665357,0.55011544 0 0 0 0.01891,-0.00709 c 0,0 0.01912,-0.00365 0.0224,-0.0043 -0.0068,0.018488 -0.0037,0.021202 -0.01239,0.0419 -0.521283,1.2427281 -5.275133,12.5744042 -5.275133,12.5744042 a 0.55665357,0.55011544 0 0 0 -0.01,0.02578 c 0,0 -0.223367,0.582474 -0.453328,0.924156 -0.591828,-1.537801 -2.237072,-5.81352 -2.237072,-5.81352 a 0.55659791,0.55006044 0 0 0 -0.7181566,-0.31844 0.55659791,0.55006044 0 0 0 -0.322439,0.709501 c 0,0 1.6827776,4.372345 2.2592496,5.870247 0.08971,0.233104 0.191996,0.426671 0.364619,0.589603 0.172624,0.162933 0.460193,0.270375 0.705975,0.236572 0.491564,-0.06761 0.68433,-0.383272 0.865128,-0.648263 0.361598,-0.529981 0.584435,-1.180066 0.584435,-1.180066 l -0.01,0.02578 c 0,0 4.753728,-11.331385 5.275134,-12.5744039 C 19.230902,4.246009 19.310348,3.9292648 19.19559,3.5891063 19.080833,3.2489479 18.716631,3.0496691 18.471786,3.0151887 18.349364,2.9979487 18.23563,2.9968217 18.13391,3.0046607 Z"
       style="stop-color:#000000;enable-background:accumulate;text-rendering:auto;shape-rendering:auto;image-rendering:auto;color-rendering:auto;stroke-opacity:1;stroke-dashoffset:0;stroke-dasharray:none;stroke-miterlimit:4;stroke-linejoin:round;stroke-linecap:round;stroke-width:1.10664;stroke:none;fill-rule:nonzero;fill-opacity:1;fill:currentColor;vector-effect:none;solid-opacity:1;solid-color:#000000;color-interpolation-filters:linearRGB;color-interpolation:sRGB;mix-blend-mode:normal;isolation:auto;visibility:visible;overflow:visible;display:inline;clip-rule:nonzero;inline-size:0;shape-margin:0;shape-padding:0;white-space:normal;text-anchor:start;baseline-shift:baseline;dominant-baseline:auto;text-orientation:mixed;direction:ltr;writing-mode:lr-tb;text-transform:none;word-spacing:normal;letter-spacing:normal;text-decoration-color:#000000;text-decoration-style:solid;text-decoration-line:none;text-decoration:none;text-align:start;text-indent:0;font-variation-settings:normal;font-feature-settings:normal;font-variant-east-asian:normal;font-variant-alternates:normal;font-variant-numeric:normal;font-variant-caps:normal;font-variant-position:normal;font-variant-ligatures:normal;font-family:sans-serif;line-height:normal;font-size:medium;font-stretch:normal;font-weight:normal;font-variant:normal;font-style:normal;"
       id="path1-87"
       class="ColorScheme-Text" />
    <path
       d="M 15.859002,5.6531469 A 0.55659791,0.55006044 0 0 0 15.484381,5.8033411 L 9.1688754,11.702166 a 0.55659791,0.55006044 0 0 0 -0.02239,0.777614 0.55659791,0.55006044 0 0 0 0.786856,0.02192 L 16.24906,6.6028721 A 0.55659791,0.55006044 0 0 0 16.27124,5.8252578 0.55659791,0.55006044 0 0 0 15.859004,5.6531469 Z"
       style="stop-color:#000000;enable-background:accumulate;text-rendering:auto;shape-rendering:auto;image-rendering:auto;color-rendering:auto;stroke-opacity:1;stroke-dashoffset:0;stroke-dasharray:none;stroke-miterlimit:4;stroke-linejoin:round;stroke-linecap:round;stroke-width:1.10664;stroke:none;fill-rule:nonzero;fill-opacity:1;fill:currentColor;vector-effect:none;solid-opacity:1;solid-color:#000000;color-interpolation-filters:linearRGB;color-interpolation:sRGB;mix-blend-mode:normal;isolation:auto;visibility:visible;overflow:visible;display:inline;clip-rule:nonzero;inline-size:0;shape-margin:0;shape-padding:0;white-space:normal;text-anchor:start;baseline-shift:baseline;dominant-baseline:auto;text-orientation:mixed;direction:ltr;writing-mode:lr-tb;text-transform:none;word-spacing:normal;letter-spacing:normal;text-decoration-color:#000000;text-decoration-style:solid;text-decoration-line:none;text-decoration:none;text-align:start;text-indent:0;font-variation-settings:normal;font-feature-settings:normal;font-variant-east-asian:normal;font-variant-alternates:normal;font-variant-numeric:normal;font-variant-caps:normal;font-variant-position:normal;font-variant-ligatures:normal;font-family:sans-serif;line-height:normal;font-size:medium;font-stretch:normal;font-weight:normal;font-variant:normal;font-style:normal;"
       id="path2-1"
       class="ColorScheme-Text" />
    <path
       d="m 5.2187224,11.671014 a 0.55661018,0.55007256 0 0 0 -0.512033,0.325528 0.55661018,0.55007256 0 0 0 0.281129,0.72669 l 2.615824,1.155786 0.968623,2.516127 a 0.55661018,0.55007256 0 0 0 0.71815,0.318652 0.55661018,0.55007256 0 0 0 0.32244,-0.709715 l -1.132995,-2.943073 -3.037844,-1.342078 a 0.55661018,0.55007256 0 0 0 -0.223294,-0.04792 z"
       style="font-style:normal;font-variant:normal;font-weight:normal;font-stretch:normal;font-size:medium;line-height:normal;font-family:sans-serif;font-variant-ligatures:normal;font-variant-position:normal;font-variant-caps:normal;font-variant-numeric:normal;font-variant-alternates:normal;font-variant-east-asian:normal;font-feature-settings:normal;font-variation-settings:normal;text-indent:0;text-align:start;text-decoration:none;text-decoration-line:none;text-decoration-style:solid;text-decoration-color:#000000;letter-spacing:normal;word-spacing:normal;text-transform:none;writing-mode:lr-tb;direction:ltr;text-orientation:mixed;dominant-baseline:auto;baseline-shift:baseline;text-anchor:start;white-space:normal;shape-padding:0;shape-margin:0;inline-size:0;clip-rule:nonzero;display:inline;overflow:visible;visibility:visible;isolation:auto;mix-blend-mode:normal;color-interpolation:sRGB;color-interpolation-filters:linearRGB;solid-color:#000000;solid-opacity:1;vector-effect:none;fill:currentColor;fill-opacity:1;fill-rule:nonzero;stroke:none;stroke-width:1.10666;stroke-linecap:round;stroke-linejoin:miter;stroke-miterlimit:4;stroke-dasharray:none;stroke-dashoffset:0;stroke-opacity:1;color-rendering:auto;image-rendering:auto;shape-rendering:auto;text-rendering:auto;enable-background:accumulate;stop-color:#000000"
       id="path3-7"
       class="ColorScheme-Text" />
    <ellipse
       style="fill:currentColor;fill-opacity:1;stroke:none;stroke-width:0.672886;stroke-linecap:round;stroke-miterlimit:4;stroke-dasharray:none;stroke-opacity:1"
       id="path2451-2"
       cx="6.6989045"
       cy="14.76"
       rx="0.49999988"
       ry="0.5"
       class="ColorScheme-Text " />
  </g>
</svg>
