<?xml version="1.0" encoding="UTF-8" standalone="no"?>
<svg
   width="32"
   height="32"
   x="0"
   y="0"
   version="1.1"
   xml:space="preserve"
   id="svg1459"
   sodipodi:docname="thunderbird.svg"
   inkscape:version="1.2.2 (b0a8486541, 2022-12-01)"
   xmlns:inkscape="http://www.inkscape.org/namespaces/inkscape"
   xmlns:sodipodi="http://sodipodi.sourceforge.net/DTD/sodipodi-0.dtd"
   xmlns="http://www.w3.org/2000/svg"
   xmlns:svg="http://www.w3.org/2000/svg">
  <style
   id="current-color-scheme"
   type="text/css">.ColorScheme-Text { color:#eff0f1; }
</style><defs
   id="defs1463">
  
  
  
 
  
  
  
 </defs><sodipodi:namedview
   id="namedview1461"
   pagecolor="#ffffff"
   bordercolor="#000000"
   borderopacity="1"
   inkscape:showpageshadow="2"
   inkscape:pageopacity="0"
   inkscape:pagecheckerboard="0"
   inkscape:deskcolor="#cdcdcd"
   showgrid="false"
   inkscape:zoom="10.429825"
   inkscape:cx="21.668628"
   inkscape:cy="21.189234"
   inkscape:window-width="1920"
   inkscape:window-height="994"
   inkscape:window-x="0"
   inkscape:window-y="0"
   inkscape:window-maximized="1"
   inkscape:current-layer="svg1459"><inkscape:grid
     type="xygrid"
     id="grid1674"
     originx="0"
     originy="0" /></sodipodi:namedview>
 
 
<g
   id="thunderbird"><rect
     style="opacity:0.00100002;fill:#eff0f1;fill-opacity:1"
     width="32"
     height="32"
     x="0"
     y="0"
     id="rect1445" /><path
     d="m 27.729569,14.200167 c -0.225002,-1.219881 -0.693598,-2.401628 -1.330799,-3.468973 -0.1806,-0.328765 -0.4172,-0.640142 -0.6186,-0.9340282 -1.349499,-1.925105 -2.417997,-2.57318 -2.624094,-2.687581 -0.187399,-0.133418 -0.374902,-0.266837 -0.562302,-0.381137 -1.743199,-1.10558 -2.867796,-1.258015 -2.867796,-1.258015 -0.806,-0.343104 -1.593197,-0.533672 -2.174295,-0.629058 -1.255801,-0.152536 -2.305499,-0.133418 -3.223896,0 0.149999,-0.266836 0.281201,-0.362019 0.318597,-0.381136 0.02319,0 0.0166,0 0,0 -0.449798,0.03813 -0.993397,0.343104 -1.480696,0.648074 0.337298,-0.667091 1.049597,-1.04843 1.143299,-1.105682 h 0.01869 c -0.562205,-0.03803 -2.1554,0.324189 -3.5237,1.868158 C 6.5489965,7.6813908 4,11.646003 4,15.972634 c 0,3.278507 1.2557983,5.641999 2.6240967,7.204985 1.2932983,1.429566 2.7178956,2.191942 3.3925943,2.401629 0.0708,0.02838 0.225,0.03814 0.225,0.03814 0.01869,-0.05716 -0.8621987,-1.486716 -1.2558981,-3.202237 0.7872996,0.819626 1.7244961,1.448685 2.7740961,1.562984 0.112499,0.01912 -0.374899,-0.590821 -0.899697,-1.391331 l 0.712298,0.247718 7.81609,2.64945 c -0.7685,0.800507 -1.799399,1.582 -3.205195,2.268207 0,0 3.148995,-0.266837 4.704693,-2.039507 -0.6373,1.486718 -2.380495,2.287329 -2.380495,2.287329 1.274595,-0.190672 4.648493,-1.200866 6.785287,-3.926478 2.436699,-3.087837 3.167697,-5.985105 2.436699,-9.87345 z m -6.222991,7.224 c -0.243601,1.200763 -0.7497,2.535149 -1.893001,3.812076 L 5.799297,20.566407 C 5.4056979,19.289376 5.2182985,17.802659 5.3306979,16.068122 c 0.2436997,0.457507 0.9746993,0.838644 1.4244982,0.85776 -1.0495989,-2.38261 -0.6372988,-4.021864 0.1499999,-5.108225 a 635.67916,646.42701 0 0 1 1.0308989,1.543867 v -0.114402 c 0.018703,-0.152536 0.037497,-0.266836 0.075001,-0.381136 -0.3561991,-0.533774 -0.6559992,-0.991179 -0.880999,-1.315267 0.4311001,-0.495538 0.918399,-0.857658 1.3495986,-1.105478 0.018703,0.209686 0.0562,0.400254 0.1123994,0.628956 0.075003,0.324088 0.093697,0.80061 0.0562,1.181849 v -0.01912 c 0,0.07627 -0.018693,0.152536 -0.037397,0.228804 -0.018803,0.07627 -0.2250008,0.285751 -0.2812005,0.838643 -0.0562,0.590823 0.1499989,0.91491 0.3560992,1.16263 0.2437006,-0.228703 0.6935998,-0.800509 1.5182994,-1.124597 0.824697,-0.343003 1.368296,-0.838643 2.417996,-1.372316 0.618498,-0.323986 1.274499,-0.285954 2.099198,-0.24782 1.480797,0.266837 3.430094,0.800611 5.24829,0.895895 0.412299,0.991179 0.581,2.420645 0.581,2.458879 0,0.133316 0.01879,0.247719 0.01879,0.362018 -3.223998,1.239001 -7.010192,2.649448 -8.603392,3.068821 -0.131198,0.03814 -1.518294,-2.001272 -2.8115934,-3.945596 -0.018693,0.03814 -0.0562,0.05726 -0.075001,0.07628 -0.037397,0.03814 -0.075002,0.07628 -0.093697,0.114401 h -0.112395 c 1.3869954,2.07754 2.8677934,4.231347 3.0176954,4.231347 1.405796,-0.514554 5.604391,-1.982254 8.659587,-3.0496 -0.0187,2.344478 -0.581,3.221253 -0.581,3.221253 0,0 0.768501,-0.305071 1.555699,-1.105478 0,0.647973 -0.168698,2.32536 -1.499497,3.945495 0,0 0.693498,-0.190568 1.480696,-0.571807 z"
     id="path1299"
     style="fill:currentColor;fill-opacity:1;stroke-width:1.00843"
     class="ColorScheme-Text" /><path
     d="m 14.306558,26.154326 c 0,0.552555 -0.447447,1.000004 -0.999999,1.000004 -0.552084,10e-7 -0.999997,-0.447449 -0.999997,-1.000004 0,-0.552085 0.447913,-0.999996 0.999997,-0.999996 0.552552,0 0.999999,0.447911 0.999999,0.999996 z"
     id="path72-3"
     style="fill:currentColor;fill-opacity:1;stroke-width:0.0119051"
     class="ColorScheme-Text " /></g><g
   id="22-22-thunderbird"><rect
     style="opacity:0.00100002;fill:#eff0f1;fill-opacity:1"
     width="22"
     height="22"
     x="32"
     y="10"
     id="rect1452" /><path
     d="m 50.819712,19.800111 c -0.150002,-0.813254 -0.462399,-1.601086 -0.8872,-2.312649 -0.1204,-0.219177 -0.278133,-0.426761 -0.4124,-0.622685 -0.899666,-1.283403 -1.611998,-1.715453 -1.749396,-1.791721 -0.124932,-0.08895 -0.249934,-0.177891 -0.374868,-0.254091 -1.162132,-0.737053 -1.911863,-0.838677 -1.911863,-0.838677 -0.537334,-0.228736 -1.062132,-0.355781 -1.44953,-0.419372 -0.837201,-0.10169 -1.537,-0.08894 -2.149264,0 0.1,-0.17789 0.187467,-0.241346 0.212398,-0.25409 0.01546,0 0.01107,0 0,0 -0.299865,0.02542 -0.662265,0.228736 -0.987131,0.432049 0.224866,-0.444727 0.699732,-0.698953 0.7622,-0.737121 h 0.01246 C 41.510314,12.976404 40.448184,13.21788 39.535984,14.247192 36.699331,15.45426 35,18.097335 35,20.981755 c 0,2.185671 0.837199,3.761333 1.749398,4.803323 0.862198,0.953044 1.81193,1.461295 2.261729,1.601086 0.0472,0.01892 0.15,0.02543 0.15,0.02543 0.01246,-0.03811 -0.574799,-0.991144 -0.837265,-2.134825 0.524866,0.546418 1.149664,0.96579 1.849397,1.04199 0.075,0.01275 -0.249933,-0.393881 -0.599798,-0.927554 l 0.474865,0.165145 5.210727,1.7663 c -0.512334,0.533671 -1.1996,1.054666 -2.136797,1.512138 0,0 2.09933,-0.177892 3.136462,-1.359672 -0.424867,0.991146 -1.586997,1.524886 -1.586997,1.524886 0.84973,-0.127114 3.098995,-0.800577 4.523525,-2.617651 1.624466,-2.058558 2.111798,-3.99007 1.624466,-6.5823 z m -4.148661,4.815999 c -0.1624,0.800509 -0.4998,1.6901 -1.262,2.541384 l -9.20952,-3.113224 c -0.262399,-0.851354 -0.387332,-1.842498 -0.312399,-2.998856 0.162467,0.305005 0.649799,0.559096 0.949665,0.57184 -0.699732,-1.588407 -0.424866,-2.681243 0.1,-3.405483 a 423.78608,430.95131 0 0 1 0.687266,1.029244 v -0.07627 c 0.01247,-0.10169 0.025,-0.17789 0.05,-0.25409 -0.237466,-0.35585 -0.437332,-0.660786 -0.587332,-0.876845 0.2874,-0.330359 0.612265,-0.571772 0.899731,-0.736985 0.01247,0.13979 0.03747,0.266836 0.07493,0.419304 0.05,0.216058 0.06247,0.53374 0.03747,0.787899 v -0.01275 c 0,0.05085 -0.01246,0.101691 -0.02493,0.152536 -0.01253,0.05085 -0.150001,0.190501 -0.187467,0.559096 -0.03747,0.393882 0.1,0.60994 0.2374,0.775086 0.162466,-0.152468 0.462399,-0.533672 1.012199,-0.749731 0.549798,-0.228669 0.912197,-0.559095 1.611997,-0.914877 0.412332,-0.215991 0.849666,-0.190636 1.399466,-0.165214 0.987197,0.177892 2.286729,0.533741 3.498859,0.597264 0.274866,0.660786 0.387334,1.613763 0.387334,1.639252 0,0.08888 0.01253,0.165146 0.01253,0.241346 -2.149332,0.826 -4.673461,1.766298 -5.735594,2.04588 -0.08746,0.02543 -1.012196,-1.334181 -1.874395,-2.630397 -0.01246,0.02543 -0.03747,0.03817 -0.05,0.05085 -0.02493,0.02543 -0.05,0.05085 -0.06247,0.07627 h -0.07493 c 0.924663,1.385026 1.911862,2.820897 2.011797,2.820897 0.937197,-0.343036 3.73626,-1.321502 5.773057,-2.033066 -0.01247,1.562985 -0.387333,2.147502 -0.387333,2.147502 0,0 0.512334,-0.203381 1.037133,-0.736986 0,0.431982 -0.112466,1.55024 -0.999665,2.63033 0,0 0.462332,-0.127045 0.987131,-0.381204 z"
     id="path1299-3"
     style="fill:currentColor;fill-opacity:1;stroke-width:0.672287"
     class="ColorScheme-Text" /><path
     d="m 41.827996,28.034267 c 0,0.414417 -0.335583,0.750004 -0.749999,0.750004 -0.414064,1e-6 -0.749997,-0.335587 -0.749997,-0.750004 0,-0.414063 0.335933,-0.749996 0.749997,-0.749996 0.414416,0 0.749999,0.335933 0.749999,0.749996 z"
     id="path72-3-3"
     style="fill:currentColor;fill-opacity:1;stroke-width:0.0089288"
     class="ColorScheme-Text " /></g></svg>
