<?xml version="1.0" encoding="UTF-8" standalone="no"?>
<svg
   width="32"
   height="32"
   version="1.1"
   id="svg22"
   sodipodi:docname="touchpad.svg"
   inkscape:version="1.2 (dc2aedaf03, 2022-05-15)"
   xmlns:inkscape="http://www.inkscape.org/namespaces/inkscape"
   xmlns:sodipodi="http://sodipodi.sourceforge.net/DTD/sodipodi-0.dtd"
   xmlns:xlink="http://www.w3.org/1999/xlink"
   xmlns="http://www.w3.org/2000/svg"
   xmlns:svg="http://www.w3.org/2000/svg"
   xmlns:rdf="http://www.w3.org/1999/02/22-rdf-syntax-ns#"
   xmlns:cc="http://creativecommons.org/ns#"
   xmlns:dc="http://purl.org/dc/elements/1.1/">
  <style
     id="current-color-scheme"
     type="text/css">.ColorScheme-Highlight { color:#21abcd; }
.ColorScheme-Text { color:#eff0f1; }
</style>
  <g
     id="22-22-touchpad_disabled"
     transform="translate(32,-22.000015)">
    <rect
       style="opacity:0.00100002"
       width="22"
       height="22"
       x="0"
       y="0"
       id="rect7" />
    <path
       fill-rule="evenodd"
       clip-rule="evenodd"
       d="m 16.930345,16.142857 c 0,0.315571 -0.22276,0.571428 -0.497512,0.571428 -0.274751,0 -0.497512,-0.255857 -0.497512,-0.571428 0,-0.315572 0.222761,-0.571429 0.497512,-0.571429 0.274752,0 0.497512,0.255857 0.497512,0.571429 z m -1.990049,0 c 0,0.315571 -0.222761,0.571428 -0.497512,0.571428 -0.274751,0 -0.497512,-0.255857 -0.497512,-0.571428 0,-0.315572 0.222761,-0.571429 0.497512,-0.571429 0.274751,0 0.497512,0.255857 0.497512,0.571429 z m -1.990049,0 c 0,0.315571 -0.222761,0.571428 -0.497513,0.571428 -0.27475,0 -0.497512,-0.255857 -0.497512,-0.571428 0,-0.315572 0.222762,-0.571429 0.497512,-0.571429 0.274752,0 0.497513,0.255857 0.497513,0.571429 z M 3,13 V 5.285714 C 3,4.023429 3.891045,3 4.990049,3 h 11.940296 c 1.099006,0 1.99005,1.023429 1.99005,2.285714 v 6.285714 c 0,0.315572 -0.222761,0.571428 -0.497512,0.571428 -0.274752,0 -0.497512,-0.255856 -0.497512,-0.571428 V 5.285714 c 0,-0.631143 -0.445532,-1.2749 -0.995026,-1.271832 L 4.990049,4.080552 C 4.440556,4.083652 3.995025,4.654575 3.995025,5.285718 v 7.428571 c 0,0.315571 0.222761,0.571429 0.497512,0.571429 h 13.184077 c 0.687003,0 1.243781,0.639499 1.243781,1.428571 v 1.999999 C 18.920395,17.976571 18.029351,19 16.930345,19 H 4.990049 C 3.891045,19 3,17.976571 3,16.714285 v -0.571428 c 0,-0.315572 0.222761,-0.571429 0.497512,-0.571429 0.274751,0 0.497513,0.255857 0.497513,0.571429 v 0.571428 c 0,0.631143 0.445522,1.142857 0.995024,1.142857 h 11.940296 c 0.549503,0 0.995026,-0.511714 0.995026,-1.142857 v -1.714286 c 0,-0.315571 -0.222762,-0.571428 -0.497513,-0.571428 H 4.243781 C 3.556778,14.428571 3,13.789071 3,13 Z"
       id="path2-3-5-1"
       style="stroke-width:0.0333246;fill-opacity:1;fill:currentColor;opacity:0.5;"
       sodipodi:nodetypes="ssssssssssssssssssssssssssssssssssssssssssssss"
       class="ColorScheme-Text" />
    <rect
       style="stroke-opacity:0.550265;stroke-width:0.560001;fill-opacity:1;fill:currentColor;opacity:0.5;"
       height="7.9999995"
       rx="3.9999998"
       y="4.6612444"
       x="7"
       width="7.9999995"
       id="rect16-6-6-2"
       class="ColorScheme-Highlight" />
    <path
       style="stroke-opacity:1;stroke-dasharray:none;stroke-miterlimit:4;stroke-width:8.5066;stroke:none;fill-rule:nonzero;fill-opacity:1;fill:currentColor;"
       d="m 10.89926,5.938193 c -0.537996,-0.0025 -0.999274,0.09739 -1.418759,0.307427 -0.139637,0.06987 -0.16138,0.09443 -0.15234,0.169921 0.01847,0.154045 0.09801,0.169001 0.333593,0.06327 0.437975,-0.196547 0.651069,-0.238463 1.203517,-0.239069 0.634026,-5.1e-4 0.867522,0.05377 1.387502,0.323045 0.08934,0.04623 0.372171,0.264529 0.477733,0.147268 0.10455,-0.104546 0.04936,-0.191067 -0.219923,-0.344142 C 11.979623,6.064054 11.515703,5.94111 10.89926,5.93819 Z M 10.88277,6.560849 C 10.172926,6.560305 9.463523,6.840763 8.94332,7.402647 8.742077,7.620014 8.507381,7.97628 8.507381,8.064364 c 0,0.10271 0.04235,0.159373 0.119141,0.159373 0.06016,0 0.12144,-0.06491 0.267189,-0.283986 0.325962,-0.489885 0.748545,-0.814889 1.292969,-0.994524 0.422219,-0.137813 0.916649,-0.121854 1.391794,0 0.613496,0.201647 1.139809,0.650889 1.428127,1.219137 0.06268,0.123647 0.100264,0.161332 0.161718,0.161332 0.105833,0 0.167972,-0.07877 0.139062,-0.176566 C 13.260821,7.991382 13.012079,7.609148 12.823793,7.405772 12.302865,6.843094 11.592623,6.561389 10.882778,6.560849 Z m 0.03359,0.61836 c -0.151293,-0.0022 -0.304805,0.01174 -0.458202,0.04379 C 9.729237,7.375364 9.11998,7.965697 8.924955,8.708545 8.821456,9.102752 8.869025,9.746649 9.039798,10.26167 c 0.05107,0.153913 0.07569,0.186011 0.148826,0.194533 0.168198,0.01949 0.18463,-0.06055 0.08398,-0.408596 -0.28799,-0.996026 -0.04005,-1.84342 0.674224,-2.305468 0.706181,-0.456817 1.677412,-0.321622 2.23008,0.310157 0.346324,0.395904 0.53628,1.065569 0.385151,1.357813 -0.09983,0.193064 -0.342907,0.309094 -0.542577,0.258984 -0.145914,-0.03665 -0.318878,-0.215937 -0.341017,-0.353516 -0.07814,-0.485498 -0.188419,-0.675495 -0.467577,-0.805469 -0.238132,-0.110879 -0.43662,-0.107816 -0.670311,0.01053 -0.217744,0.110295 -0.384575,0.3329 -0.418362,0.558208 -0.01216,0.08119 -0.007,0.256887 0.0121,0.390235 0.117803,0.830615 0.71208,1.487705 1.528124,1.689843 0.102627,0.02544 0.270421,0.04334 0.373047,0.03987 l 0.186719,-0.0065 c 0.105471,-0.05355 0.111243,-0.176758 0,-0.237499 l -0.264058,-0.04019 c -0.332354,-0.05063 -0.469983,-0.09446 -0.698434,-0.223066 -0.496798,-0.279673 -0.852731,-0.885949 -0.852731,-1.452344 0,-0.249606 0.0945,-0.395404 0.314841,-0.48672 0.159207,-0.06594 0.161491,-0.06594 0.320702,0 0.20149,0.0835 0.298477,0.223252 0.323437,0.465236 0.04578,0.444095 0.354016,0.736328 0.776563,0.736328 0.339117,0 0.62456,-0.220064 0.725783,-0.559374 C 12.967378,9.062591 12.834388,8.504841 12.555027,8.0806 12.184807,7.518373 11.571975,7.190435 10.916356,7.179045 Z m -0.02183,0.643359 c -0.211161,0.0023 -0.428299,0.04163 -0.606254,0.110934 C 10.01389,8.067888 9.752419,8.336268 9.617183,8.62179 9.514271,8.839038 9.508137,8.872871 9.508199,9.241712 c 7.4e-5,0.453775 0.05503,0.694834 0.250387,1.10234 0.168373,0.351134 0.401645,0.657384 0.660937,0.86719 0.224752,0.181853 0.248628,0.19068 0.34219,0.122264 0.09579,-0.07006 0.04235,-0.190303 -0.151171,-0.33867 C 10.400704,10.833963 10.174063,10.54297 10.021092,10.237804 9.76982,9.73656 9.706516,9.11707 9.870307,8.762412 9.989183,8.505014 10.170449,8.313013 10.401557,8.19952 c 0.27767,-0.136358 0.683263,-0.136358 0.960934,0 0.331424,0.162755 0.543334,0.459099 0.618367,0.865629 0.04478,0.242657 0.112574,0.323313 0.216012,0.256641 C 12.2448,9.29084 12.25524,9.23941 12.25072,9.0546 12.23984,8.605348 11.925124,8.154294 11.465171,7.92843 11.310771,7.8533 11.105623,7.819895 10.89447,7.822568 Z"
       id="path20-7-2-7"
       class="ColorScheme-Text" />
    <path
       style="stroke-opacity:1;stroke-dasharray:none;stroke-miterlimit:4;stroke-width:8.5066;stroke:none;fill-rule:nonzero;fill-opacity:1;fill:currentColor;"
       d="M 11.832096,10.552274 C 11.252376,10.42581 10.805536,9.915042 10.75537,9.321489 10.73948,9.133894 10.74501,9.1091 10.80992,9.074333 c 0.12374,-0.06625 0.195256,0.0027 0.22,0.213867 0.06226,0.529481 0.45134,0.928814 0.974793,1.000402 0.256105,0.03506 0.338469,0.133354 0.215075,0.256746 -0.06175,0.06175 -0.1306,0.06304 -0.387726,0.0071 z"
       id="path22-53-9-0"
       class="ColorScheme-Text" />
  </g>
  <g
     id="touchpad_enabled">
    <rect
       style="opacity:0.00100002"
       width="32"
       height="32"
       x="0"
       y="0"
       id="rect12" />
    <path
       fill-rule="evenodd"
       clip-rule="evenodd"
       d="m 24.895519,23.714286 c 0,0.473357 -0.334141,0.857142 -0.746268,0.857142 -0.412127,0 -0.746269,-0.383785 -0.746269,-0.857142 0,-0.473358 0.334142,-0.857144 0.746269,-0.857144 0.412127,0 0.746268,0.383786 0.746268,0.857144 z m -2.985074,0 c 0,0.473357 -0.334142,0.857142 -0.746268,0.857142 -0.412127,0 -0.746269,-0.383785 -0.746269,-0.857142 0,-0.473358 0.334142,-0.857144 0.746269,-0.857144 0.412126,0 0.746268,0.383786 0.746268,0.857144 z m -2.985074,0 c 0,0.473357 -0.334142,0.857142 -0.746269,0.857142 -0.412126,0 -0.746268,-0.383785 -0.746268,-0.857142 0,-0.473358 0.334142,-0.857144 0.746268,-0.857144 0.412127,0 0.746269,0.383786 0.746269,0.857144 z M 4,19 V 7.428571 C 4,5.535143 5.336567,4 6.985074,4 h 17.910445 c 1.648508,0 2.985075,1.535143 2.985075,3.428571 v 9.428572 c 0,0.473357 -0.334142,0.857142 -0.746269,0.857142 -0.412127,0 -0.746268,-0.383785 -0.746268,-0.857142 V 7.428571 c 0,-0.946714 -0.668297,-1.91235 -1.492538,-1.907748 l -17.910445,0.1 c -0.82424,0.0046 -1.492537,0.861035 -1.492537,1.807749 v 11.142857 c 0,0.473357 0.334142,0.857144 0.746268,0.857144 h 19.776117 c 1.030504,0 1.865672,0.959249 1.865672,2.142857 v 2.999999 c 0,1.893429 -1.336567,3.428572 -2.985075,3.428572 H 6.985074 C 5.336567,28.000001 4,26.464858 4,24.571429 v -0.857143 c 0,-0.473358 0.334141,-0.857144 0.746268,-0.857144 0.412127,0 0.746269,0.383786 0.746269,0.857144 v 0.857142 c 0,0.946715 0.668283,1.714286 1.492537,1.714286 h 17.910445 c 0.824254,0 1.492538,-0.767571 1.492538,-1.714286 v -2.571429 c 0,-0.473356 -0.334142,-0.857142 -0.746269,-0.857142 H 5.865671 C 4.835167,21.142857 4,20.183607 4,19 Z"
       id="path2"
       style="stroke-width:0.0499869;fill-opacity:1;fill:currentColor;"
       sodipodi:nodetypes="ssssssssssssssssssssssssssssssssssssssssssssss"
       class="ColorScheme-Text" />
    <rect
       style="stroke-opacity:0.550265;stroke-width:0.840001;fill-opacity:1;fill:currentColor;"
       height="12"
       rx="6"
       y="6.4918694"
       x="10"
       width="12"
       id="rect16"
       class="ColorScheme-Highlight" />
    <path
       style="stroke-opacity:1;stroke-dasharray:none;stroke-miterlimit:4;stroke-width:12.7599;stroke:none;fill-rule:nonzero;fill-opacity:1;fill:currentColor;"
       d="m 15.84889,8.4072889 c -0.806994,-0.00369 -1.498911,0.1460894 -2.128138,0.4611407 -0.209456,0.1048078 -0.24207,0.1416497 -0.22851,0.2548827 0.0277,0.2310667 0.147009,0.2535007 0.50039,0.0949 0.656962,-0.2948216 0.976603,-0.3576954 1.805275,-0.3586044 0.951039,-7.64e-4 1.301283,0.08065 2.081253,0.4845681 0.134007,0.06935 0.558257,0.396794 0.716599,0.220902 C 18.752585,9.408259 18.669799,9.2784773 18.265875,9.0488646 17.469435,8.5960773 16.773555,8.4116607 15.84889,8.40728 Z M 15.82416,9.341273 c -1.064766,-8.16e-4 -2.128871,0.419872 -2.909175,1.262698 -0.301865,0.326051 -0.653909,0.860449 -0.653909,0.992575 0,0.154066 0.06352,0.23906 0.178712,0.23906 0.09024,0 0.18216,-0.09737 0.400783,-0.425979 0.488944,-0.734827 1.122818,-1.222333 1.939454,-1.491786 0.633329,-0.20672 1.374974,-0.182781 2.087691,0 0.920244,0.30247 1.709714,0.976333 2.142191,1.828705 0.09402,0.185471 0.150396,0.241998 0.242576,0.241998 0.15875,0 0.251959,-0.118151 0.208594,-0.264848 -0.06984,-0.236622 -0.442953,-0.809973 -0.725383,-1.115038 C 17.954303,9.764641 16.88894,9.342083 15.824172,9.341273 Z m 0.05039,0.927541 c -0.22694,-0.0033 -0.457208,0.01761 -0.687303,0.06569 -1.093382,0.228547 -2.007267,1.114047 -2.299805,2.228318 -0.155248,0.591311 -0.0839,1.557157 0.172264,2.329688 0.07661,0.23087 0.11353,0.279017 0.223239,0.291799 0.252297,0.02924 0.276946,-0.09083 0.125977,-0.612893 -0.431985,-1.49404 -0.06008,-2.76513 1.011336,-3.458202 1.059271,-0.685226 2.516117,-0.482434 3.345119,0.465235 0.519486,0.593856 0.804421,1.598353 0.577727,2.036719 -0.149751,0.289597 -0.514361,0.463642 -0.813866,0.388477 -0.21887,-0.05498 -0.478316,-0.323906 -0.511525,-0.530275 -0.11721,-0.728247 -0.282629,-1.013242 -0.701365,-1.208203 -0.357198,-0.166318 -0.65493,-0.161724 -1.005467,0.01579 -0.326616,0.165443 -0.576863,0.499351 -0.627543,0.837312 -0.01824,0.121787 -0.01045,0.385331 0.01815,0.585353 0.176704,1.245923 1.06812,2.231557 2.292186,2.534765 0.153941,0.03816 0.405632,0.06501 0.559571,0.05981 l 0.280078,-0.0098 c 0.158207,-0.08032 0.166865,-0.265137 0,-0.356249 l -0.396087,-0.06028 c -0.498531,-0.07594 -0.704974,-0.141689 -1.047651,-0.3346 -0.745197,-0.419509 -1.279097,-1.328923 -1.279097,-2.178516 0,-0.374408 0.141752,-0.593106 0.472262,-0.730079 0.238811,-0.09891 0.242237,-0.09891 0.481053,0 0.302235,0.125255 0.447716,0.334877 0.485156,0.697853 0.06867,0.666143 0.531024,1.104493 1.164844,1.104493 0.508675,0 0.93684,-0.330096 1.088675,-0.839061 0.148607,-0.498111 -0.05088,-1.334737 -0.469922,-1.971098 -0.55533,-0.843341 -1.474578,-1.335247 -2.458006,-1.352332 z m -0.03275,0.965039 c -0.316741,0.0034 -0.642448,0.06244 -0.909381,0.1664 -0.411579,0.20158 -0.803785,0.604149 -1.006639,1.032432 -0.154368,0.325873 -0.16357,0.376622 -0.163476,0.929883 1.1e-4,0.680663 0.08254,1.042251 0.37558,1.65351 0.252559,0.526702 0.602468,0.986076 0.991405,1.300785 0.337129,0.27278 0.372943,0.286021 0.513285,0.183397 0.143681,-0.105095 0.06353,-0.285455 -0.226756,-0.508005 -0.314757,-0.24131 -0.654718,-0.677799 -0.884175,-1.135549 -0.376908,-0.751865 -0.471864,-1.6811 -0.226178,-2.213088 0.178314,-0.386097 0.450214,-0.674098 0.796876,-0.844337 0.416505,-0.204538 1.024894,-0.204538 1.441401,0 0.497135,0.244132 0.815,0.688648 0.92755,1.298443 0.06717,0.363985 0.168861,0.484969 0.324018,0.384962 0.0719,-0.04642 0.08756,-0.123575 0.08078,-0.400785 -0.01632,-0.673878 -0.488395,-1.35046 -1.178324,-1.689256 -0.2316,-0.112699 -0.539322,-0.162802 -0.856051,-0.158792 z"
       id="path20"
       class="ColorScheme-Text" />
    <path
       style="stroke-opacity:1;stroke-dasharray:none;stroke-miterlimit:4;stroke-width:12.7599;stroke:none;fill-rule:nonzero;fill-opacity:1;fill:currentColor;"
       d="m 17.248144,15.328412 c -0.86958,-0.189696 -1.53984,-0.955848 -1.615088,-1.846178 -0.02383,-0.281393 -0.01554,-0.318583 0.08183,-0.370734 0.18561,-0.09938 0.292884,0.0041 0.33,0.320801 0.09339,0.794221 0.67701,1.39322 1.46219,1.500603 0.384157,0.05259 0.507703,0.20003 0.322612,0.385119 -0.09263,0.09263 -0.195899,0.09456 -0.581589,0.01063 z"
       id="path22"
       class="ColorScheme-Text" />
  </g>
  <metadata
     id="metadata28">
    <rdf:RDF>
      <cc:Work
         rdf:about="">
        <dc:format>image/svg+xml</dc:format>
        <dc:type
           rdf:resource="http://purl.org/dc/dcmitype/StillImage" />
      </cc:Work>
    </rdf:RDF>
  </metadata>
  <defs
     id="defs26">
    <linearGradient
       gradientTransform="matrix(0.35000018,0,0,0.35000018,-127.12577,-169.60226)"
       xlink:href="#linearGradient4177"
       id="linearGradient4205"
       x1="388.73499"
       y1="503.991"
       x2="428.40799"
       y2="543.93201"
       gradientUnits="userSpaceOnUse" />
    <linearGradient
       id="linearGradient4177">
      <stop
         offset="0"
         style="stop-color:#3f3f3f;stop-opacity:1;"
         id="stop3" />
      <stop
         style="stop-color:#de7d9c;stop-opacity:1"
         offset=".11"
         id="stop5" />
      <stop
         offset=".449"
         style="stop-color:#cc3d8a;stop-opacity:1"
         id="stop7" />
      <stop
         style="stop-color:#5f2b76;stop-opacity:1"
         offset=".934"
         id="stop9" />
      <stop
         offset="1"
         style="stop-color:#3f3f3f;stop-opacity:0;"
         id="stop11" />
    </linearGradient>
  </defs>
  <sodipodi:namedview
     pagecolor="#ffffff"
     bordercolor="#000000"
     borderopacity="1"
     objecttolerance="10"
     gridtolerance="10"
     guidetolerance="10"
     inkscape:pageopacity="0"
     inkscape:pageshadow="2"
     inkscape:window-width="1920"
     inkscape:window-height="1002"
     id="namedview24"
     showgrid="false"
     inkscape:zoom="6.9384855"
     inkscape:cx="33.076382"
     inkscape:cy="2.0897932"
     inkscape:window-x="0"
     inkscape:window-y="0"
     inkscape:window-maximized="1"
     inkscape:current-layer="svg22"
     inkscape:document-rotation="0"
     inkscape:lockguides="true"
     inkscape:showpageshadow="false"
     inkscape:pagecheckerboard="0"
     inkscape:deskcolor="#d1d1d1">
    <inkscape:grid
       type="xygrid"
       id="grid917"
       originx="0"
       originy="0" />
  </sodipodi:namedview>
  <g
     id="touchpad_disabled">
    <rect
       style="opacity:0.00100002"
       width="32"
       height="32"
       x="32"
       y="2.5878907e-07"
       id="rect17" />
    <path
       fill-rule="evenodd"
       clip-rule="evenodd"
       d="m 56.895519,23.714286 c 0,0.473357 -0.334141,0.857142 -0.746268,0.857142 -0.412127,0 -0.746269,-0.383785 -0.746269,-0.857142 0,-0.473358 0.334142,-0.857144 0.746269,-0.857144 0.412127,0 0.746268,0.383786 0.746268,0.857144 z m -2.985074,0 c 0,0.473357 -0.334142,0.857142 -0.746268,0.857142 -0.412127,0 -0.746269,-0.383785 -0.746269,-0.857142 0,-0.473358 0.334142,-0.857144 0.746269,-0.857144 0.412126,0 0.746268,0.383786 0.746268,0.857144 z m -2.985074,0 c 0,0.473357 -0.334142,0.857142 -0.746269,0.857142 -0.412126,0 -0.746268,-0.383785 -0.746268,-0.857142 0,-0.473358 0.334142,-0.857144 0.746268,-0.857144 0.412127,0 0.746269,0.383786 0.746269,0.857144 z M 36,19 V 7.428571 C 36,5.535143 37.336567,4 38.985074,4 h 17.910445 c 1.648508,0 2.985075,1.535143 2.985075,3.428571 v 9.428572 c 0,0.473357 -0.334142,0.857142 -0.746269,0.857142 -0.412127,0 -0.746268,-0.383785 -0.746268,-0.857142 V 7.428571 c 0,-0.946714 -0.668297,-1.91235 -1.492538,-1.907748 l -17.910445,0.1 c -0.82424,0.0046 -1.492537,0.861035 -1.492537,1.807749 v 11.142857 c 0,0.473357 0.334142,0.857144 0.746268,0.857144 h 19.776117 c 1.030504,0 1.865672,0.959249 1.865672,2.142857 v 2.999999 c 0,1.893429 -1.336567,3.428572 -2.985075,3.428572 H 38.985074 C 37.336567,28.000001 36,26.464858 36,24.571429 v -0.857143 c 0,-0.473358 0.334141,-0.857144 0.746268,-0.857144 0.412127,0 0.746269,0.383786 0.746269,0.857144 v 0.857142 c 0,0.946715 0.668283,1.714286 1.492537,1.714286 h 17.910445 c 0.824254,0 1.492538,-0.767571 1.492538,-1.714286 v -2.571429 c 0,-0.473356 -0.334142,-0.857142 -0.746269,-0.857142 H 37.865671 C 36.835167,21.142857 36,20.183607 36,19 Z"
       id="path2-3"
       style="stroke-width:0.0499869;fill-opacity:1;fill:currentColor;opacity:0.5;"
       sodipodi:nodetypes="ssssssssssssssssssssssssssssssssssssssssssssss"
       class="ColorScheme-Text" />
    <rect
       style="stroke-opacity:0.550265;stroke-width:0.840001;fill-opacity:1;fill:currentColor;opacity:0.5;"
       height="12"
       rx="6"
       y="6.4918694"
       x="42"
       width="12"
       id="rect16-6"
       class="ColorScheme-Highlight" />
    <path
       style="stroke-opacity:1;stroke-dasharray:none;stroke-miterlimit:4;stroke-width:12.7599;stroke:none;fill-rule:nonzero;fill-opacity:1;fill:currentColor;"
       d="m 47.84889,8.407289 c -0.806994,-0.0037 -1.498911,0.146089 -2.128138,0.461141 -0.209456,0.104807 -0.24207,0.141649 -0.22851,0.254882 0.0277,0.231067 0.147009,0.253501 0.50039,0.0949 0.656962,-0.294821 0.976603,-0.357695 1.805275,-0.358604 0.951039,-7.64e-4 1.301283,0.08065 2.081253,0.484568 0.134007,0.06935 0.558257,0.396794 0.716599,0.220902 C 50.752585,9.408259 50.669799,9.278477 50.265875,9.048865 49.469435,8.596077 48.773555,8.411661 47.84889,8.40728 Z m -0.02473,0.933984 c -1.064766,-8.16e-4 -2.128871,0.419872 -2.909175,1.262698 -0.301865,0.326051 -0.653909,0.860449 -0.653909,0.992575 0,0.154066 0.06352,0.23906 0.178712,0.23906 0.09024,0 0.18216,-0.09737 0.400783,-0.425979 0.488944,-0.734827 1.122818,-1.222333 1.939454,-1.491786 0.633329,-0.20672 1.374974,-0.182781 2.087691,0 0.920244,0.30247 1.709714,0.976333 2.142191,1.828705 0.09402,0.185471 0.150396,0.241998 0.242576,0.241998 0.15875,0 0.251959,-0.118151 0.208594,-0.264848 -0.06984,-0.236622 -0.442953,-0.809973 -0.725383,-1.115038 C 49.954303,9.764641 48.88894,9.342083 47.824172,9.341273 Z m 0.05039,0.927541 c -0.22694,-0.0033 -0.457208,0.01761 -0.687303,0.06569 -1.093382,0.228547 -2.007267,1.114047 -2.299805,2.228318 -0.155248,0.591311 -0.0839,1.557157 0.172264,2.329688 0.07661,0.23087 0.11353,0.279017 0.223239,0.291799 0.252297,0.02924 0.276946,-0.09083 0.125977,-0.612893 -0.431985,-1.49404 -0.06008,-2.76513 1.011336,-3.458202 1.059271,-0.685226 2.516117,-0.482434 3.345119,0.465235 0.519486,0.593856 0.804421,1.598353 0.577727,2.036719 -0.149751,0.289597 -0.514361,0.463642 -0.813866,0.388477 -0.21887,-0.05498 -0.478316,-0.323906 -0.511525,-0.530275 -0.11721,-0.728247 -0.282629,-1.013242 -0.701365,-1.208203 -0.357198,-0.166318 -0.65493,-0.161724 -1.005467,0.01579 -0.326616,0.165443 -0.576863,0.499351 -0.627543,0.837312 -0.01824,0.121787 -0.01045,0.385331 0.01815,0.585353 0.176704,1.245923 1.06812,2.231557 2.292186,2.534765 0.153941,0.03816 0.405632,0.06501 0.559571,0.05981 l 0.280078,-0.0098 c 0.158207,-0.08032 0.166865,-0.265137 0,-0.356249 l -0.396087,-0.06028 c -0.498531,-0.07594 -0.704974,-0.141689 -1.047651,-0.3346 -0.745197,-0.419509 -1.279097,-1.328923 -1.279097,-2.178516 0,-0.374408 0.141752,-0.593106 0.472262,-0.730079 0.238811,-0.09891 0.242237,-0.09891 0.481053,0 0.302235,0.125255 0.447716,0.334877 0.485156,0.697853 0.06867,0.666143 0.531024,1.104493 1.164844,1.104493 0.508675,0 0.93684,-0.330096 1.088675,-0.839061 0.148607,-0.498111 -0.05088,-1.334737 -0.469922,-1.971098 -0.55533,-0.843341 -1.474578,-1.335247 -2.458006,-1.352332 z m -0.03275,0.965039 c -0.316741,0.0034 -0.642448,0.06244 -0.909381,0.1664 -0.411579,0.20158 -0.803785,0.604149 -1.006639,1.032432 -0.154368,0.325873 -0.16357,0.376622 -0.163476,0.929883 1.1e-4,0.680663 0.08254,1.042251 0.37558,1.65351 0.252559,0.526702 0.602468,0.986076 0.991405,1.300785 0.337129,0.27278 0.372943,0.286021 0.513285,0.183397 0.143681,-0.105095 0.06353,-0.285455 -0.226756,-0.508005 -0.314757,-0.24131 -0.654718,-0.677799 -0.884175,-1.135549 -0.376908,-0.751865 -0.471864,-1.6811 -0.226178,-2.213088 0.178314,-0.386097 0.450214,-0.674098 0.796876,-0.844337 0.416505,-0.204538 1.024894,-0.204538 1.441401,0 0.497135,0.244132 0.815,0.688648 0.92755,1.298443 0.06717,0.363985 0.168861,0.484969 0.324018,0.384962 0.0719,-0.04642 0.08756,-0.123575 0.08078,-0.400785 -0.01632,-0.673878 -0.488395,-1.35046 -1.178324,-1.689256 -0.2316,-0.112699 -0.539322,-0.162802 -0.856051,-0.158792 z"
       id="path20-7"
       class="ColorScheme-Text" />
    <path
       style="stroke-opacity:1;stroke-dasharray:none;stroke-miterlimit:4;stroke-width:12.7599;stroke:none;fill-rule:nonzero;fill-opacity:1;fill:currentColor;"
       d="m 49.248144,15.328412 c -0.86958,-0.189696 -1.53984,-0.955848 -1.615088,-1.846178 -0.02383,-0.281393 -0.01554,-0.318583 0.08183,-0.370734 0.18561,-0.09938 0.292884,0.0041 0.33,0.320801 0.09339,0.794221 0.67701,1.39322 1.46219,1.500603 0.384157,0.05259 0.507703,0.20003 0.322612,0.385119 -0.09263,0.09263 -0.195899,0.09456 -0.581589,0.01063 z"
       id="path22-53"
       class="ColorScheme-Text" />
  </g>
  <g
     id="22-22-touchpad_enabled"
     transform="translate(32,-22.000015)">
    <rect
       style="opacity:0.00100002"
       width="22"
       height="22"
       x="-32"
       y="2.5878907e-07"
       id="rect2" />
    <path
       fill-rule="evenodd"
       clip-rule="evenodd"
       d="m -15.069655,16.142857 c 0,0.315571 -0.22276,0.571428 -0.497512,0.571428 -0.274751,0 -0.497512,-0.255857 -0.497512,-0.571428 0,-0.315572 0.222761,-0.571429 0.497512,-0.571429 0.274752,0 0.497512,0.255857 0.497512,0.571429 z m -1.990049,0 c 0,0.315571 -0.222761,0.571428 -0.497512,0.571428 -0.274751,0 -0.497512,-0.255857 -0.497512,-0.571428 0,-0.315572 0.222761,-0.571429 0.497512,-0.571429 0.274751,0 0.497512,0.255857 0.497512,0.571429 z m -1.990049,0 c 0,0.315571 -0.222761,0.571428 -0.497513,0.571428 -0.27475,0 -0.497512,-0.255857 -0.497512,-0.571428 0,-0.315572 0.222762,-0.571429 0.497512,-0.571429 0.274752,0 0.497513,0.255857 0.497513,0.571429 z M -29,13 V 5.2857143 c 0,-1.262285 0.891045,-2.285714 1.990049,-2.285714 h 11.940296 c 1.099006,0 1.99005,1.023429 1.99005,2.285714 v 6.2857137 c 0,0.315572 -0.222761,0.571428 -0.497512,0.571428 -0.274752,0 -0.497512,-0.255856 -0.497512,-0.571428 V 5.2857143 c 0,-0.631143 -0.445532,-1.2749 -0.995026,-1.271832 l -11.940296,0.06667 c -0.549493,0.0031 -0.995024,0.574023 -0.995024,1.205166 v 7.4285707 c 0,0.315571 0.222761,0.571429 0.497512,0.571429 h 13.184077 c 0.687003,0 1.243781,0.639499 1.243781,1.428571 v 1.999999 c 0,1.262283 -0.891044,2.285712 -1.99005,2.285712 H -27.009951 C -28.108955,19 -29,17.976571 -29,16.714285 v -0.571428 c 0,-0.315572 0.222761,-0.571429 0.497512,-0.571429 0.274751,0 0.497513,0.255857 0.497513,0.571429 v 0.571428 c 0,0.631143 0.445522,1.142857 0.995024,1.142857 h 11.940296 c 0.549503,0 0.995026,-0.511714 0.995026,-1.142857 v -1.714286 c 0,-0.315571 -0.222762,-0.571428 -0.497513,-0.571428 H -27.756219 C -28.443222,14.428571 -29,13.789071 -29,13 Z"
       id="path2-3-5"
       style="stroke-width:0.0333246;fill-opacity:1;fill:currentColor;"
       sodipodi:nodetypes="ssssssssssssssssssssssssssssssssssssssssssssss"
       class="ColorScheme-Text" />
    <rect
       style="stroke-opacity:0.550265;stroke-width:0.560001;fill-opacity:1;fill:currentColor;"
       height="7.9999995"
       rx="3.9999998"
       y="4.6612449"
       x="-25"
       width="7.9999995"
       id="rect16-6-6"
       class="ColorScheme-Highlight" />
    <path
       style="stroke-opacity:1;stroke-dasharray:none;stroke-miterlimit:4;stroke-width:8.5066;stroke:none;fill-rule:nonzero;fill-opacity:1;fill:currentColor;"
       d="m -21.10074,5.9381933 c -0.537996,-0.0025 -0.999274,0.09739 -1.418759,0.307427 -0.139637,0.06987 -0.16138,0.09443 -0.15234,0.169921 0.01847,0.154045 0.09801,0.169001 0.333593,0.06327 0.437975,-0.196547 0.651069,-0.238463 1.203517,-0.239069 0.634026,-5.1e-4 0.867522,0.05377 1.387502,0.323045 0.08934,0.04623 0.372171,0.264529 0.477733,0.147268 0.10455,-0.104546 0.04936,-0.191067 -0.219923,-0.344142 -0.53096,-0.301859 -0.99488,-0.424803 -1.611323,-0.427723 z m -0.01649,0.622656 c -0.709844,-5.44e-4 -1.419247,0.279914 -1.93945,0.841798 -0.201243,0.217367 -0.435939,0.573633 -0.435939,0.661717 0,0.10271 0.04235,0.159373 0.119141,0.159373 0.06016,0 0.12144,-0.06491 0.267189,-0.283986 0.325962,-0.489885 0.748545,-0.814889 1.292969,-0.994524 0.422219,-0.137813 0.916649,-0.121854 1.391794,0 0.613496,0.201647 1.139809,0.650889 1.428127,1.219137 0.06268,0.123647 0.100264,0.161332 0.161718,0.161332 0.105833,0 0.167972,-0.07877 0.139062,-0.176566 -0.04656,-0.157748 -0.295302,-0.539982 -0.483588,-0.743358 -0.520928,-0.562678 -1.23117,-0.844383 -1.941015,-0.844923 z m 0.03359,0.61836 c -0.151293,-0.0022 -0.304805,0.01174 -0.458202,0.04379 -0.728921,0.152365 -1.338178,0.742698 -1.533203,1.485546 -0.103499,0.394207 -0.05593,1.038104 0.114843,1.5531247 0.05107,0.153913 0.07569,0.186011 0.148826,0.194533 0.168198,0.01949 0.18463,-0.06055 0.08398,-0.408596 -0.28799,-0.9960257 -0.04005,-1.8434197 0.674224,-2.3054677 0.706181,-0.456817 1.677412,-0.321622 2.23008,0.310157 0.346324,0.395904 0.53628,1.065569 0.385151,1.357813 -0.09983,0.193064 -0.342907,0.309094 -0.542577,0.258984 -0.145914,-0.03665 -0.318878,-0.215937 -0.341017,-0.353516 -0.07814,-0.485498 -0.188419,-0.675495 -0.467577,-0.805469 -0.238132,-0.110879 -0.43662,-0.107816 -0.670311,0.01053 -0.217744,0.110295 -0.384575,0.3329 -0.418362,0.558208 -0.01216,0.08119 -0.007,0.256887 0.0121,0.390235 0.117803,0.8306147 0.71208,1.4877047 1.528124,1.6898427 0.102627,0.02544 0.270421,0.04334 0.373047,0.03987 l 0.186719,-0.0065 c 0.105471,-0.05355 0.111243,-0.176758 0,-0.237499 l -0.264058,-0.04019 c -0.332354,-0.05063 -0.469983,-0.09446 -0.698434,-0.223066 -0.496798,-0.279673 -0.852731,-0.8859487 -0.852731,-1.4523437 0,-0.249606 0.0945,-0.395404 0.314841,-0.48672 0.159207,-0.06594 0.161491,-0.06594 0.320702,0 0.20149,0.0835 0.298477,0.223252 0.323437,0.465236 0.04578,0.444095 0.354016,0.736328 0.776563,0.736328 0.339117,0 0.62456,-0.220064 0.725783,-0.559374 0.09907,-0.332074 -0.03392,-0.889824 -0.313281,-1.314065 -0.37022,-0.562227 -0.983052,-0.890165 -1.638671,-0.901555 z m -0.02183,0.643359 c -0.211161,0.0023 -0.428299,0.04163 -0.606254,0.110934 -0.274386,0.134386 -0.535857,0.402766 -0.671093,0.688288 -0.102912,0.217248 -0.109046,0.251081 -0.108984,0.619922 7.4e-5,0.453775 0.05503,0.694834 0.250387,1.1023397 0.168373,0.351134 0.401645,0.657384 0.660937,0.86719 0.224752,0.181853 0.248628,0.19068 0.34219,0.122264 0.09579,-0.07006 0.04235,-0.190303 -0.151171,-0.33867 -0.209838,-0.160873 -0.436479,-0.451866 -0.58945,-0.757032 -0.251272,-0.5012437 -0.314576,-1.1207337 -0.150785,-1.4753917 0.118876,-0.257398 0.300142,-0.449399 0.53125,-0.562892 0.27767,-0.136358 0.683263,-0.136358 0.960934,0 0.331424,0.162755 0.543334,0.459099 0.618367,0.865629 0.04478,0.242657 0.112574,0.323313 0.216012,0.256641 0.04793,-0.03095 0.05837,-0.08238 0.05385,-0.26719 -0.01088,-0.449252 -0.325596,-0.900306 -0.785549,-1.12617 -0.1544,-0.07513 -0.359548,-0.108535 -0.570701,-0.105862 z"
       id="path20-7-2"
       class="ColorScheme-Text" />
    <path
       style="stroke-opacity:1;stroke-dasharray:none;stroke-miterlimit:4;stroke-width:8.5066;stroke:none;fill-rule:nonzero;fill-opacity:1;fill:currentColor;"
       d="m -20.167904,10.552274 c -0.57972,-0.126464 -1.02656,-0.6372317 -1.076726,-1.2307847 -0.01589,-0.187595 -0.01036,-0.212389 0.05455,-0.247156 0.12374,-0.06625 0.195256,0.0027 0.22,0.213867 0.06226,0.529481 0.45134,0.9288137 0.974793,1.0004017 0.256105,0.03506 0.338469,0.133354 0.215075,0.256746 -0.06175,0.06175 -0.1306,0.06304 -0.387726,0.0071 z"
       id="path22-53-9"
       class="ColorScheme-Text" />
  </g>
</svg>
