<?xml version="1.0" encoding="UTF-8" standalone="no"?>
<svg
   sodipodi:docname="update.svg"
   inkscape:version="1.1.2 (0a00cf5339, 2022-02-04)"
   id="svg846"
   version="1.1"
   viewBox="0 0 8.4666665 8.4666699"
   height="32.000011"
   width="32"
   xmlns:inkscape="http://www.inkscape.org/namespaces/inkscape"
   xmlns:sodipodi="http://sodipodi.sourceforge.net/DTD/sodipodi-0.dtd"
   xmlns="http://www.w3.org/2000/svg"
   xmlns:svg="http://www.w3.org/2000/svg"
   xmlns:rdf="http://www.w3.org/1999/02/22-rdf-syntax-ns#"
   xmlns:cc="http://creativecommons.org/ns#"
   xmlns:dc="http://purl.org/dc/elements/1.1/">
  <defs
     id="defs840" />
  <sodipodi:namedview
     inkscape:document-rotation="0"
     inkscape:snap-midpoints="true"
     inkscape:object-paths="true"
     inkscape:snap-intersection-paths="true"
     inkscape:snap-smooth-nodes="true"
     inkscape:window-maximized="1"
     inkscape:window-y="0"
     inkscape:window-x="0"
     inkscape:window-height="1013"
     inkscape:window-width="1920"
     units="px"
     showgrid="false"
     inkscape:current-layer="layer1"
     inkscape:document-units="px"
     inkscape:cy="1.625"
     inkscape:cx="-40.375"
     inkscape:zoom="4"
     inkscape:pageshadow="2"
     inkscape:pageopacity="0.0"
     borderopacity="1"
     bordercolor="#030303"
     pagecolor="#ffffff"
     id="base"
     inkscape:lockguides="true"
     inkscape:pagecheckerboard="0"
     inkscape:showpageshadow="false">
    <inkscape:grid
       id="grid1394"
       type="xygrid"
       originx="-25.399991"
       originy="-5.8207929" />
  </sodipodi:namedview>
  <metadata
     id="metadata843">
    <rdf:RDF>
      <cc:Work
         rdf:about="">
        <dc:format>image/svg+xml</dc:format>
        <dc:type
           rdf:resource="http://purl.org/dc/dcmitype/StillImage" />
      </cc:Work>
    </rdf:RDF>
  </metadata>
  <style
     type="text/css"
     id="current-color-scheme">.ColorScheme-Highlight { color:#21abcd; }
.ColorScheme-Text { color:#eff0f1; }
</style>
  <g
     transform="translate(-25.4,-296.99997)"
     id="layer1"
     inkscape:groupmode="layer"
     inkscape:label="Layer 1">
    <g
       id="g1462">
      <g
         id="update-none">
        <rect
           style="opacity:0.003;fill:#000000;fill-opacity:1;stroke:none;stroke-width:0.157018;stroke-miterlimit:4;stroke-dasharray:none;stroke-opacity:1"
           id="rect1396-6"
           width="8.4666672"
           height="8.46667"
           x="0"
           y="297"
           ry="1.8892064e-06" />
        <path
           fill-rule="evenodd"
           clip-rule="evenodd"
           d="m 7.4071092,301.27556 v -0.043 c 0,0.43835 -0.3552775,0.79375 -0.7934524,0.79375 H 6.2169305 c -0.2190874,0 -0.3967136,0.1777 -0.3967136,0.39687 v 0.19844 c 0,0.10959 -0.088813,0.19844 -0.1983631,0.19844 -0.1095375,0 -0.1983632,-0.0888 -0.1983632,-0.19844 v -0.19844 c 0,-0.43834 0.3552775,-0.79375 0.7934524,-0.79375 h 0.3967263 c 0.2190874,0 0.3967136,-0.1777 0.3967136,-0.39687 0,0 0.00164,-5.8e-4 0.00397,-10e-4 -2.911e-4,-0.10115 -0.038943,-0.20212 -0.1160238,-0.27925 l -2.3845118,-2.38542 c -0.1549675,-0.15498 -0.4060156,-0.15498 -0.5609828,0 l -2.3845119,2.38542 c -0.077093,0.0771 -0.1156395,0.17809 -0.1160239,0.27905 0.00233,9.8e-4 0.00397,0.002 0.00397,0.002 0,0.21918 0.1776265,0.39688 0.3967138,0.39688 h 0.3967261 c 0.4381873,0 0.7934524,0.3554 0.7934524,0.79375 v 1.19061 c 0,0.21917 0.1776388,0.39687 0.3967261,0.39687 h 1.3885417 c 0.1095499,0 0.1983629,0.0889 0.1983629,0.19844 0,0.10959 -0.088813,0.19844 -0.1983629,0.19844 h -1.388554 c -0.4381748,0 -0.7934523,-0.3554 -0.7934523,-0.79375 v -1.19063 c 0,-0.21917 -0.1776264,-0.39687 -0.3967262,-0.39687 H 1.8529816 c -0.4382244,0 -0.7934401,-0.3554 -0.7934401,-0.79375 v 0.043 c -0.01177,-0.21724 0.062322,-0.43834 0.2282404,-0.60423 l 2.384549,-2.38541 c 0.1548805,-0.15501 0.3579316,-0.22838 0.5609953,-0.22838 0.2030635,0 0.4061145,0.0734 0.5609828,0.22838 l 2.3845118,2.38541 c 0.1659184,0.16589 0.2400969,0.38699 0.2282899,0.60423 z m -1.7852554,1.94135 c 0.1095499,0 0.1983631,0.0889 0.1983631,0.19844 0,0.10959 -0.088813,0.19844 -0.1983631,0.19844 -0.1095375,0 -0.1983632,-0.0889 -0.1983632,-0.19844 0,-0.10958 0.088826,-0.19844 0.1983632,-0.19844 z"
           id="path2"
           style="fill:currentColor;fill-opacity:1;stroke-width:0.0124023"
           class="ColorScheme-Text" />
      </g>
    </g>
    <g
       id="g1814" />
    <g
       id="22-22-update-none">
      <rect
         style="opacity:0.003;fill:#000000;fill-opacity:1;stroke:none;stroke-width:0.10795;stroke-miterlimit:4;stroke-dasharray:none;stroke-opacity:1"
         id="rect1396"
         width="5.8208332"
         height="5.8208332"
         x="0"
         y="291.17914"
         ry="1.2988289e-06" />
      <path
         fill-rule="evenodd"
         clip-rule="evenodd"
         d="m 5.1586269,294.11997 v -0.0307 c 0,0.31047 -0.2516585,0.56225 -0.5620402,0.56225 H 4.3155661 c -0.1551884,0 -0.2810126,0.12587 -0.2810126,0.28108 v 0.14059 c 0,0.0781 -0.062908,0.14058 -0.1405098,0.14058 -0.077628,0 -0.1405078,-0.0632 -0.1405078,-0.14058 v -0.14059 c 0,-0.31048 0.2516565,-0.56225 0.5620392,-0.56225 h 0.2810186 c 0.1551923,0 0.2810136,-0.12586 0.2810136,-0.28108 0,0 0.0011,-4.4e-4 0.0027,-7.6e-4 -2.05e-4,-0.0714 -0.027559,-0.14314 -0.082148,-0.19776 l -1.6890424,-1.68973 c -0.1097697,-0.10971 -0.2875984,-0.10971 -0.3973701,0 l -1.6890514,1.68977 c -0.0545884,0.0544 -0.0818876,0.12612 -0.0821476,0.19762 0.0015,7.4e-4 0.0027,10e-4 0.0027,10e-4 0,0.15522 0.1258213,0.2811 0.2810116,0.2811 H 1.505281 c 0.3103897,0 0.5620402,0.25176 0.5620402,0.56224 v 0.8434 c 0,0.15523 0.1258302,0.28111 0.2810216,0.28111 h 0.9835705 c 0.077628,0 0.1405098,0.0633 0.1405098,0.14056 0,0.0781 -0.062908,0.14059 -0.1405098,0.14059 H 2.3483341 c -0.3103817,0 -0.5620422,-0.25177 -0.5620422,-0.56226 v -0.84341 c 0,-0.15523 -0.1258212,-0.28108 -0.2810206,-0.28108 H 1.2242538 c -0.3104159,0 -0.56203342,-0.25177 -0.56203342,-0.56226 v 0.0307 c -0.0078,-0.15393 0.0441487,-0.31053 0.16167212,-0.42803 l 1.6890967,-1.68972 c 0.1097077,-0.10974 0.2535384,-0.16175 0.3973791,-0.16175 0.1438407,0 0.2876734,0.0519 0.3973691,0.16175 l 1.6890684,1.68972 c 0.1175285,0.1175 0.1700729,0.2741 0.1617092,0.42803 z m -1.2645832,1.37511 c 0.077628,0 0.1405098,0.0633 0.1405098,0.1406 0,0.0781 -0.062908,0.14057 -0.1405098,0.14057 -0.077628,0 -0.1405078,-0.0633 -0.1405078,-0.14057 0,-0.0781 0.062918,-0.1406 0.1405078,-0.1406 z"
         id="path2-3-6-7"
         style="fill:currentColor;fill-opacity:1;stroke-width:0.00878515"
         class="ColorScheme-Text" />
    </g>
    <g
       id="update-low">
      <rect
         style="opacity:0.003;fill:#000000;fill-opacity:1;stroke:none;stroke-width:0.157018;stroke-miterlimit:4;stroke-dasharray:none;stroke-opacity:1"
         id="rect1396-6-9-1"
         width="8.4666672"
         height="8.46667"
         x="25.4"
         y="296.99997"
         ry="1.8892064e-06" />
      <path
         fill-rule="evenodd"
         clip-rule="evenodd"
         d="m 32.80705,301.27553 v -0.043 c 0,0.43835 -0.355277,0.79375 -0.793452,0.79375 h -0.396727 c -0.219087,0 -0.396713,0.1777 -0.396713,0.39687 v 0.19844 c 0,0.10959 -0.08881,0.19844 -0.198363,0.19844 -0.109538,0 -0.198363,-0.0888 -0.198363,-0.19844 v -0.19844 c 0,-0.43834 0.355277,-0.79375 0.793452,-0.79375 h 0.396726 c 0.219088,0 0.396714,-0.1777 0.396714,-0.39687 0,0 0.0016,-5.8e-4 0.004,-10e-4 -2.91e-4,-0.10115 -0.03894,-0.20212 -0.116024,-0.27925 l -2.384512,-2.38542 c -0.154967,-0.15498 -0.406015,-0.15498 -0.560983,0 l -2.384511,2.38542 c -0.07709,0.0771 -0.11564,0.17809 -0.116024,0.27905 0.0023,9.8e-4 0.004,0.002 0.004,0.002 0,0.21918 0.177626,0.39688 0.396713,0.39688 h 0.396727 c 0.438187,0 0.793452,0.3554 0.793452,0.79375 v 1.19061 c 0,0.21917 0.177639,0.39687 0.396726,0.39687 h 1.388542 c 0.10955,0 0.198363,0.0889 0.198363,0.19844 0,0.10959 -0.08881,0.19844 -0.198363,0.19844 h -1.388554 c -0.438175,0 -0.793453,-0.3554 -0.793453,-0.79375 v -1.19063 c 0,-0.21917 -0.177626,-0.39687 -0.396726,-0.39687 h -0.396714 c -0.438225,0 -0.793441,-0.3554 -0.793441,-0.79375 v 0.043 c -0.01177,-0.21724 0.06232,-0.43834 0.228241,-0.60423 l 2.384549,-2.38541 c 0.15488,-0.15501 0.357931,-0.22838 0.560995,-0.22838 0.203064,0 0.406115,0.0734 0.560983,0.22838 l 2.384512,2.38541 c 0.165918,0.16589 0.240097,0.38699 0.22829,0.60423 z m -1.785255,1.94135 c 0.10955,0 0.198363,0.0889 0.198363,0.19844 0,0.10959 -0.08881,0.19844 -0.198363,0.19844 -0.109538,0 -0.198363,-0.0889 -0.198363,-0.19844 0,-0.10958 0.08883,-0.19844 0.198363,-0.19844 z"
         id="path2-6"
         style="stroke-width:0.0124023;fill-opacity:1;fill:currentColor;"
         class="ColorScheme-Highlight" />
      <path
         d="m 29.633333,300.175 a 0.79374753,0.79374753 0 0 0 -0.79375,0.79375 0.79374753,0.79374753 0 0 0 0.79375,0.79375 0.79374753,0.79374753 0 0 0 0.79375,-0.79375 0.79374753,0.79374753 0 0 0 -0.79375,-0.79375 z"
         id="path7"
         style="stroke-width:0.264583;fill-opacity:1;fill:currentColor;"
         class="ColorScheme-Highlight" />
    </g>
    <g
       id="update-medium">
      <rect
         style="opacity:0.003;fill:#000000;fill-opacity:1;stroke:none;stroke-width:0.157018;stroke-miterlimit:4;stroke-dasharray:none;stroke-opacity:1"
         id="rect1396-6-9-5"
         width="8.4666672"
         height="8.46667"
         x="16.933332"
         y="296.99997"
         ry="1.8892064e-06" />
      <path
         fill-rule="evenodd"
         clip-rule="evenodd"
         d="m 24.340386,301.27553 v -0.043 c 0,0.43835 -0.355277,0.79375 -0.793452,0.79375 h -0.396727 c -0.219087,0 -0.396713,0.1777 -0.396713,0.39687 v 0.19844 c 0,0.10959 -0.08881,0.19844 -0.198363,0.19844 -0.109538,0 -0.198363,-0.0888 -0.198363,-0.19844 v -0.19844 c 0,-0.43834 0.355277,-0.79375 0.793452,-0.79375 h 0.396726 c 0.219088,0 0.396714,-0.1777 0.396714,-0.39687 0,0 0.0016,-5.8e-4 0.004,-10e-4 -2.91e-4,-0.10115 -0.03894,-0.20212 -0.116024,-0.27925 l -2.384512,-2.38542 c -0.154967,-0.15498 -0.406015,-0.15498 -0.560983,0 l -2.384511,2.38542 c -0.07709,0.0771 -0.115641,0.17809 -0.116025,0.27905 0.0023,9.8e-4 0.004,0.002 0.004,0.002 0,0.21918 0.177627,0.39688 0.396714,0.39688 h 0.396727 c 0.438187,0 0.793452,0.3554 0.793452,0.79375 v 1.19061 c 0,0.21917 0.177639,0.39687 0.396726,0.39687 h 1.388542 c 0.10955,0 0.198363,0.0889 0.198363,0.19844 0,0.10959 -0.08881,0.19844 -0.198363,0.19844 h -1.388554 c -0.438175,0 -0.793453,-0.3554 -0.793453,-0.79375 v -1.19063 c 0,-0.21917 -0.177626,-0.39687 -0.396726,-0.39687 h -0.396714 c -0.438227,0 -0.793445,-0.3554 -0.793445,-0.79375 v 0.043 c -0.01177,-0.21724 0.06232,-0.43834 0.228242,-0.60423 l 2.384552,-2.38541 c 0.15488,-0.15501 0.357931,-0.22838 0.560995,-0.22838 0.203064,0 0.406115,0.0734 0.560983,0.22838 l 2.384512,2.38541 c 0.165918,0.16589 0.240097,0.38699 0.22829,0.60423 z m -1.785255,1.94135 c 0.10955,0 0.198363,0.0889 0.198363,0.19844 0,0.10959 -0.08881,0.19844 -0.198363,0.19844 -0.109538,0 -0.198363,-0.0889 -0.198363,-0.19844 0,-0.10958 0.08883,-0.19844 0.198363,-0.19844 z"
         id="path2-3-6"
         style="fill:#ff9955;fill-opacity:1;stroke-width:0.0124023" />
      <path
         d="m 21.166674,300.175 a 0.79374753,0.79374753 0 0 0 -0.79375,0.79375 0.79374753,0.79374753 0 0 0 0.79375,0.79375 0.79374753,0.79374753 0 0 0 0.79375,-0.79375 0.79374753,0.79374753 0 0 0 -0.79375,-0.79375 z"
         id="path7-3"
         style="color:#21abcd;fill:#ff9955;fill-opacity:1;stroke-width:0.264583" />
    </g>
    <g
       id="update-high">
      <rect
         style="opacity:0.003;fill:#000000;fill-opacity:1;stroke:none;stroke-width:0.157018;stroke-miterlimit:4;stroke-dasharray:none;stroke-opacity:1"
         id="rect1396-6-9"
         width="8.4666672"
         height="8.46667"
         x="8.4666672"
         y="296.99997"
         ry="1.8892064e-06" />
      <path
         fill-rule="evenodd"
         clip-rule="evenodd"
         d="m 15.873721,301.27553 v -0.043 c 0,0.43835 -0.355277,0.79375 -0.793452,0.79375 h -0.396727 c -0.219087,0 -0.396713,0.1777 -0.396713,0.39687 v 0.19844 c 0,0.10959 -0.08881,0.19844 -0.198363,0.19844 -0.109538,0 -0.198363,-0.0888 -0.198363,-0.19844 v -0.19844 c 0,-0.43834 0.355277,-0.79375 0.793452,-0.79375 h 0.396726 c 0.219088,0 0.396714,-0.1777 0.396714,-0.39687 0,0 0.0016,-5.8e-4 0.004,-10e-4 -2.91e-4,-0.10115 -0.03894,-0.20212 -0.116024,-0.27925 l -2.384512,-2.38542 c -0.154967,-0.15498 -0.406015,-0.15498 -0.560983,0 l -2.384511,2.38542 c -0.07709,0.0771 -0.1156409,0.17809 -0.1160249,0.27905 0.0023,9.8e-4 0.004,0.002 0.004,0.002 0,0.21918 0.1776269,0.39688 0.3967139,0.39688 h 0.396727 c 0.438187,0 0.793452,0.3554 0.793452,0.79375 v 1.19061 c 0,0.21917 0.177639,0.39687 0.396726,0.39687 h 1.388542 c 0.10955,0 0.198363,0.0889 0.198363,0.19844 0,0.10959 -0.08881,0.19844 -0.198363,0.19844 h -1.388554 c -0.438175,0 -0.793453,-0.3554 -0.793453,-0.79375 v -1.19063 c 0,-0.21917 -0.177626,-0.39687 -0.396726,-0.39687 h -0.396714 c -0.4382265,0 -0.7934453,-0.3554 -0.7934453,-0.79375 v 0.043 c -0.01177,-0.21724 0.06232,-0.43834 0.2282424,-0.60423 l 2.3845519,-2.38541 c 0.15488,-0.15501 0.357931,-0.22838 0.560995,-0.22838 0.203064,0 0.406115,0.0734 0.560983,0.22838 l 2.384512,2.38541 c 0.165918,0.16589 0.240097,0.38699 0.22829,0.60423 z m -1.785255,1.94135 c 0.10955,0 0.198363,0.0889 0.198363,0.19844 0,0.10959 -0.08881,0.19844 -0.198363,0.19844 -0.109538,0 -0.198363,-0.0889 -0.198363,-0.19844 0,-0.10958 0.08883,-0.19844 0.198363,-0.19844 z"
         id="path2-3"
         style="fill:#bd5c65;fill-opacity:1;stroke-width:0.0124023" />
      <path
         d="m 12.700007,300.175 a 0.79374753,0.79374753 0 0 0 -0.79375,0.79375 0.79374753,0.79374753 0 0 0 0.79375,0.79375 0.79374753,0.79374753 0 0 0 0.79375,-0.79375 0.79374753,0.79374753 0 0 0 -0.79375,-0.79375 z"
         id="path7-3-6"
         style="color:#21abcd;fill:#bd5c65;fill-opacity:1;stroke-width:0.264583" />
    </g>
    <g
       id="22-22-update-low">
      <rect
         style="opacity:0.003;fill:#000000;fill-opacity:1;stroke:none;stroke-width:0.10795;stroke-miterlimit:4;stroke-dasharray:none;stroke-opacity:1"
         id="rect1396-3-2"
         width="5.8208332"
         height="5.8208332"
         x="17.4625"
         y="291.17914"
         ry="1.2988288e-06" />
      <path
         fill-rule="evenodd"
         clip-rule="evenodd"
         d="m 22.621005,294.11987 v -0.0304 c 0,0.31049 -0.251654,0.56223 -0.562027,0.56223 h -0.281014 c -0.155186,0 -0.281004,0.12587 -0.281004,0.28112 v 0.14056 c 0,0.0776 -0.06291,0.14056 -0.140507,0.14056 -0.07759,0 -0.140506,-0.0629 -0.140506,-0.14056 v -0.14056 c 0,-0.31049 0.251653,-0.56224 0.562026,-0.56224 h 0.281014 c 0.155187,0 0.281005,-0.12587 0.281005,-0.28111 0,0 0.0011,-4.1e-4 0.0028,-7.1e-4 -2.06e-4,-0.0716 -0.02758,-0.14317 -0.08218,-0.1978 l -1.689025,-1.68967 c -0.109767,-0.10978 -0.287593,-0.10978 -0.397361,0 l -1.689024,1.68967 c -0.0546,0.0546 -0.08191,0.12614 -0.08218,0.19766 0.0016,6.9e-4 0.0028,0.001 0.0028,0.001 0,0.15525 0.125818,0.28112 0.281005,0.28112 h 0.281014 c 0.310381,0 0.562026,0.25175 0.562026,0.56224 v 0.84335 c 0,0.15524 0.125828,0.28111 0.281014,0.28111 h 0.983547 c 0.0776,0 0.140507,0.063 0.140507,0.14057 0,0.0776 -0.06291,0.14056 -0.140507,0.14056 h -0.983556 c -0.310373,0 -0.562027,-0.25174 -0.562027,-0.56224 v -0.84336 c 0,-0.15525 -0.125818,-0.28112 -0.281014,-0.28112 h -0.281004 c -0.310409,0 -0.562019,-0.25174 -0.562019,-0.56223 v 0.0304 c -0.0083,-0.15387 0.04414,-0.31049 0.16167,-0.42799 l 1.68905,-1.68966 c 0.109706,-0.1098 0.253534,-0.16177 0.39737,-0.16177 0.143837,0 0.287664,0.052 0.397362,0.16177 l 1.689024,1.68966 c 0.117525,0.1175 0.170068,0.27412 0.161705,0.42799 z m -1.264552,1.37512 c 0.0776,0 0.140507,0.063 0.140507,0.14056 0,0.0776 -0.06291,0.14057 -0.140507,0.14057 -0.07759,0 -0.140506,-0.063 -0.140506,-0.14057 0,-0.0776 0.06292,-0.14056 0.140506,-0.14056 z"
         id="path2-6-3"
         style="stroke-width:0.00878493;fill-opacity:1;fill:currentColor;"
         class="ColorScheme-Highlight" />
      <path
         d="m 20.372962,293.34033 a 0.56223606,0.56223606 0 0 0 -0.562237,0.56224 0.56223606,0.56223606 0 0 0 0.562237,0.56224 0.56223606,0.56223606 0 0 0 0.562238,-0.56224 0.56223606,0.56223606 0 0 0 -0.562238,-0.56224 z"
         id="path7-6"
         style="stroke-width:0.187412;fill-opacity:1;fill:currentColor;"
         class="ColorScheme-Highlight" />
    </g>
    <g
       id="22-22-update-medium">
      <rect
         style="opacity:0.003;fill:#000000;fill-opacity:1;stroke:none;stroke-width:0.10795;stroke-miterlimit:4;stroke-dasharray:none;stroke-opacity:1"
         id="rect1396-3-1"
         width="5.8208332"
         height="5.8208332"
         x="11.641666"
         y="291.17914"
         ry="1.2988288e-06" />
      <path
         fill-rule="evenodd"
         clip-rule="evenodd"
         d="m 16.800171,294.11987 v -0.0304 c 0,0.31049 -0.251654,0.56223 -0.562027,0.56223 H 15.95713 c -0.155186,0 -0.281004,0.12587 -0.281004,0.28112 v 0.14056 c 0,0.0776 -0.06291,0.14056 -0.140507,0.14056 -0.07759,0 -0.140506,-0.0629 -0.140506,-0.14056 v -0.14056 c 0,-0.31049 0.251653,-0.56224 0.562026,-0.56224 h 0.281014 c 0.155187,0 0.281005,-0.12587 0.281005,-0.28111 0,0 0.0011,-4.1e-4 0.0028,-7.1e-4 -2.06e-4,-0.0716 -0.02758,-0.14317 -0.08218,-0.1978 l -1.689025,-1.68967 c -0.109767,-0.10978 -0.287593,-0.10978 -0.397361,0 l -1.689024,1.68967 c -0.0546,0.0546 -0.08191,0.12614 -0.08218,0.19766 0.0016,6.9e-4 0.0028,0.001 0.0028,0.001 0,0.15525 0.125818,0.28112 0.281005,0.28112 h 0.281014 c 0.310381,0 0.562026,0.25175 0.562026,0.56224 v 0.84335 c 0,0.15524 0.125828,0.28111 0.281014,0.28111 h 0.983547 c 0.0776,0 0.140507,0.063 0.140507,0.14057 0,0.0776 -0.06291,0.14056 -0.140507,0.14056 h -0.983556 c -0.310373,0 -0.562027,-0.25174 -0.562027,-0.56224 v -0.84336 c 0,-0.15525 -0.125818,-0.28112 -0.281014,-0.28112 h -0.281004 c -0.310409,0 -0.562019,-0.25174 -0.562019,-0.56223 v 0.0304 c -0.0083,-0.15387 0.04414,-0.31049 0.16167,-0.42799 l 1.68905,-1.68966 c 0.109706,-0.1098 0.253534,-0.16177 0.39737,-0.16177 0.143837,0 0.287664,0.052 0.397362,0.16177 l 1.689024,1.68966 c 0.117525,0.1175 0.170068,0.27412 0.161705,0.42799 z m -1.264552,1.37512 c 0.0776,0 0.140507,0.063 0.140507,0.14056 0,0.0776 -0.06291,0.14057 -0.140507,0.14057 -0.07759,0 -0.140506,-0.063 -0.140506,-0.14057 0,-0.0776 0.06292,-0.14056 0.140506,-0.14056 z"
         id="path2-6-3-7"
         style="color:#21abcd;fill:#ff9955;fill-opacity:1;stroke-width:0.00878493" />
      <path
         d="m 14.552128,293.34033 a 0.56223606,0.56223606 0 0 0 -0.562237,0.56224 0.56223606,0.56223606 0 0 0 0.562237,0.56224 0.56223606,0.56223606 0 0 0 0.562238,-0.56224 0.56223606,0.56223606 0 0 0 -0.562238,-0.56224 z"
         id="path7-6-5"
         style="color:#21abcd;fill:#ff9955;fill-opacity:1;stroke-width:0.187412" />
    </g>
    <g
       id="22-22-update-high">
      <rect
         style="opacity:0.003;fill:#000000;fill-opacity:1;stroke:none;stroke-width:0.10795;stroke-miterlimit:4;stroke-dasharray:none;stroke-opacity:1"
         id="rect1396-3"
         width="5.8208332"
         height="5.8208332"
         x="5.8208332"
         y="291.17914"
         ry="1.2988288e-06" />
      <path
         fill-rule="evenodd"
         clip-rule="evenodd"
         d="m 10.979337,294.11987 v -0.0304 c 0,0.31049 -0.251654,0.56223 -0.562027,0.56223 h -0.281014 c -0.1551845,0 -0.281003,0.12587 -0.281003,0.28112 v 0.14056 c 0,0.0776 -0.06291,0.14056 -0.140507,0.14056 -0.07759,0 -0.140506,-0.0629 -0.140506,-0.14056 v -0.14056 c 0,-0.31049 0.251653,-0.56224 0.562025,-0.56224 h 0.281014 c 0.155187,0 0.281005,-0.12587 0.281005,-0.28111 0,0 0.0011,-4.1e-4 0.0028,-7.1e-4 -2.06e-4,-0.0716 -0.02758,-0.14317 -0.08218,-0.1978 l -1.6890241,-1.68967 c -0.109767,-0.10978 -0.287593,-0.10978 -0.397361,0 l -1.6890241,1.68967 c -0.0546,0.0546 -0.08191,0.12614 -0.08218,0.19766 0.0016,6.9e-4 0.0028,0.001 0.0028,0.001 0,0.15525 0.125818,0.28112 0.281005,0.28112 h 0.281014 c 0.3103811,0 0.5620261,0.25175 0.5620261,0.56224 v 0.84335 c 0,0.15524 0.125828,0.28111 0.281014,0.28111 H 9.152761 c 0.0776,0 0.140507,0.063 0.140507,0.14057 0,0.0776 -0.06291,0.14056 -0.140507,0.14056 H 8.1692049 c -0.310373,0 -0.562027,-0.25174 -0.562027,-0.56224 v -0.84336 c 0,-0.15525 -0.125818,-0.28112 -0.2810141,-0.28112 h -0.281004 c -0.310409,0 -0.562019,-0.25174 -0.562019,-0.56223 v 0.0304 c -0.0083,-0.15387 0.04414,-0.31049 0.16167,-0.42799 l 1.6890501,-1.68966 c 0.109706,-0.1098 0.253534,-0.16177 0.39737,-0.16177 0.143837,0 0.2876641,0.052 0.3973621,0.16177 l 1.689023,1.68966 c 0.117525,0.1175 0.170068,0.27412 0.161705,0.42799 z m -1.264551,1.37512 c 0.0776,0 0.140507,0.063 0.140507,0.14056 0,0.0776 -0.06291,0.14057 -0.140507,0.14057 -0.07759,0 -0.140506,-0.063 -0.140506,-0.14057 0,-0.0776 0.06292,-0.14056 0.140506,-0.14056 z"
         id="path2-6-3-3"
         style="color:#21abcd;fill:#bd5c65;fill-opacity:1;stroke-width:0.00878493" />
      <path
         d="m 8.7312949,293.34033 a 0.5622361,0.56223606 0 0 0 -0.562237,0.56224 0.5622361,0.56223606 0 0 0 0.562237,0.56224 0.5622361,0.56223606 0 0 0 0.5622381,-0.56224 0.5622361,0.56223606 0 0 0 -0.5622381,-0.56224 z"
         id="path7-6-56"
         style="color:#21abcd;fill:#bd5c65;fill-opacity:1;stroke-width:0.187412" />
    </g>
  </g>
</svg>
