<?xml version="1.0" encoding="UTF-8" standalone="no"?>
<svg
   id="svg4153"
   version="1.1"
   width="22"
   height="22"
   sodipodi:docname="user.svg"
   inkscape:version="1.1.2 (0a00cf5339, 2022-02-04)"
   xmlns:inkscape="http://www.inkscape.org/namespaces/inkscape"
   xmlns:sodipodi="http://sodipodi.sourceforge.net/DTD/sodipodi-0.dtd"
   xmlns="http://www.w3.org/2000/svg"
   xmlns:svg="http://www.w3.org/2000/svg"
   xmlns:rdf="http://www.w3.org/1999/02/22-rdf-syntax-ns#"
   xmlns:cc="http://creativecommons.org/ns#"
   xmlns:dc="http://purl.org/dc/elements/1.1/">
  <g
     id="user-invisible"
     transform="translate(-22)">
    <path
       id="rect4556"
       opacity="0.97"
       fill="none"
       fill-opacity="1"
       stroke="none"
       d="M 0,0 H 22 V 22 H 0 Z" />
    <path
       id="path4169-3-2"
       d="m 11.057398,3.554487 c -2.168789,-1e-6 -3.926938,1.64249 -3.926938,3.668603 0,2.026115 0.37494,5.622954 3.928279,5.561623 4.014495,-0.0693 3.925596,-3.535509 3.925596,-5.561623 1e-6,-2.026113 -1.758149,-3.668603 -3.926937,-3.668603 z"
       opacity="1"
       fill-opacity="1"
       stroke="none"
       style="fill:#59748c;fill-opacity:1;stroke-width:1.08445"
       sodipodi:nodetypes="sssss" />
    <path
       fill-rule="evenodd"
       clip-rule="evenodd"
       d="M 16.999996,19.00003 H 5.00012 C 3.89575,19.00003 3,18.104999 3,17.00053 v -1.50025 c 0,-0.800531 0.61109,-1.53125 1.62975,-2.117906 0.0786,-0.05809 0.17393,-0.09278 0.27818,-0.09278 0.26013,0 0.47069,0.210437 0.47069,0.470687 0,0.174563 -0.0966,0.325187 -0.23756,0.40625 l 10e-4,0.0019 c -0.71978,0.394786 -1.14228,0.855723 -1.14228,1.331817 v 1.50025 c 0,0.552 0.44762,0.9995 1.00012,0.9995 h 11.999876 c 0.55225,0 1,-0.4475 1,-0.9995 v -1.50025 c 0,-1.380625 -3.134281,-2.49975 -6.99975,-2.49975 -0.919437,0 -1.763687,-0.313719 -2.439813,-0.835219 C 8.095245,11.805904 7.71218,11.346685 7.44109,10.820061 c -0.0142,-0.02785 -0.0271,-0.05469 -0.0399,-0.08253 -0.0483,-0.100344 -0.0934,-0.202875 -0.13331,-0.307125 -0.0149,-0.03735 -0.0291,-0.07594 -0.0419,-0.114 -0.0348,-0.09791 -0.0644,-0.198969 -0.0908,-0.300531 -0.011,-0.042 -0.0232,-0.08375 -0.0328,-0.126938 C 7.07858,9.784687 7.06048,9.678969 7.04498,9.571563 7.03898,9.530313 7.03078,9.490253 7.02638,9.449 7.00948,9.301531 6.99988,9.152375 6.99988,9.000281 v -3 C 6.99988,4.34325 8.343126,3 10.000002,3 h 1.9995 c 1.65675,0 3,1.34325 3,3.00025 v 3 c 0,0.690437 -0.185313,1.3335 -0.493906,1.898937 -0.063,0.202876 -0.2505,0.351063 -0.474626,0.351063 -0.276124,0 -0.50025,-0.223625 -0.50025,-0.49975 0,-0.08447 0.02319,-0.162844 0.05981,-0.232437 l -0.0059,-0.0032 c 0.228031,-0.389657 0.372313,-0.834 0.404531,-1.309813 0.0071,-0.06762 0.01025,-0.136 0.01025,-0.204844 v -3 c 0,-1.1045 -0.895032,-2.00025 -2,-2.00025 h -1.9995 c -1.104969,0 -2,0.89575 -2,2.00025 v 3 c 0,0.06884 0.0032,0.137219 0.01025,0.204844 0.102407,1.516343 1.331657,2.722406 2.857782,2.788813 0.03991,0.0046 0.08313,0.0063 0.131968,0.0063 0.850844,0 1.669688,0.05859 2.438719,0.16625 0.19825,0.02759 0.392094,0.05859 0.5835,0.09278 0.0049,5e-4 0.01025,0.0019 0.01466,0.0025 0.183593,0.03297 0.363281,0.06959 0.539563,0.108157 0.02075,0.0046 0.04053,0.009 0.06128,0.01369 0.350344,0.07863 0.686281,0.167969 1.004625,0.267094 0.01537,0.0054 0.0315,0.009 0.04637,0.01415 0.155032,0.04906 0.306407,0.101312 0.453126,0.155281 0.01563,0.0059 0.031,0.01172 0.04637,0.01735 0.138438,0.0515 0.272938,0.104968 0.403313,0.161125 0.01075,0.0051 0.02172,0.0095 0.03319,0.01415 0.13672,0.05909 0.267344,0.119626 0.393563,0.182876 0.01613,0.0076 0.0315,0.01613 0.04687,0.02369 0.125,0.06322 0.246812,0.128906 0.361312,0.196532 0.0027,0.0012 0.0054,0.0039 0.0083,0.0051 0.109625,0.06494 0.211437,0.131344 0.310562,0.198969 0.01735,0.01147 0.03613,0.02441 0.05347,0.03663 0.09913,0.07031 0.193125,0.141125 0.28075,0.213875 0.0095,0.0078 0.01928,0.01613 0.02831,0.02394 0.08619,0.07325 0.167969,0.147469 0.242688,0.223375 0.0039,0.0039 0.0078,0.0071 0.01147,0.011 0.07275,0.07472 0.137219,0.151375 0.1985,0.2285 0.01344,0.01806 0.02831,0.03465 0.04125,0.05275 0.05713,0.07666 0.109375,0.154531 0.155281,0.233157 0.0049,0.0097 0.01075,0.01928 0.01613,0.02953 0.04247,0.07619 0.07762,0.153313 0.108656,0.231188 0.0046,0.01172 0.0105,0.02319 0.01415,0.03491 0.031,0.08228 0.05347,0.166 0.07103,0.2505 0.0029,0.01613 0.0056,0.03272 0.0083,0.04956 0.01465,0.08619 0.02441,0.173093 0.02441,0.261468 v 1.500231 c 5.2e-5,1.104469 -0.894979,1.9995 -1.999948,1.9995 z M 7.49987,13.00053 c 0,0.276125 -0.2235,0.4995 -0.49975,0.4995 -0.27625,0 -0.50037,-0.223375 -0.50037,-0.4995 0,-0.276375 0.22412,-0.5005 0.50037,-0.5005 0.27625,0 0.49975,0.224125 0.49975,0.5005 z"
       id="path2-6-6"
       style="fill:#59748c;fill-opacity:1;stroke-width:0.03125" />
    <path
       id="rect4152-0"
       class="ColorScheme-Background"
       opacity="1"
       fill-opacity="1"
       stroke="none"
       d="M 12.178023,5.574053 12.88513,6.281159 9.592134,9.574156 8.885027,8.867049 Z"
       style="fill:#ffffff;fill-opacity:1" />
  </g>
  <g
     id="user-away-extended">
    <path
       id="rect4649"
       opacity="0.97"
       fill="none"
       fill-opacity="1"
       stroke="none"
       d="M 0,0 H 22 V 22 H 0 Z" />
    <path
       id="path4169-3-8"
       d="m 11.057398,3.554487 c -2.168789,-1e-6 -3.926938,1.64249 -3.926938,3.668603 0,2.026115 0.37494,5.622954 3.928279,5.561623 4.014495,-0.0693 3.925596,-3.535509 3.925596,-5.561623 1e-6,-2.026113 -1.758149,-3.668603 -3.926937,-3.668603 z"
       opacity="1"
       fill-opacity="1"
       stroke="none"
       style="fill:#aa87de;fill-opacity:1;stroke-width:1.08445"
       sodipodi:nodetypes="sssss" />
    <path
       fill-rule="evenodd"
       clip-rule="evenodd"
       d="M 16.999996,19.00003 H 5.00012 C 3.89575,19.00003 3,18.104999 3,17.00053 v -1.50025 c 0,-0.800531 0.61109,-1.53125 1.62975,-2.117906 0.0786,-0.05809 0.17393,-0.09278 0.27818,-0.09278 0.26013,0 0.47069,0.210437 0.47069,0.470687 0,0.174563 -0.0966,0.325187 -0.23756,0.40625 l 10e-4,0.0019 c -0.71978,0.394786 -1.14228,0.855723 -1.14228,1.331817 v 1.50025 c 0,0.552 0.44762,0.9995 1.00012,0.9995 h 11.999876 c 0.55225,0 1,-0.4475 1,-0.9995 v -1.50025 c 0,-1.380625 -3.134281,-2.49975 -6.99975,-2.49975 -0.919437,0 -1.763687,-0.313719 -2.439813,-0.835219 C 8.095245,11.805904 7.71218,11.346685 7.44109,10.820061 c -0.0142,-0.02785 -0.0271,-0.05469 -0.0399,-0.08253 -0.0483,-0.100344 -0.0934,-0.202875 -0.13331,-0.307125 -0.0149,-0.03735 -0.0291,-0.07594 -0.0419,-0.114 -0.0348,-0.09791 -0.0644,-0.198969 -0.0908,-0.300531 -0.011,-0.042 -0.0232,-0.08375 -0.0328,-0.126938 C 7.07858,9.784687 7.06048,9.678969 7.04498,9.571563 7.03898,9.530313 7.03078,9.490253 7.02638,9.449 7.00948,9.301531 6.99988,9.152375 6.99988,9.000281 v -3 C 6.99988,4.34325 8.343126,3 10.000002,3 h 1.9995 c 1.65675,0 3,1.34325 3,3.00025 v 3 c 0,0.690437 -0.185313,1.3335 -0.493906,1.898937 -0.063,0.202876 -0.2505,0.351063 -0.474626,0.351063 -0.276124,0 -0.50025,-0.223625 -0.50025,-0.49975 0,-0.08447 0.02319,-0.162844 0.05981,-0.232437 l -0.0059,-0.0032 c 0.228031,-0.389657 0.372313,-0.834 0.404531,-1.309813 0.0071,-0.06762 0.01025,-0.136 0.01025,-0.204844 v -3 c 0,-1.1045 -0.895032,-2.00025 -2,-2.00025 h -1.9995 c -1.104969,0 -2,0.89575 -2,2.00025 v 3 c 0,0.06884 0.0032,0.137219 0.01025,0.204844 0.102407,1.516343 1.331657,2.722406 2.857782,2.788813 0.03991,0.0046 0.08313,0.0063 0.131968,0.0063 0.850844,0 1.669688,0.05859 2.438719,0.16625 0.19825,0.02759 0.392094,0.05859 0.5835,0.09278 0.0049,5e-4 0.01025,0.0019 0.01466,0.0025 0.183593,0.03297 0.363281,0.06959 0.539563,0.108157 0.02075,0.0046 0.04053,0.009 0.06128,0.01369 0.350344,0.07863 0.686281,0.167969 1.004625,0.267094 0.01537,0.0054 0.0315,0.009 0.04637,0.01415 0.155032,0.04906 0.306407,0.101312 0.453126,0.155281 0.01563,0.0059 0.031,0.01172 0.04637,0.01735 0.138438,0.0515 0.272938,0.104968 0.403313,0.161125 0.01075,0.0051 0.02172,0.0095 0.03319,0.01415 0.13672,0.05909 0.267344,0.119626 0.393563,0.182876 0.01613,0.0076 0.0315,0.01613 0.04687,0.02369 0.125,0.06322 0.246812,0.128906 0.361312,0.196532 0.0027,0.0012 0.0054,0.0039 0.0083,0.0051 0.109625,0.06494 0.211437,0.131344 0.310562,0.198969 0.01735,0.01147 0.03613,0.02441 0.05347,0.03663 0.09913,0.07031 0.193125,0.141125 0.28075,0.213875 0.0095,0.0078 0.01928,0.01613 0.02831,0.02394 0.08619,0.07325 0.167969,0.147469 0.242688,0.223375 0.0039,0.0039 0.0078,0.0071 0.01147,0.011 0.07275,0.07472 0.137219,0.151375 0.1985,0.2285 0.01344,0.01806 0.02831,0.03465 0.04125,0.05275 0.05713,0.07666 0.109375,0.154531 0.155281,0.233157 0.0049,0.0097 0.01075,0.01928 0.01613,0.02953 0.04247,0.07619 0.07762,0.153313 0.108656,0.231188 0.0046,0.01172 0.0105,0.02319 0.01415,0.03491 0.031,0.08228 0.05347,0.166 0.07103,0.2505 0.0029,0.01613 0.0056,0.03272 0.0083,0.04956 0.01465,0.08619 0.02441,0.173093 0.02441,0.261468 v 1.500231 c 5.2e-5,1.104469 -0.894979,1.9995 -1.999948,1.9995 z M 7.49987,13.00053 c 0,0.276125 -0.2235,0.4995 -0.49975,0.4995 -0.27625,0 -0.50037,-0.223375 -0.50037,-0.4995 0,-0.276375 0.22412,-0.5005 0.50037,-0.5005 0.27625,0 0.49975,0.224125 0.49975,0.5005 z"
       id="path2-6-7"
       style="fill:#aa87de;fill-opacity:1;stroke-width:0.03125" />
    <circle
       r="0.64999998"
       cy="-8.4254599"
       cx="8.0662069"
       id="circle4659-2"
       transform="rotate(90)"
       class="ColorScheme-Background"
       opacity="0.7"
       fill-opacity="1"
       stroke="none"
       style="opacity:1;fill:#ffffff;fill-opacity:1;stroke-width:1.3" />
    <circle
       id="circle4661-3"
       cx="11.025462"
       cy="8.0662069"
       r="0.64999998"
       class="ColorScheme-Background"
       opacity="0.4"
       fill-opacity="1"
       stroke="none"
       style="opacity:1;fill:#ffffff;fill-opacity:1;stroke-width:1.3" />
    <circle
       id="circle4663-7"
       cx="13.625461"
       cy="8.0662069"
       r="0.64999998"
       class="ColorScheme-Background"
       opacity="0.3"
       fill-opacity="1"
       stroke="none"
       style="opacity:1;fill:#ffffff;fill-opacity:1;stroke-width:1.3" />
  </g>
  <style
     id="current-color-scheme"
     type="text/css">.ColorScheme-Text { color:#d6dbf1; }
</style>
  <metadata
     id="metadata48">
    <rdf:RDF>
      <cc:Work
         rdf:about="">
        <dc:format>image/svg+xml</dc:format>
        <dc:type
           rdf:resource="http://purl.org/dc/dcmitype/StillImage" />
      </cc:Work>
    </rdf:RDF>
  </metadata>
  <sodipodi:namedview
     pagecolor="#ffffff"
     bordercolor="#000000"
     borderopacity="1"
     objecttolerance="10"
     gridtolerance="10"
     guidetolerance="10"
     inkscape:pageopacity="0"
     inkscape:pageshadow="2"
     inkscape:window-width="1920"
     inkscape:window-height="1015"
     id="namedview46"
     showgrid="false"
     inkscape:lockguides="false"
     inkscape:zoom="2.5230856"
     inkscape:cx="-87.194822"
     inkscape:cy="-15.655434"
     inkscape:window-x="0"
     inkscape:window-y="0"
     inkscape:window-maximized="1"
     inkscape:current-layer="svg4153"
     inkscape:document-rotation="0"
     inkscape:pagecheckerboard="0">
    <inkscape:grid
       type="xygrid"
       id="grid2510"
       originx="0"
       originy="0" />
  </sodipodi:namedview>
  <defs
     id="defs4157">
    <style
       type="text/css"
       id="style5" />
  </defs>
  <g
     id="user-identity"
     transform="translate(-132)">
    <path
       id="rect4585"
       opacity="0.97"
       fill="none"
       fill-opacity="1"
       stroke="none"
       d="M 0,0 H 22 V 22 H 0 Z" />
    <path
       id="path4169-3-5"
       d="m 11.0574,3.554487 c -2.16879,-1e-6 -3.92694,1.64249 -3.92694,3.668603 0,2.026115 0.37494,5.622954 3.92828,5.561623 4.0145,-0.0693 3.9256,-3.535509 3.9256,-5.561623 0,-2.026113 -1.75815,-3.668603 -3.92694,-3.668603 z"
       opacity="1"
       fill-opacity="1"
       stroke="none"
       style="stroke-width:1.08445;fill-opacity:1;fill:currentColor;"
       sodipodi:nodetypes="sssss"
       class="ColorScheme-Text" />
    <path
       fill-rule="evenodd"
       clip-rule="evenodd"
       d="M 17,19.00003 H 5.00012 C 3.89575,19.00003 3,18.104999 3,17.00053 v -1.50025 c 0,-0.800531 0.61109,-1.53125 1.62975,-2.117906 0.0786,-0.05809 0.17394,-0.09278 0.27819,-0.09278 0.26012,0 0.47068,0.210437 0.47068,0.470687 0,0.174563 -0.0966,0.325187 -0.23756,0.40625 l 10e-4,0.0019 c -0.71978,0.394786 -1.14228,0.855723 -1.14228,1.331817 v 1.50025 c 0,0.552 0.44762,0.9995 1.00012,0.9995 h 11.99988 c 0.55225,0 1,-0.4475 1,-0.9995 v -1.50025 c 0,-1.380625 -3.13428,-2.49975 -6.99975,-2.49975 -0.91944,0 -1.76369,-0.313719 -2.43981,-0.835219 -0.46497,-0.359375 -0.84804,-0.818594 -1.11913,-1.345218 -0.0142,-0.02785 -0.0271,-0.05469 -0.0399,-0.08253 -0.0483,-0.100344 -0.0934,-0.202875 -0.13331,-0.307125 -0.0149,-0.03735 -0.0291,-0.07594 -0.0419,-0.114 -0.0348,-0.09791 -0.0644,-0.198969 -0.0908,-0.300531 -0.011,-0.042 -0.0232,-0.08375 -0.0328,-0.126938 C 7.07858,9.784687 7.06048,9.678969 7.04498,9.571563 7.03898,9.530313 7.03078,9.490253 7.02638,9.449 7.00958,9.301531 6.99988,9.152375 6.99988,9.000281 v -3 C 6.99988,4.34325 8.34313,3 10,3 h 1.9995 c 1.65675,0 3,1.34325 3,3.00025 v 3 c 0,0.690437 -0.18531,1.3335 -0.4939,1.898937 -0.063,0.202876 -0.2505,0.351063 -0.47463,0.351063 -0.27612,0 -0.50025,-0.223625 -0.50025,-0.49975 0,-0.08447 0.0232,-0.162844 0.0598,-0.232437 l -0.006,-0.0032 c 0.22803,-0.389657 0.37231,-0.834 0.40453,-1.309813 0.007,-0.06762 0.0102,-0.136 0.0102,-0.204844 v -3 c 0,-1.1045 -0.89503,-2.00025 -2,-2.00025 h -1.9995 c -1.10497,0 -2,0.89575 -2,2.00025 v 3 c 0,0.06884 0.003,0.137219 0.0102,0.204844 0.10241,1.516343 1.33166,2.722406 2.85779,2.788813 0.0399,0.0046 0.0831,0.0063 0.13196,0.0063 0.85085,0 1.66969,0.05859 2.43872,0.16625 0.19825,0.02759 0.3921,0.05859 0.5835,0.09278 0.005,5e-4 0.0102,0.0019 0.0147,0.0025 0.18359,0.03297 0.36328,0.06959 0.53956,0.108157 0.0207,0.0046 0.0405,0.009 0.0613,0.01369 0.35035,0.07863 0.68629,0.167969 1.00463,0.267094 0.0154,0.0054 0.0315,0.009 0.0464,0.01415 0.15503,0.04906 0.30641,0.101312 0.45313,0.155281 0.0156,0.0059 0.031,0.01172 0.0464,0.01735 0.13843,0.0515 0.27293,0.104968 0.40331,0.161125 0.0108,0.0051 0.0217,0.0095 0.0332,0.01415 0.13672,0.05909 0.26734,0.119626 0.39356,0.182876 0.0161,0.0076 0.0315,0.01613 0.0469,0.02369 0.125,0.06322 0.24681,0.128906 0.36131,0.196532 0.003,0.0012 0.005,0.0039 0.008,0.0051 0.10963,0.06494 0.21144,0.131344 0.31057,0.198969 0.0174,0.01147 0.0361,0.02441 0.0535,0.03663 0.0991,0.07031 0.19312,0.141125 0.28075,0.213875 0.01,0.0078 0.0193,0.01613 0.0283,0.02394 0.0862,0.07325 0.16796,0.147469 0.24268,0.223375 0.004,0.0039 0.008,0.0071 0.0115,0.011 0.0727,0.07472 0.13722,0.151375 0.1985,0.2285 0.0134,0.01806 0.0283,0.03465 0.0413,0.05275 0.0571,0.07666 0.10938,0.154531 0.15528,0.233157 0.005,0.0097 0.0108,0.01928 0.0161,0.02953 0.0425,0.07619 0.0776,0.153313 0.10866,0.231188 0.005,0.01172 0.0105,0.02319 0.0142,0.03491 0.031,0.08228 0.0535,0.166 0.071,0.2505 0.003,0.01613 0.006,0.03272 0.008,0.04956 0.0147,0.08619 0.0244,0.173093 0.0244,0.261468 v 1.500231 c 5e-5,1.104469 -0.89498,1.9995 -1.99995,1.9995 z m -9.50013,-5.9995 c 0,0.276125 -0.2235,0.4995 -0.49975,0.4995 -0.27625,0 -0.50037,-0.223375 -0.50037,-0.4995 0,-0.276375 0.22412,-0.5005 0.50037,-0.5005 0.27625,0 0.49975,0.224125 0.49975,0.5005 z"
       id="path2-6-3"
       style="stroke-width:0.03125;fill-opacity:1;fill:currentColor;"
       class="ColorScheme-Text" />
  </g>
  <g
     id="user-busy"
     transform="translate(-110)">
    <path
       id="rect4560"
       opacity="0.97"
       fill="none"
       fill-opacity="1"
       stroke="none"
       d="M 0,0 H 22 V 22 H 0 Z" />
    <path
       id="path4169-3"
       d="m 11.057398,3.554487 c -2.168789,-1e-6 -3.926938,1.64249 -3.926938,3.668603 0,2.026115 0.37494,5.622954 3.928279,5.561623 4.014495,-0.0693 3.925596,-3.535509 3.925596,-5.561623 1e-6,-2.026113 -1.758149,-3.668603 -3.926937,-3.668603 z"
       opacity="1"
       fill-opacity="1"
       stroke="none"
       style="fill:#ff9955;stroke-width:1.08445"
       sodipodi:nodetypes="sssss" />
    <path
       fill-rule="evenodd"
       clip-rule="evenodd"
       d="M 16.999996,19.00003 H 5.00012 C 3.89575,19.00003 3,18.104999 3,17.00053 v -1.50025 c 0,-0.800531 0.61109,-1.53125 1.62975,-2.117906 0.0786,-0.05809 0.17393,-0.09278 0.27818,-0.09278 0.26013,0 0.47069,0.210437 0.47069,0.470687 0,0.174563 -0.0966,0.325187 -0.23756,0.40625 l 10e-4,0.0019 c -0.71978,0.394786 -1.14228,0.855723 -1.14228,1.331817 v 1.50025 c 0,0.552 0.44762,0.9995 1.00012,0.9995 h 11.999876 c 0.55225,0 1,-0.4475 1,-0.9995 v -1.50025 c 0,-1.380625 -3.134281,-2.49975 -6.99975,-2.49975 -0.919437,0 -1.763687,-0.313719 -2.439813,-0.835219 C 8.095245,11.805904 7.71218,11.346685 7.44109,10.820061 c -0.0142,-0.02785 -0.0271,-0.05469 -0.0399,-0.08253 -0.0483,-0.100344 -0.0934,-0.202875 -0.13331,-0.307125 -0.0149,-0.03735 -0.0291,-0.07594 -0.0419,-0.114 -0.0348,-0.09791 -0.0644,-0.198969 -0.0908,-0.300531 -0.011,-0.042 -0.0232,-0.08375 -0.0328,-0.126938 C 7.07858,9.784687 7.06048,9.678969 7.04498,9.571563 7.03898,9.530313 7.03078,9.490253 7.02638,9.449 7.00948,9.301531 6.99988,9.152375 6.99988,9.000281 v -3 C 6.99988,4.34325 8.343126,3 10.000002,3 h 1.9995 c 1.65675,0 3,1.34325 3,3.00025 v 3 c 0,0.690437 -0.185313,1.3335 -0.493906,1.898937 -0.063,0.202876 -0.2505,0.351063 -0.474626,0.351063 -0.276124,0 -0.50025,-0.223625 -0.50025,-0.49975 0,-0.08447 0.02319,-0.162844 0.05981,-0.232437 l -0.0059,-0.0032 c 0.228031,-0.389657 0.372313,-0.834 0.404531,-1.309813 0.0071,-0.06762 0.01025,-0.136 0.01025,-0.204844 v -3 c 0,-1.1045 -0.895032,-2.00025 -2,-2.00025 h -1.9995 c -1.104969,0 -2,0.89575 -2,2.00025 v 3 c 0,0.06884 0.0032,0.137219 0.01025,0.204844 0.102407,1.516343 1.331657,2.722406 2.857782,2.788813 0.03991,0.0046 0.08313,0.0063 0.131968,0.0063 0.850844,0 1.669688,0.05859 2.438719,0.16625 0.19825,0.02759 0.392094,0.05859 0.5835,0.09278 0.0049,5e-4 0.01025,0.0019 0.01466,0.0025 0.183593,0.03297 0.363281,0.06959 0.539563,0.108157 0.02075,0.0046 0.04053,0.009 0.06128,0.01369 0.350344,0.07863 0.686281,0.167969 1.004625,0.267094 0.01537,0.0054 0.0315,0.009 0.04637,0.01415 0.155032,0.04906 0.306407,0.101312 0.453126,0.155281 0.01563,0.0059 0.031,0.01172 0.04637,0.01735 0.138438,0.0515 0.272938,0.104968 0.403313,0.161125 0.01075,0.0051 0.02172,0.0095 0.03319,0.01415 0.13672,0.05909 0.267344,0.119626 0.393563,0.182876 0.01613,0.0076 0.0315,0.01613 0.04687,0.02369 0.125,0.06322 0.246812,0.128906 0.361312,0.196532 0.0027,0.0012 0.0054,0.0039 0.0083,0.0051 0.109625,0.06494 0.211437,0.131344 0.310562,0.198969 0.01735,0.01147 0.03613,0.02441 0.05347,0.03663 0.09913,0.07031 0.193125,0.141125 0.28075,0.213875 0.0095,0.0078 0.01928,0.01613 0.02831,0.02394 0.08619,0.07325 0.167969,0.147469 0.242688,0.223375 0.0039,0.0039 0.0078,0.0071 0.01147,0.011 0.07275,0.07472 0.137219,0.151375 0.1985,0.2285 0.01344,0.01806 0.02831,0.03465 0.04125,0.05275 0.05713,0.07666 0.109375,0.154531 0.155281,0.233157 0.0049,0.0097 0.01075,0.01928 0.01613,0.02953 0.04247,0.07619 0.07762,0.153313 0.108656,0.231188 0.0046,0.01172 0.0105,0.02319 0.01415,0.03491 0.031,0.08228 0.05347,0.166 0.07103,0.2505 0.0029,0.01613 0.0056,0.03272 0.0083,0.04956 0.01465,0.08619 0.02441,0.173093 0.02441,0.261468 v 1.500231 c 5.2e-5,1.104469 -0.894979,1.9995 -1.999948,1.9995 z M 7.49987,13.00053 c 0,0.276125 -0.2235,0.4995 -0.49975,0.4995 -0.27625,0 -0.50037,-0.223375 -0.50037,-0.4995 0,-0.276375 0.22412,-0.5005 0.50037,-0.5005 0.27625,0 0.49975,0.224125 0.49975,0.5005 z"
       id="path2-6"
       style="fill:#ff9955;fill-opacity:1;stroke-width:0.03125" />
    <path
       id="rect4146-7"
       d="m 9.818458,5.214487 v 4.6 H 12.88513 V 8.281159 H 11.351786 V 5.214487 Z"
       class="ColorScheme-Background"
       opacity="1"
       fill-opacity="1"
       stroke="none"
       style="fill:#ffffff;fill-opacity:1;stroke-width:1.53328" />
  </g>
  <g
     id="user-online"
     transform="translate(-44)">
    <path
       id="rect4554"
       opacity="0.97"
       fill="none"
       fill-opacity="1"
       stroke="none"
       d="M 0,0 H 22 V 22 H 0 Z" />
    <path
       id="path4169-3-9"
       d="m 11.057398,3.554487 c -2.168789,-1e-6 -3.926938,1.64249 -3.926938,3.668603 0,2.026115 0.37494,5.622954 3.928279,5.561623 4.014495,-0.0693 3.925596,-3.535509 3.925596,-5.561623 1e-6,-2.026113 -1.758149,-3.668603 -3.926937,-3.668603 z"
       opacity="1"
       fill-opacity="1"
       stroke="none"
       style="fill:#1a89a2;fill-opacity:1;stroke-width:1.08445"
       sodipodi:nodetypes="sssss" />
    <path
       fill-rule="evenodd"
       clip-rule="evenodd"
       d="M 16.999996,19.00003 H 5.00012 C 3.89575,19.00003 3,18.104999 3,17.00053 v -1.50025 c 0,-0.800531 0.61109,-1.53125 1.62975,-2.117906 0.0786,-0.05809 0.17393,-0.09278 0.27818,-0.09278 0.26013,0 0.47069,0.210437 0.47069,0.470687 0,0.174563 -0.0966,0.325187 -0.23756,0.40625 l 10e-4,0.0019 c -0.71978,0.394786 -1.14228,0.855723 -1.14228,1.331817 v 1.50025 c 0,0.552 0.44762,0.9995 1.00012,0.9995 h 11.999876 c 0.55225,0 1,-0.4475 1,-0.9995 v -1.50025 c 0,-1.380625 -3.134281,-2.49975 -6.99975,-2.49975 -0.919437,0 -1.763687,-0.313719 -2.439813,-0.835219 C 8.095245,11.805904 7.71218,11.346685 7.44109,10.820061 c -0.0142,-0.02785 -0.0271,-0.05469 -0.0399,-0.08253 -0.0483,-0.100344 -0.0934,-0.202875 -0.13331,-0.307125 -0.0149,-0.03735 -0.0291,-0.07594 -0.0419,-0.114 -0.0348,-0.09791 -0.0644,-0.198969 -0.0908,-0.300531 -0.011,-0.042 -0.0232,-0.08375 -0.0328,-0.126938 C 7.07858,9.784687 7.06048,9.678969 7.04498,9.571563 7.03898,9.530313 7.03078,9.490253 7.02638,9.449 7.00948,9.301531 6.99988,9.152375 6.99988,9.000281 v -3 C 6.99988,4.34325 8.343126,3 10.000002,3 h 1.9995 c 1.65675,0 3,1.34325 3,3.00025 v 3 c 0,0.690437 -0.185313,1.3335 -0.493906,1.898937 -0.063,0.202876 -0.2505,0.351063 -0.474626,0.351063 -0.276124,0 -0.50025,-0.223625 -0.50025,-0.49975 0,-0.08447 0.02319,-0.162844 0.05981,-0.232437 l -0.0059,-0.0032 c 0.228031,-0.389657 0.372313,-0.834 0.404531,-1.309813 0.0071,-0.06762 0.01025,-0.136 0.01025,-0.204844 v -3 c 0,-1.1045 -0.895032,-2.00025 -2,-2.00025 h -1.9995 c -1.104969,0 -2,0.89575 -2,2.00025 v 3 c 0,0.06884 0.0032,0.137219 0.01025,0.204844 0.102407,1.516343 1.331657,2.722406 2.857782,2.788813 0.03991,0.0046 0.08313,0.0063 0.131968,0.0063 0.850844,0 1.669688,0.05859 2.438719,0.16625 0.19825,0.02759 0.392094,0.05859 0.5835,0.09278 0.0049,5e-4 0.01025,0.0019 0.01466,0.0025 0.183593,0.03297 0.363281,0.06959 0.539563,0.108157 0.02075,0.0046 0.04053,0.009 0.06128,0.01369 0.350344,0.07863 0.686281,0.167969 1.004625,0.267094 0.01537,0.0054 0.0315,0.009 0.04637,0.01415 0.155032,0.04906 0.306407,0.101312 0.453126,0.155281 0.01563,0.0059 0.031,0.01172 0.04637,0.01735 0.138438,0.0515 0.272938,0.104968 0.403313,0.161125 0.01075,0.0051 0.02172,0.0095 0.03319,0.01415 0.13672,0.05909 0.267344,0.119626 0.393563,0.182876 0.01613,0.0076 0.0315,0.01613 0.04687,0.02369 0.125,0.06322 0.246812,0.128906 0.361312,0.196532 0.0027,0.0012 0.0054,0.0039 0.0083,0.0051 0.109625,0.06494 0.211437,0.131344 0.310562,0.198969 0.01735,0.01147 0.03613,0.02441 0.05347,0.03663 0.09913,0.07031 0.193125,0.141125 0.28075,0.213875 0.0095,0.0078 0.01928,0.01613 0.02831,0.02394 0.08619,0.07325 0.167969,0.147469 0.242688,0.223375 0.0039,0.0039 0.0078,0.0071 0.01147,0.011 0.07275,0.07472 0.137219,0.151375 0.1985,0.2285 0.01344,0.01806 0.02831,0.03465 0.04125,0.05275 0.05713,0.07666 0.109375,0.154531 0.155281,0.233157 0.0049,0.0097 0.01075,0.01928 0.01613,0.02953 0.04247,0.07619 0.07762,0.153313 0.108656,0.231188 0.0046,0.01172 0.0105,0.02319 0.01415,0.03491 0.031,0.08228 0.05347,0.166 0.07103,0.2505 0.0029,0.01613 0.0056,0.03272 0.0083,0.04956 0.01465,0.08619 0.02441,0.173093 0.02441,0.261468 v 1.500231 c 5.2e-5,1.104469 -0.894979,1.9995 -1.999948,1.9995 z M 7.49987,13.00053 c 0,0.276125 -0.2235,0.4995 -0.49975,0.4995 -0.27625,0 -0.50037,-0.223375 -0.50037,-0.4995 0,-0.276375 0.22412,-0.5005 0.50037,-0.5005 0.27625,0 0.49975,0.224125 0.49975,0.5005 z"
       id="path2-6-36"
       style="fill:#1a89a2;fill-opacity:1;stroke-width:0.03125" />
    <path
       id="path4166-5"
       d="m 12.38513,5.781159 1,1 -3,3 -2,-2 1,-1 1,1 z"
       class="ColorScheme-Background"
       fill-rule="evenodd"
       stroke="none"
       stroke-width="1"
       stroke-linecap="butt"
       stroke-linejoin="miter"
       stroke-opacity="1"
       style="fill:#ffffff;fill-opacity:1" />
  </g>
  <g
     id="user-away"
     transform="translate(-88)">
    <path
       id="rect4562"
       opacity="0.97"
       fill="none"
       d="M 0,0 H 22 V 22 H 0 Z"
       style="fill-opacity:1;stroke:none" />
    <path
       id="path4169-3-6"
       d="m 11.057398,3.554487 c -2.168789,-1e-6 -3.926938,1.64249 -3.926938,3.668603 0,2.026115 0.37494,5.622954 3.928279,5.561623 4.014495,-0.0693 3.925596,-3.535509 3.925596,-5.561623 1e-6,-2.026113 -1.758149,-3.668603 -3.926937,-3.668603 z"
       opacity="1"
       fill-opacity="1"
       stroke="none"
       style="fill:#ffdd55;fill-opacity:1;stroke-width:1.08445"
       sodipodi:nodetypes="sssss" />
    <path
       fill-rule="evenodd"
       clip-rule="evenodd"
       d="M 16.999996,19.00003 H 5.00012 C 3.89575,19.00003 3,18.104999 3,17.00053 v -1.50025 c 0,-0.800531 0.61109,-1.53125 1.62975,-2.117906 0.0786,-0.05809 0.17393,-0.09278 0.27818,-0.09278 0.26013,0 0.47069,0.210437 0.47069,0.470687 0,0.174563 -0.0966,0.325187 -0.23756,0.40625 l 10e-4,0.0019 c -0.71978,0.394786 -1.14228,0.855723 -1.14228,1.331817 v 1.50025 c 0,0.552 0.44762,0.9995 1.00012,0.9995 h 11.999876 c 0.55225,0 1,-0.4475 1,-0.9995 v -1.50025 c 0,-1.380625 -3.134281,-2.49975 -6.99975,-2.49975 -0.919437,0 -1.763687,-0.313719 -2.439813,-0.835219 C 8.095245,11.805904 7.71218,11.346685 7.44109,10.820061 c -0.0142,-0.02785 -0.0271,-0.05469 -0.0399,-0.08253 -0.0483,-0.100344 -0.0934,-0.202875 -0.13331,-0.307125 -0.0149,-0.03735 -0.0291,-0.07594 -0.0419,-0.114 -0.0348,-0.09791 -0.0644,-0.198969 -0.0908,-0.300531 -0.011,-0.042 -0.0232,-0.08375 -0.0328,-0.126938 C 7.07858,9.784687 7.06048,9.678969 7.04498,9.571563 7.03898,9.530313 7.03078,9.490253 7.02638,9.449 7.00948,9.301531 6.99988,9.152375 6.99988,9.000281 v -3 C 6.99988,4.34325 8.343126,3 10.000002,3 h 1.9995 c 1.65675,0 3,1.34325 3,3.00025 v 3 c 0,0.690437 -0.185313,1.3335 -0.493906,1.898937 -0.063,0.202876 -0.2505,0.351063 -0.474626,0.351063 -0.276124,0 -0.50025,-0.223625 -0.50025,-0.49975 0,-0.08447 0.02319,-0.162844 0.05981,-0.232437 l -0.0059,-0.0032 c 0.228031,-0.389657 0.372313,-0.834 0.404531,-1.309813 0.0071,-0.06762 0.01025,-0.136 0.01025,-0.204844 v -3 c 0,-1.1045 -0.895032,-2.00025 -2,-2.00025 h -1.9995 c -1.104969,0 -2,0.89575 -2,2.00025 v 3 c 0,0.06884 0.0032,0.137219 0.01025,0.204844 0.102407,1.516343 1.331657,2.722406 2.857782,2.788813 0.03991,0.0046 0.08313,0.0063 0.131968,0.0063 0.850844,0 1.669688,0.05859 2.438719,0.16625 0.19825,0.02759 0.392094,0.05859 0.5835,0.09278 0.0049,5e-4 0.01025,0.0019 0.01466,0.0025 0.183593,0.03297 0.363281,0.06959 0.539563,0.108157 0.02075,0.0046 0.04053,0.009 0.06128,0.01369 0.350344,0.07863 0.686281,0.167969 1.004625,0.267094 0.01537,0.0054 0.0315,0.009 0.04637,0.01415 0.155032,0.04906 0.306407,0.101312 0.453126,0.155281 0.01563,0.0059 0.031,0.01172 0.04637,0.01735 0.138438,0.0515 0.272938,0.104968 0.403313,0.161125 0.01075,0.0051 0.02172,0.0095 0.03319,0.01415 0.13672,0.05909 0.267344,0.119626 0.393563,0.182876 0.01613,0.0076 0.0315,0.01613 0.04687,0.02369 0.125,0.06322 0.246812,0.128906 0.361312,0.196532 0.0027,0.0012 0.0054,0.0039 0.0083,0.0051 0.109625,0.06494 0.211437,0.131344 0.310562,0.198969 0.01735,0.01147 0.03613,0.02441 0.05347,0.03663 0.09913,0.07031 0.193125,0.141125 0.28075,0.213875 0.0095,0.0078 0.01928,0.01613 0.02831,0.02394 0.08619,0.07325 0.167969,0.147469 0.242688,0.223375 0.0039,0.0039 0.0078,0.0071 0.01147,0.011 0.07275,0.07472 0.137219,0.151375 0.1985,0.2285 0.01344,0.01806 0.02831,0.03465 0.04125,0.05275 0.05713,0.07666 0.109375,0.154531 0.155281,0.233157 0.0049,0.0097 0.01075,0.01928 0.01613,0.02953 0.04247,0.07619 0.07762,0.153313 0.108656,0.231188 0.0046,0.01172 0.0105,0.02319 0.01415,0.03491 0.031,0.08228 0.05347,0.166 0.07103,0.2505 0.0029,0.01613 0.0056,0.03272 0.0083,0.04956 0.01465,0.08619 0.02441,0.173093 0.02441,0.261468 v 1.500231 c 5.2e-5,1.104469 -0.894979,1.9995 -1.999948,1.9995 z M 7.49987,13.00053 c 0,0.276125 -0.2235,0.4995 -0.49975,0.4995 -0.27625,0 -0.50037,-0.223375 -0.50037,-0.4995 0,-0.276375 0.22412,-0.5005 0.50037,-0.5005 0.27625,0 0.49975,0.224125 0.49975,0.5005 z"
       id="path2-6-2"
       style="fill:#ffdd55;fill-opacity:1;stroke-width:0.03125" />
    <path
       id="path4227-2"
       d="m 13.751786,4.881159 -6,3 1.5,0.75 0.75,2.25 0.75,-1.5 1.5,0.75 z"
       fill-rule="evenodd"
       stroke-width="0.75"
       stroke-linecap="butt"
       stroke-linejoin="miter"
       stroke-opacity="1"
       style="fill:#ffffff;fill-opacity:1" />
  </g>
  <g
     id="user-offline"
     transform="translate(-66)">
    <path
       id="rect4564"
       opacity="0.97"
       fill="none"
       fill-opacity="1"
       stroke="none"
       d="M 0,0 H 22 V 22 H 0 Z" />
    <path
       id="path4169-3-1"
       d="m 11.057398,3.554487 c -2.168789,-1e-6 -3.926938,1.64249 -3.926938,3.668603 0,2.026115 0.37494,5.622954 3.928279,5.561623 4.014495,-0.0693 3.925596,-3.535509 3.925596,-5.561623 1e-6,-2.026113 -1.758149,-3.668603 -3.926937,-3.668603 z"
       opacity="1"
       fill-opacity="1"
       stroke="none"
       style="fill:#a1b0c3;fill-opacity:1;stroke-width:1.08445"
       sodipodi:nodetypes="sssss" />
    <path
       fill-rule="evenodd"
       clip-rule="evenodd"
       d="M 16.999996,19.00003 H 5.00012 C 3.89575,19.00003 3,18.104999 3,17.00053 v -1.50025 c 0,-0.800531 0.61109,-1.53125 1.62975,-2.117906 0.0786,-0.05809 0.17393,-0.09278 0.27818,-0.09278 0.26013,0 0.47069,0.210437 0.47069,0.470687 0,0.174563 -0.0966,0.325187 -0.23756,0.40625 l 10e-4,0.0019 c -0.71978,0.394786 -1.14228,0.855723 -1.14228,1.331817 v 1.50025 c 0,0.552 0.44762,0.9995 1.00012,0.9995 h 11.999876 c 0.55225,0 1,-0.4475 1,-0.9995 v -1.50025 c 0,-1.380625 -3.134281,-2.49975 -6.99975,-2.49975 -0.919437,0 -1.763687,-0.313719 -2.439813,-0.835219 C 8.095245,11.805904 7.71218,11.346685 7.44109,10.820061 c -0.0142,-0.02785 -0.0271,-0.05469 -0.0399,-0.08253 -0.0483,-0.100344 -0.0934,-0.202875 -0.13331,-0.307125 -0.0149,-0.03735 -0.0291,-0.07594 -0.0419,-0.114 -0.0348,-0.09791 -0.0644,-0.198969 -0.0908,-0.300531 -0.011,-0.042 -0.0232,-0.08375 -0.0328,-0.126938 C 7.07858,9.784687 7.06048,9.678969 7.04498,9.571563 7.03898,9.530313 7.03078,9.490253 7.02638,9.449 7.00948,9.301531 6.99988,9.152375 6.99988,9.000281 v -3 C 6.99988,4.34325 8.343126,3 10.000002,3 h 1.9995 c 1.65675,0 3,1.34325 3,3.00025 v 3 c 0,0.690437 -0.185313,1.3335 -0.493906,1.898937 -0.063,0.202876 -0.2505,0.351063 -0.474626,0.351063 -0.276124,0 -0.50025,-0.223625 -0.50025,-0.49975 0,-0.08447 0.02319,-0.162844 0.05981,-0.232437 l -0.0059,-0.0032 c 0.228031,-0.389657 0.372313,-0.834 0.404531,-1.309813 0.0071,-0.06762 0.01025,-0.136 0.01025,-0.204844 v -3 c 0,-1.1045 -0.895032,-2.00025 -2,-2.00025 h -1.9995 c -1.104969,0 -2,0.89575 -2,2.00025 v 3 c 0,0.06884 0.0032,0.137219 0.01025,0.204844 0.102407,1.516343 1.331657,2.722406 2.857782,2.788813 0.03991,0.0046 0.08313,0.0063 0.131968,0.0063 0.850844,0 1.669688,0.05859 2.438719,0.16625 0.19825,0.02759 0.392094,0.05859 0.5835,0.09278 0.0049,5e-4 0.01025,0.0019 0.01466,0.0025 0.183593,0.03297 0.363281,0.06959 0.539563,0.108157 0.02075,0.0046 0.04053,0.009 0.06128,0.01369 0.350344,0.07863 0.686281,0.167969 1.004625,0.267094 0.01537,0.0054 0.0315,0.009 0.04637,0.01415 0.155032,0.04906 0.306407,0.101312 0.453126,0.155281 0.01563,0.0059 0.031,0.01172 0.04637,0.01735 0.138438,0.0515 0.272938,0.104968 0.403313,0.161125 0.01075,0.0051 0.02172,0.0095 0.03319,0.01415 0.13672,0.05909 0.267344,0.119626 0.393563,0.182876 0.01613,0.0076 0.0315,0.01613 0.04687,0.02369 0.125,0.06322 0.246812,0.128906 0.361312,0.196532 0.0027,0.0012 0.0054,0.0039 0.0083,0.0051 0.109625,0.06494 0.211437,0.131344 0.310562,0.198969 0.01735,0.01147 0.03613,0.02441 0.05347,0.03663 0.09913,0.07031 0.193125,0.141125 0.28075,0.213875 0.0095,0.0078 0.01928,0.01613 0.02831,0.02394 0.08619,0.07325 0.167969,0.147469 0.242688,0.223375 0.0039,0.0039 0.0078,0.0071 0.01147,0.011 0.07275,0.07472 0.137219,0.151375 0.1985,0.2285 0.01344,0.01806 0.02831,0.03465 0.04125,0.05275 0.05713,0.07666 0.109375,0.154531 0.155281,0.233157 0.0049,0.0097 0.01075,0.01928 0.01613,0.02953 0.04247,0.07619 0.07762,0.153313 0.108656,0.231188 0.0046,0.01172 0.0105,0.02319 0.01415,0.03491 0.031,0.08228 0.05347,0.166 0.07103,0.2505 0.0029,0.01613 0.0056,0.03272 0.0083,0.04956 0.01465,0.08619 0.02441,0.173093 0.02441,0.261468 v 1.500231 c 5.2e-5,1.104469 -0.894979,1.9995 -1.999948,1.9995 z M 7.49987,13.00053 c 0,0.276125 -0.2235,0.4995 -0.49975,0.4995 -0.27625,0 -0.50037,-0.223375 -0.50037,-0.4995 0,-0.276375 0.22412,-0.5005 0.50037,-0.5005 0.27625,0 0.49975,0.224125 0.49975,0.5005 z"
       id="path2-6-27"
       style="fill:#a1b0c3;fill-opacity:1;stroke-width:0.03125" />
    <path
       id="rect4152-8-9"
       opacity="1"
       fill-opacity="1"
       stroke="none"
       d="m 13.28513,7.281159 v 1 h -4.6 v -1 z"
       style="fill:#ffffff;fill-opacity:1;stroke-width:1.23826"
       inkscape:transform-center-x="-1.3393402"
       inkscape:transform-center-y="-2.8051179" />
  </g>
  <g
     id="user-desktop"
     transform="translate(-50,-75)">
    <path
       id="rect846-6"
       d="M 0,0 H 64 V 64 H 0 Z"
       fill="none" />
    <path
       d="m 55.999965,40.038464 c 0,1.040772 -0.89549,1.884614 -1.999999,1.884614 -1.10451,0 -1.999999,-0.843842 -1.999999,-1.884614 0,-1.040771 0.895489,-1.884622 1.999999,-1.884622 1.104509,0 1.999999,0.843851 1.999999,1.884622 z m 0,16.961536 h -9.999994 c -1.10451,0 -1.999999,-0.843842 -1.999999,-1.884614 0,-1.040771 0.895489,-1.884614 1.999999,-1.884614 h 9.999994 c 2.20902,0 3.999997,-1.687672 3.999997,-3.769237 V 15.53847 c 0,-2.08157 -1.790977,-3.76924 -3.999997,-3.76924 H 7.9999985 c -2.2089929,0 -4.0000042,1.68767 -4.0000042,3.76924 v 16.01922 1.038891 3.67265 c 0,1.04077 0.8954956,1.884611 1.9999971,1.884611 h 3.8973772 1.1026194 34.999983 c 1.10451,0 1.999998,0.843851 1.999998,1.884622 0,1.040772 -0.895488,1.884614 -1.999998,1.884614 H 4.9999879 c -2.4179905,0 -4.43411994,-1.618663 -4.89798581,-3.769236 H 4.8563524e-5 V 15.53847 C 4.8563524e-5,11.375351 3.5820309,8 8.0000366,8 H 56.000005 C 60.417995,8 64,11.375351 64,15.53847 V 49.461535 C 64,53.624652 60.417995,57 56.000005,57 Z M 27.999982,47.576921 c 0,-1.040772 0.895489,-1.884614 1.999999,-1.884614 1.10451,0 1.999999,0.843842 1.999999,1.884614 0,1.040771 -0.895489,1.884614 -1.999999,1.884614 -1.10451,0 -1.999999,-0.843843 -1.999999,-1.884614 z M 1.9999971,45.692307 c 1.1045115,0 1.9999972,0.843842 1.9999972,1.884614 v 1.884614 c 0,2.081565 1.7910113,3.769237 4.0000042,3.769237 H 39.973481 c 2.523994,0 2.840276,3.479284 0.02651,3.769228 L 32,56.999796 v 0 0 0 0 0 0 0 h 2.593761 v 0 0 0 0 H 32 34.593761 v 0 0 0 0 0 0 0 c 0,0 0.75388,0 0,0 H 31.999979 7.9999985 C 3.581991,56.999796 0,53.624438 0,49.46133 v -1.884614 c 0,-1.040771 0.89549551,-1.884615 1.9999971,-1.884615 z"
       id="path2-36"
       style="stroke-width:0.12134;fill-opacity:1;fill:currentColor;"
       sodipodi:nodetypes="ssssscsssssssssccssccssssccsssssscssssscsssscccccccccccccccccccccccscssscc"
       class="ColorScheme-Text" />
  </g>
  <g
     id="48-48-user-desktop"
     transform="translate(-107,-58)">
    <path
       id="rect846"
       d="M 0,0 H 48 V 48 H 0 Z"
       fill="none" />
    <path
       d="m 41.999946,29.538461 c 0,0.764649 -0.671622,1.384616 -1.500011,1.384616 -0.828379,0 -1.5,-0.619967 -1.5,-1.384616 0,-0.764648 0.671621,-1.384614 1.5,-1.384614 0.828389,0 1.500011,0.619966 1.500011,1.384614 z m 0,12.461539 h -7.500004 c -0.828389,0 -1.500001,-0.619966 -1.500001,-1.384615 0,-0.764649 0.671612,-1.384616 1.500001,-1.384616 h 7.500004 c 1.656771,0 2.999992,-1.239916 2.999992,-2.76923 V 11.538471 c 0,-1.52932 -1.343221,-2.76924 -2.999992,-2.76924 H 5.9999551 c -1.6567528,0 -3.0000118,1.23992 -3.0000118,2.76924 v 11.769221 0.763269 2.69827 c 0,0.764648 0.6716295,1.384616 1.5000009,1.384616 H 7.4229839 8.2499366 34.499942 c 0.828379,0 1.500001,0.619966 1.500001,1.384614 0,0.764649 -0.671622,1.384616 -1.500001,1.384616 H 3.7499438 c -1.8134961,0 -3.32559846,-1.189218 -3.67349563,-2.76923 H 9.712641e-6 V 11.538471 C 9.712641e-6,8.479851 2.6864968,6.000001 6.0000037,6.000001 H 42.000006 C 45.313494,6.000001 48,8.479851 48,11.538471 V 36.461539 C 48,39.52015 45.313494,42 42.000006,42 Z M 20.999943,35.076923 c 0,-0.764649 0.671612,-1.384615 1.500001,-1.384615 0.828389,0 1.500001,0.619966 1.500001,1.384615 0,0.764649 -0.671612,1.384616 -1.500001,1.384616 -0.828389,0 -1.500001,-0.619967 -1.500001,-1.384616 z M 1.4999523,33.692308 c 0.8283815,0 1.499991,0.619966 1.499991,1.384615 v 1.384616 c 0,1.529314 1.343259,2.76923 3.0000118,2.76923 H 29.980079 c 1.892986,0 2.130211,2.556213 0.01993,2.769231 l -6,-1.53e-4 v 0 0 0 0 0 0 0 h 1.945322 v 0 0 0 0 H 24 25.945322 v 0 0 0 0 0 0 0 c 0,0 0.565412,0 0,0 H 23.999995 6.0000037 C 2.6864968,41.999847 0,39.519996 0,36.461385 V 35.07677 c 0,-0.764649 0.6716194,-1.384616 1.5000009,-1.384616 z"
       id="path2-36-3"
       style="stroke-width:0.090072;fill-opacity:1;fill:currentColor;"
       sodipodi:nodetypes="ssssscsssssssssccssccssssccsssssscssssscsssscccccccccccccccccccccccscssscc"
       class="ColorScheme-Text" />
  </g>
  <g
     id="32-32-user-desktop"
     transform="translate(-149,-42)">
    <path
       id="rect844"
       d="M 0,0 H 32 V 32 H 0 Z"
       fill="none" />
    <path
       d="m 28.000003,19.69231 c 0,0.50976 -0.447747,0.92307 -1.000007,0.92307 -0.552254,0 -1.000001,-0.41331 -1.000001,-0.92307 0,-0.50977 0.447747,-0.92308 1.000001,-0.92308 0.55226,0 1.000007,0.41331 1.000007,0.92308 z m 0,8.30769 h -5.000005 c -0.55226,0 -1.000004,-0.413311 -1.000004,-0.92308 0,-0.50976 0.447744,-0.92307 1.000004,-0.92307 h 5.000005 c 1.104506,0 1.999996,-0.82661 1.999996,-1.84616 V 7.69231 c 0,-1.01954 -0.89549,-1.84616 -1.999996,-1.84616 H 3.999997 c -1.1045023,0 -2.0000085,0.82662 -2.0000085,1.84616 v 7.84615 0.50885 1.79884 c 0,0.50977 0.4477532,0.92308 1.0000043,0.92308 H 4.9486889 5.4999884 22.999998 c 0.552254,0 1.000001,0.41331 1.000001,0.92308 0,0.50976 -0.447747,0.92307 -1.000001,0.92307 H 2.4999956 c -1.2090009,0 -2.21706624,-0.79281 -2.44900423,-1.84615 H 0 V 7.69231 C 0,5.65323 1.7909921,4 3.999997,4 H 28.000003 C 30.208997,4 32,5.65323 32,7.69231 V 24.30769 C 32,26.34677 30.208997,28 28.000003,28 Z M 14,23.38462 c 0,-0.50977 0.447734,-0.92308 0.999994,-0.92308 0.55226,0 1.000004,0.41331 1.000004,0.92308 0,0.50976 -0.447744,0.92307 -1.000004,0.92307 C 14.447734,24.30769 14,23.89438 14,23.38462 Z M 0.99999426,22.46154 c 0.55226104,0 0.99999424,0.41331 0.99999424,0.92308 v 0.92307 c 0,1.01955 0.8955062,1.84616 2.0000085,1.84616 h 15.986756 c 1.26199,0 1.420135,1.704138 0.01332,1.84615 l -3.999997,-1.02e-4 v 0 0 0 0 0 0 0 h 1.296888 v 0 0 0 0 h -1.296888 1.296888 v 0 0 0 0 0 0 0 c 0,0 0.376937,0 0,0 H 16.000068 4.0000751 C 1.7910698,27.999898 6.798851e-5,26.34666 6.798851e-5,24.30759 v -0.92308 c 0,-0.50976 0.44774318149,-0.92307 1.00000431149,-0.92307 z"
       id="path2-36-3-6"
       style="stroke-width:0.0600482;fill-opacity:1;fill:currentColor;"
       sodipodi:nodetypes="ssssscsssssssssccssccssssccsssssscssssscsssscccccccccccccccccccccccscssscc"
       class="ColorScheme-Text" />
  </g>
  <g
     id="22-22-user-desktop"
     transform="translate(-181,-32)">
    <path
       id="rect850"
       d="M 0,0 H 22 V 22 H 0 Z"
       fill="none" />
    <path
       d="m 19.250011,13.46154 c 0,0.33984 -0.307816,0.61538 -0.687497,0.61538 -0.379671,0 -0.687498,-0.27554 -0.687498,-0.61538 0,-0.339847 0.307827,-0.615387 0.687498,-0.615387 0.379681,0 0.687497,0.27554 0.687497,0.615387 z m 0,5.53846 h -3.437486 c -0.379681,0 -0.687497,-0.275541 -0.687497,-0.615387 0,-0.33984 0.307816,-0.61538 0.687497,-0.61538 h 3.437486 c 0.759353,0 1.374994,-0.551073 1.374994,-1.230773 V 5.46154 c 0,-0.679693 -0.615641,-1.230773 -1.374994,-1.230773 H 2.7500689 c -0.7593429,0 -1.3750044,0.55108 -1.3750044,1.230773 v 5.230767 0.339233 1.199227 c 0,0.339846 0.3078357,0.615386 0.6875071,0.615386 H 3.4022893 3.7813096 15.812525 c 0.379671,0 0.687498,0.27554 0.687498,0.615387 0,0.33984 -0.307827,0.61538 -0.687498,0.61538 H 1.7188181 c -0.8311786,0 -1.52422472,-0.52854 -1.68368151,-1.230767 H 8.0129044e-5 V 5.46154 C 8.0129044e-5,4.102153 1.2313831,3 2.7500689,3 H 19.250011 C 20.768697,3 22,4.102153 22,5.46154 V 16.53846 C 22,17.897847 20.768697,19 19.250011,19 Z M 9.6250508,15.92308 c 0,-0.339847 0.3078156,-0.615387 0.6874872,-0.615387 0.379681,0 0.687507,0.27554 0.687507,0.615387 0,0.33984 -0.307826,0.61538 -0.687507,0.61538 -0.3796716,0 -0.6874872,-0.27554 -0.6874872,-0.61538 z M 0.68757731,15.307693 c 0.37967149,0 0.68748719,0.27554 0.68748719,0.615387 v 0.61538 c 0,0.6797 0.6156615,1.230773 1.3750044,1.230773 H 13.740929 c 0.867607,0 0.976342,1.136092 0.009,1.230767 l -2.749988,-6.8e-5 v 0 0 0 0 0 0 0 h 0.891616 v 0 0 0 0 h -0.891616 0.891616 v 0 0 0 0 0 0 0 c 0,0 0.259137,0 0,0 H 10.999955 2.7499887 C 1.231303,18.999932 0,17.897773 0,16.538393 v -0.615386 c 0,-0.33984 0.30781572,-0.61538 0.68749718,-0.61538 z"
       id="path2-36-3-6-7"
       style="stroke-width:0.0406528;fill-opacity:1;fill:currentColor;"
       sodipodi:nodetypes="ssssscsssssssssccssccssssccsssssscssssscsssscccccccccccccccccccccccscssscc"
       class="ColorScheme-Text" />
  </g>
  <g
     id="16-16-user-desktop"
     transform="translate(-207,-26)">
    <path
       id="rect856"
       d="M 0,0 H 16 V 16 H 0 Z"
       fill="none" />
    <path
       d="m 14.000051,9.846155 c 0,0.25488 -0.223868,0.461535 -0.499998,0.461535 -0.276132,0 -0.500007,-0.206655 -0.500007,-0.461535 0,-0.254885 0.223875,-0.46154 0.500007,-0.46154 0.27613,0 0.499998,0.206655 0.499998,0.46154 z m 0,4.153845 h -2.499996 c -0.27614,0 -0.500008,-0.206656 -0.500008,-0.46154 0,-0.25488 0.223868,-0.461535 0.500008,-0.461535 h 2.499996 c 0.55226,0 0.999994,-0.413305 0.999994,-0.92308 V 3.84615 c 0,-0.50976 -0.447734,-0.92307 -0.999994,-0.92307 H 2.0000474 c -0.5522513,0 -1.0000044,0.41331 -1.0000044,0.92307 v 3.92308 0.254425 0.89942 c 0,0.254885 0.2238766,0.46154 0.5000071,0.46154 h 0.9743433 0.2756547 8.7500069 c 0.27612,0 0.499997,0.206655 0.499997,0.46154 0,0.25488 -0.223877,0.461535 -0.499997,0.461535 H 1.2500466 c -0.60449562,0 -1.10853336,-0.396405 -1.22450234,-0.923075 H 0 V 3.84615 C 0,2.82661 0.89549619,2 1.9999988,2 H 14.000001 C 15.104505,2 16,2.82661 16,3.84615 v 8.307695 C 16,13.173385 15.104505,14 14.000001,14 Z M 7.0000492,11.69231 c 0,-0.254885 0.2238667,-0.46154 0.4999972,-0.46154 0.2761306,0 0.5000072,0.206655 0.5000072,0.46154 0,0.25488 -0.2238766,0.461535 -0.5000072,0.461535 -0.2761305,0 -0.4999972,-0.206655 -0.4999972,-0.461535 z M 0.50004582,11.23077 c 0.27613053,0 0.49999718,0.206655 0.49999718,0.46154 v 0.461535 c 0,0.509775 0.4477531,0.92308 1.0000044,0.92308 H 9.993428 c 0.630991,0 0.710072,0.852069 0.00697,0.923075 l -1.9999981,-5.1e-5 v 0 0 0 0 0 0 0 h 0.6484454 v 0 0 0 0 H 8.0002284 8.6486736 v 0 0 0 0 0 0 0 c 0,0 0.1884738,0 0,0 H 8.0002284 2.000232 c -1.10450271,0 -1.99999889652,-0.826619 -1.99999889652,-1.846154 v -0.46154 c 0,-0.25488 0.22386676652,-0.461535 0.49999726652,-0.461535 z"
       id="path2-36-3-6-7-5"
       style="stroke-width:0.030024;fill-opacity:1;fill:currentColor;"
       sodipodi:nodetypes="ssssscsssssssssccssccssssccsssssscssssscsssscccccccccccccccccccccccscssscc"
       class="ColorScheme-Text" />
  </g>
</svg>
