<?xml version="1.0" encoding="UTF-8" standalone="no"?>
<svg
   width="32"
   height="32"
   version="1"
   id="svg12"
   sodipodi:docname="utilities.svg"
   inkscape:version="1.2.1 (9c6d41e410, 2022-07-14)"
   xmlns:inkscape="http://www.inkscape.org/namespaces/inkscape"
   xmlns:sodipodi="http://sodipodi.sourceforge.net/DTD/sodipodi-0.dtd"
   xmlns="http://www.w3.org/2000/svg"
   xmlns:svg="http://www.w3.org/2000/svg"
   xmlns:rdf="http://www.w3.org/1999/02/22-rdf-syntax-ns#"
   xmlns:cc="http://creativecommons.org/ns#"
   xmlns:dc="http://purl.org/dc/elements/1.1/">
  <style
     id="current-color-scheme"
     type="text/css">.ColorScheme-Text { color:#eff0f1; }
</style>
  <metadata
     id="metadata18">
    <rdf:RDF>
      <cc:Work
         rdf:about="">
        <dc:format>image/svg+xml</dc:format>
        <dc:type
           rdf:resource="http://purl.org/dc/dcmitype/StillImage" />
      </cc:Work>
    </rdf:RDF>
  </metadata>
  <defs
     id="defs16" />
  <sodipodi:namedview
     pagecolor="#ffffff"
     bordercolor="#000000"
     borderopacity="1"
     objecttolerance="10"
     gridtolerance="10"
     guidetolerance="10"
     inkscape:pageopacity="0"
     inkscape:pageshadow="2"
     inkscape:window-width="1920"
     inkscape:window-height="1002"
     id="namedview14"
     showgrid="false"
     inkscape:zoom="11.313709"
     inkscape:cx="15.423766"
     inkscape:cy="19.843183"
     inkscape:window-x="0"
     inkscape:window-y="0"
     inkscape:window-maximized="1"
     inkscape:current-layer="svg12"
     inkscape:document-rotation="0"
     inkscape:lockguides="false"
     inkscape:pagecheckerboard="0"
     inkscape:showpageshadow="2"
     inkscape:deskcolor="#cccccc">
    <inkscape:grid
       type="xygrid"
       id="grid576"
       originx="0"
       originy="0" />
  </sodipodi:namedview>
  <g
     id="utilities-terminal">
    <rect
       style="opacity:0.00100002;fill:#d1d5e9;fill-opacity:1"
       width="32"
       height="32"
       x="0"
       y="0"
       id="rect7" />
    <path
       fill-rule="evenodd"
       clip-rule="evenodd"
       d="m 24.572286,28 h -12.858 C 11.24157,28 10.858,27.615358 10.858,27.142856 c 0,-0.473784 0.38357,-0.85757 0.856286,-0.85757 h 12.858 c 0.946714,0 1.714286,-0.767572 1.714286,-1.714286 V 7.428142 c 0,-0.946712 -0.767572,-1.713856 -1.714286,-1.713856 H 7.429 c -0.9465,0 -1.7145,0.767144 -1.7145,1.713856 V 23.713856 C 5.7145,24.187642 5.331144,24.571 4.857358,24.571 4.38443,24.571 4,24.187644 4,23.713856 V 7.428142 C 4,5.534714 5.535786,4 7.429,4 H 24.572286 C 26.465286,4 28,5.534714 28,7.428142 V 24.571 C 28,26.464428 26.465286,28 24.572286,28 Z M 8.286356,26.285286 c 0.472716,0 0.857144,0.383786 0.857144,0.85757 C 9.1435,27.615356 8.759072,28 8.286356,28 7.812572,28 7.429,27.615358 7.429,27.142856 c 0,-0.473784 0.383572,-0.85757 0.857356,-0.85757 z"
       id="path2"
       style="fill:currentColor;fill-opacity:1;stroke-width:0.0535714"
       class="ColorScheme-Text " />
    <rect
       style="enable-background:new;stroke-opacity:1;stroke-dasharray:none;stroke-miterlimit:4;stroke-linejoin:round;stroke-linecap:round;stroke-width:2.23606;stroke:none;fill-opacity:1;fill:currentColor;display:inline;"
       width="10"
       height="2"
       x="14"
       y="22"
       ry="1"
       id="path4186-7-3-3-7"
       inkscape:label="path18"
       class="ColorScheme-Text" />
    <path
       sodipodi:nodetypes="ccc"
       inkscape:connector-curvature="0"
       id="path3842"
       d="m 9.6990212,12.699021 4.6019578,4.601958 -4.60196,4.601958"
       style="stroke-opacity:1;stroke-dasharray:none;stroke-miterlimit:4;stroke-linejoin:miter;stroke-linecap:round;stroke-width:2.60325;stroke:currentColor;fill:none;"
       class="ColorScheme-Text" />
  </g>
  <g
     id="22-22-utilities-terminal"
     transform="translate(32,10.000001)">
    <rect
       style="opacity:0.00100002;fill:#d1d5e9;fill-opacity:1"
       width="22"
       height="22"
       x="0"
       y="0"
       id="rect2" />
    <path
       fill-rule="evenodd"
       clip-rule="evenodd"
       d="M 16.714851,18.999999 H 8.1428565 c -0.3151426,0 -0.5708566,-0.256425 -0.5708566,-0.571439 0,-0.315841 0.255714,-0.571698 0.5708566,-0.571698 h 8.5719945 c 0.631149,0 1.142864,-0.511714 1.142864,-1.142863 V 5.285422 c 0,-0.631135 -0.511715,-1.142571 -1.142864,-1.142571 H 5.2859999 c -0.631,0 -1.143,0.511436 -1.143,1.142571 v 10.857153 c 0,0.315855 -0.2555705,0.571424 -0.571428,0.571424 C 3.256286,16.713999 3,16.458432 3,16.142575 V 5.285422 C 3,4.023137 4.0238573,3 5.2859999,3 H 16.714851 C 17.976863,3 19,4.023137 19,5.285422 v 11.428577 c 0,1.26228 -1.023137,2.286 -2.285149,2.286 z M 5.8575708,17.856862 c 0.3151434,0 0.5714291,0.255857 0.5714291,0.571698 0,0.315012 -0.2562857,0.571439 -0.5714291,0.571439 -0.3158561,0 -0.5715709,-0.256425 -0.5715709,-0.571439 0,-0.315841 0.2557148,-0.571698 0.5715709,-0.571698 z"
       id="path2-3"
       style="fill:currentColor;fill-opacity:1;stroke-width:0.0357148"
       class="ColorScheme-Text" />
    <rect
       style="enable-background:new;stroke-opacity:1;stroke-dasharray:none;stroke-miterlimit:4;stroke-linejoin:round;stroke-linecap:round;stroke-width:1.49069;stroke:none;fill-opacity:1;fill:currentColor;display:inline;"
       width="6.666666"
       height="1.333334"
       x="9.6666698"
       y="14.999988"
       ry="0.66666698"
       id="path4186-7-3-3-7-6"
       inkscape:label="path18"
       class="ColorScheme-Text" />
    <path
       sodipodi:nodetypes="ccc"
       inkscape:connector-curvature="0"
       id="path3842-7"
       d="m 6.7993478,8.799341 3.0679721,3.06798 -3.0679733,3.067961"
       style="stroke-opacity:1;stroke-dasharray:none;stroke-miterlimit:4;stroke-linejoin:miter;stroke-linecap:round;stroke-width:1.73548;stroke:currentColor;fill:none;"
       class="ColorScheme-Text" />
  </g>
</svg>
