<?xml version="1.0" encoding="UTF-8" standalone="no"?>
<svg
   width="32"
   height="32"
   version="1.1"
   id="svg12"
   sodipodi:docname="video.svg"
   inkscape:version="1.1.2 (0a00cf5339, 2022-02-04)"
   xmlns:inkscape="http://www.inkscape.org/namespaces/inkscape"
   xmlns:sodipodi="http://sodipodi.sourceforge.net/DTD/sodipodi-0.dtd"
   xmlns="http://www.w3.org/2000/svg"
   xmlns:svg="http://www.w3.org/2000/svg"
   xmlns:rdf="http://www.w3.org/1999/02/22-rdf-syntax-ns#"
   xmlns:cc="http://creativecommons.org/ns#"
   xmlns:dc="http://purl.org/dc/elements/1.1/">
  <style
     id="current-color-scheme"
     type="text/css">.ColorScheme-Text { color:#eff0f1; }
</style>
  <g
     id="22-22-video-display-brightness"
     transform="translate(32,10.000003)">
    <rect
       style="opacity:0.00100002"
       width="22"
       height="22"
       x="0"
       y="-1.3897704e-07"
       id="rect2" />
    <path
       d="m 12.882774,7.817262 a 0.45448215,0.45448215 0 0 1 0,-0.536469 L 13.28764,6.730139 A 0.45448215,0.45448215 0 0 0 12.871632,6.009445 l -0.678184,0.07394 A 0.45448215,0.45448215 0 0 1 11.726829,5.813126 L 11.45151,5.188593 a 0.45448215,0.45448215 0 0 0 -0.83204,0 L 10.34415,5.813126 A 0.45448215,0.45448215 0 0 1 9.879531,6.081363 L 9.201354,6.007413 A 0.45448215,0.45448215 0 0 0 8.78534,6.728105 l 0.40489,0.550649 a 0.45448215,0.45448215 0 0 1 0,0.53647 L 8.78534,8.365863 a 0.45448215,0.45448215 0 0 0 0.416014,0.720694 l 0.678177,-0.07385 a 0.45448215,0.45448215 0 0 1 0.464619,0.268237 l 0.27532,0.624533 a 0.45448215,0.45448215 0 0 0 0.83204,0 l 0.275319,-0.624533 a 0.45448215,0.45448215 0 0 1 0.464593,-0.268237 l 0.678184,0.07385 A 0.45448215,0.45448215 0 0 0 13.285614,8.365863 Z M 11.037502,8.721167 A 1.1721389,1.1721389 0 1 1 12.206616,7.549019 1.1721389,1.1721389 0 0 1 11.037502,8.721167 Z M 12.301763,5.711857 11.983916,5.528647 12.360478,4.874769 12.6783,5.057975 Z M 8.821772,7.341525 v 0.366417 l -0.7551,-0.0063 V 7.33514 Z m 4.42741,0.42513 0.0056,-0.366434 0.75511,0.01257 -0.0056,0.366421 z M 10.111328,5.524595 9.791474,5.704783 9.417976,5.046834 9.737824,4.866667 Z M 9.755043,9.362899 10.071851,9.549153 9.689237,10.2 9.373442,10.013755 Z m 2.275452,0.171069 0.313777,-0.190294 0.39173,0.644765 -0.313802,0.190299 z"
       id="path4-3"
       style="stroke-width:0.101223;fill-opacity:1;fill:#00adcf" />
    <path
       d="m 17.000008,11.5 c 0,0.276133 -0.223866,0.5 -0.5,0.5 -0.276134,0 -0.5,-0.223867 -0.5,-0.5 0,-0.276134 0.223866,-0.5 0.5,-0.5 0.276134,0 0.5,0.223866 0.5,0.5 z m 0,4.5 h -2.5 c -0.276134,0 -0.5,-0.223866 -0.5,-0.5 0,-0.276134 0.223866,-0.5 0.5,-0.5 h 2.5 c 0.552268,0 1,-0.447733 1,-1 V 5 c 0,-0.552262 -0.447732,-1 -1,-1 h -12 c -0.552247,0 -1,0.447738 -1,1 V 9.24998 9.525619 10.5 c 0,0.276133 0.223875,0.5 0.5,0.5 h 0.974346 0.275654 8.75 c 0.276134,0 0.5,0.223866 0.5,0.5 0,0.276133 -0.223866,0.5 -0.5,0.5 h -10.25 C 3.64551,12 3.141478,11.570562 3.02551,11 H 3 V 5 C 3,3.895501 3.895501,3 5,3 h 12.000001 c 1.104494,0 2,0.895501 2,2 v 9 c 0,1.104495 -0.895506,2 -2,2 z m -5.999725,1.21e-4 z M 3.500008,13 c 0.276126,0 0.5,0.223866 0.5,0.5 V 14 c 0,0.552267 0.447753,1 1,1 h 7 c 0.552268,0 1,0.447733 1,1 0,1.104495 0.989258,2 1.5,2 0.276134,0 0.5,0.223866 0.5,0.5 0,0.276134 -0.223866,0.5 -0.5,0.5 h -7 c -0.276133,0 -0.5,-0.223866 -0.5,-0.5 0,-0.276134 0.223867,-0.5 0.5,-0.5 C 7.78749,18 8.246594,17.696023 8.581313,17.227301 8.671043,17.090358 8.82448,17 9.000008,17 c 0.276134,0 0.5,0.223866 0.5,0.5 0,0.01759 -0.0025,0.03404 -0.0039,0.0511 0.0034,0.04917 -0.01297,0.108629 -0.05405,0.180157 -0.01013,0.01926 -0.02057,0.03852 -0.03313,0.05633 -6.25e-4,4.68e-4 -6.25e-4,0.0013 -8e-4,0.0016 -0.05161,0.07332 -0.108031,0.142095 -0.164188,0.21022 h 3.497564 c -0.0055,-0.0092 -0.01572,-0.01722 -0.02313,-0.02677 -9.33e-4,-9.34e-4 -0.0013,-0.0018 -0.002,-0.0025 -0.04491,-0.05577 -0.08643,-0.113077 -0.127936,-0.172158 -0.0013,-0.0022 -0.0035,-0.0044 -0.0047,-0.0086 -0.168067,-0.242689 -0.308692,-0.513189 -0.409755,-0.804692 -0.0737,-0.21412 -0.125498,-0.439686 -0.151627,-0.672597 5.02e-4,0.0021 0,0.0046 5.02e-4,0.0092 -0.02617,-0.181966 -0.18258,-0.321122 -0.371046,-0.321122 H 11.000287 5.000284 c -1.104501,0 -2,-0.895498 -2,-2 v -0.500154 c -2.72e-4,-0.276141 0.223603,-0.500007 0.499728,-0.500007 z"
       id="path2-6"
       style="stroke-width:0.0312495;fill-opacity:1;fill:currentColor;"
       sodipodi:nodetypes="ssssscsssssssssccssccssssccssssssccccccsssssssssssscsscccccccccccccscsscs"
       class="ColorScheme-Text" />
  </g>
  <metadata
     id="metadata18">
    <rdf:RDF>
      <cc:Work
         rdf:about="">
        <dc:format>image/svg+xml</dc:format>
        <dc:type
           rdf:resource="http://purl.org/dc/dcmitype/StillImage" />
      </cc:Work>
    </rdf:RDF>
  </metadata>
  <defs
     id="defs16" />
  <sodipodi:namedview
     pagecolor="#ffffff"
     bordercolor="#000000"
     borderopacity="1"
     objecttolerance="10"
     gridtolerance="10"
     guidetolerance="10"
     inkscape:pageopacity="0"
     inkscape:pageshadow="2"
     inkscape:window-width="1920"
     inkscape:window-height="1011"
     id="namedview14"
     showgrid="false"
     inkscape:zoom="6.9384855"
     inkscape:cx="28.176178"
     inkscape:cy="21.546489"
     inkscape:window-x="0"
     inkscape:window-y="0"
     inkscape:window-maximized="1"
     inkscape:current-layer="svg12"
     inkscape:document-rotation="0"
     inkscape:lockguides="true"
     inkscape:showpageshadow="false"
     inkscape:pagecheckerboard="0">
    <inkscape:grid
       type="xygrid"
       id="grid988"
       originx="0"
       originy="-1.3897704e-07" />
  </sodipodi:namedview>
  <g
     id="video-display-brightness">
    <rect
       style="opacity:0.00100002"
       width="32"
       height="32"
       x="0"
       y="1.3897704e-07"
       id="rect7" />
    <path
       d="m 18.824153,11.225893 a 0.68172323,0.68172323 0 0 1 0,-0.804703 L 19.431451,9.595208 A 0.68172323,0.68172323 0 0 0 18.80744,8.514168 L 17.790163,8.625084 A 0.68172323,0.68172323 0 0 1 17.090235,8.219695 l -0.412979,-0.9368 a 0.68172323,0.68172323 0 0 0 -1.24806,0 l -0.412979,0.9368 A 0.68172323,0.68172323 0 0 1 14.319288,8.622051 L 13.302023,8.511122 a 0.68172323,0.68172323 0 0 0 -0.624022,1.081039 l 0.607336,0.825973 a 0.68172323,0.68172323 0 0 1 0,0.804705 l -0.607336,0.825959 a 0.68172323,0.68172323 0 0 0 0.624022,1.08104 l 1.017265,-0.11078 a 0.68172323,0.68172323 0 0 1 0.696929,0.402355 l 0.412979,0.9368 a 0.68172323,0.68172323 0 0 0 1.24806,0 l 0.412979,-0.9368 a 0.68172323,0.68172323 0 0 1 0.69689,-0.402355 l 1.017276,0.11078 a 0.68172323,0.68172323 0 0 0 0.624011,-1.08104 z m -2.767908,1.355857 a 1.7582083,1.7582083 0 1 1 1.75367,-1.758222 1.7582083,1.7582083 0 0 1 -1.75367,1.758222 z M 17.952636,8.067785 17.475865,7.79297 18.040708,6.812154 18.517441,7.086962 Z m -5.219987,2.444503 v 0.549625 L 11.6,11.052426 v -0.549752 z m 6.641115,0.637694 0.0084,-0.54965 1.132666,0.01885 -0.0084,0.549632 z M 14.666984,7.786892 14.187203,8.057174 13.626956,7.070251 14.106727,6.8 Z M 14.132556,13.544348 14.607768,13.82373 14.033847,14.8 13.560154,14.520633 Z m 3.413178,0.256604 0.470665,-0.285441 0.587596,0.967147 -0.470703,0.285449 z"
       id="path4"
       style="stroke-width:0.151834;fill-opacity:1;fill:#00adcf" />
    <path
       d="m 25.000004,16.75 c 0,0.4142 -0.335799,0.75 -0.75,0.75 -0.414201,0 -0.75,-0.3358 -0.75,-0.75 0,-0.414201 0.335799,-0.75 0.75,-0.75 0.414201,0 0.75,0.335799 0.75,0.75 z m 0,6.75 h -3.75 c -0.414201,0 -0.75,-0.335799 -0.75,-0.75 0,-0.414201 0.335799,-0.75 0.75,-0.75 h 3.75 c 0.828401,0 1.5,-0.671599 1.5,-1.5 V 7 c 0,-0.828393 -0.671599,-1.5 -1.5,-1.5 h -18 c -0.828371,0 -1.5,0.671607 -1.5,1.5 V 13.37497 13.788428 15.25 c 0,0.4142 0.335812,0.75 0.75,0.75 h 1.461519 0.413481 13.125 c 0.414201,0 0.75,0.335799 0.75,0.75 0,0.4142 -0.335799,0.75 -0.75,0.75 h -15.375 C 4.968256,17.5 4.212208,16.855843 4.038256,16 H 4 V 7 C 4,5.343251 5.343251,4 7,4 h 18.000001 c 1.656742,0 3,1.343251 3,3 v 13.5 c 0,1.656743 -1.343258,3 -3,3 z m -8.999588,1.82e-4 z M 4.750004,19 c 0.414189,0 0.75,0.335799 0.75,0.75 v 0.75 c 0,0.828401 0.671629,1.5 1.5,1.5 h 10.5 c 0.828401,0 1.5,0.671599 1.5,1.5 0,1.656743 1.483886,3 2.25,3 0.414201,0 0.75,0.335799 0.75,0.75 0,0.414201 -0.335799,0.75 -0.75,0.75 h -10.5 c -0.4142,0 -0.75,-0.335799 -0.75,-0.75 0,-0.414201 0.3358,-0.75 0.75,-0.75 0.431222,0 1.119878,-0.455965 1.621957,-1.159049 C 12.506554,25.135537 12.736712,25 13.000004,25 c 0.414201,0 0.75,0.335799 0.75,0.75 0,0.02639 -0.0038,0.05106 -0.0058,0.07665 0.0051,0.07376 -0.01946,0.162943 -0.08108,0.270236 -0.0152,0.02889 -0.03086,0.05778 -0.04969,0.08449 -9.37e-4,7.01e-4 -9.37e-4,0.0019 -0.0012,0.0024 -0.07742,0.109972 -0.162046,0.213142 -0.246282,0.315329 h 5.246346 c -0.0082,-0.01376 -0.02358,-0.02583 -0.0347,-0.04015 -0.0014,-0.0014 -0.0019,-0.0027 -0.003,-0.0038 -0.06736,-0.08365 -0.129652,-0.169615 -0.191905,-0.258236 -0.0019,-0.0033 -0.0052,-0.0066 -0.0071,-0.01292 -0.252101,-0.364034 -0.463038,-0.769784 -0.614633,-1.207038 -0.110543,-0.321181 -0.188247,-0.659529 -0.22744,-1.008896 7.53e-4,0.0031 0,0.0069 7.53e-4,0.0138 -0.03925,-0.272949 -0.27387,-0.481683 -0.556569,-0.481683 H 16.000416 7.0004114 c -1.6567509,0 -3,-1.343247 -3,-3 V 19.750011 C 4.000004,19.335799 4.335816,19 4.750004,19 Z"
       id="path2"
       style="stroke-width:0.0468742;fill-opacity:1;fill:currentColor;"
       sodipodi:nodetypes="ssssscsssssssssccssccssssccssssssccccccsssssssssssscsscccccccccccccscsscs"
       class="ColorScheme-Text" />
  </g>
</svg>
