<?xml version="1.0" encoding="UTF-8" standalone="no"?>
<svg
   version="1.1"
   id="svg2"
   viewBox="0 0 22 22"
   sodipodi:docname="video-card.svg"
   inkscape:version="1.1.2 (0a00cf5339, 2022-02-04)"
   xmlns:inkscape="http://www.inkscape.org/namespaces/inkscape"
   xmlns:sodipodi="http://sodipodi.sourceforge.net/DTD/sodipodi-0.dtd"
   xmlns="http://www.w3.org/2000/svg"
   xmlns:svg="http://www.w3.org/2000/svg"
   xmlns:rdf="http://www.w3.org/1999/02/22-rdf-syntax-ns#"
   xmlns:cc="http://creativecommons.org/ns#"
   xmlns:dc="http://purl.org/dc/elements/1.1/">
  <sodipodi:namedview
     pagecolor="#ffffff"
     bordercolor="#000000"
     borderopacity="1"
     objecttolerance="10"
     gridtolerance="10"
     guidetolerance="10"
     inkscape:pageopacity="0"
     inkscape:pageshadow="2"
     inkscape:window-width="1920"
     inkscape:window-height="1013"
     id="namedview10"
     showgrid="false"
     inkscape:zoom="14.272728"
     inkscape:cx="10.544585"
     inkscape:cy="10.299363"
     inkscape:window-x="0"
     inkscape:window-y="0"
     inkscape:window-maximized="1"
     inkscape:current-layer="22-22-video-card-inactive"
     inkscape:document-rotation="0"
     inkscape:showpageshadow="false"
     inkscape:lockguides="true"
     inkscape:pagecheckerboard="0">
    <inkscape:grid
       type="xygrid"
       id="grid877" />
  </sodipodi:namedview>
  <metadata
     id="metadata12">
    <rdf:RDF>
      <cc:Work
         rdf:about="">
        <dc:format>image/svg+xml</dc:format>
        <dc:type
           rdf:resource="http://purl.org/dc/dcmitype/StillImage" />
      </cc:Work>
    </rdf:RDF>
  </metadata>
  <defs
     id="defs3051">
    <style
       type="text/css"
       id="current-color-scheme" />
  </defs>
  <g
     id="g9268">
    <g
       id="g848">
      <g
         id="22-22-video-card-inactive">
        <path
           id="path7"
           style="fill:none"
           d="M 0,0 V 22 H 22 V 0 Z" />
        <path
           d="M 19.749453,12.25 C 20.440352,12.25 21,12.80938 21,13.50031 v 1.24938 C 21,16.13094 19.880703,17.25 18.500156,17.25 h -0.625273 c -0.345469,0 -0.625,-0.27953 -0.625,-0.625 0,-0.34484 0.279531,-0.625 0.625,-0.625 h 0.625273 c 0.690274,0 1.249297,-0.55906 1.249297,-1.25031 v -0.95641 c 0,-0.15226 -0.108633,-0.27742 -0.253281,-0.30547 C 18.234336,13.36086 17.249883,12.2952 17.249883,11 c 0,-1.295 0.984453,-2.360859 2.246289,-2.487656 0.144648,-0.02809 0.253281,-0.153516 0.253281,-0.305625 V 7.250313 c 0,-0.690313 -0.559062,-1.250157 -1.249297,-1.250157 h -2.031484 c -0.25875,0 -0.468711,0.209492 -0.468711,0.46875 v 0.15625 c 0,0.344844 -0.279492,0.625157 -0.624961,0.625157 -0.344844,0 -0.624961,-0.280313 -0.624961,-0.625157 v -0.3125 C 14.750039,5.449297 15.449453,4.75 16.312461,4.75 h 2.187695 C 19.880703,4.75 21,5.869062 21,7.250313 v 1.249374 c 0,0.690933 -0.559648,1.250153 -1.250547,1.250153 -0.690273,0 -1.249297,0.55985 -1.249297,1.25016 0,0.69031 0.559024,1.25 1.249297,1.25 z M 15.375,9.74984 c -0.344844,0 -0.624961,-0.27953 -0.624961,-0.625 0,-0.34484 0.280117,-0.625153 0.624961,-0.625153 0.345469,0 0.624961,0.280313 0.624961,0.625153 0,0.34547 -0.279492,0.625 -0.624961,0.625 z m 0.624961,3.12547 c 0,0.34453 -0.279492,0.625 -0.624961,0.625 -0.344844,0 -0.624961,-0.28047 -0.624961,-0.625 V 11.625 c 0,-0.34547 0.280117,-0.625 0.624961,-0.625 0.345469,0 0.624961,0.27953 0.624961,0.625 z M 14.750039,15.375 c 0,-0.34484 0.280117,-0.62531 0.624961,-0.62531 0.345469,0 0.624961,0.28047 0.624961,0.62531 v 0.3125 c 0,0.86305 -0.699414,1.5625 -1.563047,1.5625 H 3.499727 C 2.118984,17.25 1,16.13094 1,14.74969 V 13.50031 C 1,12.80938 1.559062,12.25 2.249453,12.25 2.940352,12.25 3.499727,11.69031 3.499727,11 3.499727,10.30969 2.940352,9.74984 2.249453,9.74984 1.559062,9.74984 1,9.19062 1,8.499687 V 7.250313 C 1,5.869062 2.118984,4.75 3.499727,4.75 h 9.375078 c 0.344843,0 0.624375,0.279531 0.624375,0.625 0,0.345469 -0.279532,0.625156 -0.624375,0.625156 H 3.499727 c -0.690274,0 -1.250274,0.559844 -1.250274,1.250157 v 0.956406 c 0,0.152148 0.109258,0.277539 0.254531,0.305625 C 3.765195,8.639922 4.749648,9.70496 4.749648,11 c 0,1.29516 -0.984453,2.36023 -2.245664,2.48781 -0.145273,0.0281 -0.254531,0.15321 -0.254531,0.30547 v 0.95641 c 0,0.69121 0.56,1.25031 1.250274,1.25031 h 10.780976 c 0.259375,0 0.469336,-0.20965 0.469336,-0.46875 z M 11.937383,14.74969 H 9.124727 c -0.344844,0 -0.625274,-0.27953 -0.625274,-0.625 0,-0.34485 0.28043,-0.62438 0.625274,-0.62438 h 2.500156 c 0.344844,0 0.624961,-0.28047 0.624961,-0.625 V 9.12484 c 0,-0.34484 -0.280117,-0.625152 -0.624961,-0.625152 H 7.874492 C 7.529648,8.499688 7.250117,8.78 7.250117,9.12484 v 3.75047 c 0,0.34453 -0.280273,0.625 -0.625117,0.625 -0.34543,0 -0.624961,-0.28047 -0.624961,-0.625 V 8.81219 c 0,-0.862581 0.699102,-1.561877 1.561953,-1.561877 h 4.375391 c 0.862383,0 1.561797,0.699296 1.561797,1.561877 v 4.37562 c 0,0.86274 -0.699414,1.56188 -1.561797,1.56188 z"
           id="path2"
           style="fill:#d35f5f;fill-opacity:1;stroke-width:0.0390625" />
      </g>
    </g>
  </g>
</svg>
