<?xml version="1.0" encoding="UTF-8" standalone="no"?>
<svg
   inkscape:version="1.1.2 (0a00cf5339, 2022-02-04)"
   sodipodi:docname="view.svg"
   id="svg873"
   version="1.1"
   height="32"
   width="32"
   xmlns:inkscape="http://www.inkscape.org/namespaces/inkscape"
   xmlns:sodipodi="http://sodipodi.sourceforge.net/DTD/sodipodi-0.dtd"
   xmlns="http://www.w3.org/2000/svg"
   xmlns:svg="http://www.w3.org/2000/svg"
   xmlns:rdf="http://www.w3.org/1999/02/22-rdf-syntax-ns#"
   xmlns:cc="http://creativecommons.org/ns#"
   xmlns:dc="http://purl.org/dc/elements/1.1/">
  <style
     id="current-color-scheme"
     type="text/css">.ColorScheme-Text { color:#eceff4; }
</style>
  <g
     id="view-history">
    <rect
       ry="0.91472864"
       y="0"
       x="0"
       height="32"
       width="32"
       id="rect817-5"
       style="clip-rule:evenodd;fill:#ffff96;fill-opacity:0;fill-rule:evenodd;stroke-width:1.04154;stroke-linejoin:round;stroke-miterlimit:1.41421;stroke-dasharray:none" />
    <path
       d="M 29.128354,24.254571 18.695572,28.492707 C 17.863962,28.818434 16.962325,29 16.016906,29 15.063577,29 14.153846,28.816533 13.317943,28.485042 L 2.910609,24.257944 C 1.95679,23.770702 1.3,22.784812 1.3,21.640842 V 10.359219 8.396516 c 0,-0.542307 0.440272,-0.981107 0.981107,-0.981107 0.542306,0 0.981536,0.4388 0.981536,0.981107 v 0.797639 1.165064 11.144145 c 0,0.353996 0.193523,0.65679 0.475223,0.829219 l 10.017467,4.238688 c 0.02201,0.0086 0.04072,0.01294 0.06273,0.02201 0.675431,0.285993 1.418925,0.444012 2.198844,0.444012 0.77489,0 1.513602,-0.156118 2.186151,-0.438738 0.02201,-0.0096 0.04121,-0.01435 0.06322,-0.023 l 10.028442,-4.24298 c 0.281701,-0.172429 0.476205,-0.475223 0.476205,-0.829219 v -7.22027 -1.165064 -0.79764 c 0,-0.541325 0.439781,-0.980125 0.981107,-0.980125 0.542306,0 0.981106,0.4388 0.981106,0.980125 v 1.962643 7.357748 c 6.2e-5,1.14213 -0.654336,2.124218 -1.604783,2.61379 z M 29.752092,9.378113 c -0.541326,0 -0.981107,-0.440272 -0.981107,-0.981597 0,-0.542307 0.439781,-0.981107 0.981107,-0.981107 0.542307,0 0.981107,0.4388 0.981107,0.981107 0,0.541325 -0.4388,0.981597 -0.981107,0.981597 z m -4.74641,12.034192 -4.627696,1.928181 v -0.0014 c -0.12552,0.05654 -0.264408,0.08818 -0.410102,0.08818 -0.555675,0 -1.007903,-0.450818 -1.007903,-1.007474 0,-0.431135 0.271153,-0.795248 0.651516,-0.94039 l 4.713849,-2.062777 c 0.305615,-0.164826 0.521213,-0.482889 0.521213,-0.857058 V 5.713802 c 0,-0.270663 -0.2194,-0.490553 -0.490553,-0.490553 -0.07089,0 -0.13895,0.01533 -0.201189,0.04262 V 5.264888 L 17.519961,8.168902 C 17.211465,8.333728 16.998748,8.65179 16.998748,9.024488 v 11.635189 1.962213 c 0,1.083632 -0.879316,1.962704 -1.962949,1.962704 -0.271644,0 -0.528877,-0.05506 -0.764588,-0.155199 L 7.022243,21.408994 C 5.964978,20.961058 5.224856,19.91624 5.224856,18.698564 V 4.962642 C 5.224856,3.87901 6.103927,3 7.187069,3 7.454359,3 7.707301,3.05414 7.94062,3.151826 l 4.502605,1.875508 c 0.369816,0.155199 0.630422,0.521213 0.630422,0.947075 0,0.567693 -0.459893,1.027525 -1.026605,1.027525 -0.17151,0 -0.331001,-0.04648 -0.472832,-0.120247 L 7.879301,5.264885 c -0.0014,0 0,9.81e-4 -0.0014,9.81e-4 -0.06132,-0.02729 -0.128402,-0.04262 -0.199778,-0.04262 -0.272134,0 -0.491044,0.21989 -0.491044,0.490553 v 12.845813 c 0,0.37417 0.214617,0.692232 0.521704,0.857058 l 6.635346,2.903033 c 9.81e-4,0 0,-9.81e-4 9.81e-4,-9.81e-4 0.06034,0.02729 0.128893,0.04262 0.200269,0.04262 0.270662,0 0.490553,-0.218909 0.490553,-0.490553 V 9.378113 8.887069 c 0,-1.2197 0.741594,-2.266847 1.800024,-2.712392 L 24.09265,3.151826 C 24.326398,3.054146 24.579401,3 24.846692,3 c 1.083632,0 1.963194,0.87901 1.963194,1.962642 v 13.735861 c -6.1e-5,1.219638 -0.745518,2.266847 -1.804194,2.713802 z"
       id="path2"
       style="fill:currentColor;fill-opacity:1;stroke-width:0.0613192"
       class="ColorScheme-Text" />
  </g>
  <metadata
     id="metadata879">
    <rdf:RDF>
      <cc:Work
         rdf:about="">
        <dc:format>image/svg+xml</dc:format>
        <dc:type
           rdf:resource="http://purl.org/dc/dcmitype/StillImage" />
      </cc:Work>
    </rdf:RDF>
  </metadata>
  <defs
     id="defs877">
    <linearGradient
       id="_lgradient_0"
       x1="0"
       y1="0.5"
       x2="1"
       y2="0.5"
       gradientTransform="matrix(27.999994,0,0,27.999998,1.9766191,1.9139856)"
       gradientUnits="userSpaceOnUse">
      <stop
         offset="0%"
         stop-opacity="1"
         style="stop-color:rgb(105,227,255)"
         id="stop33" />
      <stop
         offset="100%"
         stop-opacity="1"
         style="stop-color:rgb(0,255,194)"
         id="stop35" />
    </linearGradient>
  </defs>
  <sodipodi:namedview
     inkscape:current-layer="svg873"
     inkscape:window-maximized="1"
     inkscape:window-y="0"
     inkscape:window-x="0"
     inkscape:cy="19.757943"
     inkscape:cx="25.422491"
     inkscape:zoom="11.033537"
     showgrid="false"
     id="namedview875"
     inkscape:window-height="1013"
     inkscape:window-width="1920"
     inkscape:pageshadow="2"
     inkscape:pageopacity="0"
     guidetolerance="10"
     gridtolerance="10"
     objecttolerance="10"
     borderopacity="1"
     inkscape:document-rotation="0"
     bordercolor="#666666"
     pagecolor="#ffffff"
     inkscape:pagecheckerboard="0"
     inkscape:lockguides="false">
    <inkscape:grid
       type="xygrid"
       id="grid1359"
       originx="32"
       originy="16" />
  </sodipodi:namedview>
  <g
     id="view-refresh"
     transform="translate(32,16)">
    <path
       id="path836"
       style="opacity:0.00100002"
       d="M 0,0 H 16 V 16 H 0 Z" />
    <path
       d="M 13.72873,8.85834 H 11.0177 c -0.167005,0 -0.30248,-0.135459 -0.30248,-0.302477 0,-0.167004 0.13546,-0.302476 0.30248,-0.302476 h 2.711145 c 0.0849,0 0.16473,-0.03317 0.224685,-0.09322 0.05985,-0.05984 0.09269,-0.139565 0.09269,-0.224147 l -1.1e-4,-4.597434 c 0,-0.04764 -0.0227,-0.09312 -0.06082,-0.12174 -0.0336,-0.02528 -0.06827,-0.03057 -0.09138,-0.03057 -0.03825,0 -0.07486,0.01426 -0.102945,0.03997 L 12.61709,4.302364 C 12.50507,4.405092 12.334385,4.408659 12.218045,4.310864 11.764665,3.929768 11.271125,3.603758 10.7511,3.341904 10.60192,3.266834 10.54186,3.084918 10.616935,2.935726 10.692005,2.786548 10.87392,2.726487 11.02311,2.801561 c 0.48383,0.243591 0.946285,0.538502 1.37771,0.878228 l 0.981265,-0.899604 c 0.14,-0.12833 0.32181,-0.199085 0.511815,-0.199085 0.165385,0 0.322775,0.0526 0.45499,0.151988 0.189255,0.142265 0.302145,0.368569 0.302145,0.605257 v 4.597434 c 0,0.245967 -0.09571,0.477359 -0.26941,0.651384 C 14.207385,8.762159 13.975445,8.8583 13.72875,8.8583 Z m -4.223275,0 H 9.13384 C 8.89533,8.85834 8.66774,8.744376 8.524715,8.553513 8.425445,8.420968 8.37294,8.263259 8.37294,8.097669 c 0,-0.187637 0.06892,-0.368044 0.194225,-0.507806 L 9.406925,6.65265 C 8.361365,5.82077 6.846575,5.000007 5.4671,5.000007 h -1.15e-4 c -0.38552,0 -0.743635,0.06546 -1.064445,0.194658 C 4.247635,5.256995 4.07144,5.182025 4.009025,5.027014 3.946585,4.872001 4.021675,4.695916 4.17657,4.633501 4.569555,4.475247 5.003695,4.394988 5.467005,4.394988 h 1.1e-4 c 1.65339,0 3.44593,1.030544 4.57199,1.995079 0.06179,0.05293 0.09971,0.128545 0.10511,0.209778 0.0054,0.08123 -0.02225,0.161169 -0.07659,0.221769 L 9.01764,7.993331 c -0.0256,0.02863 -0.03975,0.06568 -0.03975,0.104025 0,0.02366 0.0054,0.05898 0.0311,0.09333 0.02925,0.03922 0.07594,0.06244 0.124875,0.06244 h 0.37161 c 0.167,0 0.302475,0.135459 0.302475,0.302477 0,0.167327 -0.13546,0.30278 -0.302475,0.30278 z M 2.794995,6.451607 c -0.173265,0 -0.35734,-0.137405 -0.35734,-0.392019 0,-0.07032 0.01395,-0.147126 0.0415,-0.228467 C 2.89883,4.583246 3.61025,3.609862 4.593255,2.938817 5.49286,2.324599 6.590685,2 7.76846,2 8.358035,2 8.959285,2.08091 9.55536,2.240457 9.716745,2.283667 9.812565,2.449481 9.769355,2.610879 9.726155,2.772264 9.56044,2.868081 9.39893,2.824872 8.85385,2.678935 8.30531,2.604939 7.76844,2.604939 c -2.09466,0 -3.721915,1.065001 -4.53328,2.942358 0.01815,0.0093 0.03555,0.02053 0.05207,0.03382 0.130165,0.104782 0.15069,0.29512 0.046,0.425287 C 3.28203,6.070034 3.23169,6.137543 3.18362,6.207217 3.070955,6.369575 2.940355,6.45167 2.795055,6.45167 Z"
       id="path64"
       style="stroke-width:0.0276537;fill-opacity:1;fill:currentColor;"
       class="ColorScheme-Text" />
    <path
       d="M 8.382435,14 C 7.79297,14 7.191805,13.91909 6.595865,13.75965 6.43448,13.71644 6.338665,13.550626 6.38187,13.389228 c 0.0432,-0.161385 0.209025,-0.257202 0.370425,-0.213885 0.54497,0.145829 1.0934,0.219825 1.63016,0.219825 2.09455,0 3.72164,-1.064669 4.533275,-2.941805 -0.01805,-0.0093 -0.03545,-0.02052 -0.05195,-0.0337 -0.13006,-0.104783 -0.150585,-0.295231 -0.0457,-0.425287 0.0511,-0.06352 0.101435,-0.131031 0.149615,-0.200706 0.112125,-0.162681 0.24283,-0.245211 0.38834,-0.245211 0.17316,0 0.35712,0.137406 0.35712,0.39213 0,0.06989 -0.0137,0.146371 -0.04085,0.227281 -0.420085,1.248843 -1.131535,2.222116 -2.11465,2.893411 C 10.65805,13.675276 9.56,13.999876 8.38245,13.999876 Z M 2.25713,13.418525 c -0.16538,0 -0.32266,-0.0525 -0.454875,-0.151989 C 1.613,13.124272 1.5,12.897968 1.5,12.661279 V 8.063845 C 1.5,7.817879 1.59571,7.586597 1.76941,7.412461 1.943755,7.237789 2.175585,7.141541 2.422285,7.141541 H 5.13299 c 0.167,0 0.302475,0.135459 0.302475,0.302476 0,0.167004 -0.13546,0.302477 -0.302475,0.302477 L 2.422285,7.746383 c -0.0849,0 -0.164735,0.03316 -0.224685,0.09322 -0.05985,0.05985 -0.09269,0.139458 -0.09269,0.224148 v 4.597433 c 0,0.04764 0.0227,0.09312 0.06082,0.12174 0.0336,0.02528 0.06827,0.03057 0.09139,0.03057 0.03825,0 0.07485,-0.01426 0.102945,-0.03997 L 3.53394,11.697406 c 0.11202,-0.102728 0.282815,-0.106295 0.39904,-0.0085 0.453275,0.381207 0.94681,0.707217 1.46684,0.968959 0.149175,0.07519 0.20924,0.256987 0.134165,0.406178 -0.07507,0.149178 -0.25699,0.20924 -0.40618,0.134166 -0.48383,-0.243591 -0.94617,-0.538502 -1.3776,-0.878228 L 2.76905,13.219479 c -0.140105,0.128438 -0.321805,0.199085 -0.511925,0.199085 z m 8.4272,-1.813588 c -1.654135,0 -3.446485,-1.030655 -4.572265,-1.995273 -0.06179,-0.05293 -0.09971,-0.128545 -0.105,-0.209779 -0.0054,-0.08123 0.02225,-0.161168 0.07648,-0.221769 L 7.13342,8.0064 c 0.0257,-0.02863 0.03975,-0.06557 0.03975,-0.104133 0,-0.02366 -0.0054,-0.05898 -0.0311,-0.09333 -0.0293,-0.0391 -0.07594,-0.06244 -0.124765,-0.06244 H 6.6455 c -0.167005,0 -0.302475,-0.135459 -0.302475,-0.302476 0,-0.167004 0.135455,-0.302477 0.302475,-0.302477 h 0.372025 c 0.238515,0 0.466105,0.113964 0.60902,0.304827 0.09927,0.132652 0.15177,0.290254 0.15177,0.455845 0,0.187636 -0.06892,0.368043 -0.19422,0.507805 L 6.74433,9.347234 c 1.04523,0.83199 2.55991,1.652753 3.940105,1.652753 0.38533,0 0.743415,-0.06535 1.064115,-0.194439 0.154905,-0.06233 0.3311,0.01275 0.393515,0.167759 0.06233,0.155013 -0.01275,0.331209 -0.16776,0.393513 -0.392875,0.157927 -0.82679,0.238082 -1.289905,0.238082 z"
       id="path66"
       style="stroke-width:0.0276537;fill-opacity:1;fill:currentColor;"
       class="ColorScheme-Text" />
  </g>
</svg>
