<?xml version="1.0" encoding="UTF-8" standalone="no"?>
<svg
   width="32"
   height="32"
   version="1.1"
   id="svg12"
   sodipodi:docname="vlc.svg"
   inkscape:version="1.1.2 (0a00cf5339, 2022-02-04)"
   xmlns:inkscape="http://www.inkscape.org/namespaces/inkscape"
   xmlns:sodipodi="http://sodipodi.sourceforge.net/DTD/sodipodi-0.dtd"
   xmlns="http://www.w3.org/2000/svg"
   xmlns:svg="http://www.w3.org/2000/svg"
   xmlns:rdf="http://www.w3.org/1999/02/22-rdf-syntax-ns#"
   xmlns:cc="http://creativecommons.org/ns#"
   xmlns:dc="http://purl.org/dc/elements/1.1/">
  <style
     id="current-color-scheme"
     type="text/css">.ColorScheme-Text { color:#eceff4; }
</style>
  <metadata
     id="metadata18">
    <rdf:RDF>
      <cc:Work
         rdf:about="">
        <dc:format>image/svg+xml</dc:format>
        <dc:type
           rdf:resource="http://purl.org/dc/dcmitype/StillImage" />
      </cc:Work>
    </rdf:RDF>
  </metadata>
  <defs
     id="defs16" />
  <sodipodi:namedview
     pagecolor="#ffffff"
     bordercolor="#000000"
     borderopacity="1"
     objecttolerance="10"
     gridtolerance="10"
     guidetolerance="10"
     inkscape:pageopacity="0"
     inkscape:pageshadow="2"
     inkscape:window-width="1920"
     inkscape:window-height="1013"
     id="namedview14"
     showgrid="false"
     inkscape:zoom="9.8125003"
     inkscape:cx="36.636942"
     inkscape:cy="13.452229"
     inkscape:window-x="0"
     inkscape:window-y="0"
     inkscape:window-maximized="1"
     inkscape:current-layer="svg12"
     inkscape:lockguides="true"
     inkscape:document-rotation="0"
     inkscape:showpageshadow="false"
     inkscape:pagecheckerboard="0">
    <inkscape:grid
       type="xygrid"
       id="grid868"
       originx="0"
       originy="0" />
  </sodipodi:namedview>
  <g
     id="vlc">
    <rect
       style="opacity:0.00100002"
       width="32"
       height="32"
       x="0"
       y="0"
       id="rect7" />
    <path
       d="M 23.520334,19.770853 19.240159,6.9048497 C 18.654182,5.1214433 17.303889,4.0259221 15.800732,4.0004449 14.297575,3.9749677 12.947282,5.0450115 12.233919,6.8538952 v 0.050954 L 7.9027893,19.923717 C 4.4888398,20.993761 3.75,22.420486 3.75,23.439575 c 0,0.968135 0.6624081,2.343906 3.8725397,3.41395 C 9.8645364,27.592365 12.819896,28 15.979073,28 c 3.159177,0 6.114536,-0.407635 8.356533,-1.171953 3.210131,-1.070043 3.87254,-2.471291 3.87254,-3.413949 0,-1.503157 -1.656021,-2.802496 -4.687812,-3.643245 z M 11.647943,13.503454 a 18.470995,18.470995 0 0 0 4.101835,0.535022 16.906693,16.906693 0 0 0 4.076357,-0.5605 l 0.662408,2.038179 A 16.896502,16.896502 0 0 1 15.7243,16.305949 15.821363,15.821363 0 0 1 10.960058,15.516155 Z m 2.012701,-6.1145368 c 0.458591,-1.1974301 1.273862,-1.8853154 2.114611,-1.8598382 0.840749,0.025477 1.630543,0.7388398 2.012701,1.8598382 l 1.554112,4.6368568 A 15.660856,15.660856 0 0 1 15.7243,12.509841 17.367831,17.367831 0 0 1 12.106533,12.051251 Z M 10.47599,16.993835 a 17.556363,17.556363 0 0 0 5.24831,0.866226 18.949967,18.949967 0 0 0 5.248311,-0.866226 l 1.044566,3.108222 c -1.146475,0.458591 -3.694199,1.324817 -6.292877,1.324817 -2.700586,0 -5.171878,-0.866226 -6.2928766,-1.324817 z m 5.503083,9.503008 c -6.5221724,0 -10.7004389,-1.808883 -10.7004389,-3.057268 0,-0.560499 0.9936122,-1.426725 3.2356088,-2.089133 a 18.886274,18.886274 0 0 0 7.2355351,1.579589 c 3.464904,0 6.72599,-1.375771 7.439352,-1.681498 2.420338,0.687885 3.541336,1.579589 3.541336,2.191042 -0.05095,1.248385 -4.229221,3.057268 -10.751393,3.057268 z"
       id="path4"
       style="stroke-width:0.254772;fill-opacity:1;fill:currentColor;"
       class="ColorScheme-Text" />
    <path
       d="m 14.049074,24 a 0.65015694,0.75000104 0 0 0 0,1.5 h 0.650159 a 0.65015694,0.75000104 0 0 0 0,-1.5 z"
       id="path6"
       style="fill:#ff7f2a;fill-opacity:1;stroke-width:0.698296" />
    <path
       d="m 17.299859,24 a 0.65015694,0.75000104 0 0 0 0,1.5 h 0.650155 a 0.65015694,0.75000104 0 0 0 0,-1.5 z"
       id="path8"
       style="fill:#ff7f2a;fill-opacity:1;stroke-width:0.698296" />
  </g>
  <g
     id="22-22-vlc"
     transform="translate(32,10)">
    <rect
       style="opacity:0.00100002"
       width="22"
       height="22"
       x="0"
       y="0"
       id="rect2" />
    <path
       d="M 15.933333,13.513902 13.133334,4.9365668 C 12.75,3.7476288 11.866665,3.0172808 10.883332,3.0002968 c -0.9833321,-0.01699 -1.8666658,0.696378 -2.3333324,1.9023 v 0.03397 L 5.7166663,13.615813 C 3.4833335,14.329174 3,15.280324 3,15.959717 3,16.60514 3.433333,17.522321 5.5333331,18.235683 6.9999993,18.728243 8.933333,19 11,19 13.066665,19 15,18.728243 16.466666,18.218698 18.566665,17.505336 19,16.571171 19,15.942732 19,14.940627 17.916667,14.074401 15.933333,13.513902 Z M 8.1666662,9.3356358 A 12.083333,12.313997 0 0 0 10.85,9.6923168 11.06,11.271129 0 0 0 13.516667,9.3186508 L 13.95,10.677437 a 11.053334,11.264335 0 0 1 -3.116666,0.526529 10.35,10.547575 0 0 1 -3.1166676,-0.526529 z m 1.3166667,-4.076358 c 0.3000001,-0.798287 0.8333341,-1.256877 1.3833331,-1.239892 0.550001,0.01699 1.066667,0.49256 1.316666,1.239892 L 13.2,8.3505158 A 10.245,10.440571 0 0 1 10.833334,8.6732268 11.361667,11.578554 0 0 1 8.4666664,8.3675008 Z M 7.3999995,11.662557 a 11.485,11.704242 0 0 0 3.4333345,0.577484 12.396666,12.633311 0 0 0 3.433332,-0.577484 L 14.95,13.734705 c -0.750001,0.305727 -2.416666,0.883211 -4.116666,0.883211 -1.7666673,0 -3.383334,-0.577484 -4.1166682,-0.883211 z M 11,17.997895 c -4.2666662,0 -7.0000004,-1.205922 -7.0000004,-2.038178 0,-0.373666 0.6499999,-0.95115 2.1166669,-1.392756 A 12.354998,12.590849 0 0 0 10.85,15.620021 c 2.266667,0 4.4,-0.917181 4.866666,-1.120999 1.583334,0.45859 2.316668,1.053059 2.316668,1.460695 C 18.000004,16.791973 15.266666,17.997895 11,17.997895 Z"
       id="path4-3"
       style="stroke-width:0.16825;fill-opacity:1;fill:currentColor;"
       class="ColorScheme-Text" />
    <path
       d="m 9.7374351,16.333333 a 0.42531887,0.50000069 0 0 0 0,1 h 0.4253219 a 0.42531887,0.50000069 0 0 0 0,-1 z"
       id="path6-6"
       style="fill:#ff7f2a;fill-opacity:1;stroke-width:0.46115" />
    <path
       d="m 11.86403,16.333333 a 0.42531887,0.50000069 0 0 0 0,1 h 0.425318 a 0.42531887,0.50000069 0 0 0 0,-1 z"
       id="path8-7"
       style="fill:#ff7f2a;fill-opacity:1;stroke-width:0.46115" />
  </g>
</svg>
