<?xml version="1.0" encoding="UTF-8" standalone="no"?>
<svg
   width="32"
   height="32"
   version="1.1"
   id="svg22"
   sodipodi:docname="wallet.svg"
   inkscape:version="1.1.2 (0a00cf5339, 2022-02-04)"
   xmlns:inkscape="http://www.inkscape.org/namespaces/inkscape"
   xmlns:sodipodi="http://sodipodi.sourceforge.net/DTD/sodipodi-0.dtd"
   xmlns="http://www.w3.org/2000/svg"
   xmlns:svg="http://www.w3.org/2000/svg"
   xmlns:rdf="http://www.w3.org/1999/02/22-rdf-syntax-ns#"
   xmlns:cc="http://creativecommons.org/ns#"
   xmlns:dc="http://purl.org/dc/elements/1.1/">
  <style
     id="current-color-scheme"
     type="text/css">.ColorScheme-Text { color:#eff0f1; }
</style>
  <g
     id="wallet-closed">
    <rect
       style="opacity:0.00100002"
       width="32"
       height="32"
       x="32.09"
       y="0"
       id="rect12-5" />
    <path
       d="m 63.088402,19.99878 c -0.552216,0 -1.000435,-0.448214 -1.000435,-0.999944 0,-0.551729 0.448219,-0.999904 1.000435,-0.999904 0.551213,0 0.999431,0.448175 0.999431,0.999904 0,0.55173 -0.448218,0.999944 -0.999431,0.999944 z m -3.000298,7.999499 H 36.089978 C 33.880192,27.998279 32.09,26.207433 32.09,23.99857 v -7.516205 c 0,-1.379842 1.119049,-2.498873 2.499581,-2.498873 0.625957,0 1.183544,0.248986 1.636826,0.610339 0.01293,0.01333 0.01688,0.008 0.02713,0.01333 1.039243,0.869085 2.374589,1.392388 3.836427,1.392388 h 3.999729 0.184301 0.06572 c 0.865439,0 1.629011,0.440522 2.076983,1.110472 0.01173,0.01347 0.02207,0.02 0.03372,0.03186 0.3606,0.517518 0.959436,0.859272 1.638075,0.859272 0.679645,0 1.27873,-0.341754 1.639084,-0.859272 0.012,-0.01333 0.02339,-0.01587 0.03372,-0.03186 0.44821,-0.670002 1.211847,-1.110497 2.076977,-1.110497 h 0.06593 0.184056 3.999727 c 2.928489,0 5.363885,-2.099416 5.890727,-4.87486 0.06549,-0.197322 0.109274,-0.404831 0.109274,-0.623445 v -2.50091 c 0,-1.1039838 -0.89494,-1.9989243 -1.99986,-1.9989243 h -8.499444 -6.999274 -8.499426 c -1.104925,0 -1.999864,0.8949405 -1.999864,1.9989243 v 3.000294 c 0,0.552676 -0.44822,0.999492 -1.000682,0.999492 C 32.53822,11.998495 32.09,11.551843 32.09,10.999141 V 7.998786 C 32.09,5.7899369 33.880192,4 36.089978,4 h 4.499446 1.550644 2.949052 0.499465 5.000658 0.499467 2.94905 1.550651 4.499693 c 2.208349,0 3.999729,1.7899369 3.999729,3.998786 v 1.999849 c 0,2.028275 -0.759699,3.873571 -2.003741,5.283624 -0.177736,0.202097 -0.367161,0.395406 -0.563899,0.578102 -0.012,0.01333 -0.02339,0.02 -0.03372,0.03106 -0.186485,0.169817 -0.379852,0.331009 -0.580523,0.48424 -0.02746,0.01973 -0.05409,0.0404 -0.08154,0.0604 -0.184053,0.135779 -0.372037,0.262706 -0.567838,0.381793 -0.0473,0.03093 -0.09676,0.05986 -0.146991,0.08693 -0.176237,0.10306 -0.35885,0.199202 -0.5444,0.290038 -0.06837,0.03426 -0.135242,0.066 -0.203615,0.09813 -0.184049,0.08266 -0.37447,0.157165 -0.565395,0.225521 -0.06836,0.02453 -0.132806,0.0504 -0.200674,0.07373 -0.186991,0.0608 -0.378844,0.112661 -0.571714,0.161191 -0.08259,0.01973 -0.162612,0.0452 -0.246103,0.0636 -0.202114,0.0412 -0.408158,0.07373 -0.615711,0.101861 -0.07232,0.01333 -0.141615,0.0232 -0.21486,0.0332 -0.282231,0.03106 -0.568337,0.04786 -0.859318,0.04786 h -3.53101 c -0.352974,0 -0.66301,0.183549 -0.840757,0.458934 -0.0087,0.01333 -0.02045,0.018 -0.03753,0.02186 -0.513655,0.904298 -1.475468,1.518475 -2.589703,1.518475 h -1.999865 c -1.11392,0 -2.076042,-0.614179 -2.589699,-1.518475 -0.01689,-0.0053 -0.02987,-0.01333 -0.03732,-0.02186 -0.177739,-0.275598 -0.488219,-0.459161 -0.841008,-0.459161 h -3.531125 c -1.982054,0 -3.783682,-0.7324 -5.179587,-1.925745 0.01664,0.03 0.02173,0.04346 0.0076,0.03333 -0.08737,-0.07693 -0.202111,-0.122259 -0.328353,-0.122259 -0.275606,0 -0.499465,0.22368 -0.499465,0.499037 v 7.516178 c 0,1.104471 0.894939,1.999848 1.999863,1.999848 h 23.998254 c 1.104925,0 1.999865,-0.895375 1.999865,-1.999848 v -0.999944 c 0,-0.551729 0.448219,-0.999957 1.000432,-0.999957 0.551215,0 0.999432,0.448228 0.999432,0.999957 v 0.999944 c 0,2.208805 -1.791379,3.999773 -3.999729,3.999773 z M 51.08871,4 Z"
       id="path2"
       sodipodi:nodetypes="ssssssssssccsccsccsccsccscsssccssscsssccccccccssscccccccccccccccssccssccssccsssssssssssccccccccccccc"
       style="fill:currentColor;fill-opacity:1;stroke-width:0.062496"
       class="ColorScheme-Text" />
  </g>
  <metadata
     id="metadata28">
    <rdf:RDF>
      <cc:Work
         rdf:about="">
        <dc:format>image/svg+xml</dc:format>
        <dc:type
           rdf:resource="http://purl.org/dc/dcmitype/StillImage" />
      </cc:Work>
    </rdf:RDF>
  </metadata>
  <defs
     id="defs26" />
  <sodipodi:namedview
     pagecolor="#ffffff"
     bordercolor="#000000"
     borderopacity="1"
     objecttolerance="10"
     gridtolerance="10"
     guidetolerance="10"
     inkscape:pageopacity="0"
     inkscape:pageshadow="2"
     inkscape:window-width="1920"
     inkscape:window-height="1013"
     id="namedview24"
     showgrid="false"
     inkscape:zoom="5.6568543"
     inkscape:cx="35.443727"
     inkscape:cy="4.2426406"
     inkscape:window-x="0"
     inkscape:window-y="0"
     inkscape:window-maximized="1"
     inkscape:current-layer="svg22"
     inkscape:document-rotation="0"
     inkscape:lockguides="true"
     inkscape:showpageshadow="false"
     inkscape:pagecheckerboard="0">
    <inkscape:grid
       type="xygrid"
       id="grid930"
       originx="-0.032002"
       originy="0.00168" />
  </sodipodi:namedview>
  <g
     id="g871"
     transform="translate(9.967998,-21.99832)" />
  <g
     id="wallet-open">
    <rect
       style="opacity:0.00100002"
       width="32"
       height="32"
       x="0"
       y="0"
       id="rect12-5-7" />
    <path
       d="m 31.000415,19.999836 c -0.552249,0 -1.000496,-0.448255 -1.000496,-1.00001 0,-0.551748 0.448247,-0.999991 1.000496,-0.999991 0.55125,0 0.999492,0.448243 0.999492,0.999991 0,0.551755 -0.448242,1.00001 -0.999492,1.00001 z m -3.000494,8.000045 H 4.0002442 c -2.209932,0 -4.0002400474121,-1.791008 -4.0002400474121,-4.00006 v -7.516675 c 0,-1.379866 1.1191230474121,-2.498989 2.4997420474121,-2.498989 0.625999,0 1.183625,0.248991 1.636934,0.610382 0.01292,0.008 0.01685,0.0045 0.02712,0.0093 1.03931,0.869123 2.374742,1.392562 3.836678,1.392562 l 3.6362368,0.03201 v 0 0 0 0 c 1.010138,1.073153 2.391426,1.797911 4.362747,1.968796 v 0 0 c 1.318717,-0.0365 3.044234,-0.709375 4.487984,-1.95442 l 0.683123,-0.0093 v 0 l 2.828894,-0.03491 c 2.928452,-0.03604 5.364226,-2.09962 5.891106,-4.875246 0.06528,-0.197312 0.109556,-0.404812 0.109556,-0.623558 V 7.998756 c 0,-1.104056 -0.894991,-1.9990547 -1.99999,-1.9990547 H 19.499962 12.500228 4.0002562 c -1.105001,1.243e-4 -1.999999,0.8951234 -1.999999,1.9991797 v 3.000488 c 0,0.55275 -0.448246,0.999567 -1.00074605,0.999567 C 0.44824915,11.999035 1.5258789e-7,11.552289 1.5258789e-7,10.999544 V 7.999042 C 1.5258789e-7,5.7900576 1.7903072,4 4.0002372,4 h 4.499745 1.5507388 2.949239 0.499506 5.000982 0.499494 2.949239 1.550754 4.499978 c 2.208498,0 3.999989,1.7900576 3.999989,3.999042 v 2.000009 c 0,2.02837 -0.759743,3.8738 -2.003865,5.283914 -0.177748,0.202132 -0.367188,0.395489 -0.563937,0.57812 -0.0093,0.008 -0.02358,0.02065 -0.03367,0.0304 -0.186497,0.169928 -0.379868,0.331043 -0.580561,0.484361 -0.02718,0.02068 -0.05437,0.04095 -0.08157,0.06045 -0.18406,0.135765 -0.372064,0.262687 -0.567877,0.381819 -0.04753,0.03048 -0.09654,0.0597 -0.146984,0.08808 -0.176263,0.102756 -0.358883,0.199242 -0.544451,0.290116 -0.06817,0.0333 -0.135236,0.06655 -0.203615,0.09778 -0.184067,0.0819 -0.3745,0.157254 -0.565439,0.225566 -0.06823,0.0243 -0.132811,0.04995 -0.200677,0.07349 -0.186998,0.06167 -0.378889,0.113179 -0.571759,0.161112 -0.08233,0.02066 -0.162623,0.04582 -0.246126,0.0645 -0.202115,0.04206 -0.408192,0.07344 -0.615748,0.101402 -0.07219,0.008 -0.141626,0.02355 -0.214879,0.032 -0.282246,0.03048 -0.568365,0.04793 -0.859368,0.04793 h -3.531242 c -0.353002,0 -0.663049,0.183622 -0.84081,0.459004 -0.0063,0.0093 -0.02063,0.01875 -0.03778,0.02225 -0.513683,0.904302 -1.475555,1.518552 -2.589866,1.518552 h -1.999966 c -1.114001,0 -2.076186,-0.61425 -2.589864,-1.518552 -0.01685,-0.003 -0.02961,-0.0086 -0.03758,-0.02225 -0.177715,-0.275413 -0.488219,-0.459032 -0.841029,-0.459032 H 8.0000002 c -1.982181,0 -3.783927,-0.732431 -5.179922,-1.925807 0.0166,0.02918 0.02177,0.04375 0.0075,0.03212 -0.08738,-0.07635 -0.202125,-0.122077 -0.328375,-0.122077 -0.275623,0 -0.499498,0.223621 -0.499498,0.499009 v 7.51665 c 0,1.104568 0.894996,2.000063 1.999994,2.000063 H 27.999884 c 1.104996,0 1.999992,-0.895495 1.999992,-2.000063 v -1.000002 c 0,-0.551743 0.448251,-0.999998 1.000497,-0.999998 0.551251,0 0.999498,0.448255 0.999498,0.999998 v 0.999991 c 0,2.209078 -1.791493,4.000058 -3.999987,4.000058 z"
       id="path2-36-7"
       sodipodi:nodetypes="ssssscssssccscccccccccccscsssccssscsssccccccccssscccccccccccccccssccssccssccsssssssssssc"
       style="fill:currentColor;fill-opacity:1;stroke-width:0.0624992"
       class="ColorScheme-Text" />
    <path
       d="m 15.963874,19.215653 c -2.967595,0 -5.643005,-1.78667 -6.7786168,-4.526816 -1.135573,-2.740138 -0.50768,-5.894091 1.5907288,-7.9913428 2.098407,-2.0972501 5.254111,-2.7247862 7.995763,-1.5898455 2.74171,1.1349769 4.529347,3.8089143 4.529347,6.7748673 -0.003,4.048075 -3.286887,7.328556 -7.337222,7.333137 z m 0,-13.1553767 c -2.259383,-0.011219 -4.224003,1.0152997 -5.208172,3.3901217 -0.9841618,2.374806 -0.641309,4.375419 0.845334,6.259841 1.592523,2.018656 4.42022,2.494272 6.796337,1.510654 2.376133,-0.983618 3.391616,-2.767859 3.391616,-5.338378 -0.003,-3.5083 -2.766605,-5.7542712 -5.825115,-5.8222387 z"
       id="path4-27-5"
       sodipodi:nodetypes="cssscccssscc"
       style="fill:currentColor;fill-opacity:1;stroke-width:0.16299"
       class="ColorScheme-Text" />
    <path
       d="m 16.104034,10.801824 c 1.792665,0.402425 2.701855,1.202546 2.701855,2.378371 0,1.154743 -0.97261,2.120739 -2.261207,2.34267 v 1.305329 h -1.128761 v -1.305329 c -1.288713,-0.221899 -2.261432,-1.187927 -2.261432,-2.342691 h 1.128733 c 0,0.684475 0.777195,1.262601 1.697123,1.262601 0.919582,0 1.696806,-0.578126 1.696806,-1.262601 0,-0.214942 0,-0.868925 -1.820568,-1.277408 -1.792944,-0.402432 -2.702094,-1.202531 -2.702094,-2.378367 0,-1.154871 0.972719,-2.12089 2.261432,-2.342813 V 5.8702187 h 1.128761 V 7.181581 c 1.288597,0.221926 2.261207,1.187944 2.261207,2.342818 h -1.128738 c 0,-0.684467 -0.777224,-1.262713 -1.696806,-1.262713 -0.919921,0 -1.697123,0.578246 -1.697123,1.262713 0,0.214967 0,0.868989 1.820812,1.277425 z"
       id="path6-0-3"
       style="fill:currentColor;fill-opacity:1;stroke-width:0.16299"
       class="ColorScheme-Text" />
  </g>
  <g
     id="22-22-wallet-open"
     transform="translate(32.016998,-21.82932)">
    <rect
       style="opacity:0.00100002;stroke-width:0.6875"
       width="22"
       height="22"
       x="-32.016998"
       y="-0.12958868"
       id="rect12-7" />
    <path
       d="m -10.950059,13.536966 c -0.368166,0 -0.666997,-0.298837 -0.666997,-0.666673 0,-0.367832 0.298831,-0.666661 0.666997,-0.666661 0.3675,0 0.666328,0.298829 0.666328,0.666661 0,0.367836 -0.298828,0.666673 -0.666328,0.666673 z m -2.000329,5.333362 h -15.999781 c -1.473288,0 -2.666826,-1.194005 -2.666826,-2.666706 v -5.011116 c 0,-0.91991 0.746082,-1.6659915 1.666494,-1.6659915 0.417333,0 0.789083,0.1659937 1.091289,0.4069207 0.0086,0.0053 0.01123,0.003 0.01808,0.0062 0.692873,0.5794148 1.583161,0.9283748 2.557785,0.9283748 l 2.424157,0.02134 v 0 0 0 0 c 0.673426,0.715435 1.594284,1.198607 2.908498,1.31253 v 0 0 c 0.879144,-0.02433 2.029489,-0.472917 2.991988,-1.302946 l 0.455416,-0.0062 v 0 l 1.885929,-0.02327 c 1.952301,-0.02403 3.57615,-1.3997455 3.927403,-3.2501625 0.04352,-0.1315413 0.07304,-0.2698746 0.07304,-0.4157052 V 5.536248 c 0,-0.7360372 -0.59666,-1.3327029 -1.333326,-1.3327029 h -5.666781 -4.666488 -5.666647 c -0.736667,8.29e-5 -1.333333,0.5967488 -1.333333,1.3327862 v 2.0003249 c 0,0.3685 -0.29883,0.6663779 -0.667163,0.6663779 -0.367511,6.6e-5 -0.666344,-0.2977646 -0.666344,-0.6662612 V 5.5364386 c 0,-1.4726559 1.193538,-2.6660274 2.666824,-2.6660274 h 2.999829 1.033826 1.966159 0.333004 3.333987 0.332996 1.966159 1.033836 2.999985 c 1.472331,0 2.666659,1.1933715 2.666659,2.6660274 v 1.3333391 c 0,1.3522464 -0.506496,2.5825328 -1.33591,3.5226083 -0.118499,0.134754 -0.244792,0.263659 -0.375958,0.385413 -0.0062,0.0053 -0.01572,0.01377 -0.02245,0.02027 -0.124331,0.113285 -0.253245,0.220695 -0.38704,0.322907 -0.01812,0.01379 -0.03625,0.0273 -0.05438,0.0403 -0.122707,0.09051 -0.248043,0.175125 -0.378585,0.254546 -0.03169,0.02032 -0.06436,0.0398 -0.09799,0.05872 -0.117509,0.0685 -0.239256,0.132828 -0.362967,0.19341 -0.04545,0.0222 -0.09016,0.04437 -0.135744,0.06519 -0.122711,0.0546 -0.249666,0.104836 -0.376959,0.150377 -0.04549,0.0162 -0.08854,0.0333 -0.133785,0.04899 -0.124665,0.04111 -0.252592,0.07545 -0.381172,0.107409 -0.05489,0.01377 -0.108416,0.03055 -0.164084,0.043 -0.134744,0.02804 -0.272128,0.04896 -0.410499,0.0676 -0.04813,0.0053 -0.09442,0.0157 -0.143252,0.02133 -0.188164,0.02032 -0.37891,0.03195 -0.572912,0.03195 h -2.354157 c -0.235335,0 -0.442033,0.122415 -0.56054,0.306003 -0.0042,0.0062 -0.01375,0.0125 -0.02519,0.01483 -0.342455,0.602868 -0.983703,1.012368 -1.726577,1.012368 h -1.33331 c -0.742667,0 -1.384124,-0.4095 -1.726576,-1.012368 -0.01123,-0.002 -0.01974,-0.0057 -0.02505,-0.01483 -0.118477,-0.183604 -0.325479,-0.306017 -0.560686,-0.306017 h -2.354159 c -1.321454,0 -2.522617,-0.488287 -3.45328,-1.283871 0.01107,0.01945 0.01451,0.02917 0.005,0.02141 -0.05825,-0.0509 -0.13475,-0.08138 -0.218917,-0.08138 -0.183749,0 -0.332999,0.14908 -0.332999,0.332672 v 5.011099 c 0,0.736379 0.596664,1.333375 1.333329,1.333375 h 16.00012 c 0.736664,0 1.333328,-0.596996 1.333328,-1.333375 v -0.666668 c 0,-0.367828 0.298834,-0.666665 0.666998,-0.666665 0.367501,0 0.666332,0.298837 0.666332,0.666665 v 0.666661 c 0,1.472718 -1.194329,2.666705 -2.666658,2.666705 z"
       id="path2-36-7-3"
       sodipodi:nodetypes="ssssscssssccscccccccccccscsssccssscsssccccccccssscccccccccccccccssccssccssccsssssssssssc"
       style="fill:currentColor;fill-opacity:1;stroke-width:0.0416661"
       class="ColorScheme-Text" />
    <path
       d="m -20.974418,13.014177 c -1.978396,0 -3.762002,-1.191113 -4.519077,-3.0178768 -0.757048,-1.8267574 -0.338453,-3.9293923 1.060486,-5.3275599 1.398938,-1.3981665 3.50274,-1.8165238 5.330508,-1.0598968 1.827806,0.7566511 3.019564,2.5392757 3.019564,4.5165773 -0.002,2.6987152 -2.191258,4.8857022 -4.891481,4.8887562 z m 0,-8.7702486 c -1.506255,-0.00748 -2.816001,0.6768664 -3.472113,2.2600807 -0.656108,1.5832037 -0.42754,2.9169454 0.563555,4.1732259 1.061682,1.34577 2.946813,1.662848 4.530891,1.007102 1.584088,-0.655745 2.261077,-1.8452378 2.261077,-3.5589169 -0.002,-2.3388662 -1.844403,-3.83618 -3.88341,-3.8814917 z"
       id="path4-27-5-6"
       sodipodi:nodetypes="cssscccssscc"
       style="fill:currentColor;fill-opacity:1;stroke-width:0.10866"
       class="ColorScheme-Text" />
    <path
       d="m -20.880978,7.4049596 c 1.19511,0.2682833 1.801237,0.8016972 1.801237,1.5855803 0,0.7698283 -0.648407,1.4138251 -1.507471,1.5617791 v 0.870219 h -0.752507 V 10.552319 C -22.198861,10.404386 -22.84734,9.7603682 -22.84734,8.9905259 h 0.752488 c 0,0.4563166 0.51813,0.8417333 1.131415,0.8417333 0.613055,0 1.131204,-0.3854167 1.131204,-0.8417333 0,-0.1432946 0,-0.5792832 -1.213712,-0.8516051 -1.195296,-0.268288 -1.801395,-0.8016872 -1.801395,-1.5855777 0,-0.7699138 0.648479,-1.4139264 1.507621,-1.561875 V 4.1172234 h 0.752507 v 0.8742414 c 0.859064,0.1479506 1.507471,0.7919625 1.507471,1.5618783 h -0.752492 c 0,-0.4563112 -0.518149,-0.8418085 -1.131204,-0.8418085 -0.61328,0 -1.131415,0.3854973 -1.131415,0.8418085 0,0.1433113 0,0.5793259 1.213874,0.8516165 z"
       id="path6-0-3-7"
       style="fill:currentColor;fill-opacity:1;stroke-width:0.10866"
       class="ColorScheme-Text" />
  </g>
  <g
     id="22-22-wallet-closed"
     transform="translate(32.016998,-21.82932)">
    <rect
       style="opacity:0.00100002;stroke-width:0.6875"
       width="22"
       height="22"
       x="0"
       y="0"
       id="rect12-7-6" />
    <path
       d="m 21.0656,13.665853 c -0.368144,0 -0.666957,-0.298809 -0.666957,-0.666629 0,-0.36782 0.298813,-0.666603 0.666957,-0.666603 0.367475,0 0.666287,0.298783 0.666287,0.666603 0,0.36782 -0.298812,0.666629 -0.666287,0.666629 z m -2.000199,5.332998 H 3.066652 C 1.593461,18.998851 0.4,17.804954 0.4,16.332378 v -5.010802 c 0,-0.919894 0.746033,-1.6659152 1.666387,-1.6659152 0.417305,0 0.789029,0.1659906 1.091217,0.4068932 0.0086,0.0089 0.01125,0.0053 0.01809,0.0089 0.692829,0.57939 1.583059,0.928258 2.557618,0.928258 h 2.666486 0.122867 0.04381 c 0.57696,0 1.086008,0.293682 1.384656,0.740315 0.0078,0.009 0.01471,0.01333 0.02248,0.02124 0.2404,0.345012 0.639623,0.572848 1.092049,0.572848 0.453097,0 0.852487,-0.227836 1.092723,-0.572848 0.008,-0.0089 0.01559,-0.01058 0.02248,-0.02124 0.298807,-0.446668 0.807898,-0.740331 1.384651,-0.740331 h 0.04395 0.122704 2.666484 c 1.952326,0 3.575923,-1.3996113 3.927151,-3.2499071 0.04366,-0.131548 0.07285,-0.2698873 0.07285,-0.41563 V 5.6668757 c 0,-0.7359891 -0.596626,-1.332616 -1.33324,-1.332616 H 13.399118 8.732936 3.066652 c -0.736616,0 -1.333242,0.5966269 -1.333242,1.332616 v 2.0001959 c 0,0.3684506 -0.298814,0.6663279 -0.667122,0.6663279 C 0.698813,8.3323295 0.4,8.0345616 0.4,7.6660936 V 5.6658571 C 0.4,4.1932912 1.593461,3 3.066652,3 h 2.99963 1.033763 1.966034 0.332977 3.333772 0.332978 1.966033 1.033767 2.999795 c 1.472233,0 2.666486,1.1932912 2.666486,2.6658571 v 1.3332326 c 0,1.3521832 -0.506466,2.5823804 -1.335827,3.5224163 -0.118491,0.134731 -0.244774,0.263604 -0.375933,0.385401 -0.008,0.0089 -0.01559,0.01333 -0.02248,0.02071 -0.124323,0.113212 -0.253235,0.220673 -0.387015,0.322827 -0.01831,0.01315 -0.03606,0.02693 -0.05436,0.04027 -0.122702,0.09052 -0.248025,0.175137 -0.378559,0.254528 -0.03153,0.02062 -0.06451,0.03991 -0.09799,0.05795 -0.117491,0.06871 -0.239233,0.132802 -0.362933,0.193359 -0.04558,0.02284 -0.09016,0.044 -0.135744,0.06542 -0.122699,0.05511 -0.249646,0.104777 -0.376929,0.150347 -0.04557,0.01635 -0.08854,0.0336 -0.133783,0.04915 -0.124661,0.04053 -0.252563,0.07511 -0.381143,0.10746 -0.05506,0.01315 -0.108408,0.03013 -0.164068,0.0424 -0.134743,0.02747 -0.272106,0.04915 -0.410474,0.06791 -0.04821,0.0089 -0.09441,0.01547 -0.14324,0.02213 -0.188154,0.02071 -0.378892,0.03191 -0.572879,0.03191 h -2.35401 c -0.235316,0 -0.442007,0.122366 -0.560505,0.305956 -0.0058,0.0089 -0.01363,0.012 -0.02502,0.01457 -0.342437,0.602865 -0.983645,1.012317 -1.726469,1.012317 h -1.333243 c -0.742613,0 -1.384028,-0.409453 -1.726466,-1.012317 -0.01126,-0.0035 -0.01991,-0.0089 -0.02488,-0.01457 C 8.529445,12.455501 8.322458,12.333125 8.087265,12.333125 H 5.733182 c -1.321369,0 -2.522454,-0.488266 -3.453057,-1.28383 0.01109,0.02 0.01449,0.02897 0.0051,0.02222 -0.05825,-0.05129 -0.13474,-0.08151 -0.218902,-0.08151 -0.183737,0 -0.332976,0.14912 -0.332976,0.332692 v 5.010784 c 0,0.736314 0.596626,1.333232 1.333241,1.333232 h 15.998835 c 0.736617,0 1.333243,-0.596916 1.333243,-1.333232 v -0.666629 c 0,-0.367819 0.298813,-0.666638 0.666955,-0.666638 0.367477,0 0.666288,0.298819 0.666288,0.666638 v 0.666629 c 0,1.472537 -1.194253,2.666515 -2.666486,2.666515 z M 13.065806,3 Z"
       id="path2-5"
       sodipodi:nodetypes="ssssssssssccsccsccsccsccscsssccssscsssccccccccssscccccccccccccccssccssccssccsssssssssssccccccccccccc"
       style="fill:currentColor;fill-opacity:1;stroke-width:0.041664"
       class="ColorScheme-Text" />
  </g>
</svg>
