<?xml version="1.0" encoding="UTF-8" standalone="no"?>
<svg
   inkscape:version="1.1.2 (0a00cf5339, 2022-02-04)"
   sodipodi:docname="window.svg"
   viewBox="0 0 32 32"
   version="1.1"
   height="32"
   width="32"
   id="svg"
   xmlns:inkscape="http://www.inkscape.org/namespaces/inkscape"
   xmlns:sodipodi="http://sodipodi.sourceforge.net/DTD/sodipodi-0.dtd"
   xmlns="http://www.w3.org/2000/svg"
   xmlns:svg="http://www.w3.org/2000/svg"
   xmlns:rdf="http://www.w3.org/1999/02/22-rdf-syntax-ns#"
   xmlns:cc="http://creativecommons.org/ns#"
   xmlns:dc="http://purl.org/dc/elements/1.1/">
  <style
     id="current-color-scheme"
     type="text/css">
.ColorScheme-Highlight { 
    color:#0094b2;
}
.ColorScheme-Text { color:#eff0f1; }
</style>
  <g
     id="window-unpin"
     transform="translate(-44,10)">
    <path
       id="rect838-6"
       d="M 0,0 H 22 V 22 H 0 Z"
       fill="none" />
    <path
       d="m 19.83469,9.714284 c -0.220414,0.219331 -0.57564,0.219331 -0.795423,0 -0.220413,-0.219645 -0.220413,-0.575916 0,-0.7956611 0.220413,-0.21969 0.575684,-0.219645 0.795423,0 0.220414,0.2196461 0.220414,0.5759441 0,0.7956611 z m -5.56661,4.917594 -0.06388,0.12402 c -0.0985,0.202681 -0.171833,0.396541 -0.171833,0.630043 0,0.0351 -0.0036,0.07029 0.0014,0.10395 -0.01349,0.251416 0.0036,0.388081 -0.01349,0.50779 -0.03599,0.967579 -0.40889,1.926315 -1.147501,2.664862 -0.659215,0.658841 -1.727546,0.658841 -2.386628,0 L 7.304726,15.481381 4.6424911,18.143214 c -0.2208633,0.21996 -0.5764488,0.21996 -0.7964572,0 -0.2208634,-0.219961 -0.2208634,-0.576478 0,-0.796466 l 2.6619198,-2.66208 -3.1812862,-3.181162 c -0.6589462,-0.658702 -0.6589462,-1.727082 0,-2.386207 0.7906545,-0.7906927 1.83348,-1.1661424 2.8697839,-1.1430304 0.061178,-0.00585 0.1304493,-0.00214 0.206919,0.0054 0.026989,0.00169 0.044977,0.00495 0.067927,0.00765 0.026989,0.0027 0.044977,0.00169 0.062978,0.00675 0.044977,0.00675 0.068377,0.00585 0.103455,0.00585 0.2325588,0 0.4489234,-0.07101 0.6284936,-0.192015 l 4.520051,-3.0924708 0.009,0.009 c 0.22851,-0.169065 0.549819,-0.16002 0.757457,0.04779 0.228511,0.2294111 0.228511,0.6009176 0,0.8299507 -0.02699,0.0225 -0.04813,0.03015 -0.07332,0.048915 l 0.0036,0.009 -4.5294959,3.0850324 C 7.5959086,8.985962 7.1642585,9.126677 6.6999958,9.126677 c -0.079616,0 -0.159237,-0.0033 -0.2388556,-0.0108 -0.092216,-0.009 -0.1686836,-0.01035 -0.2370577,-0.009 -0.7574569,-0.03015 -1.5251715,0.235485 -2.1038693,0.814304 -0.2204133,0.21933 -0.2204133,0.575673 0,0.795376 l 7.1592558,7.158938 c 0.220412,0.219331 0.576224,0.219331 0.795422,0 0.522291,-0.522109 0.786112,-1.197974 0.811392,-1.881585 0.009,-0.09814 0.009,-0.23517 0.01799,-0.423451 -0.01349,-0.07812 0.0013,-0.157725 0.0013,-0.23778 0,-0.465243 0.138996,-0.940786 0.351761,-1.256224 0.04498,-0.09288 0.119204,-0.189316 0.172283,-0.295426 l 3.655715,-5.3662452 c 0.146643,-0.215145 0.127301,-0.5072682 -0.05848,-0.7014342 l -2.56538,-2.5657132 v 0 L 13.467271,4.1531701 13.11731,3.805229 12.271955,2.9601133 c -0.219963,-0.219645 -0.219963,-0.5759202 0,-0.7953458 0.220414,-0.21969 0.576269,-0.21969 0.795964,0 l 0.994199,0.9941929 3.784769,3.784545 c 0.5751,0.5751056 0.645407,1.4610859 0.216366,2.1155776 z M 3.1249629,19.437557 C 3.1249629,19.748147 2.8730619,20 2.5624145,20 2.2506871,20 2,19.748314 2,19.437557 2,19.126921 2.251901,18.87507 2.5624145,18.87507 c 0.3117274,0 0.5625484,0.251775 0.5625484,0.562487 z"
       id="path2-3-0-5"
       sodipodi:nodetypes="ccsscccsccccccsccccccccsccccccccsccscccccscccccccccccccccsssss"
       style="stroke-width:0.0351628;fill-opacity:1;fill:currentColor;"
       class="ColorScheme-Highlight" />
  </g>
  <metadata
     id="metadata60">
    <rdf:RDF>
      <cc:Work
         rdf:about="">
        <dc:format>image/svg+xml</dc:format>
        <dc:type
           rdf:resource="http://purl.org/dc/dcmitype/StillImage" />
      </cc:Work>
    </rdf:RDF>
  </metadata>
  <sodipodi:namedview
     inkscape:document-rotation="0"
     inkscape:lockguides="false"
     inkscape:current-layer="svg"
     inkscape:window-maximized="1"
     inkscape:window-y="0"
     inkscape:window-x="0"
     inkscape:cy="13.081475"
     inkscape:cx="2.2097086"
     inkscape:zoom="5.6568546"
     showgrid="false"
     id="namedview58"
     inkscape:window-height="1013"
     inkscape:window-width="1920"
     inkscape:pageshadow="2"
     inkscape:pageopacity="0"
     guidetolerance="10"
     gridtolerance="10"
     objecttolerance="10"
     borderopacity="1"
     bordercolor="#000000"
     pagecolor="#ffffff"
     inkscape:showpageshadow="false"
     inkscape:pagecheckerboard="0"
     showguides="false">
    <inkscape:grid
       id="grid863"
       type="xygrid"
       originx="-1e-06"
       originy="-2e-06" />
  </sodipodi:namedview>
  <defs
     id="defs4">
    <linearGradient
       id="linearGradient5606"
       inkscape:swatch="solid">
      <stop
         style="stop-color:#000000"
         offset="0"
         id="stop5608" />
    </linearGradient>
  </defs>
  <g
     id="g22"
     transform="matrix(1.7493122,0,0,1.7499488,-42.713548,-1322.9605)"
     style="fill:#ffffff" />
  <g
     id="g46"
     transform="matrix(1.7493122,0,0,1.7499488,-102.95048,-903.47286)"
     style="opacity:0.2">
    <g
       id="g44"
       transform="translate(19,-242)" />
  </g>
  <g
     id="window-pin"
     transform="translate(-44,10)">
    <path
       id="rect838"
       d="M 22,0 H 44 V 22 H 22 Z"
       fill="none" />
    <path
       d="m 41.83469,9.714284 c -0.220414,0.219331 -0.57564,0.219331 -0.795423,0 -0.220414,-0.219645 -0.220414,-0.575916 0,-0.7956611 0.220413,-0.21969 0.575684,-0.219645 0.795423,0 0.220414,0.2196461 0.220414,0.5759441 0,0.7956611 z m -5.56661,4.917594 -0.06388,0.12402 c -0.09851,0.202681 -0.171832,0.396541 -0.171832,0.630043 0,0.0351 -0.0036,0.07029 0.0014,0.10395 -0.01349,0.251416 0.0036,0.388081 -0.01349,0.50779 -0.03599,0.967579 -0.40889,1.926315 -1.147501,2.664862 -0.659215,0.658841 -1.727547,0.658841 -2.386628,0 l -3.181376,-3.181162 -2.662235,2.661834 c -0.220863,0.219959 -0.576449,0.219959 -0.796457,0 -0.220864,-0.219962 -0.220864,-0.576479 0,-0.796467 l 2.66192,-2.66208 -3.181287,-3.181162 c -0.658946,-0.658702 -0.658946,-1.727082 0,-2.386207 0.790655,-0.7906927 1.83348,-1.1661424 2.869784,-1.1430304 0.06118,-0.00585 0.13045,-0.00214 0.206919,0.0054 0.02699,0.00169 0.04498,0.00495 0.06793,0.00765 0.02699,0.0027 0.04498,0.00169 0.06298,0.00675 0.04498,0.00675 0.06838,0.00585 0.103455,0.00585 0.232559,0 0.448924,-0.07101 0.628494,-0.192015 l 4.520051,-3.0924708 0.009,0.009 c 0.22851,-0.169065 0.549819,-0.16002 0.757457,0.04779 0.228511,0.2294111 0.228511,0.6009176 0,0.8299507 -0.02699,0.0225 -0.04813,0.03015 -0.07332,0.048915 l 0.0036,0.009 -4.529497,3.0850324 c -0.35761,0.2408411 -0.78926,0.3815561 -1.253523,0.3815561 -0.07962,0 -0.159237,-0.0033 -0.238856,-0.0108 -0.09222,-0.009 -0.168683,-0.01035 -0.237057,-0.009 -0.757458,-0.03015 -1.525172,0.235485 -2.10387,0.814304 -0.220413,0.21933 -0.220413,0.575673 0,0.795376 l 7.159256,7.158938 c 0.220412,0.219331 0.576224,0.219331 0.795422,0 0.522291,-0.522109 0.786112,-1.197974 0.811392,-1.881585 0.009,-0.09814 0.009,-0.23517 0.01799,-0.423451 -0.01349,-0.07812 0.0014,-0.157725 0.0014,-0.23778 0,-0.465243 0.138996,-0.940786 0.351761,-1.256224 0.04498,-0.09288 0.119204,-0.189316 0.172283,-0.295426 L 39.08548,8.4147838 C 39.232123,8.1996388 39.212781,7.9075156 39.027,7.7133496 L 36.461472,5.1476364 v 0 L 35.467271,4.1531701 35.11731,3.805229 34.271955,2.9601133 c -0.219963,-0.219645 -0.219963,-0.5759202 0,-0.7953458 0.220414,-0.21969 0.576269,-0.21969 0.795964,0 l 0.994199,0.9941929 3.784769,3.784545 c 0.5751,0.5751056 0.645407,1.4610859 0.216366,2.1155776 z M 25.124963,19.437557 C 25.124963,19.748147 24.873062,20 24.562414,20 24.250687,20 24,19.748314 24,19.437557 c 0,-0.310636 0.251901,-0.562487 0.562414,-0.562487 0.311728,0 0.562549,0.251775 0.562549,0.562487 z"
       id="path2-3-0"
       sodipodi:nodetypes="ccsscccsccccccsccccccccsccccccccsccscccccscccccccccccccccsssss"
       style="stroke-width:0.0351628;fill-opacity:1;fill:currentColor;"
       class="ColorScheme-Text" />
  </g>
  <g
     id="window-close">
    <rect
       id="rect36"
       style="opacity:0.00100002"
       y="0"
       x="0"
       height="32"
       width="32" />
    <path
       fill-rule="evenodd"
       clip-rule="evenodd"
       d="m 24.498554,14.917451 c -0.0066,0.0077 -0.0081,0.0143 -0.01612,0.02198 -0.584999,0.586077 -0.584999,1.535763 0,2.120763 0.0088,0.0088 0.01064,0.01608 0.01758,0.02484 l 2.6227,2.622278 c 1.16967,1.16967 1.16967,3.067073 0,4.236744 l -3.177699,3.178401 c -1.17042,1.170045 -3.06712,1.170045 -4.237494,0 L 17.084072,24.49943 c -0.0081,-0.0073 -0.015,-0.0081 -0.02377,-0.01683 -0.585374,-0.586078 -1.534685,-0.586078 -2.120856,0 -0.292874,0.292499 -0.767296,0.292499 -1.06017,0 -0.2925,-0.2925 -0.2925,-0.767296 0,-1.060921 l -0.0022,-0.0022 0.237609,-0.237937 c 0.0095,-0.0088 0.01903,-0.0143 0.02962,-0.02452 1.024686,-1.025014 2.686777,-1.025014 3.711088,0 0.01102,0.01097 0.02166,0.01758 0.03263,0.02709 l 2.61384,2.61459 c 0.731436,0.730733 1.917278,0.730733 2.648715,0 l 2.647965,-2.649043 c 0.730733,-0.730686 0.730733,-1.916106 0,-2.647918 l -2.614637,-2.613465 c -0.0095,-0.01134 -0.01575,-0.02161 -0.02672,-0.03295 -1.024311,-1.024686 -1.024311,-2.686027 0,-3.711041 0.01027,-0.01027 0.01575,-0.01978 0.02452,-0.0293 l 2.61684,-2.617168 c 0.730733,-0.730687 0.730733,-1.916107 0,-2.647918 L 23.150581,6.2019806 c -0.731437,-0.7314369 -1.917232,-0.7314369 -2.648715,0 l -2.61234,2.6120583 c -0.01097,0.01064 -0.02236,0.01683 -0.03413,0.02892 -1.024358,1.0250612 -2.686402,1.0250612 -3.711088,0 -0.01134,-0.01134 -0.02161,-0.01683 -0.03183,-0.02634 L 11.497841,6.2020287 c -0.730733,-0.731436 -1.9164822,-0.731436 -2.6479652,0 l -2.647918,2.6479182 c -0.731811,0.731812 -0.731811,1.9172321 0,2.6479181 l 2.614262,2.614637 c 0.0095,0.01022 0.01537,0.02086 0.02634,0.03183 1.0250609,1.025061 1.0250609,2.686355 0,3.711041 -0.01209,0.01209 -0.01833,0.02306 -0.02855,0.03441 l -2.6120591,2.612012 c -0.731811,0.731811 -0.731811,1.917232 0,2.647918 l 2.3839651,2.38509 -0.08934,0.08892 c 0.125578,0.03187 0.2475,0.08569 0.345984,0.184547 0.293578,0.292499 0.293578,0.767342 0,1.059842 -0.292499,0.292827 -0.767342,0.292827 -1.0598421,0 -0.09881,-0.09853 -0.151921,-0.220031 -0.18375,-0.345984 l -0.07177,0.07176 -2.649418,-2.649793 c -1.1703729,-1.16967 -1.1703729,-3.067073 0,-4.236743 L 7.5001028,17.08509 c 0.0073,-0.0088 0.0088,-0.01613 0.01758,-0.02484 0.585374,-0.584999 0.585374,-1.534685 0,-2.120762 -0.0077,-0.0077 -0.0088,-0.0143 -0.01575,-0.02198 l -2.624152,-2.625286 c -1.170373,-1.16967 -1.170373,-3.0671202 0,-4.2367443 l 3.177745,-3.177698 c 1.169624,-1.1703729 3.0667462,-1.1703729 4.2374942,0 l 2.621574,2.6219489 c 0.0088,0.0069 0.01613,0.0088 0.02489,0.01758 0.586124,0.5861241 1.535435,0.5861241 2.120856,0 0.0095,-0.0095 0.01753,-0.01064 0.02597,-0.01833 l 2.621246,-2.6211989 c 1.17042,-1.1703729 3.067121,-1.1703729 4.237494,0 l 3.177698,3.1776981 c 1.169671,1.1696241 1.169671,3.0670742 0,4.2367442 z M 12.251635,24.997014 c 0.413296,0 0.749014,0.335672 0.749014,0.75014 0,0.413296 -0.335671,0.749717 -0.749014,0.749717 -0.414422,0 -0.749765,-0.336421 -0.749765,-0.749717 0,-0.414468 0.335343,-0.75014 0.749765,-0.75014 z"
       id="path2"
       style="stroke-width:0.0468749;fill-opacity:1;fill:currentColor;"
       class="ColorScheme-Text" />
  </g>
  <g
     id="22-22-window-close"
     transform="translate(32,10)">
    <rect
       id="rect18"
       y="0"
       x="0"
       height="22"
       width="22"
       style="opacity:0.00100002" />
    <path
       fill-rule="evenodd"
       clip-rule="evenodd"
       d="m 16.665737,10.278342 c -0.0044,0.0051 -0.0054,0.0095 -0.01075,0.01465 -0.389999,0.390718 -0.389999,1.023842 0,1.413843 0.0059,0.0059 0.0071,0.01072 0.01172,0.01656 l 1.748468,1.748186 c 0.77978,0.77978 0.77978,2.044716 0,2.824497 l -2.118467,2.118935 c -0.78028,0.78003 -2.044747,0.78003 -2.824997,0 l -1.748967,-1.748686 c -0.0054,-0.0049 -0.01,-0.0054 -0.01585,-0.01122 -0.39025,-0.390719 -1.023124,-0.390719 -1.413905,0 -0.195249,0.195 -0.5115316,0.195 -0.7067807,0 -0.195,-0.195 -0.195,-0.511531 0,-0.707281 l -0.0015,-0.0015 0.1584059,-0.158625 c 0.0063,-0.0059 0.01269,-0.0095 0.01975,-0.01635 0.6831248,-0.683343 1.7911858,-0.683343 2.4740598,0 0.0073,0.0073 0.01444,0.01172 0.02175,0.01806 l 1.74256,1.743061 c 0.487625,0.487155 1.278186,0.487155 1.765811,0 l 1.765311,-1.76603 c 0.487155,-0.487124 0.487155,-1.277404 0,-1.765279 l -1.743092,-1.742311 c -0.0063,-0.0076 -0.0105,-0.01441 -0.01781,-0.02197 -0.682874,-0.683125 -0.682874,-1.790686 0,-2.4740292 0.0068,-0.0068 0.0105,-0.01319 0.01635,-0.01953 l 1.744561,-1.7447791 c 0.487155,-0.487125 0.487155,-1.277405 0,-1.76528 l -1.765311,-1.765279 c -0.487625,-0.487625 -1.278155,-0.487625 -1.765811,0 l -1.74156,1.741373 c -0.0073,0.0071 -0.01491,0.01122 -0.02275,0.01928 -0.682905,0.6833741 -1.790935,0.6833741 -2.4740596,0 -0.0076,-0.0076 -0.01441,-0.01122 -0.02122,-0.01756 L 7.9985613,4.4680168 c -0.487156,-0.4876239 -1.2776549,-0.4876239 -1.765311,0 l -1.765279,1.765279 c -0.4878749,0.4878749 -0.4878749,1.2781559 0,1.7652799 l 1.7428421,1.7430921 c 0.0063,0.0068 0.01025,0.01391 0.01756,0.02122 0.6833739,0.6833742 0.6833739,1.7909042 0,2.4740282 -0.0081,0.0081 -0.01222,0.01537 -0.01903,0.02294 l -1.7413729,1.741342 c -0.487874,0.487874 -0.487874,1.278155 0,1.765279 l 1.589311,1.590061 -0.05956,0.05928 c 0.08372,0.02125 0.1650002,0.05713 0.230656,0.123032 0.195718,0.194999 0.195718,0.511561 0,0.706561 -0.1950001,0.195218 -0.5115619,0.195218 -0.706562,0 -0.06587,-0.06569 -0.101281,-0.146687 -0.1224999,-0.230656 l -0.04785,0.04784 -1.7662789,-1.766529 c -0.7802489,-0.779781 -0.7802489,-2.044716 0,-2.824497 l 1.7482159,-1.748175 c 0.0049,-0.0059 0.0059,-0.01075 0.01172,-0.01656 0.390249,-0.39 0.390249,-1.023124 0,-1.413842 -0.0051,-0.0051 -0.0059,-0.0095 -0.0105,-0.01465 L 3.5851874,8.52815 c -0.7802489,-0.7797801 -0.7802489,-2.0447472 0,-2.8244972 L 5.7036844,3.585187 c 0.77975,-0.780249 2.044498,-0.780249 2.824997,0 l 1.7477176,1.7479667 c 0.0059,0.0046 0.01075,0.0059 0.01659,0.01172 0.39075,0.3907489 1.023624,0.3907489 1.413905,0 0.0063,-0.0063 0.01169,-0.0071 0.01731,-0.01222 l 1.747498,-1.747467 c 0.780281,-0.780249 2.044748,-0.780249 2.824997,0 l 2.118467,2.118466 c 0.77978,0.7797499 0.77978,2.044717 0,2.824497 z m -8.1646166,6.719711 c 0.275531,0 0.499343,0.223781 0.499343,0.500093 0,0.275531 -0.223781,0.499812 -0.499343,0.499812 -0.276281,0 -0.499843,-0.224281 -0.499843,-0.499812 0,-0.276312 0.223562,-0.500093 0.499843,-0.500093 z"
       id="path2-3"
       style="stroke-width:0.0312499;fill-opacity:1;fill:currentColor;"
       class="ColorScheme-Text" />
  </g>
  <g
     id="16-16-window-close"
     transform="translate(54,15.999998)">
    <rect
       id="rect27"
       y="0"
       x="0"
       height="16"
       width="16"
       style="opacity:0.00100002" />
    <path
       fill-rule="evenodd"
       clip-rule="evenodd"
       d="m 12.249283,7.4587757 c -0.0033,0.0038 -0.004,0.0071 -0.0081,0.01099 -0.292499,0.293038 -0.292499,0.7678802 0,1.0603802 0.0044,0.0044 0.0053,0.008 0.0088,0.01242 l 1.311348,1.3111372 c 0.584834,0.5848329 0.584834,1.5335329 0,2.1183679 l -1.588847,1.589197 c -0.585208,0.585022 -1.533557,0.585022 -2.118743,0 L 8.5420189,12.249757 c -0.004,-0.0037 -0.0075,-0.004 -0.01189,-0.0084 -0.292686,-0.293039 -0.7673409,-0.293039 -1.0604259,0 -0.146436,0.146249 -0.383648,0.146249 -0.530085,0 -0.146249,-0.14625 -0.146249,-0.383648 0,-0.53046 l -0.0011,-0.0011 0.118805,-0.118968 c 0.0047,-0.0044 0.0095,-0.0071 0.01481,-0.01226 0.5123429,-0.512506 1.343387,-0.512506 1.855541,0 0.0055,0.0055 0.01083,0.0088 0.01631,0.01355 l 1.306917,1.307293 c 0.365718,0.365365 0.958637,0.365365 1.324355,0 l 1.32398,-1.32452 c 0.365366,-0.365342 0.365366,-0.95805 0,-1.323956 L 11.59192,8.9442059 c -0.0047,-0.0057 -0.0079,-0.01081 -0.01336,-0.01648 -0.512155,-0.512342 -0.512155,-1.3430111 0,-1.8555171 0.0051,-0.0051 0.0079,-0.0099 0.01226,-0.01465 l 1.308433,-1.308628 c 0.365365,-0.365343 0.365365,-0.958052 0,-1.323957 l -1.32398,-1.323957 c -0.365718,-0.3657179 -0.958614,-0.3657179 -1.324356,0 L 8.9447499,4.4070436 c -0.0055,0.0053 -0.01118,0.0084 -0.01706,0.01446 -0.5121778,0.51253 -1.343198,0.51253 -1.8555411,0 -0.0057,-0.0057 -0.01081,-0.0084 -0.01591,-0.01317 L 5.7489226,3.1010409 c -0.3653659,-0.365717 -0.9582389,-0.365717 -1.3239809,0 l -1.323956,1.3239568 c -0.365905,0.365905 -0.365905,0.958615 0,1.323957 l 1.3071289,1.307316 c 0.0047,0.0051 0.0077,0.01043 0.01317,0.01591 0.5125289,0.5125291 0.5125289,1.3431752 0,1.8555171 -0.0061,0.0061 -0.0092,0.01153 -0.01427,0.01721 l -1.306027,1.3060032 c -0.365904,0.365905 -0.365904,0.958615 0,1.323957 l 1.191982,1.192543 -0.04467,0.04446 c 0.06279,0.01594 0.1237501,0.04285 0.172991,0.09227 0.146789,0.146248 0.146789,0.383669 0,0.529919 -0.1462491,0.146413 -0.3836691,0.146413 -0.52992,0 -0.0494,-0.04927 -0.07596,-0.110015 -0.09187,-0.172991 l -0.03589,0.03588 -1.3247068,-1.324893 c -0.585185,-0.584835 -0.585185,-1.533534 0,-2.118368 L 3.7500626,8.5425589 c 0.0037,-0.0044 0.0044,-0.0081 0.0088,-0.01242 0.2926869,-0.292499 0.2926869,-0.7673411 0,-1.0603791 -0.0038,-0.0038 -0.0044,-0.0071 -0.0079,-0.01099 L 2.4388888,6.1461278 c -0.5851851,-0.584833 -0.5851851,-1.533556 0,-2.118368 l 1.5888698,-1.588846 c 0.584811,-0.585185 1.5333699,-0.585185 2.118743,0 l 1.3107849,1.310973 c 0.0044,0.0035 0.0081,0.0044 0.01244,0.0088 0.2930621,0.293061 0.7677161,0.293061 1.0604262,0 0.0047,-0.0047 0.0088,-0.0053 0.01298,-0.0092 L 9.853753,2.4388888 c 0.58521,-0.5851851 1.533558,-0.5851851 2.118743,0 l 1.588847,1.5888459 c 0.584834,0.5848121 0.584834,1.5335351 0,2.1183681 z M 6.1258337,12.498548 c 0.206648,0 0.374507,0.167835 0.374507,0.375069 0,0.206647 -0.1678359,0.374858 -0.374507,0.374858 -0.2072099,0 -0.374881,-0.168211 -0.374881,-0.374858 0,-0.207234 0.1676711,-0.375069 0.374881,-0.375069 z"
       id="path2-3-3"
       style="stroke-width:0.0234374;fill-opacity:1;fill:currentColor;"
       class="ColorScheme-Text" />
  </g>
</svg>
