<?xml version="1.0" encoding="UTF-8" standalone="no"?>
<svg
   width="22"
   height="22"
   enable-background="new"
   version="1.1"
   id="svg25"
   sodipodi:docname="zoom.svg"
   inkscape:version="1.1.2 (0a00cf5339, 2022-02-04)"
   xmlns:inkscape="http://www.inkscape.org/namespaces/inkscape"
   xmlns:sodipodi="http://sodipodi.sourceforge.net/DTD/sodipodi-0.dtd"
   xmlns="http://www.w3.org/2000/svg"
   xmlns:svg="http://www.w3.org/2000/svg">
  <sodipodi:namedview
     id="namedview27"
     pagecolor="#ffffff"
     bordercolor="#666666"
     borderopacity="1.0"
     inkscape:pageshadow="2"
     inkscape:pageopacity="0.0"
     inkscape:pagecheckerboard="0"
     showgrid="false"
     inkscape:lockguides="true"
     inkscape:zoom="7.0681818"
     inkscape:cx="25.678457"
     inkscape:cy="19.099679"
     inkscape:window-width="1920"
     inkscape:window-height="1009"
     inkscape:window-x="0"
     inkscape:window-y="0"
     inkscape:window-maximized="1"
     inkscape:current-layer="svg25">
    <inkscape:grid
       type="xygrid"
       id="grid1057"
       originx="0"
       originy="-0.003" />
  </sodipodi:namedview>
  <defs
     id="defs3">
    <style
       id="current-color-scheme"
       type="text/css">.ColorScheme-Text { color:#eceff4; }
</style>
  </defs>
  <g
     id="zoom-fit-width"
     transform="translate(0,-0.003)">
    <rect
       x="0"
       y="0.003"
       width="22"
       height="22"
       opacity="0"
       stroke-width="1px"
       id="rect5" />
    <path
       fill-rule="evenodd"
       clip-rule="evenodd"
       d="m 18.409716,12.421584 -2.488032,2.48803 c -0.387937,0.38794 -0.895749,0.58254 -1.403562,0.58691 -0.0063,5e-4 -0.01122,0.003 -0.01806,0.003 -0.828625,0 -1.500251,-0.67163 -1.500251,-1.50025 v -0.125 c 0,-0.20678 -0.167468,-0.3745 -0.375,-0.3745 h -0.03856 c -0.448,0 -0.840344,-0.23657 -1.060781,-0.5896 L 9.683313,9.718931 C 9.593593,9.588306 9.444532,9.499681 9.273532,9.499681 h -0.02356 c -0.690062,0 -1.250125,-0.559437 -1.250125,-1.2495 v -0.25 c 0,-0.2765 -0.223625,-0.500125 -0.4995,-0.500125 -0.04541,0 -0.0885,0.0078 -0.130625,0.01903 -0.212406,0.02806 -0.417125,0.118906 -0.580187,0.281968 l -2.488032,2.488034 c -0.392344,0.392346 -0.392344,1.029186 0,1.421746 l 2.488031,2.48778 c 0.163094,0.1631 0.367813,0.25391 0.580188,0.28197 0.04213,0.0112 0.08522,0.0193 0.130625,0.0193 0.275875,0 0.4995,-0.22387 0.4995,-0.50025 v -0.25 c 0,-0.69018 0.560062,-1.24975 1.250125,-1.24975 h 0.25 c 0.2765,0 0.500125,0.22388 0.500125,0.50025 0,0.27563 -0.223625,0.5 -0.500125,0.5 H 9.375097 c -0.206906,0 -0.375125,0.16772 -0.375125,0.3745 v 0.125 c 0,0.82863 -0.671625,1.50025 -1.499625,1.50025 -0.0067,0 -0.01172,-0.003 -0.01794,-0.003 -0.508438,-0.004 -1.01575,-0.19897 -1.403688,-0.58691 L 3.590625,12.421584 C 3.197937,12.028904 3,11.514434 3,10.999964 3,10.485463 3.197937,9.970931 3.590625,9.578213 L 6.078656,7.090306 C 6.466594,6.702369 6.973906,6.507775 7.482344,6.5034 7.488544,6.502775 7.493564,6.5 7.500284,6.5 c 0.828,0 1.499625,0.671625 1.499625,1.50025 v 0.125 c 0,0.206781 0.168218,0.375 0.375125,0.375 h 0.03919 c 0.445687,0 0.836906,0.23375 1.057875,0.585219 l 1.846562,3.198255 c 0.09034,0.12962 0.237781,0.21631 0.408188,0.21631 h 0.02294 c 0.690687,0 1.250249,0.55956 1.250249,1.24975 v 0.25 c 0,0.27638 0.223625,0.50025 0.5,0.50025 0.04541,0 0.08863,-0.008 0.130625,-0.0193 0.212407,-0.0281 0.41725,-0.11891 0.580313,-0.28197 l 2.48803,-2.48777 c 0.392344,-0.39256 0.392344,-1.02941 0,-1.42175 L 15.210975,7.801213 C 15.047881,7.638119 14.843068,7.547306 14.630662,7.519244 c -0.042,-0.01122 -0.08522,-0.01903 -0.130625,-0.01903 -0.276375,0 -0.5,0.223625 -0.5,0.500125 v 0.25 0.7495 c 0,0.276375 -0.223625,0.5 -0.5,0.5 -0.275875,0 -0.50025,-0.223625 -0.50025,-0.5 v -0.7495 -0.25 c 0,-0.828625 0.671625,-1.50025 1.50025,-1.50025 0.0068,0 0.01172,0.0028 0.01806,0.0034 0.507812,0.0044 1.015625,0.198969 1.403562,0.586906 l 2.488031,2.487906 c 0.392504,0.392599 0.590316,0.907099 0.590316,1.421603 0,0.5145 -0.197812,1.029 -0.590281,1.42168 z M 11.75031,9.499713 c -0.276376,0 -0.5,-0.223625 -0.5,-0.5 0,-0.275875 0.223624,-0.4995 0.5,-0.4995 0.275874,0 0.5,0.223625 0.5,0.4995 0,0.276375 -0.224126,0.5 -0.5,0.5 z"
       id="path2"
       style="stroke-width:0.03125;fill-opacity:1;fill:currentColor;"
       class="ColorScheme-Text" />
  </g>
  <g
     id="zoom-fit-height"
     transform="translate(26)">
    <rect
       x="0"
       y="-22"
       width="22"
       height="22"
       opacity="0"
       stroke-width="1px"
       id="rect10"
       transform="rotate(90)" />
    <path
       fill-rule="evenodd"
       clip-rule="evenodd"
       d="M 9.5783,18.409716 7.09027,15.921684 C 6.70233,15.533747 6.50773,15.025935 6.50336,14.518122 c -5e-4,-0.0063 -0.003,-0.01122 -0.003,-0.01806 0,-0.828625 0.67163,-1.500251 1.50025,-1.500251 h 0.125 c 0.20678,0 0.3745,-0.167468 0.3745,-0.375 v -0.03856 c 0,-0.448 0.23657,-0.840344 0.5896,-1.060781 l 3.191243,-1.842157 c 0.130625,-0.08972 0.21925,-0.238781 0.21925,-0.409781 v -0.02356 c 0,-0.690062 0.559437,-1.250125 1.2495,-1.250125 h 0.25 c 0.2765,0 0.500125,-0.223625 0.500125,-0.4995 0,-0.04541 -0.0078,-0.0885 -0.01903,-0.130625 C 14.452738,7.157316 14.361892,6.952597 14.19883,6.789535 L 11.710796,4.301503 c -0.392346,-0.392344 -1.029186,-0.392344 -1.421746,0 L 7.80127,6.789534 C 7.63817,6.952628 7.54736,7.157347 7.5193,7.369722 7.5081,7.411852 7.5,7.454942 7.5,7.500347 c 0,0.275875 0.22387,0.4995 0.50025,0.4995 h 0.25 C 8.94043,7.999847 9.5,8.559909 9.5,9.249972 v 0.25 c 0,0.2765 -0.22388,0.500125 -0.50025,0.500125 -0.27563,0 -0.5,-0.223625 -0.5,-0.500125 V 9.375097 c 0,-0.206906 -0.16772,-0.375125 -0.3745,-0.375125 h -0.125 C 7.17162,8.999972 6.5,8.328347 6.5,7.500347 6.5,7.493647 6.503,7.488627 6.503,7.482407 6.507,6.973969 6.70197,6.466657 7.08991,6.078719 L 9.5783,3.590625 C 9.97098,3.197937 10.48545,3 10.99992,3 c 0.514501,0 1.029033,0.197937 1.421751,0.590625 l 2.487907,2.488031 c 0.387937,0.387938 0.582531,0.89525 0.586906,1.403688 6.25e-4,0.0062 0.0034,0.01122 0.0034,0.01794 0,0.828 -0.671625,1.499625 -1.50025,1.499625 h -0.125 c -0.206781,0 -0.375,0.168218 -0.375,0.375125 v 0.03919 c 0,0.445687 -0.23375,0.836906 -0.585219,1.057875 L 9.71616,12.318661 c -0.12962,0.09034 -0.21631,0.237781 -0.21631,0.408188 v 0.02294 c 0,0.690687 -0.55956,1.250249 -1.24975,1.250249 h -0.25 c -0.27638,0 -0.50025,0.223625 -0.50025,0.5 0,0.04541 0.008,0.08863 0.0193,0.130625 0.0281,0.212407 0.11891,0.41725 0.28197,0.580313 l 2.48777,2.48803 c 0.39256,0.392344 1.02941,0.392344 1.42175,0 l 2.488031,-2.488031 c 0.163094,-0.163094 0.253907,-0.367907 0.281969,-0.580313 0.01122,-0.042 0.01903,-0.08522 0.01903,-0.130625 0,-0.276375 -0.223625,-0.5 -0.500125,-0.5 h -0.25 -0.7495 c -0.276375,0 -0.5,-0.223625 -0.5,-0.5 0,-0.275875 0.223625,-0.50025 0.5,-0.50025 h 0.7495 0.25 c 0.828625,0 1.50025,0.671625 1.50025,1.50025 0,0.0068 -0.0028,0.01172 -0.0034,0.01806 -0.0044,0.507812 -0.198969,1.015625 -0.586906,1.403562 l -2.487906,2.488031 c -0.392599,0.392504 -0.907099,0.590316 -1.421603,0.590316 -0.5145,0 -1.029,-0.197812 -1.42168,-0.590281 z m 2.921871,-6.659406 c 0,-0.276376 0.223625,-0.5 0.5,-0.5 0.275875,0 0.4995,0.223624 0.4995,0.5 0,0.275874 -0.223625,0.5 -0.4995,0.5 -0.276375,0 -0.5,-0.224126 -0.5,-0.5 z"
       id="path2-3"
       style="stroke-width:0.03125;fill-opacity:1;fill:currentColor;"
       class="ColorScheme-Text" />
  </g>
  <g
     id="16-16-zoom-fit-width"
     transform="translate(-16,6)">
    <rect
       x="0"
       y="0"
       width="16"
       height="16"
       opacity="0"
       stroke-width="1px"
       id="rect15" />
    <path
       fill-rule="evenodd"
       clip-rule="evenodd"
       d="m 14.483584,9.2637045 -2.177042,2.2116065 c -0.339447,0.344833 -0.783786,0.517815 -1.228123,0.521706 -0.0055,4.38e-4 -0.0098,0.003 -0.0158,0.003 -0.725051,0 -1.3127267,-0.597011 -1.3127267,-1.33357 v -0.111453 c 0,-0.183796 -0.1465349,-0.332886 -0.3281277,-0.332886 h -0.03374 c -0.3920025,0 -0.7353049,-0.210285 -0.928189,-0.5240938 L 6.8479285,6.8613242 C 6.769408,6.745212 6.6390052,6.6664337 6.4893653,6.6664337 h -0.02056 c -0.6038138,0 -1.0938639,-0.4972822 -1.0938639,-1.1106773 V 5.3335321 c 0,-0.24578 -0.1956782,-0.4445597 -0.4370628,-0.4445597 -0.039811,0 -0.0775,0.00692 -0.1143048,0.016915 -0.1858513,0.02495 -0.3649875,0.1056939 -0.5076704,0.2506396 l -2.177039,2.2116056 c -0.3432972,0.3487576 -0.3432972,0.9148483 0,1.2637837 l 2.177038,2.2113897 c 0.1427148,0.14497 0.32184,0.225702 0.5076712,0.250633 0.03693,0.0098 0.074621,0.01716 0.1143048,0.01716 0.2413846,0 0.4370628,-0.199 0.4370628,-0.444681 v -0.222211 c 0,-0.6135102 0.4900501,-1.1108976 1.093863,-1.1108976 h 0.2187504 c 0.2419415,0 0.4376078,0.1989921 0.4376078,0.4446631 0,0.2450015 -0.1956663,0.4444505 -0.4376078,0.4444505 H 6.5782878 c -0.1810382,0 -0.3282361,0.14909 -0.3282361,0.332888 v 0.111112 C 6.2500517,11.402988 5.6623829,12 4.9378783,12 c -0.0067,0 -0.01032,-0.003 -0.01574,-0.003 C 4.4772575,11.9928 4.0333437,11.820097 3.6939035,11.475258 L 1.5168133,9.2633866 C 1.1731981,8.9146472 1,8.4573474 1,8.0000285 1,7.542696 1.1731981,7.0853263 1.5168074,6.7362404 L 3.6938323,4.5247469 C 4.0332915,4.1799108 4.4771873,4.0069367 4.9220682,4.0030476 4.9282682,4.0024922 4.9318682,4 4.9378083,4 5.6623119,4 6.2499856,4.597005 6.2499856,5.3335672 v 0.1111197 c 0,0.183807 0.147194,0.3333358 0.3282422,0.3333358 h 0.03434 c 0.3899725,0 0.7322937,0.2077805 0.9256439,0.5201998 l 1.615751,2.842931 c 0.079041,0.1152184 0.2080595,0.1922762 0.3571666,0.1922762 h 0.02008 c 0.6043557,0 1.0939747,0.4973853 1.0939747,1.1108973 v 0.222215 c 0,0.245679 0.195673,0.444682 0.437503,0.444682 0.03973,0 0.07756,-0.0071 0.114298,-0.01718 0.185856,-0.0249 0.365095,-0.105684 0.507777,-0.250628 l 2.177039,-2.2113832 c 0.343303,-0.3489354 0.343303,-0.9150352 0,-1.2637882 L 11.684667,5.1566702 c -0.142706,-0.144974 -0.321919,-0.2256974 -0.507775,-0.2506415 -0.03675,-0.00997 -0.07456,-0.016914 -0.114298,-0.016914 -0.241831,0 -0.437503,0.1987799 -0.437503,0.44456 V 5.555899 6.2221277 c 0,0.2456687 -0.195673,0.4444485 -0.437503,0.4444485 -0.2413923,0 -0.4377209,-0.1987798 -0.4377209,-0.4444485 V 5.5558969 5.3336726 c 0,-0.7365624 0.5876749,-1.333568 1.3127269,-1.333568 0.006,0 0.01026,0.00244 0.0158,0.00305 0.444339,0.00386 0.888679,0.176863 1.228125,0.521699 l 2.17704,2.2114887 c 0.343444,0.3489588 0.516531,0.8062933 0.516531,1.2636367 0,0.4573405 -0.173087,0.9146705 -0.516498,1.2637279 z M 8.6565678,6.6664619 c -0.2418313,0 -0.4375026,-0.1987797 -0.4375026,-0.4444485 0,-0.2452243 0.1956713,-0.4440042 0.4375026,-0.4440042 0.2413915,0 0.4375026,0.1987799 0.4375026,0.4440042 0,0.2456688 -0.1961111,0.4444485 -0.4375026,0.4444485 z"
       id="path2-6"
       style="stroke-width:0.0275605;fill-opacity:1;fill:currentColor;"
       class="ColorScheme-Text" />
  </g>
  <g
     id="16-16-zoom-fit-height"
     transform="translate(48,6)">
    <rect
       x="0"
       y="-16"
       width="16"
       height="16"
       opacity="0"
       stroke-width="1px"
       id="rect20"
       transform="rotate(90)" />
    <path
       fill-rule="evenodd"
       clip-rule="evenodd"
       d="M 6.7363032,14.483496 4.5246726,12.306469 c -0.3448428,-0.339445 -0.5178245,-0.78378 -0.5217092,-1.228116 -4.45e-4,-0.0055 -0.00264,-0.0098 -0.00264,-0.0158 0,-0.725047 0.5970176,-1.3127192 1.3335847,-1.3127192 h 0.1111105 c 0.183809,0 0.3328968,-0.1465344 0.3328968,-0.3281248 v -0.03374 c 0,-0.3919999 0.2102885,-0.7353007 0.5240997,-0.928183 L 9.1387403,6.8478972 C 9.2548541,6.7693922 9.3336337,6.6389639 9.3336337,6.4893389 v -0.020615 c 0,-0.603804 0.4972882,-1.0938589 1.1106903,-1.0938589 h 0.222228 c 0.245783,0 0.444565,-0.1956718 0.444565,-0.4370624 0,-0.039734 -0.0069,-0.077437 -0.01691,-0.1142968 -0.02494,-0.1858552 -0.1057,-0.3649842 -0.250647,-0.5076634 L 8.6319241,2.1388152 c -0.3487601,-0.3433009 -0.9148529,-0.3433009 -1.2638018,0 L 5.1567131,4.3158415 C 5.0117316,4.4585487 4.9310106,4.6376778 4.9060673,4.8235058 c -0.00995,0.036864 -0.017159,0.074567 -0.017159,0.1142968 0,0.2413906 0.1989998,0.4370624 0.444676,0.4370624 h 0.2222271 c 0.6135066,0 1.1109136,0.4900541 1.1109136,1.0938589 v 0.21875 c 0,0.2419374 -0.199009,0.4376092 -0.4446769,0.4376092 -0.2450096,0 -0.4444534,-0.1956718 -0.4444534,-0.4376092 V 6.5782083 C 5.7775952,6.3971656 5.6285074,6.249974 5.4446983,6.249974 H 5.3335848 C 4.5970084,6.249974 4,5.6623024 4,4.9378026 4,4.9319426 4.00264,4.9275476 4.00264,4.9221056 4.0062,4.4772225 4.1795065,4.0333246 4.5243492,3.693879 L 6.7363011,1.5167976 C 7.0853599,1.1731948 7.5426765,1 7.9999943,1 8.4573382,1 8.9147098,1.1731948 9.2638001,1.5167967 L 11.475322,3.693823 c 0.344841,0.3394456 0.517816,0.7833434 0.521706,1.2282265 5.55e-4,0.00542 0.003,0.00982 0.003,0.015697 0,0.7244998 -0.597013,1.3121714 -1.333586,1.3121714 H 10.5553 c -0.183808,0 -0.33334,0.1471907 -0.33334,0.3282343 v 0.034291 c 0,0.389976 -0.207782,0.7322925 -0.5202059,0.9256403 L 6.8588739,9.1538246 C 6.7436531,9.2328721 6.6665943,9.3618829 6.6665943,9.510989 v 0.020072 c 0,0.604351 -0.4973977,1.093968 -1.1109134,1.093968 H 5.3334536 c -0.245676,0 -0.4446769,0.195672 -0.4446769,0.4375 0,0.03973 0.00711,0.07755 0.017159,0.114296 0.024981,0.185857 0.1056999,0.365094 0.2506459,0.507774 l 2.2114,2.177026 c 0.348949,0.3433 0.9150508,0.3433 1.2638048,0 l 2.2116326,-2.177027 c 0.144976,-0.142707 0.2257,-0.321918 0.250644,-0.507773 0.0099,-0.03675 0.01691,-0.07457 0.01691,-0.114297 0,-0.241828 -0.198782,-0.4375 -0.444567,-0.4375 H 10.444181 9.7779437 c -0.245672,0 -0.4444543,-0.195672 -0.4444543,-0.4375 0,-0.2413903 0.1987823,-0.4377189 0.4444543,-0.4377189 h 0.6662373 0.222226 c 0.736573,0 1.333586,0.5876719 1.333586,1.3127189 0,0.0059 -0.0024,0.01025 -0.003,0.0158 -0.0038,0.444335 -0.176866,0.888671 -0.521707,1.228116 L 9.2637218,14.48347 c -0.3489845,0.343442 -0.8063277,0.516528 -1.2636747,0.516528 -0.4573432,0 -0.9146872,-0.173086 -1.2637439,-0.516496 z M 9.3335799,8.6565184 c 0,-0.2418289 0.1987814,-0.4374999 0.4444534,-0.4374999 0.2452287,0 0.4440107,0.195671 0.4440107,0.4374999 0,0.2413896 -0.198782,0.4374998 -0.4440107,0.4374998 -0.245672,0 -0.4444534,-0.1961102 -0.4444534,-0.4374998 z"
       id="path2-3-7"
       style="stroke-width:0.0275601;fill-opacity:1;fill:currentColor;"
       class="ColorScheme-Text" />
  </g>
</svg>
