<?xml version="1.0" encoding="UTF-8" standalone="no"?>
<svg
   width="136.53334"
   height="136.53334"
   id="svg5048"
   version="1.1"
   inkscape:version="1.1 (c68e22c387, 2021-05-23)"
   sodipodi:docname="switch_primary.svg"
   viewBox="0 0 128 128"
   xmlns:inkscape="http://www.inkscape.org/namespaces/inkscape"
   xmlns:sodipodi="http://sodipodi.sourceforge.net/DTD/sodipodi-0.dtd"
   xmlns:xlink="http://www.w3.org/1999/xlink"
   xmlns="http://www.w3.org/2000/svg"
   xmlns:svg="http://www.w3.org/2000/svg"
   xmlns:rdf="http://www.w3.org/1999/02/22-rdf-syntax-ns#"
   xmlns:cc="http://creativecommons.org/ns#"
   xmlns:dc="http://purl.org/dc/elements/1.1/">
  <defs
     id="defs5050">
    <linearGradient
       inkscape:collect="always"
       id="linearGradient1295">
      <stop
         style="stop-color:#1fd2ff;stop-opacity:1"
         offset="0"
         id="stop1291" />
      <stop
         style="stop-color:#44ffda;stop-opacity:1"
         offset="1"
         id="stop1293" />
    </linearGradient>
    <filter
       id="filter4004-4"
       inkscape:label="Colorize"
       inkscape:menu="Color"
       inkscape:menu-tooltip="Blend image or object with a flood color and set lightness and contrast"
       x="0"
       y="0"
       width="1"
       height="1"
       color-interpolation-filters="sRGB">
      <feColorMatrix
         id="feColorMatrix4006-0"
         values="1"
         in="SourceGraphic"
         type="saturate"
         result="result2" />
      <feFlood
         id="feFlood4008-2"
         flood-color="rgb(250,247,247)"
         flood-opacity="1"
         result="result1" />
      <feBlend
         id="feBlend4010-1"
         in2="result2"
         mode="multiply"
         in="result1"
         result="result3" />
      <feComposite
         id="feComposite4012-3"
         in2="SourceGraphic"
         operator="in"
         result="result4" />
    </filter>
    <style
       id="current-color-scheme"
       type="text/css">      .ColorScheme-Text {
        color:#31363b;
      }
      .ColorScheme-Background{
        color:#eff0f1;
      }
      .ColorScheme-ViewText {
        color:#31363b;
      }
      .ColorScheme-ViewBackground{
        color:#fcfcfc;
      }
      .ColorScheme-ViewHover {
        color:#3daee9;
      }
      .ColorScheme-ViewFocus{
        color:#3daee9;
      }
      .ColorScheme-ButtonText {
        color:#31363b;
      }
      .ColorScheme-ButtonBackground{
        color:#eff0f1;
      }
      .ColorScheme-ButtonHover {
        color:#3daee9;
      }
      .ColorScheme-ButtonFocus{
        color:#3daee9;
      }</style>
    <linearGradient
       inkscape:collect="always"
       xlink:href="#linearGradient1295"
       id="linearGradient1297"
       x1="10.129729"
       y1="1037.7529"
       x2="94.12973"
       y2="953.75293"
       gradientUnits="userSpaceOnUse"
       gradientTransform="matrix(0.93743676,0,0,0.93743676,3.9582951,60.743113)" />
  </defs>
  <sodipodi:namedview
     id="base"
     pagecolor="#ffffff"
     bordercolor="#000000"
     borderopacity="1"
     inkscape:pageopacity="0.12941176"
     inkscape:pageshadow="2"
     inkscape:zoom="2"
     inkscape:cx="64.25"
     inkscape:cy="76.75"
     inkscape:document-units="px"
     inkscape:current-layer="layer1"
     showgrid="true"
     inkscape:window-width="1920"
     inkscape:window-height="1015"
     inkscape:window-x="0"
     inkscape:window-y="0"
     inkscape:window-maximized="1"
     fit-margin-top="0"
     fit-margin-left="0"
     fit-margin-right="0"
     fit-margin-bottom="0"
     inkscape:snap-bbox="true"
     inkscape:document-rotation="0"
     inkscape:pagecheckerboard="0">
    <inkscape:grid
       type="xygrid"
       id="grid3001"
       empspacing="4"
       visible="true"
       enabled="true"
       snapvisiblegridlinesonly="true"
       color="#0101ff"
       opacity="0.01960784"
       empcolor="#0000ff"
       empopacity="0.03921569"
       originx="0"
       originy="0"
       spacingx="1"
       spacingy="1" />
  </sodipodi:namedview>
  <metadata
     id="metadata5053">
    <rdf:RDF>
      <cc:Work
         rdf:about="">
        <dc:format>image/svg+xml</dc:format>
        <dc:type
           rdf:resource="http://purl.org/dc/dcmitype/StillImage" />
      </cc:Work>
    </rdf:RDF>
  </metadata>
  <g
     inkscape:label="Layer 1"
     inkscape:groupmode="layer"
     id="layer1"
     transform="translate(-6.129729,-913.75296)">
    <path
       d="m 66.784509,956.87883 c 1.941583,0 3.515816,1.57401 3.515816,3.51541 0,1.94133 -1.574233,3.51513 -3.515816,3.51513 -1.94159,0 -3.515822,-1.574 -3.515822,-3.51513 0,-1.94118 1.574232,-3.51541 3.515822,-3.51541 z m 56.108701,-5.1285 c -0.004,0.004 -0.006,0.007 -0.009,0.0105 l -8.94776,8.94599 c -0.007,0.007 -0.007,0.014 -0.0139,0.0211 -1.02997,1.02981 -1.02997,2.69807 0,3.72808 0.0351,0.0351 0.0457,0.0645 0.0652,0.0995 l 2.44974,2.4476 -0.0229,0.0245 c 1.52436,1.52433 2.57856,3.51869 2.93907,5.75358 l 0.1683,0.16808 c 0,0.14082 -0.0387,0.31747 -0.0995,0.52002 0.0317,0.32961 0.0995,0.64881 0.0995,0.98697 0,5.82543 -4.72268,10.54546 -10.54767,10.54546 -0.2867,0 -0.55633,-0.0621 -0.8362,-0.0833 -0.22828,0.0439 -0.45481,0.0833 -0.67121,0.0833 H 79.340998 c -4.103105,0 -8.123594,-1.98396 -11.117598,-4.98437 -1.270375,-1.26342 -3.021469,-2.046 -4.954484,-2.046 h -3.60857 -1.665187 -26.369288 c -1.941585,0 -3.515813,1.57395 -3.515813,3.51512 0,0.97662 0.399216,1.85898 1.041212,2.4955 h -8.83e-4 l 4.830125,4.82991 c 2.599184,2.75321 2.567331,7.08202 -0.124576,9.78002 L 22.38724,1010.0594 c -0.0067,0.01 -0.0077,0.013 -0.01459,0.021 -1.648048,1.6479 -1.648048,4.3185 0,5.9665 0.122826,0.1217 0.182146,0.2335 0.20697,0.3359 l 9.5203,9.5197 c 0.02304,0.022 0.04276,0.022 0.06691,0.046 1.64717,1.6479 4.318417,1.6479 5.966477,0 0.0077,-0.01 0.01363,-0.01 0.0215,-0.016 l 11.767506,-11.7664 c 2.761323,-2.4664 6.987905,-2.3995 9.638724,0.2504 0.02755,0.028 0.04992,0.026 0.07565,0.049 l 4.662717,4.6617 c 0.63518,0.6354 1.514241,1.0301 2.48581,1.0301 1.941582,0 3.515811,-1.5741 3.515811,-3.5152 v -21.09278 c 0,-1.94138 1.574239,-3.51536 3.515819,-3.51536 1.941804,0 3.516032,1.57398 3.516032,3.51536 v 19.58558 c 0,0.2885 -0.03083,0.5787 -0.06526,0.8689 0.01363,0.214 0.06526,0.4188 0.06526,0.6383 0,5.8254 -4.722683,10.5459 -10.547662,10.5459 -0.22147,0 -0.429317,-0.053 -0.645507,-0.067 -0.293541,0.04 -0.582021,0.067 -0.861713,0.067 l -0.168299,-0.1684 c -2.238634,-0.3604 -4.233613,-1.4172 -5.759725,-2.9429 l -0.02237,0.024 -2.444721,-2.4446 c -0.03427,-0.021 -0.06533,-0.031 -0.09953,-0.067 -1.030008,-1.0301 -2.698713,-1.0301 -3.728716,0 -0.0067,0.01 -0.01363,0.01 -0.02055,0.014 l -8.85744,8.8572 c -0.02055,0.02 -0.04052,0.023 -0.06087,0.044 -4.960634,4.9589 -13.001844,4.9589 -17.962267,0 -0.0038,0 -0.0058,-0.01 -0.0097,-0.01 l -8.048235,-8.0467 c -0.0694,-0.1333 -0.154452,-0.2639 -0.27727,-0.3877 -4.959763,-4.9585 -4.959763,-13.0001 0,-17.9585 0.02055,-0.021 0.024,-0.04 0.04358,-0.061 l 8.803387,-8.80348 c 0.0058,-0.007 0.0058,-0.0139 0.01296,-0.0212 1.030012,-1.03001 1.030012,-2.69832 0,-3.72809 -0.03427,-0.0351 -0.04455,-0.0644 -0.06529,-0.0978 l -2.449775,-2.44932 0.02304,-0.0246 c -1.524348,-1.52409 -2.580285,-3.51866 -2.939067,-5.75332 l -0.169164,-0.16817 c 0,-0.13908 0.03695,-0.31595 0.09952,-0.52008 -0.03084,-0.32954 -0.09952,-0.6488 -0.09952,-0.98695 0,-5.82366 4.722694,-10.54545 10.54767,-10.54545 0.286724,0 0.555433,0.0627 0.836001,0.083 0.227616,-0.0439 0.455019,-0.083 0.671218,-0.083 h 19.588118 8.539075 c 0.745036,0 1.486782,0.0849 2.221499,0.21267 3.291051,0.56467 6.424132,2.31205 8.875445,4.76135 l 0.0038,-0.004 c 1.272131,1.27342 3.030039,2.0598 4.971841,2.0598 h 3.608535 1.665414 26.369312 c 1.94159,0 3.51582,-1.57403 3.51582,-3.5152 0,-0.97507 -0.39814,-1.8572 -1.04013,-2.49566 v 0 l -4.83099,-4.82993 c -2.5974,-2.75298 -2.56495,-7.0817 0.12524,-9.77823 l 11.54849,-11.54752 c 0.0212,-0.0245 0.0212,-0.0439 0.0457,-0.0651 1.47121,-1.47097 1.62059,-3.75203 0.46713,-5.3972 l -10.33528,-10.33169 c -0.007,-0.007 -0.0124,-0.007 -0.0212,-0.0149 -1.64807,-1.64781 -4.31931,-1.64781 -5.96561,0 -0.0246,0.0236 -0.0439,0.0255 -0.0662,0.0448 l -11.739185,11.73742 c -2.760455,2.46646 -6.98725,2.39945 -9.637848,-0.25068 -0.02755,-0.0281 -0.04992,-0.0263 -0.07565,-0.0493 l -4.662703,-4.66184 c -0.635178,-0.63584 -1.514245,-1.02978 -2.48581,-1.02978 -1.941583,0 -3.515815,1.57404 -3.515815,3.5152 v 7.03049 c 0,1.94118 -1.574235,3.51516 -3.515814,3.51516 -1.941591,0 -3.51582,-1.57398 -3.51582,-3.51516 v -5.5235 c 0,-0.28827 0.03093,-0.57741 0.06528,-0.86679 -0.01363,-0.21621 -0.06528,-0.42051 -0.06528,-0.64018 0,-5.82369 4.722909,-10.54573 10.547675,-10.54573 0.221682,0 0.429307,0.0521 0.645508,0.0647 0.293528,-0.0405 0.581795,-0.0647 0.861699,-0.0647 l 0.168523,0.1692 c 2.238423,0.35968 4.233614,1.41606 5.759727,2.94277 l 0.02237,-0.0236 2.446258,2.44495 c 0.03245,0.0212 0.06355,0.0318 0.09777,0.0651 1.030009,1.02977 2.698714,1.02977 3.728939,0 0.0067,-0.007 0.01363,-0.006 0.02054,-0.0133 l 8.894344,-8.89283 c 0.002,-0.004 0.0048,-0.005 0.0087,-0.008 4.961532,-4.9587 13.002752,-4.9587 17.962522,0 0.0212,0.0212 0.0406,0.0245 0.0602,0.0439 l 8.8137,8.81196 c 4.4977,4.98479 4.38787,12.65006 -0.4137,17.45274 z"
       id="path2"
       style="fill:url(#linearGradient1297);fill-opacity:1;stroke-width:0.21971" />
  </g>
</svg>
